M71
M48
T1F00S00C0.032
T2F00S00C0.036
T3F00S00C0.070
T4F00S00C0.140
%
T01
X0135Y0045
X0145
X014Y004
X0545Y0045
X0555
X055Y004
X062Y0035
Y0045
X0625Y004
X062Y006
Y007
X0625Y0065
X062Y014
Y015
X0625Y0145
X062Y0165
Y0175
X0625Y017
X0555Y016
X0545
X055Y0165
X0545Y015
X0555
X055Y0145
Y006
X0555Y0055
X0545
X0145
X0135
X014Y006
X0145Y015
Y016
X0155
X015Y0165
X0155Y015
X015Y0145
Y025
X0145Y0255
Y0265
X0155
X015Y027
X0155Y0255
X0545
Y0265
X0555
X055Y027
X0555Y0255
X055Y025
X062Y0245
Y0255
X0625Y025
X062Y027
Y028
X0625Y0275
Y036
X0615
X062Y0355
X0545Y036
X0535
X054Y0355
X0545Y037
X0535
X054Y0375
X0615Y037
X0625
X062Y0375
X0365Y047
X0355
X036Y0465
X0365Y048
X0355
X036Y0485
X0285Y048
Y047
X0275
X028Y0465
X0275Y048
X028Y0485
X0205Y048
Y047
X0195
X02Y0465
X0195Y048
X02Y0485
X0125Y048
Y047
X0115
X012Y0465
X0115Y048
X012Y0485
X02225Y05975
Y06075
X02275Y06025
X024Y067
X025
X0245Y0675
X0325Y06
X0335
X033Y0595
X0325Y058
X0335
X033Y0575
X025Y06875
X024
X0245Y06925
T02
X0045Y001
X0055
X00425Y003
X005Y004
X006Y0045
X007Y005
X00675Y0025
X0095Y003
X0105
X0115
X0125
Y007
X0115
X0105
X0095
X0155Y0055
Y0045
X0185Y003
Y007
X0225Y00525
X0245Y0055
X0255
X0245Y007
Y003
X0215Y0025
X0285Y003
X0315
X0325
Y007
X0315
X0285
X0395
X0405
X0445
X0455
Y003
X0445
X0405
X0395
X0535
Y007
X0575
X0585
X0595
X0605
Y003
X0595
X0585
X0575
X0585Y00125
X0595
X0605Y001
X0655Y003
Y007
X0685
X069Y0045
X0685Y003
X0725Y0025
X0735Y0035
X0725Y0045
X0695Y003
Y007
Y008
X0685
Y012
X0695
Y0135
X0705
X0715
X0685
Y0175
X0695
X0705
X0715
Y0205
X0705Y0215
Y0195
X069Y02025
X0675Y019
X0665
X0655
X0645
X0635
Y0175
X0645
X0655
X0665
X0675
Y0135
X0665
X0655
X0645
X0635
Y0115
X0625
X0615
X0605
X0595
X0585
X0575
X0565
X0555
X0545
X0535
Y0135
X053Y01625
X0535Y0175
Y019
X055Y01875
X0545Y018
Y0205
Y022
X0535
X0575
X0585
X0595
X0605
X0615
X0635
X0645
X0655
X0665
X0675
X0615Y019
X0605
X0595
X0585
X0575
Y0175
X0585
X0595
X0605
X06075Y016
X06Y0145
X0605Y0135
X0595
X0585
X0575
X0565Y01525
Y01625
X0585Y0205
X0595Y01
Y0085
X0585
X0575
X0565
X055
X0535
X0545Y0075
X0555
X0565Y00675
Y00575
X0555Y01
X0605Y0085
X0615
X0625
X0635
X0645
X0655
X0665
X0675
Y007
X0665
X0645
X0635
Y003
X0645
X0665
X0675
X068Y0105
X0675Y0115
X0665
X0655
X0645
X0525
X0515
X0505
Y0125
Y01425
X05225Y0135
X05175Y016
X0505Y0175
Y019
X0495
X0475
X0465
X0455
X0445
X0435
X0425
X0415
X0405
X0395
Y0175
X0405
X0415
X0425
X0445
X0455
X0465
X0475
X0485
Y0135
X0475
X0465
X0455
X0445
X0425
X0415
X0405
X0395
X0385
Y0115
X0395
X0405
X0415
X0425
X0435
X0445
X0455
X0465
X0475
X0485
X0495
X0505Y01
Y0085
X0495
X0485
X0475
X0465
X0455
X0445
X0435
X0425
X0415
X0405
X0395
X0385
X0375
X0385Y007
X0415
X0425
X0435
Y01
X0425
Y01525
X0415
X037Y016
X0385Y0175
X0375Y019
Y022
X0395
X0405
X0415
X0425
X0435
X0445
X0455
X0465
X0475
X0495
X0505
X0515
X0525
Y019
X0515
X0505Y0205
X0435
X0425
X0375Y0115
X0385Y003
X0415
X0425
X0435
X0465
X0475
X0505Y002
Y007
X0515Y0085
X0525
X0475Y007
X0465
X0365Y0085
X0355
X0345
X0335
X0325
X0315
X0305
X0295
X0285
X0275
X0265
X0255
Y007
X0275
X0295
X0305
X0345
Y01
Y0115
Y0125
Y0145
X0325Y0135
X0315
X0305
X0295
X0285
X0275
X0255
X0245
X0235
X0225Y0155
X02175Y01525
X0245Y01625
X0255
Y0175
X0245
X0235
X0255Y019
X0275
X0285
X0295
X0305
X0315
Y0175
X0325
X0305
X0295
X0285
X0275
X0295Y015
Y0115
X0305
X0315
X0325
X0335
X0355
X0365
Y019
X0355
X0345
X0335
X0345Y0205
Y022
X0355
X0365
X0335
X0315
X0305
X0295
X0285
X0275
X0255
X022Y0205
X0255Y0115
X0265
X0275
X0285
Y01
X0275Y003
X0255
X0235
Y007
X0295Y003
X0305
X0345Y002
Y0175
X0245Y019
X0235
X0225
X0215
X0205
X0195
X0185
X0175
Y0175
X0185
X0195
X02Y01675
X0195Y0155
X02075Y01475
X0195Y0135
X0185
X0175
X0165
Y0115
X0175
X0185
X0195
X0205
X0215
X0225
X0235
X0245
Y0085
X0235
X0225
X0215
X0205
X0195
X0185
X0175
X0165
Y007
X0175
X0195
X0205Y01
X0155
Y0115
X0145
X0135
X0125
X0115
X0105
X0095
X0085
X0095Y0135
X0105
X0115
X0125
Y01575
X0135Y0155
Y0165
X0115
Y0175
X0105
X0095
Y019
X0105
X0115
X0125
X0135
X015
X0145Y018
X0165Y0175
X0125
X011Y01975
X0095Y0205
Y022
X0105
X0115
X0125
X0135
X0145
X0175
X0185
X0195
X0205
X0215
X0225
X0235
X0245
X007Y0205
X006Y0215
Y0195
Y0175
X00675Y017
X00625Y015
X00725Y0145
X00675Y013
X006Y0135
Y011
X007Y01
X006Y009
Y007
Y003
X0085Y0085
X0095
X0105
X0115
X0125
X0135
X0145Y0075
X0155
X0165Y003
X0175
X0195
X0105Y01
X0055Y0145
X005Y01525
X00475Y01625
X00225
Y01725
Y01825
Y01925
Y02025
Y02125
Y02225
X00125
Y02125
Y02025
Y01925
Y01825
Y01725
Y01625
Y01525
X00225
Y01425
X00125
Y01325
X00225
X0055Y0225
X00525Y02325
X005Y02575
X002Y0255
X00125Y026
X00075Y027
X0055Y0355
X0065Y0335
X006Y032
X007Y031
X006Y03
Y028
X007Y02625
X006Y024
X0095
X0105
X0115
X0125
X0135Y0255
Y0265
X0125Y028
X0115
X0105
X0095
Y0295
X0085
X0105
X0115
X0125
X0135
X0145Y0285
X0155
X0165Y028
X0175
X0185
X0195
Y0295
X0185
X0175
X0165
X0155Y031
Y0325
X0165
X0175
X0185
X0195
X0205
X0215
X0225
X0235
X0245
Y0295
X0235
X0225
X0215
X0205
Y031
Y0345
X0195
X0185
Y0385
X0195
X0205
X0135
Y0345
Y0325
X0125
X0115
X0105
X0095
X0085
X0115Y031
X0145Y0325
X0165Y024
X0175
X0185
X0195
X02025Y02425
X0195Y026
X021Y0275
X0165Y022
X0155
X0165Y019
X0155Y018
X0085Y019
Y022
X0065Y0385
X0215
X0245
X0255
X0265
X0275
X0285
X0295
X0305
X0315
X0345
X0355
X0365
Y0345
X0355
X0345
Y0325
X0355
X0365
X035Y031
X034
X0335Y0295
X0325
X0315
X0305
X0295
X0285
X0275
X0265
X0255
Y028
X0245
X0235
X0245Y02675
X0255
X0275Y0265
Y028
X0285
X0295
X0305
X0315
X0325
X0345
Y0295
X0355
X0365
X0335Y0325
X0325
X0315
X0305
X0295
X0285
X0275
X0265
X0255
X026Y031
X027
X0265Y0345
X0255
X0245
X0215
X0275
X0285
X0295
X0305
X0315
X0335Y036
X028Y0355
X0275Y024
X0285
X0295
X0305
X0315
X0325
Y02525
Y022
X0345Y023
X0325Y019
X0265
Y022
X0255Y024
X0245
X0235
X0225Y026
X0385Y028
X0395
X0405
X0415
X0425
Y0295
X0415
X0405
X0395
X0385
X0375
Y0325
X0385
X0395
X0405
X0415
X0425
X0435
X0445
X0455
X0465
X0475
X0485
X0495
X0505
X0515
X0525
Y0295
X0515
X0505
X0495
X0485
X0475
X0465
X0455
X0445
X0435
Y031
X0425
X0415Y0345
X0405
X0395
X0385
X0375
X0395Y0365
Y0385
X0405
X0415
X0445
X0455
X0465
X0475
Y0345
X0465
X0455
X0445
Y036
Y028
X0455
X0465
X0475
X0485
X0505
X051Y0265
X0505Y023
X0485Y024
X0475
X0465
X0455
X0445
Y026
X0425Y024
X0415
X0405
X0395
X0385
Y022
Y019
X0485
Y022
X0505Y031
X05225Y0365
X0385Y0385
X0375
X0525
Y0345
X0535Y0325
X0545
X0555
X0565
X0575
X0585
X0595
X0605
X0615
X0625
X0635
X0645
X0655
X0665
X0675
Y0345
X0665
X0655
Y0385
X0665
X0675
X0605
X0595
X0585
X0575
Y0345
X0585
X0595
X0605
X0595Y031
Y0295
X0585
X0575
X0565
X055
X0545Y0285
X0555
Y031
X0535Y0295
Y028
Y024
X0575
X0585
X0595
X0605
X0635
X0645
X0655
X0665
X0675
X066Y02475
X0665Y028
X0675
X067Y02875
X0675Y0295
X0665
X0655
X0645
X0635
X0625
X0615
X0605
Y028
X0595
X0585
X0575
X0565Y0265
Y0255
Y022
X0555
X0565Y019
X0555Y018
X0625Y019
Y022
X0635Y028
X0645
X0655
X0685
X0695
X0705
X0715
Y031
X0705Y032
Y03
Y024
X0715
X0695
X0685
X06975Y02225
X07Y04
Y043
X06975Y0455
X07Y04875
X0705Y051
X07025Y05175
X0705Y054
X07275Y053
Y052
Y051
Y05
Y049
Y048
Y047
Y046
Y045
Y044
X07375
Y045
Y046
Y047
Y048
Y049
Y05
Y051
Y052
Y053
X0695Y054
X0685
X0675
X0665
X0635
X0625
X0615
X0605
X0595
Y051
X0605
X0615
X0625
X0635
X0665
X0675
X0685
X0695
X0675Y0495
X0665
Y0455
X0675
Y043
X0685
X0665
X0655
X0645
X0635
X0625
X0615
X0605
X0595
X0585
X0575
X0565
X0555
X0545
X0535
Y0455
X0525
X0545Y04675
X0555Y04475
X05525Y0415
X0565Y04
X0575
X0585
X0595
X0605
X0615
X0625Y039
X0635
X0645Y0385
Y04
X0655
X0665
X0675
X0685
X063Y0415
Y045
X0605Y0455
X0595
X0615Y0475
X0605Y0495
X0595
X0565Y051
X0555
X0545
X0535
X0525
Y0495
X0535
Y054
X0545
X0555
X0565
X0525
X0535Y04
X0545Y039
X0555
X0565Y0385
X0555Y037
Y036
X0565Y0345
X0645
X0635Y036
Y037
X0515
Y036
X0505Y0345
X0495
Y0385
X0505
Y04
X0495
X0485
X0475
X0465
X0455
X0445
X0435
X0425
X0415
X0405
X0395
X0385
X0375
Y043
X0385
X0395
X0405
X0415
X0425
X0435
X0445
X0455
X0465
X0475
X0485
X0495
X0505
X0515
X0525
X051Y0415
X0515Y04
X0525
X0425Y0415
Y0455
X0435
X0445
X0455
X0465
X0475Y04725
X0465Y0495
X0455
X0445
X0435
X0425
X0415
X0405
X0395
X0385
Y051
X0395
X0405
X0415
X0425
X043Y05225
X042
X0415Y054
X0405
X0395
X0385
X0425
X0455
X0465
X0475
X0485
X0495
Y051
X0485
X0475
X0465
X0455
X0425Y04725
X0415Y0455
X0405
X0395
X0385
X0375Y047
Y048
X0355Y05
X0345Y0495
X0335
X0325
X0315
X0305
Y051
X0315
X0325
X0335
X0345
Y054
X0335
X0325
X0315
X0305
X0275
X0265
X0255
X0245
X0235
X0225
Y051
X0235
X0245
X0255
X0265
Y0495
X0255
X0245
X0235
X0225
X0215Y048
Y047
X0225Y0455
X0235
X0245
X0255
X0265
X0275Y043
X0285
X0295
X0305
X0315
X0325
X0335
X0345
X0355
X0365
Y04
X0355
X0345
X0335
X0325
X0315
X0305
X0295
X0285
X0275
X027Y03725
X0235Y0415
X0325
Y0455
X0315
X0305
X0295Y047
Y048
X0275Y05
X0335Y0455
X0345
X0355Y054
X0195
X0185
X0175
X0165
X0155
X0145
Y051
X0155
X0165
X0175
X0185
Y0495
X0175
X0165
X0155
X0145
X0135Y048
Y047
X01375Y045
X0145Y0455
X0155
X0165
X0175
X0185
X019Y0445
X0185Y043
X0195
X0205
X0215
X0225
X0235
X0245
X0255
X0265
Y04
X0255
X0245
X0235
X0225
X0215
X0205
X0195
X0185
X0165
X0155
X0145
X0135
X0125
X0115
X01
X009
X008
X007
X006
Y043
X007
X008
X009
X01
X0115
X0125
X0135
X0145
X0155
X0165
X01575Y04775
X0195Y05
X0115
X0105Y0495
X0095
X0085
X0075
X0065
Y051
X0075
X0085
X0095
X0105
X009Y05175
X008Y05225
X0085Y054
X0095
X0105
X0115
X0075
X0065
Y0455
X0075
X0085
X0095
X0105
X008Y0385
X007Y03725
X008Y0345
X0145
Y0385
X005Y04
Y043
X00125Y04
Y04875
Y04975
Y05075
Y05175
Y05275
Y05375
Y05475
Y05575
Y05675
Y05775
X00225
Y05675
Y05575
Y05475
Y05375
Y05275
Y05175
Y05075
Y04975
Y04875
X0055Y051
Y054
X00425Y05825
X00375Y059
X00325Y05975
X001Y06075
X002Y0635
X00275Y063
X0035Y06525
X0055Y066
Y07
X0065
X0075
X0085
X0095
X0105
X0115
X0125
X0135
Y066
X0125
X0115
X0105
X0095
X0085
X0075
X0065
X01025Y0645
X01125
X01225
X01325
X01425
X01525
Y0615
X01425
X01325
X01225
X01125
X01025
Y06
X01125
Y05925
X01225Y06
X01325
X01225Y05825
X01025
Y056
X01125
X01225
X01325
X0135Y054
X0125
Y0525
X0135Y051
X0125Y05
X0205
Y0525
Y054
X01875Y05925
X01775Y06025
X01875Y06125
X0195Y066
X0205
Y07
X0195
X023
X0265
X0275
X0295
X0305
X0335
X0345
Y066
X0335
X0325Y0645
X0315
X0305
X0295
X0285
X0275
Y066
X0265
X026Y068
X023Y066
X022Y06625
X02375Y06225
X02475
X02575
X0275Y0615
X0285
X0295
X0305
X0315
X0325
X03175Y06
X0315Y05925
X0305Y0605
X0295
X0285
Y0565
X0295
X0305
X0315Y0555
X03425Y05525
X0345Y0565
Y059
Y0605
X0365Y054
Y0525
Y05
X0295Y051
X0285Y05
Y0525
Y054
X0295
X0275Y0555
X0235
Y057
X0245
X02475Y05825
X02575
X02375
X0215Y054
Y051
X0295Y066
X0305
X0385
X0395
X0405
X0415
X0425
X0435
X0445
X0455
X0465
Y07
X0455
X0445
X0435
X0425
X0415
X0405
X0395
X0385
X0395Y0595
X0405
X0445
X0455
X0465
X0475
X0485
X0495
X0505
X0515
Y0555
X0505
X0495
X0485
X0475
X0465
X0455
X0445
Y054
Y051
X0375
X0385Y0525
X0375Y054
X0395Y0555
X0405
X0515Y054
Y051
X0525Y0555
X0535
X0545
X0555
X0565
X0575
X0585
X0595
X0605
X0615
X0625
X0635
X0645
X0655
X0665
X0675
X0655Y054
Y051
X0585
Y054
X059Y05625
X06
X058Y05725
X0585Y0595
X0575
X0565
X0555
X0545
X0535
X0525
Y066
X0535
Y07
X0525
X0595
X0605
Y066
X0595
Y0595
X0605
X0615
X0625
X0635
X0645
X0655
X0665
X0675
X0645Y06075
X065Y063
X066Y0635
X0665Y066
X0675
Y07
X0665
X0685Y0595
X0695
X0705
X0715
X07225Y058
X073Y0585
X0735Y05775
Y05675
X074Y05875
X07425Y0595
Y06075
X0715Y0555
X0705
X0695
X0685
X069Y05675
X0705Y0715
Y0745
Y076
X0695
X0685
X0715
Y08
X0705
X0695
X0685
X0675
X0665
X0655
X0645
X0635
X0625
X0615
X0605
X0595
X0585
X0575
X0565
X0555
X0545
X0535
X0525
Y076
X0535
X0545
X0555
X0565
X0575
X0585
X0595
X0605
X0615
X0625
X0635
X0645
X0655
X0665
X0675
Y0745
X0685
X0695
Y0715
X0685
X0675
X0665
X0655
X0635
X0625
X0615
X0605
X0595
X0585
X0565
X0555
X0545
X0535
X0525
Y0745
X0535
X0545
X0555
X0565
X0585
X0595
X0605
X0615
X0625
X0635
X0655
X0665
Y08325
X0515Y08
X0505
X0495
X0485
X0475
X0465
X0455
X0445
X0415
X0405
X0385
X0375
Y076
X0385
Y0745
X0395
X0405
X0415
X0425
X0435
X0445
X0455
X0465
X0475
X0485
X0495
Y076
X0505
X0515
Y0745
Y0715
X0495
X0485
X0475
X0465
X0455
X0445
X0435
X0425
X0415
X0405
X0395
X0385
X0375
Y0745
X0405Y076
X0415
X0445
X0455
X0465
X0475
X0485
X0475Y08225
X042Y08175
X0395Y0825
X0365Y08
X0355
X0345
X0335
X0325
X0315
X0305
X0295
X0285
X0275
X0265
X0255
X0245
X0235
X0225
X0215
Y076
X0225
X0235
X0245
X0255
X0265
X0275
X0285
X0295
X0305
X0315
X0325
X0335
X0345
X0355
X0365
Y0745
X0355
X0345
X0335
X0325
X0305
X0295
X0285
X0275
X0265
X0255
X0235
Y0715
X0255
X0265
X0275
X0285
X0295
X0305
X0325
X0335
X0345
X0355
X0365
X0315Y07
X0295Y06875
X0315Y066
X0225Y0715
X0215
X0205
X0195
X0185
X0165
X0155
X0145
X0135
X0125
X0115
X0105
X0095
X0085
X0075
X0065
Y0745
X0075
X0085
X0095
X0105
X0115
X0125
X0135
X0145
X0155
X0165
Y076
X0155
X0145
X0135
X0125
X0115
X0085
X0075
Y08
X0085
X0115
X0125
X0135
X0145
X0155
X0165
X0175
X0185
X0195
X0205
Y076
X0195
X0185
X0175
X0185Y0745
X0195
X0205
X0215
X0225
X01Y082
X00925Y08325
X0065Y08275
X0055Y0745
Y0715
X0195Y08275
X0205
X0215
X0225
X0235
X0245
X0255
X0265
X0275
X0285
Y08375
X0275
X0265
X0255
X0245
X0235
X0225
X0215
X0205
X0195
X0425Y0845
X053Y08375
X054
X055
X056
X057
X058
X059
X06
X061
X062
Y08275
X061
X06
X059
X058
X057
X056
X055
X054
X053
T03
X0015Y07057
Y07213
Y07369
Y07525
T04
X0725Y0075
X0025
X0725Y0375
X0025
X0725Y0825
X0025
M30
