*%FSLAX23Y23*%
*%MOIN*%
G01*
%ADD11C,0.006*%
%ADD12C,0.007*%
%ADD13C,0.008*%
%ADD14C,0.010*%
%ADD15C,0.012*%
%ADD16C,0.020*%
%ADD17C,0.030*%
%ADD18C,0.032*%
%ADD19C,0.036*%
%ADD20C,0.050*%
%ADD21C,0.050*%
%ADD22C,0.052*%
%ADD23C,0.054*%
%ADD24C,0.055*%
%ADD25C,0.056*%
%ADD26C,0.059*%
%ADD27C,0.062*%
%ADD28C,0.066*%
%ADD29C,0.070*%
%ADD30C,0.090*%
%ADD31C,0.125*%
%ADD32C,0.129*%
%ADD33C,0.140*%
%ADD34C,0.160*%
%ADD35C,0.250*%
%ADD36R,0.062X0.062*%
%ADD37R,0.066X0.066*%
D14*
X13476Y7367D02*
Y7400D01*
Y7383D02*
Y7367D01*
Y7383D02*
X13376D01*
X13377D01*
X13376D02*
X13393Y7400D01*
Y7317D02*
X13376Y7300D01*
Y7267D01*
X13393Y7250D01*
X13459D01*
X13476Y7267D01*
Y7300D01*
X13459Y7317D01*
X13393D01*
Y7217D02*
X13376Y7200D01*
Y7167D01*
X13393Y7150D01*
X13459D01*
X13476Y7167D01*
Y7200D01*
X13459Y7217D01*
X13393D01*
X13426Y7117D02*
Y7050D01*
X13476Y7017D02*
Y6983D01*
Y7000D01*
X13376D01*
X13377D01*
X13376D02*
X13393Y7017D01*
Y6933D02*
X13376Y6917D01*
Y6884D01*
X13393Y6867D01*
X13459D01*
X13476Y6884D01*
Y6917D01*
X13459Y6933D01*
X13393D01*
Y6834D02*
X13376Y6817D01*
Y6784D01*
X13393Y6767D01*
X13459D01*
X13476Y6784D01*
Y6817D01*
X13459Y6834D01*
X13393D01*
Y6734D02*
X13376Y6717D01*
Y6684D01*
X13393Y6667D01*
X13409D01*
X13410D01*
X13409D02*
X13410D01*
X13409D02*
X13410D01*
X13409D02*
X13426Y6684D01*
Y6700D01*
Y6684D01*
X13443Y6667D01*
X13459D01*
X13476Y6684D01*
Y6717D01*
X13459Y6734D01*
X13426Y6634D02*
Y6567D01*
X13393Y6534D02*
X13376Y6517D01*
Y6484D01*
X13393Y6467D01*
X13459D01*
X13476Y6484D01*
Y6517D01*
X13459Y6534D01*
X13393D01*
X13476Y6434D02*
Y6400D01*
Y6417D01*
X13376D01*
X13377D01*
X13376D02*
X13393Y6434D01*
X13376Y6250D02*
X13476D01*
X13376D02*
Y6200D01*
X13393Y6184D01*
X13426D01*
X13443Y6200D01*
Y6250D01*
Y6217D02*
X13476Y6184D01*
X13376Y6150D02*
Y6084D01*
Y6150D02*
X13476D01*
Y6084D01*
X13426Y6117D02*
Y6150D01*
X13443Y6050D02*
X13376D01*
X13443D02*
X13476Y6017D01*
X13443Y5984D01*
X13376D01*
Y5851D02*
X13476D01*
Y5784D02*
X13376Y5851D01*
Y5784D02*
X13476D01*
Y5751D02*
X13459D01*
Y5734D01*
X13476D01*
Y5751D01*
X13376Y5617D02*
X13393Y5601D01*
X13376Y5617D02*
Y5651D01*
X13393Y5667D01*
X13459D01*
X13476Y5651D01*
Y5617D01*
X13459Y5601D01*
Y5567D02*
X13476D01*
X13459D02*
Y5551D01*
X13476D01*
Y5567D01*
X13376Y5334D02*
X13393Y5317D01*
X13376Y5334D02*
Y5367D01*
X13393Y5384D01*
X13459D01*
X13476Y5367D01*
Y5334D01*
X13459Y5317D01*
X13376Y5284D02*
Y5251D01*
Y5267D01*
X13476D01*
Y5284D01*
Y5251D01*
Y5201D02*
X13376D01*
Y5151D01*
X13393Y5134D01*
X13426D01*
X13443Y5151D01*
Y5201D01*
Y5167D02*
X13476Y5134D01*
X13393Y5034D02*
X13376Y5051D01*
Y5084D01*
X13393Y5101D01*
X13459D01*
X13476Y5084D01*
Y5051D01*
X13459Y5034D01*
Y5001D02*
X13376D01*
X13459D02*
X13476Y4984D01*
Y4951D01*
X13459Y4934D01*
X13376D01*
Y4901D02*
Y4867D01*
Y4884D01*
X13476D01*
Y4901D01*
Y4867D01*
X13376Y4818D02*
Y4751D01*
Y4784D01*
X13476D01*
X13376Y4568D02*
X13393Y4551D01*
X13376Y4568D02*
Y4601D01*
X13393Y4618D01*
X13409D01*
X13426Y4601D01*
Y4568D01*
X13443Y4551D01*
X13459D01*
X13476Y4568D01*
Y4601D01*
X13459Y4618D01*
X13376Y4518D02*
Y4484D01*
Y4501D01*
X13476D01*
Y4518D01*
Y4484D01*
Y4434D02*
X13376D01*
X13476D02*
Y4384D01*
X13459Y4368D01*
X13393D01*
X13376Y4384D01*
Y4434D01*
Y4334D02*
Y4268D01*
Y4334D02*
X13476D01*
Y4268D01*
X13426Y4301D02*
Y4334D01*
X11448Y10417D02*
X11461Y10430D01*
X11488D01*
X11501Y10417D01*
Y10363D01*
X11488Y10350D01*
X11461D01*
X11448Y10363D01*
X11408Y10350D02*
X11381D01*
X11368Y10363D01*
Y10390D01*
X11381Y10403D01*
X11408D01*
X11421Y10390D01*
Y10363D01*
X11408Y10350D01*
X11341Y10323D02*
Y10403D01*
X11301D01*
X11288Y10390D01*
Y10363D01*
X11301Y10350D01*
X11341D01*
X11261Y10363D02*
Y10403D01*
Y10363D02*
X11248Y10350D01*
X11208D01*
Y10337D01*
X11221Y10323D01*
X11234D01*
X11208Y10350D02*
Y10403D01*
X11181D02*
Y10350D01*
Y10377D01*
X11168Y10390D01*
X11154Y10403D01*
X11141D01*
X11101Y10350D02*
X11074D01*
X11088D01*
Y10403D01*
X11101D01*
X11088Y10430D02*
X11089D01*
X11008Y10323D02*
X10994D01*
X10981Y10337D01*
Y10403D01*
X11021D01*
X11034Y10390D01*
Y10363D01*
X11021Y10350D01*
X10981D01*
X10955D02*
Y10430D01*
Y10390D02*
Y10350D01*
Y10390D02*
X10941Y10403D01*
X10915D01*
X10901Y10390D01*
Y10350D01*
X10861Y10403D02*
Y10417D01*
Y10403D02*
X10875D01*
X10848D01*
X10861D01*
Y10363D01*
X10848Y10350D01*
X10728Y10377D02*
X10701Y10350D01*
X10728Y10377D02*
Y10403D01*
X10701Y10430D01*
X10648Y10403D02*
X10608D01*
X10648D02*
X10661Y10390D01*
Y10363D01*
X10648Y10350D01*
X10608D01*
X10581D02*
X10555Y10377D01*
Y10403D01*
X10581Y10430D01*
X10435Y10350D02*
X10381D01*
X10435D02*
X10381Y10403D01*
Y10417D01*
X10395Y10430D01*
X10421D01*
X10435Y10417D01*
X10355D02*
X10341Y10430D01*
X10315D01*
X10301Y10417D01*
Y10363D01*
X10315Y10350D01*
X10341D01*
X10355Y10363D01*
Y10417D01*
X10275D02*
X10261Y10430D01*
X10235D01*
X10221Y10417D01*
Y10363D01*
X10235Y10350D01*
X10261D01*
X10275Y10363D01*
Y10417D01*
X10195Y10350D02*
X10168D01*
X10181D01*
Y10430D01*
X10182D01*
X10181D02*
X10195Y10417D01*
X11526Y10305D02*
Y10225D01*
X11486D01*
X11473Y10238D01*
Y10252D01*
Y10265D01*
X11486Y10278D01*
X11526D01*
X11446D02*
Y10238D01*
X11433Y10225D01*
X11393D01*
Y10212D01*
X11406Y10198D01*
X11419D01*
X11393Y10225D02*
Y10278D01*
X11259Y10305D02*
X11233D01*
X11246D02*
X11259D01*
X11246D02*
Y10238D01*
X11259Y10225D01*
X11273D01*
X11286Y10238D01*
X11193Y10278D02*
X11166D01*
X11153Y10265D01*
Y10225D01*
X11193D01*
X11206Y10238D01*
X11193Y10252D01*
X11153D01*
X11126Y10225D02*
Y10278D01*
X11113D01*
X11099Y10265D01*
Y10225D01*
Y10265D01*
X11086Y10278D01*
X11073Y10265D01*
Y10225D01*
X11033D02*
X11006D01*
X11033D02*
X11046Y10238D01*
Y10265D01*
X11033Y10278D01*
X11006D01*
X10993Y10265D01*
Y10252D01*
X11046D01*
X10966Y10225D02*
X10926D01*
X10913Y10238D01*
X10926Y10252D01*
X10953D01*
X10966Y10265D01*
X10953Y10278D01*
X10913D01*
X10806Y10305D02*
X10753D01*
X10806D02*
Y10225D01*
X10753D01*
X10780Y10265D02*
X10806D01*
X10726Y10238D02*
Y10225D01*
Y10238D02*
X10713D01*
Y10225D01*
X10726D01*
X10580D02*
Y10305D01*
X10540D01*
X10526Y10292D01*
Y10265D01*
X10540Y10252D01*
X10580D01*
X10486Y10278D02*
X10460D01*
X10446Y10265D01*
Y10225D01*
X10486D01*
X10500Y10238D01*
X10486Y10252D01*
X10446D01*
X10406Y10278D02*
Y10292D01*
Y10278D02*
X10420D01*
X10393D01*
X10406D01*
Y10238D01*
X10393Y10225D01*
X10340Y10278D02*
X10300D01*
X10340D02*
X10353Y10265D01*
Y10238D01*
X10340Y10225D01*
X10300D01*
X10273D02*
Y10305D01*
Y10265D02*
Y10225D01*
Y10265D02*
X10260Y10278D01*
X10233D01*
X10220Y10265D01*
Y10225D01*
X10180D02*
X10153D01*
X10180D02*
X10193Y10238D01*
Y10265D01*
X10180Y10278D01*
X10153D01*
X10140Y10265D01*
Y10252D01*
X10193D01*
X10113Y10225D02*
X10086D01*
X10100D01*
Y10305D01*
X10113D01*
X10046Y10225D02*
X10020D01*
X10033D01*
Y10305D01*
X10046D01*
X11424Y10100D02*
X11451D01*
X11438D02*
X11424D01*
X11438D02*
Y10180D01*
X11439D01*
X11438D02*
X11451Y10167D01*
X11384D02*
X11371Y10180D01*
X11344D01*
X11331Y10167D01*
Y10113D01*
X11344Y10100D01*
X11371D01*
X11384Y10113D01*
Y10167D01*
X11304D02*
X11291Y10180D01*
X11264D01*
X11251Y10167D01*
Y10113D01*
X11264Y10100D01*
X11291D01*
X11304Y10113D01*
Y10167D01*
X11224Y10140D02*
X11171D01*
X11144Y10100D02*
X11118D01*
X11131D01*
Y10180D01*
X11132D01*
X11131D02*
X11144Y10167D01*
X11078D02*
X11064Y10180D01*
X11038D01*
X11024Y10167D01*
Y10113D01*
X11038Y10100D01*
X11064D01*
X11078Y10113D01*
Y10167D01*
X10998D02*
X10984Y10180D01*
X10958D01*
X10944Y10167D01*
Y10113D01*
X10958Y10100D01*
X10984D01*
X10998Y10113D01*
Y10167D01*
X10918D02*
X10905Y10180D01*
X10878D01*
X10865Y10167D01*
Y10153D01*
X10866D01*
X10865D02*
X10866D01*
X10865D02*
X10866D01*
X10865D02*
X10878Y10140D01*
X10891D01*
X10878D01*
X10865Y10127D01*
Y10113D01*
X10878Y10100D01*
X10905D01*
X10918Y10113D01*
X10758Y10100D02*
Y10180D01*
X10718D01*
X10705Y10167D01*
Y10140D01*
X10718Y10127D01*
X10758D01*
X10731D02*
X10705Y10100D01*
X10665D02*
X10638D01*
X10665D02*
X10678Y10113D01*
Y10140D01*
X10665Y10153D01*
X10638D01*
X10625Y10140D01*
Y10127D01*
X10678D01*
X10598Y10153D02*
X10571Y10100D01*
X10545Y10153D01*
X10438Y10180D02*
Y10100D01*
X10385D02*
X10438Y10180D01*
X10385D02*
Y10100D01*
X10358D02*
Y10113D01*
X10345D01*
Y10100D01*
X10358D01*
X10251Y10180D02*
X10238Y10167D01*
X10251Y10180D02*
X10278D01*
X10291Y10167D01*
Y10113D01*
X10278Y10100D01*
X10251D01*
X10238Y10113D01*
X10211D02*
Y10100D01*
Y10113D02*
X10198D01*
Y10100D01*
X10211D01*
D15*
X8926Y9350D02*
X8801Y9475D01*
X8926Y9125D02*
X9076Y8975D01*
X12551Y9325D02*
X12676Y9475D01*
X12701Y9450D02*
X12576Y9300D01*
X12601Y9275D02*
X12726Y9425D01*
X10526Y8250D02*
X10376Y8075D01*
X5876Y10225D02*
X5726Y10375D01*
X6776Y7675D02*
X6926Y7525D01*
X7476Y8325D02*
X7326Y8475D01*
X7576Y7750D02*
X7826Y7500D01*
X9776Y5625D02*
X9926Y5475D01*
X12001Y8325D02*
X11876Y8450D01*
X11376Y8325D02*
X11176Y8525D01*
X11276Y8475D02*
X11476Y8275D01*
X8226Y8950D02*
X7826Y9350D01*
X8126Y9150D02*
X8276Y9000D01*
X7426Y8950D02*
X7026Y9350D01*
X7326Y9175D02*
X7476Y9025D01*
X6626Y8950D02*
X6226Y9350D01*
X7651Y9975D02*
X7851Y9775D01*
X8926Y11200D02*
X8776Y11350D01*
X8676Y11600D02*
X8376Y11900D01*
Y11975D02*
X8126Y12225D01*
X8576Y12275D02*
X8726Y12125D01*
X11376Y12225D02*
X11526Y12075D01*
X11676Y12150D02*
X11826Y12000D01*
X11776Y11875D02*
X11976Y11675D01*
X11776Y11975D02*
X11651Y12100D01*
X5701Y4975D02*
X5851Y4825D01*
X5901Y4875D02*
X5751Y5025D01*
X5801Y5075D02*
X5951Y4925D01*
X5876Y4850D02*
X5726Y5000D01*
X6076Y5050D02*
X6326Y4800D01*
X11726Y5625D02*
X11926Y5425D01*
X10526Y7550D02*
X10326Y7750D01*
X12276Y6075D02*
X12426Y5925D01*
X12351Y8500D02*
X12226Y8625D01*
X9026Y8950D02*
X8776Y9200D01*
X9001Y9100D02*
X9126Y8975D01*
X8976Y9400D02*
X8826Y9550D01*
X7151Y7725D02*
X7351Y7525D01*
X10676Y6500D02*
X10926Y6250D01*
X6576Y5925D02*
X6426Y6075D01*
X6526Y6150D02*
X6751Y5925D01*
X12351Y6075D02*
X12476Y5950D01*
X5801Y4825D02*
X5676Y4950D01*
X12276Y8825D02*
X12426Y8675D01*
X11926Y7100D02*
X12076Y6950D01*
X11976Y6925D02*
X11826Y7075D01*
X6676Y8975D02*
X6526Y9125D01*
X5726Y8200D02*
X5926Y8000D01*
X11026Y6500D02*
X11176Y6650D01*
X10026Y7400D02*
X9876Y7250D01*
X8576Y9450D02*
X8826Y9700D01*
X7076Y11375D02*
X6826Y11125D01*
X7276Y11650D02*
X7476Y11850D01*
X8826Y10750D02*
X8976Y10900D01*
X10126Y11100D02*
X10376Y11350D01*
X10476Y11600D02*
X10776Y11900D01*
X10826Y11950D02*
X11026Y12150D01*
X8276Y10875D02*
X8126Y10725D01*
X7526Y11975D02*
X7676Y12125D01*
X11026Y12025D02*
X11176Y12175D01*
X12526Y6675D02*
X12326Y6475D01*
X12276Y6500D02*
X12476Y6700D01*
X5576Y6350D02*
X5451Y6225D01*
X10926Y7950D02*
X11076Y8100D01*
X11026Y8150D02*
X10826Y7950D01*
X11901Y8125D02*
X12026Y8250D01*
X11776Y8125D02*
X11626Y7975D01*
X9201Y8625D02*
X8876Y8300D01*
X8676Y7775D02*
X8526Y7625D01*
X7276Y8075D02*
X7151Y7950D01*
X10926Y5900D02*
X11101Y6075D01*
X10926Y5950D02*
X10776Y5800D01*
X6976Y5400D02*
X6826Y5250D01*
X8776Y7050D02*
X8926Y7200D01*
X10276Y4400D02*
X10126Y4250D01*
X5451Y5625D02*
Y6225D01*
X5501Y6375D02*
Y6550D01*
X5426Y6300D02*
Y5550D01*
X5401Y5475D02*
Y6400D01*
X5451Y6450D02*
Y6625D01*
Y6650D01*
X5501Y7950D02*
Y8700D01*
X5451Y8750D02*
Y8875D01*
X5426Y9100D02*
Y9900D01*
X5476Y9950D02*
Y10025D01*
X5501Y5975D02*
X5551Y5925D01*
Y6025D02*
X5501Y6075D01*
X5551Y6125D02*
X5501Y6175D01*
X5451Y5625D02*
X5501Y5575D01*
X5426Y5550D02*
X5501Y5475D01*
X5401D02*
X5501Y5375D01*
Y8700D02*
X5451Y8750D01*
X5501Y9025D02*
X5426Y9100D01*
X5501Y8925D02*
X5451Y8875D01*
X5501Y9425D02*
X5551Y9475D01*
Y9175D02*
X5501Y9125D01*
Y6375D02*
X5426Y6300D01*
X5401Y6400D02*
X5451Y6450D01*
X5426Y9900D02*
X5476Y9950D01*
X10726Y4250D02*
X10826D01*
X12626Y4200D02*
X12751D01*
X12726Y4300D02*
X12626D01*
X12576Y4250D02*
X12326D01*
X8826D02*
X8626D01*
X5726Y10375D02*
Y10475D01*
X5551Y8950D02*
Y8875D01*
X5701Y9225D02*
Y9925D01*
X5651Y9750D02*
Y9475D01*
X5601Y9800D02*
Y10150D01*
X5651Y10200D02*
Y10250D01*
X5726Y9725D02*
Y9150D01*
X5551Y9475D02*
Y10275D01*
X5701Y5950D02*
Y4975D01*
X5726Y5000D02*
Y6000D01*
X5676Y5900D02*
Y4950D01*
X5576Y6350D02*
Y6500D01*
X5726Y8200D02*
Y8900D01*
X5601Y8825D02*
X5551Y8875D01*
X5651Y9750D02*
X5601Y9800D01*
X5676Y5975D02*
X5701Y5950D01*
X5751Y6025D02*
X5701Y6075D01*
Y6025D02*
X5726Y6000D01*
X5651Y5925D02*
X5676Y5900D01*
X5726Y8900D02*
X5701Y8925D01*
X5576Y8975D02*
X5551Y8950D01*
X5726Y9025D02*
X5751Y9050D01*
X5601Y10150D02*
X5651Y10200D01*
X5726Y9150D02*
X5701Y9125D01*
X5726Y9725D02*
X5751Y9750D01*
X5701Y9225D02*
X5651Y9175D01*
X5601Y9425D02*
X5651Y9475D01*
X5551Y10275D02*
X5576Y10300D01*
X7101Y4450D02*
X7301D01*
X12501D02*
X12751D01*
X5876Y9675D02*
Y10225D01*
X5776Y9575D02*
Y9000D01*
X5801Y9700D02*
Y9775D01*
X5751Y9650D02*
Y9050D01*
Y9750D02*
Y9850D01*
X5926Y10550D02*
Y10725D01*
X5826Y4150D02*
Y4050D01*
X5876Y4200D02*
Y4275D01*
X5926Y4400D02*
Y4050D01*
X5901Y4425D02*
Y4875D01*
X5751Y5025D02*
Y6025D01*
X5801Y6125D02*
Y5075D01*
X5876Y4850D02*
Y4350D01*
X5926Y4500D02*
Y4900D01*
X5776Y5050D02*
Y6100D01*
X5926Y10950D02*
Y10975D01*
X5876Y5525D02*
Y5475D01*
X5926Y6700D02*
Y7225D01*
X5826Y6475D02*
Y5600D01*
X5901D02*
Y5550D01*
X5876Y5625D02*
Y6250D01*
X5926Y5625D02*
Y5400D01*
X5901Y5650D02*
Y6175D01*
X5926Y6125D02*
Y5675D01*
Y6325D02*
Y6425D01*
X5801Y4825D02*
Y4250D01*
X5826Y4325D02*
Y4475D01*
X5851Y4500D02*
Y4825D01*
X5926Y7500D02*
Y8000D01*
X5901Y4425D02*
X5926Y4400D01*
X5801Y6125D02*
X5751Y6175D01*
X5926Y4500D02*
X5976Y4450D01*
X5926Y4900D02*
X5876Y4950D01*
X5776Y5050D01*
Y6100D02*
X5751Y6125D01*
X5976Y6650D02*
X5926Y6700D01*
X5826Y5600D02*
X5851Y5575D01*
X5876Y5625D02*
X5901Y5600D01*
X5926Y5625D02*
X5901Y5650D01*
X5926Y5675D02*
X6001Y5600D01*
Y6250D02*
X5926Y6325D01*
X5826Y4325D02*
X5876Y4275D01*
X5776Y9575D02*
X5876Y9675D01*
X5776Y9000D02*
X5751Y8975D01*
Y9650D02*
X5801Y9700D01*
X5926Y10725D02*
X6026Y10825D01*
X5876Y4200D02*
X5826Y4150D01*
X5926Y10975D02*
X6026Y11075D01*
X5901Y5550D02*
X5876Y5525D01*
X5926Y6425D02*
X5976Y6475D01*
X5926Y7225D02*
X5976Y7275D01*
X5876Y6525D02*
X5826Y6475D01*
X5901Y6275D02*
X5876Y6250D01*
X5926Y6200D02*
X5901Y6175D01*
X5926Y6125D02*
X6001Y6200D01*
X5851Y4500D02*
X5826Y4475D01*
X6026Y4325D02*
Y4900D01*
X6051Y4300D02*
Y4200D01*
X6126Y8500D02*
Y8700D01*
X6076Y6000D02*
Y5875D01*
X6101Y5850D02*
Y5400D01*
X6051Y5250D02*
Y5650D01*
X5976Y5700D02*
Y5900D01*
Y6750D02*
Y6950D01*
X6126Y10550D02*
Y10775D01*
X6076Y10825D02*
Y11200D01*
X6126Y11250D02*
Y11400D01*
X6026Y11300D02*
Y11100D01*
X5976Y11350D02*
Y12175D01*
X6026Y10950D02*
Y10825D01*
X6126Y11400D02*
Y11550D01*
Y11825D02*
Y11950D01*
X6076Y4950D02*
Y4450D01*
X5976D02*
Y4400D01*
Y4650D02*
Y4850D01*
X6026Y8900D02*
Y9050D01*
X6126D02*
Y8900D01*
Y8750D01*
X6026Y8650D02*
Y8500D01*
X6076Y8025D02*
Y7950D01*
X6026Y11075D02*
Y11100D01*
X6126D02*
Y10950D01*
X5976Y6650D02*
Y6475D01*
X6001Y5600D02*
Y5450D01*
Y6200D02*
Y6250D01*
X6076Y6575D02*
Y7050D01*
Y7675D02*
Y7950D01*
X6026Y4325D02*
X6051Y4300D01*
X6101Y5850D02*
X6076Y5875D01*
X6126Y10775D02*
X6076Y10825D01*
X6026Y11300D02*
X5976Y11350D01*
X6226Y11725D02*
X6126Y11825D01*
X6001Y4925D02*
X6026Y4900D01*
X6126Y8700D02*
X6176Y8750D01*
X6076Y11200D02*
X6126Y11250D01*
X5976Y12175D02*
X6026Y12225D01*
X6126Y8750D02*
X6026Y8650D01*
X6176Y8125D02*
X6076Y8025D01*
X6001Y7300D02*
X5976Y7275D01*
X6126Y9350D02*
X6201Y9425D01*
X6551Y4725D02*
X6651D01*
X6176Y8750D02*
Y9175D01*
X6276Y9125D02*
Y8750D01*
X6226Y8700D02*
Y8500D01*
X6326Y5425D02*
Y5300D01*
Y11400D02*
Y12100D01*
Y10700D02*
Y10550D01*
X6276Y10750D02*
Y11650D01*
X6301Y11675D02*
Y12275D01*
X6226Y11550D02*
Y11400D01*
Y11550D02*
Y11725D01*
X6326Y4800D02*
Y4650D01*
Y4400D02*
Y4250D01*
Y8500D02*
Y8700D01*
X6176Y8250D02*
Y8125D01*
Y7950D02*
Y7800D01*
X6326Y6900D02*
Y6750D01*
Y6475D02*
Y6350D01*
Y5850D02*
Y5700D01*
Y5850D02*
Y6000D01*
Y10700D02*
X6276Y10750D01*
Y8750D02*
X6226Y8700D01*
X6426Y5525D02*
X6326Y5425D01*
Y12100D02*
X6376Y12150D01*
X6301Y11675D02*
X6276Y11650D01*
X6426Y4500D02*
X6326Y4400D01*
Y8700D02*
X6426Y8800D01*
Y6575D02*
X6326Y6475D01*
X10976Y5000D02*
X11201D01*
X10976D02*
X10851D01*
X6001Y4925D02*
X5951D01*
X5976Y5050D02*
X6076D01*
X6576Y4975D02*
X6801D01*
X6526Y5300D02*
Y5600D01*
X6501Y9550D02*
Y9875D01*
X6401Y9775D02*
Y9550D01*
X6426Y5700D02*
Y5525D01*
Y5100D02*
Y4950D01*
X6526Y5025D02*
Y5100D01*
X6426Y4650D02*
Y4500D01*
Y4650D02*
Y4800D01*
Y8800D02*
Y8900D01*
Y6900D02*
Y6750D01*
Y6575D01*
Y5850D02*
Y5700D01*
X6476Y5525D02*
Y5925D01*
X6426Y5475D02*
Y5300D01*
Y7200D02*
Y7275D01*
X6526Y7200D02*
Y7050D01*
Y8750D02*
Y8950D01*
Y4800D02*
Y4750D01*
X6426Y6075D02*
Y6150D01*
X6526Y9125D02*
Y9350D01*
Y5025D02*
X6576Y4975D01*
X6626Y8650D02*
X6526Y8750D01*
Y4750D02*
X6551Y4725D01*
X6526Y9350D02*
X6451Y9425D01*
X6476Y5525D02*
X6426Y5475D01*
Y7275D02*
X6476Y7325D01*
Y6200D02*
X6426Y6150D01*
X10701Y5250D02*
X10876D01*
X12276Y5200D02*
X12351D01*
X6626Y5300D02*
Y5525D01*
X6601Y9850D02*
Y9950D01*
X6701Y9750D02*
Y9550D01*
X6601D02*
Y9775D01*
X6626Y9350D02*
Y9200D01*
X6701Y10275D02*
Y10400D01*
X6601Y10100D02*
Y9950D01*
X6626Y10950D02*
Y11100D01*
Y10700D02*
Y10550D01*
Y8950D02*
Y8750D01*
X6576Y5925D02*
Y5800D01*
X6626Y11525D02*
Y11550D01*
X6701Y9000D02*
Y8900D01*
X6626Y9075D02*
Y9350D01*
X6676Y8975D02*
Y8700D01*
X6701Y9750D02*
X6601Y9850D01*
X6676Y8700D02*
X6726Y8650D01*
X6751Y10225D02*
X6701Y10275D01*
X6651Y4725D02*
X6751Y4625D01*
X6726Y5700D02*
X6651Y5775D01*
X6601D02*
X6576Y5800D01*
X6726Y11425D02*
X6626Y11525D01*
X6701Y8900D02*
X6801Y8800D01*
X6701Y9000D02*
X6626Y9075D01*
X6701Y9950D02*
X6751Y10000D01*
X6626Y10700D02*
X6726Y10800D01*
X10726Y5300D02*
X10776D01*
X10751Y5400D02*
X10701D01*
X8726Y5300D02*
X8626D01*
X11026Y5475D02*
X11126D01*
X6776Y7675D02*
Y7850D01*
X6876Y5850D02*
Y5600D01*
X6826Y11950D02*
Y12200D01*
Y11125D02*
Y11100D01*
X6751Y10225D02*
Y10000D01*
X6726Y10950D02*
Y11100D01*
Y10950D02*
Y10800D01*
X6826Y11675D02*
Y11950D01*
X6776Y11625D02*
Y10800D01*
X6726Y10750D02*
Y10550D01*
X6826Y11400D02*
Y11550D01*
Y4950D02*
Y4700D01*
Y4500D01*
X6876Y4450D02*
Y4550D01*
X6826Y8900D02*
Y9050D01*
Y8675D02*
Y8500D01*
Y7950D02*
Y7800D01*
X6726Y7950D02*
Y8050D01*
X6826Y8150D02*
Y8250D01*
X6726Y7950D02*
Y7900D01*
X6826Y6800D02*
Y6600D01*
Y7200D02*
Y7275D01*
X6726Y6750D02*
Y6600D01*
Y6750D02*
Y6775D01*
X6826Y6875D02*
Y7200D01*
X6776Y4600D02*
Y4550D01*
X6826Y5550D02*
Y5750D01*
X6726Y5700D02*
Y5600D01*
X6826Y5250D02*
Y5100D01*
Y6150D02*
Y6175D01*
X6726Y11400D02*
Y11425D01*
X6826Y8350D02*
Y8250D01*
X6751Y8425D02*
Y8575D01*
X6801Y8625D02*
Y8800D01*
X6826Y5550D02*
X6926Y5450D01*
X6801Y4975D02*
X6826Y4950D01*
X6726Y4500D02*
X6826Y4400D01*
X6776Y7850D02*
X6726Y7900D01*
X6826Y6600D02*
X6926Y6500D01*
X6826Y7275D02*
X6776Y7325D01*
X6751Y4625D02*
X6776Y4600D01*
X6826Y6175D02*
X6801Y6200D01*
X6876Y5925D02*
X6926Y5875D01*
X6826Y8350D02*
X6751Y8425D01*
X6826Y12200D02*
X6901Y12275D01*
X6826Y11675D02*
X6776Y11625D01*
Y10800D02*
X6726Y10750D01*
X6876Y4450D02*
X6826Y4400D01*
X6876Y4550D02*
X6926Y4600D01*
X6826Y8675D02*
X6926Y8775D01*
X6826Y8150D02*
X6726Y8050D01*
X6826Y6875D02*
X6726Y6775D01*
X6751Y8575D02*
X6801Y8625D01*
X6926Y9350D02*
Y9450D01*
X7026Y4375D02*
Y4250D01*
X6976Y4450D02*
Y4900D01*
X6926Y6150D02*
Y6325D01*
X6976Y6375D02*
Y7100D01*
X6926Y7150D02*
Y7200D01*
Y8500D02*
Y8575D01*
X6951Y8600D02*
Y8725D01*
X7076Y11375D02*
Y11425D01*
X6926Y5100D02*
Y4950D01*
Y4700D02*
Y4600D01*
Y8900D02*
Y9050D01*
Y8900D02*
Y8775D01*
Y7525D02*
Y7200D01*
X7026Y6775D02*
Y6750D01*
X6926Y6800D02*
Y6600D01*
X7026Y5725D02*
Y5700D01*
X6926Y6800D02*
Y7050D01*
Y5750D02*
Y5550D01*
Y5925D02*
Y6150D01*
X6976Y5875D02*
Y5400D01*
X6926Y5750D02*
Y5875D01*
Y9450D02*
X6976Y9500D01*
X6926Y7150D02*
X6976Y7100D01*
X6926Y4950D02*
X6976Y4900D01*
Y5875D02*
X6926Y5925D01*
X7101Y4450D02*
X7026Y4375D01*
X6926Y6325D02*
X6976Y6375D01*
X6926Y8575D02*
X6951Y8600D01*
X7076Y11425D02*
X7126Y11475D01*
X6976Y4450D02*
X6926Y4400D01*
X7026Y4650D02*
X7126Y4750D01*
X7026Y6775D02*
X7126Y6875D01*
Y5825D02*
X7026Y5725D01*
X10001Y5775D02*
X10051D01*
X10101D02*
X10151D01*
X6651D02*
X6601D01*
X7276Y11500D02*
Y11650D01*
X7126Y4800D02*
Y4750D01*
Y4950D02*
Y5100D01*
X7176Y4900D02*
Y4700D01*
X7226Y4950D02*
Y5100D01*
X7276Y4900D02*
Y4700D01*
X7226Y8500D02*
Y8625D01*
X7126Y8725D02*
Y8900D01*
X7226Y7850D02*
Y7800D01*
X7126Y6900D02*
Y6875D01*
Y5850D02*
Y5825D01*
X7226Y5750D02*
Y5700D01*
X7276Y5800D02*
Y5950D01*
X7226Y6000D02*
Y6150D01*
X7126Y5750D02*
Y5700D01*
X7176Y5800D02*
Y5950D01*
X7126Y6000D02*
Y6150D01*
X7276Y6800D02*
Y7000D01*
X7226Y7050D02*
Y7175D01*
Y7200D01*
X7176Y7000D02*
Y6800D01*
X7126Y7050D02*
Y7200D01*
X7151Y7725D02*
Y7950D01*
X7276Y8075D02*
Y8400D01*
X7326Y9450D02*
X7276Y9500D01*
X7126Y4950D02*
X7176Y4900D01*
X7226Y4950D02*
X7276Y4900D01*
X7226Y8625D02*
X7126Y8725D01*
X7226Y6000D02*
X7276Y5950D01*
X7176D02*
X7126Y6000D01*
X7276Y7000D02*
X7226Y7050D01*
X7176Y7000D02*
X7126Y7050D01*
X7376Y4525D02*
X7301Y4450D01*
X7251Y11475D02*
X7276Y11500D01*
X7176Y4700D02*
X7126Y4650D01*
X7226D02*
X7276Y4700D01*
X7226Y7850D02*
X7326Y7950D01*
X7276Y5800D02*
X7226Y5750D01*
X7176Y5800D02*
X7126Y5750D01*
X7226Y6750D02*
X7276Y6800D01*
X7176D02*
X7126Y6750D01*
X5676Y5975D02*
X5601D01*
Y6075D02*
X5701D01*
Y6025D02*
X5551D01*
Y5925D02*
X5651D01*
X11101Y6075D02*
X11151D01*
X6876Y5925D02*
X6751D01*
X7326Y9350D02*
Y9450D01*
X7376Y4850D02*
Y4525D01*
X7326Y4900D02*
Y5100D01*
Y8475D02*
Y8650D01*
X7476Y8325D02*
Y8175D01*
Y7000D02*
Y6700D01*
X7426Y9200D02*
Y9350D01*
X7326D02*
Y9175D01*
X7476Y9025D02*
Y8700D01*
X7326Y5500D02*
Y5300D01*
X7476Y11850D02*
Y12100D01*
X7426Y11100D02*
Y10950D01*
X7326D02*
Y11100D01*
X7476Y10775D02*
Y11650D01*
X7426Y10725D02*
Y10550D01*
Y10825D02*
Y10950D01*
X7326Y10725D02*
Y10550D01*
X7426Y5100D02*
Y4950D01*
X7326Y4800D02*
Y4650D01*
X7426Y7800D02*
Y7850D01*
X7476Y7900D02*
Y8050D01*
X7426Y8100D02*
Y8250D01*
X7326Y7850D02*
Y7800D01*
X7376Y7900D02*
Y8050D01*
X7326Y8100D02*
Y8250D01*
Y6900D02*
Y6750D01*
Y5850D02*
Y5700D01*
X7451Y5675D02*
Y5425D01*
X7476Y5700D02*
Y5925D01*
X7426Y6000D02*
Y6150D01*
X7376Y5950D02*
Y5625D01*
X7326Y6350D02*
Y6550D01*
X7426Y8750D02*
Y8950D01*
X7326D02*
Y8750D01*
X7401Y6800D02*
Y6375D01*
X7376Y6825D02*
Y7250D01*
Y7275D01*
X7326Y7325D02*
Y7400D01*
X7426Y11400D02*
Y11425D01*
X7326Y11525D02*
Y11550D01*
X7426Y7200D02*
Y7050D01*
X7326Y4900D02*
X7376Y4850D01*
X7576Y8075D02*
X7476Y8175D01*
X7526Y8650D02*
X7476Y8700D01*
X7426Y8100D02*
X7476Y8050D01*
X7376D02*
X7326Y8100D01*
X7426Y8650D02*
X7326Y8750D01*
X7376Y6825D02*
X7401Y6800D01*
X7376Y7275D02*
X7326Y7325D01*
X7451Y7525D02*
X7526Y7450D01*
X7426Y11425D02*
X7326Y11525D01*
X7526Y7050D02*
X7476Y7000D01*
Y12275D02*
X7526Y12325D01*
Y12150D02*
X7476Y12100D01*
X7526Y11700D02*
X7476Y11650D01*
Y10775D02*
X7426Y10725D01*
X7326D02*
X7426Y10825D01*
X7476Y7900D02*
X7426Y7850D01*
X7376Y7900D02*
X7326Y7850D01*
X7476Y5700D02*
X7451Y5675D01*
X7476Y5925D02*
X7526Y5975D01*
X7426Y6000D02*
X7376Y5950D01*
X5751Y6175D02*
X5601D01*
X5551Y6125D02*
X5751D01*
X8726Y6250D02*
X8826D01*
X11201Y6225D02*
X11276D01*
X6801Y6200D02*
X6476D01*
X7526Y4675D02*
Y4200D01*
X7576Y10825D02*
Y10850D01*
Y10825D02*
Y10575D01*
Y8075D02*
Y7750D01*
X7526Y7200D02*
Y7050D01*
X7676Y9275D02*
Y9600D01*
Y10925D02*
Y10950D01*
X7526Y12150D02*
Y12225D01*
Y11950D02*
Y11700D01*
Y11950D02*
Y11975D01*
X7676Y12125D02*
Y12275D01*
X7526Y11250D02*
Y11100D01*
X7576Y11300D02*
Y11725D01*
X7676Y11825D02*
Y12075D01*
X7526Y11550D02*
Y11400D01*
X7626Y4800D02*
Y4475D01*
X7526Y4950D02*
Y5100D01*
X7576Y4900D02*
Y4725D01*
X7676Y4750D02*
Y4900D01*
X7626Y8900D02*
Y9050D01*
Y8625D02*
Y8500D01*
X7526Y7950D02*
Y7800D01*
X7676Y5950D02*
Y5800D01*
X7626Y5850D02*
Y5500D01*
X7526Y5975D02*
Y6150D01*
X7626Y6550D02*
Y6900D01*
X7676Y6800D02*
Y7000D01*
X7526Y7400D02*
Y7450D01*
X7576Y6000D02*
Y5575D01*
X7551Y5550D02*
Y5475D01*
X7776Y9175D02*
X7676Y9275D01*
X7776Y10825D02*
X7676Y10925D01*
X7526Y4950D02*
X7576Y4900D01*
X7676Y4750D02*
X7726Y4700D01*
Y5750D02*
X7676Y5800D01*
X7726Y6750D02*
X7676Y6800D01*
X7576Y10850D02*
X7676Y10950D01*
X7726Y9650D02*
X7676Y9600D01*
Y10550D02*
X7776Y10650D01*
X7676Y12275D02*
X7726Y12325D01*
X7576Y11300D02*
X7526Y11250D01*
X7576Y11725D02*
X7676Y11825D01*
Y12075D02*
X7726Y12125D01*
X7576Y4725D02*
X7526Y4675D01*
X7676Y4900D02*
X7726Y4950D01*
X7626Y8625D02*
X7726Y8725D01*
Y6000D02*
X7676Y5950D01*
Y7000D02*
X7726Y7050D01*
X7576Y5575D02*
X7551Y5550D01*
X10776Y6450D02*
X10876D01*
X7726Y8100D02*
Y8250D01*
X7826Y7500D02*
Y7400D01*
Y6625D02*
Y6350D01*
X7776Y8725D02*
Y9175D01*
X7826Y8675D02*
Y8500D01*
X7876Y8725D02*
Y9175D01*
X7776Y9275D02*
Y9375D01*
X7876Y9475D02*
Y9600D01*
X7726Y8675D02*
Y8500D01*
X7776Y10650D02*
Y10750D01*
X7826Y10800D02*
Y10875D01*
Y10725D02*
Y10700D01*
X7876Y10775D02*
Y10825D01*
X7726Y12125D02*
Y12225D01*
Y12025D02*
Y11950D01*
X7826Y12125D02*
Y12225D01*
X7876Y12275D02*
Y12100D01*
X7826Y12050D02*
Y11950D01*
Y4500D02*
Y4250D01*
Y4775D02*
Y4800D01*
X7726Y4700D02*
Y4650D01*
Y4950D02*
Y5100D01*
X7826D02*
Y4950D01*
X7776Y4900D02*
Y4750D01*
X7826Y4700D02*
Y4650D01*
X7726Y8900D02*
Y9050D01*
Y8900D02*
Y8725D01*
X7876Y8050D02*
Y7900D01*
X7826Y7950D02*
Y7800D01*
Y6900D02*
Y6875D01*
Y5850D02*
Y5825D01*
Y5750D02*
Y5700D01*
X7776Y5800D02*
Y5950D01*
X7826Y6000D02*
Y6150D01*
X7726Y5750D02*
Y5700D01*
Y6000D02*
Y6150D01*
X7826Y5575D02*
Y5300D01*
X7776Y6800D02*
Y7000D01*
X7826Y7050D02*
Y7200D01*
X7726D02*
Y7050D01*
Y9350D02*
Y9500D01*
X7776Y9275D02*
X7876Y9175D01*
Y9600D02*
X7826Y9650D01*
X7876Y12275D02*
X7826Y12325D01*
Y4775D02*
X7926Y4675D01*
X7826Y4700D02*
X7776Y4750D01*
X7926Y7850D02*
X7876Y7900D01*
X7826Y6875D02*
X7926Y6775D01*
X7826Y5825D02*
X7926Y5725D01*
X7826Y5750D02*
X7776Y5800D01*
X7826Y6750D02*
X7776Y6800D01*
X7826Y8675D02*
X7876Y8725D01*
X7776Y9375D02*
X7876Y9475D01*
X7776Y8725D02*
X7726Y8675D01*
X7776Y10750D02*
X7826Y10800D01*
X7876Y10775D02*
X7826Y10725D01*
X7726Y12025D02*
X7826Y12125D01*
X7876Y12100D02*
X7826Y12050D01*
Y4950D02*
X7776Y4900D01*
X7876Y8050D02*
X7926Y8100D01*
X7826Y6000D02*
X7776Y5950D01*
Y7000D02*
X7826Y7050D01*
X7926Y6625D02*
Y6350D01*
X8076Y7050D02*
Y7350D01*
X8026Y10950D02*
Y11100D01*
Y10725D02*
Y10650D01*
Y10550D01*
Y11950D02*
Y12050D01*
X7976Y12100D02*
Y12275D01*
X7926Y12225D02*
Y12050D01*
X7976Y12000D02*
Y11700D01*
X8076Y11600D02*
Y11525D01*
X8026Y11500D02*
Y11550D01*
X7926Y4500D02*
Y4250D01*
Y4650D02*
Y4675D01*
X8026Y8775D02*
Y8900D01*
X7926Y8675D02*
Y8500D01*
X8026Y7950D02*
Y7925D01*
Y7850D02*
Y7800D01*
X7976Y7900D02*
Y8050D01*
X8026Y8100D02*
Y8250D01*
X7926Y7850D02*
Y7800D01*
Y8100D02*
Y8250D01*
Y6775D02*
Y6750D01*
Y5725D02*
Y5700D01*
X8026Y10800D02*
Y10950D01*
X8076Y7675D02*
Y7525D01*
X7926Y5575D02*
Y5300D01*
X7976Y6850D02*
Y7050D01*
X8076Y7350D02*
X8026Y7400D01*
Y12050D02*
X7976Y12100D01*
Y12275D02*
X7926Y12325D01*
Y12050D02*
X7976Y12000D01*
Y11700D02*
X8076Y11600D01*
Y11525D02*
X8176Y11425D01*
X8126Y11400D02*
X8026Y11500D01*
Y7925D02*
X8126Y7825D01*
X8026Y7850D02*
X7976Y7900D01*
X8076Y7525D02*
X8176Y7425D01*
X7976Y6850D02*
X8076Y6750D01*
X8026Y10725D02*
X8126Y10825D01*
X8026Y8775D02*
X7926Y8675D01*
X8026Y8100D02*
X7976Y8050D01*
Y10750D02*
X8026Y10800D01*
X10001Y6800D02*
X10076D01*
X10051Y6825D02*
X10151D01*
X8126Y6750D02*
X8076D01*
X8126Y8475D02*
Y8650D01*
Y9150D02*
Y9350D01*
X8276Y9000D02*
Y8700D01*
X8226Y9200D02*
Y9350D01*
Y10000D02*
Y10100D01*
X8126Y10950D02*
Y11100D01*
Y10950D02*
Y10825D01*
Y10725D02*
Y10550D01*
X8276Y10875D02*
Y11625D01*
X8226Y11675D02*
Y11950D01*
X8176Y11425D02*
Y11275D01*
X8226Y11225D02*
Y11100D01*
Y11400D02*
Y11550D01*
Y4800D02*
Y4650D01*
Y4800D02*
Y4950D01*
Y5200D02*
Y5300D01*
X8276Y5150D02*
Y4850D01*
Y4525D01*
X8226Y4475D02*
Y4250D01*
X8126Y7800D02*
Y7825D01*
X8226Y6900D02*
Y6750D01*
Y5850D02*
Y5700D01*
Y5525D02*
Y5300D01*
X8276Y5575D02*
Y6200D01*
X8226Y6250D02*
Y6350D01*
X8276Y6650D02*
Y7000D01*
X8226Y8750D02*
Y8950D01*
X8126D02*
Y8750D01*
X8226Y6550D02*
Y6350D01*
X8176Y6600D02*
Y7425D01*
Y7500D02*
Y8425D01*
X8126Y9350D02*
Y9500D01*
Y6600D02*
Y6350D01*
X8326Y8650D02*
X8276Y8700D01*
X8176Y12275D02*
X8126Y12325D01*
X8226Y11675D02*
X8276Y11625D01*
X8176Y11275D02*
X8226Y11225D01*
Y5200D02*
X8276Y5150D01*
Y6200D02*
X8226Y6250D01*
X8326Y6600D02*
X8276Y6650D01*
X8226Y8650D02*
X8126Y8750D01*
X8176Y6600D02*
X8226Y6550D01*
X8176Y8425D02*
X8126Y8475D01*
X8276Y4525D02*
X8226Y4475D01*
Y7800D02*
X8326Y7900D01*
X8276Y5575D02*
X8226Y5525D01*
X8276Y7000D02*
X8326Y7050D01*
X8426Y9600D02*
Y9850D01*
X8476Y6950D02*
Y6525D01*
X8376Y7050D02*
Y7275D01*
X8326Y7325D02*
Y7400D01*
X8476Y9125D02*
Y9550D01*
X8426Y10750D02*
Y10950D01*
X8476Y10700D02*
Y9900D01*
X8326Y10000D02*
Y10100D01*
Y10400D02*
Y10550D01*
Y10825D02*
Y10950D01*
X8376Y11900D02*
Y11975D01*
X8326Y4475D02*
Y4250D01*
X8376Y4525D02*
Y4900D01*
X8326Y4950D02*
Y5100D01*
X8426Y8900D02*
Y9050D01*
Y8650D02*
Y8500D01*
X8476Y8050D02*
Y7850D01*
X8426Y8100D02*
Y8250D01*
X8376Y8050D02*
Y7850D01*
X8326Y8100D02*
Y8250D01*
Y7950D02*
Y7900D01*
Y5500D02*
Y5300D01*
X8376Y5550D02*
Y5950D01*
X8326Y6000D02*
Y6150D01*
Y6350D02*
Y6600D01*
Y7050D02*
Y7200D01*
Y5450D02*
Y5300D01*
X8426Y10400D02*
Y10550D01*
X8476Y6525D02*
X8576Y6425D01*
X8476Y6950D02*
X8376Y7050D01*
Y7275D02*
X8326Y7325D01*
X8501Y9100D02*
X8476Y9125D01*
Y10700D02*
X8426Y10750D01*
X8326Y4950D02*
X8376Y4900D01*
X8476Y8050D02*
X8426Y8100D01*
X8376Y8050D02*
X8326Y8100D01*
Y6000D02*
X8376Y5950D01*
X8476Y9550D02*
X8526Y9600D01*
X8426Y9850D02*
X8476Y9900D01*
X8376Y4525D02*
X8326Y4475D01*
X8426Y8650D02*
X8526Y8750D01*
X8476Y7850D02*
X8426Y7800D01*
X8376Y7850D02*
X8326Y7800D01*
X8376Y5550D02*
X8326Y5500D01*
X10901Y7125D02*
X11226D01*
X8526Y9350D02*
Y9500D01*
X8626Y8250D02*
Y8100D01*
Y4375D02*
Y4250D01*
X8576Y4425D02*
Y6425D01*
X8526Y9600D02*
Y9875D01*
X8626Y8750D02*
Y8500D01*
X8676Y8800D02*
Y9100D01*
X8576Y9200D02*
Y9450D01*
X8526Y8650D02*
Y8500D01*
X8576Y8700D02*
Y9075D01*
X8676Y9700D02*
Y9775D01*
X8626Y9750D02*
Y9800D01*
X8676Y9850D02*
Y9900D01*
Y11500D02*
Y11600D01*
X8526Y9050D02*
Y8900D01*
Y8750D01*
Y7950D02*
Y7800D01*
X8626Y6475D02*
Y6350D01*
Y9250D02*
Y9350D01*
X8676Y8325D02*
Y7775D01*
X8526Y7625D02*
Y7400D01*
Y10200D02*
Y10400D01*
X8576Y10150D02*
Y10000D01*
X8551Y9975D02*
Y9950D01*
X8576Y4425D02*
X8626Y4375D01*
X8676Y9100D02*
X8576Y9200D01*
X8551Y9100D02*
X8576Y9075D01*
X8701Y11475D02*
X8676Y11500D01*
X8626Y6350D02*
X8726Y6250D01*
X8676Y9200D02*
X8626Y9250D01*
X8576Y10150D02*
X8526Y10200D01*
X8676Y8800D02*
X8626Y8750D01*
X8576Y8700D02*
X8526Y8650D01*
X8676Y9775D02*
X8726Y9825D01*
X8676Y9850D02*
X8626Y9800D01*
X8726Y8375D02*
X8676Y8325D01*
X8551Y9975D02*
X8576Y10000D01*
X10701Y7275D02*
X10751D01*
X10901D01*
X6776Y7325D02*
X6476D01*
X6026Y7300D02*
X6001D01*
X8826Y5400D02*
Y5200D01*
Y6250D02*
Y6400D01*
Y9700D02*
Y9850D01*
X8726Y8525D02*
Y8500D01*
X8826Y8625D02*
Y8900D01*
X8726Y9825D02*
Y9950D01*
X8826Y10850D02*
Y10950D01*
X8726Y10750D02*
Y10550D01*
X8826D02*
Y10750D01*
Y11400D02*
Y11450D01*
X8776Y11425D02*
Y11350D01*
X8726Y11950D02*
Y12125D01*
X8826Y11100D02*
Y10950D01*
X8726D02*
Y11100D01*
X8826Y4250D02*
Y4150D01*
X8876Y4425D02*
Y4900D01*
X8826Y4375D02*
Y4150D01*
Y4800D02*
Y4950D01*
Y4800D02*
Y4650D01*
X8876Y7900D02*
Y8050D01*
X8826Y7950D02*
Y7800D01*
Y6900D02*
Y6750D01*
Y5850D02*
Y5700D01*
Y5475D02*
Y5200D01*
X8876Y5525D02*
Y5950D01*
X8726Y7550D02*
Y7700D01*
X8776Y7750D02*
Y8050D01*
X8876Y8150D02*
Y8300D01*
X8826Y9550D02*
Y9600D01*
Y6000D02*
Y5850D01*
X8776Y6450D02*
Y7050D01*
X8826Y7000D02*
Y6900D01*
Y11450D02*
X8726Y11550D01*
Y11475D02*
X8776Y11425D01*
X8876Y7900D02*
X8926Y7850D01*
X8726Y5300D02*
X8826Y5200D01*
Y6400D02*
X8776Y6450D01*
X8726Y8525D02*
X8826Y8625D01*
X8726Y10750D02*
X8826Y10850D01*
X8926Y4950D02*
X8876Y4900D01*
Y4425D02*
X8826Y4375D01*
X8876Y8050D02*
X8926Y8100D01*
X8876Y5525D02*
X8826Y5475D01*
X8876Y5950D02*
X8926Y6000D01*
X8726Y7700D02*
X8776Y7750D01*
Y8050D02*
X8876Y8150D01*
X8851Y8375D02*
X8926Y8450D01*
X8876Y7050D02*
X8826Y7000D01*
X7451Y7525D02*
X7351D01*
X8976Y9175D02*
Y9400D01*
X9001Y9150D02*
Y9100D01*
X9026Y9200D02*
Y9350D01*
X8926D02*
Y9125D01*
X9026Y7400D02*
Y7300D01*
X8976Y10900D02*
Y11625D01*
X8926Y11675D02*
Y11950D01*
Y11200D02*
Y11100D01*
Y11400D02*
Y11550D01*
Y5100D02*
Y4950D01*
X9026Y7925D02*
Y7950D01*
Y7850D02*
Y7800D01*
X8976Y7900D02*
Y8050D01*
X9026Y8100D02*
Y8250D01*
X8926Y7850D02*
Y7800D01*
Y8100D02*
Y8250D01*
Y6150D02*
Y6000D01*
X9026Y8750D02*
Y8950D01*
X8926D02*
Y8750D01*
Y8650D02*
Y8450D01*
X9001Y9150D02*
X8976Y9175D01*
X9026Y7300D02*
X9076Y7250D01*
X8976Y11625D02*
X8926Y11675D01*
X9026Y7925D02*
X9126Y7825D01*
X9026Y7850D02*
X8976Y7900D01*
X9026Y8650D02*
X8926Y8750D01*
X9026Y8100D02*
X8976Y8050D01*
X9076Y7250D02*
Y5550D01*
X9226Y10550D02*
Y10725D01*
Y10950D02*
Y10975D01*
Y8650D02*
Y8500D01*
Y8900D02*
Y9050D01*
Y7850D02*
Y7800D01*
X9126D02*
Y7825D01*
X9226Y6775D02*
Y6750D01*
Y5725D02*
Y5700D01*
Y9050D02*
Y9200D01*
X9076Y8975D02*
Y8700D01*
X9201Y8625D02*
Y8825D01*
X9126Y8900D02*
Y8975D01*
X9076Y8700D02*
X9126Y8650D01*
X9201Y8825D02*
X9176Y8850D01*
X9126Y8900D01*
X9226Y10725D02*
X9326Y10825D01*
X9226Y10975D02*
X9326Y11075D01*
Y4750D02*
X9226Y4650D01*
Y8650D02*
X9326Y8750D01*
Y7950D02*
X9226Y7850D01*
X9326Y6875D02*
X9226Y6775D01*
X9326Y5825D02*
X9226Y5725D01*
X9326Y10825D02*
Y10950D01*
X9426Y11250D02*
Y11400D01*
Y10775D02*
Y10550D01*
X9326Y11075D02*
Y11100D01*
Y11225D01*
X9276Y11275D02*
Y11500D01*
X9326Y11550D02*
Y12200D01*
X9426Y11100D02*
Y10950D01*
Y11400D02*
Y11550D01*
Y11825D02*
Y11950D01*
X9326Y4800D02*
Y4750D01*
Y4950D02*
Y5100D01*
X9376Y4900D02*
Y4750D01*
X9326Y4700D02*
Y4650D01*
X9426Y4950D02*
Y5100D01*
Y4700D02*
Y4650D01*
X9326Y9775D02*
Y9900D01*
X9426Y9675D02*
Y9500D01*
X9326D02*
Y9350D01*
X9426D02*
Y9500D01*
X9326Y8900D02*
Y8750D01*
Y8900D02*
Y9050D01*
X9426Y8250D02*
Y8100D01*
X9376Y8050D02*
Y7850D01*
X9326Y8100D02*
Y8250D01*
Y6900D02*
Y6875D01*
Y5850D02*
Y5825D01*
Y5750D02*
Y5700D01*
X9376Y5800D02*
Y5900D01*
Y5950D01*
X9326Y6000D02*
Y6150D01*
X9426Y5750D02*
Y5700D01*
Y6000D02*
Y6150D01*
Y7100D02*
Y7200D01*
Y6800D02*
Y6750D01*
X9326Y7100D02*
Y7200D01*
X9376Y7050D02*
Y6850D01*
X9326Y6800D02*
Y6750D01*
X9426Y8500D02*
Y8800D01*
X9376Y8850D02*
Y9150D01*
X9326Y9200D02*
Y9350D01*
Y7600D02*
Y7400D01*
X9476Y11200D02*
X9426Y11250D01*
X9326Y11225D02*
X9276Y11275D01*
X9526Y11725D02*
X9426Y11825D01*
X9326Y4950D02*
X9376Y4900D01*
X9426Y4950D02*
X9476Y4900D01*
X9426Y9675D02*
X9326Y9775D01*
X9426Y8100D02*
X9476Y8050D01*
X9376D02*
X9326Y8100D01*
Y6000D02*
X9376Y5950D01*
X9426Y6000D02*
X9476Y5950D01*
Y7050D02*
X9426Y7100D01*
X9376Y7050D02*
X9326Y7100D01*
X9426Y8800D02*
X9376Y8850D01*
Y9150D02*
X9326Y9200D01*
X9426Y10775D02*
X9476Y10825D01*
X9276Y11500D02*
X9326Y11550D01*
X9376Y4750D02*
X9326Y4700D01*
X9426D02*
X9476Y4750D01*
X9426Y7800D02*
X9476Y7850D01*
X9376D02*
X9326Y7800D01*
X9376Y5800D02*
X9326Y5750D01*
X9426D02*
X9476Y5800D01*
X9426Y6800D02*
X9476Y6850D01*
X9376D02*
X9326Y6800D01*
X11076Y8100D02*
X11276D01*
X11176Y8150D02*
X11026D01*
X11826Y8050D02*
X12051D01*
X11901Y8125D02*
X11776D01*
X9626Y5475D02*
Y5300D01*
X9526D02*
Y5475D01*
X9626Y8100D02*
Y8250D01*
Y11575D02*
Y12400D01*
Y11525D02*
Y11400D01*
X9576Y11575D02*
Y12125D01*
X9476Y11200D02*
Y10825D01*
X9626Y10775D02*
Y10550D01*
X9526Y11400D02*
Y11550D01*
Y11725D01*
X9626Y5100D02*
Y4950D01*
X9476Y4900D02*
Y4750D01*
X9526Y4775D02*
Y4800D01*
X9626Y4675D02*
Y4650D01*
X9526Y7800D02*
Y7950D01*
X9476Y7850D02*
Y8050D01*
X9526Y6900D02*
Y6850D01*
X9476Y5950D02*
Y5800D01*
X9626Y5725D02*
Y5700D01*
X9526Y5825D02*
Y5850D01*
Y9225D02*
Y9350D01*
X9476Y7050D02*
Y6850D01*
X9626Y6150D02*
Y6000D01*
Y7050D02*
Y7200D01*
Y11525D02*
X9576Y11575D01*
X9626D02*
X9676Y11525D01*
X9526Y4775D02*
X9626Y4675D01*
Y6750D02*
X9526Y6850D01*
Y5825D02*
X9626Y5725D01*
X9576Y9175D02*
X9526Y9225D01*
X9626Y10775D02*
X9676Y10825D01*
Y8725D02*
X9626Y8675D01*
X12026Y8375D02*
X12226D01*
X12126Y8325D02*
X12001D01*
X12751Y8350D02*
X12801D01*
X12776Y8400D02*
X12701D01*
X8851Y8375D02*
X8726D01*
X10801Y8325D02*
X10926D01*
X9826Y7550D02*
Y7400D01*
X9776Y7000D02*
Y5625D01*
X9676Y10825D02*
Y11525D01*
X9726Y5100D02*
Y4950D01*
X9826Y4800D02*
Y4750D01*
Y5700D02*
Y5850D01*
Y7800D02*
Y7950D01*
Y6900D02*
Y6750D01*
X9676Y8725D02*
Y9150D01*
Y9175D01*
X9826Y6550D02*
Y6350D01*
X9726Y6150D02*
Y6000D01*
Y7050D02*
Y7200D01*
X9876Y7100D02*
X9776Y7000D01*
X9826Y4750D02*
X9726Y4650D01*
X6576Y8600D02*
X6326D01*
X9926Y5475D02*
Y5300D01*
X9876Y7100D02*
Y7250D01*
X9926Y11500D02*
Y11550D01*
Y10725D02*
Y10550D01*
X10026Y10825D02*
Y10950D01*
X9926D02*
Y11100D01*
X10026D02*
Y10950D01*
X9926Y5100D02*
Y4950D01*
X9876Y4900D02*
Y4750D01*
X9926Y4700D02*
Y4650D01*
X10026Y4950D02*
Y5100D01*
X9976Y4900D02*
Y4750D01*
X10026Y4700D02*
Y4650D01*
X9926Y9450D02*
Y9500D01*
X10026Y9625D02*
Y9900D01*
Y8675D02*
Y8500D01*
Y8750D02*
Y8900D01*
X9926Y8650D02*
Y8500D01*
X10026Y8900D02*
Y9050D01*
X9926D02*
Y8900D01*
Y7200D02*
Y7100D01*
Y6800D02*
Y6750D01*
Y5750D02*
Y5700D01*
X9876Y5800D02*
Y5950D01*
X9926Y6000D02*
Y6150D01*
X9976Y5950D02*
Y5800D01*
X10026Y6000D02*
Y6150D01*
X9926Y7800D02*
Y7850D01*
X9876Y7900D02*
Y8050D01*
X9926Y8100D02*
Y8250D01*
X10026Y7850D02*
Y7800D01*
X9976Y7900D02*
Y8050D01*
X10026Y8100D02*
Y8250D01*
Y7950D02*
Y7925D01*
X9876Y7050D02*
Y6850D01*
X9976Y6825D02*
Y7050D01*
X10026Y7100D02*
Y7200D01*
Y6900D02*
Y6850D01*
Y10550D02*
Y10725D01*
Y11400D02*
X9926Y11500D01*
X9876Y4750D02*
X9926Y4700D01*
X9976Y4750D02*
X10026Y4700D01*
Y4800D02*
X10126Y4700D01*
X10026Y9350D02*
X9926Y9450D01*
X10076Y9575D02*
X10026Y9625D01*
X9876Y5800D02*
X9926Y5750D01*
X10051Y5775D02*
X10126Y5700D01*
X10001Y5775D02*
X9976Y5800D01*
X10026Y5850D02*
X10101Y5775D01*
X9926Y7850D02*
X9876Y7900D01*
X9976D02*
X10026Y7850D01*
Y7925D02*
X10126Y7825D01*
X9876Y6850D02*
X9926Y6800D01*
X9976Y6825D02*
X10001Y6800D01*
X10026Y6850D02*
X10051Y6825D01*
X9926Y10725D02*
X10026Y10825D01*
X9926Y4950D02*
X9876Y4900D01*
X9976D02*
X10026Y4950D01*
Y8675D02*
X10076Y8725D01*
X10026Y8750D02*
X9926Y8650D01*
Y6000D02*
X9876Y5950D01*
X9976D02*
X10026Y6000D01*
X9876Y8050D02*
X9926Y8100D01*
X9976Y8050D02*
X10026Y8100D01*
X9926Y7100D02*
X9876Y7050D01*
X9976D02*
X10026Y7100D01*
Y10725D02*
X10076Y10775D01*
X10126Y11950D02*
Y12175D01*
Y11550D02*
Y11400D01*
Y4700D02*
Y4650D01*
Y9350D02*
Y9500D01*
X10076Y9575D02*
Y8725D01*
X10126Y7825D02*
Y7800D01*
Y8675D02*
Y9050D01*
Y11775D02*
Y11950D01*
X10076Y11725D02*
Y10775D01*
X10226Y5100D02*
Y4950D01*
Y5700D02*
X10151Y5775D01*
X10126Y6750D02*
X10076Y6800D01*
X10151Y6825D02*
X10226Y6750D01*
Y4950D02*
X10276Y4900D01*
X10076Y11725D02*
X10126Y11775D01*
X5751Y8975D02*
X5576D01*
X12626Y8900D02*
X12676D01*
X5701Y8925D02*
X5601D01*
X10376Y8075D02*
Y7900D01*
X10426Y7950D02*
Y8000D01*
X10376Y11350D02*
Y11400D01*
X10426Y11950D02*
Y12025D01*
Y4950D02*
Y4800D01*
Y4375D02*
Y4150D01*
Y4650D02*
Y4800D01*
Y6750D02*
Y6900D01*
Y5850D02*
Y5700D01*
Y7800D02*
Y7950D01*
X10326Y7850D02*
Y7800D01*
Y7750D01*
X10426Y5450D02*
Y5200D01*
Y6250D02*
Y6500D01*
Y6000D02*
Y5850D01*
Y5375D02*
Y5200D01*
Y6900D02*
Y7050D01*
X10276Y4900D02*
Y4400D01*
X10526Y7700D02*
X10426Y7800D01*
Y8000D02*
X10476Y8050D01*
X10376Y11400D02*
X10476Y11500D01*
X10426Y12025D02*
X10476Y12075D01*
Y4425D02*
X10426Y4375D01*
X10326Y7850D02*
X10376Y7900D01*
X10526Y7500D02*
X10426Y7400D01*
X10476Y5500D02*
X10426Y5450D01*
Y6500D02*
X10476Y6550D01*
X5726Y9025D02*
X5601D01*
Y9125D02*
X5701D01*
X5651Y9175D02*
X5551D01*
X8501Y9100D02*
X8551D01*
X8676Y9200D02*
X8776D01*
X10476Y8100D02*
Y8050D01*
X10526Y6775D02*
Y6150D01*
Y5300D02*
Y5100D01*
X10551Y5325D02*
Y5550D01*
X10626Y9475D02*
Y9500D01*
X10476Y11500D02*
Y11600D01*
X10626Y11550D02*
Y11500D01*
Y10725D02*
Y10550D01*
Y10950D02*
Y11100D01*
X10526Y5100D02*
Y4950D01*
X10476Y4900D02*
Y4425D01*
X10626Y8900D02*
Y9050D01*
Y8650D02*
Y8500D01*
X10526Y7700D02*
Y7650D01*
Y7550D02*
Y7500D01*
X10476Y5950D02*
Y5500D01*
X10526Y6000D02*
Y6150D01*
X10476Y6550D02*
Y7000D01*
X10526Y7050D02*
Y7200D01*
X10601Y5375D02*
Y5300D01*
Y7525D02*
Y7600D01*
X10576Y7500D02*
Y6825D01*
X10476Y6600D02*
Y6550D01*
X10726Y9375D02*
X10626Y9475D01*
X10726Y11400D02*
X10626Y11500D01*
X10576Y6825D02*
X10526Y6775D01*
X10551Y5325D02*
X10526Y5300D01*
X10626Y10725D02*
X10726Y10825D01*
X10526Y4950D02*
X10476Y4900D01*
X10626Y8650D02*
X10726Y8750D01*
X10526Y6000D02*
X10476Y5950D01*
Y7000D02*
X10526Y7050D01*
X10676Y5450D02*
X10601Y5375D01*
X10576Y7500D02*
X10601Y7525D01*
X10751Y7425D02*
Y7275D01*
X10676Y7500D02*
Y8025D01*
Y7250D02*
Y6500D01*
X10826Y6600D02*
Y6800D01*
X10676Y5375D02*
Y5275D01*
X10776Y5425D02*
Y5750D01*
Y5800D01*
X10726Y9350D02*
Y9375D01*
X10826Y9350D02*
Y9500D01*
X10776Y11900D02*
Y12000D01*
X10826Y12125D02*
Y12250D01*
Y11950D02*
Y11700D01*
X10726Y10775D02*
Y10550D01*
X10776Y10825D02*
Y11650D01*
X10826Y11550D02*
Y11400D01*
X10726Y10950D02*
Y10825D01*
Y10950D02*
Y11100D01*
X10826D02*
Y11250D01*
Y5100D02*
Y5025D01*
Y4700D02*
Y4500D01*
X10726Y8900D02*
Y9050D01*
Y8900D02*
Y8750D01*
Y9600D02*
Y9900D01*
X10776Y9550D02*
Y8750D01*
X10726Y8700D02*
Y8500D01*
X10826Y8625D02*
Y9050D01*
X10726Y6750D02*
Y6500D01*
X10826Y8025D02*
Y8250D01*
Y7850D02*
Y7775D01*
Y7850D02*
Y7950D01*
Y5750D02*
Y5550D01*
Y6000D02*
Y6150D01*
X10776Y8125D02*
Y8300D01*
X10726Y7875D02*
Y7650D01*
X10776Y7925D02*
Y7975D01*
X10676Y5575D02*
Y5450D01*
X10876Y4300D02*
X10826Y4250D01*
X10901Y7125D02*
X10826Y7200D01*
X10751Y7425D02*
X10676Y7500D01*
Y5275D02*
X10701Y5250D01*
X10926Y5450D02*
X10826Y5550D01*
Y4500D02*
X10926Y4400D01*
X10851Y5000D02*
X10826Y5025D01*
X10776Y9550D02*
X10726Y9600D01*
X10826Y6600D02*
X10926Y6500D01*
X10776Y6450D02*
X10726Y6500D01*
X10826Y7550D02*
X10726Y7650D01*
X10826Y7775D02*
X10876Y7725D01*
X10701Y7275D02*
X10676Y7250D01*
X10876Y5400D02*
X10776Y5300D01*
X10676Y5375D02*
X10701Y5400D01*
X10751D02*
X10776Y5425D01*
Y12000D02*
X10876Y12100D01*
X10826Y12125D02*
X10776Y12075D01*
X10826Y12250D02*
X10851Y12275D01*
X10826Y11700D02*
X10776Y11650D01*
Y10825D02*
X10726Y10775D01*
X10826Y11250D02*
X10876Y11300D01*
X10776Y8750D02*
X10726Y8700D01*
X10826Y8025D02*
X10776Y7975D01*
X10676Y8025D02*
X10776Y8125D01*
Y8300D02*
X10801Y8325D01*
X10776Y7925D02*
X10726Y7875D01*
X7276Y9500D02*
X6976D01*
X6451Y9425D02*
X6201D01*
X10876Y4350D02*
Y4300D01*
Y6650D02*
Y6900D01*
X10926Y6800D02*
Y7050D01*
Y7200D02*
Y7250D01*
X11026Y6750D02*
Y6600D01*
X10976Y5000D02*
Y4750D01*
X10876Y12100D02*
Y12225D01*
X11026Y12275D02*
Y12150D01*
X10876Y11675D02*
Y11300D01*
X10976Y11775D02*
Y12025D01*
X11026D02*
Y11950D01*
Y4700D02*
Y4625D01*
X10926Y4700D02*
Y4950D01*
Y4700D02*
Y4500D01*
Y7650D02*
Y7850D01*
Y7950D01*
X10876Y7725D02*
Y7600D01*
X10901Y8100D02*
Y8150D01*
X10876Y4800D02*
Y4550D01*
X10926Y5550D02*
Y5750D01*
Y5900D01*
X10876Y5825D02*
Y5600D01*
X10926Y5200D02*
Y5100D01*
Y5950D02*
Y6150D01*
Y6250D01*
Y8175D02*
Y8325D01*
Y8425D01*
Y6800D02*
X11026Y6750D01*
X10926Y7250D02*
X10901Y7275D01*
X10876Y5250D02*
X10926Y5200D01*
X10976Y4750D02*
X11026Y4700D01*
X10926Y7550D02*
X10876Y7600D01*
X10926Y12275D02*
X10976Y12325D01*
X11026Y12275D02*
X11076Y12325D01*
X10976Y11775D02*
X10876Y11675D01*
X10976Y12025D02*
X11076Y12125D01*
X10926Y8175D02*
X10901Y8150D01*
X11176Y7025D02*
Y6650D01*
Y8525D02*
Y9675D01*
X11126Y5400D02*
Y5300D01*
X11076Y12125D02*
Y12225D01*
X11176D02*
Y12175D01*
X11126Y12025D02*
Y11950D01*
Y4425D02*
Y4250D01*
Y4650D02*
Y4800D01*
Y6750D02*
Y6900D01*
Y5850D02*
Y5700D01*
Y6350D02*
Y6500D01*
Y7800D02*
Y7950D01*
Y7525D02*
Y7400D01*
X11176Y5900D02*
Y5525D01*
Y6100D02*
Y6200D01*
X11226Y12275D02*
X11176Y12325D01*
X11226Y7075D02*
X11176Y7025D01*
X11226Y5025D02*
X11201Y5000D01*
X11126Y5400D02*
X11226Y5500D01*
X11126Y12025D02*
X11226Y12125D01*
Y4525D02*
X11126Y4425D01*
Y6500D02*
X11226Y6600D01*
X11176Y8150D02*
X11226Y8200D01*
Y7625D02*
X11126Y7525D01*
X11176Y5525D02*
X11126Y5475D01*
X11176Y5900D02*
X11226Y5950D01*
X11176Y6200D02*
X11201Y6225D01*
X11176Y6100D02*
X11151Y6075D01*
X11326Y7050D02*
Y7200D01*
X11226D02*
Y7125D01*
Y7075D02*
Y7200D01*
Y5100D02*
Y5025D01*
X11376Y8125D02*
Y8325D01*
X11276Y8475D02*
Y9575D01*
X11326Y7575D02*
Y7400D01*
X11376Y7625D02*
Y8050D01*
X11226Y7575D02*
Y7400D01*
X11276Y7625D02*
Y8025D01*
X11226Y5700D02*
Y5500D01*
X11326Y9475D02*
Y9500D01*
X11276Y11875D02*
Y12025D01*
Y12225D01*
X11326Y12275D02*
Y11950D01*
Y11100D02*
Y10950D01*
Y10725D02*
Y10550D01*
Y11500D02*
Y11550D01*
X11226Y12125D02*
Y12275D01*
X11326Y4250D02*
Y4075D01*
X11226D02*
Y4250D01*
X11326Y4950D02*
Y5100D01*
X11226Y4650D02*
Y4525D01*
Y4650D02*
Y4800D01*
Y6750D02*
Y6900D01*
Y5850D02*
Y5700D01*
X11326Y8500D02*
Y8675D01*
Y8900D02*
Y9050D01*
X11226Y6750D02*
Y6600D01*
X11326Y8150D02*
Y8250D01*
X11226D02*
Y8200D01*
Y7950D02*
Y7800D01*
Y7625D01*
X11376Y5475D02*
Y5400D01*
X11226Y6000D02*
Y6150D01*
Y6000D02*
Y5950D01*
X11326Y6150D02*
X11276Y6225D01*
X11426Y9375D02*
X11326Y9475D01*
X11301Y11850D02*
X11276Y11875D01*
X11326Y12275D02*
X11276Y12325D01*
X11376D02*
X11426Y12275D01*
X11326Y11500D02*
X11426Y11400D01*
X11376Y7625D02*
X11326Y7575D01*
X11376Y8050D02*
X11476Y8150D01*
X11276Y7625D02*
X11226Y7575D01*
X11276Y8025D02*
X11376Y8125D01*
X11326Y10725D02*
X11426Y10825D01*
Y8775D02*
X11326Y8675D01*
Y8150D02*
X11276Y8100D01*
X11451Y5550D02*
X11376Y5475D01*
X11476Y8150D02*
Y8275D01*
X11426Y9350D02*
Y9375D01*
X11526Y11100D02*
Y11300D01*
X11576Y11350D02*
Y12000D01*
X11476D02*
Y11975D01*
Y11875D01*
X11426Y11100D02*
Y10950D01*
Y10825D01*
Y10725D02*
Y10550D01*
X11476Y10775D02*
Y11625D01*
X11526Y11675D02*
Y11950D01*
X11476Y12175D02*
Y12225D01*
X11526Y12200D02*
Y12250D01*
Y11550D02*
Y11400D01*
X11426Y4250D02*
Y4050D01*
Y8775D02*
Y8900D01*
Y8675D02*
Y8500D01*
X11476Y8725D02*
Y9600D01*
X11426Y9650D02*
Y9900D01*
X11526Y9500D02*
Y9350D01*
X11426Y9050D02*
Y8900D01*
X11526Y9050D02*
Y8700D01*
X11576Y8000D02*
Y7875D01*
X11526Y7825D02*
Y7650D01*
X11576Y12000D02*
X11551Y12025D01*
Y12100D02*
X11476Y12175D01*
X11526Y12250D02*
X11501Y12275D01*
X11526Y12200D02*
X11576Y12150D01*
X11426Y9650D02*
X11476Y9600D01*
X11526Y7650D02*
X11626Y7550D01*
X11526Y11300D02*
X11576Y11350D01*
X11476Y12000D02*
X11501Y12025D01*
X11476Y11875D02*
X11451Y11850D01*
X11476Y10775D02*
X11426Y10725D01*
X11476Y11625D02*
X11526Y11675D01*
X11476Y8725D02*
X11426Y8675D01*
X11626Y8050D02*
X11576Y8000D01*
Y7875D02*
X11526Y7825D01*
X11726Y11950D02*
Y11975D01*
X11776D02*
Y11875D01*
X11726Y4500D02*
Y4250D01*
Y4750D02*
Y4800D01*
Y6875D02*
Y6900D01*
Y5850D02*
Y5825D01*
Y5700D02*
Y5625D01*
Y6350D02*
Y6600D01*
Y5550D02*
Y5300D01*
X11676Y8450D02*
Y9650D01*
X11626Y9700D02*
Y9900D01*
X11726Y7850D02*
Y7650D01*
Y7850D02*
Y7950D01*
X11626Y8050D02*
Y8250D01*
X11676Y7725D02*
Y7600D01*
X11626Y7775D02*
Y7850D01*
X11726Y8175D02*
Y8250D01*
X11676Y8125D02*
Y8100D01*
X11626Y7975D02*
Y7850D01*
Y11675D02*
Y11950D01*
X11676Y11625D02*
Y10050D01*
X11726Y10000D02*
Y9900D01*
Y11975D02*
X11626Y12075D01*
Y4600D02*
X11726Y4500D01*
X11826Y4650D02*
X11726Y4750D01*
X11826Y6775D02*
X11726Y6875D01*
Y5825D02*
X11826Y5725D01*
X11726Y6600D02*
X11626Y6700D01*
Y5650D02*
X11726Y5550D01*
X11676Y9650D02*
X11626Y9700D01*
X11676Y7600D02*
X11726Y7550D01*
X11676Y7725D02*
X11626Y7775D01*
X11676Y11625D02*
X11626Y11675D01*
X11676Y10050D02*
X11726Y10000D01*
X11826Y8050D02*
X11726Y7950D01*
X11676Y8125D02*
X11726Y8175D01*
X11976Y8425D02*
Y10300D01*
X11876Y10250D02*
Y8450D01*
X11826Y11950D02*
Y12000D01*
Y4800D02*
Y4775D01*
X11926Y4675D02*
Y4650D01*
X11826Y6875D02*
Y6900D01*
X11926Y6775D02*
Y6750D01*
X11826D02*
Y6775D01*
Y5725D02*
Y5700D01*
X11926D02*
Y5725D01*
X11826Y5825D02*
Y5850D01*
X11926Y5700D02*
Y5525D01*
Y5425D02*
Y5300D01*
X11826Y9900D02*
Y10025D01*
X11926Y7950D02*
Y7800D01*
Y7525D02*
Y7400D01*
X11826Y7200D02*
Y7075D01*
X11926Y7100D02*
Y7200D01*
X11976Y6925D02*
Y6425D01*
X12026Y8375D02*
X11976Y8425D01*
X12076Y11575D02*
X11976Y11675D01*
X11826Y4775D02*
X11926Y4675D01*
Y6775D02*
X11826Y6875D01*
Y5825D02*
X11926Y5725D01*
Y5525D02*
X12026Y5425D01*
X11926Y7525D02*
X12026Y7625D01*
X12176Y7675D02*
Y8075D01*
X12126Y7625D02*
Y7400D01*
X12026D02*
Y7575D01*
X12076Y7625D02*
Y8025D01*
X12176Y8125D02*
Y8275D01*
Y10750D02*
Y10875D01*
X12126Y10700D02*
Y10550D01*
X12026D02*
Y10700D01*
X12126Y10800D02*
Y10950D01*
X12026D02*
Y11100D01*
X12126D02*
Y10950D01*
X12176Y11300D02*
Y11450D01*
X12076Y11500D02*
Y11575D01*
X12026Y11950D02*
Y12275D01*
Y11550D02*
Y11500D01*
X12176Y5000D02*
Y4700D01*
X12126Y4425D02*
Y4250D01*
X12026Y4525D02*
Y4650D01*
Y5300D02*
Y5425D01*
X12126Y9625D02*
Y9900D01*
X12176Y9575D02*
Y8750D01*
X12126Y8700D02*
Y8500D01*
X12026D02*
Y8700D01*
X12126Y8800D02*
Y8900D01*
X12026D02*
Y9050D01*
X12126D02*
Y8900D01*
X12026Y9475D02*
Y9500D01*
X12126Y9375D02*
Y9350D01*
X12026Y6475D02*
Y6350D01*
X12126Y6575D02*
Y6750D01*
X12026Y7800D02*
Y7950D01*
Y7800D02*
Y7625D01*
X12126Y8125D02*
Y8250D01*
X12076Y6950D02*
Y6825D01*
X12176Y8275D02*
X12126Y8325D01*
X12226Y11250D02*
X12176Y11300D01*
Y11450D02*
X12151Y11475D01*
X12101D02*
X12076Y11500D01*
X12026D02*
X12126Y11400D01*
X12176Y4700D02*
X12226Y4650D01*
X12026Y4525D02*
X12126Y4425D01*
X12176Y9575D02*
X12126Y9625D01*
X12026Y9475D02*
X12126Y9375D01*
X12276Y8175D02*
X12176Y8075D01*
Y7675D02*
X12126Y7625D01*
X12076D02*
X12026Y7575D01*
X12076Y8025D02*
X12176Y8125D01*
Y10875D02*
X12276Y10975D01*
X12176Y10750D02*
X12126Y10700D01*
X12026D02*
X12126Y10800D01*
X12176Y8750D02*
X12126Y8700D01*
X12026D02*
X12126Y8800D01*
Y6575D02*
X12026Y6475D01*
X12051Y8050D02*
X12126Y8125D01*
X12276Y8175D02*
Y8325D01*
X12226Y11675D02*
Y11950D01*
X12276Y11625D02*
Y10975D01*
X12226Y11100D02*
Y11250D01*
Y11400D02*
Y11550D01*
X12376Y5750D02*
Y5250D01*
X12276Y4700D02*
Y4400D01*
X12226Y4750D02*
Y4900D01*
X12326Y5000D02*
Y5150D01*
X12376Y5175D02*
Y4700D01*
X12226Y9350D02*
Y9500D01*
X12326Y6475D02*
Y6350D01*
X12276Y6500D02*
Y6075D01*
X12376Y8825D02*
Y9075D01*
X12226Y9050D02*
Y8625D01*
X12351Y6175D02*
Y6075D01*
X12326Y5500D02*
Y5300D01*
X12276Y5550D02*
Y5975D01*
X12326Y7050D02*
Y8350D01*
X12276Y8825D02*
Y9625D01*
X12226Y8375D02*
X12276Y8325D01*
Y11625D02*
X12226Y11675D01*
X12376Y5250D02*
X12426Y5200D01*
X12226Y4750D02*
X12276Y4700D01*
X12376Y5175D02*
X12351Y5200D01*
X12326Y5500D02*
X12276Y5550D01*
X12426Y6950D02*
X12326Y7050D01*
X12426Y5800D02*
X12376Y5750D01*
X12326Y5000D02*
X12226Y4900D01*
Y5150D02*
X12276Y5200D01*
X12376Y4700D02*
X12326Y4650D01*
X12376Y9075D02*
X12401Y9100D01*
X12426Y8450D02*
X12326Y8350D01*
X12551Y8925D02*
Y9325D01*
X12576Y9300D02*
Y8950D01*
X12526Y6000D02*
Y5800D01*
X12576Y5750D02*
Y5500D01*
X12526Y5450D02*
Y5300D01*
Y5550D02*
Y5700D01*
X12426Y5450D02*
Y5300D01*
Y5800D02*
Y5900D01*
Y5200D02*
Y4525D01*
X12526Y6675D02*
Y6750D01*
Y6900D02*
Y7050D01*
X12476Y6900D02*
Y6700D01*
X12426Y5925D02*
Y5900D01*
X12401Y9100D02*
Y9125D01*
X12576Y8900D02*
Y8825D01*
X12476Y5950D02*
Y5800D01*
X12526Y5750D02*
Y5700D01*
X12426Y8450D02*
Y8675D01*
Y7150D02*
X12526Y7050D01*
Y5800D02*
X12576Y5750D01*
X12426Y4525D02*
X12451Y4500D01*
X12501Y4450D01*
X12526Y6000D02*
X12426Y6100D01*
X12601Y6825D02*
X12526Y6900D01*
X12476D02*
X12426Y6950D01*
X12626Y8900D02*
X12576Y8950D01*
Y8825D02*
X12651Y8750D01*
X12576Y8900D02*
X12551Y8925D01*
X12476Y5800D02*
X12526Y5750D01*
X12576Y5500D02*
X12526Y5450D01*
X12426D02*
X12526Y5550D01*
X12626Y4300D02*
X12576Y4250D01*
X12526Y6350D02*
X12601Y6425D01*
Y9625D02*
Y9750D01*
X12676Y9550D02*
Y9475D01*
Y9600D02*
Y9800D01*
X12701Y9575D02*
Y9450D01*
X12726Y9425D02*
Y9575D01*
Y9625D01*
Y9800D02*
Y9950D01*
X12601Y9275D02*
Y9000D01*
X12701D02*
Y9275D01*
X12776Y9350D02*
Y9675D01*
Y4425D02*
Y4225D01*
X12626Y4300D02*
Y4400D01*
X12601Y6425D02*
Y6825D01*
X12776Y9800D02*
Y9825D01*
X12701Y8875D02*
Y8800D01*
X12676Y9550D02*
X12601Y9625D01*
X12676Y9600D02*
X12701Y9575D01*
X12801Y9725D02*
X12726Y9800D01*
Y9725D02*
X12751Y9700D01*
X12826Y9750D02*
X12776Y9800D01*
X12751Y9700D02*
X12776Y9675D01*
X12751Y4450D02*
X12776Y4425D01*
X12751Y8950D02*
X12701Y9000D01*
X12651Y8950D02*
X12601Y9000D01*
X12701Y8800D02*
X12751Y8750D01*
X12701Y8875D02*
X12676Y8900D01*
X12726Y9950D02*
X12801Y10025D01*
Y8600D02*
X12751Y8550D01*
X12826Y8450D02*
X12776Y8400D01*
X12701Y9275D02*
X12776Y9350D01*
Y4225D02*
X12751Y4200D01*
X12651Y8350D02*
X12701Y8400D01*
X7251Y11475D02*
X7126D01*
X8701D02*
X8726D01*
X12101D02*
X12151D01*
X12801Y9725D02*
Y8600D01*
X12826Y8450D02*
Y9750D01*
X12851Y9825D02*
Y8400D01*
X12801Y9875D02*
Y9900D01*
Y9875D02*
X12851Y9825D01*
Y8400D02*
X12801Y8350D01*
X11451Y11850D02*
X11301D01*
X10776Y12075D02*
X10476D01*
X11501Y12025D02*
X11551D01*
X11526Y12075D02*
X11626D01*
X11651Y12100D02*
X11551D01*
X7476Y12275D02*
X6901D01*
X8176D02*
X8576D01*
X10851D02*
X10926D01*
X11626Y12150D02*
X11676D01*
X11501Y12275D02*
X11426D01*
X11576Y12150D02*
X11626D01*
X12876Y3950D02*
X5376D01*
Y12450D02*
X12876D01*
Y3950D01*
X5376D02*
Y12450D01*
D21*
X9001Y4350D02*
X8976Y4325D01*
Y4125D02*
X8926Y4075D01*
X8726D02*
X8676Y4125D01*
X7251Y6250D02*
X7226Y6275D01*
X7876Y6250D02*
X7926Y6200D01*
X7226Y5225D02*
X7251Y5200D01*
X7901Y5175D02*
X7926Y5150D01*
X7801Y5175D02*
X7726Y5250D01*
X9276Y5400D02*
X9326Y5350D01*
X8426Y10150D02*
X8401Y10175D01*
X7776Y10100D02*
X7751Y10125D01*
X6176Y5650D02*
X6226Y5600D01*
X12576Y11100D02*
X12626Y11050D01*
X12526Y9625D02*
X12551Y9600D01*
X12601Y9550D01*
X6226Y6375D02*
X6151Y6450D01*
Y5675D02*
X6176Y5650D01*
X5926Y10300D02*
X5801Y10425D01*
X12426Y8975D02*
X12476Y8925D01*
X9626Y10025D02*
X9101Y10550D01*
X7226Y7350D02*
X7326Y7250D01*
X10126Y7400D02*
X10226Y7300D01*
X9226Y7000D02*
X9126Y7100D01*
X7551Y9925D02*
X7526Y9950D01*
X10126Y4975D02*
X10226Y4875D01*
X9126Y5250D02*
X8926Y5450D01*
X9226Y5950D02*
X9126Y6050D01*
X6526Y8075D02*
X6376Y8225D01*
X9676Y9350D02*
X9826Y9200D01*
X11226Y11100D02*
X11026Y11300D01*
X10526Y8450D02*
X10601Y8375D01*
X10701D02*
X10726Y8350D01*
X5876Y8975D02*
X5851Y9000D01*
X5551Y8725D02*
X5501Y8775D01*
X5551Y8050D02*
X5601Y8000D01*
X5776D02*
X5826Y7950D01*
X8026Y8425D02*
X8126Y8325D01*
X7926Y10400D02*
X7876Y10450D01*
X7551Y5300D02*
X7451Y5200D01*
X9076Y5300D02*
X9176Y5400D01*
X8901Y10400D02*
X9051Y10550D01*
X12501Y9375D02*
X12601Y9475D01*
X12526Y9775D02*
X12626Y9875D01*
X12501Y9125D02*
X12426Y9050D01*
X6126Y10400D02*
X6026Y10300D01*
X6226Y7075D02*
X6151Y7000D01*
X6226Y6025D02*
X6151Y5950D01*
X5801Y11275D02*
X5926Y11400D01*
X12126Y7025D02*
X12226Y7125D01*
X12376Y8050D02*
X12476Y8150D01*
X9226Y11075D02*
X9101Y10950D01*
X7126Y8425D02*
X7026Y8325D01*
X7951Y10175D02*
X8126Y10350D01*
X12026Y5000D02*
X11926Y4900D01*
X7526Y10125D02*
X7576Y10175D01*
X6426Y8425D02*
X6376Y8375D01*
X10226Y4575D02*
X10026Y4375D01*
X9126Y6775D02*
X9226Y6875D01*
X6526Y7900D02*
X6176Y7550D01*
X5851Y9175D02*
X5926Y9250D01*
X12126Y5150D02*
X12226Y5250D01*
X8926Y4075D02*
X8726D01*
X5501Y8775D02*
Y8825D01*
X7726Y4125D02*
X8676D01*
X7726D02*
X7226D01*
X5976D01*
X9226Y4150D02*
X10126D01*
X5551Y8050D02*
Y8725D01*
X9001Y4350D02*
X9326D01*
X9826D02*
X10026D01*
X9826D02*
X9526D01*
X9326D01*
X5926Y9350D02*
Y10300D01*
X5801Y10425D02*
Y11275D01*
X5876Y8975D02*
Y8250D01*
X5851Y9000D02*
Y9175D01*
X5926Y9250D02*
Y9350D01*
X5976Y4250D02*
Y4125D01*
X6226Y5100D02*
Y5600D01*
Y7075D02*
Y7200D01*
X6151Y7000D02*
Y6450D01*
X6226Y6375D02*
Y6150D01*
Y6025D01*
X6151Y5950D02*
Y5675D01*
X6176Y7400D02*
Y7550D01*
X6426Y8425D02*
Y8500D01*
X6376Y8375D02*
Y8250D01*
X6526Y7950D02*
Y7900D01*
Y7950D02*
Y8075D01*
X6376Y8225D02*
Y8250D01*
X7251Y5200D02*
X7451D01*
X7801Y5175D02*
X7901D01*
X7726Y5300D02*
X7551D01*
X9176Y5400D02*
X9276D01*
X7026Y8250D02*
Y8325D01*
Y6350D02*
Y6150D01*
Y5300D02*
Y5100D01*
X7226Y4250D02*
Y4125D01*
Y6275D02*
Y6350D01*
Y5300D02*
Y5225D01*
X7126Y8425D02*
Y8500D01*
X7226Y7400D02*
Y7350D01*
X7326Y7250D02*
Y7200D01*
X7251Y6250D02*
X7726D01*
X7876D01*
X7526Y9950D02*
Y10125D01*
X7726Y4250D02*
Y4125D01*
Y6250D02*
Y6350D01*
Y5300D02*
Y5250D01*
X7751Y10125D02*
Y10175D01*
X7876Y10450D02*
Y10650D01*
X9326Y6475D02*
X9526D01*
X9326D02*
X9126D01*
X7926Y6200D02*
Y6150D01*
Y5150D02*
Y5100D01*
X8026Y8425D02*
Y8500D01*
X8126Y10100D02*
Y10175D01*
X8226Y7400D02*
Y7200D01*
X8126Y10350D02*
Y10400D01*
Y8325D02*
Y8250D01*
X8426Y10100D02*
Y10150D01*
X8626Y10100D02*
Y9950D01*
X8976Y4325D02*
Y4125D01*
X8926Y5450D02*
Y5850D01*
X9101Y10550D02*
Y10950D01*
X9226Y11075D02*
Y11100D01*
Y7400D02*
Y7200D01*
Y7000D02*
Y6900D01*
X9126Y7100D02*
Y7200D01*
X9226Y4250D02*
Y4150D01*
X9126Y5100D02*
Y5250D01*
X9226Y5850D02*
Y5950D01*
X9126Y6050D02*
Y6150D01*
Y6750D01*
Y6775D01*
X9226Y6875D02*
Y6900D01*
Y6350D02*
Y6150D01*
Y5300D02*
Y5100D01*
X5776Y8000D02*
X5601D01*
X5826Y7950D02*
X5876D01*
X9326Y4350D02*
Y4250D01*
Y6350D02*
Y6475D01*
Y5350D02*
Y5300D01*
X9526Y4350D02*
Y4250D01*
Y6350D02*
Y6475D01*
X9626Y9350D02*
Y10025D01*
X10601Y8375D02*
X10701D01*
X9826Y4350D02*
Y4250D01*
Y9050D02*
Y9200D01*
X10026Y4350D02*
Y4250D01*
Y4375D01*
X10126Y5100D02*
Y5300D01*
X10226Y7200D02*
Y7300D01*
Y6350D02*
Y6150D01*
X10126D02*
Y6350D01*
Y4250D02*
Y4150D01*
X10226Y4575D02*
Y4800D01*
Y4875D01*
X10126Y4975D02*
Y5100D01*
X10226D02*
Y5300D01*
X10526Y8450D02*
Y9050D01*
X9676Y9350D02*
X9626D01*
X10726Y8350D02*
Y8250D01*
Y6350D02*
Y6150D01*
X11026Y11300D02*
Y11400D01*
X7601Y9925D02*
X7551D01*
X8126Y10175D02*
X8401D01*
X8126Y10100D02*
X7776D01*
X7751Y10175D02*
X7576D01*
X6026Y10300D02*
X5926D01*
X9051Y10550D02*
X9101D01*
X8901Y10400D02*
X8626D01*
X6401D02*
X6126D01*
X7926D02*
X8126D01*
X11926Y4900D02*
Y4800D01*
X12126Y6150D02*
Y6350D01*
Y6900D02*
Y7025D01*
X12026Y5100D02*
Y5000D01*
X12126Y5100D02*
Y5150D01*
X12226Y7125D02*
Y7950D01*
X12376D02*
Y8050D01*
X12226Y5300D02*
Y5250D01*
X12426Y11100D02*
X12576D01*
X12501Y9375D02*
Y9125D01*
X12526Y9625D02*
Y9775D01*
X12476Y8925D02*
Y8150D01*
X12426Y8975D02*
Y9050D01*
X12601Y9475D02*
Y9550D01*
X12626Y9875D02*
Y11050D01*
X5501Y7700D02*
X5502D01*
X5501D02*
X5501Y7690D01*
X5503Y7680D01*
X5505Y7670D01*
X5507Y7660D01*
X5511Y7651D01*
X5515Y7642D01*
X5520Y7633D01*
X5526Y7625D01*
X5532Y7617D01*
X5539Y7610D01*
X5547Y7603D01*
X5555Y7597D01*
X5564Y7592D01*
X5572Y7587D01*
X5582Y7583D01*
X5591Y7580D01*
X5601Y7578D01*
X5611Y7576D01*
X5621Y7575D01*
X5631D01*
X5641Y7576D01*
X5651Y7578D01*
X5661Y7580D01*
X5670Y7583D01*
X5680Y7587D01*
X5688Y7592D01*
X5697Y7597D01*
X5705Y7603D01*
X5713Y7610D01*
X5720Y7617D01*
X5726Y7625D01*
X5732Y7633D01*
X5737Y7642D01*
X5741Y7651D01*
X5745Y7660D01*
X5747Y7670D01*
X5749Y7680D01*
X5751Y7690D01*
X5751Y7700D01*
X5752D01*
X5751D02*
X5751Y7710D01*
X5749Y7720D01*
X5747Y7730D01*
X5745Y7740D01*
X5741Y7749D01*
X5737Y7758D01*
X5732Y7767D01*
X5726Y7775D01*
X5720Y7783D01*
X5713Y7790D01*
X5705Y7797D01*
X5697Y7803D01*
X5688Y7808D01*
X5680Y7813D01*
X5670Y7817D01*
X5661Y7820D01*
X5651Y7822D01*
X5641Y7824D01*
X5631Y7825D01*
X5621D01*
X5611Y7824D01*
X5601Y7822D01*
X5591Y7820D01*
X5582Y7817D01*
X5572Y7813D01*
X5564Y7808D01*
X5555Y7803D01*
X5547Y7797D01*
X5539Y7790D01*
X5532Y7783D01*
X5526Y7775D01*
X5520Y7767D01*
X5515Y7758D01*
X5511Y7749D01*
X5507Y7740D01*
X5505Y7730D01*
X5503Y7720D01*
X5501Y7710D01*
X5501Y7700D01*
X5549D02*
X5550D01*
X5549D02*
X5550Y7691D01*
X5551Y7682D01*
X5554Y7674D01*
X5557Y7665D01*
X5562Y7658D01*
X5567Y7651D01*
X5573Y7644D01*
X5580Y7638D01*
X5588Y7633D01*
X5596Y7629D01*
X5604Y7626D01*
X5613Y7624D01*
X5622Y7623D01*
X5630D01*
X5639Y7624D01*
X5648Y7626D01*
X5656Y7629D01*
X5664Y7633D01*
X5672Y7638D01*
X5679Y7644D01*
X5685Y7651D01*
X5690Y7658D01*
X5695Y7665D01*
X5698Y7674D01*
X5701Y7682D01*
X5702Y7691D01*
X5703Y7700D01*
X5704D01*
X5703D02*
X5702Y7709D01*
X5701Y7718D01*
X5698Y7726D01*
X5695Y7735D01*
X5690Y7742D01*
X5685Y7749D01*
X5679Y7756D01*
X5672Y7762D01*
X5664Y7767D01*
X5656Y7771D01*
X5648Y7774D01*
X5639Y7776D01*
X5630Y7777D01*
X5622D01*
X5613Y7776D01*
X5604Y7774D01*
X5596Y7771D01*
X5588Y7767D01*
X5580Y7762D01*
X5573Y7756D01*
X5567Y7749D01*
X5562Y7742D01*
X5557Y7735D01*
X5554Y7726D01*
X5551Y7718D01*
X5550Y7709D01*
X5549Y7700D01*
X5597D02*
X5598D01*
X5597D02*
X5598Y7694D01*
X5600Y7688D01*
X5603Y7683D01*
X5607Y7678D01*
X5612Y7675D01*
X5617Y7672D01*
X5623Y7671D01*
X5629D01*
X5635Y7672D01*
X5640Y7675D01*
X5645Y7678D01*
X5649Y7683D01*
X5652Y7688D01*
X5654Y7694D01*
X5655Y7700D01*
X5656D01*
X5655D02*
X5654Y7706D01*
X5652Y7712D01*
X5649Y7717D01*
X5645Y7722D01*
X5640Y7725D01*
X5635Y7728D01*
X5629Y7729D01*
X5623D01*
X5617Y7728D01*
X5612Y7725D01*
X5607Y7722D01*
X5603Y7717D01*
X5600Y7712D01*
X5598Y7706D01*
X5597Y7700D01*
X5626D02*
D03*
X12501D02*
X12502D01*
X12501D02*
X12501Y7690D01*
X12503Y7680D01*
X12505Y7670D01*
X12507Y7660D01*
X12511Y7651D01*
X12515Y7642D01*
X12520Y7633D01*
X12526Y7625D01*
X12532Y7617D01*
X12539Y7610D01*
X12547Y7603D01*
X12555Y7597D01*
X12564Y7592D01*
X12572Y7587D01*
X12582Y7583D01*
X12591Y7580D01*
X12601Y7578D01*
X12611Y7576D01*
X12621Y7575D01*
X12631D01*
X12641Y7576D01*
X12651Y7578D01*
X12661Y7580D01*
X12670Y7583D01*
X12680Y7587D01*
X12688Y7592D01*
X12697Y7597D01*
X12705Y7603D01*
X12713Y7610D01*
X12720Y7617D01*
X12726Y7625D01*
X12732Y7633D01*
X12737Y7642D01*
X12741Y7651D01*
X12745Y7660D01*
X12747Y7670D01*
X12749Y7680D01*
X12751Y7690D01*
X12751Y7700D01*
X12752D01*
X12751D02*
X12751Y7710D01*
X12749Y7720D01*
X12747Y7730D01*
X12745Y7740D01*
X12741Y7749D01*
X12737Y7758D01*
X12732Y7767D01*
X12726Y7775D01*
X12720Y7783D01*
X12713Y7790D01*
X12705Y7797D01*
X12697Y7803D01*
X12688Y7808D01*
X12680Y7813D01*
X12670Y7817D01*
X12661Y7820D01*
X12651Y7822D01*
X12641Y7824D01*
X12631Y7825D01*
X12621D01*
X12611Y7824D01*
X12601Y7822D01*
X12591Y7820D01*
X12582Y7817D01*
X12572Y7813D01*
X12564Y7808D01*
X12555Y7803D01*
X12547Y7797D01*
X12539Y7790D01*
X12532Y7783D01*
X12526Y7775D01*
X12520Y7767D01*
X12515Y7758D01*
X12511Y7749D01*
X12507Y7740D01*
X12505Y7730D01*
X12503Y7720D01*
X12501Y7710D01*
X12501Y7700D01*
X12549D02*
X12550D01*
X12549D02*
X12550Y7691D01*
X12551Y7682D01*
X12554Y7674D01*
X12557Y7665D01*
X12562Y7658D01*
X12567Y7651D01*
X12573Y7644D01*
X12580Y7638D01*
X12588Y7633D01*
X12596Y7629D01*
X12604Y7626D01*
X12613Y7624D01*
X12622Y7623D01*
X12630D01*
X12639Y7624D01*
X12648Y7626D01*
X12656Y7629D01*
X12664Y7633D01*
X12672Y7638D01*
X12679Y7644D01*
X12685Y7651D01*
X12690Y7658D01*
X12695Y7665D01*
X12698Y7674D01*
X12701Y7682D01*
X12702Y7691D01*
X12703Y7700D01*
X12704D01*
X12703D02*
X12702Y7709D01*
X12701Y7718D01*
X12698Y7726D01*
X12695Y7735D01*
X12690Y7742D01*
X12685Y7749D01*
X12679Y7756D01*
X12672Y7762D01*
X12664Y7767D01*
X12656Y7771D01*
X12648Y7774D01*
X12639Y7776D01*
X12630Y7777D01*
X12622D01*
X12613Y7776D01*
X12604Y7774D01*
X12596Y7771D01*
X12588Y7767D01*
X12580Y7762D01*
X12573Y7756D01*
X12567Y7749D01*
X12562Y7742D01*
X12557Y7735D01*
X12554Y7726D01*
X12551Y7718D01*
X12550Y7709D01*
X12549Y7700D01*
X12597D02*
X12598D01*
X12597D02*
X12598Y7694D01*
X12600Y7688D01*
X12603Y7683D01*
X12607Y7678D01*
X12612Y7675D01*
X12617Y7672D01*
X12623Y7671D01*
X12629D01*
X12635Y7672D01*
X12640Y7675D01*
X12645Y7678D01*
X12649Y7683D01*
X12652Y7688D01*
X12654Y7694D01*
X12655Y7700D01*
X12656D01*
X12655D02*
X12654Y7706D01*
X12652Y7712D01*
X12649Y7717D01*
X12645Y7722D01*
X12640Y7725D01*
X12635Y7728D01*
X12629Y7729D01*
X12623D01*
X12617Y7728D01*
X12612Y7725D01*
X12607Y7722D01*
X12603Y7717D01*
X12600Y7712D01*
X12598Y7706D01*
X12597Y7700D01*
X12626D02*
D03*
X12501Y4700D02*
X12502D01*
X12501D02*
X12501Y4690D01*
X12503Y4680D01*
X12505Y4670D01*
X12507Y4660D01*
X12511Y4651D01*
X12515Y4642D01*
X12520Y4633D01*
X12526Y4625D01*
X12532Y4617D01*
X12539Y4610D01*
X12547Y4603D01*
X12555Y4597D01*
X12564Y4592D01*
X12572Y4587D01*
X12582Y4583D01*
X12591Y4580D01*
X12601Y4578D01*
X12611Y4576D01*
X12621Y4575D01*
X12631D01*
X12641Y4576D01*
X12651Y4578D01*
X12661Y4580D01*
X12670Y4583D01*
X12680Y4587D01*
X12688Y4592D01*
X12697Y4597D01*
X12705Y4603D01*
X12713Y4610D01*
X12720Y4617D01*
X12726Y4625D01*
X12732Y4633D01*
X12737Y4642D01*
X12741Y4651D01*
X12745Y4660D01*
X12747Y4670D01*
X12749Y4680D01*
X12751Y4690D01*
X12751Y4700D01*
X12752D01*
X12751D02*
X12751Y4710D01*
X12749Y4720D01*
X12747Y4730D01*
X12745Y4740D01*
X12741Y4749D01*
X12737Y4758D01*
X12732Y4767D01*
X12726Y4775D01*
X12720Y4783D01*
X12713Y4790D01*
X12705Y4797D01*
X12697Y4803D01*
X12688Y4808D01*
X12680Y4813D01*
X12670Y4817D01*
X12661Y4820D01*
X12651Y4822D01*
X12641Y4824D01*
X12631Y4825D01*
X12621D01*
X12611Y4824D01*
X12601Y4822D01*
X12591Y4820D01*
X12582Y4817D01*
X12572Y4813D01*
X12564Y4808D01*
X12555Y4803D01*
X12547Y4797D01*
X12539Y4790D01*
X12532Y4783D01*
X12526Y4775D01*
X12520Y4767D01*
X12515Y4758D01*
X12511Y4749D01*
X12507Y4740D01*
X12505Y4730D01*
X12503Y4720D01*
X12501Y4710D01*
X12501Y4700D01*
X12549D02*
X12550D01*
X12549D02*
X12550Y4691D01*
X12551Y4682D01*
X12554Y4674D01*
X12557Y4665D01*
X12562Y4658D01*
X12567Y4651D01*
X12573Y4644D01*
X12580Y4638D01*
X12588Y4633D01*
X12596Y4629D01*
X12604Y4626D01*
X12613Y4624D01*
X12622Y4623D01*
X12630D01*
X12639Y4624D01*
X12648Y4626D01*
X12656Y4629D01*
X12664Y4633D01*
X12672Y4638D01*
X12679Y4644D01*
X12685Y4651D01*
X12690Y4658D01*
X12695Y4665D01*
X12698Y4674D01*
X12701Y4682D01*
X12702Y4691D01*
X12703Y4700D01*
X12704D01*
X12703D02*
X12702Y4709D01*
X12701Y4718D01*
X12698Y4726D01*
X12695Y4735D01*
X12690Y4742D01*
X12685Y4749D01*
X12679Y4756D01*
X12672Y4762D01*
X12664Y4767D01*
X12656Y4771D01*
X12648Y4774D01*
X12639Y4776D01*
X12630Y4777D01*
X12622D01*
X12613Y4776D01*
X12604Y4774D01*
X12596Y4771D01*
X12588Y4767D01*
X12580Y4762D01*
X12573Y4756D01*
X12567Y4749D01*
X12562Y4742D01*
X12557Y4735D01*
X12554Y4726D01*
X12551Y4718D01*
X12550Y4709D01*
X12549Y4700D01*
X12597D02*
X12598D01*
X12597D02*
X12598Y4694D01*
X12600Y4688D01*
X12603Y4683D01*
X12607Y4678D01*
X12612Y4675D01*
X12617Y4672D01*
X12623Y4671D01*
X12629D01*
X12635Y4672D01*
X12640Y4675D01*
X12645Y4678D01*
X12649Y4683D01*
X12652Y4688D01*
X12654Y4694D01*
X12655Y4700D01*
X12656D01*
X12655D02*
X12654Y4706D01*
X12652Y4712D01*
X12649Y4717D01*
X12645Y4722D01*
X12640Y4725D01*
X12635Y4728D01*
X12629Y4729D01*
X12623D01*
X12617Y4728D01*
X12612Y4725D01*
X12607Y4722D01*
X12603Y4717D01*
X12600Y4712D01*
X12598Y4706D01*
X12597Y4700D01*
X12626D02*
D03*
X5501D02*
X5502D01*
X5501D02*
X5501Y4690D01*
X5503Y4680D01*
X5505Y4670D01*
X5507Y4660D01*
X5511Y4651D01*
X5515Y4642D01*
X5520Y4633D01*
X5526Y4625D01*
X5532Y4617D01*
X5539Y4610D01*
X5547Y4603D01*
X5555Y4597D01*
X5564Y4592D01*
X5572Y4587D01*
X5582Y4583D01*
X5591Y4580D01*
X5601Y4578D01*
X5611Y4576D01*
X5621Y4575D01*
X5631D01*
X5641Y4576D01*
X5651Y4578D01*
X5661Y4580D01*
X5670Y4583D01*
X5680Y4587D01*
X5688Y4592D01*
X5697Y4597D01*
X5705Y4603D01*
X5713Y4610D01*
X5720Y4617D01*
X5726Y4625D01*
X5732Y4633D01*
X5737Y4642D01*
X5741Y4651D01*
X5745Y4660D01*
X5747Y4670D01*
X5749Y4680D01*
X5751Y4690D01*
X5751Y4700D01*
X5752D01*
X5751D02*
X5751Y4710D01*
X5749Y4720D01*
X5747Y4730D01*
X5745Y4740D01*
X5741Y4749D01*
X5737Y4758D01*
X5732Y4767D01*
X5726Y4775D01*
X5720Y4783D01*
X5713Y4790D01*
X5705Y4797D01*
X5697Y4803D01*
X5688Y4808D01*
X5680Y4813D01*
X5670Y4817D01*
X5661Y4820D01*
X5651Y4822D01*
X5641Y4824D01*
X5631Y4825D01*
X5621D01*
X5611Y4824D01*
X5601Y4822D01*
X5591Y4820D01*
X5582Y4817D01*
X5572Y4813D01*
X5564Y4808D01*
X5555Y4803D01*
X5547Y4797D01*
X5539Y4790D01*
X5532Y4783D01*
X5526Y4775D01*
X5520Y4767D01*
X5515Y4758D01*
X5511Y4749D01*
X5507Y4740D01*
X5505Y4730D01*
X5503Y4720D01*
X5501Y4710D01*
X5501Y4700D01*
X5549D02*
X5550D01*
X5549D02*
X5550Y4691D01*
X5551Y4682D01*
X5554Y4674D01*
X5557Y4665D01*
X5562Y4658D01*
X5567Y4651D01*
X5573Y4644D01*
X5580Y4638D01*
X5588Y4633D01*
X5596Y4629D01*
X5604Y4626D01*
X5613Y4624D01*
X5622Y4623D01*
X5630D01*
X5639Y4624D01*
X5648Y4626D01*
X5656Y4629D01*
X5664Y4633D01*
X5672Y4638D01*
X5679Y4644D01*
X5685Y4651D01*
X5690Y4658D01*
X5695Y4665D01*
X5698Y4674D01*
X5701Y4682D01*
X5702Y4691D01*
X5703Y4700D01*
X5704D01*
X5703D02*
X5702Y4709D01*
X5701Y4718D01*
X5698Y4726D01*
X5695Y4735D01*
X5690Y4742D01*
X5685Y4749D01*
X5679Y4756D01*
X5672Y4762D01*
X5664Y4767D01*
X5656Y4771D01*
X5648Y4774D01*
X5639Y4776D01*
X5630Y4777D01*
X5622D01*
X5613Y4776D01*
X5604Y4774D01*
X5596Y4771D01*
X5588Y4767D01*
X5580Y4762D01*
X5573Y4756D01*
X5567Y4749D01*
X5562Y4742D01*
X5557Y4735D01*
X5554Y4726D01*
X5551Y4718D01*
X5550Y4709D01*
X5549Y4700D01*
X5597D02*
X5598D01*
X5597D02*
X5598Y4694D01*
X5600Y4688D01*
X5603Y4683D01*
X5607Y4678D01*
X5612Y4675D01*
X5617Y4672D01*
X5623Y4671D01*
X5629D01*
X5635Y4672D01*
X5640Y4675D01*
X5645Y4678D01*
X5649Y4683D01*
X5652Y4688D01*
X5654Y4694D01*
X5655Y4700D01*
X5656D01*
X5655D02*
X5654Y4706D01*
X5652Y4712D01*
X5649Y4717D01*
X5645Y4722D01*
X5640Y4725D01*
X5635Y4728D01*
X5629Y4729D01*
X5623D01*
X5617Y4728D01*
X5612Y4725D01*
X5607Y4722D01*
X5603Y4717D01*
X5600Y4712D01*
X5598Y4706D01*
X5597Y4700D01*
X5626D02*
D03*
X12501Y12200D02*
X12502D01*
X12501D02*
X12501Y12190D01*
X12503Y12180D01*
X12505Y12170D01*
X12507Y12160D01*
X12511Y12151D01*
X12515Y12142D01*
X12520Y12133D01*
X12526Y12125D01*
X12532Y12117D01*
X12539Y12110D01*
X12547Y12103D01*
X12555Y12097D01*
X12564Y12092D01*
X12572Y12087D01*
X12582Y12083D01*
X12591Y12080D01*
X12601Y12078D01*
X12611Y12076D01*
X12621Y12075D01*
X12631D01*
X12641Y12076D01*
X12651Y12078D01*
X12661Y12080D01*
X12670Y12083D01*
X12680Y12087D01*
X12688Y12092D01*
X12697Y12097D01*
X12705Y12103D01*
X12713Y12110D01*
X12720Y12117D01*
X12726Y12125D01*
X12732Y12133D01*
X12737Y12142D01*
X12741Y12151D01*
X12745Y12160D01*
X12747Y12170D01*
X12749Y12180D01*
X12751Y12190D01*
X12751Y12200D01*
X12752D01*
X12751D02*
X12751Y12210D01*
X12749Y12220D01*
X12747Y12230D01*
X12745Y12240D01*
X12741Y12249D01*
X12737Y12258D01*
X12732Y12267D01*
X12726Y12275D01*
X12720Y12283D01*
X12713Y12290D01*
X12705Y12297D01*
X12697Y12303D01*
X12688Y12308D01*
X12680Y12313D01*
X12670Y12317D01*
X12661Y12320D01*
X12651Y12322D01*
X12641Y12324D01*
X12631Y12325D01*
X12621D01*
X12611Y12324D01*
X12601Y12322D01*
X12591Y12320D01*
X12582Y12317D01*
X12572Y12313D01*
X12564Y12308D01*
X12555Y12303D01*
X12547Y12297D01*
X12539Y12290D01*
X12532Y12283D01*
X12526Y12275D01*
X12520Y12267D01*
X12515Y12258D01*
X12511Y12249D01*
X12507Y12240D01*
X12505Y12230D01*
X12503Y12220D01*
X12501Y12210D01*
X12501Y12200D01*
X12549D02*
X12550D01*
X12549D02*
X12550Y12191D01*
X12551Y12182D01*
X12554Y12174D01*
X12557Y12165D01*
X12562Y12158D01*
X12567Y12151D01*
X12573Y12144D01*
X12580Y12138D01*
X12588Y12133D01*
X12596Y12129D01*
X12604Y12126D01*
X12613Y12124D01*
X12622Y12123D01*
X12630D01*
X12639Y12124D01*
X12648Y12126D01*
X12656Y12129D01*
X12664Y12133D01*
X12672Y12138D01*
X12679Y12144D01*
X12685Y12151D01*
X12690Y12158D01*
X12695Y12165D01*
X12698Y12174D01*
X12701Y12182D01*
X12702Y12191D01*
X12703Y12200D01*
X12704D01*
X12703D02*
X12702Y12209D01*
X12701Y12218D01*
X12698Y12226D01*
X12695Y12235D01*
X12690Y12242D01*
X12685Y12249D01*
X12679Y12256D01*
X12672Y12262D01*
X12664Y12267D01*
X12656Y12271D01*
X12648Y12274D01*
X12639Y12276D01*
X12630Y12277D01*
X12622D01*
X12613Y12276D01*
X12604Y12274D01*
X12596Y12271D01*
X12588Y12267D01*
X12580Y12262D01*
X12573Y12256D01*
X12567Y12249D01*
X12562Y12242D01*
X12557Y12235D01*
X12554Y12226D01*
X12551Y12218D01*
X12550Y12209D01*
X12549Y12200D01*
X12597D02*
X12598D01*
X12597D02*
X12598Y12194D01*
X12600Y12188D01*
X12603Y12183D01*
X12607Y12178D01*
X12612Y12175D01*
X12617Y12172D01*
X12623Y12171D01*
X12629D01*
X12635Y12172D01*
X12640Y12175D01*
X12645Y12178D01*
X12649Y12183D01*
X12652Y12188D01*
X12654Y12194D01*
X12655Y12200D01*
X12656D01*
X12655D02*
X12654Y12206D01*
X12652Y12212D01*
X12649Y12217D01*
X12645Y12222D01*
X12640Y12225D01*
X12635Y12228D01*
X12629Y12229D01*
X12623D01*
X12617Y12228D01*
X12612Y12225D01*
X12607Y12222D01*
X12603Y12217D01*
X12600Y12212D01*
X12598Y12206D01*
X12597Y12200D01*
X12626D02*
D03*
X5501D02*
X5502D01*
X5501D02*
X5501Y12190D01*
X5503Y12180D01*
X5505Y12170D01*
X5507Y12160D01*
X5511Y12151D01*
X5515Y12142D01*
X5520Y12133D01*
X5526Y12125D01*
X5532Y12117D01*
X5539Y12110D01*
X5547Y12103D01*
X5555Y12097D01*
X5564Y12092D01*
X5572Y12087D01*
X5582Y12083D01*
X5591Y12080D01*
X5601Y12078D01*
X5611Y12076D01*
X5621Y12075D01*
X5631D01*
X5641Y12076D01*
X5651Y12078D01*
X5661Y12080D01*
X5670Y12083D01*
X5680Y12087D01*
X5688Y12092D01*
X5697Y12097D01*
X5705Y12103D01*
X5713Y12110D01*
X5720Y12117D01*
X5726Y12125D01*
X5732Y12133D01*
X5737Y12142D01*
X5741Y12151D01*
X5745Y12160D01*
X5747Y12170D01*
X5749Y12180D01*
X5751Y12190D01*
X5751Y12200D01*
X5752D01*
X5751D02*
X5751Y12210D01*
X5749Y12220D01*
X5747Y12230D01*
X5745Y12240D01*
X5741Y12249D01*
X5737Y12258D01*
X5732Y12267D01*
X5726Y12275D01*
X5720Y12283D01*
X5713Y12290D01*
X5705Y12297D01*
X5697Y12303D01*
X5688Y12308D01*
X5680Y12313D01*
X5670Y12317D01*
X5661Y12320D01*
X5651Y12322D01*
X5641Y12324D01*
X5631Y12325D01*
X5621D01*
X5611Y12324D01*
X5601Y12322D01*
X5591Y12320D01*
X5582Y12317D01*
X5572Y12313D01*
X5564Y12308D01*
X5555Y12303D01*
X5547Y12297D01*
X5539Y12290D01*
X5532Y12283D01*
X5526Y12275D01*
X5520Y12267D01*
X5515Y12258D01*
X5511Y12249D01*
X5507Y12240D01*
X5505Y12230D01*
X5503Y12220D01*
X5501Y12210D01*
X5501Y12200D01*
X5549D02*
X5550D01*
X5549D02*
X5550Y12191D01*
X5551Y12182D01*
X5554Y12174D01*
X5557Y12165D01*
X5562Y12158D01*
X5567Y12151D01*
X5573Y12144D01*
X5580Y12138D01*
X5588Y12133D01*
X5596Y12129D01*
X5604Y12126D01*
X5613Y12124D01*
X5622Y12123D01*
X5630D01*
X5639Y12124D01*
X5648Y12126D01*
X5656Y12129D01*
X5664Y12133D01*
X5672Y12138D01*
X5679Y12144D01*
X5685Y12151D01*
X5690Y12158D01*
X5695Y12165D01*
X5698Y12174D01*
X5701Y12182D01*
X5702Y12191D01*
X5703Y12200D01*
X5704D01*
X5703D02*
X5702Y12209D01*
X5701Y12218D01*
X5698Y12226D01*
X5695Y12235D01*
X5690Y12242D01*
X5685Y12249D01*
X5679Y12256D01*
X5672Y12262D01*
X5664Y12267D01*
X5656Y12271D01*
X5648Y12274D01*
X5639Y12276D01*
X5630Y12277D01*
X5622D01*
X5613Y12276D01*
X5604Y12274D01*
X5596Y12271D01*
X5588Y12267D01*
X5580Y12262D01*
X5573Y12256D01*
X5567Y12249D01*
X5562Y12242D01*
X5557Y12235D01*
X5554Y12226D01*
X5551Y12218D01*
X5550Y12209D01*
X5549Y12200D01*
X5597D02*
X5598D01*
X5597D02*
X5598Y12194D01*
X5600Y12188D01*
X5603Y12183D01*
X5607Y12178D01*
X5612Y12175D01*
X5617Y12172D01*
X5623Y12171D01*
X5629D01*
X5635Y12172D01*
X5640Y12175D01*
X5645Y12178D01*
X5649Y12183D01*
X5652Y12188D01*
X5654Y12194D01*
X5655Y12200D01*
X5656D01*
X5655D02*
X5654Y12206D01*
X5652Y12212D01*
X5649Y12217D01*
X5645Y12222D01*
X5640Y12225D01*
X5635Y12228D01*
X5629Y12229D01*
X5623D01*
X5617Y12228D01*
X5612Y12225D01*
X5607Y12222D01*
X5603Y12217D01*
X5600Y12212D01*
X5598Y12206D01*
X5597Y12200D01*
X5626D02*
D03*
X7326Y8650D02*
D03*
X7426D02*
D03*
X7376Y8600D02*
D03*
X7426Y8750D02*
D03*
X7326D02*
D03*
X7376Y8800D02*
D03*
X6526Y8650D02*
D03*
X6626D02*
D03*
X6576Y8600D02*
D03*
X6626Y8750D02*
D03*
X6526D02*
D03*
X6576Y8800D02*
D03*
D24*
X7876Y10650D02*
D03*
X7776D02*
D03*
X7826Y10700D02*
D03*
X7876Y10825D02*
D03*
X7776D02*
D03*
X7826Y10875D02*
D03*
X10926Y6600D02*
D03*
X10826D02*
D03*
X10876Y6650D02*
D03*
X10826Y6500D02*
D03*
X10926D02*
D03*
X10876Y6450D02*
D03*
X10826Y7650D02*
D03*
X10726D02*
D03*
X10776Y7700D02*
D03*
X10726Y7550D02*
D03*
X10826D02*
D03*
X10776Y7500D02*
D03*
X10926Y5550D02*
D03*
X10826D02*
D03*
X10876Y5600D02*
D03*
X10826Y5450D02*
D03*
X10926D02*
D03*
X10876Y5400D02*
D03*
X6726Y4400D02*
D03*
X6826D02*
D03*
X6776Y4350D02*
D03*
X8626Y9750D02*
D03*
X8726D02*
D03*
X8676Y9700D02*
D03*
X8626Y9950D02*
D03*
X8726D02*
D03*
X8676Y9900D02*
D03*
X7601Y10025D02*
D03*
X7651Y9975D02*
D03*
X7601Y9925D02*
D03*
X11526Y7550D02*
D03*
X11626D02*
D03*
X11576Y7500D02*
D03*
Y6400D02*
D03*
Y6500D02*
D03*
X11626Y6450D02*
D03*
X11576Y6650D02*
D03*
Y6750D02*
D03*
X11626Y6700D02*
D03*
X11576Y5350D02*
D03*
Y5450D02*
D03*
X11626Y5400D02*
D03*
X11576Y5600D02*
D03*
Y5700D02*
D03*
X11626Y5650D02*
D03*
X11576Y4300D02*
D03*
Y4400D02*
D03*
X11626Y4350D02*
D03*
X11576Y4550D02*
D03*
Y4650D02*
D03*
X11626Y4600D02*
D03*
X10926Y4500D02*
D03*
X10826D02*
D03*
X10876Y4550D02*
D03*
X10826Y4400D02*
D03*
X10926D02*
D03*
X10876Y4350D02*
D03*
X6926Y5550D02*
D03*
X6826D02*
D03*
X6876Y5600D02*
D03*
X6826Y5450D02*
D03*
X6926D02*
D03*
X6876Y5400D02*
D03*
X6926Y6600D02*
D03*
X6826D02*
D03*
X6876Y6650D02*
D03*
X8926Y8650D02*
D03*
X9026D02*
D03*
X8976Y8600D02*
D03*
X9026Y8750D02*
D03*
X8926D02*
D03*
X8976Y8800D02*
D03*
X8126Y8650D02*
D03*
X8226D02*
D03*
X8176Y8600D02*
D03*
X8226Y8750D02*
D03*
X8126D02*
D03*
X8176Y8800D02*
D03*
X6826Y6500D02*
D03*
X6926D02*
D03*
X6876Y6450D02*
D03*
X6826Y4500D02*
D03*
X6726D02*
D03*
X6776Y4550D02*
D03*
X11626Y7650D02*
D03*
X11526D02*
D03*
X11576Y7700D02*
D03*
D27*
X12801Y10025D02*
D03*
Y9900D02*
D03*
X12601Y9750D02*
D03*
X12676Y9800D02*
D03*
X12726Y9625D02*
D03*
Y9725D02*
D03*
X12776Y9825D02*
D03*
X12401Y9125D02*
D03*
X12276Y4400D02*
D03*
X12376Y8825D02*
D03*
X12351Y8500D02*
D03*
Y6175D02*
D03*
X12276Y5975D02*
D03*
Y9625D02*
D03*
X12026Y12275D02*
D03*
X12176Y5000D02*
D03*
X12076Y6825D02*
D03*
X11976Y10300D02*
D03*
X11876Y10250D02*
D03*
X11826Y10025D02*
D03*
X11976Y6425D02*
D03*
X11676Y8450D02*
D03*
Y8100D02*
D03*
X11426Y4050D02*
D03*
X11526Y8700D02*
D03*
X11451Y5550D02*
D03*
X11326Y7050D02*
D03*
X11276Y9575D02*
D03*
X11376D02*
D03*
X11326Y4075D02*
D03*
X11226D02*
D03*
X11326Y4950D02*
D03*
X11376Y5400D02*
D03*
X11226Y6000D02*
D03*
X11176Y9675D02*
D03*
X10876Y6900D02*
D03*
X10926Y7050D02*
D03*
Y4950D02*
D03*
X10901Y8100D02*
D03*
X10876Y4800D02*
D03*
Y5825D02*
D03*
X10926Y8425D02*
D03*
X10826Y8625D02*
D03*
Y6000D02*
D03*
X10676Y5575D02*
D03*
X10476Y8100D02*
D03*
X10551Y5550D02*
D03*
X10601Y5300D02*
D03*
Y7600D02*
D03*
X10476Y6600D02*
D03*
X10426Y4950D02*
D03*
Y6000D02*
D03*
Y5375D02*
D03*
Y7050D02*
D03*
X10126Y12175D02*
D03*
Y8675D02*
D03*
X9826Y7550D02*
D03*
X9726Y4950D02*
D03*
X9676Y9175D02*
D03*
X9826Y6550D02*
D03*
X9726Y6000D02*
D03*
Y7050D02*
D03*
X9626Y5475D02*
D03*
X9526D02*
D03*
X9626Y8100D02*
D03*
Y12400D02*
D03*
X9576Y12125D02*
D03*
X9626Y4950D02*
D03*
Y8675D02*
D03*
X9576Y9175D02*
D03*
X9626Y6000D02*
D03*
Y7050D02*
D03*
X9326Y12200D02*
D03*
Y7600D02*
D03*
X9076Y5550D02*
D03*
X9226Y9200D02*
D03*
X9026D02*
D03*
X8801Y9475D02*
D03*
X8826Y5400D02*
D03*
Y9850D02*
D03*
Y4950D02*
D03*
X8726Y7550D02*
D03*
X8826Y6000D02*
D03*
X8776Y7050D02*
D03*
X8876D02*
D03*
X8526Y9500D02*
D03*
X8626Y8100D02*
D03*
X8526Y9875D02*
D03*
X8626Y6475D02*
D03*
X8551Y9950D02*
D03*
X8326Y10825D02*
D03*
Y5450D02*
D03*
X8176Y7500D02*
D03*
X8226Y9200D02*
D03*
Y4950D02*
D03*
X8126Y9500D02*
D03*
Y6600D02*
D03*
X7926Y6625D02*
D03*
X8076Y7050D02*
D03*
X7926Y4500D02*
D03*
X7976Y10750D02*
D03*
X8076Y7675D02*
D03*
X7926Y5575D02*
D03*
X7976Y7050D02*
D03*
X7726Y8100D02*
D03*
X7826Y6625D02*
D03*
Y9650D02*
D03*
X7726D02*
D03*
X7826Y4500D02*
D03*
Y5575D02*
D03*
X7726Y9500D02*
D03*
X7526Y4200D02*
D03*
X7576Y10575D02*
D03*
X7626Y4475D02*
D03*
Y5500D02*
D03*
Y6550D02*
D03*
X7576Y6000D02*
D03*
X7551Y5475D02*
D03*
X7476Y6700D02*
D03*
X7426Y9200D02*
D03*
X7326Y5500D02*
D03*
X7426Y4950D02*
D03*
X7451Y5425D02*
D03*
X7376Y5625D02*
D03*
X7326Y6550D02*
D03*
X7401Y6375D02*
D03*
X7426Y7050D02*
D03*
X7276Y8400D02*
D03*
X6951Y8725D02*
D03*
X6926Y4950D02*
D03*
Y7050D02*
D03*
X6876Y5850D02*
D03*
X6751Y8450D02*
D03*
X6626Y5525D02*
D03*
X6601Y9775D02*
D03*
X6626Y9200D02*
D03*
X6526Y5600D02*
D03*
X6501Y9875D02*
D03*
X6401Y9775D02*
D03*
X6376Y12150D02*
D03*
X6426Y4950D02*
D03*
X6476Y5925D02*
D03*
X6526Y7050D02*
D03*
X6176Y9175D02*
D03*
X6276Y9125D02*
D03*
X6301Y12275D02*
D03*
X6326Y6000D02*
D03*
X6051Y4200D02*
D03*
X6101Y5400D02*
D03*
X6051Y5650D02*
D03*
Y5250D02*
D03*
X6026Y12225D02*
D03*
X6076Y4450D02*
D03*
X5976Y4400D02*
D03*
X6001Y5450D02*
D03*
X6076Y6575D02*
D03*
Y7675D02*
D03*
X5751Y9850D02*
D03*
X5801Y9775D02*
D03*
X5826Y4050D02*
D03*
X5926D02*
D03*
X5876Y4350D02*
D03*
X5926Y5400D02*
D03*
X5876Y5475D02*
D03*
X5851Y5575D02*
D03*
X5876Y6525D02*
D03*
X5901Y6275D02*
D03*
X5926Y6200D02*
D03*
X5801Y4250D02*
D03*
X5926Y7500D02*
D03*
X5726Y10475D02*
D03*
X5576Y10300D02*
D03*
X5651Y10250D02*
D03*
X5701Y9925D02*
D03*
X5576Y6500D02*
D03*
X5501Y7950D02*
D03*
Y6550D02*
D03*
X5451Y6650D02*
D03*
X5476Y10025D02*
D03*
X9426Y10550D02*
D03*
Y10950D02*
D03*
X10626Y9900D02*
D03*
Y9500D02*
D03*
X8026Y7400D02*
D03*
Y7800D02*
D03*
X12226Y4750D02*
D03*
Y5150D02*
D03*
X10826Y6800D02*
D03*
Y7200D02*
D03*
X10926D02*
D03*
Y6800D02*
D03*
X12651Y8350D02*
D03*
X12751Y8450D02*
D03*
X12651D02*
D03*
X12751Y8550D02*
D03*
X12651D02*
D03*
X12751Y8650D02*
D03*
X12651D02*
D03*
X12751Y8750D02*
D03*
X12651D02*
D03*
X12751Y8850D02*
D03*
X12651D02*
D03*
X12751Y8950D02*
D03*
X12651D02*
D03*
X12751Y9050D02*
D03*
X12651D02*
D03*
X12751Y9150D02*
D03*
X12651D02*
D03*
X12751Y9250D02*
D03*
X12651D02*
D03*
X8626Y10100D02*
D03*
Y10400D02*
D03*
X8326Y10100D02*
D03*
X8426D02*
D03*
X8526D02*
D03*
Y10400D02*
D03*
X8426D02*
D03*
X8326D02*
D03*
X8226D02*
D03*
X8126D02*
D03*
Y10100D02*
D03*
X8526Y10950D02*
D03*
Y10550D02*
D03*
X8426D02*
D03*
Y10950D02*
D03*
X8326Y10550D02*
D03*
Y10950D02*
D03*
X7676Y10550D02*
D03*
Y10950D02*
D03*
X7026Y8500D02*
D03*
Y8900D02*
D03*
X6926Y8500D02*
D03*
Y8900D02*
D03*
X5601Y9725D02*
D03*
X5501Y9625D02*
D03*
X5601D02*
D03*
X5501Y9525D02*
D03*
X5601D02*
D03*
X5501Y9425D02*
D03*
X5601D02*
D03*
X5501Y9325D02*
D03*
X5601D02*
D03*
X5501Y9225D02*
D03*
X5601D02*
D03*
X5501Y9125D02*
D03*
X5601D02*
D03*
X5501Y9025D02*
D03*
X5601D02*
D03*
X5501Y8925D02*
D03*
X5601D02*
D03*
X5501Y8825D02*
D03*
X5601D02*
D03*
X8226Y12225D02*
D03*
X8126Y12325D02*
D03*
Y12225D02*
D03*
X8026Y12325D02*
D03*
Y12225D02*
D03*
X7926Y12325D02*
D03*
Y12225D02*
D03*
X7826Y12325D02*
D03*
Y12225D02*
D03*
X7726Y12325D02*
D03*
Y12225D02*
D03*
X7626Y12325D02*
D03*
Y12225D02*
D03*
X7526Y12325D02*
D03*
Y12225D02*
D03*
X7426Y12325D02*
D03*
Y12225D02*
D03*
X7326Y12325D02*
D03*
Y12225D02*
D03*
X5926Y11400D02*
D03*
Y11100D02*
D03*
X7326Y11550D02*
D03*
Y11950D02*
D03*
X11026Y6500D02*
D03*
Y6600D02*
D03*
X10726Y11550D02*
D03*
Y11950D02*
D03*
X11326Y7400D02*
D03*
Y7800D02*
D03*
X11126Y5300D02*
D03*
Y5700D02*
D03*
X9926Y6350D02*
D03*
Y6750D02*
D03*
X10126D02*
D03*
Y6350D02*
D03*
X9926Y5300D02*
D03*
Y5700D02*
D03*
X10126D02*
D03*
Y5300D02*
D03*
X10026Y4650D02*
D03*
Y4250D02*
D03*
X10426Y4650D02*
D03*
Y4150D02*
D03*
X9826Y4650D02*
D03*
Y4250D02*
D03*
X5601Y6175D02*
D03*
X5501Y6075D02*
D03*
X5601D02*
D03*
X5501Y5975D02*
D03*
X5601D02*
D03*
X5501Y5875D02*
D03*
X5601D02*
D03*
X5501Y5775D02*
D03*
X5601D02*
D03*
X5501Y5675D02*
D03*
X5601D02*
D03*
X5501Y5575D02*
D03*
X5601D02*
D03*
X5501Y5475D02*
D03*
X5601D02*
D03*
X5501Y5375D02*
D03*
X5601D02*
D03*
X5501Y5275D02*
D03*
X5601D02*
D03*
X10626Y7400D02*
D03*
Y7800D02*
D03*
X11426Y7400D02*
D03*
Y7800D02*
D03*
X11026Y5475D02*
D03*
Y5575D02*
D03*
Y4625D02*
D03*
Y4525D02*
D03*
X9426Y11950D02*
D03*
Y11550D02*
D03*
X9526Y11950D02*
D03*
Y11550D02*
D03*
X12326Y11950D02*
D03*
Y11550D02*
D03*
X8026Y5100D02*
D03*
Y4800D02*
D03*
X11576Y12225D02*
D03*
X11476Y12325D02*
D03*
Y12225D02*
D03*
X11376Y12325D02*
D03*
Y12225D02*
D03*
X11276Y12325D02*
D03*
Y12225D02*
D03*
X11176Y12325D02*
D03*
Y12225D02*
D03*
X11076Y12325D02*
D03*
Y12225D02*
D03*
X10976Y12325D02*
D03*
Y12225D02*
D03*
X10876Y12325D02*
D03*
Y12225D02*
D03*
X10776Y12325D02*
D03*
Y12225D02*
D03*
X10676Y12325D02*
D03*
Y12225D02*
D03*
X6526Y5300D02*
D03*
Y5700D02*
D03*
X6426Y5300D02*
D03*
Y5700D02*
D03*
X7226Y5300D02*
D03*
Y5700D02*
D03*
X7126D02*
D03*
Y5300D02*
D03*
X7026Y5700D02*
D03*
Y5300D02*
D03*
X8226D02*
D03*
Y5700D02*
D03*
X9426Y5300D02*
D03*
Y5700D02*
D03*
X11226Y5300D02*
D03*
Y5700D02*
D03*
X12126Y5300D02*
D03*
Y5700D02*
D03*
X11626Y5100D02*
D03*
Y4800D02*
D03*
X10326Y7800D02*
D03*
Y7400D02*
D03*
X11826Y9900D02*
D03*
Y9500D02*
D03*
X9126Y7400D02*
D03*
Y7800D02*
D03*
X8826Y7400D02*
D03*
Y7800D02*
D03*
X9526Y4250D02*
D03*
Y4650D02*
D03*
X9626D02*
D03*
Y4250D02*
D03*
X7951Y10175D02*
D03*
Y9775D02*
D03*
X7851Y10175D02*
D03*
Y9775D02*
D03*
X7751Y10175D02*
D03*
Y9775D02*
D03*
X6176Y7400D02*
D03*
Y7800D02*
D03*
X6401Y9550D02*
D03*
Y9950D02*
D03*
X6501Y9550D02*
D03*
Y9950D02*
D03*
X6601Y9550D02*
D03*
Y9950D02*
D03*
X6701Y9550D02*
D03*
Y9950D02*
D03*
X5876Y8250D02*
D03*
Y7950D02*
D03*
X6376D02*
D03*
Y8250D02*
D03*
X6076Y7950D02*
D03*
X6176D02*
D03*
X6276D02*
D03*
Y8250D02*
D03*
X6176D02*
D03*
X6076D02*
D03*
X5976D02*
D03*
X6401Y10400D02*
D03*
Y10100D02*
D03*
X6901D02*
D03*
Y10400D02*
D03*
X6601Y10100D02*
D03*
X6701D02*
D03*
X6801D02*
D03*
Y10400D02*
D03*
X6701D02*
D03*
X6601D02*
D03*
X6501D02*
D03*
X9826Y10550D02*
D03*
Y10950D02*
D03*
X9726Y10550D02*
D03*
Y10950D02*
D03*
X9626Y10550D02*
D03*
Y10950D02*
D03*
X9526Y10550D02*
D03*
Y10950D02*
D03*
X9326Y10550D02*
D03*
Y10950D02*
D03*
X9226Y10550D02*
D03*
Y10950D02*
D03*
Y11400D02*
D03*
Y11100D02*
D03*
X9726D02*
D03*
Y11400D02*
D03*
X9426Y11100D02*
D03*
X9526D02*
D03*
X9626D02*
D03*
Y11400D02*
D03*
X9526D02*
D03*
X9426D02*
D03*
X9326D02*
D03*
X10026Y10550D02*
D03*
Y10950D02*
D03*
X9926Y10550D02*
D03*
Y10950D02*
D03*
X10426Y11950D02*
D03*
Y11550D02*
D03*
X10326Y11950D02*
D03*
Y11550D02*
D03*
X10226Y11950D02*
D03*
Y11550D02*
D03*
X10126D02*
D03*
Y11950D02*
D03*
X10026Y11550D02*
D03*
Y11950D02*
D03*
X9926Y11550D02*
D03*
Y11950D02*
D03*
X9826D02*
D03*
Y11550D02*
D03*
X10726Y10550D02*
D03*
Y10950D02*
D03*
X10626Y10550D02*
D03*
Y10950D02*
D03*
X11126Y11950D02*
D03*
Y11550D02*
D03*
X11026Y11950D02*
D03*
Y11550D02*
D03*
X10926Y11950D02*
D03*
Y11550D02*
D03*
X10826D02*
D03*
Y11950D02*
D03*
X10626Y11550D02*
D03*
Y11950D02*
D03*
X10526D02*
D03*
Y11550D02*
D03*
X11426Y10550D02*
D03*
Y10950D02*
D03*
X11326Y10550D02*
D03*
Y10950D02*
D03*
X11826Y11950D02*
D03*
Y11550D02*
D03*
X11726Y11950D02*
D03*
Y11550D02*
D03*
X11626Y11950D02*
D03*
Y11550D02*
D03*
X11526D02*
D03*
Y11950D02*
D03*
X11426Y11550D02*
D03*
Y11950D02*
D03*
X11326Y11550D02*
D03*
Y11950D02*
D03*
X11226D02*
D03*
Y11550D02*
D03*
X12526Y11950D02*
D03*
Y11550D02*
D03*
X12426Y11950D02*
D03*
Y11550D02*
D03*
X12226D02*
D03*
Y11950D02*
D03*
X12126Y11550D02*
D03*
Y11950D02*
D03*
X12026Y11550D02*
D03*
Y11950D02*
D03*
X11926D02*
D03*
Y11550D02*
D03*
X11526Y9500D02*
D03*
Y9900D02*
D03*
X11726D02*
D03*
Y9500D02*
D03*
X11626Y9900D02*
D03*
Y9500D02*
D03*
X11226D02*
D03*
Y9900D02*
D03*
X8826Y11100D02*
D03*
X8926D02*
D03*
X9026D02*
D03*
Y11400D02*
D03*
X8926D02*
D03*
X8826D02*
D03*
X8726D02*
D03*
X9126Y11100D02*
D03*
Y11400D02*
D03*
X9326Y9050D02*
D03*
X9426D02*
D03*
X9526D02*
D03*
Y9350D02*
D03*
X9426D02*
D03*
X9326D02*
D03*
X9226D02*
D03*
X10026Y9050D02*
D03*
X10126D02*
D03*
X10226D02*
D03*
Y9350D02*
D03*
X10126D02*
D03*
X10026D02*
D03*
X9926D02*
D03*
X10726Y9050D02*
D03*
X10826D02*
D03*
X10926D02*
D03*
Y9350D02*
D03*
X10826D02*
D03*
X10726D02*
D03*
X10626D02*
D03*
X11426Y9050D02*
D03*
X11526D02*
D03*
X11626D02*
D03*
Y9350D02*
D03*
X11526D02*
D03*
X11426D02*
D03*
X11326D02*
D03*
X12226Y9500D02*
D03*
Y9900D02*
D03*
X12426D02*
D03*
Y9500D02*
D03*
X11926D02*
D03*
Y9900D02*
D03*
X12526D02*
D03*
Y9500D02*
D03*
X12326Y9900D02*
D03*
Y9500D02*
D03*
X12026Y8500D02*
D03*
Y8900D02*
D03*
X6426Y11100D02*
D03*
Y11400D02*
D03*
X6526D02*
D03*
Y11100D02*
D03*
X7026D02*
D03*
Y11400D02*
D03*
X7226D02*
D03*
Y11100D02*
D03*
X7726D02*
D03*
Y11400D02*
D03*
X7926D02*
D03*
Y11100D02*
D03*
X8426D02*
D03*
Y11400D02*
D03*
X8626D02*
D03*
Y11100D02*
D03*
X6126D02*
D03*
X6226D02*
D03*
X6326D02*
D03*
Y11400D02*
D03*
X6226D02*
D03*
X6126D02*
D03*
X6026D02*
D03*
X6726Y11100D02*
D03*
X6826D02*
D03*
X6926D02*
D03*
Y11400D02*
D03*
X6826D02*
D03*
X6726D02*
D03*
X6626D02*
D03*
X7426Y11100D02*
D03*
X7526D02*
D03*
X7626D02*
D03*
Y11400D02*
D03*
X7526D02*
D03*
X7426D02*
D03*
X7326D02*
D03*
X8126Y11100D02*
D03*
X8226D02*
D03*
X8326D02*
D03*
Y11400D02*
D03*
X8226D02*
D03*
X8126D02*
D03*
X8026D02*
D03*
X9126Y9350D02*
D03*
Y9050D02*
D03*
X9826Y9350D02*
D03*
Y9050D02*
D03*
X9626D02*
D03*
Y9350D02*
D03*
X10326Y9050D02*
D03*
Y9350D02*
D03*
X10526D02*
D03*
Y9050D02*
D03*
X11026D02*
D03*
Y9350D02*
D03*
X11226D02*
D03*
Y9050D02*
D03*
X11726D02*
D03*
Y9350D02*
D03*
X12126Y9050D02*
D03*
X12226D02*
D03*
X12326D02*
D03*
Y9350D02*
D03*
X12226D02*
D03*
X12126D02*
D03*
X12026D02*
D03*
X12126Y8500D02*
D03*
Y8900D02*
D03*
X11926Y9350D02*
D03*
Y9050D02*
D03*
X12426D02*
D03*
Y9350D02*
D03*
X8026Y9050D02*
D03*
Y9350D02*
D03*
X7726Y9050D02*
D03*
X7826D02*
D03*
X7926D02*
D03*
Y9350D02*
D03*
X7826D02*
D03*
X7726D02*
D03*
X7626D02*
D03*
X7526D02*
D03*
Y9050D02*
D03*
X8326Y9350D02*
D03*
Y9050D02*
D03*
X9826Y7400D02*
D03*
Y7800D02*
D03*
X11826D02*
D03*
Y7400D02*
D03*
X12126D02*
D03*
Y7800D02*
D03*
X11926Y7400D02*
D03*
Y7800D02*
D03*
X12026Y7950D02*
D03*
X12126D02*
D03*
X12226D02*
D03*
Y8250D02*
D03*
X12126D02*
D03*
X12026D02*
D03*
X11926D02*
D03*
X11826D02*
D03*
Y7950D02*
D03*
X11026Y7800D02*
D03*
Y7400D02*
D03*
X11126D02*
D03*
Y7800D02*
D03*
X11526Y7950D02*
D03*
Y8250D02*
D03*
X11026D02*
D03*
Y7950D02*
D03*
X11226D02*
D03*
X11326D02*
D03*
X11426D02*
D03*
Y8250D02*
D03*
X11326D02*
D03*
X11226D02*
D03*
X11126D02*
D03*
X10726Y7950D02*
D03*
Y8250D02*
D03*
X8526Y9050D02*
D03*
X8626D02*
D03*
X8726D02*
D03*
Y9350D02*
D03*
X8626D02*
D03*
X8526D02*
D03*
X8426D02*
D03*
X8826Y9050D02*
D03*
Y9350D02*
D03*
X8226Y8250D02*
D03*
Y7950D02*
D03*
X5976Y6750D02*
D03*
Y6350D02*
D03*
X6076Y7050D02*
D03*
X5976Y7150D02*
D03*
Y6950D02*
D03*
X6526Y6350D02*
D03*
Y6750D02*
D03*
X6426Y6350D02*
D03*
Y6750D02*
D03*
X6326Y6350D02*
D03*
Y6750D02*
D03*
X6226Y7200D02*
D03*
Y6900D02*
D03*
X7026Y7200D02*
D03*
Y6900D02*
D03*
X6726D02*
D03*
Y7200D02*
D03*
X6426Y6900D02*
D03*
X6526D02*
D03*
X6626D02*
D03*
Y7200D02*
D03*
X6526D02*
D03*
X6426D02*
D03*
X6326D02*
D03*
X5976Y5700D02*
D03*
Y5300D02*
D03*
X6076Y6000D02*
D03*
X5976Y6100D02*
D03*
Y5900D02*
D03*
X6626Y5300D02*
D03*
Y5700D02*
D03*
X6326Y5300D02*
D03*
Y5700D02*
D03*
X6226Y6150D02*
D03*
Y5850D02*
D03*
X7026Y6150D02*
D03*
Y5850D02*
D03*
X6726D02*
D03*
Y6150D02*
D03*
X6426Y5850D02*
D03*
X6526D02*
D03*
X6626D02*
D03*
Y6150D02*
D03*
X6526D02*
D03*
X6426D02*
D03*
X6326D02*
D03*
X6076Y4950D02*
D03*
X5976Y5050D02*
D03*
Y4850D02*
D03*
Y4650D02*
D03*
Y4250D02*
D03*
X6226Y5100D02*
D03*
Y4800D02*
D03*
X6726D02*
D03*
Y5100D02*
D03*
X7026D02*
D03*
Y4800D02*
D03*
X6626Y4250D02*
D03*
Y4650D02*
D03*
X6526Y4250D02*
D03*
Y4650D02*
D03*
X6326Y4250D02*
D03*
Y4650D02*
D03*
X6426Y4250D02*
D03*
Y4650D02*
D03*
Y4800D02*
D03*
X6526D02*
D03*
X6626D02*
D03*
Y5100D02*
D03*
X6526D02*
D03*
X6426D02*
D03*
X6326D02*
D03*
X12526Y6350D02*
D03*
Y6750D02*
D03*
X12326D02*
D03*
Y6350D02*
D03*
X12226Y6750D02*
D03*
Y6350D02*
D03*
X12126Y6750D02*
D03*
Y6350D02*
D03*
X12026Y6750D02*
D03*
Y6350D02*
D03*
X11926D02*
D03*
Y6750D02*
D03*
X11826D02*
D03*
Y6350D02*
D03*
X11726D02*
D03*
Y6750D02*
D03*
X12526Y7050D02*
D03*
X12426Y7150D02*
D03*
Y6950D02*
D03*
X11526Y6900D02*
D03*
Y7200D02*
D03*
X12126Y6900D02*
D03*
Y7200D02*
D03*
X11626D02*
D03*
Y6900D02*
D03*
X11826D02*
D03*
X11926D02*
D03*
X12026D02*
D03*
Y7200D02*
D03*
X11926D02*
D03*
X11826D02*
D03*
X11726D02*
D03*
X12526Y5300D02*
D03*
Y5700D02*
D03*
X12426D02*
D03*
Y5300D02*
D03*
X12326Y5700D02*
D03*
Y5300D02*
D03*
X12226Y5700D02*
D03*
Y5300D02*
D03*
X12026Y5700D02*
D03*
Y5300D02*
D03*
X11926Y5700D02*
D03*
Y5300D02*
D03*
X11826Y5700D02*
D03*
Y5300D02*
D03*
X11726D02*
D03*
Y5700D02*
D03*
X12526Y6000D02*
D03*
X12426Y6100D02*
D03*
Y5900D02*
D03*
X11526Y5850D02*
D03*
Y6150D02*
D03*
X12126Y5850D02*
D03*
Y6150D02*
D03*
X11626D02*
D03*
Y5850D02*
D03*
X11826D02*
D03*
X11926D02*
D03*
X12026D02*
D03*
Y6150D02*
D03*
X11926D02*
D03*
X11826D02*
D03*
X11726D02*
D03*
X12226Y4250D02*
D03*
Y4650D02*
D03*
X12126D02*
D03*
Y4250D02*
D03*
X12026Y4650D02*
D03*
Y4250D02*
D03*
X11726D02*
D03*
Y4650D02*
D03*
X11826D02*
D03*
Y4250D02*
D03*
X11926D02*
D03*
Y4650D02*
D03*
X12126Y4800D02*
D03*
Y5100D02*
D03*
X11526Y4800D02*
D03*
Y5100D02*
D03*
X11826Y4800D02*
D03*
X11926D02*
D03*
X12026D02*
D03*
Y5100D02*
D03*
X11926D02*
D03*
X11826D02*
D03*
X11726D02*
D03*
X10726Y6750D02*
D03*
Y6350D02*
D03*
X11126D02*
D03*
Y6750D02*
D03*
X11426Y6350D02*
D03*
Y6750D02*
D03*
X11326Y6350D02*
D03*
Y6750D02*
D03*
X10726Y6900D02*
D03*
Y7200D02*
D03*
X11026D02*
D03*
Y6900D02*
D03*
X11226D02*
D03*
X11326D02*
D03*
X11426D02*
D03*
Y7200D02*
D03*
X11326D02*
D03*
X11226D02*
D03*
X11126D02*
D03*
X10726Y5300D02*
D03*
Y5700D02*
D03*
X11026Y6150D02*
D03*
Y5850D02*
D03*
X10726D02*
D03*
Y6150D02*
D03*
X11426Y5300D02*
D03*
Y5700D02*
D03*
X11326Y5300D02*
D03*
Y5700D02*
D03*
X11226Y5850D02*
D03*
X11326D02*
D03*
X11426D02*
D03*
Y6150D02*
D03*
X11326D02*
D03*
X11226D02*
D03*
X11126D02*
D03*
X11026Y5100D02*
D03*
Y4800D02*
D03*
X10726D02*
D03*
Y5100D02*
D03*
Y4250D02*
D03*
Y4650D02*
D03*
X11126Y4250D02*
D03*
Y4650D02*
D03*
X11426Y4250D02*
D03*
Y4650D02*
D03*
X11226Y4800D02*
D03*
X11326D02*
D03*
X11426D02*
D03*
Y5100D02*
D03*
X11326D02*
D03*
X11226D02*
D03*
X11126D02*
D03*
X9826Y6750D02*
D03*
Y6350D02*
D03*
X10226Y6750D02*
D03*
Y6350D02*
D03*
X9626Y6750D02*
D03*
Y6350D02*
D03*
X9226Y6750D02*
D03*
Y6350D02*
D03*
X9326D02*
D03*
Y6750D02*
D03*
X9426Y6350D02*
D03*
Y6750D02*
D03*
X9526Y6350D02*
D03*
Y6750D02*
D03*
X8826D02*
D03*
Y6250D02*
D03*
X7926Y6750D02*
D03*
Y6350D02*
D03*
X7726Y6750D02*
D03*
Y6350D02*
D03*
X7826D02*
D03*
Y6750D02*
D03*
X8626D02*
D03*
Y6350D02*
D03*
X8526Y6750D02*
D03*
Y6350D02*
D03*
X8126Y6750D02*
D03*
Y6350D02*
D03*
X8326Y6750D02*
D03*
Y6350D02*
D03*
X8226D02*
D03*
Y6750D02*
D03*
X7326D02*
D03*
Y6350D02*
D03*
X7026Y6750D02*
D03*
Y6350D02*
D03*
X10126Y6900D02*
D03*
Y7200D02*
D03*
X9126Y6900D02*
D03*
Y7200D02*
D03*
X10226D02*
D03*
Y6900D02*
D03*
X9226Y7200D02*
D03*
Y6900D02*
D03*
X8526D02*
D03*
Y7200D02*
D03*
X8626D02*
D03*
Y6900D02*
D03*
X7926D02*
D03*
Y7200D02*
D03*
X8026D02*
D03*
Y6900D02*
D03*
X10426D02*
D03*
X10526D02*
D03*
X10626D02*
D03*
Y7200D02*
D03*
X10526D02*
D03*
X10426D02*
D03*
X10326D02*
D03*
X9426Y6900D02*
D03*
X9526D02*
D03*
X9626D02*
D03*
X9726D02*
D03*
X9826D02*
D03*
X9926D02*
D03*
X10026D02*
D03*
Y7200D02*
D03*
X9926D02*
D03*
X9826D02*
D03*
X9726D02*
D03*
X9626D02*
D03*
X9526D02*
D03*
X9426D02*
D03*
X9326D02*
D03*
X8826Y6900D02*
D03*
X8926D02*
D03*
X9026D02*
D03*
Y7200D02*
D03*
X8926D02*
D03*
X8826D02*
D03*
X8726D02*
D03*
X8226Y6900D02*
D03*
X8326D02*
D03*
X8426D02*
D03*
Y7200D02*
D03*
X8326D02*
D03*
X8226D02*
D03*
X8126D02*
D03*
X7226Y6900D02*
D03*
X7326D02*
D03*
X7426D02*
D03*
X7526D02*
D03*
X7626D02*
D03*
X7726D02*
D03*
X7826D02*
D03*
Y7200D02*
D03*
X7726D02*
D03*
X7626D02*
D03*
X7526D02*
D03*
X7426D02*
D03*
X7326D02*
D03*
X7226D02*
D03*
X7126D02*
D03*
Y6750D02*
D03*
Y6350D02*
D03*
X9826Y5700D02*
D03*
Y5300D02*
D03*
X10226Y5700D02*
D03*
Y5300D02*
D03*
X9226Y5700D02*
D03*
Y5300D02*
D03*
X10026Y5700D02*
D03*
Y5300D02*
D03*
X9326D02*
D03*
Y5700D02*
D03*
X9626D02*
D03*
Y5300D02*
D03*
X9526D02*
D03*
Y5700D02*
D03*
X8626D02*
D03*
Y5300D02*
D03*
X8526Y5700D02*
D03*
Y5300D02*
D03*
X8426Y5700D02*
D03*
Y5300D02*
D03*
X8126Y5700D02*
D03*
Y5300D02*
D03*
X8326Y5700D02*
D03*
Y5300D02*
D03*
X7926Y5700D02*
D03*
Y5300D02*
D03*
X7726Y5700D02*
D03*
Y5300D02*
D03*
X7826D02*
D03*
Y5700D02*
D03*
X7326D02*
D03*
Y5300D02*
D03*
X10426Y5700D02*
D03*
Y5200D02*
D03*
X8826Y5700D02*
D03*
Y5200D02*
D03*
X10126Y5850D02*
D03*
Y6150D02*
D03*
X10226D02*
D03*
Y5850D02*
D03*
X9126D02*
D03*
Y6150D02*
D03*
X9226D02*
D03*
Y5850D02*
D03*
X8626Y6150D02*
D03*
Y5850D02*
D03*
X8526D02*
D03*
Y6150D02*
D03*
X7926Y5850D02*
D03*
Y6150D02*
D03*
X8026D02*
D03*
Y5850D02*
D03*
X10426D02*
D03*
X10526D02*
D03*
X10626D02*
D03*
Y6150D02*
D03*
X10526D02*
D03*
X10426D02*
D03*
X10326D02*
D03*
X8826Y5850D02*
D03*
X8926D02*
D03*
X9026D02*
D03*
Y6150D02*
D03*
X8926D02*
D03*
X8826D02*
D03*
X8726D02*
D03*
X8226Y5850D02*
D03*
X8326D02*
D03*
X8426D02*
D03*
Y6150D02*
D03*
X8326D02*
D03*
X8226D02*
D03*
X8126D02*
D03*
X7226Y5850D02*
D03*
X7326D02*
D03*
X7426D02*
D03*
X7526D02*
D03*
X7626D02*
D03*
X7726D02*
D03*
X7826D02*
D03*
Y6150D02*
D03*
X7726D02*
D03*
X7626D02*
D03*
X7526D02*
D03*
X7426D02*
D03*
X7326D02*
D03*
X7226D02*
D03*
X7126D02*
D03*
X8226Y4800D02*
D03*
X8326D02*
D03*
X8426D02*
D03*
Y5100D02*
D03*
X8326D02*
D03*
X8226D02*
D03*
X8126D02*
D03*
X8826Y4800D02*
D03*
X8926D02*
D03*
X9026D02*
D03*
Y5100D02*
D03*
X8926D02*
D03*
X8826D02*
D03*
X8726D02*
D03*
X9426Y4800D02*
D03*
X9526D02*
D03*
X9626D02*
D03*
X9726D02*
D03*
X9826D02*
D03*
X9926D02*
D03*
X10026D02*
D03*
Y5100D02*
D03*
X9926D02*
D03*
X9826D02*
D03*
X9726D02*
D03*
X9626D02*
D03*
X9526D02*
D03*
X9426D02*
D03*
X9326D02*
D03*
X10426Y4800D02*
D03*
X10526D02*
D03*
X10626D02*
D03*
Y5100D02*
D03*
X10526D02*
D03*
X10426D02*
D03*
X10326D02*
D03*
X8826Y4650D02*
D03*
Y4150D02*
D03*
X8126Y4650D02*
D03*
Y4250D02*
D03*
X8426Y4650D02*
D03*
Y4250D02*
D03*
X8526Y4650D02*
D03*
Y4250D02*
D03*
X8626Y4650D02*
D03*
Y4250D02*
D03*
X9426D02*
D03*
Y4650D02*
D03*
X9326Y4250D02*
D03*
Y4650D02*
D03*
X9226D02*
D03*
Y4250D02*
D03*
X7226Y4800D02*
D03*
X7326D02*
D03*
X7426D02*
D03*
X7526D02*
D03*
X7626D02*
D03*
X7726D02*
D03*
X7826D02*
D03*
Y5100D02*
D03*
X7726D02*
D03*
X7626D02*
D03*
X7526D02*
D03*
X7426D02*
D03*
X7326D02*
D03*
X7226D02*
D03*
X7126D02*
D03*
X7226Y4250D02*
D03*
Y4650D02*
D03*
X7126D02*
D03*
Y4250D02*
D03*
X7326Y4650D02*
D03*
Y4250D02*
D03*
X7826D02*
D03*
Y4650D02*
D03*
X7726D02*
D03*
Y4250D02*
D03*
X7926Y4650D02*
D03*
Y4250D02*
D03*
X8526Y4800D02*
D03*
Y5100D02*
D03*
X8626D02*
D03*
Y4800D02*
D03*
X7926D02*
D03*
Y5100D02*
D03*
X9226D02*
D03*
Y4800D02*
D03*
X9126D02*
D03*
Y5100D02*
D03*
X10226D02*
D03*
Y4800D02*
D03*
X10126D02*
D03*
Y5100D02*
D03*
X8426Y7950D02*
D03*
X8526D02*
D03*
X8626D02*
D03*
X8726D02*
D03*
X8826D02*
D03*
X8926D02*
D03*
X9026D02*
D03*
Y8250D02*
D03*
X8926D02*
D03*
X8826D02*
D03*
X8726D02*
D03*
X8626D02*
D03*
X8526D02*
D03*
X8426D02*
D03*
X8326D02*
D03*
X9426Y7950D02*
D03*
X9526D02*
D03*
X9626D02*
D03*
X9726D02*
D03*
X9826D02*
D03*
X9926D02*
D03*
X10026D02*
D03*
Y8250D02*
D03*
X9926D02*
D03*
X9826D02*
D03*
X9726D02*
D03*
X9626D02*
D03*
X9526D02*
D03*
X9426D02*
D03*
X9326D02*
D03*
X10426Y7950D02*
D03*
X10526D02*
D03*
X10626D02*
D03*
Y8250D02*
D03*
X10526D02*
D03*
X10426D02*
D03*
X10326D02*
D03*
X9226D02*
D03*
Y7950D02*
D03*
X9126D02*
D03*
Y8250D02*
D03*
X10226D02*
D03*
Y7950D02*
D03*
X10126D02*
D03*
Y8250D02*
D03*
X8226Y7400D02*
D03*
Y7800D02*
D03*
X8526Y7400D02*
D03*
Y7800D02*
D03*
X9026Y7400D02*
D03*
Y7800D02*
D03*
X8326Y7400D02*
D03*
Y7800D02*
D03*
X8926Y7400D02*
D03*
Y7800D02*
D03*
X10026Y7400D02*
D03*
Y7800D02*
D03*
X10126Y7400D02*
D03*
Y7800D02*
D03*
X9326Y7400D02*
D03*
Y7800D02*
D03*
X9426Y7400D02*
D03*
Y7800D02*
D03*
X9226Y7400D02*
D03*
Y7800D02*
D03*
X9526Y7400D02*
D03*
Y7800D02*
D03*
X10426D02*
D03*
Y7400D02*
D03*
X10526Y7550D02*
D03*
Y7650D02*
D03*
X11026Y9900D02*
D03*
Y9500D02*
D03*
X10526D02*
D03*
Y9900D02*
D03*
X10826Y9500D02*
D03*
Y9900D02*
D03*
X10926D02*
D03*
Y9500D02*
D03*
X11126Y9900D02*
D03*
Y9500D02*
D03*
X9926Y9900D02*
D03*
Y9500D02*
D03*
X9826D02*
D03*
Y9900D02*
D03*
X10226D02*
D03*
Y9500D02*
D03*
X10126D02*
D03*
Y9900D02*
D03*
X10326D02*
D03*
Y9500D02*
D03*
X10026D02*
D03*
Y9900D02*
D03*
X10426D02*
D03*
Y9500D02*
D03*
X11326Y8500D02*
D03*
Y8900D02*
D03*
X11426Y8500D02*
D03*
Y8900D02*
D03*
X10726Y8500D02*
D03*
Y8900D02*
D03*
X10626Y8500D02*
D03*
Y8900D02*
D03*
X10026Y8500D02*
D03*
Y8900D02*
D03*
X9926Y8500D02*
D03*
Y8900D02*
D03*
X9326Y9900D02*
D03*
Y9500D02*
D03*
X9426Y9900D02*
D03*
Y9500D02*
D03*
X5926Y10550D02*
D03*
Y10950D02*
D03*
X6026Y10550D02*
D03*
Y10950D02*
D03*
X6126Y10550D02*
D03*
Y10950D02*
D03*
X6226Y10550D02*
D03*
Y10950D02*
D03*
X6326Y10550D02*
D03*
Y10950D02*
D03*
X6426Y10550D02*
D03*
Y10950D02*
D03*
X6526Y10550D02*
D03*
Y10950D02*
D03*
X6126Y11950D02*
D03*
Y11550D02*
D03*
X6226Y11950D02*
D03*
Y11550D02*
D03*
X6626D02*
D03*
Y11950D02*
D03*
X6526D02*
D03*
Y11550D02*
D03*
X6726D02*
D03*
Y11950D02*
D03*
X6826Y11550D02*
D03*
Y11950D02*
D03*
X6926D02*
D03*
Y11550D02*
D03*
X7026Y11950D02*
D03*
Y11550D02*
D03*
X7126Y11950D02*
D03*
Y11550D02*
D03*
X7226Y11950D02*
D03*
Y11550D02*
D03*
X7426D02*
D03*
Y11950D02*
D03*
X7526Y11550D02*
D03*
Y11950D02*
D03*
X7626D02*
D03*
Y11550D02*
D03*
X7726Y11950D02*
D03*
Y11550D02*
D03*
X7826Y11950D02*
D03*
Y11550D02*
D03*
X7426Y10550D02*
D03*
Y10950D02*
D03*
X7326Y10550D02*
D03*
Y10950D02*
D03*
X7926Y11950D02*
D03*
Y11550D02*
D03*
X8026D02*
D03*
Y11950D02*
D03*
X8226Y11550D02*
D03*
Y11950D02*
D03*
X8326D02*
D03*
Y11550D02*
D03*
X8426Y11950D02*
D03*
Y11550D02*
D03*
X8526Y11950D02*
D03*
Y11550D02*
D03*
X8026Y10550D02*
D03*
Y10950D02*
D03*
X8126Y10550D02*
D03*
Y10950D02*
D03*
X8626Y11950D02*
D03*
Y11550D02*
D03*
X8826D02*
D03*
Y11950D02*
D03*
X9026D02*
D03*
Y11550D02*
D03*
X9126Y11950D02*
D03*
Y11550D02*
D03*
X9226Y11950D02*
D03*
Y11550D02*
D03*
X8726Y10550D02*
D03*
Y10950D02*
D03*
X8826Y10550D02*
D03*
Y10950D02*
D03*
X6726Y10550D02*
D03*
Y10950D02*
D03*
X12126Y11100D02*
D03*
X12226D02*
D03*
X12326D02*
D03*
Y11400D02*
D03*
X12226D02*
D03*
X12126D02*
D03*
X12026D02*
D03*
Y10550D02*
D03*
Y10950D02*
D03*
X12126Y10550D02*
D03*
Y10950D02*
D03*
X11426Y11100D02*
D03*
X11526D02*
D03*
X11626D02*
D03*
Y11400D02*
D03*
X11526D02*
D03*
X11426D02*
D03*
X11326D02*
D03*
X10726Y11100D02*
D03*
X10826D02*
D03*
X10926D02*
D03*
Y11400D02*
D03*
X10826D02*
D03*
X10726D02*
D03*
X10626D02*
D03*
X10026Y11100D02*
D03*
X10126D02*
D03*
X10226D02*
D03*
Y11400D02*
D03*
X10126D02*
D03*
X10026D02*
D03*
X9926D02*
D03*
X12426Y11100D02*
D03*
Y11400D02*
D03*
X11926D02*
D03*
Y11100D02*
D03*
X11726D02*
D03*
Y11400D02*
D03*
X11226D02*
D03*
Y11100D02*
D03*
X11026D02*
D03*
Y11400D02*
D03*
X10526D02*
D03*
Y11100D02*
D03*
X10326D02*
D03*
Y11400D02*
D03*
X9826D02*
D03*
Y11100D02*
D03*
X7151Y9975D02*
D03*
X7251Y9875D02*
D03*
Y10075D02*
D03*
X12026Y9900D02*
D03*
Y9500D02*
D03*
X12126D02*
D03*
Y9900D02*
D03*
X11426Y9500D02*
D03*
Y9900D02*
D03*
X11326D02*
D03*
Y9500D02*
D03*
X10726D02*
D03*
Y9900D02*
D03*
X8926Y11550D02*
D03*
Y11950D02*
D03*
X8126Y11550D02*
D03*
Y11950D02*
D03*
X8426Y8500D02*
D03*
Y8900D02*
D03*
X8526Y8500D02*
D03*
Y8900D02*
D03*
X8726D02*
D03*
Y8500D02*
D03*
X8826Y8900D02*
D03*
Y8500D02*
D03*
X8626D02*
D03*
Y8900D02*
D03*
X8426Y7400D02*
D03*
Y7800D02*
D03*
X9926Y7400D02*
D03*
Y7800D02*
D03*
X11226Y7400D02*
D03*
Y7800D02*
D03*
X12026Y7400D02*
D03*
Y7800D02*
D03*
X6626Y6350D02*
D03*
Y6750D02*
D03*
X7226Y6350D02*
D03*
Y6750D02*
D03*
X8426D02*
D03*
Y6350D02*
D03*
X10026Y6750D02*
D03*
Y6350D02*
D03*
X11226D02*
D03*
Y6750D02*
D03*
X12426D02*
D03*
Y6350D02*
D03*
X8226Y10000D02*
D03*
Y9600D02*
D03*
X8326Y10000D02*
D03*
Y9600D02*
D03*
X8426D02*
D03*
Y10000D02*
D03*
X8826Y9600D02*
D03*
Y10000D02*
D03*
X9726Y4650D02*
D03*
Y4250D02*
D03*
X9926D02*
D03*
Y4650D02*
D03*
X10126D02*
D03*
Y4250D02*
D03*
X12376Y7950D02*
D03*
Y8250D02*
D03*
X8326Y4650D02*
D03*
Y4250D02*
D03*
X8226D02*
D03*
Y4650D02*
D03*
X10426Y6750D02*
D03*
Y6250D02*
D03*
X6026Y7300D02*
D03*
Y7800D02*
D03*
X11326Y4250D02*
D03*
Y4650D02*
D03*
X11226Y4250D02*
D03*
Y4650D02*
D03*
X8126Y8250D02*
D03*
Y7950D02*
D03*
X7226D02*
D03*
Y8250D02*
D03*
X7326Y7400D02*
D03*
Y7800D02*
D03*
X7426Y7400D02*
D03*
Y7800D02*
D03*
X7226Y7400D02*
D03*
Y7800D02*
D03*
X7526Y7400D02*
D03*
Y7800D02*
D03*
X7926Y7400D02*
D03*
Y7800D02*
D03*
X8126Y7400D02*
D03*
Y7800D02*
D03*
X7826Y7400D02*
D03*
Y7800D02*
D03*
X8026Y8900D02*
D03*
Y8500D02*
D03*
X7926Y8900D02*
D03*
Y8500D02*
D03*
X7826D02*
D03*
Y8900D02*
D03*
X7726Y8500D02*
D03*
Y8900D02*
D03*
X7626Y8500D02*
D03*
Y8900D02*
D03*
X6726Y9050D02*
D03*
Y9350D02*
D03*
X6926Y9050D02*
D03*
X7026D02*
D03*
X7126D02*
D03*
Y9350D02*
D03*
X7026D02*
D03*
X6926D02*
D03*
X6826D02*
D03*
X7226D02*
D03*
Y9050D02*
D03*
Y8900D02*
D03*
Y8500D02*
D03*
X7126Y8900D02*
D03*
Y8500D02*
D03*
X6826D02*
D03*
Y8900D02*
D03*
X6426Y9350D02*
D03*
Y9050D02*
D03*
X6126D02*
D03*
X6226D02*
D03*
X6326D02*
D03*
Y9350D02*
D03*
X6226D02*
D03*
X6126D02*
D03*
X6026D02*
D03*
X6426Y8900D02*
D03*
Y8500D02*
D03*
X6326Y8900D02*
D03*
Y8500D02*
D03*
X6026D02*
D03*
Y8900D02*
D03*
X6226Y8500D02*
D03*
Y8900D02*
D03*
X6126Y8500D02*
D03*
Y8900D02*
D03*
X6726Y7950D02*
D03*
X6826D02*
D03*
X6926D02*
D03*
Y8250D02*
D03*
X6826D02*
D03*
X6726D02*
D03*
X6626D02*
D03*
X7026Y7950D02*
D03*
Y8250D02*
D03*
X6526D02*
D03*
Y7950D02*
D03*
X6726Y7400D02*
D03*
Y7800D02*
D03*
X6826D02*
D03*
Y7400D02*
D03*
X12726Y4300D02*
D03*
X12626Y4400D02*
D03*
Y4200D02*
D03*
X12326Y5150D02*
D03*
Y4750D02*
D03*
Y4250D02*
D03*
Y4650D02*
D03*
X6726Y6600D02*
D03*
Y6500D02*
D03*
X6926Y7200D02*
D03*
Y6800D02*
D03*
X6826D02*
D03*
Y7200D02*
D03*
X11726Y7550D02*
D03*
Y7650D02*
D03*
X10926Y7550D02*
D03*
Y7650D02*
D03*
X10826Y4700D02*
D03*
Y5100D02*
D03*
X10926D02*
D03*
Y4700D02*
D03*
X6926Y4400D02*
D03*
Y4500D02*
D03*
X6826Y5100D02*
D03*
Y4700D02*
D03*
X6926D02*
D03*
Y5100D02*
D03*
X11626Y8250D02*
D03*
Y7850D02*
D03*
X11726Y8250D02*
D03*
Y7850D02*
D03*
X10926Y8250D02*
D03*
Y7850D02*
D03*
X10826Y8250D02*
D03*
Y7850D02*
D03*
X9826Y8500D02*
D03*
Y8900D02*
D03*
X9726Y8500D02*
D03*
Y8900D02*
D03*
X9626Y8500D02*
D03*
Y8900D02*
D03*
X9526Y8500D02*
D03*
Y8900D02*
D03*
X9426Y8500D02*
D03*
Y8900D02*
D03*
X9326Y8500D02*
D03*
Y8900D02*
D03*
X9226Y8500D02*
D03*
Y8900D02*
D03*
X8926Y8950D02*
D03*
Y9350D02*
D03*
X9026D02*
D03*
Y8950D02*
D03*
X8226Y9350D02*
D03*
Y8950D02*
D03*
X7426Y9350D02*
D03*
Y8950D02*
D03*
X6626Y9350D02*
D03*
Y8950D02*
D03*
X6526D02*
D03*
Y9350D02*
D03*
X9126Y8650D02*
D03*
Y8750D02*
D03*
X8326Y8650D02*
D03*
Y8750D02*
D03*
X6726Y8650D02*
D03*
Y8750D02*
D03*
X7526Y8650D02*
D03*
Y8750D02*
D03*
X8126Y8950D02*
D03*
Y9350D02*
D03*
X7326Y8950D02*
D03*
Y9350D02*
D03*
X10926Y6150D02*
D03*
Y5750D02*
D03*
X10826D02*
D03*
Y6150D02*
D03*
X6926D02*
D03*
Y5750D02*
D03*
X6826D02*
D03*
Y6150D02*
D03*
X9426Y5850D02*
D03*
X9526D02*
D03*
X9626D02*
D03*
X9726D02*
D03*
X9826D02*
D03*
X9926D02*
D03*
X10026D02*
D03*
Y6150D02*
D03*
X9926D02*
D03*
X9826D02*
D03*
X9726D02*
D03*
X9626D02*
D03*
X9526D02*
D03*
X9426D02*
D03*
X9326D02*
D03*
X6626Y10550D02*
D03*
Y10950D02*
D03*
X5926Y9050D02*
D03*
Y9350D02*
D03*
X7026Y4650D02*
D03*
Y4250D02*
D03*
X6726Y5600D02*
D03*
Y5500D02*
D03*
X7426Y7950D02*
D03*
X7526D02*
D03*
X7626D02*
D03*
X7726D02*
D03*
X7826D02*
D03*
X7926D02*
D03*
X8026D02*
D03*
Y8250D02*
D03*
X7926D02*
D03*
X7826D02*
D03*
X7726D02*
D03*
X7626D02*
D03*
X7526D02*
D03*
X7426D02*
D03*
X7326D02*
D03*
X8726Y11550D02*
D03*
Y11950D02*
D03*
D31*
X5526Y11475D02*
D03*
Y11007D02*
D03*
Y11163D02*
D03*
Y11319D02*
D03*
D36*
X12751Y8350D02*
D03*
X8226Y10100D02*
D03*
X5501Y9725D02*
D03*
X8226Y12325D02*
D03*
X5501Y6175D02*
D03*
X11576Y12325D02*
D03*
X5976Y7950D02*
D03*
X6501Y10100D02*
D03*
X9326Y11100D02*
D03*
X8726D02*
D03*
X9226Y9050D02*
D03*
X9926D02*
D03*
X10626D02*
D03*
X11326D02*
D03*
X6026Y11100D02*
D03*
X6626D02*
D03*
X7326D02*
D03*
X8026D02*
D03*
X12026Y9050D02*
D03*
X7626D02*
D03*
X11926Y7950D02*
D03*
X11126D02*
D03*
X8426Y9050D02*
D03*
X6326Y6900D02*
D03*
Y5850D02*
D03*
Y4800D02*
D03*
X11726Y6900D02*
D03*
Y5850D02*
D03*
Y4800D02*
D03*
X11126Y6900D02*
D03*
Y5850D02*
D03*
Y4800D02*
D03*
X10326Y6900D02*
D03*
X9326D02*
D03*
X8726D02*
D03*
X8126D02*
D03*
X7126D02*
D03*
X10326Y5850D02*
D03*
X8726D02*
D03*
X8126D02*
D03*
X7126D02*
D03*
X8126Y4800D02*
D03*
X8726D02*
D03*
X9326D02*
D03*
X10326D02*
D03*
X7126D02*
D03*
X8326Y7950D02*
D03*
X9326D02*
D03*
X10326D02*
D03*
X12026Y11100D02*
D03*
X11326D02*
D03*
X10626D02*
D03*
X9926D02*
D03*
X6826Y9050D02*
D03*
X6026D02*
D03*
X6626Y7950D02*
D03*
X9326Y5850D02*
D03*
X7326Y7950D02*
D03*
M02*
