M71
M48
T1F00S00C0.036
T2F00S00C0.060
T3F00S00C0.070
T4F00S00C0.095
%
T01
X074Y002
X075
X076
X084
X085
X086
X094
X095
X096
X104
X105
X106
X0985Y0175
X0955
X094
X091
X086Y0165
Y0195
X085
X084
X083
X082
X081
X08
X079
X078
X077
X076
X075
X074
X073
X072
X071
X07
X069
Y0165
X07
X071
X072
X073
X074
X075
X076
X077
X078
X079
X08
X081
X082
X083
X084
X085
X078Y0135
Y009
X072Y00775
Y01425
X066Y0145
Y0165
X067
X068
Y0195
X067
X066
X065
X064
X063
X062
X061
X06
X059
X058
X057
Y0165
X058
X059
X06
X061
X062
X063
X064
X065
X061Y015
X06
X059
X058
X0565
Y011
X058
X059
X06
X061
X066Y01125
X03Y011
Y007
X0195
Y011
X01
Y007
T02
X005Y002
X0065Y005
X0075Y007
X0175
X0165Y005
X015Y002
X025
X0265Y005
X0275Y007
X0375
X0365Y005
X035Y002
X045
X0465Y005
X0475Y007
X0575
X0565Y005
X055Y002
X065
X0665Y005
X0675Y007
T03
X09266Y02
X09422
X09578
X09734
X01734
X01578
X01422
X01266
T04
X0035Y003
X0065
X005Y008
X015
X0135Y003
X0165
X0235
X0265
X025Y008
X035
X0335Y003
X0365
X0435
X0465
X045Y008
X055
X0535Y003
X0565
X0635
X0665
X065Y008
M30
