*%FSLAX23Y23*%
*%MOIN*%
G01*
%ADD11C,0.006*%
%ADD12C,0.007*%
%ADD13C,0.008*%
%ADD14C,0.010*%
%ADD15C,0.012*%
%ADD16C,0.020*%
%ADD17C,0.036*%
%ADD18C,0.050*%
%ADD19C,0.056*%
%ADD20C,0.060*%
%ADD21C,0.062*%
%ADD22C,0.066*%
%ADD23C,0.068*%
%ADD24C,0.070*%
%ADD25C,0.080*%
%ADD26C,0.090*%
%ADD27C,0.095*%
%ADD28C,0.100*%
%ADD29C,0.115*%
%ADD30C,0.120*%
%ADD31C,0.125*%
%ADD32C,0.126*%
%ADD33C,0.131*%
%ADD34C,0.150*%
%ADD35C,0.156*%
%ADD36R,0.062X0.062*%
%ADD37R,0.068X0.068*%
D14*
X4228Y6463D02*
X15228D01*
Y9213D02*
X4228D01*
X15228D02*
Y6463D01*
X4228D02*
Y9213D01*
D15*
X13628Y7038D02*
X13828Y6838D01*
X9378Y6888D02*
X9103Y7163D01*
X8503Y6513D02*
X11803D01*
X12728Y6863D02*
X9803D01*
X9778Y6888D02*
X9378D01*
X4978Y7163D02*
X4953D01*
X5228D01*
X5978D02*
X6178D01*
X10978D02*
X14753D01*
X10678D02*
X9978D01*
X11128Y7038D02*
X13628D01*
X11128D02*
X10953D01*
X10903Y7088D02*
X10753D01*
X9103Y7163D02*
X8978D01*
X7228D02*
X7003D01*
X6978D01*
X7978D02*
X8353D01*
X10128Y7963D02*
X10228D01*
X10128D02*
X10028D01*
X10228D02*
X10328D01*
X8403Y7113D02*
Y6613D01*
X8503Y6513D01*
X8403Y7113D02*
X8353Y7163D01*
X9778Y6888D02*
X9803Y6863D01*
X10828Y7588D02*
Y7913D01*
X10678Y7163D02*
X10753Y7088D01*
X10903D02*
X10953Y7038D01*
X11428Y7238D02*
Y7888D01*
X11828Y6663D02*
Y6538D01*
X11803Y6513D01*
X12028Y7363D02*
Y7813D01*
X12728Y6863D02*
X12828Y6763D01*
Y6663D01*
X13828D02*
Y6838D01*
X14753Y7163D02*
X14828Y7088D01*
Y6663D01*
D16*
X10278Y9263D02*
X10211D01*
X10278D02*
X10211Y9330D01*
Y9346D01*
X10228Y9363D01*
X10261D01*
X10278Y9346D01*
X10178D02*
X10161Y9363D01*
X10128D01*
X10111Y9346D01*
Y9280D01*
X10128Y9263D01*
X10161D01*
X10178Y9280D01*
Y9346D01*
X10078D02*
X10061Y9363D01*
X10028D01*
X10011Y9346D01*
Y9280D01*
X10028Y9263D01*
X10061D01*
X10078Y9280D01*
Y9346D01*
X9978Y9313D02*
X9911D01*
X9878Y9263D02*
X9845D01*
X9861D01*
Y9363D01*
X9862D01*
X9861D02*
X9878Y9346D01*
X9795D02*
X9778Y9363D01*
X9745D01*
X9728Y9346D01*
Y9280D01*
X9745Y9263D01*
X9778D01*
X9795Y9280D01*
Y9346D01*
X9695Y9263D02*
X9662D01*
X9678D01*
Y9363D01*
X9679D01*
X9678D02*
X9695Y9346D01*
X9578D02*
X9545Y9363D01*
X9578Y9346D02*
X9612Y9313D01*
Y9280D01*
X9595Y9263D01*
X9562D01*
X9545Y9280D01*
Y9296D01*
X9562Y9313D01*
X9612D01*
X9512D02*
X9445D01*
X9412Y9346D02*
X9395Y9363D01*
X9362D01*
X9345Y9346D01*
Y9280D01*
X9362Y9263D01*
X9395D01*
X9412Y9280D01*
Y9346D01*
X9312Y9263D02*
X9278D01*
X9295D01*
Y9363D01*
X9296D01*
X9295D02*
X9312Y9346D01*
X9128Y9363D02*
Y9263D01*
Y9363D02*
X9078D01*
X9062Y9346D01*
Y9313D01*
X9078Y9296D01*
X9128D01*
X9095D02*
X9062Y9263D01*
X9028Y9363D02*
X8962D01*
X9028D02*
Y9263D01*
X8962D01*
X8995Y9313D02*
X9028D01*
X8928Y9296D02*
Y9363D01*
Y9296D02*
X8895Y9263D01*
X8862Y9296D01*
Y9363D01*
X8729D02*
Y9263D01*
X8662D02*
X8729Y9363D01*
X8662D02*
Y9263D01*
X8562Y9346D02*
X8579Y9363D01*
X8612D01*
X8629Y9346D01*
Y9280D01*
X8612Y9263D01*
X8579D01*
X8562Y9280D01*
X8379Y9363D02*
X8362Y9346D01*
X8379Y9363D02*
X8412D01*
X8429Y9346D01*
Y9280D01*
X8412Y9263D01*
X8379D01*
X8362Y9280D01*
X8329Y9363D02*
X8295D01*
X8312D01*
Y9263D01*
X8329D01*
X8295D01*
X8245D02*
Y9363D01*
X8195D01*
X8179Y9346D01*
Y9313D01*
X8195Y9296D01*
X8245D01*
X8212D02*
X8179Y9263D01*
X8079Y9346D02*
X8095Y9363D01*
X8129D01*
X8145Y9346D01*
Y9280D01*
X8129Y9263D01*
X8095D01*
X8079Y9280D01*
X8045D02*
Y9363D01*
Y9280D02*
X8029Y9263D01*
X7995D01*
X7979Y9280D01*
Y9363D01*
X7945D02*
X7912D01*
X7929D01*
Y9263D01*
X7945D01*
X7912D01*
X7862Y9363D02*
X7795D01*
X7829D01*
Y9263D01*
X7612Y9363D02*
X7596Y9346D01*
X7612Y9363D02*
X7646D01*
X7662Y9346D01*
Y9330D01*
X7646Y9313D01*
X7612D01*
X7596Y9296D01*
Y9280D01*
X7612Y9263D01*
X7646D01*
X7662Y9280D01*
X7562Y9363D02*
X7529D01*
X7546D01*
Y9263D01*
X7562D01*
X7529D01*
X7479D02*
Y9363D01*
Y9263D02*
X7429D01*
X7412Y9280D01*
Y9346D01*
X7429Y9363D01*
X7479D01*
X7379D02*
X7312D01*
X7379D02*
Y9263D01*
X7312D01*
X7346Y9313D02*
X7379D01*
X14461Y7738D02*
X14528D01*
X14461Y7805D01*
Y7821D01*
X14478Y7838D01*
X14511D01*
X14528Y7821D01*
X14428D02*
X14411Y7838D01*
X14378D01*
X14361Y7821D01*
Y7755D01*
X14378Y7738D01*
X14411D01*
X14428Y7755D01*
Y7821D01*
X14328D02*
X14311Y7838D01*
X14278D01*
X14261Y7821D01*
Y7755D01*
X14278Y7738D01*
X14311D01*
X14328Y7755D01*
Y7821D01*
X14228Y7788D02*
X14161D01*
X14128Y7738D02*
X14095D01*
X14111D01*
Y7838D01*
X14112D01*
X14111D02*
X14128Y7821D01*
X14045D02*
X14028Y7838D01*
X13995D01*
X13978Y7821D01*
Y7755D01*
X13995Y7738D01*
X14028D01*
X14045Y7755D01*
Y7821D01*
X13945Y7738D02*
X13912D01*
X13928D01*
Y7838D01*
X13929D01*
X13928D02*
X13945Y7821D01*
X13828D02*
X13795Y7838D01*
X13828Y7821D02*
X13862Y7788D01*
Y7755D01*
X13845Y7738D01*
X13812D01*
X13795Y7755D01*
Y7771D01*
X13812Y7788D01*
X13862D01*
X13662Y7738D02*
Y7838D01*
X13612D01*
X13595Y7821D01*
Y7788D01*
X13612Y7771D01*
X13662D01*
X13628D02*
X13595Y7738D01*
X13562Y7838D02*
X13495D01*
X13562D02*
Y7738D01*
X13495D01*
X13528Y7788D02*
X13562D01*
X13462Y7771D02*
Y7838D01*
Y7771D02*
X13428Y7738D01*
X13395Y7771D01*
Y7838D01*
X13262D02*
Y7738D01*
X13195D02*
X13262Y7838D01*
X13195D02*
Y7738D01*
X13095Y7821D02*
X13112Y7838D01*
X13145D01*
X13162Y7821D01*
Y7755D01*
X13145Y7738D01*
X13112D01*
X13095Y7755D01*
X12611Y9146D02*
X12628Y9163D01*
X12661D01*
X12678Y9146D01*
Y9080D01*
X12661Y9063D01*
X12628D01*
X12611Y9080D01*
X12561Y9163D02*
X12528D01*
X12561D02*
X12578Y9146D01*
Y9080D01*
X12561Y9063D01*
X12528D01*
X12511Y9080D01*
Y9146D01*
X12528Y9163D01*
X12478D02*
Y9063D01*
Y9163D02*
X12428D01*
X12411Y9146D01*
Y9113D01*
X12428Y9096D01*
X12478D01*
X12378Y9146D02*
Y9163D01*
Y9146D02*
X12345Y9113D01*
X12311Y9146D01*
Y9163D01*
X12345Y9113D02*
Y9063D01*
X12278D02*
Y9163D01*
X12228D01*
X12211Y9146D01*
Y9113D01*
X12228Y9096D01*
X12278D01*
X12245D02*
X12211Y9063D01*
X12178Y9163D02*
X12145D01*
X12162D01*
Y9063D01*
X12178D01*
X12145D01*
X12045Y9163D02*
X12028Y9146D01*
X12045Y9163D02*
X12078D01*
X12095Y9146D01*
Y9080D01*
X12078Y9063D01*
X12045D01*
X12028Y9080D01*
Y9113D01*
X12062D01*
X11995Y9063D02*
Y9163D01*
Y9113D02*
Y9063D01*
Y9113D02*
X11928D01*
Y9163D01*
Y9063D01*
X11895Y9163D02*
X11828D01*
X11862D01*
Y9063D01*
X11695Y9096D02*
X11662Y9063D01*
X11695Y9096D02*
Y9130D01*
X11662Y9163D01*
X11562D02*
X11545Y9146D01*
X11562Y9163D02*
X11595D01*
X11612Y9146D01*
Y9080D01*
X11595Y9063D01*
X11562D01*
X11545Y9080D01*
X11512Y9063D02*
X11478Y9096D01*
Y9130D01*
X11512Y9163D01*
X11328Y9063D02*
X11262D01*
X11328D02*
X11262Y9130D01*
Y9146D01*
X11278Y9163D01*
X11312D01*
X11328Y9146D01*
X11228D02*
X11212Y9163D01*
X11178D01*
X11162Y9146D01*
Y9080D01*
X11178Y9063D01*
X11212D01*
X11228Y9080D01*
Y9146D01*
X11129D02*
X11112Y9163D01*
X11079D01*
X11062Y9146D01*
Y9080D01*
X11079Y9063D01*
X11112D01*
X11129Y9080D01*
Y9146D01*
X11029D02*
X11012Y9163D01*
X10979D01*
X10962Y9146D01*
Y9130D01*
X10963D01*
X10962D02*
X10963D01*
X10962D02*
X10963D01*
X10962D02*
X10979Y9113D01*
X10995D01*
X10979D01*
X10962Y9096D01*
Y9080D01*
X10979Y9063D01*
X11012D01*
X11029Y9080D01*
X10829Y9063D02*
Y9163D01*
Y9063D02*
X10779D01*
X10762Y9080D01*
Y9096D01*
X10779Y9113D01*
X10829D01*
X10830D01*
X10829D02*
X10830D01*
X10829D02*
X10830D01*
X10829D02*
X10779D01*
X10762Y9130D01*
Y9146D01*
X10779Y9163D01*
X10829D01*
X10729D02*
Y9146D01*
X10695Y9113D01*
X10662Y9146D01*
Y9163D01*
X10695Y9113D02*
Y9063D01*
X10495Y9163D02*
X10462D01*
X10479D02*
X10495D01*
X10479D02*
Y9080D01*
X10495Y9063D01*
X10512D01*
X10529Y9080D01*
X10429Y9163D02*
X10395D01*
X10412D01*
Y9063D01*
X10429D01*
X10395D01*
X10345D02*
Y9163D01*
X10312Y9130D01*
X10279Y9163D01*
Y9063D01*
X10145D02*
Y9163D01*
X10096D01*
X10079Y9146D01*
Y9113D01*
X10096Y9096D01*
X10145D01*
X10046Y9130D02*
Y9063D01*
Y9130D02*
X10012Y9163D01*
X9979Y9130D01*
Y9063D01*
Y9113D01*
X10046D01*
X9946Y9163D02*
X9879D01*
X9912D01*
Y9063D01*
X9796Y9163D02*
X9779Y9146D01*
X9796Y9163D02*
X9829D01*
X9846Y9146D01*
Y9080D01*
X9829Y9063D01*
X9796D01*
X9779Y9080D01*
X9746Y9063D02*
Y9163D01*
Y9113D02*
Y9063D01*
Y9113D02*
X9679D01*
Y9163D01*
Y9063D01*
X9646Y9163D02*
X9579D01*
X9646D02*
Y9063D01*
X9579D01*
X9612Y9113D02*
X9646D01*
X9546Y9063D02*
Y9163D01*
Y9063D02*
X9479D01*
X9446D02*
Y9163D01*
Y9063D02*
X9379D01*
D18*
X13653Y8488D02*
X13650Y8463D01*
X13653Y8488D02*
X13553Y8588D01*
X13962Y8463D02*
X14078Y8347D01*
X14028Y8263D02*
X14078Y8213D01*
X13128D02*
X13003Y8338D01*
X14003Y8288D02*
X14028Y8263D01*
X13228Y8588D02*
X13053Y8413D01*
X13328Y8297D02*
X13494Y8463D01*
X13528Y8163D02*
X13478Y8113D01*
X13528Y8238D02*
X13578Y8288D01*
X13628Y8088D02*
X13578Y8038D01*
X12853Y8113D02*
X12828D01*
X12853D02*
X13478D01*
X12828D02*
X12728D01*
X12328Y8038D02*
X13578D01*
X12328D02*
X11728D01*
X11128D01*
X10528D01*
X10228D01*
X9928D01*
X10328Y8113D02*
X10428D01*
X10928D02*
X11028D01*
X10928Y8188D02*
X10428D01*
X11528Y8113D02*
X11628D01*
X11528Y8188D02*
X11028D01*
X12128Y8113D02*
X12228D01*
X12128Y8188D02*
X11628D01*
X12228D02*
X12728D01*
X13628Y8213D02*
X13778D01*
X13328D02*
X13128D01*
X13003Y8338D02*
X12528D01*
X12328D01*
X11928D01*
X11728D01*
X11328D01*
X11128D01*
X10728D01*
X10528D01*
X10128D01*
X9928D01*
X13578Y8288D02*
X14003D01*
X13053Y8413D02*
X12828D01*
X13650Y8463D02*
X13653D01*
X13806D01*
X13553Y8588D02*
X13228D01*
X12828Y8488D02*
X12228D01*
X11628D01*
X11028D01*
X10428D01*
X9928Y8413D02*
Y8338D01*
Y8113D02*
Y8038D01*
X10128Y8338D02*
Y8413D01*
X10228Y8113D02*
Y8038D01*
X10428Y8413D02*
Y8488D01*
Y8188D02*
Y8113D01*
X10528Y8338D02*
Y8413D01*
Y8113D02*
Y8038D01*
X10728Y8338D02*
Y8413D01*
X11028D02*
Y8488D01*
X10928Y8188D02*
Y8113D01*
X11028D02*
Y8188D01*
X11128Y8338D02*
Y8413D01*
Y8113D02*
Y8038D01*
X11328Y8338D02*
Y8413D01*
X11628D02*
Y8488D01*
X11528Y8188D02*
Y8113D01*
X11628D02*
Y8188D01*
X11728Y8338D02*
Y8413D01*
Y8113D02*
Y8038D01*
X11928Y8338D02*
Y8413D01*
X12228D02*
Y8488D01*
X12128Y8188D02*
Y8113D01*
X12228D02*
Y8188D01*
X12328Y8338D02*
Y8413D01*
Y8113D02*
Y8038D01*
X12528Y8338D02*
Y8413D01*
X12728Y8188D02*
Y8113D01*
X12828Y8413D02*
Y8488D01*
X13328Y8297D02*
Y8213D01*
X13528Y8238D02*
Y8163D01*
X13628Y8213D02*
Y8088D01*
X14078Y8213D02*
Y8347D01*
D21*
X12028Y7813D02*
D03*
Y7363D02*
D03*
X11428Y7888D02*
D03*
Y7238D02*
D03*
X10828Y7913D02*
D03*
Y7588D02*
D03*
X14828Y6663D02*
D03*
X14628D02*
D03*
X14728D02*
D03*
X14078Y8213D02*
D03*
X13778D02*
D03*
X13328D02*
D03*
X13628D02*
D03*
X12828Y8113D02*
D03*
Y8413D02*
D03*
Y6663D02*
D03*
X12628D02*
D03*
X12728D02*
D03*
X13828D02*
D03*
X13628D02*
D03*
X13728D02*
D03*
X11128Y8413D02*
D03*
Y8113D02*
D03*
X11428D02*
D03*
X11528D02*
D03*
Y8413D02*
D03*
X11428D02*
D03*
X11328D02*
D03*
X11228D02*
D03*
X11328Y8113D02*
D03*
X11628D02*
D03*
Y8413D02*
D03*
X11728D02*
D03*
Y8113D02*
D03*
X12028D02*
D03*
X12128D02*
D03*
Y8413D02*
D03*
X12028D02*
D03*
X11928D02*
D03*
X11828D02*
D03*
X11928Y8113D02*
D03*
X12228D02*
D03*
Y8413D02*
D03*
X12328D02*
D03*
Y8113D02*
D03*
X12628D02*
D03*
X12728D02*
D03*
Y8413D02*
D03*
X12628D02*
D03*
X12528D02*
D03*
X12428D02*
D03*
X12528Y8113D02*
D03*
X11828Y6663D02*
D03*
X11628D02*
D03*
X11728D02*
D03*
X10028Y7963D02*
D03*
Y7563D02*
D03*
X9878Y7963D02*
D03*
Y7563D02*
D03*
X10128Y7963D02*
D03*
Y7563D02*
D03*
X10228Y7963D02*
D03*
Y7563D02*
D03*
X10328Y7963D02*
D03*
Y7563D02*
D03*
X9928Y8413D02*
D03*
Y8113D02*
D03*
X10228D02*
D03*
X10328D02*
D03*
Y8413D02*
D03*
X10228D02*
D03*
X10128D02*
D03*
X10028D02*
D03*
X10128Y8113D02*
D03*
X10428D02*
D03*
Y8413D02*
D03*
X10528D02*
D03*
Y8113D02*
D03*
X10828D02*
D03*
X10928D02*
D03*
Y8413D02*
D03*
X10828D02*
D03*
X10728D02*
D03*
X10628D02*
D03*
X10728Y8113D02*
D03*
X11028D02*
D03*
Y8413D02*
D03*
X7228Y7163D02*
D03*
Y7563D02*
D03*
X5228Y7163D02*
D03*
Y7563D02*
D03*
X6178Y7163D02*
D03*
Y7563D02*
D03*
D28*
X5803Y8138D02*
X5653Y8288D01*
X13553Y8738D02*
X13678Y8613D01*
X13803Y8688D02*
X13628Y8863D01*
X5878Y8288D02*
X5803Y8363D01*
X13878Y9013D02*
X13953Y8938D01*
X6953Y8663D02*
X6428Y8138D01*
X12953Y8663D02*
X13028Y8738D01*
X13628Y8488D02*
X13678Y8538D01*
X12953Y8863D02*
X12878Y8788D01*
X6728D02*
X6228Y8288D01*
X5978Y8463D02*
X6478Y8963D01*
X12803D02*
X12853Y9013D01*
X5653Y8463D02*
Y8288D01*
X5803Y8138D02*
X6428D01*
X5803Y8363D02*
Y8463D01*
X5878Y8288D02*
X6228D01*
X6953Y8663D02*
X12828D01*
X12953D01*
X13028Y8738D02*
X13553D01*
X12878Y8788D02*
X6728D01*
X12953Y8863D02*
X13628D01*
X12803Y8963D02*
X6478D01*
X12853Y9013D02*
X13878D01*
X13678Y8613D02*
Y8538D01*
X13803Y8463D02*
Y8688D01*
X13953Y8463D02*
Y8938D01*
D30*
X10578Y6763D02*
D03*
X10878D02*
D03*
X10728Y7263D02*
D03*
X9578Y6763D02*
D03*
X9878D02*
D03*
X9728Y7263D02*
D03*
X8578Y6763D02*
D03*
X8878D02*
D03*
X8728Y7263D02*
D03*
X6578Y6763D02*
D03*
X6878D02*
D03*
X6728Y7263D02*
D03*
X7578Y6763D02*
D03*
X7878D02*
D03*
X7728Y7263D02*
D03*
X5578Y6763D02*
D03*
X5878D02*
D03*
X5728Y7263D02*
D03*
X4578Y6763D02*
D03*
X4878D02*
D03*
X4728Y7263D02*
D03*
D31*
X13650Y8463D02*
D03*
X13962D02*
D03*
X13494D02*
D03*
X13806D02*
D03*
X5806D02*
D03*
X5494D02*
D03*
X5962D02*
D03*
X5650D02*
D03*
D34*
X10978Y7163D02*
D03*
X10878Y6963D02*
D03*
X10728Y6663D02*
D03*
X9978Y7163D02*
D03*
X9878Y6963D02*
D03*
X9728Y6663D02*
D03*
X8978Y7163D02*
D03*
X8878Y6963D02*
D03*
X8728Y6663D02*
D03*
X6978Y7163D02*
D03*
X6878Y6963D02*
D03*
X6728Y6663D02*
D03*
X7978Y7163D02*
D03*
X7878Y6963D02*
D03*
X7728Y6663D02*
D03*
X5978Y7163D02*
D03*
X5878Y6963D02*
D03*
X5728Y6663D02*
D03*
X4978Y7163D02*
D03*
X4878Y6963D02*
D03*
X4728Y6663D02*
D03*
D36*
X11228Y8113D02*
D03*
X11828D02*
D03*
X12428D02*
D03*
X10028D02*
D03*
X10628D02*
D03*
M02*
