*%FSLAX23Y23*%
*%MOIN*%
G01*
%ADD11C,0.007*%
%ADD12C,0.008*%
%ADD13C,0.010*%
%ADD14C,0.012*%
%ADD15C,0.020*%
%ADD16C,0.025*%
%ADD17C,0.030*%
%ADD18C,0.032*%
%ADD19C,0.036*%
%ADD20C,0.050*%
%ADD21C,0.052*%
%ADD22C,0.055*%
%ADD23C,0.056*%
%ADD24C,0.061*%
%ADD25C,0.062*%
%ADD26C,0.065*%
%ADD27C,0.068*%
%ADD28C,0.070*%
%ADD29C,0.075*%
%ADD30C,0.075*%
%ADD31C,0.085*%
%ADD32C,0.090*%
%ADD33C,0.100*%
%ADD34C,0.106*%
%ADD35C,0.125*%
%ADD36C,0.131*%
%ADD37C,0.145*%
%ADD38C,0.150*%
%ADD39C,0.150*%
%ADD40C,0.156*%
%ADD41C,0.250*%
%ADD42R,0.062X0.062*%
%ADD43R,0.068X0.068*%
%ADD44R,0.075X0.075*%
%ADD45R,0.081X0.081*%
D13*
X11225Y10243D02*
X11245D01*
X11235D01*
Y10303D01*
X11236D01*
X11235D02*
X11225Y10293D01*
X11275D02*
X11285Y10303D01*
X11305D01*
X11315Y10293D01*
Y10253D01*
X11305Y10243D01*
X11285D01*
X11275Y10253D01*
Y10293D01*
X11335D02*
X11345Y10303D01*
X11365D01*
X11375Y10293D01*
Y10253D01*
X11365Y10243D01*
X11345D01*
X11335Y10253D01*
Y10293D01*
X11395Y10273D02*
X11435D01*
X11455Y10243D02*
X11475D01*
X11465D01*
Y10303D01*
X11466D01*
X11465D02*
X11455Y10293D01*
X11505D02*
X11515Y10303D01*
X11535D01*
X11545Y10293D01*
Y10253D01*
X11535Y10243D01*
X11515D01*
X11505Y10253D01*
Y10293D01*
X11595Y10303D02*
Y10243D01*
X11565Y10273D02*
X11595Y10303D01*
X11605Y10273D02*
X11565D01*
X11625Y10303D02*
X11665D01*
X11625D02*
Y10273D01*
X11645Y10283D01*
X11655D01*
X11665Y10273D01*
Y10253D01*
X11655Y10243D01*
X11635D01*
X11625Y10253D01*
X11685Y10273D02*
X11725D01*
X11745Y10243D02*
Y10303D01*
X11775D01*
X11785Y10293D01*
Y10273D01*
X11775Y10263D01*
X11745D01*
X11765D02*
X11785Y10243D01*
X11805Y10303D02*
X11845D01*
X11805D02*
Y10243D01*
X11845D01*
X11825Y10273D02*
X11805D01*
X11865Y10263D02*
Y10303D01*
Y10263D02*
X11885Y10243D01*
X11905Y10263D01*
Y10303D01*
X11985Y10283D02*
Y10243D01*
Y10283D02*
X12005Y10303D01*
X12025Y10283D01*
Y10243D01*
Y10273D01*
X11985D01*
X12335Y5143D02*
X12345Y5133D01*
X12335Y5143D02*
X12315D01*
X12305Y5133D01*
Y5093D01*
X12315Y5083D01*
X12335D01*
X12345Y5093D01*
X12375Y5143D02*
X12395D01*
X12375D02*
X12365Y5133D01*
Y5093D01*
X12375Y5083D01*
X12395D01*
X12405Y5093D01*
Y5133D01*
X12395Y5143D01*
X12425D02*
Y5083D01*
Y5143D02*
X12455D01*
X12465Y5133D01*
Y5113D01*
X12455Y5103D01*
X12425D01*
X12485Y5133D02*
Y5143D01*
Y5133D02*
X12505Y5113D01*
X12525Y5133D01*
Y5143D01*
X12505Y5113D02*
Y5083D01*
X12545D02*
Y5143D01*
X12575D01*
X12585Y5133D01*
Y5113D01*
X12575Y5103D01*
X12545D01*
X12565D02*
X12585Y5083D01*
X12605Y5143D02*
X12625D01*
X12615D01*
Y5083D01*
X12605D01*
X12625D01*
X12685Y5143D02*
X12695Y5133D01*
X12685Y5143D02*
X12665D01*
X12655Y5133D01*
Y5093D01*
X12665Y5083D01*
X12685D01*
X12695Y5093D01*
Y5113D01*
X12675D01*
X12715Y5143D02*
Y5083D01*
Y5113D01*
X12755D01*
Y5143D01*
Y5083D01*
X12775Y5143D02*
X12815D01*
X12795D01*
Y5083D01*
X12895Y5103D02*
X12915Y5083D01*
X12895Y5103D02*
Y5123D01*
X12915Y5143D01*
X12975D02*
X12985Y5133D01*
X12975Y5143D02*
X12955D01*
X12945Y5133D01*
Y5093D01*
X12955Y5083D01*
X12975D01*
X12985Y5093D01*
X13005Y5083D02*
X13025Y5103D01*
Y5123D01*
X13005Y5143D01*
X13115Y5083D02*
X13155D01*
X13115D02*
X13155Y5123D01*
Y5133D01*
X13145Y5143D01*
X13125D01*
X13115Y5133D01*
X13175D02*
X13185Y5143D01*
X13205D01*
X13215Y5133D01*
Y5093D01*
X13205Y5083D01*
X13185D01*
X13175Y5093D01*
Y5133D01*
X13235D02*
X13245Y5143D01*
X13265D01*
X13275Y5133D01*
Y5093D01*
X13265Y5083D01*
X13245D01*
X13235Y5093D01*
Y5133D01*
X13295Y5143D02*
X13335D01*
X13295D02*
Y5113D01*
X13315Y5123D01*
X13325D01*
X13335Y5113D01*
Y5093D01*
X13325Y5083D01*
X13305D01*
X13295Y5093D01*
X12345Y5058D02*
Y4998D01*
X12375D01*
X12385Y5008D01*
Y5018D01*
X12375Y5028D01*
X12345D01*
X12346D01*
X12345D02*
X12346D01*
X12345D02*
X12346D01*
X12345D02*
X12375D01*
X12385Y5038D01*
Y5048D01*
X12375Y5058D01*
X12345D01*
X12405D02*
Y5048D01*
X12425Y5028D01*
X12445Y5048D01*
Y5058D01*
X12425Y5028D02*
Y4998D01*
X12545Y5058D02*
X12565D01*
X12555D02*
X12545D01*
X12555D02*
Y5008D01*
X12545Y4998D01*
X12535D01*
X12525Y5008D01*
X12585Y4998D02*
Y5038D01*
X12605Y5058D01*
X12625Y5038D01*
Y4998D01*
Y5028D01*
X12585D01*
X12645Y4998D02*
Y5058D01*
X12665Y5038D01*
X12685Y5058D01*
Y4998D01*
X12705Y5058D02*
X12745D01*
X12705D02*
Y4998D01*
X12745D01*
X12725Y5028D02*
X12705D01*
X12795Y5058D02*
X12805Y5048D01*
X12795Y5058D02*
X12775D01*
X12765Y5048D01*
Y5038D01*
X12775Y5028D01*
X12795D01*
X12805Y5018D01*
Y5008D01*
X12795Y4998D01*
X12775D01*
X12765Y5008D01*
X12885Y4998D02*
Y5058D01*
X12915D01*
X12925Y5048D01*
Y5028D01*
X12915Y5018D01*
X12885D01*
X12945Y4998D02*
Y5038D01*
X12965Y5058D01*
X12985Y5038D01*
Y4998D01*
Y5028D01*
X12945D01*
X13005Y5058D02*
X13045D01*
X13025D01*
Y4998D01*
X13095Y5058D02*
X13105Y5048D01*
X13095Y5058D02*
X13075D01*
X13065Y5048D01*
Y5008D01*
X13075Y4998D01*
X13095D01*
X13105Y5008D01*
X13125Y4998D02*
Y5058D01*
Y5028D02*
Y4998D01*
Y5028D02*
X13165D01*
Y5058D01*
Y4998D01*
X13185Y5058D02*
X13225D01*
X13185D02*
Y4998D01*
X13225D01*
X13205Y5028D02*
X13185D01*
X13245Y5058D02*
Y4998D01*
X13285D01*
X13305D02*
Y5058D01*
Y4998D02*
X13345D01*
D14*
X11000Y5988D02*
X10825Y6163D01*
X7775Y5788D02*
X7250Y6313D01*
X7050Y7613D02*
X6875Y7788D01*
X12750Y7413D02*
X12900Y7263D01*
X10250Y7713D02*
X10100Y7863D01*
X11050Y7013D02*
X11200Y6863D01*
X12475Y8088D02*
X12700Y7863D01*
X12750D02*
X12625Y7988D01*
X9094Y8163D02*
X8944Y8013D01*
X9000Y5788D02*
X8850Y5638D01*
X8750Y5613D02*
X8900Y5763D01*
X10800Y5413D02*
X10950Y5563D01*
X7602Y7263D02*
X7500Y7161D01*
X7350Y7813D02*
X7500Y7963D01*
X8350Y6838D02*
X8225Y6713D01*
X12900Y6563D02*
X13100Y6763D01*
X13050Y6363D02*
X12900Y6213D01*
X12400Y6913D02*
X12550Y7063D01*
X9975Y7688D02*
X9850Y7563D01*
X9750Y7588D02*
X9900Y7738D01*
X12250Y7513D02*
X12400Y7663D01*
X7250Y8163D02*
X7025Y7938D01*
X6800Y6813D02*
X6600Y6613D01*
X10750Y5113D02*
X11400D01*
X11250Y5213D02*
X10800D01*
X10450Y5313D02*
X10400D01*
X8350Y5613D02*
X8200D01*
X7150Y5563D02*
X7100D01*
X10250Y5663D02*
X10325D01*
X10975Y5713D02*
X11050D01*
X11000D01*
X12525D02*
X12600D01*
X6650Y5663D02*
Y5813D01*
Y7313D02*
Y7413D01*
X6550Y7313D02*
Y7213D01*
Y6863D02*
Y6488D01*
X6600Y6913D02*
Y7013D01*
Y8113D02*
Y8163D01*
X6550Y8063D02*
Y8013D01*
X6575Y8338D02*
Y8413D01*
X6600Y8313D02*
Y8263D01*
Y7463D02*
X6650Y7413D01*
X6550Y6488D02*
X6575Y6463D01*
X6600Y8313D02*
X6575Y8338D01*
X6650Y7313D02*
X6600Y7263D01*
X6550Y7313D02*
X6600Y7363D01*
Y6913D02*
X6550Y6863D01*
Y8063D02*
X6600Y8113D01*
X8400Y5763D02*
X8500D01*
X10725Y5913D02*
X10800D01*
X6800Y5863D02*
Y5763D01*
Y6813D02*
Y6963D01*
Y7063D02*
Y7163D01*
X6850Y6913D02*
Y6813D01*
Y6913D02*
Y7013D01*
Y6813D02*
X6950Y6713D01*
X6850Y7013D02*
X6800Y7063D01*
X7025Y5588D02*
Y5063D01*
X7100Y5663D02*
Y5763D01*
X7050Y6788D02*
Y6813D01*
X7000Y6738D02*
Y6663D01*
X7050Y7513D02*
Y7613D01*
X7100Y5663D02*
X7025Y5588D01*
X7000Y6738D02*
X7050Y6788D01*
X10800Y6163D02*
X10825D01*
X7250Y5813D02*
Y5663D01*
X7275Y7663D02*
Y7788D01*
X7200Y7863D02*
Y7963D01*
Y7863D02*
X7275Y7788D01*
Y7663D02*
X7350Y7588D01*
X7250Y5663D02*
X7150Y5563D01*
X6850Y6463D02*
X6575D01*
X13000D02*
X13025D01*
X13000D02*
X12950D01*
X7425Y6988D02*
Y7188D01*
X7350Y7713D02*
Y7813D01*
Y7588D02*
Y7413D01*
Y7663D02*
Y7713D01*
X7425Y7588D02*
Y7363D01*
X7400Y6513D02*
Y6463D01*
X7500Y6913D02*
X7425Y6988D01*
Y7588D02*
X7350Y7663D01*
X7550Y8563D02*
X7450Y8663D01*
X7500Y7263D02*
X7425Y7188D01*
X7500Y6913D02*
X7450Y6863D01*
X7325Y7263D02*
X7425Y7363D01*
X7500Y6613D02*
X7400Y6513D01*
X7450Y8163D02*
X7500Y8213D01*
X8150Y6563D02*
X8425D01*
X12075Y6663D02*
X12100D01*
X12150Y6563D02*
X11975D01*
X7550Y5363D02*
Y5163D01*
X7650Y5113D02*
Y5363D01*
X7500Y7013D02*
Y7161D01*
Y7263D02*
Y7513D01*
Y7963D02*
Y8063D01*
X7550Y8288D02*
Y8563D01*
X7600Y8238D02*
Y8063D01*
X7500Y8213D02*
Y8463D01*
Y5413D02*
X7550Y5363D01*
X7600Y5413D02*
X7650Y5363D01*
X7600Y8238D02*
X7550Y8288D01*
X8200Y6713D02*
X8225D01*
X11800D02*
X11900D01*
X7450Y6863D02*
X7350D01*
X7750Y5363D02*
Y5013D01*
X7775Y5538D02*
Y5788D01*
X7800Y5513D02*
Y5413D01*
Y5888D02*
Y6188D01*
X7700Y5413D02*
X7750Y5363D01*
X7800Y5513D02*
X7775Y5538D01*
X7900Y5788D02*
X7800Y5888D01*
X8050Y6963D02*
X8125D01*
X10600Y6913D02*
X10700D01*
X11850D02*
X11925D01*
X10450Y7013D02*
X10448D01*
X7900Y5788D02*
Y5413D01*
Y6713D02*
Y6813D01*
X8050Y6763D02*
Y6863D01*
X8000Y6913D02*
Y7013D01*
X8050Y7388D02*
Y7413D01*
X8000Y7263D02*
Y7013D01*
Y7263D02*
Y7338D01*
X8050Y8013D02*
Y8113D01*
X8000Y7863D02*
Y7463D01*
Y6913D02*
X8050Y6863D01*
X8000Y7338D02*
X8050Y7388D01*
Y8113D02*
X8150Y8213D01*
X8075Y7938D02*
X8000Y7863D01*
X12550Y7163D02*
X12552D01*
X7325Y7263D02*
X7150D01*
X8175Y5588D02*
Y5163D01*
X8200Y6413D02*
Y6513D01*
X8125Y6488D02*
Y6538D01*
X8150Y6988D02*
Y7338D01*
X8200Y7213D02*
Y7113D01*
X8100Y7388D02*
Y7463D01*
X8225Y8188D02*
Y8248D01*
X8185Y8288D02*
Y8413D01*
X8150Y7863D02*
Y7763D01*
X8100Y7388D02*
X8150Y7338D01*
X8225Y8248D02*
X8185Y8288D01*
X8200Y5613D02*
X8175Y5588D01*
X8125Y6538D02*
X8150Y6563D01*
X8125Y6488D02*
X8100Y6463D01*
X8125Y6963D02*
X8150Y6988D01*
Y8113D02*
X8225Y8188D01*
X9800Y7338D02*
X9875D01*
X12200Y7463D02*
X12350D01*
X8450Y6813D02*
Y6588D01*
X8350Y6838D02*
Y6963D01*
Y5613D02*
X8450Y5513D01*
X8425Y6563D02*
X8450Y6588D01*
Y6813D02*
X8525Y6888D01*
X8375Y7938D02*
X8400Y7963D01*
X11850Y7613D02*
X11875D01*
X11950Y7488D02*
X12075D01*
X8550Y5713D02*
Y5488D01*
X8525Y6888D02*
Y7138D01*
X8500Y5763D02*
X8550Y5713D01*
X8525Y7138D02*
X8600Y7213D01*
X9975Y7688D02*
X10025D01*
X9575Y7863D02*
X9500D01*
X8850Y5613D02*
Y5513D01*
Y5613D02*
Y5638D01*
X10331Y7938D02*
X10475D01*
X8050Y8013D02*
X8044D01*
X10525Y7913D02*
X10550D01*
X10250D01*
X10050D01*
X9500Y7963D02*
X9450D01*
X7025Y7938D02*
X6925D01*
X8075D02*
X8375D01*
X9000Y5663D02*
Y5563D01*
X9050Y5513D01*
X9000Y5663D02*
X9050Y5713D01*
X9094Y8163D02*
X9100D01*
X7450D02*
X7250D01*
X10600Y8263D02*
X10610D01*
X9100Y7863D02*
Y7813D01*
X9150Y7763D01*
X11575Y8413D02*
X11600D01*
X11585D02*
X11575D01*
X6585D02*
X6575D01*
X9400Y7288D02*
Y7213D01*
X9425Y7713D02*
Y7938D01*
X9350Y6513D02*
Y6413D01*
X9325Y5363D02*
Y5038D01*
X9450Y6513D02*
Y6663D01*
Y7338D02*
Y7463D01*
Y6913D02*
Y6663D01*
Y5413D02*
Y5313D01*
Y6913D02*
X9350Y7013D01*
X9400Y7288D02*
X9450Y7338D01*
X9425Y7938D02*
X9450Y7963D01*
X9600Y7763D02*
Y7663D01*
X9500Y7563D02*
Y7413D01*
X9600Y7163D02*
Y7013D01*
Y6938D01*
X9550Y6888D02*
Y6763D01*
X9600Y7763D02*
Y7838D01*
X9500Y7963D02*
Y8063D01*
X9550Y6763D02*
X9600Y6713D01*
Y7838D02*
X9575Y7863D01*
X9700Y7263D02*
X9600Y7163D01*
Y6938D02*
X9550Y6888D01*
X9500Y7563D02*
X9550Y7613D01*
X9600Y7663D01*
X12600Y8713D02*
X12625D01*
X9725Y7688D02*
Y7613D01*
X9700Y7313D02*
Y7263D01*
X9650Y6763D02*
Y6663D01*
X9750Y7513D02*
Y7588D01*
X9825Y7788D02*
Y7963D01*
X9700Y7588D02*
Y7438D01*
X9750Y8038D02*
Y8113D01*
Y8038D02*
X9825Y7963D01*
X9700Y7438D02*
X9800Y7338D01*
X9700Y6813D02*
X9650Y6763D01*
X9725Y7688D02*
X9825Y7788D01*
X9725Y7613D02*
X9700Y7588D01*
X9900Y6663D02*
Y6513D01*
X9950Y6963D02*
Y7013D01*
X9900Y6913D02*
Y6863D01*
X10025Y7838D02*
Y7888D01*
X9900Y7863D02*
Y7738D01*
Y6413D02*
Y5288D01*
X10075Y7788D02*
X10025Y7838D01*
X9950Y6963D02*
X9900Y6913D01*
X10025Y7688D02*
X10075Y7738D01*
X10025Y7888D02*
X10050Y7913D01*
X9950Y7413D02*
X9875Y7338D01*
X10150Y8113D02*
Y8213D01*
X10225Y5638D02*
Y5188D01*
X10075Y7738D02*
Y7788D01*
X10225Y5188D02*
X10250Y5163D01*
X10225Y5638D02*
X10250Y5663D01*
X10400Y5613D02*
Y5513D01*
X10350Y5688D02*
Y5763D01*
X10250Y7513D02*
Y7713D01*
X10348Y7263D02*
Y7163D01*
X10250Y5163D02*
Y5038D01*
X10331Y7938D02*
X10256Y8013D01*
X10348Y7163D02*
X10448Y7063D01*
X10350Y5688D02*
X10325Y5663D01*
X10350Y5763D02*
X10400Y5813D01*
X10475Y5988D02*
Y6338D01*
X10500Y7963D02*
Y8163D01*
X10600D02*
Y8063D01*
Y5863D02*
Y5363D01*
X10550Y5313D02*
Y5013D01*
X10600Y5963D02*
Y6313D01*
X10550Y7113D02*
Y7163D01*
X10600Y7213D02*
Y7263D01*
X10525Y7588D02*
Y7913D01*
X10550Y7563D02*
Y7313D01*
X10450Y6813D02*
Y6713D01*
X10550Y6963D02*
Y7113D01*
Y6963D02*
Y6813D01*
X10600Y6763D02*
Y6663D01*
X10450Y6913D02*
Y7013D01*
X10448D02*
Y7063D01*
X10600Y5313D02*
Y5163D01*
X10475Y5338D02*
Y5988D01*
Y6338D02*
X10450Y6363D01*
X10550Y7563D02*
X10525Y7588D01*
X10550Y6813D02*
X10600Y6763D01*
X10500Y8163D02*
X10600Y8263D01*
X10500Y7963D02*
X10475Y7938D01*
X10550Y8013D02*
X10600Y8063D01*
X10610Y8263D02*
X10635Y8288D01*
X10600Y5363D02*
X10550Y5313D01*
Y7163D02*
X10600Y7213D01*
X10700Y5413D02*
X10600Y5313D01*
X10550Y7913D02*
X10600Y7963D01*
X10475Y5338D02*
X10450Y5313D01*
X10635Y8288D02*
Y8413D01*
X10800Y5413D02*
Y5313D01*
Y5913D02*
Y6013D01*
Y6963D02*
Y7263D01*
X10725Y7188D02*
Y6938D01*
X10650Y7263D02*
Y7313D01*
X10800Y6563D02*
Y6463D01*
X10700Y5888D02*
Y5413D01*
X10725Y5388D02*
Y5738D01*
X10675Y5338D02*
Y5188D01*
X10725Y7188D02*
X10650Y7263D01*
X10725Y5288D02*
X10800Y5213D01*
X10750Y5113D02*
X10675Y5188D01*
X10700Y5888D02*
X10725Y5913D01*
X10700Y6913D02*
X10725Y6938D01*
Y5388D02*
X10675Y5338D01*
X10725Y5738D02*
X10800Y5813D01*
X10925D02*
Y5913D01*
X10950Y5688D02*
Y5563D01*
X11000Y5713D02*
Y5988D01*
Y7763D02*
Y7863D01*
X10975Y6413D02*
Y6063D01*
X11075Y7688D02*
X11000Y7763D01*
X10975Y6063D02*
X11050Y5988D01*
X10975Y5713D02*
X10950Y5688D01*
X11075Y7513D02*
Y7688D01*
X11050Y7113D02*
Y7013D01*
X11200Y6863D02*
Y6763D01*
X11100Y6863D02*
Y6463D01*
X11050Y5988D02*
Y5913D01*
X11350Y5313D02*
X11250Y5213D01*
X11400Y5113D02*
X11450Y5163D01*
Y5713D02*
Y5813D01*
Y5613D02*
Y5513D01*
X11600Y5563D02*
Y5838D01*
X11425Y6263D02*
Y6363D01*
X11525Y6013D02*
Y5913D01*
Y6013D02*
Y6163D01*
X11550Y7913D02*
Y8013D01*
X11600Y7813D02*
Y7713D01*
Y7813D02*
Y7863D01*
Y8263D02*
Y8413D01*
X11450Y5313D02*
Y5163D01*
X11600Y5838D02*
X11525Y5913D01*
Y6163D02*
X11425Y6263D01*
X11600Y7863D02*
X11550Y7913D01*
X11650Y8013D02*
X11550Y8113D01*
X11600Y7713D02*
X11550Y7663D01*
Y8213D02*
X11600Y8263D01*
X11650Y8013D02*
Y7763D01*
Y7663D02*
Y7513D01*
X11775Y6938D02*
Y6738D01*
X11800Y6713D01*
X11775Y6938D02*
X11850Y7013D01*
X11950Y7213D02*
Y7313D01*
Y7963D02*
Y8013D01*
X11900Y7913D02*
Y7863D01*
X11925Y6688D02*
Y6613D01*
X11950Y7413D02*
Y7538D01*
Y7488D02*
Y7413D01*
Y7813D02*
Y7913D01*
X11925Y6613D02*
X11975Y6563D01*
X11925Y6688D02*
X11900Y6713D01*
X11950Y7538D02*
X11875Y7613D01*
X12000Y7363D02*
X11950Y7313D01*
X11900Y7913D02*
X11950Y7963D01*
X12000Y6988D02*
X11925Y6913D01*
X11950Y7913D02*
X12025Y7988D01*
X12150Y6713D02*
Y6613D01*
X12000Y6988D02*
Y7113D01*
X12150Y7313D02*
Y7363D01*
X12050Y7063D02*
Y6688D01*
Y7063D02*
Y7138D01*
X12000Y7188D02*
Y7263D01*
X12100Y7288D02*
Y7463D01*
X12150Y7238D02*
Y6963D01*
Y7513D02*
Y7713D01*
X12025Y7988D02*
Y8063D01*
X12150Y6813D02*
X12200Y6763D01*
X12075Y6663D02*
X12050Y6688D01*
X12150Y6563D02*
X12225Y6488D01*
X12250Y7213D02*
X12150Y7313D01*
X12000Y7188D02*
X12050Y7138D01*
X12150Y7238D02*
X12100Y7288D01*
Y7463D02*
X12075Y7488D01*
X12150Y7513D02*
X12200Y7463D01*
Y6763D02*
X12150Y6713D01*
X12350Y6863D02*
Y6963D01*
X12225Y6488D02*
Y6063D01*
X12250Y7613D02*
Y7713D01*
X12300Y7763D02*
Y7863D01*
X12350Y6863D02*
X12400Y6813D01*
Y7413D02*
X12350Y7463D01*
X12400Y7013D02*
X12350Y6963D01*
X12250Y7713D02*
X12300Y7763D01*
X12500Y5688D02*
Y5588D01*
X12550Y7063D02*
Y7163D01*
X12400Y6363D02*
Y6263D01*
Y6113D01*
Y7663D02*
Y7763D01*
X12575Y8538D02*
Y8688D01*
X12475Y8313D02*
Y8088D01*
X12625Y8488D02*
X12575Y8538D01*
X12525Y5713D02*
X12500Y5688D01*
Y5588D02*
X12475Y5563D01*
X12400Y7763D02*
X12500Y7863D01*
X12575Y8688D02*
X12600Y8713D01*
X12625Y6413D02*
Y6338D01*
X12650Y6438D02*
Y6513D01*
X12750Y7413D02*
Y7563D01*
X12700Y8788D02*
Y9338D01*
X12775Y9413D02*
Y9638D01*
X12700Y7863D02*
Y7763D01*
X12750Y7813D02*
Y7863D01*
X12625Y7988D02*
Y8488D01*
X12750Y7813D02*
X12850Y7713D01*
X12650Y6438D02*
X12625Y6413D01*
Y8713D02*
X12700Y8788D01*
Y9338D02*
X12775Y9413D01*
Y9638D02*
X12850Y9713D01*
X12900Y7113D02*
Y7038D01*
Y7113D02*
Y7163D01*
X12950Y6988D02*
Y6863D01*
X12900Y7338D02*
Y7413D01*
X12950Y7288D02*
Y7213D01*
X12900Y5713D02*
Y5538D01*
Y6413D02*
Y6563D01*
Y6213D02*
Y6163D01*
X12950Y6988D02*
X12900Y7038D01*
X12950Y7288D02*
X12900Y7338D01*
X12950Y7363D02*
X13000Y7313D01*
X12900Y6413D02*
X12950Y6363D01*
X12900Y7163D02*
X12950Y7213D01*
X13150Y6363D02*
Y6263D01*
X13000Y7263D02*
Y7313D01*
X13100Y7213D02*
Y6763D01*
X13050Y6438D02*
Y6363D01*
X13150Y7913D02*
Y7963D01*
X13100Y8013D02*
Y8163D01*
X13025Y6463D02*
X13050Y6438D01*
X13250Y7813D02*
X13150Y7913D01*
Y7263D02*
X13100Y7213D01*
X13250Y7613D02*
Y7713D01*
X13300Y7763D02*
Y7913D01*
X13200Y8013D01*
X13300Y7763D02*
X13250Y7713D01*
X13550Y6563D02*
Y6463D01*
X13450Y6713D02*
Y6763D01*
X13550Y6863D02*
Y6963D01*
Y6863D02*
X13450Y6763D01*
X13700Y4963D02*
Y10463D01*
X5950D02*
Y4963D01*
Y10463D02*
X13700D01*
Y4963D02*
X5950D01*
D15*
X8100Y7013D02*
Y7263D01*
X13050Y7238D02*
Y7288D01*
X7758Y10738D02*
X7725D01*
X7742D02*
X7758D01*
X7742D02*
Y10838D01*
X7743D01*
X7742D02*
X7725Y10821D01*
X7808D02*
X7825Y10838D01*
X7858D01*
X7875Y10821D01*
Y10755D01*
X7858Y10738D01*
X7825D01*
X7808Y10755D01*
Y10821D01*
X7908D02*
X7925Y10838D01*
X7958D01*
X7975Y10821D01*
Y10755D01*
X7958Y10738D01*
X7925D01*
X7908Y10755D01*
Y10821D01*
X8008Y10788D02*
X8075D01*
X8108Y10738D02*
X8142D01*
X8125D01*
Y10838D01*
X8126D01*
X8125D02*
X8108Y10821D01*
X8192D02*
X8208Y10838D01*
X8242D01*
X8258Y10821D01*
Y10755D01*
X8242Y10738D01*
X8208D01*
X8192Y10755D01*
Y10821D01*
X8341Y10838D02*
Y10738D01*
X8291Y10788D02*
X8341Y10838D01*
X8358Y10788D02*
X8291D01*
X8391Y10838D02*
X8458D01*
X8391D02*
Y10788D01*
X8425Y10805D01*
X8441D01*
X8458Y10788D01*
Y10755D01*
X8441Y10738D01*
X8408D01*
X8391Y10755D01*
X8491Y10788D02*
X8558D01*
X8591Y10821D02*
X8608Y10838D01*
X8641D01*
X8658Y10821D01*
Y10755D01*
X8641Y10738D01*
X8608D01*
X8591Y10755D01*
Y10821D01*
X8691Y10738D02*
X8758D01*
X8691D02*
X8758Y10805D01*
Y10821D01*
X8741Y10838D01*
X8708D01*
X8691Y10821D01*
X8891Y10838D02*
Y10738D01*
Y10838D02*
X8941D01*
X8958Y10821D01*
Y10788D01*
X8941Y10771D01*
X8891D01*
X8925D02*
X8958Y10738D01*
X8991Y10838D02*
X9058D01*
X8991D02*
Y10738D01*
X9058D01*
X9025Y10788D02*
X8991D01*
X9091Y10771D02*
Y10838D01*
Y10771D02*
X9125Y10738D01*
X9158Y10771D01*
Y10838D01*
X9291Y10805D02*
Y10738D01*
Y10805D02*
X9324Y10838D01*
X9358Y10805D01*
Y10738D01*
Y10788D01*
X9291D01*
X9541Y10838D02*
X9558Y10821D01*
X9541Y10838D02*
X9508D01*
X9491Y10821D01*
Y10755D01*
X9508Y10738D01*
X9541D01*
X9558Y10755D01*
X9608Y10838D02*
X9641D01*
X9608D02*
X9591Y10821D01*
Y10755D01*
X9608Y10738D01*
X9641D01*
X9658Y10755D01*
Y10821D01*
X9641Y10838D01*
X9691D02*
Y10738D01*
X9724Y10805D02*
X9691Y10838D01*
X9724Y10805D02*
X9758Y10838D01*
Y10738D01*
X9791D02*
Y10838D01*
X9841D01*
X9858Y10821D01*
Y10788D01*
X9841Y10771D01*
X9791D01*
X9908Y10838D02*
X9941D01*
X9908D02*
X9891Y10821D01*
Y10755D01*
X9908Y10738D01*
X9941D01*
X9958Y10755D01*
Y10821D01*
X9941Y10838D01*
X9991D02*
Y10738D01*
X10058D02*
X9991Y10838D01*
X10058D02*
Y10738D01*
X10091Y10838D02*
X10158D01*
X10091D02*
Y10738D01*
X10158D01*
X10124Y10788D02*
X10091D01*
X10191Y10738D02*
Y10838D01*
X10258Y10738D01*
Y10838D01*
X10291D02*
X10357D01*
X10324D01*
Y10738D01*
X10541Y10838D02*
X10557Y10821D01*
X10541Y10838D02*
X10507D01*
X10491Y10821D01*
Y10805D01*
X10507Y10788D01*
X10541D01*
X10557Y10771D01*
Y10755D01*
X10541Y10738D01*
X10507D01*
X10491Y10755D01*
X10591Y10838D02*
X10624D01*
X10607D01*
Y10738D01*
X10591D01*
X10624D01*
X10674D02*
Y10838D01*
Y10738D02*
X10724D01*
X10741Y10755D01*
Y10821D01*
X10724Y10838D01*
X10674D01*
X10774D02*
X10841D01*
X10774D02*
Y10738D01*
X10841D01*
X10807Y10788D02*
X10774D01*
D16*
X13000Y7413D02*
X13050Y7363D01*
Y7163D02*
X13000Y7113D01*
X13050Y7288D02*
Y7363D01*
Y7238D02*
Y7163D01*
D20*
X9575Y8388D02*
X9565Y8413D01*
X7798Y7263D02*
X7800Y7238D01*
X8625Y8413D02*
X8575Y8463D01*
X8650Y10043D02*
X8630Y10063D01*
X8950Y6638D02*
X9025Y6563D01*
X8900Y6913D02*
X8850Y6963D01*
X10575Y8813D02*
X10400Y8988D01*
X7450Y9113D02*
X7300Y9263D01*
X7450D02*
X7650Y9063D01*
X10300Y5263D02*
X10400Y5163D01*
X9800Y5063D02*
X9600Y5263D01*
X9700Y8313D02*
X9625Y8388D01*
X9950Y9788D02*
X9850Y9888D01*
X8975Y10263D02*
X8900Y10338D01*
X8975Y8938D02*
X9075Y8838D01*
X12250Y8913D02*
X12350Y8813D01*
X13500Y7813D02*
X13575Y7738D01*
X12700Y5863D02*
X12800Y5763D01*
X11250Y6363D02*
X11200Y6413D01*
X11150Y6188D02*
X11175Y6163D01*
X11350Y6488D02*
X11300Y6538D01*
X11275Y6563D01*
X8675Y7313D02*
X8600Y7388D01*
X8625Y6813D02*
X8675Y6763D01*
X8600Y6238D02*
X8725Y6113D01*
X9500Y6038D02*
X9700Y5838D01*
X9500Y6188D02*
X9450Y6238D01*
X7850Y6613D02*
X7825Y6638D01*
X7900Y6413D02*
X7975Y6338D01*
X8750Y7488D02*
X8650Y7588D01*
X7950Y8288D02*
X7750Y8488D01*
X12750Y7038D02*
X12800Y6988D01*
X13225Y6963D02*
X13275Y6913D01*
Y6313D02*
X13325Y6263D01*
X11800Y8413D02*
X11675Y8538D01*
X11090Y8388D02*
X11065Y8413D01*
X11000Y8013D02*
X11100Y7913D01*
X11125D02*
X11200Y7838D01*
Y7063D02*
X11275Y6988D01*
X9775Y8563D02*
X9700Y8638D01*
X12500Y7988D02*
X12575Y7913D01*
Y7463D02*
X12750Y7288D01*
X13300Y8413D02*
X13175Y8538D01*
X12600Y9113D02*
X12400Y9313D01*
X12150Y8788D02*
X12200Y8738D01*
X7400Y8563D02*
X7375Y8588D01*
X6800Y8413D02*
X6650Y8563D01*
X6800Y7963D02*
X6825Y7938D01*
X6650Y7088D02*
X6700Y7038D01*
X6200Y6813D02*
X6125Y6888D01*
X6700Y6963D02*
X6750Y6913D01*
X6200Y7638D02*
X6075Y7763D01*
X7850Y10163D02*
X7725Y10288D01*
X7650Y7536D02*
X7798Y7388D01*
X7700Y8388D02*
X7625Y8463D01*
X7800Y7238D02*
X7900Y7138D01*
X8550Y8013D02*
X8400Y8163D01*
Y8688D02*
X8175Y8913D01*
X7775Y7838D02*
X7900Y7713D01*
X11050Y6063D02*
X11150Y5963D01*
X11225Y7813D02*
X11200Y7838D01*
X10875Y7038D02*
X10925Y6988D01*
X11150Y7713D02*
X11100Y7763D01*
X12075Y8113D02*
X12200Y7988D01*
X13425Y7513D02*
X13500Y7588D01*
X13425Y7288D02*
X13225Y7088D01*
X8950Y6338D02*
X8900Y6288D01*
X9000D02*
X9025Y6313D01*
X9275Y8063D02*
X9350Y8138D01*
X10150Y7188D02*
X10050Y7088D01*
X10350Y8313D02*
X10575Y8538D01*
X10850Y7938D02*
X10775Y7863D01*
X10150Y9338D02*
X10400Y9588D01*
X7600Y10013D02*
X7450Y9863D01*
X7856Y10013D02*
X8006Y10163D01*
X11350Y5463D02*
X11250Y5363D01*
X6200Y5488D02*
X6150Y5438D01*
X11075Y8788D02*
X11100Y8813D01*
X9575Y8338D02*
X9500Y8263D01*
X8474Y10288D02*
X8524Y10338D01*
X9075Y8563D02*
X8750Y8238D01*
Y8138D02*
X8725Y8113D01*
X8675D02*
X8650Y8088D01*
X13550Y7488D02*
X13575Y7513D01*
X10325Y5913D02*
X10300Y5888D01*
X8075Y5688D02*
X8050Y5663D01*
X12750Y5513D02*
X12800Y5563D01*
X6200Y7163D02*
X6150Y7113D01*
X6125Y7088D01*
X11325Y6163D02*
X11350Y6188D01*
X8675Y7163D02*
X8625Y7113D01*
X9200Y6238D02*
X9175Y6213D01*
X9250Y5763D02*
X9150Y5663D01*
Y5438D02*
X9125Y5413D01*
X7825Y6988D02*
X7850Y7013D01*
X8475Y6513D02*
X8300Y6338D01*
X7750Y8738D02*
X7900Y8888D01*
X9225Y7513D02*
X9350Y7638D01*
X8950Y7513D02*
X8850Y7413D01*
X9350Y8013D02*
X9500Y8163D01*
X11300Y8288D02*
X11550Y8538D01*
X12125Y6338D02*
X12050Y6263D01*
X9775Y8263D02*
X9750Y8238D01*
X10575Y9689D02*
X10724Y9838D01*
X10375Y9213D02*
X10275Y9113D01*
Y8838D02*
X10200Y8763D01*
X9775D02*
X9750Y8738D01*
X10550Y9213D02*
X10575Y9238D01*
X11950Y8263D02*
X12000Y8313D01*
X11875Y7988D02*
X11825Y7938D01*
Y7688D02*
X11750Y7613D01*
Y7463D02*
X11700Y7413D01*
X12150Y8463D02*
X12200Y8513D01*
X12150Y8363D02*
X12075Y8288D01*
X12800Y8313D02*
X13025Y8538D01*
X12150Y9313D02*
X12375Y9538D01*
X12625D02*
X12675Y9588D01*
Y9688D02*
X12875Y9888D01*
X13125D02*
X13225Y9988D01*
X7450Y8838D02*
X7375Y8763D01*
X6425Y8388D02*
X6300Y8263D01*
X6425Y8438D02*
X6550Y8563D01*
X7350Y8238D02*
X7400Y8288D01*
X6825Y8063D02*
X6800Y8038D01*
X7025Y8063D02*
X7200Y8238D01*
X6525Y7088D02*
X6250Y6813D01*
X6500Y10013D02*
X6775Y10288D01*
X6500Y9213D02*
X6075Y8788D01*
X7650Y7913D02*
X7700Y7963D01*
X11200Y7413D02*
X11225Y7438D01*
X10925Y6788D02*
X10900Y6763D01*
X10875Y7163D02*
X11000Y7288D01*
Y7363D02*
X11075Y7438D01*
X11125D02*
X11150Y7463D01*
X6100Y6038D02*
X6000Y6138D01*
Y6588D02*
X6025Y6613D01*
X6100Y6038D02*
Y5613D01*
X6075Y7763D02*
Y8788D01*
X6000Y6588D02*
Y6138D01*
X10400Y5163D02*
X10500D01*
X6300Y5463D02*
Y5613D01*
X6150Y5438D02*
Y5363D01*
X6200Y5488D02*
Y5613D01*
Y6613D02*
Y6713D01*
X6125Y6888D02*
Y7088D01*
X6300Y8013D02*
Y8263D01*
X6200Y7363D02*
Y7163D01*
Y6813D02*
Y6713D01*
Y7363D02*
Y7463D01*
Y7638D01*
X8300Y5413D02*
X9050D01*
X9125D01*
X12700Y5513D02*
X12750D01*
X6425Y8388D02*
Y8413D01*
Y8438D01*
X6500Y9213D02*
Y10013D01*
X8000Y5663D02*
X8050D01*
X6700Y6963D02*
Y7038D01*
X10325Y5913D02*
X10400D01*
X6800Y5563D02*
Y5413D01*
Y7963D02*
Y8038D01*
X8000Y6013D02*
X8075D01*
X13550Y6063D02*
X13650D01*
X9150Y6113D02*
X8725D01*
X9150D02*
X9175D01*
X7100Y6013D02*
Y5863D01*
X11175Y6163D02*
X11325D01*
X9450Y6238D02*
X9200D01*
X13325Y6263D02*
X13550D01*
X12050D02*
X12000D01*
X8675Y6413D02*
X8600D01*
X8300Y6338D02*
X7975D01*
X13550Y6363D02*
X13650D01*
X7450Y9688D02*
Y9863D01*
X7300Y9713D02*
Y9263D01*
Y8913D02*
Y8463D01*
X7375Y8588D02*
Y8763D01*
X7450Y9063D02*
Y9113D01*
Y9063D02*
Y8838D01*
X7400Y8563D02*
Y8463D01*
Y8288D01*
X10050Y6563D02*
X10125D01*
X6200Y6613D02*
X6025D01*
X7850D02*
X7900D01*
X8525Y6513D02*
X8600D01*
X8475D01*
X11375Y6613D02*
X11450D01*
X11275Y6663D02*
X11200D01*
Y6563D02*
X11275D01*
X7650Y8813D02*
Y9063D01*
Y7913D02*
Y7536D01*
X8600Y6813D02*
X8625D01*
X8600Y6713D02*
X8525D01*
X6250Y6813D02*
X6200D01*
X10800Y6763D02*
X10900D01*
X11375Y6813D02*
X11450D01*
X13550Y6713D02*
X13650D01*
X7825Y6638D02*
Y6988D01*
X7750Y8488D02*
Y8738D01*
X7700Y8388D02*
Y7963D01*
X7798Y7388D02*
Y7263D01*
X7775Y7838D02*
Y8338D01*
X8900Y6913D02*
X8950D01*
X10050Y7013D02*
X10125D01*
X7900D02*
X7850D01*
X10650Y6963D02*
X10675D01*
X6650Y7088D02*
X6525D01*
X11375Y6913D02*
X11450D01*
X13550Y7063D02*
X13650D01*
X13225Y6963D02*
X13150D01*
X8000Y5563D02*
Y5413D01*
X8075Y5688D02*
Y6013D01*
X7900Y6413D02*
Y6613D01*
Y8888D02*
Y8913D01*
X7950Y8288D02*
Y8013D01*
X7900Y7138D02*
Y7013D01*
Y7513D02*
Y7713D01*
X8600Y7113D02*
X8625D01*
X10650D02*
X10675D01*
X10152Y7263D02*
X10150D01*
X12748Y7163D02*
X12750D01*
X11450Y7213D02*
X11375D01*
X13550Y7163D02*
X13650D01*
Y7338D02*
X13550D01*
X11450Y7413D02*
X11375D01*
X11450D02*
X11700D01*
X11125Y7438D02*
X11075D01*
X8300Y6013D02*
Y5863D01*
Y5563D02*
Y5413D01*
X8400Y8163D02*
Y8413D01*
Y8688D01*
X8950Y7513D02*
X9225D01*
X8630Y10063D02*
Y10163D01*
X8474D02*
Y10288D01*
X8600Y7463D02*
Y7388D01*
Y7113D02*
Y6813D01*
Y6413D02*
Y6238D01*
X8525Y6513D02*
Y6713D01*
X8650Y7788D02*
Y8088D01*
Y7788D02*
Y7588D01*
X8550Y7988D02*
Y8013D01*
Y7988D02*
Y7863D01*
X10600D02*
X10775D01*
X8850Y7313D02*
Y6963D01*
X8750Y8138D02*
Y8238D01*
X8675Y7313D02*
Y7163D01*
Y6763D02*
Y6413D01*
X8750Y6513D02*
Y7488D01*
X8850Y7413D02*
Y7313D01*
X11100Y7913D02*
X11125D01*
X12200Y7988D02*
X12500D01*
X9275Y8063D02*
X9100D01*
X7025D02*
X6825D01*
X8900Y6288D02*
Y6213D01*
X8950Y6338D02*
Y6413D01*
Y6638D02*
Y6713D01*
Y6813D01*
X9000Y6288D02*
Y6213D01*
X9025Y6313D02*
Y6563D01*
X8950Y6813D02*
Y6913D01*
X8975Y8938D02*
Y10263D01*
X8725Y8113D02*
X8675D01*
X11875Y8213D02*
X11950D01*
X13500Y8263D02*
X13515D01*
X11100D02*
X11090D01*
X11100D02*
X11000D01*
X7350Y8238D02*
X7200D01*
X11875Y8113D02*
X11950D01*
X9075Y8563D02*
Y8838D01*
X9175Y6213D02*
Y6113D01*
X9150Y5663D02*
Y5438D01*
X9250Y5763D02*
Y6113D01*
X8625Y8413D02*
X8615D01*
X9575Y8388D02*
X9625D01*
X13515Y8413D02*
X13525D01*
X11065D02*
X11050D01*
X12015D02*
X12025D01*
X12015D02*
X12000D01*
X7625Y8463D02*
X7600D01*
X9565Y8413D02*
X9575D01*
X9350D02*
Y8138D01*
Y8013D02*
Y7638D01*
X11550Y8538D02*
X11675D01*
X13025D02*
X13175D01*
X6650Y8563D02*
X6550D01*
X9600Y5513D02*
Y5263D01*
X9575Y8338D02*
Y8413D01*
X9500Y6188D02*
Y6038D01*
Y8163D02*
Y8263D01*
X9775Y8763D02*
X10200D01*
X9750Y8738D02*
X9700D01*
X9800Y5513D02*
Y5363D01*
X9700Y5513D02*
Y5838D01*
X9775Y8263D02*
Y8563D01*
X9750Y8238D02*
Y8213D01*
X9700Y8638D02*
Y8738D01*
X8175Y8913D02*
X7900D01*
X10000Y5413D02*
Y5263D01*
X9950Y9513D02*
Y9788D01*
X9850Y9888D02*
Y10013D01*
X10375Y9213D02*
X10550D01*
X10050Y7088D02*
Y7013D01*
X10150Y7188D02*
Y7263D01*
X10125Y7013D02*
Y6563D01*
X10150Y8863D02*
Y9338D01*
X10350Y8313D02*
Y8013D01*
X10400Y8988D02*
Y9063D01*
Y9588D02*
Y9863D01*
Y6163D02*
Y6013D01*
Y5913D01*
X10300Y5413D02*
Y5263D01*
Y5863D02*
Y5888D01*
Y5863D02*
Y5713D01*
X10275Y8838D02*
Y9113D01*
X12375Y9538D02*
X12625D01*
X10575Y8813D02*
Y8538D01*
Y9238D02*
Y9689D01*
X10675Y7113D02*
Y6963D01*
X10724Y9838D02*
Y10163D01*
X12875Y9888D02*
X13125D01*
X7856Y10013D02*
X7600D01*
X10850Y8413D02*
Y7938D01*
X11000Y8163D02*
Y8263D01*
Y8163D02*
Y8013D01*
X10925Y6988D02*
Y6788D01*
X10875Y7038D02*
Y7163D01*
X11000Y7288D02*
Y7363D01*
X11050Y5613D02*
Y5463D01*
X11200Y6413D02*
Y6463D01*
X11150Y6263D02*
Y6188D01*
X11090Y8263D02*
Y8388D01*
X11200Y7363D02*
Y7263D01*
Y7063D01*
X11150Y5963D02*
Y5313D01*
X11200Y7363D02*
Y7413D01*
X11150Y7463D02*
Y7713D01*
X11100Y7763D02*
Y7838D01*
X8900Y10338D02*
X8524D01*
X7725Y10288D02*
X6775D01*
X11250Y5363D02*
Y5313D01*
X11350Y5913D02*
Y6063D01*
X11250Y6263D02*
Y6363D01*
X11350Y6488D02*
Y6188D01*
X11275Y6563D02*
Y6663D01*
X11300Y8013D02*
Y8288D01*
X11275Y6988D02*
Y6663D01*
X11375Y7213D02*
Y7413D01*
Y7213D02*
Y6913D01*
Y6813D01*
Y6613D01*
X11225Y7438D02*
Y7813D01*
X11750Y7613D02*
Y7463D01*
X11875Y8113D02*
Y8213D01*
X11950D02*
Y8263D01*
X11875Y8113D02*
Y7988D01*
X11825Y7938D02*
Y7763D01*
Y7688D01*
X12125Y6488D02*
Y6338D01*
X12150Y7713D02*
Y7813D01*
X12000Y8313D02*
Y8413D01*
X12150Y8363D02*
Y8463D01*
Y8788D02*
Y9313D01*
X12075Y8288D02*
Y8113D01*
X12350Y8713D02*
Y8813D01*
X12200Y8738D02*
Y8513D01*
X12575Y7913D02*
Y7463D01*
X12700Y5413D02*
Y5263D01*
X12750Y7038D02*
Y7163D01*
Y7288D01*
X12600Y8813D02*
Y9113D01*
X12675Y9588D02*
Y9688D01*
X12800Y5763D02*
Y5563D01*
Y6913D02*
Y6988D01*
Y8013D02*
Y8313D01*
X13000Y5413D02*
Y5263D01*
Y5713D02*
Y5863D01*
X13225Y6963D02*
Y7088D01*
X13275Y6913D02*
Y6313D01*
X13225Y9988D02*
Y10113D01*
X13425Y7513D02*
Y7288D01*
X13515Y8263D02*
Y8413D01*
X13500Y8263D02*
Y8163D01*
Y8013D01*
Y7813D01*
X13550Y7488D02*
Y7413D01*
Y7338D01*
X13575Y7513D02*
Y7738D01*
X13650Y7338D02*
Y7138D01*
Y7163D01*
Y7063D01*
Y6713D01*
Y6363D01*
Y6063D01*
D22*
X13000Y7413D02*
D03*
X12950Y7363D02*
D03*
X12900Y7413D02*
D03*
X13100Y8013D02*
D03*
X13150Y7963D02*
D03*
X13200Y8013D02*
D03*
X12900Y7263D02*
D03*
X12950Y7213D02*
D03*
X13000Y7263D02*
D03*
X12900Y6063D02*
D03*
X12950Y6113D02*
D03*
X12900Y6163D02*
D03*
X12950Y6363D02*
D03*
X13000Y6413D02*
D03*
X12950Y6463D02*
D03*
X12900Y7113D02*
D03*
X12950Y7063D02*
D03*
X13000Y7113D02*
D03*
X12900Y6913D02*
D03*
X12950Y6863D02*
D03*
X13000Y6913D02*
D03*
X12650Y7813D02*
D03*
X12700Y7763D02*
D03*
X12750Y7813D02*
D03*
X11900Y7863D02*
D03*
X11950Y7813D02*
D03*
X12000Y7863D02*
D03*
X11550Y7663D02*
D03*
X11600Y7613D02*
D03*
X11650Y7663D02*
D03*
X12050Y7213D02*
D03*
X12000Y7263D02*
D03*
X11950Y7213D02*
D03*
X12050Y7063D02*
D03*
X12000Y7113D02*
D03*
X11950Y7063D02*
D03*
X11650Y7763D02*
D03*
X11600Y7813D02*
D03*
X11550Y7763D02*
D03*
X11950Y7413D02*
D03*
X12000Y7363D02*
D03*
X12050Y7413D02*
D03*
X12700Y6663D02*
D03*
X12650Y6713D02*
D03*
X12600Y6663D02*
D03*
Y6563D02*
D03*
X12650Y6513D02*
D03*
X12700Y6563D02*
D03*
X12100Y6663D02*
D03*
X12150Y6613D02*
D03*
X12200Y6663D02*
D03*
Y6763D02*
D03*
X12150Y6813D02*
D03*
X12100Y6763D02*
D03*
X10750Y7563D02*
D03*
X10800Y7513D02*
D03*
X10850Y7563D02*
D03*
X10550Y8013D02*
D03*
X10600Y7963D02*
D03*
X10650Y8013D02*
D03*
X10550Y7313D02*
D03*
X10600Y7263D02*
D03*
X10650Y7313D02*
D03*
X9950Y6813D02*
D03*
X9900Y6863D02*
D03*
X9850Y6813D02*
D03*
X10550Y6488D02*
D03*
X10600Y6438D02*
D03*
X10650Y6488D02*
D03*
Y6963D02*
D03*
X10600Y6913D02*
D03*
X10550Y6963D02*
D03*
Y6713D02*
D03*
X10600Y6663D02*
D03*
X10650Y6713D02*
D03*
X9850D02*
D03*
X9900Y6663D02*
D03*
X9950Y6713D02*
D03*
X9600D02*
D03*
X9650Y6663D02*
D03*
X9700Y6713D02*
D03*
Y6813D02*
D03*
X9650Y6863D02*
D03*
X9600Y6813D02*
D03*
X10550Y7113D02*
D03*
X10600Y7063D02*
D03*
X10650Y7113D02*
D03*
X9650Y7713D02*
D03*
X9600Y7763D02*
D03*
X9550Y7713D02*
D03*
X9500Y7213D02*
D03*
X9450Y7263D02*
D03*
X9400Y7213D02*
D03*
X9500Y7413D02*
D03*
X9450Y7463D02*
D03*
X9400Y7413D02*
D03*
X9150Y7763D02*
D03*
X9200Y7713D02*
D03*
X9250Y7763D02*
D03*
X9550Y7613D02*
D03*
X9600Y7563D02*
D03*
X9650Y7613D02*
D03*
X8350Y8013D02*
D03*
X8400Y7963D02*
D03*
X8450Y8013D02*
D03*
X8350Y7663D02*
D03*
X8400Y7613D02*
D03*
X8450Y7663D02*
D03*
X9600Y7013D02*
D03*
X9550Y7063D02*
D03*
X9500Y7013D02*
D03*
X9450Y6513D02*
D03*
X9500Y6463D02*
D03*
X9550Y6513D02*
D03*
X6850Y7113D02*
D03*
X6800Y7163D02*
D03*
X6750Y7113D02*
D03*
X6650Y7213D02*
D03*
X6600Y7263D02*
D03*
X6550Y7213D02*
D03*
X8000Y7263D02*
D03*
X8050Y7213D02*
D03*
X8100Y7263D02*
D03*
X8000Y7463D02*
D03*
X8050Y7413D02*
D03*
X8100Y7463D02*
D03*
X6825Y7838D02*
D03*
X6875Y7788D02*
D03*
X6925Y7838D02*
D03*
Y7938D02*
D03*
X6875Y7988D02*
D03*
X6825Y7938D02*
D03*
X6550Y8013D02*
D03*
X6600Y7963D02*
D03*
X6650Y8013D02*
D03*
X6850Y6913D02*
D03*
X6800Y6963D02*
D03*
X6750Y6913D02*
D03*
X8100Y6463D02*
D03*
X8050Y6513D02*
D03*
X8000Y6463D02*
D03*
X6800Y6513D02*
D03*
X6850Y6463D02*
D03*
X6900Y6513D02*
D03*
X7050Y6813D02*
D03*
X7000Y6863D02*
D03*
X6950Y6813D02*
D03*
Y6713D02*
D03*
X7000Y6663D02*
D03*
X7050Y6713D02*
D03*
X7400Y6813D02*
D03*
X7350Y6863D02*
D03*
X7300Y6813D02*
D03*
Y6713D02*
D03*
X7350Y6663D02*
D03*
X7400Y6713D02*
D03*
X8000Y6813D02*
D03*
X8050Y6763D02*
D03*
X8100Y6813D02*
D03*
Y7013D02*
D03*
X8050Y6963D02*
D03*
X8000Y7013D02*
D03*
D25*
X12900Y5538D02*
D03*
Y5713D02*
D03*
X12475Y5563D02*
D03*
X12400Y6113D02*
D03*
X12225Y6063D02*
D03*
X12025Y8063D02*
D03*
X11650Y7513D02*
D03*
X11600Y5563D02*
D03*
X11425Y6363D02*
D03*
X11075Y7513D02*
D03*
X11100Y6463D02*
D03*
Y6863D02*
D03*
X10925Y5913D02*
D03*
Y5813D02*
D03*
X10975Y6413D02*
D03*
X10725Y5288D02*
D03*
X10450Y6363D02*
D03*
X10600Y5863D02*
D03*
Y5963D02*
D03*
Y6313D02*
D03*
X10475Y5988D02*
D03*
X10550Y5013D02*
D03*
X10250Y5038D02*
D03*
X9900Y5288D02*
D03*
X9425Y7713D02*
D03*
X9325Y5363D02*
D03*
Y5038D02*
D03*
X9250Y5938D02*
D03*
X9000Y5788D02*
D03*
X8750Y5613D02*
D03*
Y6513D02*
D03*
Y6713D02*
D03*
X8550Y5488D02*
D03*
X8175Y5163D02*
D03*
X7775Y8338D02*
D03*
X7800Y6188D02*
D03*
X7750Y5013D02*
D03*
X7550Y5163D02*
D03*
X7650Y5113D02*
D03*
X7025Y5063D02*
D03*
X13100Y8263D02*
D03*
X13500D02*
D03*
X13100Y8163D02*
D03*
X13500D02*
D03*
X13150Y7413D02*
D03*
X13550D02*
D03*
X13150Y7163D02*
D03*
X13550D02*
D03*
X13150Y7263D02*
D03*
X13550D02*
D03*
X13250Y7813D02*
D03*
X12850D02*
D03*
X13250Y7713D02*
D03*
X12850D02*
D03*
Y7613D02*
D03*
X13250D02*
D03*
X13500Y8013D02*
D03*
Y7588D02*
D03*
X13450Y6063D02*
D03*
X13550D02*
D03*
X13150Y7063D02*
D03*
X13550D02*
D03*
Y6963D02*
D03*
X13150D02*
D03*
Y6863D02*
D03*
X13550D02*
D03*
X13150Y6263D02*
D03*
X13550D02*
D03*
X13150Y6363D02*
D03*
X13550D02*
D03*
X13150Y6463D02*
D03*
X13550D02*
D03*
X13150Y6563D02*
D03*
X13550D02*
D03*
X13450Y6713D02*
D03*
X13550D02*
D03*
X13100Y5613D02*
D03*
X13600D02*
D03*
X12700Y5863D02*
D03*
X13000D02*
D03*
X13500Y5463D02*
D03*
X13100D02*
D03*
X12400Y9313D02*
D03*
Y9738D02*
D03*
X12150Y8213D02*
D03*
Y7813D02*
D03*
Y7713D02*
D03*
X11750D02*
D03*
X12350Y8313D02*
D03*
Y8713D02*
D03*
X12475Y8313D02*
D03*
Y8713D02*
D03*
X12300Y7863D02*
D03*
X12500D02*
D03*
X12400Y7763D02*
D03*
X11950Y8213D02*
D03*
X11550D02*
D03*
X11950Y8113D02*
D03*
X11550D02*
D03*
X11950Y8013D02*
D03*
X11550D02*
D03*
X11850Y7613D02*
D03*
X12250D02*
D03*
X12450Y7563D02*
D03*
X12750D02*
D03*
X12748Y7163D02*
D03*
X12552D02*
D03*
X11450Y7213D02*
D03*
X11850D02*
D03*
X11450Y7413D02*
D03*
X11850D02*
D03*
X12150Y7363D02*
D03*
Y6963D02*
D03*
X12250Y7213D02*
D03*
Y7413D02*
D03*
X12200Y8313D02*
D03*
Y8738D02*
D03*
X12250Y7513D02*
D03*
X11850D02*
D03*
X11575Y6438D02*
D03*
X11675D02*
D03*
X11925Y5913D02*
D03*
X11525D02*
D03*
X11925Y6013D02*
D03*
X11525D02*
D03*
X12400Y6263D02*
D03*
X12000D02*
D03*
Y6363D02*
D03*
X12400D02*
D03*
X12525Y6338D02*
D03*
X12625D02*
D03*
X12125Y6488D02*
D03*
X12525D02*
D03*
X11050Y6063D02*
D03*
X11350D02*
D03*
X12400Y6913D02*
D03*
X12800D02*
D03*
X12400Y6813D02*
D03*
X12800D02*
D03*
X11200Y6763D02*
D03*
X10800D02*
D03*
X11200Y6963D02*
D03*
X10800D02*
D03*
X12400Y7013D02*
D03*
Y7413D02*
D03*
X11450Y6613D02*
D03*
X11850D02*
D03*
X11450Y6813D02*
D03*
X11850D02*
D03*
X11450Y6913D02*
D03*
X11850D02*
D03*
X11450Y7013D02*
D03*
X11850D02*
D03*
X12700Y5613D02*
D03*
X13000Y5713D02*
D03*
Y5613D02*
D03*
Y5513D02*
D03*
Y5413D02*
D03*
X12700D02*
D03*
Y5513D02*
D03*
X12200Y5563D02*
D03*
X12600D02*
D03*
Y5713D02*
D03*
X12100D02*
D03*
X11450Y5813D02*
D03*
X11850D02*
D03*
Y5713D02*
D03*
X11450D02*
D03*
Y5613D02*
D03*
X11850D02*
D03*
X11350Y5313D02*
D03*
X11250D02*
D03*
X11150D02*
D03*
X13000Y5263D02*
D03*
X12700D02*
D03*
X11450Y5513D02*
D03*
X11850D02*
D03*
X9950Y9513D02*
D03*
Y9938D02*
D03*
X10150Y8113D02*
D03*
X9750D02*
D03*
X10150Y7563D02*
D03*
X9850D02*
D03*
X11000Y7663D02*
D03*
X10600D02*
D03*
X11000Y7763D02*
D03*
X10600D02*
D03*
X11000Y7863D02*
D03*
X10600D02*
D03*
Y8263D02*
D03*
X11000D02*
D03*
X10600Y8163D02*
D03*
X11000D02*
D03*
X9900Y7863D02*
D03*
X10100D02*
D03*
X10000Y7763D02*
D03*
X10250Y7513D02*
D03*
Y7913D02*
D03*
X9750D02*
D03*
Y7513D02*
D03*
X10152Y7263D02*
D03*
X10348D02*
D03*
X9700Y7113D02*
D03*
Y7313D02*
D03*
X10800Y7363D02*
D03*
X11200D02*
D03*
X10800Y7263D02*
D03*
X11200D02*
D03*
X11050Y7113D02*
D03*
X10950D02*
D03*
X11100Y8263D02*
D03*
Y7838D02*
D03*
X9700Y8313D02*
D03*
Y8738D02*
D03*
X9750Y8213D02*
D03*
X10150D02*
D03*
X9850Y7013D02*
D03*
Y7413D02*
D03*
X9950Y7013D02*
D03*
Y7413D02*
D03*
X10050Y6813D02*
D03*
X10450D02*
D03*
X10800Y6163D02*
D03*
X10400D02*
D03*
Y6013D02*
D03*
X10800D02*
D03*
Y5913D02*
D03*
X10400D02*
D03*
Y5813D02*
D03*
X10800D02*
D03*
Y5713D02*
D03*
X10400D02*
D03*
X10800Y5613D02*
D03*
X10400D02*
D03*
X10000Y5863D02*
D03*
X10300D02*
D03*
X10000Y5613D02*
D03*
X10300Y5713D02*
D03*
Y5613D02*
D03*
Y5513D02*
D03*
Y5413D02*
D03*
X10000D02*
D03*
Y5513D02*
D03*
X11050Y5813D02*
D03*
X11350Y5913D02*
D03*
Y5813D02*
D03*
Y5713D02*
D03*
Y5613D02*
D03*
X11050D02*
D03*
Y5713D02*
D03*
X10050Y6713D02*
D03*
X10450D02*
D03*
X10050Y6563D02*
D03*
X10450D02*
D03*
X9900Y6413D02*
D03*
Y6513D02*
D03*
X10050Y6913D02*
D03*
X10450D02*
D03*
Y7013D02*
D03*
X10050D02*
D03*
X10800Y6463D02*
D03*
X11200D02*
D03*
X10800Y6563D02*
D03*
X11200D02*
D03*
X10800Y6663D02*
D03*
X11200D02*
D03*
X10800Y6863D02*
D03*
X11200D02*
D03*
X11250Y6263D02*
D03*
X11150D02*
D03*
X10500Y5163D02*
D03*
X10600D02*
D03*
X10800Y5513D02*
D03*
X10400D02*
D03*
Y5413D02*
D03*
X10800D02*
D03*
X10400Y5313D02*
D03*
X10800D02*
D03*
X10300Y5263D02*
D03*
X10000D02*
D03*
X11350Y5463D02*
D03*
X11050D02*
D03*
X9800Y5063D02*
D03*
Y5363D02*
D03*
X8850Y7413D02*
D03*
X9250D02*
D03*
X8200Y7113D02*
D03*
X8600D02*
D03*
X8200Y7463D02*
D03*
X8600D02*
D03*
X9500Y8263D02*
D03*
X9100D02*
D03*
X9500Y8163D02*
D03*
X9100D02*
D03*
X9500Y8063D02*
D03*
X9100D02*
D03*
Y7963D02*
D03*
X9500D02*
D03*
X9100Y7863D02*
D03*
X9500D02*
D03*
X8850Y7313D02*
D03*
X9250D02*
D03*
X8600Y7213D02*
D03*
X8200D02*
D03*
X8150Y8213D02*
D03*
X8550D02*
D03*
X8150Y8113D02*
D03*
X8550D02*
D03*
X8150Y7863D02*
D03*
X8550D02*
D03*
X8150Y7763D02*
D03*
X8550D02*
D03*
X8650Y8213D02*
D03*
Y7788D02*
D03*
X8400Y5763D02*
D03*
X8900D02*
D03*
X8200Y6413D02*
D03*
X8600D02*
D03*
X8200Y6513D02*
D03*
X8600D02*
D03*
X8350Y6963D02*
D03*
X8450D02*
D03*
X8200Y6613D02*
D03*
X8600D02*
D03*
X8200Y6713D02*
D03*
X8600D02*
D03*
X8200Y6813D02*
D03*
X8600D02*
D03*
X8950D02*
D03*
X9350D02*
D03*
X8950Y6713D02*
D03*
X9350D02*
D03*
X8950Y6913D02*
D03*
X9350D02*
D03*
X8950Y7013D02*
D03*
X9350D02*
D03*
X8950Y6513D02*
D03*
X9350D02*
D03*
Y6413D02*
D03*
X8950D02*
D03*
X9050Y5713D02*
D03*
X9450D02*
D03*
X9050Y5613D02*
D03*
X9450D02*
D03*
X8850D02*
D03*
X8450D02*
D03*
X8000Y6013D02*
D03*
X8300D02*
D03*
X9250Y6113D02*
D03*
X9150D02*
D03*
X9000Y6213D02*
D03*
X8900D02*
D03*
X9050Y5513D02*
D03*
X9450D02*
D03*
Y5413D02*
D03*
X9050D02*
D03*
X9450Y5313D02*
D03*
X9050D02*
D03*
X8450Y5513D02*
D03*
X8850D02*
D03*
X7450Y9263D02*
D03*
Y9688D02*
D03*
Y8663D02*
D03*
Y9063D02*
D03*
X7200Y7113D02*
D03*
X7000D02*
D03*
X6750Y7263D02*
D03*
X7150D02*
D03*
X7750Y7663D02*
D03*
X8150D02*
D03*
X7350Y7713D02*
D03*
Y7413D02*
D03*
X7500Y7513D02*
D03*
X7900D02*
D03*
X7798Y7263D02*
D03*
X7602D02*
D03*
X6850Y7513D02*
D03*
X7050D02*
D03*
X6950Y7413D02*
D03*
X6700Y7913D02*
D03*
Y7513D02*
D03*
X7200Y7563D02*
D03*
Y7963D02*
D03*
X7600Y8463D02*
D03*
Y8063D02*
D03*
X7500Y8463D02*
D03*
Y8063D02*
D03*
X7400Y8463D02*
D03*
Y8063D02*
D03*
X7300D02*
D03*
Y8463D02*
D03*
X7000Y8263D02*
D03*
X6600D02*
D03*
X7000Y8163D02*
D03*
X6600D02*
D03*
X7200Y8313D02*
D03*
Y8738D02*
D03*
X7500Y6713D02*
D03*
X7900D02*
D03*
X7500Y6813D02*
D03*
X7900D02*
D03*
X7500Y6913D02*
D03*
X7900D02*
D03*
X6800Y5763D02*
D03*
X7100Y5863D02*
D03*
Y5763D02*
D03*
Y5663D02*
D03*
Y5563D02*
D03*
X6800D02*
D03*
Y5663D02*
D03*
X6600Y7013D02*
D03*
X6200D02*
D03*
X7300Y6463D02*
D03*
X7400D02*
D03*
X7500Y7013D02*
D03*
X7900D02*
D03*
Y6613D02*
D03*
X7500D02*
D03*
X8000Y5763D02*
D03*
X8300Y5863D02*
D03*
Y5763D02*
D03*
Y5663D02*
D03*
Y5563D02*
D03*
X8000D02*
D03*
Y5663D02*
D03*
X7900Y5863D02*
D03*
X7400D02*
D03*
X7450Y5713D02*
D03*
X7850D02*
D03*
X7250Y6313D02*
D03*
Y5813D02*
D03*
Y5663D02*
D03*
Y5263D02*
D03*
X6650Y6313D02*
D03*
Y5813D02*
D03*
Y5663D02*
D03*
Y5263D02*
D03*
X6800Y6013D02*
D03*
X7100D02*
D03*
X7600Y5313D02*
D03*
X7900D02*
D03*
X7800Y5413D02*
D03*
Y5313D02*
D03*
X7700Y5413D02*
D03*
Y5313D02*
D03*
X7600Y5413D02*
D03*
X7500D02*
D03*
Y5313D02*
D03*
X8300Y5413D02*
D03*
X8000D02*
D03*
X7100D02*
D03*
X6800D02*
D03*
X6200Y7463D02*
D03*
X6600D02*
D03*
X6200Y7363D02*
D03*
X6600D02*
D03*
X6200Y6513D02*
D03*
X6600D02*
D03*
X6200Y6613D02*
D03*
X6600D02*
D03*
X6200Y6713D02*
D03*
X6600D02*
D03*
X6200Y6813D02*
D03*
X6600D02*
D03*
X6200Y6913D02*
D03*
X6600D02*
D03*
X6300Y5163D02*
D03*
Y5463D02*
D03*
X6050Y5363D02*
D03*
X6150D02*
D03*
D30*
X13380Y10113D02*
X13478Y10015D01*
X7015Y8413D02*
Y8263D01*
X7000D02*
Y8163D01*
Y8263D02*
X7015D01*
Y8413D02*
X7025D01*
X10880Y9938D02*
Y10163D01*
X12475Y10113D02*
X12600D01*
X10100Y10163D02*
X9975D01*
X7850D02*
X7700D01*
X6188Y8613D02*
X6188D01*
X6188D02*
X6188Y8600D01*
X6191Y8587D01*
X6194Y8575D01*
X6199Y8563D01*
X6206Y8551D01*
X6214Y8541D01*
X6223Y8531D01*
X6233Y8523D01*
X6244Y8516D01*
X6255Y8510D01*
X6268Y8505D01*
X6280Y8502D01*
X6293Y8501D01*
X6307D01*
X6320Y8502D01*
X6332Y8505D01*
X6345Y8510D01*
X6356Y8516D01*
X6367Y8523D01*
X6377Y8531D01*
X6386Y8541D01*
X6394Y8551D01*
X6401Y8563D01*
X6406Y8575D01*
X6409Y8587D01*
X6412Y8600D01*
X6412Y8613D01*
X6414D01*
X6412D02*
X6412Y8626D01*
X6409Y8639D01*
X6406Y8651D01*
X6401Y8663D01*
X6394Y8675D01*
X6386Y8685D01*
X6377Y8695D01*
X6367Y8703D01*
X6356Y8710D01*
X6345Y8716D01*
X6332Y8721D01*
X6320Y8724D01*
X6307Y8725D01*
X6293D01*
X6280Y8724D01*
X6268Y8721D01*
X6255Y8716D01*
X6244Y8710D01*
X6233Y8703D01*
X6223Y8695D01*
X6214Y8685D01*
X6206Y8675D01*
X6199Y8663D01*
X6194Y8651D01*
X6191Y8639D01*
X6188Y8626D01*
X6188Y8613D01*
X6260D02*
X6262D01*
X6260D02*
X6261Y8605D01*
X6264Y8597D01*
X6268Y8590D01*
X6274Y8584D01*
X6280Y8579D01*
X6288Y8575D01*
X6296Y8574D01*
X6304D01*
X6312Y8575D01*
X6320Y8579D01*
X6326Y8584D01*
X6332Y8590D01*
X6336Y8597D01*
X6339Y8605D01*
X6340Y8613D01*
X6340D01*
X6340D02*
X6339Y8621D01*
X6336Y8629D01*
X6332Y8636D01*
X6326Y8642D01*
X6320Y8647D01*
X6312Y8651D01*
X6304Y8652D01*
X6296D01*
X6288Y8651D01*
X6280Y8647D01*
X6274Y8642D01*
X6268Y8636D01*
X6264Y8629D01*
X6261Y8621D01*
X6260Y8613D01*
X6300D02*
D03*
X12688D02*
X12688D01*
X12688D02*
X12688Y8600D01*
X12691Y8587D01*
X12694Y8575D01*
X12699Y8563D01*
X12706Y8551D01*
X12714Y8541D01*
X12723Y8531D01*
X12733Y8523D01*
X12744Y8516D01*
X12755Y8510D01*
X12768Y8505D01*
X12780Y8502D01*
X12793Y8501D01*
X12807D01*
X12820Y8502D01*
X12832Y8505D01*
X12845Y8510D01*
X12856Y8516D01*
X12867Y8523D01*
X12877Y8531D01*
X12886Y8541D01*
X12894Y8551D01*
X12901Y8563D01*
X12906Y8575D01*
X12909Y8587D01*
X12912Y8600D01*
X12912Y8613D01*
X12914D01*
X12912D02*
X12912Y8626D01*
X12909Y8639D01*
X12906Y8651D01*
X12901Y8663D01*
X12894Y8675D01*
X12886Y8685D01*
X12877Y8695D01*
X12867Y8703D01*
X12856Y8710D01*
X12845Y8716D01*
X12832Y8721D01*
X12820Y8724D01*
X12807Y8725D01*
X12793D01*
X12780Y8724D01*
X12768Y8721D01*
X12755Y8716D01*
X12744Y8710D01*
X12733Y8703D01*
X12723Y8695D01*
X12714Y8685D01*
X12706Y8675D01*
X12699Y8663D01*
X12694Y8651D01*
X12691Y8639D01*
X12688Y8626D01*
X12688Y8613D01*
X12760D02*
X12762D01*
X12760D02*
X12761Y8605D01*
X12764Y8597D01*
X12768Y8590D01*
X12774Y8584D01*
X12780Y8579D01*
X12788Y8575D01*
X12796Y8574D01*
X12804D01*
X12812Y8575D01*
X12820Y8579D01*
X12826Y8584D01*
X12832Y8590D01*
X12836Y8597D01*
X12839Y8605D01*
X12840Y8613D01*
X12840D01*
X12840D02*
X12839Y8621D01*
X12836Y8629D01*
X12832Y8636D01*
X12826Y8642D01*
X12820Y8647D01*
X12812Y8651D01*
X12804Y8652D01*
X12796D01*
X12788Y8651D01*
X12780Y8647D01*
X12774Y8642D01*
X12768Y8636D01*
X12764Y8629D01*
X12761Y8621D01*
X12760Y8613D01*
X12800D02*
D03*
X13188Y9588D02*
X13188D01*
X13188D02*
X13188Y9575D01*
X13191Y9562D01*
X13194Y9550D01*
X13199Y9538D01*
X13206Y9526D01*
X13214Y9516D01*
X13223Y9506D01*
X13233Y9498D01*
X13244Y9491D01*
X13255Y9485D01*
X13268Y9480D01*
X13280Y9477D01*
X13293Y9476D01*
X13307D01*
X13320Y9477D01*
X13332Y9480D01*
X13345Y9485D01*
X13356Y9491D01*
X13367Y9498D01*
X13377Y9506D01*
X13386Y9516D01*
X13394Y9526D01*
X13401Y9538D01*
X13406Y9550D01*
X13409Y9562D01*
X13412Y9575D01*
X13412Y9588D01*
X13414D01*
X13412D02*
X13412Y9601D01*
X13409Y9614D01*
X13406Y9626D01*
X13401Y9638D01*
X13394Y9650D01*
X13386Y9660D01*
X13377Y9670D01*
X13367Y9678D01*
X13356Y9685D01*
X13345Y9691D01*
X13332Y9696D01*
X13320Y9699D01*
X13307Y9700D01*
X13293D01*
X13280Y9699D01*
X13268Y9696D01*
X13255Y9691D01*
X13244Y9685D01*
X13233Y9678D01*
X13223Y9670D01*
X13214Y9660D01*
X13206Y9650D01*
X13199Y9638D01*
X13194Y9626D01*
X13191Y9614D01*
X13188Y9601D01*
X13188Y9588D01*
X13260D02*
X13262D01*
X13260D02*
X13261Y9580D01*
X13264Y9572D01*
X13268Y9565D01*
X13274Y9559D01*
X13280Y9554D01*
X13288Y9550D01*
X13296Y9549D01*
X13304D01*
X13312Y9550D01*
X13320Y9554D01*
X13326Y9559D01*
X13332Y9565D01*
X13336Y9572D01*
X13339Y9580D01*
X13340Y9588D01*
X13340D01*
X13340D02*
X13339Y9596D01*
X13336Y9604D01*
X13332Y9611D01*
X13326Y9617D01*
X13320Y9622D01*
X13312Y9626D01*
X13304Y9627D01*
X13296D01*
X13288Y9626D01*
X13280Y9622D01*
X13274Y9617D01*
X13268Y9611D01*
X13264Y9604D01*
X13261Y9596D01*
X13260Y9588D01*
X13300D02*
D03*
X11188Y8613D02*
X11188D01*
X11188D02*
X11188Y8600D01*
X11191Y8587D01*
X11194Y8575D01*
X11199Y8563D01*
X11206Y8551D01*
X11214Y8541D01*
X11223Y8531D01*
X11233Y8523D01*
X11244Y8516D01*
X11255Y8510D01*
X11268Y8505D01*
X11280Y8502D01*
X11293Y8501D01*
X11307D01*
X11320Y8502D01*
X11332Y8505D01*
X11345Y8510D01*
X11356Y8516D01*
X11367Y8523D01*
X11377Y8531D01*
X11386Y8541D01*
X11394Y8551D01*
X11401Y8563D01*
X11406Y8575D01*
X11409Y8587D01*
X11412Y8600D01*
X11412Y8613D01*
X11414D01*
X11412D02*
X11412Y8626D01*
X11409Y8639D01*
X11406Y8651D01*
X11401Y8663D01*
X11394Y8675D01*
X11386Y8685D01*
X11377Y8695D01*
X11367Y8703D01*
X11356Y8710D01*
X11345Y8716D01*
X11332Y8721D01*
X11320Y8724D01*
X11307Y8725D01*
X11293D01*
X11280Y8724D01*
X11268Y8721D01*
X11255Y8716D01*
X11244Y8710D01*
X11233Y8703D01*
X11223Y8695D01*
X11214Y8685D01*
X11206Y8675D01*
X11199Y8663D01*
X11194Y8651D01*
X11191Y8639D01*
X11188Y8626D01*
X11188Y8613D01*
X11260D02*
X11262D01*
X11260D02*
X11261Y8605D01*
X11264Y8597D01*
X11268Y8590D01*
X11274Y8584D01*
X11280Y8579D01*
X11288Y8575D01*
X11296Y8574D01*
X11304D01*
X11312Y8575D01*
X11320Y8579D01*
X11326Y8584D01*
X11332Y8590D01*
X11336Y8597D01*
X11339Y8605D01*
X11340Y8613D01*
X11340D01*
X11340D02*
X11339Y8621D01*
X11336Y8629D01*
X11332Y8636D01*
X11326Y8642D01*
X11320Y8647D01*
X11312Y8651D01*
X11304Y8652D01*
X11296D01*
X11288Y8651D01*
X11280Y8647D01*
X11274Y8642D01*
X11268Y8636D01*
X11264Y8629D01*
X11261Y8621D01*
X11260Y8613D01*
X11300D02*
D03*
X11688Y9588D02*
X11688D01*
X11688D02*
X11688Y9575D01*
X11691Y9562D01*
X11694Y9550D01*
X11699Y9538D01*
X11706Y9526D01*
X11714Y9516D01*
X11723Y9506D01*
X11733Y9498D01*
X11744Y9491D01*
X11755Y9485D01*
X11768Y9480D01*
X11780Y9477D01*
X11793Y9476D01*
X11807D01*
X11820Y9477D01*
X11832Y9480D01*
X11845Y9485D01*
X11856Y9491D01*
X11867Y9498D01*
X11877Y9506D01*
X11886Y9516D01*
X11894Y9526D01*
X11901Y9538D01*
X11906Y9550D01*
X11909Y9562D01*
X11912Y9575D01*
X11912Y9588D01*
X11914D01*
X11912D02*
X11912Y9601D01*
X11909Y9614D01*
X11906Y9626D01*
X11901Y9638D01*
X11894Y9650D01*
X11886Y9660D01*
X11877Y9670D01*
X11867Y9678D01*
X11856Y9685D01*
X11845Y9691D01*
X11832Y9696D01*
X11820Y9699D01*
X11807Y9700D01*
X11793D01*
X11780Y9699D01*
X11768Y9696D01*
X11755Y9691D01*
X11744Y9685D01*
X11733Y9678D01*
X11723Y9670D01*
X11714Y9660D01*
X11706Y9650D01*
X11699Y9638D01*
X11694Y9626D01*
X11691Y9614D01*
X11688Y9601D01*
X11688Y9588D01*
X11760D02*
X11762D01*
X11760D02*
X11761Y9580D01*
X11764Y9572D01*
X11768Y9565D01*
X11774Y9559D01*
X11780Y9554D01*
X11788Y9550D01*
X11796Y9549D01*
X11804D01*
X11812Y9550D01*
X11820Y9554D01*
X11826Y9559D01*
X11832Y9565D01*
X11836Y9572D01*
X11839Y9580D01*
X11840Y9588D01*
X11840D01*
X11840D02*
X11839Y9596D01*
X11836Y9604D01*
X11832Y9611D01*
X11826Y9617D01*
X11820Y9622D01*
X11812Y9626D01*
X11804Y9627D01*
X11796D01*
X11788Y9626D01*
X11780Y9622D01*
X11774Y9617D01*
X11768Y9611D01*
X11764Y9604D01*
X11761Y9596D01*
X11760Y9588D01*
X11800D02*
D03*
X10738D02*
X10738D01*
X10738D02*
X10738Y9575D01*
X10741Y9562D01*
X10744Y9550D01*
X10749Y9538D01*
X10756Y9526D01*
X10764Y9516D01*
X10773Y9506D01*
X10783Y9498D01*
X10794Y9491D01*
X10805Y9485D01*
X10818Y9480D01*
X10830Y9477D01*
X10843Y9476D01*
X10857D01*
X10870Y9477D01*
X10882Y9480D01*
X10895Y9485D01*
X10906Y9491D01*
X10917Y9498D01*
X10927Y9506D01*
X10936Y9516D01*
X10944Y9526D01*
X10951Y9538D01*
X10956Y9550D01*
X10959Y9562D01*
X10962Y9575D01*
X10962Y9588D01*
X10964D01*
X10962D02*
X10962Y9601D01*
X10959Y9614D01*
X10956Y9626D01*
X10951Y9638D01*
X10944Y9650D01*
X10936Y9660D01*
X10927Y9670D01*
X10917Y9678D01*
X10906Y9685D01*
X10895Y9691D01*
X10882Y9696D01*
X10870Y9699D01*
X10857Y9700D01*
X10843D01*
X10830Y9699D01*
X10818Y9696D01*
X10805Y9691D01*
X10794Y9685D01*
X10783Y9678D01*
X10773Y9670D01*
X10764Y9660D01*
X10756Y9650D01*
X10749Y9638D01*
X10744Y9626D01*
X10741Y9614D01*
X10738Y9601D01*
X10738Y9588D01*
X10810D02*
X10812D01*
X10810D02*
X10811Y9580D01*
X10814Y9572D01*
X10818Y9565D01*
X10824Y9559D01*
X10830Y9554D01*
X10838Y9550D01*
X10846Y9549D01*
X10854D01*
X10862Y9550D01*
X10870Y9554D01*
X10876Y9559D01*
X10882Y9565D01*
X10886Y9572D01*
X10889Y9580D01*
X10890Y9588D01*
X10890D01*
X10890D02*
X10889Y9596D01*
X10886Y9604D01*
X10882Y9611D01*
X10876Y9617D01*
X10870Y9622D01*
X10862Y9626D01*
X10854Y9627D01*
X10846D01*
X10838Y9626D01*
X10830Y9622D01*
X10824Y9617D01*
X10818Y9611D01*
X10814Y9604D01*
X10811Y9596D01*
X10810Y9588D01*
X10850D02*
D03*
X10238Y8613D02*
X10238D01*
X10238D02*
X10238Y8600D01*
X10241Y8587D01*
X10244Y8575D01*
X10249Y8563D01*
X10256Y8551D01*
X10264Y8541D01*
X10273Y8531D01*
X10283Y8523D01*
X10294Y8516D01*
X10305Y8510D01*
X10318Y8505D01*
X10330Y8502D01*
X10343Y8501D01*
X10357D01*
X10370Y8502D01*
X10382Y8505D01*
X10395Y8510D01*
X10406Y8516D01*
X10417Y8523D01*
X10427Y8531D01*
X10436Y8541D01*
X10444Y8551D01*
X10451Y8563D01*
X10456Y8575D01*
X10459Y8587D01*
X10462Y8600D01*
X10462Y8613D01*
X10464D01*
X10462D02*
X10462Y8626D01*
X10459Y8639D01*
X10456Y8651D01*
X10451Y8663D01*
X10444Y8675D01*
X10436Y8685D01*
X10427Y8695D01*
X10417Y8703D01*
X10406Y8710D01*
X10395Y8716D01*
X10382Y8721D01*
X10370Y8724D01*
X10357Y8725D01*
X10343D01*
X10330Y8724D01*
X10318Y8721D01*
X10305Y8716D01*
X10294Y8710D01*
X10283Y8703D01*
X10273Y8695D01*
X10264Y8685D01*
X10256Y8675D01*
X10249Y8663D01*
X10244Y8651D01*
X10241Y8639D01*
X10238Y8626D01*
X10238Y8613D01*
X10310D02*
X10312D01*
X10310D02*
X10311Y8605D01*
X10314Y8597D01*
X10318Y8590D01*
X10324Y8584D01*
X10330Y8579D01*
X10338Y8575D01*
X10346Y8574D01*
X10354D01*
X10362Y8575D01*
X10370Y8579D01*
X10376Y8584D01*
X10382Y8590D01*
X10386Y8597D01*
X10389Y8605D01*
X10390Y8613D01*
X10390D01*
X10390D02*
X10389Y8621D01*
X10386Y8629D01*
X10382Y8636D01*
X10376Y8642D01*
X10370Y8647D01*
X10362Y8651D01*
X10354Y8652D01*
X10346D01*
X10338Y8651D01*
X10330Y8647D01*
X10324Y8642D01*
X10318Y8636D01*
X10314Y8629D01*
X10311Y8621D01*
X10310Y8613D01*
X10350D02*
D03*
X8288Y9588D02*
X8288D01*
X8288D02*
X8288Y9575D01*
X8291Y9562D01*
X8294Y9550D01*
X8299Y9538D01*
X8306Y9526D01*
X8314Y9516D01*
X8323Y9506D01*
X8333Y9498D01*
X8344Y9491D01*
X8355Y9485D01*
X8368Y9480D01*
X8380Y9477D01*
X8393Y9476D01*
X8407D01*
X8420Y9477D01*
X8432Y9480D01*
X8445Y9485D01*
X8456Y9491D01*
X8467Y9498D01*
X8477Y9506D01*
X8486Y9516D01*
X8494Y9526D01*
X8501Y9538D01*
X8506Y9550D01*
X8509Y9562D01*
X8512Y9575D01*
X8512Y9588D01*
X8514D01*
X8512D02*
X8512Y9601D01*
X8509Y9614D01*
X8506Y9626D01*
X8501Y9638D01*
X8494Y9650D01*
X8486Y9660D01*
X8477Y9670D01*
X8467Y9678D01*
X8456Y9685D01*
X8445Y9691D01*
X8432Y9696D01*
X8420Y9699D01*
X8407Y9700D01*
X8393D01*
X8380Y9699D01*
X8368Y9696D01*
X8355Y9691D01*
X8344Y9685D01*
X8333Y9678D01*
X8323Y9670D01*
X8314Y9660D01*
X8306Y9650D01*
X8299Y9638D01*
X8294Y9626D01*
X8291Y9614D01*
X8288Y9601D01*
X8288Y9588D01*
X8360D02*
X8362D01*
X8360D02*
X8361Y9580D01*
X8364Y9572D01*
X8368Y9565D01*
X8374Y9559D01*
X8380Y9554D01*
X8388Y9550D01*
X8396Y9549D01*
X8404D01*
X8412Y9550D01*
X8420Y9554D01*
X8426Y9559D01*
X8432Y9565D01*
X8436Y9572D01*
X8439Y9580D01*
X8440Y9588D01*
X8440D01*
X8440D02*
X8439Y9596D01*
X8436Y9604D01*
X8432Y9611D01*
X8426Y9617D01*
X8420Y9622D01*
X8412Y9626D01*
X8404Y9627D01*
X8396D01*
X8388Y9626D01*
X8380Y9622D01*
X8374Y9617D01*
X8368Y9611D01*
X8364Y9604D01*
X8361Y9596D01*
X8360Y9588D01*
X8400D02*
D03*
X9238D02*
X9238D01*
X9238D02*
X9238Y9575D01*
X9241Y9562D01*
X9244Y9550D01*
X9249Y9538D01*
X9256Y9526D01*
X9264Y9516D01*
X9273Y9506D01*
X9283Y9498D01*
X9294Y9491D01*
X9305Y9485D01*
X9318Y9480D01*
X9330Y9477D01*
X9343Y9476D01*
X9357D01*
X9370Y9477D01*
X9382Y9480D01*
X9395Y9485D01*
X9406Y9491D01*
X9417Y9498D01*
X9427Y9506D01*
X9436Y9516D01*
X9444Y9526D01*
X9451Y9538D01*
X9456Y9550D01*
X9459Y9562D01*
X9462Y9575D01*
X9462Y9588D01*
X9464D01*
X9462D02*
X9462Y9601D01*
X9459Y9614D01*
X9456Y9626D01*
X9451Y9638D01*
X9444Y9650D01*
X9436Y9660D01*
X9427Y9670D01*
X9417Y9678D01*
X9406Y9685D01*
X9395Y9691D01*
X9382Y9696D01*
X9370Y9699D01*
X9357Y9700D01*
X9343D01*
X9330Y9699D01*
X9318Y9696D01*
X9305Y9691D01*
X9294Y9685D01*
X9283Y9678D01*
X9273Y9670D01*
X9264Y9660D01*
X9256Y9650D01*
X9249Y9638D01*
X9244Y9626D01*
X9241Y9614D01*
X9238Y9601D01*
X9238Y9588D01*
X9310D02*
X9312D01*
X9310D02*
X9311Y9580D01*
X9314Y9572D01*
X9318Y9565D01*
X9324Y9559D01*
X9330Y9554D01*
X9338Y9550D01*
X9346Y9549D01*
X9354D01*
X9362Y9550D01*
X9370Y9554D01*
X9376Y9559D01*
X9382Y9565D01*
X9386Y9572D01*
X9389Y9580D01*
X9390Y9588D01*
X9390D01*
X9390D02*
X9389Y9596D01*
X9386Y9604D01*
X9382Y9611D01*
X9376Y9617D01*
X9370Y9622D01*
X9362Y9626D01*
X9354Y9627D01*
X9346D01*
X9338Y9626D01*
X9330Y9622D01*
X9324Y9617D01*
X9318Y9611D01*
X9314Y9604D01*
X9311Y9596D01*
X9310Y9588D01*
X9350D02*
D03*
X8738Y8613D02*
X8738D01*
X8738D02*
X8738Y8600D01*
X8741Y8587D01*
X8744Y8575D01*
X8749Y8563D01*
X8756Y8551D01*
X8764Y8541D01*
X8773Y8531D01*
X8783Y8523D01*
X8794Y8516D01*
X8805Y8510D01*
X8818Y8505D01*
X8830Y8502D01*
X8843Y8501D01*
X8857D01*
X8870Y8502D01*
X8882Y8505D01*
X8895Y8510D01*
X8906Y8516D01*
X8917Y8523D01*
X8927Y8531D01*
X8936Y8541D01*
X8944Y8551D01*
X8951Y8563D01*
X8956Y8575D01*
X8959Y8587D01*
X8962Y8600D01*
X8962Y8613D01*
X8964D01*
X8962D02*
X8962Y8626D01*
X8959Y8639D01*
X8956Y8651D01*
X8951Y8663D01*
X8944Y8675D01*
X8936Y8685D01*
X8927Y8695D01*
X8917Y8703D01*
X8906Y8710D01*
X8895Y8716D01*
X8882Y8721D01*
X8870Y8724D01*
X8857Y8725D01*
X8843D01*
X8830Y8724D01*
X8818Y8721D01*
X8805Y8716D01*
X8794Y8710D01*
X8783Y8703D01*
X8773Y8695D01*
X8764Y8685D01*
X8756Y8675D01*
X8749Y8663D01*
X8744Y8651D01*
X8741Y8639D01*
X8738Y8626D01*
X8738Y8613D01*
X8810D02*
X8812D01*
X8810D02*
X8811Y8605D01*
X8814Y8597D01*
X8818Y8590D01*
X8824Y8584D01*
X8830Y8579D01*
X8838Y8575D01*
X8846Y8574D01*
X8854D01*
X8862Y8575D01*
X8870Y8579D01*
X8876Y8584D01*
X8882Y8590D01*
X8886Y8597D01*
X8889Y8605D01*
X8890Y8613D01*
X8890D01*
X8890D02*
X8889Y8621D01*
X8886Y8629D01*
X8882Y8636D01*
X8876Y8642D01*
X8870Y8647D01*
X8862Y8651D01*
X8854Y8652D01*
X8846D01*
X8838Y8651D01*
X8830Y8647D01*
X8824Y8642D01*
X8818Y8636D01*
X8814Y8629D01*
X8811Y8621D01*
X8810Y8613D01*
X8850D02*
D03*
X9588Y6213D02*
X9588D01*
X9588D02*
X9588Y6200D01*
X9591Y6187D01*
X9594Y6175D01*
X9599Y6163D01*
X9606Y6151D01*
X9614Y6141D01*
X9623Y6131D01*
X9633Y6123D01*
X9644Y6116D01*
X9655Y6110D01*
X9668Y6105D01*
X9680Y6102D01*
X9693Y6101D01*
X9707D01*
X9720Y6102D01*
X9732Y6105D01*
X9745Y6110D01*
X9756Y6116D01*
X9767Y6123D01*
X9777Y6131D01*
X9786Y6141D01*
X9794Y6151D01*
X9801Y6163D01*
X9806Y6175D01*
X9809Y6187D01*
X9812Y6200D01*
X9812Y6213D01*
X9814D01*
X9812D02*
X9812Y6226D01*
X9809Y6239D01*
X9806Y6251D01*
X9801Y6263D01*
X9794Y6275D01*
X9786Y6285D01*
X9777Y6295D01*
X9767Y6303D01*
X9756Y6310D01*
X9745Y6316D01*
X9732Y6321D01*
X9720Y6324D01*
X9707Y6325D01*
X9693D01*
X9680Y6324D01*
X9668Y6321D01*
X9655Y6316D01*
X9644Y6310D01*
X9633Y6303D01*
X9623Y6295D01*
X9614Y6285D01*
X9606Y6275D01*
X9599Y6263D01*
X9594Y6251D01*
X9591Y6239D01*
X9588Y6226D01*
X9588Y6213D01*
X9660D02*
X9662D01*
X9660D02*
X9661Y6205D01*
X9664Y6197D01*
X9668Y6190D01*
X9674Y6184D01*
X9680Y6179D01*
X9688Y6175D01*
X9696Y6174D01*
X9704D01*
X9712Y6175D01*
X9720Y6179D01*
X9726Y6184D01*
X9732Y6190D01*
X9736Y6197D01*
X9739Y6205D01*
X9740Y6213D01*
X9740D01*
X9740D02*
X9739Y6221D01*
X9736Y6229D01*
X9732Y6236D01*
X9726Y6242D01*
X9720Y6247D01*
X9712Y6251D01*
X9704Y6252D01*
X9696D01*
X9688Y6251D01*
X9680Y6247D01*
X9674Y6242D01*
X9668Y6236D01*
X9664Y6229D01*
X9661Y6221D01*
X9660Y6213D01*
X9700D02*
D03*
X7838Y8613D02*
X7838D01*
X7838D02*
X7838Y8600D01*
X7841Y8587D01*
X7844Y8575D01*
X7849Y8563D01*
X7856Y8551D01*
X7864Y8541D01*
X7873Y8531D01*
X7883Y8523D01*
X7894Y8516D01*
X7905Y8510D01*
X7918Y8505D01*
X7930Y8502D01*
X7943Y8501D01*
X7957D01*
X7970Y8502D01*
X7982Y8505D01*
X7995Y8510D01*
X8006Y8516D01*
X8017Y8523D01*
X8027Y8531D01*
X8036Y8541D01*
X8044Y8551D01*
X8051Y8563D01*
X8056Y8575D01*
X8059Y8587D01*
X8062Y8600D01*
X8062Y8613D01*
X8064D01*
X8062D02*
X8062Y8626D01*
X8059Y8639D01*
X8056Y8651D01*
X8051Y8663D01*
X8044Y8675D01*
X8036Y8685D01*
X8027Y8695D01*
X8017Y8703D01*
X8006Y8710D01*
X7995Y8716D01*
X7982Y8721D01*
X7970Y8724D01*
X7957Y8725D01*
X7943D01*
X7930Y8724D01*
X7918Y8721D01*
X7905Y8716D01*
X7894Y8710D01*
X7883Y8703D01*
X7873Y8695D01*
X7864Y8685D01*
X7856Y8675D01*
X7849Y8663D01*
X7844Y8651D01*
X7841Y8639D01*
X7838Y8626D01*
X7838Y8613D01*
X7910D02*
X7912D01*
X7910D02*
X7911Y8605D01*
X7914Y8597D01*
X7918Y8590D01*
X7924Y8584D01*
X7930Y8579D01*
X7938Y8575D01*
X7946Y8574D01*
X7954D01*
X7962Y8575D01*
X7970Y8579D01*
X7976Y8584D01*
X7982Y8590D01*
X7986Y8597D01*
X7989Y8605D01*
X7990Y8613D01*
X7990D01*
X7990D02*
X7989Y8621D01*
X7986Y8629D01*
X7982Y8636D01*
X7976Y8642D01*
X7970Y8647D01*
X7962Y8651D01*
X7954Y8652D01*
X7946D01*
X7938Y8651D01*
X7930Y8647D01*
X7924Y8642D01*
X7918Y8636D01*
X7914Y8629D01*
X7911Y8621D01*
X7910Y8613D01*
X7950D02*
D03*
X6688Y9588D02*
X6688D01*
X6688D02*
X6688Y9575D01*
X6691Y9562D01*
X6694Y9550D01*
X6699Y9538D01*
X6706Y9526D01*
X6714Y9516D01*
X6723Y9506D01*
X6733Y9498D01*
X6744Y9491D01*
X6755Y9485D01*
X6768Y9480D01*
X6780Y9477D01*
X6793Y9476D01*
X6807D01*
X6820Y9477D01*
X6832Y9480D01*
X6845Y9485D01*
X6856Y9491D01*
X6867Y9498D01*
X6877Y9506D01*
X6886Y9516D01*
X6894Y9526D01*
X6901Y9538D01*
X6906Y9550D01*
X6909Y9562D01*
X6912Y9575D01*
X6912Y9588D01*
X6914D01*
X6912D02*
X6912Y9601D01*
X6909Y9614D01*
X6906Y9626D01*
X6901Y9638D01*
X6894Y9650D01*
X6886Y9660D01*
X6877Y9670D01*
X6867Y9678D01*
X6856Y9685D01*
X6845Y9691D01*
X6832Y9696D01*
X6820Y9699D01*
X6807Y9700D01*
X6793D01*
X6780Y9699D01*
X6768Y9696D01*
X6755Y9691D01*
X6744Y9685D01*
X6733Y9678D01*
X6723Y9670D01*
X6714Y9660D01*
X6706Y9650D01*
X6699Y9638D01*
X6694Y9626D01*
X6691Y9614D01*
X6688Y9601D01*
X6688Y9588D01*
X6760D02*
X6762D01*
X6760D02*
X6761Y9580D01*
X6764Y9572D01*
X6768Y9565D01*
X6774Y9559D01*
X6780Y9554D01*
X6788Y9550D01*
X6796Y9549D01*
X6804D01*
X6812Y9550D01*
X6820Y9554D01*
X6826Y9559D01*
X6832Y9565D01*
X6836Y9572D01*
X6839Y9580D01*
X6840Y9588D01*
X6840D01*
X6840D02*
X6839Y9596D01*
X6836Y9604D01*
X6832Y9611D01*
X6826Y9617D01*
X6820Y9622D01*
X6812Y9626D01*
X6804Y9627D01*
X6796D01*
X6788Y9626D01*
X6780Y9622D01*
X6774Y9617D01*
X6768Y9611D01*
X6764Y9604D01*
X6761Y9596D01*
X6760Y9588D01*
X6800D02*
D03*
X6088Y6313D02*
X6088D01*
X6088D02*
X6088Y6300D01*
X6091Y6287D01*
X6094Y6275D01*
X6099Y6263D01*
X6106Y6251D01*
X6114Y6241D01*
X6123Y6231D01*
X6133Y6223D01*
X6144Y6216D01*
X6155Y6210D01*
X6168Y6205D01*
X6180Y6202D01*
X6193Y6201D01*
X6207D01*
X6220Y6202D01*
X6232Y6205D01*
X6245Y6210D01*
X6256Y6216D01*
X6267Y6223D01*
X6277Y6231D01*
X6286Y6241D01*
X6294Y6251D01*
X6301Y6263D01*
X6306Y6275D01*
X6309Y6287D01*
X6312Y6300D01*
X6312Y6313D01*
X6314D01*
X6312D02*
X6312Y6326D01*
X6309Y6339D01*
X6306Y6351D01*
X6301Y6363D01*
X6294Y6375D01*
X6286Y6385D01*
X6277Y6395D01*
X6267Y6403D01*
X6256Y6410D01*
X6245Y6416D01*
X6232Y6421D01*
X6220Y6424D01*
X6207Y6425D01*
X6193D01*
X6180Y6424D01*
X6168Y6421D01*
X6155Y6416D01*
X6144Y6410D01*
X6133Y6403D01*
X6123Y6395D01*
X6114Y6385D01*
X6106Y6375D01*
X6099Y6363D01*
X6094Y6351D01*
X6091Y6339D01*
X6088Y6326D01*
X6088Y6313D01*
X6160D02*
X6162D01*
X6160D02*
X6161Y6305D01*
X6164Y6297D01*
X6168Y6290D01*
X6174Y6284D01*
X6180Y6279D01*
X6188Y6275D01*
X6196Y6274D01*
X6204D01*
X6212Y6275D01*
X6220Y6279D01*
X6226Y6284D01*
X6232Y6290D01*
X6236Y6297D01*
X6239Y6305D01*
X6240Y6313D01*
X6240D01*
X6240D02*
X6239Y6321D01*
X6236Y6329D01*
X6232Y6336D01*
X6226Y6342D01*
X6220Y6347D01*
X6212Y6351D01*
X6204Y6352D01*
X6196D01*
X6188Y6351D01*
X6180Y6347D01*
X6174Y6342D01*
X6168Y6336D01*
X6164Y6329D01*
X6161Y6321D01*
X6160Y6313D01*
X6200D02*
D03*
D33*
X12850Y8913D02*
D03*
Y9713D02*
D03*
X12250D02*
D03*
Y8913D02*
D03*
X11200Y10013D02*
D03*
X12200D02*
D03*
X12600Y8813D02*
D03*
Y9813D02*
D03*
X10400Y9063D02*
D03*
Y9863D02*
D03*
X10150D02*
D03*
Y8863D02*
D03*
X9800Y9763D02*
D03*
Y8963D02*
D03*
X9850Y10013D02*
D03*
X8850D02*
D03*
X7900Y8913D02*
D03*
Y9713D02*
D03*
X7650Y8813D02*
D03*
Y9813D02*
D03*
X7300Y9713D02*
D03*
Y8913D02*
D03*
X7350Y10013D02*
D03*
X6350D02*
D03*
D35*
X12756Y10113D02*
D03*
X12912D02*
D03*
X13068D02*
D03*
X13224D02*
D03*
X13380D02*
D03*
X12600D02*
D03*
X10256Y10163D02*
D03*
X10412D02*
D03*
X10568D02*
D03*
X10724D02*
D03*
X10880D02*
D03*
X10100D02*
D03*
X8006D02*
D03*
X8162D02*
D03*
X8318D02*
D03*
X8474D02*
D03*
X8630D02*
D03*
X7850D02*
D03*
D39*
X12000Y8788D02*
X12025Y8763D01*
X12350Y10113D02*
X12300Y10163D01*
X13478Y10015D02*
X13575Y9918D01*
X11100Y9718D02*
X10880Y9938D01*
X12000Y9388D02*
X12050Y9438D01*
Y10063D02*
X12150Y10163D01*
X13575Y8613D02*
X13525Y8563D01*
X11075Y8788D02*
X11050Y8763D01*
X9650Y9163D02*
X9575Y9088D01*
X9650Y10063D02*
X9750Y10163D01*
X7125Y9213D02*
X7025Y9113D01*
X7125Y10113D02*
X7175Y10163D01*
X8575Y8838D02*
X8650Y8913D01*
X12000Y8788D02*
Y9388D01*
X12050Y9438D02*
Y10063D01*
X12025Y8763D02*
Y8413D01*
X13575Y8613D02*
Y9918D01*
X13525Y8563D02*
Y8413D01*
X11050D02*
Y8763D01*
X11100Y8813D02*
Y9718D01*
X9575Y9088D02*
Y8413D01*
X9650Y9163D02*
Y10063D01*
X7025Y9113D02*
Y8413D01*
X7125Y9213D02*
Y10113D01*
X8650Y10043D02*
Y8913D01*
X8575Y8838D02*
Y8463D01*
X12150Y10163D02*
X12300D01*
X12350Y10113D02*
X12475D01*
X9975Y10163D02*
X9750D01*
X7700D02*
X7175D01*
X13515Y8413D02*
D03*
X13300D02*
D03*
X13085D02*
D03*
X12015D02*
D03*
X11800D02*
D03*
X11585D02*
D03*
X11065D02*
D03*
X10850D02*
D03*
X10635D02*
D03*
X8615D02*
D03*
X8400D02*
D03*
X8185D02*
D03*
X9565D02*
D03*
X9350D02*
D03*
X9135D02*
D03*
X7015D02*
D03*
X6800D02*
D03*
X6585D02*
D03*
D42*
X6206Y8013D02*
D03*
X6300D02*
D03*
X6394D02*
D03*
X12706D02*
D03*
X12800D02*
D03*
X12894D02*
D03*
X11206D02*
D03*
X11300D02*
D03*
X11394D02*
D03*
X12700Y5713D02*
D03*
X11450Y5313D02*
D03*
X10256Y8013D02*
D03*
X10350D02*
D03*
X10444D02*
D03*
X10000Y5713D02*
D03*
X11050Y5913D02*
D03*
X8756Y8013D02*
D03*
X8850D02*
D03*
X8944D02*
D03*
X7856D02*
D03*
X7950D02*
D03*
X8044D02*
D03*
X6800Y5863D02*
D03*
X8000D02*
D03*
X7900Y5413D02*
D03*
D44*
X9700Y5513D02*
D03*
X9600D02*
D03*
X9800D02*
D03*
X6300Y5613D02*
D03*
X6200D02*
D03*
X6100D02*
D03*
M02*
