M71
M48
T1F00S00C0.032
T2F00S00C0.036
T3F00S00C0.060
T4F00S00C0.070
T5F00S00C0.095
%
T01
X011Y021
X0115Y0215
X011Y022
T02
X024Y002
X025
X026
X0255Y00525
X034Y002
X035
X036
X044
X045
X046
X054
X055
X056
X064
X065
X066
X074
X075
X076
X07775Y00275
X07325Y0065
X07225
Y0105
X07325
Y012
X07425
X07525
X07675
Y015
X07525
X07425
X07325
X07225
Y0165
X07325
X07425
X07525
X07625
X07725
Y0205
X07625
X07525
X07425
X07325
X07225
X07075Y015
Y012
X07225
X0675
Y015
X0625
Y012
X054
Y015
X0535Y017
X0525
X0545
Y021
X0535
X0525
X0535Y006
X0505Y0065
X0495
Y0105
X0505
Y012
X0515
X0525
Y015
X0515
X0505
X0495
X048
Y012
X0495
Y017
X0505
X0515
Y021
X0505
X0495
X038
X037
Y017
X038
X0375Y015
Y012
X036
X035
X034
X033
Y0105
X034
Y0065
X033
X0315Y012
Y015
X033
X034
X035
X036
Y017
X035
X034
X033
Y021
X034
X035
X036
X025Y0205
X024
Y0165
X025
Y015
X024
X023
X0215
Y012
X023
X024
X025
X026
X0275
Y015
X026
X024Y0105
X023
Y0065
X024
X02Y007
Y003
X0195Y012
X018
X017
X016
X015
X0125
Y015
X015
X016
X017
X018
X0195
X019Y02
X012Y019
X0145Y022
X0155
X0165
Y026
X0155
X0145
X032Y0225
X0485Y02225
T03
X005Y002
X0065Y005
X0075Y007
X0175
X0165Y005
X015Y002
T04
X06266Y02
X06422
X06578
X06734
T05
X0035Y003
X0065
X005Y008
X015
X0135Y003
X0165
M30
