*%FSLAX23Y23*%
*%MOIN*%
G01*
%ADD11C,0.007*%
%ADD12C,0.008*%
%ADD13C,0.010*%
%ADD14C,0.012*%
%ADD15C,0.020*%
%ADD16C,0.032*%
%ADD17C,0.036*%
%ADD18C,0.050*%
%ADD19C,0.052*%
%ADD20C,0.055*%
%ADD21C,0.056*%
%ADD22C,0.060*%
%ADD23C,0.061*%
%ADD24C,0.062*%
%ADD25C,0.066*%
%ADD26C,0.068*%
%ADD27C,0.070*%
%ADD28C,0.080*%
%ADD29C,0.090*%
%ADD30C,0.095*%
%ADD31C,0.115*%
%ADD32C,0.120*%
%ADD33C,0.125*%
%ADD34C,0.126*%
%ADD35C,0.131*%
%ADD36C,0.150*%
%ADD37C,0.156*%
%ADD38R,0.062X0.062*%
%ADD39R,0.068X0.068*%
D11*
X10858Y7562D02*
Y7602D01*
X10898D01*
Y7562D01*
X10858D01*
X10683Y7687D02*
Y7727D01*
X10723D01*
Y7687D01*
X10683D01*
X9958Y8312D02*
Y8352D01*
X9998D01*
Y8312D01*
X9958D01*
X8633Y8202D02*
Y8162D01*
Y8202D02*
X8673D01*
Y8162D01*
X8633D01*
X8573Y6807D02*
X8572Y6800D01*
X8568Y6794D01*
X8563Y6790D01*
X8556Y6787D01*
X8550D01*
X8543Y6790D01*
X8538Y6794D01*
X8534Y6800D01*
X8533Y6807D01*
X8534Y6814D01*
X8538Y6820D01*
X8543Y6824D01*
X8550Y6827D01*
X8556D01*
X8563Y6824D01*
X8568Y6820D01*
X8572Y6814D01*
X8573Y6807D01*
X8873D02*
X8872Y6800D01*
X8868Y6794D01*
X8863Y6790D01*
X8856Y6787D01*
X8850D01*
X8843Y6790D01*
X8838Y6794D01*
X8834Y6800D01*
X8833Y6807D01*
X8834Y6814D01*
X8838Y6820D01*
X8843Y6824D01*
X8850Y6827D01*
X8856D01*
X8863Y6824D01*
X8868Y6820D01*
X8872Y6814D01*
X8873Y6807D01*
X8953Y7187D02*
X8933Y7227D01*
X8973D01*
X8953Y7187D01*
X8833Y7027D02*
X8853Y6987D01*
X8833Y7027D02*
X8873D01*
X8853Y6987D01*
X8723Y7307D02*
X8722Y7300D01*
X8718Y7294D01*
X8713Y7290D01*
X8706Y7287D01*
X8700D01*
X8693Y7290D01*
X8688Y7294D01*
X8684Y7300D01*
X8683Y7307D01*
X8684Y7314D01*
X8688Y7320D01*
X8693Y7324D01*
X8700Y7327D01*
X8706D01*
X8713Y7324D01*
X8718Y7320D01*
X8722Y7314D01*
X8723Y7307D01*
X8683Y6727D02*
X8703Y6687D01*
X8683Y6727D02*
X8723D01*
X8703Y6687D01*
X8733Y7487D02*
Y7527D01*
X8773D01*
Y7487D01*
X8733D01*
Y7887D02*
Y7927D01*
X8773D01*
Y7887D01*
X8733D01*
X8633D02*
Y7927D01*
X8673D01*
Y7887D01*
X8633D01*
Y7527D02*
Y7487D01*
Y7527D02*
X8673D01*
Y7487D01*
X8633D01*
Y8037D02*
Y8077D01*
X8673D01*
Y8037D01*
X8633D01*
X8833D02*
Y8077D01*
X8873D01*
Y8037D01*
X8833D01*
X8933D02*
Y8077D01*
X8973D01*
Y8037D01*
X8933D01*
Y8337D02*
Y8377D01*
X8973D01*
Y8337D01*
X8933D01*
X8833D02*
Y8377D01*
X8873D01*
Y8337D01*
X8833D01*
X8733D02*
Y8377D01*
X8773D01*
Y8337D01*
X8733D01*
X8633D02*
Y8377D01*
X8673D01*
Y8337D01*
X8633D01*
X8733Y8077D02*
Y8037D01*
Y8077D02*
X8773D01*
Y8037D01*
X8733D01*
X8383Y8887D02*
Y8927D01*
X8423D01*
Y8887D01*
X8383D01*
Y8527D02*
Y8487D01*
Y8527D02*
X8423D01*
Y8487D01*
X8383D01*
X8483Y8377D02*
Y8337D01*
Y8377D02*
X8523D01*
Y8337D01*
X8483D01*
Y8077D02*
Y8037D01*
Y8077D02*
X8523D01*
Y8037D01*
X8483D01*
X8603Y8887D02*
X8613Y8897D01*
X8623D01*
X8613Y8907D01*
X8623Y8917D01*
X8613D01*
X8603Y8927D01*
X8593Y8917D01*
X8583D01*
X8593Y8907D01*
X8583Y8897D01*
X8593D01*
X8603Y8887D01*
X8653Y8837D02*
X8663Y8847D01*
X8673D01*
X8663Y8857D01*
X8673Y8867D01*
X8663D01*
X8653Y8877D01*
X8643Y8867D01*
X8633D01*
X8643Y8857D01*
X8633Y8847D01*
X8643D01*
X8653Y8837D01*
X8613Y8797D02*
X8603Y8787D01*
X8613Y8797D02*
X8623D01*
X8613Y8807D01*
X8623Y8817D01*
X8613D01*
X8603Y8827D01*
X8593Y8817D01*
X8583D01*
X8593Y8807D01*
X8583Y8797D01*
X8593D01*
X8603Y8787D01*
X8733Y8727D02*
Y8687D01*
Y8727D02*
X8773D01*
Y8687D01*
X8733D01*
Y9087D02*
Y9127D01*
X8773D01*
Y9087D01*
X8733D01*
X9573Y6807D02*
X9572Y6800D01*
X9568Y6794D01*
X9563Y6790D01*
X9556Y6787D01*
X9550D01*
X9543Y6790D01*
X9538Y6794D01*
X9534Y6800D01*
X9533Y6807D01*
X9534Y6814D01*
X9538Y6820D01*
X9543Y6824D01*
X9550Y6827D01*
X9556D01*
X9563Y6824D01*
X9568Y6820D01*
X9572Y6814D01*
X9573Y6807D01*
X9873D02*
X9872Y6800D01*
X9868Y6794D01*
X9863Y6790D01*
X9856Y6787D01*
X9850D01*
X9843Y6790D01*
X9838Y6794D01*
X9834Y6800D01*
X9833Y6807D01*
X9834Y6814D01*
X9838Y6820D01*
X9843Y6824D01*
X9850Y6827D01*
X9856D01*
X9863Y6824D01*
X9868Y6820D01*
X9872Y6814D01*
X9873Y6807D01*
X9953Y7187D02*
X9933Y7227D01*
X9973D01*
X9953Y7187D01*
X9833Y7027D02*
X9853Y6987D01*
X9833Y7027D02*
X9873D01*
X9853Y6987D01*
X9723Y7307D02*
X9722Y7300D01*
X9718Y7294D01*
X9713Y7290D01*
X9706Y7287D01*
X9700D01*
X9693Y7290D01*
X9688Y7294D01*
X9684Y7300D01*
X9683Y7307D01*
X9684Y7314D01*
X9688Y7320D01*
X9693Y7324D01*
X9700Y7327D01*
X9706D01*
X9713Y7324D01*
X9718Y7320D01*
X9722Y7314D01*
X9723Y7307D01*
X9683Y6727D02*
X9703Y6687D01*
X9683Y6727D02*
X9723D01*
X9703Y6687D01*
X9761Y8587D02*
X9771Y8607D01*
X9761Y8627D01*
X9781Y8617D01*
X9801Y8627D01*
X9791Y8607D01*
X9801Y8587D01*
X9781Y8597D01*
X9761Y8587D01*
X9459Y8607D02*
X9449Y8587D01*
X9459Y8607D02*
X9449Y8627D01*
X9469Y8617D01*
X9489Y8627D01*
X9479Y8607D01*
X9489Y8587D01*
X9469Y8597D01*
X9449Y8587D01*
X9917D02*
X9927Y8607D01*
X9917Y8627D01*
X9937Y8617D01*
X9957Y8627D01*
X9947Y8607D01*
X9957Y8587D01*
X9937Y8597D01*
X9917Y8587D01*
X9615Y8607D02*
X9605Y8587D01*
X9615Y8607D02*
X9605Y8627D01*
X9625Y8617D01*
X9645Y8627D01*
X9635Y8607D01*
X9645Y8587D01*
X9625Y8597D01*
X9605Y8587D01*
X10033Y8077D02*
Y8037D01*
Y8077D02*
X10073D01*
Y8037D01*
X10033D01*
Y8337D02*
Y8377D01*
X10073D01*
Y8337D01*
X10033D01*
X9833Y7527D02*
Y7487D01*
Y7527D02*
X9873D01*
Y7487D01*
X9833D01*
Y7887D02*
Y7927D01*
X9873D01*
Y7887D01*
X9833D01*
X9083Y8037D02*
Y8077D01*
X9123D01*
Y8037D01*
X9083D01*
Y8337D02*
Y8377D01*
X9123D01*
Y8337D01*
X9083D01*
X9933Y7927D02*
Y7887D01*
Y7927D02*
X9973D01*
Y7887D01*
X9933D01*
Y7527D02*
Y7487D01*
Y7527D02*
X9973D01*
Y7487D01*
X9933D01*
X9733Y7887D02*
Y7927D01*
X9773D01*
Y7887D01*
X9733D01*
Y7527D02*
Y7487D01*
Y7527D02*
X9773D01*
Y7487D01*
X9733D01*
X9633D02*
Y7527D01*
X9673D01*
Y7487D01*
X9633D01*
Y7887D02*
Y7927D01*
X9673D01*
Y7887D01*
X9633D01*
X9533D02*
Y7927D01*
X9573D01*
Y7887D01*
X9533D01*
Y7527D02*
Y7487D01*
Y7527D02*
X9573D01*
Y7487D01*
X9533D01*
X9433Y7887D02*
Y7927D01*
X9473D01*
Y7887D01*
X9433D01*
Y7527D02*
Y7487D01*
Y7527D02*
X9473D01*
Y7487D01*
X9433D01*
X9533Y8037D02*
Y8077D01*
X9573D01*
Y8037D01*
X9533D01*
X9733D02*
Y8077D01*
X9773D01*
Y8037D01*
X9733D01*
X9833D02*
Y8077D01*
X9873D01*
Y8037D01*
X9833D01*
Y8337D02*
Y8377D01*
X9873D01*
Y8337D01*
X9833D01*
X9733D02*
Y8377D01*
X9773D01*
Y8337D01*
X9733D01*
X9633D02*
Y8377D01*
X9673D01*
Y8337D01*
X9633D01*
X9533D02*
Y8377D01*
X9573D01*
Y8337D01*
X9533D01*
X9633Y8077D02*
Y8037D01*
Y8077D02*
X9673D01*
Y8037D01*
X9633D01*
X9283Y8337D02*
Y8377D01*
X9323D01*
Y8337D01*
X9283D01*
Y8077D02*
Y8037D01*
Y8077D02*
X9323D01*
Y8037D01*
X9283D01*
X9183Y7177D02*
Y7137D01*
Y7177D02*
X9223D01*
Y7137D01*
X9183D01*
Y7537D02*
Y7577D01*
X9223D01*
Y7537D01*
X9183D01*
X9033Y8487D02*
Y8527D01*
X9073D01*
Y8487D01*
X9033D01*
Y8887D02*
Y8927D01*
X9073D01*
Y8887D01*
X9033D01*
X8933Y8527D02*
Y8487D01*
Y8527D02*
X8973D01*
Y8487D01*
X8933D01*
Y8887D02*
Y8927D01*
X8973D01*
Y8887D01*
X8933D01*
X8833Y8527D02*
Y8487D01*
Y8527D02*
X8873D01*
Y8487D01*
X8833D01*
Y8887D02*
Y8927D01*
X8873D01*
Y8887D01*
X8833D01*
X10573Y6807D02*
X10572Y6800D01*
X10568Y6794D01*
X10563Y6790D01*
X10556Y6787D01*
X10550D01*
X10543Y6790D01*
X10538Y6794D01*
X10534Y6800D01*
X10533Y6807D01*
X10534Y6814D01*
X10538Y6820D01*
X10543Y6824D01*
X10550Y6827D01*
X10556D01*
X10563Y6824D01*
X10568Y6820D01*
X10572Y6814D01*
X10573Y6807D01*
X10873D02*
X10872Y6800D01*
X10868Y6794D01*
X10863Y6790D01*
X10856Y6787D01*
X10850D01*
X10843Y6790D01*
X10838Y6794D01*
X10834Y6800D01*
X10833Y6807D01*
X10834Y6814D01*
X10838Y6820D01*
X10843Y6824D01*
X10850Y6827D01*
X10856D01*
X10863Y6824D01*
X10868Y6820D01*
X10872Y6814D01*
X10873Y6807D01*
X10953Y7187D02*
X10933Y7227D01*
X10973D01*
X10953Y7187D01*
X10833Y7027D02*
X10853Y6987D01*
X10833Y7027D02*
X10873D01*
X10853Y6987D01*
X10723Y7307D02*
X10722Y7300D01*
X10718Y7294D01*
X10713Y7290D01*
X10706Y7287D01*
X10700D01*
X10693Y7290D01*
X10688Y7294D01*
X10684Y7300D01*
X10683Y7307D01*
X10684Y7314D01*
X10688Y7320D01*
X10693Y7324D01*
X10700Y7327D01*
X10706D01*
X10713Y7324D01*
X10718Y7320D01*
X10722Y7314D01*
X10723Y7307D01*
X10683Y6727D02*
X10703Y6687D01*
X10683Y6727D02*
X10723D01*
X10703Y6687D01*
X10633Y9087D02*
Y9127D01*
X10673D01*
Y9087D01*
X10633D01*
Y8627D02*
Y8587D01*
Y8627D02*
X10673D01*
Y8587D01*
X10633D01*
X10733Y8887D02*
Y8927D01*
X10773D01*
Y8887D01*
X10733D01*
X10883Y9087D02*
Y9127D01*
X10923D01*
Y9087D01*
X10883D01*
Y8627D02*
Y8587D01*
Y8627D02*
X10923D01*
Y8587D01*
X10883D01*
X10983Y8887D02*
Y8927D01*
X11023D01*
Y8887D01*
X10983D01*
X11888Y7827D02*
X11878Y7817D01*
X11888Y7827D02*
X11898D01*
X11888Y7837D01*
X11898Y7847D01*
X11888D01*
X11878Y7857D01*
X11868Y7847D01*
X11858D01*
X11868Y7837D01*
X11858Y7827D01*
X11868D01*
X11878Y7817D01*
X11858Y8017D02*
Y8057D01*
X11898D01*
Y8017D01*
X11858D01*
X11878Y8217D02*
X11858Y8257D01*
X11898D01*
X11878Y8217D01*
X11858Y8417D02*
X11868Y8437D01*
X11858Y8457D01*
X11878Y8447D01*
X11898Y8457D01*
X11888Y8437D01*
X11898Y8417D01*
X11878Y8427D01*
X11858Y8417D01*
X11898Y8637D02*
X11897Y8630D01*
X11893Y8624D01*
X11888Y8620D01*
X11881Y8617D01*
X11875D01*
X11868Y8620D01*
X11863Y8624D01*
X11859Y8630D01*
X11858Y8637D01*
X11859Y8644D01*
X11863Y8650D01*
X11868Y8654D01*
X11875Y8657D01*
X11881D01*
X11888Y8654D01*
X11893Y8650D01*
X11897Y8644D01*
X11898Y8637D01*
D13*
X7853Y8204D02*
Y9257D01*
Y7560D02*
Y6507D01*
X7889Y9150D02*
X7853Y9257D01*
X7817Y9150D01*
X7889Y6614D02*
X7853Y6507D01*
X7817Y6614D01*
X7803Y9257D02*
X7903D01*
Y6507D02*
X7803D01*
X8203Y6057D02*
X9381D01*
X10025D02*
X11203D01*
X8310Y6093D02*
X8203Y6057D01*
X8310Y6021D01*
X11096Y6093D02*
X11203Y6057D01*
X11096Y6021D01*
X8203Y6007D02*
Y6107D01*
X11203D02*
Y6007D01*
X8315Y9897D02*
X8248D01*
X8315Y9964D01*
Y9980D01*
X8298Y9997D01*
X8265D01*
X8248Y9980D01*
X8348D02*
X8365Y9997D01*
X8398D01*
X8415Y9980D01*
Y9914D01*
X8398Y9897D01*
X8365D01*
X8348Y9914D01*
Y9980D01*
X8448D02*
X8465Y9997D01*
X8498D01*
X8515Y9980D01*
Y9914D01*
X8498Y9897D01*
X8465D01*
X8448Y9914D01*
Y9980D01*
X8548Y9947D02*
X8615D01*
X8648Y9897D02*
X8715D01*
X8648D02*
X8715Y9964D01*
Y9980D01*
X8698Y9997D01*
X8665D01*
X8648Y9980D01*
X8748D02*
X8764Y9997D01*
X8798D01*
X8814Y9980D01*
Y9914D01*
X8798Y9897D01*
X8764D01*
X8748Y9914D01*
Y9980D01*
X8848Y9897D02*
X8914D01*
X8848D02*
X8914Y9964D01*
Y9980D01*
X8898Y9997D01*
X8864D01*
X8848Y9980D01*
X8948D02*
X8964Y9997D01*
X8998D01*
X9014Y9980D01*
Y9914D01*
X8998Y9897D01*
X8964D01*
X8948Y9914D01*
Y9980D01*
X9048Y9947D02*
X9114D01*
X9148Y9980D02*
X9164Y9997D01*
X9198D01*
X9214Y9980D01*
Y9914D01*
X9198Y9897D01*
X9164D01*
X9148Y9914D01*
Y9980D01*
X9281D02*
X9314Y9997D01*
X9281Y9980D02*
X9248Y9947D01*
Y9914D01*
X9264Y9897D01*
X9298D01*
X9314Y9914D01*
Y9930D01*
X9298Y9947D01*
X9248D01*
X9448Y9897D02*
Y9997D01*
X9498D01*
X9514Y9980D01*
Y9947D01*
X9498Y9930D01*
X9448D01*
X9481D02*
X9514Y9897D01*
X9548Y9997D02*
X9614D01*
X9548D02*
Y9897D01*
X9614D01*
X9581Y9947D02*
X9548D01*
X9648Y9930D02*
Y9997D01*
Y9930D02*
X9681Y9897D01*
X9714Y9930D01*
Y9997D01*
X9847D02*
Y9897D01*
X9914D02*
X9847Y9997D01*
X9914D02*
Y9897D01*
X10014Y9980D02*
X9997Y9997D01*
X9964D01*
X9947Y9980D01*
Y9914D01*
X9964Y9897D01*
X9997D01*
X10014Y9914D01*
X10147Y9997D02*
X10214D01*
X10147D02*
Y9947D01*
X10181D01*
X10147D01*
Y9897D01*
X10247D02*
Y9964D01*
X10281Y9997D01*
X10314Y9964D01*
Y9897D01*
Y9947D01*
X10247D01*
X10347Y9897D02*
Y9997D01*
Y9897D02*
X10397D01*
X10414Y9914D01*
Y9930D01*
X10397Y9947D01*
X10347D01*
X10348D01*
X10347D02*
X10348D01*
X10347D02*
X10348D01*
X10347D02*
X10397D01*
X10414Y9964D01*
Y9980D01*
X10397Y9997D01*
X10347D01*
X10547D02*
Y9897D01*
X10597D01*
X10614Y9914D01*
Y9980D01*
X10597Y9997D01*
X10547D01*
X10647D02*
Y9897D01*
Y9997D02*
X10697D01*
X10714Y9980D01*
Y9947D01*
X10697Y9930D01*
X10647D01*
X10681D02*
X10714Y9897D01*
X10747D02*
Y9964D01*
X10781Y9997D01*
X10814Y9964D01*
Y9897D01*
Y9947D01*
X10747D01*
X10847Y9897D02*
Y9997D01*
X10880Y9930D02*
X10847Y9897D01*
X10880Y9930D02*
X10914Y9897D01*
Y9997D01*
X10947D02*
X10980D01*
X10964D01*
Y9897D01*
X10947D01*
X10980D01*
X11030D02*
Y9997D01*
X11097Y9897D01*
Y9997D01*
X11180D02*
X11197Y9980D01*
X11180Y9997D02*
X11147D01*
X11130Y9980D01*
Y9914D01*
X11147Y9897D01*
X11180D01*
X11197Y9914D01*
Y9947D01*
X11164D01*
X7800Y8194D02*
Y8127D01*
Y8194D02*
X7866Y8127D01*
X7883D01*
X7900Y8144D01*
Y8177D01*
X7883Y8194D01*
X7900Y8094D02*
Y8027D01*
X7883D01*
X7816Y8094D01*
X7800D01*
X7900Y7994D02*
Y7927D01*
Y7994D02*
X7850D01*
X7866Y7960D01*
Y7944D01*
X7850Y7927D01*
X7816D01*
X7800Y7944D01*
Y7977D01*
X7816Y7994D01*
X7883Y7894D02*
X7900Y7877D01*
Y7844D01*
X7883Y7827D01*
X7816D01*
X7800Y7844D01*
Y7877D01*
X7816Y7894D01*
X7883D01*
X7866Y7794D02*
X7800D01*
X7866D02*
Y7777D01*
X7850Y7760D01*
X7800D01*
X7850D01*
X7866Y7744D01*
X7850Y7727D01*
X7800D01*
Y7694D02*
Y7661D01*
Y7677D01*
X7866D01*
Y7694D01*
X7900Y7677D02*
X7901D01*
X7800Y7611D02*
Y7577D01*
Y7594D01*
X7900D01*
Y7611D01*
X9408Y6104D02*
X9391Y6087D01*
X9408Y6104D02*
X9441D01*
X9458Y6087D01*
Y6070D01*
X9459D01*
X9458D02*
X9459D01*
X9458D02*
X9459D01*
X9458D02*
X9441Y6054D01*
X9425D01*
X9441D01*
X9458Y6037D01*
Y6020D01*
X9441Y6004D01*
X9408D01*
X9391Y6020D01*
X9491Y6087D02*
X9508Y6104D01*
X9541D01*
X9558Y6087D01*
Y6020D01*
X9541Y6004D01*
X9508D01*
X9491Y6020D01*
Y6087D01*
X9591D02*
X9608Y6104D01*
X9641D01*
X9658Y6087D01*
Y6020D01*
X9641Y6004D01*
X9608D01*
X9591Y6020D01*
Y6087D01*
X9691D02*
X9708Y6104D01*
X9741D01*
X9758Y6087D01*
Y6020D01*
X9741Y6004D01*
X9708D01*
X9691Y6020D01*
Y6087D01*
X9791Y6070D02*
Y6004D01*
Y6070D02*
X9808D01*
X9825Y6054D01*
Y6004D01*
Y6054D01*
X9841Y6070D01*
X9858Y6054D01*
Y6004D01*
X9891D02*
X9924D01*
X9908D01*
Y6070D01*
X9891D01*
X9908Y6104D02*
X9909D01*
X9974Y6004D02*
X10008D01*
X9991D01*
Y6104D01*
X9974D01*
X11203Y6507D02*
X8203D01*
Y9257D02*
X11203D01*
X8203D02*
Y6507D01*
X11203D02*
Y9257D01*
X12200Y7887D02*
X12252D01*
X12224Y7849D01*
X12238D01*
X12248Y7844D01*
X12252Y7839D01*
X12257Y7825D01*
Y7816D01*
X12252Y7801D01*
X12243Y7792D01*
X12229Y7787D01*
X12214D01*
X12200Y7792D01*
X12195Y7797D01*
X12190Y7806D01*
X12981Y7887D02*
X13034D01*
X13005Y7849D01*
X13019D01*
X13029Y7844D01*
X13034Y7839D01*
X13038Y7825D01*
Y7816D01*
X13034Y7801D01*
X13024Y7792D01*
X13010Y7787D01*
X12996D01*
X12981Y7792D01*
X12977Y7797D01*
X12972Y7806D01*
X13066Y7863D02*
Y7868D01*
X13070Y7877D01*
X13075Y7882D01*
X13085Y7887D01*
X13104D01*
X13113Y7882D01*
X13118Y7877D01*
X13123Y7868D01*
Y7858D01*
X13118Y7849D01*
X13108Y7835D01*
X13061Y7787D01*
X13127D01*
X13150D02*
Y7854D01*
X13164Y7849D02*
X13150Y7835D01*
X13164Y7849D02*
X13174Y7854D01*
X13188D01*
X13197Y7849D01*
X13202Y7835D01*
Y7787D01*
Y7835D02*
X13216Y7849D01*
X13226Y7854D01*
X13240D01*
X13250Y7849D01*
X13255Y7835D01*
Y7787D01*
X13300Y7882D02*
X13295Y7887D01*
X13300Y7882D02*
X13305Y7887D01*
X13300Y7892D01*
X13295Y7887D01*
X13300Y7854D02*
Y7787D01*
X13323D02*
Y7887D01*
X14080Y7882D02*
X14094Y7887D01*
X14080Y7882D02*
X14070Y7868D01*
X14066Y7844D01*
Y7830D01*
X14070Y7806D01*
X14080Y7792D01*
X14094Y7787D01*
X14104D01*
X14118Y7792D01*
X14127Y7806D01*
X14132Y7830D01*
Y7844D01*
X14127Y7868D01*
X14118Y7882D01*
X14104Y7887D01*
X14094D01*
X14159Y7797D02*
X14155Y7792D01*
X14159Y7787D01*
X14164Y7792D01*
X14159Y7797D01*
X14195Y7882D02*
X14210Y7887D01*
X14195Y7882D02*
X14191Y7873D01*
Y7863D01*
X14195Y7854D01*
X14205Y7849D01*
X14224Y7844D01*
X14238Y7839D01*
X14248Y7830D01*
X14253Y7820D01*
Y7806D01*
X14248Y7797D01*
X14243Y7792D01*
X14229Y7787D01*
X14210D01*
X14195Y7792D01*
X14191Y7797D01*
X14186Y7806D01*
Y7820D01*
X14191Y7830D01*
X14200Y7839D01*
X14215Y7844D01*
X14234Y7849D01*
X14243Y7854D01*
X14248Y7863D01*
Y7873D01*
X14243Y7882D01*
X14229Y7887D01*
X14210D01*
X14275Y7868D02*
X14285Y7873D01*
X14299Y7887D01*
Y7787D01*
X14353Y7863D02*
Y7868D01*
X14358Y7877D01*
X14363Y7882D01*
X14372Y7887D01*
X14391D01*
X14401Y7882D01*
X14405Y7877D01*
X14410Y7868D01*
Y7858D01*
X14405Y7849D01*
X14396Y7835D01*
X14348Y7787D01*
X14415D01*
X14447Y7882D02*
X14461Y7887D01*
X14447Y7882D02*
X14442Y7873D01*
Y7863D01*
X14447Y7854D01*
X14456Y7849D01*
X14475Y7844D01*
X14490Y7839D01*
X14499Y7830D01*
X14504Y7820D01*
Y7806D01*
X14499Y7797D01*
X14494Y7792D01*
X14480Y7787D01*
X14461D01*
X14447Y7792D01*
X14442Y7797D01*
X14437Y7806D01*
Y7820D01*
X14442Y7830D01*
X14452Y7839D01*
X14466Y7844D01*
X14485Y7849D01*
X14494Y7854D01*
X14499Y7863D01*
Y7873D01*
X14494Y7882D01*
X14480Y7887D01*
X14461D01*
X14526Y7854D02*
Y7787D01*
Y7835D02*
X14541Y7849D01*
X14550Y7854D01*
X14564D01*
X14574Y7849D01*
X14579Y7835D01*
Y7787D01*
Y7835D02*
X14593Y7849D01*
X14603Y7854D01*
X14617D01*
X14626Y7849D01*
X14631Y7835D01*
Y7787D01*
X14663D02*
Y7854D01*
X14677Y7849D02*
X14663Y7835D01*
X14677Y7849D02*
X14686Y7854D01*
X14701D01*
X14710Y7849D01*
X14715Y7835D01*
Y7787D01*
Y7835D02*
X14729Y7849D01*
X14739Y7854D01*
X14753D01*
X14762Y7849D01*
X14767Y7835D01*
Y7787D01*
X12248Y8073D02*
X12243Y8082D01*
X12229Y8087D01*
X12219D01*
X12205Y8082D01*
X12195Y8068D01*
X12190Y8044D01*
Y8020D01*
X12195Y8001D01*
X12205Y7992D01*
X12219Y7987D01*
X12224D01*
X12238Y7992D01*
X12248Y8001D01*
X12252Y8016D01*
Y8020D01*
X12248Y8035D01*
X12238Y8044D01*
X12224Y8049D01*
X12219D01*
X12205Y8044D01*
X12195Y8035D01*
X12190Y8020D01*
X12279Y8063D02*
Y8068D01*
X12284Y8077D01*
X12289Y8082D01*
X12298Y8087D01*
X12317D01*
X12327Y8082D01*
X12331Y8077D01*
X12336Y8068D01*
Y8058D01*
X12331Y8049D01*
X12322Y8035D01*
X12274Y7987D01*
X12341D01*
X12981Y8087D02*
X13034D01*
X13005Y8049D01*
X13019D01*
X13029Y8044D01*
X13034Y8039D01*
X13038Y8025D01*
Y8016D01*
X13034Y8001D01*
X13024Y7992D01*
X13010Y7987D01*
X12996D01*
X12981Y7992D01*
X12977Y7997D01*
X12972Y8006D01*
X13113Y8082D02*
X13118Y8073D01*
X13113Y8082D02*
X13099Y8087D01*
X13089D01*
X13075Y8082D01*
X13066Y8068D01*
X13061Y8044D01*
Y8020D01*
X13066Y8001D01*
X13075Y7992D01*
X13089Y7987D01*
X13094D01*
X13108Y7992D01*
X13118Y8001D01*
X13123Y8016D01*
Y8020D01*
X13118Y8035D01*
X13108Y8044D01*
X13094Y8049D01*
X13089D01*
X13075Y8044D01*
X13066Y8035D01*
X13061Y8020D01*
X13145Y8054D02*
Y7987D01*
Y8035D02*
X13159Y8049D01*
X13168Y8054D01*
X13183D01*
X13192Y8049D01*
X13197Y8035D01*
Y7987D01*
Y8035D02*
X13211Y8049D01*
X13221Y8054D01*
X13235D01*
X13245Y8049D01*
X13249Y8035D01*
Y7987D01*
X13295Y8082D02*
X13290Y8087D01*
X13295Y8082D02*
X13300Y8087D01*
X13295Y8092D01*
X13290Y8087D01*
X13295Y8054D02*
Y7987D01*
X13317D02*
Y8087D01*
X14080Y8082D02*
X14094Y8087D01*
X14080Y8082D02*
X14070Y8068D01*
X14066Y8044D01*
Y8030D01*
X14070Y8006D01*
X14080Y7992D01*
X14094Y7987D01*
X14104D01*
X14118Y7992D01*
X14127Y8006D01*
X14132Y8030D01*
Y8044D01*
X14127Y8068D01*
X14118Y8082D01*
X14104Y8087D01*
X14094D01*
X14159Y7997D02*
X14155Y7992D01*
X14159Y7987D01*
X14164Y7992D01*
X14159Y7997D01*
X14243Y8039D02*
X14248Y8054D01*
X14243Y8039D02*
X14234Y8030D01*
X14219Y8025D01*
X14215D01*
X14200Y8030D01*
X14191Y8039D01*
X14186Y8054D01*
Y8058D01*
X14191Y8073D01*
X14200Y8082D01*
X14215Y8087D01*
X14219D01*
X14234Y8082D01*
X14243Y8073D01*
X14248Y8054D01*
Y8030D01*
X14243Y8006D01*
X14234Y7992D01*
X14219Y7987D01*
X14210D01*
X14195Y7992D01*
X14191Y8001D01*
X14275Y8068D02*
X14285Y8073D01*
X14299Y8087D01*
Y7987D01*
X14348Y8020D02*
X14396Y8087D01*
X14420Y8020D02*
X14348D01*
X14396Y7987D02*
Y8087D01*
X14437Y8020D02*
X14485Y8087D01*
X14509Y8020D02*
X14437D01*
X14485Y7987D02*
Y8087D01*
X14526Y8054D02*
Y7987D01*
Y8035D02*
X14541Y8049D01*
X14550Y8054D01*
X14564D01*
X14574Y8049D01*
X14579Y8035D01*
Y7987D01*
Y8035D02*
X14593Y8049D01*
X14603Y8054D01*
X14617D01*
X14626Y8049D01*
X14631Y8035D01*
Y7987D01*
X14663D02*
Y8054D01*
X14677Y8049D02*
X14663Y8035D01*
X14677Y8049D02*
X14686Y8054D01*
X14701D01*
X14710Y8049D01*
X14715Y8035D01*
Y7987D01*
Y8035D02*
X14729Y8049D01*
X14739Y8054D01*
X14753D01*
X14762Y8049D01*
X14767Y8035D01*
Y7987D01*
X12252Y8254D02*
X12248Y8239D01*
X12238Y8230D01*
X12224Y8225D01*
X12219D01*
X12205Y8230D01*
X12195Y8239D01*
X12190Y8254D01*
Y8258D01*
X12195Y8273D01*
X12205Y8282D01*
X12219Y8287D01*
X12224D01*
X12238Y8282D01*
X12248Y8273D01*
X12252Y8254D01*
Y8230D01*
X12248Y8206D01*
X12238Y8192D01*
X12224Y8187D01*
X12214D01*
X12200Y8192D01*
X12195Y8201D01*
X13024Y8282D02*
X13029Y8273D01*
X13024Y8282D02*
X13010Y8287D01*
X13000D01*
X12986Y8282D01*
X12977Y8268D01*
X12972Y8244D01*
Y8220D01*
X12977Y8201D01*
X12986Y8192D01*
X13000Y8187D01*
X13005D01*
X13019Y8192D01*
X13029Y8201D01*
X13034Y8216D01*
Y8220D01*
X13029Y8235D01*
X13019Y8244D01*
X13005Y8249D01*
X13000D01*
X12986Y8244D01*
X12977Y8235D01*
X12972Y8220D01*
X13070Y8282D02*
X13084Y8287D01*
X13070Y8282D02*
X13060Y8268D01*
X13056Y8244D01*
Y8230D01*
X13060Y8206D01*
X13070Y8192D01*
X13084Y8187D01*
X13094D01*
X13108Y8192D01*
X13117Y8206D01*
X13122Y8230D01*
Y8244D01*
X13117Y8268D01*
X13108Y8282D01*
X13094Y8287D01*
X13084D01*
X13145Y8254D02*
Y8187D01*
Y8235D02*
X13159Y8249D01*
X13168Y8254D01*
X13183D01*
X13192Y8249D01*
X13197Y8235D01*
Y8187D01*
Y8235D02*
X13211Y8249D01*
X13221Y8254D01*
X13235D01*
X13245Y8249D01*
X13249Y8235D01*
Y8187D01*
X13295Y8282D02*
X13290Y8287D01*
X13295Y8282D02*
X13300Y8287D01*
X13295Y8292D01*
X13290Y8287D01*
X13295Y8254D02*
Y8187D01*
X13317D02*
Y8287D01*
X14066Y8268D02*
X14075Y8273D01*
X14089Y8287D01*
Y8187D01*
X14139Y8192D02*
X14144Y8197D01*
X14139Y8192D02*
X14144Y8187D01*
X14148Y8192D01*
X14144Y8197D01*
X14180Y8287D02*
X14227D01*
X14180D02*
X14175Y8244D01*
X14180Y8249D01*
X14194Y8254D01*
X14208D01*
X14223Y8249D01*
X14232Y8239D01*
X14237Y8225D01*
Y8216D01*
X14232Y8201D01*
X14223Y8192D01*
X14208Y8187D01*
X14194D01*
X14180Y8192D01*
X14175Y8197D01*
X14170Y8206D01*
X14264Y8263D02*
Y8268D01*
X14269Y8277D01*
X14274Y8282D01*
X14283Y8287D01*
X14302D01*
X14312Y8282D01*
X14316Y8277D01*
X14321Y8268D01*
Y8258D01*
X14316Y8249D01*
X14307Y8235D01*
X14259Y8187D01*
X14326D01*
X14348Y8220D02*
X14396Y8287D01*
X14420Y8220D02*
X14348D01*
X14396Y8187D02*
Y8287D01*
X14437Y8254D02*
Y8187D01*
Y8235D02*
X14452Y8249D01*
X14461Y8254D01*
X14475D01*
X14485Y8249D01*
X14490Y8235D01*
Y8187D01*
Y8235D02*
X14504Y8249D01*
X14513Y8254D01*
X14528D01*
X14537Y8249D01*
X14542Y8235D01*
Y8187D01*
X14573D02*
Y8254D01*
X14588Y8249D02*
X14573Y8235D01*
X14588Y8249D02*
X14597Y8254D01*
X14612D01*
X14621Y8249D01*
X14626Y8235D01*
Y8187D01*
Y8235D02*
X14640Y8249D01*
X14650Y8254D01*
X14664D01*
X14673Y8249D01*
X14678Y8235D01*
Y8187D01*
X12238Y8487D02*
X12190Y8420D01*
X12262D01*
X12238Y8387D02*
Y8487D01*
X12991Y8387D02*
X13038Y8487D01*
X12972D01*
X13075Y8482D02*
X13089Y8487D01*
X13075Y8482D02*
X13066Y8468D01*
X13061Y8444D01*
Y8430D01*
X13066Y8406D01*
X13075Y8392D01*
X13089Y8387D01*
X13099D01*
X13113Y8392D01*
X13123Y8406D01*
X13127Y8430D01*
Y8444D01*
X13123Y8468D01*
X13113Y8482D01*
X13099Y8487D01*
X13089D01*
X13150Y8454D02*
Y8387D01*
Y8435D02*
X13164Y8449D01*
X13174Y8454D01*
X13188D01*
X13197Y8449D01*
X13202Y8435D01*
Y8387D01*
Y8435D02*
X13216Y8449D01*
X13226Y8454D01*
X13240D01*
X13250Y8449D01*
X13255Y8435D01*
Y8387D01*
X13300Y8482D02*
X13295Y8487D01*
X13300Y8482D02*
X13305Y8487D01*
X13300Y8492D01*
X13295Y8487D01*
X13300Y8454D02*
Y8387D01*
X13323D02*
Y8487D01*
X14066Y8468D02*
X14075Y8473D01*
X14089Y8487D01*
Y8387D01*
X14139Y8392D02*
X14144Y8397D01*
X14139Y8392D02*
X14144Y8387D01*
X14148Y8392D01*
X14144Y8397D01*
X14189Y8387D02*
X14237Y8487D01*
X14170D01*
X14278Y8387D02*
X14326Y8487D01*
X14259D01*
X14358Y8482D02*
X14372Y8487D01*
X14358Y8482D02*
X14353Y8473D01*
Y8463D01*
X14358Y8454D01*
X14367Y8449D01*
X14386Y8444D01*
X14401Y8439D01*
X14410Y8430D01*
X14415Y8420D01*
Y8406D01*
X14410Y8397D01*
X14405Y8392D01*
X14391Y8387D01*
X14372D01*
X14358Y8392D01*
X14353Y8397D01*
X14348Y8406D01*
Y8420D01*
X14353Y8430D01*
X14363Y8439D01*
X14377Y8444D01*
X14396Y8449D01*
X14405Y8454D01*
X14410Y8463D01*
Y8473D01*
X14405Y8482D01*
X14391Y8487D01*
X14372D01*
X14437Y8454D02*
Y8387D01*
Y8435D02*
X14452Y8449D01*
X14461Y8454D01*
X14475D01*
X14485Y8449D01*
X14490Y8435D01*
Y8387D01*
Y8435D02*
X14504Y8449D01*
X14513Y8454D01*
X14528D01*
X14537Y8449D01*
X14542Y8435D01*
Y8387D01*
X14573D02*
Y8454D01*
X14588Y8449D02*
X14573Y8435D01*
X14588Y8449D02*
X14597Y8454D01*
X14612D01*
X14621Y8449D01*
X14626Y8435D01*
Y8387D01*
Y8435D02*
X14640Y8449D01*
X14650Y8454D01*
X14664D01*
X14673Y8449D01*
X14678Y8435D01*
Y8387D01*
X12252Y8654D02*
X12248Y8639D01*
X12238Y8630D01*
X12224Y8625D01*
X12219D01*
X12205Y8630D01*
X12195Y8639D01*
X12190Y8654D01*
Y8658D01*
X12195Y8673D01*
X12205Y8682D01*
X12219Y8687D01*
X12224D01*
X12238Y8682D01*
X12248Y8673D01*
X12252Y8654D01*
Y8630D01*
X12248Y8606D01*
X12238Y8592D01*
X12224Y8587D01*
X12214D01*
X12200Y8592D01*
X12195Y8601D01*
X13029Y8639D02*
X13034Y8654D01*
X13029Y8639D02*
X13019Y8630D01*
X13005Y8625D01*
X13000D01*
X12986Y8630D01*
X12977Y8639D01*
X12972Y8654D01*
Y8658D01*
X12977Y8673D01*
X12986Y8682D01*
X13000Y8687D01*
X13005D01*
X13019Y8682D01*
X13029Y8673D01*
X13034Y8654D01*
Y8630D01*
X13029Y8606D01*
X13019Y8592D01*
X13005Y8587D01*
X12996D01*
X12981Y8592D01*
X12977Y8601D01*
X13070Y8687D02*
X13118D01*
X13070D02*
X13066Y8644D01*
X13070Y8649D01*
X13085Y8654D01*
X13099D01*
X13113Y8649D01*
X13123Y8639D01*
X13127Y8625D01*
Y8616D01*
X13123Y8601D01*
X13113Y8592D01*
X13099Y8587D01*
X13085D01*
X13070Y8592D01*
X13066Y8597D01*
X13061Y8606D01*
X13150Y8587D02*
Y8654D01*
X13164Y8649D02*
X13150Y8635D01*
X13164Y8649D02*
X13174Y8654D01*
X13188D01*
X13197Y8649D01*
X13202Y8635D01*
Y8587D01*
Y8635D02*
X13216Y8649D01*
X13226Y8654D01*
X13240D01*
X13250Y8649D01*
X13255Y8635D01*
Y8587D01*
X13300Y8682D02*
X13295Y8687D01*
X13300Y8682D02*
X13305Y8687D01*
X13300Y8692D01*
X13295Y8687D01*
X13300Y8654D02*
Y8587D01*
X13323D02*
Y8687D01*
X14070Y8668D02*
Y8663D01*
Y8668D02*
X14075Y8677D01*
X14080Y8682D01*
X14089Y8687D01*
X14108D01*
X14118Y8682D01*
X14123Y8677D01*
X14127Y8668D01*
Y8658D01*
X14123Y8649D01*
X14113Y8635D01*
X14066Y8587D01*
X14132D01*
X14155Y8592D02*
X14159Y8597D01*
X14155Y8592D02*
X14159Y8587D01*
X14164Y8592D01*
X14159Y8597D01*
X14186Y8620D02*
X14234Y8687D01*
X14257Y8620D02*
X14186D01*
X14234Y8587D02*
Y8687D01*
X14275Y8668D02*
X14285Y8673D01*
X14299Y8687D01*
Y8587D01*
X14358Y8687D02*
X14410D01*
X14382Y8649D01*
X14396D01*
X14405Y8644D01*
X14410Y8639D01*
X14415Y8625D01*
Y8616D01*
X14410Y8601D01*
X14401Y8592D01*
X14386Y8587D01*
X14372D01*
X14358Y8592D01*
X14353Y8597D01*
X14348Y8606D01*
X14437Y8587D02*
Y8654D01*
X14452Y8649D02*
X14437Y8635D01*
X14452Y8649D02*
X14461Y8654D01*
X14475D01*
X14485Y8649D01*
X14490Y8635D01*
Y8587D01*
Y8635D02*
X14504Y8649D01*
X14513Y8654D01*
X14528D01*
X14537Y8649D01*
X14542Y8635D01*
Y8587D01*
X14573D02*
Y8654D01*
X14588Y8649D02*
X14573Y8635D01*
X14588Y8649D02*
X14597Y8654D01*
X14612D01*
X14621Y8649D01*
X14626Y8635D01*
Y8587D01*
Y8635D02*
X14640Y8649D01*
X14650Y8654D01*
X14664D01*
X14673Y8649D01*
X14678Y8635D01*
Y8587D01*
X12214Y7687D02*
X12200Y7682D01*
X12195Y7673D01*
Y7663D01*
X12200Y7654D01*
X12210Y7649D01*
X12229Y7644D01*
X12243Y7639D01*
X12252Y7630D01*
X12257Y7620D01*
Y7606D01*
X12252Y7597D01*
X12248Y7592D01*
X12233Y7587D01*
X12214D01*
X12200Y7592D01*
X12195Y7597D01*
X12190Y7606D01*
Y7620D01*
X12195Y7630D01*
X12205Y7639D01*
X12219Y7644D01*
X12238Y7649D01*
X12248Y7654D01*
X12252Y7663D01*
Y7673D01*
X12248Y7682D01*
X12233Y7687D01*
X12214D01*
X12299Y7587D02*
X12346Y7687D01*
X12280D01*
X13005D02*
Y7587D01*
X12972Y7687D02*
X13038D01*
X13065Y7649D02*
X13074Y7654D01*
X13065Y7649D02*
X13055Y7639D01*
X13050Y7625D01*
Y7616D01*
X13055Y7601D01*
X13065Y7592D01*
X13074Y7587D01*
X13088D01*
X13098Y7592D01*
X13107Y7601D01*
X13112Y7616D01*
Y7625D01*
X13107Y7639D01*
X13098Y7649D01*
X13088Y7654D01*
X13074D01*
X13148Y7687D02*
Y7606D01*
X13153Y7592D01*
X13163Y7587D01*
X13172D01*
X13167Y7654D02*
X13134D01*
X13244D02*
Y7587D01*
Y7639D02*
X13234Y7649D01*
X13225Y7654D01*
X13210D01*
X13201Y7649D01*
X13191Y7639D01*
X13186Y7625D01*
Y7616D01*
X13191Y7601D01*
X13201Y7592D01*
X13210Y7587D01*
X13225D01*
X13234Y7592D01*
X13244Y7601D01*
X13270Y7587D02*
Y7687D01*
D02*
M02*
