*%FSLAX23Y23*%
*%MOIN*%
G01*
%ADD11C,0.007*%
%ADD12C,0.008*%
%ADD13C,0.010*%
%ADD14C,0.012*%
%ADD15C,0.020*%
%ADD16C,0.032*%
%ADD17C,0.036*%
%ADD18C,0.050*%
%ADD19C,0.052*%
%ADD20C,0.055*%
%ADD21C,0.056*%
%ADD22C,0.060*%
%ADD23C,0.061*%
%ADD24C,0.062*%
%ADD25C,0.066*%
%ADD26C,0.068*%
%ADD27C,0.070*%
%ADD28C,0.080*%
%ADD29C,0.090*%
%ADD30C,0.095*%
%ADD31C,0.115*%
%ADD32C,0.120*%
%ADD33C,0.125*%
%ADD34C,0.126*%
%ADD35C,0.131*%
%ADD36C,0.150*%
%ADD37C,0.156*%
%ADD38R,0.062X0.062*%
%ADD39R,0.068X0.068*%
D12*
X10888Y8884D02*
Y8917D01*
X10921Y8884D01*
X10930D01*
X10938Y8892D01*
Y8909D01*
X10930Y8917D01*
Y8867D02*
X10938Y8859D01*
Y8842D01*
X10930Y8834D01*
X10896D01*
X10888Y8842D01*
Y8859D01*
X10896Y8867D01*
X10930D01*
X10938Y8817D02*
X10888D01*
X10905D01*
X10938Y8784D01*
X10913Y8809D01*
X10888Y8784D01*
X11073Y9167D02*
Y9217D01*
X11098D01*
X11106Y9209D01*
Y9192D01*
X11098Y9184D01*
X11073D01*
X11090D02*
X11106Y9167D01*
X11123Y9209D02*
X11131Y9217D01*
X11148D01*
X11156Y9209D01*
Y9200D01*
X11148Y9192D01*
X11156Y9184D01*
Y9175D01*
X11148Y9167D01*
X11131D01*
X11123Y9175D01*
Y9184D01*
X11131Y9192D01*
X11123Y9200D01*
Y9209D01*
X11131Y9192D02*
X11148D01*
X10633Y8917D02*
Y8884D01*
Y8917D02*
X10666Y8884D01*
X10675D01*
X10683Y8892D01*
Y8909D01*
X10675Y8917D01*
Y8867D02*
X10683Y8859D01*
Y8842D01*
X10675Y8834D01*
X10641D01*
X10633Y8842D01*
Y8859D01*
X10641Y8867D01*
X10675D01*
X10683Y8817D02*
X10633D01*
X10650D01*
X10683Y8784D01*
X10658Y8809D01*
X10633Y8784D01*
X10508Y9167D02*
Y9217D01*
X10533D01*
X10541Y9209D01*
Y9192D01*
X10533Y9184D01*
X10508D01*
X10525D02*
X10541Y9167D01*
X10558D02*
X10575D01*
X10566D01*
Y9217D01*
X10567D01*
X10566D02*
X10558Y9209D01*
X11189Y7445D02*
Y7429D01*
Y7437D02*
Y7445D01*
Y7437D02*
X11147D01*
X11139Y7445D01*
Y7454D01*
X11147Y7462D01*
X11139Y7412D02*
Y7395D01*
Y7404D01*
X11189D01*
X11190D01*
X11189D02*
X11181Y7412D01*
X8828Y8785D02*
Y8802D01*
Y8794D02*
Y8785D01*
Y8794D02*
X8878D01*
X8879D01*
X8878D02*
X8870Y8802D01*
Y8760D02*
X8878Y8752D01*
Y8735D01*
X8870Y8727D01*
X8836D01*
X8828Y8735D01*
Y8752D01*
X8836Y8760D01*
X8870D01*
Y8710D02*
X8878Y8702D01*
Y8685D01*
X8870Y8677D01*
X8836D01*
X8828Y8685D01*
Y8702D01*
X8836Y8710D01*
X8870D01*
X8878Y8660D02*
X8828D01*
X8845D01*
X8878Y8627D01*
X8853Y8652D01*
X8828Y8627D01*
Y9092D02*
X8878D01*
Y9067D01*
X8870Y9059D01*
X8853D01*
X8845Y9067D01*
Y9092D01*
Y9075D02*
X8828Y9059D01*
Y9042D02*
Y9025D01*
Y9034D01*
X8878D01*
X8879D01*
X8878D02*
X8870Y9042D01*
X8878Y8975D02*
X8828D01*
X8853Y9000D02*
X8878Y8975D01*
X8853Y8967D02*
Y9000D01*
X8928Y8792D02*
Y8775D01*
Y8784D01*
X8978D01*
X8979D01*
X8978D02*
X8970Y8792D01*
Y8750D02*
X8978Y8742D01*
Y8725D01*
X8970Y8717D01*
X8936D01*
X8928Y8725D01*
Y8742D01*
X8936Y8750D01*
X8970D01*
Y8700D02*
X8978Y8692D01*
Y8675D01*
X8970Y8667D01*
X8936D01*
X8928Y8675D01*
Y8692D01*
X8936Y8700D01*
X8970D01*
X8978Y8650D02*
X8928D01*
X8945D01*
X8978Y8617D01*
X8953Y8642D01*
X8928Y8617D01*
Y9092D02*
X8978D01*
Y9067D01*
X8970Y9059D01*
X8953D01*
X8945Y9067D01*
Y9092D01*
Y9075D02*
X8928Y9059D01*
Y9042D02*
Y9025D01*
Y9034D01*
X8978D01*
X8979D01*
X8978D02*
X8970Y9042D01*
X8978Y9000D02*
Y8967D01*
Y9000D02*
X8953D01*
X8961Y8984D01*
Y8975D01*
X8953Y8967D01*
X8936D01*
X8928Y8975D01*
Y8992D01*
X8936Y9000D01*
X9028Y8802D02*
Y8785D01*
Y8794D01*
X9078D01*
X9079D01*
X9078D02*
X9070Y8802D01*
Y8760D02*
X9078Y8752D01*
Y8735D01*
X9070Y8727D01*
X9036D01*
X9028Y8735D01*
Y8752D01*
X9036Y8760D01*
X9070D01*
Y8710D02*
X9078Y8702D01*
Y8685D01*
X9070Y8677D01*
X9036D01*
X9028Y8685D01*
Y8702D01*
X9036Y8710D01*
X9070D01*
X9078Y8660D02*
X9028D01*
X9045D01*
X9078Y8627D01*
X9053Y8652D01*
X9028Y8627D01*
Y9087D02*
X9078D01*
Y9062D01*
X9070Y9054D01*
X9053D01*
X9045Y9062D01*
Y9087D01*
Y9070D02*
X9028Y9054D01*
Y9037D02*
Y9020D01*
Y9029D01*
X9078D01*
X9079D01*
X9078D02*
X9070Y9037D01*
Y8979D02*
X9078Y8962D01*
X9070Y8979D02*
X9053Y8995D01*
X9036D01*
X9028Y8987D01*
Y8970D01*
X9036Y8962D01*
X9045D01*
X9053Y8970D01*
Y8995D01*
X9178Y7462D02*
Y7445D01*
Y7454D01*
X9228D01*
X9229D01*
X9228D02*
X9220Y7462D01*
X9228Y7420D02*
X9178D01*
X9195D01*
X9228Y7387D01*
X9203Y7412D01*
X9178Y7387D01*
Y7687D02*
X9228D01*
Y7662D01*
X9220Y7654D01*
X9203D01*
X9195Y7662D01*
Y7687D01*
Y7670D02*
X9178Y7654D01*
X9220Y7637D02*
X9228Y7629D01*
Y7612D01*
X9220Y7604D01*
X9211D01*
X9212D01*
X9211D02*
X9212D01*
X9211D02*
X9212D01*
X9211D02*
X9203Y7612D01*
Y7620D01*
Y7612D01*
X9195Y7604D01*
X9186D01*
X9178Y7612D01*
Y7629D01*
X9186Y7637D01*
X9325Y8464D02*
X9333Y8472D01*
Y8489D01*
X9325Y8497D01*
X9291D01*
X9283Y8489D01*
Y8472D01*
X9291Y8464D01*
X9283Y8447D02*
Y8414D01*
Y8447D02*
X9316Y8414D01*
X9325D01*
X9333Y8422D01*
Y8439D01*
X9325Y8447D01*
X9503Y8232D02*
X9506Y8232D01*
X9509Y8231D01*
X9513Y8230D01*
X9516Y8229D01*
X9518Y8227D01*
X9521Y8225D01*
X9523Y8222D01*
X9525Y8220D01*
X9526Y8217D01*
X9527Y8213D01*
X9528Y8210D01*
X9528Y8207D01*
X9528Y8204D01*
X9527Y8201D01*
X9526Y8197D01*
X9525Y8194D01*
X9523Y8192D01*
X9521Y8189D01*
X9518Y8187D01*
X9516Y8185D01*
X9513Y8184D01*
X9509Y8183D01*
X9506Y8182D01*
X9503Y8182D01*
Y8107D01*
Y8232D02*
Y8307D01*
X9903D02*
Y8107D01*
Y8307D02*
X9503D01*
Y8107D02*
X9903D01*
X9598Y8172D02*
Y8205D01*
X9615Y8222D01*
X9631Y8205D01*
Y8172D01*
Y8197D01*
X9598D01*
X9648Y8222D02*
Y8172D01*
X9673D01*
X9681Y8180D01*
Y8214D01*
X9673Y8222D01*
X9648D01*
X9715Y8214D02*
X9731Y8222D01*
X9715Y8214D02*
X9698Y8197D01*
Y8180D01*
X9706Y8172D01*
X9723D01*
X9731Y8180D01*
Y8189D01*
X9723Y8197D01*
X9698D01*
X9748Y8214D02*
X9756Y8222D01*
X9773D01*
X9781Y8214D01*
Y8205D01*
X9782D01*
X9781D02*
X9782D01*
X9781D02*
X9782D01*
X9781D02*
X9773Y8197D01*
X9765D01*
X9773D01*
X9781Y8189D01*
Y8180D01*
X9773Y8172D01*
X9756D01*
X9748Y8180D01*
X9798Y8214D02*
X9806Y8222D01*
X9823D01*
X9831Y8214D01*
Y8205D01*
X9832D01*
X9831D02*
X9832D01*
X9831D02*
X9832D01*
X9831D02*
X9823Y8197D01*
X9815D01*
X9823D01*
X9831Y8189D01*
Y8180D01*
X9823Y8172D01*
X9806D01*
X9798Y8180D01*
X9418Y8087D02*
Y8045D01*
X9426Y8037D01*
X9443D01*
X9451Y8045D01*
Y8087D01*
X9468Y8037D02*
X9485D01*
X9476D01*
Y8087D01*
X9477D01*
X9476D02*
X9468Y8079D01*
X9433Y7787D02*
Y7770D01*
Y7779D01*
X9483D01*
X9484D01*
X9483D02*
X9475Y7787D01*
Y7745D02*
X9483Y7737D01*
Y7720D01*
X9475Y7712D01*
X9441D01*
X9433Y7720D01*
Y7737D01*
X9441Y7745D01*
X9475D01*
Y7695D02*
X9483Y7687D01*
Y7670D01*
X9475Y7662D01*
X9441D01*
X9433Y7670D01*
Y7687D01*
X9441Y7695D01*
X9475D01*
X9483Y7645D02*
X9433D01*
X9450D01*
X9483Y7612D01*
X9458Y7637D01*
X9433Y7612D01*
X9398Y7887D02*
X9348D01*
X9398D02*
Y7862D01*
X9390Y7854D01*
X9373D01*
X9365Y7862D01*
Y7887D01*
Y7870D02*
X9348Y7854D01*
Y7812D02*
X9398D01*
X9373Y7837D01*
Y7804D01*
X9528Y7782D02*
Y7765D01*
Y7774D01*
X9578D01*
X9579D01*
X9578D02*
X9570Y7782D01*
Y7740D02*
X9578Y7732D01*
Y7715D01*
X9570Y7707D01*
X9536D01*
X9528Y7715D01*
Y7732D01*
X9536Y7740D01*
X9570D01*
Y7690D02*
X9578Y7682D01*
Y7665D01*
X9570Y7657D01*
X9536D01*
X9528Y7665D01*
Y7682D01*
X9536Y7690D01*
X9570D01*
X9578Y7640D02*
X9528D01*
X9545D01*
X9578Y7607D01*
X9553Y7632D01*
X9528Y7607D01*
X9518Y7957D02*
Y8007D01*
X9543D01*
X9551Y7999D01*
Y7982D01*
X9543Y7974D01*
X9518D01*
X9535D02*
X9551Y7957D01*
X9585Y7999D02*
X9601Y8007D01*
X9585Y7999D02*
X9568Y7982D01*
Y7965D01*
X9576Y7957D01*
X9593D01*
X9601Y7965D01*
Y7974D01*
X9593Y7982D01*
X9568D01*
X9623Y7812D02*
Y7795D01*
Y7804D01*
X9673D01*
X9674D01*
X9673D02*
X9665Y7812D01*
Y7770D02*
X9673Y7762D01*
Y7745D01*
X9665Y7737D01*
X9631D01*
X9623Y7745D01*
Y7762D01*
X9631Y7770D01*
X9665D01*
X9673Y7720D02*
X9623D01*
X9656Y7704D02*
X9673Y7720D01*
X9656Y7704D02*
X9673Y7687D01*
X9623D01*
X9618Y7957D02*
Y8007D01*
X9643D01*
X9651Y7999D01*
Y7982D01*
X9643Y7974D01*
X9618D01*
X9635D02*
X9651Y7957D01*
X9668D02*
X9701D01*
X9668D02*
X9701Y7990D01*
Y7999D01*
X9693Y8007D01*
X9676D01*
X9668Y7999D01*
X9728Y7802D02*
Y7785D01*
Y7794D01*
X9778D01*
X9779D01*
X9778D02*
X9770Y7802D01*
Y7760D02*
X9778Y7752D01*
Y7735D01*
X9770Y7727D01*
X9736D01*
X9728Y7735D01*
Y7752D01*
X9736Y7760D01*
X9770D01*
Y7710D02*
X9778Y7702D01*
Y7685D01*
X9770Y7677D01*
X9736D01*
X9728Y7685D01*
Y7702D01*
X9736Y7710D01*
X9770D01*
X9778Y7660D02*
X9728D01*
X9745D01*
X9778Y7627D01*
X9753Y7652D01*
X9728Y7627D01*
X9718Y7957D02*
Y8007D01*
X9743D01*
X9751Y7999D01*
Y7982D01*
X9743Y7974D01*
X9718D01*
X9735D02*
X9751Y7957D01*
X9768Y8007D02*
X9801D01*
Y7999D01*
X9768Y7965D01*
Y7957D01*
X9928Y7787D02*
Y7770D01*
Y7779D01*
X9978D01*
X9979D01*
X9978D02*
X9970Y7787D01*
Y7745D02*
X9978Y7737D01*
Y7720D01*
X9970Y7712D01*
X9936D01*
X9928Y7720D01*
Y7737D01*
X9936Y7745D01*
X9970D01*
Y7695D02*
X9978Y7687D01*
Y7670D01*
X9970Y7662D01*
X9936D01*
X9928Y7670D01*
Y7687D01*
X9936Y7695D01*
X9970D01*
X9978Y7645D02*
X9928D01*
X9945D01*
X9978Y7612D01*
X9953Y7637D01*
X9928Y7612D01*
X10003Y7952D02*
X10053D01*
Y7927D01*
X10045Y7919D01*
X10028D01*
X10020Y7927D01*
Y7952D01*
Y7935D02*
X10003Y7919D01*
X10053Y7902D02*
Y7869D01*
Y7902D02*
X10028D01*
X10036Y7885D01*
Y7877D01*
X10028Y7869D01*
X10011D01*
X10003Y7877D01*
Y7894D01*
X10011Y7902D01*
X9133Y7982D02*
X9125Y7974D01*
X9133Y7982D02*
Y7999D01*
X9125Y8007D01*
X9091D01*
X9083Y7999D01*
Y7982D01*
X9091Y7974D01*
X9083Y7932D02*
X9133D01*
X9108Y7957D01*
Y7924D01*
X9823Y7802D02*
Y7785D01*
Y7794D01*
X9873D01*
X9874D01*
X9873D02*
X9865Y7802D01*
Y7760D02*
X9873Y7752D01*
Y7735D01*
X9865Y7727D01*
X9831D01*
X9823Y7735D01*
Y7752D01*
X9831Y7760D01*
X9865D01*
X9873Y7710D02*
X9823D01*
X9856Y7694D02*
X9873Y7710D01*
X9856Y7694D02*
X9873Y7677D01*
X9823D01*
X9813Y7952D02*
Y8002D01*
X9838D01*
X9846Y7994D01*
Y7977D01*
X9838Y7969D01*
X9813D01*
X9830D02*
X9846Y7952D01*
X9863Y7960D02*
X9871Y7952D01*
X9888D01*
X9896Y7960D01*
Y7994D01*
X9888Y8002D01*
X9871D01*
X9863Y7994D01*
Y7985D01*
X9871Y7977D01*
X9896D01*
X10150Y8204D02*
X10158Y8212D01*
Y8229D01*
X10150Y8237D01*
X10116D01*
X10108Y8229D01*
Y8212D01*
X10116Y8204D01*
X10158Y8187D02*
Y8154D01*
Y8187D02*
X10133D01*
X10141Y8170D01*
Y8162D01*
X10133Y8154D01*
X10116D01*
X10108Y8162D01*
Y8179D01*
X10116Y8187D01*
X10098Y8582D02*
Y8632D01*
X10123D01*
X10131Y8624D01*
Y8607D01*
X10123Y8599D01*
X10098D01*
X10148Y8582D02*
X10165D01*
X10156D01*
Y8632D01*
X10157D01*
X10156D02*
X10148Y8624D01*
X10189Y7445D02*
Y7429D01*
Y7437D02*
Y7445D01*
Y7437D02*
X10147D01*
X10139Y7445D01*
Y7454D01*
X10147Y7462D01*
X10181Y7412D02*
X10189Y7404D01*
Y7387D01*
X10181Y7379D01*
X10172D01*
X10173D01*
X10172D02*
X10173D01*
X10172D02*
X10173D01*
X10172D02*
X10164Y7387D01*
Y7395D01*
Y7387D01*
X10156Y7379D01*
X10147D01*
X10139Y7387D01*
Y7404D01*
X10147Y7412D01*
X8728Y8985D02*
Y9002D01*
Y8994D02*
Y8985D01*
Y8994D02*
X8778D01*
X8779D01*
X8778D02*
X8770Y9002D01*
Y8960D02*
X8778Y8952D01*
Y8935D01*
X8770Y8927D01*
X8736D01*
X8728Y8935D01*
Y8952D01*
X8736Y8960D01*
X8770D01*
Y8910D02*
X8778Y8902D01*
Y8885D01*
X8770Y8877D01*
X8736D01*
X8728Y8885D01*
Y8902D01*
X8736Y8910D01*
X8770D01*
X8778Y8860D02*
X8728D01*
X8745D01*
X8778Y8827D01*
X8753Y8852D01*
X8728Y8827D01*
X8708Y9172D02*
X8658D01*
X8708D02*
Y9147D01*
X8700Y9139D01*
X8683D01*
X8675Y9147D01*
Y9172D01*
Y9155D02*
X8658Y9139D01*
Y9122D02*
Y9105D01*
Y9114D01*
X8708D01*
X8709D01*
X8708D02*
X8700Y9122D01*
X8658Y9080D02*
Y9064D01*
Y9072D01*
X8708D01*
X8709D01*
X8708D02*
X8700Y9080D01*
X8538Y9107D02*
X8488D01*
Y9074D01*
Y9057D02*
X8538D01*
X8521Y9040D01*
X8538Y9024D01*
X8488D01*
Y8982D02*
X8538D01*
X8513Y9007D01*
Y8974D01*
X8530Y8957D02*
X8538Y8949D01*
Y8932D01*
X8530Y8924D01*
X8496D01*
X8488Y8932D01*
Y8949D01*
X8496Y8957D01*
X8530D01*
X8538Y8882D02*
X8488D01*
X8513Y8907D02*
X8538Y8882D01*
X8513Y8874D02*
Y8907D01*
X8488Y8857D02*
Y8840D01*
Y8849D01*
X8538D01*
X8539D01*
X8538D02*
X8530Y8857D01*
X8538Y8790D02*
X8530Y8782D01*
X8538Y8790D02*
Y8807D01*
X8530Y8815D01*
X8496D01*
X8488Y8807D01*
Y8790D01*
X8496Y8782D01*
X8538Y8765D02*
Y8732D01*
X8530D01*
X8496Y8765D01*
X8488D01*
Y8732D01*
X8513Y8715D02*
Y8682D01*
X8521Y8665D02*
X8488D01*
X8521D02*
X8538Y8649D01*
X8521Y8632D01*
X8488D01*
X8513D01*
Y8665D01*
X8538Y8615D02*
X8488D01*
Y8591D01*
X8496Y8582D01*
X8530D01*
X8538Y8591D01*
Y8615D01*
Y8549D02*
Y8532D01*
Y8541D02*
Y8549D01*
Y8541D02*
X8496D01*
X8488Y8549D01*
Y8557D01*
X8496Y8566D01*
X8588Y8675D02*
Y8717D01*
Y8675D02*
X8596Y8667D01*
X8613D01*
X8621Y8675D01*
Y8717D01*
X8638Y8709D02*
X8646Y8717D01*
X8663D01*
X8671Y8709D01*
Y8700D01*
X8672D01*
X8671D02*
X8672D01*
X8671D02*
X8672D01*
X8671D02*
X8663Y8692D01*
X8655D01*
X8663D01*
X8671Y8684D01*
Y8675D01*
X8663Y8667D01*
X8646D01*
X8638Y8675D01*
X8533Y8447D02*
X8525Y8439D01*
X8533Y8447D02*
Y8464D01*
X8525Y8472D01*
X8491D01*
X8483Y8464D01*
Y8447D01*
X8491Y8439D01*
X8483Y8422D02*
Y8405D01*
Y8414D01*
X8533D01*
X8534D01*
X8533D02*
X8525Y8422D01*
X8383Y8770D02*
Y8787D01*
Y8779D02*
Y8770D01*
Y8779D02*
X8433D01*
X8434D01*
X8433D02*
X8425Y8787D01*
Y8745D02*
X8433Y8737D01*
Y8720D01*
X8425Y8712D01*
X8391D01*
X8383Y8720D01*
Y8737D01*
X8391Y8745D01*
X8425D01*
X8433Y8695D02*
X8383D01*
X8400D01*
X8433Y8662D01*
X8408Y8687D01*
X8383Y8662D01*
X8393Y9082D02*
X8443D01*
Y9057D01*
X8435Y9049D01*
X8418D01*
X8410Y9057D01*
Y9082D01*
Y9065D02*
X8393Y9049D01*
Y9032D02*
Y9015D01*
Y9024D01*
X8443D01*
X8444D01*
X8443D02*
X8435Y9032D01*
Y8990D02*
X8443Y8982D01*
Y8965D01*
X8435Y8957D01*
X8401D01*
X8393Y8965D01*
Y8982D01*
X8401Y8990D01*
X8435D01*
X8603Y8232D02*
X8606Y8232D01*
X8609Y8231D01*
X8613Y8230D01*
X8616Y8229D01*
X8618Y8227D01*
X8621Y8225D01*
X8623Y8222D01*
X8625Y8220D01*
X8626Y8217D01*
X8627Y8213D01*
X8628Y8210D01*
X8628Y8207D01*
X8628Y8204D01*
X8627Y8201D01*
X8626Y8197D01*
X8625Y8194D01*
X8623Y8192D01*
X8621Y8189D01*
X8618Y8187D01*
X8616Y8185D01*
X8613Y8184D01*
X8609Y8183D01*
X8606Y8182D01*
X8603Y8182D01*
Y8107D01*
Y8232D02*
Y8307D01*
X9003D02*
Y8107D01*
Y8307D02*
X8603D01*
Y8107D02*
X9003D01*
X8761Y8247D02*
X8728D01*
X8745D02*
X8761D01*
X8745D02*
Y8197D01*
X8778D02*
Y8247D01*
Y8197D02*
X8811D01*
X8828Y8239D02*
X8836Y8247D01*
X8853D01*
X8861Y8239D01*
Y8205D01*
X8853Y8197D01*
X8836D01*
X8828Y8205D01*
Y8239D01*
X8878Y8247D02*
X8911D01*
X8878D02*
Y8222D01*
X8895Y8230D01*
X8903D01*
X8911Y8222D01*
Y8205D01*
X8903Y8197D01*
X8886D01*
X8878Y8205D01*
X8928Y8197D02*
X8961D01*
X8928D02*
X8961Y8230D01*
Y8239D01*
X8953Y8247D01*
X8936D01*
X8928Y8239D01*
X8538Y8012D02*
Y7970D01*
X8546Y7962D01*
X8563D01*
X8571Y7970D01*
Y8012D01*
X8588Y7962D02*
X8621D01*
X8588D02*
X8621Y7995D01*
Y8004D01*
X8613Y8012D01*
X8596D01*
X8588Y8004D01*
X8670Y7797D02*
X8678Y7789D01*
Y7772D01*
X8670Y7764D01*
X8661D01*
X8662D01*
X8661D02*
X8662D01*
X8661D02*
X8662D01*
X8661D02*
X8653Y7772D01*
Y7780D01*
Y7772D01*
X8645Y7764D01*
X8636D01*
X8628Y7772D01*
Y7789D01*
X8636Y7797D01*
X8670Y7747D02*
X8678Y7739D01*
Y7722D01*
X8670Y7714D01*
X8636D01*
X8628Y7722D01*
Y7739D01*
X8636Y7747D01*
X8670D01*
X8678Y7697D02*
X8628D01*
X8645D01*
X8678Y7664D01*
X8653Y7689D01*
X8628Y7664D01*
X8598Y7867D02*
X8548D01*
X8598D02*
Y7842D01*
X8590Y7834D01*
X8573D01*
X8565Y7842D01*
Y7867D01*
Y7850D02*
X8548Y7834D01*
Y7817D02*
Y7800D01*
Y7809D01*
X8598D01*
X8599D01*
X8598D02*
X8590Y7817D01*
X8548Y7775D02*
Y7742D01*
Y7775D02*
X8581Y7742D01*
X8590D01*
X8598Y7750D01*
Y7767D01*
X8590Y7775D01*
X8733Y7785D02*
Y7802D01*
Y7794D02*
Y7785D01*
Y7794D02*
X8783D01*
X8784D01*
X8783D02*
X8775Y7802D01*
Y7760D02*
X8783Y7752D01*
Y7735D01*
X8775Y7727D01*
X8741D01*
X8733Y7735D01*
Y7752D01*
X8741Y7760D01*
X8775D01*
X8783Y7710D02*
X8733D01*
X8750D01*
X8783Y7677D01*
X8758Y7702D01*
X8733Y7677D01*
X8808Y7762D02*
X8858D01*
Y7737D01*
X8850Y7729D01*
X8833D01*
X8825Y7737D01*
Y7762D01*
Y7745D02*
X8808Y7729D01*
Y7712D02*
Y7695D01*
Y7704D01*
X8858D01*
X8859D01*
X8858D02*
X8850Y7712D01*
Y7670D02*
X8858Y7662D01*
Y7645D01*
X8850Y7637D01*
X8841D01*
X8842D01*
X8841D02*
X8842D01*
X8841D02*
X8842D01*
X8841D02*
X8833Y7645D01*
Y7654D01*
Y7645D01*
X8825Y7637D01*
X8816D01*
X8808Y7645D01*
Y7662D01*
X8816Y7670D01*
X8398Y7440D02*
Y7424D01*
Y7432D02*
Y7440D01*
Y7432D02*
X8356D01*
X8348Y7440D01*
Y7449D01*
X8356Y7457D01*
X8348Y7407D02*
Y7374D01*
Y7407D02*
X8381Y7374D01*
X8390D01*
X8398Y7382D01*
Y7399D01*
X8390Y7407D01*
D13*
X9388Y8497D02*
X9428D01*
X9408Y8517D02*
Y8477D01*
X9448Y8467D02*
X9468D01*
X9458D01*
Y8527D01*
X9459D01*
X9458D02*
X9448Y8517D01*
X9498Y8527D02*
X9538D01*
X9498D02*
Y8497D01*
X9518Y8507D01*
X9528D01*
X9538Y8497D01*
Y8477D01*
X9528Y8467D01*
X9508D01*
X9498Y8477D01*
X9653Y8537D02*
X9663Y8527D01*
X9653Y8537D02*
X9633D01*
X9623Y8527D01*
Y8487D01*
X9633Y8477D01*
X9653D01*
X9663Y8487D01*
Y8507D01*
X9643D01*
X9683Y8477D02*
Y8537D01*
X9723Y8477D01*
Y8537D01*
X9743D02*
Y8477D01*
X9773D01*
X9783Y8487D01*
Y8527D01*
X9773Y8537D01*
X9743D01*
X9858Y8507D02*
X9898D01*
X9918Y8477D02*
X9938D01*
X9928D01*
Y8537D01*
X9929D01*
X9928D02*
X9918Y8527D01*
X9968Y8537D02*
X10008D01*
X9968D02*
Y8507D01*
X9988Y8517D01*
X9998D01*
X10008Y8507D01*
Y8487D01*
X9998Y8477D01*
X9978D01*
X9968Y8487D01*
X10503Y9002D02*
X10563Y9042D01*
Y9002D02*
X10503Y9042D01*
X10533Y8982D02*
Y8942D01*
X10563Y8912D02*
Y8892D01*
Y8912D02*
X10553Y8922D01*
X10513D01*
X10503Y8912D01*
Y8892D01*
X10513Y8882D01*
X10553D01*
X10563Y8892D01*
Y8862D02*
Y8822D01*
Y8862D02*
X10533D01*
Y8842D01*
Y8862D01*
X10503D01*
X10563Y8802D02*
Y8762D01*
Y8802D02*
X10533D01*
Y8782D01*
Y8802D01*
X10503D01*
X10563Y8712D02*
X10553Y8702D01*
X10563Y8712D02*
Y8732D01*
X10553Y8742D01*
X10543D01*
X10533Y8732D01*
Y8712D01*
X10523Y8702D01*
X10513D01*
X10503Y8712D01*
Y8732D01*
X10513Y8742D01*
X10563Y8682D02*
Y8642D01*
Y8682D02*
X10503D01*
Y8642D01*
X10533Y8662D02*
Y8682D01*
X10563Y8622D02*
Y8582D01*
Y8602D01*
X10503D01*
X11123Y8987D02*
X11133D01*
X11123D02*
X11103Y8967D01*
X11123Y8947D01*
X11133D01*
X11103Y8967D02*
X11073D01*
X11103Y8927D02*
Y8887D01*
X11133Y8857D02*
Y8837D01*
Y8857D02*
X11123Y8867D01*
X11083D01*
X11073Y8857D01*
Y8837D01*
X11083Y8827D01*
X11123D01*
X11133Y8837D01*
Y8807D02*
Y8767D01*
Y8807D02*
X11103D01*
Y8787D01*
Y8807D01*
X11073D01*
X11133Y8747D02*
Y8707D01*
Y8747D02*
X11103D01*
Y8727D01*
Y8747D01*
X11073D01*
X11133Y8657D02*
X11123Y8647D01*
X11133Y8657D02*
Y8677D01*
X11123Y8687D01*
X11113D01*
X11103Y8677D01*
Y8657D01*
X11093Y8647D01*
X11083D01*
X11073Y8657D01*
Y8677D01*
X11083Y8687D01*
X11133Y8627D02*
Y8587D01*
Y8627D02*
X11073D01*
Y8587D01*
X11103Y8607D02*
Y8627D01*
X11133Y8567D02*
Y8527D01*
Y8547D01*
X11073D01*
X10263Y7992D02*
X10223D01*
X10263Y8032D01*
Y8042D01*
X10253Y8052D01*
X10233D01*
X10223Y8042D01*
X10283D02*
X10293Y8052D01*
X10313D01*
X10323Y8042D01*
Y8002D01*
X10313Y7992D01*
X10293D01*
X10283Y8002D01*
Y8042D01*
X10343D02*
X10353Y8052D01*
X10373D01*
X10383Y8042D01*
Y8002D01*
X10373Y7992D01*
X10353D01*
X10343Y8002D01*
Y8042D01*
X10403Y8022D02*
X10443D01*
X10463Y7992D02*
X10483D01*
X10473D01*
Y8052D01*
X10474D01*
X10473D02*
X10463Y8042D01*
X10513D02*
X10523Y8052D01*
X10543D01*
X10553Y8042D01*
Y8002D01*
X10543Y7992D01*
X10523D01*
X10513Y8002D01*
Y8042D01*
X10573Y7992D02*
X10613D01*
X10573D02*
X10613Y8032D01*
Y8042D01*
X10603Y8052D01*
X10583D01*
X10573Y8042D01*
X10633D02*
X10643Y8052D01*
X10663D01*
X10673Y8042D01*
Y8002D01*
X10663Y7992D01*
X10643D01*
X10633Y8002D01*
Y8042D01*
X10743Y8057D02*
Y7997D01*
Y8057D02*
X10773D01*
X10783Y8047D01*
Y8027D01*
X10773Y8017D01*
X10743D01*
X10763D02*
X10783Y7997D01*
X10803Y8057D02*
X10843D01*
X10803D02*
Y7997D01*
X10843D01*
X10823Y8027D02*
X10803D01*
X10863Y8017D02*
Y8057D01*
Y8017D02*
X10883Y7997D01*
X10903Y8017D01*
Y8057D01*
X10983D02*
Y7997D01*
X11023D02*
X10983Y8057D01*
X11023D02*
Y7997D01*
X11083Y8047D02*
X11073Y8057D01*
X11053D01*
X11043Y8047D01*
Y8007D01*
X11053Y7997D01*
X11073D01*
X11083Y8007D01*
X10163Y7952D02*
X10153Y7962D01*
X10133D01*
X10123Y7952D01*
Y7912D01*
X10133Y7902D01*
X10153D01*
X10163Y7912D01*
X10193Y7962D02*
X10213D01*
X10193D02*
X10183Y7952D01*
Y7912D01*
X10193Y7902D01*
X10213D01*
X10223Y7912D01*
Y7952D01*
X10213Y7962D01*
X10243D02*
Y7902D01*
Y7962D02*
X10273D01*
X10283Y7952D01*
Y7932D01*
X10273Y7922D01*
X10243D01*
X10303Y7952D02*
Y7962D01*
Y7952D02*
X10323Y7932D01*
X10343Y7952D01*
Y7962D01*
X10323Y7932D02*
Y7902D01*
X10363D02*
Y7962D01*
X10393D01*
X10403Y7952D01*
Y7932D01*
X10393Y7922D01*
X10363D01*
X10383D02*
X10403Y7902D01*
X10423Y7962D02*
X10443D01*
X10433D01*
Y7902D01*
X10423D01*
X10443D01*
X10503Y7962D02*
X10513Y7952D01*
X10503Y7962D02*
X10483D01*
X10473Y7952D01*
Y7912D01*
X10483Y7902D01*
X10503D01*
X10513Y7912D01*
Y7932D01*
X10493D01*
X10533Y7962D02*
Y7902D01*
Y7932D01*
X10573D01*
Y7962D01*
Y7902D01*
X10593Y7962D02*
X10633D01*
X10613D01*
Y7902D01*
X10713Y7922D02*
X10733Y7902D01*
X10713Y7922D02*
Y7942D01*
X10733Y7962D01*
X10793D02*
X10803Y7952D01*
X10793Y7962D02*
X10773D01*
X10763Y7952D01*
Y7912D01*
X10773Y7902D01*
X10793D01*
X10803Y7912D01*
X10823Y7902D02*
X10843Y7922D01*
Y7942D01*
X10823Y7962D01*
X10933Y7902D02*
X10973D01*
X10933D02*
X10973Y7942D01*
Y7952D01*
X10963Y7962D01*
X10943D01*
X10933Y7952D01*
X10993D02*
X11003Y7962D01*
X11023D01*
X11033Y7952D01*
Y7912D01*
X11023Y7902D01*
X11003D01*
X10993Y7912D01*
Y7952D01*
X11053D02*
X11063Y7962D01*
X11083D01*
X11093Y7952D01*
Y7912D01*
X11083Y7902D01*
X11063D01*
X11053Y7912D01*
Y7952D01*
X11113D02*
X11123Y7962D01*
X11143D01*
X11153Y7952D01*
Y7942D01*
X11154D01*
X11153D02*
X11154D01*
X11153D02*
X11154D01*
X11153D02*
X11143Y7932D01*
X11133D01*
X11143D01*
X11153Y7922D01*
Y7912D01*
X11143Y7902D01*
X11123D01*
X11113Y7912D01*
X10138Y7872D02*
Y7812D01*
X10168D01*
X10178Y7822D01*
Y7832D01*
X10168Y7842D01*
X10138D01*
X10139D01*
X10138D02*
X10139D01*
X10138D02*
X10139D01*
X10138D02*
X10168D01*
X10178Y7852D01*
Y7862D01*
X10168Y7872D01*
X10138D01*
X10198D02*
Y7862D01*
X10218Y7842D01*
X10238Y7862D01*
Y7872D01*
X10218Y7842D02*
Y7812D01*
X10338Y7872D02*
X10358D01*
X10348D02*
X10338D01*
X10348D02*
Y7822D01*
X10338Y7812D01*
X10328D01*
X10318Y7822D01*
X10378Y7812D02*
Y7852D01*
X10398Y7872D01*
X10418Y7852D01*
Y7812D01*
Y7842D01*
X10378D01*
X10438Y7812D02*
Y7872D01*
X10458Y7852D01*
X10478Y7872D01*
Y7812D01*
X10498Y7872D02*
X10538D01*
X10498D02*
Y7812D01*
X10538D01*
X10518Y7842D02*
X10498D01*
X10588Y7872D02*
X10598Y7862D01*
X10588Y7872D02*
X10568D01*
X10558Y7862D01*
Y7852D01*
X10568Y7842D01*
X10588D01*
X10598Y7832D01*
Y7822D01*
X10588Y7812D01*
X10568D01*
X10558Y7822D01*
X10678Y7812D02*
Y7872D01*
X10708D01*
X10718Y7862D01*
Y7842D01*
X10708Y7832D01*
X10678D01*
X10738Y7812D02*
Y7852D01*
X10758Y7872D01*
X10778Y7852D01*
Y7812D01*
Y7842D01*
X10738D01*
X10798Y7872D02*
X10838D01*
X10818D01*
Y7812D01*
X10888Y7872D02*
X10898Y7862D01*
X10888Y7872D02*
X10868D01*
X10858Y7862D01*
Y7822D01*
X10868Y7812D01*
X10888D01*
X10898Y7822D01*
X10918Y7812D02*
Y7872D01*
Y7842D02*
Y7812D01*
Y7842D02*
X10958D01*
Y7872D01*
Y7812D01*
X10978Y7872D02*
X11018D01*
X10978D02*
Y7812D01*
X11018D01*
X10998Y7842D02*
X10978D01*
X11038Y7872D02*
Y7812D01*
X11078D01*
X11098D02*
Y7872D01*
Y7812D02*
X11138D01*
X7995Y9742D02*
X7928D01*
X7995Y9809D01*
Y9825D01*
X7978Y9842D01*
X7945D01*
X7928Y9825D01*
X8028D02*
X8045Y9842D01*
X8078D01*
X8095Y9825D01*
Y9759D01*
X8078Y9742D01*
X8045D01*
X8028Y9759D01*
Y9825D01*
X8128D02*
X8145Y9842D01*
X8178D01*
X8195Y9825D01*
Y9759D01*
X8178Y9742D01*
X8145D01*
X8128Y9759D01*
Y9825D01*
X8228Y9792D02*
X8295D01*
X8328Y9742D02*
X8395D01*
X8328D02*
X8395Y9809D01*
Y9825D01*
X8378Y9842D01*
X8345D01*
X8328Y9825D01*
X8428D02*
X8444Y9842D01*
X8478D01*
X8494Y9825D01*
Y9759D01*
X8478Y9742D01*
X8444D01*
X8428Y9759D01*
Y9825D01*
X8528Y9742D02*
X8594D01*
X8528D02*
X8594Y9809D01*
Y9825D01*
X8578Y9842D01*
X8544D01*
X8528Y9825D01*
X8628D02*
X8644Y9842D01*
X8678D01*
X8694Y9825D01*
Y9759D01*
X8678Y9742D01*
X8644D01*
X8628Y9759D01*
Y9825D01*
X8728Y9792D02*
X8794D01*
X8828Y9825D02*
X8844Y9842D01*
X8878D01*
X8894Y9825D01*
Y9759D01*
X8878Y9742D01*
X8844D01*
X8828Y9759D01*
Y9825D01*
X8928Y9842D02*
X8994D01*
X8928D02*
Y9792D01*
X8961Y9809D01*
X8978D01*
X8994Y9792D01*
Y9759D01*
X8978Y9742D01*
X8944D01*
X8928Y9759D01*
X9128Y9742D02*
Y9842D01*
X9178D01*
X9194Y9825D01*
Y9792D01*
X9178Y9775D01*
X9128D01*
X9161D02*
X9194Y9742D01*
X9228Y9842D02*
X9294D01*
X9228D02*
Y9742D01*
X9294D01*
X9261Y9792D02*
X9228D01*
X9328Y9775D02*
Y9842D01*
Y9775D02*
X9361Y9742D01*
X9394Y9775D01*
Y9842D01*
X9527D02*
Y9742D01*
X9594D02*
X9527Y9842D01*
X9594D02*
Y9742D01*
X9694Y9825D02*
X9677Y9842D01*
X9644D01*
X9627Y9825D01*
Y9759D01*
X9644Y9742D01*
X9677D01*
X9694Y9759D01*
X9877Y9842D02*
X9894Y9825D01*
X9877Y9842D02*
X9844D01*
X9827Y9825D01*
Y9759D01*
X9844Y9742D01*
X9877D01*
X9894Y9759D01*
X9944Y9842D02*
X9977D01*
X9944D02*
X9927Y9825D01*
Y9759D01*
X9944Y9742D01*
X9977D01*
X9994Y9759D01*
Y9825D01*
X9977Y9842D01*
X10027D02*
Y9742D01*
X10061Y9809D02*
X10027Y9842D01*
X10061Y9809D02*
X10094Y9842D01*
Y9742D01*
X10127D02*
Y9842D01*
X10177D01*
X10194Y9825D01*
Y9792D01*
X10177Y9775D01*
X10127D01*
X10244Y9842D02*
X10277D01*
X10244D02*
X10227Y9825D01*
Y9759D01*
X10244Y9742D01*
X10277D01*
X10294Y9759D01*
Y9825D01*
X10277Y9842D01*
X10327D02*
Y9742D01*
X10394D02*
X10327Y9842D01*
X10394D02*
Y9742D01*
X10427Y9842D02*
X10494D01*
X10427D02*
Y9742D01*
X10494D01*
X10461Y9792D02*
X10427D01*
X10527Y9742D02*
Y9842D01*
X10594Y9742D01*
Y9842D01*
X10627D02*
X10694D01*
X10660D01*
Y9742D01*
X10827D02*
Y9842D01*
Y9742D02*
X10894D01*
X10927Y9842D02*
X10994D01*
X10927D02*
Y9742D01*
X10994D01*
X10960Y9792D02*
X10927D01*
X11077Y9842D02*
X11094Y9825D01*
X11077Y9842D02*
X11044D01*
X11027Y9825D01*
Y9759D01*
X11044Y9742D01*
X11077D01*
X11094Y9759D01*
Y9792D01*
X11060D01*
X11127Y9842D02*
X11194D01*
X11127D02*
Y9742D01*
X11194D01*
X11160Y9792D02*
X11127D01*
X11227Y9742D02*
Y9842D01*
X11294Y9742D01*
Y9842D01*
X11327D02*
Y9742D01*
X11377D01*
X11394Y9759D01*
Y9825D01*
X11377Y9842D01*
X11327D01*
X10853Y9207D02*
Y8507D01*
X11053D02*
Y9207D01*
X10903D02*
Y9257D01*
X11003D02*
Y9207D01*
X11053Y8507D02*
X10853D01*
Y9207D02*
X11053D01*
X11003Y9257D02*
X10903D01*
X10603Y9207D02*
Y8507D01*
X10803D02*
Y9207D01*
X10653D02*
Y9257D01*
X10753D02*
Y9207D01*
X10803Y8507D02*
X10603D01*
Y9207D02*
X10803D01*
X10753Y9257D02*
X10653D01*
X10878Y7457D02*
X11028Y7307D01*
X10528Y7457D02*
X10378Y7307D01*
Y6485D01*
X11028D02*
Y7307D01*
X10888Y6482D02*
Y6202D01*
X10518D02*
Y6482D01*
X10528Y7457D02*
X10878D01*
X11028Y6485D02*
X10378D01*
X10518Y6202D02*
X10888D01*
X10028Y7307D02*
X9878Y7457D01*
X9528D02*
X9378Y7307D01*
Y6485D01*
X10028D02*
Y7307D01*
X9888Y6482D02*
Y6202D01*
X9518D02*
Y6482D01*
X9528Y7457D02*
X9878D01*
X10028Y6485D02*
X9378D01*
X9518Y6202D02*
X9888D01*
X8703Y8907D02*
X8653Y8957D01*
X8703Y8807D02*
X8653Y8757D01*
X8553D02*
Y8957D01*
X8703Y8907D02*
Y8807D01*
X8653Y8957D02*
X8553D01*
Y8757D02*
X8653D01*
X8878Y7457D02*
X9028Y7307D01*
X8528Y7457D02*
X8378Y7307D01*
Y6485D01*
X9028D02*
Y7307D01*
X8888Y6482D02*
Y6202D01*
X8518D02*
Y6482D01*
X8528Y7457D02*
X8878D01*
X9028Y6485D02*
X8378D01*
X8518Y6202D02*
X8888D01*
X8203Y6507D02*
X11203D01*
Y9257D02*
X8203D01*
Y6507D01*
X11203D02*
Y9257D01*
D14*
X8893Y8827D02*
Y8587D01*
X8813D02*
Y8827D01*
X8853D02*
Y8907D01*
Y8587D02*
Y8507D01*
X8813Y8827D02*
X8893D01*
Y8587D02*
X8813D01*
X8993D02*
Y8827D01*
X8913D02*
Y8587D01*
X8953Y8827D02*
Y8907D01*
Y8587D02*
Y8507D01*
X8913Y8827D02*
X8993D01*
Y8587D02*
X8913D01*
X9093D02*
Y8827D01*
X9013D02*
Y8587D01*
X9053Y8827D02*
Y8907D01*
Y8587D02*
Y8507D01*
X9013Y8827D02*
X9093D01*
Y8587D02*
X9013D01*
X9243Y7477D02*
Y7237D01*
X9163D02*
Y7477D01*
X9203D02*
Y7557D01*
Y7237D02*
Y7157D01*
X9163Y7477D02*
X9243D01*
Y7237D02*
X9163D01*
X9263Y8177D02*
X9263Y8174D01*
X9264Y8171D01*
X9264Y8167D01*
X9265Y8164D01*
X9266Y8161D01*
X9268Y8158D01*
X9269Y8156D01*
X9271Y8153D01*
X9273Y8150D01*
X9275Y8148D01*
X9278Y8146D01*
X9280Y8144D01*
X9283Y8142D01*
X9286Y8141D01*
X9289Y8140D01*
X9292Y8139D01*
X9295Y8138D01*
X9298Y8137D01*
X9301Y8137D01*
X9305D01*
X9308Y8137D01*
X9311Y8138D01*
X9314Y8139D01*
X9317Y8140D01*
X9320Y8141D01*
X9323Y8142D01*
X9326Y8144D01*
X9328Y8146D01*
X9331Y8148D01*
X9333Y8150D01*
X9335Y8153D01*
X9337Y8156D01*
X9338Y8158D01*
X9340Y8161D01*
X9341Y8164D01*
X9342Y8167D01*
X9342Y8171D01*
X9343Y8174D01*
X9343Y8177D01*
Y8237D02*
X9343Y8240D01*
X9342Y8243D01*
X9342Y8247D01*
X9341Y8250D01*
X9340Y8253D01*
X9338Y8256D01*
X9337Y8258D01*
X9335Y8261D01*
X9333Y8264D01*
X9331Y8266D01*
X9328Y8268D01*
X9326Y8270D01*
X9323Y8272D01*
X9320Y8273D01*
X9317Y8274D01*
X9314Y8275D01*
X9311Y8276D01*
X9308Y8277D01*
X9305Y8277D01*
X9301D01*
X9298Y8277D01*
X9295Y8276D01*
X9292Y8275D01*
X9289Y8274D01*
X9286Y8273D01*
X9283Y8272D01*
X9280Y8270D01*
X9278Y8268D01*
X9275Y8266D01*
X9273Y8264D01*
X9271Y8261D01*
X9269Y8258D01*
X9268Y8256D01*
X9266Y8253D01*
X9265Y8250D01*
X9264Y8247D01*
X9264Y8243D01*
X9263Y8240D01*
X9263Y8237D01*
X9303Y8137D02*
Y8097D01*
Y8277D02*
Y8317D01*
X9343Y8237D02*
Y8177D01*
X9263D02*
Y8237D01*
X9413Y7827D02*
Y7587D01*
X9493D02*
Y7827D01*
X9453Y7587D02*
Y7507D01*
Y7827D02*
Y7907D01*
X9413Y7587D02*
X9493D01*
Y7827D02*
X9413D01*
X9513D02*
Y7587D01*
X9593D02*
Y7827D01*
X9553Y7587D02*
Y7507D01*
Y7827D02*
Y7907D01*
X9513Y7587D02*
X9593D01*
Y7827D02*
X9513D01*
X9693D02*
Y7587D01*
X9613D02*
Y7827D01*
X9653D02*
Y7907D01*
Y7587D02*
Y7507D01*
X9613Y7827D02*
X9693D01*
Y7587D02*
X9613D01*
X9713D02*
Y7827D01*
X9793D02*
Y7587D01*
X9753D02*
Y7507D01*
Y7827D02*
Y7907D01*
X9713Y7587D02*
X9793D01*
Y7827D02*
X9713D01*
X9913D02*
Y7587D01*
X9993D02*
Y7827D01*
X9953Y7587D02*
Y7507D01*
Y7827D02*
Y7907D01*
X9913Y7587D02*
X9993D01*
Y7827D02*
X9913D01*
X9143Y8237D02*
X9143Y8240D01*
X9142Y8243D01*
X9142Y8247D01*
X9141Y8250D01*
X9140Y8253D01*
X9138Y8256D01*
X9137Y8258D01*
X9135Y8261D01*
X9133Y8264D01*
X9131Y8266D01*
X9128Y8268D01*
X9126Y8270D01*
X9123Y8272D01*
X9120Y8273D01*
X9117Y8274D01*
X9114Y8275D01*
X9111Y8276D01*
X9108Y8277D01*
X9105Y8277D01*
X9101D01*
X9098Y8277D01*
X9095Y8276D01*
X9092Y8275D01*
X9089Y8274D01*
X9086Y8273D01*
X9083Y8272D01*
X9080Y8270D01*
X9078Y8268D01*
X9075Y8266D01*
X9073Y8264D01*
X9071Y8261D01*
X9069Y8258D01*
X9068Y8256D01*
X9066Y8253D01*
X9065Y8250D01*
X9064Y8247D01*
X9064Y8243D01*
X9063Y8240D01*
X9063Y8237D01*
Y8177D02*
X9063Y8174D01*
X9064Y8171D01*
X9064Y8167D01*
X9065Y8164D01*
X9066Y8161D01*
X9068Y8158D01*
X9069Y8156D01*
X9071Y8153D01*
X9073Y8150D01*
X9075Y8148D01*
X9078Y8146D01*
X9080Y8144D01*
X9083Y8142D01*
X9086Y8141D01*
X9089Y8140D01*
X9092Y8139D01*
X9095Y8138D01*
X9098Y8137D01*
X9101Y8137D01*
X9105D01*
X9108Y8137D01*
X9111Y8138D01*
X9114Y8139D01*
X9117Y8140D01*
X9120Y8141D01*
X9123Y8142D01*
X9126Y8144D01*
X9128Y8146D01*
X9131Y8148D01*
X9133Y8150D01*
X9135Y8153D01*
X9137Y8156D01*
X9138Y8158D01*
X9140Y8161D01*
X9141Y8164D01*
X9142Y8167D01*
X9142Y8171D01*
X9143Y8174D01*
X9143Y8177D01*
X9103Y8277D02*
Y8317D01*
Y8137D02*
Y8097D01*
X9063Y8177D02*
Y8237D01*
X9143D02*
Y8177D01*
X9893Y7827D02*
Y7587D01*
X9813D02*
Y7827D01*
X9853D02*
Y7907D01*
Y7587D02*
Y7507D01*
X9813Y7827D02*
X9893D01*
Y7587D02*
X9813D01*
X10013Y8237D02*
X10013Y8240D01*
X10014Y8243D01*
X10014Y8247D01*
X10015Y8250D01*
X10016Y8253D01*
X10018Y8256D01*
X10019Y8258D01*
X10021Y8261D01*
X10023Y8264D01*
X10025Y8266D01*
X10028Y8268D01*
X10030Y8270D01*
X10033Y8272D01*
X10036Y8273D01*
X10039Y8274D01*
X10042Y8275D01*
X10045Y8276D01*
X10048Y8277D01*
X10051Y8277D01*
X10055D01*
X10058Y8277D01*
X10061Y8276D01*
X10064Y8275D01*
X10067Y8274D01*
X10070Y8273D01*
X10073Y8272D01*
X10076Y8270D01*
X10078Y8268D01*
X10081Y8266D01*
X10083Y8264D01*
X10085Y8261D01*
X10087Y8258D01*
X10088Y8256D01*
X10090Y8253D01*
X10091Y8250D01*
X10092Y8247D01*
X10092Y8243D01*
X10093Y8240D01*
X10093Y8237D01*
Y8177D02*
X10093Y8174D01*
X10092Y8171D01*
X10092Y8167D01*
X10091Y8164D01*
X10090Y8161D01*
X10088Y8158D01*
X10087Y8156D01*
X10085Y8153D01*
X10083Y8150D01*
X10081Y8148D01*
X10078Y8146D01*
X10076Y8144D01*
X10073Y8142D01*
X10070Y8141D01*
X10067Y8140D01*
X10064Y8139D01*
X10061Y8138D01*
X10058Y8137D01*
X10055Y8137D01*
X10051D01*
X10048Y8137D01*
X10045Y8138D01*
X10042Y8139D01*
X10039Y8140D01*
X10036Y8141D01*
X10033Y8142D01*
X10030Y8144D01*
X10028Y8146D01*
X10025Y8148D01*
X10023Y8150D01*
X10021Y8153D01*
X10019Y8156D01*
X10018Y8158D01*
X10016Y8161D01*
X10015Y8164D01*
X10014Y8167D01*
X10014Y8171D01*
X10013Y8174D01*
X10013Y8177D01*
X10053Y8277D02*
Y8317D01*
Y8137D02*
Y8097D01*
X10013Y8177D02*
Y8237D01*
X10093D02*
Y8177D01*
X10069Y8682D02*
Y9182D01*
X9344D02*
Y8682D01*
Y9182D02*
X10069D01*
Y8682D02*
X9344D01*
X8793Y8787D02*
Y9027D01*
X8713D02*
Y8787D01*
X8753Y9027D02*
Y9107D01*
Y8787D02*
Y8707D01*
X8713Y9027D02*
X8793D01*
Y8787D02*
X8713D01*
X8543Y8177D02*
X8543Y8174D01*
X8542Y8171D01*
X8542Y8167D01*
X8541Y8164D01*
X8540Y8161D01*
X8538Y8158D01*
X8537Y8156D01*
X8535Y8153D01*
X8533Y8150D01*
X8531Y8148D01*
X8528Y8146D01*
X8526Y8144D01*
X8523Y8142D01*
X8520Y8141D01*
X8517Y8140D01*
X8514Y8139D01*
X8511Y8138D01*
X8508Y8137D01*
X8505Y8137D01*
X8501D01*
X8498Y8137D01*
X8495Y8138D01*
X8492Y8139D01*
X8489Y8140D01*
X8486Y8141D01*
X8483Y8142D01*
X8480Y8144D01*
X8478Y8146D01*
X8475Y8148D01*
X8473Y8150D01*
X8471Y8153D01*
X8469Y8156D01*
X8468Y8158D01*
X8466Y8161D01*
X8465Y8164D01*
X8464Y8167D01*
X8464Y8171D01*
X8463Y8174D01*
X8463Y8177D01*
Y8237D02*
X8463Y8240D01*
X8464Y8243D01*
X8464Y8247D01*
X8465Y8250D01*
X8466Y8253D01*
X8468Y8256D01*
X8469Y8258D01*
X8471Y8261D01*
X8473Y8264D01*
X8475Y8266D01*
X8478Y8268D01*
X8480Y8270D01*
X8483Y8272D01*
X8486Y8273D01*
X8489Y8274D01*
X8492Y8275D01*
X8495Y8276D01*
X8498Y8277D01*
X8501Y8277D01*
X8505D01*
X8508Y8277D01*
X8511Y8276D01*
X8514Y8275D01*
X8517Y8274D01*
X8520Y8273D01*
X8523Y8272D01*
X8526Y8270D01*
X8528Y8268D01*
X8531Y8266D01*
X8533Y8264D01*
X8535Y8261D01*
X8537Y8258D01*
X8538Y8256D01*
X8540Y8253D01*
X8541Y8250D01*
X8542Y8247D01*
X8542Y8243D01*
X8543Y8240D01*
X8543Y8237D01*
X8503Y8137D02*
Y8097D01*
Y8277D02*
Y8317D01*
X8543Y8237D02*
Y8177D01*
X8463D02*
Y8237D01*
X8363Y8587D02*
Y8827D01*
X8443D02*
Y8587D01*
X8403D02*
Y8507D01*
Y8827D02*
Y8907D01*
X8363Y8587D02*
X8443D01*
Y8827D02*
X8363D01*
X8613Y7827D02*
Y7587D01*
X8693D02*
Y7827D01*
X8653Y7587D02*
Y7507D01*
Y7827D02*
Y7907D01*
X8613Y7587D02*
X8693D01*
Y7827D02*
X8613D01*
X8793D02*
Y7587D01*
X8713D02*
Y7827D01*
X8753D02*
Y7907D01*
Y7587D02*
Y7507D01*
X8713Y7827D02*
X8793D01*
Y7587D02*
X8713D01*
D15*
X10228Y8352D02*
Y8452D01*
Y8352D02*
X10278D01*
X10295Y8369D01*
Y8385D01*
X10278Y8402D01*
X10228D01*
X10229D01*
X10228D02*
X10229D01*
X10228D02*
X10229D01*
X10228D02*
X10278D01*
X10295Y8419D01*
Y8435D01*
X10278Y8452D01*
X10228D01*
X10328Y8419D02*
Y8352D01*
Y8419D02*
X10361Y8452D01*
X10395Y8419D01*
Y8352D01*
Y8402D01*
X10328D01*
X10428Y8352D02*
Y8452D01*
Y8352D02*
X10495D01*
X10528D02*
Y8452D01*
Y8352D02*
X10595D01*
X10628D02*
Y8419D01*
X10661Y8452D01*
X10695Y8419D01*
Y8352D01*
Y8402D01*
X10628D01*
X10728Y8352D02*
Y8452D01*
X10794Y8352D01*
Y8452D01*
X10878D02*
X10894Y8435D01*
X10878Y8452D02*
X10844D01*
X10828Y8435D01*
Y8369D01*
X10844Y8352D01*
X10878D01*
X10894Y8369D01*
X10928Y8452D02*
X10994D01*
X10928D02*
Y8352D01*
X10994D01*
X10961Y8402D02*
X10928D01*
X11028Y8352D02*
Y8452D01*
Y8352D02*
X11078D01*
X11094Y8369D01*
Y8435D01*
X11078Y8452D01*
X11028D01*
X10228Y8312D02*
Y8212D01*
X10261Y8279D02*
X10228Y8312D01*
X10261Y8279D02*
X10295Y8312D01*
Y8212D01*
X10345Y8312D02*
X10378D01*
X10345D02*
X10328Y8295D01*
Y8229D01*
X10345Y8212D01*
X10378D01*
X10395Y8229D01*
Y8295D01*
X10378Y8312D01*
X10428D02*
Y8212D01*
X10478D01*
X10495Y8229D01*
Y8295D01*
X10478Y8312D01*
X10428D01*
X10528D02*
Y8229D01*
X10545Y8212D01*
X10578D01*
X10595Y8229D01*
Y8312D01*
X10628D02*
Y8212D01*
X10695D01*
X10728D02*
Y8279D01*
X10761Y8312D01*
X10794Y8279D01*
Y8212D01*
Y8262D01*
X10728D01*
X10828Y8312D02*
X10894D01*
X10861D01*
Y8212D01*
X10944Y8312D02*
X10978D01*
X10944D02*
X10928Y8295D01*
Y8229D01*
X10944Y8212D01*
X10978D01*
X10994Y8229D01*
Y8295D01*
X10978Y8312D01*
X11028D02*
Y8212D01*
Y8312D02*
X11078D01*
X11094Y8295D01*
Y8262D01*
X11078Y8245D01*
X11028D01*
X11061D02*
X11094Y8212D01*
X10286Y8162D02*
X10233D01*
X10286D02*
Y8149D01*
X10233Y8095D01*
Y8082D01*
X10286D01*
X10313D02*
Y8135D01*
X10340Y8162D01*
X10366Y8135D01*
Y8082D01*
Y8122D01*
X10313D01*
X10433Y8162D02*
X10446Y8149D01*
X10433Y8162D02*
X10406D01*
X10393Y8149D01*
Y8095D01*
X10406Y8082D01*
X10433D01*
X10446Y8095D01*
X10473Y8082D02*
Y8135D01*
X10500Y8162D01*
X10526Y8135D01*
Y8082D01*
Y8122D01*
X10473D01*
X10633Y8162D02*
Y8082D01*
X10673D01*
X10686Y8095D01*
Y8149D01*
X10673Y8162D01*
X10633D01*
X10713D02*
X10766D01*
X10713D02*
Y8082D01*
X10766D01*
X10740Y8122D02*
X10713D01*
X10833Y8162D02*
X10846Y8149D01*
X10833Y8162D02*
X10806D01*
X10793Y8149D01*
Y8135D01*
X10806Y8122D01*
X10833D01*
X10846Y8109D01*
Y8095D01*
X10833Y8082D01*
X10806D01*
X10793Y8095D01*
X10873Y8162D02*
X10899D01*
X10886D01*
Y8082D01*
X10873D01*
X10899D01*
X10979Y8162D02*
X10993Y8149D01*
X10979Y8162D02*
X10953D01*
X10939Y8149D01*
Y8095D01*
X10953Y8082D01*
X10979D01*
X10993Y8095D01*
Y8122D01*
X10966D01*
X11019Y8162D02*
Y8082D01*
X11073D02*
X11019Y8162D01*
X11073D02*
Y8082D01*
D02*
M02*
