*%FSLAX23Y23*%
*%MOIN*%
G01*
%ADD11C,0.007*%
%ADD12C,0.008*%
%ADD13C,0.010*%
%ADD14C,0.012*%
%ADD15C,0.020*%
%ADD16C,0.032*%
%ADD17C,0.036*%
%ADD18C,0.050*%
%ADD19C,0.052*%
%ADD20C,0.055*%
%ADD21C,0.056*%
%ADD22C,0.060*%
%ADD23C,0.061*%
%ADD24C,0.062*%
%ADD25C,0.066*%
%ADD26C,0.068*%
%ADD27C,0.070*%
%ADD28C,0.080*%
%ADD29C,0.090*%
%ADD30C,0.095*%
%ADD31C,0.115*%
%ADD32C,0.120*%
%ADD33C,0.125*%
%ADD34C,0.126*%
%ADD35C,0.131*%
%ADD36C,0.150*%
%ADD37C,0.156*%
%ADD38R,0.062X0.062*%
%ADD39R,0.068X0.068*%
D13*
X7473Y9602D02*
X7540D01*
X7473D02*
X7540Y9669D01*
Y9685D01*
X7523Y9702D01*
X7490D01*
X7473Y9685D01*
X7573D02*
X7590Y9702D01*
X7623D01*
X7640Y9685D01*
Y9619D01*
X7623Y9602D01*
X7590D01*
X7573Y9619D01*
Y9685D01*
X7673D02*
X7690Y9702D01*
X7723D01*
X7740Y9685D01*
Y9619D01*
X7723Y9602D01*
X7690D01*
X7673Y9619D01*
Y9685D01*
X7773Y9652D02*
X7840D01*
X7873Y9602D02*
X7940D01*
X7873D02*
X7940Y9669D01*
Y9685D01*
X7923Y9702D01*
X7890D01*
X7873Y9685D01*
X7973D02*
X7990Y9702D01*
X8023D01*
X8039Y9685D01*
Y9619D01*
X8023Y9602D01*
X7990D01*
X7973Y9619D01*
Y9685D01*
X8073Y9602D02*
X8139D01*
X8073D02*
X8139Y9669D01*
Y9685D01*
X8123Y9702D01*
X8089D01*
X8073Y9685D01*
X8173D02*
X8189Y9702D01*
X8223D01*
X8239Y9685D01*
Y9619D01*
X8223Y9602D01*
X8189D01*
X8173Y9619D01*
Y9685D01*
X8273Y9652D02*
X8339D01*
X8373Y9685D02*
X8389Y9702D01*
X8423D01*
X8439Y9685D01*
Y9619D01*
X8423Y9602D01*
X8389D01*
X8373Y9619D01*
Y9685D01*
X8473D02*
X8489Y9702D01*
X8523D01*
X8539Y9685D01*
Y9669D01*
X8540D01*
X8539D02*
X8540D01*
X8539D02*
X8540D01*
X8539D02*
X8523Y9652D01*
X8506D01*
X8523D01*
X8539Y9635D01*
Y9619D01*
X8523Y9602D01*
X8489D01*
X8473Y9619D01*
X8573Y9602D02*
X8639Y9669D01*
X8673Y9685D02*
X8689Y9702D01*
X8723D01*
X8739Y9685D01*
Y9619D01*
X8723Y9602D01*
X8689D01*
X8673Y9619D01*
Y9685D01*
X8823Y9702D02*
Y9602D01*
X8773Y9652D02*
X8823Y9702D01*
X8839Y9652D02*
X8773D01*
X8973Y9602D02*
Y9702D01*
X9022D01*
X9039Y9685D01*
Y9652D01*
X9022Y9635D01*
X8973D01*
X9006D02*
X9039Y9602D01*
X9072Y9702D02*
X9139D01*
X9072D02*
Y9602D01*
X9139D01*
X9106Y9652D02*
X9072D01*
X9172Y9635D02*
Y9702D01*
Y9635D02*
X9206Y9602D01*
X9239Y9635D01*
Y9702D01*
X9372D02*
Y9602D01*
X9439D02*
X9372Y9702D01*
X9439D02*
Y9602D01*
X9539Y9685D02*
X9522Y9702D01*
X9489D01*
X9472Y9685D01*
Y9619D01*
X9489Y9602D01*
X9522D01*
X9539Y9619D01*
X9722Y9702D02*
X9739Y9685D01*
X9722Y9702D02*
X9689D01*
X9672Y9685D01*
Y9619D01*
X9689Y9602D01*
X9722D01*
X9739Y9619D01*
X9772Y9702D02*
X9806D01*
X9789D01*
Y9602D01*
X9772D01*
X9806D01*
X9856D02*
Y9702D01*
X9906D01*
X9922Y9685D01*
Y9652D01*
X9906Y9635D01*
X9856D01*
X9889D02*
X9922Y9602D01*
X10022Y9685D02*
X10006Y9702D01*
X9972D01*
X9956Y9685D01*
Y9619D01*
X9972Y9602D01*
X10006D01*
X10022Y9619D01*
X10055D02*
Y9702D01*
Y9619D02*
X10072Y9602D01*
X10105D01*
X10122Y9619D01*
Y9702D01*
X10155D02*
X10189D01*
X10172D01*
Y9602D01*
X10155D01*
X10189D01*
X10239Y9702D02*
X10305D01*
X10272D01*
Y9602D01*
X10339D02*
X10405Y9669D01*
X10489Y9702D02*
X10505Y9685D01*
X10489Y9702D02*
X10455D01*
X10439Y9685D01*
Y9619D01*
X10455Y9602D01*
X10489D01*
X10505Y9619D01*
X10555Y9702D02*
X10589D01*
X10555D02*
X10539Y9685D01*
Y9619D01*
X10555Y9602D01*
X10589D01*
X10605Y9619D01*
Y9685D01*
X10589Y9702D01*
X10639D02*
Y9602D01*
X10672Y9669D02*
X10639Y9702D01*
X10672Y9669D02*
X10705Y9702D01*
Y9602D01*
X10739D02*
Y9702D01*
X10789D01*
X10805Y9685D01*
Y9652D01*
X10789Y9635D01*
X10739D01*
X10855Y9702D02*
X10889D01*
X10855D02*
X10839Y9685D01*
Y9619D01*
X10855Y9602D01*
X10889D01*
X10905Y9619D01*
Y9685D01*
X10889Y9702D01*
X10939D02*
Y9602D01*
X11005D02*
X10939Y9702D01*
X11005D02*
Y9602D01*
X11039Y9702D02*
X11105D01*
X11039D02*
Y9602D01*
X11105D01*
X11072Y9652D02*
X11039D01*
X11138Y9602D02*
Y9702D01*
X11205Y9602D01*
Y9702D01*
X11238D02*
X11305D01*
X11272D01*
Y9602D01*
X11488Y9702D02*
X11505Y9685D01*
X11488Y9702D02*
X11455D01*
X11438Y9685D01*
Y9669D01*
X11455Y9652D01*
X11488D01*
X11505Y9635D01*
Y9619D01*
X11488Y9602D01*
X11455D01*
X11438Y9619D01*
X11555Y9702D02*
X11588D01*
X11555D02*
X11538Y9685D01*
Y9619D01*
X11555Y9602D01*
X11588D01*
X11605Y9619D01*
Y9685D01*
X11588Y9702D01*
X11638D02*
Y9602D01*
X11705D01*
X11738D02*
Y9702D01*
Y9602D02*
X11788D01*
X11805Y9619D01*
Y9685D01*
X11788Y9702D01*
X11738D01*
X11838D02*
X11905D01*
X11838D02*
Y9602D01*
X11905D01*
X11872Y9652D02*
X11838D01*
X11938Y9602D02*
Y9702D01*
X11988D01*
X12005Y9685D01*
Y9652D01*
X11988Y9635D01*
X11938D01*
X11972D02*
X12005Y9602D01*
X12138D02*
Y9702D01*
X12171Y9669D01*
X12205Y9702D01*
Y9602D01*
X12238D02*
Y9669D01*
X12271Y9702D01*
X12305Y9669D01*
Y9602D01*
Y9652D01*
X12238D01*
X12388Y9702D02*
X12405Y9685D01*
X12388Y9702D02*
X12355D01*
X12338Y9685D01*
Y9669D01*
X12355Y9652D01*
X12388D01*
X12405Y9635D01*
Y9619D01*
X12388Y9602D01*
X12355D01*
X12338Y9619D01*
X12438Y9602D02*
Y9702D01*
Y9635D02*
Y9602D01*
Y9635D02*
X12505Y9702D01*
X12455Y9652D01*
X12505Y9602D01*
X11203Y6507D02*
X8203D01*
Y9257D02*
X11203D01*
X8203D02*
Y6507D01*
X11203D02*
Y9257D01*
D23*
X8603Y8907D02*
D03*
X8653Y8857D02*
D03*
X8603Y8807D02*
D03*
D25*
X10878Y7582D02*
D03*
X10703Y7707D02*
D03*
X9978Y8332D02*
D03*
X8653Y8182D02*
D03*
D26*
X10903Y9107D02*
D03*
Y8607D02*
D03*
X11003Y8907D02*
D03*
X10653Y9107D02*
D03*
Y8607D02*
D03*
X10753Y8907D02*
D03*
X8853Y8507D02*
D03*
Y8907D02*
D03*
X8953Y8507D02*
D03*
Y8907D02*
D03*
X9053Y8507D02*
D03*
Y8907D02*
D03*
X9203Y7157D02*
D03*
Y7557D02*
D03*
X9303Y8357D02*
D03*
Y8057D02*
D03*
X9753D02*
D03*
X9853D02*
D03*
Y8357D02*
D03*
X9753D02*
D03*
X9653D02*
D03*
X9553D02*
D03*
X9653Y8057D02*
D03*
X9453Y7907D02*
D03*
Y7507D02*
D03*
X9553Y7907D02*
D03*
Y7507D02*
D03*
X9653D02*
D03*
Y7907D02*
D03*
X9753D02*
D03*
Y7507D02*
D03*
X9953Y7907D02*
D03*
Y7507D02*
D03*
X9103Y8057D02*
D03*
Y8357D02*
D03*
X9853Y7507D02*
D03*
Y7907D02*
D03*
X10053Y8057D02*
D03*
Y8357D02*
D03*
X8753Y8707D02*
D03*
Y9107D02*
D03*
X8503Y8357D02*
D03*
Y8057D02*
D03*
X8403Y8907D02*
D03*
Y8507D02*
D03*
X8853Y8057D02*
D03*
X8953D02*
D03*
Y8357D02*
D03*
X8853D02*
D03*
X8753D02*
D03*
X8653D02*
D03*
X8753Y8057D02*
D03*
X8653Y7907D02*
D03*
Y7507D02*
D03*
X8753D02*
D03*
Y7907D02*
D03*
D34*
X10553Y6807D02*
D03*
X10853D02*
D03*
X10703Y7307D02*
D03*
X9553Y6807D02*
D03*
X9853D02*
D03*
X9703Y7307D02*
D03*
X8553Y6807D02*
D03*
X8853D02*
D03*
X8703Y7307D02*
D03*
D35*
X9781Y8607D02*
D03*
X9469D02*
D03*
X9937D02*
D03*
X9625D02*
D03*
D37*
X10953Y7207D02*
D03*
X10853Y7007D02*
D03*
X10703Y6707D02*
D03*
X9953Y7207D02*
D03*
X9853Y7007D02*
D03*
X9703Y6707D02*
D03*
X8953Y7207D02*
D03*
X8853Y7007D02*
D03*
X8703Y6707D02*
D03*
D39*
X9553Y8057D02*
D03*
X8653D02*
D03*
M02*
