G04 #@! TF.GenerationSoftware,KiCad,Pcbnew,(5.1.2)-2*
G04 #@! TF.CreationDate,2019-07-21T19:38:03-07:00*
G04 #@! TF.ProjectId,300-1002,3330302d-3130-4303-922e-6b696361645f,rev?*
G04 #@! TF.SameCoordinates,Original*
G04 #@! TF.FileFunction,Copper,L2,Bot*
G04 #@! TF.FilePolarity,Positive*
%FSLAX46Y46*%
G04 Gerber Fmt 4.6, Leading zero omitted, Abs format (unit mm)*
G04 Created by KiCad (PCBNEW (5.1.2)-2) date 2019-07-21 19:38:03*
%MOMM*%
%LPD*%
G04 APERTURE LIST*
%ADD10C,1.574800*%
%ADD11C,6.350000*%
%ADD12C,2.500000*%
%ADD13C,4.000000*%
%ADD14C,2.700000*%
%ADD15R,1.574800X1.574800*%
%ADD16R,1.800000X1.800000*%
%ADD17C,1.800000*%
%ADD18C,2.286000*%
%ADD19C,1.397000*%
%ADD20C,1.270000*%
%ADD21C,1.016000*%
%ADD22C,0.304800*%
%ADD23C,1.270000*%
%ADD24C,0.762000*%
%ADD25C,0.508000*%
G04 APERTURE END LIST*
D10*
X115570000Y-83820000D03*
X115570000Y-73660000D03*
X133350000Y-90170000D03*
X143510000Y-90170000D03*
D11*
X91440000Y-123190000D03*
X173990000Y-123190000D03*
X173990000Y-46990000D03*
X91440000Y-46990000D03*
D12*
X167230000Y-115430000D03*
X157730000Y-122730000D03*
X167530000Y-122730000D03*
D13*
X163830000Y-121730000D03*
D14*
X158630000Y-115430000D03*
X163830000Y-114480000D03*
D10*
X116840000Y-116840000D03*
X116840000Y-119380000D03*
X130810000Y-113030000D03*
X128270000Y-113030000D03*
D15*
X158750000Y-104140000D03*
D10*
X158750000Y-106680000D03*
X157480000Y-95250000D03*
D15*
X154940000Y-95250000D03*
D10*
X110490000Y-87630000D03*
X118110000Y-87630000D03*
D16*
X99060000Y-67310000D03*
D17*
X99060000Y-64770000D03*
X107950000Y-64770000D03*
D16*
X107950000Y-67310000D03*
X116840000Y-67310000D03*
D17*
X116840000Y-64770000D03*
X125730000Y-64770000D03*
D16*
X125730000Y-67310000D03*
X134620000Y-67310000D03*
D17*
X134620000Y-64770000D03*
D16*
X143510000Y-67310000D03*
D17*
X143510000Y-64770000D03*
X153670000Y-64770000D03*
D16*
X153670000Y-67310000D03*
D17*
X162560000Y-64770000D03*
D16*
X162560000Y-67310000D03*
D15*
X146050000Y-95250000D03*
D10*
X148590000Y-95250000D03*
X146050000Y-97790000D03*
X148590000Y-97790000D03*
X146050000Y-100330000D03*
X148590000Y-100330000D03*
X146050000Y-102870000D03*
X148590000Y-102870000D03*
X146050000Y-105410000D03*
X148590000Y-105410000D03*
X132080000Y-78740000D03*
X132080000Y-81280000D03*
X129540000Y-78740000D03*
X129540000Y-81280000D03*
X127000000Y-78740000D03*
X127000000Y-81280000D03*
X124460000Y-78740000D03*
X124460000Y-81280000D03*
X121920000Y-78740000D03*
D15*
X121920000Y-81280000D03*
D10*
X104140000Y-78740000D03*
X104140000Y-81280000D03*
X101600000Y-78740000D03*
X101600000Y-81280000D03*
X99060000Y-78740000D03*
X99060000Y-81280000D03*
X96520000Y-78740000D03*
X96520000Y-81280000D03*
X93980000Y-78740000D03*
D15*
X93980000Y-81280000D03*
D10*
X100330000Y-121920000D03*
X100330000Y-119380000D03*
X102870000Y-121920000D03*
X102870000Y-119380000D03*
X105410000Y-121920000D03*
X105410000Y-119380000D03*
X107950000Y-121920000D03*
X107950000Y-119380000D03*
X110490000Y-121920000D03*
D15*
X110490000Y-119380000D03*
X134620000Y-119380000D03*
D10*
X134620000Y-121920000D03*
X132080000Y-119380000D03*
X132080000Y-121920000D03*
X129540000Y-119380000D03*
X129540000Y-121920000D03*
X127000000Y-119380000D03*
X127000000Y-121920000D03*
X124460000Y-119380000D03*
X124460000Y-121920000D03*
D15*
X171450000Y-55880000D03*
D10*
X173990000Y-55880000D03*
X171450000Y-58420000D03*
X173990000Y-58420000D03*
X171450000Y-60960000D03*
X173990000Y-60960000D03*
X171450000Y-63500000D03*
X173990000Y-63500000D03*
X171450000Y-66040000D03*
X173990000Y-66040000D03*
D15*
X170815000Y-81915000D03*
D10*
X173355000Y-81915000D03*
X170815000Y-84455000D03*
X173355000Y-84455000D03*
X170815000Y-86995000D03*
X173355000Y-86995000D03*
X170815000Y-89535000D03*
X173355000Y-89535000D03*
X170815000Y-92075000D03*
X173355000Y-92075000D03*
X102870000Y-56515000D03*
X102870000Y-46355000D03*
X111760000Y-46355000D03*
X111760000Y-56515000D03*
X120650000Y-56515000D03*
X120650000Y-46355000D03*
X128905000Y-46355000D03*
X128905000Y-56515000D03*
X138430000Y-56515000D03*
X138430000Y-46355000D03*
X147320000Y-46355000D03*
X147320000Y-56515000D03*
X157480000Y-56515000D03*
X157480000Y-46355000D03*
X166370000Y-46355000D03*
X166370000Y-56515000D03*
X103505000Y-73660000D03*
X103505000Y-63500000D03*
X112395000Y-63500000D03*
X112395000Y-73660000D03*
X121285000Y-63500000D03*
X121285000Y-73660000D03*
X130175000Y-63500000D03*
X130175000Y-73660000D03*
X139065000Y-63500000D03*
X139065000Y-73660000D03*
X147955000Y-73660000D03*
X147955000Y-63500000D03*
X158115000Y-73660000D03*
X158115000Y-63500000D03*
X167005000Y-74930000D03*
X167005000Y-64770000D03*
X99060000Y-56616600D03*
X99060000Y-54610000D03*
X99060000Y-52603400D03*
D18*
X99060000Y-58724800D03*
X99060000Y-50495200D03*
X107950000Y-50495200D03*
X107950000Y-58724800D03*
D10*
X107950000Y-52603400D03*
X107950000Y-54610000D03*
X107950000Y-56616600D03*
X116840000Y-56616600D03*
X116840000Y-54610000D03*
X116840000Y-52603400D03*
D18*
X116840000Y-58724800D03*
X116840000Y-50495200D03*
X125730000Y-50495200D03*
X125730000Y-58724800D03*
D10*
X125730000Y-52603400D03*
X125730000Y-54610000D03*
X125730000Y-56616600D03*
X134620000Y-56616600D03*
X134620000Y-54610000D03*
X134620000Y-52603400D03*
D18*
X134620000Y-58724800D03*
X134620000Y-50495200D03*
X143510000Y-50495200D03*
X143510000Y-58724800D03*
D10*
X143510000Y-52603400D03*
X143510000Y-54610000D03*
X143510000Y-56616600D03*
X153670000Y-56616600D03*
X153670000Y-54610000D03*
X153670000Y-52603400D03*
D18*
X153670000Y-58724800D03*
X153670000Y-50495200D03*
X162560000Y-50495200D03*
X162560000Y-58724800D03*
D10*
X162560000Y-52603400D03*
X162560000Y-54610000D03*
X162560000Y-56616600D03*
X90170000Y-92710000D03*
D15*
X90170000Y-107950000D03*
D10*
X92710000Y-92710000D03*
X92710000Y-107950000D03*
X95250000Y-92710000D03*
X95250000Y-107950000D03*
X97790000Y-92710000D03*
X97790000Y-107950000D03*
X100330000Y-92710000D03*
X100330000Y-107950000D03*
X102870000Y-92710000D03*
X102870000Y-107950000D03*
X105410000Y-92710000D03*
X105410000Y-107950000D03*
X107950000Y-92710000D03*
X107950000Y-107950000D03*
X110490000Y-92710000D03*
X110490000Y-107950000D03*
X113030000Y-92710000D03*
X113030000Y-107950000D03*
X115570000Y-92710000D03*
X115570000Y-107950000D03*
X118110000Y-92710000D03*
X118110000Y-107950000D03*
X120650000Y-92710000D03*
X120650000Y-107950000D03*
X123190000Y-92710000D03*
X123190000Y-107950000D03*
X125730000Y-92710000D03*
X125730000Y-107950000D03*
X128270000Y-92710000D03*
X128270000Y-107950000D03*
X130810000Y-92710000D03*
X130810000Y-107950000D03*
X133350000Y-92710000D03*
X133350000Y-107950000D03*
X135890000Y-92710000D03*
X135890000Y-107950000D03*
X138430000Y-92710000D03*
X138430000Y-107950000D03*
D19*
X156210000Y-100330000D03*
X157480000Y-99060000D03*
X158750000Y-100330000D03*
D10*
X116840000Y-113030000D03*
X121920000Y-113030000D03*
X166370000Y-100330000D03*
X166370000Y-110490000D03*
X173990000Y-100330000D03*
X173990000Y-110490000D03*
X162560000Y-110490000D03*
X162560000Y-100330000D03*
X170180000Y-110490000D03*
X170180000Y-100330000D03*
D20*
X118110000Y-82550000D03*
X154940000Y-109220000D03*
X152400000Y-109220000D03*
X175260000Y-74930000D03*
D21*
X163830000Y-72390000D03*
X163830000Y-81915000D03*
X164465000Y-71120000D03*
X165100000Y-80010000D03*
X166370000Y-70485000D03*
X166370000Y-84455000D03*
X167640000Y-69215000D03*
X167182810Y-83185000D03*
X137160000Y-88265000D03*
X142240000Y-86995000D03*
X153670000Y-89535000D03*
X162560000Y-89535000D03*
X124460000Y-86360000D03*
X130632190Y-86360000D03*
X130810000Y-97155000D03*
X125730000Y-99060000D03*
X128270000Y-87452190D03*
X125730000Y-87452190D03*
X128270000Y-100330000D03*
X110490000Y-101600000D03*
X129540000Y-90170021D03*
X121920000Y-103505000D03*
X132080000Y-87630000D03*
X131445000Y-88900000D03*
X123190000Y-85090000D03*
X133350000Y-85090000D03*
X121920000Y-83820000D03*
X104317799Y-115392201D03*
X107950000Y-115112810D03*
X106680000Y-111760000D03*
X102870000Y-111760000D03*
X105410000Y-113665000D03*
X100330000Y-113665000D03*
X110490000Y-110490000D03*
X95250000Y-112395000D03*
X109677190Y-112395000D03*
X92710000Y-113030000D03*
X111734590Y-113030000D03*
X90170000Y-114300000D03*
X111277379Y-114300000D03*
X134162810Y-112485979D03*
X136525000Y-111760000D03*
X133350000Y-117475021D03*
X130810000Y-117475000D03*
X135255000Y-117475000D03*
X138430000Y-114935000D03*
X139065000Y-116205000D03*
X120650000Y-60325000D03*
X128905000Y-60985411D03*
X138490044Y-61595021D03*
X149340771Y-62052232D03*
X160020000Y-62865000D03*
X168910000Y-66040000D03*
D22*
X116840000Y-113030000D02*
X116840000Y-111760000D01*
X116840000Y-111760000D02*
X118110000Y-110490000D01*
X118110000Y-110490000D02*
X118110000Y-107950000D01*
X116840000Y-116840000D02*
X116840000Y-113030000D01*
D23*
X157480000Y-95250000D02*
X157480000Y-99060000D01*
D24*
X157962601Y-105892601D02*
X158750000Y-106680000D01*
X157429199Y-105359199D02*
X157962601Y-105892601D01*
X157429199Y-100934015D02*
X157429199Y-105359199D01*
X157480000Y-100883214D02*
X157429199Y-100934015D01*
X157480000Y-99060000D02*
X157480000Y-100883214D01*
D23*
X115570000Y-107950000D02*
X115570000Y-101600000D01*
X113030000Y-99060000D02*
X113030000Y-92710000D01*
X115570000Y-101600000D02*
X113030000Y-99060000D01*
X118110000Y-87630000D02*
X116840000Y-87630000D01*
X113030000Y-91440000D02*
X113030000Y-92710000D01*
X116840000Y-87630000D02*
X113030000Y-91440000D01*
D25*
X118110000Y-87630000D02*
X118110000Y-82550000D01*
X170815000Y-92075000D02*
X168910000Y-90170000D01*
X168910000Y-90170000D02*
X168910000Y-78740000D01*
X168910000Y-78740000D02*
X171450000Y-76200000D01*
X171450000Y-76200000D02*
X171450000Y-66040000D01*
D23*
X116052601Y-118592601D02*
X116840000Y-119380000D01*
X115087409Y-117627409D02*
X116052601Y-118592601D01*
X115570000Y-109063551D02*
X115087409Y-109546142D01*
X115087409Y-109546142D02*
X115087409Y-117627409D01*
X115570000Y-107950000D02*
X115570000Y-109063551D01*
X168215908Y-54610000D02*
X163673551Y-54610000D01*
X163673551Y-54610000D02*
X162560000Y-54610000D01*
X169545000Y-55939092D02*
X168215908Y-54610000D01*
X169545000Y-64135000D02*
X169545000Y-55939092D01*
X171450000Y-66040000D02*
X169545000Y-64135000D01*
X158750000Y-106680000D02*
X162560000Y-110490000D01*
D22*
X121920000Y-113030000D02*
X121920000Y-111760000D01*
X121920000Y-111760000D02*
X120650000Y-110490000D01*
X120650000Y-110490000D02*
X120650000Y-107950000D01*
D23*
X154940000Y-95250000D02*
X154940000Y-99060000D01*
X154940000Y-99060000D02*
X156210000Y-100330000D01*
X154940000Y-101600000D02*
X156210000Y-100330000D01*
X154940000Y-109220000D02*
X154940000Y-101600000D01*
X154940000Y-109220000D02*
X152400000Y-109220000D01*
X110490000Y-99060000D02*
X110490000Y-92710000D01*
X113030000Y-107950000D02*
X113030000Y-101600000D01*
X113030000Y-101600000D02*
X110490000Y-99060000D01*
X110490000Y-92710000D02*
X110490000Y-87630000D01*
D25*
X104140000Y-78740000D02*
X104140000Y-76200000D01*
X103505000Y-75565000D02*
X103505000Y-73660000D01*
X104140000Y-76200000D02*
X103505000Y-75565000D01*
X130175000Y-75565000D02*
X130175000Y-73660000D01*
X132080000Y-78740000D02*
X132080000Y-77470000D01*
X132080000Y-77470000D02*
X130175000Y-75565000D01*
X173990000Y-67310000D02*
X173990000Y-66040000D01*
X175260000Y-68580000D02*
X173990000Y-67310000D01*
X173355000Y-92075000D02*
X175260000Y-90170000D01*
X175260000Y-90170000D02*
X175260000Y-68580000D01*
D23*
X168910000Y-48895000D02*
X166370000Y-46355000D01*
X173990000Y-66040000D02*
X176530000Y-63500000D01*
X176530000Y-54610000D02*
X175260000Y-53340000D01*
X175260000Y-53340000D02*
X172085000Y-53340000D01*
X176530000Y-63500000D02*
X176530000Y-54610000D01*
X172085000Y-53340000D02*
X168910000Y-50165000D01*
X168910000Y-50165000D02*
X168910000Y-48895000D01*
X116205000Y-121920000D02*
X124460000Y-121920000D01*
X113030000Y-107950000D02*
X113030000Y-118745000D01*
X113030000Y-118745000D02*
X116205000Y-121920000D01*
X154940000Y-93192600D02*
X154940000Y-95250000D01*
X151917400Y-90170000D02*
X154940000Y-93192600D01*
X143510000Y-90170000D02*
X151917400Y-90170000D01*
D22*
X163830000Y-72390000D02*
X163830000Y-81915000D01*
X164465000Y-71120000D02*
X165100000Y-71755000D01*
X165100000Y-71755000D02*
X165100000Y-80010000D01*
X166370000Y-70485000D02*
X168275000Y-72390000D01*
X168275000Y-72390000D02*
X168275000Y-75565000D01*
X168275000Y-75565000D02*
X166370000Y-77470000D01*
X166370000Y-77470000D02*
X166370000Y-84455000D01*
X167182810Y-78562190D02*
X167182810Y-82466580D01*
X167640000Y-69215000D02*
X168910000Y-70485000D01*
X167182810Y-82466580D02*
X167182810Y-83185000D01*
X168910000Y-76835000D02*
X167182810Y-78562190D01*
X168910000Y-70485000D02*
X168910000Y-76835000D01*
X134620000Y-67310000D02*
X134620000Y-68514800D01*
X134620000Y-68514800D02*
X134620000Y-80645000D01*
X134620000Y-80645000D02*
X137160000Y-83185000D01*
X137160000Y-83185000D02*
X137160000Y-88265000D01*
X143510000Y-67310000D02*
X143510000Y-85725000D01*
X143510000Y-85725000D02*
X142240000Y-86995000D01*
X153670000Y-67310000D02*
X153670000Y-89535000D01*
X162560000Y-67310000D02*
X162560000Y-89535000D01*
X124460000Y-81280000D02*
X124460000Y-86360000D01*
X130810000Y-92710000D02*
X130810000Y-91596449D01*
X130810000Y-91596449D02*
X130632190Y-91418639D01*
X130632190Y-91418639D02*
X130632190Y-86360000D01*
X130810000Y-97155000D02*
X130810000Y-92710000D01*
X127000000Y-81280000D02*
X127000000Y-88265000D01*
X127000000Y-88265000D02*
X125730000Y-89535000D01*
X125730000Y-89535000D02*
X125730000Y-92710000D01*
X125730000Y-99060000D02*
X125730000Y-92710000D01*
X128270000Y-92710000D02*
X128270000Y-87452190D01*
X125730000Y-80010000D02*
X125730000Y-86733770D01*
X124460000Y-78740000D02*
X125730000Y-80010000D01*
X125730000Y-86733770D02*
X125730000Y-87452190D01*
X128270000Y-100330000D02*
X128270000Y-92710000D01*
X110490000Y-101600000D02*
X110490000Y-107950000D01*
X128270000Y-85725000D02*
X129540000Y-86995000D01*
X129540000Y-89451601D02*
X129540000Y-90170021D01*
X129540000Y-86995000D02*
X129540000Y-89451601D01*
X128270000Y-80010000D02*
X128270000Y-85725000D01*
X127000000Y-78740000D02*
X128270000Y-80010000D01*
X121920000Y-103505000D02*
X121920000Y-93980000D01*
X121920000Y-93980000D02*
X123190000Y-92710000D01*
X129540000Y-78740000D02*
X130327399Y-79527399D01*
X130327399Y-79527399D02*
X130810000Y-80010000D01*
X130810000Y-80010000D02*
X130810000Y-82550000D01*
X132080000Y-83820000D02*
X132080000Y-87630000D01*
X130810000Y-82550000D02*
X132080000Y-83820000D01*
X129540000Y-81280000D02*
X129540000Y-82393551D01*
X131267198Y-88003778D02*
X131445000Y-88181580D01*
X131445000Y-88181580D02*
X131445000Y-88900000D01*
X131445000Y-87062052D02*
X131267198Y-87239854D01*
X131267198Y-87239854D02*
X131267198Y-88003778D01*
X131445000Y-84298551D02*
X131445000Y-87062052D01*
X129540000Y-82393551D02*
X131445000Y-84298551D01*
X121920000Y-78740000D02*
X123190000Y-80010000D01*
X123190000Y-80010000D02*
X123190000Y-85090000D01*
X133350000Y-85090000D02*
X133350000Y-92710000D01*
X133350000Y-90170000D02*
X133350000Y-92710000D01*
X121920000Y-81280000D02*
X121920000Y-83820000D01*
X107950000Y-89890598D02*
X107950000Y-92710000D01*
X102692201Y-84632799D02*
X107950000Y-89890598D01*
X101600000Y-78740000D02*
X102692201Y-79832201D01*
X102692201Y-79832201D02*
X102692201Y-84632799D01*
X101600000Y-81280000D02*
X101600000Y-86995000D01*
X101600000Y-86995000D02*
X105410000Y-90805000D01*
X105410000Y-90805000D02*
X105410000Y-92710000D01*
X102870000Y-89535000D02*
X102870000Y-92710000D01*
X100330000Y-86995000D02*
X102870000Y-89535000D01*
X99060000Y-78740000D02*
X100330000Y-80010000D01*
X100330000Y-80010000D02*
X100330000Y-86995000D01*
X99060000Y-81280000D02*
X99060000Y-86995000D01*
X99060000Y-86995000D02*
X100330000Y-88265000D01*
X100330000Y-88265000D02*
X100330000Y-92710000D01*
X96520000Y-78740000D02*
X97790000Y-80010000D01*
X97790000Y-80010000D02*
X97790000Y-86360000D01*
X97790000Y-86360000D02*
X97790000Y-92710000D01*
X96520000Y-81280000D02*
X96520000Y-86360000D01*
X96520000Y-86360000D02*
X95250000Y-87630000D01*
X95250000Y-87630000D02*
X95250000Y-92710000D01*
X93980000Y-78740000D02*
X95250000Y-80010000D01*
X95250000Y-80010000D02*
X95250000Y-86983408D01*
X95250000Y-86983408D02*
X92710000Y-89523408D01*
X92710000Y-91596449D02*
X92710000Y-92710000D01*
X92710000Y-89523408D02*
X92710000Y-91596449D01*
X93980000Y-81280000D02*
X93980000Y-85725000D01*
X93980000Y-85725000D02*
X90170000Y-89535000D01*
X90170000Y-89535000D02*
X90170000Y-92710000D01*
X102870000Y-121920000D02*
X103657399Y-121132601D01*
X104317799Y-120472201D02*
X104317799Y-115392201D01*
X103657399Y-121132601D02*
X104317799Y-120472201D01*
X107950000Y-107950000D02*
X107950000Y-115112810D01*
X102870000Y-119380000D02*
X102870000Y-112962946D01*
X102870000Y-112962946D02*
X105410000Y-110422946D01*
X105410000Y-109063551D02*
X105410000Y-107950000D01*
X105410000Y-110422946D02*
X105410000Y-109063551D01*
X105410000Y-121920000D02*
X106680000Y-120650000D01*
X106680000Y-120650000D02*
X106680000Y-111760000D01*
X102870000Y-111760000D02*
X102870000Y-107950000D01*
X105410000Y-119380000D02*
X105410000Y-113665000D01*
X100330000Y-113665000D02*
X100330000Y-107950000D01*
X110490000Y-113884433D02*
X110490000Y-111208420D01*
X110490000Y-111208420D02*
X110490000Y-110490000D01*
X109220000Y-118110000D02*
X110464578Y-116865422D01*
X107950000Y-121920000D02*
X109220000Y-120650000D01*
X110464578Y-113909855D02*
X110490000Y-113884433D01*
X110464578Y-116865422D02*
X110464578Y-113909855D01*
X109220000Y-120650000D02*
X109220000Y-118110000D01*
X95250000Y-112395000D02*
X95250000Y-107950000D01*
X109677190Y-113113420D02*
X109677190Y-112395000D01*
X109677190Y-115747810D02*
X109677190Y-113113420D01*
X107950000Y-117475000D02*
X109677190Y-115747810D01*
X107950000Y-119380000D02*
X107950000Y-117475000D01*
X92710000Y-113030000D02*
X92710000Y-107950000D01*
X112090189Y-120319811D02*
X112090189Y-113385599D01*
X110490000Y-121920000D02*
X112090189Y-120319811D01*
X112090189Y-113385599D02*
X111734590Y-113030000D01*
X90170000Y-114300000D02*
X90170000Y-107950000D01*
X110490000Y-119380000D02*
X110490000Y-118287800D01*
X110490000Y-118287800D02*
X111277379Y-117500421D01*
X111277379Y-117500421D02*
X111277379Y-115018420D01*
X111277379Y-115018420D02*
X111277379Y-114300000D01*
X134620000Y-119380000D02*
X134620000Y-118287800D01*
X134162810Y-117830610D02*
X134162810Y-112485979D01*
X134620000Y-118287800D02*
X134162810Y-117830610D01*
X134620000Y-121920000D02*
X135407399Y-121132601D01*
X135407399Y-121132601D02*
X136525000Y-120015000D01*
X136525000Y-120015000D02*
X136525000Y-111760000D01*
X132079988Y-111759988D02*
X129057399Y-108737399D01*
X132080000Y-119380000D02*
X132080000Y-118266449D01*
X129057399Y-108737399D02*
X128270000Y-107950000D01*
X132079988Y-118266437D02*
X132079988Y-111759988D01*
X132080000Y-118266449D02*
X132079988Y-118266437D01*
X132537199Y-109677199D02*
X131597399Y-108737399D01*
X132080000Y-121920000D02*
X133350000Y-120650000D01*
X133350000Y-120650000D02*
X133350000Y-118677969D01*
X131597399Y-108737399D02*
X130810000Y-107950000D01*
X132537198Y-117865167D02*
X132537199Y-109677199D01*
X133350000Y-118677969D02*
X132537198Y-117865167D01*
X133350000Y-107950000D02*
X133350000Y-117475021D01*
X129540000Y-121920000D02*
X130810000Y-120650000D01*
X130810000Y-120650000D02*
X130810000Y-117475000D01*
X135255000Y-108585000D02*
X135890000Y-107950000D01*
X135255000Y-117475000D02*
X135255000Y-108585000D01*
X138430000Y-114935000D02*
X138430000Y-107950000D01*
X139572999Y-115697001D02*
X139572999Y-97027999D01*
X139065000Y-116205000D02*
X139572999Y-115697001D01*
X139572999Y-97027999D02*
X138430000Y-95885000D01*
X138430000Y-95885000D02*
X138430000Y-92710000D01*
X116205000Y-48260000D02*
X163195000Y-48260000D01*
X170815000Y-55880000D02*
X171450000Y-55880000D01*
X114935000Y-49530000D02*
X116205000Y-48260000D01*
X114935000Y-57150000D02*
X114935000Y-49530000D01*
X111281449Y-60803551D02*
X114935000Y-57150000D01*
X106045000Y-60803551D02*
X111281449Y-60803551D01*
X102870000Y-57628551D02*
X106045000Y-60803551D01*
X102870000Y-56515000D02*
X102870000Y-57628551D01*
X163195000Y-48260000D02*
X170815000Y-55880000D01*
X111760000Y-56515000D02*
X111760000Y-52058408D01*
X172720000Y-54610000D02*
X173202601Y-55092601D01*
X173202601Y-55092601D02*
X173990000Y-55880000D01*
X171450000Y-54610000D02*
X172720000Y-54610000D01*
X164642791Y-47802791D02*
X171450000Y-54610000D01*
X116015617Y-47802791D02*
X164642791Y-47802791D01*
X111760000Y-52058408D02*
X116015617Y-47802791D01*
X120650000Y-60325000D02*
X120650000Y-56515000D01*
X128905000Y-56515000D02*
X128905000Y-60985411D01*
X138430000Y-61534977D02*
X138490044Y-61595021D01*
X138430000Y-56515000D02*
X138430000Y-61534977D01*
X149340771Y-61333812D02*
X149340771Y-62052232D01*
X149340771Y-58535771D02*
X149340771Y-61333812D01*
X147320000Y-56515000D02*
X149340771Y-58535771D01*
X160020000Y-62865000D02*
X160020000Y-57150000D01*
X160020000Y-57150000D02*
X159385000Y-56515000D01*
X159385000Y-56515000D02*
X157480000Y-56515000D01*
X168910000Y-65058542D02*
X167640000Y-63788542D01*
X168910000Y-66040000D02*
X168910000Y-65058542D01*
X167640000Y-63788542D02*
X167640000Y-57785000D01*
X167640000Y-57785000D02*
X166370000Y-56515000D01*
D23*
X158750000Y-104140000D02*
X158750000Y-100330000D01*
X162560000Y-106680000D02*
X166370000Y-110490000D01*
X162560000Y-100330000D02*
X162560000Y-106680000D01*
X163830000Y-113030000D02*
X166370000Y-110490000D01*
X163830000Y-114480000D02*
X163830000Y-113030000D01*
X170180000Y-106680000D02*
X173990000Y-110490000D01*
X170180000Y-100330000D02*
X170180000Y-106680000D01*
M02*
