M48
;DRILL file {KiCad 4.0.5} date 02/09/17 20:17:58
;FORMAT={-:-/ absolute / inch / decimal}
FMAT,2
INCH,TZ
T1C0.032
T2C0.036
T3C0.070
T4C0.140
%
G90
G05
M72
T1
X2.95Y-4.85
X2.95Y-4.95
X3.Y-4.9
X3.2Y-4.85
X3.2Y-4.95
X3.25Y-4.
X3.25Y-4.1
X3.25Y-4.9
X3.3Y-4.05
X3.375Y-4.85
X3.375Y-4.95
X3.425Y-4.9
X3.575Y-4.
X3.575Y-4.1
X3.575Y-4.85
X3.575Y-4.95
X3.625Y-4.05
X3.625Y-4.9
X3.85Y-4.85
X3.85Y-4.95
X3.9Y-4.9
X4.Y-4.85
X4.Y-4.95
X4.05Y-4.9
X4.15Y-4.85
X4.15Y-4.95
X4.2Y-4.9
X4.3Y-4.
X4.3Y-4.1
X4.3Y-4.85
X4.3Y-4.95
X4.35Y-4.05
X4.35Y-4.9
X4.475Y-4.
X4.475Y-4.1
X4.525Y-4.05
X4.65Y-4.85
X4.65Y-4.95
X4.7Y-4.9
X4.95Y-4.85
X4.95Y-4.95
X5.Y-4.9
X5.25Y-4.85
X5.25Y-4.95
X5.3Y-4.9
X5.55Y-4.
X5.55Y-4.1
X5.6Y-4.05
X5.85Y-4.
X5.85Y-4.1
X5.9Y-4.05
X6.05Y-4.85
X6.05Y-4.95
X6.1Y-4.9
T2
X2.35Y-4.4
X2.35Y-4.5
X2.35Y-4.6
X2.35Y-4.7
X2.35Y-4.8
X2.35Y-4.9
X2.35Y-5.
X2.35Y-5.1
X2.45Y-4.4
X2.45Y-4.5
X2.45Y-4.6
X2.45Y-4.7
X2.45Y-4.8
X2.45Y-4.9
X2.45Y-5.
X2.45Y-5.1
X2.55Y-5.05
X2.55Y-5.45
X2.65Y-5.05
X2.65Y-5.45
X2.75Y-5.05
X2.75Y-5.45
X2.85Y-5.05
X2.85Y-5.45
X2.928Y-5.1598
X2.95Y-5.05
X2.95Y-5.45
X3.Y-5.55
X3.05Y-5.05
X3.05Y-5.45
X3.075Y-4.45
X3.15Y-4.25
X3.15Y-4.65
X3.15Y-5.05
X3.15Y-5.45
X3.2Y-4.5
X3.2Y-5.15
X3.25Y-4.25
X3.25Y-4.35
X3.25Y-4.65
X3.25Y-5.05
X3.25Y-5.45
X3.3Y-5.2
X3.35Y-4.25
X3.35Y-4.65
X3.35Y-5.05
X3.35Y-5.45
X3.45Y-4.25
X3.45Y-4.65
X3.45Y-5.05
X3.45Y-5.45
X3.45Y-5.7
X3.45Y-5.8
X3.55Y-4.25
X3.55Y-4.65
X3.55Y-5.05
X3.55Y-5.45
X3.55Y-5.7
X3.55Y-5.8
X3.625Y-4.35
X3.65Y-4.25
X3.65Y-4.65
X3.65Y-5.05
X3.65Y-5.45
X3.65Y-5.7
X3.65Y-5.8
X3.75Y-4.25
X3.75Y-4.65
X3.75Y-5.05
X3.75Y-5.225
X3.75Y-5.45
X3.75Y-5.7
X3.75Y-5.8
X3.85Y-4.25
X3.85Y-4.65
X3.85Y-5.05
X3.85Y-5.45
X3.85Y-5.7
X3.85Y-5.8
X3.95Y-4.25
X3.95Y-4.65
X3.95Y-5.05
X3.95Y-5.45
X3.95Y-5.625
X4.05Y-4.25
X4.05Y-4.45
X4.05Y-4.65
X4.05Y-5.05
X4.05Y-5.45
X4.0666Y-5.326
X4.075Y-5.225
X4.15Y-4.25
X4.15Y-4.5
X4.15Y-4.65
X4.15Y-5.05
X4.15Y-5.45
X4.1516Y-5.326
X4.25Y-4.25
X4.25Y-4.65
X4.25Y-5.05
X4.25Y-5.45
X4.2779Y-5.326
X4.325Y-5.625
X4.35Y-4.25
X4.35Y-4.65
X4.35Y-5.05
X4.35Y-5.45
X4.4Y-5.55
X4.4Y-5.7
X4.4Y-5.8
X4.425Y-4.95
X4.45Y-4.25
X4.45Y-4.65
X4.45Y-5.05
X4.45Y-5.45
X4.4764Y-5.217
X4.5Y-5.7
X4.5Y-5.8
X4.55Y-4.25
X4.55Y-4.65
X4.55Y-5.05
X4.55Y-5.225
X4.55Y-5.45
X4.6Y-5.625
X4.6Y-5.7
X4.6Y-5.8
X4.65Y-4.25
X4.65Y-4.65
X4.65Y-5.05
X4.65Y-5.45
X4.7Y-5.7
X4.7Y-5.8
X4.75Y-4.25
X4.75Y-4.65
X4.75Y-5.05
X4.75Y-5.45
X4.752Y-5.376
X4.8Y-5.7
X4.8Y-5.8
X4.85Y-4.25
X4.85Y-4.65
X4.85Y-5.05
X4.85Y-5.15
X4.85Y-5.45
X4.875Y-5.749
X4.95Y-4.25
X4.95Y-4.45
X4.95Y-4.65
X4.95Y-5.05
X4.95Y-5.45
X5.05Y-4.25
X5.05Y-4.5
X5.05Y-4.65
X5.05Y-5.05
X5.05Y-5.45
X5.15Y-4.25
X5.15Y-4.65
X5.15Y-5.05
X5.15Y-5.45
X5.175Y-4.45
X5.225Y-5.308
X5.25Y-4.25
X5.25Y-4.525
X5.25Y-4.65
X5.25Y-5.05
X5.25Y-5.45
X5.35Y-4.25
X5.35Y-4.65
X5.35Y-5.05
X5.35Y-5.45
X5.35Y-5.7
X5.35Y-5.8
X5.45Y-4.25
X5.45Y-4.65
X5.45Y-5.05
X5.45Y-5.15
X5.45Y-5.45
X5.45Y-5.7
X5.45Y-5.8
X5.5391Y-4.552
X5.55Y-4.25
X5.55Y-4.65
X5.55Y-5.05
X5.55Y-5.259
X5.55Y-5.45
X5.55Y-5.7
X5.55Y-5.8
X5.65Y-4.25
X5.65Y-4.65
X5.65Y-5.05
X5.65Y-5.45
X5.65Y-5.7
X5.65Y-5.8
X5.675Y-5.275
X5.75Y-4.25
X5.75Y-4.65
X5.75Y-5.05
X5.75Y-5.45
X5.75Y-5.7
X5.75Y-5.8
X5.85Y-4.25
X5.85Y-4.65
X5.85Y-5.05
X5.85Y-5.45
X5.925Y-4.95
X5.95Y-4.25
X5.95Y-4.65
X5.95Y-5.05
X5.95Y-5.45
X6.05Y-4.25
X6.05Y-4.65
X6.05Y-5.05
X6.05Y-5.45
X6.15Y-4.25
X6.15Y-4.65
X6.15Y-5.05
X6.15Y-5.45
T3
X2.75Y-4.366
X2.75Y-4.522
X2.75Y-4.678
X2.75Y-4.834
T4
X2.45Y-4.05
X2.45Y-5.75
X6.15Y-4.05
X6.15Y-5.75
T0
M30
