G04 #@! TF.FileFunction,Legend,Top*
%FSLAX46Y46*%
G04 Gerber Fmt 4.6, Leading zero omitted, Abs format (unit mm)*
G04 Created by KiCad (PCBNEW (2016-02-24 BZR 6585, Git 0829446)-product) date 3/15/2016 7:35:22 AM*
%MOMM*%
G01*
G04 APERTURE LIST*
%ADD10C,0.100000*%
%ADD11C,0.150000*%
G04 APERTURE END LIST*
D10*
D11*
X154940000Y-73660000D02*
G75*
G03X157480000Y-73660000I1270000J1270000D01*
G01*
X157480000Y-73660000D02*
G75*
G03X157480000Y-71120000I-1270000J1270000D01*
G01*
X157480000Y-71120000D02*
G75*
G03X154940000Y-71120000I-1270000J-1270000D01*
G01*
X154940000Y-71120000D02*
X154940000Y-73660000D01*
X159385000Y-72390000D02*
G75*
G03X159385000Y-72390000I-3175000J0D01*
G01*
X148710000Y-82390000D02*
X163710000Y-82390000D01*
X163710000Y-82390000D02*
X163710000Y-64390000D01*
X163710000Y-64390000D02*
X148710000Y-64390000D01*
X148710000Y-64390000D02*
X148710000Y-82390000D01*
X162393334Y-84907381D02*
X162060000Y-84431190D01*
X161821905Y-84907381D02*
X161821905Y-83907381D01*
X162202858Y-83907381D01*
X162298096Y-83955000D01*
X162345715Y-84002619D01*
X162393334Y-84097857D01*
X162393334Y-84240714D01*
X162345715Y-84335952D01*
X162298096Y-84383571D01*
X162202858Y-84431190D01*
X161821905Y-84431190D01*
X163345715Y-84907381D02*
X162774286Y-84907381D01*
X163060000Y-84907381D02*
X163060000Y-83907381D01*
X162964762Y-84050238D01*
X162869524Y-84145476D01*
X162774286Y-84193095D01*
X166822381Y-82018095D02*
X165822381Y-82018095D01*
X165822381Y-81637142D01*
X165870000Y-81541904D01*
X165917619Y-81494285D01*
X166012857Y-81446666D01*
X166155714Y-81446666D01*
X166250952Y-81494285D01*
X166298571Y-81541904D01*
X166346190Y-81637142D01*
X166346190Y-82018095D01*
X166822381Y-80494285D02*
X166822381Y-81065714D01*
X166822381Y-80780000D02*
X165822381Y-80780000D01*
X165965238Y-80875238D01*
X166060476Y-80970476D01*
X166108095Y-81065714D01*
M02*
