G04 #@! TF.GenerationSoftware,KiCad,Pcbnew,(5.0.0)*
G04 #@! TF.CreationDate,2018-10-08T11:52:11-07:00*
G04 #@! TF.ProjectId,500-1124,3530302D313132342E6B696361645F70,rev?*
G04 #@! TF.SameCoordinates,Original*
G04 #@! TF.FileFunction,Legend,Bot*
G04 #@! TF.FilePolarity,Positive*
%FSLAX46Y46*%
G04 Gerber Fmt 4.6, Leading zero omitted, Abs format (unit mm)*
G04 Created by KiCad (PCBNEW (5.0.0)) date 10/08/18 11:52:11*
%MOMM*%
%LPD*%
G01*
G04 APERTURE LIST*
%ADD10C,0.120000*%
%ADD11C,0.150000*%
G04 APERTURE END LIST*
D10*
G04 #@! TO.C,P1*
X144500000Y-109470000D02*
X144500000Y-68330000D01*
X144500000Y-68330000D02*
X134900000Y-68330000D01*
X134900000Y-68330000D02*
X134900000Y-109470000D01*
X134900000Y-109470000D02*
X144500000Y-109470000D01*
D11*
X146502380Y-88161904D02*
X145502380Y-88161904D01*
X145502380Y-88542857D01*
X145550000Y-88638095D01*
X145597619Y-88685714D01*
X145692857Y-88733333D01*
X145835714Y-88733333D01*
X145930952Y-88685714D01*
X145978571Y-88638095D01*
X146026190Y-88542857D01*
X146026190Y-88161904D01*
X146502380Y-89685714D02*
X146502380Y-89114285D01*
X146502380Y-89400000D02*
X145502380Y-89400000D01*
X145645238Y-89304761D01*
X145740476Y-89209523D01*
X145788095Y-89114285D01*
X132802380Y-77780714D02*
X132802380Y-77304523D01*
X133278571Y-77256904D01*
X133230952Y-77304523D01*
X133183333Y-77399761D01*
X133183333Y-77637857D01*
X133230952Y-77733095D01*
X133278571Y-77780714D01*
X133373809Y-77828333D01*
X133611904Y-77828333D01*
X133707142Y-77780714D01*
X133754761Y-77733095D01*
X133802380Y-77637857D01*
X133802380Y-77399761D01*
X133754761Y-77304523D01*
X133707142Y-77256904D01*
X132802380Y-78447380D02*
X132802380Y-78542619D01*
X132850000Y-78637857D01*
X132897619Y-78685476D01*
X132992857Y-78733095D01*
X133183333Y-78780714D01*
X133421428Y-78780714D01*
X133611904Y-78733095D01*
X133707142Y-78685476D01*
X133754761Y-78637857D01*
X133802380Y-78542619D01*
X133802380Y-78447380D01*
X133754761Y-78352142D01*
X133707142Y-78304523D01*
X133611904Y-78256904D01*
X133421428Y-78209285D01*
X133183333Y-78209285D01*
X132992857Y-78256904D01*
X132897619Y-78304523D01*
X132850000Y-78352142D01*
X132802380Y-78447380D01*
X132802380Y-79399761D02*
X132802380Y-79495000D01*
X132850000Y-79590238D01*
X132897619Y-79637857D01*
X132992857Y-79685476D01*
X133183333Y-79733095D01*
X133421428Y-79733095D01*
X133611904Y-79685476D01*
X133707142Y-79637857D01*
X133754761Y-79590238D01*
X133802380Y-79495000D01*
X133802380Y-79399761D01*
X133754761Y-79304523D01*
X133707142Y-79256904D01*
X133611904Y-79209285D01*
X133421428Y-79161666D01*
X133183333Y-79161666D01*
X132992857Y-79209285D01*
X132897619Y-79256904D01*
X132850000Y-79304523D01*
X132802380Y-79399761D01*
X133421428Y-80161666D02*
X133421428Y-80923571D01*
X133802380Y-81923571D02*
X133802380Y-81352142D01*
X133802380Y-81637857D02*
X132802380Y-81637857D01*
X132945238Y-81542619D01*
X133040476Y-81447380D01*
X133088095Y-81352142D01*
X133802380Y-82875952D02*
X133802380Y-82304523D01*
X133802380Y-82590238D02*
X132802380Y-82590238D01*
X132945238Y-82495000D01*
X133040476Y-82399761D01*
X133088095Y-82304523D01*
X132897619Y-83256904D02*
X132850000Y-83304523D01*
X132802380Y-83399761D01*
X132802380Y-83637857D01*
X132850000Y-83733095D01*
X132897619Y-83780714D01*
X132992857Y-83828333D01*
X133088095Y-83828333D01*
X133230952Y-83780714D01*
X133802380Y-83209285D01*
X133802380Y-83828333D01*
X133135714Y-84685476D02*
X133802380Y-84685476D01*
X132754761Y-84447380D02*
X133469047Y-84209285D01*
X133469047Y-84828333D01*
X133421428Y-85209285D02*
X133421428Y-85971190D01*
X133897619Y-87114047D02*
X133850000Y-87018809D01*
X133754761Y-86923571D01*
X133611904Y-86780714D01*
X133564285Y-86685476D01*
X133564285Y-86590238D01*
X133802380Y-86637857D02*
X133754761Y-86542619D01*
X133659523Y-86447380D01*
X133469047Y-86399761D01*
X133135714Y-86399761D01*
X132945238Y-86447380D01*
X132850000Y-86542619D01*
X132802380Y-86637857D01*
X132802380Y-86828333D01*
X132850000Y-86923571D01*
X132945238Y-87018809D01*
X133135714Y-87066428D01*
X133469047Y-87066428D01*
X133659523Y-87018809D01*
X133754761Y-86923571D01*
X133802380Y-86828333D01*
X133802380Y-86637857D01*
X132802380Y-87495000D02*
X133611904Y-87495000D01*
X133707142Y-87542619D01*
X133754761Y-87590238D01*
X133802380Y-87685476D01*
X133802380Y-87875952D01*
X133754761Y-87971190D01*
X133707142Y-88018809D01*
X133611904Y-88066428D01*
X132802380Y-88066428D01*
X133516666Y-88495000D02*
X133516666Y-88971190D01*
X133802380Y-88399761D02*
X132802380Y-88733095D01*
X133802380Y-89066428D01*
X133802380Y-89399761D02*
X132802380Y-89399761D01*
X132802380Y-89637857D01*
X132850000Y-89780714D01*
X132945238Y-89875952D01*
X133040476Y-89923571D01*
X133230952Y-89971190D01*
X133373809Y-89971190D01*
X133564285Y-89923571D01*
X133659523Y-89875952D01*
X133754761Y-89780714D01*
X133802380Y-89637857D01*
X133802380Y-89399761D01*
X133802380Y-90399761D02*
X132802380Y-90399761D01*
X132802380Y-90780714D01*
X132850000Y-90875952D01*
X132897619Y-90923571D01*
X132992857Y-90971190D01*
X133135714Y-90971190D01*
X133230952Y-90923571D01*
X133278571Y-90875952D01*
X133326190Y-90780714D01*
X133326190Y-90399761D01*
X132802380Y-91590238D02*
X132802380Y-91780714D01*
X132850000Y-91875952D01*
X132945238Y-91971190D01*
X133135714Y-92018809D01*
X133469047Y-92018809D01*
X133659523Y-91971190D01*
X133754761Y-91875952D01*
X133802380Y-91780714D01*
X133802380Y-91590238D01*
X133754761Y-91495000D01*
X133659523Y-91399761D01*
X133469047Y-91352142D01*
X133135714Y-91352142D01*
X132945238Y-91399761D01*
X132850000Y-91495000D01*
X132802380Y-91590238D01*
X132802380Y-92304523D02*
X132802380Y-92875952D01*
X133802380Y-92590238D02*
X132802380Y-92590238D01*
X133421428Y-93209285D02*
X133421428Y-93971190D01*
X133802380Y-94923571D02*
X133802380Y-94447380D01*
X132802380Y-94447380D01*
X133278571Y-95256904D02*
X133278571Y-95590238D01*
X133802380Y-95733095D02*
X133802380Y-95256904D01*
X132802380Y-95256904D01*
X132802380Y-95733095D01*
X133802380Y-96161666D02*
X132802380Y-96161666D01*
X132802380Y-96399761D01*
X132850000Y-96542619D01*
X132945238Y-96637857D01*
X133040476Y-96685476D01*
X133230952Y-96733095D01*
X133373809Y-96733095D01*
X133564285Y-96685476D01*
X133659523Y-96637857D01*
X133754761Y-96542619D01*
X133802380Y-96399761D01*
X133802380Y-96161666D01*
D10*
X137162380Y-104405714D02*
X137162380Y-103834285D01*
X137162380Y-104120000D02*
X136162380Y-104120000D01*
X136305238Y-104024761D01*
X136400476Y-103929523D01*
X136448095Y-103834285D01*
G04 #@! TD*
M02*
