G04 #@! TF.GenerationSoftware,KiCad,Pcbnew,(5.0.2)-1*
G04 #@! TF.CreationDate,2019-01-01T20:31:05-08:00*
G04 #@! TF.ProjectId,500-1142,3530302d-3131-4343-922e-6b696361645f,rev?*
G04 #@! TF.SameCoordinates,Original*
G04 #@! TF.FileFunction,Legend,Top*
G04 #@! TF.FilePolarity,Positive*
%FSLAX46Y46*%
G04 Gerber Fmt 4.6, Leading zero omitted, Abs format (unit mm)*
G04 Created by KiCad (PCBNEW (5.0.2)-1) date 1/1/2019 8:31:05 PM*
%MOMM*%
%LPD*%
G01*
G04 APERTURE LIST*
%ADD10C,0.120000*%
%ADD11C,0.150000*%
G04 APERTURE END LIST*
D10*
G04 #@! TO.C,D1*
X86810000Y-90170462D02*
G75*
G03X81260000Y-88625170I-2990000J462D01*
G01*
X86810000Y-90169538D02*
G75*
G02X81260000Y-91714830I-2990000J-462D01*
G01*
X86320000Y-90170000D02*
G75*
G03X86320000Y-90170000I-2500000J0D01*
G01*
X81260000Y-88625000D02*
X81260000Y-91715000D01*
G04 #@! TO.C,D2*
X100310000Y-88625000D02*
X100310000Y-91715000D01*
X105370000Y-90170000D02*
G75*
G03X105370000Y-90170000I-2500000J0D01*
G01*
X105860000Y-90169538D02*
G75*
G02X100310000Y-91714830I-2990000J-462D01*
G01*
X105860000Y-90170462D02*
G75*
G03X100310000Y-88625170I-2990000J462D01*
G01*
G04 #@! TO.C,D3*
X124910000Y-90170462D02*
G75*
G03X119360000Y-88625170I-2990000J462D01*
G01*
X124910000Y-90169538D02*
G75*
G02X119360000Y-91714830I-2990000J-462D01*
G01*
X124420000Y-90170000D02*
G75*
G03X124420000Y-90170000I-2500000J0D01*
G01*
X119360000Y-88625000D02*
X119360000Y-91715000D01*
G04 #@! TO.C,D4*
X138410000Y-88625000D02*
X138410000Y-91715000D01*
X143470000Y-90170000D02*
G75*
G03X143470000Y-90170000I-2500000J0D01*
G01*
X143960000Y-90169538D02*
G75*
G02X138410000Y-91714830I-2990000J-462D01*
G01*
X143960000Y-90170462D02*
G75*
G03X138410000Y-88625170I-2990000J462D01*
G01*
G04 #@! TO.C,D5*
X163010000Y-90170462D02*
G75*
G03X157460000Y-88625170I-2990000J462D01*
G01*
X163010000Y-90169538D02*
G75*
G02X157460000Y-91714830I-2990000J-462D01*
G01*
X162520000Y-90170000D02*
G75*
G03X162520000Y-90170000I-2500000J0D01*
G01*
X157460000Y-88625000D02*
X157460000Y-91715000D01*
D11*
G04 #@! TO.C,P6*
X106680000Y-73025000D02*
X106680000Y-74930000D01*
X127000000Y-73025000D02*
X106680000Y-73025000D01*
X127000000Y-74930000D02*
X127000000Y-73025000D01*
X106680000Y-81915000D02*
X106680000Y-80010000D01*
X127000000Y-81915000D02*
X106680000Y-81915000D01*
X127000000Y-80010000D02*
X127000000Y-81915000D01*
X127000000Y-74930000D02*
X127000000Y-80010000D01*
X106680000Y-80010000D02*
X106680000Y-74930000D01*
G04 #@! TO.C,P7*
X82550000Y-80010000D02*
X82550000Y-74930000D01*
X102870000Y-74930000D02*
X102870000Y-80010000D01*
X102870000Y-80010000D02*
X102870000Y-81915000D01*
X102870000Y-81915000D02*
X82550000Y-81915000D01*
X82550000Y-81915000D02*
X82550000Y-80010000D01*
X102870000Y-74930000D02*
X102870000Y-73025000D01*
X102870000Y-73025000D02*
X82550000Y-73025000D01*
X82550000Y-73025000D02*
X82550000Y-74930000D01*
G04 #@! TO.C,D1*
X83081904Y-86662380D02*
X83081904Y-85662380D01*
X83320000Y-85662380D01*
X83462857Y-85710000D01*
X83558095Y-85805238D01*
X83605714Y-85900476D01*
X83653333Y-86090952D01*
X83653333Y-86233809D01*
X83605714Y-86424285D01*
X83558095Y-86519523D01*
X83462857Y-86614761D01*
X83320000Y-86662380D01*
X83081904Y-86662380D01*
X84605714Y-86662380D02*
X84034285Y-86662380D01*
X84320000Y-86662380D02*
X84320000Y-85662380D01*
X84224761Y-85805238D01*
X84129523Y-85900476D01*
X84034285Y-85948095D01*
G04 #@! TO.C,D2*
X102131904Y-86662380D02*
X102131904Y-85662380D01*
X102370000Y-85662380D01*
X102512857Y-85710000D01*
X102608095Y-85805238D01*
X102655714Y-85900476D01*
X102703333Y-86090952D01*
X102703333Y-86233809D01*
X102655714Y-86424285D01*
X102608095Y-86519523D01*
X102512857Y-86614761D01*
X102370000Y-86662380D01*
X102131904Y-86662380D01*
X103084285Y-85757619D02*
X103131904Y-85710000D01*
X103227142Y-85662380D01*
X103465238Y-85662380D01*
X103560476Y-85710000D01*
X103608095Y-85757619D01*
X103655714Y-85852857D01*
X103655714Y-85948095D01*
X103608095Y-86090952D01*
X103036666Y-86662380D01*
X103655714Y-86662380D01*
G04 #@! TO.C,D3*
X121181904Y-86662380D02*
X121181904Y-85662380D01*
X121420000Y-85662380D01*
X121562857Y-85710000D01*
X121658095Y-85805238D01*
X121705714Y-85900476D01*
X121753333Y-86090952D01*
X121753333Y-86233809D01*
X121705714Y-86424285D01*
X121658095Y-86519523D01*
X121562857Y-86614761D01*
X121420000Y-86662380D01*
X121181904Y-86662380D01*
X122086666Y-85662380D02*
X122705714Y-85662380D01*
X122372380Y-86043333D01*
X122515238Y-86043333D01*
X122610476Y-86090952D01*
X122658095Y-86138571D01*
X122705714Y-86233809D01*
X122705714Y-86471904D01*
X122658095Y-86567142D01*
X122610476Y-86614761D01*
X122515238Y-86662380D01*
X122229523Y-86662380D01*
X122134285Y-86614761D01*
X122086666Y-86567142D01*
G04 #@! TO.C,D4*
X140231904Y-86662380D02*
X140231904Y-85662380D01*
X140470000Y-85662380D01*
X140612857Y-85710000D01*
X140708095Y-85805238D01*
X140755714Y-85900476D01*
X140803333Y-86090952D01*
X140803333Y-86233809D01*
X140755714Y-86424285D01*
X140708095Y-86519523D01*
X140612857Y-86614761D01*
X140470000Y-86662380D01*
X140231904Y-86662380D01*
X141660476Y-85995714D02*
X141660476Y-86662380D01*
X141422380Y-85614761D02*
X141184285Y-86329047D01*
X141803333Y-86329047D01*
G04 #@! TO.C,D5*
X159281904Y-86662380D02*
X159281904Y-85662380D01*
X159520000Y-85662380D01*
X159662857Y-85710000D01*
X159758095Y-85805238D01*
X159805714Y-85900476D01*
X159853333Y-86090952D01*
X159853333Y-86233809D01*
X159805714Y-86424285D01*
X159758095Y-86519523D01*
X159662857Y-86614761D01*
X159520000Y-86662380D01*
X159281904Y-86662380D01*
X160758095Y-85662380D02*
X160281904Y-85662380D01*
X160234285Y-86138571D01*
X160281904Y-86090952D01*
X160377142Y-86043333D01*
X160615238Y-86043333D01*
X160710476Y-86090952D01*
X160758095Y-86138571D01*
X160805714Y-86233809D01*
X160805714Y-86471904D01*
X160758095Y-86567142D01*
X160710476Y-86614761D01*
X160615238Y-86662380D01*
X160377142Y-86662380D01*
X160281904Y-86614761D01*
X160234285Y-86567142D01*
G04 #@! TO.C,P1*
X75461904Y-85542380D02*
X75461904Y-84542380D01*
X75842857Y-84542380D01*
X75938095Y-84590000D01*
X75985714Y-84637619D01*
X76033333Y-84732857D01*
X76033333Y-84875714D01*
X75985714Y-84970952D01*
X75938095Y-85018571D01*
X75842857Y-85066190D01*
X75461904Y-85066190D01*
X76985714Y-85542380D02*
X76414285Y-85542380D01*
X76700000Y-85542380D02*
X76700000Y-84542380D01*
X76604761Y-84685238D01*
X76509523Y-84780476D01*
X76414285Y-84828095D01*
G04 #@! TO.C,P2*
X95781904Y-85542380D02*
X95781904Y-84542380D01*
X96162857Y-84542380D01*
X96258095Y-84590000D01*
X96305714Y-84637619D01*
X96353333Y-84732857D01*
X96353333Y-84875714D01*
X96305714Y-84970952D01*
X96258095Y-85018571D01*
X96162857Y-85066190D01*
X95781904Y-85066190D01*
X96734285Y-84637619D02*
X96781904Y-84590000D01*
X96877142Y-84542380D01*
X97115238Y-84542380D01*
X97210476Y-84590000D01*
X97258095Y-84637619D01*
X97305714Y-84732857D01*
X97305714Y-84828095D01*
X97258095Y-84970952D01*
X96686666Y-85542380D01*
X97305714Y-85542380D01*
G04 #@! TO.C,P3*
X112926904Y-85542380D02*
X112926904Y-84542380D01*
X113307857Y-84542380D01*
X113403095Y-84590000D01*
X113450714Y-84637619D01*
X113498333Y-84732857D01*
X113498333Y-84875714D01*
X113450714Y-84970952D01*
X113403095Y-85018571D01*
X113307857Y-85066190D01*
X112926904Y-85066190D01*
X113831666Y-84542380D02*
X114450714Y-84542380D01*
X114117380Y-84923333D01*
X114260238Y-84923333D01*
X114355476Y-84970952D01*
X114403095Y-85018571D01*
X114450714Y-85113809D01*
X114450714Y-85351904D01*
X114403095Y-85447142D01*
X114355476Y-85494761D01*
X114260238Y-85542380D01*
X113974523Y-85542380D01*
X113879285Y-85494761D01*
X113831666Y-85447142D01*
G04 #@! TO.C,P4*
X131976904Y-85542380D02*
X131976904Y-84542380D01*
X132357857Y-84542380D01*
X132453095Y-84590000D01*
X132500714Y-84637619D01*
X132548333Y-84732857D01*
X132548333Y-84875714D01*
X132500714Y-84970952D01*
X132453095Y-85018571D01*
X132357857Y-85066190D01*
X131976904Y-85066190D01*
X133405476Y-84875714D02*
X133405476Y-85542380D01*
X133167380Y-84494761D02*
X132929285Y-85209047D01*
X133548333Y-85209047D01*
G04 #@! TO.C,P5*
X151661904Y-86177380D02*
X151661904Y-85177380D01*
X152042857Y-85177380D01*
X152138095Y-85225000D01*
X152185714Y-85272619D01*
X152233333Y-85367857D01*
X152233333Y-85510714D01*
X152185714Y-85605952D01*
X152138095Y-85653571D01*
X152042857Y-85701190D01*
X151661904Y-85701190D01*
X153138095Y-85177380D02*
X152661904Y-85177380D01*
X152614285Y-85653571D01*
X152661904Y-85605952D01*
X152757142Y-85558333D01*
X152995238Y-85558333D01*
X153090476Y-85605952D01*
X153138095Y-85653571D01*
X153185714Y-85748809D01*
X153185714Y-85986904D01*
X153138095Y-86082142D01*
X153090476Y-86129761D01*
X152995238Y-86177380D01*
X152757142Y-86177380D01*
X152661904Y-86129761D01*
X152614285Y-86082142D01*
G04 #@! TO.C,P6*
X121181904Y-83002380D02*
X121181904Y-82002380D01*
X121562857Y-82002380D01*
X121658095Y-82050000D01*
X121705714Y-82097619D01*
X121753333Y-82192857D01*
X121753333Y-82335714D01*
X121705714Y-82430952D01*
X121658095Y-82478571D01*
X121562857Y-82526190D01*
X121181904Y-82526190D01*
X122610476Y-82002380D02*
X122420000Y-82002380D01*
X122324761Y-82050000D01*
X122277142Y-82097619D01*
X122181904Y-82240476D01*
X122134285Y-82430952D01*
X122134285Y-82811904D01*
X122181904Y-82907142D01*
X122229523Y-82954761D01*
X122324761Y-83002380D01*
X122515238Y-83002380D01*
X122610476Y-82954761D01*
X122658095Y-82907142D01*
X122705714Y-82811904D01*
X122705714Y-82573809D01*
X122658095Y-82478571D01*
X122610476Y-82430952D01*
X122515238Y-82383333D01*
X122324761Y-82383333D01*
X122229523Y-82430952D01*
X122181904Y-82478571D01*
X122134285Y-82573809D01*
X111696904Y-82002380D02*
X111220714Y-82002380D01*
X111173095Y-82478571D01*
X111220714Y-82430952D01*
X111315952Y-82383333D01*
X111554047Y-82383333D01*
X111649285Y-82430952D01*
X111696904Y-82478571D01*
X111744523Y-82573809D01*
X111744523Y-82811904D01*
X111696904Y-82907142D01*
X111649285Y-82954761D01*
X111554047Y-83002380D01*
X111315952Y-83002380D01*
X111220714Y-82954761D01*
X111173095Y-82907142D01*
X112363571Y-82002380D02*
X112458809Y-82002380D01*
X112554047Y-82050000D01*
X112601666Y-82097619D01*
X112649285Y-82192857D01*
X112696904Y-82383333D01*
X112696904Y-82621428D01*
X112649285Y-82811904D01*
X112601666Y-82907142D01*
X112554047Y-82954761D01*
X112458809Y-83002380D01*
X112363571Y-83002380D01*
X112268333Y-82954761D01*
X112220714Y-82907142D01*
X112173095Y-82811904D01*
X112125476Y-82621428D01*
X112125476Y-82383333D01*
X112173095Y-82192857D01*
X112220714Y-82097619D01*
X112268333Y-82050000D01*
X112363571Y-82002380D01*
X113315952Y-82002380D02*
X113411190Y-82002380D01*
X113506428Y-82050000D01*
X113554047Y-82097619D01*
X113601666Y-82192857D01*
X113649285Y-82383333D01*
X113649285Y-82621428D01*
X113601666Y-82811904D01*
X113554047Y-82907142D01*
X113506428Y-82954761D01*
X113411190Y-83002380D01*
X113315952Y-83002380D01*
X113220714Y-82954761D01*
X113173095Y-82907142D01*
X113125476Y-82811904D01*
X113077857Y-82621428D01*
X113077857Y-82383333D01*
X113125476Y-82192857D01*
X113173095Y-82097619D01*
X113220714Y-82050000D01*
X113315952Y-82002380D01*
X114077857Y-82621428D02*
X114839761Y-82621428D01*
X115839761Y-83002380D02*
X115268333Y-83002380D01*
X115554047Y-83002380D02*
X115554047Y-82002380D01*
X115458809Y-82145238D01*
X115363571Y-82240476D01*
X115268333Y-82288095D01*
X116792142Y-83002380D02*
X116220714Y-83002380D01*
X116506428Y-83002380D02*
X116506428Y-82002380D01*
X116411190Y-82145238D01*
X116315952Y-82240476D01*
X116220714Y-82288095D01*
X117649285Y-82335714D02*
X117649285Y-83002380D01*
X117411190Y-81954761D02*
X117173095Y-82669047D01*
X117792142Y-82669047D01*
X118125476Y-82097619D02*
X118173095Y-82050000D01*
X118268333Y-82002380D01*
X118506428Y-82002380D01*
X118601666Y-82050000D01*
X118649285Y-82097619D01*
X118696904Y-82192857D01*
X118696904Y-82288095D01*
X118649285Y-82430952D01*
X118077857Y-83002380D01*
X118696904Y-83002380D01*
G04 #@! TO.C,P7*
X97686904Y-83637380D02*
X97686904Y-82637380D01*
X98067857Y-82637380D01*
X98163095Y-82685000D01*
X98210714Y-82732619D01*
X98258333Y-82827857D01*
X98258333Y-82970714D01*
X98210714Y-83065952D01*
X98163095Y-83113571D01*
X98067857Y-83161190D01*
X97686904Y-83161190D01*
X98591666Y-82637380D02*
X99258333Y-82637380D01*
X98829761Y-83637380D01*
X86844761Y-82637380D02*
X86368571Y-82637380D01*
X86320952Y-83113571D01*
X86368571Y-83065952D01*
X86463809Y-83018333D01*
X86701904Y-83018333D01*
X86797142Y-83065952D01*
X86844761Y-83113571D01*
X86892380Y-83208809D01*
X86892380Y-83446904D01*
X86844761Y-83542142D01*
X86797142Y-83589761D01*
X86701904Y-83637380D01*
X86463809Y-83637380D01*
X86368571Y-83589761D01*
X86320952Y-83542142D01*
X87511428Y-82637380D02*
X87606666Y-82637380D01*
X87701904Y-82685000D01*
X87749523Y-82732619D01*
X87797142Y-82827857D01*
X87844761Y-83018333D01*
X87844761Y-83256428D01*
X87797142Y-83446904D01*
X87749523Y-83542142D01*
X87701904Y-83589761D01*
X87606666Y-83637380D01*
X87511428Y-83637380D01*
X87416190Y-83589761D01*
X87368571Y-83542142D01*
X87320952Y-83446904D01*
X87273333Y-83256428D01*
X87273333Y-83018333D01*
X87320952Y-82827857D01*
X87368571Y-82732619D01*
X87416190Y-82685000D01*
X87511428Y-82637380D01*
X88463809Y-82637380D02*
X88559047Y-82637380D01*
X88654285Y-82685000D01*
X88701904Y-82732619D01*
X88749523Y-82827857D01*
X88797142Y-83018333D01*
X88797142Y-83256428D01*
X88749523Y-83446904D01*
X88701904Y-83542142D01*
X88654285Y-83589761D01*
X88559047Y-83637380D01*
X88463809Y-83637380D01*
X88368571Y-83589761D01*
X88320952Y-83542142D01*
X88273333Y-83446904D01*
X88225714Y-83256428D01*
X88225714Y-83018333D01*
X88273333Y-82827857D01*
X88320952Y-82732619D01*
X88368571Y-82685000D01*
X88463809Y-82637380D01*
X89225714Y-83256428D02*
X89987619Y-83256428D01*
X90987619Y-83637380D02*
X90416190Y-83637380D01*
X90701904Y-83637380D02*
X90701904Y-82637380D01*
X90606666Y-82780238D01*
X90511428Y-82875476D01*
X90416190Y-82923095D01*
X91940000Y-83637380D02*
X91368571Y-83637380D01*
X91654285Y-83637380D02*
X91654285Y-82637380D01*
X91559047Y-82780238D01*
X91463809Y-82875476D01*
X91368571Y-82923095D01*
X92797142Y-82970714D02*
X92797142Y-83637380D01*
X92559047Y-82589761D02*
X92320952Y-83304047D01*
X92940000Y-83304047D01*
X93273333Y-82732619D02*
X93320952Y-82685000D01*
X93416190Y-82637380D01*
X93654285Y-82637380D01*
X93749523Y-82685000D01*
X93797142Y-82732619D01*
X93844761Y-82827857D01*
X93844761Y-82923095D01*
X93797142Y-83065952D01*
X93225714Y-83637380D01*
X93844761Y-83637380D01*
X94749523Y-83637380D02*
X94273333Y-83637380D01*
X94273333Y-82637380D01*
X95082857Y-83113571D02*
X95416190Y-83113571D01*
X95559047Y-83637380D02*
X95082857Y-83637380D01*
X95082857Y-82637380D01*
X95559047Y-82637380D01*
X95987619Y-83637380D02*
X95987619Y-82637380D01*
X96225714Y-82637380D01*
X96368571Y-82685000D01*
X96463809Y-82780238D01*
X96511428Y-82875476D01*
X96559047Y-83065952D01*
X96559047Y-83208809D01*
X96511428Y-83399285D01*
X96463809Y-83494523D01*
X96368571Y-83589761D01*
X96225714Y-83637380D01*
X95987619Y-83637380D01*
G04 #@! TD*
M02*
