G04 #@! TF.GenerationSoftware,KiCad,Pcbnew,(5.0.2)-1*
G04 #@! TF.CreationDate,2019-01-01T20:31:05-08:00*
G04 #@! TF.ProjectId,500-1142,3530302d-3131-4343-922e-6b696361645f,rev?*
G04 #@! TF.SameCoordinates,Original*
G04 #@! TF.FileFunction,Copper,L2,Bot*
G04 #@! TF.FilePolarity,Positive*
%FSLAX46Y46*%
G04 Gerber Fmt 4.6, Leading zero omitted, Abs format (unit mm)*
G04 Created by KiCad (PCBNEW (5.0.2)-1) date 1/1/2019 8:31:05 PM*
%MOMM*%
%LPD*%
G01*
G04 APERTURE LIST*
G04 #@! TA.AperFunction,ComponentPad*
%ADD10R,1.800000X1.800000*%
G04 #@! TD*
G04 #@! TA.AperFunction,ComponentPad*
%ADD11C,1.800000*%
G04 #@! TD*
G04 #@! TA.AperFunction,ComponentPad*
%ADD12R,7.112000X7.620000*%
G04 #@! TD*
G04 #@! TA.AperFunction,ComponentPad*
%ADD13R,1.574800X1.574800*%
G04 #@! TD*
G04 #@! TA.AperFunction,ComponentPad*
%ADD14C,1.574800*%
G04 #@! TD*
G04 #@! TA.AperFunction,Conductor*
%ADD15C,0.304800*%
G04 #@! TD*
G04 APERTURE END LIST*
D10*
G04 #@! TO.P,D1,1*
G04 #@! TO.N,Net-(D1-Pad1)*
X82550000Y-90170000D03*
D11*
G04 #@! TO.P,D1,2*
G04 #@! TO.N,Net-(D1-Pad2)*
X85090000Y-90170000D03*
G04 #@! TD*
G04 #@! TO.P,D2,2*
G04 #@! TO.N,Net-(D2-Pad2)*
X104140000Y-90170000D03*
D10*
G04 #@! TO.P,D2,1*
G04 #@! TO.N,Net-(D2-Pad1)*
X101600000Y-90170000D03*
G04 #@! TD*
G04 #@! TO.P,D3,1*
G04 #@! TO.N,Net-(D3-Pad1)*
X120650000Y-90170000D03*
D11*
G04 #@! TO.P,D3,2*
G04 #@! TO.N,Net-(D3-Pad2)*
X123190000Y-90170000D03*
G04 #@! TD*
G04 #@! TO.P,D4,2*
G04 #@! TO.N,Net-(D4-Pad2)*
X142240000Y-90170000D03*
D10*
G04 #@! TO.P,D4,1*
G04 #@! TO.N,Net-(D4-Pad1)*
X139700000Y-90170000D03*
G04 #@! TD*
G04 #@! TO.P,D5,1*
G04 #@! TO.N,Net-(D5-Pad1)*
X158750000Y-90170000D03*
D11*
G04 #@! TO.P,D5,2*
G04 #@! TO.N,Net-(D5-Pad2)*
X161290000Y-90170000D03*
G04 #@! TD*
D12*
G04 #@! TO.P,P1,1*
G04 #@! TO.N,Net-(P1-Pad1)*
X76200000Y-90551000D03*
G04 #@! TD*
G04 #@! TO.P,P2,1*
G04 #@! TO.N,Net-(P2-Pad1)*
X95250000Y-90551000D03*
G04 #@! TD*
G04 #@! TO.P,P3,1*
G04 #@! TO.N,Net-(P3-Pad1)*
X114300000Y-90551000D03*
G04 #@! TD*
G04 #@! TO.P,P4,1*
G04 #@! TO.N,Net-(P4-Pad1)*
X133350000Y-90551000D03*
G04 #@! TD*
G04 #@! TO.P,P5,1*
G04 #@! TO.N,Net-(P5-Pad1)*
X152400000Y-90551000D03*
G04 #@! TD*
D13*
G04 #@! TO.P,P6,1*
G04 #@! TO.N,Net-(P1-Pad1)*
X111760000Y-78740000D03*
D14*
G04 #@! TO.P,P6,2*
G04 #@! TO.N,Net-(P6-Pad10)*
X111760000Y-76200000D03*
G04 #@! TO.P,P6,3*
G04 #@! TO.N,Net-(P2-Pad1)*
X114300000Y-78740000D03*
G04 #@! TO.P,P6,4*
G04 #@! TO.N,Net-(P6-Pad10)*
X114300000Y-76200000D03*
G04 #@! TO.P,P6,5*
G04 #@! TO.N,Net-(P3-Pad1)*
X116840000Y-78740000D03*
G04 #@! TO.P,P6,6*
G04 #@! TO.N,Net-(P6-Pad10)*
X116840000Y-76200000D03*
G04 #@! TO.P,P6,7*
G04 #@! TO.N,Net-(P4-Pad1)*
X119380000Y-78740000D03*
G04 #@! TO.P,P6,8*
G04 #@! TO.N,Net-(P6-Pad10)*
X119380000Y-76200000D03*
G04 #@! TO.P,P6,9*
G04 #@! TO.N,Net-(P5-Pad1)*
X121920000Y-78740000D03*
G04 #@! TO.P,P6,10*
G04 #@! TO.N,Net-(P6-Pad10)*
X121920000Y-76200000D03*
G04 #@! TD*
G04 #@! TO.P,P7,10*
G04 #@! TO.N,Net-(D5-Pad1)*
X97790000Y-76200000D03*
G04 #@! TO.P,P7,9*
G04 #@! TO.N,Net-(D5-Pad2)*
X97790000Y-78740000D03*
G04 #@! TO.P,P7,8*
G04 #@! TO.N,Net-(D4-Pad1)*
X95250000Y-76200000D03*
G04 #@! TO.P,P7,7*
G04 #@! TO.N,Net-(D4-Pad2)*
X95250000Y-78740000D03*
G04 #@! TO.P,P7,6*
G04 #@! TO.N,Net-(D3-Pad1)*
X92710000Y-76200000D03*
G04 #@! TO.P,P7,5*
G04 #@! TO.N,Net-(D3-Pad2)*
X92710000Y-78740000D03*
G04 #@! TO.P,P7,4*
G04 #@! TO.N,Net-(D2-Pad1)*
X90170000Y-76200000D03*
G04 #@! TO.P,P7,3*
G04 #@! TO.N,Net-(D2-Pad2)*
X90170000Y-78740000D03*
G04 #@! TO.P,P7,2*
G04 #@! TO.N,Net-(D1-Pad1)*
X87630000Y-76200000D03*
D13*
G04 #@! TO.P,P7,1*
G04 #@! TO.N,Net-(D1-Pad2)*
X87630000Y-78740000D03*
G04 #@! TD*
D15*
G04 #@! TO.N,Net-(D1-Pad1)*
X82550000Y-81280000D02*
X82550000Y-90170000D01*
X87630000Y-76200000D02*
X82550000Y-81280000D01*
G04 #@! TO.N,Net-(D1-Pad2)*
X85090000Y-86360000D02*
X85090000Y-90170000D01*
X87630000Y-78740000D02*
X87630000Y-83820000D01*
X87630000Y-83820000D02*
X85090000Y-86360000D01*
G04 #@! TO.N,Net-(D2-Pad2)*
X104140000Y-90170000D02*
X104140000Y-86360000D01*
X104140000Y-86360000D02*
X101600000Y-83820000D01*
X101600000Y-83820000D02*
X92075000Y-83820000D01*
X92075000Y-83820000D02*
X90170000Y-81915000D01*
X90170000Y-81915000D02*
X90170000Y-78740000D01*
G04 #@! TO.N,Net-(D2-Pad1)*
X88900000Y-77470000D02*
X90170000Y-76200000D01*
X88900000Y-83185000D02*
X88900000Y-77470000D01*
X90805000Y-85090000D02*
X88900000Y-83185000D01*
X100965000Y-85090000D02*
X90805000Y-85090000D01*
X101600000Y-90170000D02*
X101600000Y-85725000D01*
X101600000Y-85725000D02*
X100965000Y-85090000D01*
G04 #@! TO.N,Net-(D3-Pad1)*
X120650000Y-88965200D02*
X120015000Y-88330200D01*
X120650000Y-90170000D02*
X120650000Y-88965200D01*
X120015000Y-88330200D02*
X120015000Y-86995000D01*
X120015000Y-86995000D02*
X118110000Y-85090000D01*
X118110000Y-85090000D02*
X104775000Y-85090000D01*
X104775000Y-85090000D02*
X102235000Y-82550000D01*
X102235000Y-82550000D02*
X92710000Y-82550000D01*
X92710000Y-82550000D02*
X91440000Y-81280000D01*
X91440000Y-81280000D02*
X91440000Y-77470000D01*
X91440000Y-77470000D02*
X92710000Y-76200000D01*
G04 #@! TO.N,Net-(D3-Pad2)*
X92710000Y-80645000D02*
X92710000Y-78740000D01*
X123190000Y-86995000D02*
X120015000Y-83820000D01*
X123190000Y-90170000D02*
X123190000Y-86995000D01*
X120015000Y-83820000D02*
X105410000Y-83820000D01*
X105410000Y-83820000D02*
X103505000Y-81915000D01*
X103505000Y-81915000D02*
X93980000Y-81915000D01*
X93980000Y-81915000D02*
X92710000Y-80645000D01*
G04 #@! TO.N,Net-(D4-Pad2)*
X142240000Y-85090000D02*
X139700000Y-82550000D01*
X95250000Y-79853551D02*
X95250000Y-78740000D01*
X96016059Y-80619610D02*
X95250000Y-79853551D01*
X106019610Y-80619610D02*
X96016059Y-80619610D01*
X107950000Y-82550000D02*
X106019610Y-80619610D01*
X139700000Y-82550000D02*
X107950000Y-82550000D01*
X142240000Y-90170000D02*
X142240000Y-85090000D01*
G04 #@! TO.N,Net-(D4-Pad1)*
X139700000Y-84455000D02*
X139700000Y-90170000D01*
X138430000Y-83185000D02*
X139700000Y-84455000D01*
X95250000Y-76200000D02*
X93980000Y-77470000D01*
X93980000Y-80645000D02*
X94615000Y-81280000D01*
X94615000Y-81280000D02*
X104775000Y-81280000D01*
X93980000Y-77470000D02*
X93980000Y-80645000D01*
X104775000Y-81280000D02*
X106680000Y-83185000D01*
X106680000Y-83185000D02*
X138430000Y-83185000D01*
G04 #@! TO.N,Net-(D5-Pad1)*
X97217990Y-80010000D02*
X96520000Y-79312010D01*
X107950000Y-80010000D02*
X97217990Y-80010000D01*
X158750000Y-84455000D02*
X156210000Y-81915000D01*
X109855000Y-81915000D02*
X107950000Y-80010000D01*
X156210000Y-81915000D02*
X109855000Y-81915000D01*
X158750000Y-90170000D02*
X158750000Y-84455000D01*
X96520000Y-79312010D02*
X96520000Y-77470000D01*
X96520000Y-77470000D02*
X97790000Y-76200000D01*
G04 #@! TO.N,Net-(D5-Pad2)*
X162189999Y-89270001D02*
X162189999Y-83449999D01*
X161290000Y-90170000D02*
X162189999Y-89270001D01*
X162189999Y-83449999D02*
X159385000Y-80645000D01*
X159385000Y-80645000D02*
X110490000Y-80645000D01*
X110490000Y-80645000D02*
X108585000Y-78740000D01*
X108585000Y-78740000D02*
X97790000Y-78740000D01*
G04 #@! TO.N,Net-(P6-Pad10)*
X111760000Y-76200000D02*
X114300000Y-76200000D01*
X116052601Y-76987399D02*
X116840000Y-76200000D01*
X115087399Y-76987399D02*
X116052601Y-76987399D01*
X114300000Y-76200000D02*
X115087399Y-76987399D01*
X118592601Y-76987399D02*
X119380000Y-76200000D01*
X117627399Y-76987399D02*
X118592601Y-76987399D01*
X116840000Y-76200000D02*
X117627399Y-76987399D01*
X119380000Y-76200000D02*
X121920000Y-76200000D01*
G04 #@! TD*
M02*
