M48
;Layer_Color=9474304
;FILE_FORMAT=2:4
INCH
;TYPE=PLATED
T1F00S00C0.0360
T2F00S00C0.0500
%
T01
X041500Y006250
X042500Y005750
X042000Y008500
X043000Y009000
X044000Y009500
Y010500
Y011500
X043000
X042000
X041000
Y010500
X042000
X043000
X045000
Y011500
X041000Y008000
X009000Y010500
X008000
Y011500
X007000
X006000
Y010500
X007000
X009000Y011500
X005000
Y010500
T02
X001969Y001584
X005000Y000600
X008031Y001584
X011968
X015000Y000600
X018032Y001584
X021969
X025000Y000600
X028031Y001584
X031969
X035000Y000600
X038031Y001584
X041968
X045000Y000600
X048032Y001584
M30
