M71
M48
T1F00S00C0.032
T2F00S00C0.036
T3F00S00C0.060
T4F00S00C0.070
T5F00S00C0.095
%
T01
X0875Y0115
X0885
X088Y012
X0885Y013
X0875
X088Y0135
X079Y013
X0795Y0125
X079Y012
X051
Y013
X0505Y0125
X0455
Y01175
Y011
Y01325
Y014
X0475Y022
Y023
X048Y0225
X0825Y022
X0835
X083Y0215
Y023
X0825Y0235
X0835
T02
X02Y00125
Y00225
Y0035
Y0045
X074Y002
X075
X076
X084
X085
X086
X0865Y008
Y009
Y0105
X0855
X0845
Y0145
X0855
X0865
X088Y016
Y019
X0875Y0205
X0865
X0855
X0845
Y0245
X0855
X0865
X0875
X0865Y019
X0855
X0845
X0835
X0815
Y016
Y0145
X0805
X0825
X0835
Y016
X0845
X0855
X0865
X0835Y0105
X0825
X0815
X0805
X078Y0155
Y0185
X0725
Y0155
X0705Y0145
X0695
X0685
X0695Y016
Y019
Y0105
X0685
X0705
X0675
X0665
X0655
X0625
X0615
X0605
X0595
X0585
X059Y01125
Y01375
X0595Y0145
X0585
Y016
X0595
X0605
X0615
X0625
X0635
X0645
X0655
X0665
X0675
X0685
X0675Y0145
X0665
X0655
Y0175
Y019
X0665
X0675
X0685
X0645
X0635
X0625
X0615
X0605
X0595
X0585
X0575
X056
X055
X054
X053
Y0205
X055
X057
Y0245
X055
X053
Y016
X054
X055
X056
X0575
X0605Y0145
X0615
X0625
X061Y013
X0625Y00875
X0615Y00625
X054Y0105
X053
X05475Y012
X054Y0145
X053
X052Y016
X051
X05
X049
X048
X047
X046
X045
X044
X043
X042
X041
X04
X039
X038
X037
Y0145
X038
X039
X04
X043
X0465
X0475
X0495
X0505Y0175
X051Y019
X052
X05
X049
X048
X047
X046
X045
X044
X043
X042
X041
X04
X039
X038
X037
X038Y0175
X04Y0205
X043
Y0245
X04
X046Y0175
X0465Y0105
X0475
X0495
X043
X04
X039
X038
X037
X032
X03
X0275
X0255Y01
X024Y01075
X0275Y0145
X0285Y016
X03
X031
X032
X033
X0345
X0355
Y019
X0345
X033
X032
X031
X03
X0285
X03Y0145
X031
X032
X031Y0135
X0235Y0205
X024Y019
X025
X026
X027
Y016
X026
X025
X024
X023
X022
X021
X0195
X018
X017
X016
X015
X014
X013
X012
X011
Y0145
X0095
X0085
X0075
X0085Y016
X0095
Y019
X0085
X011
X012
X013
X014
X015
X016
X017
X018
X0195
X021
X022
X023
X0155Y0205
X0135
X014Y0175
X013Y0145
X0125Y01375
X013Y0105
X011
X0095
X0085
X0075
X006Y011
X00625Y01225
X016Y0105
X018
Y0145
X016
X0155Y0255
X0135
X007Y019
X006
X005
X004
X0025
Y016
X004
X005
X006
X007
X005Y0145
X004Y01375
X0035Y012
X0015Y0115
X005Y0105
X0055Y0225
X0065
Y0235
X0055
X0045
Y0225
X0035
Y0235
X0025
Y0225
X011Y0245
X012
Y0205
X011
X017
X018
Y0245
X017
X0155Y02225
X022Y024
X024Y0225
X025Y02325
X0265Y0245
X03
X032
Y026
X031Y0225
Y0215
X03Y0205
X032
X0265
X044
X0465
Y022
Y0245
X049
X05
X051Y026
X052Y024
X051Y021
X05Y0205
X049
X044Y0245
X054
X056
Y0205
X054
X053Y0225
X063Y022
Y023
X064Y0245
Y0205
X074Y025
X083Y0255
Y0265
T03
X005Y002
X0065Y005
X0075Y007
X0175
X0165Y005
X015Y002
X025
X0265Y005
X0275Y007
X0375
X0365Y005
X035Y002
X045
X0465Y005
X0475Y007
X0575
X0565Y005
X055Y002
X065
X0665Y005
X0675Y007
T04
X07266Y02
X07422
X07578
X07734
T05
X0035Y003
X0065
X005Y008
X015
X0135Y003
X0165
X0235
X0265
X025Y008
X035
X0335Y003
X0365
X0435
X0465
X045Y008
X055
X0535Y003
X0565
X0635
X0665
X065Y008
M30
