G04 #@! TF.GenerationSoftware,KiCad,Pcbnew,(5.0.1)-3*
G04 #@! TF.CreationDate,2018-12-07T13:03:12-08:00*
G04 #@! TF.ProjectId,500-1073-Quad-Banana-Jack,3530302D313037332D517561642D4261,rev?*
G04 #@! TF.SameCoordinates,Original*
G04 #@! TF.FileFunction,Copper,L2,Bot,Signal*
G04 #@! TF.FilePolarity,Positive*
%FSLAX46Y46*%
G04 Gerber Fmt 4.6, Leading zero omitted, Abs format (unit mm)*
G04 Created by KiCad (PCBNEW (5.0.1)-3) date 12/7/2018 1:03:12 PM*
%MOMM*%
%LPD*%
G01*
G04 APERTURE LIST*
G04 #@! TA.AperFunction,ComponentPad*
%ADD10R,1.900000X2.000000*%
G04 #@! TD*
G04 #@! TA.AperFunction,ComponentPad*
%ADD11C,1.900000*%
G04 #@! TD*
G04 #@! TA.AperFunction,ComponentPad*
%ADD12R,7.112000X7.620000*%
G04 #@! TD*
G04 #@! TA.AperFunction,ComponentPad*
%ADD13C,1.574800*%
G04 #@! TD*
G04 #@! TA.AperFunction,ComponentPad*
%ADD14R,1.574800X1.574800*%
G04 #@! TD*
G04 #@! TA.AperFunction,ViaPad*
%ADD15C,1.016000*%
G04 #@! TD*
G04 #@! TA.AperFunction,Conductor*
%ADD16C,0.304800*%
G04 #@! TD*
G04 APERTURE END LIST*
D10*
G04 #@! TO.P,D1,1*
G04 #@! TO.N,Net-(D1-Pad1)*
X185420000Y-147320000D03*
D11*
G04 #@! TO.P,D1,2*
G04 #@! TO.N,Net-(D1-Pad2)*
X187960000Y-147320000D03*
G04 #@! TD*
D10*
G04 #@! TO.P,D2,1*
G04 #@! TO.N,Net-(D2-Pad1)*
X160020000Y-147320000D03*
D11*
G04 #@! TO.P,D2,2*
G04 #@! TO.N,Net-(D2-Pad2)*
X162560000Y-147320000D03*
G04 #@! TD*
D10*
G04 #@! TO.P,D3,1*
G04 #@! TO.N,Net-(D3-Pad1)*
X134620000Y-147320000D03*
D11*
G04 #@! TO.P,D3,2*
G04 #@! TO.N,Net-(D3-Pad2)*
X137160000Y-147320000D03*
G04 #@! TD*
D10*
G04 #@! TO.P,D4,1*
G04 #@! TO.N,Net-(D4-Pad1)*
X109220000Y-147320000D03*
D11*
G04 #@! TO.P,D4,2*
G04 #@! TO.N,Net-(D4-Pad2)*
X111760000Y-147320000D03*
G04 #@! TD*
D12*
G04 #@! TO.P,P1,1*
G04 #@! TO.N,Net-(P1-Pad1)*
X195580000Y-147701000D03*
G04 #@! TD*
G04 #@! TO.P,P2,1*
G04 #@! TO.N,Net-(P2-Pad1)*
X170180000Y-147701000D03*
G04 #@! TD*
G04 #@! TO.P,P3,1*
G04 #@! TO.N,Net-(P3-Pad1)*
X144780000Y-147701000D03*
G04 #@! TD*
G04 #@! TO.P,P4,1*
G04 #@! TO.N,Net-(P4-Pad1)*
X119380000Y-147701000D03*
G04 #@! TD*
D13*
G04 #@! TO.P,R1,1*
G04 #@! TO.N,Net-(D1-Pad1)*
X185420000Y-142240000D03*
G04 #@! TO.P,R1,2*
G04 #@! TO.N,Net-(P5-Pad8)*
X185420000Y-132080000D03*
G04 #@! TD*
G04 #@! TO.P,R2,1*
G04 #@! TO.N,Net-(D2-Pad1)*
X160020000Y-137160000D03*
G04 #@! TO.P,R2,2*
G04 #@! TO.N,Net-(P5-Pad6)*
X170180000Y-137160000D03*
G04 #@! TD*
G04 #@! TO.P,R3,1*
G04 #@! TO.N,Net-(D3-Pad1)*
X137160000Y-137160000D03*
G04 #@! TO.P,R3,2*
G04 #@! TO.N,Net-(P5-Pad4)*
X147320000Y-137160000D03*
G04 #@! TD*
G04 #@! TO.P,R4,1*
G04 #@! TO.N,Net-(D4-Pad1)*
X111760000Y-137160000D03*
G04 #@! TO.P,R4,2*
G04 #@! TO.N,Net-(P5-Pad2)*
X121920000Y-137160000D03*
G04 #@! TD*
G04 #@! TO.P,P5,10*
G04 #@! TO.N,N/C*
X189230000Y-125730000D03*
G04 #@! TO.P,P5,9*
X189230000Y-128270000D03*
G04 #@! TO.P,P5,8*
G04 #@! TO.N,Net-(P5-Pad8)*
X186690000Y-125730000D03*
G04 #@! TO.P,P5,7*
G04 #@! TO.N,Net-(D1-Pad2)*
X186690000Y-128270000D03*
G04 #@! TO.P,P5,6*
G04 #@! TO.N,Net-(P5-Pad6)*
X184150000Y-125730000D03*
G04 #@! TO.P,P5,5*
G04 #@! TO.N,Net-(D2-Pad2)*
X184150000Y-128270000D03*
G04 #@! TO.P,P5,4*
G04 #@! TO.N,Net-(P5-Pad4)*
X181610000Y-125730000D03*
G04 #@! TO.P,P5,3*
G04 #@! TO.N,Net-(D3-Pad2)*
X181610000Y-128270000D03*
G04 #@! TO.P,P5,2*
G04 #@! TO.N,Net-(P5-Pad2)*
X179070000Y-125730000D03*
D14*
G04 #@! TO.P,P5,1*
G04 #@! TO.N,Net-(D4-Pad2)*
X179070000Y-128270000D03*
G04 #@! TD*
G04 #@! TO.P,P6,1*
G04 #@! TO.N,Net-(P1-Pad1)*
X146050000Y-128270000D03*
D13*
G04 #@! TO.P,P6,2*
G04 #@! TO.N,Net-(P6-Pad10)*
X146050000Y-125730000D03*
G04 #@! TO.P,P6,3*
G04 #@! TO.N,N/C*
X148590000Y-128270000D03*
G04 #@! TO.P,P6,4*
G04 #@! TO.N,Net-(P6-Pad10)*
X148590000Y-125730000D03*
G04 #@! TO.P,P6,5*
G04 #@! TO.N,Net-(P2-Pad1)*
X151130000Y-128270000D03*
G04 #@! TO.P,P6,6*
G04 #@! TO.N,Net-(P6-Pad10)*
X151130000Y-125730000D03*
G04 #@! TO.P,P6,7*
G04 #@! TO.N,N/C*
X153670000Y-128270000D03*
G04 #@! TO.P,P6,8*
G04 #@! TO.N,Net-(P6-Pad10)*
X153670000Y-125730000D03*
G04 #@! TO.P,P6,9*
G04 #@! TO.N,Net-(P3-Pad1)*
X156210000Y-128270000D03*
G04 #@! TO.P,P6,10*
G04 #@! TO.N,Net-(P6-Pad10)*
X156210000Y-125730000D03*
G04 #@! TO.P,P6,11*
G04 #@! TO.N,N/C*
X158750000Y-128270000D03*
G04 #@! TO.P,P6,12*
G04 #@! TO.N,Net-(P6-Pad10)*
X158750000Y-125730000D03*
G04 #@! TO.P,P6,13*
G04 #@! TO.N,Net-(P4-Pad1)*
X161290000Y-128270000D03*
G04 #@! TO.P,P6,14*
G04 #@! TO.N,Net-(P6-Pad10)*
X161290000Y-125730000D03*
G04 #@! TO.P,P6,15*
G04 #@! TO.N,N/C*
X163830000Y-128270000D03*
G04 #@! TO.P,P6,16*
G04 #@! TO.N,Net-(P6-Pad10)*
X163830000Y-125730000D03*
G04 #@! TD*
D14*
G04 #@! TO.P,P7,1*
G04 #@! TO.N,Net-(P1-Pad1)*
X120650000Y-128270000D03*
D13*
G04 #@! TO.P,P7,2*
G04 #@! TO.N,Net-(P7-Pad10)*
X120650000Y-125730000D03*
G04 #@! TO.P,P7,3*
G04 #@! TO.N,Net-(P2-Pad1)*
X123190000Y-128270000D03*
G04 #@! TO.P,P7,4*
G04 #@! TO.N,Net-(P7-Pad10)*
X123190000Y-125730000D03*
G04 #@! TO.P,P7,5*
G04 #@! TO.N,Net-(P3-Pad1)*
X125730000Y-128270000D03*
G04 #@! TO.P,P7,6*
G04 #@! TO.N,Net-(P7-Pad10)*
X125730000Y-125730000D03*
G04 #@! TO.P,P7,7*
G04 #@! TO.N,Net-(P4-Pad1)*
X128270000Y-128270000D03*
G04 #@! TO.P,P7,8*
G04 #@! TO.N,Net-(P7-Pad10)*
X128270000Y-125730000D03*
G04 #@! TO.P,P7,9*
X130810000Y-128270000D03*
G04 #@! TO.P,P7,10*
X130810000Y-125730000D03*
G04 #@! TD*
D15*
G04 #@! TO.N,Net-(D2-Pad2)*
X182245000Y-140335000D03*
G04 #@! TO.N,Net-(D3-Pad2)*
X181610000Y-138430000D03*
G04 #@! TO.N,Net-(D4-Pad2)*
X179070000Y-134620000D03*
G04 #@! TO.N,Net-(P2-Pad1)*
X168275000Y-131445000D03*
G04 #@! TO.N,Net-(P3-Pad1)*
X154940000Y-124050410D03*
X142240000Y-125095000D03*
G04 #@! TO.N,Net-(P4-Pad1)*
X160020000Y-123190000D03*
G04 #@! TO.N,Net-(P5-Pad2)*
X175260000Y-133985000D03*
G04 #@! TO.N,Net-(P5-Pad4)*
X180340000Y-135890000D03*
G04 #@! TO.N,Net-(P5-Pad6)*
X182880000Y-137160000D03*
G04 #@! TD*
D16*
G04 #@! TO.N,Net-(D2-Pad2)*
X162560000Y-144145000D02*
X162560000Y-147320000D01*
X182245000Y-140335000D02*
X166370000Y-140335000D01*
X166370000Y-140335000D02*
X162560000Y-144145000D01*
G04 #@! TO.N,Net-(D3-Pad2)*
X181610000Y-138430000D02*
X161925000Y-138430000D01*
X161925000Y-138430000D02*
X158115000Y-142240000D01*
X158115000Y-142240000D02*
X140335000Y-142240000D01*
X140335000Y-142240000D02*
X137160000Y-145415000D01*
X137160000Y-145415000D02*
X137160000Y-147320000D01*
G04 #@! TO.N,Net-(D4-Pad2)*
X118110000Y-140970000D02*
X112709999Y-146370001D01*
X112709999Y-146370001D02*
X111760000Y-147320000D01*
X124460000Y-140970000D02*
X118110000Y-140970000D01*
X130302001Y-135127999D02*
X124460000Y-140970000D01*
X178562001Y-135127999D02*
X130302001Y-135127999D01*
X179070000Y-134620000D02*
X178562001Y-135127999D01*
G04 #@! TO.N,Net-(P1-Pad1)*
X120650000Y-128270000D02*
X120650000Y-129540000D01*
X120650000Y-129540000D02*
X121920000Y-130810000D01*
X121920000Y-130810000D02*
X136525000Y-130810000D01*
X139065000Y-128270000D02*
X146050000Y-128270000D01*
X136525000Y-130810000D02*
X139065000Y-128270000D01*
X146050000Y-129362200D02*
X149225000Y-132537200D01*
X146050000Y-128270000D02*
X146050000Y-129362200D01*
X149225000Y-132537200D02*
X180797200Y-132537200D01*
X180797200Y-132537200D02*
X182880000Y-134620000D01*
X182880000Y-134620000D02*
X193675000Y-134620000D01*
X193675000Y-134620000D02*
X195580000Y-136525000D01*
X195580000Y-136525000D02*
X195580000Y-147701000D01*
G04 #@! TO.N,Net-(P2-Pad1)*
X123190000Y-128270000D02*
X125095000Y-130175000D01*
X125095000Y-130175000D02*
X135890000Y-130175000D01*
X135890000Y-130175000D02*
X139065000Y-127000000D01*
X139065000Y-127000000D02*
X149860000Y-127000000D01*
X149860000Y-127000000D02*
X151130000Y-128270000D01*
X151130000Y-129383551D02*
X153191449Y-131445000D01*
X151130000Y-128270000D02*
X151130000Y-129383551D01*
X153191449Y-131445000D02*
X168275000Y-131445000D01*
G04 #@! TO.N,Net-(P3-Pad1)*
X154221580Y-124050410D02*
X154940000Y-124050410D01*
X125730000Y-128270000D02*
X127000000Y-129540000D01*
X133350000Y-129540000D02*
X138839590Y-124050410D01*
X127000000Y-129540000D02*
X133350000Y-129540000D01*
X142240000Y-125095000D02*
X142240000Y-124050410D01*
X138839590Y-124050410D02*
X142240000Y-124050410D01*
X142240000Y-124050410D02*
X154221580Y-124050410D01*
G04 #@! TO.N,Net-(P4-Pad1)*
X128270000Y-128270000D02*
X129540000Y-127000000D01*
X129540000Y-127000000D02*
X133985000Y-127000000D01*
X133985000Y-127000000D02*
X137795000Y-123190000D01*
X137795000Y-123190000D02*
X160020000Y-123190000D01*
G04 #@! TO.N,Net-(P5-Pad2)*
X121920000Y-137160000D02*
X125095000Y-137160000D01*
X125095000Y-137160000D02*
X128270000Y-133985000D01*
X128270000Y-133985000D02*
X175260000Y-133985000D01*
G04 #@! TO.N,Net-(P5-Pad4)*
X148590000Y-135890000D02*
X147320000Y-137160000D01*
X180340000Y-135890000D02*
X148590000Y-135890000D01*
G04 #@! TO.N,Net-(P5-Pad6)*
X182880000Y-137160000D02*
X170180000Y-137160000D01*
G04 #@! TO.N,Net-(P6-Pad10)*
X146050000Y-125730000D02*
X148590000Y-125730000D01*
X148590000Y-125730000D02*
X151130000Y-125730000D01*
X151130000Y-125730000D02*
X153670000Y-125730000D01*
X153670000Y-125730000D02*
X156210000Y-125730000D01*
X156210000Y-125730000D02*
X158750000Y-125730000D01*
X158750000Y-125730000D02*
X161290000Y-125730000D01*
X161290000Y-125730000D02*
X163830000Y-125730000D01*
G04 #@! TO.N,Net-(P7-Pad10)*
X120650000Y-125730000D02*
X123190000Y-125730000D01*
X123190000Y-125730000D02*
X125730000Y-125730000D01*
X125730000Y-125730000D02*
X128270000Y-125730000D01*
X128270000Y-125730000D02*
X130810000Y-125730000D01*
G04 #@! TD*
M02*
