G04 #@! TF.GenerationSoftware,KiCad,Pcbnew,(5.0.1)-3*
G04 #@! TF.CreationDate,2018-12-07T13:03:12-08:00*
G04 #@! TF.ProjectId,500-1073-Quad-Banana-Jack,3530302D313037332D517561642D4261,rev?*
G04 #@! TF.SameCoordinates,Original*
G04 #@! TF.FileFunction,Legend,Top*
G04 #@! TF.FilePolarity,Positive*
%FSLAX46Y46*%
G04 Gerber Fmt 4.6, Leading zero omitted, Abs format (unit mm)*
G04 Created by KiCad (PCBNEW (5.0.1)-3) date 12/7/2018 1:03:12 PM*
%MOMM*%
%LPD*%
G01*
G04 APERTURE LIST*
%ADD10C,0.300000*%
%ADD11C,0.150000*%
G04 APERTURE END LIST*
D10*
X123412857Y-131634571D02*
X122698571Y-131634571D01*
X122627142Y-132348857D01*
X122698571Y-132277428D01*
X122841428Y-132206000D01*
X123198571Y-132206000D01*
X123341428Y-132277428D01*
X123412857Y-132348857D01*
X123484285Y-132491714D01*
X123484285Y-132848857D01*
X123412857Y-132991714D01*
X123341428Y-133063142D01*
X123198571Y-133134571D01*
X122841428Y-133134571D01*
X122698571Y-133063142D01*
X122627142Y-132991714D01*
X124412857Y-131634571D02*
X124555714Y-131634571D01*
X124698571Y-131706000D01*
X124770000Y-131777428D01*
X124841428Y-131920285D01*
X124912857Y-132206000D01*
X124912857Y-132563142D01*
X124841428Y-132848857D01*
X124770000Y-132991714D01*
X124698571Y-133063142D01*
X124555714Y-133134571D01*
X124412857Y-133134571D01*
X124270000Y-133063142D01*
X124198571Y-132991714D01*
X124127142Y-132848857D01*
X124055714Y-132563142D01*
X124055714Y-132206000D01*
X124127142Y-131920285D01*
X124198571Y-131777428D01*
X124270000Y-131706000D01*
X124412857Y-131634571D01*
X125841428Y-131634571D02*
X125984285Y-131634571D01*
X126127142Y-131706000D01*
X126198571Y-131777428D01*
X126270000Y-131920285D01*
X126341428Y-132206000D01*
X126341428Y-132563142D01*
X126270000Y-132848857D01*
X126198571Y-132991714D01*
X126127142Y-133063142D01*
X125984285Y-133134571D01*
X125841428Y-133134571D01*
X125698571Y-133063142D01*
X125627142Y-132991714D01*
X125555714Y-132848857D01*
X125484285Y-132563142D01*
X125484285Y-132206000D01*
X125555714Y-131920285D01*
X125627142Y-131777428D01*
X125698571Y-131706000D01*
X125841428Y-131634571D01*
X126984285Y-132563142D02*
X128127142Y-132563142D01*
X129627142Y-133134571D02*
X128770000Y-133134571D01*
X129198571Y-133134571D02*
X129198571Y-131634571D01*
X129055714Y-131848857D01*
X128912857Y-131991714D01*
X128770000Y-132063142D01*
X130555714Y-131634571D02*
X130698571Y-131634571D01*
X130841428Y-131706000D01*
X130912857Y-131777428D01*
X130984285Y-131920285D01*
X131055714Y-132206000D01*
X131055714Y-132563142D01*
X130984285Y-132848857D01*
X130912857Y-132991714D01*
X130841428Y-133063142D01*
X130698571Y-133134571D01*
X130555714Y-133134571D01*
X130412857Y-133063142D01*
X130341428Y-132991714D01*
X130270000Y-132848857D01*
X130198571Y-132563142D01*
X130198571Y-132206000D01*
X130270000Y-131920285D01*
X130341428Y-131777428D01*
X130412857Y-131706000D01*
X130555714Y-131634571D01*
X131555714Y-131634571D02*
X132555714Y-131634571D01*
X131912857Y-133134571D01*
X132984285Y-131634571D02*
X133912857Y-131634571D01*
X133412857Y-132206000D01*
X133627142Y-132206000D01*
X133770000Y-132277428D01*
X133841428Y-132348857D01*
X133912857Y-132491714D01*
X133912857Y-132848857D01*
X133841428Y-132991714D01*
X133770000Y-133063142D01*
X133627142Y-133134571D01*
X133198571Y-133134571D01*
X133055714Y-133063142D01*
X132984285Y-132991714D01*
X107484285Y-135541714D02*
X107412857Y-135613142D01*
X107198571Y-135684571D01*
X107055714Y-135684571D01*
X106841428Y-135613142D01*
X106698571Y-135470285D01*
X106627142Y-135327428D01*
X106555714Y-135041714D01*
X106555714Y-134827428D01*
X106627142Y-134541714D01*
X106698571Y-134398857D01*
X106841428Y-134256000D01*
X107055714Y-134184571D01*
X107198571Y-134184571D01*
X107412857Y-134256000D01*
X107484285Y-134327428D01*
X108341428Y-135684571D02*
X108198571Y-135613142D01*
X108127142Y-135541714D01*
X108055714Y-135398857D01*
X108055714Y-134970285D01*
X108127142Y-134827428D01*
X108198571Y-134756000D01*
X108341428Y-134684571D01*
X108555714Y-134684571D01*
X108698571Y-134756000D01*
X108770000Y-134827428D01*
X108841428Y-134970285D01*
X108841428Y-135398857D01*
X108770000Y-135541714D01*
X108698571Y-135613142D01*
X108555714Y-135684571D01*
X108341428Y-135684571D01*
X109484285Y-134684571D02*
X109484285Y-136184571D01*
X109484285Y-134756000D02*
X109627142Y-134684571D01*
X109912857Y-134684571D01*
X110055714Y-134756000D01*
X110127142Y-134827428D01*
X110198571Y-134970285D01*
X110198571Y-135398857D01*
X110127142Y-135541714D01*
X110055714Y-135613142D01*
X109912857Y-135684571D01*
X109627142Y-135684571D01*
X109484285Y-135613142D01*
X110698571Y-134684571D02*
X111055714Y-135684571D01*
X111412857Y-134684571D02*
X111055714Y-135684571D01*
X110912857Y-136041714D01*
X110841428Y-136113142D01*
X110698571Y-136184571D01*
X111984285Y-135684571D02*
X111984285Y-134684571D01*
X111984285Y-134970285D02*
X112055714Y-134827428D01*
X112127142Y-134756000D01*
X112270000Y-134684571D01*
X112412857Y-134684571D01*
X112912857Y-135684571D02*
X112912857Y-134684571D01*
X112912857Y-134184571D02*
X112841428Y-134256000D01*
X112912857Y-134327428D01*
X112984285Y-134256000D01*
X112912857Y-134184571D01*
X112912857Y-134327428D01*
X114270000Y-134684571D02*
X114270000Y-135898857D01*
X114198571Y-136041714D01*
X114127142Y-136113142D01*
X113984285Y-136184571D01*
X113770000Y-136184571D01*
X113627142Y-136113142D01*
X114270000Y-135613142D02*
X114127142Y-135684571D01*
X113841428Y-135684571D01*
X113698571Y-135613142D01*
X113627142Y-135541714D01*
X113555714Y-135398857D01*
X113555714Y-134970285D01*
X113627142Y-134827428D01*
X113698571Y-134756000D01*
X113841428Y-134684571D01*
X114127142Y-134684571D01*
X114270000Y-134756000D01*
X114984285Y-135684571D02*
X114984285Y-134184571D01*
X115627142Y-135684571D02*
X115627142Y-134898857D01*
X115555714Y-134756000D01*
X115412857Y-134684571D01*
X115198571Y-134684571D01*
X115055714Y-134756000D01*
X114984285Y-134827428D01*
X116127142Y-134684571D02*
X116698571Y-134684571D01*
X116341428Y-134184571D02*
X116341428Y-135470285D01*
X116412857Y-135613142D01*
X116555714Y-135684571D01*
X116698571Y-135684571D01*
X118770000Y-136256000D02*
X118698571Y-136184571D01*
X118555714Y-135970285D01*
X118484285Y-135827428D01*
X118412857Y-135613142D01*
X118341428Y-135256000D01*
X118341428Y-134970285D01*
X118412857Y-134613142D01*
X118484285Y-134398857D01*
X118555714Y-134256000D01*
X118698571Y-134041714D01*
X118770000Y-133970285D01*
X119984285Y-135613142D02*
X119841428Y-135684571D01*
X119555714Y-135684571D01*
X119412857Y-135613142D01*
X119341428Y-135541714D01*
X119270000Y-135398857D01*
X119270000Y-134970285D01*
X119341428Y-134827428D01*
X119412857Y-134756000D01*
X119555714Y-134684571D01*
X119841428Y-134684571D01*
X119984285Y-134756000D01*
X120484285Y-136256000D02*
X120555714Y-136184571D01*
X120698571Y-135970285D01*
X120770000Y-135827428D01*
X120841428Y-135613142D01*
X120912857Y-135256000D01*
X120912857Y-134970285D01*
X120841428Y-134613142D01*
X120770000Y-134398857D01*
X120698571Y-134256000D01*
X120555714Y-134041714D01*
X120484285Y-133970285D01*
X122698571Y-134327428D02*
X122770000Y-134256000D01*
X122912857Y-134184571D01*
X123270000Y-134184571D01*
X123412857Y-134256000D01*
X123484285Y-134327428D01*
X123555714Y-134470285D01*
X123555714Y-134613142D01*
X123484285Y-134827428D01*
X122627142Y-135684571D01*
X123555714Y-135684571D01*
X124484285Y-134184571D02*
X124627142Y-134184571D01*
X124770000Y-134256000D01*
X124841428Y-134327428D01*
X124912857Y-134470285D01*
X124984285Y-134756000D01*
X124984285Y-135113142D01*
X124912857Y-135398857D01*
X124841428Y-135541714D01*
X124770000Y-135613142D01*
X124627142Y-135684571D01*
X124484285Y-135684571D01*
X124341428Y-135613142D01*
X124270000Y-135541714D01*
X124198571Y-135398857D01*
X124127142Y-135113142D01*
X124127142Y-134756000D01*
X124198571Y-134470285D01*
X124270000Y-134327428D01*
X124341428Y-134256000D01*
X124484285Y-134184571D01*
X126412857Y-135684571D02*
X125555714Y-135684571D01*
X125984285Y-135684571D02*
X125984285Y-134184571D01*
X125841428Y-134398857D01*
X125698571Y-134541714D01*
X125555714Y-134613142D01*
X127270000Y-134827428D02*
X127127142Y-134756000D01*
X127055714Y-134684571D01*
X126984285Y-134541714D01*
X126984285Y-134470285D01*
X127055714Y-134327428D01*
X127127142Y-134256000D01*
X127270000Y-134184571D01*
X127555714Y-134184571D01*
X127698571Y-134256000D01*
X127770000Y-134327428D01*
X127841428Y-134470285D01*
X127841428Y-134541714D01*
X127770000Y-134684571D01*
X127698571Y-134756000D01*
X127555714Y-134827428D01*
X127270000Y-134827428D01*
X127127142Y-134898857D01*
X127055714Y-134970285D01*
X126984285Y-135113142D01*
X126984285Y-135398857D01*
X127055714Y-135541714D01*
X127127142Y-135613142D01*
X127270000Y-135684571D01*
X127555714Y-135684571D01*
X127698571Y-135613142D01*
X127770000Y-135541714D01*
X127841428Y-135398857D01*
X127841428Y-135113142D01*
X127770000Y-134970285D01*
X127698571Y-134898857D01*
X127555714Y-134827428D01*
X129627142Y-135684571D02*
X129627142Y-134184571D01*
X129627142Y-134756000D02*
X129770000Y-134684571D01*
X130055714Y-134684571D01*
X130198571Y-134756000D01*
X130270000Y-134827428D01*
X130341428Y-134970285D01*
X130341428Y-135398857D01*
X130270000Y-135541714D01*
X130198571Y-135613142D01*
X130055714Y-135684571D01*
X129770000Y-135684571D01*
X129627142Y-135613142D01*
X130841428Y-134684571D02*
X131198571Y-135684571D01*
X131555714Y-134684571D02*
X131198571Y-135684571D01*
X131055714Y-136041714D01*
X130984285Y-136113142D01*
X130841428Y-136184571D01*
X133698571Y-134184571D02*
X133698571Y-135256000D01*
X133627142Y-135470285D01*
X133484285Y-135613142D01*
X133270000Y-135684571D01*
X133127142Y-135684571D01*
X135055714Y-135684571D02*
X135055714Y-134898857D01*
X134984285Y-134756000D01*
X134841428Y-134684571D01*
X134555714Y-134684571D01*
X134412857Y-134756000D01*
X135055714Y-135613142D02*
X134912857Y-135684571D01*
X134555714Y-135684571D01*
X134412857Y-135613142D01*
X134341428Y-135470285D01*
X134341428Y-135327428D01*
X134412857Y-135184571D01*
X134555714Y-135113142D01*
X134912857Y-135113142D01*
X135055714Y-135041714D01*
X135770000Y-135684571D02*
X135770000Y-134684571D01*
X135770000Y-134827428D02*
X135841428Y-134756000D01*
X135984285Y-134684571D01*
X136198571Y-134684571D01*
X136341428Y-134756000D01*
X136412857Y-134898857D01*
X136412857Y-135684571D01*
X136412857Y-134898857D02*
X136484285Y-134756000D01*
X136627142Y-134684571D01*
X136841428Y-134684571D01*
X136984285Y-134756000D01*
X137055714Y-134898857D01*
X137055714Y-135684571D01*
X138341428Y-135613142D02*
X138198571Y-135684571D01*
X137912857Y-135684571D01*
X137770000Y-135613142D01*
X137698571Y-135470285D01*
X137698571Y-134898857D01*
X137770000Y-134756000D01*
X137912857Y-134684571D01*
X138198571Y-134684571D01*
X138341428Y-134756000D01*
X138412857Y-134898857D01*
X138412857Y-135041714D01*
X137698571Y-135184571D01*
X138984285Y-135613142D02*
X139127142Y-135684571D01*
X139412857Y-135684571D01*
X139555714Y-135613142D01*
X139627142Y-135470285D01*
X139627142Y-135398857D01*
X139555714Y-135256000D01*
X139412857Y-135184571D01*
X139198571Y-135184571D01*
X139055714Y-135113142D01*
X138984285Y-134970285D01*
X138984285Y-134898857D01*
X139055714Y-134756000D01*
X139198571Y-134684571D01*
X139412857Y-134684571D01*
X139555714Y-134756000D01*
X141412857Y-135684571D02*
X141412857Y-134184571D01*
X141984285Y-134184571D01*
X142127142Y-134256000D01*
X142198571Y-134327428D01*
X142270000Y-134470285D01*
X142270000Y-134684571D01*
X142198571Y-134827428D01*
X142127142Y-134898857D01*
X141984285Y-134970285D01*
X141412857Y-134970285D01*
X143555714Y-135684571D02*
X143555714Y-134898857D01*
X143484285Y-134756000D01*
X143341428Y-134684571D01*
X143055714Y-134684571D01*
X142912857Y-134756000D01*
X143555714Y-135613142D02*
X143412857Y-135684571D01*
X143055714Y-135684571D01*
X142912857Y-135613142D01*
X142841428Y-135470285D01*
X142841428Y-135327428D01*
X142912857Y-135184571D01*
X143055714Y-135113142D01*
X143412857Y-135113142D01*
X143555714Y-135041714D01*
X144055714Y-134684571D02*
X144627142Y-134684571D01*
X144270000Y-134184571D02*
X144270000Y-135470285D01*
X144341428Y-135613142D01*
X144484285Y-135684571D01*
X144627142Y-135684571D01*
X145770000Y-135613142D02*
X145627142Y-135684571D01*
X145341428Y-135684571D01*
X145198571Y-135613142D01*
X145127142Y-135541714D01*
X145055714Y-135398857D01*
X145055714Y-134970285D01*
X145127142Y-134827428D01*
X145198571Y-134756000D01*
X145341428Y-134684571D01*
X145627142Y-134684571D01*
X145770000Y-134756000D01*
X146412857Y-135684571D02*
X146412857Y-134184571D01*
X147055714Y-135684571D02*
X147055714Y-134898857D01*
X146984285Y-134756000D01*
X146841428Y-134684571D01*
X146627142Y-134684571D01*
X146484285Y-134756000D01*
X146412857Y-134827428D01*
X148341428Y-135613142D02*
X148198571Y-135684571D01*
X147912857Y-135684571D01*
X147770000Y-135613142D01*
X147698571Y-135470285D01*
X147698571Y-134898857D01*
X147770000Y-134756000D01*
X147912857Y-134684571D01*
X148198571Y-134684571D01*
X148341428Y-134756000D01*
X148412857Y-134898857D01*
X148412857Y-135041714D01*
X147698571Y-135184571D01*
X149270000Y-135684571D02*
X149127142Y-135613142D01*
X149055714Y-135470285D01*
X149055714Y-134184571D01*
X150055714Y-135684571D02*
X149912857Y-135613142D01*
X149841428Y-135470285D01*
X149841428Y-134184571D01*
D11*
G04 #@! TO.C,D1*
X184205112Y-148844904D02*
G75*
G03X184190000Y-145820000I2484888J1524904D01*
G01*
X184190000Y-148820000D02*
X184190000Y-145820000D01*
X189207936Y-147320000D02*
G75*
G03X189207936Y-147320000I-2517936J0D01*
G01*
G04 #@! TO.C,D2*
X158805112Y-148844904D02*
G75*
G03X158790000Y-145820000I2484888J1524904D01*
G01*
X158790000Y-148820000D02*
X158790000Y-145820000D01*
X163807936Y-147320000D02*
G75*
G03X163807936Y-147320000I-2517936J0D01*
G01*
G04 #@! TO.C,D3*
X133405112Y-148844904D02*
G75*
G03X133390000Y-145820000I2484888J1524904D01*
G01*
X133390000Y-148820000D02*
X133390000Y-145820000D01*
X138407936Y-147320000D02*
G75*
G03X138407936Y-147320000I-2517936J0D01*
G01*
G04 #@! TO.C,D4*
X108005112Y-148844904D02*
G75*
G03X107990000Y-145820000I2484888J1524904D01*
G01*
X107990000Y-148820000D02*
X107990000Y-145820000D01*
X113007936Y-147320000D02*
G75*
G03X113007936Y-147320000I-2517936J0D01*
G01*
G04 #@! TO.C,R1*
X184404000Y-140970000D02*
X186436000Y-140970000D01*
X184404000Y-133350000D02*
X186436000Y-133350000D01*
X185420000Y-140970000D02*
X185420000Y-141478000D01*
X185420000Y-132715000D02*
X185420000Y-133350000D01*
X186436000Y-140970000D02*
X186436000Y-133350000D01*
X184404000Y-133350000D02*
X184404000Y-140970000D01*
G04 #@! TO.C,R2*
X161290000Y-136144000D02*
X161290000Y-138176000D01*
X168910000Y-136144000D02*
X168910000Y-138176000D01*
X161290000Y-137160000D02*
X160782000Y-137160000D01*
X169545000Y-137160000D02*
X168910000Y-137160000D01*
X161290000Y-138176000D02*
X168910000Y-138176000D01*
X168910000Y-136144000D02*
X161290000Y-136144000D01*
G04 #@! TO.C,R3*
X138430000Y-136144000D02*
X138430000Y-138176000D01*
X146050000Y-136144000D02*
X146050000Y-138176000D01*
X138430000Y-137160000D02*
X137922000Y-137160000D01*
X146685000Y-137160000D02*
X146050000Y-137160000D01*
X138430000Y-138176000D02*
X146050000Y-138176000D01*
X146050000Y-136144000D02*
X138430000Y-136144000D01*
G04 #@! TO.C,R4*
X113030000Y-136144000D02*
X113030000Y-138176000D01*
X120650000Y-136144000D02*
X120650000Y-138176000D01*
X113030000Y-137160000D02*
X112522000Y-137160000D01*
X121285000Y-137160000D02*
X120650000Y-137160000D01*
X113030000Y-138176000D02*
X120650000Y-138176000D01*
X120650000Y-136144000D02*
X113030000Y-136144000D01*
G04 #@! TO.C,P5*
X173990000Y-129540000D02*
X173990000Y-124460000D01*
X194310000Y-124460000D02*
X194310000Y-129540000D01*
X194310000Y-129540000D02*
X194310000Y-131445000D01*
X194310000Y-131445000D02*
X173990000Y-131445000D01*
X173990000Y-131445000D02*
X173990000Y-129540000D01*
X194310000Y-124460000D02*
X194310000Y-122555000D01*
X194310000Y-122555000D02*
X173990000Y-122555000D01*
X173990000Y-122555000D02*
X173990000Y-124460000D01*
G04 #@! TO.C,P6*
X168910000Y-123190000D02*
X168910000Y-122555000D01*
X168910000Y-122555000D02*
X140970000Y-122555000D01*
X140970000Y-122555000D02*
X140970000Y-123190000D01*
X140970000Y-130810000D02*
X140970000Y-131445000D01*
X140970000Y-131445000D02*
X168910000Y-131445000D01*
X168910000Y-131445000D02*
X168910000Y-130810000D01*
X140970000Y-124460000D02*
X140970000Y-123190000D01*
X168910000Y-123190000D02*
X168910000Y-124460000D01*
X168910000Y-129540000D02*
X168910000Y-130810000D01*
X140970000Y-130810000D02*
X140970000Y-129540000D01*
X168910000Y-124460000D02*
X168910000Y-129540000D01*
X140970000Y-129540000D02*
X140970000Y-124460000D01*
G04 #@! TO.C,P7*
X115570000Y-122555000D02*
X115570000Y-124460000D01*
X135890000Y-122555000D02*
X115570000Y-122555000D01*
X135890000Y-124460000D02*
X135890000Y-122555000D01*
X115570000Y-131445000D02*
X115570000Y-129540000D01*
X135890000Y-131445000D02*
X115570000Y-131445000D01*
X135890000Y-129540000D02*
X135890000Y-131445000D01*
X135890000Y-124460000D02*
X135890000Y-129540000D01*
X115570000Y-129540000D02*
X115570000Y-124460000D01*
G04 #@! TO.C,D1*
X186205904Y-151836380D02*
X186205904Y-150836380D01*
X186444000Y-150836380D01*
X186586857Y-150884000D01*
X186682095Y-150979238D01*
X186729714Y-151074476D01*
X186777333Y-151264952D01*
X186777333Y-151407809D01*
X186729714Y-151598285D01*
X186682095Y-151693523D01*
X186586857Y-151788761D01*
X186444000Y-151836380D01*
X186205904Y-151836380D01*
X187729714Y-151836380D02*
X187158285Y-151836380D01*
X187444000Y-151836380D02*
X187444000Y-150836380D01*
X187348761Y-150979238D01*
X187253523Y-151074476D01*
X187158285Y-151122095D01*
X183253095Y-149677380D02*
X183253095Y-148677380D01*
X183824523Y-149677380D02*
X183395952Y-149105952D01*
X183824523Y-148677380D02*
X183253095Y-149248809D01*
G04 #@! TO.C,D2*
X160805904Y-151836380D02*
X160805904Y-150836380D01*
X161044000Y-150836380D01*
X161186857Y-150884000D01*
X161282095Y-150979238D01*
X161329714Y-151074476D01*
X161377333Y-151264952D01*
X161377333Y-151407809D01*
X161329714Y-151598285D01*
X161282095Y-151693523D01*
X161186857Y-151788761D01*
X161044000Y-151836380D01*
X160805904Y-151836380D01*
X161758285Y-150931619D02*
X161805904Y-150884000D01*
X161901142Y-150836380D01*
X162139238Y-150836380D01*
X162234476Y-150884000D01*
X162282095Y-150931619D01*
X162329714Y-151026857D01*
X162329714Y-151122095D01*
X162282095Y-151264952D01*
X161710666Y-151836380D01*
X162329714Y-151836380D01*
X157853095Y-149677380D02*
X157853095Y-148677380D01*
X158424523Y-149677380D02*
X157995952Y-149105952D01*
X158424523Y-148677380D02*
X157853095Y-149248809D01*
G04 #@! TO.C,D3*
X135405904Y-151836380D02*
X135405904Y-150836380D01*
X135644000Y-150836380D01*
X135786857Y-150884000D01*
X135882095Y-150979238D01*
X135929714Y-151074476D01*
X135977333Y-151264952D01*
X135977333Y-151407809D01*
X135929714Y-151598285D01*
X135882095Y-151693523D01*
X135786857Y-151788761D01*
X135644000Y-151836380D01*
X135405904Y-151836380D01*
X136310666Y-150836380D02*
X136929714Y-150836380D01*
X136596380Y-151217333D01*
X136739238Y-151217333D01*
X136834476Y-151264952D01*
X136882095Y-151312571D01*
X136929714Y-151407809D01*
X136929714Y-151645904D01*
X136882095Y-151741142D01*
X136834476Y-151788761D01*
X136739238Y-151836380D01*
X136453523Y-151836380D01*
X136358285Y-151788761D01*
X136310666Y-151741142D01*
X132453095Y-149677380D02*
X132453095Y-148677380D01*
X133024523Y-149677380D02*
X132595952Y-149105952D01*
X133024523Y-148677380D02*
X132453095Y-149248809D01*
G04 #@! TO.C,D4*
X110005904Y-151836380D02*
X110005904Y-150836380D01*
X110244000Y-150836380D01*
X110386857Y-150884000D01*
X110482095Y-150979238D01*
X110529714Y-151074476D01*
X110577333Y-151264952D01*
X110577333Y-151407809D01*
X110529714Y-151598285D01*
X110482095Y-151693523D01*
X110386857Y-151788761D01*
X110244000Y-151836380D01*
X110005904Y-151836380D01*
X111434476Y-151169714D02*
X111434476Y-151836380D01*
X111196380Y-150788761D02*
X110958285Y-151503047D01*
X111577333Y-151503047D01*
X107053095Y-149677380D02*
X107053095Y-148677380D01*
X107624523Y-149677380D02*
X107195952Y-149105952D01*
X107624523Y-148677380D02*
X107053095Y-149248809D01*
G04 #@! TO.C,P1*
X200048904Y-148788380D02*
X200048904Y-147788380D01*
X200429857Y-147788380D01*
X200525095Y-147836000D01*
X200572714Y-147883619D01*
X200620333Y-147978857D01*
X200620333Y-148121714D01*
X200572714Y-148216952D01*
X200525095Y-148264571D01*
X200429857Y-148312190D01*
X200048904Y-148312190D01*
X201572714Y-148788380D02*
X201001285Y-148788380D01*
X201287000Y-148788380D02*
X201287000Y-147788380D01*
X201191761Y-147931238D01*
X201096523Y-148026476D01*
X201001285Y-148074095D01*
G04 #@! TO.C,P2*
X174267904Y-148788380D02*
X174267904Y-147788380D01*
X174648857Y-147788380D01*
X174744095Y-147836000D01*
X174791714Y-147883619D01*
X174839333Y-147978857D01*
X174839333Y-148121714D01*
X174791714Y-148216952D01*
X174744095Y-148264571D01*
X174648857Y-148312190D01*
X174267904Y-148312190D01*
X175220285Y-147883619D02*
X175267904Y-147836000D01*
X175363142Y-147788380D01*
X175601238Y-147788380D01*
X175696476Y-147836000D01*
X175744095Y-147883619D01*
X175791714Y-147978857D01*
X175791714Y-148074095D01*
X175744095Y-148216952D01*
X175172666Y-148788380D01*
X175791714Y-148788380D01*
G04 #@! TO.C,P3*
X149375904Y-149677380D02*
X149375904Y-148677380D01*
X149756857Y-148677380D01*
X149852095Y-148725000D01*
X149899714Y-148772619D01*
X149947333Y-148867857D01*
X149947333Y-149010714D01*
X149899714Y-149105952D01*
X149852095Y-149153571D01*
X149756857Y-149201190D01*
X149375904Y-149201190D01*
X150280666Y-148677380D02*
X150899714Y-148677380D01*
X150566380Y-149058333D01*
X150709238Y-149058333D01*
X150804476Y-149105952D01*
X150852095Y-149153571D01*
X150899714Y-149248809D01*
X150899714Y-149486904D01*
X150852095Y-149582142D01*
X150804476Y-149629761D01*
X150709238Y-149677380D01*
X150423523Y-149677380D01*
X150328285Y-149629761D01*
X150280666Y-149582142D01*
G04 #@! TO.C,P4*
X123848904Y-150693380D02*
X123848904Y-149693380D01*
X124229857Y-149693380D01*
X124325095Y-149741000D01*
X124372714Y-149788619D01*
X124420333Y-149883857D01*
X124420333Y-150026714D01*
X124372714Y-150121952D01*
X124325095Y-150169571D01*
X124229857Y-150217190D01*
X123848904Y-150217190D01*
X125277476Y-150026714D02*
X125277476Y-150693380D01*
X125039380Y-149645761D02*
X124801285Y-150360047D01*
X125420333Y-150360047D01*
G04 #@! TO.C,R1*
X186126380Y-145454666D02*
X185650190Y-145788000D01*
X186126380Y-146026095D02*
X185126380Y-146026095D01*
X185126380Y-145645142D01*
X185174000Y-145549904D01*
X185221619Y-145502285D01*
X185316857Y-145454666D01*
X185459714Y-145454666D01*
X185554952Y-145502285D01*
X185602571Y-145549904D01*
X185650190Y-145645142D01*
X185650190Y-146026095D01*
X186126380Y-144502285D02*
X186126380Y-145073714D01*
X186126380Y-144788000D02*
X185126380Y-144788000D01*
X185269238Y-144883238D01*
X185364476Y-144978476D01*
X185412095Y-145073714D01*
X185999380Y-140406095D02*
X185523190Y-140739428D01*
X185999380Y-140977523D02*
X184999380Y-140977523D01*
X184999380Y-140596571D01*
X185047000Y-140501333D01*
X185094619Y-140453714D01*
X185189857Y-140406095D01*
X185332714Y-140406095D01*
X185427952Y-140453714D01*
X185475571Y-140501333D01*
X185523190Y-140596571D01*
X185523190Y-140977523D01*
X185475571Y-139977523D02*
X185475571Y-139644190D01*
X185999380Y-139501333D02*
X185999380Y-139977523D01*
X184999380Y-139977523D01*
X184999380Y-139501333D01*
X185951761Y-139120380D02*
X185999380Y-138977523D01*
X185999380Y-138739428D01*
X185951761Y-138644190D01*
X185904142Y-138596571D01*
X185808904Y-138548952D01*
X185713666Y-138548952D01*
X185618428Y-138596571D01*
X185570809Y-138644190D01*
X185523190Y-138739428D01*
X185475571Y-138929904D01*
X185427952Y-139025142D01*
X185380333Y-139072761D01*
X185285095Y-139120380D01*
X185189857Y-139120380D01*
X185094619Y-139072761D01*
X185047000Y-139025142D01*
X184999380Y-138929904D01*
X184999380Y-138691809D01*
X185047000Y-138548952D01*
X185999380Y-138120380D02*
X184999380Y-138120380D01*
X185951761Y-137691809D02*
X185999380Y-137548952D01*
X185999380Y-137310857D01*
X185951761Y-137215619D01*
X185904142Y-137168000D01*
X185808904Y-137120380D01*
X185713666Y-137120380D01*
X185618428Y-137168000D01*
X185570809Y-137215619D01*
X185523190Y-137310857D01*
X185475571Y-137501333D01*
X185427952Y-137596571D01*
X185380333Y-137644190D01*
X185285095Y-137691809D01*
X185189857Y-137691809D01*
X185094619Y-137644190D01*
X185047000Y-137596571D01*
X184999380Y-137501333D01*
X184999380Y-137263238D01*
X185047000Y-137120380D01*
X184999380Y-136834666D02*
X184999380Y-136263238D01*
X185999380Y-136548952D02*
X184999380Y-136548952D01*
X184999380Y-135739428D02*
X184999380Y-135548952D01*
X185047000Y-135453714D01*
X185142238Y-135358476D01*
X185332714Y-135310857D01*
X185666047Y-135310857D01*
X185856523Y-135358476D01*
X185951761Y-135453714D01*
X185999380Y-135548952D01*
X185999380Y-135739428D01*
X185951761Y-135834666D01*
X185856523Y-135929904D01*
X185666047Y-135977523D01*
X185332714Y-135977523D01*
X185142238Y-135929904D01*
X185047000Y-135834666D01*
X184999380Y-135739428D01*
X185999380Y-134310857D02*
X185523190Y-134644190D01*
X185999380Y-134882285D02*
X184999380Y-134882285D01*
X184999380Y-134501333D01*
X185047000Y-134406095D01*
X185094619Y-134358476D01*
X185189857Y-134310857D01*
X185332714Y-134310857D01*
X185427952Y-134358476D01*
X185475571Y-134406095D01*
X185523190Y-134501333D01*
X185523190Y-134882285D01*
G04 #@! TO.C,R2*
X156805333Y-137866380D02*
X156472000Y-137390190D01*
X156233904Y-137866380D02*
X156233904Y-136866380D01*
X156614857Y-136866380D01*
X156710095Y-136914000D01*
X156757714Y-136961619D01*
X156805333Y-137056857D01*
X156805333Y-137199714D01*
X156757714Y-137294952D01*
X156710095Y-137342571D01*
X156614857Y-137390190D01*
X156233904Y-137390190D01*
X157186285Y-136961619D02*
X157233904Y-136914000D01*
X157329142Y-136866380D01*
X157567238Y-136866380D01*
X157662476Y-136914000D01*
X157710095Y-136961619D01*
X157757714Y-137056857D01*
X157757714Y-137152095D01*
X157710095Y-137294952D01*
X157138666Y-137866380D01*
X157757714Y-137866380D01*
X161853904Y-137739380D02*
X161520571Y-137263190D01*
X161282476Y-137739380D02*
X161282476Y-136739380D01*
X161663428Y-136739380D01*
X161758666Y-136787000D01*
X161806285Y-136834619D01*
X161853904Y-136929857D01*
X161853904Y-137072714D01*
X161806285Y-137167952D01*
X161758666Y-137215571D01*
X161663428Y-137263190D01*
X161282476Y-137263190D01*
X162282476Y-137215571D02*
X162615809Y-137215571D01*
X162758666Y-137739380D02*
X162282476Y-137739380D01*
X162282476Y-136739380D01*
X162758666Y-136739380D01*
X163139619Y-137691761D02*
X163282476Y-137739380D01*
X163520571Y-137739380D01*
X163615809Y-137691761D01*
X163663428Y-137644142D01*
X163711047Y-137548904D01*
X163711047Y-137453666D01*
X163663428Y-137358428D01*
X163615809Y-137310809D01*
X163520571Y-137263190D01*
X163330095Y-137215571D01*
X163234857Y-137167952D01*
X163187238Y-137120333D01*
X163139619Y-137025095D01*
X163139619Y-136929857D01*
X163187238Y-136834619D01*
X163234857Y-136787000D01*
X163330095Y-136739380D01*
X163568190Y-136739380D01*
X163711047Y-136787000D01*
X164139619Y-137739380D02*
X164139619Y-136739380D01*
X164568190Y-137691761D02*
X164711047Y-137739380D01*
X164949142Y-137739380D01*
X165044380Y-137691761D01*
X165092000Y-137644142D01*
X165139619Y-137548904D01*
X165139619Y-137453666D01*
X165092000Y-137358428D01*
X165044380Y-137310809D01*
X164949142Y-137263190D01*
X164758666Y-137215571D01*
X164663428Y-137167952D01*
X164615809Y-137120333D01*
X164568190Y-137025095D01*
X164568190Y-136929857D01*
X164615809Y-136834619D01*
X164663428Y-136787000D01*
X164758666Y-136739380D01*
X164996761Y-136739380D01*
X165139619Y-136787000D01*
X165425333Y-136739380D02*
X165996761Y-136739380D01*
X165711047Y-137739380D02*
X165711047Y-136739380D01*
X166520571Y-136739380D02*
X166711047Y-136739380D01*
X166806285Y-136787000D01*
X166901523Y-136882238D01*
X166949142Y-137072714D01*
X166949142Y-137406047D01*
X166901523Y-137596523D01*
X166806285Y-137691761D01*
X166711047Y-137739380D01*
X166520571Y-137739380D01*
X166425333Y-137691761D01*
X166330095Y-137596523D01*
X166282476Y-137406047D01*
X166282476Y-137072714D01*
X166330095Y-136882238D01*
X166425333Y-136787000D01*
X166520571Y-136739380D01*
X167949142Y-137739380D02*
X167615809Y-137263190D01*
X167377714Y-137739380D02*
X167377714Y-136739380D01*
X167758666Y-136739380D01*
X167853904Y-136787000D01*
X167901523Y-136834619D01*
X167949142Y-136929857D01*
X167949142Y-137072714D01*
X167901523Y-137167952D01*
X167853904Y-137215571D01*
X167758666Y-137263190D01*
X167377714Y-137263190D01*
G04 #@! TO.C,R3*
X133945333Y-137866380D02*
X133612000Y-137390190D01*
X133373904Y-137866380D02*
X133373904Y-136866380D01*
X133754857Y-136866380D01*
X133850095Y-136914000D01*
X133897714Y-136961619D01*
X133945333Y-137056857D01*
X133945333Y-137199714D01*
X133897714Y-137294952D01*
X133850095Y-137342571D01*
X133754857Y-137390190D01*
X133373904Y-137390190D01*
X134278666Y-136866380D02*
X134897714Y-136866380D01*
X134564380Y-137247333D01*
X134707238Y-137247333D01*
X134802476Y-137294952D01*
X134850095Y-137342571D01*
X134897714Y-137437809D01*
X134897714Y-137675904D01*
X134850095Y-137771142D01*
X134802476Y-137818761D01*
X134707238Y-137866380D01*
X134421523Y-137866380D01*
X134326285Y-137818761D01*
X134278666Y-137771142D01*
X138993904Y-137739380D02*
X138660571Y-137263190D01*
X138422476Y-137739380D02*
X138422476Y-136739380D01*
X138803428Y-136739380D01*
X138898666Y-136787000D01*
X138946285Y-136834619D01*
X138993904Y-136929857D01*
X138993904Y-137072714D01*
X138946285Y-137167952D01*
X138898666Y-137215571D01*
X138803428Y-137263190D01*
X138422476Y-137263190D01*
X139422476Y-137215571D02*
X139755809Y-137215571D01*
X139898666Y-137739380D02*
X139422476Y-137739380D01*
X139422476Y-136739380D01*
X139898666Y-136739380D01*
X140279619Y-137691761D02*
X140422476Y-137739380D01*
X140660571Y-137739380D01*
X140755809Y-137691761D01*
X140803428Y-137644142D01*
X140851047Y-137548904D01*
X140851047Y-137453666D01*
X140803428Y-137358428D01*
X140755809Y-137310809D01*
X140660571Y-137263190D01*
X140470095Y-137215571D01*
X140374857Y-137167952D01*
X140327238Y-137120333D01*
X140279619Y-137025095D01*
X140279619Y-136929857D01*
X140327238Y-136834619D01*
X140374857Y-136787000D01*
X140470095Y-136739380D01*
X140708190Y-136739380D01*
X140851047Y-136787000D01*
X141279619Y-137739380D02*
X141279619Y-136739380D01*
X141708190Y-137691761D02*
X141851047Y-137739380D01*
X142089142Y-137739380D01*
X142184380Y-137691761D01*
X142232000Y-137644142D01*
X142279619Y-137548904D01*
X142279619Y-137453666D01*
X142232000Y-137358428D01*
X142184380Y-137310809D01*
X142089142Y-137263190D01*
X141898666Y-137215571D01*
X141803428Y-137167952D01*
X141755809Y-137120333D01*
X141708190Y-137025095D01*
X141708190Y-136929857D01*
X141755809Y-136834619D01*
X141803428Y-136787000D01*
X141898666Y-136739380D01*
X142136761Y-136739380D01*
X142279619Y-136787000D01*
X142565333Y-136739380D02*
X143136761Y-136739380D01*
X142851047Y-137739380D02*
X142851047Y-136739380D01*
X143660571Y-136739380D02*
X143851047Y-136739380D01*
X143946285Y-136787000D01*
X144041523Y-136882238D01*
X144089142Y-137072714D01*
X144089142Y-137406047D01*
X144041523Y-137596523D01*
X143946285Y-137691761D01*
X143851047Y-137739380D01*
X143660571Y-137739380D01*
X143565333Y-137691761D01*
X143470095Y-137596523D01*
X143422476Y-137406047D01*
X143422476Y-137072714D01*
X143470095Y-136882238D01*
X143565333Y-136787000D01*
X143660571Y-136739380D01*
X145089142Y-137739380D02*
X144755809Y-137263190D01*
X144517714Y-137739380D02*
X144517714Y-136739380D01*
X144898666Y-136739380D01*
X144993904Y-136787000D01*
X145041523Y-136834619D01*
X145089142Y-136929857D01*
X145089142Y-137072714D01*
X145041523Y-137167952D01*
X144993904Y-137215571D01*
X144898666Y-137263190D01*
X144517714Y-137263190D01*
G04 #@! TO.C,R4*
X108545333Y-137866380D02*
X108212000Y-137390190D01*
X107973904Y-137866380D02*
X107973904Y-136866380D01*
X108354857Y-136866380D01*
X108450095Y-136914000D01*
X108497714Y-136961619D01*
X108545333Y-137056857D01*
X108545333Y-137199714D01*
X108497714Y-137294952D01*
X108450095Y-137342571D01*
X108354857Y-137390190D01*
X107973904Y-137390190D01*
X109402476Y-137199714D02*
X109402476Y-137866380D01*
X109164380Y-136818761D02*
X108926285Y-137533047D01*
X109545333Y-137533047D01*
X113593904Y-137739380D02*
X113260571Y-137263190D01*
X113022476Y-137739380D02*
X113022476Y-136739380D01*
X113403428Y-136739380D01*
X113498666Y-136787000D01*
X113546285Y-136834619D01*
X113593904Y-136929857D01*
X113593904Y-137072714D01*
X113546285Y-137167952D01*
X113498666Y-137215571D01*
X113403428Y-137263190D01*
X113022476Y-137263190D01*
X114022476Y-137215571D02*
X114355809Y-137215571D01*
X114498666Y-137739380D02*
X114022476Y-137739380D01*
X114022476Y-136739380D01*
X114498666Y-136739380D01*
X114879619Y-137691761D02*
X115022476Y-137739380D01*
X115260571Y-137739380D01*
X115355809Y-137691761D01*
X115403428Y-137644142D01*
X115451047Y-137548904D01*
X115451047Y-137453666D01*
X115403428Y-137358428D01*
X115355809Y-137310809D01*
X115260571Y-137263190D01*
X115070095Y-137215571D01*
X114974857Y-137167952D01*
X114927238Y-137120333D01*
X114879619Y-137025095D01*
X114879619Y-136929857D01*
X114927238Y-136834619D01*
X114974857Y-136787000D01*
X115070095Y-136739380D01*
X115308190Y-136739380D01*
X115451047Y-136787000D01*
X115879619Y-137739380D02*
X115879619Y-136739380D01*
X116308190Y-137691761D02*
X116451047Y-137739380D01*
X116689142Y-137739380D01*
X116784380Y-137691761D01*
X116832000Y-137644142D01*
X116879619Y-137548904D01*
X116879619Y-137453666D01*
X116832000Y-137358428D01*
X116784380Y-137310809D01*
X116689142Y-137263190D01*
X116498666Y-137215571D01*
X116403428Y-137167952D01*
X116355809Y-137120333D01*
X116308190Y-137025095D01*
X116308190Y-136929857D01*
X116355809Y-136834619D01*
X116403428Y-136787000D01*
X116498666Y-136739380D01*
X116736761Y-136739380D01*
X116879619Y-136787000D01*
X117165333Y-136739380D02*
X117736761Y-136739380D01*
X117451047Y-137739380D02*
X117451047Y-136739380D01*
X118260571Y-136739380D02*
X118451047Y-136739380D01*
X118546285Y-136787000D01*
X118641523Y-136882238D01*
X118689142Y-137072714D01*
X118689142Y-137406047D01*
X118641523Y-137596523D01*
X118546285Y-137691761D01*
X118451047Y-137739380D01*
X118260571Y-137739380D01*
X118165333Y-137691761D01*
X118070095Y-137596523D01*
X118022476Y-137406047D01*
X118022476Y-137072714D01*
X118070095Y-136882238D01*
X118165333Y-136787000D01*
X118260571Y-136739380D01*
X119689142Y-137739380D02*
X119355809Y-137263190D01*
X119117714Y-137739380D02*
X119117714Y-136739380D01*
X119498666Y-136739380D01*
X119593904Y-136787000D01*
X119641523Y-136834619D01*
X119689142Y-136929857D01*
X119689142Y-137072714D01*
X119641523Y-137167952D01*
X119593904Y-137215571D01*
X119498666Y-137263190D01*
X119117714Y-137263190D01*
G04 #@! TO.C,P5*
X171854904Y-126309380D02*
X171854904Y-125309380D01*
X172235857Y-125309380D01*
X172331095Y-125357000D01*
X172378714Y-125404619D01*
X172426333Y-125499857D01*
X172426333Y-125642714D01*
X172378714Y-125737952D01*
X172331095Y-125785571D01*
X172235857Y-125833190D01*
X171854904Y-125833190D01*
X173331095Y-125309380D02*
X172854904Y-125309380D01*
X172807285Y-125785571D01*
X172854904Y-125737952D01*
X172950142Y-125690333D01*
X173188238Y-125690333D01*
X173283476Y-125737952D01*
X173331095Y-125785571D01*
X173378714Y-125880809D01*
X173378714Y-126118904D01*
X173331095Y-126214142D01*
X173283476Y-126261761D01*
X173188238Y-126309380D01*
X172950142Y-126309380D01*
X172854904Y-126261761D01*
X172807285Y-126214142D01*
X191285952Y-132786380D02*
X190809761Y-132786380D01*
X190809761Y-131786380D01*
X191619285Y-132262571D02*
X191952619Y-132262571D01*
X192095476Y-132786380D02*
X191619285Y-132786380D01*
X191619285Y-131786380D01*
X192095476Y-131786380D01*
X192524047Y-132786380D02*
X192524047Y-131786380D01*
X192762142Y-131786380D01*
X192905000Y-131834000D01*
X193000238Y-131929238D01*
X193047857Y-132024476D01*
X193095476Y-132214952D01*
X193095476Y-132357809D01*
X193047857Y-132548285D01*
X193000238Y-132643523D01*
X192905000Y-132738761D01*
X192762142Y-132786380D01*
X192524047Y-132786380D01*
X193476428Y-132738761D02*
X193619285Y-132786380D01*
X193857380Y-132786380D01*
X193952619Y-132738761D01*
X194000238Y-132691142D01*
X194047857Y-132595904D01*
X194047857Y-132500666D01*
X194000238Y-132405428D01*
X193952619Y-132357809D01*
X193857380Y-132310190D01*
X193666904Y-132262571D01*
X193571666Y-132214952D01*
X193524047Y-132167333D01*
X193476428Y-132072095D01*
X193476428Y-131976857D01*
X193524047Y-131881619D01*
X193571666Y-131834000D01*
X193666904Y-131786380D01*
X193905000Y-131786380D01*
X194047857Y-131834000D01*
G04 #@! TO.C,P6*
X138961904Y-126309380D02*
X138961904Y-125309380D01*
X139342857Y-125309380D01*
X139438095Y-125357000D01*
X139485714Y-125404619D01*
X139533333Y-125499857D01*
X139533333Y-125642714D01*
X139485714Y-125737952D01*
X139438095Y-125785571D01*
X139342857Y-125833190D01*
X138961904Y-125833190D01*
X140390476Y-125309380D02*
X140200000Y-125309380D01*
X140104761Y-125357000D01*
X140057142Y-125404619D01*
X139961904Y-125547476D01*
X139914285Y-125737952D01*
X139914285Y-126118904D01*
X139961904Y-126214142D01*
X140009523Y-126261761D01*
X140104761Y-126309380D01*
X140295238Y-126309380D01*
X140390476Y-126261761D01*
X140438095Y-126214142D01*
X140485714Y-126118904D01*
X140485714Y-125880809D01*
X140438095Y-125785571D01*
X140390476Y-125737952D01*
X140295238Y-125690333D01*
X140104761Y-125690333D01*
X140009523Y-125737952D01*
X139961904Y-125785571D01*
X139914285Y-125880809D01*
X153336952Y-132786380D02*
X153336952Y-131786380D01*
X153717904Y-131786380D01*
X153813142Y-131834000D01*
X153860761Y-131881619D01*
X153908380Y-131976857D01*
X153908380Y-132119714D01*
X153860761Y-132214952D01*
X153813142Y-132262571D01*
X153717904Y-132310190D01*
X153336952Y-132310190D01*
X154336952Y-132786380D02*
X154336952Y-131786380D01*
X154813142Y-132786380D02*
X154813142Y-131786380D01*
X155384571Y-132786380D01*
X155384571Y-131786380D01*
X155813142Y-132738761D02*
X155956000Y-132786380D01*
X156194095Y-132786380D01*
X156289333Y-132738761D01*
X156336952Y-132691142D01*
X156384571Y-132595904D01*
X156384571Y-132500666D01*
X156336952Y-132405428D01*
X156289333Y-132357809D01*
X156194095Y-132310190D01*
X156003619Y-132262571D01*
X155908380Y-132214952D01*
X155860761Y-132167333D01*
X155813142Y-132072095D01*
X155813142Y-131976857D01*
X155860761Y-131881619D01*
X155908380Y-131834000D01*
X156003619Y-131786380D01*
X156241714Y-131786380D01*
X156384571Y-131834000D01*
X156813142Y-132405428D02*
X157575047Y-132405428D01*
X158384571Y-132262571D02*
X158527428Y-132310190D01*
X158575047Y-132357809D01*
X158622666Y-132453047D01*
X158622666Y-132595904D01*
X158575047Y-132691142D01*
X158527428Y-132738761D01*
X158432190Y-132786380D01*
X158051238Y-132786380D01*
X158051238Y-131786380D01*
X158384571Y-131786380D01*
X158479809Y-131834000D01*
X158527428Y-131881619D01*
X158575047Y-131976857D01*
X158575047Y-132072095D01*
X158527428Y-132167333D01*
X158479809Y-132214952D01*
X158384571Y-132262571D01*
X158051238Y-132262571D01*
G04 #@! TO.C,P7*
X113688904Y-128849380D02*
X113688904Y-127849380D01*
X114069857Y-127849380D01*
X114165095Y-127897000D01*
X114212714Y-127944619D01*
X114260333Y-128039857D01*
X114260333Y-128182714D01*
X114212714Y-128277952D01*
X114165095Y-128325571D01*
X114069857Y-128373190D01*
X113688904Y-128373190D01*
X114593666Y-127849380D02*
X115260333Y-127849380D01*
X114831761Y-128849380D01*
X115562380Y-132659380D02*
X115562380Y-131659380D01*
X115943333Y-131659380D01*
X116038571Y-131707000D01*
X116086190Y-131754619D01*
X116133809Y-131849857D01*
X116133809Y-131992714D01*
X116086190Y-132087952D01*
X116038571Y-132135571D01*
X115943333Y-132183190D01*
X115562380Y-132183190D01*
X116562380Y-132659380D02*
X116562380Y-131659380D01*
X117038571Y-132659380D02*
X117038571Y-131659380D01*
X117610000Y-132659380D01*
X117610000Y-131659380D01*
X118038571Y-132611761D02*
X118181428Y-132659380D01*
X118419523Y-132659380D01*
X118514761Y-132611761D01*
X118562380Y-132564142D01*
X118610000Y-132468904D01*
X118610000Y-132373666D01*
X118562380Y-132278428D01*
X118514761Y-132230809D01*
X118419523Y-132183190D01*
X118229047Y-132135571D01*
X118133809Y-132087952D01*
X118086190Y-132040333D01*
X118038571Y-131945095D01*
X118038571Y-131849857D01*
X118086190Y-131754619D01*
X118133809Y-131707000D01*
X118229047Y-131659380D01*
X118467142Y-131659380D01*
X118610000Y-131707000D01*
X119038571Y-132278428D02*
X119800476Y-132278428D01*
X120229047Y-132373666D02*
X120705238Y-132373666D01*
X120133809Y-132659380D02*
X120467142Y-131659380D01*
X120800476Y-132659380D01*
G04 #@! TD*
M02*
