M48
;DRILL file {KiCad (5.0.1)-3} date 12/7/2018 1:03:18 PM
;FORMAT={-:-/ absolute / metric / decimal}
FMAT,2
METRIC,TZ
T1C0.508
T2C0.914
T3C1.001
T4C4.318
%
G90
G05
M71
T1
X142.24Y-125.095
X154.94Y-124.05
X160.02Y-123.19
X168.275Y-131.445
X175.26Y-133.985
X179.07Y-134.62
X180.34Y-135.89
X181.61Y-138.43
X182.245Y-140.335
X182.88Y-137.16
T2
X160.02Y-137.16
X170.18Y-137.16
X120.65Y-125.73
X120.65Y-128.27
X123.19Y-125.73
X123.19Y-128.27
X125.73Y-125.73
X125.73Y-128.27
X128.27Y-125.73
X128.27Y-128.27
X130.81Y-125.73
X130.81Y-128.27
X111.76Y-137.16
X121.92Y-137.16
X137.16Y-137.16
X147.32Y-137.16
X146.05Y-125.73
X146.05Y-128.27
X148.59Y-125.73
X148.59Y-128.27
X151.13Y-125.73
X151.13Y-128.27
X153.67Y-125.73
X153.67Y-128.27
X156.21Y-125.73
X156.21Y-128.27
X158.75Y-125.73
X158.75Y-128.27
X161.29Y-125.73
X161.29Y-128.27
X163.83Y-125.73
X163.83Y-128.27
X185.42Y-132.08
X185.42Y-142.24
X179.07Y-125.73
X179.07Y-128.27
X181.61Y-125.73
X181.61Y-128.27
X184.15Y-125.73
X184.15Y-128.27
X186.69Y-125.73
X186.69Y-128.27
X189.23Y-125.73
X189.23Y-128.27
T3
X160.02Y-147.32
X162.56Y-147.32
X134.62Y-147.32
X137.16Y-147.32
X185.42Y-147.32
X187.96Y-147.32
X109.22Y-147.32
X111.76Y-147.32
T4
X119.38Y-147.701
X144.78Y-147.701
X170.18Y-147.701
X195.58Y-147.701
T0
M30
