G04 #@! TF.GenerationSoftware,KiCad,Pcbnew,(5.0.1)-3*
G04 #@! TF.CreationDate,2018-12-07T13:03:12-08:00*
G04 #@! TF.ProjectId,500-1073-Quad-Banana-Jack,3530302D313037332D517561642D4261,rev?*
G04 #@! TF.SameCoordinates,Original*
G04 #@! TF.FileFunction,Soldermask,Bot*
G04 #@! TF.FilePolarity,Negative*
%FSLAX46Y46*%
G04 Gerber Fmt 4.6, Leading zero omitted, Abs format (unit mm)*
G04 Created by KiCad (PCBNEW (5.0.1)-3) date 12/7/2018 1:03:12 PM*
%MOMM*%
%LPD*%
G01*
G04 APERTURE LIST*
%ADD10C,0.100000*%
G04 APERTURE END LIST*
D10*
G36*
X148536000Y-151711000D02*
X141024000Y-151711000D01*
X141024000Y-143691000D01*
X148536000Y-143691000D01*
X148536000Y-151711000D01*
X148536000Y-151711000D01*
G37*
G36*
X173936000Y-151711000D02*
X166424000Y-151711000D01*
X166424000Y-143691000D01*
X173936000Y-143691000D01*
X173936000Y-151711000D01*
X173936000Y-151711000D01*
G37*
G36*
X199336000Y-151711000D02*
X191824000Y-151711000D01*
X191824000Y-143691000D01*
X199336000Y-143691000D01*
X199336000Y-151711000D01*
X199336000Y-151711000D01*
G37*
G36*
X123136000Y-151711000D02*
X115624000Y-151711000D01*
X115624000Y-143691000D01*
X123136000Y-143691000D01*
X123136000Y-151711000D01*
X123136000Y-151711000D01*
G37*
G36*
X110370000Y-147144150D02*
X110372402Y-147168536D01*
X110379515Y-147191985D01*
X110391066Y-147213596D01*
X110406612Y-147232538D01*
X110425554Y-147248084D01*
X110447165Y-147259635D01*
X110470614Y-147266748D01*
X110495000Y-147269150D01*
X110519386Y-147266748D01*
X110542835Y-147259635D01*
X110564446Y-147248084D01*
X110583388Y-147232538D01*
X110598934Y-147213596D01*
X110610485Y-147191985D01*
X110617598Y-147168537D01*
X110654194Y-146984557D01*
X110740883Y-146775272D01*
X110866739Y-146586915D01*
X111026915Y-146426739D01*
X111215272Y-146300883D01*
X111424557Y-146214194D01*
X111646734Y-146170000D01*
X111873266Y-146170000D01*
X112095443Y-146214194D01*
X112304728Y-146300883D01*
X112493085Y-146426739D01*
X112653261Y-146586915D01*
X112779117Y-146775272D01*
X112865806Y-146984557D01*
X112910000Y-147206734D01*
X112910000Y-147433266D01*
X112865806Y-147655443D01*
X112779117Y-147864728D01*
X112653261Y-148053085D01*
X112493085Y-148213261D01*
X112304728Y-148339117D01*
X112095443Y-148425806D01*
X111873266Y-148470000D01*
X111646734Y-148470000D01*
X111424557Y-148425806D01*
X111215272Y-148339117D01*
X111026915Y-148213261D01*
X110866739Y-148053085D01*
X110740883Y-147864728D01*
X110654194Y-147655443D01*
X110617598Y-147471463D01*
X110610485Y-147448014D01*
X110598934Y-147426403D01*
X110583388Y-147407461D01*
X110564446Y-147391916D01*
X110542835Y-147380365D01*
X110519386Y-147373252D01*
X110495000Y-147370850D01*
X110470613Y-147373252D01*
X110447164Y-147380365D01*
X110425553Y-147391916D01*
X110406611Y-147407462D01*
X110391066Y-147426404D01*
X110379515Y-147448015D01*
X110372402Y-147471464D01*
X110370000Y-147495850D01*
X110370000Y-148520000D01*
X108070000Y-148520000D01*
X108070000Y-146120000D01*
X110370000Y-146120000D01*
X110370000Y-147144150D01*
X110370000Y-147144150D01*
G37*
G36*
X135770000Y-147144150D02*
X135772402Y-147168536D01*
X135779515Y-147191985D01*
X135791066Y-147213596D01*
X135806612Y-147232538D01*
X135825554Y-147248084D01*
X135847165Y-147259635D01*
X135870614Y-147266748D01*
X135895000Y-147269150D01*
X135919386Y-147266748D01*
X135942835Y-147259635D01*
X135964446Y-147248084D01*
X135983388Y-147232538D01*
X135998934Y-147213596D01*
X136010485Y-147191985D01*
X136017598Y-147168537D01*
X136054194Y-146984557D01*
X136140883Y-146775272D01*
X136266739Y-146586915D01*
X136426915Y-146426739D01*
X136615272Y-146300883D01*
X136824557Y-146214194D01*
X137046734Y-146170000D01*
X137273266Y-146170000D01*
X137495443Y-146214194D01*
X137704728Y-146300883D01*
X137893085Y-146426739D01*
X138053261Y-146586915D01*
X138179117Y-146775272D01*
X138265806Y-146984557D01*
X138310000Y-147206734D01*
X138310000Y-147433266D01*
X138265806Y-147655443D01*
X138179117Y-147864728D01*
X138053261Y-148053085D01*
X137893085Y-148213261D01*
X137704728Y-148339117D01*
X137495443Y-148425806D01*
X137273266Y-148470000D01*
X137046734Y-148470000D01*
X136824557Y-148425806D01*
X136615272Y-148339117D01*
X136426915Y-148213261D01*
X136266739Y-148053085D01*
X136140883Y-147864728D01*
X136054194Y-147655443D01*
X136017598Y-147471463D01*
X136010485Y-147448014D01*
X135998934Y-147426403D01*
X135983388Y-147407461D01*
X135964446Y-147391916D01*
X135942835Y-147380365D01*
X135919386Y-147373252D01*
X135895000Y-147370850D01*
X135870613Y-147373252D01*
X135847164Y-147380365D01*
X135825553Y-147391916D01*
X135806611Y-147407462D01*
X135791066Y-147426404D01*
X135779515Y-147448015D01*
X135772402Y-147471464D01*
X135770000Y-147495850D01*
X135770000Y-148520000D01*
X133470000Y-148520000D01*
X133470000Y-146120000D01*
X135770000Y-146120000D01*
X135770000Y-147144150D01*
X135770000Y-147144150D01*
G37*
G36*
X161170000Y-147144150D02*
X161172402Y-147168536D01*
X161179515Y-147191985D01*
X161191066Y-147213596D01*
X161206612Y-147232538D01*
X161225554Y-147248084D01*
X161247165Y-147259635D01*
X161270614Y-147266748D01*
X161295000Y-147269150D01*
X161319386Y-147266748D01*
X161342835Y-147259635D01*
X161364446Y-147248084D01*
X161383388Y-147232538D01*
X161398934Y-147213596D01*
X161410485Y-147191985D01*
X161417598Y-147168537D01*
X161454194Y-146984557D01*
X161540883Y-146775272D01*
X161666739Y-146586915D01*
X161826915Y-146426739D01*
X162015272Y-146300883D01*
X162224557Y-146214194D01*
X162446734Y-146170000D01*
X162673266Y-146170000D01*
X162895443Y-146214194D01*
X163104728Y-146300883D01*
X163293085Y-146426739D01*
X163453261Y-146586915D01*
X163579117Y-146775272D01*
X163665806Y-146984557D01*
X163710000Y-147206734D01*
X163710000Y-147433266D01*
X163665806Y-147655443D01*
X163579117Y-147864728D01*
X163453261Y-148053085D01*
X163293085Y-148213261D01*
X163104728Y-148339117D01*
X162895443Y-148425806D01*
X162673266Y-148470000D01*
X162446734Y-148470000D01*
X162224557Y-148425806D01*
X162015272Y-148339117D01*
X161826915Y-148213261D01*
X161666739Y-148053085D01*
X161540883Y-147864728D01*
X161454194Y-147655443D01*
X161417598Y-147471463D01*
X161410485Y-147448014D01*
X161398934Y-147426403D01*
X161383388Y-147407461D01*
X161364446Y-147391916D01*
X161342835Y-147380365D01*
X161319386Y-147373252D01*
X161295000Y-147370850D01*
X161270613Y-147373252D01*
X161247164Y-147380365D01*
X161225553Y-147391916D01*
X161206611Y-147407462D01*
X161191066Y-147426404D01*
X161179515Y-147448015D01*
X161172402Y-147471464D01*
X161170000Y-147495850D01*
X161170000Y-148520000D01*
X158870000Y-148520000D01*
X158870000Y-146120000D01*
X161170000Y-146120000D01*
X161170000Y-147144150D01*
X161170000Y-147144150D01*
G37*
G36*
X186570000Y-147144150D02*
X186572402Y-147168536D01*
X186579515Y-147191985D01*
X186591066Y-147213596D01*
X186606612Y-147232538D01*
X186625554Y-147248084D01*
X186647165Y-147259635D01*
X186670614Y-147266748D01*
X186695000Y-147269150D01*
X186719386Y-147266748D01*
X186742835Y-147259635D01*
X186764446Y-147248084D01*
X186783388Y-147232538D01*
X186798934Y-147213596D01*
X186810485Y-147191985D01*
X186817598Y-147168537D01*
X186854194Y-146984557D01*
X186940883Y-146775272D01*
X187066739Y-146586915D01*
X187226915Y-146426739D01*
X187415272Y-146300883D01*
X187624557Y-146214194D01*
X187846734Y-146170000D01*
X188073266Y-146170000D01*
X188295443Y-146214194D01*
X188504728Y-146300883D01*
X188693085Y-146426739D01*
X188853261Y-146586915D01*
X188979117Y-146775272D01*
X189065806Y-146984557D01*
X189110000Y-147206734D01*
X189110000Y-147433266D01*
X189065806Y-147655443D01*
X188979117Y-147864728D01*
X188853261Y-148053085D01*
X188693085Y-148213261D01*
X188504728Y-148339117D01*
X188295443Y-148425806D01*
X188073266Y-148470000D01*
X187846734Y-148470000D01*
X187624557Y-148425806D01*
X187415272Y-148339117D01*
X187226915Y-148213261D01*
X187066739Y-148053085D01*
X186940883Y-147864728D01*
X186854194Y-147655443D01*
X186817598Y-147471463D01*
X186810485Y-147448014D01*
X186798934Y-147426403D01*
X186783388Y-147407461D01*
X186764446Y-147391916D01*
X186742835Y-147380365D01*
X186719386Y-147373252D01*
X186695000Y-147370850D01*
X186670613Y-147373252D01*
X186647164Y-147380365D01*
X186625553Y-147391916D01*
X186606611Y-147407462D01*
X186591066Y-147426404D01*
X186579515Y-147448015D01*
X186572402Y-147471464D01*
X186570000Y-147495850D01*
X186570000Y-148520000D01*
X184270000Y-148520000D01*
X184270000Y-146120000D01*
X186570000Y-146120000D01*
X186570000Y-147144150D01*
X186570000Y-147144150D01*
G37*
G36*
X185644426Y-141277897D02*
X185708014Y-141290545D01*
X185887709Y-141364977D01*
X186049431Y-141473036D01*
X186186964Y-141610569D01*
X186295023Y-141772291D01*
X186369455Y-141951986D01*
X186407400Y-142142750D01*
X186407400Y-142337250D01*
X186369455Y-142528014D01*
X186295023Y-142707709D01*
X186186964Y-142869431D01*
X186049431Y-143006964D01*
X185887709Y-143115023D01*
X185708014Y-143189455D01*
X185644426Y-143202103D01*
X185517252Y-143227400D01*
X185322748Y-143227400D01*
X185195574Y-143202103D01*
X185131986Y-143189455D01*
X184952291Y-143115023D01*
X184790569Y-143006964D01*
X184653036Y-142869431D01*
X184544977Y-142707709D01*
X184470545Y-142528014D01*
X184432600Y-142337250D01*
X184432600Y-142142750D01*
X184470545Y-141951986D01*
X184544977Y-141772291D01*
X184653036Y-141610569D01*
X184790569Y-141473036D01*
X184952291Y-141364977D01*
X185131986Y-141290545D01*
X185195574Y-141277897D01*
X185322748Y-141252600D01*
X185517252Y-141252600D01*
X185644426Y-141277897D01*
X185644426Y-141277897D01*
G37*
G36*
X137384426Y-136197897D02*
X137448014Y-136210545D01*
X137627709Y-136284977D01*
X137789431Y-136393036D01*
X137926964Y-136530569D01*
X138035023Y-136692291D01*
X138109455Y-136871986D01*
X138147400Y-137062750D01*
X138147400Y-137257250D01*
X138109455Y-137448014D01*
X138035023Y-137627709D01*
X137926964Y-137789431D01*
X137789431Y-137926964D01*
X137627709Y-138035023D01*
X137448014Y-138109455D01*
X137384426Y-138122103D01*
X137257252Y-138147400D01*
X137062748Y-138147400D01*
X136935574Y-138122103D01*
X136871986Y-138109455D01*
X136692291Y-138035023D01*
X136530569Y-137926964D01*
X136393036Y-137789431D01*
X136284977Y-137627709D01*
X136210545Y-137448014D01*
X136172600Y-137257250D01*
X136172600Y-137062750D01*
X136210545Y-136871986D01*
X136284977Y-136692291D01*
X136393036Y-136530569D01*
X136530569Y-136393036D01*
X136692291Y-136284977D01*
X136871986Y-136210545D01*
X136935574Y-136197897D01*
X137062748Y-136172600D01*
X137257252Y-136172600D01*
X137384426Y-136197897D01*
X137384426Y-136197897D01*
G37*
G36*
X170404426Y-136197897D02*
X170468014Y-136210545D01*
X170647709Y-136284977D01*
X170809431Y-136393036D01*
X170946964Y-136530569D01*
X171055023Y-136692291D01*
X171129455Y-136871986D01*
X171167400Y-137062750D01*
X171167400Y-137257250D01*
X171129455Y-137448014D01*
X171055023Y-137627709D01*
X170946964Y-137789431D01*
X170809431Y-137926964D01*
X170647709Y-138035023D01*
X170468014Y-138109455D01*
X170404426Y-138122103D01*
X170277252Y-138147400D01*
X170082748Y-138147400D01*
X169955574Y-138122103D01*
X169891986Y-138109455D01*
X169712291Y-138035023D01*
X169550569Y-137926964D01*
X169413036Y-137789431D01*
X169304977Y-137627709D01*
X169230545Y-137448014D01*
X169192600Y-137257250D01*
X169192600Y-137062750D01*
X169230545Y-136871986D01*
X169304977Y-136692291D01*
X169413036Y-136530569D01*
X169550569Y-136393036D01*
X169712291Y-136284977D01*
X169891986Y-136210545D01*
X169955574Y-136197897D01*
X170082748Y-136172600D01*
X170277252Y-136172600D01*
X170404426Y-136197897D01*
X170404426Y-136197897D01*
G37*
G36*
X160244426Y-136197897D02*
X160308014Y-136210545D01*
X160487709Y-136284977D01*
X160649431Y-136393036D01*
X160786964Y-136530569D01*
X160895023Y-136692291D01*
X160969455Y-136871986D01*
X161007400Y-137062750D01*
X161007400Y-137257250D01*
X160969455Y-137448014D01*
X160895023Y-137627709D01*
X160786964Y-137789431D01*
X160649431Y-137926964D01*
X160487709Y-138035023D01*
X160308014Y-138109455D01*
X160244426Y-138122103D01*
X160117252Y-138147400D01*
X159922748Y-138147400D01*
X159795574Y-138122103D01*
X159731986Y-138109455D01*
X159552291Y-138035023D01*
X159390569Y-137926964D01*
X159253036Y-137789431D01*
X159144977Y-137627709D01*
X159070545Y-137448014D01*
X159032600Y-137257250D01*
X159032600Y-137062750D01*
X159070545Y-136871986D01*
X159144977Y-136692291D01*
X159253036Y-136530569D01*
X159390569Y-136393036D01*
X159552291Y-136284977D01*
X159731986Y-136210545D01*
X159795574Y-136197897D01*
X159922748Y-136172600D01*
X160117252Y-136172600D01*
X160244426Y-136197897D01*
X160244426Y-136197897D01*
G37*
G36*
X147544426Y-136197897D02*
X147608014Y-136210545D01*
X147787709Y-136284977D01*
X147949431Y-136393036D01*
X148086964Y-136530569D01*
X148195023Y-136692291D01*
X148269455Y-136871986D01*
X148307400Y-137062750D01*
X148307400Y-137257250D01*
X148269455Y-137448014D01*
X148195023Y-137627709D01*
X148086964Y-137789431D01*
X147949431Y-137926964D01*
X147787709Y-138035023D01*
X147608014Y-138109455D01*
X147544426Y-138122103D01*
X147417252Y-138147400D01*
X147222748Y-138147400D01*
X147095574Y-138122103D01*
X147031986Y-138109455D01*
X146852291Y-138035023D01*
X146690569Y-137926964D01*
X146553036Y-137789431D01*
X146444977Y-137627709D01*
X146370545Y-137448014D01*
X146332600Y-137257250D01*
X146332600Y-137062750D01*
X146370545Y-136871986D01*
X146444977Y-136692291D01*
X146553036Y-136530569D01*
X146690569Y-136393036D01*
X146852291Y-136284977D01*
X147031986Y-136210545D01*
X147095574Y-136197897D01*
X147222748Y-136172600D01*
X147417252Y-136172600D01*
X147544426Y-136197897D01*
X147544426Y-136197897D01*
G37*
G36*
X111984426Y-136197897D02*
X112048014Y-136210545D01*
X112227709Y-136284977D01*
X112389431Y-136393036D01*
X112526964Y-136530569D01*
X112635023Y-136692291D01*
X112709455Y-136871986D01*
X112747400Y-137062750D01*
X112747400Y-137257250D01*
X112709455Y-137448014D01*
X112635023Y-137627709D01*
X112526964Y-137789431D01*
X112389431Y-137926964D01*
X112227709Y-138035023D01*
X112048014Y-138109455D01*
X111984426Y-138122103D01*
X111857252Y-138147400D01*
X111662748Y-138147400D01*
X111535574Y-138122103D01*
X111471986Y-138109455D01*
X111292291Y-138035023D01*
X111130569Y-137926964D01*
X110993036Y-137789431D01*
X110884977Y-137627709D01*
X110810545Y-137448014D01*
X110772600Y-137257250D01*
X110772600Y-137062750D01*
X110810545Y-136871986D01*
X110884977Y-136692291D01*
X110993036Y-136530569D01*
X111130569Y-136393036D01*
X111292291Y-136284977D01*
X111471986Y-136210545D01*
X111535574Y-136197897D01*
X111662748Y-136172600D01*
X111857252Y-136172600D01*
X111984426Y-136197897D01*
X111984426Y-136197897D01*
G37*
G36*
X122144426Y-136197897D02*
X122208014Y-136210545D01*
X122387709Y-136284977D01*
X122549431Y-136393036D01*
X122686964Y-136530569D01*
X122795023Y-136692291D01*
X122869455Y-136871986D01*
X122907400Y-137062750D01*
X122907400Y-137257250D01*
X122869455Y-137448014D01*
X122795023Y-137627709D01*
X122686964Y-137789431D01*
X122549431Y-137926964D01*
X122387709Y-138035023D01*
X122208014Y-138109455D01*
X122144426Y-138122103D01*
X122017252Y-138147400D01*
X121822748Y-138147400D01*
X121695574Y-138122103D01*
X121631986Y-138109455D01*
X121452291Y-138035023D01*
X121290569Y-137926964D01*
X121153036Y-137789431D01*
X121044977Y-137627709D01*
X120970545Y-137448014D01*
X120932600Y-137257250D01*
X120932600Y-137062750D01*
X120970545Y-136871986D01*
X121044977Y-136692291D01*
X121153036Y-136530569D01*
X121290569Y-136393036D01*
X121452291Y-136284977D01*
X121631986Y-136210545D01*
X121695574Y-136197897D01*
X121822748Y-136172600D01*
X122017252Y-136172600D01*
X122144426Y-136197897D01*
X122144426Y-136197897D01*
G37*
G36*
X185644426Y-131117897D02*
X185708014Y-131130545D01*
X185887709Y-131204977D01*
X186049431Y-131313036D01*
X186186964Y-131450569D01*
X186295023Y-131612291D01*
X186369455Y-131791986D01*
X186407400Y-131982750D01*
X186407400Y-132177250D01*
X186369455Y-132368014D01*
X186295023Y-132547709D01*
X186186964Y-132709431D01*
X186049431Y-132846964D01*
X185887709Y-132955023D01*
X185708014Y-133029455D01*
X185644426Y-133042103D01*
X185517252Y-133067400D01*
X185322748Y-133067400D01*
X185195574Y-133042103D01*
X185131986Y-133029455D01*
X184952291Y-132955023D01*
X184790569Y-132846964D01*
X184653036Y-132709431D01*
X184544977Y-132547709D01*
X184470545Y-132368014D01*
X184432600Y-132177250D01*
X184432600Y-131982750D01*
X184470545Y-131791986D01*
X184544977Y-131612291D01*
X184653036Y-131450569D01*
X184790569Y-131313036D01*
X184952291Y-131204977D01*
X185131986Y-131130545D01*
X185195574Y-131117897D01*
X185322748Y-131092600D01*
X185517252Y-131092600D01*
X185644426Y-131117897D01*
X185644426Y-131117897D01*
G37*
G36*
X121637400Y-129257400D02*
X119662600Y-129257400D01*
X119662600Y-127282600D01*
X121637400Y-127282600D01*
X121637400Y-129257400D01*
X121637400Y-129257400D01*
G37*
G36*
X123414426Y-127307897D02*
X123478014Y-127320545D01*
X123657709Y-127394977D01*
X123819431Y-127503036D01*
X123956964Y-127640569D01*
X124065023Y-127802291D01*
X124139455Y-127981986D01*
X124177400Y-128172750D01*
X124177400Y-128367250D01*
X124139455Y-128558014D01*
X124065023Y-128737709D01*
X123956964Y-128899431D01*
X123819431Y-129036964D01*
X123657709Y-129145023D01*
X123478014Y-129219455D01*
X123414426Y-129232103D01*
X123287252Y-129257400D01*
X123092748Y-129257400D01*
X122965574Y-129232103D01*
X122901986Y-129219455D01*
X122722291Y-129145023D01*
X122560569Y-129036964D01*
X122423036Y-128899431D01*
X122314977Y-128737709D01*
X122240545Y-128558014D01*
X122202600Y-128367250D01*
X122202600Y-128172750D01*
X122240545Y-127981986D01*
X122314977Y-127802291D01*
X122423036Y-127640569D01*
X122560569Y-127503036D01*
X122722291Y-127394977D01*
X122901986Y-127320545D01*
X122965574Y-127307897D01*
X123092748Y-127282600D01*
X123287252Y-127282600D01*
X123414426Y-127307897D01*
X123414426Y-127307897D01*
G37*
G36*
X125954426Y-127307897D02*
X126018014Y-127320545D01*
X126197709Y-127394977D01*
X126359431Y-127503036D01*
X126496964Y-127640569D01*
X126605023Y-127802291D01*
X126679455Y-127981986D01*
X126717400Y-128172750D01*
X126717400Y-128367250D01*
X126679455Y-128558014D01*
X126605023Y-128737709D01*
X126496964Y-128899431D01*
X126359431Y-129036964D01*
X126197709Y-129145023D01*
X126018014Y-129219455D01*
X125954426Y-129232103D01*
X125827252Y-129257400D01*
X125632748Y-129257400D01*
X125505574Y-129232103D01*
X125441986Y-129219455D01*
X125262291Y-129145023D01*
X125100569Y-129036964D01*
X124963036Y-128899431D01*
X124854977Y-128737709D01*
X124780545Y-128558014D01*
X124742600Y-128367250D01*
X124742600Y-128172750D01*
X124780545Y-127981986D01*
X124854977Y-127802291D01*
X124963036Y-127640569D01*
X125100569Y-127503036D01*
X125262291Y-127394977D01*
X125441986Y-127320545D01*
X125505574Y-127307897D01*
X125632748Y-127282600D01*
X125827252Y-127282600D01*
X125954426Y-127307897D01*
X125954426Y-127307897D01*
G37*
G36*
X128494426Y-127307897D02*
X128558014Y-127320545D01*
X128737709Y-127394977D01*
X128899431Y-127503036D01*
X129036964Y-127640569D01*
X129145023Y-127802291D01*
X129219455Y-127981986D01*
X129257400Y-128172750D01*
X129257400Y-128367250D01*
X129219455Y-128558014D01*
X129145023Y-128737709D01*
X129036964Y-128899431D01*
X128899431Y-129036964D01*
X128737709Y-129145023D01*
X128558014Y-129219455D01*
X128494426Y-129232103D01*
X128367252Y-129257400D01*
X128172748Y-129257400D01*
X128045574Y-129232103D01*
X127981986Y-129219455D01*
X127802291Y-129145023D01*
X127640569Y-129036964D01*
X127503036Y-128899431D01*
X127394977Y-128737709D01*
X127320545Y-128558014D01*
X127282600Y-128367250D01*
X127282600Y-128172750D01*
X127320545Y-127981986D01*
X127394977Y-127802291D01*
X127503036Y-127640569D01*
X127640569Y-127503036D01*
X127802291Y-127394977D01*
X127981986Y-127320545D01*
X128045574Y-127307897D01*
X128172748Y-127282600D01*
X128367252Y-127282600D01*
X128494426Y-127307897D01*
X128494426Y-127307897D01*
G37*
G36*
X164054426Y-127307897D02*
X164118014Y-127320545D01*
X164297709Y-127394977D01*
X164459431Y-127503036D01*
X164596964Y-127640569D01*
X164705023Y-127802291D01*
X164779455Y-127981986D01*
X164817400Y-128172750D01*
X164817400Y-128367250D01*
X164779455Y-128558014D01*
X164705023Y-128737709D01*
X164596964Y-128899431D01*
X164459431Y-129036964D01*
X164297709Y-129145023D01*
X164118014Y-129219455D01*
X164054426Y-129232103D01*
X163927252Y-129257400D01*
X163732748Y-129257400D01*
X163605574Y-129232103D01*
X163541986Y-129219455D01*
X163362291Y-129145023D01*
X163200569Y-129036964D01*
X163063036Y-128899431D01*
X162954977Y-128737709D01*
X162880545Y-128558014D01*
X162842600Y-128367250D01*
X162842600Y-128172750D01*
X162880545Y-127981986D01*
X162954977Y-127802291D01*
X163063036Y-127640569D01*
X163200569Y-127503036D01*
X163362291Y-127394977D01*
X163541986Y-127320545D01*
X163605574Y-127307897D01*
X163732748Y-127282600D01*
X163927252Y-127282600D01*
X164054426Y-127307897D01*
X164054426Y-127307897D01*
G37*
G36*
X161514426Y-127307897D02*
X161578014Y-127320545D01*
X161757709Y-127394977D01*
X161919431Y-127503036D01*
X162056964Y-127640569D01*
X162165023Y-127802291D01*
X162239455Y-127981986D01*
X162277400Y-128172750D01*
X162277400Y-128367250D01*
X162239455Y-128558014D01*
X162165023Y-128737709D01*
X162056964Y-128899431D01*
X161919431Y-129036964D01*
X161757709Y-129145023D01*
X161578014Y-129219455D01*
X161514426Y-129232103D01*
X161387252Y-129257400D01*
X161192748Y-129257400D01*
X161065574Y-129232103D01*
X161001986Y-129219455D01*
X160822291Y-129145023D01*
X160660569Y-129036964D01*
X160523036Y-128899431D01*
X160414977Y-128737709D01*
X160340545Y-128558014D01*
X160302600Y-128367250D01*
X160302600Y-128172750D01*
X160340545Y-127981986D01*
X160414977Y-127802291D01*
X160523036Y-127640569D01*
X160660569Y-127503036D01*
X160822291Y-127394977D01*
X161001986Y-127320545D01*
X161065574Y-127307897D01*
X161192748Y-127282600D01*
X161387252Y-127282600D01*
X161514426Y-127307897D01*
X161514426Y-127307897D01*
G37*
G36*
X184374426Y-127307897D02*
X184438014Y-127320545D01*
X184617709Y-127394977D01*
X184779431Y-127503036D01*
X184916964Y-127640569D01*
X185025023Y-127802291D01*
X185099455Y-127981986D01*
X185137400Y-128172750D01*
X185137400Y-128367250D01*
X185099455Y-128558014D01*
X185025023Y-128737709D01*
X184916964Y-128899431D01*
X184779431Y-129036964D01*
X184617709Y-129145023D01*
X184438014Y-129219455D01*
X184374426Y-129232103D01*
X184247252Y-129257400D01*
X184052748Y-129257400D01*
X183925574Y-129232103D01*
X183861986Y-129219455D01*
X183682291Y-129145023D01*
X183520569Y-129036964D01*
X183383036Y-128899431D01*
X183274977Y-128737709D01*
X183200545Y-128558014D01*
X183162600Y-128367250D01*
X183162600Y-128172750D01*
X183200545Y-127981986D01*
X183274977Y-127802291D01*
X183383036Y-127640569D01*
X183520569Y-127503036D01*
X183682291Y-127394977D01*
X183861986Y-127320545D01*
X183925574Y-127307897D01*
X184052748Y-127282600D01*
X184247252Y-127282600D01*
X184374426Y-127307897D01*
X184374426Y-127307897D01*
G37*
G36*
X131034426Y-127307897D02*
X131098014Y-127320545D01*
X131277709Y-127394977D01*
X131439431Y-127503036D01*
X131576964Y-127640569D01*
X131685023Y-127802291D01*
X131759455Y-127981986D01*
X131797400Y-128172750D01*
X131797400Y-128367250D01*
X131759455Y-128558014D01*
X131685023Y-128737709D01*
X131576964Y-128899431D01*
X131439431Y-129036964D01*
X131277709Y-129145023D01*
X131098014Y-129219455D01*
X131034426Y-129232103D01*
X130907252Y-129257400D01*
X130712748Y-129257400D01*
X130585574Y-129232103D01*
X130521986Y-129219455D01*
X130342291Y-129145023D01*
X130180569Y-129036964D01*
X130043036Y-128899431D01*
X129934977Y-128737709D01*
X129860545Y-128558014D01*
X129822600Y-128367250D01*
X129822600Y-128172750D01*
X129860545Y-127981986D01*
X129934977Y-127802291D01*
X130043036Y-127640569D01*
X130180569Y-127503036D01*
X130342291Y-127394977D01*
X130521986Y-127320545D01*
X130585574Y-127307897D01*
X130712748Y-127282600D01*
X130907252Y-127282600D01*
X131034426Y-127307897D01*
X131034426Y-127307897D01*
G37*
G36*
X147037400Y-129257400D02*
X145062600Y-129257400D01*
X145062600Y-127282600D01*
X147037400Y-127282600D01*
X147037400Y-129257400D01*
X147037400Y-129257400D01*
G37*
G36*
X181834426Y-127307897D02*
X181898014Y-127320545D01*
X182077709Y-127394977D01*
X182239431Y-127503036D01*
X182376964Y-127640569D01*
X182485023Y-127802291D01*
X182559455Y-127981986D01*
X182597400Y-128172750D01*
X182597400Y-128367250D01*
X182559455Y-128558014D01*
X182485023Y-128737709D01*
X182376964Y-128899431D01*
X182239431Y-129036964D01*
X182077709Y-129145023D01*
X181898014Y-129219455D01*
X181834426Y-129232103D01*
X181707252Y-129257400D01*
X181512748Y-129257400D01*
X181385574Y-129232103D01*
X181321986Y-129219455D01*
X181142291Y-129145023D01*
X180980569Y-129036964D01*
X180843036Y-128899431D01*
X180734977Y-128737709D01*
X180660545Y-128558014D01*
X180622600Y-128367250D01*
X180622600Y-128172750D01*
X180660545Y-127981986D01*
X180734977Y-127802291D01*
X180843036Y-127640569D01*
X180980569Y-127503036D01*
X181142291Y-127394977D01*
X181321986Y-127320545D01*
X181385574Y-127307897D01*
X181512748Y-127282600D01*
X181707252Y-127282600D01*
X181834426Y-127307897D01*
X181834426Y-127307897D01*
G37*
G36*
X180057400Y-129257400D02*
X178082600Y-129257400D01*
X178082600Y-127282600D01*
X180057400Y-127282600D01*
X180057400Y-129257400D01*
X180057400Y-129257400D01*
G37*
G36*
X158974426Y-127307897D02*
X159038014Y-127320545D01*
X159217709Y-127394977D01*
X159379431Y-127503036D01*
X159516964Y-127640569D01*
X159625023Y-127802291D01*
X159699455Y-127981986D01*
X159737400Y-128172750D01*
X159737400Y-128367250D01*
X159699455Y-128558014D01*
X159625023Y-128737709D01*
X159516964Y-128899431D01*
X159379431Y-129036964D01*
X159217709Y-129145023D01*
X159038014Y-129219455D01*
X158974426Y-129232103D01*
X158847252Y-129257400D01*
X158652748Y-129257400D01*
X158525574Y-129232103D01*
X158461986Y-129219455D01*
X158282291Y-129145023D01*
X158120569Y-129036964D01*
X157983036Y-128899431D01*
X157874977Y-128737709D01*
X157800545Y-128558014D01*
X157762600Y-128367250D01*
X157762600Y-128172750D01*
X157800545Y-127981986D01*
X157874977Y-127802291D01*
X157983036Y-127640569D01*
X158120569Y-127503036D01*
X158282291Y-127394977D01*
X158461986Y-127320545D01*
X158525574Y-127307897D01*
X158652748Y-127282600D01*
X158847252Y-127282600D01*
X158974426Y-127307897D01*
X158974426Y-127307897D01*
G37*
G36*
X148814426Y-127307897D02*
X148878014Y-127320545D01*
X149057709Y-127394977D01*
X149219431Y-127503036D01*
X149356964Y-127640569D01*
X149465023Y-127802291D01*
X149539455Y-127981986D01*
X149577400Y-128172750D01*
X149577400Y-128367250D01*
X149539455Y-128558014D01*
X149465023Y-128737709D01*
X149356964Y-128899431D01*
X149219431Y-129036964D01*
X149057709Y-129145023D01*
X148878014Y-129219455D01*
X148814426Y-129232103D01*
X148687252Y-129257400D01*
X148492748Y-129257400D01*
X148365574Y-129232103D01*
X148301986Y-129219455D01*
X148122291Y-129145023D01*
X147960569Y-129036964D01*
X147823036Y-128899431D01*
X147714977Y-128737709D01*
X147640545Y-128558014D01*
X147602600Y-128367250D01*
X147602600Y-128172750D01*
X147640545Y-127981986D01*
X147714977Y-127802291D01*
X147823036Y-127640569D01*
X147960569Y-127503036D01*
X148122291Y-127394977D01*
X148301986Y-127320545D01*
X148365574Y-127307897D01*
X148492748Y-127282600D01*
X148687252Y-127282600D01*
X148814426Y-127307897D01*
X148814426Y-127307897D01*
G37*
G36*
X156434426Y-127307897D02*
X156498014Y-127320545D01*
X156677709Y-127394977D01*
X156839431Y-127503036D01*
X156976964Y-127640569D01*
X157085023Y-127802291D01*
X157159455Y-127981986D01*
X157197400Y-128172750D01*
X157197400Y-128367250D01*
X157159455Y-128558014D01*
X157085023Y-128737709D01*
X156976964Y-128899431D01*
X156839431Y-129036964D01*
X156677709Y-129145023D01*
X156498014Y-129219455D01*
X156434426Y-129232103D01*
X156307252Y-129257400D01*
X156112748Y-129257400D01*
X155985574Y-129232103D01*
X155921986Y-129219455D01*
X155742291Y-129145023D01*
X155580569Y-129036964D01*
X155443036Y-128899431D01*
X155334977Y-128737709D01*
X155260545Y-128558014D01*
X155222600Y-128367250D01*
X155222600Y-128172750D01*
X155260545Y-127981986D01*
X155334977Y-127802291D01*
X155443036Y-127640569D01*
X155580569Y-127503036D01*
X155742291Y-127394977D01*
X155921986Y-127320545D01*
X155985574Y-127307897D01*
X156112748Y-127282600D01*
X156307252Y-127282600D01*
X156434426Y-127307897D01*
X156434426Y-127307897D01*
G37*
G36*
X189454426Y-127307897D02*
X189518014Y-127320545D01*
X189697709Y-127394977D01*
X189859431Y-127503036D01*
X189996964Y-127640569D01*
X190105023Y-127802291D01*
X190179455Y-127981986D01*
X190217400Y-128172750D01*
X190217400Y-128367250D01*
X190179455Y-128558014D01*
X190105023Y-128737709D01*
X189996964Y-128899431D01*
X189859431Y-129036964D01*
X189697709Y-129145023D01*
X189518014Y-129219455D01*
X189454426Y-129232103D01*
X189327252Y-129257400D01*
X189132748Y-129257400D01*
X189005574Y-129232103D01*
X188941986Y-129219455D01*
X188762291Y-129145023D01*
X188600569Y-129036964D01*
X188463036Y-128899431D01*
X188354977Y-128737709D01*
X188280545Y-128558014D01*
X188242600Y-128367250D01*
X188242600Y-128172750D01*
X188280545Y-127981986D01*
X188354977Y-127802291D01*
X188463036Y-127640569D01*
X188600569Y-127503036D01*
X188762291Y-127394977D01*
X188941986Y-127320545D01*
X189005574Y-127307897D01*
X189132748Y-127282600D01*
X189327252Y-127282600D01*
X189454426Y-127307897D01*
X189454426Y-127307897D01*
G37*
G36*
X153894426Y-127307897D02*
X153958014Y-127320545D01*
X154137709Y-127394977D01*
X154299431Y-127503036D01*
X154436964Y-127640569D01*
X154545023Y-127802291D01*
X154619455Y-127981986D01*
X154657400Y-128172750D01*
X154657400Y-128367250D01*
X154619455Y-128558014D01*
X154545023Y-128737709D01*
X154436964Y-128899431D01*
X154299431Y-129036964D01*
X154137709Y-129145023D01*
X153958014Y-129219455D01*
X153894426Y-129232103D01*
X153767252Y-129257400D01*
X153572748Y-129257400D01*
X153445574Y-129232103D01*
X153381986Y-129219455D01*
X153202291Y-129145023D01*
X153040569Y-129036964D01*
X152903036Y-128899431D01*
X152794977Y-128737709D01*
X152720545Y-128558014D01*
X152682600Y-128367250D01*
X152682600Y-128172750D01*
X152720545Y-127981986D01*
X152794977Y-127802291D01*
X152903036Y-127640569D01*
X153040569Y-127503036D01*
X153202291Y-127394977D01*
X153381986Y-127320545D01*
X153445574Y-127307897D01*
X153572748Y-127282600D01*
X153767252Y-127282600D01*
X153894426Y-127307897D01*
X153894426Y-127307897D01*
G37*
G36*
X186914426Y-127307897D02*
X186978014Y-127320545D01*
X187157709Y-127394977D01*
X187319431Y-127503036D01*
X187456964Y-127640569D01*
X187565023Y-127802291D01*
X187639455Y-127981986D01*
X187677400Y-128172750D01*
X187677400Y-128367250D01*
X187639455Y-128558014D01*
X187565023Y-128737709D01*
X187456964Y-128899431D01*
X187319431Y-129036964D01*
X187157709Y-129145023D01*
X186978014Y-129219455D01*
X186914426Y-129232103D01*
X186787252Y-129257400D01*
X186592748Y-129257400D01*
X186465574Y-129232103D01*
X186401986Y-129219455D01*
X186222291Y-129145023D01*
X186060569Y-129036964D01*
X185923036Y-128899431D01*
X185814977Y-128737709D01*
X185740545Y-128558014D01*
X185702600Y-128367250D01*
X185702600Y-128172750D01*
X185740545Y-127981986D01*
X185814977Y-127802291D01*
X185923036Y-127640569D01*
X186060569Y-127503036D01*
X186222291Y-127394977D01*
X186401986Y-127320545D01*
X186465574Y-127307897D01*
X186592748Y-127282600D01*
X186787252Y-127282600D01*
X186914426Y-127307897D01*
X186914426Y-127307897D01*
G37*
G36*
X151354426Y-127307897D02*
X151418014Y-127320545D01*
X151597709Y-127394977D01*
X151759431Y-127503036D01*
X151896964Y-127640569D01*
X152005023Y-127802291D01*
X152079455Y-127981986D01*
X152117400Y-128172750D01*
X152117400Y-128367250D01*
X152079455Y-128558014D01*
X152005023Y-128737709D01*
X151896964Y-128899431D01*
X151759431Y-129036964D01*
X151597709Y-129145023D01*
X151418014Y-129219455D01*
X151354426Y-129232103D01*
X151227252Y-129257400D01*
X151032748Y-129257400D01*
X150905574Y-129232103D01*
X150841986Y-129219455D01*
X150662291Y-129145023D01*
X150500569Y-129036964D01*
X150363036Y-128899431D01*
X150254977Y-128737709D01*
X150180545Y-128558014D01*
X150142600Y-128367250D01*
X150142600Y-128172750D01*
X150180545Y-127981986D01*
X150254977Y-127802291D01*
X150363036Y-127640569D01*
X150500569Y-127503036D01*
X150662291Y-127394977D01*
X150841986Y-127320545D01*
X150905574Y-127307897D01*
X151032748Y-127282600D01*
X151227252Y-127282600D01*
X151354426Y-127307897D01*
X151354426Y-127307897D01*
G37*
G36*
X146274426Y-124767897D02*
X146338014Y-124780545D01*
X146517709Y-124854977D01*
X146679431Y-124963036D01*
X146816964Y-125100569D01*
X146925023Y-125262291D01*
X146999455Y-125441986D01*
X147037400Y-125632750D01*
X147037400Y-125827250D01*
X146999455Y-126018014D01*
X146925023Y-126197709D01*
X146816964Y-126359431D01*
X146679431Y-126496964D01*
X146517709Y-126605023D01*
X146338014Y-126679455D01*
X146274426Y-126692103D01*
X146147252Y-126717400D01*
X145952748Y-126717400D01*
X145825574Y-126692103D01*
X145761986Y-126679455D01*
X145582291Y-126605023D01*
X145420569Y-126496964D01*
X145283036Y-126359431D01*
X145174977Y-126197709D01*
X145100545Y-126018014D01*
X145062600Y-125827250D01*
X145062600Y-125632750D01*
X145100545Y-125441986D01*
X145174977Y-125262291D01*
X145283036Y-125100569D01*
X145420569Y-124963036D01*
X145582291Y-124854977D01*
X145761986Y-124780545D01*
X145825574Y-124767897D01*
X145952748Y-124742600D01*
X146147252Y-124742600D01*
X146274426Y-124767897D01*
X146274426Y-124767897D01*
G37*
G36*
X179294426Y-124767897D02*
X179358014Y-124780545D01*
X179537709Y-124854977D01*
X179699431Y-124963036D01*
X179836964Y-125100569D01*
X179945023Y-125262291D01*
X180019455Y-125441986D01*
X180057400Y-125632750D01*
X180057400Y-125827250D01*
X180019455Y-126018014D01*
X179945023Y-126197709D01*
X179836964Y-126359431D01*
X179699431Y-126496964D01*
X179537709Y-126605023D01*
X179358014Y-126679455D01*
X179294426Y-126692103D01*
X179167252Y-126717400D01*
X178972748Y-126717400D01*
X178845574Y-126692103D01*
X178781986Y-126679455D01*
X178602291Y-126605023D01*
X178440569Y-126496964D01*
X178303036Y-126359431D01*
X178194977Y-126197709D01*
X178120545Y-126018014D01*
X178082600Y-125827250D01*
X178082600Y-125632750D01*
X178120545Y-125441986D01*
X178194977Y-125262291D01*
X178303036Y-125100569D01*
X178440569Y-124963036D01*
X178602291Y-124854977D01*
X178781986Y-124780545D01*
X178845574Y-124767897D01*
X178972748Y-124742600D01*
X179167252Y-124742600D01*
X179294426Y-124767897D01*
X179294426Y-124767897D01*
G37*
G36*
X181834426Y-124767897D02*
X181898014Y-124780545D01*
X182077709Y-124854977D01*
X182239431Y-124963036D01*
X182376964Y-125100569D01*
X182485023Y-125262291D01*
X182559455Y-125441986D01*
X182597400Y-125632750D01*
X182597400Y-125827250D01*
X182559455Y-126018014D01*
X182485023Y-126197709D01*
X182376964Y-126359431D01*
X182239431Y-126496964D01*
X182077709Y-126605023D01*
X181898014Y-126679455D01*
X181834426Y-126692103D01*
X181707252Y-126717400D01*
X181512748Y-126717400D01*
X181385574Y-126692103D01*
X181321986Y-126679455D01*
X181142291Y-126605023D01*
X180980569Y-126496964D01*
X180843036Y-126359431D01*
X180734977Y-126197709D01*
X180660545Y-126018014D01*
X180622600Y-125827250D01*
X180622600Y-125632750D01*
X180660545Y-125441986D01*
X180734977Y-125262291D01*
X180843036Y-125100569D01*
X180980569Y-124963036D01*
X181142291Y-124854977D01*
X181321986Y-124780545D01*
X181385574Y-124767897D01*
X181512748Y-124742600D01*
X181707252Y-124742600D01*
X181834426Y-124767897D01*
X181834426Y-124767897D01*
G37*
G36*
X184374426Y-124767897D02*
X184438014Y-124780545D01*
X184617709Y-124854977D01*
X184779431Y-124963036D01*
X184916964Y-125100569D01*
X185025023Y-125262291D01*
X185099455Y-125441986D01*
X185137400Y-125632750D01*
X185137400Y-125827250D01*
X185099455Y-126018014D01*
X185025023Y-126197709D01*
X184916964Y-126359431D01*
X184779431Y-126496964D01*
X184617709Y-126605023D01*
X184438014Y-126679455D01*
X184374426Y-126692103D01*
X184247252Y-126717400D01*
X184052748Y-126717400D01*
X183925574Y-126692103D01*
X183861986Y-126679455D01*
X183682291Y-126605023D01*
X183520569Y-126496964D01*
X183383036Y-126359431D01*
X183274977Y-126197709D01*
X183200545Y-126018014D01*
X183162600Y-125827250D01*
X183162600Y-125632750D01*
X183200545Y-125441986D01*
X183274977Y-125262291D01*
X183383036Y-125100569D01*
X183520569Y-124963036D01*
X183682291Y-124854977D01*
X183861986Y-124780545D01*
X183925574Y-124767897D01*
X184052748Y-124742600D01*
X184247252Y-124742600D01*
X184374426Y-124767897D01*
X184374426Y-124767897D01*
G37*
G36*
X186914426Y-124767897D02*
X186978014Y-124780545D01*
X187157709Y-124854977D01*
X187319431Y-124963036D01*
X187456964Y-125100569D01*
X187565023Y-125262291D01*
X187639455Y-125441986D01*
X187677400Y-125632750D01*
X187677400Y-125827250D01*
X187639455Y-126018014D01*
X187565023Y-126197709D01*
X187456964Y-126359431D01*
X187319431Y-126496964D01*
X187157709Y-126605023D01*
X186978014Y-126679455D01*
X186914426Y-126692103D01*
X186787252Y-126717400D01*
X186592748Y-126717400D01*
X186465574Y-126692103D01*
X186401986Y-126679455D01*
X186222291Y-126605023D01*
X186060569Y-126496964D01*
X185923036Y-126359431D01*
X185814977Y-126197709D01*
X185740545Y-126018014D01*
X185702600Y-125827250D01*
X185702600Y-125632750D01*
X185740545Y-125441986D01*
X185814977Y-125262291D01*
X185923036Y-125100569D01*
X186060569Y-124963036D01*
X186222291Y-124854977D01*
X186401986Y-124780545D01*
X186465574Y-124767897D01*
X186592748Y-124742600D01*
X186787252Y-124742600D01*
X186914426Y-124767897D01*
X186914426Y-124767897D01*
G37*
G36*
X189454426Y-124767897D02*
X189518014Y-124780545D01*
X189697709Y-124854977D01*
X189859431Y-124963036D01*
X189996964Y-125100569D01*
X190105023Y-125262291D01*
X190179455Y-125441986D01*
X190217400Y-125632750D01*
X190217400Y-125827250D01*
X190179455Y-126018014D01*
X190105023Y-126197709D01*
X189996964Y-126359431D01*
X189859431Y-126496964D01*
X189697709Y-126605023D01*
X189518014Y-126679455D01*
X189454426Y-126692103D01*
X189327252Y-126717400D01*
X189132748Y-126717400D01*
X189005574Y-126692103D01*
X188941986Y-126679455D01*
X188762291Y-126605023D01*
X188600569Y-126496964D01*
X188463036Y-126359431D01*
X188354977Y-126197709D01*
X188280545Y-126018014D01*
X188242600Y-125827250D01*
X188242600Y-125632750D01*
X188280545Y-125441986D01*
X188354977Y-125262291D01*
X188463036Y-125100569D01*
X188600569Y-124963036D01*
X188762291Y-124854977D01*
X188941986Y-124780545D01*
X189005574Y-124767897D01*
X189132748Y-124742600D01*
X189327252Y-124742600D01*
X189454426Y-124767897D01*
X189454426Y-124767897D01*
G37*
G36*
X158974426Y-124767897D02*
X159038014Y-124780545D01*
X159217709Y-124854977D01*
X159379431Y-124963036D01*
X159516964Y-125100569D01*
X159625023Y-125262291D01*
X159699455Y-125441986D01*
X159737400Y-125632750D01*
X159737400Y-125827250D01*
X159699455Y-126018014D01*
X159625023Y-126197709D01*
X159516964Y-126359431D01*
X159379431Y-126496964D01*
X159217709Y-126605023D01*
X159038014Y-126679455D01*
X158974426Y-126692103D01*
X158847252Y-126717400D01*
X158652748Y-126717400D01*
X158525574Y-126692103D01*
X158461986Y-126679455D01*
X158282291Y-126605023D01*
X158120569Y-126496964D01*
X157983036Y-126359431D01*
X157874977Y-126197709D01*
X157800545Y-126018014D01*
X157762600Y-125827250D01*
X157762600Y-125632750D01*
X157800545Y-125441986D01*
X157874977Y-125262291D01*
X157983036Y-125100569D01*
X158120569Y-124963036D01*
X158282291Y-124854977D01*
X158461986Y-124780545D01*
X158525574Y-124767897D01*
X158652748Y-124742600D01*
X158847252Y-124742600D01*
X158974426Y-124767897D01*
X158974426Y-124767897D01*
G37*
G36*
X161514426Y-124767897D02*
X161578014Y-124780545D01*
X161757709Y-124854977D01*
X161919431Y-124963036D01*
X162056964Y-125100569D01*
X162165023Y-125262291D01*
X162239455Y-125441986D01*
X162277400Y-125632750D01*
X162277400Y-125827250D01*
X162239455Y-126018014D01*
X162165023Y-126197709D01*
X162056964Y-126359431D01*
X161919431Y-126496964D01*
X161757709Y-126605023D01*
X161578014Y-126679455D01*
X161514426Y-126692103D01*
X161387252Y-126717400D01*
X161192748Y-126717400D01*
X161065574Y-126692103D01*
X161001986Y-126679455D01*
X160822291Y-126605023D01*
X160660569Y-126496964D01*
X160523036Y-126359431D01*
X160414977Y-126197709D01*
X160340545Y-126018014D01*
X160302600Y-125827250D01*
X160302600Y-125632750D01*
X160340545Y-125441986D01*
X160414977Y-125262291D01*
X160523036Y-125100569D01*
X160660569Y-124963036D01*
X160822291Y-124854977D01*
X161001986Y-124780545D01*
X161065574Y-124767897D01*
X161192748Y-124742600D01*
X161387252Y-124742600D01*
X161514426Y-124767897D01*
X161514426Y-124767897D01*
G37*
G36*
X156434426Y-124767897D02*
X156498014Y-124780545D01*
X156677709Y-124854977D01*
X156839431Y-124963036D01*
X156976964Y-125100569D01*
X157085023Y-125262291D01*
X157159455Y-125441986D01*
X157197400Y-125632750D01*
X157197400Y-125827250D01*
X157159455Y-126018014D01*
X157085023Y-126197709D01*
X156976964Y-126359431D01*
X156839431Y-126496964D01*
X156677709Y-126605023D01*
X156498014Y-126679455D01*
X156434426Y-126692103D01*
X156307252Y-126717400D01*
X156112748Y-126717400D01*
X155985574Y-126692103D01*
X155921986Y-126679455D01*
X155742291Y-126605023D01*
X155580569Y-126496964D01*
X155443036Y-126359431D01*
X155334977Y-126197709D01*
X155260545Y-126018014D01*
X155222600Y-125827250D01*
X155222600Y-125632750D01*
X155260545Y-125441986D01*
X155334977Y-125262291D01*
X155443036Y-125100569D01*
X155580569Y-124963036D01*
X155742291Y-124854977D01*
X155921986Y-124780545D01*
X155985574Y-124767897D01*
X156112748Y-124742600D01*
X156307252Y-124742600D01*
X156434426Y-124767897D01*
X156434426Y-124767897D01*
G37*
G36*
X164054426Y-124767897D02*
X164118014Y-124780545D01*
X164297709Y-124854977D01*
X164459431Y-124963036D01*
X164596964Y-125100569D01*
X164705023Y-125262291D01*
X164779455Y-125441986D01*
X164817400Y-125632750D01*
X164817400Y-125827250D01*
X164779455Y-126018014D01*
X164705023Y-126197709D01*
X164596964Y-126359431D01*
X164459431Y-126496964D01*
X164297709Y-126605023D01*
X164118014Y-126679455D01*
X164054426Y-126692103D01*
X163927252Y-126717400D01*
X163732748Y-126717400D01*
X163605574Y-126692103D01*
X163541986Y-126679455D01*
X163362291Y-126605023D01*
X163200569Y-126496964D01*
X163063036Y-126359431D01*
X162954977Y-126197709D01*
X162880545Y-126018014D01*
X162842600Y-125827250D01*
X162842600Y-125632750D01*
X162880545Y-125441986D01*
X162954977Y-125262291D01*
X163063036Y-125100569D01*
X163200569Y-124963036D01*
X163362291Y-124854977D01*
X163541986Y-124780545D01*
X163605574Y-124767897D01*
X163732748Y-124742600D01*
X163927252Y-124742600D01*
X164054426Y-124767897D01*
X164054426Y-124767897D01*
G37*
G36*
X120874426Y-124767897D02*
X120938014Y-124780545D01*
X121117709Y-124854977D01*
X121279431Y-124963036D01*
X121416964Y-125100569D01*
X121525023Y-125262291D01*
X121599455Y-125441986D01*
X121637400Y-125632750D01*
X121637400Y-125827250D01*
X121599455Y-126018014D01*
X121525023Y-126197709D01*
X121416964Y-126359431D01*
X121279431Y-126496964D01*
X121117709Y-126605023D01*
X120938014Y-126679455D01*
X120874426Y-126692103D01*
X120747252Y-126717400D01*
X120552748Y-126717400D01*
X120425574Y-126692103D01*
X120361986Y-126679455D01*
X120182291Y-126605023D01*
X120020569Y-126496964D01*
X119883036Y-126359431D01*
X119774977Y-126197709D01*
X119700545Y-126018014D01*
X119662600Y-125827250D01*
X119662600Y-125632750D01*
X119700545Y-125441986D01*
X119774977Y-125262291D01*
X119883036Y-125100569D01*
X120020569Y-124963036D01*
X120182291Y-124854977D01*
X120361986Y-124780545D01*
X120425574Y-124767897D01*
X120552748Y-124742600D01*
X120747252Y-124742600D01*
X120874426Y-124767897D01*
X120874426Y-124767897D01*
G37*
G36*
X123414426Y-124767897D02*
X123478014Y-124780545D01*
X123657709Y-124854977D01*
X123819431Y-124963036D01*
X123956964Y-125100569D01*
X124065023Y-125262291D01*
X124139455Y-125441986D01*
X124177400Y-125632750D01*
X124177400Y-125827250D01*
X124139455Y-126018014D01*
X124065023Y-126197709D01*
X123956964Y-126359431D01*
X123819431Y-126496964D01*
X123657709Y-126605023D01*
X123478014Y-126679455D01*
X123414426Y-126692103D01*
X123287252Y-126717400D01*
X123092748Y-126717400D01*
X122965574Y-126692103D01*
X122901986Y-126679455D01*
X122722291Y-126605023D01*
X122560569Y-126496964D01*
X122423036Y-126359431D01*
X122314977Y-126197709D01*
X122240545Y-126018014D01*
X122202600Y-125827250D01*
X122202600Y-125632750D01*
X122240545Y-125441986D01*
X122314977Y-125262291D01*
X122423036Y-125100569D01*
X122560569Y-124963036D01*
X122722291Y-124854977D01*
X122901986Y-124780545D01*
X122965574Y-124767897D01*
X123092748Y-124742600D01*
X123287252Y-124742600D01*
X123414426Y-124767897D01*
X123414426Y-124767897D01*
G37*
G36*
X125954426Y-124767897D02*
X126018014Y-124780545D01*
X126197709Y-124854977D01*
X126359431Y-124963036D01*
X126496964Y-125100569D01*
X126605023Y-125262291D01*
X126679455Y-125441986D01*
X126717400Y-125632750D01*
X126717400Y-125827250D01*
X126679455Y-126018014D01*
X126605023Y-126197709D01*
X126496964Y-126359431D01*
X126359431Y-126496964D01*
X126197709Y-126605023D01*
X126018014Y-126679455D01*
X125954426Y-126692103D01*
X125827252Y-126717400D01*
X125632748Y-126717400D01*
X125505574Y-126692103D01*
X125441986Y-126679455D01*
X125262291Y-126605023D01*
X125100569Y-126496964D01*
X124963036Y-126359431D01*
X124854977Y-126197709D01*
X124780545Y-126018014D01*
X124742600Y-125827250D01*
X124742600Y-125632750D01*
X124780545Y-125441986D01*
X124854977Y-125262291D01*
X124963036Y-125100569D01*
X125100569Y-124963036D01*
X125262291Y-124854977D01*
X125441986Y-124780545D01*
X125505574Y-124767897D01*
X125632748Y-124742600D01*
X125827252Y-124742600D01*
X125954426Y-124767897D01*
X125954426Y-124767897D01*
G37*
G36*
X128494426Y-124767897D02*
X128558014Y-124780545D01*
X128737709Y-124854977D01*
X128899431Y-124963036D01*
X129036964Y-125100569D01*
X129145023Y-125262291D01*
X129219455Y-125441986D01*
X129257400Y-125632750D01*
X129257400Y-125827250D01*
X129219455Y-126018014D01*
X129145023Y-126197709D01*
X129036964Y-126359431D01*
X128899431Y-126496964D01*
X128737709Y-126605023D01*
X128558014Y-126679455D01*
X128494426Y-126692103D01*
X128367252Y-126717400D01*
X128172748Y-126717400D01*
X128045574Y-126692103D01*
X127981986Y-126679455D01*
X127802291Y-126605023D01*
X127640569Y-126496964D01*
X127503036Y-126359431D01*
X127394977Y-126197709D01*
X127320545Y-126018014D01*
X127282600Y-125827250D01*
X127282600Y-125632750D01*
X127320545Y-125441986D01*
X127394977Y-125262291D01*
X127503036Y-125100569D01*
X127640569Y-124963036D01*
X127802291Y-124854977D01*
X127981986Y-124780545D01*
X128045574Y-124767897D01*
X128172748Y-124742600D01*
X128367252Y-124742600D01*
X128494426Y-124767897D01*
X128494426Y-124767897D01*
G37*
G36*
X153894426Y-124767897D02*
X153958014Y-124780545D01*
X154137709Y-124854977D01*
X154299431Y-124963036D01*
X154436964Y-125100569D01*
X154545023Y-125262291D01*
X154619455Y-125441986D01*
X154657400Y-125632750D01*
X154657400Y-125827250D01*
X154619455Y-126018014D01*
X154545023Y-126197709D01*
X154436964Y-126359431D01*
X154299431Y-126496964D01*
X154137709Y-126605023D01*
X153958014Y-126679455D01*
X153894426Y-126692103D01*
X153767252Y-126717400D01*
X153572748Y-126717400D01*
X153445574Y-126692103D01*
X153381986Y-126679455D01*
X153202291Y-126605023D01*
X153040569Y-126496964D01*
X152903036Y-126359431D01*
X152794977Y-126197709D01*
X152720545Y-126018014D01*
X152682600Y-125827250D01*
X152682600Y-125632750D01*
X152720545Y-125441986D01*
X152794977Y-125262291D01*
X152903036Y-125100569D01*
X153040569Y-124963036D01*
X153202291Y-124854977D01*
X153381986Y-124780545D01*
X153445574Y-124767897D01*
X153572748Y-124742600D01*
X153767252Y-124742600D01*
X153894426Y-124767897D01*
X153894426Y-124767897D01*
G37*
G36*
X148814426Y-124767897D02*
X148878014Y-124780545D01*
X149057709Y-124854977D01*
X149219431Y-124963036D01*
X149356964Y-125100569D01*
X149465023Y-125262291D01*
X149539455Y-125441986D01*
X149577400Y-125632750D01*
X149577400Y-125827250D01*
X149539455Y-126018014D01*
X149465023Y-126197709D01*
X149356964Y-126359431D01*
X149219431Y-126496964D01*
X149057709Y-126605023D01*
X148878014Y-126679455D01*
X148814426Y-126692103D01*
X148687252Y-126717400D01*
X148492748Y-126717400D01*
X148365574Y-126692103D01*
X148301986Y-126679455D01*
X148122291Y-126605023D01*
X147960569Y-126496964D01*
X147823036Y-126359431D01*
X147714977Y-126197709D01*
X147640545Y-126018014D01*
X147602600Y-125827250D01*
X147602600Y-125632750D01*
X147640545Y-125441986D01*
X147714977Y-125262291D01*
X147823036Y-125100569D01*
X147960569Y-124963036D01*
X148122291Y-124854977D01*
X148301986Y-124780545D01*
X148365574Y-124767897D01*
X148492748Y-124742600D01*
X148687252Y-124742600D01*
X148814426Y-124767897D01*
X148814426Y-124767897D01*
G37*
G36*
X151354426Y-124767897D02*
X151418014Y-124780545D01*
X151597709Y-124854977D01*
X151759431Y-124963036D01*
X151896964Y-125100569D01*
X152005023Y-125262291D01*
X152079455Y-125441986D01*
X152117400Y-125632750D01*
X152117400Y-125827250D01*
X152079455Y-126018014D01*
X152005023Y-126197709D01*
X151896964Y-126359431D01*
X151759431Y-126496964D01*
X151597709Y-126605023D01*
X151418014Y-126679455D01*
X151354426Y-126692103D01*
X151227252Y-126717400D01*
X151032748Y-126717400D01*
X150905574Y-126692103D01*
X150841986Y-126679455D01*
X150662291Y-126605023D01*
X150500569Y-126496964D01*
X150363036Y-126359431D01*
X150254977Y-126197709D01*
X150180545Y-126018014D01*
X150142600Y-125827250D01*
X150142600Y-125632750D01*
X150180545Y-125441986D01*
X150254977Y-125262291D01*
X150363036Y-125100569D01*
X150500569Y-124963036D01*
X150662291Y-124854977D01*
X150841986Y-124780545D01*
X150905574Y-124767897D01*
X151032748Y-124742600D01*
X151227252Y-124742600D01*
X151354426Y-124767897D01*
X151354426Y-124767897D01*
G37*
G36*
X131034426Y-124767897D02*
X131098014Y-124780545D01*
X131277709Y-124854977D01*
X131439431Y-124963036D01*
X131576964Y-125100569D01*
X131685023Y-125262291D01*
X131759455Y-125441986D01*
X131797400Y-125632750D01*
X131797400Y-125827250D01*
X131759455Y-126018014D01*
X131685023Y-126197709D01*
X131576964Y-126359431D01*
X131439431Y-126496964D01*
X131277709Y-126605023D01*
X131098014Y-126679455D01*
X131034426Y-126692103D01*
X130907252Y-126717400D01*
X130712748Y-126717400D01*
X130585574Y-126692103D01*
X130521986Y-126679455D01*
X130342291Y-126605023D01*
X130180569Y-126496964D01*
X130043036Y-126359431D01*
X129934977Y-126197709D01*
X129860545Y-126018014D01*
X129822600Y-125827250D01*
X129822600Y-125632750D01*
X129860545Y-125441986D01*
X129934977Y-125262291D01*
X130043036Y-125100569D01*
X130180569Y-124963036D01*
X130342291Y-124854977D01*
X130521986Y-124780545D01*
X130585574Y-124767897D01*
X130712748Y-124742600D01*
X130907252Y-124742600D01*
X131034426Y-124767897D01*
X131034426Y-124767897D01*
G37*
M02*
