*%FSLAX23Y23*%
*%MOIN*%
G01*
%ADD11C,0.006*%
%ADD12C,0.007*%
%ADD13C,0.008*%
%ADD14C,0.010*%
%ADD15C,0.012*%
%ADD16C,0.020*%
%ADD17C,0.030*%
%ADD18C,0.032*%
%ADD19C,0.036*%
%ADD20C,0.040*%
%ADD21C,0.050*%
%ADD22C,0.052*%
%ADD23C,0.055*%
%ADD24C,0.056*%
%ADD25C,0.059*%
%ADD26C,0.062*%
%ADD27C,0.066*%
%ADD28C,0.070*%
%ADD29C,0.090*%
%ADD30C,0.120*%
%ADD31C,0.125*%
%ADD32C,0.129*%
%ADD33C,0.140*%
%ADD34C,0.160*%
%ADD35C,0.250*%
%ADD36C,0.250*%
%ADD37R,0.062X0.062*%
%ADD38R,0.066X0.066*%
%ADD39R,0.075X0.075*%
%ADD40R,0.079X0.079*%
%ADD41R,0.250X0.250*%
D14*
X8446Y10497D02*
X8479D01*
X8463D01*
Y10597D01*
X8464D01*
X8463D02*
X8446Y10580D01*
X8529D02*
X8546Y10597D01*
X8579D01*
X8596Y10580D01*
Y10514D01*
X8579Y10497D01*
X8546D01*
X8529Y10514D01*
Y10580D01*
X8629D02*
X8646Y10597D01*
X8679D01*
X8696Y10580D01*
Y10514D01*
X8679Y10497D01*
X8646D01*
X8629Y10514D01*
Y10580D01*
X8729Y10547D02*
X8796D01*
X8829Y10497D02*
X8863D01*
X8846D01*
Y10597D01*
X8847D01*
X8846D02*
X8829Y10580D01*
X8913D02*
X8929Y10597D01*
X8962D01*
X8979Y10580D01*
Y10514D01*
X8962Y10497D01*
X8929D01*
X8913Y10514D01*
Y10580D01*
X9012Y10497D02*
X9046D01*
X9029D01*
Y10597D01*
X9030D01*
X9029D02*
X9012Y10580D01*
X9096D02*
X9112Y10597D01*
X9146D01*
X9162Y10580D01*
Y10564D01*
X9163D01*
X9162D02*
X9163D01*
X9162D02*
X9163D01*
X9162D02*
X9146Y10547D01*
X9129D01*
X9146D01*
X9162Y10530D01*
Y10514D01*
X9146Y10497D01*
X9112D01*
X9096Y10514D01*
X9196Y10547D02*
X9262D01*
X9296Y10580D02*
X9312Y10597D01*
X9346D01*
X9362Y10580D01*
Y10514D01*
X9346Y10497D01*
X9312D01*
X9296Y10514D01*
Y10580D01*
X9396Y10497D02*
X9462D01*
X9396D02*
X9462Y10564D01*
Y10580D01*
X9446Y10597D01*
X9412D01*
X9396Y10580D01*
X9596Y10597D02*
Y10497D01*
Y10597D02*
X9646D01*
X9662Y10580D01*
Y10547D01*
X9646Y10530D01*
X9596D01*
X9629D02*
X9662Y10497D01*
X9696Y10597D02*
X9762D01*
X9696D02*
Y10497D01*
X9762D01*
X9729Y10547D02*
X9696D01*
X9796Y10530D02*
Y10597D01*
Y10530D02*
X9829Y10497D01*
X9862Y10530D01*
Y10597D01*
X9995D02*
Y10497D01*
X10062D02*
X9995Y10597D01*
X10062D02*
Y10497D01*
X10162Y10580D02*
X10145Y10597D01*
X10112D01*
X10095Y10580D01*
Y10514D01*
X10112Y10497D01*
X10145D01*
X10162Y10514D01*
X10345Y10597D02*
X10362Y10580D01*
X10345Y10597D02*
X10312D01*
X10295Y10580D01*
Y10514D01*
X10312Y10497D01*
X10345D01*
X10362Y10514D01*
X10412Y10597D02*
X10445D01*
X10412D02*
X10395Y10580D01*
Y10514D01*
X10412Y10497D01*
X10445D01*
X10462Y10514D01*
Y10580D01*
X10445Y10597D01*
X10495D02*
Y10497D01*
X10529Y10564D02*
X10495Y10597D01*
X10529Y10564D02*
X10562Y10597D01*
Y10497D01*
X10595D02*
Y10597D01*
X10645D01*
X10662Y10580D01*
Y10547D01*
X10645Y10530D01*
X10595D01*
X10712Y10597D02*
X10745D01*
X10712D02*
X10695Y10580D01*
Y10514D01*
X10712Y10497D01*
X10745D01*
X10762Y10514D01*
Y10580D01*
X10745Y10597D01*
X10795D02*
Y10497D01*
X10862D02*
X10795Y10597D01*
X10862D02*
Y10497D01*
X10895Y10597D02*
X10962D01*
X10895D02*
Y10497D01*
X10962D01*
X10929Y10547D02*
X10895D01*
X10995Y10497D02*
Y10597D01*
X11062Y10497D01*
Y10597D01*
X11095D02*
X11162D01*
X11128D01*
Y10497D01*
X11345Y10597D02*
X11362Y10580D01*
X11345Y10597D02*
X11312D01*
X11295Y10580D01*
Y10564D01*
X11312Y10547D01*
X11345D01*
X11362Y10530D01*
Y10514D01*
X11345Y10497D01*
X11312D01*
X11295Y10514D01*
X11395Y10597D02*
X11428D01*
X11412D01*
Y10497D01*
X11395D01*
X11428D01*
X11478D02*
Y10597D01*
Y10497D02*
X11528D01*
X11545Y10514D01*
Y10580D01*
X11528Y10597D01*
X11478D01*
X11578D02*
X11645D01*
X11578D02*
Y10497D01*
X11645D01*
X11612Y10547D02*
X11578D01*
X13311Y5877D02*
X13331D01*
X13321D01*
Y5937D01*
X13322D01*
X13321D02*
X13311Y5927D01*
X13361D02*
X13371Y5937D01*
X13391D01*
X13401Y5927D01*
Y5887D01*
X13391Y5877D01*
X13371D01*
X13361Y5887D01*
Y5927D01*
X13421D02*
X13431Y5937D01*
X13451D01*
X13461Y5927D01*
Y5887D01*
X13451Y5877D01*
X13431D01*
X13421Y5887D01*
Y5927D01*
X13481Y5907D02*
X13521D01*
X13541Y5877D02*
X13561D01*
X13551D01*
Y5937D01*
X13552D01*
X13551D02*
X13541Y5927D01*
X13591D02*
X13601Y5937D01*
X13621D01*
X13631Y5927D01*
Y5887D01*
X13621Y5877D01*
X13601D01*
X13591Y5887D01*
Y5927D01*
X13651Y5877D02*
X13671D01*
X13661D01*
Y5937D01*
X13662D01*
X13661D02*
X13651Y5927D01*
X13701D02*
X13711Y5937D01*
X13731D01*
X13741Y5927D01*
Y5917D01*
X13742D01*
X13741D02*
X13742D01*
X13741D02*
X13742D01*
X13741D02*
X13731Y5907D01*
X13721D01*
X13731D01*
X13741Y5897D01*
Y5887D01*
X13731Y5877D01*
X13711D01*
X13701Y5887D01*
X13861Y5402D02*
X4361D01*
X13861D02*
Y10402D01*
X4361D01*
Y5402D01*
D15*
X9611Y7502D02*
X9736Y7627D01*
X6286Y9602D02*
X6136Y9452D01*
X6861Y10052D02*
X7036Y10227D01*
X6961Y10252D02*
X6761Y10052D01*
X12061Y10002D02*
X12186Y10127D01*
X12011Y7602D02*
X11811Y7402D01*
X7736Y9552D02*
X7611Y9427D01*
X7661Y9302D02*
X7811Y9452D01*
X9786Y9652D02*
X9911Y9777D01*
X9561Y10052D02*
X9761Y10252D01*
X13061Y6302D02*
X12836Y6077D01*
X12561D02*
X12436Y5952D01*
X11711Y7952D02*
X11861Y8102D01*
X6911Y7852D02*
X6736Y7677D01*
X6686Y7727D02*
X6811Y7852D01*
X13261Y9902D02*
X13411Y10052D01*
X7711Y6452D02*
X7461Y6202D01*
X12861Y8852D02*
X12986Y8727D01*
X6011Y7627D02*
X5861Y7777D01*
X5036Y8577D02*
X4911Y8702D01*
X10786Y10327D02*
X11061Y10052D01*
X10761D02*
X10511Y10302D01*
X12861Y8802D02*
X13011Y8652D01*
X9911Y9152D02*
X9761Y9302D01*
X6111Y10077D02*
X5986Y10202D01*
X7711Y7852D02*
X7886Y7677D01*
X10911Y6502D02*
X11036Y6377D01*
X10911Y6802D02*
X10736Y6977D01*
X6936Y9177D02*
X6811Y9302D01*
X5911Y8402D02*
X6036Y8277D01*
X6761Y5702D02*
X7986D01*
X10561D02*
X11486D01*
X11386Y5677D02*
X10486D01*
X11961Y5602D02*
X12261D01*
X12211Y5752D02*
X11711D01*
X6161Y5652D02*
X5411D01*
X5436Y5702D02*
X5986D01*
X11411Y5652D02*
X11561D01*
X8511Y5702D02*
X8086D01*
X8136Y5652D02*
X8636D01*
X4711Y8352D02*
Y8402D01*
Y8352D02*
X4736Y8327D01*
X4811Y8902D02*
X4711Y9002D01*
X10361Y5902D02*
X10611D01*
X10661Y5952D02*
X11111D01*
X10361Y5902D02*
X8586D01*
X10061Y5802D02*
X10261D01*
X7786D02*
X6461D01*
X12111Y5952D02*
X12436D01*
X6436Y5777D02*
X6261D01*
X4861Y8277D02*
X4886Y8302D01*
X4811Y8702D02*
X4861Y8752D01*
X4811Y6502D02*
X4911Y6402D01*
X4986Y6427D02*
X4911Y6502D01*
X4961Y9402D02*
X4911Y9452D01*
X4811Y9002D02*
X4861Y8952D01*
X7786Y6152D02*
X8186D01*
X12561Y6077D02*
X12836D01*
X12311Y6052D02*
X12061D01*
X6886Y6077D02*
X6761D01*
X9386Y6052D02*
X9736D01*
X9386D02*
X8786D01*
X8736Y6102D02*
X8286D01*
X10061Y6052D02*
X10511D01*
X10461Y6002D02*
X10211D01*
X10161Y6102D02*
X10686D01*
X5111Y7852D02*
Y7927D01*
X5011D02*
Y7852D01*
Y9452D02*
X5061Y9502D01*
X5111Y9452D02*
X5061Y9402D01*
Y8752D02*
X5111Y8702D01*
X5186Y8627D01*
X8286Y6302D02*
X8386D01*
X8436Y6352D02*
X8486D01*
X8561Y6277D02*
X8736D01*
X9136Y6302D02*
X9236D01*
X13011Y6352D02*
X13236D01*
X12961Y6302D02*
X12436D01*
X12386Y6352D02*
X12011D01*
X12461D02*
X12661D01*
X13061Y6302D02*
X13261D01*
X5686Y6202D02*
X5486D01*
X5611Y6352D02*
X5711D01*
X7361Y6302D02*
X7461D01*
X7061D02*
X6961D01*
X9986Y6252D02*
X10511D01*
X9561Y6352D02*
X9461D01*
X7461Y6202D02*
X7086D01*
X10736Y6327D02*
X11311D01*
X10411Y6277D02*
X10211D01*
X8936D02*
X8836D01*
X8786Y6227D02*
X8436D01*
X8411Y6252D02*
X8136D01*
X8786Y6352D02*
X8886D01*
X7986Y6302D02*
X7886D01*
X5311Y10052D02*
X5411Y10152D01*
X5311Y5752D02*
X5411Y5652D01*
X5261Y6452D02*
X5211Y6502D01*
Y9452D02*
X5161Y9502D01*
X5236Y6902D02*
X5286Y6852D01*
X9036Y6402D02*
X9136D01*
X5436D02*
X4911D01*
X12711Y6552D02*
X12836D01*
X13411Y6402D02*
X13511D01*
X13361Y6452D02*
X13286D01*
X13511Y6402D02*
X13611D01*
X13686D02*
X13511D01*
X13611Y6502D02*
X13236D01*
X12561Y6402D02*
X12486D01*
X5811Y6502D02*
X5711D01*
X5861Y6452D02*
X5261D01*
X5111Y6502D02*
X5011D01*
X4986Y6427D02*
X5836D01*
X5961Y6402D02*
X6061D01*
X8811Y6502D02*
X8911D01*
X8561Y6452D02*
X7711D01*
X10286Y6402D02*
X10661D01*
X10686Y6427D02*
X10286D01*
X10736Y6377D02*
X10911D01*
X10811Y6427D02*
X10736D01*
X10711Y6452D02*
X10461D01*
X11036Y6377D02*
X11511D01*
X11611Y6427D02*
X11186D01*
X12311Y6402D02*
X12411D01*
X12311D02*
X11761D01*
X7836D02*
X7761D01*
X7861Y6427D02*
X9986D01*
X8736Y6402D02*
X8336D01*
X7986D01*
X5411Y9452D02*
Y9552D01*
X5461Y6377D02*
Y6227D01*
X5411Y5752D02*
Y5727D01*
Y9552D02*
X5436Y9577D01*
X5411Y10052D02*
X5461Y10102D01*
X5436Y6402D02*
X5461Y6377D01*
X5411Y5727D02*
X5436Y5702D01*
X5486Y6202D02*
X5461Y6227D01*
X7211Y6652D02*
X7611D01*
X9236D02*
X11311D01*
X8436D02*
X8011D01*
X8986D02*
X9111D01*
X8961Y6677D02*
X8486D01*
X8461Y6702D02*
X8211D01*
X12886Y6602D02*
X12911D01*
Y6702D02*
X12786D01*
X13561D02*
X13661D01*
X12461Y6652D02*
X12361D01*
X12336Y6677D02*
X12111D01*
X12411Y6602D02*
X12686D01*
X5136Y6652D02*
X4861D01*
X5811D02*
X6211D01*
X5661Y9827D02*
Y9877D01*
X5686Y9902D01*
X5661Y9827D02*
X5611Y9777D01*
X5711Y8377D02*
X5661Y8327D01*
Y8552D02*
X5636Y8577D01*
X5611Y8552D02*
X5636Y8527D01*
Y9552D02*
X5611Y9577D01*
X5636Y9602D02*
X5611Y9627D01*
X5636Y8902D02*
X5661Y8877D01*
X5686Y8952D02*
X5736Y8902D01*
X5636Y8627D02*
X5686Y8577D01*
X11161Y6852D02*
X11361D01*
X11411Y6927D02*
X11211D01*
X6186Y6902D02*
X5911D01*
X12811Y6802D02*
X12911D01*
X13311D02*
X13411D01*
X12311D02*
X12111D01*
X9586Y6877D02*
X8886D01*
X8861Y6902D02*
X8561D01*
X8536Y6927D02*
X8461D01*
X5236Y6902D02*
X4711D01*
X6861D02*
X7786D01*
X6786Y6877D02*
X6661D01*
X6811Y6852D02*
X7661D01*
X7836Y6927D02*
X6936D01*
X6786D02*
X6736D01*
X8036Y6852D02*
X8661D01*
X7961Y6927D02*
X7886D01*
X8211Y6877D02*
X8836D01*
X8186Y6902D02*
X8111D01*
X8686Y6927D02*
X8786D01*
X9936D02*
X10061D01*
X10386Y6877D02*
X10611D01*
X10086D02*
X9811D01*
X10286Y6927D02*
X10686D01*
X10211Y6852D02*
X10061D01*
X6061D02*
X5286D01*
X5711Y8377D02*
Y8402D01*
X5811Y9802D02*
Y9852D01*
Y8402D02*
X5711Y8302D01*
X5911Y6502D02*
X5861Y6452D01*
X5761Y9302D02*
X5811Y9352D01*
X5886Y10002D02*
X5836Y10052D01*
Y6427D02*
X5911Y6352D01*
X5786Y7352D02*
X5736Y7402D01*
X5811Y9677D02*
X5786Y9702D01*
X5811Y9802D02*
X5911Y9702D01*
X6261Y7052D02*
X6311D01*
X6236Y7027D02*
X6061D01*
X5961Y7127D02*
X5361D01*
X5811Y7027D02*
X5986D01*
X6011Y7002D02*
X6261D01*
X6286Y7027D02*
X6411D01*
X6336Y7077D02*
X6511D01*
X6536Y7102D02*
X6311D01*
X6286Y7077D02*
X6161D01*
X6636Y7002D02*
X6911D01*
X6961Y7052D02*
X7811D01*
X6886Y7027D02*
X6736D01*
X6936Y7077D02*
X7836D01*
X7861Y7102D02*
X6911D01*
X6886Y7077D02*
X6811D01*
X6986Y6977D02*
X6611D01*
X7086D02*
X7811D01*
X8436Y7127D02*
X6261D01*
X6311Y6977D02*
X5961D01*
X8686D02*
X8736D01*
X8611Y6952D02*
X8536D01*
X6911D02*
X6811D01*
X9536Y7127D02*
X10436D01*
X10461Y7102D02*
X10511D01*
X9161Y7027D02*
X8811D01*
X8561Y7077D02*
X7961D01*
X7936Y7027D02*
X8811D01*
X8661Y7002D02*
X7911D01*
X7886Y6977D02*
X8511D01*
X7836D02*
X7811D01*
X8811Y6952D02*
X9061D01*
X8661D02*
X8611D01*
X10611Y7102D02*
X11461D01*
X9736Y7077D02*
X9611D01*
X9761Y7102D02*
X10386D01*
X10436Y7052D02*
X10536D01*
X10586Y7102D02*
X10611D01*
X10161Y7052D02*
X9936D01*
X9961Y7002D02*
X10411D01*
X10461Y6977D02*
X10736D01*
X10436Y6952D02*
X10186D01*
X6061Y7552D02*
X6011Y7502D01*
X5961Y6402D02*
X5911Y6352D01*
X5961Y8902D02*
X6061Y9002D01*
X5936Y7627D02*
X5986Y7577D01*
X5961Y7127D02*
X6061Y7027D01*
X6011Y7002D02*
X5986Y7027D01*
X6036Y9902D02*
X5986Y9952D01*
X5961Y9527D02*
X6036Y9452D01*
X6011Y9852D02*
X5961Y9902D01*
X6036Y8227D02*
X6111Y8152D01*
X6061Y6852D02*
X6111Y6802D01*
X6061Y6402D02*
X6111Y6352D01*
X6036Y8852D02*
X6011Y8877D01*
X6061Y9002D02*
X6136Y8927D01*
X10811Y7277D02*
X10861D01*
X10261Y7327D02*
X9986D01*
X9961Y7302D02*
X9811D01*
X9636Y7327D02*
X9311D01*
X10136Y7152D02*
X11061D01*
X6111Y10052D02*
Y10077D01*
X6211Y6877D02*
Y6802D01*
X6236Y7027D02*
X6261Y7052D01*
X6286Y7027D02*
X6261Y7002D01*
X6286Y7077D02*
X6311Y7102D01*
X6211Y9902D02*
X6236Y9927D01*
X6211Y9702D02*
X6186Y9677D01*
X6161Y9702D02*
X6211Y9752D01*
X6186Y6902D02*
X6211Y6877D01*
X6261Y9377D02*
X6236Y9402D01*
X10811Y7352D02*
X10861D01*
X13061Y7452D02*
X13161D01*
X13186Y7477D02*
X13436D01*
X13411Y7402D02*
X13311D01*
X6011Y7502D02*
X5911D01*
X7111Y7352D02*
X7811D01*
X6061D02*
X5786D01*
X5736Y7402D02*
X5636D01*
X8111Y7377D02*
X9386D01*
X8086Y7352D02*
X8011D01*
X9686Y7377D02*
X10361D01*
X10436Y7352D02*
X10736D01*
X10461Y7402D02*
X10386D01*
X10486Y7377D02*
X10786D01*
X6336Y7077D02*
X6311Y7052D01*
X6411Y8152D02*
X6461Y8202D01*
Y5802D02*
X6436Y5777D01*
X6361Y9452D02*
X6411Y9502D01*
X6511Y8927D02*
X6486Y8902D01*
X6461Y8527D02*
X6511Y8477D01*
X6361Y7552D02*
X6411Y7502D01*
X6511Y9402D02*
X6461Y9452D01*
X6336Y9727D02*
X6311Y9752D01*
X6361Y8777D02*
X6386Y8752D01*
X6361Y8802D02*
X6336Y8827D01*
X6361Y8852D02*
X6386Y8827D01*
X6411Y8852D02*
X6336Y8927D01*
X9586Y7652D02*
X9661D01*
X9711Y7702D02*
X9861D01*
X9686Y7627D02*
X9511D01*
X9711Y7652D02*
X10761D01*
X5236D02*
X5111D01*
X9736Y7627D02*
X11086D01*
X10161Y7577D02*
X9736D01*
X9461Y7602D02*
X9411D01*
X7511Y7677D02*
X7486D01*
X7461Y7652D02*
X6811D01*
X6761Y7577D02*
X5986D01*
X5936Y7627D02*
X5486D01*
X10811Y7702D02*
X10861D01*
X9461Y7677D02*
X9311D01*
X6211Y7627D02*
X6011D01*
X7261Y7552D02*
X8161D01*
X8886Y7652D02*
X9036D01*
X9086Y7602D02*
X9261D01*
X9361Y7552D02*
X8761D01*
X12911Y7652D02*
X13011D01*
X12886Y7602D02*
X12011D01*
X13011Y7652D02*
X13036D01*
X13086Y7602D02*
X13136D01*
X12661Y7652D02*
X12411D01*
X12736Y7727D02*
X12886D01*
X12961Y7552D02*
X12411D01*
X12386Y7727D02*
X12586D01*
X6686D02*
X6061D01*
Y7552D02*
X6361D01*
X8011Y7727D02*
X8661D01*
X8636Y7677D02*
X9211D01*
X8636D02*
X8561D01*
X8661Y7727D02*
X9461D01*
X9536Y7652D02*
X9586D01*
X10111Y7702D02*
X10411D01*
X8211Y7627D02*
X8011D01*
X7986Y7652D02*
X7911D01*
X7886Y7627D02*
X6836D01*
X6936Y7577D02*
X7936D01*
X7886Y7677D02*
X8411D01*
X8461Y7627D02*
X8711D01*
X8811D02*
X8861D01*
X8886Y7577D02*
X8761D01*
X6736Y7677D02*
X6136D01*
X6536Y8702D02*
Y8752D01*
X6661Y9802D02*
Y9852D01*
X6561Y8927D02*
Y8877D01*
X6711Y7852D02*
X6636Y7777D01*
X6611Y9402D02*
X6661Y9452D01*
X6561Y8877D02*
X6536Y8852D01*
X6561Y8927D02*
X6586Y8952D01*
Y9002D02*
X6511Y8927D01*
X6636Y8852D02*
X6661Y8877D01*
X6611Y8852D02*
X6586Y8827D01*
X6511Y7077D02*
X6611Y6977D01*
X6636Y7002D02*
X6536Y7102D01*
X6561Y9452D02*
X6511Y9502D01*
X6711Y10002D02*
X6661Y10052D01*
Y8952D02*
X6686Y8927D01*
X9586Y7777D02*
X10036D01*
X5861D02*
X5061D01*
X11811Y7802D02*
X11911D01*
X13361Y7752D02*
X13461D01*
X12536D02*
X12436D01*
X12361D02*
X12261D01*
X12311Y7802D02*
X12386D01*
X12586D02*
X12711D01*
X6636Y7777D02*
X5961D01*
X8761D02*
X9111D01*
X8761D02*
X7961D01*
X9661Y7752D02*
X10961D01*
X11611Y7802D02*
X11711D01*
X6786Y7627D02*
Y7602D01*
X6861Y9452D02*
Y9502D01*
X6811Y7602D02*
Y7502D01*
X6711Y9927D02*
Y10002D01*
X6811Y7652D02*
X6786Y7627D01*
Y7602D02*
X6761Y7577D01*
X6861Y9502D02*
X6911Y9552D01*
X6811Y6952D02*
X6786Y6927D01*
X6811Y7602D02*
X6836Y7627D01*
X6711Y9727D02*
X6736Y9752D01*
X6711Y5752D02*
X6761Y5702D01*
X6811Y6852D02*
X6786Y6877D01*
X6736Y7027D02*
X6711Y7052D01*
X6761Y8852D02*
X6736Y8877D01*
X6861Y9852D02*
X6811Y9902D01*
X6736D02*
X6711Y9927D01*
Y9002D02*
X6761Y8952D01*
Y8277D02*
X6811Y8252D01*
X10811Y7952D02*
X11311D01*
X9911Y8002D02*
X9836D01*
X9811Y7977D02*
X9561D01*
X9911Y8002D02*
X9936D01*
X12636Y8102D02*
X13061D01*
X11711Y7952D02*
X11611D01*
X11861Y8102D02*
X12561D01*
X10361Y8002D02*
X10086D01*
X8936D02*
X8486D01*
X8461Y8027D02*
X7886D01*
X5711Y8002D02*
X5261D01*
X6911Y9402D02*
Y9477D01*
Y9827D02*
Y9877D01*
Y7552D02*
Y7502D01*
X6961Y7052D02*
X6911Y7002D01*
X6886Y7027D02*
X6936Y7077D01*
X6911Y7102D02*
X6886Y7077D01*
Y9377D02*
X6911Y9402D01*
Y9477D02*
X6936Y9502D01*
X6886Y9802D02*
X6911Y9827D01*
Y9877D02*
X6936Y9902D01*
X7111Y6352D02*
X7061Y6302D01*
X6911Y7552D02*
X6936Y7577D01*
X6911Y9352D02*
X6936Y9377D01*
X7011Y9202D02*
X6986Y9177D01*
X6886Y8552D02*
X6936Y8502D01*
X6911Y6352D02*
X6961Y6302D01*
X6936Y6927D02*
X6911Y6952D01*
X7111Y9402D02*
X7061Y9452D01*
X7011Y9302D02*
X7061Y9252D01*
X6986Y9227D02*
X6911Y9302D01*
Y8577D02*
X6936Y8552D01*
X10061Y8227D02*
X10436D01*
X11711Y8252D02*
X11811D01*
X12261Y8302D02*
X12461D01*
X8511Y8277D02*
X7661D01*
X4861D02*
X4811D01*
X4886Y8302D02*
X5711D01*
X6461Y8202D02*
X7161D01*
X6036Y8227D02*
X5161D01*
X8111Y8152D02*
X8211D01*
X7936Y8227D02*
X7261D01*
X8011Y8152D02*
X8111D01*
X8711Y8277D02*
X8961D01*
X9786Y8227D02*
X9861D01*
X9686Y8277D02*
X10311D01*
X9286Y8302D02*
X9211D01*
X9286Y8252D02*
X9061D01*
X9336Y8302D02*
X9611D01*
X9661Y8252D02*
X9761D01*
X9161Y8202D02*
X9036D01*
X9186Y8227D02*
X9611D01*
X6761Y8277D02*
X6036D01*
X6811Y8252D02*
X6861D01*
X7111Y9952D02*
Y10152D01*
X7236Y8577D02*
X7161Y8502D01*
X7186Y8477D02*
X7261Y8552D01*
X7111Y10152D02*
X7136Y10177D01*
X7261Y7552D02*
X7211Y7502D01*
Y9302D02*
X7261Y9352D01*
X7186Y9377D02*
X7111Y9302D01*
X7311Y10077D02*
X7211Y10177D01*
Y10227D02*
X7261Y10177D01*
X7161Y9752D02*
X7211Y9702D01*
X7186Y9677D02*
X7161Y9702D01*
Y8202D02*
X7211Y8152D01*
X7286Y10052D02*
X7211Y10127D01*
X7136Y9202D02*
X7161Y9177D01*
X10611Y8402D02*
X10711D01*
X11061Y8327D02*
X10111D01*
X7161Y8502D02*
X6936D01*
X7186Y8477D02*
X6511D01*
X13011Y8402D02*
X13161D01*
X13061Y8477D02*
X12761D01*
X13111Y8427D02*
X13211D01*
X13136Y8477D02*
X13411D01*
X13436Y8452D02*
X13511D01*
X13361Y8377D02*
X13186D01*
X12486Y8502D02*
X12386D01*
X12411Y8452D02*
X12511D01*
X12336D02*
X12311D01*
X12211D01*
X12161Y8477D02*
X11961D01*
X12711Y8452D02*
X12736D01*
X5661Y8327D02*
X4736D01*
X6811Y8402D02*
X6911D01*
X9711Y8327D02*
X9986D01*
X9661Y8352D02*
X9561D01*
X9386D01*
X8986D01*
X8961Y8327D02*
X8086D01*
X9311D02*
X9636D01*
X9011Y8402D02*
X8911D01*
X11761D02*
X12011D01*
X10861Y8452D02*
X10561D01*
X7486Y7677D02*
X7461Y7652D01*
X7311Y8577D02*
X7336Y8602D01*
X7361Y10077D02*
X7386Y10102D01*
X7436Y9802D02*
X7386Y9752D01*
X7511Y6352D02*
X7461Y6302D01*
X7361Y8952D02*
X7386Y8977D01*
Y8602D02*
X7411Y8577D01*
X7486Y9452D02*
X7436Y9502D01*
X7311Y6352D02*
X7361Y6302D01*
X7461Y9327D02*
X7411Y9377D01*
X7336Y9352D02*
X7386Y9302D01*
X8136Y8552D02*
X8211D01*
X8111Y8577D02*
X7411D01*
X7386Y8602D02*
X7336D01*
X7311Y8577D02*
X7236D01*
X6886Y8552D02*
X5661D01*
X5636Y8577D02*
X5036D01*
X5636Y8527D02*
X6461D01*
X5611Y8552D02*
X4911D01*
X10211Y8702D02*
X10286D01*
X13011Y8652D02*
X13036D01*
X13286D01*
X13086Y8527D02*
X12586D01*
X12386Y8602D02*
X12011D01*
X12461Y8677D02*
X12911D01*
X13211Y8552D02*
X12236D01*
X13211D02*
X13411D01*
X11886D02*
X11861D01*
X12061Y8652D02*
X11611D01*
X13486Y8627D02*
X13686D01*
X13711Y8552D02*
X13486D01*
X9111Y8702D02*
X9011D01*
X9911D02*
X10011D01*
X10111Y8552D02*
X8811D01*
X10861Y8652D02*
X11161D01*
X10811Y8702D02*
X10711D01*
X8711Y8552D02*
X8311D01*
X5636Y8627D02*
X5186D01*
X7261Y8552D02*
X7361D01*
X6986D02*
X6936D01*
X6911Y8577D02*
X5686D01*
X7611Y9352D02*
Y9427D01*
Y9477D02*
Y9502D01*
Y9352D02*
X7586Y9327D01*
Y9452D02*
X7611Y9477D01*
Y9502D02*
X7711Y9602D01*
Y10002D02*
X7611Y10102D01*
X7661Y6852D02*
X7711Y6802D01*
X12711Y8852D02*
X12861D01*
X12986Y8727D02*
X13261D01*
X9961Y8802D02*
X9886D01*
X9861Y8777D02*
X9986D01*
X10036Y8827D02*
X10111D01*
X10261D02*
X10561D01*
X10236Y8802D02*
X10211D01*
X10136D01*
X10236Y8852D02*
X10361D01*
X10211Y8827D02*
X10161D01*
X10061Y8752D02*
X9811D01*
X10011Y8852D02*
X10136D01*
X10186Y8877D02*
X9986D01*
X10286Y8777D02*
X10936D01*
X10636Y8877D02*
X10386D01*
X10661Y8852D02*
X10761D01*
X10861Y8752D02*
X10336D01*
X9836Y8802D02*
X9286D01*
X9311Y8827D02*
X9861D01*
X9236Y8902D02*
X8761D01*
X8861Y8852D02*
X9236D01*
X9261Y8777D02*
X9786D01*
X8861Y8852D02*
X8461D01*
X8411Y8902D02*
X8061D01*
X7936Y8852D02*
X8411D01*
X8461Y8802D02*
X9011D01*
X9036Y8827D02*
X9211D01*
X8386D02*
X8336D01*
X8436Y8777D02*
X9111D01*
X8861Y8752D02*
X8386D01*
X13211Y8802D02*
X13286D01*
X11961Y8777D02*
X11786D01*
X11986Y8802D02*
X12861D01*
X11461D02*
X11111D01*
X11011Y8852D02*
X11411D01*
X10661Y8902D02*
X10561D01*
X9761Y8752D02*
X9261D01*
X8261D02*
X7561D01*
X6811Y8852D02*
X6761D01*
X6011Y8877D02*
X5661D01*
X7461Y8852D02*
X7611D01*
X7936Y8802D02*
X8011D01*
X7886Y8852D02*
X7811D01*
X9911D02*
X9961D01*
X10061Y8902D02*
X9836D01*
X7536Y8752D02*
X7336D01*
X7536D02*
X7561D01*
X7336D02*
X7311D01*
X6736Y8877D02*
X6661D01*
X6536Y8752D02*
X7311D01*
X6536D02*
X6386D01*
X6361Y8777D02*
X5711D01*
X5811Y8827D02*
X6336D01*
X6361Y8852D02*
X6036D01*
X6411D02*
X6536D01*
X7286Y8902D02*
X7886D01*
X6636Y8852D02*
X6611D01*
X6586Y8827D02*
X6386D01*
X6361Y8802D02*
X6661D01*
X5161Y8902D02*
X4811D01*
X5161D02*
X5636D01*
X5736D02*
X5961D01*
X5061Y8752D02*
X4861D01*
X7811Y6877D02*
Y6802D01*
Y9852D02*
X7861Y9902D01*
X7886Y8027D02*
X7861Y8002D01*
X7786Y9252D02*
X7836Y9302D01*
X7861Y6427D02*
X7836Y6402D01*
X7786Y5802D02*
X7836Y5752D01*
X7811Y9852D02*
X7761Y9902D01*
X7786Y6902D02*
X7811Y6877D01*
X7836Y6927D02*
X7911Y6852D01*
X7936Y7027D02*
X7861Y7102D01*
X7836Y7077D02*
X7911Y7002D01*
X7886Y6977D02*
X7811Y7052D01*
X7836Y6977D02*
X7886Y6927D01*
X7836Y6352D02*
X7886Y6302D01*
X11236Y9077D02*
X11261D01*
X11311D01*
X9161Y9002D02*
X9061D01*
X8911Y8952D02*
X8561D01*
X9711Y8927D02*
X9786D01*
X9811Y8952D02*
X10511D01*
X10286Y8927D02*
X10086D01*
X6661Y8952D02*
X6586D01*
X6686Y8927D02*
X6711D01*
X6336D02*
X6136D01*
X6586Y9002D02*
X6711D01*
X6811D02*
X6911D01*
X7386Y8977D02*
X7486D01*
X7361Y8952D02*
X6761D01*
X5686D02*
X4861D01*
X7911Y6852D02*
Y6802D01*
Y7827D02*
Y7852D01*
X8036Y5752D02*
X7986Y5702D01*
X8011Y9852D02*
X8061Y9902D01*
X7911Y7652D02*
X7886Y7627D01*
X7936Y7577D02*
X7961Y7602D01*
X8036Y6352D02*
X7986Y6302D01*
X7936Y6352D02*
X7986Y6402D01*
X8036Y6352D02*
X8136Y6252D01*
X8011Y9852D02*
X7961Y9902D01*
X8011Y8402D02*
X8086Y8327D01*
X7911Y7827D02*
X7961Y7777D01*
X8011Y8152D02*
X7936Y8227D01*
X7986Y7652D02*
X8011Y7627D01*
X7961Y6927D02*
X8036Y6852D01*
X8011Y10052D02*
X7936Y10127D01*
X7886Y8852D02*
X7936Y8802D01*
Y8852D02*
X7886Y8902D01*
X8036Y5752D02*
X8086Y5702D01*
X11911Y9152D02*
X13461D01*
X9011Y9252D02*
X8836D01*
X8586Y9127D02*
X9411D01*
X11236D02*
X11286D01*
X10611Y9252D02*
X10361D01*
X10286Y9227D02*
X10736D01*
X10261Y9252D02*
X10011D01*
X9961Y9202D02*
X10161D01*
X10686D01*
X10711Y9127D02*
X11186D01*
X10686Y9152D02*
X9911D01*
X11386D02*
X11536D01*
X11211D02*
X10736D01*
X10786Y9177D02*
X11436D01*
X11486Y9227D02*
X11536D01*
X8561Y9102D02*
X8361D01*
X8411Y9177D02*
X7161D01*
X7136Y9202D02*
X7011D01*
X7061Y9152D02*
X5861D01*
X6986Y9227D02*
X8311D01*
X6986Y9177D02*
X6936D01*
X7061Y9252D02*
X7786D01*
X8061Y9302D02*
Y9352D01*
X8111Y7377D02*
X8086Y7352D01*
X8061Y9352D02*
X8111Y9402D01*
X8236Y6352D02*
X8286Y6302D01*
X8136Y8552D02*
X8111Y8577D01*
X8161Y7552D02*
X8211Y7502D01*
X8186Y6902D02*
X8211Y6877D01*
Y9302D02*
X8161Y9352D01*
X9436Y9377D02*
X10361D01*
X8786Y9352D02*
X8636D01*
X8586Y9302D02*
X8361D01*
X13111D02*
X13211D01*
X7536Y9402D02*
X7111D01*
X7486Y9327D02*
X7586D01*
X6211Y9402D02*
X6186D01*
X6211D02*
X6236D01*
X6261Y9377D02*
X6886D01*
X7486Y9452D02*
X7586D01*
X10261Y9302D02*
X10311D01*
X10686Y9402D02*
X10811D01*
X10836Y9377D02*
X11211D01*
X11061Y9352D02*
X10711D01*
X10911Y9402D02*
X11111D01*
X9111Y9352D02*
X8911D01*
X8361Y9302D02*
X8211D01*
X8811Y9402D02*
X9011D01*
X6136Y9452D02*
X6036D01*
X12111D02*
X12211D01*
X12311D01*
X12411D01*
X12511D01*
X12611D02*
X12711D01*
X12611D02*
X12511D01*
X12811D02*
X13011D01*
X8411D02*
X8311D01*
X8111D02*
X8011D01*
X6611Y9402D02*
X6511D01*
X5061D02*
X4961D01*
X5811Y9352D02*
X6911D01*
X6936Y9377D02*
X6961D01*
X6061Y9302D02*
X5961D01*
X7836D02*
X7986D01*
X7911Y9452D02*
X7811D01*
X8111Y9402D02*
X8336D01*
X8386Y9352D02*
X8461D01*
X7411Y9377D02*
X7186D01*
X7461Y9327D02*
X7486D01*
X7336Y9352D02*
X7261D01*
X7386Y9302D02*
X7661D01*
X8336Y6402D02*
Y6352D01*
X8386Y6302D02*
X8436Y6352D01*
Y7127D02*
X8511Y7202D01*
X8411Y9852D02*
X8461Y9902D01*
X8336Y8827D02*
X8261Y8752D01*
X8411Y8902D02*
X8461Y8852D01*
X8411D02*
X8461Y8802D01*
X8436Y8777D02*
X8386Y8827D01*
X8361Y8777D02*
X8386Y8752D01*
X8411Y9852D02*
X8361Y9902D01*
X8411Y7677D02*
X8461Y7627D01*
X8386Y9352D02*
X8336Y9402D01*
X8411Y6252D02*
X8436Y6227D01*
X5486Y9527D02*
X5461D01*
X5436Y9577D02*
X5611D01*
X5636Y9552D02*
X6061D01*
X6111Y9602D02*
X5636D01*
X5611Y9627D02*
X5511D01*
X9536Y9552D02*
X9836D01*
X9511Y9527D02*
X9261D01*
X8236Y9602D02*
X8136D01*
X8436D02*
X8536D01*
X8436D02*
X8236D01*
X10236Y9652D02*
X11136D01*
X11086Y9627D02*
X10161D01*
X11161Y9552D02*
X11361D01*
X6586Y9602D02*
X6286D01*
X9186Y9502D02*
X9236D01*
X9086Y9602D02*
X8536D01*
X9886Y9502D02*
X10111D01*
X12786Y9527D02*
X13061D01*
X10761Y9552D02*
X10686D01*
X10761D02*
X10861D01*
X9486D02*
X9211D01*
X9511Y9577D02*
X9886D01*
X9936Y9527D02*
X10161D01*
X10236Y9602D02*
X10636D01*
X12036Y9527D02*
X12261D01*
X8061Y9552D02*
X7736D01*
X7511D02*
X6911D01*
X6936Y9502D02*
X7436D01*
X7711Y9602D02*
X8136D01*
X9911Y9677D02*
X10111D01*
X10461Y9552D02*
X10586D01*
X10061Y9602D02*
X9411D01*
Y9502D02*
X9311D01*
X9111D02*
X9011D01*
X5961Y9527D02*
X5486D01*
X7186Y9677D02*
X9086D01*
X6461Y9652D02*
X5661D01*
X6411Y9502D02*
X6511D01*
X6811Y9652D02*
X9161D01*
X5161Y9502D02*
X5061D01*
X5811Y9677D02*
X6186D01*
X6961Y9602D02*
X7561D01*
X8586Y9302D02*
X8636Y9352D01*
X8611Y6502D02*
X8561Y6452D01*
Y9102D02*
X8586Y9127D01*
X8486Y6352D02*
X8561Y6277D01*
X8486Y6677D02*
X8461Y6702D01*
X8536Y8252D02*
X8511Y8277D01*
X8536Y6927D02*
X8561Y6902D01*
X8536Y6952D02*
X8511Y6977D01*
X8486Y8002D02*
X8461Y8027D01*
X9561Y9727D02*
X9761D01*
X10311Y9752D02*
X11211D01*
X12911Y9852D02*
X13011D01*
X12486Y9752D02*
X12261D01*
X12511Y9777D02*
X12836D01*
X10161Y9727D02*
X10111D01*
X10861Y9852D02*
X10961D01*
X10436Y9827D02*
X10311D01*
X10261Y9777D02*
X9911D01*
X6886Y9802D02*
X6661D01*
X7261Y9752D02*
X7386D01*
X7211Y9702D02*
X8986D01*
X7161Y9752D02*
X7011D01*
X7111Y9702D02*
X7161D01*
X6111Y9852D02*
X6011D01*
X9036Y9752D02*
X9536D01*
X5411Y9702D02*
X5161D01*
X9111D02*
X9261D01*
X6261D02*
X6211D01*
X5786D02*
X5761D01*
X5911D02*
X6161D01*
X7436Y9802D02*
X7511D01*
X6911Y9752D02*
X6736D01*
X6711Y9727D02*
X6336D01*
X6311Y9752D02*
X6211D01*
X10561Y9852D02*
X10661D01*
X8811Y9327D02*
Y9277D01*
X8761Y9852D02*
X8811Y9902D01*
X8761Y7552D02*
X8711Y7502D01*
X8811Y6952D02*
X8786Y6927D01*
X8836Y6277D02*
X8786Y6227D01*
X8836Y9252D02*
X8811Y9277D01*
Y9327D02*
X8786Y9352D01*
X8761Y9852D02*
X8711Y9902D01*
X8761Y9452D02*
X8811Y9402D01*
X8661Y7002D02*
X8686Y6977D01*
X8761Y7577D02*
X8711Y7627D01*
X8661Y6852D02*
X8711Y6802D01*
X8836Y6877D02*
X8911Y6802D01*
X8686Y6927D02*
X8661Y6952D01*
X8736Y6102D02*
X8786Y6052D01*
Y6352D02*
X8736Y6402D01*
X6211Y9902D02*
X6036D01*
X6236Y9927D02*
X6311D01*
X5986Y9952D02*
X5711D01*
X7311Y10077D02*
X7361D01*
X7161Y9952D02*
X7111D01*
X7711Y10002D02*
X9611D01*
X11911D02*
X12061D01*
X10911D02*
X10511D01*
X10486Y10027D02*
X10411D01*
X10511Y9902D02*
X11111D01*
X7761D02*
X6936D01*
X7861D02*
X7961D01*
X8061D02*
X8361D01*
X8461D02*
X8711D01*
X8811D02*
X8911D01*
X9011D02*
X9411D01*
X9511D02*
X9611D01*
X9761Y10052D02*
X9961D01*
X9836Y10002D02*
X10211D01*
X10161Y9952D02*
X10086D01*
X5961Y9902D02*
X5686D01*
X5886Y10002D02*
X6061D01*
X5836Y10052D02*
X5786D01*
X12161Y9902D02*
X13261D01*
X7561Y10052D02*
X7286D01*
X6811Y9902D02*
X6736D01*
X9036Y6402D02*
X8986Y6352D01*
X9011Y9252D02*
X9061Y9302D01*
X9036Y8827D02*
X9011Y8802D01*
X8961Y9852D02*
X9011Y9902D01*
Y9502D02*
X8961Y9452D01*
X8911Y9352D02*
X8861Y9302D01*
X9011Y9402D02*
X9061Y9452D01*
X8986Y9702D02*
X9036Y9752D01*
X8961Y9002D02*
X8911Y8952D01*
X8886Y7652D02*
X8861Y7627D01*
X8886Y7577D02*
X8911Y7602D01*
X8961Y8327D02*
X8986Y8352D01*
X8961Y6677D02*
X8986Y6652D01*
X9086Y7602D02*
X9036Y7652D01*
X8911Y8702D02*
X8861Y8752D01*
X8961Y9852D02*
X8911Y9902D01*
X8861Y6902D02*
X8886Y6877D01*
X9036Y8202D02*
X8961Y8277D01*
X7211Y10177D02*
X7136D01*
X7211Y10227D02*
X7036D01*
X7261Y10177D02*
X7411D01*
X7261Y10252D02*
X6961D01*
X7336Y10127D02*
X7936D01*
X7611Y10102D02*
X7386D01*
X12186Y10127D02*
X13061D01*
X9636Y10202D02*
X9436D01*
X9761Y10252D02*
X10086D01*
X9886Y10102D02*
X9711D01*
X10011Y10202D02*
X10211D01*
X5986D02*
X5461D01*
X5411Y10152D02*
X5836D01*
X5911Y10102D02*
X5461D01*
X7186Y10127D02*
X7211D01*
X9111Y7502D02*
Y7427D01*
X9211Y8702D02*
X9261Y8752D01*
X9186Y8227D02*
X9161Y8202D01*
X9086Y9677D02*
X9111Y9702D01*
X9136Y6402D02*
X9186Y6352D01*
X9136Y6302D02*
X9086Y6352D01*
X9261Y8777D02*
X9211Y8827D01*
X9186Y9502D02*
X9086Y9602D01*
X9111Y9502D02*
X9161Y9452D01*
X9111Y9352D02*
X9161Y9302D01*
X8811Y10327D02*
X10786D01*
X10511Y10302D02*
X9736D01*
X9411Y7602D02*
X9361Y7552D01*
X9286Y6352D02*
X9236Y6302D01*
X9361Y9302D02*
X9436Y9377D01*
X9261Y9527D02*
X9236Y9502D01*
X9261Y9452D02*
X9311Y9502D01*
X9411Y7402D02*
X9386Y7377D01*
X9286Y8302D02*
X9311Y8327D01*
X9336Y8302D02*
X9286Y8252D01*
Y8802D02*
X9236Y8852D01*
Y8902D02*
X9311Y8827D01*
X9461Y9852D02*
X9411Y9902D01*
Y9502D02*
X9461Y9452D01*
X9611Y6852D02*
Y6802D01*
X9511Y7152D02*
Y7202D01*
Y9527D02*
X9536Y9552D01*
X9511Y9577D02*
X9486Y9552D01*
X9461Y9852D02*
X9511Y9902D01*
X9461Y7677D02*
X9511Y7627D01*
X9561Y9727D02*
X9536Y9752D01*
X9661Y9952D02*
X9611Y10002D01*
Y9902D02*
X9661Y9852D01*
X9586Y6877D02*
X9611Y6852D01*
X9536Y7127D02*
X9511Y7152D01*
X9536Y7652D02*
X9461Y7727D01*
X9661Y8252D02*
X9611Y8302D01*
X9711Y7552D02*
Y7502D01*
X9761Y6027D02*
Y5952D01*
X9661Y7652D02*
X9711Y7702D01*
Y7652D02*
X9686Y7627D01*
X9736Y7577D02*
X9711Y7552D01*
X9686Y7377D02*
X9636Y7327D01*
X9811Y7977D02*
X9836Y8002D01*
X9636Y10202D02*
X9736Y10302D01*
X9711Y10102D02*
X9661Y10052D01*
X9811Y8952D02*
X9786Y8927D01*
X9711Y8402D02*
X9661Y8352D01*
X9761Y7102D02*
X9736Y7077D01*
X9811Y8752D02*
X9786Y8777D01*
X9761Y8752D02*
X9811Y8702D01*
X9736Y6052D02*
X9761Y6027D01*
X9786Y8227D02*
X9761Y8252D01*
X9686Y8277D02*
X9636Y8327D01*
X9661Y7752D02*
X9636Y7702D01*
X10011Y8352D02*
Y8402D01*
Y6502D02*
Y6452D01*
X9961Y6352D02*
Y6277D01*
X9911Y6952D02*
Y7027D01*
X9961Y7302D02*
X9986Y7327D01*
X9961Y8802D02*
X10011Y8852D01*
X10036Y8827D02*
X9986Y8777D01*
X10011Y8352D02*
X9986Y8327D01*
X10011Y6452D02*
X9986Y6427D01*
X9911Y7027D02*
X9936Y7052D01*
X10061Y6852D02*
X10011Y6802D01*
X9961Y8852D02*
X9986Y8877D01*
X10011Y5852D02*
X10061Y5802D01*
X9861Y8777D02*
X9836Y8802D01*
X9861Y8827D02*
X9886Y8802D01*
Y9502D02*
X9836Y9552D01*
X9886Y9577D02*
X9936Y9527D01*
X9861Y9302D02*
X9961Y9202D01*
X10011Y9252D02*
X9961Y9302D01*
Y6277D02*
X9986Y6252D01*
X9936Y6927D02*
X9911Y6952D01*
X10061Y9852D02*
Y9927D01*
X10111Y7202D02*
Y7177D01*
X10161Y6352D02*
Y6327D01*
X10061Y8752D02*
X10086Y8777D01*
X10161Y9527D02*
X10236Y9602D01*
X10061Y9927D02*
X10086Y9952D01*
X10111Y7852D02*
X10036Y7777D01*
X10211Y6002D02*
X10161Y5952D01*
X10061Y8902D02*
X10086Y8927D01*
X10111Y8827D02*
X10136Y8802D01*
X10161Y8827D02*
X10136Y8852D01*
X10161Y9452D02*
X10111Y9502D01*
X10161Y9627D02*
X10111Y9677D01*
X10161Y9727D02*
X10236Y9652D01*
X10111Y7177D02*
X10136Y7152D01*
X10161Y6327D02*
X10211Y6277D01*
X10086Y6877D02*
X10186Y6952D01*
X10311Y5852D02*
X10261Y5802D01*
X10236Y8802D02*
X10261Y8827D01*
X10236Y8852D02*
X10211Y8827D01*
X10361Y8852D02*
X10386Y8877D01*
X10336Y8752D02*
X10286Y8702D01*
X10261Y9702D02*
X10311Y9752D01*
X10261Y9777D02*
X10311Y9827D01*
X10286Y6402D02*
X10236Y6352D01*
X10311Y6802D02*
X10386Y6877D01*
X10286Y6927D02*
X10211Y6852D01*
X10361Y7377D02*
X10386Y7402D01*
X10286Y7302D02*
X10261Y7327D01*
X10361Y9252D02*
X10311Y9302D01*
X10261Y9252D02*
X10286Y9227D01*
X10211Y6502D02*
X10286Y6427D01*
X10436Y7052D02*
X10386Y7102D01*
X10311Y8902D02*
X10286Y8927D01*
X10436Y9827D02*
X10511Y9902D01*
X10586Y7102D02*
X10536Y7052D01*
X10461Y6327D02*
X10411Y6277D01*
X10436Y6952D02*
X10461Y6977D01*
X10511Y8402D02*
X10561Y8452D01*
X10511Y5752D02*
X10561Y5702D01*
X10486Y5677D02*
X10411Y5752D01*
X10511Y10002D02*
X10486Y10027D01*
X10586Y9552D02*
X10661Y9477D01*
X10436Y7127D02*
X10461Y7102D01*
X10511Y8152D02*
X10436Y8227D01*
X10561Y8902D02*
X10511Y8952D01*
X10411Y6502D02*
X10461Y6452D01*
X10486Y7377D02*
X10461Y7402D01*
X10661Y9302D02*
Y9377D01*
Y9452D02*
Y9477D01*
X10811Y7702D02*
X10761Y7652D01*
X10661Y5952D02*
X10611Y5902D01*
Y9252D02*
X10661Y9302D01*
Y9377D02*
X10686Y9402D01*
X10711Y8952D02*
X10661Y8902D01*
X10736Y7352D02*
X10811Y7277D01*
Y7352D02*
X10786Y7377D01*
X10661Y8852D02*
X10636Y8877D01*
X10686Y9552D02*
X10636Y9602D01*
X10736Y9227D02*
X10786Y9177D01*
X10736Y9152D02*
X10686Y9202D01*
Y9152D02*
X10711Y9127D01*
X10661Y6402D02*
X10736Y6327D01*
Y6377D02*
X10686Y6427D01*
X10711Y6452D02*
X10736Y6427D01*
X10911Y10002D02*
X10961Y10052D01*
X10936Y8777D02*
X11011Y8702D01*
X10836Y9377D02*
X10811Y9402D01*
X10861Y9552D02*
X10961Y9452D01*
X10911Y9402D02*
X10861Y9452D01*
Y8752D02*
X10911Y8702D01*
X10861Y8652D02*
X10811Y8702D01*
X10861Y8452D02*
X10911Y8402D01*
X11111D02*
Y8377D01*
Y7602D02*
Y7502D01*
X11161Y6852D02*
X11111Y6802D01*
X11061Y8327D02*
X11111Y8377D01*
Y9402D02*
X11161Y9452D01*
X11111Y7202D02*
X11061Y7152D01*
X11161Y8652D02*
X11211Y8702D01*
X11086Y7627D02*
X11111Y7602D01*
X11186Y9602D02*
X11136Y9652D01*
X11086Y9627D02*
X11161Y9552D01*
Y9852D02*
X11111Y9902D01*
X11186Y9127D02*
X11236Y9077D01*
X11111Y9302D02*
X11061Y9352D01*
X11111Y6502D02*
X11186Y6427D01*
X11311Y9077D02*
X11386Y9152D01*
X11361Y6852D02*
X11411Y6802D01*
X11236Y9127D02*
X11211Y9152D01*
X11436Y9177D02*
X11486Y9227D01*
X11511Y8852D02*
X11461Y8802D01*
X11386Y5677D02*
X11411Y5652D01*
X11761Y8402D02*
X11711Y8452D01*
X11961Y8777D02*
X11986Y8802D01*
X11961Y5602D02*
X11911Y5552D01*
X11961Y8477D02*
X11886Y8552D01*
X12011Y9452D02*
Y9502D01*
Y6002D02*
Y5952D01*
Y9502D02*
X12036Y9527D01*
X12061Y6052D02*
X12011Y6002D01*
X12111Y9852D02*
X12161Y9902D01*
X12236Y8552D02*
X12161Y8477D01*
X12336Y8452D02*
X12386Y8502D01*
X12261Y8302D02*
X12211Y8252D01*
X12336Y6677D02*
X12361Y6652D01*
X12261Y5602D02*
X12311Y5552D01*
X12386Y7727D02*
X12361Y7752D01*
X12261D02*
X12211Y7802D01*
X12411Y6602D02*
Y6477D01*
X12486Y9752D02*
X12511Y9777D01*
X12586Y8527D02*
X12511Y8452D01*
X12386Y8602D02*
X12461Y8677D01*
X12586Y7802D02*
X12536Y7752D01*
X12386Y6352D02*
X12436Y6302D01*
X12486Y6402D02*
X12411Y6477D01*
Y6402D02*
X12461Y6352D01*
X12511Y8252D02*
X12461Y8302D01*
X12386Y7802D02*
X12436Y7752D01*
X12661Y7652D02*
X12736Y7727D01*
Y8452D02*
X12761Y8477D01*
X12786Y6702D02*
X12686Y6602D01*
X12711Y6402D02*
X12661Y6352D01*
X12586Y7727D02*
X12611Y7752D01*
X12911Y7652D02*
Y7627D01*
X12836Y9777D02*
X12911Y9852D01*
X12886Y6602D02*
X12836Y6552D01*
X12886Y7602D02*
X12911Y7627D01*
X12886Y7727D02*
X12936Y7777D01*
Y6777D02*
X13011Y6702D01*
X12936Y6777D02*
X12911Y6802D01*
X13011Y6352D02*
X12961Y6302D01*
X13136Y7602D02*
X13161Y7627D01*
X13111Y8427D02*
X13061Y8477D01*
X13086Y8527D02*
X13136Y8477D01*
X13036Y7652D02*
X13086Y7602D01*
X13011Y7502D02*
X13061Y7452D01*
X13311Y8677D02*
Y8777D01*
X13261Y6427D02*
Y6377D01*
X13161Y7627D02*
Y7652D01*
X13211Y6477D02*
Y6402D01*
X13311D02*
Y6352D01*
X13286Y8652D02*
X13311Y8677D01*
X13286Y6452D02*
X13261Y6427D01*
Y6377D02*
X13236Y6352D01*
Y7727D02*
X13311Y7802D01*
X13236Y7727D02*
X13161Y7652D01*
X13236Y6502D02*
X13211Y6477D01*
X13311Y6352D02*
X13261Y6302D01*
X13161Y7452D02*
X13186Y7477D01*
X13311Y8777D02*
X13286Y8802D01*
X13161Y8402D02*
X13186Y8377D01*
X13311Y7802D02*
X13361Y7752D01*
X13511Y6802D02*
Y6752D01*
X13361Y8377D02*
X13436Y8452D01*
X13411Y8552D02*
X13486Y8627D01*
Y8552D02*
X13411Y8477D01*
X13511Y7802D02*
X13461Y7752D01*
X13511Y6752D02*
X13561Y6702D01*
X13361Y6452D02*
X13411Y6402D01*
X13511Y7402D02*
X13436Y7477D01*
X13611Y6402D02*
Y6302D01*
X13711Y6427D02*
Y6502D01*
Y8777D02*
Y8802D01*
Y6427D02*
X13686Y6402D01*
Y8627D02*
X13736Y8677D01*
Y8752D02*
X13711Y8777D01*
X13736Y8752D02*
Y8677D01*
D16*
X9761Y9512D02*
X9561D01*
Y9452D01*
X9761D02*
Y9512D01*
D21*
X4436Y6652D02*
X4411Y6627D01*
X11511Y5852D02*
X11611Y5952D01*
X6311Y9552D02*
X6261Y9502D01*
X6161Y9952D02*
X6211Y10002D01*
X4511Y9452D02*
X4436Y9377D01*
X4811Y9502D02*
X4861Y9552D01*
X9061Y9202D02*
X9086Y9227D01*
X11986Y9927D02*
X12011Y9952D01*
X13111D02*
X13311Y10152D01*
X10436Y9952D02*
X10386Y9902D01*
X12811Y5877D02*
X12761Y5827D01*
X11486Y7202D02*
X11611Y7327D01*
X13561Y6152D02*
X13611Y6202D01*
X13311Y6102D02*
X13286Y6077D01*
X12980D02*
X12955Y6052D01*
X12086Y8327D02*
X12136Y8377D01*
X5786Y6327D02*
X5736Y6277D01*
X10436Y9002D02*
X10461Y9027D01*
X12636Y9352D02*
X12661Y9377D01*
X12636Y9352D02*
X12611Y9327D01*
X10511Y9352D02*
X10461Y9302D01*
X6961Y6027D02*
X6911Y5977D01*
X6511Y6277D02*
X6661Y6427D01*
X10511Y9402D02*
X10561Y9452D01*
X9411Y5677D02*
X9386Y5652D01*
X11636Y5577D02*
X11661Y5602D01*
X11161Y8227D02*
X11211Y8277D01*
X11561Y9627D02*
X11511Y9677D01*
X11186D02*
X11161Y9702D01*
X6561Y9527D02*
X6536Y9552D01*
X6736Y9527D02*
X6761Y9502D01*
X6411Y9952D02*
X6361Y10002D01*
X4511Y9127D02*
X4436Y9202D01*
X5286Y9552D02*
X5311Y9527D01*
X11586Y5902D02*
X11636Y5852D01*
Y5677D02*
X11661Y5652D01*
X12436Y5852D02*
X12461Y5827D01*
X11936Y5852D02*
X11911Y5877D01*
X12886Y8327D02*
X12836Y8377D01*
X5886Y6277D02*
X5836Y6327D01*
X4711Y5852D02*
X4661Y5902D01*
X10761Y9027D02*
X10786Y9002D01*
X11861Y7252D02*
X11886Y7227D01*
X5611Y6002D02*
X5461Y6152D01*
X7886Y9027D02*
X7836Y9077D01*
X9386Y5852D02*
X9411Y5827D01*
X8861Y5652D02*
X8736Y5777D01*
X8561D02*
X8486Y5852D01*
X9511Y5677D02*
X9611Y5577D01*
X4436Y6652D02*
Y6802D01*
X4411Y6627D02*
Y6052D01*
X4511Y9002D02*
Y9127D01*
X4436Y9202D02*
Y9377D01*
X11661Y5652D02*
X11711D01*
X9386D02*
X8861D01*
X9611Y5577D02*
X11636D01*
X9511Y5677D02*
X9411D01*
X4636Y9002D02*
Y9077D01*
X4711Y9227D02*
Y9302D01*
X4636Y6577D02*
Y6502D01*
X4711Y6727D02*
Y6802D01*
X4636Y8402D02*
Y8477D01*
X4711Y8152D02*
Y8077D01*
X4636Y7927D02*
Y7852D01*
Y7277D02*
Y7202D01*
X4711Y7427D02*
Y7502D01*
Y8702D02*
Y8802D01*
X8986Y5952D02*
X9086D01*
X6111Y5852D02*
X5911D01*
X8986D02*
X9086D01*
X9186D01*
X9286D01*
X8436D02*
X8336D01*
X8236D01*
X8136D01*
X8036D01*
X7936D01*
X7836D02*
X7736D01*
X7836D02*
X7936D01*
X7311D02*
X7211D01*
X7311D02*
X7736D01*
X10111D02*
X10211D01*
X10011D02*
X9811D01*
X10311D02*
X11186D01*
X11311D01*
X11511D01*
X11611Y5952D02*
X11911D01*
X12799D02*
X12811D01*
X12761Y5827D02*
X12461D01*
X12436Y5852D02*
X11936D01*
X5211D02*
X4711D01*
X5211D02*
X5311D01*
X5411D01*
X5511D01*
X5611D01*
X6611D02*
X6711D01*
X6811D01*
X7011D02*
X7111D01*
X7211D01*
X6911D02*
X6811D01*
X6911D02*
X7011D01*
X6611D02*
X5911D01*
X5811D01*
X5711D02*
X5611D01*
X5711D02*
X5811D01*
X5711Y5952D02*
X5611D01*
X9286Y5852D02*
X9386D01*
X8736Y5777D02*
X8561D01*
X8486Y5852D02*
X8436D01*
X4811Y9452D02*
Y9502D01*
X4911Y9777D02*
Y9852D01*
Y7277D02*
Y7202D01*
X4511Y6052D02*
X4411D01*
X13311Y6152D02*
X13561D01*
X13286Y6077D02*
X12980D01*
X7111Y6027D02*
X6961D01*
X5461Y6152D02*
X5211D01*
X5511Y6277D02*
X5736D01*
X5786Y6327D02*
X5836D01*
X5886Y6277D02*
X6011D01*
X9761Y6352D02*
X9861D01*
X9761D02*
X9661D01*
X6511Y6277D02*
X6011D01*
X5311Y9452D02*
Y9527D01*
Y9077D02*
Y9002D01*
Y6577D02*
Y6502D01*
Y8402D02*
Y8477D01*
Y7502D02*
Y7427D01*
X5211Y9777D02*
Y9852D01*
Y7277D02*
Y7202D01*
X7011Y6427D02*
X7411D01*
X4636Y6502D02*
X4511D01*
X5311D02*
X5461D01*
X5536D01*
X6311D02*
X6461D01*
X6536D01*
X7211D02*
X7361D01*
X7436D01*
X7711D02*
X7811D01*
X8211D02*
X8361D01*
X8436D01*
X9111D02*
X9261D01*
X9336D01*
X9686D02*
X9761D01*
X9836D01*
X10511D02*
X10661D01*
X10736D01*
X11411D02*
X11561D01*
X7011Y6427D02*
X6661D01*
X7811Y6502D02*
X8011D01*
X5486Y7427D02*
Y7502D01*
X5511Y6352D02*
Y6277D01*
X5386Y9227D02*
Y9302D01*
Y6802D02*
Y6727D01*
X5486Y8077D02*
Y8102D01*
Y8152D01*
X5411Y7927D02*
Y7852D01*
Y7277D02*
Y7202D01*
Y8702D02*
Y8802D01*
X8511Y6727D02*
X9211D01*
X5311Y6577D02*
X4636D01*
X5536D02*
X6311D01*
X6536D02*
X7211D01*
X7436D02*
X7711D01*
X8436D02*
X9111D01*
X9336D02*
X9686D01*
X9836D02*
X10511D01*
X10736D02*
X11411D01*
X11486Y6727D02*
X10811D01*
X10586D02*
X9911D01*
X9686D02*
X9411D01*
X8111D02*
X7511D01*
X7286D02*
X6611D01*
X6386D02*
X5711D01*
X5386D02*
X4711D01*
X8011Y6577D02*
X8211D01*
X5586Y9002D02*
Y9077D01*
X5661Y9227D02*
Y9302D01*
X5536Y6577D02*
Y6502D01*
X5636Y8402D02*
Y8477D01*
Y7927D02*
Y7852D01*
X5611Y7277D02*
Y7202D01*
Y6002D02*
Y5952D01*
X4511Y6802D02*
X4436D01*
X5611D02*
X5711D01*
X5611D02*
X5461D01*
X11486D02*
X11561D01*
X10811D02*
X10661D01*
X10586D01*
X9911D02*
X9761D01*
X9686D01*
X9411D02*
X9261D01*
X9211D01*
X8511D02*
X8361D01*
X8211D01*
X8111D01*
X7511D02*
X7361D01*
X7286D01*
X6611D02*
X6461D01*
X6386D01*
X5461D02*
X5386D01*
X4711D02*
X4511D01*
X12211Y6877D02*
X12511D01*
X12211D02*
X11936D01*
X12511D02*
X12561D01*
X13111D01*
X13411D01*
X5711Y8627D02*
Y8702D01*
Y6802D02*
Y6727D01*
Y8077D02*
Y8152D01*
X5811Y7502D02*
Y7427D01*
X5711Y5952D02*
Y5852D01*
X11861Y6952D02*
X11936D01*
X13011Y7027D02*
X13511D01*
Y6952D02*
X13711D01*
X12911Y7027D02*
X12411D01*
X12911Y6952D02*
X13011D01*
X12411D02*
X12311D01*
X6011Y6352D02*
Y6277D01*
X5911Y7852D02*
Y7927D01*
X11361Y7202D02*
X11486D01*
X13111Y7252D02*
X13211D01*
X5811Y7202D02*
X5711D01*
X4636D02*
X4511D01*
X5411D02*
X5561D01*
X5611D01*
Y7277D02*
X6411D01*
Y7202D02*
X6561D01*
X6636D01*
Y7277D02*
X7311D01*
Y7202D02*
X7461D01*
X7511D01*
Y7277D02*
X8211D01*
Y7202D02*
X8361D01*
X8436D01*
X9211D02*
X9361D01*
X9436D01*
X10211D02*
X10361D01*
X10436D01*
X11211D02*
X11361D01*
X11886Y7177D02*
X12111D01*
X12511D01*
X12611D02*
X12811D01*
X12611Y7252D02*
X12511D01*
X12911Y7177D02*
X13111D01*
X12911Y7252D02*
X12811D01*
X13011Y7327D02*
X13611D01*
Y7252D02*
X13711D01*
X13011Y7327D02*
X12411D01*
X12211D01*
X11911D01*
X11611D01*
X7811Y7202D02*
X7711D01*
X7611D01*
X8436Y7277D02*
X9211D01*
X10911Y7202D02*
X11011D01*
X10911D02*
X10811D01*
X10011D02*
X9911D01*
X9811D02*
X9711D01*
X9811D02*
X9911D01*
X9011D02*
X8911D01*
X8811D02*
X8711D01*
X8811D02*
X8911D01*
X5411Y7277D02*
X5211D01*
X4911D02*
X4636D01*
X4911Y7202D02*
X5211D01*
X11011Y7277D02*
X11211D01*
X10811Y7202D02*
X10711D01*
Y7277D02*
X10436D01*
X9711D02*
X9436D01*
X10011D02*
X10211D01*
X6111Y5952D02*
Y5852D01*
X6261Y9452D02*
Y9502D01*
Y9077D02*
Y9002D01*
X6211Y7927D02*
Y7852D01*
X5561Y7502D02*
X5486D01*
X10211D02*
X10361D01*
X4711D02*
X4511D01*
X11311D02*
X11361D01*
X11311D02*
X11211D01*
Y7427D02*
X10511D01*
Y7502D02*
X10361D01*
X10211Y7427D02*
X9511D01*
Y7502D02*
X9361D01*
X9286D01*
Y7427D02*
X8511D01*
Y7502D02*
X8361D01*
X8286D01*
Y7427D02*
X7611D01*
Y7502D02*
X7461D01*
X7386D01*
Y7427D02*
X6711D01*
Y7502D02*
X6561D01*
X6486D01*
Y7427D02*
X5811D01*
Y7502D02*
X5711D01*
X5486Y7427D02*
X4711D01*
X5311D02*
X5486D01*
X5561Y7502D02*
X5711D01*
X6311Y8077D02*
Y8152D01*
X6461Y8627D02*
Y8702D01*
X6311Y6577D02*
Y6502D01*
X6386Y6727D02*
Y6802D01*
X6311Y8402D02*
Y8477D01*
X6411Y7927D02*
Y7852D01*
Y7277D02*
Y7202D01*
X6486Y7427D02*
Y7502D01*
X6361Y9777D02*
Y9852D01*
X6386Y9077D02*
Y9002D01*
Y9227D02*
Y9302D01*
X6611Y8702D02*
Y8627D01*
X6661Y9777D02*
Y9852D01*
X6536Y6577D02*
Y6502D01*
X6611Y6727D02*
Y6802D01*
X6561Y8077D02*
Y8152D01*
X6636Y7927D02*
Y7852D01*
Y7277D02*
Y7202D01*
X6536Y8327D02*
Y8402D01*
X10511Y7852D02*
X10711D01*
X9661D02*
X9511D01*
X9411D01*
X9311D01*
X9211D01*
X9111D01*
X9011D01*
X8911D01*
X8811D01*
X8711D01*
X8611D01*
X8461D01*
X8311D01*
X7561D02*
X7411D01*
X7111D02*
X7011D01*
X6636D02*
X6561D01*
X6411D01*
X6211D02*
X6111D01*
X6011D01*
X5911D01*
X5636D02*
X5561D01*
X5411D01*
X4636D02*
X4511D01*
X13211Y7877D02*
X13411D01*
X13211D02*
X12911D01*
X12786D02*
X12411D01*
X11411D01*
X7411Y7777D02*
X7111D01*
X6761Y9452D02*
Y9502D01*
X6711Y8152D02*
Y8077D01*
Y7502D02*
Y7427D01*
X5486Y8077D02*
X4711D01*
X5711D02*
X6311D01*
X6561D01*
X6711D02*
X7536D01*
X7711D02*
X8461D01*
X10011D02*
X10711D01*
X10511Y7927D02*
X9661D01*
X8311D02*
X7561D01*
X7011D02*
X6636D01*
X6411D02*
X6211D01*
X5911D02*
X5636D01*
X5411D02*
X4636D01*
X12011Y8027D02*
X13311D01*
X12011Y7952D02*
X11911D01*
X12786D02*
X12911D01*
X13311D02*
X13686D01*
X9611Y8077D02*
X8611D01*
X7011Y6402D02*
Y6352D01*
Y6402D02*
Y6427D01*
Y7852D02*
Y7927D01*
X6911Y5952D02*
Y5852D01*
Y5952D02*
Y5977D01*
X8461Y8152D02*
X8611D01*
X4711D02*
X4511D01*
X5486D02*
X5561D01*
X5711D01*
X6561D02*
X6711D01*
X7536D02*
X7561D01*
X7711D01*
X9611D02*
X9661D01*
X9911D02*
X10011D01*
X11611Y8177D02*
X12811D01*
X11611Y8252D02*
X11411D01*
X12911D02*
X13011D01*
X12911D02*
X12811D01*
X13311D02*
X13686D01*
X9811Y8152D02*
X9661D01*
X9811D02*
X9911D01*
X7211Y6577D02*
Y6502D01*
X7111Y6027D02*
Y6002D01*
Y5952D01*
Y7777D02*
Y7852D01*
X7211D02*
Y8077D01*
Y8327D02*
Y8402D01*
X12886Y8327D02*
X13311D01*
X12836Y8377D02*
X12136D01*
X12086Y8327D02*
X12011D01*
X10436Y8402D02*
X10361D01*
X10211D01*
Y8477D02*
X9536D01*
Y8402D02*
X9461D01*
X9311D01*
Y8477D02*
X8636D01*
Y8402D02*
X8561D01*
Y8477D02*
X7911D01*
X7436D01*
Y8402D02*
X7361D01*
X7211D01*
X6536D02*
X6461D01*
X6311D01*
Y8477D02*
X5636D01*
Y8402D02*
X5561D01*
X5311D01*
Y8477D02*
X4636D01*
Y8402D02*
X4511D01*
X7711D02*
X7811D01*
X7211Y8327D02*
X6536D01*
X11211D02*
X12011D01*
X11211Y8502D02*
X10436D01*
X7411Y6427D02*
Y6352D01*
X7436Y8627D02*
Y8702D01*
X7286D02*
Y8627D01*
X7436Y6577D02*
Y6502D01*
X7286Y6727D02*
Y6802D01*
X7436Y8402D02*
Y8477D01*
X7311Y7277D02*
Y7202D01*
X7386Y7427D02*
Y7502D01*
X7411Y7777D02*
Y7852D01*
X7311Y9002D02*
Y9052D01*
Y9027D02*
Y9002D01*
Y9052D02*
Y9077D01*
Y9027D01*
X9611Y8627D02*
X10361D01*
Y8702D02*
X10511D01*
X10611D01*
X9611D02*
X9461D01*
X9386D01*
Y8627D02*
X8711D01*
Y8702D02*
X8561D01*
X8411D01*
Y8627D02*
X7911D01*
X7436D01*
Y8702D02*
X7361D01*
X7286D01*
X5711D02*
X5561D01*
X5411D01*
X4711D02*
X4511D01*
X5711Y8627D02*
X6461D01*
X6611D02*
X7286D01*
X6611D02*
X6461D01*
X7511Y6802D02*
Y6727D01*
X7536Y8077D02*
Y8152D01*
X7561Y7927D02*
Y7852D01*
X7511Y7277D02*
Y7202D01*
X7611Y7427D02*
Y7502D01*
X7511Y5952D02*
Y5852D01*
X5411Y8802D02*
X4711D01*
X7711Y6577D02*
Y6502D01*
Y8077D02*
Y8152D01*
X7786Y8977D02*
Y9077D01*
X11911Y8927D02*
X12111D01*
X12311D01*
X12611D01*
X12711D01*
X13011D01*
X11911D02*
X11811D01*
X11461D01*
X10811D01*
X10611Y9027D02*
X10461D01*
X10436Y9002D02*
X10411D01*
X10786D02*
X10811D01*
X10761Y9027D02*
X10611D01*
X10411Y9002D02*
X10261D01*
Y9077D02*
X9586D01*
Y9002D02*
X9511D01*
X9361D01*
Y9077D02*
X8661D01*
X4636Y9002D02*
X4511D01*
X4636Y9077D02*
X5311D01*
Y9002D02*
X5461D01*
X5586D01*
Y9077D02*
X6261D01*
X13311D02*
X13586D01*
Y9002D02*
X13711D01*
X13311Y9077D02*
X12611D01*
X12511D02*
X12011D01*
X12511Y9002D02*
X12611D01*
X11911Y9077D02*
X11386D01*
X11911Y9002D02*
X12011D01*
X11311D02*
X11211D01*
X11311D02*
X11386D01*
X6386D02*
X6261D01*
X6386Y9077D02*
X7311D01*
X7786D01*
X7836D01*
X7886Y9027D02*
X8661D01*
X7911Y8702D02*
Y8627D01*
Y8477D02*
Y8402D01*
X8011Y6577D02*
Y6502D01*
X9086Y9227D02*
X9511D01*
X9061Y9202D02*
X8761D01*
X5386Y9227D02*
X4711D01*
X12711D02*
X13311D01*
X12711D02*
X12211D01*
X12111D02*
X11611D01*
X11386D02*
X11011D01*
X10811D01*
X6386D02*
X5661D01*
X8211Y9452D02*
Y9527D01*
X8161Y9027D02*
Y8952D01*
X8211Y6577D02*
Y6502D01*
X8111Y6727D02*
Y6802D01*
X8211Y7202D02*
Y7277D01*
X4811Y9452D02*
X4511D01*
X8661Y9302D02*
X8761D01*
X9511D02*
X9661D01*
X11161Y9452D02*
X11261D01*
X8661D02*
X8511D01*
X5661Y9302D02*
X5461D01*
X5386D01*
X4711D02*
X4511D01*
X12661Y9377D02*
X13011D01*
X12511D02*
X12011D01*
X12511Y9302D02*
X12611D01*
X12011Y9377D02*
X11911D01*
X11311D01*
X11361Y9452D02*
X11461D01*
X11361D02*
X11261D01*
X10461Y9302D02*
X10411D01*
X13011Y9377D02*
X13711D01*
X12211Y9302D02*
X12111D01*
X11611D02*
X11461D01*
X11386D01*
X6711D02*
X6386D01*
X8411Y8702D02*
Y8627D01*
X8436Y6577D02*
Y6502D01*
X8311Y7852D02*
Y7927D01*
X8436Y7277D02*
Y7202D01*
X8286Y7427D02*
Y7502D01*
X8211Y9527D02*
X8511D01*
X11186Y9677D02*
X11511D01*
X6361Y9552D02*
X6311D01*
X6361D02*
X6536D01*
X6561Y9527D02*
X6736D01*
X5286Y9552D02*
X4861D01*
X8661Y9527D02*
X8861D01*
X8511D02*
Y9452D01*
X8611Y8152D02*
Y8077D01*
X8511Y6802D02*
Y6727D01*
X8636Y8402D02*
Y8477D01*
X8561D02*
Y8402D01*
X8461Y8152D02*
Y8077D01*
X8511Y7502D02*
Y7427D01*
X10761Y9702D02*
X11161D01*
X5211Y9777D02*
X4911D01*
X6361D02*
X6661D01*
X8761Y9302D02*
Y9202D01*
X8661Y9452D02*
Y9527D01*
Y9077D02*
Y9002D01*
X8711Y8702D02*
Y8627D01*
X8661Y9002D02*
Y9027D01*
X8611Y9952D02*
X9061D01*
X7911D02*
X7561D01*
X6461D02*
X6411D01*
X6361Y10002D02*
X6211D01*
X6161Y9952D02*
X6111D01*
X12011D02*
X12211D01*
X12311D01*
X11986Y9927D02*
X11811D01*
X12911Y9952D02*
X13111D01*
X12911D02*
X12811D01*
X10561D02*
X10436D01*
X10561D02*
X10661D01*
X10386Y9902D02*
X10211D01*
X12711Y9952D02*
X12811D01*
X12711D02*
X12611D01*
X12511D01*
X12411D01*
X12311D01*
X11061D02*
X10961D01*
X10861D01*
X9561D02*
X9461D01*
X9361D01*
X9261D01*
X9161D01*
X9061D01*
X8611D02*
X8511D01*
X8411D01*
X8311D01*
X8211D01*
X8111D01*
X8011D01*
X7911D01*
X7161D02*
X7061D01*
X6961D01*
X6661D02*
X6561D01*
X6461D01*
X5711D02*
X5611D01*
X5511D01*
X5411D02*
X5311D01*
X5211D01*
X5111D01*
X5011D01*
X9661D02*
X9761D01*
X10761D02*
X10861D01*
X10761D02*
X10661D01*
X6861D02*
X6761D01*
X8861Y9527D02*
Y9452D01*
X8911Y7277D02*
Y7202D01*
X9111Y6577D02*
Y6502D01*
X9211Y6727D02*
Y6802D01*
Y7202D02*
Y7277D01*
X9361Y9002D02*
Y9077D01*
X9386Y8702D02*
Y8627D01*
X9336Y6577D02*
Y6502D01*
X9411Y6727D02*
Y6802D01*
X9311Y8402D02*
Y8477D01*
X9286Y7502D02*
Y7427D01*
X9411Y5827D02*
Y5677D01*
X9511Y9227D02*
Y9302D01*
X9586Y9077D02*
Y9002D01*
X9611Y8702D02*
Y8627D01*
X9536Y8477D02*
Y8402D01*
X9611Y8152D02*
Y8077D01*
X9436Y7277D02*
Y7202D01*
X9511Y7427D02*
Y7502D01*
X9686Y6577D02*
Y6502D01*
Y6727D02*
Y6802D01*
X9661Y7852D02*
Y7927D01*
X9711Y7277D02*
Y7202D01*
X9836Y6577D02*
Y6502D01*
X9911Y6727D02*
Y6802D01*
X10011Y8077D02*
Y8152D01*
Y7277D02*
Y7202D01*
X10261Y9002D02*
Y9077D01*
X10361Y8702D02*
Y8627D01*
X10211Y8477D02*
Y8402D01*
Y7277D02*
Y7202D01*
Y7427D02*
Y7502D01*
X10511Y6577D02*
Y6502D01*
X10586Y6727D02*
Y6802D01*
X10511Y7852D02*
Y7927D01*
X10436Y7277D02*
Y7202D01*
X10511Y7427D02*
Y7502D01*
Y9352D02*
Y9402D01*
X10436Y8502D02*
Y8402D01*
X10611Y8952D02*
Y9027D01*
X10736Y6577D02*
Y6502D01*
X10711Y8077D02*
Y8152D01*
Y7277D02*
Y7202D01*
X10811Y8927D02*
Y9002D01*
Y6802D02*
Y6727D01*
Y9227D02*
Y9302D01*
X11011D02*
Y9227D01*
Y7277D02*
Y7202D01*
X11161Y8102D02*
Y8227D01*
X11211Y7277D02*
Y7202D01*
Y7427D02*
Y7502D01*
X11311Y9302D02*
Y9377D01*
X11211Y8327D02*
Y8277D01*
Y8327D02*
Y8402D01*
Y8502D01*
X11461Y8927D02*
Y9002D01*
X11561Y9377D02*
Y9627D01*
X11411Y6577D02*
Y6502D01*
X11486Y6727D02*
Y6802D01*
X11411Y7877D02*
Y7952D01*
X11386Y9227D02*
Y9302D01*
Y9077D02*
Y9002D01*
X11611Y7402D02*
Y7327D01*
X11636Y5852D02*
Y5677D01*
X11611Y8177D02*
Y8252D01*
Y9227D02*
Y9302D01*
X11661Y5652D02*
Y5602D01*
X11911Y8852D02*
Y8927D01*
X11811D02*
Y9002D01*
X11911Y9377D02*
Y9452D01*
Y7402D02*
Y7327D01*
X11811Y9852D02*
Y9927D01*
X11911Y5952D02*
Y5877D01*
X11936Y6877D02*
Y6952D01*
X11886Y7177D02*
Y7202D01*
Y7227D01*
X11911Y9002D02*
Y9077D01*
X12111Y9002D02*
Y8927D01*
X12011Y9302D02*
Y9377D01*
X12111Y7252D02*
Y7177D01*
X12011Y8252D02*
Y8327D01*
Y8027D02*
Y7952D01*
X12111Y9227D02*
Y9302D01*
X12011Y9077D02*
Y9002D01*
X12211Y6952D02*
Y6877D01*
Y7327D02*
Y7402D01*
X12311Y8927D02*
Y9002D01*
X12211Y9227D02*
Y9302D01*
X12311Y9002D02*
Y8852D01*
X12511Y6952D02*
Y6877D01*
X12411Y7252D02*
Y7327D01*
Y7877D02*
Y7952D01*
X12511Y9302D02*
Y9377D01*
X12411Y7027D02*
Y6952D01*
X12511Y7177D02*
Y7252D01*
Y9002D02*
Y9077D01*
X12561Y6877D02*
Y6802D01*
X12611Y8852D02*
Y8927D01*
X12711D02*
Y9002D01*
Y9227D02*
Y9302D01*
X12611Y7027D02*
Y6952D01*
Y9302D02*
Y9327D01*
Y7252D02*
Y7177D01*
Y9002D02*
Y9077D01*
X12811Y5952D02*
Y5877D01*
X12911Y6952D02*
Y7027D01*
X12811Y7177D02*
Y7252D01*
X12911D02*
Y7177D01*
X12811Y8177D02*
Y8252D01*
X12786Y7952D02*
Y7877D01*
X12911D02*
Y7952D01*
X13111Y6952D02*
Y6877D01*
X13011Y7252D02*
Y7327D01*
Y9302D02*
Y9377D01*
X12955Y6052D02*
Y5952D01*
X13111Y7177D02*
Y7252D01*
X13011Y8927D02*
Y9002D01*
Y7027D02*
Y6952D01*
X13211Y7877D02*
Y7952D01*
X13311Y9002D02*
Y9077D01*
Y10152D02*
Y10252D01*
Y6152D02*
Y6102D01*
Y9227D02*
Y9302D01*
Y8027D02*
Y7952D01*
Y8252D02*
Y8327D01*
X13411Y6952D02*
Y6877D01*
X13511Y6952D02*
Y7027D01*
X13411Y7802D02*
Y7877D01*
X13611Y7327D02*
Y7252D01*
X13711Y9302D02*
Y9377D01*
X13586Y9077D02*
Y9002D01*
D23*
X6111Y10052D02*
D03*
Y9952D02*
D03*
X6061Y10002D02*
D03*
X6111Y9852D02*
D03*
Y9752D02*
D03*
X6061Y9802D02*
D03*
X6111Y9602D02*
D03*
Y9502D02*
D03*
X6061Y9552D02*
D03*
X7561Y10052D02*
D03*
Y9952D02*
D03*
X7511Y10002D02*
D03*
X7561Y9852D02*
D03*
Y9752D02*
D03*
X7511Y9802D02*
D03*
X7561Y9602D02*
D03*
Y9502D02*
D03*
X7511Y9552D02*
D03*
X10511Y6252D02*
D03*
Y6152D02*
D03*
X10461Y6202D02*
D03*
X10511Y6052D02*
D03*
Y5952D02*
D03*
X10461Y6002D02*
D03*
X10211Y10202D02*
D03*
Y10102D02*
D03*
X10161Y10152D02*
D03*
X10211Y10002D02*
D03*
Y9902D02*
D03*
X10161Y9952D02*
D03*
X11711Y5752D02*
D03*
X11761Y5702D02*
D03*
X11711Y5652D02*
D03*
X12411Y6602D02*
D03*
X12461Y6652D02*
D03*
X12411Y6702D02*
D03*
X12011Y8602D02*
D03*
Y8702D02*
D03*
X12061Y8652D02*
D03*
X11161Y8002D02*
D03*
Y8102D02*
D03*
X11211Y8052D02*
D03*
X11911Y10002D02*
D03*
Y10102D02*
D03*
X11961Y10052D02*
D03*
X13611Y6502D02*
D03*
X13711D02*
D03*
X13661Y6452D02*
D03*
Y6802D02*
D03*
Y6702D02*
D03*
X13611Y6752D02*
D03*
X13111Y7502D02*
D03*
X13011D02*
D03*
X13061Y7552D02*
D03*
X13111Y7652D02*
D03*
X13011D02*
D03*
X13061Y7702D02*
D03*
D26*
X13461Y9152D02*
D03*
X13261Y8727D02*
D03*
X13211Y8427D02*
D03*
X12961Y7552D02*
D03*
X13011Y8402D02*
D03*
X13061Y8102D02*
D03*
Y10127D02*
D03*
Y9527D02*
D03*
X12911Y8677D02*
D03*
X12936Y7777D02*
D03*
X12786Y9527D02*
D03*
X12711Y6552D02*
D03*
X12611Y7752D02*
D03*
X12711Y7802D02*
D03*
X12561Y8102D02*
D03*
X12636D02*
D03*
X12486Y8502D02*
D03*
X12261Y9527D02*
D03*
Y9752D02*
D03*
X12111Y6677D02*
D03*
X12011Y6352D02*
D03*
Y8402D02*
D03*
X11861Y8552D02*
D03*
X11786Y8777D02*
D03*
X11911Y9152D02*
D03*
X11761Y6402D02*
D03*
X11611Y6427D02*
D03*
Y8652D02*
D03*
X11561Y5652D02*
D03*
X11486Y5702D02*
D03*
X11511Y6377D02*
D03*
X11461Y7102D02*
D03*
X11411Y6927D02*
D03*
X11536Y9227D02*
D03*
Y9152D02*
D03*
X11311Y6327D02*
D03*
X11211Y6927D02*
D03*
X11311Y6652D02*
D03*
Y7952D02*
D03*
X11211Y9377D02*
D03*
Y9752D02*
D03*
X11286Y9127D02*
D03*
X11361Y9552D02*
D03*
X11111Y5952D02*
D03*
X11011Y8852D02*
D03*
X11111Y8802D02*
D03*
X11186Y9602D02*
D03*
X10811Y6427D02*
D03*
X10911Y6377D02*
D03*
X10861Y7277D02*
D03*
Y7352D02*
D03*
X10961Y7752D02*
D03*
X10861Y7702D02*
D03*
X10811Y7952D02*
D03*
X10686Y6927D02*
D03*
X10611Y6877D02*
D03*
Y7102D02*
D03*
X10686Y6102D02*
D03*
X10761Y8852D02*
D03*
X10436Y7352D02*
D03*
X10411Y7002D02*
D03*
X10461Y6327D02*
D03*
X10511Y7102D02*
D03*
X10411Y7702D02*
D03*
X10561Y8827D02*
D03*
X10411Y10027D02*
D03*
X10236Y6352D02*
D03*
X10286Y7302D02*
D03*
X10311Y8277D02*
D03*
X10361Y8002D02*
D03*
X10311Y8902D02*
D03*
X10286Y8777D02*
D03*
X10261Y9702D02*
D03*
X10361Y9377D02*
D03*
X10161Y7052D02*
D03*
X10061Y6927D02*
D03*
X10161Y6102D02*
D03*
X10061Y6052D02*
D03*
X10111Y7702D02*
D03*
Y8552D02*
D03*
X10086Y8002D02*
D03*
X10186Y8877D02*
D03*
X10086Y8777D02*
D03*
X10061Y8227D02*
D03*
X10111Y8327D02*
D03*
X10161Y7577D02*
D03*
X10086Y10252D02*
D03*
X10061Y9602D02*
D03*
X10161Y9202D02*
D03*
X10111Y9727D02*
D03*
X9961Y7002D02*
D03*
X9911Y8852D02*
D03*
X9861Y7702D02*
D03*
Y8227D02*
D03*
X9836Y8902D02*
D03*
X9936Y8002D02*
D03*
X9836Y10002D02*
D03*
X9961Y10052D02*
D03*
X10011Y10202D02*
D03*
X9886Y10102D02*
D03*
X9911Y9677D02*
D03*
X9811Y6877D02*
D03*
Y7302D02*
D03*
X9711Y8327D02*
D03*
Y8927D02*
D03*
X9636Y7702D02*
D03*
X9786Y9652D02*
D03*
X9761Y9727D02*
D03*
X9561Y7977D02*
D03*
X9461Y7602D02*
D03*
X9586Y7777D02*
D03*
X9436Y10202D02*
D03*
X9611Y7077D02*
D03*
Y8227D02*
D03*
X9411Y7402D02*
D03*
X9236Y6652D02*
D03*
X9311Y7327D02*
D03*
X9261Y7602D02*
D03*
X9311Y7677D02*
D03*
X9261Y9702D02*
D03*
X9411Y9602D02*
D03*
Y9127D02*
D03*
Y9752D02*
D03*
X9061Y6952D02*
D03*
X9161Y7027D02*
D03*
X9111Y6652D02*
D03*
X9211Y8302D02*
D03*
Y7677D02*
D03*
X9111Y7777D02*
D03*
X9061Y8252D02*
D03*
X9111Y8777D02*
D03*
X9161Y9652D02*
D03*
X9211Y9552D02*
D03*
X8936Y6277D02*
D03*
X8911Y7602D02*
D03*
X8936Y8002D02*
D03*
X8861Y8852D02*
D03*
X8736Y6977D02*
D03*
X8811Y7027D02*
D03*
X8736Y6277D02*
D03*
X8761Y8902D02*
D03*
X8711Y8277D02*
D03*
Y8552D02*
D03*
X8661Y7727D02*
D03*
X8761Y7777D02*
D03*
X8811Y7627D02*
D03*
Y8552D02*
D03*
Y10327D02*
D03*
X8636Y5652D02*
D03*
X8511Y5702D02*
D03*
X8586Y5902D02*
D03*
X8561Y7077D02*
D03*
X8611Y6952D02*
D03*
X8461Y6927D02*
D03*
X8561Y7677D02*
D03*
X8536Y8252D02*
D03*
X8286Y6102D02*
D03*
X8436Y6652D02*
D03*
X8311Y8552D02*
D03*
X8361Y8777D02*
D03*
X8411Y9177D02*
D03*
X8311Y9227D02*
D03*
X8136Y5652D02*
D03*
X8111Y6902D02*
D03*
X8211Y6702D02*
D03*
X8186Y6152D02*
D03*
X8111Y8077D02*
D03*
X8211Y7627D02*
D03*
X8061Y8902D02*
D03*
X8211Y8552D02*
D03*
X8061Y9552D02*
D03*
X8011Y6652D02*
D03*
X7961Y7077D02*
D03*
X8011Y7352D02*
D03*
X7961Y7602D02*
D03*
X8011Y7727D02*
D03*
X7986Y9302D02*
D03*
X7761Y6402D02*
D03*
X7811Y6977D02*
D03*
Y7352D02*
D03*
X7786Y6152D02*
D03*
X7861Y8002D02*
D03*
X7611Y6652D02*
D03*
X7661Y8277D02*
D03*
X7511Y7677D02*
D03*
X7536Y9402D02*
D03*
X7286Y8902D02*
D03*
X7361Y8552D02*
D03*
X7411Y10177D02*
D03*
X7336Y10127D02*
D03*
X7086Y6202D02*
D03*
X7111Y7352D02*
D03*
X7086Y6977D02*
D03*
X7211Y6652D02*
D03*
X7261Y8227D02*
D03*
X7186Y10127D02*
D03*
X7111Y9702D02*
D03*
X7261Y9752D02*
D03*
Y10252D02*
D03*
X6886Y6077D02*
D03*
X6986Y6977D02*
D03*
Y8552D02*
D03*
X7061Y9152D02*
D03*
X6961Y9602D02*
D03*
Y9377D02*
D03*
X6911Y9752D02*
D03*
X7011D02*
D03*
X6736Y6927D02*
D03*
X6711Y7052D02*
D03*
X6811Y7077D02*
D03*
X6861Y6902D02*
D03*
X6761Y6077D02*
D03*
X6861Y8252D02*
D03*
X6711Y8927D02*
D03*
X6811Y8852D02*
D03*
Y9652D02*
D03*
X6661Y6877D02*
D03*
Y8802D02*
D03*
X6536Y8702D02*
D03*
X6586Y9602D02*
D03*
X6311Y6977D02*
D03*
X6411Y7027D02*
D03*
X6461Y9652D02*
D03*
X6311Y9927D02*
D03*
X6261Y5777D02*
D03*
X6161Y5652D02*
D03*
X6261Y7127D02*
D03*
X6161Y7077D02*
D03*
X6211Y6652D02*
D03*
X6136Y7677D02*
D03*
X6211Y7627D02*
D03*
X6261Y9702D02*
D03*
X6186Y9402D02*
D03*
X5986Y5702D02*
D03*
X6061Y7352D02*
D03*
X5961Y6977D02*
D03*
X5911Y6902D02*
D03*
X6011Y8877D02*
D03*
X5961Y7777D02*
D03*
X6061Y7727D02*
D03*
X5911Y10102D02*
D03*
X5811Y6652D02*
D03*
Y7027D02*
D03*
X5711Y8002D02*
D03*
X5811Y8827D02*
D03*
X5711Y8777D02*
D03*
X5861Y9152D02*
D03*
X5761Y9702D02*
D03*
X5786Y10052D02*
D03*
X5836Y10152D02*
D03*
X5636Y7402D02*
D03*
X5686Y6202D02*
D03*
X5661Y9652D02*
D03*
X5611Y9777D02*
D03*
X5361Y7127D02*
D03*
X5486Y7627D02*
D03*
X5411Y9702D02*
D03*
X5461Y10202D02*
D03*
X5511Y9627D02*
D03*
X5461Y9527D02*
D03*
X5136Y6652D02*
D03*
X5261Y8002D02*
D03*
X5161Y8902D02*
D03*
Y8227D02*
D03*
X5236Y7652D02*
D03*
X5161Y9702D02*
D03*
X5111Y7652D02*
D03*
X5061Y7777D02*
D03*
X4861Y6652D02*
D03*
X4811Y8277D02*
D03*
X4911Y8552D02*
D03*
X4711Y6902D02*
D03*
X4561Y5902D02*
D03*
X4661D02*
D03*
X4811Y7202D02*
D03*
X4911D02*
D03*
X5011D02*
D03*
X5111D02*
D03*
X5211D02*
D03*
X5311D02*
D03*
X5411D02*
D03*
Y7502D02*
D03*
X5311D02*
D03*
X5211D02*
D03*
X5111D02*
D03*
X5011D02*
D03*
X4911D02*
D03*
X4811D02*
D03*
X4711D02*
D03*
X4511Y6802D02*
D03*
Y6502D02*
D03*
X4811D02*
D03*
X4911D02*
D03*
X5011D02*
D03*
X5111D02*
D03*
X5211D02*
D03*
X5311D02*
D03*
Y6802D02*
D03*
X5211D02*
D03*
X5111D02*
D03*
X5011D02*
D03*
X4911D02*
D03*
X4811D02*
D03*
X4711D02*
D03*
X4511Y7502D02*
D03*
Y7202D02*
D03*
Y8702D02*
D03*
Y8402D02*
D03*
X4811D02*
D03*
X4911D02*
D03*
X5011D02*
D03*
X5111D02*
D03*
X5211D02*
D03*
X5311D02*
D03*
Y8702D02*
D03*
X5211D02*
D03*
X5111D02*
D03*
X5011D02*
D03*
X4911D02*
D03*
X4811D02*
D03*
X4711D02*
D03*
X4511Y8152D02*
D03*
Y7852D02*
D03*
X4811D02*
D03*
X4911D02*
D03*
X5011D02*
D03*
X5111D02*
D03*
X5211D02*
D03*
X5311D02*
D03*
X5411D02*
D03*
Y8152D02*
D03*
X5311D02*
D03*
X5211D02*
D03*
X5111D02*
D03*
X5011D02*
D03*
X4911D02*
D03*
X4811D02*
D03*
X4711D02*
D03*
X4811Y9002D02*
D03*
X4911D02*
D03*
X5011D02*
D03*
X5111D02*
D03*
X5211D02*
D03*
X5311D02*
D03*
Y9302D02*
D03*
X5211D02*
D03*
X5111D02*
D03*
X5011D02*
D03*
X4911D02*
D03*
X4811D02*
D03*
X4711D02*
D03*
X4511D02*
D03*
Y9002D02*
D03*
X4811Y9452D02*
D03*
Y9852D02*
D03*
X4911Y9452D02*
D03*
Y9852D02*
D03*
X5711Y5952D02*
D03*
Y6352D02*
D03*
X5911Y5952D02*
D03*
Y6352D02*
D03*
X5211Y5752D02*
D03*
Y5852D02*
D03*
X5311Y5752D02*
D03*
Y5852D02*
D03*
X5411Y5752D02*
D03*
Y5852D02*
D03*
X5511Y5752D02*
D03*
Y5852D02*
D03*
X5611Y5752D02*
D03*
Y5852D02*
D03*
X5711Y5752D02*
D03*
Y5852D02*
D03*
X5811Y5752D02*
D03*
Y5852D02*
D03*
X5911Y5752D02*
D03*
X5611Y5952D02*
D03*
Y6352D02*
D03*
X5811Y7202D02*
D03*
X5911D02*
D03*
X6011D02*
D03*
X6111D02*
D03*
X6211D02*
D03*
X6311D02*
D03*
X6411D02*
D03*
Y7502D02*
D03*
X6311D02*
D03*
X6211D02*
D03*
X6111D02*
D03*
X6011D02*
D03*
X5911D02*
D03*
X5811D02*
D03*
X5711D02*
D03*
X5561D02*
D03*
Y7202D02*
D03*
X6461Y6802D02*
D03*
Y6502D02*
D03*
X5711D02*
D03*
X5811D02*
D03*
X5911D02*
D03*
X6011D02*
D03*
X6111D02*
D03*
X6211D02*
D03*
X6311D02*
D03*
Y6802D02*
D03*
X6211D02*
D03*
X6111D02*
D03*
X6011D02*
D03*
X5911D02*
D03*
X5811D02*
D03*
X5711D02*
D03*
X5611D02*
D03*
X5461D02*
D03*
Y6502D02*
D03*
X6111Y5952D02*
D03*
Y6352D02*
D03*
X6011Y5952D02*
D03*
Y6352D02*
D03*
X5511Y5952D02*
D03*
Y6352D02*
D03*
X5811Y6252D02*
D03*
Y6052D02*
D03*
X6461Y8702D02*
D03*
Y8402D02*
D03*
X5561Y8702D02*
D03*
Y8402D02*
D03*
X5811D02*
D03*
X5911D02*
D03*
X6011D02*
D03*
X6111D02*
D03*
X6211D02*
D03*
X6311D02*
D03*
Y8702D02*
D03*
X6211D02*
D03*
X6111D02*
D03*
X6011D02*
D03*
X5911D02*
D03*
X5811D02*
D03*
X5711D02*
D03*
X5761Y9002D02*
D03*
X5861D02*
D03*
X5961D02*
D03*
X6061D02*
D03*
X6161D02*
D03*
X6261D02*
D03*
Y9302D02*
D03*
X6161D02*
D03*
X6061D02*
D03*
X5961D02*
D03*
X5861D02*
D03*
X5761D02*
D03*
X5661D02*
D03*
X5561Y8152D02*
D03*
Y7852D02*
D03*
X5811D02*
D03*
X5911D02*
D03*
X6011D02*
D03*
X6111D02*
D03*
X6211D02*
D03*
X6311D02*
D03*
X6411D02*
D03*
Y8152D02*
D03*
X6311D02*
D03*
X6211D02*
D03*
X6111D02*
D03*
X6011D02*
D03*
X5911D02*
D03*
X5811D02*
D03*
X5711D02*
D03*
Y10052D02*
D03*
Y9952D02*
D03*
X5611Y10052D02*
D03*
Y9952D02*
D03*
X5511Y10052D02*
D03*
Y9952D02*
D03*
X5411Y10052D02*
D03*
Y9952D02*
D03*
X5311Y10052D02*
D03*
Y9952D02*
D03*
X5211Y10052D02*
D03*
Y9952D02*
D03*
X5111Y10052D02*
D03*
Y9952D02*
D03*
X5011Y10052D02*
D03*
X5311Y9452D02*
D03*
Y9852D02*
D03*
X6386Y9302D02*
D03*
Y9002D02*
D03*
X5461Y9302D02*
D03*
Y9002D02*
D03*
X5911Y9852D02*
D03*
Y9452D02*
D03*
X5811Y9852D02*
D03*
Y9452D02*
D03*
X5411Y9852D02*
D03*
Y9452D02*
D03*
X6261D02*
D03*
Y9852D02*
D03*
X6361Y9452D02*
D03*
Y9852D02*
D03*
X6461D02*
D03*
Y9452D02*
D03*
X7161Y10052D02*
D03*
Y9952D02*
D03*
X7061Y10052D02*
D03*
Y9952D02*
D03*
X6961Y10052D02*
D03*
Y9952D02*
D03*
X6861Y10052D02*
D03*
Y9952D02*
D03*
X6761Y10052D02*
D03*
Y9952D02*
D03*
X6661Y10052D02*
D03*
Y9952D02*
D03*
X6561Y10052D02*
D03*
Y9952D02*
D03*
X6461Y10052D02*
D03*
X5211Y9452D02*
D03*
Y9852D02*
D03*
X5711Y9452D02*
D03*
Y9852D02*
D03*
X5611Y9452D02*
D03*
Y9852D02*
D03*
X5511Y9452D02*
D03*
Y9852D02*
D03*
X5111D02*
D03*
Y9452D02*
D03*
X5011Y9852D02*
D03*
Y9452D02*
D03*
X7111Y5952D02*
D03*
Y6352D02*
D03*
X7311Y5952D02*
D03*
Y6352D02*
D03*
X6611Y5752D02*
D03*
Y5852D02*
D03*
X6711Y5752D02*
D03*
Y5852D02*
D03*
X6811Y5752D02*
D03*
Y5852D02*
D03*
X6911Y5752D02*
D03*
Y5852D02*
D03*
X7011Y5752D02*
D03*
Y5852D02*
D03*
X7111Y5752D02*
D03*
Y5852D02*
D03*
X7211Y5752D02*
D03*
Y5852D02*
D03*
X7311Y5752D02*
D03*
X8036Y5952D02*
D03*
Y6352D02*
D03*
X7711Y7202D02*
D03*
X7811D02*
D03*
X7911D02*
D03*
X8011D02*
D03*
X8111D02*
D03*
X8211D02*
D03*
Y7502D02*
D03*
X8111D02*
D03*
X8011D02*
D03*
X7911D02*
D03*
X7811D02*
D03*
X7711D02*
D03*
X7611D02*
D03*
X7461D02*
D03*
Y7202D02*
D03*
X6811D02*
D03*
X6911D02*
D03*
X7011D02*
D03*
X7111D02*
D03*
X7211D02*
D03*
X7311D02*
D03*
Y7502D02*
D03*
X7211D02*
D03*
X7111D02*
D03*
X7011D02*
D03*
X6911D02*
D03*
X6811D02*
D03*
X6711D02*
D03*
X6561D02*
D03*
Y7202D02*
D03*
X7611Y6502D02*
D03*
X7711D02*
D03*
X7811D02*
D03*
X7911D02*
D03*
X8011D02*
D03*
X8111D02*
D03*
X8211D02*
D03*
Y6802D02*
D03*
X8111D02*
D03*
X8011D02*
D03*
X7911D02*
D03*
X7811D02*
D03*
X7711D02*
D03*
X7611D02*
D03*
X7511D02*
D03*
X7361D02*
D03*
Y6502D02*
D03*
X6711D02*
D03*
X6811D02*
D03*
X6911D02*
D03*
X7011D02*
D03*
X7111D02*
D03*
X7211D02*
D03*
Y6802D02*
D03*
X7111D02*
D03*
X7011D02*
D03*
X6911D02*
D03*
X6811D02*
D03*
X6711D02*
D03*
X6611D02*
D03*
X7511Y5952D02*
D03*
Y6352D02*
D03*
X7411Y5952D02*
D03*
Y6352D02*
D03*
X6911Y5952D02*
D03*
Y6352D02*
D03*
X7011Y5952D02*
D03*
Y6352D02*
D03*
X7211Y6252D02*
D03*
Y6052D02*
D03*
X7836Y5952D02*
D03*
Y6352D02*
D03*
X7936Y5952D02*
D03*
Y6352D02*
D03*
X7486Y8977D02*
D03*
X7786D02*
D03*
X6811Y9002D02*
D03*
X6911D02*
D03*
X7011D02*
D03*
X7111D02*
D03*
X7211D02*
D03*
X7311D02*
D03*
Y9302D02*
D03*
X7211D02*
D03*
X7111D02*
D03*
X7011D02*
D03*
X6911D02*
D03*
X6811D02*
D03*
X6711D02*
D03*
X7611Y8852D02*
D03*
X7811D02*
D03*
X7461D02*
D03*
X7361D02*
D03*
X7611Y8402D02*
D03*
X7711D02*
D03*
X7811D02*
D03*
X7911D02*
D03*
X8011D02*
D03*
X8111D02*
D03*
X8211D02*
D03*
X8311D02*
D03*
Y8702D02*
D03*
X8211D02*
D03*
X8111D02*
D03*
X8011D02*
D03*
X7911D02*
D03*
X7811D02*
D03*
X7711D02*
D03*
X7611D02*
D03*
X7511D02*
D03*
X7361D02*
D03*
Y8402D02*
D03*
X6711D02*
D03*
X6811D02*
D03*
X6911D02*
D03*
X7011D02*
D03*
X7111D02*
D03*
X7211D02*
D03*
Y8702D02*
D03*
X7111D02*
D03*
X7011D02*
D03*
X6911D02*
D03*
X6811D02*
D03*
X6711D02*
D03*
X6611D02*
D03*
X6561Y8152D02*
D03*
Y7852D02*
D03*
X7811D02*
D03*
X7911D02*
D03*
X8011D02*
D03*
X8111D02*
D03*
X8211D02*
D03*
X8311D02*
D03*
Y8152D02*
D03*
X8211D02*
D03*
X8111D02*
D03*
X8011D02*
D03*
X7911D02*
D03*
X7811D02*
D03*
X7711D02*
D03*
X7561D02*
D03*
Y7852D02*
D03*
X6811D02*
D03*
X6911D02*
D03*
X7011D02*
D03*
X7111D02*
D03*
X7211D02*
D03*
X7311D02*
D03*
X7411D02*
D03*
Y8152D02*
D03*
X7311D02*
D03*
X7211D02*
D03*
X7111D02*
D03*
X7011D02*
D03*
X6911D02*
D03*
X6811D02*
D03*
X6711D02*
D03*
X6661Y9452D02*
D03*
Y9852D02*
D03*
X7161Y9452D02*
D03*
Y9852D02*
D03*
X6486Y9302D02*
D03*
Y8902D02*
D03*
X6611D02*
D03*
Y9302D02*
D03*
X7361Y9852D02*
D03*
Y9452D02*
D03*
X7261Y9852D02*
D03*
Y9452D02*
D03*
X6861Y9852D02*
D03*
Y9452D02*
D03*
X8011D02*
D03*
Y9852D02*
D03*
X7711Y9452D02*
D03*
Y9852D02*
D03*
X7811Y9452D02*
D03*
Y9852D02*
D03*
X7911D02*
D03*
Y9452D02*
D03*
X8611Y10052D02*
D03*
Y9952D02*
D03*
X8511Y10052D02*
D03*
Y9952D02*
D03*
X8411Y10052D02*
D03*
Y9952D02*
D03*
X8311Y10052D02*
D03*
Y9952D02*
D03*
X8211Y10052D02*
D03*
Y9952D02*
D03*
X8111Y10052D02*
D03*
Y9952D02*
D03*
X8011Y10052D02*
D03*
Y9952D02*
D03*
X7911Y10052D02*
D03*
X6761Y9452D02*
D03*
Y9852D02*
D03*
X7061Y9452D02*
D03*
Y9852D02*
D03*
X6961Y9452D02*
D03*
Y9852D02*
D03*
X6561D02*
D03*
Y9452D02*
D03*
X9286Y5752D02*
D03*
X9186Y5852D02*
D03*
Y5752D02*
D03*
X9086Y5852D02*
D03*
Y5752D02*
D03*
X8986Y5852D02*
D03*
Y5752D02*
D03*
X8886Y5852D02*
D03*
Y5752D02*
D03*
X9561Y5952D02*
D03*
Y6352D02*
D03*
X7736Y5752D02*
D03*
Y5852D02*
D03*
X7836Y5752D02*
D03*
Y5852D02*
D03*
X7936Y5752D02*
D03*
Y5852D02*
D03*
X8036Y5752D02*
D03*
Y5852D02*
D03*
X8136Y5752D02*
D03*
Y5852D02*
D03*
X8236Y5752D02*
D03*
Y5852D02*
D03*
X8336Y5752D02*
D03*
Y5852D02*
D03*
X8436Y5752D02*
D03*
X8236Y5952D02*
D03*
Y6352D02*
D03*
X9186Y5952D02*
D03*
Y6352D02*
D03*
X9286Y5952D02*
D03*
Y6352D02*
D03*
X8611Y7202D02*
D03*
X8711D02*
D03*
X8811D02*
D03*
X8911D02*
D03*
X9011D02*
D03*
X9111D02*
D03*
X9211D02*
D03*
Y7502D02*
D03*
X9111D02*
D03*
X9011D02*
D03*
X8911D02*
D03*
X8811D02*
D03*
X8711D02*
D03*
X8611D02*
D03*
X8511D02*
D03*
X9461Y5952D02*
D03*
Y6352D02*
D03*
X9611Y7202D02*
D03*
X9711D02*
D03*
X9811D02*
D03*
X9911D02*
D03*
X10011D02*
D03*
X10111D02*
D03*
X10211D02*
D03*
Y7502D02*
D03*
X10111D02*
D03*
X10011D02*
D03*
X9911D02*
D03*
X9811D02*
D03*
X9711D02*
D03*
X9611D02*
D03*
X9511D02*
D03*
X8361D02*
D03*
Y7202D02*
D03*
X9361Y7502D02*
D03*
Y7202D02*
D03*
X9511Y6502D02*
D03*
X9611D02*
D03*
Y6802D02*
D03*
X9511D02*
D03*
X9411D02*
D03*
X9261D02*
D03*
Y6502D02*
D03*
X8611D02*
D03*
X8711D02*
D03*
X8811D02*
D03*
X8911D02*
D03*
X9011D02*
D03*
X9111D02*
D03*
Y6802D02*
D03*
X9011D02*
D03*
X8911D02*
D03*
X8811D02*
D03*
X8711D02*
D03*
X8611D02*
D03*
X8511D02*
D03*
X8361D02*
D03*
Y6502D02*
D03*
X8136Y6252D02*
D03*
Y6052D02*
D03*
X8336Y5952D02*
D03*
Y6352D02*
D03*
X8436Y5952D02*
D03*
Y6352D02*
D03*
X8686D02*
D03*
Y5952D02*
D03*
X8786D02*
D03*
Y6352D02*
D03*
X8886Y5952D02*
D03*
Y6352D02*
D03*
X8986Y5952D02*
D03*
Y6352D02*
D03*
X9086Y5952D02*
D03*
Y6352D02*
D03*
X8011Y8802D02*
D03*
X8111D02*
D03*
X8261Y8952D02*
D03*
Y9352D02*
D03*
X8811Y8402D02*
D03*
X8911D02*
D03*
X9011D02*
D03*
X9111D02*
D03*
X9211D02*
D03*
X9311D02*
D03*
Y8702D02*
D03*
X9211D02*
D03*
X9111D02*
D03*
X9011D02*
D03*
X8911D02*
D03*
X8811D02*
D03*
X8711D02*
D03*
X9461D02*
D03*
Y8402D02*
D03*
X8561Y8702D02*
D03*
Y8402D02*
D03*
X8711Y7852D02*
D03*
X8811D02*
D03*
X8911D02*
D03*
X9011D02*
D03*
X9111D02*
D03*
X9211D02*
D03*
X9311D02*
D03*
X9411D02*
D03*
X9511D02*
D03*
Y8152D02*
D03*
X9411D02*
D03*
X9311D02*
D03*
X9211D02*
D03*
X9111D02*
D03*
X9011D02*
D03*
X8911D02*
D03*
X8811D02*
D03*
X8711D02*
D03*
X8611D02*
D03*
X8461D02*
D03*
Y7852D02*
D03*
X8561Y8952D02*
D03*
Y9352D02*
D03*
X8861Y9002D02*
D03*
X8961D02*
D03*
X9061D02*
D03*
X9161D02*
D03*
X9261D02*
D03*
X9361D02*
D03*
Y9302D02*
D03*
X9261D02*
D03*
X9161D02*
D03*
X9061D02*
D03*
X8961D02*
D03*
X8861D02*
D03*
X8761D02*
D03*
X8211Y9452D02*
D03*
Y9852D02*
D03*
X8361Y9302D02*
D03*
Y9102D02*
D03*
X8161Y8952D02*
D03*
Y9352D02*
D03*
X8061Y9302D02*
D03*
Y9102D02*
D03*
X9511Y9302D02*
D03*
Y9002D02*
D03*
X8661Y9302D02*
D03*
Y9002D02*
D03*
X8461Y8952D02*
D03*
Y9352D02*
D03*
X9561Y9452D02*
D03*
Y9852D02*
D03*
X9461Y9452D02*
D03*
Y9852D02*
D03*
X8661Y9452D02*
D03*
Y9852D02*
D03*
X8761Y9452D02*
D03*
Y9852D02*
D03*
X8861Y9452D02*
D03*
Y9852D02*
D03*
X8961Y9452D02*
D03*
Y9852D02*
D03*
X9361D02*
D03*
Y9452D02*
D03*
X9261Y9852D02*
D03*
Y9452D02*
D03*
X9161Y9852D02*
D03*
Y9452D02*
D03*
X9061Y9852D02*
D03*
Y9452D02*
D03*
X9761Y10052D02*
D03*
Y9952D02*
D03*
X9661Y10052D02*
D03*
Y9952D02*
D03*
X9561Y10052D02*
D03*
Y9952D02*
D03*
X9461Y10052D02*
D03*
Y9952D02*
D03*
X9361Y10052D02*
D03*
Y9952D02*
D03*
X9261Y10052D02*
D03*
Y9952D02*
D03*
X9161Y10052D02*
D03*
Y9952D02*
D03*
X9061Y10052D02*
D03*
X8511Y9452D02*
D03*
Y9852D02*
D03*
X8411Y9452D02*
D03*
Y9852D02*
D03*
X8311D02*
D03*
Y9452D02*
D03*
X8111Y9852D02*
D03*
Y9452D02*
D03*
X9661Y6352D02*
D03*
Y5952D02*
D03*
X9761Y6352D02*
D03*
Y5952D02*
D03*
X9861Y6352D02*
D03*
Y5952D02*
D03*
X10061Y6352D02*
D03*
Y5952D02*
D03*
X10361Y6352D02*
D03*
Y5952D02*
D03*
X10611Y7202D02*
D03*
X10711D02*
D03*
X10811D02*
D03*
X10911D02*
D03*
X11011D02*
D03*
X11111D02*
D03*
X11211D02*
D03*
Y7502D02*
D03*
X11111D02*
D03*
X11011D02*
D03*
X10911D02*
D03*
X10811D02*
D03*
X10711D02*
D03*
X10611D02*
D03*
X10511D02*
D03*
X10361D02*
D03*
Y7202D02*
D03*
X10911Y6502D02*
D03*
X11011D02*
D03*
X11111D02*
D03*
X11211D02*
D03*
X11311D02*
D03*
X11411D02*
D03*
Y6802D02*
D03*
X11311D02*
D03*
X11211D02*
D03*
X11111D02*
D03*
X11011D02*
D03*
X10911D02*
D03*
X10811D02*
D03*
X10661D02*
D03*
Y6502D02*
D03*
X10011D02*
D03*
X10111D02*
D03*
X10211D02*
D03*
X10311D02*
D03*
X10411D02*
D03*
X10511D02*
D03*
Y6802D02*
D03*
X10411D02*
D03*
X10311D02*
D03*
X10211D02*
D03*
X10111D02*
D03*
X10011D02*
D03*
X9911D02*
D03*
X9761D02*
D03*
Y6502D02*
D03*
X10161Y6352D02*
D03*
Y5952D02*
D03*
X9961Y6352D02*
D03*
Y5952D02*
D03*
X11011Y8252D02*
D03*
Y7852D02*
D03*
X10711Y8152D02*
D03*
Y7852D02*
D03*
X11011Y9002D02*
D03*
X11111D02*
D03*
X11211D02*
D03*
Y9302D02*
D03*
X11111D02*
D03*
X11011D02*
D03*
X10911D02*
D03*
X10611Y8402D02*
D03*
X10711D02*
D03*
X10811D02*
D03*
X10911D02*
D03*
X11011D02*
D03*
X11111D02*
D03*
X11211D02*
D03*
Y8702D02*
D03*
X11111D02*
D03*
X11011D02*
D03*
X10911D02*
D03*
X10811D02*
D03*
X10711D02*
D03*
X10611D02*
D03*
X10511D02*
D03*
X10361D02*
D03*
Y8402D02*
D03*
X9711D02*
D03*
X9811D02*
D03*
X9911D02*
D03*
X10011D02*
D03*
X10111D02*
D03*
X10211D02*
D03*
Y8702D02*
D03*
X10111D02*
D03*
X10011D02*
D03*
X9911D02*
D03*
X9811D02*
D03*
X9711D02*
D03*
X9611D02*
D03*
X9761Y9002D02*
D03*
X9861D02*
D03*
X9961D02*
D03*
X10061D02*
D03*
X10161D02*
D03*
X10261D02*
D03*
Y9302D02*
D03*
X10161D02*
D03*
X10061D02*
D03*
X9961D02*
D03*
X9861D02*
D03*
X9761D02*
D03*
X9661D02*
D03*
X9911Y7852D02*
D03*
X10011D02*
D03*
X10111D02*
D03*
X10211D02*
D03*
X10311D02*
D03*
X10411D02*
D03*
X10511D02*
D03*
Y8152D02*
D03*
X10411D02*
D03*
X10311D02*
D03*
X10211D02*
D03*
X10111D02*
D03*
X10011D02*
D03*
X9911D02*
D03*
X9811D02*
D03*
X9661D02*
D03*
Y7852D02*
D03*
X11061Y9852D02*
D03*
Y9452D02*
D03*
X10761Y9552D02*
D03*
Y9702D02*
D03*
X11461Y10052D02*
D03*
Y9952D02*
D03*
X11361Y10052D02*
D03*
Y9952D02*
D03*
X11261Y10052D02*
D03*
Y9952D02*
D03*
X11161Y10052D02*
D03*
Y9952D02*
D03*
X11061Y10052D02*
D03*
Y9952D02*
D03*
X10961Y10052D02*
D03*
Y9952D02*
D03*
X10861Y10052D02*
D03*
Y9952D02*
D03*
X10761Y10052D02*
D03*
Y9952D02*
D03*
X10661Y10052D02*
D03*
Y9952D02*
D03*
X10561Y10052D02*
D03*
X10811Y9302D02*
D03*
Y9002D02*
D03*
X10711Y9352D02*
D03*
Y8952D02*
D03*
X10611D02*
D03*
Y9352D02*
D03*
X10511Y8952D02*
D03*
Y9352D02*
D03*
X10411Y9302D02*
D03*
Y9002D02*
D03*
X11161Y9852D02*
D03*
Y9452D02*
D03*
X10961Y9852D02*
D03*
Y9452D02*
D03*
X10861D02*
D03*
Y9852D02*
D03*
X10461Y9552D02*
D03*
Y9702D02*
D03*
X10661Y9852D02*
D03*
Y9452D02*
D03*
X10561D02*
D03*
Y9852D02*
D03*
X10161Y9452D02*
D03*
Y9852D02*
D03*
X10061Y9452D02*
D03*
Y9852D02*
D03*
X9961Y9452D02*
D03*
Y9852D02*
D03*
X9861Y9452D02*
D03*
Y9852D02*
D03*
X9761Y9452D02*
D03*
Y9852D02*
D03*
X9661Y9452D02*
D03*
Y9852D02*
D03*
X9711Y5852D02*
D03*
X9811D02*
D03*
X9911D02*
D03*
X10011D02*
D03*
X10111D02*
D03*
X10211D02*
D03*
X10311D02*
D03*
X10411D02*
D03*
X10511D02*
D03*
X10611D02*
D03*
X10711D02*
D03*
X10811D02*
D03*
X10911D02*
D03*
X11011D02*
D03*
X11211D02*
D03*
X9711Y5752D02*
D03*
X9811D02*
D03*
X9911D02*
D03*
X10011D02*
D03*
X10111D02*
D03*
X10211D02*
D03*
X10311D02*
D03*
X10411D02*
D03*
X10511D02*
D03*
X10611D02*
D03*
X10711D02*
D03*
X10811D02*
D03*
X10911D02*
D03*
X11011D02*
D03*
X11111D02*
D03*
X11211D02*
D03*
X11311D02*
D03*
X11111Y5852D02*
D03*
X11911Y5952D02*
D03*
Y5552D02*
D03*
X12011Y5952D02*
D03*
Y5552D02*
D03*
X12111D02*
D03*
Y5952D02*
D03*
X12311Y5552D02*
D03*
Y6052D02*
D03*
X12211Y5752D02*
D03*
X11561Y6802D02*
D03*
Y6502D02*
D03*
X11361Y7502D02*
D03*
Y7202D02*
D03*
X11861Y7252D02*
D03*
Y6952D02*
D03*
X11711Y7402D02*
D03*
Y7802D02*
D03*
X11811Y7402D02*
D03*
Y7802D02*
D03*
X12561Y6402D02*
D03*
Y6802D02*
D03*
X12311D02*
D03*
Y6402D02*
D03*
X12111Y6302D02*
D03*
Y6802D02*
D03*
X12711Y6402D02*
D03*
Y6802D02*
D03*
X12111Y6952D02*
D03*
X12211D02*
D03*
X12311D02*
D03*
Y7252D02*
D03*
X12211D02*
D03*
X12111D02*
D03*
X12011D02*
D03*
X12411Y6952D02*
D03*
Y7252D02*
D03*
X12511D02*
D03*
Y6952D02*
D03*
Y6152D02*
D03*
X12611D02*
D03*
X12711Y6952D02*
D03*
X12811D02*
D03*
X12911D02*
D03*
Y7252D02*
D03*
X12811D02*
D03*
X12711D02*
D03*
X12611D02*
D03*
X11811Y8452D02*
D03*
Y8852D02*
D03*
X12511Y8752D02*
D03*
Y8602D02*
D03*
X11411Y8452D02*
D03*
Y8852D02*
D03*
X11511D02*
D03*
Y8452D02*
D03*
X11311Y9002D02*
D03*
Y9302D02*
D03*
X11611Y7802D02*
D03*
Y7402D02*
D03*
X11911Y7802D02*
D03*
Y7402D02*
D03*
X11411Y8252D02*
D03*
Y7952D02*
D03*
X11711D02*
D03*
X11811D02*
D03*
X11911D02*
D03*
Y8252D02*
D03*
X11811D02*
D03*
X11711D02*
D03*
X11611D02*
D03*
X12011Y7952D02*
D03*
Y8252D02*
D03*
X12711Y8452D02*
D03*
Y8852D02*
D03*
X12411Y7652D02*
D03*
Y7552D02*
D03*
X12511Y7802D02*
D03*
Y7402D02*
D03*
X12211Y7802D02*
D03*
Y7402D02*
D03*
X12311Y7802D02*
D03*
Y7402D02*
D03*
X12211Y7952D02*
D03*
X12311D02*
D03*
X12411D02*
D03*
X12511D02*
D03*
X12611D02*
D03*
X12711D02*
D03*
Y8252D02*
D03*
X12611D02*
D03*
X12511D02*
D03*
X12411D02*
D03*
X12311D02*
D03*
X12211D02*
D03*
X12111D02*
D03*
X12611Y8452D02*
D03*
Y8852D02*
D03*
X12311Y8452D02*
D03*
Y8852D02*
D03*
X12211D02*
D03*
Y8452D02*
D03*
X12411D02*
D03*
Y8852D02*
D03*
X11911Y8452D02*
D03*
Y8852D02*
D03*
X11711Y8452D02*
D03*
Y8852D02*
D03*
X11611D02*
D03*
Y8452D02*
D03*
X12011Y9002D02*
D03*
Y9302D02*
D03*
X11711Y9002D02*
D03*
X11811D02*
D03*
X11911D02*
D03*
Y9302D02*
D03*
X11811D02*
D03*
X11711D02*
D03*
X11611D02*
D03*
X12611Y9002D02*
D03*
Y9302D02*
D03*
X12311Y9002D02*
D03*
X12411D02*
D03*
X12511D02*
D03*
Y9302D02*
D03*
X12411D02*
D03*
X12311D02*
D03*
X12211D02*
D03*
X12511Y9852D02*
D03*
Y9452D02*
D03*
X12611Y9852D02*
D03*
Y9452D02*
D03*
X11461Y9302D02*
D03*
Y9002D02*
D03*
X12911Y10052D02*
D03*
Y9952D02*
D03*
X12811Y10052D02*
D03*
Y9952D02*
D03*
X12711Y10052D02*
D03*
Y9952D02*
D03*
X12611Y10052D02*
D03*
Y9952D02*
D03*
X12511Y10052D02*
D03*
Y9952D02*
D03*
X12411Y10052D02*
D03*
Y9952D02*
D03*
X12311Y10052D02*
D03*
Y9952D02*
D03*
X12211Y10052D02*
D03*
X12711Y9452D02*
D03*
Y9852D02*
D03*
X12411D02*
D03*
Y9452D02*
D03*
X12311Y9852D02*
D03*
Y9452D02*
D03*
X12211Y9852D02*
D03*
Y9452D02*
D03*
X12111D02*
D03*
Y9852D02*
D03*
X12011D02*
D03*
Y9452D02*
D03*
X11911Y9852D02*
D03*
Y9452D02*
D03*
X11811D02*
D03*
Y9852D02*
D03*
X11711Y9452D02*
D03*
Y9852D02*
D03*
X12111Y9302D02*
D03*
Y9002D02*
D03*
X12711Y9302D02*
D03*
Y9002D02*
D03*
X11261Y9852D02*
D03*
Y9452D02*
D03*
X11361Y9852D02*
D03*
Y9452D02*
D03*
X11461Y9852D02*
D03*
Y9452D02*
D03*
X13011Y6702D02*
D03*
Y6502D02*
D03*
X13611Y6202D02*
D03*
Y6302D02*
D03*
X13511Y6402D02*
D03*
Y6802D02*
D03*
X13211D02*
D03*
Y6402D02*
D03*
X13411Y6802D02*
D03*
Y6402D02*
D03*
X13311D02*
D03*
Y6802D02*
D03*
X12911Y6702D02*
D03*
Y6602D02*
D03*
X12811Y6402D02*
D03*
Y6802D02*
D03*
X13011Y6952D02*
D03*
Y7252D02*
D03*
X13111D02*
D03*
Y6952D02*
D03*
X13311D02*
D03*
X13411D02*
D03*
X13511D02*
D03*
Y7252D02*
D03*
X13411D02*
D03*
X13311D02*
D03*
X13211D02*
D03*
X13711Y6952D02*
D03*
Y7252D02*
D03*
X13211Y6152D02*
D03*
X13311D02*
D03*
X13511Y7402D02*
D03*
Y7802D02*
D03*
X13411Y7402D02*
D03*
Y7802D02*
D03*
X13311Y7402D02*
D03*
Y7802D02*
D03*
X13211Y7402D02*
D03*
Y7802D02*
D03*
X12911Y7652D02*
D03*
X12811D02*
D03*
X13711Y8552D02*
D03*
X13211D02*
D03*
X13511Y8452D02*
D03*
X13711Y8802D02*
D03*
X13211D02*
D03*
X13511Y8702D02*
D03*
X12911Y8252D02*
D03*
Y7952D02*
D03*
X13111D02*
D03*
X13211D02*
D03*
X13311D02*
D03*
Y8252D02*
D03*
X13211D02*
D03*
X13111D02*
D03*
X13011D02*
D03*
X13711Y9002D02*
D03*
Y9302D02*
D03*
X12911Y9002D02*
D03*
X13011D02*
D03*
X13111D02*
D03*
X13211D02*
D03*
X13311D02*
D03*
X13411D02*
D03*
X13511D02*
D03*
Y9302D02*
D03*
X13411D02*
D03*
X13311D02*
D03*
X13211D02*
D03*
X13111D02*
D03*
X13011D02*
D03*
X12911D02*
D03*
X12811D02*
D03*
X13686Y7952D02*
D03*
Y8252D02*
D03*
X12911Y9752D02*
D03*
Y9602D02*
D03*
X13311Y10252D02*
D03*
Y9752D02*
D03*
X13411Y10052D02*
D03*
X13011Y9852D02*
D03*
Y9452D02*
D03*
X12811D02*
D03*
Y9852D02*
D03*
D28*
X13496Y10152D02*
X13497D01*
X13496D02*
X13497Y10139D01*
X13499Y10125D01*
X13503Y10113D01*
X13508Y10100D01*
X13515Y10089D01*
X13523Y10078D01*
X13532Y10068D01*
X13542Y10060D01*
X13554Y10052D01*
X13565Y10046D01*
X13578Y10042D01*
X13591Y10039D01*
X13604Y10037D01*
X13618D01*
X13631Y10039D01*
X13644Y10042D01*
X13657Y10046D01*
X13668Y10052D01*
X13680Y10060D01*
X13690Y10068D01*
X13699Y10078D01*
X13707Y10089D01*
X13714Y10100D01*
X13719Y10113D01*
X13723Y10125D01*
X13725Y10139D01*
X13726Y10152D01*
X13727D01*
X13726D02*
X13725Y10165D01*
X13723Y10179D01*
X13719Y10191D01*
X13714Y10204D01*
X13707Y10215D01*
X13699Y10226D01*
X13690Y10236D01*
X13680Y10244D01*
X13668Y10252D01*
X13657Y10258D01*
X13644Y10262D01*
X13631Y10265D01*
X13618Y10267D01*
X13604D01*
X13591Y10265D01*
X13578Y10262D01*
X13565Y10258D01*
X13554Y10252D01*
X13542Y10244D01*
X13532Y10236D01*
X13523Y10226D01*
X13515Y10215D01*
X13508Y10204D01*
X13503Y10191D01*
X13499Y10179D01*
X13497Y10165D01*
X13496Y10152D01*
X13564D02*
X13565D01*
X13564D02*
X13565Y10142D01*
X13568Y10133D01*
X13573Y10124D01*
X13580Y10117D01*
X13588Y10111D01*
X13596Y10107D01*
X13606Y10105D01*
X13616D01*
X13626Y10107D01*
X13634Y10111D01*
X13642Y10117D01*
X13649Y10124D01*
X13654Y10133D01*
X13657Y10142D01*
X13658Y10152D01*
X13659D01*
X13658D02*
X13657Y10162D01*
X13654Y10171D01*
X13649Y10180D01*
X13642Y10187D01*
X13634Y10193D01*
X13626Y10197D01*
X13616Y10199D01*
X13606D01*
X13596Y10197D01*
X13588Y10193D01*
X13580Y10187D01*
X13573Y10180D01*
X13568Y10171D01*
X13565Y10162D01*
X13564Y10152D01*
X13611D02*
D03*
X13496Y5652D02*
X13497D01*
X13496D02*
X13497Y5639D01*
X13499Y5625D01*
X13503Y5613D01*
X13508Y5600D01*
X13515Y5589D01*
X13523Y5578D01*
X13532Y5568D01*
X13542Y5560D01*
X13554Y5552D01*
X13565Y5546D01*
X13578Y5542D01*
X13591Y5539D01*
X13604Y5537D01*
X13618D01*
X13631Y5539D01*
X13644Y5542D01*
X13657Y5546D01*
X13668Y5552D01*
X13680Y5560D01*
X13690Y5568D01*
X13699Y5578D01*
X13707Y5589D01*
X13714Y5600D01*
X13719Y5613D01*
X13723Y5625D01*
X13725Y5639D01*
X13726Y5652D01*
X13727D01*
X13726D02*
X13725Y5665D01*
X13723Y5679D01*
X13719Y5691D01*
X13714Y5704D01*
X13707Y5715D01*
X13699Y5726D01*
X13690Y5736D01*
X13680Y5744D01*
X13668Y5752D01*
X13657Y5758D01*
X13644Y5762D01*
X13631Y5765D01*
X13618Y5767D01*
X13604D01*
X13591Y5765D01*
X13578Y5762D01*
X13565Y5758D01*
X13554Y5752D01*
X13542Y5744D01*
X13532Y5736D01*
X13523Y5726D01*
X13515Y5715D01*
X13508Y5704D01*
X13503Y5691D01*
X13499Y5679D01*
X13497Y5665D01*
X13496Y5652D01*
X13564D02*
X13565D01*
X13564D02*
X13565Y5642D01*
X13568Y5633D01*
X13573Y5624D01*
X13580Y5617D01*
X13588Y5611D01*
X13596Y5607D01*
X13606Y5605D01*
X13616D01*
X13626Y5607D01*
X13634Y5611D01*
X13642Y5617D01*
X13649Y5624D01*
X13654Y5633D01*
X13657Y5642D01*
X13658Y5652D01*
X13659D01*
X13658D02*
X13657Y5662D01*
X13654Y5671D01*
X13649Y5680D01*
X13642Y5687D01*
X13634Y5693D01*
X13626Y5697D01*
X13616Y5699D01*
X13606D01*
X13596Y5697D01*
X13588Y5693D01*
X13580Y5687D01*
X13573Y5680D01*
X13568Y5671D01*
X13565Y5662D01*
X13564Y5652D01*
X13611D02*
D03*
X4496Y10152D02*
X4497D01*
X4496D02*
X4497Y10139D01*
X4499Y10125D01*
X4503Y10113D01*
X4508Y10100D01*
X4515Y10089D01*
X4523Y10078D01*
X4532Y10068D01*
X4542Y10060D01*
X4554Y10052D01*
X4565Y10046D01*
X4578Y10042D01*
X4591Y10039D01*
X4604Y10037D01*
X4618D01*
X4631Y10039D01*
X4644Y10042D01*
X4657Y10046D01*
X4668Y10052D01*
X4680Y10060D01*
X4690Y10068D01*
X4699Y10078D01*
X4707Y10089D01*
X4714Y10100D01*
X4719Y10113D01*
X4723Y10125D01*
X4725Y10139D01*
X4726Y10152D01*
X4727D01*
X4726D02*
X4725Y10165D01*
X4723Y10179D01*
X4719Y10191D01*
X4714Y10204D01*
X4707Y10215D01*
X4699Y10226D01*
X4690Y10236D01*
X4680Y10244D01*
X4668Y10252D01*
X4657Y10258D01*
X4644Y10262D01*
X4631Y10265D01*
X4618Y10267D01*
X4604D01*
X4591Y10265D01*
X4578Y10262D01*
X4565Y10258D01*
X4554Y10252D01*
X4542Y10244D01*
X4532Y10236D01*
X4523Y10226D01*
X4515Y10215D01*
X4508Y10204D01*
X4503Y10191D01*
X4499Y10179D01*
X4497Y10165D01*
X4496Y10152D01*
X4564D02*
X4565D01*
X4564D02*
X4565Y10142D01*
X4568Y10133D01*
X4573Y10124D01*
X4580Y10117D01*
X4588Y10111D01*
X4596Y10107D01*
X4606Y10105D01*
X4616D01*
X4626Y10107D01*
X4634Y10111D01*
X4642Y10117D01*
X4649Y10124D01*
X4654Y10133D01*
X4657Y10142D01*
X4658Y10152D01*
X4659D01*
X4658D02*
X4657Y10162D01*
X4654Y10171D01*
X4649Y10180D01*
X4642Y10187D01*
X4634Y10193D01*
X4626Y10197D01*
X4616Y10199D01*
X4606D01*
X4596Y10197D01*
X4588Y10193D01*
X4580Y10187D01*
X4573Y10180D01*
X4568Y10171D01*
X4565Y10162D01*
X4564Y10152D01*
X4611D02*
D03*
X4496Y5652D02*
X4497D01*
X4496D02*
X4497Y5639D01*
X4499Y5625D01*
X4503Y5613D01*
X4508Y5600D01*
X4515Y5589D01*
X4523Y5578D01*
X4532Y5568D01*
X4542Y5560D01*
X4554Y5552D01*
X4565Y5546D01*
X4578Y5542D01*
X4591Y5539D01*
X4604Y5537D01*
X4618D01*
X4631Y5539D01*
X4644Y5542D01*
X4657Y5546D01*
X4668Y5552D01*
X4680Y5560D01*
X4690Y5568D01*
X4699Y5578D01*
X4707Y5589D01*
X4714Y5600D01*
X4719Y5613D01*
X4723Y5625D01*
X4725Y5639D01*
X4726Y5652D01*
X4727D01*
X4726D02*
X4725Y5665D01*
X4723Y5679D01*
X4719Y5691D01*
X4714Y5704D01*
X4707Y5715D01*
X4699Y5726D01*
X4690Y5736D01*
X4680Y5744D01*
X4668Y5752D01*
X4657Y5758D01*
X4644Y5762D01*
X4631Y5765D01*
X4618Y5767D01*
X4604D01*
X4591Y5765D01*
X4578Y5762D01*
X4565Y5758D01*
X4554Y5752D01*
X4542Y5744D01*
X4532Y5736D01*
X4523Y5726D01*
X4515Y5715D01*
X4508Y5704D01*
X4503Y5691D01*
X4499Y5679D01*
X4497Y5665D01*
X4496Y5652D01*
X4564D02*
X4565D01*
X4564D02*
X4565Y5642D01*
X4568Y5633D01*
X4573Y5624D01*
X4580Y5617D01*
X4588Y5611D01*
X4596Y5607D01*
X4606Y5605D01*
X4616D01*
X4626Y5607D01*
X4634Y5611D01*
X4642Y5617D01*
X4649Y5624D01*
X4654Y5633D01*
X4657Y5642D01*
X4658Y5652D01*
X4659D01*
X4658D02*
X4657Y5662D01*
X4654Y5671D01*
X4649Y5680D01*
X4642Y5687D01*
X4634Y5693D01*
X4626Y5697D01*
X4616Y5699D01*
X4606D01*
X4596Y5697D01*
X4588Y5693D01*
X4580Y5687D01*
X4573Y5680D01*
X4568Y5671D01*
X4565Y5662D01*
X4564Y5652D01*
X4611D02*
D03*
D31*
X12955Y5952D02*
D03*
X12799D02*
D03*
X12643D02*
D03*
X13111D02*
D03*
D35*
X5211Y6152D02*
D03*
D37*
X4711Y7202D02*
D03*
Y6502D02*
D03*
Y8402D02*
D03*
Y7852D02*
D03*
Y9002D02*
D03*
X5911Y5852D02*
D03*
X5711Y7202D02*
D03*
X5611Y6502D02*
D03*
X5711Y8402D02*
D03*
X5661Y9002D02*
D03*
X5711Y7852D02*
D03*
X5011Y9952D02*
D03*
X6461D02*
D03*
X7311Y5852D02*
D03*
X7611Y7202D02*
D03*
X6711D02*
D03*
X7511Y6502D02*
D03*
X6611D02*
D03*
X6711Y9002D02*
D03*
X7511Y8402D02*
D03*
X6611D02*
D03*
X7711Y7852D02*
D03*
X6711D02*
D03*
X7911Y9952D02*
D03*
X9286Y5852D02*
D03*
X8436D02*
D03*
X8511Y7202D02*
D03*
X9511D02*
D03*
X9411Y6502D02*
D03*
X8511D02*
D03*
X8711Y8402D02*
D03*
X8611Y7852D02*
D03*
X8761Y9002D02*
D03*
X9061Y9952D02*
D03*
X10511Y7202D02*
D03*
X10811Y6502D02*
D03*
X9911D02*
D03*
X10911Y9002D02*
D03*
X10511Y8402D02*
D03*
X9611D02*
D03*
X9661Y9002D02*
D03*
X9811Y7852D02*
D03*
X10561Y9952D02*
D03*
X11311Y5852D02*
D03*
X12011Y6952D02*
D03*
X12611D02*
D03*
X11611Y7952D02*
D03*
X12111D02*
D03*
X11611Y9002D02*
D03*
X12211D02*
D03*
Y9952D02*
D03*
X13211Y6952D02*
D03*
X13011Y7952D02*
D03*
X12811Y9002D02*
D03*
D39*
X4511Y6252D02*
D03*
Y6152D02*
D03*
Y6052D02*
D03*
D41*
X4861Y6077D02*
X5311D01*
Y6227D01*
X4861D01*
Y6077D01*
D02*
M02*
