*%FSLAX23Y23*%
*%MOIN*%
G01*
%ADD11C,0.007*%
%ADD12C,0.008*%
%ADD13C,0.010*%
%ADD14C,0.012*%
%ADD15C,0.020*%
%ADD16C,0.024*%
%ADD17C,0.030*%
%ADD18C,0.032*%
%ADD19C,0.036*%
%ADD20C,0.050*%
%ADD21C,0.052*%
%ADD22C,0.055*%
%ADD23C,0.056*%
%ADD24C,0.061*%
%ADD25C,0.062*%
%ADD26C,0.068*%
%ADD27C,0.070*%
%ADD28C,0.090*%
%ADD29C,0.125*%
%ADD30C,0.131*%
%ADD31C,0.140*%
%ADD32C,0.160*%
%ADD33C,0.250*%
%ADD34R,0.062X0.062*%
%ADD35R,0.068X0.068*%
D12*
X12420Y9556D02*
X12470D01*
Y9531D01*
X12462Y9523D01*
X12445D01*
X12437Y9531D01*
Y9556D01*
X12420Y9506D02*
Y9473D01*
Y9506D02*
X12453Y9473D01*
X12462D01*
X12470Y9481D01*
Y9498D01*
X12462Y9506D01*
X12595Y8046D02*
X12587Y8038D01*
X12595Y8046D02*
Y8063D01*
X12587Y8071D01*
X12553D01*
X12545Y8063D01*
Y8046D01*
X12553Y8038D01*
X12587Y8021D02*
X12595Y8013D01*
Y7996D01*
X12587Y7988D01*
X12578D01*
X12570Y7996D01*
X12562Y7988D01*
X12553D01*
X12545Y7996D01*
Y8013D01*
X12553Y8021D01*
X12562D01*
X12570Y8013D01*
X12578Y8021D01*
X12587D01*
X12570Y8013D02*
Y7996D01*
X12587Y7954D02*
X12595Y7938D01*
X12587Y7954D02*
X12570Y7971D01*
X12553D01*
X12545Y7963D01*
Y7946D01*
X12553Y7938D01*
X12562D01*
X12570Y7946D01*
Y7971D01*
X12637Y8588D02*
X12645Y8596D01*
Y8613D01*
X12637Y8621D01*
X12603D01*
X12595Y8613D01*
Y8596D01*
X12603Y8588D01*
X12645Y8571D02*
Y8538D01*
X12637D01*
X12603Y8571D01*
X12595D01*
X12645Y8521D02*
Y8488D01*
Y8521D02*
X12620D01*
X12628Y8504D01*
Y8496D01*
X12620Y8488D01*
X12603D01*
X12595Y8496D01*
Y8513D01*
X12603Y8521D01*
X12335Y6216D02*
X12332Y6216D01*
X12329Y6215D01*
X12325Y6214D01*
X12322Y6213D01*
X12320Y6211D01*
X12317Y6209D01*
X12315Y6206D01*
X12313Y6204D01*
X12312Y6201D01*
X12311Y6197D01*
X12310Y6194D01*
X12310Y6191D01*
X12310Y6188D01*
X12311Y6185D01*
X12312Y6181D01*
X12313Y6178D01*
X12315Y6176D01*
X12317Y6173D01*
X12320Y6171D01*
X12322Y6169D01*
X12325Y6168D01*
X12329Y6167D01*
X12332Y6166D01*
X12335Y6166D01*
Y6216D02*
Y6291D01*
Y6166D02*
Y6091D01*
X11535D02*
Y6291D01*
Y6091D02*
X12335D01*
Y6291D02*
X11535D01*
X11725Y6221D02*
Y6171D01*
Y6221D02*
X11750D01*
X11758Y6213D01*
Y6196D01*
X11750Y6188D01*
X11725D01*
X11742D02*
X11758Y6171D01*
X11775Y6196D02*
X11808D01*
X11825Y6171D02*
Y6221D01*
X11850D01*
X11858Y6213D01*
Y6196D01*
X11850Y6188D01*
X11825D01*
X11875Y6171D02*
Y6204D01*
X11892Y6221D01*
X11908Y6204D01*
Y6171D01*
Y6196D01*
X11875D01*
X11950Y6221D02*
X11958Y6213D01*
X11950Y6221D02*
X11933D01*
X11925Y6213D01*
Y6179D01*
X11933Y6171D01*
X11950D01*
X11958Y6179D01*
X11975Y6171D02*
Y6221D01*
Y6188D02*
Y6171D01*
Y6188D02*
X12008Y6221D01*
X11983Y6196D01*
X12008Y6171D01*
X12025Y6196D02*
X12058D01*
X12100Y6171D02*
Y6221D01*
X12075Y6196D01*
X12108D01*
X12125Y6221D02*
X12158D01*
Y6213D01*
X12125Y6179D01*
Y6171D01*
X12175Y6213D02*
X12183Y6221D01*
X12200D01*
X12208Y6213D01*
Y6179D01*
X12200Y6171D01*
X12183D01*
X12175Y6179D01*
Y6213D01*
X12205Y6396D02*
Y6446D01*
X12230D01*
X12238Y6438D01*
Y6421D01*
X12230Y6413D01*
X12205D01*
X12222D02*
X12238Y6396D01*
X12272Y6438D02*
X12288Y6446D01*
X12272Y6438D02*
X12255Y6421D01*
Y6404D01*
X12263Y6396D01*
X12280D01*
X12288Y6404D01*
Y6413D01*
X12280Y6421D01*
X12255D01*
X12305Y6438D02*
X12313Y6446D01*
X12330D01*
X12338Y6438D01*
Y6429D01*
X12330Y6421D01*
X12338Y6413D01*
Y6404D01*
X12330Y6396D01*
X12313D01*
X12305Y6404D01*
Y6413D01*
X12313Y6421D01*
X12305Y6429D01*
Y6438D01*
X12313Y6421D02*
X12330D01*
X12582Y7433D02*
X12590Y7441D01*
Y7458D01*
X12582Y7466D01*
X12548D01*
X12540Y7458D01*
Y7441D01*
X12548Y7433D01*
X12590Y7416D02*
Y7383D01*
X12582D01*
X12548Y7416D01*
X12540D01*
X12582Y7366D02*
X12590Y7358D01*
Y7341D01*
X12582Y7333D01*
X12573D01*
X12574D01*
X12573D02*
X12574D01*
X12573D02*
X12574D01*
X12573D02*
X12565Y7341D01*
Y7349D01*
Y7341D01*
X12557Y7333D01*
X12548D01*
X12540Y7341D01*
Y7358D01*
X12548Y7366D01*
X12595Y6841D02*
X12587Y6833D01*
X12595Y6841D02*
Y6858D01*
X12587Y6866D01*
X12553D01*
X12545Y6858D01*
Y6841D01*
X12553Y6833D01*
X12595Y6816D02*
Y6783D01*
X12587D01*
X12553Y6816D01*
X12545D01*
Y6741D02*
X12595D01*
X12570Y6766D01*
Y6733D01*
X12433Y5876D02*
X12417D01*
X12425D01*
Y5834D01*
X12417Y5826D01*
X12408D01*
X12400Y5834D01*
X12450Y5826D02*
Y5876D01*
X12475D01*
X12483Y5868D01*
Y5851D01*
X12475Y5843D01*
X12450D01*
X12500Y5876D02*
X12533D01*
Y5868D01*
X12500Y5834D01*
Y5826D01*
X11353Y9661D02*
X11337D01*
X11345D01*
Y9619D01*
X11337Y9611D01*
X11328D01*
X11320Y9619D01*
X11370Y9611D02*
Y9661D01*
X11395D01*
X11403Y9653D01*
Y9636D01*
X11395Y9628D01*
X11370D01*
X11420Y9661D02*
X11453D01*
X11420D02*
Y9636D01*
X11437Y9644D01*
X11445D01*
X11453Y9636D01*
Y9619D01*
X11445Y9611D01*
X11428D01*
X11420Y9619D01*
X10218Y9636D02*
X10202D01*
X10210D01*
Y9594D01*
X10202Y9586D01*
X10193D01*
X10185Y9594D01*
X10235Y9586D02*
Y9636D01*
X10260D01*
X10268Y9628D01*
Y9611D01*
X10260Y9603D01*
X10235D01*
X10310Y9586D02*
Y9636D01*
X10285Y9611D01*
X10318D01*
X11485Y9316D02*
X11488Y9316D01*
X11491Y9315D01*
X11495Y9314D01*
X11498Y9313D01*
X11500Y9311D01*
X11503Y9309D01*
X11505Y9306D01*
X11507Y9304D01*
X11508Y9301D01*
X11509Y9297D01*
X11510Y9294D01*
X11510Y9291D01*
X11510Y9288D01*
X11509Y9285D01*
X11508Y9281D01*
X11507Y9278D01*
X11505Y9276D01*
X11503Y9273D01*
X11500Y9271D01*
X11498Y9269D01*
X11495Y9268D01*
X11491Y9267D01*
X11488Y9266D01*
X11485Y9266D01*
Y9191D01*
Y9316D02*
Y9391D01*
X12285D02*
Y9191D01*
Y9391D02*
X11485D01*
Y9191D02*
X12285D01*
X11640Y9271D02*
Y9321D01*
X11665D01*
X11673Y9313D01*
Y9296D01*
X11665Y9288D01*
X11640D01*
X11657D02*
X11673Y9271D01*
X11690Y9296D02*
X11723D01*
X11740Y9271D02*
Y9321D01*
X11765D01*
X11773Y9313D01*
Y9296D01*
X11765Y9288D01*
X11740D01*
X11790Y9271D02*
Y9304D01*
X11807Y9321D01*
X11823Y9304D01*
Y9271D01*
Y9296D01*
X11790D01*
X11865Y9321D02*
X11873Y9313D01*
X11865Y9321D02*
X11848D01*
X11840Y9313D01*
Y9279D01*
X11848Y9271D01*
X11865D01*
X11873Y9279D01*
X11890Y9271D02*
Y9321D01*
Y9288D02*
Y9271D01*
Y9288D02*
X11923Y9321D01*
X11898Y9296D01*
X11923Y9271D01*
X11940Y9296D02*
X11973D01*
X12015Y9271D02*
Y9321D01*
X11990Y9296D01*
X12023D01*
X12040Y9321D02*
X12073D01*
Y9313D01*
X12040Y9279D01*
Y9271D01*
X12090Y9313D02*
X12098Y9321D01*
X12115D01*
X12123Y9313D01*
Y9279D01*
X12115Y9271D01*
X12098D01*
X12090Y9279D01*
Y9313D01*
X11520Y9091D02*
Y9041D01*
Y9091D02*
X11545D01*
X11553Y9083D01*
Y9066D01*
X11545Y9058D01*
X11520D01*
X11537D02*
X11553Y9041D01*
X11587Y9083D02*
X11603Y9091D01*
X11587Y9083D02*
X11570Y9066D01*
Y9049D01*
X11578Y9041D01*
X11595D01*
X11603Y9049D01*
Y9058D01*
X11595Y9066D01*
X11570D01*
X11620Y9091D02*
X11653D01*
Y9083D01*
X11620Y9049D01*
Y9041D01*
X10785Y8666D02*
X10788Y8666D01*
X10791Y8665D01*
X10795Y8664D01*
X10798Y8663D01*
X10800Y8661D01*
X10803Y8659D01*
X10805Y8656D01*
X10807Y8654D01*
X10808Y8651D01*
X10809Y8647D01*
X10810Y8644D01*
X10810Y8641D01*
X10810Y8638D01*
X10809Y8635D01*
X10808Y8631D01*
X10807Y8628D01*
X10805Y8626D01*
X10803Y8623D01*
X10800Y8621D01*
X10798Y8619D01*
X10795Y8618D01*
X10791Y8617D01*
X10788Y8616D01*
X10785Y8616D01*
X11485Y8541D02*
Y8741D01*
X10785D02*
Y8666D01*
Y8616D02*
Y8541D01*
X11485D01*
Y8741D02*
X10785D01*
X10935Y8691D02*
X10968D01*
Y8683D01*
X10935Y8649D01*
Y8641D01*
X11010D02*
Y8691D01*
X10985Y8666D01*
X11018D01*
X11035Y8691D02*
Y8641D01*
Y8666D01*
X11068D01*
Y8691D01*
Y8641D01*
X11110Y8691D02*
X11118Y8683D01*
X11110Y8691D02*
X11093D01*
X11085Y8683D01*
Y8649D01*
X11093Y8641D01*
X11110D01*
X11118Y8649D01*
X11135Y8641D02*
X11152D01*
X11143D01*
Y8691D01*
X11144D01*
X11143D02*
X11135Y8683D01*
X11193D02*
X11210Y8691D01*
X11193Y8683D02*
X11177Y8666D01*
Y8649D01*
X11185Y8641D01*
X11202D01*
X11210Y8649D01*
Y8658D01*
X11202Y8666D01*
X11177D01*
X11252Y8641D02*
Y8691D01*
X11227Y8666D01*
X11260D01*
X10825Y8451D02*
Y8409D01*
X10833Y8401D01*
X10850D01*
X10858Y8409D01*
Y8451D01*
X10875Y8401D02*
X10908D01*
X10875D02*
X10908Y8434D01*
Y8443D01*
X10900Y8451D01*
X10883D01*
X10875Y8443D01*
X10925Y8401D02*
X10942D01*
X10933D01*
Y8451D01*
X10934D01*
X10933D02*
X10925Y8443D01*
X10700Y8406D02*
X10692Y8398D01*
X10700Y8406D02*
Y8423D01*
X10692Y8431D01*
X10658D01*
X10650Y8423D01*
Y8406D01*
X10658Y8398D01*
X10700Y8381D02*
Y8348D01*
X10692D01*
X10658Y8381D01*
X10650D01*
X10658Y8331D02*
X10650Y8323D01*
Y8306D01*
X10658Y8298D01*
X10692D01*
X10700Y8306D01*
Y8323D01*
X10692Y8331D01*
X10683D01*
X10675Y8323D01*
Y8298D01*
X11602Y8413D02*
X11610Y8421D01*
Y8438D01*
X11602Y8446D01*
X11568D01*
X11560Y8438D01*
Y8421D01*
X11568Y8413D01*
X11610Y8396D02*
Y8363D01*
X11602D01*
X11568Y8396D01*
X11560D01*
Y8346D02*
Y8313D01*
Y8346D02*
X11593Y8313D01*
X11602D01*
X11610Y8321D01*
Y8338D01*
X11602Y8346D01*
X11685Y8616D02*
X11688Y8616D01*
X11691Y8617D01*
X11695Y8618D01*
X11698Y8619D01*
X11700Y8621D01*
X11703Y8623D01*
X11705Y8626D01*
X11707Y8628D01*
X11708Y8631D01*
X11709Y8635D01*
X11710Y8638D01*
X11710Y8641D01*
X11710Y8644D01*
X11709Y8647D01*
X11708Y8651D01*
X11707Y8654D01*
X11705Y8656D01*
X11703Y8659D01*
X11700Y8661D01*
X11698Y8663D01*
X11695Y8664D01*
X11691Y8665D01*
X11688Y8666D01*
X11685Y8666D01*
X12385Y8741D02*
Y8541D01*
X11685Y8666D02*
Y8741D01*
Y8616D02*
Y8541D01*
X12385D01*
Y8741D02*
X11685D01*
X11885Y8691D02*
X11918D01*
Y8683D01*
X11885Y8649D01*
Y8641D01*
X11960D02*
Y8691D01*
X11935Y8666D01*
X11968D01*
X11985Y8691D02*
Y8641D01*
Y8666D01*
X12018D01*
Y8691D01*
Y8641D01*
X12060Y8691D02*
X12068Y8683D01*
X12060Y8691D02*
X12043D01*
X12035Y8683D01*
Y8649D01*
X12043Y8641D01*
X12060D01*
X12068Y8649D01*
X12085Y8641D02*
X12102D01*
X12093D01*
Y8691D01*
X12094D01*
X12093D02*
X12085Y8683D01*
X12152Y8691D02*
Y8641D01*
X12127Y8666D02*
X12152Y8691D01*
X12160Y8666D02*
X12127D01*
X11710Y8441D02*
Y8399D01*
X11718Y8391D01*
X11735D01*
X11743Y8399D01*
Y8441D01*
X11760Y8391D02*
X11793D01*
X11760D02*
X11793Y8424D01*
Y8433D01*
X11785Y8441D01*
X11768D01*
X11760Y8433D01*
X11810Y8391D02*
X11843D01*
X11810D02*
X11843Y8424D01*
Y8433D01*
X11835Y8441D01*
X11818D01*
X11810Y8433D01*
X11685Y8016D02*
X11688Y8016D01*
X11691Y8015D01*
X11695Y8014D01*
X11698Y8013D01*
X11700Y8011D01*
X11703Y8009D01*
X11705Y8006D01*
X11707Y8004D01*
X11708Y8001D01*
X11709Y7997D01*
X11710Y7994D01*
X11710Y7991D01*
X11710Y7988D01*
X11709Y7985D01*
X11708Y7981D01*
X11707Y7978D01*
X11705Y7976D01*
X11703Y7973D01*
X11700Y7971D01*
X11698Y7969D01*
X11695Y7968D01*
X11691Y7967D01*
X11688Y7966D01*
X11685Y7966D01*
X12385Y7891D02*
Y8091D01*
X11685D02*
Y8016D01*
Y7966D02*
Y7891D01*
X12385D01*
Y8091D02*
X11685D01*
X12050Y8026D02*
X12083D01*
Y8018D01*
X12050Y7984D01*
Y7976D01*
X12125D02*
Y8026D01*
X12100Y8001D01*
X12133D01*
X12150Y8026D02*
Y7976D01*
Y8001D01*
X12183D01*
Y8026D01*
Y7976D01*
X12225Y8026D02*
X12233Y8018D01*
X12225Y8026D02*
X12208D01*
X12200Y8018D01*
Y7984D01*
X12208Y7976D01*
X12225D01*
X12233Y7984D01*
X12250Y7976D02*
X12267D01*
X12258D01*
Y8026D01*
X12259D01*
X12258D02*
X12250Y8018D01*
X12317Y8026D02*
Y7976D01*
X12292Y8001D02*
X12317Y8026D01*
X12325Y8001D02*
X12292D01*
X11710Y7796D02*
Y7754D01*
X11718Y7746D01*
X11735D01*
X11743Y7754D01*
Y7796D01*
X11760Y7746D02*
X11793D01*
X11760D02*
X11793Y7779D01*
Y7788D01*
X11785Y7796D01*
X11768D01*
X11760Y7788D01*
X11810D02*
X11818Y7796D01*
X11835D01*
X11843Y7788D01*
Y7779D01*
X11844D01*
X11843D02*
X11844D01*
X11843D02*
X11844D01*
X11843D02*
X11835Y7771D01*
X11827D01*
X11835D01*
X11843Y7763D01*
Y7754D01*
X11835Y7746D01*
X11818D01*
X11810Y7754D01*
X11575Y7761D02*
X11567Y7753D01*
X11575Y7761D02*
Y7778D01*
X11567Y7786D01*
X11533D01*
X11525Y7778D01*
Y7761D01*
X11533Y7753D01*
Y7736D02*
X11525Y7728D01*
Y7711D01*
X11533Y7703D01*
X11567D01*
X11575Y7711D01*
Y7728D01*
X11567Y7736D01*
X11558D01*
X11550Y7728D01*
Y7703D01*
X11525Y7686D02*
Y7669D01*
Y7678D01*
X11575D01*
X11576D01*
X11575D02*
X11567Y7686D01*
X10685Y7966D02*
X10688Y7966D01*
X10691Y7967D01*
X10695Y7968D01*
X10698Y7969D01*
X10700Y7971D01*
X10703Y7973D01*
X10705Y7976D01*
X10707Y7978D01*
X10708Y7981D01*
X10709Y7985D01*
X10710Y7988D01*
X10710Y7991D01*
X10710Y7994D01*
X10709Y7997D01*
X10708Y8001D01*
X10707Y8004D01*
X10705Y8006D01*
X10703Y8009D01*
X10700Y8011D01*
X10698Y8013D01*
X10695Y8014D01*
X10691Y8015D01*
X10688Y8016D01*
X10685Y8016D01*
Y7966D02*
Y7891D01*
Y8016D02*
Y8091D01*
X11385D02*
Y7891D01*
Y8091D02*
X10685D01*
Y7891D02*
X11385D01*
X10918Y8041D02*
X10885D01*
X10918D02*
Y8033D01*
X10885Y7999D01*
Y7991D01*
X10960D02*
Y8041D01*
X10935Y8016D01*
X10968D01*
X10985Y8041D02*
Y7991D01*
Y8016D01*
X11018D01*
Y8041D01*
Y7991D01*
X11060Y8041D02*
X11068Y8033D01*
X11060Y8041D02*
X11043D01*
X11035Y8033D01*
Y7999D01*
X11043Y7991D01*
X11060D01*
X11068Y7999D01*
X11085Y7991D02*
X11102D01*
X11093D01*
Y8041D01*
X11094D01*
X11093D02*
X11085Y8033D01*
X11152Y8041D02*
Y7991D01*
X11127Y8016D02*
X11152Y8041D01*
X11160Y8016D02*
X11127D01*
X10730Y7796D02*
Y7754D01*
X10738Y7746D01*
X10755D01*
X10763Y7754D01*
Y7796D01*
X10780Y7746D02*
X10797D01*
X10788D01*
Y7796D01*
X10789D01*
X10788D02*
X10780Y7788D01*
X10822Y7746D02*
X10855D01*
X10822D02*
X10855Y7779D01*
Y7788D01*
X10847Y7796D01*
X10830D01*
X10822Y7788D01*
X10570Y7746D02*
X10562Y7738D01*
X10570Y7746D02*
Y7763D01*
X10562Y7771D01*
X10528D01*
X10520Y7763D01*
Y7746D01*
X10528Y7738D01*
X10562Y7721D02*
X10570Y7713D01*
Y7696D01*
X10562Y7688D01*
X10553D01*
X10545Y7696D01*
X10537Y7688D01*
X10528D01*
X10520Y7696D01*
Y7713D01*
X10528Y7721D01*
X10537D01*
X10545Y7713D01*
X10553Y7721D01*
X10562D01*
X10545Y7713D02*
Y7696D01*
X10570Y7671D02*
Y7638D01*
X10562D01*
X10528Y7671D01*
X10520D01*
X11685Y7416D02*
X11688Y7416D01*
X11691Y7415D01*
X11695Y7414D01*
X11698Y7413D01*
X11700Y7411D01*
X11703Y7409D01*
X11705Y7406D01*
X11707Y7404D01*
X11708Y7401D01*
X11709Y7397D01*
X11710Y7394D01*
X11710Y7391D01*
X11710Y7388D01*
X11709Y7385D01*
X11708Y7381D01*
X11707Y7378D01*
X11705Y7376D01*
X11703Y7373D01*
X11700Y7371D01*
X11698Y7369D01*
X11695Y7368D01*
X11691Y7367D01*
X11688Y7366D01*
X11685Y7366D01*
X12385Y7291D02*
Y7491D01*
X11685D02*
Y7416D01*
Y7366D02*
Y7291D01*
X12385D01*
Y7491D02*
X11685D01*
X11900Y7391D02*
X11917D01*
X11908D01*
Y7441D01*
X11909D01*
X11908D02*
X11900Y7433D01*
X11967Y7441D02*
Y7391D01*
X11942Y7416D02*
X11967Y7441D01*
X11975Y7416D02*
X11942D01*
X11992Y7433D02*
X12000Y7441D01*
X12017D01*
X12025Y7433D01*
Y7424D01*
X12017Y7416D01*
X12025Y7408D01*
Y7399D01*
X12017Y7391D01*
X12000D01*
X11992Y7399D01*
Y7408D01*
X12000Y7416D01*
X11992Y7424D01*
Y7433D01*
X12000Y7416D02*
X12017D01*
X12042Y7399D02*
X12050Y7391D01*
X12067D01*
X12075Y7399D01*
Y7433D01*
X12067Y7441D01*
X12050D01*
X12042Y7433D01*
Y7424D01*
X12050Y7416D01*
X12075D01*
X11810Y7191D02*
Y7149D01*
X11818Y7141D01*
X11835D01*
X11843Y7149D01*
Y7191D01*
X11860Y7141D02*
X11893D01*
X11860D02*
X11893Y7174D01*
Y7183D01*
X11885Y7191D01*
X11868D01*
X11860Y7183D01*
X11910D02*
X11918Y7191D01*
X11935D01*
X11943Y7183D01*
Y7149D01*
X11935Y7141D01*
X11918D01*
X11910Y7149D01*
Y7183D01*
X11685Y6816D02*
X11688Y6816D01*
X11691Y6815D01*
X11695Y6814D01*
X11698Y6813D01*
X11700Y6811D01*
X11703Y6809D01*
X11705Y6806D01*
X11707Y6804D01*
X11708Y6801D01*
X11709Y6797D01*
X11710Y6794D01*
X11710Y6791D01*
X11710Y6788D01*
X11709Y6785D01*
X11708Y6781D01*
X11707Y6778D01*
X11705Y6776D01*
X11703Y6773D01*
X11700Y6771D01*
X11698Y6769D01*
X11695Y6768D01*
X11691Y6767D01*
X11688Y6766D01*
X11685Y6766D01*
X12385Y6691D02*
Y6891D01*
X11685D02*
Y6816D01*
Y6766D02*
Y6691D01*
X12385D01*
Y6891D02*
X11685D01*
X11890Y6811D02*
X11923D01*
Y6803D01*
X11890Y6769D01*
Y6761D01*
X11965D02*
Y6811D01*
X11940Y6786D01*
X11973D01*
X11990Y6811D02*
Y6761D01*
Y6786D01*
X12023D01*
Y6811D01*
Y6761D01*
X12065Y6811D02*
X12073Y6803D01*
X12065Y6811D02*
X12048D01*
X12040Y6803D01*
Y6769D01*
X12048Y6761D01*
X12065D01*
X12073Y6769D01*
X12090Y6761D02*
X12107D01*
X12098D01*
Y6811D01*
X12099D01*
X12098D02*
X12090Y6803D01*
X12157Y6811D02*
Y6761D01*
X12132Y6786D02*
X12157Y6811D01*
X12165Y6786D02*
X12132D01*
X11715Y6601D02*
Y6559D01*
X11723Y6551D01*
X11740D01*
X11748Y6559D01*
Y6601D01*
X11765Y6551D02*
X11798D01*
X11765D02*
X11798Y6584D01*
Y6593D01*
X11790Y6601D01*
X11773D01*
X11765Y6593D01*
X11832D02*
X11848Y6601D01*
X11832Y6593D02*
X11815Y6576D01*
Y6559D01*
X11823Y6551D01*
X11840D01*
X11848Y6559D01*
Y6568D01*
X11840Y6576D01*
X11815D01*
X11517Y7433D02*
X11525Y7441D01*
Y7458D01*
X11517Y7466D01*
X11483D01*
X11475Y7458D01*
Y7441D01*
X11483Y7433D01*
X11517Y7416D02*
X11525Y7408D01*
Y7391D01*
X11517Y7383D01*
X11508D01*
X11500Y7391D01*
X11492Y7383D01*
X11483D01*
X11475Y7391D01*
Y7408D01*
X11483Y7416D01*
X11492D01*
X11500Y7408D01*
X11508Y7416D01*
X11517D01*
X11500Y7408D02*
Y7391D01*
X11525Y7366D02*
Y7333D01*
Y7366D02*
X11500D01*
X11508Y7349D01*
Y7341D01*
X11500Y7333D01*
X11483D01*
X11475Y7341D01*
Y7358D01*
X11483Y7366D01*
X10735Y7366D02*
X10738Y7366D01*
X10741Y7367D01*
X10745Y7368D01*
X10748Y7369D01*
X10750Y7371D01*
X10753Y7373D01*
X10755Y7376D01*
X10757Y7378D01*
X10758Y7381D01*
X10759Y7385D01*
X10760Y7388D01*
X10760Y7391D01*
X10760Y7394D01*
X10759Y7397D01*
X10758Y7401D01*
X10757Y7404D01*
X10755Y7406D01*
X10753Y7409D01*
X10750Y7411D01*
X10748Y7413D01*
X10745Y7414D01*
X10741Y7415D01*
X10738Y7416D01*
X10735Y7416D01*
X11435Y7491D02*
Y7291D01*
X10735Y7416D02*
Y7491D01*
Y7366D02*
Y7291D01*
X11435D01*
Y7491D02*
X10735D01*
X10885Y7391D02*
X10902D01*
X10893D01*
Y7441D01*
X10894D01*
X10893D02*
X10885Y7433D01*
X10952Y7441D02*
Y7391D01*
X10927Y7416D02*
X10952Y7441D01*
X10960Y7416D02*
X10927D01*
X10977Y7433D02*
X10985Y7441D01*
X11002D01*
X11010Y7433D01*
Y7424D01*
X11002Y7416D01*
X11010Y7408D01*
Y7399D01*
X11002Y7391D01*
X10985D01*
X10977Y7399D01*
Y7408D01*
X10985Y7416D01*
X10977Y7424D01*
Y7433D01*
X10985Y7416D02*
X11002D01*
X11027Y7399D02*
X11035Y7391D01*
X11052D01*
X11060Y7399D01*
Y7433D01*
X11052Y7441D01*
X11035D01*
X11027Y7433D01*
Y7424D01*
X11035Y7416D01*
X11060D01*
X10760Y7191D02*
Y7149D01*
X10768Y7141D01*
X10785D01*
X10793Y7149D01*
Y7191D01*
X10810Y7141D02*
X10843D01*
X10810D02*
X10843Y7174D01*
Y7183D01*
X10835Y7191D01*
X10818D01*
X10810Y7183D01*
X10860Y7191D02*
X10893D01*
X10860D02*
Y7166D01*
X10877Y7174D01*
X10885D01*
X10893Y7166D01*
Y7149D01*
X10885Y7141D01*
X10868D01*
X10860Y7149D01*
X10595Y7166D02*
X10587Y7158D01*
X10595Y7166D02*
Y7183D01*
X10587Y7191D01*
X10553D01*
X10545Y7183D01*
Y7166D01*
X10553Y7158D01*
X10587Y7141D02*
X10595Y7133D01*
Y7116D01*
X10587Y7108D01*
X10578D01*
X10570Y7116D01*
X10562Y7108D01*
X10553D01*
X10545Y7116D01*
Y7133D01*
X10553Y7141D01*
X10562D01*
X10570Y7133D01*
X10578Y7141D01*
X10587D01*
X10570Y7133D02*
Y7116D01*
X10545Y7066D02*
X10595D01*
X10570Y7091D01*
Y7058D01*
X10735Y6816D02*
X10738Y6816D01*
X10741Y6815D01*
X10745Y6814D01*
X10748Y6813D01*
X10750Y6811D01*
X10753Y6809D01*
X10755Y6806D01*
X10757Y6804D01*
X10758Y6801D01*
X10759Y6797D01*
X10760Y6794D01*
X10760Y6791D01*
X10760Y6788D01*
X10759Y6785D01*
X10758Y6781D01*
X10757Y6778D01*
X10755Y6776D01*
X10753Y6773D01*
X10750Y6771D01*
X10748Y6769D01*
X10745Y6768D01*
X10741Y6767D01*
X10738Y6766D01*
X10735Y6766D01*
X11435Y6691D02*
Y6891D01*
X10735D02*
Y6816D01*
Y6766D02*
Y6691D01*
X11435D01*
Y6891D02*
X10735D01*
X10885Y6841D02*
X10918D01*
Y6833D01*
X10885Y6799D01*
Y6791D01*
X10960D02*
Y6841D01*
X10935Y6816D01*
X10968D01*
X10985Y6841D02*
Y6791D01*
Y6816D01*
X11018D01*
Y6841D01*
Y6791D01*
X11060Y6841D02*
X11068Y6833D01*
X11060Y6841D02*
X11043D01*
X11035Y6833D01*
Y6799D01*
X11043Y6791D01*
X11060D01*
X11068Y6799D01*
X11085Y6791D02*
X11102D01*
X11093D01*
Y6841D01*
X11094D01*
X11093D02*
X11085Y6833D01*
X11143D02*
X11160Y6841D01*
X11143Y6833D02*
X11127Y6816D01*
Y6799D01*
X11135Y6791D01*
X11152D01*
X11160Y6799D01*
Y6808D01*
X11152Y6816D01*
X11127D01*
X11202Y6791D02*
Y6841D01*
X11177Y6816D01*
X11210D01*
X10755Y6601D02*
Y6559D01*
X10763Y6551D01*
X10780D01*
X10788Y6559D01*
Y6601D01*
X10805Y6551D02*
X10838D01*
X10805D02*
X10838Y6584D01*
Y6593D01*
X10830Y6601D01*
X10813D01*
X10805Y6593D01*
X10880Y6601D02*
Y6551D01*
X10855Y6576D02*
X10880Y6601D01*
X10888Y6576D02*
X10855D01*
X10525Y6826D02*
X10517Y6818D01*
X10525Y6826D02*
Y6843D01*
X10517Y6851D01*
X10483D01*
X10475Y6843D01*
Y6826D01*
X10483Y6818D01*
X10517Y6801D02*
X10525Y6793D01*
Y6776D01*
X10517Y6768D01*
X10508D01*
X10500Y6776D01*
X10492Y6768D01*
X10483D01*
X10475Y6776D01*
Y6793D01*
X10483Y6801D01*
X10492D01*
X10500Y6793D01*
X10508Y6801D01*
X10517D01*
X10500Y6793D02*
Y6776D01*
X10517Y6751D02*
X10525Y6743D01*
Y6726D01*
X10517Y6718D01*
X10483D01*
X10475Y6726D01*
Y6743D01*
X10483Y6751D01*
X10517D01*
X11597Y6558D02*
X11605Y6566D01*
Y6583D01*
X11597Y6591D01*
X11563D01*
X11555Y6583D01*
Y6566D01*
X11563Y6558D01*
Y6541D02*
X11555Y6533D01*
Y6516D01*
X11563Y6508D01*
X11597D01*
X11605Y6516D01*
Y6533D01*
X11597Y6541D01*
X11588D01*
X11580Y6533D01*
Y6508D01*
X11555Y6491D02*
Y6458D01*
Y6491D02*
X11588Y6458D01*
X11597D01*
X11605Y6466D01*
Y6483D01*
X11597Y6491D01*
X11263Y5901D02*
X11247D01*
X11255D01*
Y5859D01*
X11247Y5851D01*
X11238D01*
X11230Y5859D01*
X11280Y5851D02*
Y5901D01*
X11305D01*
X11313Y5893D01*
Y5876D01*
X11305Y5868D01*
X11280D01*
X11347Y5893D02*
X11363Y5901D01*
X11347Y5893D02*
X11330Y5876D01*
Y5859D01*
X11338Y5851D01*
X11355D01*
X11363Y5859D01*
Y5868D01*
X11355Y5876D01*
X11330D01*
X9610Y9234D02*
Y9251D01*
Y9243D02*
Y9234D01*
Y9243D02*
X9660D01*
X9661D01*
X9660D02*
X9652Y9251D01*
X9660Y9209D02*
X9610D01*
Y9176D02*
X9660Y9209D01*
Y9176D02*
X9610D01*
X9618Y9159D02*
X9610Y9151D01*
Y9134D01*
X9618Y9126D01*
X9652D01*
X9660Y9134D01*
Y9151D01*
X9652Y9159D01*
X9643D01*
X9635Y9151D01*
Y9126D01*
X9610Y9109D02*
Y9093D01*
Y9101D01*
X9660D01*
X9661D01*
X9660D02*
X9652Y9109D01*
X9660Y9043D02*
X9610D01*
X9635Y9068D02*
X9660Y9043D01*
X9635Y9034D02*
Y9068D01*
X9660Y9486D02*
X9610D01*
Y9461D01*
X9618Y9453D01*
X9652D01*
X9660Y9461D01*
Y9486D01*
Y9436D02*
Y9403D01*
Y9436D02*
X9635D01*
X9643Y9419D01*
Y9411D01*
X9635Y9403D01*
X9618D01*
X9610Y9411D01*
Y9428D01*
X9618Y9436D01*
X9515Y9211D02*
Y9194D01*
Y9203D01*
X9565D01*
X9566D01*
X9565D02*
X9557Y9211D01*
X9565Y9169D02*
X9515D01*
X9532D01*
X9565Y9136D01*
X9540Y9161D01*
X9515Y9136D01*
X9510Y9506D02*
X9560D01*
Y9481D01*
X9552Y9473D01*
X9535D01*
X9527Y9481D01*
Y9506D01*
Y9489D02*
X9510Y9473D01*
Y9456D02*
Y9423D01*
Y9456D02*
X9543Y9423D01*
X9552D01*
X9560Y9431D01*
Y9448D01*
X9552Y9456D01*
Y9406D02*
X9560Y9398D01*
Y9381D01*
X9552Y9373D01*
X9518D01*
X9510Y9381D01*
Y9398D01*
X9518Y9406D01*
X9552D01*
X9405Y9251D02*
Y9234D01*
Y9243D01*
X9455D01*
X9456D01*
X9455D02*
X9447Y9251D01*
X9455Y9209D02*
X9405D01*
Y9176D02*
X9455Y9209D01*
Y9176D02*
X9405D01*
X9413Y9159D02*
X9405Y9151D01*
Y9134D01*
X9413Y9126D01*
X9447D01*
X9455Y9134D01*
Y9151D01*
X9447Y9159D01*
X9438D01*
X9430Y9151D01*
Y9126D01*
X9405Y9109D02*
Y9093D01*
Y9101D01*
X9455D01*
X9456D01*
X9455D02*
X9447Y9109D01*
X9455Y9043D02*
X9405D01*
X9430Y9068D02*
X9455Y9043D01*
X9430Y9034D02*
Y9068D01*
X9415Y9486D02*
X9465D01*
X9415D02*
Y9461D01*
X9423Y9453D01*
X9457D01*
X9465Y9461D01*
Y9486D01*
Y9411D02*
X9415D01*
X9440Y9436D02*
X9465Y9411D01*
X9440Y9403D02*
Y9436D01*
X9310Y9251D02*
Y9234D01*
Y9243D01*
X9360D01*
X9361D01*
X9360D02*
X9352Y9251D01*
X9360Y9209D02*
X9310D01*
Y9176D02*
X9360Y9209D01*
Y9176D02*
X9310D01*
X9318Y9159D02*
X9310Y9151D01*
Y9134D01*
X9318Y9126D01*
X9352D01*
X9360Y9134D01*
Y9151D01*
X9352Y9159D01*
X9343D01*
X9335Y9151D01*
Y9126D01*
X9310Y9109D02*
Y9093D01*
Y9101D01*
X9360D01*
X9361D01*
X9360D02*
X9352Y9109D01*
X9360Y9043D02*
X9310D01*
X9335Y9068D02*
X9360Y9043D01*
X9335Y9034D02*
Y9068D01*
X9315Y9476D02*
X9365D01*
X9315D02*
Y9451D01*
X9323Y9443D01*
X9357D01*
X9365Y9451D01*
Y9476D01*
X9357Y9426D02*
X9365Y9418D01*
Y9401D01*
X9357Y9393D01*
X9348D01*
X9349D01*
X9348D02*
X9349D01*
X9348D02*
X9349D01*
X9348D02*
X9340Y9401D01*
Y9409D01*
Y9401D01*
X9332Y9393D01*
X9323D01*
X9315Y9401D01*
Y9418D01*
X9323Y9426D01*
X9210Y9221D02*
Y9204D01*
Y9213D01*
X9260D01*
X9261D01*
X9260D02*
X9252Y9221D01*
X9260Y9179D02*
X9210D01*
X9227D01*
X9260Y9146D01*
X9235Y9171D01*
X9210Y9146D01*
Y9501D02*
X9260D01*
Y9476D01*
X9252Y9468D01*
X9235D01*
X9227Y9476D01*
Y9501D01*
Y9484D02*
X9210Y9468D01*
Y9451D02*
Y9434D01*
Y9443D01*
X9260D01*
X9261D01*
X9260D02*
X9252Y9451D01*
Y9409D02*
X9260Y9401D01*
Y9384D01*
X9252Y9376D01*
X9243D01*
X9244D01*
X9243D02*
X9244D01*
X9243D02*
X9244D01*
X9243D02*
X9235Y9384D01*
Y9393D01*
Y9384D01*
X9227Y9376D01*
X9218D01*
X9210Y9384D01*
Y9401D01*
X9218Y9409D01*
X9058Y9651D02*
X9042D01*
X9050D01*
Y9609D01*
X9042Y9601D01*
X9033D01*
X9025Y9609D01*
X9075Y9601D02*
Y9651D01*
X9100D01*
X9108Y9643D01*
Y9626D01*
X9100Y9618D01*
X9075D01*
X9125Y9601D02*
X9142D01*
X9133D01*
Y9651D01*
X9134D01*
X9133D02*
X9125Y9643D01*
X8810Y9236D02*
Y9219D01*
Y9228D01*
X8860D01*
X8861D01*
X8860D02*
X8852Y9236D01*
Y9194D02*
X8860Y9186D01*
Y9169D01*
X8852Y9161D01*
X8818D01*
X8810Y9169D01*
Y9186D01*
X8818Y9194D01*
X8852D01*
X8860Y9144D02*
X8810D01*
X8827D01*
X8860Y9111D01*
X8835Y9136D01*
X8810Y9111D01*
X8815Y9511D02*
X8865D01*
Y9486D01*
X8857Y9478D01*
X8840D01*
X8832Y9486D01*
Y9511D01*
Y9494D02*
X8815Y9478D01*
Y9461D02*
Y9444D01*
Y9453D01*
X8865D01*
X8866D01*
X8865D02*
X8857Y9461D01*
X8865Y9419D02*
Y9386D01*
Y9419D02*
X8840D01*
X8848Y9403D01*
Y9394D01*
X8840Y9386D01*
X8823D01*
X8815Y9394D01*
Y9411D01*
X8823Y9419D01*
X9010Y9091D02*
Y9074D01*
Y9083D01*
X9060D01*
X9061D01*
X9060D02*
X9052Y9091D01*
X9060Y9049D02*
Y9016D01*
Y9049D02*
X9035D01*
X9043Y9033D01*
Y9024D01*
X9035Y9016D01*
X9018D01*
X9010Y9024D01*
Y9041D01*
X9018Y9049D01*
X9052Y8999D02*
X9060Y8991D01*
Y8974D01*
X9052Y8966D01*
X9018D01*
X9010Y8974D01*
Y8991D01*
X9018Y8999D01*
X9052D01*
X9043Y8949D02*
X8993D01*
X9043D02*
Y8924D01*
X9035Y8916D01*
X9018D01*
X9010Y8924D01*
Y8949D01*
X9060Y8899D02*
Y8866D01*
Y8899D02*
X9035D01*
Y8883D01*
Y8899D01*
X9010D01*
X8967Y9228D02*
X8975Y9236D01*
Y9253D01*
X8967Y9261D01*
X8933D01*
X8925Y9253D01*
Y9236D01*
X8933Y9228D01*
X8975Y9211D02*
Y9178D01*
Y9211D02*
X8950D01*
X8958Y9194D01*
Y9186D01*
X8950Y9178D01*
X8933D01*
X8925Y9186D01*
Y9203D01*
X8933Y9211D01*
X8967Y9161D02*
X8975Y9153D01*
Y9136D01*
X8967Y9128D01*
X8958D01*
X8959D01*
X8958D02*
X8959D01*
X8958D02*
X8959D01*
X8958D02*
X8950Y9136D01*
Y9144D01*
Y9136D01*
X8942Y9128D01*
X8933D01*
X8925Y9136D01*
Y9153D01*
X8933Y9161D01*
X8635Y8666D02*
X8638Y8666D01*
X8641Y8665D01*
X8645Y8664D01*
X8648Y8663D01*
X8650Y8661D01*
X8653Y8659D01*
X8655Y8656D01*
X8657Y8654D01*
X8658Y8651D01*
X8659Y8647D01*
X8660Y8644D01*
X8660Y8641D01*
X8660Y8638D01*
X8659Y8635D01*
X8658Y8631D01*
X8657Y8628D01*
X8655Y8626D01*
X8653Y8623D01*
X8650Y8621D01*
X8648Y8619D01*
X8645Y8618D01*
X8641Y8617D01*
X8638Y8616D01*
X8635Y8616D01*
X9635Y8541D02*
Y8741D01*
X8635D02*
Y8666D01*
Y8616D02*
Y8541D01*
X9635D01*
Y8741D02*
X8635D01*
X8935Y8674D02*
Y8641D01*
Y8674D02*
X8952Y8691D01*
X8968Y8674D01*
Y8641D01*
Y8666D01*
X8935D01*
X8985Y8691D02*
Y8641D01*
X9010D01*
X9018Y8649D01*
Y8683D01*
X9010Y8691D01*
X8985D01*
X9060D02*
X9068Y8683D01*
X9060Y8691D02*
X9043D01*
X9035Y8683D01*
Y8649D01*
X9043Y8641D01*
X9060D01*
X9068Y8649D01*
X9085Y8683D02*
X9093Y8691D01*
X9110D01*
X9118Y8683D01*
Y8649D01*
X9110Y8641D01*
X9093D01*
X9085Y8649D01*
Y8683D01*
X9135D02*
X9143Y8691D01*
X9160D01*
X9168Y8683D01*
Y8674D01*
X9160Y8666D01*
X9168Y8658D01*
Y8649D01*
X9160Y8641D01*
X9143D01*
X9135Y8649D01*
Y8658D01*
X9143Y8666D01*
X9135Y8674D01*
Y8683D01*
X9143Y8666D02*
X9160D01*
X9185Y8683D02*
X9193Y8691D01*
X9210D01*
X9218Y8683D01*
Y8649D01*
X9210Y8641D01*
X9193D01*
X9185Y8649D01*
Y8683D01*
X9260Y8691D02*
Y8641D01*
X9235Y8666D02*
X9260Y8691D01*
X9268Y8666D02*
X9235D01*
X8675Y8441D02*
Y8399D01*
X8683Y8391D01*
X8700D01*
X8708Y8399D01*
Y8441D01*
X8725Y8399D02*
X8733Y8391D01*
X8750D01*
X8758Y8399D01*
Y8433D01*
X8750Y8441D01*
X8733D01*
X8725Y8433D01*
Y8424D01*
X8733Y8416D01*
X8758D01*
X9685Y8016D02*
X9688Y8016D01*
X9691Y8015D01*
X9695Y8014D01*
X9698Y8013D01*
X9700Y8011D01*
X9703Y8009D01*
X9705Y8006D01*
X9707Y8004D01*
X9708Y8001D01*
X9709Y7997D01*
X9710Y7994D01*
X9710Y7991D01*
X9710Y7988D01*
X9709Y7985D01*
X9708Y7981D01*
X9707Y7978D01*
X9705Y7976D01*
X9703Y7973D01*
X9700Y7971D01*
X9698Y7969D01*
X9695Y7968D01*
X9691Y7967D01*
X9688Y7966D01*
X9685Y7966D01*
Y7891D01*
Y8016D02*
Y8091D01*
X10385D02*
Y7891D01*
Y8091D02*
X9685D01*
Y7891D02*
X10385D01*
X9918Y8041D02*
X9885D01*
X9918D02*
Y8033D01*
X9885Y7999D01*
Y7991D01*
X9960D02*
Y8041D01*
X9935Y8016D01*
X9968D01*
X9985Y8041D02*
Y7991D01*
Y8016D01*
X10018D01*
Y8041D01*
Y7991D01*
X10060Y8041D02*
X10068Y8033D01*
X10060Y8041D02*
X10043D01*
X10035Y8033D01*
Y7999D01*
X10043Y7991D01*
X10060D01*
X10068Y7999D01*
X10085Y7991D02*
X10102D01*
X10093D01*
Y8041D01*
X10094D01*
X10093D02*
X10085Y8033D01*
X10152Y8041D02*
Y7991D01*
X10127Y8016D02*
X10152Y8041D01*
X10160Y8016D02*
X10127D01*
X9715Y7796D02*
Y7754D01*
X9723Y7746D01*
X9740D01*
X9748Y7754D01*
Y7796D01*
X9765Y7746D02*
X9782D01*
X9773D01*
Y7796D01*
X9774D01*
X9773D02*
X9765Y7788D01*
X9807D02*
X9815Y7796D01*
X9832D01*
X9840Y7788D01*
Y7779D01*
X9832Y7771D01*
X9840Y7763D01*
Y7754D01*
X9832Y7746D01*
X9815D01*
X9807Y7754D01*
Y7763D01*
X9815Y7771D01*
X9807Y7779D01*
Y7788D01*
X9815Y7771D02*
X9832D01*
X9560Y7761D02*
X9552Y7753D01*
X9560Y7761D02*
Y7778D01*
X9552Y7786D01*
X9518D01*
X9510Y7778D01*
Y7761D01*
X9518Y7753D01*
Y7736D02*
X9510Y7728D01*
Y7711D01*
X9518Y7703D01*
X9552D01*
X9560Y7711D01*
Y7728D01*
X9552Y7736D01*
X9543D01*
X9535Y7728D01*
Y7703D01*
X9552Y7686D02*
X9560Y7678D01*
Y7661D01*
X9552Y7653D01*
X9518D01*
X9510Y7661D01*
Y7678D01*
X9518Y7686D01*
X9552D01*
X8635Y7966D02*
X8638Y7966D01*
X8641Y7967D01*
X8645Y7968D01*
X8648Y7969D01*
X8650Y7971D01*
X8653Y7973D01*
X8655Y7976D01*
X8657Y7978D01*
X8658Y7981D01*
X8659Y7985D01*
X8660Y7988D01*
X8660Y7991D01*
X8660Y7994D01*
X8659Y7997D01*
X8658Y8001D01*
X8657Y8004D01*
X8655Y8006D01*
X8653Y8009D01*
X8650Y8011D01*
X8648Y8013D01*
X8645Y8014D01*
X8641Y8015D01*
X8638Y8016D01*
X8635Y8016D01*
Y7966D02*
Y7891D01*
Y8016D02*
Y8091D01*
X9335D02*
Y7891D01*
Y8091D02*
X8635D01*
Y7891D02*
X9335D01*
X8868Y8041D02*
X8835D01*
X8868D02*
Y8033D01*
X8835Y7999D01*
Y7991D01*
X8910D02*
Y8041D01*
X8885Y8016D01*
X8918D01*
X8935Y8041D02*
Y7991D01*
Y8016D01*
X8968D01*
Y8041D01*
Y7991D01*
X9010Y8041D02*
X9018Y8033D01*
X9010Y8041D02*
X8993D01*
X8985Y8033D01*
Y7999D01*
X8993Y7991D01*
X9010D01*
X9018Y7999D01*
X9035Y7991D02*
X9052D01*
X9043D01*
Y8041D01*
X9044D01*
X9043D02*
X9035Y8033D01*
X9102Y8041D02*
Y7991D01*
X9077Y8016D02*
X9102Y8041D01*
X9110Y8016D02*
X9077D01*
X8517Y7810D02*
X8475D01*
X8517D02*
X8525Y7818D01*
Y7835D01*
X8517Y7843D01*
X8475D01*
X8525Y7860D02*
Y7877D01*
Y7868D01*
X8475D01*
X8476D01*
X8475D02*
X8483Y7860D01*
X8475Y7902D02*
Y7935D01*
X8483D01*
X8517Y7902D01*
X8525D01*
X9885Y8616D02*
X9888Y8616D01*
X9891Y8617D01*
X9895Y8618D01*
X9898Y8619D01*
X9900Y8621D01*
X9903Y8623D01*
X9905Y8626D01*
X9907Y8628D01*
X9908Y8631D01*
X9909Y8635D01*
X9910Y8638D01*
X9910Y8641D01*
X9910Y8644D01*
X9909Y8647D01*
X9908Y8651D01*
X9907Y8654D01*
X9905Y8656D01*
X9903Y8659D01*
X9900Y8661D01*
X9898Y8663D01*
X9895Y8664D01*
X9891Y8665D01*
X9888Y8666D01*
X9885Y8666D01*
X10585Y8741D02*
Y8541D01*
X9885Y8666D02*
Y8741D01*
Y8616D02*
Y8541D01*
X10585D01*
Y8741D02*
X9885D01*
X10200Y8671D02*
X10233D01*
Y8663D01*
X10200Y8629D01*
Y8621D01*
X10275D02*
Y8671D01*
X10250Y8646D01*
X10283D01*
X10300Y8671D02*
Y8621D01*
Y8646D01*
X10333D01*
Y8671D01*
Y8621D01*
X10375Y8671D02*
X10383Y8663D01*
X10375Y8671D02*
X10358D01*
X10350Y8663D01*
Y8629D01*
X10358Y8621D01*
X10375D01*
X10383Y8629D01*
X10400Y8621D02*
X10417D01*
X10408D01*
Y8671D01*
X10409D01*
X10408D02*
X10400Y8663D01*
X10467Y8671D02*
Y8621D01*
X10442Y8646D02*
X10467Y8671D01*
X10475Y8646D02*
X10442D01*
X9905Y8446D02*
Y8404D01*
X9913Y8396D01*
X9930D01*
X9938Y8404D01*
Y8446D01*
X9955Y8396D02*
X9972D01*
X9963D01*
Y8446D01*
X9964D01*
X9963D02*
X9955Y8438D01*
X9997Y8404D02*
X10005Y8396D01*
X10022D01*
X10030Y8404D01*
Y8438D01*
X10022Y8446D01*
X10005D01*
X9997Y8438D01*
Y8429D01*
X10005Y8421D01*
X10030D01*
X9755Y9036D02*
Y9053D01*
Y9044D01*
X9705D01*
X9706D01*
X9705D02*
X9713Y9036D01*
X9705Y9078D02*
X9755D01*
Y9111D02*
X9705Y9078D01*
Y9111D02*
X9755D01*
X9747Y9128D02*
X9755Y9136D01*
Y9153D01*
X9747Y9161D01*
X9713D01*
X9705Y9153D01*
Y9136D01*
X9713Y9128D01*
X9722D01*
X9730Y9136D01*
Y9161D01*
X9755Y9178D02*
Y9194D01*
Y9186D01*
X9705D01*
X9706D01*
X9705D02*
X9713Y9178D01*
X9705Y9244D02*
X9755D01*
X9730Y9219D02*
X9705Y9244D01*
X9730Y9253D02*
Y9219D01*
X9715Y9476D02*
X9765D01*
X9715D02*
Y9451D01*
X9723Y9443D01*
X9757D01*
X9765Y9451D01*
Y9476D01*
X9757Y9409D02*
X9765Y9393D01*
X9757Y9409D02*
X9740Y9426D01*
X9723D01*
X9715Y9418D01*
Y9401D01*
X9723Y9393D01*
X9732D01*
X9740Y9401D01*
Y9426D01*
X9115Y9221D02*
Y9204D01*
Y9213D01*
X9165D01*
X9166D01*
X9165D02*
X9157Y9221D01*
Y9179D02*
X9165Y9171D01*
Y9154D01*
X9157Y9146D01*
X9123D01*
X9115Y9154D01*
Y9171D01*
X9123Y9179D01*
X9157D01*
Y9129D02*
X9165Y9121D01*
Y9104D01*
X9157Y9096D01*
X9123D01*
X9115Y9104D01*
Y9121D01*
X9123Y9129D01*
X9157D01*
X9165Y9079D02*
X9115D01*
X9132D01*
X9165Y9046D01*
X9140Y9071D01*
X9115Y9046D01*
X9120Y9521D02*
X9170D01*
Y9496D01*
X9162Y9488D01*
X9145D01*
X9137Y9496D01*
Y9521D01*
Y9504D02*
X9120Y9488D01*
X9162Y9454D02*
X9170Y9438D01*
X9162Y9454D02*
X9145Y9471D01*
X9128D01*
X9120Y9463D01*
Y9446D01*
X9128Y9438D01*
X9137D01*
X9145Y9446D01*
Y9471D01*
X9120Y9421D02*
Y9388D01*
Y9421D02*
X9153Y9388D01*
X9162D01*
X9170Y9396D01*
Y9413D01*
X9162Y9421D01*
X9827Y8933D02*
X9835Y8941D01*
Y8958D01*
X9827Y8966D01*
X9793D01*
X9785Y8958D01*
Y8941D01*
X9793Y8933D01*
X9835Y8916D02*
Y8883D01*
X9827D01*
X9793Y8916D01*
X9785D01*
X9827Y8866D02*
X9835Y8858D01*
Y8841D01*
X9827Y8833D01*
X9818D01*
X9810Y8841D01*
X9802Y8833D01*
X9793D01*
X9785Y8841D01*
Y8858D01*
X9793Y8866D01*
X9802D01*
X9810Y8858D01*
X9818Y8866D01*
X9827D01*
X9810Y8858D02*
Y8841D01*
X10035Y6216D02*
X10032Y6216D01*
X10029Y6215D01*
X10025Y6214D01*
X10022Y6213D01*
X10020Y6211D01*
X10017Y6209D01*
X10015Y6206D01*
X10013Y6204D01*
X10012Y6201D01*
X10011Y6197D01*
X10010Y6194D01*
X10010Y6191D01*
X10010Y6188D01*
X10011Y6185D01*
X10012Y6181D01*
X10013Y6178D01*
X10015Y6176D01*
X10017Y6173D01*
X10020Y6171D01*
X10022Y6169D01*
X10025Y6168D01*
X10029Y6167D01*
X10032Y6166D01*
X10035Y6166D01*
X9235Y6091D02*
Y6291D01*
X10035Y6166D02*
Y6091D01*
Y6216D02*
Y6291D01*
X9235D01*
Y6091D02*
X10035D01*
X9450Y6171D02*
Y6221D01*
X9475D01*
X9483Y6213D01*
Y6196D01*
X9475Y6188D01*
X9450D01*
X9467D02*
X9483Y6171D01*
X9500Y6196D02*
X9533D01*
X9550Y6171D02*
Y6221D01*
X9575D01*
X9583Y6213D01*
Y6196D01*
X9575Y6188D01*
X9550D01*
X9600Y6171D02*
Y6204D01*
X9617Y6221D01*
X9633Y6204D01*
Y6171D01*
Y6196D01*
X9600D01*
X9675Y6221D02*
X9683Y6213D01*
X9675Y6221D02*
X9658D01*
X9650Y6213D01*
Y6179D01*
X9658Y6171D01*
X9675D01*
X9683Y6179D01*
X9700Y6171D02*
Y6221D01*
Y6188D02*
Y6171D01*
Y6188D02*
X9733Y6221D01*
X9708Y6196D01*
X9733Y6171D01*
X9750Y6196D02*
X9783D01*
X9825Y6171D02*
Y6221D01*
X9800Y6196D01*
X9833D01*
X9850Y6221D02*
X9883D01*
Y6213D01*
X9850Y6179D01*
Y6171D01*
X9900Y6213D02*
X9908Y6221D01*
X9925D01*
X9933Y6213D01*
Y6179D01*
X9925Y6171D01*
X9908D01*
X9900Y6179D01*
Y6213D01*
X9940Y6386D02*
Y6436D01*
X9965D01*
X9973Y6428D01*
Y6411D01*
X9965Y6403D01*
X9940D01*
X9957D02*
X9973Y6386D01*
X9990D02*
X10023D01*
X9990D02*
X10023Y6419D01*
Y6428D01*
X10015Y6436D01*
X9998D01*
X9990Y6428D01*
X10040D02*
X10048Y6436D01*
X10065D01*
X10073Y6428D01*
Y6419D01*
X10074D01*
X10073D02*
X10074D01*
X10073D02*
X10074D01*
X10073D02*
X10065Y6411D01*
X10057D01*
X10065D01*
X10073Y6403D01*
Y6394D01*
X10065Y6386D01*
X10048D01*
X10040Y6394D01*
X8635Y7366D02*
X8638Y7366D01*
X8641Y7367D01*
X8645Y7368D01*
X8648Y7369D01*
X8650Y7371D01*
X8653Y7373D01*
X8655Y7376D01*
X8657Y7378D01*
X8658Y7381D01*
X8659Y7385D01*
X8660Y7388D01*
X8660Y7391D01*
X8660Y7394D01*
X8659Y7397D01*
X8658Y7401D01*
X8657Y7404D01*
X8655Y7406D01*
X8653Y7409D01*
X8650Y7411D01*
X8648Y7413D01*
X8645Y7414D01*
X8641Y7415D01*
X8638Y7416D01*
X8635Y7416D01*
X9435Y7491D02*
Y7291D01*
X8635Y7416D02*
Y7491D01*
Y7366D02*
Y7291D01*
X9435D01*
Y7491D02*
X8635D01*
X8785Y7441D02*
X8818D01*
Y7433D01*
X8785Y7399D01*
Y7391D01*
X8860D02*
Y7441D01*
X8835Y7416D01*
X8868D01*
X8885Y7441D02*
Y7391D01*
Y7416D01*
X8918D01*
Y7441D01*
Y7391D01*
X8960Y7441D02*
X8968Y7433D01*
X8960Y7441D02*
X8943D01*
X8935Y7433D01*
Y7399D01*
X8943Y7391D01*
X8960D01*
X8968Y7399D01*
X8985Y7391D02*
X9002D01*
X8993D01*
Y7441D01*
X8994D01*
X8993D02*
X8985Y7433D01*
X9027D02*
X9035Y7441D01*
X9052D01*
X9060Y7433D01*
Y7399D01*
X9052Y7391D01*
X9035D01*
X9027Y7399D01*
Y7433D01*
X9077Y7399D02*
X9085Y7391D01*
X9102D01*
X9110Y7399D01*
Y7433D01*
X9102Y7441D01*
X9085D01*
X9077Y7433D01*
Y7424D01*
X9085Y7416D01*
X9110D01*
X8517Y7210D02*
X8475D01*
X8517D02*
X8525Y7218D01*
Y7235D01*
X8517Y7243D01*
X8475D01*
X8525Y7260D02*
Y7277D01*
Y7268D01*
X8475D01*
X8476D01*
X8475D02*
X8483Y7260D01*
Y7318D02*
X8475Y7335D01*
X8483Y7318D02*
X8500Y7302D01*
X8517D01*
X8525Y7310D01*
Y7327D01*
X8517Y7335D01*
X8508D01*
X8500Y7327D01*
Y7302D01*
X9685Y7366D02*
X9688Y7366D01*
X9691Y7367D01*
X9695Y7368D01*
X9698Y7369D01*
X9700Y7371D01*
X9703Y7373D01*
X9705Y7376D01*
X9707Y7378D01*
X9708Y7381D01*
X9709Y7385D01*
X9710Y7388D01*
X9710Y7391D01*
X9710Y7394D01*
X9709Y7397D01*
X9708Y7401D01*
X9707Y7404D01*
X9705Y7406D01*
X9703Y7409D01*
X9700Y7411D01*
X9698Y7413D01*
X9695Y7414D01*
X9691Y7415D01*
X9688Y7416D01*
X9685Y7416D01*
X10385Y7491D02*
Y7291D01*
X9685Y7416D02*
Y7491D01*
Y7366D02*
Y7291D01*
X10385D01*
Y7491D02*
X9685D01*
X9855Y7476D02*
X9888D01*
Y7468D01*
X9855Y7434D01*
Y7426D01*
X9930D02*
Y7476D01*
X9905Y7451D01*
X9938D01*
X9955Y7476D02*
Y7426D01*
Y7451D01*
X9988D01*
Y7476D01*
Y7426D01*
X10030Y7476D02*
X10038Y7468D01*
X10030Y7476D02*
X10013D01*
X10005Y7468D01*
Y7434D01*
X10013Y7426D01*
X10030D01*
X10038Y7434D01*
X10055Y7468D02*
X10063Y7476D01*
X10080D01*
X10088Y7468D01*
Y7434D01*
X10080Y7426D01*
X10063D01*
X10055Y7434D01*
Y7468D01*
X10105D02*
X10113Y7476D01*
X10130D01*
X10138Y7468D01*
Y7434D01*
X10130Y7426D01*
X10113D01*
X10105Y7434D01*
Y7468D01*
X9720Y7196D02*
Y7154D01*
X9728Y7146D01*
X9745D01*
X9753Y7154D01*
Y7196D01*
X9770Y7146D02*
X9787D01*
X9778D01*
Y7196D01*
X9779D01*
X9778D02*
X9770Y7188D01*
X9812D02*
X9820Y7196D01*
X9837D01*
X9845Y7188D01*
Y7154D01*
X9837Y7146D01*
X9820D01*
X9812Y7154D01*
Y7188D01*
X9522Y7548D02*
X9530Y7556D01*
Y7573D01*
X9522Y7581D01*
X9488D01*
X9480Y7573D01*
Y7556D01*
X9488Y7548D01*
X9522Y7531D02*
X9530Y7523D01*
Y7506D01*
X9522Y7498D01*
X9513D01*
X9505Y7506D01*
X9497Y7498D01*
X9488D01*
X9480Y7506D01*
Y7523D01*
X9488Y7531D01*
X9497D01*
X9505Y7523D01*
X9513Y7531D01*
X9522D01*
X9505Y7523D02*
Y7506D01*
X9522Y7481D02*
X9530Y7473D01*
Y7456D01*
X9522Y7448D01*
X9513D01*
X9514D01*
X9513D02*
X9514D01*
X9513D02*
X9514D01*
X9513D02*
X9505Y7456D01*
Y7464D01*
Y7456D01*
X9497Y7448D01*
X9488D01*
X9480Y7456D01*
Y7473D01*
X9488Y7481D01*
X9685Y6816D02*
X9688Y6816D01*
X9691Y6815D01*
X9695Y6814D01*
X9698Y6813D01*
X9700Y6811D01*
X9703Y6809D01*
X9705Y6806D01*
X9707Y6804D01*
X9708Y6801D01*
X9709Y6797D01*
X9710Y6794D01*
X9710Y6791D01*
X9710Y6788D01*
X9709Y6785D01*
X9708Y6781D01*
X9707Y6778D01*
X9705Y6776D01*
X9703Y6773D01*
X9700Y6771D01*
X9698Y6769D01*
X9695Y6768D01*
X9691Y6767D01*
X9688Y6766D01*
X9685Y6766D01*
Y6691D01*
Y6816D02*
Y6891D01*
X10385D02*
Y6691D01*
Y6891D02*
X9685D01*
Y6691D02*
X10385D01*
X9913Y6821D02*
X9880D01*
X9913D02*
Y6813D01*
X9880Y6779D01*
Y6771D01*
X9955D02*
Y6821D01*
X9930Y6796D01*
X9963D01*
X9980Y6821D02*
Y6771D01*
Y6796D01*
X10013D01*
Y6821D01*
Y6771D01*
X10055Y6821D02*
X10063Y6813D01*
X10055Y6821D02*
X10038D01*
X10030Y6813D01*
Y6779D01*
X10038Y6771D01*
X10055D01*
X10063Y6779D01*
X10080Y6813D02*
X10088Y6821D01*
X10105D01*
X10113Y6813D01*
Y6804D01*
X10114D01*
X10113D02*
X10114D01*
X10113D02*
X10114D01*
X10113D02*
X10105Y6796D01*
X10097D01*
X10105D01*
X10113Y6788D01*
Y6779D01*
X10105Y6771D01*
X10088D01*
X10080Y6779D01*
X10130Y6771D02*
X10163D01*
X10130D02*
X10163Y6804D01*
Y6813D01*
X10155Y6821D01*
X10138D01*
X10130Y6813D01*
X9725Y6591D02*
Y6549D01*
X9733Y6541D01*
X9750D01*
X9758Y6549D01*
Y6591D01*
X9775Y6583D02*
X9783Y6591D01*
X9800D01*
X9808Y6583D01*
Y6574D01*
X9809D01*
X9808D02*
X9809D01*
X9808D02*
X9809D01*
X9808D02*
X9800Y6566D01*
X9792D01*
X9800D01*
X9808Y6558D01*
Y6549D01*
X9800Y6541D01*
X9783D01*
X9775Y6549D01*
X9825Y6541D02*
X9842D01*
X9833D01*
Y6591D01*
X9834D01*
X9833D02*
X9825Y6583D01*
X9562Y7068D02*
X9570Y7076D01*
Y7093D01*
X9562Y7101D01*
X9528D01*
X9520Y7093D01*
Y7076D01*
X9528Y7068D01*
X9562Y7051D02*
X9570Y7043D01*
Y7026D01*
X9562Y7018D01*
X9553D01*
X9545Y7026D01*
X9537Y7018D01*
X9528D01*
X9520Y7026D01*
Y7043D01*
X9528Y7051D01*
X9537D01*
X9545Y7043D01*
X9553Y7051D01*
X9562D01*
X9545Y7043D02*
Y7026D01*
X9520Y7001D02*
Y6984D01*
Y6993D01*
X9570D01*
X9571D01*
X9570D02*
X9562Y7001D01*
X10107Y5861D02*
X10123D01*
X10115D02*
X10107D01*
X10115D02*
Y5819D01*
X10107Y5811D01*
X10098D01*
X10090Y5819D01*
X10140Y5811D02*
Y5861D01*
X10165D01*
X10173Y5853D01*
Y5836D01*
X10165Y5828D01*
X10140D01*
X10190Y5811D02*
X10223D01*
X10190D02*
X10223Y5844D01*
Y5853D01*
X10215Y5861D01*
X10198D01*
X10190Y5853D01*
X8265Y9329D02*
Y9346D01*
Y9338D02*
Y9329D01*
Y9338D02*
X8315D01*
X8316D01*
X8315D02*
X8307Y9346D01*
X8315Y9304D02*
X8265D01*
Y9271D02*
X8315Y9304D01*
Y9271D02*
X8265D01*
X8273Y9254D02*
X8265Y9246D01*
Y9229D01*
X8273Y9221D01*
X8307D01*
X8315Y9229D01*
Y9246D01*
X8307Y9254D01*
X8298D01*
X8290Y9246D01*
Y9221D01*
X8265Y9204D02*
Y9188D01*
Y9196D01*
X8315D01*
X8316D01*
X8315D02*
X8307Y9204D01*
X8315Y9138D02*
X8265D01*
X8290Y9163D02*
X8315Y9138D01*
X8290Y9129D02*
Y9163D01*
X8315Y9621D02*
X8265D01*
Y9596D01*
X8273Y9588D01*
X8307D01*
X8315Y9596D01*
Y9621D01*
X8265Y9571D02*
Y9554D01*
Y9563D01*
X8315D01*
X8316D01*
X8315D02*
X8307Y9571D01*
X8265Y9529D02*
Y9513D01*
Y9521D01*
X8315D01*
X8316D01*
X8315D02*
X8307Y9529D01*
X8065Y9306D02*
Y9289D01*
Y9298D01*
X8115D01*
X8116D01*
X8115D02*
X8107Y9306D01*
X8115Y9264D02*
X8065D01*
X8082D01*
X8115Y9231D01*
X8090Y9256D01*
X8065Y9231D01*
X8060Y8996D02*
X8110D01*
Y8971D01*
X8102Y8963D01*
X8085D01*
X8077Y8971D01*
Y8996D01*
Y8979D02*
X8060Y8963D01*
X8110Y8946D02*
Y8913D01*
Y8946D02*
X8085D01*
X8093Y8929D01*
Y8921D01*
X8085Y8913D01*
X8068D01*
X8060Y8921D01*
Y8938D01*
X8068Y8946D01*
X8110Y8896D02*
Y8863D01*
X8102D01*
X8068Y8896D01*
X8060D01*
X7293Y9636D02*
X7277D01*
X7285D01*
Y9594D01*
X7277Y9586D01*
X7268D01*
X7260Y9594D01*
X7310Y9586D02*
Y9636D01*
X7335D01*
X7343Y9628D01*
Y9611D01*
X7335Y9603D01*
X7310D01*
X7360Y9628D02*
X7368Y9636D01*
X7385D01*
X7393Y9628D01*
Y9619D01*
X7394D01*
X7393D02*
X7394D01*
X7393D02*
X7394D01*
X7393D02*
X7385Y9611D01*
X7377D01*
X7385D01*
X7393Y9603D01*
Y9594D01*
X7385Y9586D01*
X7368D01*
X7360Y9594D01*
X7855Y8421D02*
X7872D01*
X7863D01*
Y8471D01*
X7864D01*
X7863D02*
X7855Y8463D01*
X7897D02*
X7905Y8471D01*
X7922D01*
X7930Y8463D01*
Y8429D01*
X7922Y8421D01*
X7905D01*
X7897Y8429D01*
Y8463D01*
X7947D02*
X7955Y8471D01*
X7972D01*
X7980Y8463D01*
Y8429D01*
X7972Y8421D01*
X7955D01*
X7947Y8429D01*
Y8463D01*
X7997Y8471D02*
Y8421D01*
Y8438D01*
X8030Y8471D01*
X8005Y8446D01*
X8030Y8421D01*
X8190Y8426D02*
Y8476D01*
X8215D01*
X8223Y8468D01*
Y8451D01*
X8215Y8443D01*
X8190D01*
X8207D02*
X8223Y8426D01*
X8257Y8468D02*
X8273Y8476D01*
X8257Y8468D02*
X8240Y8451D01*
Y8434D01*
X8248Y8426D01*
X8265D01*
X8273Y8434D01*
Y8443D01*
X8265Y8451D01*
X8240D01*
X8290Y8468D02*
X8298Y8476D01*
X8315D01*
X8323Y8468D01*
Y8459D01*
X8324D01*
X8323D02*
X8324D01*
X8323D02*
X8324D01*
X8323D02*
X8315Y8451D01*
X8307D01*
X8315D01*
X8323Y8443D01*
Y8434D01*
X8315Y8426D01*
X8298D01*
X8290Y8434D01*
X7867Y8771D02*
X7850D01*
X7858D02*
X7867D01*
X7858D02*
Y8821D01*
X7859D01*
X7858D02*
X7850Y8813D01*
X7892D02*
X7900Y8821D01*
X7917D01*
X7925Y8813D01*
Y8779D01*
X7917Y8771D01*
X7900D01*
X7892Y8779D01*
Y8813D01*
X7942D02*
X7950Y8821D01*
X7967D01*
X7975Y8813D01*
Y8779D01*
X7967Y8771D01*
X7950D01*
X7942Y8779D01*
Y8813D01*
X7992Y8821D02*
Y8771D01*
Y8788D01*
X8025Y8821D01*
X8000Y8796D01*
X8025Y8771D01*
X8180Y8776D02*
Y8826D01*
X8205D01*
X8213Y8818D01*
Y8801D01*
X8205Y8793D01*
X8180D01*
X8197D02*
X8213Y8776D01*
X8230Y8826D02*
X8263D01*
X8230D02*
Y8801D01*
X8247Y8809D01*
X8255D01*
X8263Y8801D01*
Y8784D01*
X8255Y8776D01*
X8238D01*
X8230Y8784D01*
X8280D02*
X8288Y8776D01*
X8305D01*
X8313Y8784D01*
Y8818D01*
X8305Y8826D01*
X8288D01*
X8280Y8818D01*
Y8809D01*
X8288Y8801D01*
X8313D01*
X8040Y8731D02*
Y8681D01*
X8073D01*
X8090D02*
Y8731D01*
X8107Y8714D01*
X8123Y8731D01*
Y8681D01*
X8165D02*
Y8731D01*
X8140Y8706D01*
X8173D01*
X8190Y8723D02*
X8198Y8731D01*
X8215D01*
X8223Y8723D01*
Y8689D01*
X8215Y8681D01*
X8198D01*
X8190Y8689D01*
Y8723D01*
X8265Y8731D02*
Y8681D01*
X8240Y8706D02*
X8265Y8731D01*
X8273Y8706D02*
X8240D01*
X8290Y8681D02*
X8307D01*
X8298D01*
Y8731D01*
X8299D01*
X8298D02*
X8290Y8723D01*
X8332Y8706D02*
X8365D01*
X8382Y8714D02*
Y8681D01*
Y8714D02*
X8398Y8731D01*
X8415Y8714D01*
Y8681D01*
Y8706D01*
X8382D01*
X8432Y8731D02*
Y8681D01*
X8457D01*
X8465Y8689D01*
Y8723D01*
X8457Y8731D01*
X8432D01*
X8498D02*
X8515D01*
X8507D02*
X8498D01*
X8507D02*
Y8689D01*
X8498Y8681D01*
X8490D01*
X8482Y8689D01*
X8050Y8656D02*
Y8614D01*
X8058Y8606D01*
X8075D01*
X8083Y8614D01*
Y8656D01*
X8100Y8648D02*
X8108Y8656D01*
X8125D01*
X8133Y8648D01*
Y8639D01*
X8134D01*
X8133D02*
X8134D01*
X8133D02*
X8134D01*
X8133D02*
X8125Y8631D01*
X8117D01*
X8125D01*
X8133Y8623D01*
Y8614D01*
X8125Y8606D01*
X8108D01*
X8100Y8614D01*
X8150Y8648D02*
X8158Y8656D01*
X8175D01*
X8183Y8648D01*
Y8639D01*
X8184D01*
X8183D02*
X8184D01*
X8183D02*
X8184D01*
X8183D02*
X8175Y8631D01*
X8167D01*
X8175D01*
X8183Y8623D01*
Y8614D01*
X8175Y8606D01*
X8158D01*
X8150Y8614D01*
X7892Y8516D02*
X7875D01*
X7883D02*
X7892D01*
X7883D02*
Y8566D01*
X7884D01*
X7883D02*
X7875Y8558D01*
X7917D02*
X7925Y8566D01*
X7942D01*
X7950Y8558D01*
Y8524D01*
X7942Y8516D01*
X7925D01*
X7917Y8524D01*
Y8558D01*
X7967Y8566D02*
Y8516D01*
Y8533D01*
X8000Y8566D01*
X7975Y8541D01*
X8000Y8516D01*
X8310Y8521D02*
Y8571D01*
X8335D01*
X8343Y8563D01*
Y8546D01*
X8335Y8538D01*
X8310D01*
X8327D02*
X8343Y8521D01*
X8360Y8571D02*
X8393D01*
X8360D02*
Y8546D01*
X8377Y8554D01*
X8385D01*
X8393Y8546D01*
Y8529D01*
X8385Y8521D01*
X8368D01*
X8360Y8529D01*
X8410Y8563D02*
X8418Y8571D01*
X8435D01*
X8443Y8563D01*
Y8554D01*
X8435Y8546D01*
X8443Y8538D01*
Y8529D01*
X8435Y8521D01*
X8418D01*
X8410Y8529D01*
Y8538D01*
X8418Y8546D01*
X8410Y8554D01*
Y8563D01*
X8418Y8546D02*
X8435D01*
X7877Y8216D02*
X7860D01*
X7868D02*
X7877D01*
X7868D02*
Y8266D01*
X7869D01*
X7868D02*
X7860Y8258D01*
X7902D02*
X7910Y8266D01*
X7927D01*
X7935Y8258D01*
Y8224D01*
X7927Y8216D01*
X7910D01*
X7902Y8224D01*
Y8258D01*
X7952D02*
X7960Y8266D01*
X7977D01*
X7985Y8258D01*
Y8224D01*
X7977Y8216D01*
X7960D01*
X7952Y8224D01*
Y8258D01*
X8002Y8266D02*
Y8216D01*
Y8233D01*
X8035Y8266D01*
X8010Y8241D01*
X8035Y8216D01*
X8190Y8221D02*
Y8271D01*
X8215D01*
X8223Y8263D01*
Y8246D01*
X8215Y8238D01*
X8190D01*
X8207D02*
X8223Y8221D01*
X8257Y8263D02*
X8273Y8271D01*
X8257Y8263D02*
X8240Y8246D01*
Y8229D01*
X8248Y8221D01*
X8265D01*
X8273Y8229D01*
Y8238D01*
X8265Y8246D01*
X8240D01*
X8290Y8221D02*
X8307D01*
X8298D01*
Y8271D01*
X8299D01*
X8298D02*
X8290Y8263D01*
X7882Y8321D02*
X7865D01*
X7873D02*
X7882D01*
X7873D02*
Y8371D01*
X7874D01*
X7873D02*
X7865Y8363D01*
X7907D02*
X7915Y8371D01*
X7932D01*
X7940Y8363D01*
Y8329D01*
X7932Y8321D01*
X7915D01*
X7907Y8329D01*
Y8363D01*
X7957D02*
X7965Y8371D01*
X7982D01*
X7990Y8363D01*
Y8329D01*
X7982Y8321D01*
X7965D01*
X7957Y8329D01*
Y8363D01*
X8007Y8371D02*
Y8321D01*
Y8338D01*
X8040Y8371D01*
X8015Y8346D01*
X8040Y8321D01*
X8195D02*
Y8371D01*
X8220D01*
X8228Y8363D01*
Y8346D01*
X8220Y8338D01*
X8195D01*
X8212D02*
X8228Y8321D01*
X8262Y8363D02*
X8278Y8371D01*
X8262Y8363D02*
X8245Y8346D01*
Y8329D01*
X8253Y8321D01*
X8270D01*
X8278Y8329D01*
Y8338D01*
X8270Y8346D01*
X8245D01*
X8295Y8363D02*
X8303Y8371D01*
X8320D01*
X8328Y8363D01*
Y8329D01*
X8320Y8321D01*
X8303D01*
X8295Y8329D01*
Y8363D01*
X6892Y8321D02*
X6875D01*
X6883D02*
X6892D01*
X6883D02*
Y8371D01*
X6884D01*
X6883D02*
X6875Y8363D01*
X6917D02*
X6925Y8371D01*
X6942D01*
X6950Y8363D01*
Y8329D01*
X6942Y8321D01*
X6925D01*
X6917Y8329D01*
Y8363D01*
X6967Y8371D02*
Y8321D01*
Y8338D01*
X7000Y8371D01*
X6975Y8346D01*
X7000Y8321D01*
X6835Y8286D02*
Y8236D01*
Y8286D02*
X6860D01*
X6868Y8278D01*
Y8261D01*
X6860Y8253D01*
X6835D01*
X6852D02*
X6868Y8236D01*
X6902Y8278D02*
X6918Y8286D01*
X6902Y8278D02*
X6885Y8261D01*
Y8244D01*
X6893Y8236D01*
X6910D01*
X6918Y8244D01*
Y8253D01*
X6910Y8261D01*
X6885D01*
X6935Y8286D02*
X6968D01*
X6935D02*
Y8261D01*
X6952Y8269D01*
X6960D01*
X6968Y8261D01*
Y8244D01*
X6960Y8236D01*
X6943D01*
X6935Y8244D01*
X7875Y7716D02*
X7908D01*
X7875D02*
X7908Y7749D01*
Y7758D01*
X7900Y7766D01*
X7883D01*
X7875Y7758D01*
X7925D02*
X7933Y7766D01*
X7950D01*
X7958Y7758D01*
Y7724D01*
X7950Y7716D01*
X7933D01*
X7925Y7724D01*
Y7758D01*
X7975Y7766D02*
Y7716D01*
Y7733D01*
X8008Y7766D01*
X7983Y7741D01*
X8008Y7716D01*
X8185D02*
Y7766D01*
X8210D01*
X8218Y7758D01*
Y7741D01*
X8210Y7733D01*
X8185D01*
X8202D02*
X8218Y7716D01*
X8235Y7766D02*
X8268D01*
X8235D02*
Y7741D01*
X8252Y7749D01*
X8260D01*
X8268Y7741D01*
Y7724D01*
X8260Y7716D01*
X8243D01*
X8235Y7724D01*
X8285Y7766D02*
X8318D01*
X8285D02*
Y7741D01*
X8302Y7749D01*
X8310D01*
X8318Y7741D01*
Y7724D01*
X8310Y7716D01*
X8293D01*
X8285Y7724D01*
X7878Y7616D02*
X7845D01*
X7878Y7649D01*
Y7658D01*
X7870Y7666D01*
X7853D01*
X7845Y7658D01*
X7895Y7624D02*
Y7616D01*
Y7624D02*
X7903D01*
Y7616D01*
X7895D01*
X7937D02*
X7970D01*
X7937D02*
X7970Y7649D01*
Y7658D01*
X7962Y7666D01*
X7945D01*
X7937Y7658D01*
X7987Y7666D02*
Y7616D01*
X8003Y7649D02*
X7987Y7666D01*
X8003Y7649D02*
X8020Y7666D01*
Y7616D01*
X8180Y7621D02*
Y7671D01*
X8205D01*
X8213Y7663D01*
Y7646D01*
X8205Y7638D01*
X8180D01*
X8197D02*
X8213Y7621D01*
X8230Y7671D02*
X8263D01*
X8230D02*
Y7646D01*
X8247Y7654D01*
X8255D01*
X8263Y7646D01*
Y7629D01*
X8255Y7621D01*
X8238D01*
X8230Y7629D01*
X8280Y7621D02*
X8297D01*
X8288D01*
Y7671D01*
X8289D01*
X8288D02*
X8280Y7663D01*
X7665Y7976D02*
X7657Y7968D01*
X7665Y7976D02*
Y7993D01*
X7657Y8001D01*
X7623D01*
X7615Y7993D01*
Y7976D01*
X7623Y7968D01*
X7657Y7934D02*
X7665Y7918D01*
X7657Y7934D02*
X7640Y7951D01*
X7623D01*
X7615Y7943D01*
Y7926D01*
X7623Y7918D01*
X7632D01*
X7640Y7926D01*
Y7951D01*
X7615Y7876D02*
X7665D01*
X7640Y7901D01*
Y7868D01*
X7460Y7891D02*
X7460Y7888D01*
X7459Y7885D01*
X7458Y7881D01*
X7457Y7878D01*
X7455Y7876D01*
X7453Y7873D01*
X7450Y7871D01*
X7448Y7869D01*
X7445Y7868D01*
X7441Y7867D01*
X7438Y7866D01*
X7435Y7866D01*
X7432Y7866D01*
X7429Y7867D01*
X7425Y7868D01*
X7422Y7869D01*
X7420Y7871D01*
X7417Y7873D01*
X7415Y7876D01*
X7413Y7878D01*
X7412Y7881D01*
X7411Y7885D01*
X7410Y7888D01*
X7410Y7891D01*
X7335D02*
Y7491D01*
X7535D02*
Y7891D01*
Y7491D02*
X7335D01*
X7460Y7891D02*
X7535D01*
X7410D02*
X7335D01*
X7450Y7806D02*
Y7773D01*
Y7789D01*
X7400D01*
Y7756D02*
X7450D01*
X7400D02*
Y7723D01*
X7442Y7706D02*
X7450Y7698D01*
Y7681D01*
X7442Y7673D01*
X7408D01*
X7400Y7681D01*
Y7698D01*
X7408Y7706D01*
X7442D01*
X7450Y7656D02*
Y7623D01*
X7442D01*
X7408Y7656D01*
X7400D01*
Y7606D02*
Y7573D01*
Y7606D02*
X7433Y7573D01*
X7442D01*
X7450Y7581D01*
Y7598D01*
X7442Y7606D01*
X7240Y7886D02*
X7198D01*
X7190Y7878D01*
Y7861D01*
X7198Y7853D01*
X7240D01*
X7190Y7836D02*
Y7803D01*
Y7836D02*
X7223Y7803D01*
X7232D01*
X7240Y7811D01*
Y7828D01*
X7232Y7836D01*
X7198Y7786D02*
X7190Y7778D01*
Y7761D01*
X7198Y7753D01*
X7232D01*
X7240Y7761D01*
Y7778D01*
X7232Y7786D01*
X7223D01*
X7215Y7778D01*
Y7753D01*
X7133Y8058D02*
X7125Y8066D01*
X7108D01*
X7100Y8058D01*
Y8024D01*
X7108Y8016D01*
X7125D01*
X7133Y8024D01*
X7167Y8058D02*
X7183Y8066D01*
X7167Y8058D02*
X7150Y8041D01*
Y8024D01*
X7158Y8016D01*
X7175D01*
X7183Y8024D01*
Y8033D01*
X7175Y8041D01*
X7150D01*
X7200Y8066D02*
X7233D01*
X7200D02*
Y8041D01*
X7217Y8049D01*
X7225D01*
X7233Y8041D01*
Y8024D01*
X7225Y8016D01*
X7208D01*
X7200Y8024D01*
X7518Y8643D02*
X7510Y8651D01*
X7493D01*
X7485Y8643D01*
Y8609D01*
X7493Y8601D01*
X7510D01*
X7518Y8609D01*
X7552Y8643D02*
X7568Y8651D01*
X7552Y8643D02*
X7535Y8626D01*
Y8609D01*
X7543Y8601D01*
X7560D01*
X7568Y8609D01*
Y8618D01*
X7560Y8626D01*
X7535D01*
X7585Y8643D02*
X7593Y8651D01*
X7610D01*
X7618Y8643D01*
Y8609D01*
X7610Y8601D01*
X7593D01*
X7585Y8609D01*
Y8643D01*
X7460Y8491D02*
X7460Y8488D01*
X7459Y8485D01*
X7458Y8481D01*
X7457Y8478D01*
X7455Y8476D01*
X7453Y8473D01*
X7450Y8471D01*
X7448Y8469D01*
X7445Y8468D01*
X7441Y8467D01*
X7438Y8466D01*
X7435Y8466D01*
X7432Y8466D01*
X7429Y8467D01*
X7425Y8468D01*
X7422Y8469D01*
X7420Y8471D01*
X7417Y8473D01*
X7415Y8476D01*
X7413Y8478D01*
X7412Y8481D01*
X7411Y8485D01*
X7410Y8488D01*
X7410Y8491D01*
X7335D02*
Y8091D01*
X7535D02*
Y8491D01*
Y8091D02*
X7335D01*
X7460Y8491D02*
X7535D01*
X7410D02*
X7335D01*
X7435Y8411D02*
Y8378D01*
Y8394D01*
X7385D01*
Y8361D02*
X7435D01*
X7385D02*
Y8328D01*
X7427Y8311D02*
X7435Y8303D01*
Y8286D01*
X7427Y8278D01*
X7393D01*
X7385Y8286D01*
Y8303D01*
X7393Y8311D01*
X7427D01*
X7435Y8261D02*
Y8228D01*
X7427D01*
X7393Y8261D01*
X7385D01*
Y8211D02*
Y8178D01*
Y8211D02*
X7418Y8178D01*
X7427D01*
X7435Y8186D01*
Y8203D01*
X7427Y8211D01*
X7240Y8491D02*
X7198D01*
X7190Y8483D01*
Y8466D01*
X7198Y8458D01*
X7240D01*
X7232Y8441D02*
X7240Y8433D01*
Y8416D01*
X7232Y8408D01*
X7223D01*
X7224D01*
X7223D02*
X7224D01*
X7223D02*
X7224D01*
X7223D02*
X7215Y8416D01*
Y8424D01*
Y8416D01*
X7207Y8408D01*
X7198D01*
X7190Y8416D01*
Y8433D01*
X7198Y8441D01*
X7190Y8366D02*
X7240D01*
X7215Y8391D01*
Y8358D01*
X7905Y7796D02*
X7922D01*
X7913D01*
Y7846D01*
X7914D01*
X7913D02*
X7905Y7838D01*
X7947D02*
X7955Y7846D01*
X7972D01*
X7980Y7838D01*
Y7804D01*
X7972Y7796D01*
X7955D01*
X7947Y7804D01*
Y7838D01*
X7997D02*
X8005Y7846D01*
X8022D01*
X8030Y7838D01*
Y7804D01*
X8022Y7796D01*
X8005D01*
X7997Y7804D01*
Y7838D01*
X8047Y7829D02*
Y7779D01*
Y7829D02*
X8072D01*
X8080Y7821D01*
Y7804D01*
X8072Y7796D01*
X8047D01*
X8097Y7846D02*
X8130D01*
X8097D02*
Y7821D01*
X8113D01*
X8097D01*
Y7796D01*
X7943Y7903D02*
X7935Y7911D01*
X7918D01*
X7910Y7903D01*
Y7869D01*
X7918Y7861D01*
X7935D01*
X7943Y7869D01*
X7960Y7911D02*
X7993D01*
X7960D02*
Y7886D01*
X7977Y7894D01*
X7985D01*
X7993Y7886D01*
Y7869D01*
X7985Y7861D01*
X7968D01*
X7960Y7869D01*
X8010Y7911D02*
X8043D01*
Y7903D01*
X8010Y7869D01*
Y7861D01*
X8679Y8139D02*
X8687Y8147D01*
Y8164D01*
X8679Y8172D01*
X8645D01*
X8637Y8164D01*
Y8147D01*
X8645Y8139D01*
X8679Y8122D02*
X8687Y8114D01*
Y8097D01*
X8679Y8089D01*
X8670D01*
X8662Y8097D01*
X8654Y8089D01*
X8645D01*
X8637Y8097D01*
Y8114D01*
X8645Y8122D01*
X8654D01*
X8662Y8114D01*
X8670Y8122D01*
X8679D01*
X8662Y8114D02*
Y8097D01*
X8645Y8072D02*
X8637Y8064D01*
Y8047D01*
X8645Y8039D01*
X8679D01*
X8687Y8047D01*
Y8064D01*
X8679Y8072D01*
X8670D01*
X8662Y8064D01*
Y8039D01*
X8210Y9136D02*
Y9153D01*
Y9144D01*
X8160D01*
X8161D01*
X8160D02*
X8168Y9136D01*
X8160Y9178D02*
X8210D01*
Y9211D02*
X8160Y9178D01*
Y9211D02*
X8210D01*
X8202Y9228D02*
X8210Y9236D01*
Y9253D01*
X8202Y9261D01*
X8168D01*
X8160Y9253D01*
Y9236D01*
X8168Y9228D01*
X8177D01*
X8185Y9236D01*
Y9261D01*
X8210Y9278D02*
Y9294D01*
Y9286D01*
X8160D01*
X8161D01*
X8160D02*
X8168Y9278D01*
X8160Y9344D02*
X8210D01*
X8185Y9319D02*
X8160Y9344D01*
X8185Y9353D02*
Y9319D01*
X8210Y9001D02*
X8160D01*
Y8976D01*
X8168Y8968D01*
X8202D01*
X8210Y8976D01*
Y9001D01*
X8160Y8951D02*
Y8934D01*
Y8943D01*
X8210D01*
X8211D01*
X8210D02*
X8202Y8951D01*
X8160Y8909D02*
Y8876D01*
Y8909D02*
X8193Y8876D01*
X8202D01*
X8210Y8884D01*
Y8901D01*
X8202Y8909D01*
X8010Y9291D02*
X7960D01*
X7985Y9316D02*
X8010Y9291D01*
X7985Y9283D02*
Y9316D01*
X8010Y9266D02*
Y9233D01*
X8002D01*
X7968Y9266D01*
X7960D01*
X8002Y9216D02*
X8010Y9208D01*
Y9191D01*
X8002Y9183D01*
X7968D01*
X7960Y9191D01*
Y9208D01*
X7968Y9216D01*
X8002D01*
X7930Y9271D02*
X7880D01*
X7930D02*
Y9246D01*
X7922Y9238D01*
X7905D01*
X7897Y9246D01*
Y9271D01*
Y9254D02*
X7880Y9238D01*
X7930Y9221D02*
Y9188D01*
Y9221D02*
X7905D01*
X7913Y9204D01*
Y9196D01*
X7905Y9188D01*
X7888D01*
X7880Y9196D01*
Y9213D01*
X7888Y9221D01*
X7922Y9171D02*
X7930Y9163D01*
Y9146D01*
X7922Y9138D01*
X7913D01*
X7914D01*
X7913D02*
X7914D01*
X7913D02*
X7914D01*
X7913D02*
X7905Y9146D01*
Y9154D01*
Y9146D01*
X7897Y9138D01*
X7888D01*
X7880Y9146D01*
Y9163D01*
X7888Y9171D01*
X8557Y8913D02*
X8565Y8921D01*
Y8938D01*
X8557Y8946D01*
X8523D01*
X8515Y8938D01*
Y8921D01*
X8523Y8913D01*
X8565Y8896D02*
Y8863D01*
Y8896D02*
X8540D01*
X8548Y8879D01*
Y8871D01*
X8540Y8863D01*
X8523D01*
X8515Y8871D01*
Y8888D01*
X8523Y8896D01*
X8515Y8846D02*
Y8829D01*
Y8838D01*
X8565D01*
X8566D01*
X8565D02*
X8557Y8846D01*
X7878Y6516D02*
X7845D01*
X7878Y6549D01*
Y6558D01*
X7870Y6566D01*
X7853D01*
X7845Y6558D01*
X7895D02*
X7903Y6566D01*
X7920D01*
X7928Y6558D01*
Y6524D01*
X7920Y6516D01*
X7903D01*
X7895Y6524D01*
Y6558D01*
X7945Y6566D02*
Y6516D01*
Y6533D01*
X7978Y6566D01*
X7953Y6541D01*
X7978Y6516D01*
X8205Y6506D02*
Y6556D01*
X8230D01*
X8238Y6548D01*
Y6531D01*
X8230Y6523D01*
X8205D01*
X8222D02*
X8238Y6506D01*
X8280D02*
Y6556D01*
X8255Y6531D01*
X8288D01*
X8322Y6548D02*
X8338Y6556D01*
X8322Y6548D02*
X8305Y6531D01*
Y6514D01*
X8313Y6506D01*
X8330D01*
X8338Y6514D01*
Y6523D01*
X8330Y6531D01*
X8305D01*
X7897Y6311D02*
X7880D01*
X7888D02*
X7897D01*
X7888D02*
Y6361D01*
X7889D01*
X7888D02*
X7880Y6353D01*
X7922D02*
X7930Y6361D01*
X7947D01*
X7955Y6353D01*
Y6319D01*
X7947Y6311D01*
X7930D01*
X7922Y6319D01*
Y6353D01*
X7972Y6361D02*
Y6311D01*
Y6328D01*
X8005Y6361D01*
X7980Y6336D01*
X8005Y6311D01*
X8185Y6321D02*
Y6371D01*
X8210D01*
X8218Y6363D01*
Y6346D01*
X8210Y6338D01*
X8185D01*
X8202D02*
X8218Y6321D01*
X8260D02*
Y6371D01*
X8235Y6346D01*
X8268D01*
X8285Y6371D02*
X8318D01*
Y6363D01*
X8285Y6329D01*
Y6321D01*
X7852Y6416D02*
X7835D01*
X7843D02*
X7852D01*
X7843D02*
Y6466D01*
X7844D01*
X7843D02*
X7835Y6458D01*
X7877D02*
X7885Y6466D01*
X7902D01*
X7910Y6458D01*
Y6424D01*
X7902Y6416D01*
X7885D01*
X7877Y6424D01*
Y6458D01*
X7927Y6466D02*
Y6416D01*
Y6433D01*
X7960Y6466D01*
X7935Y6441D01*
X7960Y6416D01*
X8190Y6421D02*
Y6471D01*
X8215D01*
X8223Y6463D01*
Y6446D01*
X8215Y6438D01*
X8190D01*
X8207D02*
X8223Y6421D01*
X8265D02*
Y6471D01*
X8240Y6446D01*
X8273D01*
X8290Y6421D02*
X8323D01*
X8290D02*
X8323Y6454D01*
Y6463D01*
X8315Y6471D01*
X8298D01*
X8290Y6463D01*
X6893Y7016D02*
X6860D01*
X6893Y7049D01*
Y7058D01*
X6885Y7066D01*
X6868D01*
X6860Y7058D01*
X6910Y7016D02*
X6943D01*
X6910D02*
X6943Y7049D01*
Y7058D01*
X6935Y7066D01*
X6918D01*
X6910Y7058D01*
X6960D02*
X6968Y7066D01*
X6985D01*
X6993Y7058D01*
Y7024D01*
X6985Y7016D01*
X6968D01*
X6960Y7024D01*
Y7058D01*
X6555Y7081D02*
Y7031D01*
Y7081D02*
X6580D01*
X6588Y7073D01*
Y7056D01*
X6580Y7048D01*
X6555D01*
X6572D02*
X6588Y7031D01*
X6630D02*
Y7081D01*
X6605Y7056D01*
X6638D01*
X6655Y7081D02*
X6688D01*
X6655D02*
Y7056D01*
X6672Y7064D01*
X6680D01*
X6688Y7056D01*
Y7039D01*
X6680Y7031D01*
X6663D01*
X6655Y7039D01*
X6865Y7116D02*
X6898D01*
X6865D02*
X6898Y7149D01*
Y7158D01*
X6890Y7166D01*
X6873D01*
X6865Y7158D01*
X6915Y7116D02*
X6948D01*
X6915D02*
X6948Y7149D01*
Y7158D01*
X6940Y7166D01*
X6923D01*
X6915Y7158D01*
X6965D02*
X6973Y7166D01*
X6990D01*
X6998Y7158D01*
Y7124D01*
X6990Y7116D01*
X6973D01*
X6965Y7124D01*
Y7158D01*
X6560Y7176D02*
Y7126D01*
Y7176D02*
X6585D01*
X6593Y7168D01*
Y7151D01*
X6585Y7143D01*
X6560D01*
X6577D02*
X6593Y7126D01*
X6635D02*
Y7176D01*
X6610Y7151D01*
X6643D01*
X6685Y7126D02*
Y7176D01*
X6660Y7151D01*
X6693D01*
X7875Y6966D02*
Y6933D01*
Y6966D02*
X7908Y6933D01*
X7917D01*
X7925Y6941D01*
Y6958D01*
X7917Y6966D01*
X7925Y6891D02*
X7917Y6883D01*
X7925Y6891D02*
Y6908D01*
X7917Y6916D01*
X7908D01*
X7900Y6908D01*
Y6891D01*
X7892Y6883D01*
X7883D01*
X7875Y6891D01*
Y6908D01*
X7883Y6916D01*
X7875Y6866D02*
X7908D01*
X7925Y6849D01*
X7908Y6833D01*
X7875D01*
X7900D01*
Y6866D01*
X7925Y6816D02*
Y6783D01*
X7917D01*
X7883Y6816D01*
X7875D01*
X7883Y6766D02*
X7875Y6758D01*
Y6741D01*
X7883Y6733D01*
X7917D01*
X7925Y6741D01*
Y6758D01*
X7917Y6766D01*
X7908D01*
X7900Y6758D01*
Y6733D01*
X7917Y6716D02*
X7925Y6708D01*
Y6691D01*
X7917Y6683D01*
X7908D01*
X7900Y6691D01*
X7892Y6683D01*
X7883D01*
X7875Y6691D01*
Y6708D01*
X7883Y6716D01*
X7892D01*
X7900Y6708D01*
X7908Y6716D01*
X7917D01*
X7900Y6708D02*
Y6691D01*
X7847Y6743D02*
X7813D01*
X7847D02*
X7855Y6751D01*
Y6768D01*
X7847Y6776D01*
X7813D01*
X7805Y6768D01*
Y6751D01*
Y6743D02*
X7822Y6759D01*
X7805Y6751D02*
X7813Y6743D01*
X7805Y6726D02*
Y6709D01*
Y6718D01*
X7855D01*
X7856D01*
X7855D02*
X7847Y6726D01*
X7820Y7368D02*
Y7401D01*
X7853Y7368D01*
X7862D01*
X7870Y7376D01*
Y7393D01*
X7862Y7401D01*
X7870Y7351D02*
X7820D01*
X7837D01*
X7870Y7318D01*
X7845Y7343D01*
X7820Y7318D01*
X7745Y7446D02*
X7695D01*
X7745D02*
Y7421D01*
X7737Y7413D01*
X7720D01*
X7712Y7421D01*
Y7446D01*
Y7429D02*
X7695Y7413D01*
Y7371D02*
X7745D01*
X7720Y7396D01*
Y7363D01*
X7703Y7346D02*
X7695Y7338D01*
Y7321D01*
X7703Y7313D01*
X7737D01*
X7745Y7321D01*
Y7338D01*
X7737Y7346D01*
X7728D01*
X7720Y7338D01*
Y7313D01*
X7675Y6311D02*
X7667Y6303D01*
X7675Y6311D02*
Y6328D01*
X7667Y6336D01*
X7633D01*
X7625Y6328D01*
Y6311D01*
X7633Y6303D01*
X7675Y6286D02*
Y6253D01*
X7667D01*
X7633Y6286D01*
X7625D01*
Y6236D02*
Y6219D01*
Y6228D01*
X7675D01*
X7676D01*
X7675D02*
X7667Y6236D01*
X7287Y7035D02*
X7279Y7043D01*
X7262D01*
X7254Y7035D01*
Y7001D01*
X7262Y6993D01*
X7279D01*
X7287Y7001D01*
X7321Y7035D02*
X7337Y7043D01*
X7321Y7035D02*
X7304Y7018D01*
Y7001D01*
X7312Y6993D01*
X7329D01*
X7337Y7001D01*
Y7010D01*
X7329Y7018D01*
X7304D01*
X7354Y7001D02*
X7362Y6993D01*
X7379D01*
X7387Y7001D01*
Y7035D01*
X7379Y7043D01*
X7362D01*
X7354Y7035D01*
Y7026D01*
X7362Y7018D01*
X7387D01*
X7650Y6771D02*
X7658Y6763D01*
X7650Y6771D02*
X7633D01*
X7625Y6763D01*
Y6729D01*
X7633Y6721D01*
X7650D01*
X7658Y6729D01*
X7675Y6771D02*
X7708D01*
X7675D02*
Y6746D01*
X7692Y6754D01*
X7700D01*
X7708Y6746D01*
Y6729D01*
X7700Y6721D01*
X7683D01*
X7675Y6729D01*
X7725D02*
X7733Y6721D01*
X7750D01*
X7758Y6729D01*
Y6763D01*
X7750Y6771D01*
X7733D01*
X7725Y6763D01*
Y6754D01*
X7733Y6746D01*
X7758D01*
X7460Y6691D02*
X7460Y6688D01*
X7459Y6685D01*
X7458Y6681D01*
X7457Y6678D01*
X7455Y6676D01*
X7453Y6673D01*
X7450Y6671D01*
X7448Y6669D01*
X7445Y6668D01*
X7441Y6667D01*
X7438Y6666D01*
X7435Y6666D01*
X7432Y6666D01*
X7429Y6667D01*
X7425Y6668D01*
X7422Y6669D01*
X7420Y6671D01*
X7417Y6673D01*
X7415Y6676D01*
X7413Y6678D01*
X7412Y6681D01*
X7411Y6685D01*
X7410Y6688D01*
X7410Y6691D01*
X7335D02*
Y6291D01*
X7535D02*
Y6691D01*
Y6291D02*
X7335D01*
X7460Y6691D02*
X7535D01*
X7410D02*
X7335D01*
X7460Y6611D02*
Y6578D01*
Y6594D01*
X7410D01*
Y6561D02*
X7460D01*
X7410D02*
Y6528D01*
X7452Y6511D02*
X7460Y6503D01*
Y6486D01*
X7452Y6478D01*
X7418D01*
X7410Y6486D01*
Y6503D01*
X7418Y6511D01*
X7452D01*
X7460Y6461D02*
Y6428D01*
X7452D01*
X7418Y6461D01*
X7410D01*
Y6411D02*
Y6378D01*
Y6411D02*
X7443Y6378D01*
X7452D01*
X7460Y6386D01*
Y6403D01*
X7452Y6411D01*
X7235Y6631D02*
X7193D01*
X7185Y6623D01*
Y6606D01*
X7193Y6598D01*
X7235D01*
X7185Y6581D02*
Y6548D01*
Y6581D02*
X7218Y6548D01*
X7227D01*
X7235Y6556D01*
Y6573D01*
X7227Y6581D01*
Y6531D02*
X7235Y6523D01*
Y6506D01*
X7227Y6498D01*
X7218D01*
X7210Y6506D01*
X7202Y6498D01*
X7193D01*
X7185Y6506D01*
Y6523D01*
X7193Y6531D01*
X7202D01*
X7210Y6523D01*
X7218Y6531D01*
X7227D01*
X7210Y6523D02*
Y6506D01*
X7410Y7291D02*
X7410Y7288D01*
X7411Y7285D01*
X7412Y7281D01*
X7413Y7278D01*
X7415Y7276D01*
X7417Y7273D01*
X7420Y7271D01*
X7422Y7269D01*
X7425Y7268D01*
X7429Y7267D01*
X7432Y7266D01*
X7435Y7266D01*
X7438Y7266D01*
X7441Y7267D01*
X7445Y7268D01*
X7448Y7269D01*
X7450Y7271D01*
X7453Y7273D01*
X7455Y7276D01*
X7457Y7278D01*
X7458Y7281D01*
X7459Y7285D01*
X7460Y7288D01*
X7460Y7291D01*
X7335D02*
Y6891D01*
X7535D02*
Y7291D01*
Y6891D02*
X7335D01*
X7460Y7291D02*
X7535D01*
X7410D02*
X7335D01*
X7442Y7193D02*
X7450Y7201D01*
Y7218D01*
X7442Y7226D01*
X7408D01*
X7400Y7218D01*
Y7201D01*
X7408Y7193D01*
X7400Y7176D02*
X7433D01*
X7450Y7159D01*
X7433Y7143D01*
X7400D01*
X7425D01*
Y7176D01*
X7442Y7126D02*
X7450Y7118D01*
Y7101D01*
X7442Y7093D01*
X7433D01*
X7434D01*
X7433D02*
X7434D01*
X7433D02*
X7434D01*
X7433D02*
X7425Y7101D01*
Y7109D01*
Y7101D01*
X7417Y7093D01*
X7408D01*
X7400Y7101D01*
Y7118D01*
X7408Y7126D01*
X7442Y7076D02*
X7450Y7068D01*
Y7051D01*
X7442Y7043D01*
X7408D01*
X7400Y7051D01*
Y7068D01*
X7408Y7076D01*
X7442D01*
Y7026D02*
X7450Y7018D01*
Y7001D01*
X7442Y6993D01*
X7433D01*
X7425Y7001D01*
X7417Y6993D01*
X7408D01*
X7400Y7001D01*
Y7018D01*
X7408Y7026D01*
X7417D01*
X7425Y7018D01*
X7433Y7026D01*
X7442D01*
X7425Y7018D02*
Y7001D01*
X7442Y6976D02*
X7450Y6968D01*
Y6951D01*
X7442Y6943D01*
X7408D01*
X7400Y6951D01*
Y6968D01*
X7408Y6976D01*
X7442D01*
X7235Y7296D02*
X7193D01*
X7185Y7288D01*
Y7271D01*
X7193Y7263D01*
X7235D01*
X7185Y7246D02*
Y7213D01*
Y7246D02*
X7218Y7213D01*
X7227D01*
X7235Y7221D01*
Y7238D01*
X7227Y7246D01*
X7235Y7196D02*
Y7163D01*
X7227D01*
X7193Y7196D01*
X7185D01*
X7583Y7147D02*
X7591Y7139D01*
X7608D01*
X7616Y7147D01*
Y7181D01*
X7608Y7189D01*
X7591D01*
X7583Y7181D01*
X7566Y7139D02*
X7533D01*
X7566D02*
Y7164D01*
X7549Y7156D01*
X7541D01*
X7533Y7164D01*
Y7181D01*
X7541Y7189D01*
X7558D01*
X7566Y7181D01*
X7516Y7147D02*
X7508Y7139D01*
X7491D01*
X7483Y7147D01*
Y7156D01*
X7491Y7164D01*
X7483Y7172D01*
Y7181D01*
X7491Y7189D01*
X7508D01*
X7516Y7181D01*
Y7172D01*
X7508Y7164D01*
X7516Y7156D01*
Y7147D01*
X7508Y7164D02*
X7491D01*
X7227Y7473D02*
X7235Y7481D01*
Y7498D01*
X7227Y7506D01*
X7193D01*
X7185Y7498D01*
Y7481D01*
X7193Y7473D01*
X7235Y7456D02*
Y7423D01*
X7227D01*
X7193Y7456D01*
X7185D01*
X7227Y7406D02*
X7235Y7398D01*
Y7381D01*
X7227Y7373D01*
X7193D01*
X7185Y7381D01*
Y7398D01*
X7193Y7406D01*
X7227D01*
X7675Y6166D02*
X7667Y6158D01*
X7675Y6166D02*
Y6183D01*
X7667Y6191D01*
X7633D01*
X7625Y6183D01*
Y6166D01*
X7633Y6158D01*
X7667Y6124D02*
X7675Y6108D01*
X7667Y6124D02*
X7650Y6141D01*
X7633D01*
X7625Y6133D01*
Y6116D01*
X7633Y6108D01*
X7642D01*
X7650Y6116D01*
Y6141D01*
X7625Y6091D02*
Y6074D01*
Y6083D01*
X7675D01*
X7676D01*
X7675D02*
X7667Y6091D01*
X7860Y6121D02*
X7893D01*
X7860D02*
X7893Y6154D01*
Y6163D01*
X7885Y6171D01*
X7868D01*
X7860Y6163D01*
X7910D02*
X7918Y6171D01*
X7935D01*
X7943Y6163D01*
Y6129D01*
X7935Y6121D01*
X7918D01*
X7910Y6129D01*
Y6163D01*
X7960Y6171D02*
Y6121D01*
Y6138D01*
X7993Y6171D01*
X7968Y6146D01*
X7993Y6121D01*
X8190D02*
Y6171D01*
X8215D01*
X8223Y6163D01*
Y6146D01*
X8215Y6138D01*
X8190D01*
X8207D02*
X8223Y6121D01*
X8240D02*
X8257D01*
X8248D01*
Y6171D01*
X8249D01*
X8248D02*
X8240Y6163D01*
X8298D02*
X8315Y6171D01*
X8298Y6163D02*
X8282Y6146D01*
Y6129D01*
X8290Y6121D01*
X8307D01*
X8315Y6129D01*
Y6138D01*
X8307Y6146D01*
X8282D01*
X7908Y6216D02*
X7875D01*
X7908Y6249D01*
Y6258D01*
X7900Y6266D01*
X7883D01*
X7875Y6258D01*
X7925D02*
X7933Y6266D01*
X7950D01*
X7958Y6258D01*
Y6224D01*
X7950Y6216D01*
X7933D01*
X7925Y6224D01*
Y6258D01*
X7975Y6266D02*
Y6216D01*
Y6233D01*
X8008Y6266D01*
X7983Y6241D01*
X8008Y6216D01*
X8175D02*
Y6266D01*
X8200D01*
X8208Y6258D01*
Y6241D01*
X8200Y6233D01*
X8175D01*
X8192D02*
X8208Y6216D01*
X8225D02*
X8242D01*
X8233D01*
Y6266D01*
X8234D01*
X8233D02*
X8225Y6258D01*
X8267Y6224D02*
X8275Y6216D01*
X8292D01*
X8300Y6224D01*
Y6258D01*
X8292Y6266D01*
X8275D01*
X8267Y6258D01*
Y6249D01*
X8275Y6241D01*
X8300D01*
X8585Y6766D02*
X8588Y6766D01*
X8591Y6767D01*
X8595Y6768D01*
X8598Y6769D01*
X8600Y6771D01*
X8603Y6773D01*
X8605Y6776D01*
X8607Y6778D01*
X8608Y6781D01*
X8609Y6785D01*
X8610Y6788D01*
X8610Y6791D01*
X8610Y6794D01*
X8609Y6797D01*
X8608Y6801D01*
X8607Y6804D01*
X8605Y6806D01*
X8603Y6809D01*
X8600Y6811D01*
X8598Y6813D01*
X8595Y6814D01*
X8591Y6815D01*
X8588Y6816D01*
X8585Y6816D01*
Y6766D02*
Y6691D01*
Y6816D02*
Y6891D01*
X9385D02*
Y6691D01*
Y6891D02*
X8585D01*
Y6691D02*
X9385D01*
X8768Y6841D02*
X8735D01*
X8768D02*
Y6833D01*
X8735Y6799D01*
Y6791D01*
X8810D02*
Y6841D01*
X8785Y6816D01*
X8818D01*
X8835Y6841D02*
Y6791D01*
Y6816D01*
X8868D01*
Y6841D01*
Y6791D01*
X8910Y6841D02*
X8918Y6833D01*
X8910Y6841D02*
X8893D01*
X8885Y6833D01*
Y6799D01*
X8893Y6791D01*
X8910D01*
X8918Y6799D01*
X8935Y6791D02*
X8952D01*
X8943D01*
Y6841D01*
X8944D01*
X8943D02*
X8935Y6833D01*
X8977D02*
X8985Y6841D01*
X9002D01*
X9010Y6833D01*
Y6799D01*
X9002Y6791D01*
X8985D01*
X8977Y6799D01*
Y6833D01*
X9027Y6799D02*
X9035Y6791D01*
X9052D01*
X9060Y6799D01*
Y6833D01*
X9052Y6841D01*
X9035D01*
X9027Y6833D01*
Y6824D01*
X9035Y6816D01*
X9060D01*
X8610Y6586D02*
Y6544D01*
X8618Y6536D01*
X8635D01*
X8643Y6544D01*
Y6586D01*
X8660Y6578D02*
X8668Y6586D01*
X8685D01*
X8693Y6578D01*
Y6569D01*
X8694D01*
X8693D02*
X8694D01*
X8693D02*
X8694D01*
X8693D02*
X8685Y6561D01*
X8677D01*
X8685D01*
X8693Y6553D01*
Y6544D01*
X8685Y6536D01*
X8668D01*
X8660Y6544D01*
X8710Y6536D02*
X8743D01*
X8710D02*
X8743Y6569D01*
Y6578D01*
X8735Y6586D01*
X8718D01*
X8710Y6578D01*
X8015Y6986D02*
Y7003D01*
Y6994D01*
X7965D01*
X7966D01*
X7965D02*
X7973Y6986D01*
X7965Y7028D02*
X8015D01*
Y7061D02*
X7965Y7028D01*
Y7061D02*
X8015D01*
X7965Y7078D02*
Y7111D01*
X7973D01*
X8007Y7078D01*
X8015D01*
X7965Y7128D02*
Y7161D01*
Y7128D02*
X7990D01*
X7982Y7144D01*
Y7153D01*
X7990Y7161D01*
X8007D01*
X8015Y7153D01*
Y7136D01*
X8007Y7128D01*
X8015Y7178D02*
Y7194D01*
Y7186D01*
X7965D01*
X7966D01*
X7965D02*
X7973Y7178D01*
X7965Y6846D02*
X8015D01*
X7965D02*
Y6821D01*
X7973Y6813D01*
X8007D01*
X8015Y6821D01*
Y6846D01*
X7973Y6796D02*
X7965Y6788D01*
Y6771D01*
X7973Y6763D01*
X8007D01*
X8015Y6771D01*
Y6788D01*
X8007Y6796D01*
X7998D01*
X7990Y6788D01*
Y6763D01*
X8110Y6986D02*
Y7003D01*
Y6994D01*
X8060D01*
X8061D01*
X8060D02*
X8068Y6986D01*
X8060Y7028D02*
X8110D01*
Y7061D02*
X8060Y7028D01*
Y7061D02*
X8110D01*
X8060Y7078D02*
Y7111D01*
X8068D01*
X8102Y7078D01*
X8110D01*
X8060Y7128D02*
Y7161D01*
Y7128D02*
X8085D01*
X8077Y7144D01*
Y7153D01*
X8085Y7161D01*
X8102D01*
X8110Y7153D01*
Y7136D01*
X8102Y7128D01*
X8110Y7178D02*
Y7194D01*
Y7186D01*
X8060D01*
X8061D01*
X8060D02*
X8068Y7178D01*
X8070Y6846D02*
X8120D01*
X8070D02*
Y6821D01*
X8078Y6813D01*
X8112D01*
X8120Y6821D01*
Y6846D01*
X8070Y6796D02*
Y6779D01*
Y6788D01*
X8120D01*
X8121D01*
X8120D02*
X8112Y6796D01*
Y6754D02*
X8120Y6746D01*
Y6729D01*
X8112Y6721D01*
X8078D01*
X8070Y6729D01*
Y6746D01*
X8078Y6754D01*
X8112D01*
X8165Y7119D02*
Y7136D01*
Y7128D02*
Y7119D01*
Y7128D02*
X8215D01*
X8216D01*
X8215D02*
X8207Y7136D01*
X8215Y7094D02*
X8165D01*
X8182D01*
X8215Y7061D01*
X8190Y7086D01*
X8165Y7061D01*
X8160Y6846D02*
X8210D01*
Y6821D01*
X8202Y6813D01*
X8185D01*
X8177Y6821D01*
Y6846D01*
Y6829D02*
X8160Y6813D01*
X8202Y6779D02*
X8210Y6763D01*
X8202Y6779D02*
X8185Y6796D01*
X8168D01*
X8160Y6788D01*
Y6771D01*
X8168Y6763D01*
X8177D01*
X8185Y6771D01*
Y6796D01*
X8202Y6729D02*
X8210Y6713D01*
X8202Y6729D02*
X8185Y6746D01*
X8168D01*
X8160Y6738D01*
Y6721D01*
X8168Y6713D01*
X8177D01*
X8185Y6721D01*
Y6746D01*
X8497Y6538D02*
X8505Y6546D01*
Y6563D01*
X8497Y6571D01*
X8463D01*
X8455Y6563D01*
Y6546D01*
X8463Y6538D01*
X8497Y6521D02*
X8505Y6513D01*
Y6496D01*
X8497Y6488D01*
X8488D01*
X8480Y6496D01*
X8472Y6488D01*
X8463D01*
X8455Y6496D01*
Y6513D01*
X8463Y6521D01*
X8472D01*
X8480Y6513D01*
X8488Y6521D01*
X8497D01*
X8480Y6513D02*
Y6496D01*
X8497Y6471D02*
X8505Y6463D01*
Y6446D01*
X8497Y6438D01*
X8488D01*
X8480Y6446D01*
X8472Y6438D01*
X8463D01*
X8455Y6446D01*
Y6463D01*
X8463Y6471D01*
X8472D01*
X8480Y6463D01*
X8488Y6471D01*
X8497D01*
X8480Y6463D02*
Y6446D01*
X8679Y7539D02*
X8687Y7547D01*
Y7564D01*
X8679Y7572D01*
X8645D01*
X8637Y7564D01*
Y7547D01*
X8645Y7539D01*
X8679Y7522D02*
X8687Y7514D01*
Y7497D01*
X8679Y7489D01*
X8670D01*
X8662Y7497D01*
X8654Y7489D01*
X8645D01*
X8637Y7497D01*
Y7514D01*
X8645Y7522D01*
X8654D01*
X8662Y7514D01*
X8670Y7522D01*
X8679D01*
X8662Y7514D02*
Y7497D01*
X8637Y7472D02*
Y7439D01*
Y7472D02*
X8670Y7439D01*
X8679D01*
X8687Y7447D01*
Y7464D01*
X8679Y7472D01*
X7460Y6091D02*
X7460Y6088D01*
X7459Y6085D01*
X7458Y6081D01*
X7457Y6078D01*
X7455Y6076D01*
X7453Y6073D01*
X7450Y6071D01*
X7448Y6069D01*
X7445Y6068D01*
X7441Y6067D01*
X7438Y6066D01*
X7435Y6066D01*
X7432Y6066D01*
X7429Y6067D01*
X7425Y6068D01*
X7422Y6069D01*
X7420Y6071D01*
X7417Y6073D01*
X7415Y6076D01*
X7413Y6078D01*
X7412Y6081D01*
X7411Y6085D01*
X7410Y6088D01*
X7410Y6091D01*
X7335D02*
Y5691D01*
X7535D02*
Y6091D01*
Y5691D02*
X7335D01*
X7460Y6091D02*
X7535D01*
X7410D02*
X7335D01*
X7455Y6021D02*
Y5988D01*
Y6004D01*
X7405D01*
Y5971D02*
X7455D01*
X7405D02*
Y5938D01*
X7447Y5921D02*
X7455Y5913D01*
Y5896D01*
X7447Y5888D01*
X7413D01*
X7405Y5896D01*
Y5913D01*
X7413Y5921D01*
X7447D01*
X7455Y5871D02*
Y5838D01*
X7447D01*
X7413Y5871D01*
X7405D01*
Y5821D02*
Y5788D01*
Y5821D02*
X7438Y5788D01*
X7447D01*
X7455Y5796D01*
Y5813D01*
X7447Y5821D01*
X7245Y6066D02*
X7203D01*
X7195Y6058D01*
Y6041D01*
X7203Y6033D01*
X7245D01*
X7237Y6016D02*
X7245Y6008D01*
Y5991D01*
X7237Y5983D01*
X7228D01*
X7229D01*
X7228D02*
X7229D01*
X7228D02*
X7229D01*
X7228D02*
X7220Y5991D01*
Y5999D01*
Y5991D01*
X7212Y5983D01*
X7203D01*
X7195Y5991D01*
Y6008D01*
X7203Y6016D01*
X7245Y5966D02*
Y5933D01*
Y5966D02*
X7220D01*
X7228Y5949D01*
Y5941D01*
X7220Y5933D01*
X7203D01*
X7195Y5941D01*
Y5958D01*
X7203Y5966D01*
X7415Y5586D02*
X7423Y5578D01*
X7415Y5586D02*
X7398D01*
X7390Y5578D01*
Y5544D01*
X7398Y5536D01*
X7415D01*
X7423Y5544D01*
X7457Y5578D02*
X7473Y5586D01*
X7457Y5578D02*
X7440Y5561D01*
Y5544D01*
X7448Y5536D01*
X7465D01*
X7473Y5544D01*
Y5553D01*
X7465Y5561D01*
X7440D01*
X7490Y5578D02*
X7498Y5586D01*
X7515D01*
X7523Y5578D01*
Y5569D01*
X7515Y5561D01*
X7523Y5553D01*
Y5544D01*
X7515Y5536D01*
X7498D01*
X7490Y5544D01*
Y5553D01*
X7498Y5561D01*
X7490Y5569D01*
Y5578D01*
X7498Y5561D02*
X7515D01*
X7205Y5889D02*
Y5906D01*
Y5898D02*
Y5889D01*
Y5898D02*
X7255D01*
X7256D01*
X7255D02*
X7247Y5906D01*
Y5864D02*
X7255Y5856D01*
Y5839D01*
X7247Y5831D01*
X7213D01*
X7205Y5839D01*
Y5856D01*
X7213Y5864D01*
X7247D01*
Y5814D02*
X7255Y5806D01*
Y5789D01*
X7247Y5781D01*
X7213D01*
X7205Y5789D01*
Y5806D01*
X7213Y5814D01*
X7247D01*
X7238Y5764D02*
X7188D01*
X7238D02*
Y5739D01*
X7230Y5731D01*
X7213D01*
X7205Y5739D01*
Y5764D01*
X7255Y5714D02*
Y5681D01*
Y5714D02*
X7230D01*
Y5698D01*
Y5714D01*
X7205D01*
X6615Y5856D02*
X6607Y5848D01*
X6615Y5856D02*
Y5873D01*
X6607Y5881D01*
X6573D01*
X6565Y5873D01*
Y5856D01*
X6573Y5848D01*
X6615Y5831D02*
Y5798D01*
Y5831D02*
X6590D01*
X6598Y5814D01*
Y5806D01*
X6590Y5798D01*
X6573D01*
X6565Y5806D01*
Y5823D01*
X6573Y5831D01*
X6565Y5756D02*
X6615D01*
X6590Y5781D01*
Y5748D01*
X7895Y5916D02*
X7912D01*
X7903D01*
Y5966D01*
X7904D01*
X7903D02*
X7895Y5958D01*
X7937D02*
X7945Y5966D01*
X7962D01*
X7970Y5958D01*
Y5924D01*
X7962Y5916D01*
X7945D01*
X7937Y5924D01*
Y5958D01*
X8055Y5986D02*
Y6036D01*
X8080D01*
X8088Y6028D01*
Y6011D01*
X8080Y6003D01*
X8055D01*
X8072D02*
X8088Y5986D01*
X8105D02*
X8122D01*
X8113D01*
Y6036D01*
X8114D01*
X8113D02*
X8105Y6028D01*
X8147Y5986D02*
X8180D01*
X8147D02*
X8180Y6019D01*
Y6028D01*
X8172Y6036D01*
X8155D01*
X8147Y6028D01*
X7892Y5816D02*
X7875D01*
X7883D02*
X7892D01*
X7883D02*
Y5866D01*
X7884D01*
X7883D02*
X7875Y5858D01*
X7917D02*
X7925Y5866D01*
X7942D01*
X7950Y5858D01*
Y5824D01*
X7942Y5816D01*
X7925D01*
X7917Y5824D01*
Y5858D01*
X7967Y5866D02*
Y5816D01*
Y5833D01*
X8000Y5866D01*
X7975Y5841D01*
X8000Y5816D01*
X8195Y5831D02*
Y5781D01*
Y5831D02*
X8220D01*
X8228Y5823D01*
Y5806D01*
X8220Y5798D01*
X8195D01*
X8212D02*
X8228Y5781D01*
X8245D02*
X8278D01*
X8245D02*
X8278Y5814D01*
Y5823D01*
X8270Y5831D01*
X8253D01*
X8245Y5823D01*
X8295Y5781D02*
X8312D01*
X8303D01*
Y5831D01*
X8304D01*
X8303D02*
X8295Y5823D01*
X8430Y5896D02*
X8447D01*
X8438D01*
Y5946D01*
X8439D01*
X8438D02*
X8430Y5938D01*
X8472D02*
X8480Y5946D01*
X8497D01*
X8505Y5938D01*
Y5904D01*
X8497Y5896D01*
X8480D01*
X8472Y5904D01*
Y5938D01*
X8522Y5929D02*
Y5904D01*
X8530Y5896D01*
X8555D01*
Y5929D01*
X8572Y5946D02*
X8605D01*
X8572D02*
Y5921D01*
X8588D01*
X8572D01*
Y5896D01*
X8458Y6008D02*
X8450Y6016D01*
X8433D01*
X8425Y6008D01*
Y5974D01*
X8433Y5966D01*
X8450D01*
X8458Y5974D01*
X8475Y6016D02*
X8508D01*
X8475D02*
Y5991D01*
X8492Y5999D01*
X8500D01*
X8508Y5991D01*
Y5974D01*
X8500Y5966D01*
X8483D01*
X8475Y5974D01*
X8525Y5966D02*
X8558D01*
X8525D02*
X8558Y5999D01*
Y6008D01*
X8550Y6016D01*
X8533D01*
X8525Y6008D01*
X7942Y6041D02*
X7925D01*
X7933D02*
X7942D01*
X7933D02*
Y6091D01*
X7934D01*
X7933D02*
X7925Y6083D01*
X7967D02*
X7975Y6091D01*
X7992D01*
X8000Y6083D01*
Y6049D01*
X7992Y6041D01*
X7975D01*
X7967Y6049D01*
Y6083D01*
X8017D02*
X8025Y6091D01*
X8042D01*
X8050Y6083D01*
Y6049D01*
X8042Y6041D01*
X8025D01*
X8017Y6049D01*
Y6083D01*
X8067Y6074D02*
Y6024D01*
Y6074D02*
X8092D01*
X8100Y6066D01*
Y6049D01*
X8092Y6041D01*
X8067D01*
X8117Y6091D02*
X8150D01*
X8117D02*
Y6066D01*
X8133D01*
X8117D01*
Y6041D01*
X7933Y6033D02*
X7925Y6041D01*
X7908D01*
X7900Y6033D01*
Y5999D01*
X7908Y5991D01*
X7925D01*
X7933Y5999D01*
X7950D02*
X7958Y5991D01*
X7975D01*
X7983Y5999D01*
Y6033D01*
X7975Y6041D01*
X7958D01*
X7950Y6033D01*
Y6024D01*
X7958Y6016D01*
X7983D01*
X8000Y6033D02*
X8008Y6041D01*
X8025D01*
X8033Y6033D01*
Y6024D01*
X8034D01*
X8033D02*
X8034D01*
X8033D02*
X8034D01*
X8033D02*
X8025Y6016D01*
X8017D01*
X8025D01*
X8033Y6008D01*
Y5999D01*
X8025Y5991D01*
X8008D01*
X8000Y5999D01*
X7902Y5716D02*
X7885D01*
X7893D02*
X7902D01*
X7893D02*
Y5766D01*
X7894D01*
X7893D02*
X7885Y5758D01*
X7927D02*
X7935Y5766D01*
X7952D01*
X7960Y5758D01*
Y5724D01*
X7952Y5716D01*
X7935D01*
X7927Y5724D01*
Y5758D01*
X7977Y5766D02*
Y5716D01*
Y5733D01*
X8010Y5766D01*
X7985Y5741D01*
X8010Y5716D01*
X8185Y5711D02*
Y5761D01*
X8210D01*
X8218Y5753D01*
Y5736D01*
X8210Y5728D01*
X8185D01*
X8202D02*
X8218Y5711D01*
X8235D02*
X8252D01*
X8243D01*
Y5761D01*
X8244D01*
X8243D02*
X8235Y5753D01*
X8277Y5711D02*
X8293D01*
X8285D01*
Y5761D01*
X8286D01*
X8285D02*
X8277Y5753D01*
X7897Y5616D02*
X7880D01*
X7888D02*
X7897D01*
X7888D02*
Y5666D01*
X7889D01*
X7888D02*
X7880Y5658D01*
X7922D02*
X7930Y5666D01*
X7947D01*
X7955Y5658D01*
Y5624D01*
X7947Y5616D01*
X7930D01*
X7922Y5624D01*
Y5658D01*
X7972Y5666D02*
Y5616D01*
Y5633D01*
X8005Y5666D01*
X7980Y5641D01*
X8005Y5616D01*
X8190Y5626D02*
Y5676D01*
X8215D01*
X8223Y5668D01*
Y5651D01*
X8215Y5643D01*
X8190D01*
X8207D02*
X8223Y5626D01*
X8240D02*
X8257D01*
X8248D01*
Y5676D01*
X8249D01*
X8248D02*
X8240Y5668D01*
X8307Y5676D02*
Y5626D01*
X8282Y5651D02*
X8307Y5676D01*
X8315Y5651D02*
X8282D01*
X6860Y8458D02*
X6868Y8466D01*
X6885D01*
X6893Y8458D01*
Y8449D01*
X6894D01*
X6893D02*
X6894D01*
X6893D02*
X6894D01*
X6893D02*
X6885Y8441D01*
X6877D01*
X6885D01*
X6893Y8433D01*
Y8424D01*
X6885Y8416D01*
X6868D01*
X6860Y8424D01*
X6910Y8458D02*
X6918Y8466D01*
X6935D01*
X6943Y8458D01*
Y8424D01*
X6935Y8416D01*
X6918D01*
X6910Y8424D01*
Y8458D01*
X6960Y8466D02*
Y8416D01*
Y8433D01*
X6993Y8466D01*
X6968Y8441D01*
X6993Y8416D01*
X6855Y8496D02*
Y8546D01*
X6880D01*
X6888Y8538D01*
Y8521D01*
X6880Y8513D01*
X6855D01*
X6872D02*
X6888Y8496D01*
X6922Y8538D02*
X6938Y8546D01*
X6922Y8538D02*
X6905Y8521D01*
Y8504D01*
X6913Y8496D01*
X6930D01*
X6938Y8504D01*
Y8513D01*
X6930Y8521D01*
X6905D01*
X6980Y8496D02*
Y8546D01*
X6955Y8521D01*
X6988D01*
X6872Y7716D02*
X6855D01*
X6863D02*
X6872D01*
X6863D02*
Y7766D01*
X6864D01*
X6863D02*
X6855Y7758D01*
X6897D02*
X6905Y7766D01*
X6922D01*
X6930Y7758D01*
Y7724D01*
X6922Y7716D01*
X6905D01*
X6897Y7724D01*
Y7758D01*
X6947D02*
X6955Y7766D01*
X6972D01*
X6980Y7758D01*
Y7724D01*
X6972Y7716D01*
X6955D01*
X6947Y7724D01*
Y7758D01*
X6997Y7766D02*
Y7716D01*
Y7733D01*
X7030Y7766D01*
X7005Y7741D01*
X7030Y7716D01*
X6560D02*
Y7766D01*
X6585D01*
X6593Y7758D01*
Y7741D01*
X6585Y7733D01*
X6560D01*
X6577D02*
X6593Y7716D01*
X6635D02*
Y7766D01*
X6610Y7741D01*
X6643D01*
X6660Y7758D02*
X6668Y7766D01*
X6685D01*
X6693Y7758D01*
Y7749D01*
X6685Y7741D01*
X6693Y7733D01*
Y7724D01*
X6685Y7716D01*
X6668D01*
X6660Y7724D01*
Y7733D01*
X6668Y7741D01*
X6660Y7749D01*
Y7758D01*
X6668Y7741D02*
X6685D01*
X6850Y7816D02*
X6867D01*
X6858D01*
Y7866D01*
X6859D01*
X6858D02*
X6850Y7858D01*
X6892D02*
X6900Y7866D01*
X6917D01*
X6925Y7858D01*
Y7824D01*
X6917Y7816D01*
X6900D01*
X6892Y7824D01*
Y7858D01*
X6942D02*
X6950Y7866D01*
X6967D01*
X6975Y7858D01*
Y7824D01*
X6967Y7816D01*
X6950D01*
X6942Y7824D01*
Y7858D01*
X6992Y7866D02*
Y7816D01*
Y7833D01*
X7025Y7866D01*
X7000Y7841D01*
X7025Y7816D01*
X6560D02*
Y7866D01*
X6585D01*
X6593Y7858D01*
Y7841D01*
X6585Y7833D01*
X6560D01*
X6577D02*
X6593Y7816D01*
X6610Y7866D02*
X6643D01*
X6610D02*
Y7841D01*
X6627Y7849D01*
X6635D01*
X6643Y7841D01*
Y7824D01*
X6635Y7816D01*
X6618D01*
X6610Y7824D01*
X6660Y7858D02*
X6668Y7866D01*
X6685D01*
X6693Y7858D01*
Y7824D01*
X6685Y7816D01*
X6668D01*
X6660Y7824D01*
Y7858D01*
X6855Y7916D02*
X6872D01*
X6863D01*
Y7966D01*
X6864D01*
X6863D02*
X6855Y7958D01*
X6897D02*
X6905Y7966D01*
X6922D01*
X6930Y7958D01*
Y7924D01*
X6922Y7916D01*
X6905D01*
X6897Y7924D01*
Y7958D01*
X6947D02*
X6955Y7966D01*
X6972D01*
X6980Y7958D01*
Y7924D01*
X6972Y7916D01*
X6955D01*
X6947Y7924D01*
Y7958D01*
X6997Y7966D02*
Y7916D01*
Y7933D01*
X7030Y7966D01*
X7005Y7941D01*
X7030Y7916D01*
X6560D02*
Y7966D01*
X6585D01*
X6593Y7958D01*
Y7941D01*
X6585Y7933D01*
X6560D01*
X6577D02*
X6593Y7916D01*
X6610Y7966D02*
X6643D01*
X6610D02*
Y7941D01*
X6627Y7949D01*
X6635D01*
X6643Y7941D01*
Y7924D01*
X6635Y7916D01*
X6618D01*
X6610Y7924D01*
X6660Y7916D02*
X6693D01*
X6660D02*
X6693Y7949D01*
Y7958D01*
X6685Y7966D01*
X6668D01*
X6660Y7958D01*
X7090Y9511D02*
Y9561D01*
X7115D01*
X7123Y9553D01*
Y9536D01*
X7115Y9528D01*
X7090D01*
X7140Y9511D02*
X7157D01*
X7148D01*
Y9561D01*
X7149D01*
X7148D02*
X7140Y9553D01*
X6882Y7216D02*
X6865D01*
X6873D02*
X6882D01*
X6873D02*
Y7266D01*
X6874D01*
X6873D02*
X6865Y7258D01*
X6907Y7266D02*
X6940D01*
X6907D02*
Y7241D01*
X6923Y7249D01*
X6932D01*
X6940Y7241D01*
Y7224D01*
X6932Y7216D01*
X6915D01*
X6907Y7224D01*
X6957Y7216D02*
Y7266D01*
Y7233D02*
Y7216D01*
Y7233D02*
X6990Y7266D01*
X6965Y7241D01*
X6990Y7216D01*
X6570Y7226D02*
Y7276D01*
X6595D01*
X6603Y7268D01*
Y7251D01*
X6595Y7243D01*
X6570D01*
X6587D02*
X6603Y7226D01*
X6645D02*
Y7276D01*
X6620Y7251D01*
X6653D01*
X6670Y7226D02*
X6687D01*
X6678D01*
Y7276D01*
X6679D01*
X6678D02*
X6670Y7268D01*
X6560Y6544D02*
Y6536D01*
Y6544D02*
X6568D01*
Y6536D01*
X6560D01*
X6602D02*
X6618D01*
X6610D01*
Y6586D01*
X6611D01*
X6610D02*
X6602Y6578D01*
X6643Y6569D02*
Y6544D01*
X6652Y6536D01*
X6677D01*
Y6569D01*
X6693Y6586D02*
X6727D01*
X6693D02*
Y6561D01*
X6710D01*
X6693D01*
Y6536D01*
X6608Y6503D02*
X6600Y6511D01*
X6583D01*
X6575Y6503D01*
Y6469D01*
X6583Y6461D01*
X6600D01*
X6608Y6469D01*
X6625Y6511D02*
X6658D01*
X6625D02*
Y6486D01*
X6642Y6494D01*
X6650D01*
X6658Y6486D01*
Y6469D01*
X6650Y6461D01*
X6633D01*
X6625Y6469D01*
X6692Y6503D02*
X6708Y6511D01*
X6692Y6503D02*
X6675Y6486D01*
Y6469D01*
X6683Y6461D01*
X6700D01*
X6708Y6469D01*
Y6478D01*
X6700Y6486D01*
X6675D01*
X6638Y6771D02*
X6605D01*
X6638Y6804D01*
Y6813D01*
X6630Y6821D01*
X6613D01*
X6605Y6813D01*
X6655D02*
X6663Y6821D01*
X6680D01*
X6688Y6813D01*
Y6779D01*
X6680Y6771D01*
X6663D01*
X6655Y6779D01*
Y6813D01*
X6705D02*
X6713Y6821D01*
X6730D01*
X6738Y6813D01*
Y6779D01*
X6730Y6771D01*
X6713D01*
X6705Y6779D01*
Y6813D01*
X6565Y6861D02*
Y6911D01*
X6590D01*
X6598Y6903D01*
Y6886D01*
X6590Y6878D01*
X6565D01*
X6582D02*
X6598Y6861D01*
X6615Y6911D02*
X6648D01*
X6615D02*
Y6886D01*
X6632Y6894D01*
X6640D01*
X6648Y6886D01*
Y6869D01*
X6640Y6861D01*
X6623D01*
X6615Y6869D01*
X6690Y6861D02*
Y6911D01*
X6665Y6886D01*
X6698D01*
X6883Y6366D02*
X6875Y6358D01*
X6883Y6366D02*
X6900D01*
X6908Y6358D01*
Y6349D01*
X6909D01*
X6908D02*
X6909D01*
X6908D02*
X6909D01*
X6908D02*
X6900Y6341D01*
X6892D01*
X6900D01*
X6908Y6333D01*
Y6324D01*
X6900Y6316D01*
X6883D01*
X6875Y6324D01*
X6925D02*
X6933Y6316D01*
X6950D01*
X6958Y6324D01*
Y6358D01*
X6950Y6366D01*
X6933D01*
X6925Y6358D01*
Y6349D01*
X6933Y6341D01*
X6958D01*
X6975Y6358D02*
X6983Y6366D01*
X7000D01*
X7008Y6358D01*
Y6324D01*
X7000Y6316D01*
X6983D01*
X6975Y6324D01*
Y6358D01*
X6555Y6381D02*
Y6431D01*
X6580D01*
X6588Y6423D01*
Y6406D01*
X6580Y6398D01*
X6555D01*
X6572D02*
X6588Y6381D01*
X6605Y6431D02*
X6638D01*
X6605D02*
Y6406D01*
X6622Y6414D01*
X6630D01*
X6638Y6406D01*
Y6389D01*
X6630Y6381D01*
X6613D01*
X6605Y6389D01*
X6672Y6423D02*
X6688Y6431D01*
X6672Y6423D02*
X6655Y6406D01*
Y6389D01*
X6663Y6381D01*
X6680D01*
X6688Y6389D01*
Y6398D01*
X6680Y6406D01*
X6655D01*
X6935Y6221D02*
X6952D01*
X6943D01*
Y6271D01*
X6944D01*
X6943D02*
X6935Y6263D01*
X6977D02*
X6985Y6271D01*
X7002D01*
X7010Y6263D01*
Y6229D01*
X7002Y6221D01*
X6985D01*
X6977Y6229D01*
Y6263D01*
X7027Y6271D02*
Y6221D01*
Y6238D01*
X7060Y6271D01*
X7035Y6246D01*
X7060Y6221D01*
X6555Y6311D02*
Y6361D01*
X6580D01*
X6588Y6353D01*
Y6336D01*
X6580Y6328D01*
X6555D01*
X6572D02*
X6588Y6311D01*
X6605D02*
X6622D01*
X6613D01*
Y6361D01*
X6614D01*
X6613D02*
X6605Y6353D01*
X6647Y6361D02*
X6680D01*
Y6353D01*
X6647Y6319D01*
Y6311D01*
X6825Y7416D02*
X6842D01*
X6833D01*
Y7466D01*
X6834D01*
X6833D02*
X6825Y7458D01*
X6867Y7466D02*
Y7416D01*
X6900D02*
X6867Y7466D01*
X6900D02*
Y7416D01*
X6917Y7424D02*
X6925Y7416D01*
X6942D01*
X6950Y7424D01*
Y7458D01*
X6942Y7466D01*
X6925D01*
X6917Y7458D01*
Y7449D01*
X6925Y7441D01*
X6950D01*
X6967Y7416D02*
X6983D01*
X6975D01*
Y7466D01*
X6976D01*
X6975D02*
X6967Y7458D01*
X7033Y7466D02*
Y7416D01*
X7008Y7441D02*
X7033Y7466D01*
X7042Y7441D02*
X7008D01*
X6570Y7466D02*
Y7416D01*
X6595D01*
X6603Y7424D01*
Y7458D01*
X6595Y7466D01*
X6570D01*
X6620D02*
X6653D01*
Y7458D01*
X6620Y7424D01*
Y7416D01*
X6825Y7516D02*
X6842D01*
X6833D01*
Y7566D01*
X6834D01*
X6833D02*
X6825Y7558D01*
X6867Y7566D02*
Y7516D01*
X6900D02*
X6867Y7566D01*
X6900D02*
Y7516D01*
X6917Y7524D02*
X6925Y7516D01*
X6942D01*
X6950Y7524D01*
Y7558D01*
X6942Y7566D01*
X6925D01*
X6917Y7558D01*
Y7549D01*
X6925Y7541D01*
X6950D01*
X6967Y7516D02*
X6983D01*
X6975D01*
Y7566D01*
X6976D01*
X6975D02*
X6967Y7558D01*
X7033Y7566D02*
Y7516D01*
X7008Y7541D02*
X7033Y7566D01*
X7042Y7541D02*
X7008D01*
X6570Y7521D02*
Y7571D01*
Y7521D02*
X6595D01*
X6603Y7529D01*
Y7563D01*
X6595Y7571D01*
X6570D01*
X6620Y7563D02*
X6628Y7571D01*
X6645D01*
X6653Y7563D01*
Y7554D01*
X6645Y7546D01*
X6653Y7538D01*
Y7529D01*
X6645Y7521D01*
X6628D01*
X6620Y7529D01*
Y7538D01*
X6628Y7546D01*
X6620Y7554D01*
Y7563D01*
X6628Y7546D02*
X6645D01*
X6890Y7316D02*
X6923D01*
X6890D02*
X6923Y7349D01*
Y7358D01*
X6915Y7366D01*
X6898D01*
X6890Y7358D01*
X6940Y7366D02*
Y7316D01*
Y7333D01*
X6973Y7366D01*
X6948Y7341D01*
X6973Y7316D01*
X6560D02*
Y7366D01*
X6585D01*
X6593Y7358D01*
Y7341D01*
X6585Y7333D01*
X6560D01*
X6577D02*
X6593Y7316D01*
X6635D02*
Y7366D01*
X6610Y7341D01*
X6643D01*
X6660Y7358D02*
X6668Y7366D01*
X6685D01*
X6693Y7358D01*
Y7324D01*
X6685Y7316D01*
X6668D01*
X6660Y7324D01*
Y7358D01*
X6890Y6016D02*
X6907D01*
X6898D01*
Y6066D01*
X6899D01*
X6898D02*
X6890Y6058D01*
X6932D02*
X6940Y6066D01*
X6957D01*
X6965Y6058D01*
Y6024D01*
X6957Y6016D01*
X6940D01*
X6932Y6024D01*
Y6058D01*
X6560Y6066D02*
Y6016D01*
Y6066D02*
X6585D01*
X6593Y6058D01*
Y6041D01*
X6585Y6033D01*
X6560D01*
X6577D02*
X6593Y6016D01*
X6610D02*
X6627D01*
X6618D01*
Y6066D01*
X6619D01*
X6618D02*
X6610Y6058D01*
X6652D02*
X6660Y6066D01*
X6677D01*
X6685Y6058D01*
Y6049D01*
X6677Y6041D01*
X6685Y6033D01*
Y6024D01*
X6677Y6016D01*
X6660D01*
X6652Y6024D01*
Y6033D01*
X6660Y6041D01*
X6652Y6049D01*
Y6058D01*
X6660Y6041D02*
X6677D01*
X6885Y5911D02*
X6902D01*
X6893D01*
Y5961D01*
X6894D01*
X6893D02*
X6885Y5953D01*
X6927D02*
X6935Y5961D01*
X6952D01*
X6960Y5953D01*
Y5919D01*
X6952Y5911D01*
X6935D01*
X6927Y5919D01*
Y5953D01*
X6977Y5961D02*
Y5911D01*
Y5928D01*
X7010Y5961D01*
X6985Y5936D01*
X7010Y5911D01*
X6550D02*
Y5961D01*
X6575D01*
X6583Y5953D01*
Y5936D01*
X6575Y5928D01*
X6550D01*
X6567D02*
X6583Y5911D01*
X6600D02*
X6633D01*
X6600D02*
X6633Y5944D01*
Y5953D01*
X6625Y5961D01*
X6608D01*
X6600Y5953D01*
X6650Y5911D02*
X6683D01*
X6650D02*
X6683Y5944D01*
Y5953D01*
X6675Y5961D01*
X6658D01*
X6650Y5953D01*
X7040Y5521D02*
X7057D01*
X7048D01*
Y5571D01*
X7049D01*
X7048D02*
X7040Y5563D01*
X7082D02*
X7090Y5571D01*
X7107D01*
X7115Y5563D01*
Y5529D01*
X7107Y5521D01*
X7090D01*
X7082Y5529D01*
Y5563D01*
X7132Y5554D02*
Y5529D01*
X7140Y5521D01*
X7165D01*
Y5554D01*
X7182Y5571D02*
X7215D01*
X7182D02*
Y5546D01*
X7198D01*
X7182D01*
Y5521D01*
X6893Y5563D02*
X6885Y5571D01*
X6868D01*
X6860Y5563D01*
Y5529D01*
X6868Y5521D01*
X6885D01*
X6893Y5529D01*
X6910Y5571D02*
X6943D01*
X6910D02*
Y5546D01*
X6927Y5554D01*
X6935D01*
X6943Y5546D01*
Y5529D01*
X6935Y5521D01*
X6918D01*
X6910Y5529D01*
X6960Y5571D02*
X6993D01*
X6960D02*
Y5546D01*
X6977Y5554D01*
X6985D01*
X6993Y5546D01*
Y5529D01*
X6985Y5521D01*
X6968D01*
X6960Y5529D01*
D13*
X7685Y10516D02*
X7718D01*
X7702D01*
Y10616D01*
X7703D01*
X7702D02*
X7685Y10599D01*
X7768D02*
X7785Y10616D01*
X7818D01*
X7835Y10599D01*
Y10533D01*
X7818Y10516D01*
X7785D01*
X7768Y10533D01*
Y10599D01*
X7868D02*
X7885Y10616D01*
X7918D01*
X7935Y10599D01*
Y10533D01*
X7918Y10516D01*
X7885D01*
X7868Y10533D01*
Y10599D01*
X7968Y10566D02*
X8035D01*
X8068Y10516D02*
X8102D01*
X8085D01*
Y10616D01*
X8086D01*
X8085D02*
X8068Y10599D01*
X8152D02*
X8168Y10616D01*
X8202D01*
X8218Y10599D01*
Y10533D01*
X8202Y10516D01*
X8168D01*
X8152Y10533D01*
Y10599D01*
X8301Y10616D02*
Y10516D01*
X8251Y10566D02*
X8301Y10616D01*
X8318Y10566D02*
X8251D01*
X8351Y10516D02*
X8418D01*
X8351D02*
X8418Y10583D01*
Y10599D01*
X8401Y10616D01*
X8368D01*
X8351Y10599D01*
X8451Y10566D02*
X8518D01*
X8551Y10599D02*
X8568Y10616D01*
X8601D01*
X8618Y10599D01*
Y10533D01*
X8601Y10516D01*
X8568D01*
X8551Y10533D01*
Y10599D01*
X8651Y10616D02*
X8718D01*
X8651D02*
Y10566D01*
X8685Y10583D01*
X8701D01*
X8718Y10566D01*
Y10533D01*
X8701Y10516D01*
X8668D01*
X8651Y10533D01*
X8851Y10516D02*
Y10616D01*
X8901D01*
X8918Y10599D01*
Y10566D01*
X8901Y10549D01*
X8851D01*
X8885D02*
X8918Y10516D01*
X8951Y10616D02*
X9018D01*
X8951D02*
Y10516D01*
X9018D01*
X8985Y10566D02*
X8951D01*
X9051Y10549D02*
Y10616D01*
Y10549D02*
X9085Y10516D01*
X9118Y10549D01*
Y10616D01*
X9251D02*
Y10516D01*
X9318D02*
X9251Y10616D01*
X9318D02*
Y10516D01*
X9418Y10599D02*
X9401Y10616D01*
X9368D01*
X9351Y10599D01*
Y10533D01*
X9368Y10516D01*
X9401D01*
X9418Y10533D01*
X9601Y10616D02*
X9618Y10599D01*
X9601Y10616D02*
X9568D01*
X9551Y10599D01*
Y10533D01*
X9568Y10516D01*
X9601D01*
X9618Y10533D01*
X9668Y10616D02*
X9701D01*
X9668D02*
X9651Y10599D01*
Y10533D01*
X9668Y10516D01*
X9701D01*
X9718Y10533D01*
Y10599D01*
X9701Y10616D01*
X9751D02*
Y10516D01*
X9784Y10583D02*
X9751Y10616D01*
X9784Y10583D02*
X9818Y10616D01*
Y10516D01*
X9851D02*
Y10616D01*
X9901D01*
X9918Y10599D01*
Y10566D01*
X9901Y10549D01*
X9851D01*
X9968Y10616D02*
X10001D01*
X9968D02*
X9951Y10599D01*
Y10533D01*
X9968Y10516D01*
X10001D01*
X10018Y10533D01*
Y10599D01*
X10001Y10616D01*
X10051D02*
Y10516D01*
X10118D02*
X10051Y10616D01*
X10118D02*
Y10516D01*
X10151Y10616D02*
X10218D01*
X10151D02*
Y10516D01*
X10218D01*
X10184Y10566D02*
X10151D01*
X10251Y10516D02*
Y10616D01*
X10317Y10516D01*
Y10616D01*
X10351D02*
X10417D01*
X10384D01*
Y10516D01*
X10601Y10616D02*
X10617Y10599D01*
X10601Y10616D02*
X10567D01*
X10551Y10599D01*
Y10583D01*
X10567Y10566D01*
X10601D01*
X10617Y10549D01*
Y10533D01*
X10601Y10516D01*
X10567D01*
X10551Y10533D01*
X10651Y10616D02*
X10684D01*
X10667D01*
Y10516D01*
X10651D01*
X10684D01*
X10734D02*
Y10616D01*
Y10516D02*
X10784D01*
X10801Y10533D01*
Y10599D01*
X10784Y10616D01*
X10734D01*
X10834D02*
X10901D01*
X10834D02*
Y10516D01*
X10901D01*
X10867Y10566D02*
X10834D01*
X11034Y10516D02*
Y10616D01*
Y10516D02*
X11101D01*
X11134Y10616D02*
X11201D01*
X11134D02*
Y10516D01*
X11201D01*
X11167Y10566D02*
X11134D01*
X11284Y10616D02*
X11300Y10599D01*
X11284Y10616D02*
X11251D01*
X11234Y10599D01*
Y10533D01*
X11251Y10516D01*
X11284D01*
X11300Y10533D01*
Y10566D01*
X11267D01*
X11334Y10616D02*
X11400D01*
X11334D02*
Y10516D01*
X11400D01*
X11367Y10566D02*
X11334D01*
X11434Y10516D02*
Y10616D01*
X11500Y10516D01*
Y10616D01*
X11534D02*
Y10516D01*
X11584D01*
X11600Y10533D01*
Y10599D01*
X11584Y10616D01*
X11534D01*
X12895Y8611D02*
X12995D01*
X12895D02*
Y8544D01*
X12995Y8494D02*
Y8461D01*
Y8494D02*
X12978Y8511D01*
X12912D01*
X12895Y8494D01*
Y8461D01*
X12912Y8444D01*
X12978D01*
X12995Y8461D01*
Y8361D02*
X12978Y8344D01*
X12995Y8361D02*
Y8394D01*
X12978Y8411D01*
X12912D01*
X12895Y8394D01*
Y8361D01*
X12912Y8344D01*
X12945D01*
Y8378D01*
X12995Y8311D02*
Y8278D01*
Y8294D01*
X12895D01*
Y8311D01*
Y8278D01*
X12995Y8178D02*
X12978Y8161D01*
X12995Y8178D02*
Y8211D01*
X12978Y8228D01*
X12912D01*
X12895Y8211D01*
Y8178D01*
X12912Y8161D01*
X12895Y8028D02*
X12995D01*
X12962Y7995D01*
X12995Y7961D01*
X12895D01*
X12995Y7911D02*
Y7878D01*
Y7911D02*
X12978Y7928D01*
X12912D01*
X12895Y7911D01*
Y7878D01*
X12912Y7861D01*
X12978D01*
X12995Y7878D01*
Y7828D02*
X12895D01*
Y7778D01*
X12912Y7761D01*
X12978D01*
X12995Y7778D01*
Y7828D01*
Y7728D02*
X12912D01*
X12895Y7711D01*
Y7678D01*
X12912Y7661D01*
X12995D01*
Y7628D02*
X12895D01*
Y7561D01*
X12995Y7528D02*
Y7461D01*
Y7528D02*
X12895D01*
Y7461D01*
X12945Y7495D02*
Y7528D01*
Y7428D02*
Y7361D01*
X12912Y7261D02*
X12978D01*
X12995Y7278D01*
Y7311D01*
X12978Y7328D01*
X12912D01*
X12895Y7311D01*
Y7278D01*
Y7261D02*
X12928Y7295D01*
X12912Y7261D02*
X12895Y7278D01*
X12912Y7228D02*
X12995D01*
X12912D02*
X12895Y7211D01*
Y7178D01*
X12912Y7161D01*
X12995D01*
X12962Y7128D02*
X12895D01*
X12962D02*
X12995Y7095D01*
X12962Y7062D01*
X12895D01*
X12945D01*
Y7128D01*
X12895Y7028D02*
X12995D01*
X12895Y6962D01*
X12995D01*
Y6928D02*
Y6862D01*
Y6895D01*
X12895D01*
X12995Y6828D02*
Y6795D01*
Y6812D01*
X12895D01*
Y6828D01*
Y6795D01*
X12995Y6745D02*
Y6678D01*
X12978D01*
X12912Y6745D01*
X12895D01*
Y6678D01*
X12995Y6645D02*
Y6578D01*
Y6645D02*
X12895D01*
Y6578D01*
X12945Y6612D02*
Y6645D01*
X12895Y6545D02*
X12995D01*
Y6495D01*
X12978Y6478D01*
X12945D01*
X12928Y6495D01*
Y6545D01*
Y6512D02*
X12895Y6478D01*
X12858Y8539D02*
X12875Y8556D01*
Y8589D01*
X12858Y8606D01*
X12842D01*
X12825Y8589D01*
Y8556D01*
X12808Y8539D01*
X12792D01*
X12775Y8556D01*
Y8589D01*
X12792Y8606D01*
X12775Y8506D02*
X12875D01*
X12825D02*
X12775D01*
X12825D02*
Y8439D01*
X12875D01*
X12775D01*
X12875Y8406D02*
Y8373D01*
Y8389D01*
X12775D01*
Y8406D01*
Y8373D01*
X12875Y8323D02*
Y8256D01*
Y8323D02*
X12825D01*
Y8289D01*
Y8323D01*
X12775D01*
X12875Y8223D02*
Y8156D01*
Y8189D01*
X12775D01*
X12875Y8123D02*
Y8056D01*
Y8123D02*
X12775D01*
Y8056D01*
X12825Y8090D02*
Y8123D01*
X12775Y8023D02*
X12875D01*
Y7973D01*
X12858Y7956D01*
X12825D01*
X12808Y7973D01*
Y8023D01*
Y7990D02*
X12775Y7956D01*
X12858Y7856D02*
X12875Y7873D01*
Y7906D01*
X12858Y7923D01*
X12842D01*
X12825Y7906D01*
Y7873D01*
X12808Y7856D01*
X12792D01*
X12775Y7873D01*
Y7906D01*
X12792Y7923D01*
X12825Y7823D02*
Y7756D01*
X12875Y7706D02*
Y7673D01*
Y7706D02*
X12858Y7723D01*
X12792D01*
X12775Y7706D01*
Y7673D01*
X12792Y7656D01*
X12858D01*
X12875Y7673D01*
Y7573D02*
X12858Y7556D01*
X12875Y7573D02*
Y7606D01*
X12858Y7623D01*
X12842D01*
X12825Y7606D01*
Y7573D01*
X12808Y7556D01*
X12792D01*
X12775Y7573D01*
Y7606D01*
X12792Y7623D01*
X12875Y7473D02*
X12858Y7456D01*
X12875Y7473D02*
Y7506D01*
X12858Y7523D01*
X12792D01*
X12775Y7506D01*
Y7473D01*
X12792Y7456D01*
X12875Y7423D02*
Y7390D01*
Y7406D01*
X12775D01*
Y7423D01*
Y7390D01*
Y7340D02*
X12875D01*
X12775D02*
Y7273D01*
Y7240D02*
X12842D01*
X12875Y7206D01*
X12842Y7173D01*
X12775D01*
X12825D01*
Y7240D01*
X12875Y7140D02*
Y7073D01*
Y7106D01*
X12775D01*
X12875Y7023D02*
Y6990D01*
Y7023D02*
X12858Y7040D01*
X12792D01*
X12775Y7023D01*
Y6990D01*
X12792Y6973D01*
X12858D01*
X12875Y6990D01*
Y6940D02*
X12775D01*
X12875D02*
Y6890D01*
X12858Y6873D01*
X12825D01*
X12808Y6890D01*
Y6940D01*
Y6907D02*
X12775Y6873D01*
X12700Y7931D02*
Y7951D01*
Y7941D02*
Y7931D01*
Y7941D02*
X12760D01*
X12761D01*
X12760D02*
X12750Y7951D01*
Y7901D02*
X12760Y7891D01*
Y7871D01*
X12750Y7861D01*
X12710D01*
X12700Y7871D01*
Y7891D01*
X12710Y7901D01*
X12750D01*
Y7841D02*
X12760Y7831D01*
Y7811D01*
X12750Y7801D01*
X12710D01*
X12700Y7811D01*
Y7831D01*
X12710Y7841D01*
X12750D01*
X12730Y7781D02*
Y7741D01*
X12700Y7721D02*
Y7701D01*
Y7711D01*
X12760D01*
X12761D01*
X12760D02*
X12750Y7721D01*
Y7671D02*
X12760Y7661D01*
Y7641D01*
X12750Y7631D01*
X12710D01*
X12700Y7641D01*
Y7661D01*
X12710Y7671D01*
X12750D01*
X12760Y7581D02*
X12700D01*
X12730Y7611D02*
X12760Y7581D01*
X12730Y7571D02*
Y7611D01*
X12700Y7551D02*
Y7511D01*
Y7551D02*
X12740Y7511D01*
X12750D01*
X12760Y7521D01*
Y7541D01*
X12750Y7551D01*
X12730Y7491D02*
Y7451D01*
X12700Y7431D02*
X12760D01*
Y7401D01*
X12750Y7391D01*
X12730D01*
X12720Y7401D01*
Y7431D01*
Y7411D02*
X12700Y7391D01*
X12760Y7371D02*
Y7331D01*
Y7371D02*
X12700D01*
Y7331D01*
X12730Y7351D02*
Y7371D01*
X12720Y7311D02*
X12760D01*
X12720D02*
X12700Y7291D01*
X12720Y7271D01*
X12760D01*
Y7191D02*
X12700D01*
Y7151D02*
X12760Y7191D01*
Y7151D02*
X12700D01*
X12750Y7091D02*
X12760Y7101D01*
Y7121D01*
X12750Y7131D01*
X12710D01*
X12700Y7121D01*
Y7101D01*
X12710Y7091D01*
X12670Y8186D02*
X12680Y8196D01*
Y8216D01*
X12670Y8226D01*
X12630D01*
X12620Y8216D01*
Y8196D01*
X12630Y8186D01*
X12680Y8156D02*
Y8136D01*
Y8156D02*
X12670Y8166D01*
X12630D01*
X12620Y8156D01*
Y8136D01*
X12630Y8126D01*
X12670D01*
X12680Y8136D01*
Y8106D02*
X12620D01*
X12680D02*
Y8076D01*
X12670Y8066D01*
X12650D01*
X12640Y8076D01*
Y8106D01*
X12670Y8046D02*
X12680D01*
X12670D02*
X12650Y8026D01*
X12670Y8006D01*
X12680D01*
X12650Y8026D02*
X12620D01*
Y7986D02*
X12680D01*
Y7956D01*
X12670Y7946D01*
X12650D01*
X12640Y7956D01*
Y7986D01*
Y7966D02*
X12620Y7946D01*
X12680Y7926D02*
Y7906D01*
Y7916D01*
X12620D01*
Y7926D01*
Y7906D01*
X12680Y7846D02*
X12670Y7836D01*
X12680Y7846D02*
Y7866D01*
X12670Y7876D01*
X12630D01*
X12620Y7866D01*
Y7846D01*
X12630Y7836D01*
X12650D01*
Y7856D01*
X12680Y7816D02*
X12620D01*
X12650D01*
Y7776D01*
X12680D01*
X12620D01*
X12680Y7756D02*
Y7716D01*
Y7736D01*
X12620D01*
X12640Y7636D02*
X12620Y7616D01*
X12640Y7636D02*
X12660D01*
X12680Y7616D01*
Y7556D02*
X12670Y7546D01*
X12680Y7556D02*
Y7576D01*
X12670Y7586D01*
X12630D01*
X12620Y7576D01*
Y7556D01*
X12630Y7546D01*
X12620Y7526D02*
X12640Y7506D01*
X12660D01*
X12680Y7526D01*
X12620Y7416D02*
Y7376D01*
Y7416D02*
X12660Y7376D01*
X12670D01*
X12680Y7386D01*
Y7406D01*
X12670Y7416D01*
Y7356D02*
X12680Y7346D01*
Y7326D01*
X12670Y7316D01*
X12630D01*
X12620Y7326D01*
Y7346D01*
X12630Y7356D01*
X12670D01*
Y7296D02*
X12680Y7286D01*
Y7266D01*
X12670Y7256D01*
X12630D01*
X12620Y7266D01*
Y7286D01*
X12630Y7296D01*
X12670D01*
X12680Y7206D02*
X12620D01*
X12650Y7236D02*
X12680Y7206D01*
X12650Y7196D02*
Y7236D01*
X12680Y7116D02*
X12620D01*
Y7086D01*
X12630Y7076D01*
X12640D01*
X12650Y7086D01*
Y7116D01*
X12651D01*
X12650D02*
X12651D01*
X12650D02*
X12651D01*
X12650D02*
Y7086D01*
X12660Y7076D01*
X12670D01*
X12680Y7086D01*
Y7116D01*
Y7056D02*
X12670D01*
X12650Y7036D01*
X12670Y7016D01*
X12680D01*
X12650Y7036D02*
X12620D01*
X12680Y6916D02*
Y6896D01*
Y6906D02*
Y6916D01*
Y6906D02*
X12630D01*
X12620Y6916D01*
Y6926D01*
X12630Y6936D01*
X12680Y6876D02*
Y6856D01*
Y6866D01*
X12620D01*
Y6876D01*
Y6856D01*
Y6826D02*
X12680D01*
X12660Y6806D01*
X12680Y6786D01*
X12620D01*
Y6706D02*
X12680D01*
Y6677D01*
X12670Y6667D01*
X12650D01*
X12640Y6677D01*
Y6706D01*
X12620Y6647D02*
X12660D01*
X12680Y6627D01*
X12660Y6607D01*
X12620D01*
X12650D01*
Y6647D01*
X12680Y6587D02*
Y6547D01*
Y6567D01*
X12620D01*
X12680Y6497D02*
X12670Y6487D01*
X12680Y6497D02*
Y6517D01*
X12670Y6527D01*
X12630D01*
X12620Y6517D01*
Y6497D01*
X12630Y6487D01*
X12620Y6467D02*
X12680D01*
X12650D02*
X12620D01*
X12650D02*
Y6427D01*
X12680D01*
X12620D01*
X12680Y6407D02*
Y6367D01*
Y6407D02*
X12620D01*
Y6367D01*
X12650Y6387D02*
Y6407D01*
X12680Y6347D02*
X12620D01*
Y6307D01*
Y6287D02*
X12680D01*
X12620D02*
Y6247D01*
X7885Y8591D02*
X7835Y8641D01*
X7985Y8591D02*
X8035Y8641D01*
X7835D02*
Y8741D01*
X8035D02*
Y8641D01*
X7985Y8591D02*
X7885D01*
X7835Y8741D02*
X8035D01*
X7735Y6866D02*
X7760Y6841D01*
X7835D02*
Y7241D01*
X7735D02*
Y6866D01*
X7760Y6841D02*
X7835D01*
Y7241D02*
X7735D01*
X8385Y5941D02*
X8385Y5938D01*
X8385Y5934D01*
X8385Y5931D01*
X8384Y5928D01*
X8384Y5924D01*
X8383Y5921D01*
X8382Y5918D01*
X8381Y5915D01*
X8381Y5912D01*
X8380Y5908D01*
X8378Y5905D01*
X8377Y5902D01*
X8376Y5899D01*
X8374Y5896D01*
X8373Y5893D01*
X8371Y5890D01*
X8369Y5887D01*
X8368Y5885D01*
X8366Y5882D01*
X8364Y5879D01*
X8362Y5877D01*
X8359Y5874D01*
X8357Y5872D01*
X8355Y5869D01*
X8352Y5867D01*
X8350Y5865D01*
X8347Y5863D01*
X8345Y5861D01*
X8342Y5859D01*
X8339Y5857D01*
X8336Y5855D01*
X8334Y5854D01*
X8331Y5852D01*
X8328Y5851D01*
X8325Y5849D01*
X8322Y5848D01*
X8318Y5847D01*
X8315Y5846D01*
X8312Y5845D01*
X8309Y5844D01*
X8306Y5843D01*
X8302Y5843D01*
X8299Y5842D01*
X8296Y5842D01*
X8292Y5841D01*
X8289Y5841D01*
X8286Y5841D01*
X8283Y5841D01*
X8279Y5841D01*
X8276Y5841D01*
X8273Y5842D01*
X8269Y5842D01*
X8266Y5843D01*
X8263Y5844D01*
X8260Y5844D01*
X8256Y5845D01*
X8253Y5846D01*
X8250Y5847D01*
X8247Y5849D01*
X8244Y5850D01*
X8241Y5851D01*
X8238Y5853D01*
X8235Y5854D01*
X8232Y5856D01*
X8229Y5858D01*
X8227Y5860D01*
X8224Y5862D01*
X8221Y5864D01*
X8219Y5866D01*
X8216Y5868D01*
X8214Y5871D01*
X8212Y5873D01*
X8209Y5875D01*
X8207Y5878D01*
X8205Y5881D01*
X8203Y5883D01*
X8201Y5886D01*
X8200Y5889D01*
X8198Y5892D01*
X8196Y5895D01*
X8195Y5898D01*
X8194Y5901D01*
X8192Y5904D01*
X8191Y5907D01*
X8190Y5910D01*
X8189Y5913D01*
X8188Y5916D01*
X8187Y5920D01*
X8187Y5923D01*
X8186Y5926D01*
X8186Y5929D01*
X8185Y5933D01*
X8185Y5936D01*
X8185Y5939D01*
Y5943D01*
X8185Y5946D01*
X8185Y5949D01*
X8186Y5953D01*
X8186Y5956D01*
X8187Y5959D01*
X8187Y5962D01*
X8188Y5966D01*
X8189Y5969D01*
X8190Y5972D01*
X8191Y5975D01*
X8192Y5978D01*
X8194Y5981D01*
X8195Y5984D01*
X8196Y5987D01*
X8198Y5990D01*
X8200Y5993D01*
X8201Y5996D01*
X8203Y5999D01*
X8205Y6001D01*
X8207Y6004D01*
X8209Y6007D01*
X8212Y6009D01*
X8214Y6011D01*
X8216Y6014D01*
X8219Y6016D01*
X8221Y6018D01*
X8224Y6020D01*
X8227Y6022D01*
X8229Y6024D01*
X8232Y6026D01*
X8235Y6028D01*
X8238Y6029D01*
X8241Y6031D01*
X8244Y6032D01*
X8247Y6033D01*
X8250Y6035D01*
X8253Y6036D01*
X8256Y6037D01*
X8260Y6038D01*
X8263Y6038D01*
X8266Y6039D01*
X8269Y6040D01*
X8273Y6040D01*
X8276Y6041D01*
X8279Y6041D01*
X8283Y6041D01*
X8286Y6041D01*
X8289Y6041D01*
X8292Y6041D01*
X8296Y6040D01*
X8299Y6040D01*
X8302Y6039D01*
X8306Y6039D01*
X8309Y6038D01*
X8312Y6037D01*
X8315Y6036D01*
X8318Y6035D01*
X8322Y6034D01*
X8325Y6033D01*
X8328Y6031D01*
X8331Y6030D01*
X8334Y6028D01*
X8336Y6027D01*
X8339Y6025D01*
X8342Y6023D01*
X8345Y6021D01*
X8347Y6019D01*
X8350Y6017D01*
X8352Y6015D01*
X8355Y6013D01*
X8357Y6010D01*
X8359Y6008D01*
X8362Y6005D01*
X8364Y6003D01*
X8366Y6000D01*
X8368Y5997D01*
X8369Y5995D01*
X8371Y5992D01*
X8373Y5989D01*
X8374Y5986D01*
X8376Y5983D01*
X8377Y5980D01*
X8378Y5977D01*
X8380Y5974D01*
X8381Y5970D01*
X8381Y5967D01*
X8382Y5964D01*
X8383Y5961D01*
X8384Y5958D01*
X8384Y5954D01*
X8385Y5951D01*
X8385Y5948D01*
X8385Y5944D01*
X8385Y5941D01*
X8175Y5891D02*
Y5841D01*
X8150Y5866D02*
X8200D01*
X7135Y6441D02*
X7135Y6438D01*
X7135Y6434D01*
X7134Y6431D01*
X7133Y6428D01*
X7132Y6425D01*
X7131Y6422D01*
X7130Y6419D01*
X7128Y6416D01*
X7127Y6413D01*
X7125Y6411D01*
X7123Y6408D01*
X7120Y6406D01*
X7118Y6403D01*
X7115Y6401D01*
X7113Y6399D01*
X7110Y6398D01*
X7107Y6396D01*
X7104Y6395D01*
X7101Y6394D01*
X7098Y6393D01*
X7095Y6392D01*
X7092Y6391D01*
X7088Y6391D01*
X7085Y6391D01*
X7135Y6541D02*
X7135Y6544D01*
X7135Y6548D01*
X7134Y6551D01*
X7133Y6554D01*
X7132Y6557D01*
X7131Y6560D01*
X7130Y6563D01*
X7128Y6566D01*
X7127Y6569D01*
X7125Y6571D01*
X7123Y6574D01*
X7120Y6576D01*
X7118Y6579D01*
X7115Y6581D01*
X7113Y6583D01*
X7110Y6584D01*
X7107Y6586D01*
X7104Y6587D01*
X7101Y6588D01*
X7098Y6589D01*
X7095Y6590D01*
X7092Y6591D01*
X7088Y6591D01*
X7085Y6591D01*
X6785D02*
X6782Y6591D01*
X6778Y6591D01*
X6775Y6590D01*
X6772Y6589D01*
X6769Y6588D01*
X6766Y6587D01*
X6763Y6586D01*
X6760Y6584D01*
X6757Y6583D01*
X6755Y6581D01*
X6752Y6579D01*
X6750Y6576D01*
X6747Y6574D01*
X6745Y6571D01*
X6743Y6569D01*
X6742Y6566D01*
X6740Y6563D01*
X6739Y6560D01*
X6738Y6557D01*
X6737Y6554D01*
X6736Y6551D01*
X6735Y6548D01*
X6735Y6544D01*
X6735Y6541D01*
Y6441D02*
X6735Y6438D01*
X6735Y6434D01*
X6736Y6431D01*
X6737Y6428D01*
X6738Y6425D01*
X6739Y6422D01*
X6740Y6419D01*
X6742Y6416D01*
X6743Y6413D01*
X6745Y6411D01*
X6747Y6408D01*
X6750Y6406D01*
X6752Y6403D01*
X6755Y6401D01*
X6757Y6399D01*
X6760Y6398D01*
X6763Y6396D01*
X6766Y6395D01*
X6769Y6394D01*
X6772Y6393D01*
X6775Y6392D01*
X6778Y6391D01*
X6782Y6391D01*
X6785Y6391D01*
X7135Y6441D02*
Y6541D01*
X6735D02*
Y6441D01*
X6785Y6391D02*
X7085D01*
Y6591D02*
X6785D01*
X6485Y6691D02*
Y6791D01*
X6535Y6841D02*
Y6641D01*
X7235D02*
Y6841D01*
X6535Y6791D02*
X6485D01*
Y6691D02*
X6535D01*
Y6841D02*
X7235D01*
Y6641D02*
X6535D01*
X6485Y6241D02*
Y6141D01*
X6535Y6091D02*
Y6291D01*
X7235D02*
Y6091D01*
X6535Y6241D02*
X6485D01*
Y6141D02*
X6535D01*
Y6291D02*
X7235D01*
Y6091D02*
X6535D01*
X7185Y5691D02*
X7185Y5688D01*
X7185Y5684D01*
X7185Y5681D01*
X7184Y5678D01*
X7184Y5674D01*
X7183Y5671D01*
X7182Y5668D01*
X7181Y5665D01*
X7181Y5662D01*
X7180Y5658D01*
X7178Y5655D01*
X7177Y5652D01*
X7176Y5649D01*
X7174Y5646D01*
X7173Y5643D01*
X7171Y5640D01*
X7169Y5637D01*
X7168Y5635D01*
X7166Y5632D01*
X7164Y5629D01*
X7162Y5627D01*
X7159Y5624D01*
X7157Y5622D01*
X7155Y5619D01*
X7152Y5617D01*
X7150Y5615D01*
X7147Y5613D01*
X7145Y5611D01*
X7142Y5609D01*
X7139Y5607D01*
X7136Y5605D01*
X7134Y5604D01*
X7131Y5602D01*
X7128Y5601D01*
X7125Y5599D01*
X7122Y5598D01*
X7118Y5597D01*
X7115Y5596D01*
X7112Y5595D01*
X7109Y5594D01*
X7106Y5593D01*
X7102Y5593D01*
X7099Y5592D01*
X7096Y5592D01*
X7092Y5591D01*
X7089Y5591D01*
X7086Y5591D01*
X7083Y5591D01*
X7079Y5591D01*
X7076Y5591D01*
X7073Y5592D01*
X7069Y5592D01*
X7066Y5593D01*
X7063Y5594D01*
X7060Y5594D01*
X7056Y5595D01*
X7053Y5596D01*
X7050Y5597D01*
X7047Y5599D01*
X7044Y5600D01*
X7041Y5601D01*
X7038Y5603D01*
X7035Y5604D01*
X7032Y5606D01*
X7029Y5608D01*
X7027Y5610D01*
X7024Y5612D01*
X7021Y5614D01*
X7019Y5616D01*
X7016Y5618D01*
X7014Y5621D01*
X7012Y5623D01*
X7009Y5625D01*
X7007Y5628D01*
X7005Y5631D01*
X7003Y5633D01*
X7001Y5636D01*
X7000Y5639D01*
X6998Y5642D01*
X6996Y5645D01*
X6995Y5648D01*
X6994Y5651D01*
X6992Y5654D01*
X6991Y5657D01*
X6990Y5660D01*
X6989Y5663D01*
X6988Y5666D01*
X6987Y5670D01*
X6987Y5673D01*
X6986Y5676D01*
X6986Y5679D01*
X6985Y5683D01*
X6985Y5686D01*
X6985Y5689D01*
Y5693D01*
X6985Y5696D01*
X6985Y5699D01*
X6986Y5703D01*
X6986Y5706D01*
X6987Y5709D01*
X6987Y5712D01*
X6988Y5716D01*
X6989Y5719D01*
X6990Y5722D01*
X6991Y5725D01*
X6992Y5728D01*
X6994Y5731D01*
X6995Y5734D01*
X6996Y5737D01*
X6998Y5740D01*
X7000Y5743D01*
X7001Y5746D01*
X7003Y5749D01*
X7005Y5751D01*
X7007Y5754D01*
X7009Y5757D01*
X7012Y5759D01*
X7014Y5761D01*
X7016Y5764D01*
X7019Y5766D01*
X7021Y5768D01*
X7024Y5770D01*
X7027Y5772D01*
X7029Y5774D01*
X7032Y5776D01*
X7035Y5778D01*
X7038Y5779D01*
X7041Y5781D01*
X7044Y5782D01*
X7047Y5783D01*
X7050Y5785D01*
X7053Y5786D01*
X7056Y5787D01*
X7060Y5788D01*
X7063Y5788D01*
X7066Y5789D01*
X7069Y5790D01*
X7073Y5790D01*
X7076Y5791D01*
X7079Y5791D01*
X7083Y5791D01*
X7086Y5791D01*
X7089Y5791D01*
X7092Y5791D01*
X7096Y5790D01*
X7099Y5790D01*
X7102Y5789D01*
X7106Y5789D01*
X7109Y5788D01*
X7112Y5787D01*
X7115Y5786D01*
X7118Y5785D01*
X7122Y5784D01*
X7125Y5783D01*
X7128Y5781D01*
X7131Y5780D01*
X7134Y5778D01*
X7136Y5777D01*
X7139Y5775D01*
X7142Y5773D01*
X7145Y5771D01*
X7147Y5769D01*
X7150Y5767D01*
X7152Y5765D01*
X7155Y5763D01*
X7157Y5760D01*
X7159Y5758D01*
X7162Y5755D01*
X7164Y5753D01*
X7166Y5750D01*
X7168Y5747D01*
X7169Y5745D01*
X7171Y5742D01*
X7173Y5739D01*
X7174Y5736D01*
X7176Y5733D01*
X7177Y5730D01*
X7178Y5727D01*
X7180Y5724D01*
X7181Y5720D01*
X7181Y5717D01*
X7182Y5714D01*
X7183Y5711D01*
X7184Y5708D01*
X7184Y5704D01*
X7185Y5701D01*
X7185Y5698D01*
X7185Y5694D01*
X7185Y5691D01*
X6975Y5641D02*
Y5591D01*
X6950Y5616D02*
X7000D01*
X13035Y5491D02*
Y9991D01*
X6535D02*
Y5491D01*
X13035D01*
Y9991D02*
X6535D01*
D14*
X12510Y9500D02*
Y8775D01*
X13010D02*
Y9500D01*
X12510D01*
Y8775D02*
X13010D01*
X12525Y8021D02*
X12525Y8024D01*
X12524Y8027D01*
X12524Y8031D01*
X12523Y8034D01*
X12522Y8037D01*
X12520Y8040D01*
X12519Y8042D01*
X12517Y8045D01*
X12515Y8048D01*
X12513Y8050D01*
X12510Y8052D01*
X12508Y8054D01*
X12505Y8056D01*
X12502Y8057D01*
X12499Y8058D01*
X12496Y8059D01*
X12493Y8060D01*
X12490Y8061D01*
X12487Y8061D01*
X12483D01*
X12480Y8061D01*
X12477Y8060D01*
X12474Y8059D01*
X12471Y8058D01*
X12468Y8057D01*
X12465Y8056D01*
X12462Y8054D01*
X12460Y8052D01*
X12457Y8050D01*
X12455Y8048D01*
X12453Y8045D01*
X12451Y8042D01*
X12450Y8040D01*
X12448Y8037D01*
X12447Y8034D01*
X12446Y8031D01*
X12446Y8027D01*
X12445Y8024D01*
X12445Y8021D01*
Y7961D02*
X12445Y7958D01*
X12446Y7955D01*
X12446Y7951D01*
X12447Y7948D01*
X12448Y7945D01*
X12450Y7942D01*
X12451Y7940D01*
X12453Y7937D01*
X12455Y7934D01*
X12457Y7932D01*
X12460Y7930D01*
X12462Y7928D01*
X12465Y7926D01*
X12468Y7925D01*
X12471Y7924D01*
X12474Y7923D01*
X12477Y7922D01*
X12480Y7921D01*
X12483Y7921D01*
X12487D01*
X12490Y7921D01*
X12493Y7922D01*
X12496Y7923D01*
X12499Y7924D01*
X12502Y7925D01*
X12505Y7926D01*
X12508Y7928D01*
X12510Y7930D01*
X12513Y7932D01*
X12515Y7934D01*
X12517Y7937D01*
X12519Y7940D01*
X12520Y7942D01*
X12522Y7945D01*
X12523Y7948D01*
X12524Y7951D01*
X12524Y7955D01*
X12525Y7958D01*
X12525Y7961D01*
X12445D02*
Y8021D01*
X12525D02*
Y7961D01*
X12485Y8061D02*
Y8101D01*
Y7921D02*
Y7881D01*
X12495Y8571D02*
X12495Y8574D01*
X12496Y8577D01*
X12496Y8581D01*
X12497Y8584D01*
X12498Y8587D01*
X12500Y8590D01*
X12501Y8592D01*
X12503Y8595D01*
X12505Y8598D01*
X12507Y8600D01*
X12510Y8602D01*
X12512Y8604D01*
X12515Y8606D01*
X12518Y8607D01*
X12521Y8608D01*
X12524Y8609D01*
X12527Y8610D01*
X12530Y8611D01*
X12533Y8611D01*
X12537D01*
X12540Y8611D01*
X12543Y8610D01*
X12546Y8609D01*
X12549Y8608D01*
X12552Y8607D01*
X12555Y8606D01*
X12558Y8604D01*
X12560Y8602D01*
X12563Y8600D01*
X12565Y8598D01*
X12567Y8595D01*
X12569Y8592D01*
X12570Y8590D01*
X12572Y8587D01*
X12573Y8584D01*
X12574Y8581D01*
X12574Y8577D01*
X12575Y8574D01*
X12575Y8571D01*
Y8511D02*
X12575Y8508D01*
X12574Y8505D01*
X12574Y8501D01*
X12573Y8498D01*
X12572Y8495D01*
X12570Y8492D01*
X12569Y8490D01*
X12567Y8487D01*
X12565Y8484D01*
X12563Y8482D01*
X12560Y8480D01*
X12558Y8478D01*
X12555Y8476D01*
X12552Y8475D01*
X12549Y8474D01*
X12546Y8473D01*
X12543Y8472D01*
X12540Y8471D01*
X12537Y8471D01*
X12533D01*
X12530Y8471D01*
X12527Y8472D01*
X12524Y8473D01*
X12521Y8474D01*
X12518Y8475D01*
X12515Y8476D01*
X12512Y8478D01*
X12510Y8480D01*
X12507Y8482D01*
X12505Y8484D01*
X12503Y8487D01*
X12501Y8490D01*
X12500Y8492D01*
X12498Y8495D01*
X12497Y8498D01*
X12496Y8501D01*
X12496Y8505D01*
X12495Y8508D01*
X12495Y8511D01*
Y8571D01*
X12575D02*
Y8511D01*
X12535Y8611D02*
Y8651D01*
Y8471D02*
Y8431D01*
X12525Y7421D02*
X12525Y7424D01*
X12524Y7427D01*
X12524Y7431D01*
X12523Y7434D01*
X12522Y7437D01*
X12520Y7440D01*
X12519Y7442D01*
X12517Y7445D01*
X12515Y7448D01*
X12513Y7450D01*
X12510Y7452D01*
X12508Y7454D01*
X12505Y7456D01*
X12502Y7457D01*
X12499Y7458D01*
X12496Y7459D01*
X12493Y7460D01*
X12490Y7461D01*
X12487Y7461D01*
X12483D01*
X12480Y7461D01*
X12477Y7460D01*
X12474Y7459D01*
X12471Y7458D01*
X12468Y7457D01*
X12465Y7456D01*
X12462Y7454D01*
X12460Y7452D01*
X12457Y7450D01*
X12455Y7448D01*
X12453Y7445D01*
X12451Y7442D01*
X12450Y7440D01*
X12448Y7437D01*
X12447Y7434D01*
X12446Y7431D01*
X12446Y7427D01*
X12445Y7424D01*
X12445Y7421D01*
Y7361D02*
X12445Y7358D01*
X12446Y7355D01*
X12446Y7351D01*
X12447Y7348D01*
X12448Y7345D01*
X12450Y7342D01*
X12451Y7340D01*
X12453Y7337D01*
X12455Y7334D01*
X12457Y7332D01*
X12460Y7330D01*
X12462Y7328D01*
X12465Y7326D01*
X12468Y7325D01*
X12471Y7324D01*
X12474Y7323D01*
X12477Y7322D01*
X12480Y7321D01*
X12483Y7321D01*
X12487D01*
X12490Y7321D01*
X12493Y7322D01*
X12496Y7323D01*
X12499Y7324D01*
X12502Y7325D01*
X12505Y7326D01*
X12508Y7328D01*
X12510Y7330D01*
X12513Y7332D01*
X12515Y7334D01*
X12517Y7337D01*
X12519Y7340D01*
X12520Y7342D01*
X12522Y7345D01*
X12523Y7348D01*
X12524Y7351D01*
X12524Y7355D01*
X12525Y7358D01*
X12525Y7361D01*
X12445D02*
Y7421D01*
X12525D02*
Y7361D01*
X12485Y7461D02*
Y7501D01*
Y7321D02*
Y7281D01*
X12445Y6821D02*
X12445Y6824D01*
X12446Y6827D01*
X12446Y6831D01*
X12447Y6834D01*
X12448Y6837D01*
X12450Y6840D01*
X12451Y6842D01*
X12453Y6845D01*
X12455Y6848D01*
X12457Y6850D01*
X12460Y6852D01*
X12462Y6854D01*
X12465Y6856D01*
X12468Y6857D01*
X12471Y6858D01*
X12474Y6859D01*
X12477Y6860D01*
X12480Y6861D01*
X12483Y6861D01*
X12487D01*
X12490Y6861D01*
X12493Y6860D01*
X12496Y6859D01*
X12499Y6858D01*
X12502Y6857D01*
X12505Y6856D01*
X12508Y6854D01*
X12510Y6852D01*
X12513Y6850D01*
X12515Y6848D01*
X12517Y6845D01*
X12519Y6842D01*
X12520Y6840D01*
X12522Y6837D01*
X12523Y6834D01*
X12524Y6831D01*
X12524Y6827D01*
X12525Y6824D01*
X12525Y6821D01*
Y6761D02*
X12525Y6758D01*
X12524Y6755D01*
X12524Y6751D01*
X12523Y6748D01*
X12522Y6745D01*
X12520Y6742D01*
X12519Y6740D01*
X12517Y6737D01*
X12515Y6734D01*
X12513Y6732D01*
X12510Y6730D01*
X12508Y6728D01*
X12505Y6726D01*
X12502Y6725D01*
X12499Y6724D01*
X12496Y6723D01*
X12493Y6722D01*
X12490Y6721D01*
X12487Y6721D01*
X12483D01*
X12480Y6721D01*
X12477Y6722D01*
X12474Y6723D01*
X12471Y6724D01*
X12468Y6725D01*
X12465Y6726D01*
X12462Y6728D01*
X12460Y6730D01*
X12457Y6732D01*
X12455Y6734D01*
X12453Y6737D01*
X12451Y6740D01*
X12450Y6742D01*
X12448Y6745D01*
X12447Y6748D01*
X12446Y6751D01*
X12446Y6755D01*
X12445Y6758D01*
X12445Y6761D01*
Y6821D01*
X12525D02*
Y6761D01*
X12485Y6861D02*
Y6901D01*
Y6721D02*
Y6681D01*
X11385Y5796D02*
Y5481D01*
X12485D02*
Y5796D01*
X11385D01*
Y5481D02*
X12485D01*
X12435Y9686D02*
Y10001D01*
X11335D02*
Y9686D01*
X12435D01*
Y10001D02*
X11335D01*
X11285D02*
Y9686D01*
X10185D02*
Y10001D01*
Y9686D02*
X11285D01*
Y10001D02*
X10185D01*
X10645Y8671D02*
X10645Y8674D01*
X10646Y8677D01*
X10646Y8681D01*
X10647Y8684D01*
X10648Y8687D01*
X10650Y8690D01*
X10651Y8692D01*
X10653Y8695D01*
X10655Y8698D01*
X10657Y8700D01*
X10660Y8702D01*
X10662Y8704D01*
X10665Y8706D01*
X10668Y8707D01*
X10671Y8708D01*
X10674Y8709D01*
X10677Y8710D01*
X10680Y8711D01*
X10683Y8711D01*
X10687D01*
X10690Y8711D01*
X10693Y8710D01*
X10696Y8709D01*
X10699Y8708D01*
X10702Y8707D01*
X10705Y8706D01*
X10708Y8704D01*
X10710Y8702D01*
X10713Y8700D01*
X10715Y8698D01*
X10717Y8695D01*
X10719Y8692D01*
X10720Y8690D01*
X10722Y8687D01*
X10723Y8684D01*
X10724Y8681D01*
X10724Y8677D01*
X10725Y8674D01*
X10725Y8671D01*
Y8611D02*
X10725Y8608D01*
X10724Y8605D01*
X10724Y8601D01*
X10723Y8598D01*
X10722Y8595D01*
X10720Y8592D01*
X10719Y8590D01*
X10717Y8587D01*
X10715Y8584D01*
X10713Y8582D01*
X10710Y8580D01*
X10708Y8578D01*
X10705Y8576D01*
X10702Y8575D01*
X10699Y8574D01*
X10696Y8573D01*
X10693Y8572D01*
X10690Y8571D01*
X10687Y8571D01*
X10683D01*
X10680Y8571D01*
X10677Y8572D01*
X10674Y8573D01*
X10671Y8574D01*
X10668Y8575D01*
X10665Y8576D01*
X10662Y8578D01*
X10660Y8580D01*
X10657Y8582D01*
X10655Y8584D01*
X10653Y8587D01*
X10651Y8590D01*
X10650Y8592D01*
X10648Y8595D01*
X10647Y8598D01*
X10646Y8601D01*
X10646Y8605D01*
X10645Y8608D01*
X10645Y8611D01*
Y8671D01*
X10725D02*
Y8611D01*
X10685Y8711D02*
Y8751D01*
Y8571D02*
Y8531D01*
X11545Y8671D02*
X11545Y8674D01*
X11546Y8677D01*
X11546Y8681D01*
X11547Y8684D01*
X11548Y8687D01*
X11550Y8690D01*
X11551Y8692D01*
X11553Y8695D01*
X11555Y8698D01*
X11557Y8700D01*
X11560Y8702D01*
X11562Y8704D01*
X11565Y8706D01*
X11568Y8707D01*
X11571Y8708D01*
X11574Y8709D01*
X11577Y8710D01*
X11580Y8711D01*
X11583Y8711D01*
X11587D01*
X11590Y8711D01*
X11593Y8710D01*
X11596Y8709D01*
X11599Y8708D01*
X11602Y8707D01*
X11605Y8706D01*
X11608Y8704D01*
X11610Y8702D01*
X11613Y8700D01*
X11615Y8698D01*
X11617Y8695D01*
X11619Y8692D01*
X11620Y8690D01*
X11622Y8687D01*
X11623Y8684D01*
X11624Y8681D01*
X11624Y8677D01*
X11625Y8674D01*
X11625Y8671D01*
Y8611D02*
X11625Y8608D01*
X11624Y8605D01*
X11624Y8601D01*
X11623Y8598D01*
X11622Y8595D01*
X11620Y8592D01*
X11619Y8590D01*
X11617Y8587D01*
X11615Y8584D01*
X11613Y8582D01*
X11610Y8580D01*
X11608Y8578D01*
X11605Y8576D01*
X11602Y8575D01*
X11599Y8574D01*
X11596Y8573D01*
X11593Y8572D01*
X11590Y8571D01*
X11587Y8571D01*
X11583D01*
X11580Y8571D01*
X11577Y8572D01*
X11574Y8573D01*
X11571Y8574D01*
X11568Y8575D01*
X11565Y8576D01*
X11562Y8578D01*
X11560Y8580D01*
X11557Y8582D01*
X11555Y8584D01*
X11553Y8587D01*
X11551Y8590D01*
X11550Y8592D01*
X11548Y8595D01*
X11547Y8598D01*
X11546Y8601D01*
X11546Y8605D01*
X11545Y8608D01*
X11545Y8611D01*
Y8671D01*
X11625D02*
Y8611D01*
X11585Y8711D02*
Y8751D01*
Y8571D02*
Y8531D01*
X11575Y8021D02*
X11575Y8024D01*
X11574Y8027D01*
X11574Y8031D01*
X11573Y8034D01*
X11572Y8037D01*
X11570Y8040D01*
X11569Y8042D01*
X11567Y8045D01*
X11565Y8048D01*
X11563Y8050D01*
X11560Y8052D01*
X11558Y8054D01*
X11555Y8056D01*
X11552Y8057D01*
X11549Y8058D01*
X11546Y8059D01*
X11543Y8060D01*
X11540Y8061D01*
X11537Y8061D01*
X11533D01*
X11530Y8061D01*
X11527Y8060D01*
X11524Y8059D01*
X11521Y8058D01*
X11518Y8057D01*
X11515Y8056D01*
X11512Y8054D01*
X11510Y8052D01*
X11507Y8050D01*
X11505Y8048D01*
X11503Y8045D01*
X11501Y8042D01*
X11500Y8040D01*
X11498Y8037D01*
X11497Y8034D01*
X11496Y8031D01*
X11496Y8027D01*
X11495Y8024D01*
X11495Y8021D01*
Y7961D02*
X11495Y7958D01*
X11496Y7955D01*
X11496Y7951D01*
X11497Y7948D01*
X11498Y7945D01*
X11500Y7942D01*
X11501Y7940D01*
X11503Y7937D01*
X11505Y7934D01*
X11507Y7932D01*
X11510Y7930D01*
X11512Y7928D01*
X11515Y7926D01*
X11518Y7925D01*
X11521Y7924D01*
X11524Y7923D01*
X11527Y7922D01*
X11530Y7921D01*
X11533Y7921D01*
X11537D01*
X11540Y7921D01*
X11543Y7922D01*
X11546Y7923D01*
X11549Y7924D01*
X11552Y7925D01*
X11555Y7926D01*
X11558Y7928D01*
X11560Y7930D01*
X11563Y7932D01*
X11565Y7934D01*
X11567Y7937D01*
X11569Y7940D01*
X11570Y7942D01*
X11572Y7945D01*
X11573Y7948D01*
X11574Y7951D01*
X11574Y7955D01*
X11575Y7958D01*
X11575Y7961D01*
X11495D02*
Y8021D01*
X11575D02*
Y7961D01*
X11535Y8061D02*
Y8101D01*
Y7921D02*
Y7881D01*
X10575Y8021D02*
X10575Y8024D01*
X10574Y8027D01*
X10574Y8031D01*
X10573Y8034D01*
X10572Y8037D01*
X10570Y8040D01*
X10569Y8042D01*
X10567Y8045D01*
X10565Y8048D01*
X10563Y8050D01*
X10560Y8052D01*
X10558Y8054D01*
X10555Y8056D01*
X10552Y8057D01*
X10549Y8058D01*
X10546Y8059D01*
X10543Y8060D01*
X10540Y8061D01*
X10537Y8061D01*
X10533D01*
X10530Y8061D01*
X10527Y8060D01*
X10524Y8059D01*
X10521Y8058D01*
X10518Y8057D01*
X10515Y8056D01*
X10512Y8054D01*
X10510Y8052D01*
X10507Y8050D01*
X10505Y8048D01*
X10503Y8045D01*
X10501Y8042D01*
X10500Y8040D01*
X10498Y8037D01*
X10497Y8034D01*
X10496Y8031D01*
X10496Y8027D01*
X10495Y8024D01*
X10495Y8021D01*
Y7961D02*
X10495Y7958D01*
X10496Y7955D01*
X10496Y7951D01*
X10497Y7948D01*
X10498Y7945D01*
X10500Y7942D01*
X10501Y7940D01*
X10503Y7937D01*
X10505Y7934D01*
X10507Y7932D01*
X10510Y7930D01*
X10512Y7928D01*
X10515Y7926D01*
X10518Y7925D01*
X10521Y7924D01*
X10524Y7923D01*
X10527Y7922D01*
X10530Y7921D01*
X10533Y7921D01*
X10537D01*
X10540Y7921D01*
X10543Y7922D01*
X10546Y7923D01*
X10549Y7924D01*
X10552Y7925D01*
X10555Y7926D01*
X10558Y7928D01*
X10560Y7930D01*
X10563Y7932D01*
X10565Y7934D01*
X10567Y7937D01*
X10569Y7940D01*
X10570Y7942D01*
X10572Y7945D01*
X10573Y7948D01*
X10574Y7951D01*
X10574Y7955D01*
X10575Y7958D01*
X10575Y7961D01*
X10495D02*
Y8021D01*
X10575D02*
Y7961D01*
X10535Y8061D02*
Y8101D01*
Y7921D02*
Y7881D01*
X11545Y7421D02*
X11545Y7424D01*
X11546Y7427D01*
X11546Y7431D01*
X11547Y7434D01*
X11548Y7437D01*
X11550Y7440D01*
X11551Y7442D01*
X11553Y7445D01*
X11555Y7448D01*
X11557Y7450D01*
X11560Y7452D01*
X11562Y7454D01*
X11565Y7456D01*
X11568Y7457D01*
X11571Y7458D01*
X11574Y7459D01*
X11577Y7460D01*
X11580Y7461D01*
X11583Y7461D01*
X11587D01*
X11590Y7461D01*
X11593Y7460D01*
X11596Y7459D01*
X11599Y7458D01*
X11602Y7457D01*
X11605Y7456D01*
X11608Y7454D01*
X11610Y7452D01*
X11613Y7450D01*
X11615Y7448D01*
X11617Y7445D01*
X11619Y7442D01*
X11620Y7440D01*
X11622Y7437D01*
X11623Y7434D01*
X11624Y7431D01*
X11624Y7427D01*
X11625Y7424D01*
X11625Y7421D01*
Y7361D02*
X11625Y7358D01*
X11624Y7355D01*
X11624Y7351D01*
X11623Y7348D01*
X11622Y7345D01*
X11620Y7342D01*
X11619Y7340D01*
X11617Y7337D01*
X11615Y7334D01*
X11613Y7332D01*
X11610Y7330D01*
X11608Y7328D01*
X11605Y7326D01*
X11602Y7325D01*
X11599Y7324D01*
X11596Y7323D01*
X11593Y7322D01*
X11590Y7321D01*
X11587Y7321D01*
X11583D01*
X11580Y7321D01*
X11577Y7322D01*
X11574Y7323D01*
X11571Y7324D01*
X11568Y7325D01*
X11565Y7326D01*
X11562Y7328D01*
X11560Y7330D01*
X11557Y7332D01*
X11555Y7334D01*
X11553Y7337D01*
X11551Y7340D01*
X11550Y7342D01*
X11548Y7345D01*
X11547Y7348D01*
X11546Y7351D01*
X11546Y7355D01*
X11545Y7358D01*
X11545Y7361D01*
Y7421D01*
X11625D02*
Y7361D01*
X11585Y7461D02*
Y7501D01*
Y7321D02*
Y7281D01*
X10625Y7421D02*
X10625Y7424D01*
X10624Y7427D01*
X10624Y7431D01*
X10623Y7434D01*
X10622Y7437D01*
X10620Y7440D01*
X10619Y7442D01*
X10617Y7445D01*
X10615Y7448D01*
X10613Y7450D01*
X10610Y7452D01*
X10608Y7454D01*
X10605Y7456D01*
X10602Y7457D01*
X10599Y7458D01*
X10596Y7459D01*
X10593Y7460D01*
X10590Y7461D01*
X10587Y7461D01*
X10583D01*
X10580Y7461D01*
X10577Y7460D01*
X10574Y7459D01*
X10571Y7458D01*
X10568Y7457D01*
X10565Y7456D01*
X10562Y7454D01*
X10560Y7452D01*
X10557Y7450D01*
X10555Y7448D01*
X10553Y7445D01*
X10551Y7442D01*
X10550Y7440D01*
X10548Y7437D01*
X10547Y7434D01*
X10546Y7431D01*
X10546Y7427D01*
X10545Y7424D01*
X10545Y7421D01*
Y7361D02*
X10545Y7358D01*
X10546Y7355D01*
X10546Y7351D01*
X10547Y7348D01*
X10548Y7345D01*
X10550Y7342D01*
X10551Y7340D01*
X10553Y7337D01*
X10555Y7334D01*
X10557Y7332D01*
X10560Y7330D01*
X10562Y7328D01*
X10565Y7326D01*
X10568Y7325D01*
X10571Y7324D01*
X10574Y7323D01*
X10577Y7322D01*
X10580Y7321D01*
X10583Y7321D01*
X10587D01*
X10590Y7321D01*
X10593Y7322D01*
X10596Y7323D01*
X10599Y7324D01*
X10602Y7325D01*
X10605Y7326D01*
X10608Y7328D01*
X10610Y7330D01*
X10613Y7332D01*
X10615Y7334D01*
X10617Y7337D01*
X10619Y7340D01*
X10620Y7342D01*
X10622Y7345D01*
X10623Y7348D01*
X10624Y7351D01*
X10624Y7355D01*
X10625Y7358D01*
X10625Y7361D01*
X10545D02*
Y7421D01*
X10625D02*
Y7361D01*
X10585Y7461D02*
Y7501D01*
Y7321D02*
Y7281D01*
X10545Y6821D02*
X10545Y6824D01*
X10546Y6827D01*
X10546Y6831D01*
X10547Y6834D01*
X10548Y6837D01*
X10550Y6840D01*
X10551Y6842D01*
X10553Y6845D01*
X10555Y6848D01*
X10557Y6850D01*
X10560Y6852D01*
X10562Y6854D01*
X10565Y6856D01*
X10568Y6857D01*
X10571Y6858D01*
X10574Y6859D01*
X10577Y6860D01*
X10580Y6861D01*
X10583Y6861D01*
X10587D01*
X10590Y6861D01*
X10593Y6860D01*
X10596Y6859D01*
X10599Y6858D01*
X10602Y6857D01*
X10605Y6856D01*
X10608Y6854D01*
X10610Y6852D01*
X10613Y6850D01*
X10615Y6848D01*
X10617Y6845D01*
X10619Y6842D01*
X10620Y6840D01*
X10622Y6837D01*
X10623Y6834D01*
X10624Y6831D01*
X10624Y6827D01*
X10625Y6824D01*
X10625Y6821D01*
Y6761D02*
X10625Y6758D01*
X10624Y6755D01*
X10624Y6751D01*
X10623Y6748D01*
X10622Y6745D01*
X10620Y6742D01*
X10619Y6740D01*
X10617Y6737D01*
X10615Y6734D01*
X10613Y6732D01*
X10610Y6730D01*
X10608Y6728D01*
X10605Y6726D01*
X10602Y6725D01*
X10599Y6724D01*
X10596Y6723D01*
X10593Y6722D01*
X10590Y6721D01*
X10587Y6721D01*
X10583D01*
X10580Y6721D01*
X10577Y6722D01*
X10574Y6723D01*
X10571Y6724D01*
X10568Y6725D01*
X10565Y6726D01*
X10562Y6728D01*
X10560Y6730D01*
X10557Y6732D01*
X10555Y6734D01*
X10553Y6737D01*
X10551Y6740D01*
X10550Y6742D01*
X10548Y6745D01*
X10547Y6748D01*
X10546Y6751D01*
X10546Y6755D01*
X10545Y6758D01*
X10545Y6761D01*
Y6821D01*
X10625D02*
Y6761D01*
X10585Y6861D02*
Y6901D01*
Y6721D02*
Y6681D01*
X11545Y6821D02*
X11545Y6824D01*
X11546Y6827D01*
X11546Y6831D01*
X11547Y6834D01*
X11548Y6837D01*
X11550Y6840D01*
X11551Y6842D01*
X11553Y6845D01*
X11555Y6848D01*
X11557Y6850D01*
X11560Y6852D01*
X11562Y6854D01*
X11565Y6856D01*
X11568Y6857D01*
X11571Y6858D01*
X11574Y6859D01*
X11577Y6860D01*
X11580Y6861D01*
X11583Y6861D01*
X11587D01*
X11590Y6861D01*
X11593Y6860D01*
X11596Y6859D01*
X11599Y6858D01*
X11602Y6857D01*
X11605Y6856D01*
X11608Y6854D01*
X11610Y6852D01*
X11613Y6850D01*
X11615Y6848D01*
X11617Y6845D01*
X11619Y6842D01*
X11620Y6840D01*
X11622Y6837D01*
X11623Y6834D01*
X11624Y6831D01*
X11624Y6827D01*
X11625Y6824D01*
X11625Y6821D01*
Y6761D02*
X11625Y6758D01*
X11624Y6755D01*
X11624Y6751D01*
X11623Y6748D01*
X11622Y6745D01*
X11620Y6742D01*
X11619Y6740D01*
X11617Y6737D01*
X11615Y6734D01*
X11613Y6732D01*
X11610Y6730D01*
X11608Y6728D01*
X11605Y6726D01*
X11602Y6725D01*
X11599Y6724D01*
X11596Y6723D01*
X11593Y6722D01*
X11590Y6721D01*
X11587Y6721D01*
X11583D01*
X11580Y6721D01*
X11577Y6722D01*
X11574Y6723D01*
X11571Y6724D01*
X11568Y6725D01*
X11565Y6726D01*
X11562Y6728D01*
X11560Y6730D01*
X11557Y6732D01*
X11555Y6734D01*
X11553Y6737D01*
X11551Y6740D01*
X11550Y6742D01*
X11548Y6745D01*
X11547Y6748D01*
X11546Y6751D01*
X11546Y6755D01*
X11545Y6758D01*
X11545Y6761D01*
Y6821D01*
X11625D02*
Y6761D01*
X11585Y6861D02*
Y6901D01*
Y6721D02*
Y6681D01*
X10235Y5796D02*
Y5481D01*
X11335D02*
Y5796D01*
X10235D01*
Y5481D02*
X11335D01*
X9585Y9011D02*
Y9271D01*
X9685D02*
Y9011D01*
X9635D02*
Y8941D01*
Y9271D02*
Y9341D01*
X9585Y9221D02*
X9685D01*
Y9271D02*
X9585D01*
Y9011D02*
X9685D01*
X9535Y9021D02*
Y8941D01*
Y9261D02*
Y9341D01*
X9495Y9261D02*
Y9021D01*
X9575D02*
Y9261D01*
Y9021D02*
X9495D01*
Y9261D02*
X9575D01*
X9385Y9271D02*
Y9011D01*
X9485D02*
Y9271D01*
X9435Y9011D02*
Y8941D01*
Y9271D02*
Y9341D01*
X9385Y9221D02*
X9485D01*
Y9271D02*
X9385D01*
Y9011D02*
X9485D01*
X9285D02*
Y9271D01*
X9385D02*
Y9011D01*
X9335D02*
Y8941D01*
Y9271D02*
Y9341D01*
X9285Y9221D02*
X9385D01*
Y9271D02*
X9285D01*
Y9011D02*
X9385D01*
X9235Y9021D02*
Y8941D01*
Y9261D02*
Y9341D01*
X9195Y9261D02*
Y9021D01*
X9275D02*
Y9261D01*
Y9021D02*
X9195D01*
Y9261D02*
X9275D01*
X10135Y9686D02*
Y10001D01*
X9035D02*
Y9686D01*
X10135D01*
Y10001D02*
X9035D01*
X8835Y9341D02*
Y9261D01*
Y9021D02*
Y8941D01*
X8875Y9021D02*
Y9261D01*
X8795D02*
Y9021D01*
Y9261D02*
X8875D01*
Y9021D02*
X8795D01*
X8885Y9091D02*
Y8891D01*
X8985D02*
Y9091D01*
Y8891D02*
X8885D01*
Y9091D02*
X8985D01*
X9545Y8021D02*
X9545Y8024D01*
X9546Y8027D01*
X9546Y8031D01*
X9547Y8034D01*
X9548Y8037D01*
X9550Y8040D01*
X9551Y8042D01*
X9553Y8045D01*
X9555Y8048D01*
X9557Y8050D01*
X9560Y8052D01*
X9562Y8054D01*
X9565Y8056D01*
X9568Y8057D01*
X9571Y8058D01*
X9574Y8059D01*
X9577Y8060D01*
X9580Y8061D01*
X9583Y8061D01*
X9587D01*
X9590Y8061D01*
X9593Y8060D01*
X9596Y8059D01*
X9599Y8058D01*
X9602Y8057D01*
X9605Y8056D01*
X9608Y8054D01*
X9610Y8052D01*
X9613Y8050D01*
X9615Y8048D01*
X9617Y8045D01*
X9619Y8042D01*
X9620Y8040D01*
X9622Y8037D01*
X9623Y8034D01*
X9624Y8031D01*
X9624Y8027D01*
X9625Y8024D01*
X9625Y8021D01*
Y7961D02*
X9625Y7958D01*
X9624Y7955D01*
X9624Y7951D01*
X9623Y7948D01*
X9622Y7945D01*
X9620Y7942D01*
X9619Y7940D01*
X9617Y7937D01*
X9615Y7934D01*
X9613Y7932D01*
X9610Y7930D01*
X9608Y7928D01*
X9605Y7926D01*
X9602Y7925D01*
X9599Y7924D01*
X9596Y7923D01*
X9593Y7922D01*
X9590Y7921D01*
X9587Y7921D01*
X9583D01*
X9580Y7921D01*
X9577Y7922D01*
X9574Y7923D01*
X9571Y7924D01*
X9568Y7925D01*
X9565Y7926D01*
X9562Y7928D01*
X9560Y7930D01*
X9557Y7932D01*
X9555Y7934D01*
X9553Y7937D01*
X9551Y7940D01*
X9550Y7942D01*
X9548Y7945D01*
X9547Y7948D01*
X9546Y7951D01*
X9546Y7955D01*
X9545Y7958D01*
X9545Y7961D01*
Y8021D01*
X9625D02*
Y7961D01*
X9585Y8061D02*
Y8101D01*
Y7921D02*
Y7881D01*
X9785Y9011D02*
Y9271D01*
X9685D02*
Y9011D01*
X9735Y9271D02*
Y9341D01*
Y9011D02*
Y8941D01*
X9685Y9061D02*
X9785D01*
Y9011D02*
X9685D01*
Y9271D02*
X9785D01*
X9135Y9261D02*
Y9341D01*
Y9021D02*
Y8941D01*
X9175Y9021D02*
Y9261D01*
X9095D02*
Y9021D01*
Y9261D02*
X9175D01*
Y9021D02*
X9095D01*
X9745Y8671D02*
X9745Y8674D01*
X9746Y8677D01*
X9746Y8681D01*
X9747Y8684D01*
X9748Y8687D01*
X9750Y8690D01*
X9751Y8692D01*
X9753Y8695D01*
X9755Y8698D01*
X9757Y8700D01*
X9760Y8702D01*
X9762Y8704D01*
X9765Y8706D01*
X9768Y8707D01*
X9771Y8708D01*
X9774Y8709D01*
X9777Y8710D01*
X9780Y8711D01*
X9783Y8711D01*
X9787D01*
X9790Y8711D01*
X9793Y8710D01*
X9796Y8709D01*
X9799Y8708D01*
X9802Y8707D01*
X9805Y8706D01*
X9808Y8704D01*
X9810Y8702D01*
X9813Y8700D01*
X9815Y8698D01*
X9817Y8695D01*
X9819Y8692D01*
X9820Y8690D01*
X9822Y8687D01*
X9823Y8684D01*
X9824Y8681D01*
X9824Y8677D01*
X9825Y8674D01*
X9825Y8671D01*
Y8611D02*
X9825Y8608D01*
X9824Y8605D01*
X9824Y8601D01*
X9823Y8598D01*
X9822Y8595D01*
X9820Y8592D01*
X9819Y8590D01*
X9817Y8587D01*
X9815Y8584D01*
X9813Y8582D01*
X9810Y8580D01*
X9808Y8578D01*
X9805Y8576D01*
X9802Y8575D01*
X9799Y8574D01*
X9796Y8573D01*
X9793Y8572D01*
X9790Y8571D01*
X9787Y8571D01*
X9783D01*
X9780Y8571D01*
X9777Y8572D01*
X9774Y8573D01*
X9771Y8574D01*
X9768Y8575D01*
X9765Y8576D01*
X9762Y8578D01*
X9760Y8580D01*
X9757Y8582D01*
X9755Y8584D01*
X9753Y8587D01*
X9751Y8590D01*
X9750Y8592D01*
X9748Y8595D01*
X9747Y8598D01*
X9746Y8601D01*
X9746Y8605D01*
X9745Y8608D01*
X9745Y8611D01*
Y8671D01*
X9825D02*
Y8611D01*
X9785Y8711D02*
Y8751D01*
Y8571D02*
Y8531D01*
X9625Y7421D02*
X9625Y7424D01*
X9624Y7427D01*
X9624Y7431D01*
X9623Y7434D01*
X9622Y7437D01*
X9620Y7440D01*
X9619Y7442D01*
X9617Y7445D01*
X9615Y7448D01*
X9613Y7450D01*
X9610Y7452D01*
X9608Y7454D01*
X9605Y7456D01*
X9602Y7457D01*
X9599Y7458D01*
X9596Y7459D01*
X9593Y7460D01*
X9590Y7461D01*
X9587Y7461D01*
X9583D01*
X9580Y7461D01*
X9577Y7460D01*
X9574Y7459D01*
X9571Y7458D01*
X9568Y7457D01*
X9565Y7456D01*
X9562Y7454D01*
X9560Y7452D01*
X9557Y7450D01*
X9555Y7448D01*
X9553Y7445D01*
X9551Y7442D01*
X9550Y7440D01*
X9548Y7437D01*
X9547Y7434D01*
X9546Y7431D01*
X9546Y7427D01*
X9545Y7424D01*
X9545Y7421D01*
Y7361D02*
X9545Y7358D01*
X9546Y7355D01*
X9546Y7351D01*
X9547Y7348D01*
X9548Y7345D01*
X9550Y7342D01*
X9551Y7340D01*
X9553Y7337D01*
X9555Y7334D01*
X9557Y7332D01*
X9560Y7330D01*
X9562Y7328D01*
X9565Y7326D01*
X9568Y7325D01*
X9571Y7324D01*
X9574Y7323D01*
X9577Y7322D01*
X9580Y7321D01*
X9583Y7321D01*
X9587D01*
X9590Y7321D01*
X9593Y7322D01*
X9596Y7323D01*
X9599Y7324D01*
X9602Y7325D01*
X9605Y7326D01*
X9608Y7328D01*
X9610Y7330D01*
X9613Y7332D01*
X9615Y7334D01*
X9617Y7337D01*
X9619Y7340D01*
X9620Y7342D01*
X9622Y7345D01*
X9623Y7348D01*
X9624Y7351D01*
X9624Y7355D01*
X9625Y7358D01*
X9625Y7361D01*
X9545D02*
Y7421D01*
X9625D02*
Y7361D01*
X9585Y7461D02*
Y7501D01*
Y7321D02*
Y7281D01*
X9575Y6821D02*
X9575Y6824D01*
X9574Y6827D01*
X9574Y6831D01*
X9573Y6834D01*
X9572Y6837D01*
X9570Y6840D01*
X9569Y6842D01*
X9567Y6845D01*
X9565Y6848D01*
X9563Y6850D01*
X9560Y6852D01*
X9558Y6854D01*
X9555Y6856D01*
X9552Y6857D01*
X9549Y6858D01*
X9546Y6859D01*
X9543Y6860D01*
X9540Y6861D01*
X9537Y6861D01*
X9533D01*
X9530Y6861D01*
X9527Y6860D01*
X9524Y6859D01*
X9521Y6858D01*
X9518Y6857D01*
X9515Y6856D01*
X9512Y6854D01*
X9510Y6852D01*
X9507Y6850D01*
X9505Y6848D01*
X9503Y6845D01*
X9501Y6842D01*
X9500Y6840D01*
X9498Y6837D01*
X9497Y6834D01*
X9496Y6831D01*
X9496Y6827D01*
X9495Y6824D01*
X9495Y6821D01*
Y6761D02*
X9495Y6758D01*
X9496Y6755D01*
X9496Y6751D01*
X9497Y6748D01*
X9498Y6745D01*
X9500Y6742D01*
X9501Y6740D01*
X9503Y6737D01*
X9505Y6734D01*
X9507Y6732D01*
X9510Y6730D01*
X9512Y6728D01*
X9515Y6726D01*
X9518Y6725D01*
X9521Y6724D01*
X9524Y6723D01*
X9527Y6722D01*
X9530Y6721D01*
X9533Y6721D01*
X9537D01*
X9540Y6721D01*
X9543Y6722D01*
X9546Y6723D01*
X9549Y6724D01*
X9552Y6725D01*
X9555Y6726D01*
X9558Y6728D01*
X9560Y6730D01*
X9563Y6732D01*
X9565Y6734D01*
X9567Y6737D01*
X9569Y6740D01*
X9570Y6742D01*
X9572Y6745D01*
X9573Y6748D01*
X9574Y6751D01*
X9574Y6755D01*
X9575Y6758D01*
X9575Y6761D01*
X9495D02*
Y6821D01*
X9575D02*
Y6761D01*
X9535Y6861D02*
Y6901D01*
Y6721D02*
Y6681D01*
X9085Y5796D02*
Y5481D01*
X10185D02*
Y5796D01*
X9085D01*
Y5481D02*
X10185D01*
X8235Y9111D02*
Y9371D01*
X8335D02*
Y9111D01*
X8285D02*
Y9041D01*
Y9371D02*
Y9441D01*
X8235Y9321D02*
X8335D01*
Y9371D02*
X8235D01*
Y9111D02*
X8335D01*
X8085Y9121D02*
Y9041D01*
Y9361D02*
Y9441D01*
X8045Y9361D02*
Y9121D01*
X8125D02*
Y9361D01*
Y9121D02*
X8045D01*
Y9361D02*
X8125D01*
X8385Y9686D02*
Y10001D01*
X7285D02*
Y9686D01*
X8385D01*
Y10001D02*
X7285D01*
X7815Y8481D02*
Y8401D01*
X8055D02*
Y8481D01*
X7815Y8441D02*
X7735D01*
X8055D02*
X8135D01*
X8055Y8481D02*
X7815D01*
Y8401D02*
X8055D01*
X7815Y8751D02*
Y8831D01*
X8055D02*
Y8751D01*
X7815Y8791D02*
X7735D01*
X8055D02*
X8135D01*
X8055Y8831D02*
X7815D01*
Y8751D02*
X8055D01*
Y8581D02*
Y8501D01*
X7815D02*
Y8581D01*
X8055Y8541D02*
X8135D01*
X7815D02*
X7735D01*
X7815Y8501D02*
X8055D01*
Y8581D02*
X7815D01*
Y8281D02*
Y8201D01*
X8055D02*
Y8281D01*
X7815Y8241D02*
X7735D01*
X8055D02*
X8135D01*
X8055Y8281D02*
X7815D01*
Y8201D02*
X8055D01*
X7815Y8301D02*
Y8381D01*
X8055D02*
Y8301D01*
X7815Y8341D02*
X7735D01*
X8055D02*
X8135D01*
X8055Y8381D02*
X7815D01*
Y8301D02*
X8055D01*
X6815D02*
Y8381D01*
X7055D02*
Y8301D01*
X6815Y8341D02*
X6735D01*
X7055D02*
X7135D01*
X7055Y8381D02*
X6815D01*
Y8301D02*
X7055D01*
X7815Y7781D02*
Y7701D01*
X8055D02*
Y7781D01*
X7815Y7741D02*
X7735D01*
X8055D02*
X8135D01*
X8055Y7781D02*
X7815D01*
Y7701D02*
X8055D01*
X7815Y7681D02*
Y7601D01*
X8055D02*
Y7681D01*
X7815Y7641D02*
X7735D01*
X8055D02*
X8135D01*
X8055Y7681D02*
X7815D01*
Y7601D02*
X8055D01*
X7465Y7901D02*
X7468Y7901D01*
X7471Y7902D01*
X7475Y7902D01*
X7478Y7903D01*
X7481Y7904D01*
X7484Y7906D01*
X7486Y7907D01*
X7489Y7909D01*
X7492Y7911D01*
X7494Y7913D01*
X7496Y7916D01*
X7498Y7918D01*
X7500Y7921D01*
X7501Y7924D01*
X7502Y7927D01*
X7503Y7930D01*
X7504Y7933D01*
X7505Y7936D01*
X7505Y7939D01*
Y7943D01*
X7505Y7946D01*
X7504Y7949D01*
X7503Y7952D01*
X7502Y7955D01*
X7501Y7958D01*
X7500Y7961D01*
X7498Y7964D01*
X7496Y7966D01*
X7494Y7969D01*
X7492Y7971D01*
X7489Y7973D01*
X7486Y7975D01*
X7484Y7976D01*
X7481Y7978D01*
X7478Y7979D01*
X7475Y7980D01*
X7471Y7980D01*
X7468Y7981D01*
X7465Y7981D01*
X7405D02*
X7402Y7981D01*
X7399Y7980D01*
X7395Y7980D01*
X7392Y7979D01*
X7389Y7978D01*
X7386Y7976D01*
X7384Y7975D01*
X7381Y7973D01*
X7378Y7971D01*
X7376Y7969D01*
X7374Y7966D01*
X7372Y7964D01*
X7370Y7961D01*
X7369Y7958D01*
X7368Y7955D01*
X7367Y7952D01*
X7366Y7949D01*
X7365Y7946D01*
X7365Y7943D01*
Y7939D01*
X7365Y7936D01*
X7366Y7933D01*
X7367Y7930D01*
X7368Y7927D01*
X7369Y7924D01*
X7370Y7921D01*
X7372Y7918D01*
X7374Y7916D01*
X7376Y7913D01*
X7378Y7911D01*
X7381Y7909D01*
X7384Y7907D01*
X7386Y7906D01*
X7389Y7904D01*
X7392Y7903D01*
X7395Y7902D01*
X7399Y7902D01*
X7402Y7901D01*
X7405Y7901D01*
Y7981D02*
X7465D01*
Y7901D02*
X7405D01*
X7505Y7941D02*
X7545D01*
X7365D02*
X7325D01*
X7405Y8001D02*
X7402Y8001D01*
X7399Y8002D01*
X7395Y8002D01*
X7392Y8003D01*
X7389Y8004D01*
X7386Y8006D01*
X7384Y8007D01*
X7381Y8009D01*
X7378Y8011D01*
X7376Y8013D01*
X7374Y8016D01*
X7372Y8018D01*
X7370Y8021D01*
X7369Y8024D01*
X7368Y8027D01*
X7367Y8030D01*
X7366Y8033D01*
X7365Y8036D01*
X7365Y8039D01*
Y8043D01*
X7365Y8046D01*
X7366Y8049D01*
X7367Y8052D01*
X7368Y8055D01*
X7369Y8058D01*
X7370Y8061D01*
X7372Y8064D01*
X7374Y8066D01*
X7376Y8069D01*
X7378Y8071D01*
X7381Y8073D01*
X7384Y8075D01*
X7386Y8076D01*
X7389Y8078D01*
X7392Y8079D01*
X7395Y8080D01*
X7399Y8080D01*
X7402Y8081D01*
X7405Y8081D01*
X7465D02*
X7468Y8081D01*
X7471Y8080D01*
X7475Y8080D01*
X7478Y8079D01*
X7481Y8078D01*
X7484Y8076D01*
X7486Y8075D01*
X7489Y8073D01*
X7492Y8071D01*
X7494Y8069D01*
X7496Y8066D01*
X7498Y8064D01*
X7500Y8061D01*
X7501Y8058D01*
X7502Y8055D01*
X7503Y8052D01*
X7504Y8049D01*
X7505Y8046D01*
X7505Y8043D01*
Y8039D01*
X7505Y8036D01*
X7504Y8033D01*
X7503Y8030D01*
X7502Y8027D01*
X7501Y8024D01*
X7500Y8021D01*
X7498Y8018D01*
X7496Y8016D01*
X7494Y8013D01*
X7492Y8011D01*
X7489Y8009D01*
X7486Y8007D01*
X7484Y8006D01*
X7481Y8004D01*
X7478Y8003D01*
X7475Y8002D01*
X7471Y8002D01*
X7468Y8001D01*
X7465Y8001D01*
X7405D01*
Y8081D02*
X7465D01*
X7365Y8041D02*
X7325D01*
X7505D02*
X7545D01*
X7465Y8501D02*
X7468Y8501D01*
X7471Y8502D01*
X7475Y8502D01*
X7478Y8503D01*
X7481Y8504D01*
X7484Y8506D01*
X7486Y8507D01*
X7489Y8509D01*
X7492Y8511D01*
X7494Y8513D01*
X7496Y8516D01*
X7498Y8518D01*
X7500Y8521D01*
X7501Y8524D01*
X7502Y8527D01*
X7503Y8530D01*
X7504Y8533D01*
X7505Y8536D01*
X7505Y8539D01*
Y8543D01*
X7505Y8546D01*
X7504Y8549D01*
X7503Y8552D01*
X7502Y8555D01*
X7501Y8558D01*
X7500Y8561D01*
X7498Y8564D01*
X7496Y8566D01*
X7494Y8569D01*
X7492Y8571D01*
X7489Y8573D01*
X7486Y8575D01*
X7484Y8576D01*
X7481Y8578D01*
X7478Y8579D01*
X7475Y8580D01*
X7471Y8580D01*
X7468Y8581D01*
X7465Y8581D01*
X7405D02*
X7402Y8581D01*
X7399Y8580D01*
X7395Y8580D01*
X7392Y8579D01*
X7389Y8578D01*
X7386Y8576D01*
X7384Y8575D01*
X7381Y8573D01*
X7378Y8571D01*
X7376Y8569D01*
X7374Y8566D01*
X7372Y8564D01*
X7370Y8561D01*
X7369Y8558D01*
X7368Y8555D01*
X7367Y8552D01*
X7366Y8549D01*
X7365Y8546D01*
X7365Y8543D01*
Y8539D01*
X7365Y8536D01*
X7366Y8533D01*
X7367Y8530D01*
X7368Y8527D01*
X7369Y8524D01*
X7370Y8521D01*
X7372Y8518D01*
X7374Y8516D01*
X7376Y8513D01*
X7378Y8511D01*
X7381Y8509D01*
X7384Y8507D01*
X7386Y8506D01*
X7389Y8504D01*
X7392Y8503D01*
X7395Y8502D01*
X7399Y8502D01*
X7402Y8501D01*
X7405Y8501D01*
Y8581D02*
X7465D01*
Y8501D02*
X7405D01*
X7505Y8541D02*
X7545D01*
X7365D02*
X7325D01*
X7685Y7891D02*
Y7791D01*
X7885D02*
Y7891D01*
X7685D01*
Y7791D02*
X7885D01*
X8445Y8021D02*
X8445Y8024D01*
X8446Y8027D01*
X8446Y8031D01*
X8447Y8034D01*
X8448Y8037D01*
X8450Y8040D01*
X8451Y8042D01*
X8453Y8045D01*
X8455Y8048D01*
X8457Y8050D01*
X8460Y8052D01*
X8462Y8054D01*
X8465Y8056D01*
X8468Y8057D01*
X8471Y8058D01*
X8474Y8059D01*
X8477Y8060D01*
X8480Y8061D01*
X8483Y8061D01*
X8487D01*
X8490Y8061D01*
X8493Y8060D01*
X8496Y8059D01*
X8499Y8058D01*
X8502Y8057D01*
X8505Y8056D01*
X8508Y8054D01*
X8510Y8052D01*
X8513Y8050D01*
X8515Y8048D01*
X8517Y8045D01*
X8519Y8042D01*
X8520Y8040D01*
X8522Y8037D01*
X8523Y8034D01*
X8524Y8031D01*
X8524Y8027D01*
X8525Y8024D01*
X8525Y8021D01*
Y7961D02*
X8525Y7958D01*
X8524Y7955D01*
X8524Y7951D01*
X8523Y7948D01*
X8522Y7945D01*
X8520Y7942D01*
X8519Y7940D01*
X8517Y7937D01*
X8515Y7934D01*
X8513Y7932D01*
X8510Y7930D01*
X8508Y7928D01*
X8505Y7926D01*
X8502Y7925D01*
X8499Y7924D01*
X8496Y7923D01*
X8493Y7922D01*
X8490Y7921D01*
X8487Y7921D01*
X8483D01*
X8480Y7921D01*
X8477Y7922D01*
X8474Y7923D01*
X8471Y7924D01*
X8468Y7925D01*
X8465Y7926D01*
X8462Y7928D01*
X8460Y7930D01*
X8457Y7932D01*
X8455Y7934D01*
X8453Y7937D01*
X8451Y7940D01*
X8450Y7942D01*
X8448Y7945D01*
X8447Y7948D01*
X8446Y7951D01*
X8446Y7955D01*
X8445Y7958D01*
X8445Y7961D01*
Y8021D01*
X8525D02*
Y7961D01*
X8485Y8061D02*
Y8101D01*
Y7921D02*
Y7881D01*
X8235Y9111D02*
Y9371D01*
X8135D02*
Y9111D01*
X8185Y9371D02*
Y9441D01*
Y9111D02*
Y9041D01*
X8135Y9161D02*
X8235D01*
Y9111D02*
X8135D01*
Y9371D02*
X8235D01*
X7985Y9361D02*
Y9441D01*
Y9121D02*
Y9041D01*
X8025Y9121D02*
Y9361D01*
X7945D02*
Y9121D01*
Y9361D02*
X8025D01*
Y9121D02*
X7945D01*
X8495Y8671D02*
X8495Y8674D01*
X8496Y8677D01*
X8496Y8681D01*
X8497Y8684D01*
X8498Y8687D01*
X8500Y8690D01*
X8501Y8692D01*
X8503Y8695D01*
X8505Y8698D01*
X8507Y8700D01*
X8510Y8702D01*
X8512Y8704D01*
X8515Y8706D01*
X8518Y8707D01*
X8521Y8708D01*
X8524Y8709D01*
X8527Y8710D01*
X8530Y8711D01*
X8533Y8711D01*
X8537D01*
X8540Y8711D01*
X8543Y8710D01*
X8546Y8709D01*
X8549Y8708D01*
X8552Y8707D01*
X8555Y8706D01*
X8558Y8704D01*
X8560Y8702D01*
X8563Y8700D01*
X8565Y8698D01*
X8567Y8695D01*
X8569Y8692D01*
X8570Y8690D01*
X8572Y8687D01*
X8573Y8684D01*
X8574Y8681D01*
X8574Y8677D01*
X8575Y8674D01*
X8575Y8671D01*
Y8611D02*
X8575Y8608D01*
X8574Y8605D01*
X8574Y8601D01*
X8573Y8598D01*
X8572Y8595D01*
X8570Y8592D01*
X8569Y8590D01*
X8567Y8587D01*
X8565Y8584D01*
X8563Y8582D01*
X8560Y8580D01*
X8558Y8578D01*
X8555Y8576D01*
X8552Y8575D01*
X8549Y8574D01*
X8546Y8573D01*
X8543Y8572D01*
X8540Y8571D01*
X8537Y8571D01*
X8533D01*
X8530Y8571D01*
X8527Y8572D01*
X8524Y8573D01*
X8521Y8574D01*
X8518Y8575D01*
X8515Y8576D01*
X8512Y8578D01*
X8510Y8580D01*
X8507Y8582D01*
X8505Y8584D01*
X8503Y8587D01*
X8501Y8590D01*
X8500Y8592D01*
X8498Y8595D01*
X8497Y8598D01*
X8496Y8601D01*
X8496Y8605D01*
X8495Y8608D01*
X8495Y8611D01*
Y8671D01*
X8575D02*
Y8611D01*
X8535Y8711D02*
Y8751D01*
Y8571D02*
Y8531D01*
X8055Y6581D02*
Y6501D01*
X7815D02*
Y6581D01*
X8055Y6541D02*
X8135D01*
X7815D02*
X7735D01*
X7815Y6501D02*
X8055D01*
Y6581D02*
X7815D01*
Y6381D02*
Y6301D01*
X8055D02*
Y6381D01*
X7815Y6341D02*
X7735D01*
X8055D02*
X8135D01*
X8055Y6381D02*
X7815D01*
Y6301D02*
X8055D01*
Y6401D02*
Y6481D01*
X7815D02*
Y6401D01*
X8055Y6441D02*
X8135D01*
X7815D02*
X7735D01*
X7815Y6401D02*
X8055D01*
Y6481D02*
X7815D01*
X6815Y7001D02*
Y7081D01*
X7055D02*
Y7001D01*
X6815Y7041D02*
X6735D01*
X7055D02*
X7135D01*
X7055Y7081D02*
X6815D01*
Y7001D02*
X7055D01*
X6815Y7101D02*
Y7181D01*
X7055D02*
Y7101D01*
X6815Y7141D02*
X6735D01*
X7055D02*
X7135D01*
X7055Y7181D02*
X6815D01*
Y7101D02*
X7055D01*
X7865Y7291D02*
Y6791D01*
X7705D02*
Y7291D01*
X7785D02*
Y7391D01*
Y6791D02*
Y6691D01*
X7705Y6791D02*
X7865D01*
Y7291D02*
X7705D01*
X7405Y6281D02*
X7402Y6281D01*
X7399Y6280D01*
X7395Y6280D01*
X7392Y6279D01*
X7389Y6278D01*
X7386Y6276D01*
X7384Y6275D01*
X7381Y6273D01*
X7378Y6271D01*
X7376Y6269D01*
X7374Y6266D01*
X7372Y6264D01*
X7370Y6261D01*
X7369Y6258D01*
X7368Y6255D01*
X7367Y6252D01*
X7366Y6249D01*
X7365Y6246D01*
X7365Y6243D01*
Y6239D01*
X7365Y6236D01*
X7366Y6233D01*
X7367Y6230D01*
X7368Y6227D01*
X7369Y6224D01*
X7370Y6221D01*
X7372Y6218D01*
X7374Y6216D01*
X7376Y6213D01*
X7378Y6211D01*
X7381Y6209D01*
X7384Y6207D01*
X7386Y6206D01*
X7389Y6204D01*
X7392Y6203D01*
X7395Y6202D01*
X7399Y6202D01*
X7402Y6201D01*
X7405Y6201D01*
X7465D02*
X7468Y6201D01*
X7471Y6202D01*
X7475Y6202D01*
X7478Y6203D01*
X7481Y6204D01*
X7484Y6206D01*
X7486Y6207D01*
X7489Y6209D01*
X7492Y6211D01*
X7494Y6213D01*
X7496Y6216D01*
X7498Y6218D01*
X7500Y6221D01*
X7501Y6224D01*
X7502Y6227D01*
X7503Y6230D01*
X7504Y6233D01*
X7505Y6236D01*
X7505Y6239D01*
Y6243D01*
X7505Y6246D01*
X7504Y6249D01*
X7503Y6252D01*
X7502Y6255D01*
X7501Y6258D01*
X7500Y6261D01*
X7498Y6264D01*
X7496Y6266D01*
X7494Y6269D01*
X7492Y6271D01*
X7489Y6273D01*
X7486Y6275D01*
X7484Y6276D01*
X7481Y6278D01*
X7478Y6279D01*
X7475Y6280D01*
X7471Y6280D01*
X7468Y6281D01*
X7465Y6281D01*
Y6201D02*
X7405D01*
Y6281D02*
X7465D01*
X7365Y6241D02*
X7325D01*
X7505D02*
X7545D01*
X7405Y6801D02*
X7402Y6801D01*
X7399Y6802D01*
X7395Y6802D01*
X7392Y6803D01*
X7389Y6804D01*
X7386Y6806D01*
X7384Y6807D01*
X7381Y6809D01*
X7378Y6811D01*
X7376Y6813D01*
X7374Y6816D01*
X7372Y6818D01*
X7370Y6821D01*
X7369Y6824D01*
X7368Y6827D01*
X7367Y6830D01*
X7366Y6833D01*
X7365Y6836D01*
X7365Y6839D01*
Y6843D01*
X7365Y6846D01*
X7366Y6849D01*
X7367Y6852D01*
X7368Y6855D01*
X7369Y6858D01*
X7370Y6861D01*
X7372Y6864D01*
X7374Y6866D01*
X7376Y6869D01*
X7378Y6871D01*
X7381Y6873D01*
X7384Y6875D01*
X7386Y6876D01*
X7389Y6878D01*
X7392Y6879D01*
X7395Y6880D01*
X7399Y6880D01*
X7402Y6881D01*
X7405Y6881D01*
X7465D02*
X7468Y6881D01*
X7471Y6880D01*
X7475Y6880D01*
X7478Y6879D01*
X7481Y6878D01*
X7484Y6876D01*
X7486Y6875D01*
X7489Y6873D01*
X7492Y6871D01*
X7494Y6869D01*
X7496Y6866D01*
X7498Y6864D01*
X7500Y6861D01*
X7501Y6858D01*
X7502Y6855D01*
X7503Y6852D01*
X7504Y6849D01*
X7505Y6846D01*
X7505Y6843D01*
Y6839D01*
X7505Y6836D01*
X7504Y6833D01*
X7503Y6830D01*
X7502Y6827D01*
X7501Y6824D01*
X7500Y6821D01*
X7498Y6818D01*
X7496Y6816D01*
X7494Y6813D01*
X7492Y6811D01*
X7489Y6809D01*
X7486Y6807D01*
X7484Y6806D01*
X7481Y6804D01*
X7478Y6803D01*
X7475Y6802D01*
X7471Y6802D01*
X7468Y6801D01*
X7465Y6801D01*
X7405D01*
Y6881D02*
X7465D01*
X7365Y6841D02*
X7325D01*
X7505D02*
X7545D01*
X7465Y6781D02*
X7468Y6781D01*
X7471Y6780D01*
X7475Y6780D01*
X7478Y6779D01*
X7481Y6778D01*
X7484Y6776D01*
X7486Y6775D01*
X7489Y6773D01*
X7492Y6771D01*
X7494Y6769D01*
X7496Y6766D01*
X7498Y6764D01*
X7500Y6761D01*
X7501Y6758D01*
X7502Y6755D01*
X7503Y6752D01*
X7504Y6749D01*
X7505Y6746D01*
X7505Y6743D01*
Y6739D01*
X7505Y6736D01*
X7504Y6733D01*
X7503Y6730D01*
X7502Y6727D01*
X7501Y6724D01*
X7500Y6721D01*
X7498Y6718D01*
X7496Y6716D01*
X7494Y6713D01*
X7492Y6711D01*
X7489Y6709D01*
X7486Y6707D01*
X7484Y6706D01*
X7481Y6704D01*
X7478Y6703D01*
X7475Y6702D01*
X7471Y6702D01*
X7468Y6701D01*
X7465Y6701D01*
X7405D02*
X7402Y6701D01*
X7399Y6702D01*
X7395Y6702D01*
X7392Y6703D01*
X7389Y6704D01*
X7386Y6706D01*
X7384Y6707D01*
X7381Y6709D01*
X7378Y6711D01*
X7376Y6713D01*
X7374Y6716D01*
X7372Y6718D01*
X7370Y6721D01*
X7369Y6724D01*
X7368Y6727D01*
X7367Y6730D01*
X7366Y6733D01*
X7365Y6736D01*
X7365Y6739D01*
Y6743D01*
X7365Y6746D01*
X7366Y6749D01*
X7367Y6752D01*
X7368Y6755D01*
X7369Y6758D01*
X7370Y6761D01*
X7372Y6764D01*
X7374Y6766D01*
X7376Y6769D01*
X7378Y6771D01*
X7381Y6773D01*
X7384Y6775D01*
X7386Y6776D01*
X7389Y6778D01*
X7392Y6779D01*
X7395Y6780D01*
X7399Y6780D01*
X7402Y6781D01*
X7405Y6781D01*
X7465D01*
Y6701D02*
X7405D01*
X7505Y6741D02*
X7545D01*
X7365D02*
X7325D01*
X7465Y7301D02*
X7468Y7301D01*
X7471Y7302D01*
X7475Y7302D01*
X7478Y7303D01*
X7481Y7304D01*
X7484Y7306D01*
X7486Y7307D01*
X7489Y7309D01*
X7492Y7311D01*
X7494Y7313D01*
X7496Y7316D01*
X7498Y7318D01*
X7500Y7321D01*
X7501Y7324D01*
X7502Y7327D01*
X7503Y7330D01*
X7504Y7333D01*
X7505Y7336D01*
X7505Y7339D01*
Y7343D01*
X7505Y7346D01*
X7504Y7349D01*
X7503Y7352D01*
X7502Y7355D01*
X7501Y7358D01*
X7500Y7361D01*
X7498Y7364D01*
X7496Y7366D01*
X7494Y7369D01*
X7492Y7371D01*
X7489Y7373D01*
X7486Y7375D01*
X7484Y7376D01*
X7481Y7378D01*
X7478Y7379D01*
X7475Y7380D01*
X7471Y7380D01*
X7468Y7381D01*
X7465Y7381D01*
X7405D02*
X7402Y7381D01*
X7399Y7380D01*
X7395Y7380D01*
X7392Y7379D01*
X7389Y7378D01*
X7386Y7376D01*
X7384Y7375D01*
X7381Y7373D01*
X7378Y7371D01*
X7376Y7369D01*
X7374Y7366D01*
X7372Y7364D01*
X7370Y7361D01*
X7369Y7358D01*
X7368Y7355D01*
X7367Y7352D01*
X7366Y7349D01*
X7365Y7346D01*
X7365Y7343D01*
Y7339D01*
X7365Y7336D01*
X7366Y7333D01*
X7367Y7330D01*
X7368Y7327D01*
X7369Y7324D01*
X7370Y7321D01*
X7372Y7318D01*
X7374Y7316D01*
X7376Y7313D01*
X7378Y7311D01*
X7381Y7309D01*
X7384Y7307D01*
X7386Y7306D01*
X7389Y7304D01*
X7392Y7303D01*
X7395Y7302D01*
X7399Y7302D01*
X7402Y7301D01*
X7405Y7301D01*
Y7381D02*
X7465D01*
Y7301D02*
X7405D01*
X7505Y7341D02*
X7545D01*
X7365D02*
X7325D01*
X7405Y7401D02*
X7402Y7401D01*
X7399Y7402D01*
X7395Y7402D01*
X7392Y7403D01*
X7389Y7404D01*
X7386Y7406D01*
X7384Y7407D01*
X7381Y7409D01*
X7378Y7411D01*
X7376Y7413D01*
X7374Y7416D01*
X7372Y7418D01*
X7370Y7421D01*
X7369Y7424D01*
X7368Y7427D01*
X7367Y7430D01*
X7366Y7433D01*
X7365Y7436D01*
X7365Y7439D01*
Y7443D01*
X7365Y7446D01*
X7366Y7449D01*
X7367Y7452D01*
X7368Y7455D01*
X7369Y7458D01*
X7370Y7461D01*
X7372Y7464D01*
X7374Y7466D01*
X7376Y7469D01*
X7378Y7471D01*
X7381Y7473D01*
X7384Y7475D01*
X7386Y7476D01*
X7389Y7478D01*
X7392Y7479D01*
X7395Y7480D01*
X7399Y7480D01*
X7402Y7481D01*
X7405Y7481D01*
X7465D02*
X7468Y7481D01*
X7471Y7480D01*
X7475Y7480D01*
X7478Y7479D01*
X7481Y7478D01*
X7484Y7476D01*
X7486Y7475D01*
X7489Y7473D01*
X7492Y7471D01*
X7494Y7469D01*
X7496Y7466D01*
X7498Y7464D01*
X7500Y7461D01*
X7501Y7458D01*
X7502Y7455D01*
X7503Y7452D01*
X7504Y7449D01*
X7505Y7446D01*
X7505Y7443D01*
Y7439D01*
X7505Y7436D01*
X7504Y7433D01*
X7503Y7430D01*
X7502Y7427D01*
X7501Y7424D01*
X7500Y7421D01*
X7498Y7418D01*
X7496Y7416D01*
X7494Y7413D01*
X7492Y7411D01*
X7489Y7409D01*
X7486Y7407D01*
X7484Y7406D01*
X7481Y7404D01*
X7478Y7403D01*
X7475Y7402D01*
X7471Y7402D01*
X7468Y7401D01*
X7465Y7401D01*
X7405D01*
Y7481D02*
X7465D01*
X7365Y7441D02*
X7325D01*
X7505D02*
X7545D01*
X7465Y6181D02*
X7468Y6181D01*
X7471Y6180D01*
X7475Y6180D01*
X7478Y6179D01*
X7481Y6178D01*
X7484Y6176D01*
X7486Y6175D01*
X7489Y6173D01*
X7492Y6171D01*
X7494Y6169D01*
X7496Y6166D01*
X7498Y6164D01*
X7500Y6161D01*
X7501Y6158D01*
X7502Y6155D01*
X7503Y6152D01*
X7504Y6149D01*
X7505Y6146D01*
X7505Y6143D01*
Y6139D01*
X7505Y6136D01*
X7504Y6133D01*
X7503Y6130D01*
X7502Y6127D01*
X7501Y6124D01*
X7500Y6121D01*
X7498Y6118D01*
X7496Y6116D01*
X7494Y6113D01*
X7492Y6111D01*
X7489Y6109D01*
X7486Y6107D01*
X7484Y6106D01*
X7481Y6104D01*
X7478Y6103D01*
X7475Y6102D01*
X7471Y6102D01*
X7468Y6101D01*
X7465Y6101D01*
X7405D02*
X7402Y6101D01*
X7399Y6102D01*
X7395Y6102D01*
X7392Y6103D01*
X7389Y6104D01*
X7386Y6106D01*
X7384Y6107D01*
X7381Y6109D01*
X7378Y6111D01*
X7376Y6113D01*
X7374Y6116D01*
X7372Y6118D01*
X7370Y6121D01*
X7369Y6124D01*
X7368Y6127D01*
X7367Y6130D01*
X7366Y6133D01*
X7365Y6136D01*
X7365Y6139D01*
Y6143D01*
X7365Y6146D01*
X7366Y6149D01*
X7367Y6152D01*
X7368Y6155D01*
X7369Y6158D01*
X7370Y6161D01*
X7372Y6164D01*
X7374Y6166D01*
X7376Y6169D01*
X7378Y6171D01*
X7381Y6173D01*
X7384Y6175D01*
X7386Y6176D01*
X7389Y6178D01*
X7392Y6179D01*
X7395Y6180D01*
X7399Y6180D01*
X7402Y6181D01*
X7405Y6181D01*
X7465D01*
Y6101D02*
X7405D01*
X7505Y6141D02*
X7545D01*
X7365D02*
X7325D01*
X8055Y6101D02*
Y6181D01*
X7815D02*
Y6101D01*
X8055Y6141D02*
X8135D01*
X7815D02*
X7735D01*
X7815Y6101D02*
X8055D01*
Y6181D02*
X7815D01*
X8055Y6201D02*
Y6281D01*
X7815D02*
Y6201D01*
X8055Y6241D02*
X8135D01*
X7815D02*
X7735D01*
X7815Y6201D02*
X8055D01*
Y6281D02*
X7815D01*
X8035Y6961D02*
Y7221D01*
X7935D02*
Y6961D01*
X7985Y7221D02*
Y7291D01*
Y6961D02*
Y6891D01*
X7935Y7011D02*
X8035D01*
Y6961D02*
X7935D01*
Y7221D02*
X8035D01*
X8135D02*
Y6961D01*
X8035D02*
Y7221D01*
X8085D02*
Y7291D01*
Y6961D02*
Y6891D01*
X8035Y7011D02*
X8135D01*
Y6961D02*
X8035D01*
Y7221D02*
X8135D01*
X8185Y7211D02*
Y7291D01*
Y6971D02*
Y6891D01*
X8225Y6971D02*
Y7211D01*
X8145D02*
Y6971D01*
Y7211D02*
X8225D01*
Y6971D02*
X8145D01*
X8445Y6821D02*
X8445Y6824D01*
X8446Y6827D01*
X8446Y6831D01*
X8447Y6834D01*
X8448Y6837D01*
X8450Y6840D01*
X8451Y6842D01*
X8453Y6845D01*
X8455Y6848D01*
X8457Y6850D01*
X8460Y6852D01*
X8462Y6854D01*
X8465Y6856D01*
X8468Y6857D01*
X8471Y6858D01*
X8474Y6859D01*
X8477Y6860D01*
X8480Y6861D01*
X8483Y6861D01*
X8487D01*
X8490Y6861D01*
X8493Y6860D01*
X8496Y6859D01*
X8499Y6858D01*
X8502Y6857D01*
X8505Y6856D01*
X8508Y6854D01*
X8510Y6852D01*
X8513Y6850D01*
X8515Y6848D01*
X8517Y6845D01*
X8519Y6842D01*
X8520Y6840D01*
X8522Y6837D01*
X8523Y6834D01*
X8524Y6831D01*
X8524Y6827D01*
X8525Y6824D01*
X8525Y6821D01*
Y6761D02*
X8525Y6758D01*
X8524Y6755D01*
X8524Y6751D01*
X8523Y6748D01*
X8522Y6745D01*
X8520Y6742D01*
X8519Y6740D01*
X8517Y6737D01*
X8515Y6734D01*
X8513Y6732D01*
X8510Y6730D01*
X8508Y6728D01*
X8505Y6726D01*
X8502Y6725D01*
X8499Y6724D01*
X8496Y6723D01*
X8493Y6722D01*
X8490Y6721D01*
X8487Y6721D01*
X8483D01*
X8480Y6721D01*
X8477Y6722D01*
X8474Y6723D01*
X8471Y6724D01*
X8468Y6725D01*
X8465Y6726D01*
X8462Y6728D01*
X8460Y6730D01*
X8457Y6732D01*
X8455Y6734D01*
X8453Y6737D01*
X8451Y6740D01*
X8450Y6742D01*
X8448Y6745D01*
X8447Y6748D01*
X8446Y6751D01*
X8446Y6755D01*
X8445Y6758D01*
X8445Y6761D01*
Y6821D01*
X8525D02*
Y6761D01*
X8485Y6861D02*
Y6901D01*
Y6721D02*
Y6681D01*
X8445Y7421D02*
X8445Y7424D01*
X8446Y7427D01*
X8446Y7431D01*
X8447Y7434D01*
X8448Y7437D01*
X8450Y7440D01*
X8451Y7442D01*
X8453Y7445D01*
X8455Y7448D01*
X8457Y7450D01*
X8460Y7452D01*
X8462Y7454D01*
X8465Y7456D01*
X8468Y7457D01*
X8471Y7458D01*
X8474Y7459D01*
X8477Y7460D01*
X8480Y7461D01*
X8483Y7461D01*
X8487D01*
X8490Y7461D01*
X8493Y7460D01*
X8496Y7459D01*
X8499Y7458D01*
X8502Y7457D01*
X8505Y7456D01*
X8508Y7454D01*
X8510Y7452D01*
X8513Y7450D01*
X8515Y7448D01*
X8517Y7445D01*
X8519Y7442D01*
X8520Y7440D01*
X8522Y7437D01*
X8523Y7434D01*
X8524Y7431D01*
X8524Y7427D01*
X8525Y7424D01*
X8525Y7421D01*
Y7361D02*
X8525Y7358D01*
X8524Y7355D01*
X8524Y7351D01*
X8523Y7348D01*
X8522Y7345D01*
X8520Y7342D01*
X8519Y7340D01*
X8517Y7337D01*
X8515Y7334D01*
X8513Y7332D01*
X8510Y7330D01*
X8508Y7328D01*
X8505Y7326D01*
X8502Y7325D01*
X8499Y7324D01*
X8496Y7323D01*
X8493Y7322D01*
X8490Y7321D01*
X8487Y7321D01*
X8483D01*
X8480Y7321D01*
X8477Y7322D01*
X8474Y7323D01*
X8471Y7324D01*
X8468Y7325D01*
X8465Y7326D01*
X8462Y7328D01*
X8460Y7330D01*
X8457Y7332D01*
X8455Y7334D01*
X8453Y7337D01*
X8451Y7340D01*
X8450Y7342D01*
X8448Y7345D01*
X8447Y7348D01*
X8446Y7351D01*
X8446Y7355D01*
X8445Y7358D01*
X8445Y7361D01*
Y7421D01*
X8525D02*
Y7361D01*
X8485Y7461D02*
Y7501D01*
Y7321D02*
Y7281D01*
X7405Y5681D02*
X7402Y5681D01*
X7399Y5680D01*
X7395Y5680D01*
X7392Y5679D01*
X7389Y5678D01*
X7386Y5676D01*
X7384Y5675D01*
X7381Y5673D01*
X7378Y5671D01*
X7376Y5669D01*
X7374Y5666D01*
X7372Y5664D01*
X7370Y5661D01*
X7369Y5658D01*
X7368Y5655D01*
X7367Y5652D01*
X7366Y5649D01*
X7365Y5646D01*
X7365Y5643D01*
Y5639D01*
X7365Y5636D01*
X7366Y5633D01*
X7367Y5630D01*
X7368Y5627D01*
X7369Y5624D01*
X7370Y5621D01*
X7372Y5618D01*
X7374Y5616D01*
X7376Y5613D01*
X7378Y5611D01*
X7381Y5609D01*
X7384Y5607D01*
X7386Y5606D01*
X7389Y5604D01*
X7392Y5603D01*
X7395Y5602D01*
X7399Y5602D01*
X7402Y5601D01*
X7405Y5601D01*
X7465D02*
X7468Y5601D01*
X7471Y5602D01*
X7475Y5602D01*
X7478Y5603D01*
X7481Y5604D01*
X7484Y5606D01*
X7486Y5607D01*
X7489Y5609D01*
X7492Y5611D01*
X7494Y5613D01*
X7496Y5616D01*
X7498Y5618D01*
X7500Y5621D01*
X7501Y5624D01*
X7502Y5627D01*
X7503Y5630D01*
X7504Y5633D01*
X7505Y5636D01*
X7505Y5639D01*
Y5643D01*
X7505Y5646D01*
X7504Y5649D01*
X7503Y5652D01*
X7502Y5655D01*
X7501Y5658D01*
X7500Y5661D01*
X7498Y5664D01*
X7496Y5666D01*
X7494Y5669D01*
X7492Y5671D01*
X7489Y5673D01*
X7486Y5675D01*
X7484Y5676D01*
X7481Y5678D01*
X7478Y5679D01*
X7475Y5680D01*
X7471Y5680D01*
X7468Y5681D01*
X7465Y5681D01*
Y5601D02*
X7405D01*
Y5681D02*
X7465D01*
X7365Y5641D02*
X7325D01*
X7505D02*
X7545D01*
X7185Y5791D02*
Y5891D01*
X6985D02*
Y5791D01*
X7185D01*
Y5891D02*
X6985D01*
X7815Y5901D02*
Y5981D01*
X8055D02*
Y5901D01*
X7815Y5941D02*
X7735D01*
X8055D02*
X8135D01*
X8055Y5981D02*
X7815D01*
Y5901D02*
X8055D01*
X7815Y5881D02*
Y5801D01*
X8055D02*
Y5881D01*
X7815Y5841D02*
X7735D01*
X8055D02*
X8135D01*
X8055Y5881D02*
X7815D01*
Y5801D02*
X8055D01*
X7685Y5991D02*
Y6091D01*
X7885D02*
Y5991D01*
Y6091D02*
X7685D01*
Y5991D02*
X7885D01*
X8055Y5781D02*
Y5701D01*
X7815D02*
Y5781D01*
X8055Y5741D02*
X8135D01*
X7815D02*
X7735D01*
X7815Y5701D02*
X8055D01*
Y5781D02*
X7815D01*
X8055Y5681D02*
Y5601D01*
X7815D02*
Y5681D01*
X8055Y5641D02*
X8135D01*
X7815D02*
X7735D01*
X7815Y5601D02*
X8055D01*
Y5681D02*
X7815D01*
X7055Y8401D02*
Y8481D01*
X6815D02*
Y8401D01*
X7055Y8441D02*
X7135D01*
X6815D02*
X6735D01*
X6815Y8401D02*
X7055D01*
Y8481D02*
X6815D01*
X7055Y7781D02*
Y7701D01*
X6815D02*
Y7781D01*
X7055Y7741D02*
X7135D01*
X6815D02*
X6735D01*
X6815Y7701D02*
X7055D01*
Y7781D02*
X6815D01*
X7055Y7801D02*
Y7881D01*
X6815D02*
Y7801D01*
X7055Y7841D02*
X7135D01*
X6815D02*
X6735D01*
X6815Y7801D02*
X7055D01*
Y7881D02*
X6815D01*
X7055Y7901D02*
Y7981D01*
X6815D02*
Y7901D01*
X7055Y7941D02*
X7135D01*
X6815D02*
X6735D01*
X6815Y7901D02*
X7055D01*
Y7981D02*
X6815D01*
X7010Y8782D02*
Y9507D01*
X6510D02*
Y8782D01*
X7010D01*
Y9507D02*
X6510D01*
X7055Y7281D02*
Y7201D01*
X6815D02*
Y7281D01*
X7055Y7241D02*
X7135D01*
X6815D02*
X6735D01*
X6815Y7201D02*
X7055D01*
Y7281D02*
X6815D01*
X7055Y6381D02*
Y6301D01*
X6815D02*
Y6381D01*
X7055Y6341D02*
X7135D01*
X6815D02*
X6735D01*
X6815Y6301D02*
X7055D01*
Y6381D02*
X6815D01*
X6855Y7391D02*
Y7491D01*
X6805D02*
Y7391D01*
X7065D02*
Y7491D01*
Y7391D02*
X6805D01*
Y7491D02*
X7065D01*
Y7441D02*
X7135D01*
X6805D02*
X6735D01*
X6855Y7491D02*
Y7591D01*
X6805D02*
Y7491D01*
X7065D02*
Y7591D01*
Y7491D02*
X6805D01*
Y7591D02*
X7065D01*
Y7541D02*
X7135D01*
X6805D02*
X6735D01*
X7055Y7381D02*
Y7301D01*
X6815D02*
Y7381D01*
X7055Y7341D02*
X7135D01*
X6815D02*
X6735D01*
X6815Y7301D02*
X7055D01*
Y7381D02*
X6815D01*
X7055Y6081D02*
Y6001D01*
X6815D02*
Y6081D01*
X7055Y6041D02*
X7135D01*
X6815D02*
X6735D01*
X6815Y6001D02*
X7055D01*
Y6081D02*
X6815D01*
X7055Y5981D02*
Y5901D01*
X6815D02*
Y5981D01*
X7055Y5941D02*
X7135D01*
X6815D02*
X6735D01*
X6815Y5901D02*
X7055D01*
Y5981D02*
X6815D01*
D02*
M02*
