G04 #@! TF.GenerationSoftware,KiCad,Pcbnew,(5.0.1)-3*
G04 #@! TF.CreationDate,2018-11-05T22:32:35-08:00*
G04 #@! TF.ProjectId,500-1136,3530302D313133362E6B696361645F70,rev?*
G04 #@! TF.SameCoordinates,Original*
G04 #@! TF.FileFunction,Legend,Top*
G04 #@! TF.FilePolarity,Positive*
%FSLAX46Y46*%
G04 Gerber Fmt 4.6, Leading zero omitted, Abs format (unit mm)*
G04 Created by KiCad (PCBNEW (5.0.1)-3) date 11/5/2018 10:32:35 PM*
%MOMM*%
%LPD*%
G01*
G04 APERTURE LIST*
%ADD10C,0.300000*%
%ADD11C,0.150000*%
G04 APERTURE END LIST*
D10*
X120498809Y-136799523D02*
X119894047Y-136799523D01*
X119833571Y-137404285D01*
X119894047Y-137343809D01*
X120014999Y-137283333D01*
X120317380Y-137283333D01*
X120438333Y-137343809D01*
X120498809Y-137404285D01*
X120559285Y-137525238D01*
X120559285Y-137827619D01*
X120498809Y-137948571D01*
X120438333Y-138009047D01*
X120317380Y-138069523D01*
X120014999Y-138069523D01*
X119894047Y-138009047D01*
X119833571Y-137948571D01*
X121345476Y-136799523D02*
X121466428Y-136799523D01*
X121587380Y-136860000D01*
X121647857Y-136920476D01*
X121708333Y-137041428D01*
X121768809Y-137283333D01*
X121768809Y-137585714D01*
X121708333Y-137827619D01*
X121647857Y-137948571D01*
X121587380Y-138009047D01*
X121466428Y-138069523D01*
X121345476Y-138069523D01*
X121224523Y-138009047D01*
X121164047Y-137948571D01*
X121103571Y-137827619D01*
X121043095Y-137585714D01*
X121043095Y-137283333D01*
X121103571Y-137041428D01*
X121164047Y-136920476D01*
X121224523Y-136860000D01*
X121345476Y-136799523D01*
X122554999Y-136799523D02*
X122675952Y-136799523D01*
X122796904Y-136860000D01*
X122857380Y-136920476D01*
X122917857Y-137041428D01*
X122978333Y-137283333D01*
X122978333Y-137585714D01*
X122917857Y-137827619D01*
X122857380Y-137948571D01*
X122796904Y-138009047D01*
X122675952Y-138069523D01*
X122554999Y-138069523D01*
X122434047Y-138009047D01*
X122373571Y-137948571D01*
X122313095Y-137827619D01*
X122252619Y-137585714D01*
X122252619Y-137283333D01*
X122313095Y-137041428D01*
X122373571Y-136920476D01*
X122434047Y-136860000D01*
X122554999Y-136799523D01*
X123522619Y-137585714D02*
X124490238Y-137585714D01*
X125760238Y-138069523D02*
X125034523Y-138069523D01*
X125397380Y-138069523D02*
X125397380Y-136799523D01*
X125276428Y-136980952D01*
X125155476Y-137101904D01*
X125034523Y-137162380D01*
X126969761Y-138069523D02*
X126244047Y-138069523D01*
X126606904Y-138069523D02*
X126606904Y-136799523D01*
X126485952Y-136980952D01*
X126364999Y-137101904D01*
X126244047Y-137162380D01*
X127393095Y-136799523D02*
X128179285Y-136799523D01*
X127755952Y-137283333D01*
X127937380Y-137283333D01*
X128058333Y-137343809D01*
X128118809Y-137404285D01*
X128179285Y-137525238D01*
X128179285Y-137827619D01*
X128118809Y-137948571D01*
X128058333Y-138009047D01*
X127937380Y-138069523D01*
X127574523Y-138069523D01*
X127453571Y-138009047D01*
X127393095Y-137948571D01*
X129267857Y-136799523D02*
X129025952Y-136799523D01*
X128904999Y-136860000D01*
X128844523Y-136920476D01*
X128723571Y-137101904D01*
X128663095Y-137343809D01*
X128663095Y-137827619D01*
X128723571Y-137948571D01*
X128784047Y-138009047D01*
X128904999Y-138069523D01*
X129146904Y-138069523D01*
X129267857Y-138009047D01*
X129328333Y-137948571D01*
X129388809Y-137827619D01*
X129388809Y-137525238D01*
X129328333Y-137404285D01*
X129267857Y-137343809D01*
X129146904Y-137283333D01*
X128904999Y-137283333D01*
X128784047Y-137343809D01*
X128723571Y-137404285D01*
X128663095Y-137525238D01*
X131747380Y-138190476D02*
X131626428Y-138130000D01*
X131505476Y-138009047D01*
X131324047Y-137827619D01*
X131203095Y-137767142D01*
X131082142Y-137767142D01*
X131142619Y-138069523D02*
X131021666Y-138009047D01*
X130900714Y-137888095D01*
X130840238Y-137646190D01*
X130840238Y-137222857D01*
X130900714Y-136980952D01*
X131021666Y-136860000D01*
X131142619Y-136799523D01*
X131384523Y-136799523D01*
X131505476Y-136860000D01*
X131626428Y-136980952D01*
X131686904Y-137222857D01*
X131686904Y-137646190D01*
X131626428Y-137888095D01*
X131505476Y-138009047D01*
X131384523Y-138069523D01*
X131142619Y-138069523D01*
X132775476Y-137222857D02*
X132775476Y-138069523D01*
X132231190Y-137222857D02*
X132231190Y-137888095D01*
X132291666Y-138009047D01*
X132412619Y-138069523D01*
X132594047Y-138069523D01*
X132714999Y-138009047D01*
X132775476Y-137948571D01*
X133924523Y-138069523D02*
X133924523Y-137404285D01*
X133864047Y-137283333D01*
X133743095Y-137222857D01*
X133501190Y-137222857D01*
X133380238Y-137283333D01*
X133924523Y-138009047D02*
X133803571Y-138069523D01*
X133501190Y-138069523D01*
X133380238Y-138009047D01*
X133319761Y-137888095D01*
X133319761Y-137767142D01*
X133380238Y-137646190D01*
X133501190Y-137585714D01*
X133803571Y-137585714D01*
X133924523Y-137525238D01*
X135073571Y-138069523D02*
X135073571Y-136799523D01*
X135073571Y-138009047D02*
X134952619Y-138069523D01*
X134710714Y-138069523D01*
X134589761Y-138009047D01*
X134529285Y-137948571D01*
X134468809Y-137827619D01*
X134468809Y-137464761D01*
X134529285Y-137343809D01*
X134589761Y-137283333D01*
X134710714Y-137222857D01*
X134952619Y-137222857D01*
X135073571Y-137283333D01*
X136645952Y-138069523D02*
X136645952Y-136799523D01*
X137129761Y-136799523D01*
X137250714Y-136860000D01*
X137311190Y-136920476D01*
X137371666Y-137041428D01*
X137371666Y-137222857D01*
X137311190Y-137343809D01*
X137250714Y-137404285D01*
X137129761Y-137464761D01*
X136645952Y-137464761D01*
X138097380Y-138069523D02*
X137976428Y-138009047D01*
X137915952Y-137948571D01*
X137855476Y-137827619D01*
X137855476Y-137464761D01*
X137915952Y-137343809D01*
X137976428Y-137283333D01*
X138097380Y-137222857D01*
X138278809Y-137222857D01*
X138399761Y-137283333D01*
X138460238Y-137343809D01*
X138520714Y-137464761D01*
X138520714Y-137827619D01*
X138460238Y-137948571D01*
X138399761Y-138009047D01*
X138278809Y-138069523D01*
X138097380Y-138069523D01*
X138883571Y-137222857D02*
X139367380Y-137222857D01*
X139065000Y-136799523D02*
X139065000Y-137888095D01*
X139125476Y-138009047D01*
X139246428Y-138069523D01*
X139367380Y-138069523D01*
X121315238Y-140153571D02*
X121254761Y-140214047D01*
X121073333Y-140274523D01*
X120952380Y-140274523D01*
X120770952Y-140214047D01*
X120650000Y-140093095D01*
X120589523Y-139972142D01*
X120529047Y-139730238D01*
X120529047Y-139548809D01*
X120589523Y-139306904D01*
X120650000Y-139185952D01*
X120770952Y-139065000D01*
X120952380Y-139004523D01*
X121073333Y-139004523D01*
X121254761Y-139065000D01*
X121315238Y-139125476D01*
X122040952Y-140274523D02*
X121920000Y-140214047D01*
X121859523Y-140153571D01*
X121799047Y-140032619D01*
X121799047Y-139669761D01*
X121859523Y-139548809D01*
X121920000Y-139488333D01*
X122040952Y-139427857D01*
X122222380Y-139427857D01*
X122343333Y-139488333D01*
X122403809Y-139548809D01*
X122464285Y-139669761D01*
X122464285Y-140032619D01*
X122403809Y-140153571D01*
X122343333Y-140214047D01*
X122222380Y-140274523D01*
X122040952Y-140274523D01*
X123008571Y-139427857D02*
X123008571Y-140697857D01*
X123008571Y-139488333D02*
X123129523Y-139427857D01*
X123371428Y-139427857D01*
X123492380Y-139488333D01*
X123552857Y-139548809D01*
X123613333Y-139669761D01*
X123613333Y-140032619D01*
X123552857Y-140153571D01*
X123492380Y-140214047D01*
X123371428Y-140274523D01*
X123129523Y-140274523D01*
X123008571Y-140214047D01*
X124036666Y-139427857D02*
X124339047Y-140274523D01*
X124641428Y-139427857D02*
X124339047Y-140274523D01*
X124218095Y-140576904D01*
X124157619Y-140637380D01*
X124036666Y-140697857D01*
X125125238Y-140274523D02*
X125125238Y-139427857D01*
X125125238Y-139669761D02*
X125185714Y-139548809D01*
X125246190Y-139488333D01*
X125367142Y-139427857D01*
X125488095Y-139427857D01*
X125911428Y-140274523D02*
X125911428Y-139427857D01*
X125911428Y-139004523D02*
X125850952Y-139065000D01*
X125911428Y-139125476D01*
X125971904Y-139065000D01*
X125911428Y-139004523D01*
X125911428Y-139125476D01*
X127060476Y-139427857D02*
X127060476Y-140455952D01*
X127000000Y-140576904D01*
X126939523Y-140637380D01*
X126818571Y-140697857D01*
X126637142Y-140697857D01*
X126516190Y-140637380D01*
X127060476Y-140214047D02*
X126939523Y-140274523D01*
X126697619Y-140274523D01*
X126576666Y-140214047D01*
X126516190Y-140153571D01*
X126455714Y-140032619D01*
X126455714Y-139669761D01*
X126516190Y-139548809D01*
X126576666Y-139488333D01*
X126697619Y-139427857D01*
X126939523Y-139427857D01*
X127060476Y-139488333D01*
X127665238Y-140274523D02*
X127665238Y-139004523D01*
X128209523Y-140274523D02*
X128209523Y-139609285D01*
X128149047Y-139488333D01*
X128028095Y-139427857D01*
X127846666Y-139427857D01*
X127725714Y-139488333D01*
X127665238Y-139548809D01*
X128632857Y-139427857D02*
X129116666Y-139427857D01*
X128814285Y-139004523D02*
X128814285Y-140093095D01*
X128874761Y-140214047D01*
X128995714Y-140274523D01*
X129116666Y-140274523D01*
X130870476Y-140758333D02*
X130810000Y-140697857D01*
X130689047Y-140516428D01*
X130628571Y-140395476D01*
X130568095Y-140214047D01*
X130507619Y-139911666D01*
X130507619Y-139669761D01*
X130568095Y-139367380D01*
X130628571Y-139185952D01*
X130689047Y-139065000D01*
X130810000Y-138883571D01*
X130870476Y-138823095D01*
X131898571Y-140214047D02*
X131777619Y-140274523D01*
X131535714Y-140274523D01*
X131414761Y-140214047D01*
X131354285Y-140153571D01*
X131293809Y-140032619D01*
X131293809Y-139669761D01*
X131354285Y-139548809D01*
X131414761Y-139488333D01*
X131535714Y-139427857D01*
X131777619Y-139427857D01*
X131898571Y-139488333D01*
X132321904Y-140758333D02*
X132382380Y-140697857D01*
X132503333Y-140516428D01*
X132563809Y-140395476D01*
X132624285Y-140214047D01*
X132684761Y-139911666D01*
X132684761Y-139669761D01*
X132624285Y-139367380D01*
X132563809Y-139185952D01*
X132503333Y-139065000D01*
X132382380Y-138883571D01*
X132321904Y-138823095D01*
X134196666Y-139125476D02*
X134257142Y-139065000D01*
X134378095Y-139004523D01*
X134680476Y-139004523D01*
X134801428Y-139065000D01*
X134861904Y-139125476D01*
X134922380Y-139246428D01*
X134922380Y-139367380D01*
X134861904Y-139548809D01*
X134136190Y-140274523D01*
X134922380Y-140274523D01*
X135708571Y-139004523D02*
X135829523Y-139004523D01*
X135950476Y-139065000D01*
X136010952Y-139125476D01*
X136071428Y-139246428D01*
X136131904Y-139488333D01*
X136131904Y-139790714D01*
X136071428Y-140032619D01*
X136010952Y-140153571D01*
X135950476Y-140214047D01*
X135829523Y-140274523D01*
X135708571Y-140274523D01*
X135587619Y-140214047D01*
X135527142Y-140153571D01*
X135466666Y-140032619D01*
X135406190Y-139790714D01*
X135406190Y-139488333D01*
X135466666Y-139246428D01*
X135527142Y-139125476D01*
X135587619Y-139065000D01*
X135708571Y-139004523D01*
X137341428Y-140274523D02*
X136615714Y-140274523D01*
X136978571Y-140274523D02*
X136978571Y-139004523D01*
X136857619Y-139185952D01*
X136736666Y-139306904D01*
X136615714Y-139367380D01*
X138067142Y-139548809D02*
X137946190Y-139488333D01*
X137885714Y-139427857D01*
X137825238Y-139306904D01*
X137825238Y-139246428D01*
X137885714Y-139125476D01*
X137946190Y-139065000D01*
X138067142Y-139004523D01*
X138309047Y-139004523D01*
X138430000Y-139065000D01*
X138490476Y-139125476D01*
X138550952Y-139246428D01*
X138550952Y-139306904D01*
X138490476Y-139427857D01*
X138430000Y-139488333D01*
X138309047Y-139548809D01*
X138067142Y-139548809D01*
X137946190Y-139609285D01*
X137885714Y-139669761D01*
X137825238Y-139790714D01*
X137825238Y-140032619D01*
X137885714Y-140153571D01*
X137946190Y-140214047D01*
X138067142Y-140274523D01*
X138309047Y-140274523D01*
X138430000Y-140214047D01*
X138490476Y-140153571D01*
X138550952Y-140032619D01*
X138550952Y-139790714D01*
X138490476Y-139669761D01*
X138430000Y-139609285D01*
X138309047Y-139548809D01*
X120952380Y-142479523D02*
X120952380Y-141209523D01*
X120952380Y-141693333D02*
X121073333Y-141632857D01*
X121315238Y-141632857D01*
X121436190Y-141693333D01*
X121496666Y-141753809D01*
X121557142Y-141874761D01*
X121557142Y-142237619D01*
X121496666Y-142358571D01*
X121436190Y-142419047D01*
X121315238Y-142479523D01*
X121073333Y-142479523D01*
X120952380Y-142419047D01*
X121980476Y-141632857D02*
X122282857Y-142479523D01*
X122585238Y-141632857D02*
X122282857Y-142479523D01*
X122161904Y-142781904D01*
X122101428Y-142842380D01*
X121980476Y-142902857D01*
X124399523Y-141209523D02*
X124399523Y-142116666D01*
X124339047Y-142298095D01*
X124218095Y-142419047D01*
X124036666Y-142479523D01*
X123915714Y-142479523D01*
X125548571Y-142479523D02*
X125548571Y-141814285D01*
X125488095Y-141693333D01*
X125367142Y-141632857D01*
X125125238Y-141632857D01*
X125004285Y-141693333D01*
X125548571Y-142419047D02*
X125427619Y-142479523D01*
X125125238Y-142479523D01*
X125004285Y-142419047D01*
X124943809Y-142298095D01*
X124943809Y-142177142D01*
X125004285Y-142056190D01*
X125125238Y-141995714D01*
X125427619Y-141995714D01*
X125548571Y-141935238D01*
X126153333Y-142479523D02*
X126153333Y-141632857D01*
X126153333Y-141753809D02*
X126213809Y-141693333D01*
X126334761Y-141632857D01*
X126516190Y-141632857D01*
X126637142Y-141693333D01*
X126697619Y-141814285D01*
X126697619Y-142479523D01*
X126697619Y-141814285D02*
X126758095Y-141693333D01*
X126879047Y-141632857D01*
X127060476Y-141632857D01*
X127181428Y-141693333D01*
X127241904Y-141814285D01*
X127241904Y-142479523D01*
X128330476Y-142419047D02*
X128209523Y-142479523D01*
X127967619Y-142479523D01*
X127846666Y-142419047D01*
X127786190Y-142298095D01*
X127786190Y-141814285D01*
X127846666Y-141693333D01*
X127967619Y-141632857D01*
X128209523Y-141632857D01*
X128330476Y-141693333D01*
X128390952Y-141814285D01*
X128390952Y-141935238D01*
X127786190Y-142056190D01*
X128874761Y-142419047D02*
X128995714Y-142479523D01*
X129237619Y-142479523D01*
X129358571Y-142419047D01*
X129419047Y-142298095D01*
X129419047Y-142237619D01*
X129358571Y-142116666D01*
X129237619Y-142056190D01*
X129056190Y-142056190D01*
X128935238Y-141995714D01*
X128874761Y-141874761D01*
X128874761Y-141814285D01*
X128935238Y-141693333D01*
X129056190Y-141632857D01*
X129237619Y-141632857D01*
X129358571Y-141693333D01*
X130930952Y-142479523D02*
X130930952Y-141209523D01*
X131414761Y-141209523D01*
X131535714Y-141270000D01*
X131596190Y-141330476D01*
X131656666Y-141451428D01*
X131656666Y-141632857D01*
X131596190Y-141753809D01*
X131535714Y-141814285D01*
X131414761Y-141874761D01*
X130930952Y-141874761D01*
X132745238Y-142479523D02*
X132745238Y-141814285D01*
X132684761Y-141693333D01*
X132563809Y-141632857D01*
X132321904Y-141632857D01*
X132200952Y-141693333D01*
X132745238Y-142419047D02*
X132624285Y-142479523D01*
X132321904Y-142479523D01*
X132200952Y-142419047D01*
X132140476Y-142298095D01*
X132140476Y-142177142D01*
X132200952Y-142056190D01*
X132321904Y-141995714D01*
X132624285Y-141995714D01*
X132745238Y-141935238D01*
X133168571Y-141632857D02*
X133652380Y-141632857D01*
X133350000Y-141209523D02*
X133350000Y-142298095D01*
X133410476Y-142419047D01*
X133531428Y-142479523D01*
X133652380Y-142479523D01*
X134620000Y-142419047D02*
X134499047Y-142479523D01*
X134257142Y-142479523D01*
X134136190Y-142419047D01*
X134075714Y-142358571D01*
X134015238Y-142237619D01*
X134015238Y-141874761D01*
X134075714Y-141753809D01*
X134136190Y-141693333D01*
X134257142Y-141632857D01*
X134499047Y-141632857D01*
X134620000Y-141693333D01*
X135164285Y-142479523D02*
X135164285Y-141209523D01*
X135708571Y-142479523D02*
X135708571Y-141814285D01*
X135648095Y-141693333D01*
X135527142Y-141632857D01*
X135345714Y-141632857D01*
X135224761Y-141693333D01*
X135164285Y-141753809D01*
X136797142Y-142419047D02*
X136676190Y-142479523D01*
X136434285Y-142479523D01*
X136313333Y-142419047D01*
X136252857Y-142298095D01*
X136252857Y-141814285D01*
X136313333Y-141693333D01*
X136434285Y-141632857D01*
X136676190Y-141632857D01*
X136797142Y-141693333D01*
X136857619Y-141814285D01*
X136857619Y-141935238D01*
X136252857Y-142056190D01*
X137583333Y-142479523D02*
X137462380Y-142419047D01*
X137401904Y-142298095D01*
X137401904Y-141209523D01*
X138248571Y-142479523D02*
X138127619Y-142419047D01*
X138067142Y-142298095D01*
X138067142Y-141209523D01*
D11*
G04 #@! TO.C,R1*
X128270000Y-128905000D02*
G75*
G03X128270000Y-126365000I-1270000J1270000D01*
G01*
X128270000Y-126365000D02*
G75*
G03X125730000Y-126365000I-1270000J-1270000D01*
G01*
X125730000Y-126365000D02*
G75*
G03X125730000Y-128905000I1270000J-1270000D01*
G01*
X125730000Y-128905000D02*
X128270000Y-128905000D01*
X130175000Y-127635000D02*
G75*
G03X130175000Y-127635000I-3175000J0D01*
G01*
X137000000Y-135135000D02*
X137000000Y-120135000D01*
X137000000Y-120135000D02*
X119000000Y-120135000D01*
X119000000Y-120135000D02*
X119000000Y-135135000D01*
X119000000Y-135135000D02*
X137000000Y-135135000D01*
G04 #@! TO.C,R2*
X144400000Y-135135000D02*
X162400000Y-135135000D01*
X144400000Y-120135000D02*
X144400000Y-135135000D01*
X162400000Y-120135000D02*
X144400000Y-120135000D01*
X162400000Y-135135000D02*
X162400000Y-120135000D01*
X155575000Y-127635000D02*
G75*
G03X155575000Y-127635000I-3175000J0D01*
G01*
X151130000Y-128905000D02*
X153670000Y-128905000D01*
X151130000Y-126365000D02*
G75*
G03X151130000Y-128905000I1270000J-1270000D01*
G01*
X153670000Y-126365000D02*
G75*
G03X151130000Y-126365000I-1270000J-1270000D01*
G01*
X153670000Y-128905000D02*
G75*
G03X153670000Y-126365000I-1270000J1270000D01*
G01*
G04 #@! TO.C,R3*
X179070000Y-128905000D02*
G75*
G03X179070000Y-126365000I-1270000J1270000D01*
G01*
X179070000Y-126365000D02*
G75*
G03X176530000Y-126365000I-1270000J-1270000D01*
G01*
X176530000Y-126365000D02*
G75*
G03X176530000Y-128905000I1270000J-1270000D01*
G01*
X176530000Y-128905000D02*
X179070000Y-128905000D01*
X180975000Y-127635000D02*
G75*
G03X180975000Y-127635000I-3175000J0D01*
G01*
X187800000Y-135135000D02*
X187800000Y-120135000D01*
X187800000Y-120135000D02*
X169800000Y-120135000D01*
X169800000Y-120135000D02*
X169800000Y-135135000D01*
X169800000Y-135135000D02*
X187800000Y-135135000D01*
G04 #@! TO.C,R4*
X195200000Y-135135000D02*
X213200000Y-135135000D01*
X195200000Y-120135000D02*
X195200000Y-135135000D01*
X213200000Y-120135000D02*
X195200000Y-120135000D01*
X213200000Y-135135000D02*
X213200000Y-120135000D01*
X206375000Y-127635000D02*
G75*
G03X206375000Y-127635000I-3175000J0D01*
G01*
X201930000Y-128905000D02*
X204470000Y-128905000D01*
X201930000Y-126365000D02*
G75*
G03X201930000Y-128905000I1270000J-1270000D01*
G01*
X204470000Y-126365000D02*
G75*
G03X201930000Y-126365000I-1270000J-1270000D01*
G01*
X204470000Y-128905000D02*
G75*
G03X204470000Y-126365000I-1270000J1270000D01*
G01*
G04 #@! TO.C,R1*
X142352380Y-127801666D02*
X141876190Y-128135000D01*
X142352380Y-128373095D02*
X141352380Y-128373095D01*
X141352380Y-127992142D01*
X141400000Y-127896904D01*
X141447619Y-127849285D01*
X141542857Y-127801666D01*
X141685714Y-127801666D01*
X141780952Y-127849285D01*
X141828571Y-127896904D01*
X141876190Y-127992142D01*
X141876190Y-128373095D01*
X142352380Y-126849285D02*
X142352380Y-127420714D01*
X142352380Y-127135000D02*
X141352380Y-127135000D01*
X141495238Y-127230238D01*
X141590476Y-127325476D01*
X141638095Y-127420714D01*
X140352380Y-133515952D02*
X139352380Y-133515952D01*
X139352380Y-133135000D01*
X139400000Y-133039761D01*
X139447619Y-132992142D01*
X139542857Y-132944523D01*
X139685714Y-132944523D01*
X139780952Y-132992142D01*
X139828571Y-133039761D01*
X139876190Y-133135000D01*
X139876190Y-133515952D01*
X139352380Y-132325476D02*
X139352380Y-132135000D01*
X139400000Y-132039761D01*
X139495238Y-131944523D01*
X139685714Y-131896904D01*
X140019047Y-131896904D01*
X140209523Y-131944523D01*
X140304761Y-132039761D01*
X140352380Y-132135000D01*
X140352380Y-132325476D01*
X140304761Y-132420714D01*
X140209523Y-132515952D01*
X140019047Y-132563571D01*
X139685714Y-132563571D01*
X139495238Y-132515952D01*
X139400000Y-132420714D01*
X139352380Y-132325476D01*
X139352380Y-131611190D02*
X139352380Y-131039761D01*
X140352380Y-131325476D02*
X139352380Y-131325476D01*
X139971428Y-130706428D02*
X139971428Y-129944523D01*
X140066666Y-129515952D02*
X140066666Y-129039761D01*
X140352380Y-129611190D02*
X139352380Y-129277857D01*
X140352380Y-128944523D01*
X140352380Y-128135000D02*
X140352380Y-128611190D01*
X139352380Y-128611190D01*
X140352380Y-127801666D02*
X139352380Y-127801666D01*
X139352380Y-127420714D01*
X139400000Y-127325476D01*
X139447619Y-127277857D01*
X139542857Y-127230238D01*
X139685714Y-127230238D01*
X139780952Y-127277857D01*
X139828571Y-127325476D01*
X139876190Y-127420714D01*
X139876190Y-127801666D01*
X140352380Y-126801666D02*
X139352380Y-126801666D01*
X139828571Y-126801666D02*
X139828571Y-126230238D01*
X140352380Y-126230238D02*
X139352380Y-126230238D01*
X140066666Y-125801666D02*
X140066666Y-125325476D01*
X140352380Y-125896904D02*
X139352380Y-125563571D01*
X140352380Y-125230238D01*
X140352380Y-124849285D02*
X140352380Y-124658809D01*
X140304761Y-124563571D01*
X140257142Y-124515952D01*
X140114285Y-124420714D01*
X139923809Y-124373095D01*
X139542857Y-124373095D01*
X139447619Y-124420714D01*
X139400000Y-124468333D01*
X139352380Y-124563571D01*
X139352380Y-124754047D01*
X139400000Y-124849285D01*
X139447619Y-124896904D01*
X139542857Y-124944523D01*
X139780952Y-124944523D01*
X139876190Y-124896904D01*
X139923809Y-124849285D01*
X139971428Y-124754047D01*
X139971428Y-124563571D01*
X139923809Y-124468333D01*
X139876190Y-124420714D01*
X139780952Y-124373095D01*
X140352380Y-123944523D02*
X139685714Y-123944523D01*
X139780952Y-123944523D02*
X139733333Y-123896904D01*
X139685714Y-123801666D01*
X139685714Y-123658809D01*
X139733333Y-123563571D01*
X139828571Y-123515952D01*
X140352380Y-123515952D01*
X139828571Y-123515952D02*
X139733333Y-123468333D01*
X139685714Y-123373095D01*
X139685714Y-123230238D01*
X139733333Y-123135000D01*
X139828571Y-123087380D01*
X140352380Y-123087380D01*
X140352380Y-122611190D02*
X139685714Y-122611190D01*
X139780952Y-122611190D02*
X139733333Y-122563571D01*
X139685714Y-122468333D01*
X139685714Y-122325476D01*
X139733333Y-122230238D01*
X139828571Y-122182619D01*
X140352380Y-122182619D01*
X139828571Y-122182619D02*
X139733333Y-122135000D01*
X139685714Y-122039761D01*
X139685714Y-121896904D01*
X139733333Y-121801666D01*
X139828571Y-121754047D01*
X140352380Y-121754047D01*
G04 #@! TO.C,R2*
X167752380Y-127801666D02*
X167276190Y-128135000D01*
X167752380Y-128373095D02*
X166752380Y-128373095D01*
X166752380Y-127992142D01*
X166800000Y-127896904D01*
X166847619Y-127849285D01*
X166942857Y-127801666D01*
X167085714Y-127801666D01*
X167180952Y-127849285D01*
X167228571Y-127896904D01*
X167276190Y-127992142D01*
X167276190Y-128373095D01*
X166847619Y-127420714D02*
X166800000Y-127373095D01*
X166752380Y-127277857D01*
X166752380Y-127039761D01*
X166800000Y-126944523D01*
X166847619Y-126896904D01*
X166942857Y-126849285D01*
X167038095Y-126849285D01*
X167180952Y-126896904D01*
X167752380Y-127468333D01*
X167752380Y-126849285D01*
X165752380Y-133515952D02*
X164752380Y-133515952D01*
X164752380Y-133135000D01*
X164800000Y-133039761D01*
X164847619Y-132992142D01*
X164942857Y-132944523D01*
X165085714Y-132944523D01*
X165180952Y-132992142D01*
X165228571Y-133039761D01*
X165276190Y-133135000D01*
X165276190Y-133515952D01*
X164752380Y-132325476D02*
X164752380Y-132135000D01*
X164800000Y-132039761D01*
X164895238Y-131944523D01*
X165085714Y-131896904D01*
X165419047Y-131896904D01*
X165609523Y-131944523D01*
X165704761Y-132039761D01*
X165752380Y-132135000D01*
X165752380Y-132325476D01*
X165704761Y-132420714D01*
X165609523Y-132515952D01*
X165419047Y-132563571D01*
X165085714Y-132563571D01*
X164895238Y-132515952D01*
X164800000Y-132420714D01*
X164752380Y-132325476D01*
X164752380Y-131611190D02*
X164752380Y-131039761D01*
X165752380Y-131325476D02*
X164752380Y-131325476D01*
X165371428Y-130706428D02*
X165371428Y-129944523D01*
X165466666Y-129515952D02*
X165466666Y-129039761D01*
X165752380Y-129611190D02*
X164752380Y-129277857D01*
X165752380Y-128944523D01*
X165752380Y-128135000D02*
X165752380Y-128611190D01*
X164752380Y-128611190D01*
X165752380Y-127801666D02*
X164752380Y-127801666D01*
X164752380Y-127420714D01*
X164800000Y-127325476D01*
X164847619Y-127277857D01*
X164942857Y-127230238D01*
X165085714Y-127230238D01*
X165180952Y-127277857D01*
X165228571Y-127325476D01*
X165276190Y-127420714D01*
X165276190Y-127801666D01*
X165752380Y-126801666D02*
X164752380Y-126801666D01*
X165228571Y-126801666D02*
X165228571Y-126230238D01*
X165752380Y-126230238D02*
X164752380Y-126230238D01*
X165466666Y-125801666D02*
X165466666Y-125325476D01*
X165752380Y-125896904D02*
X164752380Y-125563571D01*
X165752380Y-125230238D01*
X165752380Y-124849285D02*
X165752380Y-124658809D01*
X165704761Y-124563571D01*
X165657142Y-124515952D01*
X165514285Y-124420714D01*
X165323809Y-124373095D01*
X164942857Y-124373095D01*
X164847619Y-124420714D01*
X164800000Y-124468333D01*
X164752380Y-124563571D01*
X164752380Y-124754047D01*
X164800000Y-124849285D01*
X164847619Y-124896904D01*
X164942857Y-124944523D01*
X165180952Y-124944523D01*
X165276190Y-124896904D01*
X165323809Y-124849285D01*
X165371428Y-124754047D01*
X165371428Y-124563571D01*
X165323809Y-124468333D01*
X165276190Y-124420714D01*
X165180952Y-124373095D01*
X165752380Y-123944523D02*
X165085714Y-123944523D01*
X165180952Y-123944523D02*
X165133333Y-123896904D01*
X165085714Y-123801666D01*
X165085714Y-123658809D01*
X165133333Y-123563571D01*
X165228571Y-123515952D01*
X165752380Y-123515952D01*
X165228571Y-123515952D02*
X165133333Y-123468333D01*
X165085714Y-123373095D01*
X165085714Y-123230238D01*
X165133333Y-123135000D01*
X165228571Y-123087380D01*
X165752380Y-123087380D01*
X165752380Y-122611190D02*
X165085714Y-122611190D01*
X165180952Y-122611190D02*
X165133333Y-122563571D01*
X165085714Y-122468333D01*
X165085714Y-122325476D01*
X165133333Y-122230238D01*
X165228571Y-122182619D01*
X165752380Y-122182619D01*
X165228571Y-122182619D02*
X165133333Y-122135000D01*
X165085714Y-122039761D01*
X165085714Y-121896904D01*
X165133333Y-121801666D01*
X165228571Y-121754047D01*
X165752380Y-121754047D01*
G04 #@! TO.C,R3*
X193152380Y-127801666D02*
X192676190Y-128135000D01*
X193152380Y-128373095D02*
X192152380Y-128373095D01*
X192152380Y-127992142D01*
X192200000Y-127896904D01*
X192247619Y-127849285D01*
X192342857Y-127801666D01*
X192485714Y-127801666D01*
X192580952Y-127849285D01*
X192628571Y-127896904D01*
X192676190Y-127992142D01*
X192676190Y-128373095D01*
X192152380Y-127468333D02*
X192152380Y-126849285D01*
X192533333Y-127182619D01*
X192533333Y-127039761D01*
X192580952Y-126944523D01*
X192628571Y-126896904D01*
X192723809Y-126849285D01*
X192961904Y-126849285D01*
X193057142Y-126896904D01*
X193104761Y-126944523D01*
X193152380Y-127039761D01*
X193152380Y-127325476D01*
X193104761Y-127420714D01*
X193057142Y-127468333D01*
X191152380Y-133515952D02*
X190152380Y-133515952D01*
X190152380Y-133135000D01*
X190200000Y-133039761D01*
X190247619Y-132992142D01*
X190342857Y-132944523D01*
X190485714Y-132944523D01*
X190580952Y-132992142D01*
X190628571Y-133039761D01*
X190676190Y-133135000D01*
X190676190Y-133515952D01*
X190152380Y-132325476D02*
X190152380Y-132135000D01*
X190200000Y-132039761D01*
X190295238Y-131944523D01*
X190485714Y-131896904D01*
X190819047Y-131896904D01*
X191009523Y-131944523D01*
X191104761Y-132039761D01*
X191152380Y-132135000D01*
X191152380Y-132325476D01*
X191104761Y-132420714D01*
X191009523Y-132515952D01*
X190819047Y-132563571D01*
X190485714Y-132563571D01*
X190295238Y-132515952D01*
X190200000Y-132420714D01*
X190152380Y-132325476D01*
X190152380Y-131611190D02*
X190152380Y-131039761D01*
X191152380Y-131325476D02*
X190152380Y-131325476D01*
X190771428Y-130706428D02*
X190771428Y-129944523D01*
X190866666Y-129515952D02*
X190866666Y-129039761D01*
X191152380Y-129611190D02*
X190152380Y-129277857D01*
X191152380Y-128944523D01*
X191152380Y-128135000D02*
X191152380Y-128611190D01*
X190152380Y-128611190D01*
X191152380Y-127801666D02*
X190152380Y-127801666D01*
X190152380Y-127420714D01*
X190200000Y-127325476D01*
X190247619Y-127277857D01*
X190342857Y-127230238D01*
X190485714Y-127230238D01*
X190580952Y-127277857D01*
X190628571Y-127325476D01*
X190676190Y-127420714D01*
X190676190Y-127801666D01*
X191152380Y-126801666D02*
X190152380Y-126801666D01*
X190628571Y-126801666D02*
X190628571Y-126230238D01*
X191152380Y-126230238D02*
X190152380Y-126230238D01*
X190866666Y-125801666D02*
X190866666Y-125325476D01*
X191152380Y-125896904D02*
X190152380Y-125563571D01*
X191152380Y-125230238D01*
X191152380Y-124849285D02*
X191152380Y-124658809D01*
X191104761Y-124563571D01*
X191057142Y-124515952D01*
X190914285Y-124420714D01*
X190723809Y-124373095D01*
X190342857Y-124373095D01*
X190247619Y-124420714D01*
X190200000Y-124468333D01*
X190152380Y-124563571D01*
X190152380Y-124754047D01*
X190200000Y-124849285D01*
X190247619Y-124896904D01*
X190342857Y-124944523D01*
X190580952Y-124944523D01*
X190676190Y-124896904D01*
X190723809Y-124849285D01*
X190771428Y-124754047D01*
X190771428Y-124563571D01*
X190723809Y-124468333D01*
X190676190Y-124420714D01*
X190580952Y-124373095D01*
X191152380Y-123944523D02*
X190485714Y-123944523D01*
X190580952Y-123944523D02*
X190533333Y-123896904D01*
X190485714Y-123801666D01*
X190485714Y-123658809D01*
X190533333Y-123563571D01*
X190628571Y-123515952D01*
X191152380Y-123515952D01*
X190628571Y-123515952D02*
X190533333Y-123468333D01*
X190485714Y-123373095D01*
X190485714Y-123230238D01*
X190533333Y-123135000D01*
X190628571Y-123087380D01*
X191152380Y-123087380D01*
X191152380Y-122611190D02*
X190485714Y-122611190D01*
X190580952Y-122611190D02*
X190533333Y-122563571D01*
X190485714Y-122468333D01*
X190485714Y-122325476D01*
X190533333Y-122230238D01*
X190628571Y-122182619D01*
X191152380Y-122182619D01*
X190628571Y-122182619D02*
X190533333Y-122135000D01*
X190485714Y-122039761D01*
X190485714Y-121896904D01*
X190533333Y-121801666D01*
X190628571Y-121754047D01*
X191152380Y-121754047D01*
G04 #@! TO.C,R4*
X218552380Y-127801666D02*
X218076190Y-128135000D01*
X218552380Y-128373095D02*
X217552380Y-128373095D01*
X217552380Y-127992142D01*
X217600000Y-127896904D01*
X217647619Y-127849285D01*
X217742857Y-127801666D01*
X217885714Y-127801666D01*
X217980952Y-127849285D01*
X218028571Y-127896904D01*
X218076190Y-127992142D01*
X218076190Y-128373095D01*
X217885714Y-126944523D02*
X218552380Y-126944523D01*
X217504761Y-127182619D02*
X218219047Y-127420714D01*
X218219047Y-126801666D01*
X216552380Y-133515952D02*
X215552380Y-133515952D01*
X215552380Y-133135000D01*
X215600000Y-133039761D01*
X215647619Y-132992142D01*
X215742857Y-132944523D01*
X215885714Y-132944523D01*
X215980952Y-132992142D01*
X216028571Y-133039761D01*
X216076190Y-133135000D01*
X216076190Y-133515952D01*
X215552380Y-132325476D02*
X215552380Y-132135000D01*
X215600000Y-132039761D01*
X215695238Y-131944523D01*
X215885714Y-131896904D01*
X216219047Y-131896904D01*
X216409523Y-131944523D01*
X216504761Y-132039761D01*
X216552380Y-132135000D01*
X216552380Y-132325476D01*
X216504761Y-132420714D01*
X216409523Y-132515952D01*
X216219047Y-132563571D01*
X215885714Y-132563571D01*
X215695238Y-132515952D01*
X215600000Y-132420714D01*
X215552380Y-132325476D01*
X215552380Y-131611190D02*
X215552380Y-131039761D01*
X216552380Y-131325476D02*
X215552380Y-131325476D01*
X216171428Y-130706428D02*
X216171428Y-129944523D01*
X216266666Y-129515952D02*
X216266666Y-129039761D01*
X216552380Y-129611190D02*
X215552380Y-129277857D01*
X216552380Y-128944523D01*
X216552380Y-128135000D02*
X216552380Y-128611190D01*
X215552380Y-128611190D01*
X216552380Y-127801666D02*
X215552380Y-127801666D01*
X215552380Y-127420714D01*
X215600000Y-127325476D01*
X215647619Y-127277857D01*
X215742857Y-127230238D01*
X215885714Y-127230238D01*
X215980952Y-127277857D01*
X216028571Y-127325476D01*
X216076190Y-127420714D01*
X216076190Y-127801666D01*
X216552380Y-126801666D02*
X215552380Y-126801666D01*
X216028571Y-126801666D02*
X216028571Y-126230238D01*
X216552380Y-126230238D02*
X215552380Y-126230238D01*
X216266666Y-125801666D02*
X216266666Y-125325476D01*
X216552380Y-125896904D02*
X215552380Y-125563571D01*
X216552380Y-125230238D01*
X216552380Y-124849285D02*
X216552380Y-124658809D01*
X216504761Y-124563571D01*
X216457142Y-124515952D01*
X216314285Y-124420714D01*
X216123809Y-124373095D01*
X215742857Y-124373095D01*
X215647619Y-124420714D01*
X215600000Y-124468333D01*
X215552380Y-124563571D01*
X215552380Y-124754047D01*
X215600000Y-124849285D01*
X215647619Y-124896904D01*
X215742857Y-124944523D01*
X215980952Y-124944523D01*
X216076190Y-124896904D01*
X216123809Y-124849285D01*
X216171428Y-124754047D01*
X216171428Y-124563571D01*
X216123809Y-124468333D01*
X216076190Y-124420714D01*
X215980952Y-124373095D01*
X216552380Y-123944523D02*
X215885714Y-123944523D01*
X215980952Y-123944523D02*
X215933333Y-123896904D01*
X215885714Y-123801666D01*
X215885714Y-123658809D01*
X215933333Y-123563571D01*
X216028571Y-123515952D01*
X216552380Y-123515952D01*
X216028571Y-123515952D02*
X215933333Y-123468333D01*
X215885714Y-123373095D01*
X215885714Y-123230238D01*
X215933333Y-123135000D01*
X216028571Y-123087380D01*
X216552380Y-123087380D01*
X216552380Y-122611190D02*
X215885714Y-122611190D01*
X215980952Y-122611190D02*
X215933333Y-122563571D01*
X215885714Y-122468333D01*
X215885714Y-122325476D01*
X215933333Y-122230238D01*
X216028571Y-122182619D01*
X216552380Y-122182619D01*
X216028571Y-122182619D02*
X215933333Y-122135000D01*
X215885714Y-122039761D01*
X215885714Y-121896904D01*
X215933333Y-121801666D01*
X216028571Y-121754047D01*
X216552380Y-121754047D01*
G04 #@! TD*
M02*
