G04 #@! TF.GenerationSoftware,KiCad,Pcbnew,(5.0.1)-3*
G04 #@! TF.CreationDate,2018-11-05T22:32:35-08:00*
G04 #@! TF.ProjectId,500-1136,3530302D313133362E6B696361645F70,rev?*
G04 #@! TF.SameCoordinates,Original*
G04 #@! TF.FileFunction,Copper,L1,Top,Signal*
G04 #@! TF.FilePolarity,Positive*
%FSLAX46Y46*%
G04 Gerber Fmt 4.6, Leading zero omitted, Abs format (unit mm)*
G04 Created by KiCad (PCBNEW (5.0.1)-3) date 11/5/2018 10:32:35 PM*
%MOMM*%
%LPD*%
G01*
G04 APERTURE LIST*
G04 #@! TA.AperFunction,ComponentPad*
%ADD10R,1.574800X1.574800*%
G04 #@! TD*
G04 #@! TA.AperFunction,ComponentPad*
%ADD11C,1.574800*%
G04 #@! TD*
G04 #@! TA.AperFunction,ComponentPad*
%ADD12C,2.540000*%
G04 #@! TD*
G04 #@! TA.AperFunction,Conductor*
%ADD13C,0.304800*%
G04 #@! TD*
G04 APERTURE END LIST*
D10*
G04 #@! TO.P,P1,1*
G04 #@! TO.N,Net-(P1-Pad1)*
X152400000Y-139065000D03*
D11*
G04 #@! TO.P,P1,2*
G04 #@! TO.N,Net-(P1-Pad2)*
X152400000Y-141605000D03*
G04 #@! TO.P,P1,3*
G04 #@! TO.N,Net-(P1-Pad3)*
X154940000Y-139065000D03*
G04 #@! TO.P,P1,4*
G04 #@! TO.N,N/C*
X154940000Y-141605000D03*
G04 #@! TO.P,P1,5*
G04 #@! TO.N,Net-(P1-Pad5)*
X157480000Y-139065000D03*
G04 #@! TO.P,P1,6*
G04 #@! TO.N,Net-(P1-Pad6)*
X157480000Y-141605000D03*
G04 #@! TO.P,P1,7*
G04 #@! TO.N,Net-(P1-Pad7)*
X160020000Y-139065000D03*
G04 #@! TO.P,P1,8*
G04 #@! TO.N,N/C*
X160020000Y-141605000D03*
G04 #@! TO.P,P1,9*
G04 #@! TO.N,Net-(P1-Pad9)*
X162560000Y-139065000D03*
G04 #@! TO.P,P1,10*
G04 #@! TO.N,Net-(P1-Pad10)*
X162560000Y-141605000D03*
G04 #@! TO.P,P1,11*
G04 #@! TO.N,Net-(P1-Pad11)*
X165100000Y-139065000D03*
G04 #@! TO.P,P1,12*
G04 #@! TO.N,N/C*
X165100000Y-141605000D03*
G04 #@! TO.P,P1,13*
G04 #@! TO.N,Net-(P1-Pad13)*
X167640000Y-139065000D03*
G04 #@! TO.P,P1,14*
G04 #@! TO.N,Net-(P1-Pad14)*
X167640000Y-141605000D03*
G04 #@! TO.P,P1,15*
G04 #@! TO.N,Net-(P1-Pad15)*
X170180000Y-139065000D03*
G04 #@! TO.P,P1,16*
G04 #@! TO.N,N/C*
X170180000Y-141605000D03*
G04 #@! TO.P,P1,17*
G04 #@! TO.N,Net-(P1-Pad17)*
X172720000Y-139065000D03*
G04 #@! TO.P,P1,18*
G04 #@! TO.N,Net-(P1-Pad18)*
X172720000Y-141605000D03*
G04 #@! TO.P,P1,19*
G04 #@! TO.N,Net-(P1-Pad19)*
X175260000Y-139065000D03*
G04 #@! TO.P,P1,20*
G04 #@! TO.N,Net-(P1-Pad20)*
X175260000Y-141605000D03*
G04 #@! TO.P,P1,21*
G04 #@! TO.N,Net-(P1-Pad21)*
X177800000Y-139065000D03*
G04 #@! TO.P,P1,22*
G04 #@! TO.N,Net-(P1-Pad22)*
X177800000Y-141605000D03*
G04 #@! TO.P,P1,23*
G04 #@! TO.N,Net-(P1-Pad23)*
X180340000Y-139065000D03*
G04 #@! TO.P,P1,24*
G04 #@! TO.N,Net-(P1-Pad24)*
X180340000Y-141605000D03*
G04 #@! TO.P,P1,25*
G04 #@! TO.N,N/C*
X182880000Y-139065000D03*
G04 #@! TO.P,P1,26*
X182880000Y-141605000D03*
G04 #@! TD*
D12*
G04 #@! TO.P,R1,*
G04 #@! TO.N,*
X127000000Y-134335000D03*
X127000000Y-120935000D03*
D11*
G04 #@! TO.P,R1,4*
G04 #@! TO.N,Net-(P1-Pad18)*
X127000000Y-128905000D03*
G04 #@! TO.P,R1,5*
G04 #@! TO.N,Net-(P1-Pad17)*
X127000000Y-126365000D03*
G04 #@! TO.P,R1,2*
G04 #@! TO.N,Net-(P1-Pad2)*
X138000000Y-127635000D03*
G04 #@! TO.P,R1,3*
G04 #@! TO.N,Net-(P1-Pad3)*
X138000000Y-123635000D03*
G04 #@! TO.P,R1,1*
G04 #@! TO.N,Net-(P1-Pad1)*
X138000000Y-131635000D03*
G04 #@! TD*
G04 #@! TO.P,R2,1*
G04 #@! TO.N,Net-(P1-Pad5)*
X163400000Y-131635000D03*
G04 #@! TO.P,R2,3*
G04 #@! TO.N,Net-(P1-Pad7)*
X163400000Y-123635000D03*
G04 #@! TO.P,R2,2*
G04 #@! TO.N,Net-(P1-Pad6)*
X163400000Y-127635000D03*
G04 #@! TO.P,R2,5*
G04 #@! TO.N,Net-(P1-Pad19)*
X152400000Y-126365000D03*
G04 #@! TO.P,R2,4*
G04 #@! TO.N,Net-(P1-Pad20)*
X152400000Y-128905000D03*
D12*
G04 #@! TO.P,R2,*
G04 #@! TO.N,*
X152400000Y-120935000D03*
X152400000Y-134335000D03*
G04 #@! TD*
G04 #@! TO.P,R3,*
G04 #@! TO.N,*
X177800000Y-134335000D03*
X177800000Y-120935000D03*
D11*
G04 #@! TO.P,R3,4*
G04 #@! TO.N,Net-(P1-Pad22)*
X177800000Y-128905000D03*
G04 #@! TO.P,R3,5*
G04 #@! TO.N,Net-(P1-Pad21)*
X177800000Y-126365000D03*
G04 #@! TO.P,R3,2*
G04 #@! TO.N,Net-(P1-Pad10)*
X188800000Y-127635000D03*
G04 #@! TO.P,R3,3*
G04 #@! TO.N,Net-(P1-Pad11)*
X188800000Y-123635000D03*
G04 #@! TO.P,R3,1*
G04 #@! TO.N,Net-(P1-Pad9)*
X188800000Y-131635000D03*
G04 #@! TD*
G04 #@! TO.P,R4,1*
G04 #@! TO.N,Net-(P1-Pad13)*
X214200000Y-131635000D03*
G04 #@! TO.P,R4,3*
G04 #@! TO.N,Net-(P1-Pad15)*
X214200000Y-123635000D03*
G04 #@! TO.P,R4,2*
G04 #@! TO.N,Net-(P1-Pad14)*
X214200000Y-127635000D03*
G04 #@! TO.P,R4,5*
G04 #@! TO.N,Net-(P1-Pad23)*
X203200000Y-126365000D03*
G04 #@! TO.P,R4,4*
G04 #@! TO.N,Net-(P1-Pad24)*
X203200000Y-128905000D03*
D12*
G04 #@! TO.P,R4,*
G04 #@! TO.N,*
X203200000Y-120935000D03*
X203200000Y-134335000D03*
G04 #@! TD*
D13*
G04 #@! TO.N,Net-(P1-Pad1)*
X152400000Y-139065000D02*
X139065000Y-139065000D01*
X138000000Y-138000000D02*
X138000000Y-131635000D01*
X139065000Y-139065000D02*
X138000000Y-138000000D01*
G04 #@! TO.N,Net-(P1-Pad2)*
X152400000Y-141605000D02*
X138430000Y-141605000D01*
X138430000Y-141605000D02*
X136525000Y-139700000D01*
X136525000Y-129110000D02*
X138000000Y-127635000D01*
X136525000Y-139700000D02*
X136525000Y-129110000D01*
G04 #@! TO.N,Net-(P1-Pad3)*
X154940000Y-137160000D02*
X154940000Y-139065000D01*
X154305000Y-136525000D02*
X154940000Y-137160000D01*
X138000000Y-123635000D02*
X138000000Y-124748551D01*
X138000000Y-124748551D02*
X139700000Y-126448551D01*
X139700000Y-126448551D02*
X139700000Y-136525000D01*
X139700000Y-136525000D02*
X140335000Y-137160000D01*
X147955000Y-136525000D02*
X154305000Y-136525000D01*
X140335000Y-137160000D02*
X147320000Y-137160000D01*
X147320000Y-137160000D02*
X147955000Y-136525000D01*
G04 #@! TO.N,Net-(P1-Pad5)*
X157480000Y-139065000D02*
X157480000Y-133350000D01*
X157480000Y-133350000D02*
X159385000Y-131445000D01*
X159385000Y-131445000D02*
X161925000Y-131445000D01*
X162115000Y-131635000D02*
X163400000Y-131635000D01*
X161925000Y-131445000D02*
X162115000Y-131635000D01*
G04 #@! TO.N,Net-(P1-Pad6)*
X164187399Y-128422399D02*
X164187399Y-129262399D01*
X163400000Y-127635000D02*
X164187399Y-128422399D01*
X164187399Y-129262399D02*
X165100000Y-130175000D01*
X165100000Y-131777010D02*
X160987010Y-135890000D01*
X165100000Y-130175000D02*
X165100000Y-131777010D01*
X160987010Y-135890000D02*
X160987010Y-136192990D01*
X160987010Y-136192990D02*
X158750000Y-138430000D01*
X158750000Y-140335000D02*
X157480000Y-141605000D01*
X158750000Y-138430000D02*
X158750000Y-140335000D01*
G04 #@! TO.N,Net-(P1-Pad7)*
X163400000Y-123635000D02*
X165760390Y-125995390D01*
X160807399Y-138050481D02*
X160807399Y-138277601D01*
X165760390Y-125995390D02*
X165760390Y-133097490D01*
X160807399Y-138277601D02*
X160020000Y-139065000D01*
X165760390Y-133097490D02*
X160807399Y-138050481D01*
G04 #@! TO.N,Net-(P1-Pad9)*
X162560000Y-137795000D02*
X162560000Y-139065000D01*
X167640000Y-132715000D02*
X162560000Y-137795000D01*
X167640000Y-125309402D02*
X167640000Y-132715000D01*
X170287201Y-122662201D02*
X167640000Y-125309402D01*
X193675000Y-126760000D02*
X193675000Y-121285000D01*
X193675000Y-121285000D02*
X193040000Y-120650000D01*
X188800000Y-131635000D02*
X193675000Y-126760000D01*
X193040000Y-120650000D02*
X182880000Y-120650000D01*
X182880000Y-120650000D02*
X180867799Y-122662201D01*
X180867799Y-122662201D02*
X170287201Y-122662201D01*
G04 #@! TO.N,Net-(P1-Pad10)*
X188800000Y-127635000D02*
X191770000Y-124665000D01*
X180592509Y-123799611D02*
X170011911Y-123799611D01*
X170011911Y-123799611D02*
X168249610Y-125561912D01*
X163804601Y-137412519D02*
X163804601Y-140360399D01*
X163347399Y-140817601D02*
X162560000Y-141605000D01*
X163804601Y-140360399D02*
X163347399Y-140817601D01*
X191135000Y-121920000D02*
X182472120Y-121920000D01*
X168249610Y-125561912D02*
X168249610Y-132967510D01*
X182472120Y-121920000D02*
X180592509Y-123799611D01*
X191770000Y-122555000D02*
X191135000Y-121920000D01*
X191770000Y-124665000D02*
X191770000Y-122555000D01*
X168249610Y-132967510D02*
X163804601Y-137412519D01*
G04 #@! TO.N,Net-(P1-Pad11)*
X188800000Y-123635000D02*
X188012601Y-124422399D01*
X170852601Y-124422399D02*
X168910000Y-126365000D01*
X188012601Y-124422399D02*
X170852601Y-124422399D01*
X165887399Y-138277601D02*
X165100000Y-139065000D01*
X168910000Y-135255000D02*
X165887399Y-138277601D01*
X168910000Y-126365000D02*
X168910000Y-135255000D01*
G04 #@! TO.N,Net-(P1-Pad13)*
X214200000Y-131635000D02*
X211900000Y-131635000D01*
X200685399Y-142849601D02*
X166979601Y-142849601D01*
X211900000Y-131635000D02*
X200685399Y-142849601D01*
X166979601Y-142849601D02*
X166370000Y-142240000D01*
X166370000Y-140335000D02*
X167640000Y-139065000D01*
X166370000Y-142240000D02*
X166370000Y-140335000D01*
G04 #@! TO.N,Net-(P1-Pad14)*
X214200000Y-127635000D02*
X211455000Y-130380000D01*
X211455000Y-130380000D02*
X211250000Y-130380000D01*
X211250000Y-130380000D02*
X201295000Y-140335000D01*
X168910000Y-140335000D02*
X167640000Y-141605000D01*
X201295000Y-140335000D02*
X168910000Y-140335000D01*
G04 #@! TO.N,Net-(P1-Pad15)*
X214200000Y-123635000D02*
X199580000Y-123635000D01*
X199580000Y-123635000D02*
X187152799Y-136062201D01*
X187152799Y-136062201D02*
X173182799Y-136062201D01*
X170967399Y-138277601D02*
X170180000Y-139065000D01*
X173182799Y-136062201D02*
X170967399Y-138277601D01*
G04 #@! TD*
M02*
