*%FSLAX23Y23*%
*%MOIN*%
G01*
%ADD11C,0.006*%
%ADD12C,0.007*%
%ADD13C,0.010*%
%ADD14C,0.012*%
%ADD15C,0.020*%
%ADD16C,0.036*%
%ADD17C,0.055*%
%ADD18C,0.056*%
%ADD19C,0.062*%
%ADD20C,0.066*%
%ADD21C,0.070*%
%ADD22C,0.075*%
%ADD23C,0.090*%
%ADD24C,0.100*%
%ADD25C,0.100*%
%ADD26C,0.104*%
%ADD27C,0.125*%
%ADD28C,0.129*%
%ADD29C,0.140*%
%ADD30C,0.160*%
%ADD31C,0.250*%
%ADD32C,0.250*%
D13*
X6828Y5929D02*
X12428D01*
Y9679D01*
X6828D01*
Y5929D01*
D15*
X6993Y10219D02*
X7026D01*
X7010D01*
Y10319D01*
X7011D01*
X7010D02*
X6993Y10302D01*
X7076D02*
X7093Y10319D01*
X7126D01*
X7143Y10302D01*
Y10236D01*
X7126Y10219D01*
X7093D01*
X7076Y10236D01*
Y10302D01*
X7176D02*
X7193Y10319D01*
X7226D01*
X7243Y10302D01*
Y10236D01*
X7226Y10219D01*
X7193D01*
X7176Y10236D01*
Y10302D01*
X7276Y10269D02*
X7343D01*
X7376Y10219D02*
X7410D01*
X7393D01*
Y10319D01*
X7394D01*
X7393D02*
X7376Y10302D01*
X7460D02*
X7476Y10319D01*
X7510D01*
X7526Y10302D01*
Y10236D01*
X7510Y10219D01*
X7476D01*
X7460Y10236D01*
Y10302D01*
X7559D02*
X7576Y10319D01*
X7609D01*
X7626Y10302D01*
Y10236D01*
X7609Y10219D01*
X7576D01*
X7559Y10236D01*
Y10302D01*
X7693D02*
X7726Y10319D01*
X7693Y10302D02*
X7659Y10269D01*
Y10236D01*
X7676Y10219D01*
X7709D01*
X7726Y10236D01*
Y10252D01*
X7709Y10269D01*
X7659D01*
X7759D02*
X7826D01*
X7859Y10302D02*
X7876Y10319D01*
X7909D01*
X7926Y10302D01*
Y10236D01*
X7909Y10219D01*
X7876D01*
X7859Y10236D01*
Y10302D01*
X7959D02*
X7976Y10319D01*
X8009D01*
X8026Y10302D01*
Y10286D01*
X8027D01*
X8026D02*
X8027D01*
X8026D02*
X8027D01*
X8026D02*
X8009Y10269D01*
X7993D01*
X8009D01*
X8026Y10252D01*
Y10236D01*
X8009Y10219D01*
X7976D01*
X7959Y10236D01*
X8059Y10219D02*
X8126Y10286D01*
X8159Y10302D02*
X8176Y10319D01*
X8209D01*
X8226Y10302D01*
Y10236D01*
X8209Y10219D01*
X8176D01*
X8159Y10236D01*
Y10302D01*
X8259Y10319D02*
X8326D01*
X8259D02*
Y10269D01*
X8293Y10286D01*
X8309D01*
X8326Y10269D01*
Y10236D01*
X8309Y10219D01*
X8276D01*
X8259Y10236D01*
X8509Y10319D02*
X8526Y10302D01*
X8509Y10319D02*
X8476D01*
X8459Y10302D01*
Y10236D01*
X8476Y10219D01*
X8509D01*
X8526Y10236D01*
X8576Y10319D02*
X8609D01*
X8576D02*
X8559Y10302D01*
Y10236D01*
X8576Y10219D01*
X8609D01*
X8626Y10236D01*
Y10302D01*
X8609Y10319D01*
X8659D02*
Y10219D01*
X8692Y10286D02*
X8659Y10319D01*
X8692Y10286D02*
X8726Y10319D01*
Y10219D01*
X8759D02*
Y10319D01*
X8809D01*
X8826Y10302D01*
Y10269D01*
X8809Y10252D01*
X8759D01*
X8876Y10319D02*
X8909D01*
X8876D02*
X8859Y10302D01*
Y10236D01*
X8876Y10219D01*
X8909D01*
X8926Y10236D01*
Y10302D01*
X8909Y10319D01*
X8959D02*
Y10219D01*
X9026D02*
X8959Y10319D01*
X9026D02*
Y10219D01*
X9059Y10319D02*
X9126D01*
X9059D02*
Y10219D01*
X9126D01*
X9092Y10269D02*
X9059D01*
X9159Y10319D02*
X9226D01*
X9192D01*
Y10219D01*
X9259D02*
X9326Y10286D01*
X9409Y10319D02*
X9426Y10302D01*
X9409Y10319D02*
X9376D01*
X9359Y10302D01*
Y10236D01*
X9376Y10219D01*
X9409D01*
X9426Y10236D01*
X9459Y10319D02*
X9492D01*
X9476D01*
Y10219D01*
X9459D01*
X9492D01*
X9542D02*
Y10319D01*
X9592D01*
X9609Y10302D01*
Y10269D01*
X9592Y10252D01*
X9542D01*
X9575D02*
X9609Y10219D01*
X9709Y10302D02*
X9692Y10319D01*
X9659D01*
X9642Y10302D01*
Y10236D01*
X9659Y10219D01*
X9692D01*
X9709Y10236D01*
X9742D02*
Y10319D01*
Y10236D02*
X9759Y10219D01*
X9792D01*
X9809Y10236D01*
Y10319D01*
X9842D02*
X9875D01*
X9859D01*
Y10219D01*
X9842D01*
X9875D01*
X9925Y10319D02*
X9992D01*
X9959D01*
Y10219D01*
X10175Y10319D02*
X10192Y10302D01*
X10175Y10319D02*
X10142D01*
X10125Y10302D01*
Y10286D01*
X10142Y10269D01*
X10175D01*
X10192Y10252D01*
Y10236D01*
X10175Y10219D01*
X10142D01*
X10125Y10236D01*
X10225Y10319D02*
X10259D01*
X10242D01*
Y10219D01*
X10225D01*
X10259D01*
X10309D02*
Y10319D01*
Y10219D02*
X10359D01*
X10375Y10236D01*
Y10302D01*
X10359Y10319D01*
X10309D01*
X10409D02*
X10475D01*
X10409D02*
Y10219D01*
X10475D01*
X10442Y10269D02*
X10409D01*
X10658Y10319D02*
X10675Y10302D01*
X10658Y10319D02*
X10625D01*
X10608Y10302D01*
Y10286D01*
X10625Y10269D01*
X10658D01*
X10675Y10252D01*
Y10236D01*
X10658Y10219D01*
X10625D01*
X10608Y10236D01*
X10725Y10319D02*
X10758D01*
X10725D02*
X10708Y10302D01*
Y10236D01*
X10725Y10219D01*
X10758D01*
X10775Y10236D01*
Y10302D01*
X10758Y10319D01*
X10808D02*
Y10219D01*
X10875D01*
X10908D02*
Y10319D01*
Y10219D02*
X10958D01*
X10975Y10236D01*
Y10302D01*
X10958Y10319D01*
X10908D01*
X11008D02*
X11075D01*
X11008D02*
Y10219D01*
X11075D01*
X11042Y10269D02*
X11008D01*
X11108Y10219D02*
Y10319D01*
X11158D01*
X11175Y10302D01*
Y10269D01*
X11158Y10252D01*
X11108D01*
X11142D02*
X11175Y10219D01*
X11308D02*
Y10319D01*
X11342Y10286D01*
X11375Y10319D01*
Y10219D01*
X11408D02*
Y10286D01*
X11442Y10319D01*
X11475Y10286D01*
Y10219D01*
Y10269D01*
X11408D01*
X11558Y10319D02*
X11575Y10302D01*
X11558Y10319D02*
X11525D01*
X11508Y10302D01*
Y10286D01*
X11525Y10269D01*
X11558D01*
X11575Y10252D01*
Y10236D01*
X11558Y10219D01*
X11525D01*
X11508Y10236D01*
X11608Y10219D02*
Y10319D01*
Y10252D02*
Y10219D01*
Y10252D02*
X11675Y10319D01*
X11625Y10269D01*
X11675Y10219D01*
D20*
X8378Y9529D02*
D03*
X8278D02*
D03*
X9478D02*
D03*
X9378D02*
D03*
X10778D02*
D03*
Y9429D02*
D03*
D22*
X12088D02*
X12090D01*
X12088D02*
X12090Y9416D01*
X12092Y9403D01*
X12097Y9390D01*
X12104Y9379D01*
X12112Y9368D01*
X12122Y9359D01*
X12133Y9351D01*
X12145Y9346D01*
X12158Y9342D01*
X12171Y9340D01*
X12185D01*
X12198Y9342D01*
X12211Y9346D01*
X12223Y9351D01*
X12234Y9359D01*
X12244Y9368D01*
X12252Y9379D01*
X12259Y9390D01*
X12264Y9403D01*
X12266Y9416D01*
X12268Y9429D01*
X12268D01*
X12268D02*
X12266Y9442D01*
X12264Y9455D01*
X12259Y9468D01*
X12252Y9479D01*
X12244Y9490D01*
X12234Y9499D01*
X12223Y9507D01*
X12211Y9512D01*
X12198Y9516D01*
X12185Y9518D01*
X12171D01*
X12158Y9516D01*
X12145Y9512D01*
X12133Y9507D01*
X12122Y9499D01*
X12112Y9490D01*
X12104Y9479D01*
X12097Y9468D01*
X12092Y9455D01*
X12090Y9442D01*
X12088Y9429D01*
X12162D02*
X12162D01*
X12162D02*
X12162Y9423D01*
X12165Y9418D01*
X12170Y9415D01*
X12175Y9413D01*
X12181D01*
X12186Y9415D01*
X12191Y9418D01*
X12194Y9423D01*
X12194Y9429D01*
X12196D01*
X12194D02*
X12194Y9435D01*
X12191Y9440D01*
X12186Y9443D01*
X12181Y9445D01*
X12175D01*
X12170Y9443D01*
X12165Y9440D01*
X12162Y9435D01*
X12162Y9429D01*
X12088Y6179D02*
X12090D01*
X12088D02*
X12090Y6166D01*
X12092Y6153D01*
X12097Y6140D01*
X12104Y6129D01*
X12112Y6118D01*
X12122Y6109D01*
X12133Y6101D01*
X12145Y6096D01*
X12158Y6092D01*
X12171Y6090D01*
X12185D01*
X12198Y6092D01*
X12211Y6096D01*
X12223Y6101D01*
X12234Y6109D01*
X12244Y6118D01*
X12252Y6129D01*
X12259Y6140D01*
X12264Y6153D01*
X12266Y6166D01*
X12268Y6179D01*
X12268D01*
X12268D02*
X12266Y6192D01*
X12264Y6205D01*
X12259Y6218D01*
X12252Y6229D01*
X12244Y6240D01*
X12234Y6249D01*
X12223Y6257D01*
X12211Y6262D01*
X12198Y6266D01*
X12185Y6268D01*
X12171D01*
X12158Y6266D01*
X12145Y6262D01*
X12133Y6257D01*
X12122Y6249D01*
X12112Y6240D01*
X12104Y6229D01*
X12097Y6218D01*
X12092Y6205D01*
X12090Y6192D01*
X12088Y6179D01*
X12162D02*
X12162D01*
X12162D02*
X12162Y6173D01*
X12165Y6168D01*
X12170Y6165D01*
X12175Y6163D01*
X12181D01*
X12186Y6165D01*
X12191Y6168D01*
X12194Y6173D01*
X12194Y6179D01*
X12196D01*
X12194D02*
X12194Y6185D01*
X12191Y6190D01*
X12186Y6193D01*
X12181Y6195D01*
X12175D01*
X12170Y6193D01*
X12165Y6190D01*
X12162Y6185D01*
X12162Y6179D01*
X6988Y9429D02*
X6990D01*
X6988D02*
X6990Y9416D01*
X6992Y9403D01*
X6997Y9390D01*
X7004Y9379D01*
X7012Y9368D01*
X7022Y9359D01*
X7033Y9351D01*
X7045Y9346D01*
X7058Y9342D01*
X7071Y9340D01*
X7085D01*
X7098Y9342D01*
X7111Y9346D01*
X7123Y9351D01*
X7134Y9359D01*
X7144Y9368D01*
X7152Y9379D01*
X7159Y9390D01*
X7164Y9403D01*
X7166Y9416D01*
X7168Y9429D01*
X7168D01*
X7168D02*
X7166Y9442D01*
X7164Y9455D01*
X7159Y9468D01*
X7152Y9479D01*
X7144Y9490D01*
X7134Y9499D01*
X7123Y9507D01*
X7111Y9512D01*
X7098Y9516D01*
X7085Y9518D01*
X7071D01*
X7058Y9516D01*
X7045Y9512D01*
X7033Y9507D01*
X7022Y9499D01*
X7012Y9490D01*
X7004Y9479D01*
X6997Y9468D01*
X6992Y9455D01*
X6990Y9442D01*
X6988Y9429D01*
X7062D02*
X7062D01*
X7062D02*
X7062Y9423D01*
X7065Y9418D01*
X7070Y9415D01*
X7075Y9413D01*
X7081D01*
X7086Y9415D01*
X7091Y9418D01*
X7094Y9423D01*
X7094Y9429D01*
X7096D01*
X7094D02*
X7094Y9435D01*
X7091Y9440D01*
X7086Y9443D01*
X7081Y9445D01*
X7075D01*
X7070Y9443D01*
X7065Y9440D01*
X7062Y9435D01*
X7062Y9429D01*
X6988Y6179D02*
X6990D01*
X6988D02*
X6990Y6166D01*
X6992Y6153D01*
X6997Y6140D01*
X7004Y6129D01*
X7012Y6118D01*
X7022Y6109D01*
X7033Y6101D01*
X7045Y6096D01*
X7058Y6092D01*
X7071Y6090D01*
X7085D01*
X7098Y6092D01*
X7111Y6096D01*
X7123Y6101D01*
X7134Y6109D01*
X7144Y6118D01*
X7152Y6129D01*
X7159Y6140D01*
X7164Y6153D01*
X7166Y6166D01*
X7168Y6179D01*
X7168D01*
X7168D02*
X7166Y6192D01*
X7164Y6205D01*
X7159Y6218D01*
X7152Y6229D01*
X7144Y6240D01*
X7134Y6249D01*
X7123Y6257D01*
X7111Y6262D01*
X7098Y6266D01*
X7085Y6268D01*
X7071D01*
X7058Y6266D01*
X7045Y6262D01*
X7033Y6257D01*
X7022Y6249D01*
X7012Y6240D01*
X7004Y6229D01*
X6997Y6218D01*
X6992Y6205D01*
X6990Y6192D01*
X6988Y6179D01*
X7062D02*
X7062D01*
X7062D02*
X7062Y6173D01*
X7065Y6168D01*
X7070Y6165D01*
X7075Y6163D01*
X7081D01*
X7086Y6165D01*
X7091Y6168D01*
X7094Y6173D01*
X7094Y6179D01*
X7096D01*
X7094D02*
X7094Y6185D01*
X7091Y6190D01*
X7086Y6193D01*
X7081Y6195D01*
X7075D01*
X7070Y6193D01*
X7065Y6190D01*
X7062Y6185D01*
X7062Y6179D01*
X8438Y7379D02*
X8440D01*
X8438D02*
X8440Y7366D01*
X8442Y7353D01*
X8447Y7340D01*
X8454Y7329D01*
X8462Y7318D01*
X8472Y7309D01*
X8483Y7301D01*
X8495Y7296D01*
X8508Y7292D01*
X8521Y7290D01*
X8535D01*
X8548Y7292D01*
X8561Y7296D01*
X8573Y7301D01*
X8584Y7309D01*
X8594Y7318D01*
X8602Y7329D01*
X8609Y7340D01*
X8614Y7353D01*
X8616Y7366D01*
X8618Y7379D01*
X8618D01*
X8618D02*
X8616Y7392D01*
X8614Y7405D01*
X8609Y7418D01*
X8602Y7429D01*
X8594Y7440D01*
X8584Y7449D01*
X8573Y7457D01*
X8561Y7462D01*
X8548Y7466D01*
X8535Y7468D01*
X8521D01*
X8508Y7466D01*
X8495Y7462D01*
X8483Y7457D01*
X8472Y7449D01*
X8462Y7440D01*
X8454Y7429D01*
X8447Y7418D01*
X8442Y7405D01*
X8440Y7392D01*
X8438Y7379D01*
X8512D02*
X8512D01*
X8512D02*
X8512Y7373D01*
X8515Y7368D01*
X8520Y7365D01*
X8525Y7363D01*
X8531D01*
X8536Y7365D01*
X8541Y7368D01*
X8544Y7373D01*
X8544Y7379D01*
X8546D01*
X8544D02*
X8544Y7385D01*
X8541Y7390D01*
X8536Y7393D01*
X8531Y7395D01*
X8525D01*
X8520Y7393D01*
X8515Y7390D01*
X8512Y7385D01*
X8512Y7379D01*
X8438Y8879D02*
X8440D01*
X8438D02*
X8440Y8866D01*
X8442Y8853D01*
X8447Y8840D01*
X8454Y8829D01*
X8462Y8818D01*
X8472Y8809D01*
X8483Y8801D01*
X8495Y8796D01*
X8508Y8792D01*
X8521Y8790D01*
X8535D01*
X8548Y8792D01*
X8561Y8796D01*
X8573Y8801D01*
X8584Y8809D01*
X8594Y8818D01*
X8602Y8829D01*
X8609Y8840D01*
X8614Y8853D01*
X8616Y8866D01*
X8618Y8879D01*
X8618D01*
X8618D02*
X8616Y8892D01*
X8614Y8905D01*
X8609Y8918D01*
X8602Y8929D01*
X8594Y8940D01*
X8584Y8949D01*
X8573Y8957D01*
X8561Y8962D01*
X8548Y8966D01*
X8535Y8968D01*
X8521D01*
X8508Y8966D01*
X8495Y8962D01*
X8483Y8957D01*
X8472Y8949D01*
X8462Y8940D01*
X8454Y8929D01*
X8447Y8918D01*
X8442Y8905D01*
X8440Y8892D01*
X8438Y8879D01*
X8512D02*
X8512D01*
X8512D02*
X8512Y8873D01*
X8515Y8868D01*
X8520Y8865D01*
X8525Y8863D01*
X8531D01*
X8536Y8865D01*
X8541Y8868D01*
X8544Y8873D01*
X8544Y8879D01*
X8546D01*
X8544D02*
X8544Y8885D01*
X8541Y8890D01*
X8536Y8893D01*
X8531Y8895D01*
X8525D01*
X8520Y8893D01*
X8515Y8890D01*
X8512Y8885D01*
X8512Y8879D01*
X6938D02*
X6940D01*
X6938D02*
X6940Y8866D01*
X6942Y8853D01*
X6947Y8840D01*
X6954Y8829D01*
X6962Y8818D01*
X6972Y8809D01*
X6983Y8801D01*
X6995Y8796D01*
X7008Y8792D01*
X7021Y8790D01*
X7035D01*
X7048Y8792D01*
X7061Y8796D01*
X7073Y8801D01*
X7084Y8809D01*
X7094Y8818D01*
X7102Y8829D01*
X7109Y8840D01*
X7114Y8853D01*
X7116Y8866D01*
X7118Y8879D01*
X7118D01*
X7118D02*
X7116Y8892D01*
X7114Y8905D01*
X7109Y8918D01*
X7102Y8929D01*
X7094Y8940D01*
X7084Y8949D01*
X7073Y8957D01*
X7061Y8962D01*
X7048Y8966D01*
X7035Y8968D01*
X7021D01*
X7008Y8966D01*
X6995Y8962D01*
X6983Y8957D01*
X6972Y8949D01*
X6962Y8940D01*
X6954Y8929D01*
X6947Y8918D01*
X6942Y8905D01*
X6940Y8892D01*
X6938Y8879D01*
X7012D02*
X7012D01*
X7012D02*
X7012Y8873D01*
X7015Y8868D01*
X7020Y8865D01*
X7025Y8863D01*
X7031D01*
X7036Y8865D01*
X7041Y8868D01*
X7044Y8873D01*
X7044Y8879D01*
X7046D01*
X7044D02*
X7044Y8885D01*
X7041Y8890D01*
X7036Y8893D01*
X7031Y8895D01*
X7025D01*
X7020Y8893D01*
X7015Y8890D01*
X7012Y8885D01*
X7012Y8879D01*
X6938Y7379D02*
X6940D01*
X6938D02*
X6940Y7366D01*
X6942Y7353D01*
X6947Y7340D01*
X6954Y7329D01*
X6962Y7318D01*
X6972Y7309D01*
X6983Y7301D01*
X6995Y7296D01*
X7008Y7292D01*
X7021Y7290D01*
X7035D01*
X7048Y7292D01*
X7061Y7296D01*
X7073Y7301D01*
X7084Y7309D01*
X7094Y7318D01*
X7102Y7329D01*
X7109Y7340D01*
X7114Y7353D01*
X7116Y7366D01*
X7118Y7379D01*
X7118D01*
X7118D02*
X7116Y7392D01*
X7114Y7405D01*
X7109Y7418D01*
X7102Y7429D01*
X7094Y7440D01*
X7084Y7449D01*
X7073Y7457D01*
X7061Y7462D01*
X7048Y7466D01*
X7035Y7468D01*
X7021D01*
X7008Y7466D01*
X6995Y7462D01*
X6983Y7457D01*
X6972Y7449D01*
X6962Y7440D01*
X6954Y7429D01*
X6947Y7418D01*
X6942Y7405D01*
X6940Y7392D01*
X6938Y7379D01*
X7012D02*
X7012D01*
X7012D02*
X7012Y7373D01*
X7015Y7368D01*
X7020Y7365D01*
X7025Y7363D01*
X7031D01*
X7036Y7365D01*
X7041Y7368D01*
X7044Y7373D01*
X7044Y7379D01*
X7046D01*
X7044D02*
X7044Y7385D01*
X7041Y7390D01*
X7036Y7393D01*
X7031Y7395D01*
X7025D01*
X7020Y7393D01*
X7015Y7390D01*
X7012Y7385D01*
X7012Y7379D01*
X8108Y8550D02*
X8110D01*
X8108D02*
X8110Y8537D01*
X8112Y8524D01*
X8117Y8511D01*
X8124Y8500D01*
X8132Y8489D01*
X8142Y8480D01*
X8153Y8472D01*
X8165Y8467D01*
X8178Y8463D01*
X8191Y8461D01*
X8205D01*
X8218Y8463D01*
X8231Y8467D01*
X8243Y8472D01*
X8254Y8480D01*
X8264Y8489D01*
X8272Y8500D01*
X8279Y8511D01*
X8284Y8524D01*
X8286Y8537D01*
X8288Y8550D01*
X8288D01*
X8288D02*
X8286Y8563D01*
X8284Y8576D01*
X8279Y8589D01*
X8272Y8600D01*
X8264Y8611D01*
X8254Y8620D01*
X8243Y8628D01*
X8231Y8633D01*
X8218Y8637D01*
X8205Y8639D01*
X8191D01*
X8178Y8637D01*
X8165Y8633D01*
X8153Y8628D01*
X8142Y8620D01*
X8132Y8611D01*
X8124Y8600D01*
X8117Y8589D01*
X8112Y8576D01*
X8110Y8563D01*
X8108Y8550D01*
X8182D02*
X8182D01*
X8182D02*
X8182Y8544D01*
X8185Y8539D01*
X8190Y8536D01*
X8195Y8534D01*
X8201D01*
X8206Y8536D01*
X8211Y8539D01*
X8214Y8544D01*
X8214Y8550D01*
X8216D01*
X8214D02*
X8214Y8556D01*
X8211Y8561D01*
X8206Y8564D01*
X8201Y8566D01*
X8195D01*
X8190Y8564D01*
X8185Y8561D01*
X8182Y8556D01*
X8182Y8550D01*
X7268Y7708D02*
X7268D01*
X7268D02*
X7268Y7695D01*
X7271Y7682D01*
X7276Y7669D01*
X7283Y7658D01*
X7291Y7647D01*
X7301Y7638D01*
X7312Y7630D01*
X7324Y7625D01*
X7337Y7621D01*
X7350Y7619D01*
X7364D01*
X7377Y7621D01*
X7390Y7625D01*
X7402Y7630D01*
X7413Y7638D01*
X7423Y7647D01*
X7431Y7658D01*
X7438Y7669D01*
X7443Y7682D01*
X7446Y7695D01*
X7446Y7708D01*
X7448D01*
X7446D02*
X7446Y7721D01*
X7443Y7734D01*
X7438Y7747D01*
X7431Y7758D01*
X7423Y7769D01*
X7413Y7778D01*
X7402Y7786D01*
X7390Y7791D01*
X7377Y7795D01*
X7364Y7797D01*
X7350D01*
X7337Y7795D01*
X7324Y7791D01*
X7312Y7786D01*
X7301Y7778D01*
X7291Y7769D01*
X7283Y7758D01*
X7276Y7747D01*
X7271Y7734D01*
X7268Y7721D01*
X7268Y7708D01*
X7340D02*
X7342D01*
X7340D02*
X7341Y7702D01*
X7344Y7697D01*
X7349Y7694D01*
X7354Y7692D01*
X7360D01*
X7365Y7694D01*
X7370Y7697D01*
X7373Y7702D01*
X7374Y7708D01*
X7374D01*
X7374D02*
X7373Y7714D01*
X7370Y7719D01*
X7365Y7722D01*
X7360Y7724D01*
X7354D01*
X7349Y7722D01*
X7344Y7719D01*
X7341Y7714D01*
X7340Y7708D01*
X10288Y7379D02*
X10290D01*
X10288D02*
X10290Y7366D01*
X10292Y7353D01*
X10297Y7340D01*
X10304Y7329D01*
X10312Y7318D01*
X10322Y7309D01*
X10333Y7301D01*
X10345Y7296D01*
X10358Y7292D01*
X10371Y7290D01*
X10385D01*
X10398Y7292D01*
X10411Y7296D01*
X10423Y7301D01*
X10434Y7309D01*
X10444Y7318D01*
X10452Y7329D01*
X10459Y7340D01*
X10464Y7353D01*
X10466Y7366D01*
X10468Y7379D01*
X10468D01*
X10468D02*
X10466Y7392D01*
X10464Y7405D01*
X10459Y7418D01*
X10452Y7429D01*
X10444Y7440D01*
X10434Y7449D01*
X10423Y7457D01*
X10411Y7462D01*
X10398Y7466D01*
X10385Y7468D01*
X10371D01*
X10358Y7466D01*
X10345Y7462D01*
X10333Y7457D01*
X10322Y7449D01*
X10312Y7440D01*
X10304Y7429D01*
X10297Y7418D01*
X10292Y7405D01*
X10290Y7392D01*
X10288Y7379D01*
X10362D02*
X10362D01*
X10362D02*
X10362Y7373D01*
X10365Y7368D01*
X10370Y7365D01*
X10375Y7363D01*
X10381D01*
X10386Y7365D01*
X10391Y7368D01*
X10394Y7373D01*
X10394Y7379D01*
X10396D01*
X10394D02*
X10394Y7385D01*
X10391Y7390D01*
X10386Y7393D01*
X10381Y7395D01*
X10375D01*
X10370Y7393D01*
X10365Y7390D01*
X10362Y7385D01*
X10362Y7379D01*
X10288Y8879D02*
X10290D01*
X10288D02*
X10290Y8866D01*
X10292Y8853D01*
X10297Y8840D01*
X10304Y8829D01*
X10312Y8818D01*
X10322Y8809D01*
X10333Y8801D01*
X10345Y8796D01*
X10358Y8792D01*
X10371Y8790D01*
X10385D01*
X10398Y8792D01*
X10411Y8796D01*
X10423Y8801D01*
X10434Y8809D01*
X10444Y8818D01*
X10452Y8829D01*
X10459Y8840D01*
X10464Y8853D01*
X10466Y8866D01*
X10468Y8879D01*
X10468D01*
X10468D02*
X10466Y8892D01*
X10464Y8905D01*
X10459Y8918D01*
X10452Y8929D01*
X10444Y8940D01*
X10434Y8949D01*
X10423Y8957D01*
X10411Y8962D01*
X10398Y8966D01*
X10385Y8968D01*
X10371D01*
X10358Y8966D01*
X10345Y8962D01*
X10333Y8957D01*
X10322Y8949D01*
X10312Y8940D01*
X10304Y8929D01*
X10297Y8918D01*
X10292Y8905D01*
X10290Y8892D01*
X10288Y8879D01*
X10362D02*
X10362D01*
X10362D02*
X10362Y8873D01*
X10365Y8868D01*
X10370Y8865D01*
X10375Y8863D01*
X10381D01*
X10386Y8865D01*
X10391Y8868D01*
X10394Y8873D01*
X10394Y8879D01*
X10396D01*
X10394D02*
X10394Y8885D01*
X10391Y8890D01*
X10386Y8893D01*
X10381Y8895D01*
X10375D01*
X10370Y8893D01*
X10365Y8890D01*
X10362Y8885D01*
X10362Y8879D01*
X8788D02*
X8790D01*
X8788D02*
X8790Y8866D01*
X8792Y8853D01*
X8797Y8840D01*
X8804Y8829D01*
X8812Y8818D01*
X8822Y8809D01*
X8833Y8801D01*
X8845Y8796D01*
X8858Y8792D01*
X8871Y8790D01*
X8885D01*
X8898Y8792D01*
X8911Y8796D01*
X8923Y8801D01*
X8934Y8809D01*
X8944Y8818D01*
X8952Y8829D01*
X8959Y8840D01*
X8964Y8853D01*
X8966Y8866D01*
X8968Y8879D01*
X8968D01*
X8968D02*
X8966Y8892D01*
X8964Y8905D01*
X8959Y8918D01*
X8952Y8929D01*
X8944Y8940D01*
X8934Y8949D01*
X8923Y8957D01*
X8911Y8962D01*
X8898Y8966D01*
X8885Y8968D01*
X8871D01*
X8858Y8966D01*
X8845Y8962D01*
X8833Y8957D01*
X8822Y8949D01*
X8812Y8940D01*
X8804Y8929D01*
X8797Y8918D01*
X8792Y8905D01*
X8790Y8892D01*
X8788Y8879D01*
X8862D02*
X8862D01*
X8862D02*
X8862Y8873D01*
X8865Y8868D01*
X8870Y8865D01*
X8875Y8863D01*
X8881D01*
X8886Y8865D01*
X8891Y8868D01*
X8894Y8873D01*
X8894Y8879D01*
X8896D01*
X8894D02*
X8894Y8885D01*
X8891Y8890D01*
X8886Y8893D01*
X8881Y8895D01*
X8875D01*
X8870Y8893D01*
X8865Y8890D01*
X8862Y8885D01*
X8862Y8879D01*
X8788Y7379D02*
X8790D01*
X8788D02*
X8790Y7366D01*
X8792Y7353D01*
X8797Y7340D01*
X8804Y7329D01*
X8812Y7318D01*
X8822Y7309D01*
X8833Y7301D01*
X8845Y7296D01*
X8858Y7292D01*
X8871Y7290D01*
X8885D01*
X8898Y7292D01*
X8911Y7296D01*
X8923Y7301D01*
X8934Y7309D01*
X8944Y7318D01*
X8952Y7329D01*
X8959Y7340D01*
X8964Y7353D01*
X8966Y7366D01*
X8968Y7379D01*
X8968D01*
X8968D02*
X8966Y7392D01*
X8964Y7405D01*
X8959Y7418D01*
X8952Y7429D01*
X8944Y7440D01*
X8934Y7449D01*
X8923Y7457D01*
X8911Y7462D01*
X8898Y7466D01*
X8885Y7468D01*
X8871D01*
X8858Y7466D01*
X8845Y7462D01*
X8833Y7457D01*
X8822Y7449D01*
X8812Y7440D01*
X8804Y7429D01*
X8797Y7418D01*
X8792Y7405D01*
X8790Y7392D01*
X8788Y7379D01*
X8862D02*
X8862D01*
X8862D02*
X8862Y7373D01*
X8865Y7368D01*
X8870Y7365D01*
X8875Y7363D01*
X8881D01*
X8886Y7365D01*
X8891Y7368D01*
X8894Y7373D01*
X8894Y7379D01*
X8896D01*
X8894D02*
X8894Y7385D01*
X8891Y7390D01*
X8886Y7393D01*
X8881Y7395D01*
X8875D01*
X8870Y7393D01*
X8865Y7390D01*
X8862Y7385D01*
X8862Y7379D01*
X9118Y7708D02*
X9118D01*
X9118D02*
X9118Y7695D01*
X9121Y7682D01*
X9126Y7669D01*
X9133Y7658D01*
X9141Y7647D01*
X9151Y7638D01*
X9162Y7630D01*
X9174Y7625D01*
X9187Y7621D01*
X9200Y7619D01*
X9214D01*
X9227Y7621D01*
X9240Y7625D01*
X9252Y7630D01*
X9263Y7638D01*
X9273Y7647D01*
X9281Y7658D01*
X9288Y7669D01*
X9293Y7682D01*
X9296Y7695D01*
X9296Y7708D01*
X9298D01*
X9296D02*
X9296Y7721D01*
X9293Y7734D01*
X9288Y7747D01*
X9281Y7758D01*
X9273Y7769D01*
X9263Y7778D01*
X9252Y7786D01*
X9240Y7791D01*
X9227Y7795D01*
X9214Y7797D01*
X9200D01*
X9187Y7795D01*
X9174Y7791D01*
X9162Y7786D01*
X9151Y7778D01*
X9141Y7769D01*
X9133Y7758D01*
X9126Y7747D01*
X9121Y7734D01*
X9118Y7721D01*
X9118Y7708D01*
X9190D02*
X9192D01*
X9190D02*
X9191Y7702D01*
X9194Y7697D01*
X9199Y7694D01*
X9204Y7692D01*
X9210D01*
X9215Y7694D01*
X9220Y7697D01*
X9223Y7702D01*
X9224Y7708D01*
X9224D01*
X9224D02*
X9223Y7714D01*
X9220Y7719D01*
X9215Y7722D01*
X9210Y7724D01*
X9204D01*
X9199Y7722D01*
X9194Y7719D01*
X9191Y7714D01*
X9190Y7708D01*
X9958Y8550D02*
X9960D01*
X9958D02*
X9960Y8537D01*
X9962Y8524D01*
X9967Y8511D01*
X9974Y8500D01*
X9982Y8489D01*
X9992Y8480D01*
X10003Y8472D01*
X10015Y8467D01*
X10028Y8463D01*
X10041Y8461D01*
X10055D01*
X10068Y8463D01*
X10081Y8467D01*
X10093Y8472D01*
X10104Y8480D01*
X10114Y8489D01*
X10122Y8500D01*
X10129Y8511D01*
X10134Y8524D01*
X10136Y8537D01*
X10138Y8550D01*
X10138D01*
X10138D02*
X10136Y8563D01*
X10134Y8576D01*
X10129Y8589D01*
X10122Y8600D01*
X10114Y8611D01*
X10104Y8620D01*
X10093Y8628D01*
X10081Y8633D01*
X10068Y8637D01*
X10055Y8639D01*
X10041D01*
X10028Y8637D01*
X10015Y8633D01*
X10003Y8628D01*
X9992Y8620D01*
X9982Y8611D01*
X9974Y8600D01*
X9967Y8589D01*
X9962Y8576D01*
X9960Y8563D01*
X9958Y8550D01*
X10032D02*
X10032D01*
X10032D02*
X10032Y8544D01*
X10035Y8539D01*
X10040Y8536D01*
X10045Y8534D01*
X10051D01*
X10056Y8536D01*
X10061Y8539D01*
X10064Y8544D01*
X10064Y8550D01*
X10066D01*
X10064D02*
X10064Y8556D01*
X10061Y8561D01*
X10056Y8564D01*
X10051Y8566D01*
X10045D01*
X10040Y8564D01*
X10035Y8561D01*
X10032Y8556D01*
X10032Y8550D01*
X12138Y7379D02*
X12140D01*
X12138D02*
X12140Y7366D01*
X12142Y7353D01*
X12147Y7340D01*
X12154Y7329D01*
X12162Y7318D01*
X12172Y7309D01*
X12183Y7301D01*
X12195Y7296D01*
X12208Y7292D01*
X12221Y7290D01*
X12235D01*
X12248Y7292D01*
X12261Y7296D01*
X12273Y7301D01*
X12284Y7309D01*
X12294Y7318D01*
X12302Y7329D01*
X12309Y7340D01*
X12314Y7353D01*
X12316Y7366D01*
X12318Y7379D01*
X12318D01*
X12318D02*
X12316Y7392D01*
X12314Y7405D01*
X12309Y7418D01*
X12302Y7429D01*
X12294Y7440D01*
X12284Y7449D01*
X12273Y7457D01*
X12261Y7462D01*
X12248Y7466D01*
X12235Y7468D01*
X12221D01*
X12208Y7466D01*
X12195Y7462D01*
X12183Y7457D01*
X12172Y7449D01*
X12162Y7440D01*
X12154Y7429D01*
X12147Y7418D01*
X12142Y7405D01*
X12140Y7392D01*
X12138Y7379D01*
X12212D02*
X12212D01*
X12212D02*
X12212Y7373D01*
X12215Y7368D01*
X12220Y7365D01*
X12225Y7363D01*
X12231D01*
X12236Y7365D01*
X12241Y7368D01*
X12244Y7373D01*
X12244Y7379D01*
X12246D01*
X12244D02*
X12244Y7385D01*
X12241Y7390D01*
X12236Y7393D01*
X12231Y7395D01*
X12225D01*
X12220Y7393D01*
X12215Y7390D01*
X12212Y7385D01*
X12212Y7379D01*
X12138Y8879D02*
X12140D01*
X12138D02*
X12140Y8866D01*
X12142Y8853D01*
X12147Y8840D01*
X12154Y8829D01*
X12162Y8818D01*
X12172Y8809D01*
X12183Y8801D01*
X12195Y8796D01*
X12208Y8792D01*
X12221Y8790D01*
X12235D01*
X12248Y8792D01*
X12261Y8796D01*
X12273Y8801D01*
X12284Y8809D01*
X12294Y8818D01*
X12302Y8829D01*
X12309Y8840D01*
X12314Y8853D01*
X12316Y8866D01*
X12318Y8879D01*
X12318D01*
X12318D02*
X12316Y8892D01*
X12314Y8905D01*
X12309Y8918D01*
X12302Y8929D01*
X12294Y8940D01*
X12284Y8949D01*
X12273Y8957D01*
X12261Y8962D01*
X12248Y8966D01*
X12235Y8968D01*
X12221D01*
X12208Y8966D01*
X12195Y8962D01*
X12183Y8957D01*
X12172Y8949D01*
X12162Y8940D01*
X12154Y8929D01*
X12147Y8918D01*
X12142Y8905D01*
X12140Y8892D01*
X12138Y8879D01*
X12212D02*
X12212D01*
X12212D02*
X12212Y8873D01*
X12215Y8868D01*
X12220Y8865D01*
X12225Y8863D01*
X12231D01*
X12236Y8865D01*
X12241Y8868D01*
X12244Y8873D01*
X12244Y8879D01*
X12246D01*
X12244D02*
X12244Y8885D01*
X12241Y8890D01*
X12236Y8893D01*
X12231Y8895D01*
X12225D01*
X12220Y8893D01*
X12215Y8890D01*
X12212Y8885D01*
X12212Y8879D01*
X10638D02*
X10640D01*
X10638D02*
X10640Y8866D01*
X10642Y8853D01*
X10647Y8840D01*
X10654Y8829D01*
X10662Y8818D01*
X10672Y8809D01*
X10683Y8801D01*
X10695Y8796D01*
X10708Y8792D01*
X10721Y8790D01*
X10735D01*
X10748Y8792D01*
X10761Y8796D01*
X10773Y8801D01*
X10784Y8809D01*
X10794Y8818D01*
X10802Y8829D01*
X10809Y8840D01*
X10814Y8853D01*
X10816Y8866D01*
X10818Y8879D01*
X10818D01*
X10818D02*
X10816Y8892D01*
X10814Y8905D01*
X10809Y8918D01*
X10802Y8929D01*
X10794Y8940D01*
X10784Y8949D01*
X10773Y8957D01*
X10761Y8962D01*
X10748Y8966D01*
X10735Y8968D01*
X10721D01*
X10708Y8966D01*
X10695Y8962D01*
X10683Y8957D01*
X10672Y8949D01*
X10662Y8940D01*
X10654Y8929D01*
X10647Y8918D01*
X10642Y8905D01*
X10640Y8892D01*
X10638Y8879D01*
X10712D02*
X10712D01*
X10712D02*
X10712Y8873D01*
X10715Y8868D01*
X10720Y8865D01*
X10725Y8863D01*
X10731D01*
X10736Y8865D01*
X10741Y8868D01*
X10744Y8873D01*
X10744Y8879D01*
X10746D01*
X10744D02*
X10744Y8885D01*
X10741Y8890D01*
X10736Y8893D01*
X10731Y8895D01*
X10725D01*
X10720Y8893D01*
X10715Y8890D01*
X10712Y8885D01*
X10712Y8879D01*
X10638Y7379D02*
X10640D01*
X10638D02*
X10640Y7366D01*
X10642Y7353D01*
X10647Y7340D01*
X10654Y7329D01*
X10662Y7318D01*
X10672Y7309D01*
X10683Y7301D01*
X10695Y7296D01*
X10708Y7292D01*
X10721Y7290D01*
X10735D01*
X10748Y7292D01*
X10761Y7296D01*
X10773Y7301D01*
X10784Y7309D01*
X10794Y7318D01*
X10802Y7329D01*
X10809Y7340D01*
X10814Y7353D01*
X10816Y7366D01*
X10818Y7379D01*
X10818D01*
X10818D02*
X10816Y7392D01*
X10814Y7405D01*
X10809Y7418D01*
X10802Y7429D01*
X10794Y7440D01*
X10784Y7449D01*
X10773Y7457D01*
X10761Y7462D01*
X10748Y7466D01*
X10735Y7468D01*
X10721D01*
X10708Y7466D01*
X10695Y7462D01*
X10683Y7457D01*
X10672Y7449D01*
X10662Y7440D01*
X10654Y7429D01*
X10647Y7418D01*
X10642Y7405D01*
X10640Y7392D01*
X10638Y7379D01*
X10712D02*
X10712D01*
X10712D02*
X10712Y7373D01*
X10715Y7368D01*
X10720Y7365D01*
X10725Y7363D01*
X10731D01*
X10736Y7365D01*
X10741Y7368D01*
X10744Y7373D01*
X10744Y7379D01*
X10746D01*
X10744D02*
X10744Y7385D01*
X10741Y7390D01*
X10736Y7393D01*
X10731Y7395D01*
X10725D01*
X10720Y7393D01*
X10715Y7390D01*
X10712Y7385D01*
X10712Y7379D01*
X11808Y8550D02*
X11810D01*
X11808D02*
X11810Y8537D01*
X11812Y8524D01*
X11817Y8511D01*
X11824Y8500D01*
X11832Y8489D01*
X11842Y8480D01*
X11853Y8472D01*
X11865Y8467D01*
X11878Y8463D01*
X11891Y8461D01*
X11905D01*
X11918Y8463D01*
X11931Y8467D01*
X11943Y8472D01*
X11954Y8480D01*
X11964Y8489D01*
X11972Y8500D01*
X11979Y8511D01*
X11984Y8524D01*
X11986Y8537D01*
X11988Y8550D01*
X11988D01*
X11988D02*
X11986Y8563D01*
X11984Y8576D01*
X11979Y8589D01*
X11972Y8600D01*
X11964Y8611D01*
X11954Y8620D01*
X11943Y8628D01*
X11931Y8633D01*
X11918Y8637D01*
X11905Y8639D01*
X11891D01*
X11878Y8637D01*
X11865Y8633D01*
X11853Y8628D01*
X11842Y8620D01*
X11832Y8611D01*
X11824Y8600D01*
X11817Y8589D01*
X11812Y8576D01*
X11810Y8563D01*
X11808Y8550D01*
X11882D02*
X11882D01*
X11882D02*
X11882Y8544D01*
X11885Y8539D01*
X11890Y8536D01*
X11895Y8534D01*
X11901D01*
X11906Y8536D01*
X11911Y8539D01*
X11914Y8544D01*
X11914Y8550D01*
X11916D01*
X11914D02*
X11914Y8556D01*
X11911Y8561D01*
X11906Y8564D01*
X11901Y8566D01*
X11895D01*
X11890Y8564D01*
X11885Y8561D01*
X11882Y8556D01*
X11882Y8550D01*
X10968Y7708D02*
X10968D01*
X10968D02*
X10968Y7695D01*
X10971Y7682D01*
X10976Y7669D01*
X10983Y7658D01*
X10991Y7647D01*
X11001Y7638D01*
X11012Y7630D01*
X11024Y7625D01*
X11037Y7621D01*
X11050Y7619D01*
X11064D01*
X11077Y7621D01*
X11090Y7625D01*
X11102Y7630D01*
X11113Y7638D01*
X11123Y7647D01*
X11131Y7658D01*
X11138Y7669D01*
X11143Y7682D01*
X11146Y7695D01*
X11146Y7708D01*
X11148D01*
X11146D02*
X11146Y7721D01*
X11143Y7734D01*
X11138Y7747D01*
X11131Y7758D01*
X11123Y7769D01*
X11113Y7778D01*
X11102Y7786D01*
X11090Y7791D01*
X11077Y7795D01*
X11064Y7797D01*
X11050D01*
X11037Y7795D01*
X11024Y7791D01*
X11012Y7786D01*
X11001Y7778D01*
X10991Y7769D01*
X10983Y7758D01*
X10976Y7747D01*
X10971Y7734D01*
X10968Y7721D01*
X10968Y7708D01*
X11040D02*
X11042D01*
X11040D02*
X11041Y7702D01*
X11044Y7697D01*
X11049Y7694D01*
X11054Y7692D01*
X11060D01*
X11065Y7694D01*
X11070Y7697D01*
X11073Y7702D01*
X11074Y7708D01*
X11074D01*
X11074D02*
X11073Y7714D01*
X11070Y7719D01*
X11065Y7722D01*
X11060Y7724D01*
X11054D01*
X11049Y7722D01*
X11044Y7719D01*
X11041Y7714D01*
X11040Y7708D01*
D26*
X7078Y7129D02*
D03*
Y6529D02*
D03*
X7378Y7129D02*
D03*
Y6529D02*
D03*
X7728Y6879D02*
D03*
X8028D02*
D03*
X7428Y9229D02*
D03*
X8028D02*
D03*
X8178D02*
D03*
X8778D02*
D03*
X10328Y6479D02*
D03*
Y7079D02*
D03*
X10078Y6479D02*
D03*
Y7079D02*
D03*
X9328Y6679D02*
D03*
X9628D02*
D03*
X9728Y9229D02*
D03*
X10328D02*
D03*
X8978D02*
D03*
X9578D02*
D03*
X11678Y6279D02*
D03*
X11078D02*
D03*
X11678Y6779D02*
D03*
X11078D02*
D03*
X11928D02*
D03*
X12228D02*
D03*
X11428Y9179D02*
D03*
X10828D02*
D03*
X12178D02*
D03*
X11578D02*
D03*
D28*
X8828Y6829D02*
D03*
Y6361D02*
D03*
Y6517D02*
D03*
Y6673D02*
D03*
X7576Y8232D02*
D03*
X7880Y7928D02*
D03*
X8628Y9529D02*
D03*
X9096D02*
D03*
X8940D02*
D03*
X8784D02*
D03*
X9730Y7928D02*
D03*
X9426Y8232D02*
D03*
X10828Y6279D02*
D03*
Y6747D02*
D03*
Y6591D02*
D03*
Y6435D02*
D03*
X11276Y8232D02*
D03*
X11580Y7928D02*
D03*
X11178Y9479D02*
D03*
X11646D02*
D03*
X11490D02*
D03*
X11334D02*
D03*
M02*
