G04 #@! TF.GenerationSoftware,KiCad,Pcbnew,(5.0.1)-3*
G04 #@! TF.CreationDate,2018-12-06T20:46:29-08:00*
G04 #@! TF.ProjectId,500-1070,3530302D313037302E6B696361645F70,rev?*
G04 #@! TF.SameCoordinates,Original*
G04 #@! TF.FileFunction,Copper,L2,Bot,Signal*
G04 #@! TF.FilePolarity,Positive*
%FSLAX46Y46*%
G04 Gerber Fmt 4.6, Leading zero omitted, Abs format (unit mm)*
G04 Created by KiCad (PCBNEW (5.0.1)-3) date 12/6/2018 8:46:29 PM*
%MOMM*%
%LPD*%
G01*
G04 APERTURE LIST*
G04 #@! TA.AperFunction,ComponentPad*
%ADD10C,1.574800*%
G04 #@! TD*
G04 #@! TA.AperFunction,ComponentPad*
%ADD11R,1.574800X1.574800*%
G04 #@! TD*
G04 #@! TA.AperFunction,ComponentPad*
%ADD12C,1.397000*%
G04 #@! TD*
G04 #@! TA.AperFunction,ViaPad*
%ADD13C,1.016000*%
G04 #@! TD*
G04 #@! TA.AperFunction,ViaPad*
%ADD14C,1.574800*%
G04 #@! TD*
G04 #@! TA.AperFunction,Conductor*
%ADD15C,1.270000*%
G04 #@! TD*
G04 #@! TA.AperFunction,Conductor*
%ADD16C,0.304800*%
G04 #@! TD*
G04 #@! TA.AperFunction,Conductor*
%ADD17C,0.508000*%
G04 #@! TD*
G04 APERTURE END LIST*
D10*
G04 #@! TO.P,P3,26*
G04 #@! TO.N,N/C*
X41910000Y-24130000D03*
G04 #@! TO.P,P3,25*
X44450000Y-24130000D03*
G04 #@! TO.P,P3,24*
G04 #@! TO.N,/Resonator_1/LEDaK*
X41910000Y-26670000D03*
G04 #@! TO.P,P3,23*
G04 #@! TO.N,/Resonator_1/LEDa*
X44450000Y-26670000D03*
G04 #@! TO.P,P3,22*
G04 #@! TO.N,N/C*
X41910000Y-29210000D03*
G04 #@! TO.P,P3,21*
X44450000Y-29210000D03*
G04 #@! TO.P,P3,20*
X41910000Y-31750000D03*
G04 #@! TO.P,P3,19*
X44450000Y-31750000D03*
G04 #@! TO.P,P3,18*
X41910000Y-34290000D03*
G04 #@! TO.P,P3,17*
X44450000Y-34290000D03*
G04 #@! TO.P,P3,16*
X41910000Y-36830000D03*
G04 #@! TO.P,P3,15*
G04 #@! TO.N,GND*
X44450000Y-36830000D03*
G04 #@! TO.P,P3,14*
G04 #@! TO.N,/Resonator_1/SUSa*
X41910000Y-39370000D03*
G04 #@! TO.P,P3,13*
G04 #@! TO.N,+10*
X44450000Y-39370000D03*
G04 #@! TO.P,P3,12*
G04 #@! TO.N,N/C*
X41910000Y-41910000D03*
G04 #@! TO.P,P3,11*
G04 #@! TO.N,+10*
X44450000Y-41910000D03*
G04 #@! TO.P,P3,10*
G04 #@! TO.N,/Resonator_1/RELEASEa*
X41910000Y-44450000D03*
G04 #@! TO.P,P3,9*
G04 #@! TO.N,GND*
X44450000Y-44450000D03*
G04 #@! TO.P,P3,8*
G04 #@! TO.N,N/C*
X41910000Y-46990000D03*
G04 #@! TO.P,P3,7*
G04 #@! TO.N,+10*
X44450000Y-46990000D03*
G04 #@! TO.P,P3,6*
G04 #@! TO.N,/Resonator_1/ATTACKa*
X41910000Y-49530000D03*
G04 #@! TO.P,P3,5*
G04 #@! TO.N,GND*
X44450000Y-49530000D03*
G04 #@! TO.P,P3,4*
G04 #@! TO.N,N/C*
X41910000Y-52070000D03*
G04 #@! TO.P,P3,3*
G04 #@! TO.N,GND*
X44450000Y-52070000D03*
G04 #@! TO.P,P3,2*
G04 #@! TO.N,/Resonator_1/RWa*
X41910000Y-54610000D03*
D11*
G04 #@! TO.P,P3,1*
G04 #@! TO.N,/Resonator_1/OUTa*
X44450000Y-54610000D03*
G04 #@! TD*
D10*
G04 #@! TO.P,P7,26*
G04 #@! TO.N,N/C*
X123825000Y-24130000D03*
G04 #@! TO.P,P7,25*
X126365000Y-24130000D03*
G04 #@! TO.P,P7,24*
G04 #@! TO.N,/Resonator_2/LEDaK*
X123825000Y-26670000D03*
G04 #@! TO.P,P7,23*
G04 #@! TO.N,/Resonator_2/LEDa*
X126365000Y-26670000D03*
G04 #@! TO.P,P7,22*
G04 #@! TO.N,N/C*
X123825000Y-29210000D03*
G04 #@! TO.P,P7,21*
X126365000Y-29210000D03*
G04 #@! TO.P,P7,20*
X123825000Y-31750000D03*
G04 #@! TO.P,P7,19*
X126365000Y-31750000D03*
G04 #@! TO.P,P7,18*
X123825000Y-34290000D03*
G04 #@! TO.P,P7,17*
X126365000Y-34290000D03*
G04 #@! TO.P,P7,16*
X123825000Y-36830000D03*
G04 #@! TO.P,P7,15*
G04 #@! TO.N,GND*
X126365000Y-36830000D03*
G04 #@! TO.P,P7,14*
G04 #@! TO.N,/Resonator_2/SUSa*
X123825000Y-39370000D03*
G04 #@! TO.P,P7,13*
G04 #@! TO.N,+10*
X126365000Y-39370000D03*
G04 #@! TO.P,P7,12*
G04 #@! TO.N,N/C*
X123825000Y-41910000D03*
G04 #@! TO.P,P7,11*
G04 #@! TO.N,+10*
X126365000Y-41910000D03*
G04 #@! TO.P,P7,10*
G04 #@! TO.N,/Resonator_2/RELEASEa*
X123825000Y-44450000D03*
G04 #@! TO.P,P7,9*
G04 #@! TO.N,GND*
X126365000Y-44450000D03*
G04 #@! TO.P,P7,8*
G04 #@! TO.N,N/C*
X123825000Y-46990000D03*
G04 #@! TO.P,P7,7*
G04 #@! TO.N,+10*
X126365000Y-46990000D03*
G04 #@! TO.P,P7,6*
G04 #@! TO.N,/Resonator_2/ATTACKa*
X123825000Y-49530000D03*
G04 #@! TO.P,P7,5*
G04 #@! TO.N,GND*
X126365000Y-49530000D03*
G04 #@! TO.P,P7,4*
G04 #@! TO.N,N/C*
X123825000Y-52070000D03*
G04 #@! TO.P,P7,3*
G04 #@! TO.N,GND*
X126365000Y-52070000D03*
G04 #@! TO.P,P7,2*
G04 #@! TO.N,/Resonator_2/RWa*
X123825000Y-54610000D03*
D11*
G04 #@! TO.P,P7,1*
G04 #@! TO.N,/Resonator_2/OUTa*
X126365000Y-54610000D03*
G04 #@! TD*
D10*
G04 #@! TO.P,P8,26*
G04 #@! TO.N,N/C*
X165735000Y-24130000D03*
G04 #@! TO.P,P8,25*
X168275000Y-24130000D03*
G04 #@! TO.P,P8,24*
G04 #@! TO.N,/Resonator_2/LEDbK*
X165735000Y-26670000D03*
G04 #@! TO.P,P8,23*
G04 #@! TO.N,/Resonator_2/LEDb*
X168275000Y-26670000D03*
G04 #@! TO.P,P8,22*
G04 #@! TO.N,N/C*
X165735000Y-29210000D03*
G04 #@! TO.P,P8,21*
X168275000Y-29210000D03*
G04 #@! TO.P,P8,20*
X165735000Y-31750000D03*
G04 #@! TO.P,P8,19*
X168275000Y-31750000D03*
G04 #@! TO.P,P8,18*
X165735000Y-34290000D03*
G04 #@! TO.P,P8,17*
X168275000Y-34290000D03*
G04 #@! TO.P,P8,16*
X165735000Y-36830000D03*
G04 #@! TO.P,P8,15*
G04 #@! TO.N,GND*
X168275000Y-36830000D03*
G04 #@! TO.P,P8,14*
G04 #@! TO.N,/Resonator_2/SUSb*
X165735000Y-39370000D03*
G04 #@! TO.P,P8,13*
G04 #@! TO.N,+10*
X168275000Y-39370000D03*
G04 #@! TO.P,P8,12*
G04 #@! TO.N,N/C*
X165735000Y-41910000D03*
G04 #@! TO.P,P8,11*
G04 #@! TO.N,+10*
X168275000Y-41910000D03*
G04 #@! TO.P,P8,10*
G04 #@! TO.N,/Resonator_2/RELEASEb*
X165735000Y-44450000D03*
G04 #@! TO.P,P8,9*
G04 #@! TO.N,GND*
X168275000Y-44450000D03*
G04 #@! TO.P,P8,8*
G04 #@! TO.N,N/C*
X165735000Y-46990000D03*
G04 #@! TO.P,P8,7*
G04 #@! TO.N,+10*
X168275000Y-46990000D03*
G04 #@! TO.P,P8,6*
G04 #@! TO.N,/Resonator_2/ATTACKb*
X165735000Y-49530000D03*
G04 #@! TO.P,P8,5*
G04 #@! TO.N,GND*
X168275000Y-49530000D03*
G04 #@! TO.P,P8,4*
G04 #@! TO.N,N/C*
X165735000Y-52070000D03*
G04 #@! TO.P,P8,3*
G04 #@! TO.N,GND*
X168275000Y-52070000D03*
G04 #@! TO.P,P8,2*
G04 #@! TO.N,/Resonator_2/RWb*
X165735000Y-54610000D03*
D11*
G04 #@! TO.P,P8,1*
G04 #@! TO.N,/Resonator_2/OUTb*
X168275000Y-54610000D03*
G04 #@! TD*
D10*
G04 #@! TO.P,C2,1*
G04 #@! TO.N,+15V0*
X222250000Y-80010000D03*
G04 #@! TO.P,C2,2*
G04 #@! TO.N,GND*
X229870000Y-80010000D03*
G04 #@! TD*
G04 #@! TO.P,C3,2*
G04 #@! TO.N,GND*
X222250000Y-67310000D03*
G04 #@! TO.P,C3,1*
G04 #@! TO.N,-15V0*
X229870000Y-67310000D03*
G04 #@! TD*
G04 #@! TO.P,C4,1*
G04 #@! TO.N,+15V0*
X222250000Y-102235000D03*
G04 #@! TO.P,C4,2*
G04 #@! TO.N,GND*
X229870000Y-102235000D03*
G04 #@! TD*
G04 #@! TO.P,C5,2*
G04 #@! TO.N,GND*
X222250000Y-82550000D03*
G04 #@! TO.P,C5,1*
G04 #@! TO.N,-15V0*
X229870000Y-82550000D03*
G04 #@! TD*
G04 #@! TO.P,C6,2*
G04 #@! TO.N,/Resonator_1/OUTa*
X53340000Y-66040000D03*
G04 #@! TO.P,C6,1*
G04 #@! TO.N,Net-(C6-Pad1)*
X48260000Y-66040000D03*
G04 #@! TD*
G04 #@! TO.P,C7,1*
G04 #@! TO.N,Net-(C7-Pad1)*
X91440000Y-58420000D03*
G04 #@! TO.P,C7,2*
G04 #@! TO.N,/Resonator_1/OUTb*
X86360000Y-58420000D03*
G04 #@! TD*
G04 #@! TO.P,C8,2*
G04 #@! TO.N,Net-(C8-Pad2)*
X50800000Y-81280000D03*
G04 #@! TO.P,C8,1*
G04 #@! TO.N,Net-(C8-Pad1)*
X45720000Y-81280000D03*
G04 #@! TD*
G04 #@! TO.P,C9,1*
G04 #@! TO.N,Net-(C9-Pad1)*
X86360000Y-78740000D03*
G04 #@! TO.P,C9,2*
G04 #@! TO.N,Net-(C9-Pad2)*
X91440000Y-78740000D03*
G04 #@! TD*
G04 #@! TO.P,C10,2*
G04 #@! TO.N,Net-(C10-Pad2)*
X48260000Y-58420000D03*
G04 #@! TO.P,C10,1*
G04 #@! TO.N,Net-(C10-Pad1)*
X53340000Y-58420000D03*
G04 #@! TD*
G04 #@! TO.P,C11,2*
G04 #@! TO.N,Net-(C11-Pad2)*
X91440000Y-66040000D03*
G04 #@! TO.P,C11,1*
G04 #@! TO.N,Net-(C11-Pad1)*
X86360000Y-66040000D03*
G04 #@! TD*
G04 #@! TO.P,C12,1*
G04 #@! TO.N,Net-(C12-Pad1)*
X48260000Y-93980000D03*
G04 #@! TO.P,C12,2*
G04 #@! TO.N,/Resonator_1/FW1a*
X53340000Y-93980000D03*
G04 #@! TD*
G04 #@! TO.P,C13,2*
G04 #@! TO.N,/Resonator_1/FW1b*
X91440000Y-91440000D03*
G04 #@! TO.P,C13,1*
G04 #@! TO.N,Net-(C13-Pad1)*
X86360000Y-91440000D03*
G04 #@! TD*
G04 #@! TO.P,C14,1*
G04 #@! TO.N,+15V0*
X57150000Y-83820000D03*
G04 #@! TO.P,C14,2*
G04 #@! TO.N,GND*
X64770000Y-83820000D03*
G04 #@! TD*
G04 #@! TO.P,C15,2*
G04 #@! TO.N,GND*
X105410000Y-68580000D03*
G04 #@! TO.P,C15,1*
G04 #@! TO.N,+15V0*
X97790000Y-68580000D03*
G04 #@! TD*
G04 #@! TO.P,C16,1*
G04 #@! TO.N,+15V0*
X57150000Y-68580000D03*
G04 #@! TO.P,C16,2*
G04 #@! TO.N,GND*
X64770000Y-68580000D03*
G04 #@! TD*
G04 #@! TO.P,C17,1*
G04 #@! TO.N,+15V0*
X57150000Y-49530000D03*
G04 #@! TO.P,C17,2*
G04 #@! TO.N,GND*
X64770000Y-49530000D03*
G04 #@! TD*
G04 #@! TO.P,C18,2*
G04 #@! TO.N,GND*
X105410000Y-49530000D03*
G04 #@! TO.P,C18,1*
G04 #@! TO.N,+15V0*
X97790000Y-49530000D03*
G04 #@! TD*
G04 #@! TO.P,C19,1*
G04 #@! TO.N,-15V0*
X64770000Y-71120000D03*
G04 #@! TO.P,C19,2*
G04 #@! TO.N,GND*
X57150000Y-71120000D03*
G04 #@! TD*
G04 #@! TO.P,C20,2*
G04 #@! TO.N,GND*
X97790000Y-55880000D03*
G04 #@! TO.P,C20,1*
G04 #@! TO.N,-15V0*
X105410000Y-55880000D03*
G04 #@! TD*
G04 #@! TO.P,C21,1*
G04 #@! TO.N,-15V0*
X64770000Y-54610000D03*
G04 #@! TO.P,C21,2*
G04 #@! TO.N,GND*
X57150000Y-54610000D03*
G04 #@! TD*
G04 #@! TO.P,C22,1*
G04 #@! TO.N,-15V0*
X105410000Y-22860000D03*
G04 #@! TO.P,C22,2*
G04 #@! TO.N,GND*
X97790000Y-22860000D03*
G04 #@! TD*
G04 #@! TO.P,C23,1*
G04 #@! TO.N,+15V0*
X97790000Y-83820000D03*
G04 #@! TO.P,C23,2*
G04 #@! TO.N,GND*
X105410000Y-83820000D03*
G04 #@! TD*
G04 #@! TO.P,C24,2*
G04 #@! TO.N,GND*
X57150000Y-24130000D03*
G04 #@! TO.P,C24,1*
G04 #@! TO.N,-15V0*
X64770000Y-24130000D03*
G04 #@! TD*
G04 #@! TO.P,C25,2*
G04 #@! TO.N,GND*
X64770000Y-100330000D03*
G04 #@! TO.P,C25,1*
G04 #@! TO.N,+15V0*
X57150000Y-100330000D03*
G04 #@! TD*
G04 #@! TO.P,C26,1*
G04 #@! TO.N,+15V0*
X97790000Y-100330000D03*
G04 #@! TO.P,C26,2*
G04 #@! TO.N,GND*
X105410000Y-100330000D03*
G04 #@! TD*
G04 #@! TO.P,C27,2*
G04 #@! TO.N,GND*
X97790000Y-71120000D03*
G04 #@! TO.P,C27,1*
G04 #@! TO.N,-15V0*
X105410000Y-71120000D03*
G04 #@! TD*
G04 #@! TO.P,C28,1*
G04 #@! TO.N,-15V0*
X64770000Y-86360000D03*
G04 #@! TO.P,C28,2*
G04 #@! TO.N,GND*
X57150000Y-86360000D03*
G04 #@! TD*
G04 #@! TO.P,C29,2*
G04 #@! TO.N,GND*
X97790000Y-86360000D03*
G04 #@! TO.P,C29,1*
G04 #@! TO.N,-15V0*
X105410000Y-86360000D03*
G04 #@! TD*
G04 #@! TO.P,C30,1*
G04 #@! TO.N,Net-(C30-Pad1)*
X134620000Y-58420000D03*
G04 #@! TO.P,C30,2*
G04 #@! TO.N,/Resonator_2/OUTa*
X129540000Y-58420000D03*
G04 #@! TD*
G04 #@! TO.P,C31,2*
G04 #@! TO.N,/Resonator_2/OUTb*
X171450000Y-58420000D03*
G04 #@! TO.P,C31,1*
G04 #@! TO.N,Net-(C31-Pad1)*
X176530000Y-58420000D03*
G04 #@! TD*
G04 #@! TO.P,C32,1*
G04 #@! TO.N,Net-(C32-Pad1)*
X133985000Y-69850000D03*
G04 #@! TO.P,C32,2*
G04 #@! TO.N,Net-(C32-Pad2)*
X133985000Y-74930000D03*
G04 #@! TD*
G04 #@! TO.P,C33,1*
G04 #@! TO.N,Net-(C33-Pad1)*
X176530000Y-71120000D03*
G04 #@! TO.P,C33,2*
G04 #@! TO.N,Net-(C33-Pad2)*
X176530000Y-76200000D03*
G04 #@! TD*
G04 #@! TO.P,C34,1*
G04 #@! TO.N,Net-(C34-Pad1)*
X129540000Y-63500000D03*
G04 #@! TO.P,C34,2*
G04 #@! TO.N,Net-(C34-Pad2)*
X134620000Y-63500000D03*
G04 #@! TD*
G04 #@! TO.P,C35,1*
G04 #@! TO.N,Net-(C35-Pad1)*
X171450000Y-63500000D03*
G04 #@! TO.P,C35,2*
G04 #@! TO.N,Net-(C35-Pad2)*
X176530000Y-63500000D03*
G04 #@! TD*
G04 #@! TO.P,C36,1*
G04 #@! TO.N,Net-(C36-Pad1)*
X134620000Y-88900000D03*
G04 #@! TO.P,C36,2*
G04 #@! TO.N,/Resonator_2/FW1a*
X129540000Y-88900000D03*
G04 #@! TD*
G04 #@! TO.P,C37,1*
G04 #@! TO.N,Net-(C37-Pad1)*
X176530000Y-88900000D03*
G04 #@! TO.P,C37,2*
G04 #@! TO.N,/Resonator_2/FW1b*
X171450000Y-88900000D03*
G04 #@! TD*
G04 #@! TO.P,C38,1*
G04 #@! TO.N,+15V0*
X138430000Y-100330000D03*
G04 #@! TO.P,C38,2*
G04 #@! TO.N,GND*
X146050000Y-100330000D03*
G04 #@! TD*
G04 #@! TO.P,C39,1*
G04 #@! TO.N,+15V0*
X180340000Y-100330000D03*
G04 #@! TO.P,C39,2*
G04 #@! TO.N,GND*
X187960000Y-100330000D03*
G04 #@! TD*
G04 #@! TO.P,C40,2*
G04 #@! TO.N,GND*
X146050000Y-68580000D03*
G04 #@! TO.P,C40,1*
G04 #@! TO.N,+15V0*
X138430000Y-68580000D03*
G04 #@! TD*
G04 #@! TO.P,C41,2*
G04 #@! TO.N,GND*
X146050000Y-49530000D03*
G04 #@! TO.P,C41,1*
G04 #@! TO.N,+15V0*
X138430000Y-49530000D03*
G04 #@! TD*
G04 #@! TO.P,C42,1*
G04 #@! TO.N,-15V0*
X146050000Y-86360000D03*
G04 #@! TO.P,C42,2*
G04 #@! TO.N,GND*
X138430000Y-86360000D03*
G04 #@! TD*
G04 #@! TO.P,C43,1*
G04 #@! TO.N,+15V0*
X180340000Y-52070000D03*
G04 #@! TO.P,C43,2*
G04 #@! TO.N,GND*
X187960000Y-52070000D03*
G04 #@! TD*
G04 #@! TO.P,C44,2*
G04 #@! TO.N,GND*
X180340000Y-86360000D03*
G04 #@! TO.P,C44,1*
G04 #@! TO.N,-15V0*
X187960000Y-86360000D03*
G04 #@! TD*
G04 #@! TO.P,C45,2*
G04 #@! TO.N,GND*
X138430000Y-55880000D03*
G04 #@! TO.P,C45,1*
G04 #@! TO.N,-15V0*
X146050000Y-55880000D03*
G04 #@! TD*
G04 #@! TO.P,C46,2*
G04 #@! TO.N,GND*
X146050000Y-83820000D03*
G04 #@! TO.P,C46,1*
G04 #@! TO.N,+15V0*
X138430000Y-83820000D03*
G04 #@! TD*
G04 #@! TO.P,C47,2*
G04 #@! TO.N,GND*
X180340000Y-21590000D03*
G04 #@! TO.P,C47,1*
G04 #@! TO.N,-15V0*
X187960000Y-21590000D03*
G04 #@! TD*
G04 #@! TO.P,C48,1*
G04 #@! TO.N,-15V0*
X146050000Y-22860000D03*
G04 #@! TO.P,C48,2*
G04 #@! TO.N,GND*
X138430000Y-22860000D03*
G04 #@! TD*
G04 #@! TO.P,C49,2*
G04 #@! TO.N,GND*
X187960000Y-68580000D03*
G04 #@! TO.P,C49,1*
G04 #@! TO.N,+15V0*
X180340000Y-68580000D03*
G04 #@! TD*
G04 #@! TO.P,C50,1*
G04 #@! TO.N,+15V0*
X180340000Y-83820000D03*
G04 #@! TO.P,C50,2*
G04 #@! TO.N,GND*
X187960000Y-83820000D03*
G04 #@! TD*
G04 #@! TO.P,C51,1*
G04 #@! TO.N,-15V0*
X146050000Y-71120000D03*
G04 #@! TO.P,C51,2*
G04 #@! TO.N,GND*
X138430000Y-71120000D03*
G04 #@! TD*
G04 #@! TO.P,C52,1*
G04 #@! TO.N,-15V0*
X187960000Y-55880000D03*
G04 #@! TO.P,C52,2*
G04 #@! TO.N,GND*
X180340000Y-55880000D03*
G04 #@! TD*
G04 #@! TO.P,C53,2*
G04 #@! TO.N,GND*
X180340000Y-71120000D03*
G04 #@! TO.P,C53,1*
G04 #@! TO.N,-15V0*
X187960000Y-71120000D03*
G04 #@! TD*
G04 #@! TO.P,D1,2*
G04 #@! TO.N,GND*
X78740000Y-66040000D03*
G04 #@! TO.P,D1,1*
G04 #@! TO.N,Net-(D1-Pad1)*
X68580000Y-66040000D03*
G04 #@! TD*
G04 #@! TO.P,D2,1*
G04 #@! TO.N,Net-(D2-Pad1)*
X68580000Y-55880000D03*
G04 #@! TO.P,D2,2*
G04 #@! TO.N,GND*
X78740000Y-55880000D03*
G04 #@! TD*
G04 #@! TO.P,D3,2*
G04 #@! TO.N,Net-(D3-Pad2)*
X218440000Y-95250000D03*
G04 #@! TO.P,D3,1*
G04 #@! TO.N,+5V0*
X208280000Y-95250000D03*
G04 #@! TD*
G04 #@! TO.P,D4,1*
G04 #@! TO.N,+5V0*
X208280000Y-82550000D03*
G04 #@! TO.P,D4,2*
G04 #@! TO.N,Net-(D4-Pad2)*
X218440000Y-82550000D03*
G04 #@! TD*
G04 #@! TO.P,D5,2*
G04 #@! TO.N,GND*
X218440000Y-97790000D03*
G04 #@! TO.P,D5,1*
G04 #@! TO.N,Net-(D3-Pad2)*
X208280000Y-97790000D03*
G04 #@! TD*
G04 #@! TO.P,D6,1*
G04 #@! TO.N,Net-(D4-Pad2)*
X208280000Y-85090000D03*
G04 #@! TO.P,D6,2*
G04 #@! TO.N,GND*
X218440000Y-85090000D03*
G04 #@! TD*
G04 #@! TO.P,D7,1*
G04 #@! TO.N,Net-(D7-Pad1)*
X160020000Y-68580000D03*
G04 #@! TO.P,D7,2*
G04 #@! TO.N,GND*
X149860000Y-68580000D03*
G04 #@! TD*
G04 #@! TO.P,D8,1*
G04 #@! TO.N,Net-(D8-Pad1)*
X151130000Y-55880000D03*
G04 #@! TO.P,D8,2*
G04 #@! TO.N,GND*
X161290000Y-55880000D03*
G04 #@! TD*
G04 #@! TO.P,D9,1*
G04 #@! TO.N,+5V0*
X191770000Y-92710000D03*
G04 #@! TO.P,D9,2*
G04 #@! TO.N,Net-(D11-Pad1)*
X201930000Y-92710000D03*
G04 #@! TD*
G04 #@! TO.P,D10,1*
G04 #@! TO.N,+5V0*
X191770000Y-85090000D03*
G04 #@! TO.P,D10,2*
G04 #@! TO.N,Net-(D10-Pad2)*
X201930000Y-85090000D03*
G04 #@! TD*
G04 #@! TO.P,D11,2*
G04 #@! TO.N,GND*
X201930000Y-95250000D03*
G04 #@! TO.P,D11,1*
G04 #@! TO.N,Net-(D11-Pad1)*
X191770000Y-95250000D03*
G04 #@! TD*
G04 #@! TO.P,D12,2*
G04 #@! TO.N,GND*
X201930000Y-87630000D03*
G04 #@! TO.P,D12,1*
G04 #@! TO.N,Net-(D10-Pad2)*
X191770000Y-87630000D03*
G04 #@! TD*
D11*
G04 #@! TO.P,P1,1*
G04 #@! TO.N,/Resonator_1/FH1a*
X82550000Y-107950000D03*
D10*
G04 #@! TO.P,P1,2*
G04 #@! TO.N,/Resonator_1/FW1a*
X82550000Y-110490000D03*
G04 #@! TO.P,P1,3*
X80010000Y-107950000D03*
G04 #@! TO.P,P1,4*
G04 #@! TO.N,N/C*
X80010000Y-110490000D03*
G04 #@! TO.P,P1,5*
G04 #@! TO.N,/Resonator_1/FH2a*
X77470000Y-107950000D03*
G04 #@! TO.P,P1,6*
G04 #@! TO.N,/Resonator_1/FW2a*
X77470000Y-110490000D03*
G04 #@! TO.P,P1,7*
X74930000Y-107950000D03*
G04 #@! TO.P,P1,8*
G04 #@! TO.N,N/C*
X74930000Y-110490000D03*
G04 #@! TO.P,P1,9*
G04 #@! TO.N,/Resonator_1/FH1b*
X72390000Y-107950000D03*
G04 #@! TO.P,P1,10*
G04 #@! TO.N,/Resonator_1/FW1b*
X72390000Y-110490000D03*
G04 #@! TO.P,P1,11*
X69850000Y-107950000D03*
G04 #@! TO.P,P1,12*
G04 #@! TO.N,N/C*
X69850000Y-110490000D03*
G04 #@! TO.P,P1,13*
G04 #@! TO.N,/Resonator_1/FH2b*
X67310000Y-107950000D03*
G04 #@! TO.P,P1,14*
G04 #@! TO.N,/Resonator_1/FW2b*
X67310000Y-110490000D03*
G04 #@! TO.P,P1,15*
X64770000Y-107950000D03*
G04 #@! TO.P,P1,16*
G04 #@! TO.N,N/C*
X64770000Y-110490000D03*
G04 #@! TD*
G04 #@! TO.P,P6,16*
G04 #@! TO.N,N/C*
X148590000Y-110490000D03*
G04 #@! TO.P,P6,15*
G04 #@! TO.N,/Resonator_2/FW2b*
X148590000Y-107950000D03*
G04 #@! TO.P,P6,14*
X151130000Y-110490000D03*
G04 #@! TO.P,P6,13*
G04 #@! TO.N,/Resonator_2/FH2b*
X151130000Y-107950000D03*
G04 #@! TO.P,P6,12*
G04 #@! TO.N,N/C*
X153670000Y-110490000D03*
G04 #@! TO.P,P6,11*
G04 #@! TO.N,/Resonator_2/FW1b*
X153670000Y-107950000D03*
G04 #@! TO.P,P6,10*
X156210000Y-110490000D03*
G04 #@! TO.P,P6,9*
G04 #@! TO.N,/Resonator_2/FH1b*
X156210000Y-107950000D03*
G04 #@! TO.P,P6,8*
G04 #@! TO.N,N/C*
X158750000Y-110490000D03*
G04 #@! TO.P,P6,7*
G04 #@! TO.N,/Resonator_2/FW2a*
X158750000Y-107950000D03*
G04 #@! TO.P,P6,6*
X161290000Y-110490000D03*
G04 #@! TO.P,P6,5*
G04 #@! TO.N,/Resonator_2/FH2a*
X161290000Y-107950000D03*
G04 #@! TO.P,P6,4*
G04 #@! TO.N,N/C*
X163830000Y-110490000D03*
G04 #@! TO.P,P6,3*
G04 #@! TO.N,/Resonator_2/FW1a*
X163830000Y-107950000D03*
G04 #@! TO.P,P6,2*
X166370000Y-110490000D03*
D11*
G04 #@! TO.P,P6,1*
G04 #@! TO.N,/Resonator_2/FH1a*
X166370000Y-107950000D03*
G04 #@! TD*
D12*
G04 #@! TO.P,Q1,1*
G04 #@! TO.N,+10*
X212090000Y-50800000D03*
G04 #@! TO.P,Q1,2*
G04 #@! TO.N,Net-(Q1-Pad2)*
X213360000Y-49530000D03*
G04 #@! TO.P,Q1,3*
G04 #@! TO.N,Net-(Q1-Pad3)*
X214630000Y-50800000D03*
G04 #@! TD*
G04 #@! TO.P,Q2,3*
G04 #@! TO.N,+15V0*
X214630000Y-54610000D03*
G04 #@! TO.P,Q2,2*
G04 #@! TO.N,Net-(Q1-Pad3)*
X213360000Y-53340000D03*
G04 #@! TO.P,Q2,1*
G04 #@! TO.N,Net-(Q1-Pad2)*
X212090000Y-54610000D03*
G04 #@! TD*
G04 #@! TO.P,Q3,1*
G04 #@! TO.N,Net-(D1-Pad1)*
X71120000Y-59690000D03*
G04 #@! TO.P,Q3,2*
G04 #@! TO.N,GND*
X72390000Y-58420000D03*
G04 #@! TO.P,Q3,3*
G04 #@! TO.N,/Resonator_1/LEDb*
X73660000Y-59690000D03*
G04 #@! TD*
G04 #@! TO.P,Q4,3*
G04 #@! TO.N,/Resonator_1/LEDa*
X73660000Y-50800000D03*
G04 #@! TO.P,Q4,2*
G04 #@! TO.N,GND*
X72390000Y-49530000D03*
G04 #@! TO.P,Q4,1*
G04 #@! TO.N,Net-(D2-Pad1)*
X71120000Y-50800000D03*
G04 #@! TD*
G04 #@! TO.P,Q5,5*
G04 #@! TO.N,Net-(Q5-Pad5)*
X45720000Y-78740000D03*
G04 #@! TO.P,Q5,4*
G04 #@! TO.N,Net-(Q5-Pad1)*
X46990000Y-77470000D03*
G04 #@! TO.P,Q5,6*
G04 #@! TO.N,Net-(C10-Pad1)*
X44450000Y-77470000D03*
G04 #@! TO.P,Q5,1*
G04 #@! TO.N,Net-(Q5-Pad1)*
X44450000Y-74930000D03*
G04 #@! TO.P,Q5,3*
G04 #@! TO.N,Net-(C8-Pad1)*
X46990000Y-74930000D03*
G04 #@! TO.P,Q5,2*
G04 #@! TO.N,GND*
X45720000Y-73660000D03*
G04 #@! TD*
G04 #@! TO.P,Q6,5*
G04 #@! TO.N,GND*
X50800000Y-78740000D03*
G04 #@! TO.P,Q6,4*
G04 #@! TO.N,Net-(Q5-Pad1)*
X52070000Y-77470000D03*
G04 #@! TO.P,Q6,6*
G04 #@! TO.N,Net-(C10-Pad1)*
X49530000Y-77470000D03*
G04 #@! TO.P,Q6,1*
G04 #@! TO.N,Net-(Q5-Pad1)*
X49530000Y-74930000D03*
G04 #@! TO.P,Q6,3*
G04 #@! TO.N,Net-(C8-Pad1)*
X52070000Y-74930000D03*
G04 #@! TO.P,Q6,2*
G04 #@! TO.N,Net-(Q6-Pad2)*
X50800000Y-73660000D03*
G04 #@! TD*
G04 #@! TO.P,Q7,5*
G04 #@! TO.N,Net-(Q7-Pad5)*
X86360000Y-76200000D03*
G04 #@! TO.P,Q7,4*
G04 #@! TO.N,Net-(Q7-Pad1)*
X87630000Y-74930000D03*
G04 #@! TO.P,Q7,6*
G04 #@! TO.N,Net-(C11-Pad1)*
X85090000Y-74930000D03*
G04 #@! TO.P,Q7,1*
G04 #@! TO.N,Net-(Q7-Pad1)*
X85090000Y-72390000D03*
G04 #@! TO.P,Q7,3*
G04 #@! TO.N,Net-(C9-Pad1)*
X87630000Y-72390000D03*
G04 #@! TO.P,Q7,2*
G04 #@! TO.N,GND*
X86360000Y-71120000D03*
G04 #@! TD*
G04 #@! TO.P,Q8,2*
G04 #@! TO.N,Net-(Q8-Pad2)*
X91440000Y-71120000D03*
G04 #@! TO.P,Q8,3*
G04 #@! TO.N,Net-(C9-Pad1)*
X92710000Y-72390000D03*
G04 #@! TO.P,Q8,1*
G04 #@! TO.N,Net-(Q7-Pad1)*
X90170000Y-72390000D03*
G04 #@! TO.P,Q8,6*
G04 #@! TO.N,Net-(C11-Pad1)*
X90170000Y-74930000D03*
G04 #@! TO.P,Q8,4*
G04 #@! TO.N,Net-(Q7-Pad1)*
X92710000Y-74930000D03*
G04 #@! TO.P,Q8,5*
G04 #@! TO.N,GND*
X91440000Y-76200000D03*
G04 #@! TD*
G04 #@! TO.P,Q9,3*
G04 #@! TO.N,/Resonator_2/LEDb*
X160655000Y-27305000D03*
G04 #@! TO.P,Q9,2*
G04 #@! TO.N,GND*
X159385000Y-26035000D03*
G04 #@! TO.P,Q9,1*
G04 #@! TO.N,Net-(D7-Pad1)*
X158115000Y-27305000D03*
G04 #@! TD*
G04 #@! TO.P,Q10,1*
G04 #@! TO.N,Net-(D8-Pad1)*
X157480000Y-49530000D03*
G04 #@! TO.P,Q10,2*
G04 #@! TO.N,GND*
X158750000Y-48260000D03*
G04 #@! TO.P,Q10,3*
G04 #@! TO.N,/Resonator_2/LEDa*
X160020000Y-49530000D03*
G04 #@! TD*
G04 #@! TO.P,Q11,5*
G04 #@! TO.N,Net-(Q11-Pad5)*
X125095000Y-75565000D03*
G04 #@! TO.P,Q11,4*
G04 #@! TO.N,Net-(Q11-Pad1)*
X126365000Y-74295000D03*
G04 #@! TO.P,Q11,6*
G04 #@! TO.N,Net-(C34-Pad1)*
X123825000Y-74295000D03*
G04 #@! TO.P,Q11,1*
G04 #@! TO.N,Net-(Q11-Pad1)*
X123825000Y-71755000D03*
G04 #@! TO.P,Q11,3*
G04 #@! TO.N,Net-(C32-Pad1)*
X126365000Y-71755000D03*
G04 #@! TO.P,Q11,2*
G04 #@! TO.N,GND*
X125095000Y-70485000D03*
G04 #@! TD*
G04 #@! TO.P,Q12,2*
G04 #@! TO.N,Net-(Q12-Pad2)*
X130175000Y-70485000D03*
G04 #@! TO.P,Q12,3*
G04 #@! TO.N,Net-(C32-Pad1)*
X131445000Y-71755000D03*
G04 #@! TO.P,Q12,1*
G04 #@! TO.N,Net-(Q11-Pad1)*
X128905000Y-71755000D03*
G04 #@! TO.P,Q12,6*
G04 #@! TO.N,Net-(C34-Pad1)*
X128905000Y-74295000D03*
G04 #@! TO.P,Q12,4*
G04 #@! TO.N,Net-(Q11-Pad1)*
X131445000Y-74295000D03*
G04 #@! TO.P,Q12,5*
G04 #@! TO.N,GND*
X130175000Y-75565000D03*
G04 #@! TD*
G04 #@! TO.P,Q13,2*
G04 #@! TO.N,GND*
X167640000Y-70485000D03*
G04 #@! TO.P,Q13,3*
G04 #@! TO.N,Net-(C33-Pad1)*
X168910000Y-71755000D03*
G04 #@! TO.P,Q13,1*
G04 #@! TO.N,Net-(Q13-Pad1)*
X166370000Y-71755000D03*
G04 #@! TO.P,Q13,6*
G04 #@! TO.N,Net-(C35-Pad1)*
X166370000Y-74295000D03*
G04 #@! TO.P,Q13,4*
G04 #@! TO.N,Net-(Q13-Pad1)*
X168910000Y-74295000D03*
G04 #@! TO.P,Q13,5*
G04 #@! TO.N,Net-(Q13-Pad5)*
X167640000Y-75565000D03*
G04 #@! TD*
G04 #@! TO.P,Q14,5*
G04 #@! TO.N,GND*
X172720000Y-75565000D03*
G04 #@! TO.P,Q14,4*
G04 #@! TO.N,Net-(Q13-Pad1)*
X173990000Y-74295000D03*
G04 #@! TO.P,Q14,6*
G04 #@! TO.N,Net-(C35-Pad1)*
X171450000Y-74295000D03*
G04 #@! TO.P,Q14,1*
G04 #@! TO.N,Net-(Q13-Pad1)*
X171450000Y-71755000D03*
G04 #@! TO.P,Q14,3*
G04 #@! TO.N,Net-(C33-Pad1)*
X173990000Y-71755000D03*
G04 #@! TO.P,Q14,2*
G04 #@! TO.N,Net-(Q14-Pad2)*
X172720000Y-70485000D03*
G04 #@! TD*
D10*
G04 #@! TO.P,R1,1*
G04 #@! TO.N,Net-(C1-Pad2)*
X218440000Y-90170000D03*
G04 #@! TO.P,R1,2*
G04 #@! TO.N,GND*
X208280000Y-90170000D03*
G04 #@! TD*
G04 #@! TO.P,R2,2*
G04 #@! TO.N,Net-(R2-Pad2)*
X220980000Y-22860000D03*
G04 #@! TO.P,R2,1*
G04 #@! TO.N,Net-(R2-Pad1)*
X220980000Y-33020000D03*
G04 #@! TD*
G04 #@! TO.P,R3,1*
G04 #@! TO.N,Net-(R2-Pad2)*
X215900000Y-22860000D03*
G04 #@! TO.P,R3,2*
G04 #@! TO.N,Net-(R3-Pad2)*
X218440000Y-27940000D03*
G04 #@! TO.P,R3,3*
G04 #@! TO.N,Net-(R3-Pad3)*
X215900000Y-35560000D03*
G04 #@! TD*
G04 #@! TO.P,R4,1*
G04 #@! TO.N,Net-(R3-Pad3)*
X223520000Y-33020000D03*
G04 #@! TO.P,R4,2*
G04 #@! TO.N,GND*
X223520000Y-22860000D03*
G04 #@! TD*
G04 #@! TO.P,R5,1*
G04 #@! TO.N,+15V0*
X226060000Y-33020000D03*
G04 #@! TO.P,R5,2*
G04 #@! TO.N,Net-(R2-Pad1)*
X226060000Y-22860000D03*
G04 #@! TD*
G04 #@! TO.P,R6,1*
G04 #@! TO.N,Net-(R6-Pad1)*
X208280000Y-62230000D03*
G04 #@! TO.P,R6,2*
G04 #@! TO.N,GND*
X218440000Y-62230000D03*
G04 #@! TD*
G04 #@! TO.P,R7,2*
G04 #@! TO.N,Net-(R6-Pad1)*
X218440000Y-59690000D03*
G04 #@! TO.P,R7,1*
G04 #@! TO.N,+10*
X208280000Y-59690000D03*
G04 #@! TD*
G04 #@! TO.P,R8,1*
G04 #@! TO.N,Net-(Q1-Pad3)*
X208280000Y-64770000D03*
G04 #@! TO.P,R8,2*
G04 #@! TO.N,Net-(R8-Pad2)*
X218440000Y-64770000D03*
G04 #@! TD*
G04 #@! TO.P,R9,2*
G04 #@! TO.N,+10*
X218440000Y-57150000D03*
G04 #@! TO.P,R9,1*
G04 #@! TO.N,Net-(Q1-Pad2)*
X208280000Y-57150000D03*
G04 #@! TD*
G04 #@! TO.P,R10,2*
G04 #@! TO.N,Net-(R10-Pad2)*
X218440000Y-74930000D03*
G04 #@! TO.P,R10,1*
G04 #@! TO.N,/Resonator_1/OUTa*
X208280000Y-74930000D03*
G04 #@! TD*
G04 #@! TO.P,R11,2*
G04 #@! TO.N,Net-(R10-Pad2)*
X218440000Y-72390000D03*
G04 #@! TO.P,R11,1*
G04 #@! TO.N,/Resonator_1/OUTb*
X208280000Y-72390000D03*
G04 #@! TD*
G04 #@! TO.P,R12,1*
G04 #@! TO.N,/Resonator_2/OUTa*
X208280000Y-69850000D03*
G04 #@! TO.P,R12,2*
G04 #@! TO.N,Net-(R10-Pad2)*
X218440000Y-69850000D03*
G04 #@! TD*
G04 #@! TO.P,R13,2*
G04 #@! TO.N,Net-(R10-Pad2)*
X218440000Y-67310000D03*
G04 #@! TO.P,R13,1*
G04 #@! TO.N,/Resonator_2/OUTb*
X208280000Y-67310000D03*
G04 #@! TD*
G04 #@! TO.P,R16,1*
G04 #@! TO.N,Net-(R10-Pad2)*
X208280000Y-77470000D03*
G04 #@! TO.P,R16,2*
G04 #@! TO.N,Net-(R16-Pad2)*
X218440000Y-77470000D03*
G04 #@! TD*
G04 #@! TO.P,R17,2*
G04 #@! TO.N,Net-(P5-Pad7)*
X218440000Y-80010000D03*
G04 #@! TO.P,R17,1*
G04 #@! TO.N,Net-(R16-Pad2)*
X208280000Y-80010000D03*
G04 #@! TD*
G04 #@! TO.P,R18,1*
G04 #@! TO.N,Net-(C11-Pad2)*
X78740000Y-63500000D03*
G04 #@! TO.P,R18,2*
G04 #@! TO.N,Net-(D1-Pad1)*
X68580000Y-63500000D03*
G04 #@! TD*
G04 #@! TO.P,R19,2*
G04 #@! TO.N,Net-(R19-Pad2)*
X68580000Y-34290000D03*
G04 #@! TO.P,R19,1*
G04 #@! TO.N,/Resonator_1/INa*
X78740000Y-34290000D03*
G04 #@! TD*
G04 #@! TO.P,R20,1*
G04 #@! TO.N,Net-(C10-Pad2)*
X78740000Y-53340000D03*
G04 #@! TO.P,R20,2*
G04 #@! TO.N,Net-(D2-Pad1)*
X68580000Y-53340000D03*
G04 #@! TD*
G04 #@! TO.P,R21,2*
G04 #@! TO.N,Net-(R21-Pad2)*
X68580000Y-46990000D03*
G04 #@! TO.P,R21,1*
G04 #@! TO.N,/Resonator_1/INa*
X78740000Y-46990000D03*
G04 #@! TD*
G04 #@! TO.P,R22,2*
G04 #@! TO.N,GND*
X68580000Y-39370000D03*
G04 #@! TO.P,R22,1*
G04 #@! TO.N,Net-(R22-Pad1)*
X78740000Y-39370000D03*
G04 #@! TD*
G04 #@! TO.P,R23,2*
G04 #@! TO.N,GND*
X78740000Y-41910000D03*
G04 #@! TO.P,R23,1*
G04 #@! TO.N,Net-(R23-Pad1)*
X68580000Y-41910000D03*
G04 #@! TD*
G04 #@! TO.P,R24,1*
G04 #@! TO.N,Net-(R21-Pad2)*
X78740000Y-36830000D03*
G04 #@! TO.P,R24,2*
G04 #@! TO.N,GND*
X68580000Y-36830000D03*
G04 #@! TD*
G04 #@! TO.P,R25,1*
G04 #@! TO.N,Net-(R19-Pad2)*
X68580000Y-44450000D03*
G04 #@! TO.P,R25,2*
G04 #@! TO.N,GND*
X78740000Y-44450000D03*
G04 #@! TD*
G04 #@! TO.P,R26,2*
G04 #@! TO.N,Net-(D3-Pad2)*
X218440000Y-100330000D03*
G04 #@! TO.P,R26,1*
G04 #@! TO.N,/Resonator_1/GATEb*
X208280000Y-100330000D03*
G04 #@! TD*
G04 #@! TO.P,R27,1*
G04 #@! TO.N,/Resonator_1/GATEa*
X208280000Y-87630000D03*
G04 #@! TO.P,R27,2*
G04 #@! TO.N,Net-(D4-Pad2)*
X218440000Y-87630000D03*
G04 #@! TD*
G04 #@! TO.P,R28,2*
G04 #@! TO.N,Net-(R28-Pad2)*
X68580000Y-78740000D03*
G04 #@! TO.P,R28,1*
G04 #@! TO.N,Net-(C10-Pad2)*
X78740000Y-78740000D03*
G04 #@! TD*
G04 #@! TO.P,R29,1*
G04 #@! TO.N,Net-(R29-Pad1)*
X78740000Y-76200000D03*
G04 #@! TO.P,R29,2*
G04 #@! TO.N,Net-(R29-Pad2)*
X68580000Y-76200000D03*
G04 #@! TD*
G04 #@! TO.P,R30,1*
G04 #@! TO.N,Net-(C11-Pad2)*
X119380000Y-78740000D03*
G04 #@! TO.P,R30,2*
G04 #@! TO.N,Net-(R30-Pad2)*
X109220000Y-78740000D03*
G04 #@! TD*
G04 #@! TO.P,R31,2*
G04 #@! TO.N,Net-(R31-Pad2)*
X109220000Y-76200000D03*
G04 #@! TO.P,R31,1*
G04 #@! TO.N,Net-(R31-Pad1)*
X119380000Y-76200000D03*
G04 #@! TD*
G04 #@! TO.P,R32,2*
G04 #@! TO.N,GND*
X68580000Y-73660000D03*
G04 #@! TO.P,R32,1*
G04 #@! TO.N,Net-(R29-Pad2)*
X78740000Y-73660000D03*
G04 #@! TD*
G04 #@! TO.P,R33,1*
G04 #@! TO.N,Net-(C6-Pad1)*
X53340000Y-60960000D03*
G04 #@! TO.P,R33,2*
G04 #@! TO.N,/Resonator_1/FH1a*
X43180000Y-60960000D03*
G04 #@! TD*
G04 #@! TO.P,R34,2*
G04 #@! TO.N,GND*
X109220000Y-73660000D03*
G04 #@! TO.P,R34,1*
G04 #@! TO.N,Net-(R31-Pad2)*
X119380000Y-73660000D03*
G04 #@! TD*
G04 #@! TO.P,R35,2*
G04 #@! TO.N,/Resonator_1/FH1b*
X83820000Y-60960000D03*
G04 #@! TO.P,R35,1*
G04 #@! TO.N,Net-(C7-Pad1)*
X93980000Y-60960000D03*
G04 #@! TD*
G04 #@! TO.P,R36,1*
G04 #@! TO.N,Net-(R28-Pad2)*
X78740000Y-81280000D03*
G04 #@! TO.P,R36,2*
G04 #@! TO.N,Net-(R36-Pad2)*
X68580000Y-81280000D03*
G04 #@! TD*
G04 #@! TO.P,R37,2*
G04 #@! TO.N,/Resonator_1/RWa*
X53340000Y-63500000D03*
G04 #@! TO.P,R37,1*
G04 #@! TO.N,Net-(C6-Pad1)*
X43180000Y-63500000D03*
G04 #@! TD*
G04 #@! TO.P,R38,2*
G04 #@! TO.N,Net-(R38-Pad2)*
X109220000Y-81280000D03*
G04 #@! TO.P,R38,1*
G04 #@! TO.N,Net-(R30-Pad2)*
X119380000Y-81280000D03*
G04 #@! TD*
G04 #@! TO.P,R39,1*
G04 #@! TO.N,Net-(C7-Pad1)*
X93980000Y-63500000D03*
G04 #@! TO.P,R39,2*
G04 #@! TO.N,/Resonator_1/RWb*
X83820000Y-63500000D03*
G04 #@! TD*
G04 #@! TO.P,R40,1*
G04 #@! TO.N,/Resonator_1/RELEASEa*
X43180000Y-68580000D03*
G04 #@! TO.P,R40,2*
G04 #@! TO.N,Net-(Q6-Pad2)*
X53340000Y-68580000D03*
G04 #@! TD*
G04 #@! TO.P,R41,2*
G04 #@! TO.N,Net-(Q5-Pad5)*
X43180000Y-71120000D03*
G04 #@! TO.P,R41,1*
G04 #@! TO.N,/Resonator_1/ATTACKa*
X53340000Y-71120000D03*
G04 #@! TD*
G04 #@! TO.P,R42,1*
G04 #@! TO.N,Net-(R36-Pad2)*
X78740000Y-71120000D03*
G04 #@! TO.P,R42,2*
G04 #@! TO.N,Net-(C8-Pad1)*
X68580000Y-71120000D03*
G04 #@! TD*
G04 #@! TO.P,R43,2*
G04 #@! TO.N,Net-(Q8-Pad2)*
X109220000Y-68580000D03*
G04 #@! TO.P,R43,1*
G04 #@! TO.N,/Resonator_1/RELEASEb*
X119380000Y-68580000D03*
G04 #@! TD*
G04 #@! TO.P,R44,1*
G04 #@! TO.N,/Resonator_1/ATTACKb*
X119380000Y-66040000D03*
G04 #@! TO.P,R44,2*
G04 #@! TO.N,Net-(Q7-Pad5)*
X109220000Y-66040000D03*
G04 #@! TD*
G04 #@! TO.P,R45,2*
G04 #@! TO.N,Net-(C9-Pad1)*
X93980000Y-68580000D03*
G04 #@! TO.P,R45,1*
G04 #@! TO.N,Net-(R38-Pad2)*
X83820000Y-68580000D03*
G04 #@! TD*
G04 #@! TO.P,R46,2*
G04 #@! TO.N,Net-(R46-Pad2)*
X53340000Y-96520000D03*
G04 #@! TO.P,R46,1*
G04 #@! TO.N,/Resonator_1/OUTa*
X43180000Y-96520000D03*
G04 #@! TD*
G04 #@! TO.P,R47,2*
G04 #@! TO.N,GND*
X53340000Y-88900000D03*
G04 #@! TO.P,R47,1*
G04 #@! TO.N,Net-(Q6-Pad2)*
X43180000Y-88900000D03*
G04 #@! TD*
G04 #@! TO.P,R48,1*
G04 #@! TO.N,/Resonator_1/OUTb*
X83820000Y-93980000D03*
G04 #@! TO.P,R48,2*
G04 #@! TO.N,Net-(R48-Pad2)*
X93980000Y-93980000D03*
G04 #@! TD*
G04 #@! TO.P,R49,1*
G04 #@! TO.N,Net-(Q8-Pad2)*
X83820000Y-86360000D03*
G04 #@! TO.P,R49,2*
G04 #@! TO.N,GND*
X93980000Y-86360000D03*
G04 #@! TD*
G04 #@! TO.P,R50,1*
G04 #@! TO.N,Net-(Q5-Pad5)*
X43180000Y-86360000D03*
G04 #@! TO.P,R50,2*
G04 #@! TO.N,GND*
X53340000Y-86360000D03*
G04 #@! TD*
G04 #@! TO.P,R51,2*
G04 #@! TO.N,GND*
X93980000Y-83820000D03*
G04 #@! TO.P,R51,1*
G04 #@! TO.N,Net-(Q7-Pad5)*
X83820000Y-83820000D03*
G04 #@! TD*
G04 #@! TO.P,R52,1*
G04 #@! TO.N,Net-(R46-Pad2)*
X43180000Y-99060000D03*
G04 #@! TO.P,R52,2*
G04 #@! TO.N,/Resonator_1/FW2a*
X53340000Y-99060000D03*
G04 #@! TD*
G04 #@! TO.P,R53,2*
G04 #@! TO.N,/Resonator_1/FW2b*
X93980000Y-96520000D03*
G04 #@! TO.P,R53,1*
G04 #@! TO.N,Net-(R48-Pad2)*
X83820000Y-96520000D03*
G04 #@! TD*
G04 #@! TO.P,R54,2*
G04 #@! TO.N,Net-(C8-Pad2)*
X53340000Y-83820000D03*
G04 #@! TO.P,R54,1*
G04 #@! TO.N,Net-(Q5-Pad1)*
X43180000Y-83820000D03*
G04 #@! TD*
G04 #@! TO.P,R55,2*
G04 #@! TO.N,Net-(C12-Pad1)*
X53340000Y-91440000D03*
G04 #@! TO.P,R55,1*
G04 #@! TO.N,/Resonator_1/FH2a*
X43180000Y-91440000D03*
G04 #@! TD*
G04 #@! TO.P,R56,1*
G04 #@! TO.N,Net-(Q7-Pad1)*
X83820000Y-81280000D03*
G04 #@! TO.P,R56,2*
G04 #@! TO.N,Net-(C9-Pad2)*
X93980000Y-81280000D03*
G04 #@! TD*
G04 #@! TO.P,R57,1*
G04 #@! TO.N,/Resonator_1/FH2b*
X83820000Y-88900000D03*
G04 #@! TO.P,R57,2*
G04 #@! TO.N,Net-(C13-Pad1)*
X93980000Y-88900000D03*
G04 #@! TD*
G04 #@! TO.P,R58,2*
G04 #@! TO.N,Net-(D7-Pad1)*
X166370000Y-68580000D03*
G04 #@! TO.P,R58,1*
G04 #@! TO.N,Net-(C35-Pad2)*
X176530000Y-68580000D03*
G04 #@! TD*
G04 #@! TO.P,R59,2*
G04 #@! TO.N,Net-(R59-Pad2)*
X149860000Y-31750000D03*
G04 #@! TO.P,R59,1*
G04 #@! TO.N,/Resonator_1/INa*
X160020000Y-31750000D03*
G04 #@! TD*
G04 #@! TO.P,R60,1*
G04 #@! TO.N,Net-(C34-Pad2)*
X151130000Y-53340000D03*
G04 #@! TO.P,R60,2*
G04 #@! TO.N,Net-(D8-Pad1)*
X161290000Y-53340000D03*
G04 #@! TD*
G04 #@! TO.P,R61,1*
G04 #@! TO.N,/Resonator_1/INa*
X160020000Y-44450000D03*
G04 #@! TO.P,R61,2*
G04 #@! TO.N,Net-(R61-Pad2)*
X149860000Y-44450000D03*
G04 #@! TD*
G04 #@! TO.P,R62,1*
G04 #@! TO.N,Net-(R62-Pad1)*
X149860000Y-39370000D03*
G04 #@! TO.P,R62,2*
G04 #@! TO.N,GND*
X160020000Y-39370000D03*
G04 #@! TD*
G04 #@! TO.P,R63,2*
G04 #@! TO.N,GND*
X160020000Y-34290000D03*
G04 #@! TO.P,R63,1*
G04 #@! TO.N,Net-(R63-Pad1)*
X149860000Y-34290000D03*
G04 #@! TD*
G04 #@! TO.P,R64,1*
G04 #@! TO.N,Net-(R61-Pad2)*
X149860000Y-41910000D03*
G04 #@! TO.P,R64,2*
G04 #@! TO.N,GND*
X160020000Y-41910000D03*
G04 #@! TD*
G04 #@! TO.P,R65,1*
G04 #@! TO.N,Net-(R59-Pad2)*
X149860000Y-36830000D03*
G04 #@! TO.P,R65,2*
G04 #@! TO.N,GND*
X160020000Y-36830000D03*
G04 #@! TD*
G04 #@! TO.P,R66,1*
G04 #@! TO.N,/Resonator_2/GATEb*
X191770000Y-97790000D03*
G04 #@! TO.P,R66,2*
G04 #@! TO.N,Net-(D11-Pad1)*
X201930000Y-97790000D03*
G04 #@! TD*
G04 #@! TO.P,R67,1*
G04 #@! TO.N,/Resonator_2/GATEa*
X191770000Y-90170000D03*
G04 #@! TO.P,R67,2*
G04 #@! TO.N,Net-(D10-Pad2)*
X201930000Y-90170000D03*
G04 #@! TD*
G04 #@! TO.P,R68,2*
G04 #@! TO.N,Net-(R68-Pad2)*
X149860000Y-78740000D03*
G04 #@! TO.P,R68,1*
G04 #@! TO.N,Net-(C34-Pad2)*
X160020000Y-78740000D03*
G04 #@! TD*
G04 #@! TO.P,R69,1*
G04 #@! TO.N,Net-(R69-Pad1)*
X160020000Y-76200000D03*
G04 #@! TO.P,R69,2*
G04 #@! TO.N,Net-(R69-Pad2)*
X149860000Y-76200000D03*
G04 #@! TD*
G04 #@! TO.P,R70,1*
G04 #@! TO.N,Net-(C35-Pad2)*
X201930000Y-78740000D03*
G04 #@! TO.P,R70,2*
G04 #@! TO.N,Net-(R70-Pad2)*
X191770000Y-78740000D03*
G04 #@! TD*
G04 #@! TO.P,R71,2*
G04 #@! TO.N,Net-(R71-Pad2)*
X191770000Y-76200000D03*
G04 #@! TO.P,R71,1*
G04 #@! TO.N,Net-(R71-Pad1)*
X201930000Y-76200000D03*
G04 #@! TD*
G04 #@! TO.P,R72,2*
G04 #@! TO.N,GND*
X149860000Y-73660000D03*
G04 #@! TO.P,R72,1*
G04 #@! TO.N,Net-(R69-Pad2)*
X160020000Y-73660000D03*
G04 #@! TD*
G04 #@! TO.P,R73,2*
G04 #@! TO.N,/Resonator_2/FH1a*
X124460000Y-60960000D03*
G04 #@! TO.P,R73,1*
G04 #@! TO.N,Net-(C30-Pad1)*
X134620000Y-60960000D03*
G04 #@! TD*
G04 #@! TO.P,R74,1*
G04 #@! TO.N,Net-(R71-Pad2)*
X201930000Y-73660000D03*
G04 #@! TO.P,R74,2*
G04 #@! TO.N,GND*
X191770000Y-73660000D03*
G04 #@! TD*
G04 #@! TO.P,R75,2*
G04 #@! TO.N,/Resonator_2/FH1b*
X166370000Y-60960000D03*
G04 #@! TO.P,R75,1*
G04 #@! TO.N,Net-(C31-Pad1)*
X176530000Y-60960000D03*
G04 #@! TD*
G04 #@! TO.P,R76,1*
G04 #@! TO.N,Net-(R68-Pad2)*
X160020000Y-81280000D03*
G04 #@! TO.P,R76,2*
G04 #@! TO.N,Net-(R76-Pad2)*
X149860000Y-81280000D03*
G04 #@! TD*
G04 #@! TO.P,R77,1*
G04 #@! TO.N,Net-(C30-Pad1)*
X134620000Y-66040000D03*
G04 #@! TO.P,R77,2*
G04 #@! TO.N,/Resonator_2/RWa*
X124460000Y-66040000D03*
G04 #@! TD*
G04 #@! TO.P,R78,2*
G04 #@! TO.N,Net-(R78-Pad2)*
X191770000Y-81280000D03*
G04 #@! TO.P,R78,1*
G04 #@! TO.N,Net-(R70-Pad2)*
X201930000Y-81280000D03*
G04 #@! TD*
G04 #@! TO.P,R79,1*
G04 #@! TO.N,Net-(C31-Pad1)*
X176530000Y-66040000D03*
G04 #@! TO.P,R79,2*
G04 #@! TO.N,/Resonator_2/RWb*
X166370000Y-66040000D03*
G04 #@! TD*
G04 #@! TO.P,R80,1*
G04 #@! TO.N,/Resonator_2/RELEASEa*
X109220000Y-83820000D03*
G04 #@! TO.P,R80,2*
G04 #@! TO.N,Net-(Q12-Pad2)*
X119380000Y-83820000D03*
G04 #@! TD*
G04 #@! TO.P,R81,2*
G04 #@! TO.N,Net-(Q11-Pad5)*
X119380000Y-86360000D03*
G04 #@! TO.P,R81,1*
G04 #@! TO.N,/Resonator_2/ATTACKa*
X109220000Y-86360000D03*
G04 #@! TD*
G04 #@! TO.P,R82,2*
G04 #@! TO.N,Net-(C32-Pad1)*
X149860000Y-71120000D03*
G04 #@! TO.P,R82,1*
G04 #@! TO.N,Net-(R76-Pad2)*
X160020000Y-71120000D03*
G04 #@! TD*
G04 #@! TO.P,R83,2*
G04 #@! TO.N,Net-(Q14-Pad2)*
X160020000Y-83820000D03*
G04 #@! TO.P,R83,1*
G04 #@! TO.N,/Resonator_2/RELEASEb*
X149860000Y-83820000D03*
G04 #@! TD*
G04 #@! TO.P,R84,1*
G04 #@! TO.N,/Resonator_2/ATTACKb*
X149860000Y-86360000D03*
G04 #@! TO.P,R84,2*
G04 #@! TO.N,Net-(Q13-Pad5)*
X160020000Y-86360000D03*
G04 #@! TD*
G04 #@! TO.P,R85,2*
G04 #@! TO.N,Net-(C33-Pad1)*
X191770000Y-71120000D03*
G04 #@! TO.P,R85,1*
G04 #@! TO.N,Net-(R78-Pad2)*
X201930000Y-71120000D03*
G04 #@! TD*
G04 #@! TO.P,R86,1*
G04 #@! TO.N,/Resonator_2/OUTa*
X124460000Y-91440000D03*
G04 #@! TO.P,R86,2*
G04 #@! TO.N,Net-(R86-Pad2)*
X134620000Y-91440000D03*
G04 #@! TD*
G04 #@! TO.P,R87,2*
G04 #@! TO.N,GND*
X134620000Y-81280000D03*
G04 #@! TO.P,R87,1*
G04 #@! TO.N,Net-(Q12-Pad2)*
X124460000Y-81280000D03*
G04 #@! TD*
G04 #@! TO.P,R88,1*
G04 #@! TO.N,/Resonator_2/OUTb*
X166370000Y-91440000D03*
G04 #@! TO.P,R88,2*
G04 #@! TO.N,Net-(R88-Pad2)*
X176530000Y-91440000D03*
G04 #@! TD*
G04 #@! TO.P,R89,1*
G04 #@! TO.N,Net-(Q14-Pad2)*
X166370000Y-81280000D03*
G04 #@! TO.P,R89,2*
G04 #@! TO.N,GND*
X176530000Y-81280000D03*
G04 #@! TD*
G04 #@! TO.P,R90,1*
G04 #@! TO.N,Net-(Q11-Pad5)*
X124460000Y-83820000D03*
G04 #@! TO.P,R90,2*
G04 #@! TO.N,GND*
X134620000Y-83820000D03*
G04 #@! TD*
G04 #@! TO.P,R91,2*
G04 #@! TO.N,GND*
X176530000Y-83820000D03*
G04 #@! TO.P,R91,1*
G04 #@! TO.N,Net-(Q13-Pad5)*
X166370000Y-83820000D03*
G04 #@! TD*
G04 #@! TO.P,R92,2*
G04 #@! TO.N,/Resonator_2/FW2a*
X134620000Y-93980000D03*
G04 #@! TO.P,R92,1*
G04 #@! TO.N,Net-(R86-Pad2)*
X124460000Y-93980000D03*
G04 #@! TD*
G04 #@! TO.P,R93,2*
G04 #@! TO.N,/Resonator_2/FW2b*
X176530000Y-93980000D03*
G04 #@! TO.P,R93,1*
G04 #@! TO.N,Net-(R88-Pad2)*
X166370000Y-93980000D03*
G04 #@! TD*
G04 #@! TO.P,R94,2*
G04 #@! TO.N,Net-(C32-Pad2)*
X134620000Y-78740000D03*
G04 #@! TO.P,R94,1*
G04 #@! TO.N,Net-(Q11-Pad1)*
X124460000Y-78740000D03*
G04 #@! TD*
G04 #@! TO.P,R95,1*
G04 #@! TO.N,/Resonator_2/FH2a*
X124460000Y-86360000D03*
G04 #@! TO.P,R95,2*
G04 #@! TO.N,Net-(C36-Pad1)*
X134620000Y-86360000D03*
G04 #@! TD*
G04 #@! TO.P,R96,1*
G04 #@! TO.N,Net-(Q13-Pad1)*
X166370000Y-78740000D03*
G04 #@! TO.P,R96,2*
G04 #@! TO.N,Net-(C33-Pad2)*
X176530000Y-78740000D03*
G04 #@! TD*
G04 #@! TO.P,R97,1*
G04 #@! TO.N,/Resonator_2/FH2b*
X166370000Y-86360000D03*
G04 #@! TO.P,R97,2*
G04 #@! TO.N,Net-(C37-Pad1)*
X176530000Y-86360000D03*
G04 #@! TD*
D11*
G04 #@! TO.P,U1,1*
G04 #@! TO.N,Net-(U1-Pad1)*
X229870000Y-92710000D03*
D10*
G04 #@! TO.P,U1,2*
X229870000Y-90170000D03*
G04 #@! TO.P,U1,3*
G04 #@! TO.N,GND*
X229870000Y-87630000D03*
G04 #@! TO.P,U1,4*
G04 #@! TO.N,-15V0*
X229870000Y-85090000D03*
G04 #@! TO.P,U1,5*
G04 #@! TO.N,Net-(C1-Pad2)*
X222250000Y-85090000D03*
G04 #@! TO.P,U1,6*
G04 #@! TO.N,/Resonator_1/INa*
X222250000Y-87630000D03*
G04 #@! TO.P,U1,7*
X222250000Y-90170000D03*
G04 #@! TO.P,U1,8*
G04 #@! TO.N,+15V0*
X222250000Y-92710000D03*
G04 #@! TD*
D12*
G04 #@! TO.P,U2,3*
G04 #@! TO.N,Net-(R3-Pad2)*
X228600000Y-27940000D03*
G04 #@! TO.P,U2,2*
G04 #@! TO.N,Net-(R2-Pad1)*
X229870000Y-29210000D03*
G04 #@! TO.P,U2,1*
G04 #@! TO.N,GND*
X231140000Y-27940000D03*
G04 #@! TD*
D10*
G04 #@! TO.P,U3,8*
G04 #@! TO.N,+15V0*
X222250000Y-77470000D03*
G04 #@! TO.P,U3,7*
G04 #@! TO.N,Net-(R8-Pad2)*
X222250000Y-74930000D03*
G04 #@! TO.P,U3,6*
G04 #@! TO.N,Net-(R6-Pad1)*
X222250000Y-72390000D03*
G04 #@! TO.P,U3,5*
G04 #@! TO.N,Net-(R2-Pad1)*
X222250000Y-69850000D03*
G04 #@! TO.P,U3,4*
G04 #@! TO.N,-15V0*
X229870000Y-69850000D03*
G04 #@! TO.P,U3,3*
G04 #@! TO.N,GND*
X229870000Y-72390000D03*
G04 #@! TO.P,U3,2*
G04 #@! TO.N,Net-(R10-Pad2)*
X229870000Y-74930000D03*
D11*
G04 #@! TO.P,U3,1*
G04 #@! TO.N,Net-(R16-Pad2)*
X229870000Y-77470000D03*
G04 #@! TD*
D10*
G04 #@! TO.P,U4,16*
G04 #@! TO.N,/Resonator_1/LEDaK*
X57150000Y-46990000D03*
D11*
G04 #@! TO.P,U4,1*
G04 #@! TO.N,/Resonator_1/LEDbK*
X64770000Y-46990000D03*
D10*
G04 #@! TO.P,U4,15*
G04 #@! TO.N,N/C*
X57150000Y-44450000D03*
G04 #@! TO.P,U4,2*
X64770000Y-44450000D03*
G04 #@! TO.P,U4,14*
G04 #@! TO.N,Net-(R19-Pad2)*
X57150000Y-41910000D03*
G04 #@! TO.P,U4,3*
G04 #@! TO.N,Net-(R21-Pad2)*
X64770000Y-41910000D03*
G04 #@! TO.P,U4,13*
G04 #@! TO.N,Net-(R23-Pad1)*
X57150000Y-39370000D03*
G04 #@! TO.P,U4,4*
G04 #@! TO.N,Net-(R22-Pad1)*
X64770000Y-39370000D03*
G04 #@! TO.P,U4,12*
G04 #@! TO.N,Net-(C6-Pad1)*
X57150000Y-36830000D03*
G04 #@! TO.P,U4,5*
G04 #@! TO.N,Net-(C7-Pad1)*
X64770000Y-36830000D03*
G04 #@! TO.P,U4,11*
G04 #@! TO.N,+15V0*
X57150000Y-34290000D03*
G04 #@! TO.P,U4,6*
G04 #@! TO.N,-15V0*
X64770000Y-34290000D03*
G04 #@! TO.P,U4,10*
G04 #@! TO.N,N/C*
X57150000Y-31750000D03*
G04 #@! TO.P,U4,7*
X64770000Y-31750000D03*
G04 #@! TO.P,U4,9*
X57150000Y-29210000D03*
G04 #@! TO.P,U4,8*
X64770000Y-29210000D03*
G04 #@! TD*
G04 #@! TO.P,U5,7*
G04 #@! TO.N,GND*
X204470000Y-25400000D03*
G04 #@! TO.P,U5,8*
G04 #@! TO.N,Net-(U5-Pad8)*
X196850000Y-25400000D03*
G04 #@! TO.P,U5,6*
G04 #@! TO.N,Net-(U5-Pad6)*
X204470000Y-27940000D03*
G04 #@! TO.P,U5,9*
X196850000Y-27940000D03*
G04 #@! TO.P,U5,5*
G04 #@! TO.N,Net-(D3-Pad2)*
X204470000Y-30480000D03*
G04 #@! TO.P,U5,10*
G04 #@! TO.N,Net-(U15-Pad1)*
X196850000Y-30480000D03*
G04 #@! TO.P,U5,4*
G04 #@! TO.N,Net-(U5-Pad4)*
X204470000Y-33020000D03*
G04 #@! TO.P,U5,11*
G04 #@! TO.N,Net-(D10-Pad2)*
X196850000Y-33020000D03*
G04 #@! TO.P,U5,3*
G04 #@! TO.N,Net-(U5-Pad2)*
X204470000Y-35560000D03*
G04 #@! TO.P,U5,12*
G04 #@! TO.N,Net-(U15-Pad8)*
X196850000Y-35560000D03*
G04 #@! TO.P,U5,2*
G04 #@! TO.N,Net-(U5-Pad2)*
X204470000Y-38100000D03*
G04 #@! TO.P,U5,13*
G04 #@! TO.N,Net-(U15-Pad1)*
X196850000Y-38100000D03*
D11*
G04 #@! TO.P,U5,1*
G04 #@! TO.N,Net-(D4-Pad2)*
X204470000Y-40640000D03*
D10*
G04 #@! TO.P,U5,14*
G04 #@! TO.N,+5V0*
X196850000Y-40640000D03*
G04 #@! TD*
G04 #@! TO.P,U6,8*
G04 #@! TO.N,Net-(U5-Pad4)*
X105410000Y-29210000D03*
G04 #@! TO.P,U6,9*
G04 #@! TO.N,Net-(U5-Pad8)*
X97790000Y-29210000D03*
G04 #@! TO.P,U6,7*
G04 #@! TO.N,Net-(R29-Pad1)*
X105410000Y-31750000D03*
G04 #@! TO.P,U6,10*
G04 #@! TO.N,Net-(R31-Pad1)*
X97790000Y-31750000D03*
G04 #@! TO.P,U6,6*
G04 #@! TO.N,GND*
X105410000Y-34290000D03*
G04 #@! TO.P,U6,11*
X97790000Y-34290000D03*
G04 #@! TO.P,U6,5*
X105410000Y-36830000D03*
G04 #@! TO.P,U6,12*
G04 #@! TO.N,N/C*
X97790000Y-36830000D03*
G04 #@! TO.P,U6,4*
G04 #@! TO.N,-15V0*
X105410000Y-39370000D03*
G04 #@! TO.P,U6,13*
G04 #@! TO.N,+15V0*
X97790000Y-39370000D03*
G04 #@! TO.P,U6,3*
G04 #@! TO.N,Net-(R29-Pad1)*
X105410000Y-41910000D03*
G04 #@! TO.P,U6,14*
G04 #@! TO.N,Net-(R31-Pad1)*
X97790000Y-41910000D03*
G04 #@! TO.P,U6,2*
G04 #@! TO.N,/Resonator_1/SUSa*
X105410000Y-44450000D03*
G04 #@! TO.P,U6,15*
G04 #@! TO.N,/Resonator_1/SUSb*
X97790000Y-44450000D03*
D11*
G04 #@! TO.P,U6,1*
G04 #@! TO.N,Net-(U5-Pad2)*
X105410000Y-46990000D03*
D10*
G04 #@! TO.P,U6,16*
G04 #@! TO.N,Net-(U5-Pad6)*
X97790000Y-46990000D03*
G04 #@! TD*
D11*
G04 #@! TO.P,U7,1*
G04 #@! TO.N,Net-(R36-Pad2)*
X64770000Y-81280000D03*
D10*
G04 #@! TO.P,U7,2*
G04 #@! TO.N,Net-(R28-Pad2)*
X64770000Y-78740000D03*
G04 #@! TO.P,U7,3*
G04 #@! TO.N,Net-(R29-Pad2)*
X64770000Y-76200000D03*
G04 #@! TO.P,U7,4*
G04 #@! TO.N,-15V0*
X64770000Y-73660000D03*
G04 #@! TO.P,U7,5*
G04 #@! TO.N,GND*
X57150000Y-73660000D03*
G04 #@! TO.P,U7,6*
G04 #@! TO.N,Net-(C8-Pad1)*
X57150000Y-76200000D03*
G04 #@! TO.P,U7,7*
G04 #@! TO.N,Net-(C8-Pad2)*
X57150000Y-78740000D03*
G04 #@! TO.P,U7,8*
G04 #@! TO.N,+15V0*
X57150000Y-81280000D03*
G04 #@! TD*
D11*
G04 #@! TO.P,U8,1*
G04 #@! TO.N,Net-(R38-Pad2)*
X105410000Y-81280000D03*
D10*
G04 #@! TO.P,U8,2*
G04 #@! TO.N,Net-(R30-Pad2)*
X105410000Y-78740000D03*
G04 #@! TO.P,U8,3*
G04 #@! TO.N,Net-(R31-Pad2)*
X105410000Y-76200000D03*
G04 #@! TO.P,U8,4*
G04 #@! TO.N,-15V0*
X105410000Y-73660000D03*
G04 #@! TO.P,U8,5*
G04 #@! TO.N,GND*
X97790000Y-73660000D03*
G04 #@! TO.P,U8,6*
G04 #@! TO.N,Net-(C9-Pad1)*
X97790000Y-76200000D03*
G04 #@! TO.P,U8,7*
G04 #@! TO.N,Net-(C9-Pad2)*
X97790000Y-78740000D03*
G04 #@! TO.P,U8,8*
G04 #@! TO.N,+15V0*
X97790000Y-81280000D03*
G04 #@! TD*
G04 #@! TO.P,U9,8*
G04 #@! TO.N,+15V0*
X57150000Y-66040000D03*
G04 #@! TO.P,U9,7*
G04 #@! TO.N,Net-(C10-Pad2)*
X57150000Y-63500000D03*
G04 #@! TO.P,U9,6*
G04 #@! TO.N,Net-(C10-Pad1)*
X57150000Y-60960000D03*
G04 #@! TO.P,U9,5*
G04 #@! TO.N,GND*
X57150000Y-58420000D03*
G04 #@! TO.P,U9,4*
G04 #@! TO.N,-15V0*
X64770000Y-58420000D03*
G04 #@! TO.P,U9,3*
G04 #@! TO.N,GND*
X64770000Y-60960000D03*
G04 #@! TO.P,U9,2*
G04 #@! TO.N,Net-(C6-Pad1)*
X64770000Y-63500000D03*
D11*
G04 #@! TO.P,U9,1*
G04 #@! TO.N,/Resonator_1/OUTa*
X64770000Y-66040000D03*
G04 #@! TD*
G04 #@! TO.P,U10,1*
G04 #@! TO.N,/Resonator_1/OUTb*
X105410000Y-66040000D03*
D10*
G04 #@! TO.P,U10,2*
G04 #@! TO.N,Net-(C7-Pad1)*
X105410000Y-63500000D03*
G04 #@! TO.P,U10,3*
G04 #@! TO.N,GND*
X105410000Y-60960000D03*
G04 #@! TO.P,U10,4*
G04 #@! TO.N,-15V0*
X105410000Y-58420000D03*
G04 #@! TO.P,U10,5*
G04 #@! TO.N,GND*
X97790000Y-58420000D03*
G04 #@! TO.P,U10,6*
G04 #@! TO.N,Net-(C11-Pad1)*
X97790000Y-60960000D03*
G04 #@! TO.P,U10,7*
G04 #@! TO.N,Net-(C11-Pad2)*
X97790000Y-63500000D03*
G04 #@! TO.P,U10,8*
G04 #@! TO.N,+15V0*
X97790000Y-66040000D03*
G04 #@! TD*
G04 #@! TO.P,U11,8*
G04 #@! TO.N,+15V0*
X57150000Y-96520000D03*
G04 #@! TO.P,U11,7*
G04 #@! TO.N,/Resonator_1/FW1a*
X57150000Y-93980000D03*
G04 #@! TO.P,U11,6*
G04 #@! TO.N,Net-(C12-Pad1)*
X57150000Y-91440000D03*
G04 #@! TO.P,U11,5*
G04 #@! TO.N,GND*
X57150000Y-88900000D03*
G04 #@! TO.P,U11,4*
G04 #@! TO.N,-15V0*
X64770000Y-88900000D03*
G04 #@! TO.P,U11,3*
G04 #@! TO.N,GND*
X64770000Y-91440000D03*
G04 #@! TO.P,U11,2*
G04 #@! TO.N,Net-(R46-Pad2)*
X64770000Y-93980000D03*
D11*
G04 #@! TO.P,U11,1*
G04 #@! TO.N,/Resonator_1/FW2a*
X64770000Y-96520000D03*
G04 #@! TD*
G04 #@! TO.P,U12,1*
G04 #@! TO.N,/Resonator_1/FW2b*
X105410000Y-96520000D03*
D10*
G04 #@! TO.P,U12,2*
G04 #@! TO.N,Net-(R48-Pad2)*
X105410000Y-93980000D03*
G04 #@! TO.P,U12,3*
G04 #@! TO.N,GND*
X105410000Y-91440000D03*
G04 #@! TO.P,U12,4*
G04 #@! TO.N,-15V0*
X105410000Y-88900000D03*
G04 #@! TO.P,U12,5*
G04 #@! TO.N,GND*
X97790000Y-88900000D03*
G04 #@! TO.P,U12,6*
G04 #@! TO.N,Net-(C13-Pad1)*
X97790000Y-91440000D03*
G04 #@! TO.P,U12,7*
G04 #@! TO.N,/Resonator_1/FW1b*
X97790000Y-93980000D03*
G04 #@! TO.P,U12,8*
G04 #@! TO.N,+15V0*
X97790000Y-96520000D03*
G04 #@! TD*
G04 #@! TO.P,U13,8*
G04 #@! TO.N,N/C*
X146050000Y-29210000D03*
G04 #@! TO.P,U13,9*
X138430000Y-29210000D03*
G04 #@! TO.P,U13,7*
X146050000Y-31750000D03*
G04 #@! TO.P,U13,10*
X138430000Y-31750000D03*
G04 #@! TO.P,U13,6*
G04 #@! TO.N,-15V0*
X146050000Y-34290000D03*
G04 #@! TO.P,U13,11*
G04 #@! TO.N,+15V0*
X138430000Y-34290000D03*
G04 #@! TO.P,U13,5*
G04 #@! TO.N,Net-(C31-Pad1)*
X146050000Y-36830000D03*
G04 #@! TO.P,U13,12*
G04 #@! TO.N,Net-(C30-Pad1)*
X138430000Y-36830000D03*
G04 #@! TO.P,U13,4*
G04 #@! TO.N,Net-(R62-Pad1)*
X146050000Y-39370000D03*
G04 #@! TO.P,U13,13*
G04 #@! TO.N,Net-(R63-Pad1)*
X138430000Y-39370000D03*
G04 #@! TO.P,U13,3*
G04 #@! TO.N,Net-(R61-Pad2)*
X146050000Y-41910000D03*
G04 #@! TO.P,U13,14*
G04 #@! TO.N,Net-(R59-Pad2)*
X138430000Y-41910000D03*
G04 #@! TO.P,U13,2*
G04 #@! TO.N,N/C*
X146050000Y-44450000D03*
G04 #@! TO.P,U13,15*
X138430000Y-44450000D03*
D11*
G04 #@! TO.P,U13,1*
G04 #@! TO.N,/Resonator_2/LEDbK*
X146050000Y-46990000D03*
D10*
G04 #@! TO.P,U13,16*
G04 #@! TO.N,/Resonator_2/LEDaK*
X138430000Y-46990000D03*
G04 #@! TD*
G04 #@! TO.P,U14,14*
G04 #@! TO.N,+5V0*
X196850000Y-62230000D03*
D11*
G04 #@! TO.P,U14,1*
G04 #@! TO.N,Net-(D11-Pad1)*
X204470000Y-62230000D03*
D10*
G04 #@! TO.P,U14,13*
G04 #@! TO.N,N/C*
X196850000Y-59690000D03*
G04 #@! TO.P,U14,2*
G04 #@! TO.N,Net-(U14-Pad2)*
X204470000Y-59690000D03*
G04 #@! TO.P,U14,12*
G04 #@! TO.N,N/C*
X196850000Y-57150000D03*
G04 #@! TO.P,U14,3*
G04 #@! TO.N,Net-(U14-Pad2)*
X204470000Y-57150000D03*
G04 #@! TO.P,U14,11*
G04 #@! TO.N,N/C*
X196850000Y-54610000D03*
G04 #@! TO.P,U14,4*
G04 #@! TO.N,Net-(U14-Pad4)*
X204470000Y-54610000D03*
G04 #@! TO.P,U14,10*
G04 #@! TO.N,N/C*
X196850000Y-52070000D03*
G04 #@! TO.P,U14,5*
X204470000Y-52070000D03*
G04 #@! TO.P,U14,9*
X196850000Y-49530000D03*
G04 #@! TO.P,U14,6*
X204470000Y-49530000D03*
G04 #@! TO.P,U14,8*
X196850000Y-46990000D03*
G04 #@! TO.P,U14,7*
G04 #@! TO.N,GND*
X204470000Y-46990000D03*
G04 #@! TD*
G04 #@! TO.P,U15,16*
G04 #@! TO.N,Net-(U14-Pad2)*
X180340000Y-46990000D03*
D11*
G04 #@! TO.P,U15,1*
G04 #@! TO.N,Net-(U15-Pad1)*
X187960000Y-46990000D03*
D10*
G04 #@! TO.P,U15,15*
G04 #@! TO.N,/Resonator_2/SUSb*
X180340000Y-44450000D03*
G04 #@! TO.P,U15,2*
G04 #@! TO.N,/Resonator_2/SUSa*
X187960000Y-44450000D03*
G04 #@! TO.P,U15,14*
G04 #@! TO.N,Net-(R71-Pad1)*
X180340000Y-41910000D03*
G04 #@! TO.P,U15,3*
G04 #@! TO.N,Net-(R69-Pad1)*
X187960000Y-41910000D03*
G04 #@! TO.P,U15,13*
G04 #@! TO.N,+15V0*
X180340000Y-39370000D03*
G04 #@! TO.P,U15,4*
G04 #@! TO.N,-15V0*
X187960000Y-39370000D03*
G04 #@! TO.P,U15,12*
G04 #@! TO.N,N/C*
X180340000Y-36830000D03*
G04 #@! TO.P,U15,5*
G04 #@! TO.N,GND*
X187960000Y-36830000D03*
G04 #@! TO.P,U15,11*
X180340000Y-34290000D03*
G04 #@! TO.P,U15,6*
X187960000Y-34290000D03*
G04 #@! TO.P,U15,10*
G04 #@! TO.N,Net-(R71-Pad1)*
X180340000Y-31750000D03*
G04 #@! TO.P,U15,7*
G04 #@! TO.N,Net-(R69-Pad1)*
X187960000Y-31750000D03*
G04 #@! TO.P,U15,9*
G04 #@! TO.N,Net-(U14-Pad4)*
X180340000Y-29210000D03*
G04 #@! TO.P,U15,8*
G04 #@! TO.N,Net-(U15-Pad8)*
X187960000Y-29210000D03*
G04 #@! TD*
G04 #@! TO.P,U16,8*
G04 #@! TO.N,+15V0*
X138430000Y-81280000D03*
G04 #@! TO.P,U16,7*
G04 #@! TO.N,Net-(C32-Pad2)*
X138430000Y-78740000D03*
G04 #@! TO.P,U16,6*
G04 #@! TO.N,Net-(C32-Pad1)*
X138430000Y-76200000D03*
G04 #@! TO.P,U16,5*
G04 #@! TO.N,GND*
X138430000Y-73660000D03*
G04 #@! TO.P,U16,4*
G04 #@! TO.N,-15V0*
X146050000Y-73660000D03*
G04 #@! TO.P,U16,3*
G04 #@! TO.N,Net-(R69-Pad2)*
X146050000Y-76200000D03*
G04 #@! TO.P,U16,2*
G04 #@! TO.N,Net-(R68-Pad2)*
X146050000Y-78740000D03*
D11*
G04 #@! TO.P,U16,1*
G04 #@! TO.N,Net-(R76-Pad2)*
X146050000Y-81280000D03*
G04 #@! TD*
G04 #@! TO.P,U17,1*
G04 #@! TO.N,Net-(R78-Pad2)*
X187960000Y-81280000D03*
D10*
G04 #@! TO.P,U17,2*
G04 #@! TO.N,Net-(R70-Pad2)*
X187960000Y-78740000D03*
G04 #@! TO.P,U17,3*
G04 #@! TO.N,Net-(R71-Pad2)*
X187960000Y-76200000D03*
G04 #@! TO.P,U17,4*
G04 #@! TO.N,-15V0*
X187960000Y-73660000D03*
G04 #@! TO.P,U17,5*
G04 #@! TO.N,GND*
X180340000Y-73660000D03*
G04 #@! TO.P,U17,6*
G04 #@! TO.N,Net-(C33-Pad1)*
X180340000Y-76200000D03*
G04 #@! TO.P,U17,7*
G04 #@! TO.N,Net-(C33-Pad2)*
X180340000Y-78740000D03*
G04 #@! TO.P,U17,8*
G04 #@! TO.N,+15V0*
X180340000Y-81280000D03*
G04 #@! TD*
G04 #@! TO.P,U18,8*
G04 #@! TO.N,+15V0*
X138430000Y-66040000D03*
G04 #@! TO.P,U18,7*
G04 #@! TO.N,Net-(C34-Pad2)*
X138430000Y-63500000D03*
G04 #@! TO.P,U18,6*
G04 #@! TO.N,Net-(C34-Pad1)*
X138430000Y-60960000D03*
G04 #@! TO.P,U18,5*
G04 #@! TO.N,GND*
X138430000Y-58420000D03*
G04 #@! TO.P,U18,4*
G04 #@! TO.N,-15V0*
X146050000Y-58420000D03*
G04 #@! TO.P,U18,3*
G04 #@! TO.N,GND*
X146050000Y-60960000D03*
G04 #@! TO.P,U18,2*
G04 #@! TO.N,Net-(C30-Pad1)*
X146050000Y-63500000D03*
D11*
G04 #@! TO.P,U18,1*
G04 #@! TO.N,/Resonator_2/OUTa*
X146050000Y-66040000D03*
G04 #@! TD*
G04 #@! TO.P,U19,1*
G04 #@! TO.N,/Resonator_2/FW2a*
X146050000Y-96520000D03*
D10*
G04 #@! TO.P,U19,2*
G04 #@! TO.N,Net-(R86-Pad2)*
X146050000Y-93980000D03*
G04 #@! TO.P,U19,3*
G04 #@! TO.N,GND*
X146050000Y-91440000D03*
G04 #@! TO.P,U19,4*
G04 #@! TO.N,-15V0*
X146050000Y-88900000D03*
G04 #@! TO.P,U19,5*
G04 #@! TO.N,GND*
X138430000Y-88900000D03*
G04 #@! TO.P,U19,6*
G04 #@! TO.N,Net-(C36-Pad1)*
X138430000Y-91440000D03*
G04 #@! TO.P,U19,7*
G04 #@! TO.N,/Resonator_2/FW1a*
X138430000Y-93980000D03*
G04 #@! TO.P,U19,8*
G04 #@! TO.N,+15V0*
X138430000Y-96520000D03*
G04 #@! TD*
G04 #@! TO.P,U20,8*
G04 #@! TO.N,+15V0*
X180340000Y-66040000D03*
G04 #@! TO.P,U20,7*
G04 #@! TO.N,Net-(C35-Pad2)*
X180340000Y-63500000D03*
G04 #@! TO.P,U20,6*
G04 #@! TO.N,Net-(C35-Pad1)*
X180340000Y-60960000D03*
G04 #@! TO.P,U20,5*
G04 #@! TO.N,GND*
X180340000Y-58420000D03*
G04 #@! TO.P,U20,4*
G04 #@! TO.N,-15V0*
X187960000Y-58420000D03*
G04 #@! TO.P,U20,3*
G04 #@! TO.N,GND*
X187960000Y-60960000D03*
G04 #@! TO.P,U20,2*
G04 #@! TO.N,Net-(C31-Pad1)*
X187960000Y-63500000D03*
D11*
G04 #@! TO.P,U20,1*
G04 #@! TO.N,/Resonator_2/OUTb*
X187960000Y-66040000D03*
G04 #@! TD*
G04 #@! TO.P,U21,1*
G04 #@! TO.N,/Resonator_2/FW2b*
X187960000Y-96520000D03*
D10*
G04 #@! TO.P,U21,2*
G04 #@! TO.N,Net-(R88-Pad2)*
X187960000Y-93980000D03*
G04 #@! TO.P,U21,3*
G04 #@! TO.N,GND*
X187960000Y-91440000D03*
G04 #@! TO.P,U21,4*
G04 #@! TO.N,-15V0*
X187960000Y-88900000D03*
G04 #@! TO.P,U21,5*
G04 #@! TO.N,GND*
X180340000Y-88900000D03*
G04 #@! TO.P,U21,6*
G04 #@! TO.N,Net-(C37-Pad1)*
X180340000Y-91440000D03*
G04 #@! TO.P,U21,7*
G04 #@! TO.N,/Resonator_2/FW1b*
X180340000Y-93980000D03*
G04 #@! TO.P,U21,8*
G04 #@! TO.N,+15V0*
X180340000Y-96520000D03*
G04 #@! TD*
G04 #@! TO.P,C78,1*
G04 #@! TO.N,+5V0*
X196850000Y-43180000D03*
G04 #@! TO.P,C78,2*
G04 #@! TO.N,GND*
X204470000Y-43180000D03*
G04 #@! TD*
D11*
G04 #@! TO.P,P2,1*
G04 #@! TO.N,-15V0*
X135890000Y-107950000D03*
D10*
G04 #@! TO.P,P2,2*
X135890000Y-110490000D03*
G04 #@! TO.P,P2,3*
G04 #@! TO.N,GND*
X133350000Y-107950000D03*
G04 #@! TO.P,P2,4*
X133350000Y-110490000D03*
G04 #@! TO.P,P2,5*
X130810000Y-107950000D03*
G04 #@! TO.P,P2,6*
X130810000Y-110490000D03*
G04 #@! TO.P,P2,7*
X128270000Y-107950000D03*
G04 #@! TO.P,P2,8*
X128270000Y-110490000D03*
G04 #@! TO.P,P2,9*
G04 #@! TO.N,+15V0*
X125730000Y-107950000D03*
G04 #@! TO.P,P2,10*
X125730000Y-110490000D03*
G04 #@! TO.P,P2,11*
G04 #@! TO.N,+5V0*
X123190000Y-107950000D03*
G04 #@! TO.P,P2,12*
X123190000Y-110490000D03*
G04 #@! TO.P,P2,13*
G04 #@! TO.N,N/C*
X120650000Y-107950000D03*
G04 #@! TO.P,P2,14*
X120650000Y-110490000D03*
G04 #@! TO.P,P2,15*
X118110000Y-107950000D03*
G04 #@! TO.P,P2,16*
X118110000Y-110490000D03*
G04 #@! TD*
D11*
G04 #@! TO.P,P9,1*
G04 #@! TO.N,/Resonator_1/GATEa*
X196850000Y-107950000D03*
D10*
G04 #@! TO.P,P9,2*
G04 #@! TO.N,GND*
X196850000Y-110490000D03*
G04 #@! TO.P,P9,3*
G04 #@! TO.N,/Resonator_1/GATEb*
X194310000Y-107950000D03*
G04 #@! TO.P,P9,4*
G04 #@! TO.N,GND*
X194310000Y-110490000D03*
G04 #@! TO.P,P9,5*
G04 #@! TO.N,/Resonator_2/GATEa*
X191770000Y-107950000D03*
G04 #@! TO.P,P9,6*
G04 #@! TO.N,GND*
X191770000Y-110490000D03*
G04 #@! TO.P,P9,7*
G04 #@! TO.N,/Resonator_2/GATEb*
X189230000Y-107950000D03*
G04 #@! TO.P,P9,8*
G04 #@! TO.N,GND*
X189230000Y-110490000D03*
G04 #@! TO.P,P9,9*
G04 #@! TO.N,N/C*
X186690000Y-107950000D03*
G04 #@! TO.P,P9,10*
G04 #@! TO.N,GND*
X186690000Y-110490000D03*
G04 #@! TD*
G04 #@! TO.P,C1,1*
G04 #@! TO.N,Net-(C1-Pad1)*
X210820000Y-92710000D03*
G04 #@! TO.P,C1,2*
G04 #@! TO.N,Net-(C1-Pad2)*
X215900000Y-92710000D03*
G04 #@! TD*
D11*
G04 #@! TO.P,P5,1*
G04 #@! TO.N,Net-(C1-Pad1)*
X227330000Y-107950000D03*
D10*
G04 #@! TO.P,P5,2*
G04 #@! TO.N,N/C*
X227330000Y-110490000D03*
G04 #@! TO.P,P5,3*
G04 #@! TO.N,Net-(C1-Pad1)*
X224790000Y-107950000D03*
G04 #@! TO.P,P5,4*
G04 #@! TO.N,N/C*
X224790000Y-110490000D03*
G04 #@! TO.P,P5,5*
G04 #@! TO.N,GND*
X222250000Y-107950000D03*
G04 #@! TO.P,P5,6*
G04 #@! TO.N,N/C*
X222250000Y-110490000D03*
G04 #@! TO.P,P5,7*
G04 #@! TO.N,Net-(P5-Pad7)*
X219710000Y-107950000D03*
G04 #@! TO.P,P5,8*
G04 #@! TO.N,GND*
X219710000Y-110490000D03*
G04 #@! TO.P,P5,9*
G04 #@! TO.N,N/C*
X217170000Y-107950000D03*
G04 #@! TO.P,P5,10*
X217170000Y-110490000D03*
G04 #@! TO.P,P5,11*
X214630000Y-107950000D03*
G04 #@! TO.P,P5,12*
X214630000Y-110490000D03*
G04 #@! TO.P,P5,13*
X212090000Y-107950000D03*
G04 #@! TO.P,P5,14*
X212090000Y-110490000D03*
G04 #@! TO.P,P5,15*
X209550000Y-107950000D03*
G04 #@! TO.P,P5,16*
X209550000Y-110490000D03*
G04 #@! TD*
D12*
G04 #@! TO.P,U22,1*
G04 #@! TO.N,+5V0*
X203200000Y-101600000D03*
G04 #@! TO.P,U22,2*
G04 #@! TO.N,GND*
X204470000Y-102870000D03*
G04 #@! TO.P,U22,3*
G04 #@! TO.N,+15V0*
X203200000Y-104140000D03*
G04 #@! TD*
D11*
G04 #@! TO.P,P4,1*
G04 #@! TO.N,/Resonator_1/OUTb*
X85725000Y-54610000D03*
D10*
G04 #@! TO.P,P4,2*
G04 #@! TO.N,/Resonator_1/RWb*
X83185000Y-54610000D03*
G04 #@! TO.P,P4,3*
G04 #@! TO.N,GND*
X85725000Y-52070000D03*
G04 #@! TO.P,P4,4*
G04 #@! TO.N,N/C*
X83185000Y-52070000D03*
G04 #@! TO.P,P4,5*
G04 #@! TO.N,GND*
X85725000Y-49530000D03*
G04 #@! TO.P,P4,6*
G04 #@! TO.N,/Resonator_1/ATTACKb*
X83185000Y-49530000D03*
G04 #@! TO.P,P4,7*
G04 #@! TO.N,+10*
X85725000Y-46990000D03*
G04 #@! TO.P,P4,8*
G04 #@! TO.N,N/C*
X83185000Y-46990000D03*
G04 #@! TO.P,P4,9*
G04 #@! TO.N,GND*
X85725000Y-44450000D03*
G04 #@! TO.P,P4,10*
G04 #@! TO.N,/Resonator_1/RELEASEb*
X83185000Y-44450000D03*
G04 #@! TO.P,P4,11*
G04 #@! TO.N,+10*
X85725000Y-41910000D03*
G04 #@! TO.P,P4,12*
G04 #@! TO.N,N/C*
X83185000Y-41910000D03*
G04 #@! TO.P,P4,13*
G04 #@! TO.N,+10*
X85725000Y-39370000D03*
G04 #@! TO.P,P4,14*
G04 #@! TO.N,/Resonator_1/SUSb*
X83185000Y-39370000D03*
G04 #@! TO.P,P4,15*
G04 #@! TO.N,GND*
X85725000Y-36830000D03*
G04 #@! TO.P,P4,16*
G04 #@! TO.N,N/C*
X83185000Y-36830000D03*
G04 #@! TO.P,P4,17*
X85725000Y-34290000D03*
G04 #@! TO.P,P4,18*
X83185000Y-34290000D03*
G04 #@! TO.P,P4,19*
X85725000Y-31750000D03*
G04 #@! TO.P,P4,20*
X83185000Y-31750000D03*
G04 #@! TO.P,P4,21*
X85725000Y-29210000D03*
G04 #@! TO.P,P4,22*
X83185000Y-29210000D03*
G04 #@! TO.P,P4,23*
G04 #@! TO.N,/Resonator_1/LEDb*
X85725000Y-26670000D03*
G04 #@! TO.P,P4,24*
G04 #@! TO.N,/Resonator_1/LEDbK*
X83185000Y-26670000D03*
G04 #@! TO.P,P4,25*
G04 #@! TO.N,N/C*
X85725000Y-24130000D03*
G04 #@! TO.P,P4,26*
X83185000Y-24130000D03*
G04 #@! TD*
D13*
G04 #@! TO.N,+15V0*
X223977201Y-54610000D03*
D14*
G04 #@! TO.N,GND*
X136525000Y-98425000D03*
X147955000Y-20320000D03*
X107315000Y-20320000D03*
X67310000Y-21590000D03*
D13*
X55245000Y-78740000D03*
X66497201Y-58420000D03*
X66497201Y-54610000D03*
X95885000Y-76200000D03*
X136525000Y-76200000D03*
X136525000Y-68580000D03*
X95885000Y-36830000D03*
X95885000Y-52070000D03*
X147955000Y-58420000D03*
X136525000Y-52070000D03*
X147955000Y-43180000D03*
X203657201Y-90170000D03*
X220345000Y-100965000D03*
X178435000Y-52070000D03*
X147955000Y-26035000D03*
D14*
G04 #@! TO.N,-15V0*
X212725000Y-42545000D03*
X229235000Y-42545000D03*
D13*
G04 #@! TO.N,Net-(C9-Pad1)*
X93980000Y-76835000D03*
G04 #@! TO.N,Net-(C10-Pad2)*
X49530000Y-64135000D03*
X75565000Y-78740000D03*
X76152493Y-64722493D03*
G04 #@! TO.N,Net-(C33-Pad1)*
X183515011Y-76200000D03*
X183515000Y-72390000D03*
G04 #@! TO.N,Net-(C34-Pad1)*
X122555000Y-63500000D03*
G04 #@! TO.N,Net-(C34-Pad2)*
X153035000Y-78105000D03*
X152966340Y-63195210D03*
G04 #@! TO.N,Net-(D7-Pad1)*
X163195000Y-68580000D03*
G04 #@! TO.N,Net-(D8-Pad1)*
X157810210Y-53272978D03*
G04 #@! TO.N,Net-(D11-Pad1)*
X195580000Y-64770000D03*
X196215000Y-95250000D03*
G04 #@! TO.N,Net-(R29-Pad1)*
X81280000Y-38100000D03*
X109855000Y-31750000D03*
X109855000Y-41910000D03*
G04 #@! TO.N,Net-(R38-Pad2)*
X111760000Y-67310000D03*
G04 #@! TO.N,Net-(R78-Pad2)*
X200634619Y-83515210D03*
G04 #@! TO.N,Net-(U5-Pad2)*
X207010000Y-38100000D03*
X207340210Y-45787022D03*
G04 #@! TO.N,Net-(R31-Pad1)*
X116205000Y-41910000D03*
X102235000Y-38100000D03*
X102234989Y-41910000D03*
X102234989Y-31750000D03*
G04 #@! TO.N,Net-(C1-Pad2)*
X215595179Y-83912212D03*
G04 #@! TO.N,Net-(C6-Pad1)*
X47294790Y-60988287D03*
X50165000Y-36830000D03*
G04 #@! TO.N,/Resonator_1/OUTa*
X40640000Y-66675000D03*
X206070210Y-64837022D03*
G04 #@! TO.N,Net-(C7-Pad1)*
X74930000Y-57150000D03*
X73939432Y-38050244D03*
G04 #@! TO.N,/Resonator_1/OUTb*
X101600000Y-66040000D03*
X101600000Y-54610000D03*
X101600000Y-90170000D03*
X210820000Y-72390000D03*
X212090000Y-105410000D03*
X127000000Y-106045000D03*
X122555000Y-106045000D03*
X101600000Y-106045000D03*
D14*
G04 #@! TO.N,Net-(C8-Pad1)*
X60960000Y-76200000D03*
X60960000Y-70485000D03*
D13*
G04 #@! TO.N,Net-(C11-Pad1)*
X82969089Y-74910417D03*
X86995000Y-60325000D03*
G04 #@! TO.N,Net-(C11-Pad2)*
X91440000Y-62230000D03*
X116509790Y-62162978D03*
G04 #@! TO.N,/Resonator_1/FW1a*
X80010000Y-92710000D03*
G04 #@! TO.N,Net-(C13-Pad1)*
X93980000Y-92075000D03*
G04 #@! TO.N,/Resonator_1/FW1b*
X91440000Y-95250000D03*
X69850000Y-98094790D03*
G04 #@! TO.N,/Resonator_2/OUTa*
X142240000Y-64135000D03*
X142240000Y-87630000D03*
X161290000Y-66675000D03*
X161290000Y-63550813D03*
X141906488Y-57483512D03*
G04 #@! TO.N,Net-(C30-Pad1)*
X134620000Y-36830000D03*
G04 #@! TO.N,/Resonator_2/OUTb*
X173990000Y-90170000D03*
X192709790Y-67242978D03*
X192074790Y-56467493D03*
G04 #@! TO.N,Net-(C31-Pad1)*
X154305000Y-35560000D03*
X154305000Y-59690000D03*
X183515000Y-67310000D03*
X183515011Y-63500000D03*
G04 #@! TO.N,Net-(C32-Pad1)*
X151765000Y-77470000D03*
X140970000Y-68580000D03*
X141605011Y-76200000D03*
G04 #@! TO.N,Net-(C35-Pad1)*
X165100000Y-63500000D03*
G04 #@! TO.N,/Resonator_2/FW1a*
X129540000Y-95250000D03*
X163830000Y-95250000D03*
G04 #@! TO.N,/Resonator_2/FW1b*
X171497507Y-92757507D03*
X157480000Y-90170000D03*
G04 #@! TO.N,+5V0*
X198577199Y-84455000D03*
X198577199Y-82524588D03*
X202565000Y-112395000D03*
X198577199Y-92710000D03*
G04 #@! TO.N,Net-(D3-Pad2)*
X215900000Y-95250000D03*
X215900000Y-100330000D03*
X209550000Y-30480000D03*
G04 #@! TO.N,Net-(D4-Pad2)*
X205740000Y-85090000D03*
G04 #@! TO.N,Net-(D10-Pad2)*
X200025000Y-33020000D03*
G04 #@! TO.N,/Resonator_1/RWa*
X40335210Y-62725437D03*
G04 #@! TO.N,/Resonator_1/ATTACKa*
X39065179Y-71858403D03*
G04 #@! TO.N,+10*
X47625000Y-46990000D03*
X47625000Y-41910000D03*
X212090000Y-44450000D03*
X210820000Y-57150000D03*
G04 #@! TO.N,/Resonator_1/RELEASEa*
X46355000Y-45720000D03*
G04 #@! TO.N,/Resonator_1/SUSa*
X101600000Y-44450000D03*
X101269779Y-35627029D03*
G04 #@! TO.N,/Resonator_1/LEDa*
X70485000Y-26035000D03*
G04 #@! TO.N,/Resonator_1/LEDaK*
X51435000Y-27940000D03*
X51435000Y-46990000D03*
G04 #@! TO.N,/Resonator_1/ATTACKb*
X120015000Y-50800000D03*
G04 #@! TO.N,/Resonator_1/RELEASEb*
X119380000Y-45720000D03*
G04 #@! TO.N,/Resonator_1/SUSb*
X91440000Y-44450000D03*
X91240098Y-41170112D03*
G04 #@! TO.N,/Resonator_1/LEDb*
X72390000Y-26035000D03*
G04 #@! TO.N,/Resonator_1/LEDbK*
X71120000Y-45720000D03*
X70485000Y-27940000D03*
G04 #@! TO.N,/Resonator_2/FW2a*
X158750000Y-96520000D03*
G04 #@! TO.N,/Resonator_2/ATTACKa*
X114300000Y-49530000D03*
G04 #@! TO.N,/Resonator_2/RELEASEa*
X113030000Y-44450000D03*
G04 #@! TO.N,/Resonator_2/SUSa*
X184150000Y-44450000D03*
X182880000Y-50165000D03*
X121920000Y-50800000D03*
G04 #@! TO.N,/Resonator_2/LEDa*
X156210000Y-27000210D03*
G04 #@! TO.N,/Resonator_2/LEDaK*
X133350000Y-27940000D03*
X133350000Y-46990000D03*
G04 #@! TO.N,/Resonator_2/ATTACKb*
X157480000Y-85725000D03*
X158682978Y-51104790D03*
G04 #@! TO.N,/Resonator_2/RELEASEb*
X156845000Y-83820000D03*
X155575000Y-44450000D03*
G04 #@! TO.N,/Resonator_2/SUSb*
X173355000Y-44450000D03*
X173355000Y-38100000D03*
G04 #@! TO.N,/Resonator_2/LEDbK*
X163830000Y-46990000D03*
D14*
G04 #@! TO.N,Net-(Q5-Pad1)*
X41910000Y-74930000D03*
D13*
G04 #@! TO.N,Net-(Q6-Pad2)*
X50165000Y-88265000D03*
G04 #@! TO.N,Net-(R2-Pad1)*
X225425011Y-69850000D03*
X228600000Y-31115000D03*
G04 #@! TO.N,Net-(R6-Pad1)*
X215265000Y-73660000D03*
G04 #@! TO.N,Net-(R8-Pad2)*
X216535000Y-76200000D03*
G04 #@! TO.N,/Resonator_1/INa*
X164512507Y-88312507D03*
G04 #@! TO.N,Net-(R19-Pad2)*
X61290210Y-42058273D03*
X61290210Y-45787022D03*
G04 #@! TO.N,Net-(R21-Pad2)*
X60960000Y-40640000D03*
X60960000Y-48260000D03*
X70789790Y-37397978D03*
D14*
G04 #@! TO.N,Net-(R36-Pad2)*
X76835000Y-82550000D03*
D13*
G04 #@! TO.N,Net-(Q7-Pad5)*
X110490000Y-77470000D03*
X85251264Y-80564368D03*
G04 #@! TO.N,/Resonator_1/FW2a*
X74930000Y-96520000D03*
G04 #@! TO.N,/Resonator_1/FW2b*
X63500000Y-99060000D03*
G04 #@! TO.N,Net-(R59-Pad2)*
X141605011Y-42114787D03*
X142875000Y-38100000D03*
G04 #@! TO.N,Net-(R63-Pad1)*
X141605011Y-39370000D03*
X141605000Y-35560000D03*
G04 #@! TO.N,Net-(R69-Pad1)*
X191135011Y-41910000D03*
X193675000Y-80645000D03*
G04 #@! TO.N,Net-(R71-Pad1)*
X184150000Y-41910000D03*
X184150000Y-77470000D03*
G04 #@! TO.N,Net-(R76-Pad2)*
X154305000Y-81280000D03*
X154305000Y-71120000D03*
G04 #@! TO.N,/Resonator_2/FW2b*
X152400000Y-93980000D03*
G04 #@! TO.N,Net-(U5-Pad4)*
X206375000Y-26670000D03*
G04 #@! TO.N,Net-(U5-Pad6)*
X194310000Y-48260000D03*
G04 #@! TO.N,/Resonator_1/FH1a*
X45720000Y-106680000D03*
G04 #@! TO.N,/Resonator_1/FH2a*
X77470000Y-90170000D03*
G04 #@! TO.N,/Resonator_1/FH1b*
X72390000Y-62230000D03*
G04 #@! TO.N,/Resonator_1/FH2b*
X68580000Y-88900000D03*
G04 #@! TO.N,/Resonator_1/GATEa*
X213360000Y-106045000D03*
X213360000Y-87630000D03*
G04 #@! TO.N,/Resonator_1/GATEb*
X207577978Y-106375210D03*
G04 #@! TO.N,/Resonator_2/FH1a*
X161290000Y-62230000D03*
X124460000Y-57150000D03*
G04 #@! TO.N,/Resonator_2/FH2a*
X161290000Y-104775000D03*
X127000000Y-104724187D03*
G04 #@! TO.N,/Resonator_2/FH1b*
X155575000Y-60960000D03*
G04 #@! TO.N,/Resonator_2/FH2b*
X151130000Y-88265000D03*
G04 #@! TO.N,Net-(Q1-Pad3)*
X213995000Y-64770000D03*
G04 #@! TO.N,Net-(C35-Pad2)*
X173990000Y-63500000D03*
X195249790Y-79422507D03*
X194640210Y-62162978D03*
G04 #@! TO.N,Net-(U14-Pad2)*
X191770000Y-58420000D03*
X191439790Y-48260000D03*
G04 #@! TO.N,Net-(U14-Pad4)*
X194945000Y-31750000D03*
X194242978Y-53012119D03*
G04 #@! TO.N,Net-(U15-Pad1)*
X193040000Y-38100000D03*
X193087507Y-46942493D03*
G04 #@! TO.N,Net-(U15-Pad8)*
X192405000Y-29210000D03*
X192405000Y-35560000D03*
G04 #@! TO.N,Net-(Q8-Pad2)*
X90805000Y-86360000D03*
X93649790Y-73746433D03*
G04 #@! TO.N,Net-(C1-Pad1)*
X224790000Y-93980000D03*
G04 #@! TD*
D15*
G04 #@! TO.N,+15V0*
X57150000Y-100330000D02*
X59055000Y-102235000D01*
X59055000Y-102235000D02*
X89535000Y-102235000D01*
X91440000Y-100330000D02*
X97790000Y-100330000D01*
X89535000Y-102235000D02*
X91440000Y-100330000D01*
X97790000Y-100330000D02*
X99695000Y-100330000D01*
X99695000Y-100330000D02*
X101600000Y-102235000D01*
X138430000Y-100330000D02*
X139217399Y-101117399D01*
X140157201Y-102057201D02*
X163652201Y-102057201D01*
X139217399Y-101117399D02*
X140157201Y-102057201D01*
X164744402Y-100965000D02*
X164744402Y-100685598D01*
X163652201Y-102057201D02*
X165100000Y-100330000D01*
X165100000Y-100330000D02*
X180340000Y-100330000D01*
X164744402Y-100685598D02*
X165100000Y-100330000D01*
X101600000Y-102235000D02*
X125730000Y-102235000D01*
X200660000Y-104140000D02*
X203200000Y-104140000D01*
X199390000Y-102870000D02*
X200660000Y-104140000D01*
X185420000Y-102870000D02*
X199390000Y-102870000D01*
X180340000Y-100330000D02*
X182880000Y-100330000D01*
X182880000Y-100330000D02*
X185420000Y-102870000D01*
D16*
X214630000Y-54610000D02*
X223977201Y-54610000D01*
D15*
X125730000Y-107950000D02*
X124942601Y-107162601D01*
X124942601Y-103022399D02*
X125730000Y-102235000D01*
X124942601Y-107162601D02*
X124942601Y-103022399D01*
X131445000Y-102235000D02*
X133350000Y-100330000D01*
X125730000Y-102235000D02*
X131445000Y-102235000D01*
X133350000Y-100330000D02*
X138430000Y-100330000D01*
X220802209Y-103682791D02*
X221462601Y-103022399D01*
X221462601Y-103022399D02*
X222250000Y-102235000D01*
X204926187Y-104838499D02*
X206081895Y-103682791D01*
X203898499Y-104838499D02*
X204926187Y-104838499D01*
X203200000Y-104140000D02*
X203898499Y-104838499D01*
X206081895Y-103682791D02*
X220802209Y-103682791D01*
G04 #@! TO.N,GND*
X180340000Y-21590000D02*
X176530000Y-21590000D01*
X176530000Y-21590000D02*
X175260000Y-20320000D01*
X142240000Y-22860000D02*
X138430000Y-22860000D01*
X144780000Y-20320000D02*
X142240000Y-22860000D01*
X57150000Y-24130000D02*
X62230000Y-24130000D01*
X62230000Y-24130000D02*
X64770000Y-21590000D01*
X64770000Y-21590000D02*
X78105000Y-21590000D01*
X92075000Y-20320000D02*
X94615000Y-22860000D01*
X78105000Y-21590000D02*
X79375000Y-20320000D01*
X79375000Y-20320000D02*
X92075000Y-20320000D01*
X94615000Y-22860000D02*
X97790000Y-22860000D01*
X102870000Y-20320000D02*
X100330000Y-22860000D01*
X100330000Y-22860000D02*
X97790000Y-22860000D01*
X138430000Y-22860000D02*
X135890000Y-20320000D01*
X180340000Y-34290000D02*
X187960000Y-34290000D01*
X102870000Y-100330000D02*
X105410000Y-100330000D01*
X101142799Y-98602799D02*
X102870000Y-100330000D01*
X89357201Y-98602799D02*
X101142799Y-98602799D01*
X64770000Y-100330000D02*
X87630000Y-100330000D01*
X87630000Y-100330000D02*
X89357201Y-98602799D01*
X105410000Y-100330000D02*
X129540000Y-100330000D01*
X129540000Y-100330000D02*
X131445000Y-98425000D01*
X131445000Y-98425000D02*
X140335000Y-98425000D01*
X140335000Y-98425000D02*
X142240000Y-100330000D01*
X142240000Y-100330000D02*
X146050000Y-100330000D01*
X185420000Y-100330000D02*
X187960000Y-100330000D01*
X183515000Y-98425000D02*
X185420000Y-100330000D01*
X163830000Y-98425000D02*
X183515000Y-98425000D01*
X146050000Y-100330000D02*
X161925000Y-100330000D01*
X161925000Y-100330000D02*
X163830000Y-98425000D01*
X128270000Y-110490000D02*
X130810000Y-110490000D01*
X130810000Y-110490000D02*
X133350000Y-110490000D01*
X128270000Y-107950000D02*
X130810000Y-107950000D01*
X130810000Y-107950000D02*
X133350000Y-107950000D01*
X128270000Y-110490000D02*
X128270000Y-107950000D01*
X130810000Y-110490000D02*
X130810000Y-107950000D01*
X133350000Y-110490000D02*
X133350000Y-107950000D01*
X144145000Y-68580000D02*
X146050000Y-68580000D01*
X138430000Y-71120000D02*
X141605000Y-71120000D01*
X141605000Y-71120000D02*
X144145000Y-68580000D01*
X146050000Y-68580000D02*
X149860000Y-68580000D01*
X175260000Y-20320000D02*
X147955000Y-20320000D01*
X147955000Y-20320000D02*
X144780000Y-20320000D01*
X135890000Y-20320000D02*
X107315000Y-20320000D01*
X107315000Y-20320000D02*
X102870000Y-20320000D01*
X228600000Y-102235000D02*
X229870000Y-102235000D01*
X226695000Y-100330000D02*
X228600000Y-102235000D01*
X220980000Y-100330000D02*
X226695000Y-100330000D01*
X201295000Y-100330000D02*
X202107799Y-99517201D01*
X187960000Y-100330000D02*
X201295000Y-100330000D01*
X205740000Y-101600000D02*
X207010000Y-101600000D01*
X204470000Y-102870000D02*
X205740000Y-101600000D01*
X204927201Y-99517201D02*
X207010000Y-101600000D01*
D16*
X50800000Y-78740000D02*
X55245000Y-78740000D01*
X45237399Y-52857399D02*
X49377601Y-52857399D01*
X44450000Y-52070000D02*
X45237399Y-52857399D01*
X49377601Y-52857399D02*
X51130202Y-54610000D01*
X51130202Y-54610000D02*
X57150000Y-54610000D01*
X54037990Y-73660000D02*
X57150000Y-73660000D01*
X52132990Y-71755000D02*
X54037990Y-73660000D01*
X45720000Y-73660000D02*
X47625000Y-71755000D01*
X47625000Y-71755000D02*
X52132990Y-71755000D01*
X72390000Y-49530000D02*
X64770000Y-49530000D01*
X72390000Y-58420000D02*
X66497201Y-58420000D01*
X73025000Y-54610000D02*
X66497201Y-54610000D01*
X74295000Y-55880000D02*
X73025000Y-54610000D01*
X78740000Y-55880000D02*
X74295000Y-55880000D01*
X78740000Y-44450000D02*
X74295000Y-44450000D01*
X74295000Y-44450000D02*
X72390000Y-46355000D01*
X72390000Y-46355000D02*
X72390000Y-49530000D01*
X65883551Y-68580000D02*
X64770000Y-68580000D01*
X76200000Y-68580000D02*
X65883551Y-68580000D01*
X78740000Y-66040000D02*
X76200000Y-68580000D01*
X86360000Y-71120000D02*
X88239611Y-69240389D01*
X88239611Y-69240389D02*
X92327509Y-69240389D01*
X92327509Y-69240389D02*
X94207120Y-71120000D01*
X94207120Y-71120000D02*
X96676449Y-71120000D01*
X96676449Y-71120000D02*
X97790000Y-71120000D01*
X93694501Y-75692001D02*
X95681822Y-75692001D01*
X93186502Y-76200000D02*
X93694501Y-75692001D01*
X95681822Y-75692001D02*
X96189821Y-76200000D01*
X91440000Y-76200000D02*
X93186502Y-76200000D01*
X136461501Y-76263499D02*
X136525000Y-76200000D01*
X130873499Y-76263499D02*
X136461501Y-76263499D01*
X130175000Y-75565000D02*
X130873499Y-76263499D01*
X130369562Y-68580000D02*
X136525000Y-68580000D01*
X127000000Y-68580000D02*
X130369562Y-68580000D01*
X125095000Y-70485000D02*
X127000000Y-68580000D01*
X177165000Y-73660000D02*
X180340000Y-73660000D01*
X172720000Y-75565000D02*
X175260000Y-75565000D01*
X175260000Y-75565000D02*
X177165000Y-73660000D01*
X85725000Y-36830000D02*
X95885000Y-36830000D01*
X85725000Y-52070000D02*
X95885000Y-52070000D01*
X155575000Y-58420000D02*
X147955000Y-58420000D01*
X158115000Y-55880000D02*
X155575000Y-58420000D01*
X161290000Y-55880000D02*
X158115000Y-55880000D01*
X154940000Y-49530000D02*
X147163551Y-49530000D01*
X147163551Y-49530000D02*
X146050000Y-49530000D01*
X156210000Y-48260000D02*
X154940000Y-49530000D01*
X158750000Y-48260000D02*
X156210000Y-48260000D01*
X126365000Y-52070000D02*
X136525000Y-52070000D01*
X151130000Y-43180000D02*
X147955000Y-43180000D01*
X152400000Y-41910000D02*
X151130000Y-43180000D01*
X160020000Y-41910000D02*
X152400000Y-41910000D01*
X208280000Y-90170000D02*
X203657201Y-90170000D01*
D15*
X220345000Y-100965000D02*
X220980000Y-100330000D01*
X218440000Y-97790000D02*
X219710000Y-97790000D01*
X219710000Y-97790000D02*
X220345000Y-98425000D01*
X220345000Y-98425000D02*
X220345000Y-100965000D01*
D16*
X177956449Y-69850000D02*
X179226449Y-71120000D01*
X179226449Y-71120000D02*
X180340000Y-71120000D01*
X175260000Y-69850000D02*
X177956449Y-69850000D01*
X173990000Y-68580000D02*
X175260000Y-69850000D01*
X169545000Y-68580000D02*
X173990000Y-68580000D01*
X167640000Y-70485000D02*
X169545000Y-68580000D01*
X168275000Y-52070000D02*
X178435000Y-52070000D01*
X159385000Y-26035000D02*
X147955000Y-26035000D01*
D15*
X207517980Y-102107980D02*
X219202020Y-102107980D01*
X207010000Y-101600000D02*
X207517980Y-102107980D01*
X219837001Y-101472999D02*
X220345000Y-100965000D01*
X219202020Y-102107980D02*
X219837001Y-101472999D01*
X204470000Y-96520000D02*
X204470000Y-99517201D01*
X203200000Y-95250000D02*
X204470000Y-96520000D01*
X201930000Y-95250000D02*
X203200000Y-95250000D01*
X202107799Y-99517201D02*
X204470000Y-99517201D01*
X204470000Y-99517201D02*
X204927201Y-99517201D01*
X196850000Y-110490000D02*
X194310000Y-110490000D01*
X194310000Y-110490000D02*
X191770000Y-110490000D01*
X191770000Y-110490000D02*
X189230000Y-110490000D01*
X189230000Y-110490000D02*
X186690000Y-110490000D01*
G04 #@! TO.N,-15V0*
X64770000Y-24130000D02*
X79375000Y-24130000D01*
X79375000Y-24130000D02*
X81280000Y-22225000D01*
X81280000Y-22225000D02*
X90170000Y-22225000D01*
X90170000Y-22225000D02*
X92710000Y-24765000D01*
X92710000Y-24765000D02*
X102235000Y-24765000D01*
X102235000Y-24765000D02*
X104140000Y-22860000D01*
X104140000Y-22860000D02*
X105410000Y-22860000D01*
X212725000Y-42545000D02*
X229235000Y-42545000D01*
X144322799Y-24587201D02*
X145262601Y-23647399D01*
X145262601Y-23647399D02*
X146050000Y-22860000D01*
X135086343Y-22072601D02*
X137600943Y-24587201D01*
X106197399Y-22072601D02*
X135086343Y-22072601D01*
X105410000Y-22860000D02*
X106197399Y-22072601D01*
X137600943Y-24587201D02*
X144322799Y-24587201D01*
X186055000Y-21590000D02*
X187960000Y-21590000D01*
X163830000Y-22860000D02*
X164465000Y-22225000D01*
X146050000Y-22860000D02*
X163830000Y-22860000D01*
X164465000Y-22225000D02*
X171450000Y-22225000D01*
X171450000Y-22225000D02*
X173355000Y-24130000D01*
X173355000Y-24130000D02*
X183515000Y-24130000D01*
X183515000Y-24130000D02*
X186055000Y-21590000D01*
D16*
G04 #@! TO.N,Net-(C9-Pad1)*
X92710000Y-70485000D02*
X92710000Y-72390000D01*
X92075000Y-69850000D02*
X92710000Y-70485000D01*
X90805000Y-69850000D02*
X92075000Y-69850000D01*
X87630000Y-72390000D02*
X88265000Y-72390000D01*
X88265000Y-72390000D02*
X90805000Y-69850000D01*
X93980000Y-76835000D02*
X94487999Y-77342999D01*
X94487999Y-77342999D02*
X96419881Y-77342999D01*
X97562880Y-76200000D02*
X97790000Y-76200000D01*
X96419881Y-77342999D02*
X97562880Y-76200000D01*
G04 #@! TO.N,Net-(C9-Pad2)*
X93980000Y-81280000D02*
X93980000Y-78740000D01*
X91440000Y-78740000D02*
X93980000Y-78740000D01*
X93980000Y-78740000D02*
X97790000Y-78740000D01*
G04 #@! TO.N,Net-(C10-Pad1)*
X46990000Y-80010000D02*
X49530000Y-77470000D01*
X45085000Y-80010000D02*
X46990000Y-80010000D01*
X44450000Y-77470000D02*
X44450000Y-79375000D01*
X44450000Y-79375000D02*
X45085000Y-80010000D01*
X54610000Y-58420000D02*
X57150000Y-60960000D01*
X53340000Y-58420000D02*
X54610000Y-58420000D01*
G04 #@! TO.N,Net-(C10-Pad2)*
X50139601Y-64744601D02*
X54000399Y-64744601D01*
X49530000Y-64135000D02*
X50139601Y-64744601D01*
X55245000Y-63500000D02*
X57150000Y-63500000D01*
X54000399Y-64744601D02*
X55245000Y-63500000D01*
X75565000Y-78740000D02*
X78740000Y-78740000D01*
X75386566Y-64770000D02*
X75434073Y-64722493D01*
X75434073Y-64722493D02*
X76152493Y-64722493D01*
X62230000Y-64770000D02*
X75386566Y-64770000D01*
X61595000Y-64135000D02*
X62230000Y-64770000D01*
X58898551Y-64135000D02*
X61595000Y-64135000D01*
X58263551Y-63500000D02*
X58898551Y-64135000D01*
X57150000Y-63500000D02*
X58263551Y-63500000D01*
G04 #@! TO.N,Net-(C33-Pad1)*
X173990000Y-69850000D02*
X173990000Y-71755000D01*
X173355000Y-69215000D02*
X173990000Y-69850000D01*
X168910000Y-71755000D02*
X171450000Y-69215000D01*
X171450000Y-69215000D02*
X173355000Y-69215000D01*
X175895000Y-71755000D02*
X176530000Y-71120000D01*
X173990000Y-71755000D02*
X175895000Y-71755000D01*
X190656449Y-71120000D02*
X189386449Y-72390000D01*
X191770000Y-71120000D02*
X190656449Y-71120000D01*
X179070000Y-72390000D02*
X177800000Y-71120000D01*
X177800000Y-71120000D02*
X176530000Y-71120000D01*
X180340000Y-76200000D02*
X183515011Y-76200000D01*
X189386449Y-72390000D02*
X183515000Y-72390000D01*
X183515000Y-72390000D02*
X179070000Y-72390000D01*
G04 #@! TO.N,Net-(C33-Pad2)*
X176530000Y-78740000D02*
X180340000Y-78740000D01*
G04 #@! TO.N,Net-(C34-Pad1)*
X126365000Y-76835000D02*
X128905000Y-74295000D01*
X124654562Y-76835000D02*
X126365000Y-76835000D01*
X123825000Y-74295000D02*
X123825000Y-76005438D01*
X123825000Y-76005438D02*
X124654562Y-76835000D01*
X137642601Y-60172601D02*
X136372601Y-60172601D01*
X138430000Y-60960000D02*
X137642601Y-60172601D01*
X135915399Y-59715399D02*
X132054601Y-59715399D01*
X136372601Y-60172601D02*
X135915399Y-59715399D01*
X129540000Y-62230000D02*
X129540000Y-63500000D01*
X132054601Y-59715399D02*
X129540000Y-62230000D01*
X129540000Y-63500000D02*
X122555000Y-63500000D01*
G04 #@! TO.N,Net-(C34-Pad2)*
X160020000Y-78740000D02*
X156210000Y-78740000D01*
X156210000Y-78740000D02*
X155575000Y-78105000D01*
X155575000Y-78105000D02*
X153035000Y-78105000D01*
X134620000Y-63500000D02*
X138430000Y-63500000D01*
X138430000Y-63500000D02*
X139543551Y-63500000D01*
X139873752Y-63169799D02*
X142703297Y-63169799D01*
X144328897Y-64795399D02*
X151366151Y-64795399D01*
X151366151Y-64795399D02*
X152458341Y-63703209D01*
X152458341Y-63703209D02*
X152966340Y-63195210D01*
X139543551Y-63500000D02*
X139873752Y-63169799D01*
X142703297Y-63169799D02*
X144328897Y-64795399D01*
G04 #@! TO.N,Net-(D1-Pad1)*
X68580000Y-62230000D02*
X68580000Y-63500000D01*
X71120000Y-59690000D02*
X68580000Y-62230000D01*
G04 #@! TO.N,Net-(D2-Pad1)*
X70421501Y-51498499D02*
X68580000Y-53340000D01*
X71120000Y-50800000D02*
X70421501Y-51498499D01*
G04 #@! TO.N,Net-(D7-Pad1)*
X163195000Y-68580000D02*
X166370000Y-68580000D01*
X160020000Y-68580000D02*
X163195000Y-68580000D01*
G04 #@! TO.N,Net-(D8-Pad1)*
X157877232Y-53340000D02*
X157810210Y-53272978D01*
X151130000Y-55880000D02*
X153737022Y-53272978D01*
X157091790Y-53272978D02*
X157810210Y-53272978D01*
X153737022Y-53272978D02*
X157091790Y-53272978D01*
X161290000Y-53340000D02*
X157877232Y-53340000D01*
G04 #@! TO.N,Net-(D11-Pad1)*
X191770000Y-95250000D02*
X199390000Y-95250000D01*
X201142601Y-93497399D02*
X201930000Y-92710000D01*
X199390000Y-95250000D02*
X201142601Y-93497399D01*
X204470000Y-62230000D02*
X203377800Y-62230000D01*
X203377800Y-62230000D02*
X200837800Y-64770000D01*
X200837800Y-64770000D02*
X195580000Y-64770000D01*
G04 #@! TO.N,Net-(R10-Pad2)*
X208280000Y-77470000D02*
X211455000Y-77470000D01*
X211455000Y-77470000D02*
X213995000Y-74930000D01*
X213995000Y-74930000D02*
X218440000Y-74930000D01*
X218440000Y-74930000D02*
X218667120Y-74930000D01*
X218667120Y-74930000D02*
X219937120Y-73660000D01*
X219937120Y-73660000D02*
X228600000Y-73660000D01*
X229082601Y-74142601D02*
X229870000Y-74930000D01*
X228600000Y-73660000D02*
X229082601Y-74142601D01*
G04 #@! TO.N,Net-(R29-Pad1)*
X104140000Y-41910000D02*
X105410000Y-41910000D01*
X81280000Y-38100000D02*
X100330000Y-38100000D01*
X100330000Y-38100000D02*
X104140000Y-41910000D01*
X105410000Y-31750000D02*
X109855000Y-31750000D01*
X109855000Y-41910000D02*
X105410000Y-41910000D01*
G04 #@! TO.N,Net-(R38-Pad2)*
X105410000Y-81280000D02*
X109220000Y-81280000D01*
X94615000Y-67310000D02*
X97129601Y-69824601D01*
X91770202Y-67310000D02*
X94615000Y-67310000D01*
X91287601Y-67792601D02*
X91770202Y-67310000D01*
X84607399Y-67792601D02*
X91287601Y-67792601D01*
X83820000Y-68580000D02*
X84607399Y-67792601D01*
X97129601Y-69824601D02*
X106019601Y-69824601D01*
X106019601Y-69824601D02*
X108534202Y-67310000D01*
X108534202Y-67310000D02*
X111760000Y-67310000D01*
G04 #@! TO.N,Net-(R48-Pad2)*
X95885000Y-93980000D02*
X93980000Y-93980000D01*
X97155000Y-92710000D02*
X95885000Y-93980000D01*
X99695000Y-92710000D02*
X97155000Y-92710000D01*
X105410000Y-93980000D02*
X100965000Y-93980000D01*
X100965000Y-93980000D02*
X99695000Y-92710000D01*
X86360000Y-96520000D02*
X83820000Y-96520000D01*
X93980000Y-93980000D02*
X88900000Y-93980000D01*
X88900000Y-93980000D02*
X86360000Y-96520000D01*
G04 #@! TO.N,Net-(R68-Pad2)*
X146050000Y-78740000D02*
X149860000Y-78740000D01*
X158267399Y-79527399D02*
X159232601Y-80492601D01*
X159232601Y-80492601D02*
X160020000Y-81280000D01*
X149860000Y-78740000D02*
X150647399Y-79527399D01*
X150647399Y-79527399D02*
X158267399Y-79527399D01*
G04 #@! TO.N,Net-(R78-Pad2)*
X189052200Y-81280000D02*
X191770000Y-81280000D01*
X187960000Y-81280000D02*
X189052200Y-81280000D01*
X199916199Y-83515210D02*
X200634619Y-83515210D01*
X199890787Y-83489798D02*
X199916199Y-83515210D01*
X193979798Y-83489798D02*
X199890787Y-83489798D01*
X191770000Y-81280000D02*
X193979798Y-83489798D01*
G04 #@! TO.N,Net-(U5-Pad2)*
X207010000Y-38100000D02*
X204470000Y-38100000D01*
X206621790Y-45787022D02*
X207340210Y-45787022D01*
X105410000Y-46990000D02*
X120650000Y-46990000D01*
X206554768Y-45720000D02*
X206621790Y-45787022D01*
X121920000Y-45720000D02*
X206554768Y-45720000D01*
X120650000Y-46990000D02*
X121920000Y-45720000D01*
G04 #@! TO.N,Net-(R31-Pad1)*
X116205000Y-41910000D02*
X112395000Y-41910000D01*
X112395000Y-41910000D02*
X111760000Y-41910000D01*
X110515399Y-40665399D02*
X104165399Y-40665399D01*
X111760000Y-41910000D02*
X110515399Y-40665399D01*
X104165399Y-40665399D02*
X103505000Y-40005000D01*
X102235000Y-38735000D02*
X102235000Y-38100000D01*
X103505000Y-40005000D02*
X102235000Y-38735000D01*
X102234989Y-41910000D02*
X97790000Y-41910000D01*
X97790000Y-31750000D02*
X102234989Y-31750000D01*
G04 #@! TO.N,Net-(R88-Pad2)*
X171450000Y-91440000D02*
X176530000Y-91440000D01*
X166370000Y-93980000D02*
X168910000Y-93980000D01*
X168910000Y-93980000D02*
X171450000Y-91440000D01*
X177800000Y-91440000D02*
X176530000Y-91440000D01*
X179070000Y-92710000D02*
X177800000Y-91440000D01*
X183515000Y-92710000D02*
X179070000Y-92710000D01*
X187960000Y-93980000D02*
X184785000Y-93980000D01*
X184785000Y-93980000D02*
X183515000Y-92710000D01*
G04 #@! TO.N,Net-(C1-Pad2)*
X215900000Y-92710000D02*
X218440000Y-90170000D01*
X222250000Y-85090000D02*
X220980000Y-83820000D01*
X216405811Y-83820000D02*
X216313599Y-83912212D01*
X216313599Y-83912212D02*
X215595179Y-83912212D01*
X220980000Y-83820000D02*
X216405811Y-83820000D01*
G04 #@! TO.N,Net-(C6-Pad1)*
X46507399Y-64287399D02*
X48260000Y-66040000D01*
X43180000Y-63500000D02*
X43967399Y-64287399D01*
X43967399Y-64287399D02*
X46507399Y-64287399D01*
X53340000Y-60960000D02*
X54610000Y-62230000D01*
X54610000Y-62230000D02*
X59055000Y-62230000D01*
X59055000Y-62230000D02*
X60325000Y-63500000D01*
X60325000Y-63500000D02*
X64770000Y-63500000D01*
X47323077Y-60960000D02*
X47294790Y-60988287D01*
X53340000Y-60960000D02*
X47323077Y-60960000D01*
X50165000Y-36830000D02*
X57150000Y-36830000D01*
G04 #@! TO.N,/Resonator_1/OUTa*
X50800000Y-66040000D02*
X53340000Y-66040000D01*
X48895000Y-67945000D02*
X50800000Y-66040000D01*
X46355000Y-67945000D02*
X48895000Y-67945000D01*
X40640000Y-66675000D02*
X45085000Y-66675000D01*
X45085000Y-66675000D02*
X46355000Y-67945000D01*
X61595000Y-66040000D02*
X64770000Y-66040000D01*
X60325000Y-64770000D02*
X61595000Y-66040000D01*
X55880000Y-64770000D02*
X60325000Y-64770000D01*
X53340000Y-66040000D02*
X54610000Y-66040000D01*
X54610000Y-66040000D02*
X55880000Y-64770000D01*
X205172030Y-65735202D02*
X205562211Y-65345021D01*
X195116702Y-65735202D02*
X205172030Y-65735202D01*
X194151500Y-64770000D02*
X195116702Y-65735202D01*
X151167569Y-67284601D02*
X153682170Y-64770000D01*
X141446502Y-64770000D02*
X143961103Y-67284601D01*
X100902010Y-64770000D02*
X141446502Y-64770000D01*
X98387409Y-67284601D02*
X100902010Y-64770000D01*
X97192591Y-67284601D02*
X98387409Y-67284601D01*
X143961103Y-67284601D02*
X151167569Y-67284601D01*
X65862200Y-66040000D02*
X67132200Y-67310000D01*
X153682170Y-64770000D02*
X194151500Y-64770000D01*
X64770000Y-66040000D02*
X65862200Y-66040000D01*
X74930000Y-67310000D02*
X77470000Y-64770000D01*
X77470000Y-64770000D02*
X94677990Y-64770000D01*
X67132200Y-67310000D02*
X74930000Y-67310000D01*
X94677990Y-64770000D02*
X97192591Y-67284601D01*
X205562211Y-65345021D02*
X206070210Y-64837022D01*
G04 #@! TO.N,Net-(C7-Pad1)*
X74930000Y-57150000D02*
X88900000Y-57150000D01*
X88900000Y-57150000D02*
X90170000Y-58420000D01*
X90170000Y-58420000D02*
X91440000Y-58420000D01*
X70523886Y-38558243D02*
X73431433Y-38558243D01*
X66040000Y-38100000D02*
X70065643Y-38100000D01*
X64770000Y-36830000D02*
X66040000Y-38100000D01*
X73431433Y-38558243D02*
X73939432Y-38050244D01*
X70065643Y-38100000D02*
X70523886Y-38558243D01*
X91440000Y-58420000D02*
X92227399Y-59207399D01*
X93980000Y-63500000D02*
X94615000Y-63500000D01*
X94615000Y-63500000D02*
X95885000Y-64770000D01*
X95885000Y-64770000D02*
X99060000Y-64770000D01*
X99060000Y-64770000D02*
X100330000Y-63500000D01*
X100330000Y-63500000D02*
X105410000Y-63500000D01*
G04 #@! TO.N,/Resonator_1/OUTb*
X101600000Y-66040000D02*
X105410000Y-66040000D01*
X101600000Y-54610000D02*
X85725000Y-54610000D01*
X83820000Y-92137990D02*
X85787990Y-90170000D01*
X83820000Y-93980000D02*
X83820000Y-92137990D01*
X85787990Y-90170000D02*
X101600000Y-90170000D01*
X208280000Y-72390000D02*
X210820000Y-72390000D01*
X212090000Y-105410000D02*
X207010000Y-105410000D01*
X205899305Y-105410000D02*
X205264305Y-106045000D01*
X207010000Y-105410000D02*
X205899305Y-105410000D01*
X205264305Y-106045000D02*
X193675000Y-106045000D01*
X193675000Y-106045000D02*
X127000000Y-106045000D01*
X122555000Y-106045000D02*
X101600000Y-106045000D01*
G04 #@! TO.N,Net-(C8-Pad1)*
X47688499Y-74231501D02*
X47688499Y-73596501D01*
X46990000Y-74930000D02*
X47688499Y-74231501D01*
X47688499Y-73596501D02*
X48895000Y-72390000D01*
X52070000Y-73942172D02*
X52070000Y-74930000D01*
X52070000Y-73219562D02*
X52070000Y-73942172D01*
X51240438Y-72390000D02*
X52070000Y-73219562D01*
X48895000Y-72390000D02*
X51240438Y-72390000D01*
X52070000Y-74930000D02*
X53975000Y-74930000D01*
X53975000Y-74930000D02*
X55245000Y-76200000D01*
X55245000Y-76200000D02*
X57150000Y-76200000D01*
X57150000Y-76200000D02*
X60960000Y-76200000D01*
X62073551Y-70485000D02*
X62708551Y-69850000D01*
X60960000Y-70485000D02*
X62073551Y-70485000D01*
X62708551Y-69850000D02*
X66040000Y-69850000D01*
X66040000Y-69850000D02*
X67310000Y-71120000D01*
X67310000Y-71120000D02*
X68580000Y-71120000D01*
G04 #@! TO.N,Net-(C8-Pad2)*
X52226449Y-83820000D02*
X53340000Y-83820000D01*
X50800000Y-82393551D02*
X52226449Y-83820000D01*
X50800000Y-81280000D02*
X50800000Y-82393551D01*
X56362601Y-79527399D02*
X57150000Y-78740000D01*
X54127399Y-81762601D02*
X56362601Y-79527399D01*
X54127399Y-83032601D02*
X54127399Y-81762601D01*
X53340000Y-83820000D02*
X54127399Y-83032601D01*
G04 #@! TO.N,Net-(C11-Pad1)*
X85090000Y-76640438D02*
X85919562Y-77470000D01*
X85090000Y-74930000D02*
X85090000Y-76640438D01*
X85919562Y-77470000D02*
X87630000Y-77470000D01*
X87630000Y-77470000D02*
X90170000Y-74930000D01*
X82988672Y-74930000D02*
X82969089Y-74910417D01*
X85090000Y-74930000D02*
X82988672Y-74930000D01*
X96545399Y-59715399D02*
X93319601Y-59715399D01*
X97790000Y-60960000D02*
X96545399Y-59715399D01*
X93319601Y-59715399D02*
X92710000Y-60325000D01*
X92710000Y-60325000D02*
X86995000Y-60325000D01*
G04 #@! TO.N,Net-(C11-Pad2)*
X91414601Y-62255399D02*
X91440000Y-62230000D01*
X78740000Y-63500000D02*
X79984601Y-62255399D01*
X79984601Y-62255399D02*
X91414601Y-62255399D01*
X91440000Y-62230000D02*
X94615000Y-62230000D01*
X94615000Y-62230000D02*
X95885000Y-63500000D01*
X95885000Y-63500000D02*
X97790000Y-63500000D01*
X115724348Y-62230000D02*
X115791370Y-62162978D01*
X99060000Y-62230000D02*
X115724348Y-62230000D01*
X97790000Y-63500000D02*
X99060000Y-62230000D01*
X115791370Y-62162978D02*
X116509790Y-62162978D01*
G04 #@! TO.N,Net-(C12-Pad1)*
X57150000Y-91440000D02*
X53340000Y-91440000D01*
X50800000Y-91440000D02*
X48260000Y-93980000D01*
X53340000Y-91440000D02*
X50800000Y-91440000D01*
G04 #@! TO.N,/Resonator_1/FW1a*
X53340000Y-93980000D02*
X57150000Y-93980000D01*
X57150000Y-93980000D02*
X58420000Y-93980000D01*
X58420000Y-93980000D02*
X59055000Y-93345000D01*
X59055000Y-93345000D02*
X59690000Y-92710000D01*
X59690000Y-92710000D02*
X80010000Y-92710000D01*
X80010000Y-107950000D02*
X82550000Y-110490000D01*
G04 #@! TO.N,Net-(C13-Pad1)*
X87604601Y-92684601D02*
X93370399Y-92684601D01*
X86360000Y-91440000D02*
X87604601Y-92684601D01*
X93370399Y-92684601D02*
X93980000Y-92075000D01*
X97790000Y-91440000D02*
X94615000Y-91440000D01*
X94615000Y-91440000D02*
X93980000Y-92075000D01*
G04 #@! TO.N,/Resonator_1/FW1b*
X69850000Y-107950000D02*
X72390000Y-110490000D01*
X72390000Y-110490000D02*
X71755000Y-110490000D01*
X96137509Y-94589609D02*
X95910391Y-94589609D01*
X97790000Y-93980000D02*
X96747118Y-93980000D01*
X96747118Y-93980000D02*
X96137509Y-94589609D01*
X95910391Y-94589609D02*
X95250000Y-95250000D01*
X95250000Y-95250000D02*
X91440000Y-95250000D01*
X86690210Y-98094790D02*
X70568420Y-98094790D01*
X70568420Y-98094790D02*
X69850000Y-98094790D01*
X91440000Y-95250000D02*
X89535000Y-95250000D01*
X89535000Y-95250000D02*
X86690210Y-98094790D01*
G04 #@! TO.N,/Resonator_2/OUTa*
X144145000Y-66040000D02*
X146050000Y-66040000D01*
X142240000Y-64135000D02*
X144145000Y-66040000D01*
X128270000Y-87630000D02*
X124460000Y-91440000D01*
X142240000Y-87630000D02*
X128270000Y-87630000D01*
X208280000Y-69850000D02*
X179705000Y-69850000D01*
X179705000Y-69850000D02*
X177165000Y-67310000D01*
X177165000Y-67310000D02*
X163195000Y-67310000D01*
X163195000Y-67310000D02*
X162560000Y-66675000D01*
X162560000Y-66675000D02*
X161290000Y-66675000D01*
X146050000Y-66040000D02*
X151550050Y-66040000D01*
X151550050Y-66040000D02*
X154039237Y-63550813D01*
X160571580Y-63550813D02*
X161290000Y-63550813D01*
X154039237Y-63550813D02*
X160571580Y-63550813D01*
X140854556Y-57150000D02*
X141188068Y-57483512D01*
X130810000Y-57150000D02*
X140854556Y-57150000D01*
X129540000Y-58420000D02*
X130810000Y-57150000D01*
X141188068Y-57483512D02*
X141906488Y-57483512D01*
G04 #@! TO.N,Net-(C30-Pad1)*
X146050000Y-63500000D02*
X144145000Y-63500000D01*
X144145000Y-63500000D02*
X142875000Y-62230000D01*
X142875000Y-62230000D02*
X137160000Y-62230000D01*
X137160000Y-62230000D02*
X135890000Y-60960000D01*
X135890000Y-60960000D02*
X134620000Y-60960000D01*
X134620000Y-36830000D02*
X138430000Y-36830000D01*
G04 #@! TO.N,/Resonator_2/OUTb*
X170992800Y-58420000D02*
X171450000Y-58420000D01*
X168275000Y-55702200D02*
X170992800Y-58420000D01*
X168275000Y-54610000D02*
X168275000Y-55702200D01*
X189052200Y-66040000D02*
X190322200Y-67310000D01*
X187960000Y-66040000D02*
X189052200Y-66040000D01*
X207166449Y-67310000D02*
X208280000Y-67310000D01*
X190322200Y-67310000D02*
X207166449Y-67310000D01*
X166370000Y-91440000D02*
X169545000Y-91440000D01*
X169545000Y-91440000D02*
X170180000Y-90805000D01*
X170180000Y-90805000D02*
X170815000Y-90170000D01*
X170815000Y-90170000D02*
X173990000Y-90170000D01*
X191392283Y-57150000D02*
X191566791Y-56975492D01*
X172720000Y-57150000D02*
X191392283Y-57150000D01*
X191566791Y-56975492D02*
X192074790Y-56467493D01*
X171450000Y-58420000D02*
X172720000Y-57150000D01*
G04 #@! TO.N,Net-(C31-Pad1)*
X146710390Y-36169610D02*
X146937509Y-36169609D01*
X146050000Y-36830000D02*
X146710390Y-36169610D01*
X146937509Y-36169609D02*
X147547118Y-35560000D01*
X147547118Y-35560000D02*
X154305000Y-35560000D01*
X172022010Y-59690000D02*
X173292010Y-58420000D01*
X154305000Y-59690000D02*
X172022010Y-59690000D01*
X173292010Y-58420000D02*
X176530000Y-58420000D01*
X183515011Y-63500000D02*
X187960000Y-63500000D01*
X176530000Y-66040000D02*
X177643551Y-66040000D01*
X177643551Y-66040000D02*
X178913551Y-67310000D01*
X182796580Y-67310000D02*
X183515000Y-67310000D01*
X178913551Y-67310000D02*
X182796580Y-67310000D01*
G04 #@! TO.N,Net-(C32-Pad1)*
X131445000Y-70767172D02*
X131445000Y-71755000D01*
X131445000Y-70044562D02*
X131445000Y-70767172D01*
X130615438Y-69215000D02*
X131445000Y-70044562D01*
X128905000Y-69215000D02*
X130615438Y-69215000D01*
X126365000Y-71755000D02*
X128905000Y-69215000D01*
X131445000Y-70044562D02*
X132520438Y-70044562D01*
X132715000Y-69850000D02*
X133985000Y-69850000D01*
X132520438Y-70044562D02*
X132715000Y-69850000D01*
X142875000Y-76200000D02*
X143510000Y-76200000D01*
X143510000Y-76200000D02*
X144780000Y-77470000D01*
X144780000Y-77470000D02*
X151765000Y-77470000D01*
X133985000Y-69850000D02*
X139065000Y-69850000D01*
X139065000Y-69850000D02*
X139700000Y-69850000D01*
X139700000Y-69850000D02*
X140970000Y-68580000D01*
X141605011Y-76200000D02*
X142875000Y-76200000D01*
X138430000Y-76200000D02*
X141605011Y-76200000D01*
G04 #@! TO.N,Net-(C32-Pad2)*
X134620000Y-78740000D02*
X138430000Y-78740000D01*
G04 #@! TO.N,Net-(C35-Pad1)*
X168910000Y-76835000D02*
X171450000Y-74295000D01*
X167005000Y-76835000D02*
X168910000Y-76835000D01*
X166370000Y-74295000D02*
X166370000Y-76200000D01*
X166370000Y-76200000D02*
X167005000Y-76835000D01*
X171450000Y-63500000D02*
X175260000Y-59690000D01*
X175260000Y-59690000D02*
X177800000Y-59690000D01*
X177800000Y-59690000D02*
X179070000Y-60960000D01*
X179070000Y-60960000D02*
X180340000Y-60960000D01*
X171450000Y-63500000D02*
X165100000Y-63500000D01*
G04 #@! TO.N,/Resonator_2/FW1a*
X129540000Y-95250000D02*
X130810000Y-95250000D01*
X130810000Y-95250000D02*
X133350000Y-92710000D01*
X133350000Y-92710000D02*
X135255000Y-92710000D01*
X135255000Y-92772990D02*
X136462010Y-93980000D01*
X135255000Y-92710000D02*
X135255000Y-92772990D01*
X136462010Y-93980000D02*
X138430000Y-93980000D01*
X138430000Y-93980000D02*
X143510000Y-93980000D01*
X143510000Y-93980000D02*
X144780000Y-95250000D01*
X144780000Y-95250000D02*
X163830000Y-95250000D01*
X163830000Y-107950000D02*
X166370000Y-110490000D01*
G04 #@! TO.N,Net-(C36-Pad1)*
X137160000Y-91440000D02*
X138430000Y-91440000D01*
X134620000Y-88900000D02*
X137160000Y-91440000D01*
G04 #@! TO.N,/Resonator_2/FW1b*
X172263434Y-92710000D02*
X172215927Y-92757507D01*
X180340000Y-93980000D02*
X179226449Y-93980000D01*
X179226449Y-93980000D02*
X177956449Y-92710000D01*
X172215927Y-92757507D02*
X171497507Y-92757507D01*
X177956449Y-92710000D02*
X172263434Y-92710000D01*
X153670000Y-107950000D02*
X156210000Y-110490000D01*
X157480000Y-90170000D02*
X166370000Y-90170000D01*
X166370000Y-90170000D02*
X167640000Y-88900000D01*
X167640000Y-88900000D02*
X171450000Y-88900000D01*
G04 #@! TO.N,+5V0*
X191770000Y-85090000D02*
X195580000Y-85090000D01*
X196215000Y-84455000D02*
X198577199Y-84455000D01*
X195580000Y-85090000D02*
X196215000Y-84455000D01*
X198602611Y-82550000D02*
X198577199Y-82524588D01*
X208280000Y-82550000D02*
X198602611Y-82550000D01*
X123190000Y-111603551D02*
X123981449Y-112395000D01*
X123190000Y-110490000D02*
X123190000Y-111603551D01*
X123981449Y-112395000D02*
X201930000Y-112395000D01*
X201930000Y-112395000D02*
X202565000Y-112395000D01*
X191770000Y-92710000D02*
X198577199Y-92710000D01*
G04 #@! TO.N,Net-(D3-Pad2)*
X213995000Y-100330000D02*
X218440000Y-100330000D01*
X208280000Y-97790000D02*
X211455000Y-97790000D01*
X211455000Y-97790000D02*
X213995000Y-100330000D01*
X218440000Y-95250000D02*
X215900000Y-95250000D01*
X215900000Y-100330000D02*
X218440000Y-100330000D01*
X204470000Y-30480000D02*
X209550000Y-30480000D01*
G04 #@! TO.N,Net-(D4-Pad2)*
X208280000Y-85090000D02*
X213360000Y-85090000D01*
X213360000Y-85090000D02*
X215900000Y-87630000D01*
X215900000Y-87630000D02*
X218440000Y-87630000D01*
X205740000Y-85090000D02*
X208280000Y-85090000D01*
G04 #@! TO.N,Net-(D10-Pad2)*
X199390000Y-87630000D02*
X201142601Y-85877399D01*
X201142601Y-85877399D02*
X201930000Y-85090000D01*
X191770000Y-87630000D02*
X199390000Y-87630000D01*
X196850000Y-33020000D02*
X200025000Y-33020000D01*
G04 #@! TO.N,/Resonator_1/RWa*
X40843209Y-62217438D02*
X40335210Y-62725437D01*
X52057438Y-62217438D02*
X40843209Y-62217438D01*
X53340000Y-63500000D02*
X52057438Y-62217438D01*
G04 #@! TO.N,/Resonator_1/ATTACKa*
X39573178Y-72366402D02*
X39065179Y-71858403D01*
X53340000Y-71120000D02*
X45720000Y-71120000D01*
X45720000Y-71120000D02*
X44473598Y-72366402D01*
X44473598Y-72366402D02*
X39573178Y-72366402D01*
G04 #@! TO.N,+10*
X44450000Y-46990000D02*
X47625000Y-46990000D01*
X47625000Y-41910000D02*
X44450000Y-41910000D01*
X84429601Y-43205399D02*
X85725000Y-41910000D01*
X55905399Y-43205399D02*
X84429601Y-43205399D01*
X47625000Y-41910000D02*
X54610000Y-41910000D01*
X54610000Y-41910000D02*
X55905399Y-43205399D01*
X168275000Y-41910000D02*
X176530000Y-41910000D01*
X176530000Y-41910000D02*
X177800000Y-43180000D01*
X177800000Y-43180000D02*
X193675000Y-43180000D01*
X193675000Y-43180000D02*
X194945000Y-44450000D01*
X194945000Y-44450000D02*
X212090000Y-44450000D01*
X210820000Y-57150000D02*
X218440000Y-57150000D01*
X209067399Y-58902601D02*
X210820000Y-57150000D01*
X208280000Y-59690000D02*
X209067399Y-58902601D01*
X85725000Y-41910000D02*
X86995000Y-43180000D01*
X125577601Y-42697399D02*
X126365000Y-41910000D01*
X125095000Y-43180000D02*
X125577601Y-42697399D01*
X86995000Y-43180000D02*
X125095000Y-43180000D01*
X126365000Y-41910000D02*
X127609601Y-40665399D01*
X127609601Y-40665399D02*
X167030399Y-40665399D01*
X167487601Y-41122601D02*
X168275000Y-41910000D01*
X167030399Y-40665399D02*
X167487601Y-41122601D01*
G04 #@! TO.N,/Resonator_1/RELEASEa*
X46355000Y-45720000D02*
X43180000Y-45720000D01*
X43180000Y-45720000D02*
X41910000Y-44450000D01*
G04 #@! TO.N,/Resonator_1/SUSa*
X101600000Y-44450000D02*
X105410000Y-44450000D01*
X62230000Y-35560000D02*
X100484330Y-35560000D01*
X100551359Y-35627029D02*
X101269779Y-35627029D01*
X100484330Y-35560000D02*
X100551359Y-35627029D01*
X59690000Y-38100000D02*
X62230000Y-35560000D01*
X43180000Y-38100000D02*
X59690000Y-38100000D01*
X41910000Y-39370000D02*
X43180000Y-38100000D01*
G04 #@! TO.N,/Resonator_1/LEDa*
X69875399Y-25425399D02*
X48869601Y-25425399D01*
X70485000Y-26035000D02*
X69875399Y-25425399D01*
X48869601Y-25425399D02*
X47625000Y-26670000D01*
X47625000Y-26670000D02*
X44450000Y-26670000D01*
G04 #@! TO.N,/Resonator_1/LEDaK*
X41910000Y-26670000D02*
X42697399Y-27457399D01*
X42697399Y-27457399D02*
X43180000Y-27940000D01*
X43180000Y-27940000D02*
X51435000Y-27940000D01*
X51435000Y-46990000D02*
X57150000Y-46990000D01*
G04 #@! TO.N,/Resonator_1/ATTACKb*
X84429601Y-50774601D02*
X94640399Y-50774601D01*
X83185000Y-49530000D02*
X84429601Y-50774601D01*
X94640399Y-50774601D02*
X94665798Y-50800000D01*
X94665798Y-50800000D02*
X120015000Y-50800000D01*
G04 #@! TO.N,/Resonator_1/RELEASEb*
X83185000Y-44450000D02*
X84455000Y-45720000D01*
X84455000Y-45720000D02*
X119380000Y-45720000D01*
G04 #@! TO.N,/Resonator_1/SUSb*
X91440000Y-44450000D02*
X97790000Y-44450000D01*
X90732099Y-40662113D02*
X91240098Y-41170112D01*
X84455000Y-40640000D02*
X90709986Y-40640000D01*
X90709986Y-40640000D02*
X90732099Y-40662113D01*
X83185000Y-39370000D02*
X84455000Y-40640000D01*
G04 #@! TO.N,/Resonator_1/LEDb*
X84937601Y-25882601D02*
X85725000Y-26670000D01*
X84480399Y-25425399D02*
X84937601Y-25882601D01*
X72999601Y-25425399D02*
X84480399Y-25425399D01*
X72390000Y-26035000D02*
X72999601Y-25425399D01*
G04 #@! TO.N,/Resonator_1/LEDbK*
X64770000Y-46990000D02*
X66040000Y-46990000D01*
X66040000Y-46990000D02*
X66675000Y-46990000D01*
X67945000Y-45720000D02*
X71120000Y-45720000D01*
X66675000Y-46990000D02*
X67945000Y-45720000D01*
X70485000Y-27940000D02*
X76835000Y-27940000D01*
X76835000Y-27940000D02*
X78105000Y-26670000D01*
X78105000Y-26670000D02*
X83185000Y-26670000D01*
G04 #@! TO.N,/Resonator_2/FW2a*
X146050000Y-96520000D02*
X158750000Y-96520000D01*
X135890000Y-95250000D02*
X135407399Y-94767399D01*
X135407399Y-94767399D02*
X134620000Y-93980000D01*
X143687800Y-95250000D02*
X135890000Y-95250000D01*
X144957800Y-96520000D02*
X143687800Y-95250000D01*
X146050000Y-96520000D02*
X144957800Y-96520000D01*
X159537399Y-108737399D02*
X161290000Y-110490000D01*
X158750000Y-107950000D02*
X159537399Y-108737399D01*
G04 #@! TO.N,/Resonator_2/ATTACKa*
X114300000Y-49530000D02*
X123825000Y-49530000D01*
G04 #@! TO.N,/Resonator_2/RELEASEa*
X113030000Y-44450000D02*
X123825000Y-44450000D01*
G04 #@! TO.N,/Resonator_2/SUSa*
X187960000Y-44450000D02*
X184150000Y-44450000D01*
X182880000Y-50165000D02*
X182245000Y-50800000D01*
X182245000Y-50800000D02*
X164465000Y-50800000D01*
X164465000Y-50800000D02*
X163195000Y-52070000D01*
X129209799Y-51104799D02*
X128905000Y-50800000D01*
X136988297Y-51104799D02*
X129209799Y-51104799D01*
X163195000Y-52070000D02*
X137953498Y-52070000D01*
X137953498Y-52070000D02*
X136988297Y-51104799D01*
X128905000Y-50800000D02*
X121920000Y-50800000D01*
G04 #@! TO.N,/Resonator_2/LEDa*
X155491580Y-27000210D02*
X156210000Y-27000210D01*
X126365000Y-26670000D02*
X133508500Y-26670000D01*
X133838710Y-27000210D02*
X155491580Y-27000210D01*
X133508500Y-26670000D02*
X133838710Y-27000210D01*
G04 #@! TO.N,/Resonator_2/LEDaK*
X123825000Y-26670000D02*
X124612399Y-27457399D01*
X124612399Y-27457399D02*
X125095000Y-27940000D01*
X125095000Y-27940000D02*
X133350000Y-27940000D01*
X133350000Y-46990000D02*
X138430000Y-46990000D01*
G04 #@! TO.N,/Resonator_2/ATTACKb*
X149860000Y-86360000D02*
X156845000Y-86360000D01*
X156845000Y-86360000D02*
X157480000Y-85725000D01*
X162255210Y-51104790D02*
X159401398Y-51104790D01*
X159401398Y-51104790D02*
X158682978Y-51104790D01*
X163830000Y-49530000D02*
X162255210Y-51104790D01*
X165735000Y-49530000D02*
X163830000Y-49530000D01*
G04 #@! TO.N,/Resonator_2/RELEASEb*
X149860000Y-83820000D02*
X156845000Y-83820000D01*
X155575000Y-44450000D02*
X158115000Y-44450000D01*
X159359601Y-43205399D02*
X161315399Y-43205399D01*
X158115000Y-44450000D02*
X159359601Y-43205399D01*
X162560000Y-44450000D02*
X165735000Y-44450000D01*
X161315399Y-43205399D02*
X162560000Y-44450000D01*
G04 #@! TO.N,/Resonator_2/SUSb*
X180340000Y-44450000D02*
X173355000Y-44450000D01*
X167005000Y-38100000D02*
X165735000Y-39370000D01*
X173355000Y-38100000D02*
X167005000Y-38100000D01*
G04 #@! TO.N,/Resonator_2/LEDb*
X167005000Y-27940000D02*
X168275000Y-26670000D01*
X162277828Y-27940000D02*
X167005000Y-27940000D01*
X160655000Y-27305000D02*
X161642828Y-27305000D01*
X161642828Y-27305000D02*
X162277828Y-27940000D01*
G04 #@! TO.N,/Resonator_2/LEDbK*
X160052558Y-46990000D02*
X159417558Y-46355000D01*
X163830000Y-46990000D02*
X160052558Y-46990000D01*
X159417558Y-46355000D02*
X153670000Y-46355000D01*
X153035000Y-46990000D02*
X146050000Y-46990000D01*
X153670000Y-46355000D02*
X153035000Y-46990000D01*
G04 #@! TO.N,Net-(Q5-Pad1)*
X47688499Y-76771501D02*
X49530000Y-74930000D01*
X46990000Y-77470000D02*
X47688499Y-76771501D01*
X44450000Y-74930000D02*
X46990000Y-77470000D01*
X49530000Y-74930000D02*
X52070000Y-77470000D01*
X41910000Y-74930000D02*
X44450000Y-74930000D01*
G04 #@! TO.N,Net-(Q6-Pad2)*
X43180000Y-88900000D02*
X49530000Y-88900000D01*
X49530000Y-88900000D02*
X50165000Y-88265000D01*
G04 #@! TO.N,Net-(Q12-Pad2)*
X121920000Y-81280000D02*
X124460000Y-81280000D01*
X119380000Y-83820000D02*
X121920000Y-81280000D01*
G04 #@! TO.N,Net-(R2-Pad1)*
X222250000Y-69850000D02*
X225425011Y-69850000D01*
X222885000Y-31115000D02*
X220980000Y-33020000D01*
X228600000Y-31115000D02*
X222885000Y-31115000D01*
G04 #@! TO.N,Net-(R2-Pad2)*
X215900000Y-22860000D02*
X220980000Y-22860000D01*
G04 #@! TO.N,Net-(R3-Pad3)*
X222732601Y-33807399D02*
X223520000Y-33020000D01*
X221767399Y-34772601D02*
X222732601Y-33807399D01*
X216687399Y-34772601D02*
X221767399Y-34772601D01*
X215900000Y-35560000D02*
X216687399Y-34772601D01*
G04 #@! TO.N,Net-(R6-Pad1)*
X222250000Y-72390000D02*
X220345000Y-72390000D01*
X220345000Y-72390000D02*
X219075000Y-73660000D01*
X219075000Y-73660000D02*
X215265000Y-73660000D01*
X208280000Y-62230000D02*
X210820000Y-62230000D01*
X210820000Y-62230000D02*
X213360000Y-59690000D01*
X213360000Y-59690000D02*
X218440000Y-59690000D01*
G04 #@! TO.N,Net-(R8-Pad2)*
X222250000Y-74930000D02*
X220345000Y-74930000D01*
X220345000Y-74930000D02*
X219075000Y-76200000D01*
X219075000Y-76200000D02*
X216535000Y-76200000D01*
G04 #@! TO.N,Net-(R16-Pad2)*
X215265000Y-77470000D02*
X218440000Y-77470000D01*
X208280000Y-80010000D02*
X212725000Y-80010000D01*
X212725000Y-80010000D02*
X215265000Y-77470000D01*
X218440000Y-77470000D02*
X219553551Y-77470000D01*
X219553551Y-77470000D02*
X220823551Y-76200000D01*
X220823551Y-76200000D02*
X227507800Y-76200000D01*
X228777800Y-77470000D02*
X229870000Y-77470000D01*
X227507800Y-76200000D02*
X228777800Y-77470000D01*
G04 #@! TO.N,/Resonator_1/INa*
X78740000Y-34290000D02*
X80010000Y-33020000D01*
X80010000Y-33020000D02*
X154305000Y-33020000D01*
X154305000Y-33020000D02*
X155575000Y-31750000D01*
X155575000Y-31750000D02*
X160020000Y-31750000D01*
X222250000Y-87630000D02*
X220980000Y-88900000D01*
X220980000Y-88900000D02*
X190449202Y-88900000D01*
X165169615Y-87655399D02*
X165020506Y-87804508D01*
X189204601Y-87655399D02*
X165169615Y-87655399D01*
X165020506Y-87804508D02*
X164512507Y-88312507D01*
X190449202Y-88900000D02*
X189204601Y-87655399D01*
G04 #@! TO.N,Net-(R19-Pad2)*
X57150000Y-41910000D02*
X61141937Y-41910000D01*
X61141937Y-41910000D02*
X61290210Y-42058273D01*
X66196449Y-45720000D02*
X62075652Y-45720000D01*
X62008630Y-45787022D02*
X61290210Y-45787022D01*
X67466449Y-44450000D02*
X66196449Y-45720000D01*
X68580000Y-44450000D02*
X67466449Y-44450000D01*
X62075652Y-45720000D02*
X62008630Y-45787022D01*
G04 #@! TO.N,Net-(R21-Pad2)*
X64770000Y-41910000D02*
X62558979Y-41910000D01*
X62558979Y-41910000D02*
X61288979Y-40640000D01*
X61288979Y-40640000D02*
X60960000Y-40640000D01*
X67792601Y-47777399D02*
X68580000Y-46990000D01*
X60960000Y-48260000D02*
X67310000Y-48260000D01*
X67310000Y-48260000D02*
X67792601Y-47777399D01*
X71357768Y-36830000D02*
X71297789Y-36889979D01*
X78740000Y-36830000D02*
X71357768Y-36830000D01*
X71297789Y-36889979D02*
X70789790Y-37397978D01*
G04 #@! TO.N,Net-(R22-Pad1)*
X65883551Y-39370000D02*
X66518551Y-40005000D01*
X64770000Y-39370000D02*
X65883551Y-39370000D01*
X67372990Y-40005000D02*
X68007990Y-40640000D01*
X66518551Y-40005000D02*
X67372990Y-40005000D01*
X68007990Y-40640000D02*
X74930000Y-40640000D01*
X74930000Y-40640000D02*
X76200000Y-39370000D01*
X76200000Y-39370000D02*
X78740000Y-39370000D01*
G04 #@! TO.N,Net-(R23-Pad1)*
X61118500Y-39370000D02*
X58263551Y-39370000D01*
X58263551Y-39370000D02*
X57150000Y-39370000D01*
X62388500Y-40640000D02*
X61118500Y-39370000D01*
X66196449Y-40640000D02*
X62388500Y-40640000D01*
X67466449Y-41910000D02*
X66196449Y-40640000D01*
X68580000Y-41910000D02*
X67466449Y-41910000D01*
G04 #@! TO.N,Net-(R28-Pad2)*
X64770000Y-78740000D02*
X68580000Y-78740000D01*
X74295000Y-81280000D02*
X78740000Y-81280000D01*
X68580000Y-78740000D02*
X71755000Y-78740000D01*
X71755000Y-78740000D02*
X74295000Y-81280000D01*
G04 #@! TO.N,Net-(R29-Pad2)*
X64770000Y-76200000D02*
X68580000Y-76200000D01*
X74295000Y-73660000D02*
X78740000Y-73660000D01*
X68580000Y-76200000D02*
X71755000Y-76200000D01*
X71755000Y-76200000D02*
X74295000Y-73660000D01*
G04 #@! TO.N,Net-(R30-Pad2)*
X105410000Y-78740000D02*
X109220000Y-78740000D01*
X115570000Y-81280000D02*
X119380000Y-81280000D01*
X109220000Y-78740000D02*
X113030000Y-78740000D01*
X113030000Y-78740000D02*
X115570000Y-81280000D01*
G04 #@! TO.N,Net-(R31-Pad2)*
X105410000Y-76200000D02*
X109220000Y-76200000D01*
X116205000Y-73660000D02*
X119380000Y-73660000D01*
X109220000Y-76200000D02*
X113665000Y-76200000D01*
X113665000Y-76200000D02*
X116205000Y-73660000D01*
G04 #@! TO.N,Net-(R36-Pad2)*
X64770000Y-81280000D02*
X68580000Y-81280000D01*
X68580000Y-81280000D02*
X70485000Y-81280000D01*
X70485000Y-81280000D02*
X71755000Y-82550000D01*
X71755000Y-82550000D02*
X76835000Y-82550000D01*
G04 #@! TO.N,Net-(Q7-Pad5)*
X110490000Y-77470000D02*
X97155000Y-77470000D01*
X97155000Y-77470000D02*
X96520000Y-78105000D01*
X96520000Y-78105000D02*
X92710000Y-78105000D01*
X92100399Y-77495399D02*
X89509601Y-77495399D01*
X92710000Y-78105000D02*
X92100399Y-77495399D01*
X89509601Y-77495399D02*
X86360000Y-80645000D01*
X86360000Y-80645000D02*
X86279368Y-80564368D01*
X86279368Y-80564368D02*
X85251264Y-80564368D01*
G04 #@! TO.N,Net-(R46-Pad2)*
X48895000Y-96520000D02*
X53340000Y-96520000D01*
X43180000Y-99060000D02*
X46355000Y-99060000D01*
X46355000Y-99060000D02*
X48895000Y-96520000D01*
X60960000Y-93980000D02*
X64770000Y-93980000D01*
X59690000Y-95250000D02*
X60960000Y-93980000D01*
X55880000Y-95250000D02*
X59690000Y-95250000D01*
X53340000Y-96520000D02*
X54610000Y-96520000D01*
X54610000Y-96520000D02*
X55880000Y-95250000D01*
G04 #@! TO.N,/Resonator_1/FW2a*
X53340000Y-99060000D02*
X59690000Y-99060000D01*
X59690000Y-99060000D02*
X62230000Y-96520000D01*
X62230000Y-96520000D02*
X64770000Y-96520000D01*
X77470000Y-110490000D02*
X74930000Y-107950000D01*
X64770000Y-96520000D02*
X74930000Y-96520000D01*
G04 #@! TO.N,/Resonator_1/FW2b*
X65557399Y-108737399D02*
X67310000Y-110490000D01*
X64770000Y-107950000D02*
X65557399Y-108737399D01*
X95250000Y-96520000D02*
X93980000Y-96520000D01*
X96520000Y-95250000D02*
X95250000Y-96520000D01*
X99695000Y-95250000D02*
X96520000Y-95250000D01*
X105410000Y-96520000D02*
X100965000Y-96520000D01*
X100965000Y-96520000D02*
X99695000Y-95250000D01*
X93980000Y-96520000D02*
X89535000Y-96520000D01*
X89535000Y-96520000D02*
X86995000Y-99060000D01*
X86995000Y-99060000D02*
X63500000Y-99060000D01*
G04 #@! TO.N,Net-(R59-Pad2)*
X138430000Y-41910000D02*
X141400224Y-41910000D01*
X141400224Y-41910000D02*
X141605011Y-42114787D01*
X142875000Y-38100000D02*
X146685000Y-38100000D01*
X146685000Y-38100000D02*
X147955000Y-36830000D01*
X147955000Y-36830000D02*
X149860000Y-36830000D01*
D17*
G04 #@! TO.N,Net-(R61-Pad2)*
X146050000Y-41910000D02*
X149860000Y-41910000D01*
D16*
G04 #@! TO.N,Net-(R62-Pad1)*
X146050000Y-39370000D02*
X149860000Y-39370000D01*
G04 #@! TO.N,Net-(R63-Pad1)*
X138430000Y-39370000D02*
X140335000Y-39370000D01*
X140335000Y-39370000D02*
X141605011Y-39370000D01*
X141605000Y-35560000D02*
X146685000Y-35560000D01*
X146685000Y-35560000D02*
X147955000Y-34290000D01*
X147955000Y-34290000D02*
X149860000Y-34290000D01*
G04 #@! TO.N,Net-(R69-Pad1)*
X191135011Y-41910000D02*
X187960000Y-41910000D01*
X160020000Y-76200000D02*
X164465000Y-76200000D01*
X164465000Y-76200000D02*
X165735000Y-77470000D01*
X165735000Y-77470000D02*
X180975000Y-77470000D01*
X180975000Y-77470000D02*
X181610000Y-77470000D01*
X181610000Y-77470000D02*
X184175399Y-80035399D01*
X184175399Y-80035399D02*
X193065399Y-80035399D01*
X193065399Y-80035399D02*
X193675000Y-80645000D01*
G04 #@! TO.N,Net-(R69-Pad2)*
X146050000Y-76200000D02*
X149860000Y-76200000D01*
X160020000Y-73660000D02*
X156845000Y-73660000D01*
X156845000Y-73660000D02*
X154305000Y-76200000D01*
X154305000Y-76200000D02*
X149860000Y-76200000D01*
G04 #@! TO.N,Net-(R70-Pad2)*
X187960000Y-78740000D02*
X191770000Y-78740000D01*
X195738500Y-81280000D02*
X200816449Y-81280000D01*
X191770000Y-78740000D02*
X193198500Y-78740000D01*
X200816449Y-81280000D02*
X201930000Y-81280000D01*
X193198500Y-78740000D02*
X195738500Y-81280000D01*
G04 #@! TO.N,Net-(R71-Pad1)*
X184150000Y-41910000D02*
X180340000Y-41910000D01*
X184150000Y-77470000D02*
X197485000Y-77470000D01*
X197485000Y-77470000D02*
X198755000Y-76200000D01*
X198755000Y-76200000D02*
X201930000Y-76200000D01*
G04 #@! TO.N,Net-(R71-Pad2)*
X187960000Y-76200000D02*
X191770000Y-76200000D01*
X199390000Y-73660000D02*
X201930000Y-73660000D01*
X191770000Y-76200000D02*
X196850000Y-76200000D01*
X196850000Y-76200000D02*
X199390000Y-73660000D01*
G04 #@! TO.N,Net-(R76-Pad2)*
X146050000Y-81280000D02*
X149860000Y-81280000D01*
X149860000Y-81280000D02*
X154305000Y-81280000D01*
X154305000Y-71120000D02*
X160020000Y-71120000D01*
G04 #@! TO.N,Net-(Q13-Pad5)*
X163830000Y-86360000D02*
X166370000Y-83820000D01*
X160020000Y-86360000D02*
X163830000Y-86360000D01*
G04 #@! TO.N,Net-(R86-Pad2)*
X124460000Y-93980000D02*
X129540000Y-93980000D01*
X129540000Y-93980000D02*
X132080000Y-91440000D01*
X132080000Y-91440000D02*
X134620000Y-91440000D01*
X135733551Y-91440000D02*
X137003551Y-92710000D01*
X134620000Y-91440000D02*
X135733551Y-91440000D01*
X137003551Y-92710000D02*
X144780000Y-92710000D01*
X145262601Y-93192601D02*
X146050000Y-93980000D01*
X144780000Y-92710000D02*
X145262601Y-93192601D01*
G04 #@! TO.N,/Resonator_2/FW2b*
X177800000Y-93980000D02*
X176530000Y-93980000D01*
X179070000Y-95250000D02*
X177800000Y-93980000D01*
X182880000Y-95250000D02*
X179070000Y-95250000D01*
X187960000Y-96520000D02*
X184150000Y-96520000D01*
X184150000Y-96520000D02*
X182880000Y-95250000D01*
X149377399Y-108737399D02*
X151130000Y-110490000D01*
X148590000Y-107950000D02*
X149377399Y-108737399D01*
X152400000Y-93980000D02*
X164465000Y-93980000D01*
X164465000Y-93980000D02*
X165735000Y-95250000D01*
X165735000Y-95250000D02*
X172085000Y-95250000D01*
X172085000Y-95250000D02*
X173355000Y-93980000D01*
X173355000Y-93980000D02*
X176530000Y-93980000D01*
G04 #@! TO.N,Net-(U5-Pad4)*
X181037990Y-26670000D02*
X205656580Y-26670000D01*
X205656580Y-26670000D02*
X206375000Y-26670000D01*
X177253389Y-30454601D02*
X181037990Y-26670000D01*
X106654601Y-30454601D02*
X177253389Y-30454601D01*
X105410000Y-29210000D02*
X106654601Y-30454601D01*
G04 #@! TO.N,Net-(U5-Pad6)*
X204470000Y-27940000D02*
X196850000Y-27940000D01*
X186158082Y-49225202D02*
X193344798Y-49225202D01*
X193802001Y-48767999D02*
X194310000Y-48260000D01*
X97790000Y-46990000D02*
X99060000Y-48260000D01*
X99060000Y-48260000D02*
X153670000Y-48260000D01*
X185192880Y-48260000D02*
X186158082Y-49225202D01*
X193344798Y-49225202D02*
X193802001Y-48767999D01*
X160427880Y-48260000D02*
X185192880Y-48260000D01*
X159132491Y-46964611D02*
X160427880Y-48260000D01*
X154965389Y-46964611D02*
X159132491Y-46964611D01*
X153670000Y-48260000D02*
X154965389Y-46964611D01*
G04 #@! TO.N,Net-(U5-Pad8)*
X165162990Y-25400000D02*
X164642289Y-24879299D01*
X196850000Y-25400000D02*
X165162990Y-25400000D01*
X164642289Y-24879299D02*
X146570701Y-24879299D01*
X123227591Y-25425399D02*
X121982990Y-26670000D01*
X146570701Y-24879299D02*
X145770588Y-25679412D01*
X145770588Y-25679412D02*
X137148535Y-25679412D01*
X137148535Y-25679412D02*
X136894522Y-25425399D01*
X136894522Y-25425399D02*
X123227591Y-25425399D01*
X121982990Y-26670000D02*
X100330000Y-26670000D01*
X100330000Y-26670000D02*
X97790000Y-29210000D01*
G04 #@! TO.N,/Resonator_1/FH1a*
X45720000Y-106680000D02*
X81280000Y-106680000D01*
X81280000Y-106680000D02*
X82550000Y-107950000D01*
G04 #@! TO.N,/Resonator_1/FH2a*
X43180000Y-91440000D02*
X46990000Y-91440000D01*
X46990000Y-91440000D02*
X47625000Y-91440000D01*
X47625000Y-91440000D02*
X48895000Y-90170000D01*
X48895000Y-90170000D02*
X77470000Y-90170000D01*
G04 #@! TO.N,/Resonator_1/FH1b*
X72390000Y-62230000D02*
X77470000Y-62230000D01*
X77470000Y-62230000D02*
X78740000Y-60960000D01*
X78740000Y-60960000D02*
X83820000Y-60960000D01*
G04 #@! TO.N,/Resonator_1/FH2b*
X68580000Y-88900000D02*
X83820000Y-88900000D01*
G04 #@! TO.N,/Resonator_1/GATEa*
X213360000Y-87630000D02*
X208280000Y-87630000D01*
X212852001Y-106552999D02*
X213360000Y-106045000D01*
X208826360Y-106552999D02*
X212852001Y-106552999D01*
X196850000Y-107950000D02*
X207429359Y-107950000D01*
X207429359Y-107950000D02*
X208826360Y-106552999D01*
G04 #@! TO.N,/Resonator_1/GATEb*
X207298578Y-106654610D02*
X207577978Y-106375210D01*
X194310000Y-107950000D02*
X195605390Y-106654610D01*
X195605390Y-106654610D02*
X207298578Y-106654610D01*
G04 #@! TO.N,/Resonator_2/FH1a*
X161290000Y-62230000D02*
X149860000Y-62230000D01*
X149860000Y-62230000D02*
X147320000Y-59690000D01*
X140423389Y-54635399D02*
X130149601Y-54635399D01*
X145477990Y-59690000D02*
X140423389Y-54635399D01*
X147320000Y-59690000D02*
X145477990Y-59690000D01*
X130149601Y-54635399D02*
X127635000Y-57150000D01*
X127635000Y-57150000D02*
X124460000Y-57150000D01*
G04 #@! TO.N,/Resonator_2/FH2a*
X161290000Y-104775000D02*
X127050813Y-104775000D01*
X127050813Y-104775000D02*
X127000000Y-104724187D01*
G04 #@! TO.N,/Resonator_2/FH1b*
X155575000Y-60960000D02*
X166370000Y-60960000D01*
G04 #@! TO.N,/Resonator_2/FH2b*
X151130000Y-88265000D02*
X163195000Y-88265000D01*
X163195000Y-88265000D02*
X165100000Y-86360000D01*
X165100000Y-86360000D02*
X166370000Y-86360000D01*
G04 #@! TO.N,Net-(Q1-Pad2)*
X210820000Y-54610000D02*
X212090000Y-54610000D01*
X208280000Y-57150000D02*
X210820000Y-54610000D01*
G04 #@! TO.N,Net-(Q1-Pad3)*
X208280000Y-64770000D02*
X213995000Y-64770000D01*
G04 #@! TO.N,Net-(Q11-Pad1)*
X123825000Y-71755000D02*
X126365000Y-74295000D01*
X127063499Y-73596501D02*
X128905000Y-71755000D01*
X126365000Y-74295000D02*
X127063499Y-73596501D01*
X128905000Y-71755000D02*
X131445000Y-74295000D01*
G04 #@! TO.N,Net-(R3-Pad2)*
X218440000Y-27940000D02*
X228600000Y-27940000D01*
G04 #@! TO.N,Net-(C35-Pad2)*
X176530000Y-63500000D02*
X180340000Y-63500000D01*
X173990000Y-63500000D02*
X176530000Y-63500000D01*
X195757789Y-78914508D02*
X195249790Y-79422507D01*
X201930000Y-78740000D02*
X195932297Y-78740000D01*
X195932297Y-78740000D02*
X195757789Y-78914508D01*
X180340000Y-63500000D02*
X181610000Y-62230000D01*
X181610000Y-62230000D02*
X193854768Y-62230000D01*
X193921790Y-62162978D02*
X194640210Y-62162978D01*
X193854768Y-62230000D02*
X193921790Y-62162978D01*
G04 #@! TO.N,Net-(C37-Pad1)*
X179070000Y-91440000D02*
X180340000Y-91440000D01*
X176530000Y-88900000D02*
X179070000Y-91440000D01*
G04 #@! TO.N,Net-(U14-Pad2)*
X191770000Y-58420000D02*
X200025000Y-58420000D01*
X200025000Y-58420000D02*
X201295000Y-57150000D01*
X201295000Y-57150000D02*
X204470000Y-57150000D01*
X190721370Y-48260000D02*
X191439790Y-48260000D01*
X184785000Y-46990000D02*
X186055000Y-48260000D01*
X186055000Y-48260000D02*
X190721370Y-48260000D01*
X180340000Y-46990000D02*
X184785000Y-46990000D01*
G04 #@! TO.N,Net-(U14-Pad4)*
X182245000Y-29210000D02*
X180340000Y-29210000D01*
X186055000Y-33020000D02*
X182245000Y-29210000D01*
X191770000Y-31750000D02*
X190500000Y-33020000D01*
X190500000Y-33020000D02*
X186055000Y-33020000D01*
X194945000Y-31750000D02*
X191770000Y-31750000D01*
X204470000Y-54610000D02*
X203200000Y-53340000D01*
X195289279Y-53340000D02*
X194961398Y-53012119D01*
X194961398Y-53012119D02*
X194242978Y-53012119D01*
X203200000Y-53340000D02*
X195289279Y-53340000D01*
G04 #@! TO.N,Net-(U15-Pad1)*
X193040000Y-38100000D02*
X196850000Y-38100000D01*
X187960000Y-46990000D02*
X193040000Y-46990000D01*
X193040000Y-46990000D02*
X193087507Y-46942493D01*
G04 #@! TO.N,Net-(U15-Pad8)*
X187960000Y-29210000D02*
X192405000Y-29210000D01*
X192405000Y-35560000D02*
X196850000Y-35560000D01*
G04 #@! TO.N,Net-(Q7-Pad1)*
X85090000Y-72390000D02*
X87630000Y-74930000D01*
X88328499Y-74231501D02*
X90170000Y-72390000D01*
X87630000Y-74930000D02*
X88328499Y-74231501D01*
X90868499Y-73088499D02*
X90868499Y-73121057D01*
X92011501Y-74231501D02*
X92710000Y-74930000D01*
X90868499Y-73121057D02*
X91978943Y-74231501D01*
X91978943Y-74231501D02*
X92011501Y-74231501D01*
X90170000Y-72390000D02*
X90868499Y-73088499D01*
G04 #@! TO.N,Net-(Q8-Pad2)*
X83820000Y-86360000D02*
X90805000Y-86360000D01*
X109220000Y-69693551D02*
X106548950Y-72364601D01*
X95031622Y-72364601D02*
X94157789Y-73238434D01*
X91440000Y-72830438D02*
X92155263Y-73545701D01*
X106548950Y-72364601D02*
X95031622Y-72364601D01*
X94157789Y-73238434D02*
X93649790Y-73746433D01*
X109220000Y-68580000D02*
X109220000Y-69693551D01*
X92730638Y-73545701D02*
X92931370Y-73746433D01*
X92155263Y-73545701D02*
X92730638Y-73545701D01*
X91440000Y-71120000D02*
X91440000Y-72830438D01*
X92931370Y-73746433D02*
X93649790Y-73746433D01*
G04 #@! TO.N,Net-(Q11-Pad5)*
X121920000Y-83820000D02*
X124460000Y-83820000D01*
X119380000Y-86360000D02*
X121920000Y-83820000D01*
G04 #@! TO.N,Net-(Q13-Pad1)*
X166370000Y-71755000D02*
X168910000Y-74295000D01*
X169608499Y-73596501D02*
X171450000Y-71755000D01*
X168910000Y-74295000D02*
X169608499Y-73596501D01*
X172148499Y-72453499D02*
X173990000Y-74295000D01*
X171450000Y-71755000D02*
X172148499Y-72453499D01*
G04 #@! TO.N,Net-(Q14-Pad2)*
X165100000Y-81280000D02*
X166370000Y-81280000D01*
X160020000Y-83820000D02*
X162560000Y-83820000D01*
X162560000Y-83820000D02*
X165100000Y-81280000D01*
G04 #@! TO.N,Net-(C1-Pad1)*
X227330000Y-107950000D02*
X224790000Y-107950000D01*
X224790000Y-93980000D02*
X213995000Y-93980000D01*
X213995000Y-93980000D02*
X212725000Y-92710000D01*
X212725000Y-92710000D02*
X210820000Y-92710000D01*
G04 #@! TD*
M02*
