*%FSLAX23Y23*%
*%MOIN*%
G01*
%ADD11C,0.006*%
%ADD12C,0.007*%
%ADD13C,0.008*%
%ADD14C,0.010*%
%ADD15C,0.012*%
%ADD16C,0.032*%
%ADD17C,0.036*%
%ADD18C,0.050*%
%ADD19C,0.052*%
%ADD20C,0.055*%
%ADD21C,0.056*%
%ADD22C,0.060*%
%ADD23C,0.061*%
%ADD24C,0.062*%
%ADD25C,0.068*%
%ADD26C,0.070*%
%ADD27C,0.080*%
%ADD28C,0.090*%
%ADD29C,0.095*%
%ADD30C,0.115*%
%ADD31C,0.120*%
%ADD32C,0.125*%
%ADD33C,0.126*%
%ADD34C,0.131*%
%ADD35C,0.150*%
%ADD36C,0.156*%
%ADD37R,0.062X0.062*%
%ADD38R,0.068X0.068*%
D14*
X8043Y9401D02*
X8110D01*
X8043D02*
X8110Y9468D01*
Y9484D01*
X8093Y9501D01*
X8060D01*
X8043Y9484D01*
X8143D02*
X8160Y9501D01*
X8193D01*
X8210Y9484D01*
Y9418D01*
X8193Y9401D01*
X8160D01*
X8143Y9418D01*
Y9484D01*
X8243D02*
X8260Y9501D01*
X8293D01*
X8310Y9484D01*
Y9418D01*
X8293Y9401D01*
X8260D01*
X8243Y9418D01*
Y9484D01*
X8343Y9451D02*
X8410D01*
X8443Y9401D02*
X8476D01*
X8460D01*
Y9501D01*
X8461D01*
X8460D02*
X8443Y9484D01*
X8526D02*
X8543Y9501D01*
X8576D01*
X8593Y9484D01*
Y9418D01*
X8576Y9401D01*
X8543D01*
X8526Y9418D01*
Y9484D01*
X8626Y9401D02*
X8659D01*
X8643D01*
Y9501D01*
X8644D01*
X8643D02*
X8626Y9484D01*
X8709D02*
X8726Y9501D01*
X8759D01*
X8776Y9484D01*
Y9468D01*
X8759Y9451D01*
X8776Y9434D01*
Y9418D01*
X8759Y9401D01*
X8726D01*
X8709Y9418D01*
Y9434D01*
X8726Y9451D01*
X8709Y9468D01*
Y9484D01*
X8726Y9451D02*
X8759D01*
X8809D02*
X8876D01*
X8909Y9484D02*
X8926Y9501D01*
X8959D01*
X8976Y9484D01*
Y9418D01*
X8959Y9401D01*
X8926D01*
X8909Y9418D01*
Y9484D01*
X9009Y9401D02*
X9076D01*
X9009D02*
X9076Y9468D01*
Y9484D01*
X9059Y9501D01*
X9026D01*
X9009Y9484D01*
X9209Y9501D02*
Y9401D01*
Y9501D02*
X9259D01*
X9276Y9484D01*
Y9451D01*
X9259Y9434D01*
X9209D01*
X9243D02*
X9276Y9401D01*
X9309Y9501D02*
X9376D01*
X9309D02*
Y9401D01*
X9376D01*
X9343Y9451D02*
X9309D01*
X9409Y9434D02*
Y9501D01*
Y9434D02*
X9443Y9401D01*
X9476Y9434D01*
Y9501D01*
X9609D02*
Y9401D01*
X9676D02*
X9609Y9501D01*
X9676D02*
Y9401D01*
X9776Y9484D02*
X9759Y9501D01*
X9726D01*
X9709Y9484D01*
Y9418D01*
X9726Y9401D01*
X9759D01*
X9776Y9418D01*
X9959Y9501D02*
X9976Y9484D01*
X9959Y9501D02*
X9926D01*
X9909Y9484D01*
Y9418D01*
X9926Y9401D01*
X9959D01*
X9976Y9418D01*
X10026Y9501D02*
X10059D01*
X10026D02*
X10009Y9484D01*
Y9418D01*
X10026Y9401D01*
X10059D01*
X10076Y9418D01*
Y9484D01*
X10059Y9501D01*
X10109D02*
Y9401D01*
X10142Y9468D02*
X10109Y9501D01*
X10142Y9468D02*
X10176Y9501D01*
Y9401D01*
X10209D02*
Y9501D01*
X10259D01*
X10276Y9484D01*
Y9451D01*
X10259Y9434D01*
X10209D01*
X10326Y9501D02*
X10359D01*
X10326D02*
X10309Y9484D01*
Y9418D01*
X10326Y9401D01*
X10359D01*
X10376Y9418D01*
Y9484D01*
X10359Y9501D01*
X10409D02*
Y9401D01*
X10476D02*
X10409Y9501D01*
X10476D02*
Y9401D01*
X10509Y9501D02*
X10576D01*
X10509D02*
Y9401D01*
X10576D01*
X10542Y9451D02*
X10509D01*
X10609Y9401D02*
Y9501D01*
X10675Y9401D01*
Y9501D01*
X10709D02*
X10775D01*
X10742D01*
Y9401D01*
X10959Y9501D02*
X10975Y9484D01*
X10959Y9501D02*
X10925D01*
X10909Y9484D01*
Y9468D01*
X10925Y9451D01*
X10959D01*
X10975Y9434D01*
Y9418D01*
X10959Y9401D01*
X10925D01*
X10909Y9418D01*
X11009Y9501D02*
X11042D01*
X11025D01*
Y9401D01*
X11009D01*
X11042D01*
X11092D02*
Y9501D01*
Y9401D02*
X11142D01*
X11159Y9418D01*
Y9484D01*
X11142Y9501D01*
X11092D01*
X11192D02*
X11259D01*
X11192D02*
Y9401D01*
X11259D01*
X11225Y9451D02*
X11192D01*
X8148Y8211D02*
X8108D01*
X8148Y8251D01*
Y8261D01*
X8138Y8271D01*
X8118D01*
X8108Y8261D01*
X8168D02*
X8178Y8271D01*
X8198D01*
X8208Y8261D01*
Y8221D01*
X8198Y8211D01*
X8178D01*
X8168Y8221D01*
Y8261D01*
X8228D02*
X8238Y8271D01*
X8258D01*
X8268Y8261D01*
Y8221D01*
X8258Y8211D01*
X8238D01*
X8228Y8221D01*
Y8261D01*
X8288Y8241D02*
X8328D01*
X8348Y8211D02*
X8368D01*
X8358D01*
Y8271D01*
X8359D01*
X8358D02*
X8348Y8261D01*
X8398D02*
X8408Y8271D01*
X8428D01*
X8438Y8261D01*
Y8221D01*
X8428Y8211D01*
X8408D01*
X8398Y8221D01*
Y8261D01*
X8458Y8211D02*
X8478D01*
X8468D01*
Y8271D01*
X8469D01*
X8468D02*
X8458Y8261D01*
X8508D02*
X8518Y8271D01*
X8538D01*
X8548Y8261D01*
Y8251D01*
X8538Y8241D01*
X8548Y8231D01*
Y8221D01*
X8538Y8211D01*
X8518D01*
X8508Y8221D01*
Y8231D01*
X8518Y8241D01*
X8508Y8251D01*
Y8261D01*
X8518Y8241D02*
X8538D01*
X8628Y8211D02*
Y8271D01*
X8658D01*
X8668Y8261D01*
Y8241D01*
X8658Y8231D01*
X8628D01*
X8648D02*
X8668Y8211D01*
X8688Y8271D02*
X8728D01*
X8688D02*
Y8211D01*
X8728D01*
X8708Y8241D02*
X8688D01*
X8748Y8231D02*
Y8271D01*
Y8231D02*
X8768Y8211D01*
X8788Y8231D01*
Y8271D01*
X8868D02*
Y8211D01*
X8908D02*
X8868Y8271D01*
X8908D02*
Y8211D01*
X8968Y8261D02*
X8958Y8271D01*
X8938D01*
X8928Y8261D01*
Y8221D01*
X8938Y8211D01*
X8958D01*
X8968Y8221D01*
X8073Y8161D02*
X8063Y8171D01*
X8043D01*
X8033Y8161D01*
Y8121D01*
X8043Y8111D01*
X8063D01*
X8073Y8121D01*
X8103Y8171D02*
X8123D01*
X8103D02*
X8093Y8161D01*
Y8121D01*
X8103Y8111D01*
X8123D01*
X8133Y8121D01*
Y8161D01*
X8123Y8171D01*
X8153D02*
Y8111D01*
Y8171D02*
X8183D01*
X8193Y8161D01*
Y8141D01*
X8183Y8131D01*
X8153D01*
X8213Y8161D02*
Y8171D01*
Y8161D02*
X8233Y8141D01*
X8253Y8161D01*
Y8171D01*
X8233Y8141D02*
Y8111D01*
X8273D02*
Y8171D01*
X8303D01*
X8313Y8161D01*
Y8141D01*
X8303Y8131D01*
X8273D01*
X8293D02*
X8313Y8111D01*
X8333Y8171D02*
X8353D01*
X8343D01*
Y8111D01*
X8333D01*
X8353D01*
X8413Y8171D02*
X8423Y8161D01*
X8413Y8171D02*
X8393D01*
X8383Y8161D01*
Y8121D01*
X8393Y8111D01*
X8413D01*
X8423Y8121D01*
Y8141D01*
X8403D01*
X8443Y8171D02*
Y8111D01*
Y8141D01*
X8483D01*
Y8171D01*
Y8111D01*
X8503Y8171D02*
X8543D01*
X8523D01*
Y8111D01*
X8623Y8131D02*
X8643Y8111D01*
X8623Y8131D02*
Y8151D01*
X8643Y8171D01*
X8703D02*
X8713Y8161D01*
X8703Y8171D02*
X8683D01*
X8673Y8161D01*
Y8121D01*
X8683Y8111D01*
X8703D01*
X8713Y8121D01*
X8733Y8111D02*
X8753Y8131D01*
Y8151D01*
X8733Y8171D01*
X8843Y8111D02*
X8883D01*
X8843D02*
X8883Y8151D01*
Y8161D01*
X8873Y8171D01*
X8853D01*
X8843Y8161D01*
X8903D02*
X8913Y8171D01*
X8933D01*
X8943Y8161D01*
Y8121D01*
X8933Y8111D01*
X8913D01*
X8903Y8121D01*
Y8161D01*
X8963D02*
X8973Y8171D01*
X8993D01*
X9003Y8161D01*
Y8121D01*
X8993Y8111D01*
X8973D01*
X8963Y8121D01*
Y8161D01*
X9023Y8111D02*
X9063D01*
X9023D02*
X9063Y8151D01*
Y8161D01*
X9053Y8171D01*
X9033D01*
X9023Y8161D01*
X8133Y8071D02*
Y8011D01*
X8163D01*
X8173Y8021D01*
Y8031D01*
X8163Y8041D01*
X8133D01*
X8134D01*
X8133D02*
X8134D01*
X8133D02*
X8134D01*
X8133D02*
X8163D01*
X8173Y8051D01*
Y8061D01*
X8163Y8071D01*
X8133D01*
X8193D02*
Y8061D01*
X8213Y8041D01*
X8233Y8061D01*
Y8071D01*
X8213Y8041D02*
Y8011D01*
X8333Y8071D02*
X8353D01*
X8343D02*
X8333D01*
X8343D02*
Y8021D01*
X8333Y8011D01*
X8323D01*
X8313Y8021D01*
X8373Y8071D02*
X8393D01*
X8383D01*
Y8011D01*
X8373D01*
X8393D01*
X8423D02*
Y8071D01*
X8443Y8051D01*
X8463Y8071D01*
Y8011D01*
X8543D02*
Y8071D01*
X8573D01*
X8583Y8061D01*
Y8041D01*
X8573Y8031D01*
X8543D01*
X8603Y8011D02*
Y8051D01*
X8623Y8071D01*
X8643Y8051D01*
Y8011D01*
Y8041D01*
X8603D01*
X8663Y8071D02*
X8703D01*
X8683D01*
Y8011D01*
X8753Y8071D02*
X8763Y8061D01*
X8753Y8071D02*
X8733D01*
X8723Y8061D01*
Y8021D01*
X8733Y8011D01*
X8753D01*
X8763Y8021D01*
X8783Y8011D02*
Y8071D01*
Y8041D02*
Y8011D01*
Y8041D02*
X8823D01*
Y8071D01*
Y8011D01*
X8843Y8071D02*
X8883D01*
X8843D02*
Y8011D01*
X8883D01*
X8863Y8041D02*
X8843D01*
X8903Y8071D02*
Y8011D01*
X8943D01*
X8963D02*
Y8071D01*
Y8011D02*
X9003D01*
X7758Y9236D02*
X11758D01*
Y6486D02*
X7758D01*
Y9236D01*
X11758D02*
Y6486D01*
D15*
X9058Y8686D02*
X8908Y8536D01*
X10458Y7136D02*
X10258Y6936D01*
X10583Y6886D02*
X10883Y6586D01*
X9733Y7061D02*
X9608Y7186D01*
X9733Y6761D02*
X9958Y6536D01*
X10158Y7136D02*
X9858Y7436D01*
X10458Y8886D02*
X10308Y9036D01*
X9358Y7511D02*
X9508Y7361D01*
X9658Y7386D02*
X10108Y6936D01*
X10883Y6586D02*
X11158D01*
X11308Y6536D02*
X9958D01*
X10083Y6561D02*
X10308D01*
X9608Y7186D02*
X9508D01*
X8908Y8486D02*
Y8536D01*
X9458Y8186D02*
Y8936D01*
X9358Y8961D02*
Y7511D01*
X9458Y8936D02*
X9508Y8986D01*
X9383D02*
X9358Y8961D01*
X9383Y8986D02*
X9433Y9036D01*
X9458Y8186D02*
X9508Y8136D01*
Y7361D02*
Y7186D01*
Y8036D02*
Y8136D01*
Y8036D02*
Y7886D01*
X9608Y8211D02*
Y8336D01*
Y8486D01*
X9658Y8161D02*
Y7386D01*
X9608Y8736D02*
Y8886D01*
Y7886D02*
Y7736D01*
Y7886D02*
Y8036D01*
X9508Y7636D02*
Y7486D01*
Y7636D02*
X9608Y7736D01*
X9658Y8161D02*
X9608Y8211D01*
X9708Y8636D02*
X9608Y8736D01*
X9733Y7061D02*
Y6761D01*
X9858Y7436D02*
Y8911D01*
X9708Y8886D02*
Y8736D01*
Y8161D02*
Y8036D01*
X9758Y8211D02*
Y8411D01*
X9783Y8436D02*
Y8661D01*
X9708Y8486D02*
Y8336D01*
Y8486D02*
Y8636D01*
X9758Y8211D02*
X9708Y8161D01*
X9758Y8411D02*
X9783Y8436D01*
X9858Y8911D02*
X9783Y8986D01*
X9708Y8736D02*
X9783Y8661D01*
X10058Y6836D02*
Y6586D01*
Y6836D02*
X10108Y6886D01*
X10058Y6586D02*
X10083Y6561D01*
X9783Y8986D02*
X9508D01*
X10158Y7136D02*
Y6686D01*
X10108Y6886D02*
Y6936D01*
X10258Y7886D02*
Y8036D01*
Y7661D02*
Y7486D01*
Y6936D02*
Y6686D01*
Y7661D02*
X10283Y7686D01*
X10308Y9036D02*
X9433D01*
X10358Y6686D02*
Y6611D01*
Y7886D02*
Y8036D01*
Y7886D02*
Y7761D01*
X10458Y7486D02*
Y7136D01*
X10358Y8336D02*
Y8486D01*
Y7611D02*
Y7486D01*
X10408Y7661D02*
Y8286D01*
X10458Y8486D02*
Y8636D01*
Y8486D02*
Y8336D01*
X10358Y8736D02*
Y8886D01*
Y6611D02*
X10308Y6561D01*
X10283Y7686D02*
X10358Y7761D01*
X10408Y7661D02*
X10358Y7611D01*
X10408Y8286D02*
X10358Y8336D01*
X10458Y8636D02*
X10358Y8736D01*
X10558Y8336D02*
Y8186D01*
X10508Y8136D02*
Y7961D01*
X10583Y7886D02*
Y6886D01*
X10508Y8136D02*
X10558Y8186D01*
X10508Y7961D02*
X10583Y7886D01*
X11258Y6686D02*
X11158Y6586D01*
X11358D02*
Y6686D01*
Y6586D02*
X11308Y6536D01*
D18*
X11008Y7936D02*
X11308Y8236D01*
X9008Y8736D02*
X8833Y8561D01*
X8808Y8536D01*
X11008Y7086D02*
X11158Y6936D01*
X8808Y8486D02*
Y8536D01*
X11008Y7936D02*
Y7086D01*
X11158Y6936D02*
Y6686D01*
X11308Y8236D02*
Y8336D01*
D20*
X9008Y8736D02*
D03*
X9058Y8686D02*
D03*
X9108Y8736D02*
D03*
D24*
X10358Y8486D02*
D03*
Y8886D02*
D03*
X10458Y8486D02*
D03*
Y8886D02*
D03*
X11308Y8336D02*
D03*
Y8036D02*
D03*
X11008Y7936D02*
D03*
Y8236D02*
D03*
X10658Y8336D02*
D03*
Y8036D02*
D03*
X9908Y8336D02*
D03*
Y8036D02*
D03*
X10258Y8336D02*
D03*
X10358D02*
D03*
X10458D02*
D03*
X10558D02*
D03*
Y8036D02*
D03*
X10458D02*
D03*
X10358D02*
D03*
Y7886D02*
D03*
Y7486D02*
D03*
X10258Y7886D02*
D03*
Y7486D02*
D03*
X10458Y7886D02*
D03*
Y7486D02*
D03*
X10158D02*
D03*
Y7886D02*
D03*
Y8036D02*
D03*
Y8336D02*
D03*
X10258Y6686D02*
D03*
X10158D02*
D03*
X10358D02*
D03*
X11258D02*
D03*
X11158D02*
D03*
X11358D02*
D03*
X8808Y8486D02*
D03*
Y8886D02*
D03*
X9608Y8486D02*
D03*
Y8886D02*
D03*
X9708Y8486D02*
D03*
Y8886D02*
D03*
X8908D02*
D03*
Y8486D02*
D03*
X9508Y8336D02*
D03*
X9608D02*
D03*
X9708D02*
D03*
X9808D02*
D03*
Y8036D02*
D03*
X9708D02*
D03*
X9608D02*
D03*
Y7486D02*
D03*
Y7886D02*
D03*
X9408Y8036D02*
D03*
Y8336D02*
D03*
X9508Y7886D02*
D03*
Y7486D02*
D03*
X9258Y8736D02*
D03*
Y8336D02*
D03*
D31*
Y7286D02*
D03*
X9408Y6786D02*
D03*
X9108D02*
D03*
X8258Y7286D02*
D03*
X8408Y6786D02*
D03*
X8108D02*
D03*
D32*
X11180Y8486D02*
D03*
X11492D02*
D03*
X11024D02*
D03*
X11336D02*
D03*
D35*
X9258Y6686D02*
D03*
X9408Y6986D02*
D03*
X9508Y7186D02*
D03*
X8258Y6686D02*
D03*
X8408Y6986D02*
D03*
X8508Y7186D02*
D03*
D37*
X10258Y8036D02*
D03*
X9508D02*
D03*
M02*
