G04 #@! TF.FileFunction,Soldermask,Bot*
%FSLAX46Y46*%
G04 Gerber Fmt 4.6, Leading zero omitted, Abs format (unit mm)*
G04 Created by KiCad (PCBNEW 4.0.6) date 04/10/17 20:11:08*
%MOMM*%
%LPD*%
G01*
G04 APERTURE LIST*
%ADD10C,0.100000*%
%ADD11C,0.025400*%
%ADD12C,1.974800*%
%ADD13R,2.940000X2.940000*%
%ADD14C,2.940000*%
%ADD15C,3.575000*%
%ADD16R,1.974800X1.974800*%
%ADD17C,1.797000*%
%ADD18C,6.750000*%
%ADD19C,4.464000*%
G04 APERTURE END LIST*
D10*
D11*
X212090000Y-147320000D02*
X101600000Y-147320000D01*
X212090000Y-38100000D02*
X212090000Y-147320000D01*
X101600000Y-38100000D02*
X212090000Y-38100000D01*
X101600000Y-147320000D02*
X101600000Y-38100000D01*
D12*
X203200000Y-113030000D03*
X198120000Y-113030000D03*
X196850000Y-99060000D03*
X201930000Y-99060000D03*
X205105000Y-67945000D03*
X205105000Y-65405000D03*
X105410000Y-102870000D03*
X105410000Y-107950000D03*
X113030000Y-106680000D03*
X107950000Y-106680000D03*
X135890000Y-86360000D03*
X138430000Y-86360000D03*
X153670000Y-116840000D03*
X148590000Y-116840000D03*
X170180000Y-86360000D03*
X170180000Y-83820000D03*
D13*
X113030000Y-123270000D03*
D14*
X113030000Y-133270000D03*
D13*
X153670000Y-133270000D03*
D14*
X153670000Y-123270000D03*
D13*
X173990000Y-128330000D03*
D14*
X173990000Y-135830000D03*
D12*
X148590000Y-109220000D03*
X153670000Y-109220000D03*
D15*
X125730000Y-120650000D03*
X125730000Y-135890000D03*
X130810000Y-120650000D03*
X130810000Y-135890000D03*
X135890000Y-135890000D03*
X135890000Y-120650000D03*
X140970000Y-135890000D03*
X140970000Y-120650000D03*
X185420000Y-132080000D03*
X200660000Y-132080000D03*
X185420000Y-127000000D03*
X200660000Y-127000000D03*
D16*
X111760000Y-44450000D03*
D12*
X114300000Y-44450000D03*
X111760000Y-46990000D03*
X114300000Y-46990000D03*
X111760000Y-49530000D03*
X114300000Y-49530000D03*
X111760000Y-52070000D03*
X114300000Y-52070000D03*
X111760000Y-54610000D03*
X114300000Y-54610000D03*
X111760000Y-57150000D03*
X114300000Y-57150000D03*
X111760000Y-59690000D03*
X114300000Y-59690000D03*
X111760000Y-62230000D03*
X114300000Y-62230000D03*
D16*
X123190000Y-44450000D03*
D12*
X125730000Y-44450000D03*
X123190000Y-46990000D03*
X125730000Y-46990000D03*
X123190000Y-49530000D03*
X125730000Y-49530000D03*
X123190000Y-52070000D03*
X125730000Y-52070000D03*
X123190000Y-54610000D03*
X125730000Y-54610000D03*
X123190000Y-57150000D03*
X125730000Y-57150000D03*
X123190000Y-59690000D03*
X125730000Y-59690000D03*
X123190000Y-62230000D03*
X125730000Y-62230000D03*
D16*
X134620000Y-44450000D03*
D12*
X137160000Y-44450000D03*
X134620000Y-46990000D03*
X137160000Y-46990000D03*
X134620000Y-49530000D03*
X137160000Y-49530000D03*
X134620000Y-52070000D03*
X137160000Y-52070000D03*
X134620000Y-54610000D03*
X137160000Y-54610000D03*
X134620000Y-57150000D03*
X137160000Y-57150000D03*
X134620000Y-59690000D03*
X137160000Y-59690000D03*
X134620000Y-62230000D03*
X137160000Y-62230000D03*
D16*
X146050000Y-44450000D03*
D12*
X148590000Y-44450000D03*
X146050000Y-46990000D03*
X148590000Y-46990000D03*
X146050000Y-49530000D03*
X148590000Y-49530000D03*
X146050000Y-52070000D03*
X148590000Y-52070000D03*
X146050000Y-54610000D03*
X148590000Y-54610000D03*
X146050000Y-57150000D03*
X148590000Y-57150000D03*
X146050000Y-59690000D03*
X148590000Y-59690000D03*
X146050000Y-62230000D03*
X148590000Y-62230000D03*
D16*
X157480000Y-44450000D03*
D12*
X160020000Y-44450000D03*
X157480000Y-46990000D03*
X160020000Y-46990000D03*
X157480000Y-49530000D03*
X160020000Y-49530000D03*
X157480000Y-52070000D03*
X160020000Y-52070000D03*
X157480000Y-54610000D03*
X160020000Y-54610000D03*
X157480000Y-57150000D03*
X160020000Y-57150000D03*
X157480000Y-59690000D03*
X160020000Y-59690000D03*
X157480000Y-62230000D03*
X160020000Y-62230000D03*
D16*
X168910000Y-44450000D03*
D12*
X171450000Y-44450000D03*
X168910000Y-46990000D03*
X171450000Y-46990000D03*
X168910000Y-49530000D03*
X171450000Y-49530000D03*
X168910000Y-52070000D03*
X171450000Y-52070000D03*
X168910000Y-54610000D03*
X171450000Y-54610000D03*
X168910000Y-57150000D03*
X171450000Y-57150000D03*
X168910000Y-59690000D03*
X171450000Y-59690000D03*
X168910000Y-62230000D03*
X171450000Y-62230000D03*
D16*
X180340000Y-44450000D03*
D12*
X182880000Y-44450000D03*
X180340000Y-46990000D03*
X182880000Y-46990000D03*
X180340000Y-49530000D03*
X182880000Y-49530000D03*
X180340000Y-52070000D03*
X182880000Y-52070000D03*
X180340000Y-54610000D03*
X182880000Y-54610000D03*
X180340000Y-57150000D03*
X182880000Y-57150000D03*
X180340000Y-59690000D03*
X182880000Y-59690000D03*
X180340000Y-62230000D03*
X182880000Y-62230000D03*
D16*
X191770000Y-44450000D03*
D12*
X194310000Y-44450000D03*
X191770000Y-46990000D03*
X194310000Y-46990000D03*
X191770000Y-49530000D03*
X194310000Y-49530000D03*
X191770000Y-52070000D03*
X194310000Y-52070000D03*
X191770000Y-54610000D03*
X194310000Y-54610000D03*
X191770000Y-57150000D03*
X194310000Y-57150000D03*
X191770000Y-59690000D03*
X194310000Y-59690000D03*
X191770000Y-62230000D03*
X194310000Y-62230000D03*
D15*
X207873600Y-139700000D03*
X203911200Y-139700000D03*
X199948800Y-139700000D03*
X195986400Y-139700000D03*
X153670000Y-142240000D03*
X149707600Y-142240000D03*
X145745200Y-142240000D03*
X141782800Y-142240000D03*
D17*
X189230000Y-107950000D03*
X190500000Y-106680000D03*
X191770000Y-107950000D03*
X205740000Y-96520000D03*
X204470000Y-95250000D03*
X207010000Y-95250000D03*
X207010000Y-92710000D03*
X204470000Y-92710000D03*
X205740000Y-91440000D03*
X205740000Y-88900000D03*
X204470000Y-87630000D03*
X207010000Y-87630000D03*
X207010000Y-85090000D03*
X204470000Y-85090000D03*
X205740000Y-83820000D03*
X200660000Y-92710000D03*
X201930000Y-93980000D03*
X200660000Y-95250000D03*
X107950000Y-100330000D03*
X106680000Y-99060000D03*
X107950000Y-97790000D03*
X129540000Y-93980000D03*
X130810000Y-92710000D03*
X130810000Y-95250000D03*
X133350000Y-95250000D03*
X133350000Y-92710000D03*
X134620000Y-93980000D03*
X129540000Y-99060000D03*
X130810000Y-97790000D03*
X130810000Y-100330000D03*
X133350000Y-100330000D03*
X133350000Y-97790000D03*
X134620000Y-99060000D03*
X118110000Y-102870000D03*
X116840000Y-104140000D03*
X115570000Y-102870000D03*
X158750000Y-107950000D03*
X157480000Y-109220000D03*
X156210000Y-107950000D03*
X146050000Y-106680000D03*
X147320000Y-105410000D03*
X148590000Y-106680000D03*
X170180000Y-107950000D03*
X168910000Y-109220000D03*
X168910000Y-106680000D03*
X166370000Y-106680000D03*
X166370000Y-109220000D03*
X165100000Y-107950000D03*
X165100000Y-118110000D03*
X166370000Y-116840000D03*
X166370000Y-119380000D03*
X168910000Y-119380000D03*
X168910000Y-116840000D03*
X170180000Y-118110000D03*
X165100000Y-113030000D03*
X166370000Y-111760000D03*
X166370000Y-114300000D03*
X168910000Y-114300000D03*
X168910000Y-111760000D03*
X170180000Y-113030000D03*
X144145000Y-102235000D03*
X142875000Y-100965000D03*
X144145000Y-99695000D03*
D12*
X195580000Y-115570000D03*
X205740000Y-115570000D03*
X201930000Y-119380000D03*
X196850000Y-121920000D03*
X189230000Y-119380000D03*
X185420000Y-120650000D03*
X185420000Y-110490000D03*
X195580000Y-107950000D03*
X205740000Y-107950000D03*
X195580000Y-102870000D03*
X205740000Y-102870000D03*
X195580000Y-110490000D03*
X205740000Y-110490000D03*
X182880000Y-110490000D03*
X182880000Y-120650000D03*
X195580000Y-105410000D03*
X205740000Y-105410000D03*
X204470000Y-71120000D03*
X204470000Y-81280000D03*
X207010000Y-71120000D03*
X207010000Y-81280000D03*
X132080000Y-106680000D03*
X121920000Y-106680000D03*
X106680000Y-116840000D03*
X111760000Y-114300000D03*
X119380000Y-116840000D03*
X121920000Y-109220000D03*
X132080000Y-109220000D03*
X107950000Y-111760000D03*
X118110000Y-111760000D03*
X120650000Y-102870000D03*
X130810000Y-102870000D03*
X107950000Y-109220000D03*
X118110000Y-109220000D03*
X121920000Y-111760000D03*
X132080000Y-111760000D03*
X137160000Y-90805000D03*
X137160000Y-100965000D03*
X134620000Y-71120000D03*
X134620000Y-81280000D03*
X137160000Y-81280000D03*
X137160000Y-71120000D03*
X146050000Y-114300000D03*
X156210000Y-114300000D03*
X151130000Y-104140000D03*
X161290000Y-104140000D03*
X146050000Y-111760000D03*
X156210000Y-111760000D03*
X165100000Y-93980000D03*
X165100000Y-104140000D03*
X167640000Y-93980000D03*
X167640000Y-104140000D03*
X170180000Y-93980000D03*
X170180000Y-104140000D03*
X168910000Y-71120000D03*
X168910000Y-81280000D03*
X171450000Y-81280000D03*
X171450000Y-71120000D03*
D17*
X187960000Y-114300000D03*
X189230000Y-113030000D03*
X190500000Y-114300000D03*
X129540000Y-114300000D03*
X130810000Y-115570000D03*
X129540000Y-116840000D03*
D14*
X200660000Y-88900000D03*
X200660000Y-71120000D03*
X130810000Y-88900000D03*
X130810000Y-71120000D03*
X165100000Y-71120000D03*
X165100000Y-88900000D03*
D18*
X186690000Y-140970000D03*
X118110000Y-140970000D03*
D17*
X207010000Y-99060000D03*
X205740000Y-100330000D03*
X204470000Y-99060000D03*
X113030000Y-102870000D03*
X111760000Y-104140000D03*
X110490000Y-102870000D03*
D15*
X146939000Y-95758000D03*
X152400000Y-95758000D03*
X157861000Y-95758000D03*
D19*
X152400000Y-73660000D03*
D15*
X112649000Y-95758000D03*
X118110000Y-95758000D03*
X123571000Y-95758000D03*
D19*
X118110000Y-73660000D03*
D15*
X181229000Y-95758000D03*
X186690000Y-95758000D03*
X192151000Y-95758000D03*
D19*
X186690000Y-73660000D03*
D13*
X207645000Y-43320000D03*
D14*
X207645000Y-46820000D03*
X207645000Y-50320000D03*
X207645000Y-53820000D03*
X207645000Y-57320000D03*
X207645000Y-60820000D03*
M02*
