M48
;DRILL file {KiCad 4.0.6} date 04/10/17 20:11:35
;FORMAT={-:-/ absolute / inch / decimal}
FMAT,2
INCH,TZ
T1C0.032
T2C0.036
T3C0.055
T4C0.060
T5C0.070
T6C0.140
%
G90
G05
M72
T1
X4.2Y-3.9
X4.25Y-3.85
X4.25Y-3.95
X4.35Y-4.05
X4.4Y-4.1
X4.45Y-4.05
X4.55Y-4.05
X4.6Y-4.1
X4.65Y-4.05
X5.1Y-3.7
X5.1Y-3.9
X5.1Y-4.5
X5.1Y-4.6
X5.15Y-3.65
X5.15Y-3.75
X5.15Y-3.85
X5.15Y-3.95
X5.15Y-4.55
X5.25Y-3.65
X5.25Y-3.75
X5.25Y-3.85
X5.25Y-3.95
X5.3Y-3.7
X5.3Y-3.9
X5.625Y-3.975
X5.675Y-3.925
X5.675Y-4.025
X5.75Y-4.2
X5.8Y-4.15
X5.85Y-4.2
X6.15Y-4.25
X6.2Y-4.3
X6.25Y-4.25
X6.5Y-4.25
X6.5Y-4.45
X6.5Y-4.65
X6.55Y-4.2
X6.55Y-4.3
X6.55Y-4.4
X6.55Y-4.5
X6.55Y-4.6
X6.55Y-4.7
X6.65Y-4.2
X6.65Y-4.3
X6.65Y-4.4
X6.65Y-4.5
X6.65Y-4.6
X6.65Y-4.7
X6.7Y-4.25
X6.7Y-4.45
X6.7Y-4.65
X7.4Y-4.5
X7.45Y-4.25
X7.45Y-4.45
X7.5Y-4.2
X7.5Y-4.5
X7.55Y-4.25
X7.9Y-3.65
X7.9Y-3.75
X7.95Y-3.7
X8.05Y-3.35
X8.05Y-3.45
X8.05Y-3.65
X8.05Y-3.75
X8.05Y-3.9
X8.1Y-3.3
X8.1Y-3.5
X8.1Y-3.6
X8.1Y-3.8
X8.1Y-3.95
X8.15Y-3.35
X8.15Y-3.45
X8.15Y-3.65
X8.15Y-3.75
X8.15Y-3.9
T2
X4.15Y-4.05
X4.15Y-4.25
X4.2Y-4.6
X4.25Y-4.2
X4.25Y-4.3
X4.25Y-4.4
X4.4Y-1.75
X4.4Y-1.85
X4.4Y-1.95
X4.4Y-2.05
X4.4Y-2.15
X4.4Y-2.25
X4.4Y-2.35
X4.4Y-2.45
X4.4Y-4.5
X4.45Y-4.2
X4.45Y-4.8531
X4.45Y-5.2469
X4.5Y-1.75
X4.5Y-1.85
X4.5Y-1.95
X4.5Y-2.05
X4.5Y-2.15
X4.5Y-2.25
X4.5Y-2.35
X4.5Y-2.45
X4.65Y-4.3
X4.65Y-4.4
X4.7Y-4.6
X4.75Y-4.05
X4.8Y-4.2
X4.8Y-4.3
X4.8Y-4.4
X4.85Y-1.75
X4.85Y-1.85
X4.85Y-1.95
X4.85Y-2.05
X4.85Y-2.15
X4.85Y-2.25
X4.85Y-2.35
X4.85Y-2.45
X4.95Y-1.75
X4.95Y-1.85
X4.95Y-1.95
X4.95Y-2.05
X4.95Y-2.15
X4.95Y-2.25
X4.95Y-2.35
X4.95Y-2.45
X5.15Y-2.8
X5.15Y-3.5
X5.15Y-4.05
X5.2Y-4.2
X5.2Y-4.3
X5.2Y-4.4
X5.3Y-1.75
X5.3Y-1.85
X5.3Y-1.95
X5.3Y-2.05
X5.3Y-2.15
X5.3Y-2.25
X5.3Y-2.35
X5.3Y-2.45
X5.3Y-2.8
X5.3Y-3.2
X5.35Y-3.4
X5.4Y-1.75
X5.4Y-1.85
X5.4Y-1.95
X5.4Y-2.05
X5.4Y-2.15
X5.4Y-2.25
X5.4Y-2.35
X5.4Y-2.45
X5.4Y-2.8
X5.4Y-3.2
X5.4Y-3.575
X5.4Y-3.975
X5.45Y-3.4
X5.75Y-1.75
X5.75Y-1.85
X5.75Y-1.95
X5.75Y-2.05
X5.75Y-2.15
X5.75Y-2.25
X5.75Y-2.35
X5.75Y-2.45
X5.75Y-4.4
X5.75Y-4.5
X5.85Y-1.75
X5.85Y-1.85
X5.85Y-1.95
X5.85Y-2.05
X5.85Y-2.15
X5.85Y-2.25
X5.85Y-2.35
X5.85Y-2.45
X5.85Y-4.3
X5.85Y-4.6
X5.95Y-4.1
X6.05Y-4.3
X6.05Y-4.6
X6.05Y-4.8531
X6.05Y-5.2469
X6.15Y-4.4
X6.15Y-4.5
X6.2Y-1.75
X6.2Y-1.85
X6.2Y-1.95
X6.2Y-2.05
X6.2Y-2.15
X6.2Y-2.25
X6.2Y-2.35
X6.2Y-2.45
X6.3Y-1.75
X6.3Y-1.85
X6.3Y-1.95
X6.3Y-2.05
X6.3Y-2.15
X6.3Y-2.25
X6.3Y-2.35
X6.3Y-2.45
X6.35Y-4.1
X6.5Y-2.8
X6.5Y-3.5
X6.5Y-3.7
X6.5Y-4.1
X6.6Y-3.7
X6.6Y-4.1
X6.65Y-1.75
X6.65Y-1.85
X6.65Y-1.95
X6.65Y-2.05
X6.65Y-2.15
X6.65Y-2.25
X6.65Y-2.35
X6.65Y-2.45
X6.65Y-2.8
X6.65Y-3.2
X6.7Y-3.3
X6.7Y-3.4
X6.7Y-3.7
X6.7Y-4.1
X6.75Y-1.75
X6.75Y-1.85
X6.75Y-1.95
X6.75Y-2.05
X6.75Y-2.15
X6.75Y-2.25
X6.75Y-2.35
X6.75Y-2.45
X6.75Y-2.8
X6.75Y-3.2
X6.85Y-5.0524
X6.85Y-5.3476
X7.1Y-1.75
X7.1Y-1.85
X7.1Y-1.95
X7.1Y-2.05
X7.1Y-2.15
X7.1Y-2.25
X7.1Y-2.35
X7.1Y-2.45
X7.1Y-4.25
X7.2Y-1.75
X7.2Y-1.85
X7.2Y-1.95
X7.2Y-2.05
X7.2Y-2.15
X7.2Y-2.25
X7.2Y-2.35
X7.2Y-2.45
X7.2Y-4.35
X7.2Y-4.75
X7.3Y-4.35
X7.3Y-4.75
X7.45Y-4.7
X7.55Y-1.75
X7.55Y-1.85
X7.55Y-1.95
X7.55Y-2.05
X7.55Y-2.15
X7.55Y-2.25
X7.55Y-2.35
X7.55Y-2.45
X7.65Y-1.75
X7.65Y-1.85
X7.65Y-1.95
X7.65Y-2.05
X7.65Y-2.15
X7.65Y-2.25
X7.65Y-2.35
X7.65Y-2.45
X7.7Y-4.05
X7.7Y-4.15
X7.7Y-4.25
X7.7Y-4.35
X7.7Y-4.55
X7.75Y-3.9
X7.75Y-4.8
X7.8Y-4.45
X7.9Y-2.8
X7.9Y-3.5
X7.95Y-3.9
X7.95Y-4.7
X8.Y-4.45
X8.05Y-2.8
X8.05Y-3.2
X8.075Y-2.575
X8.075Y-2.675
X8.1Y-4.05
X8.1Y-4.15
X8.1Y-4.25
X8.1Y-4.35
X8.1Y-4.55
X8.15Y-2.8
X8.15Y-3.2
T3
X4.95Y-4.75
X4.95Y-5.35
X5.15Y-4.75
X5.15Y-5.35
X5.35Y-4.75
X5.35Y-5.35
X5.55Y-4.75
X5.55Y-5.35
X7.3Y-5.
X7.3Y-5.2
X7.9Y-5.
X7.9Y-5.2
X8.175Y-1.7055
X8.175Y-1.8433
X8.175Y-1.9811
X8.175Y-2.1189
X8.175Y-2.2567
X8.175Y-2.3945
T4
X4.435Y-3.77
X4.65Y-3.77
X4.865Y-3.77
X5.785Y-3.77
X6.Y-3.77
X6.215Y-3.77
X7.135Y-3.77
X7.35Y-3.77
X7.565Y-3.77
T5
X5.582Y-5.6
X5.738Y-5.6
X5.894Y-5.6
X6.05Y-5.6
X7.716Y-5.5
X7.872Y-5.5
X8.028Y-5.5
X8.184Y-5.5
T6
X4.65Y-2.9
X4.65Y-5.55
X6.Y-2.9
X7.35Y-2.9
X7.35Y-5.55
T0
M30
