*%FSLAX23Y23*%
*%MOIN*%
G01*
%ADD11C,0.006*%
%ADD12C,0.007*%
%ADD13C,0.008*%
%ADD14C,0.010*%
%ADD15C,0.012*%
%ADD16C,0.032*%
%ADD17C,0.036*%
%ADD18C,0.050*%
%ADD19C,0.050*%
%ADD20C,0.052*%
%ADD21C,0.055*%
%ADD22C,0.056*%
%ADD23C,0.059*%
%ADD24C,0.060*%
%ADD25C,0.062*%
%ADD26C,0.066*%
%ADD27C,0.070*%
%ADD28C,0.080*%
%ADD29C,0.090*%
%ADD30C,0.095*%
%ADD31C,0.100*%
%ADD32C,0.104*%
%ADD33C,0.115*%
%ADD34C,0.120*%
%ADD35C,0.124*%
%ADD36C,0.125*%
%ADD37C,0.129*%
%ADD38C,0.150*%
%ADD39C,0.154*%
%ADD40R,0.062X0.062*%
%ADD41R,0.066X0.066*%
D14*
X7093Y9201D02*
X7133D01*
X7093D02*
Y9171D01*
X7113Y9181D01*
X7123D01*
X7133Y9171D01*
Y9151D01*
X7123Y9141D01*
X7103D01*
X7093Y9151D01*
X7153Y9191D02*
X7163Y9201D01*
X7183D01*
X7193Y9191D01*
Y9151D01*
X7183Y9141D01*
X7163D01*
X7153Y9151D01*
Y9191D01*
X7213D02*
X7223Y9201D01*
X7243D01*
X7253Y9191D01*
Y9151D01*
X7243Y9141D01*
X7223D01*
X7213Y9151D01*
Y9191D01*
X7273Y9171D02*
X7313D01*
X7333Y9141D02*
X7353D01*
X7343D01*
Y9201D01*
X7344D01*
X7343D02*
X7333Y9191D01*
X7383D02*
X7393Y9201D01*
X7413D01*
X7423Y9191D01*
Y9151D01*
X7413Y9141D01*
X7393D01*
X7383Y9151D01*
Y9191D01*
X7443Y9201D02*
X7483D01*
Y9191D01*
X7443Y9151D01*
Y9141D01*
X7503Y9201D02*
X7543D01*
Y9191D01*
X7503Y9151D01*
Y9141D01*
X7563D02*
Y9181D01*
X7583Y9201D01*
X7603Y9181D01*
Y9141D01*
Y9171D01*
X7563D01*
X7083Y9001D02*
X7063D01*
X7073D01*
Y8951D01*
X7063Y8941D01*
X7053D01*
X7043Y8951D01*
X7103Y8941D02*
Y8981D01*
X7123Y9001D01*
X7143Y8981D01*
Y8941D01*
Y8971D01*
X7103D01*
X7163Y8941D02*
Y9001D01*
X7183Y8981D01*
X7203Y9001D01*
Y8941D01*
X7223Y9001D02*
X7263D01*
X7223D02*
Y8941D01*
X7263D01*
X7243Y8971D02*
X7223D01*
X7313Y9001D02*
X7323Y8991D01*
X7313Y9001D02*
X7293D01*
X7283Y8991D01*
Y8981D01*
X7293Y8971D01*
X7313D01*
X7323Y8961D01*
Y8951D01*
X7313Y8941D01*
X7293D01*
X7283Y8951D01*
X7403Y8941D02*
Y9001D01*
X7433D01*
X7443Y8991D01*
Y8971D01*
X7433Y8961D01*
X7403D01*
X7463Y8941D02*
Y8981D01*
X7483Y9001D01*
X7503Y8981D01*
Y8941D01*
Y8971D01*
X7463D01*
X7523Y9001D02*
X7563D01*
X7543D01*
Y8941D01*
X7613Y9001D02*
X7623Y8991D01*
X7613Y9001D02*
X7593D01*
X7583Y8991D01*
Y8951D01*
X7593Y8941D01*
X7613D01*
X7623Y8951D01*
X7643Y8941D02*
Y9001D01*
Y8971D02*
Y8941D01*
Y8971D02*
X7683D01*
Y9001D01*
Y8941D01*
X7703Y9001D02*
X7743D01*
X7703D02*
Y8941D01*
X7743D01*
X7723Y8971D02*
X7703D01*
X7763Y9001D02*
Y8941D01*
X7803D01*
X7823D02*
Y9001D01*
Y8941D02*
X7863D01*
X7108Y9091D02*
X7098Y9101D01*
X7078D01*
X7068Y9091D01*
Y9051D01*
X7078Y9041D01*
X7098D01*
X7108Y9051D01*
X7138Y9101D02*
X7158D01*
X7138D02*
X7128Y9091D01*
Y9051D01*
X7138Y9041D01*
X7158D01*
X7168Y9051D01*
Y9091D01*
X7158Y9101D01*
X7188D02*
Y9041D01*
Y9101D02*
X7218D01*
X7228Y9091D01*
Y9071D01*
X7218Y9061D01*
X7188D01*
X7248Y9091D02*
Y9101D01*
Y9091D02*
X7268Y9071D01*
X7288Y9091D01*
Y9101D01*
X7268Y9071D02*
Y9041D01*
X7308D02*
Y9101D01*
X7338D01*
X7348Y9091D01*
Y9071D01*
X7338Y9061D01*
X7308D01*
X7328D02*
X7348Y9041D01*
X7368Y9101D02*
X7388D01*
X7378D01*
Y9041D01*
X7368D01*
X7388D01*
X7448Y9101D02*
X7458Y9091D01*
X7448Y9101D02*
X7428D01*
X7418Y9091D01*
Y9051D01*
X7428Y9041D01*
X7448D01*
X7458Y9051D01*
Y9071D01*
X7438D01*
X7478Y9101D02*
Y9041D01*
Y9071D01*
X7518D01*
Y9101D01*
Y9041D01*
X7538Y9101D02*
X7578D01*
X7558D01*
Y9041D01*
X7658Y9061D02*
X7678Y9041D01*
X7658Y9061D02*
Y9081D01*
X7678Y9101D01*
X7718Y9081D02*
X7748D01*
X7718D02*
X7708Y9071D01*
Y9051D01*
X7718Y9041D01*
X7748D01*
X7768D02*
X7788Y9061D01*
Y9081D01*
X7768Y9101D01*
X7878Y9041D02*
X7918D01*
X7878D02*
X7918Y9081D01*
Y9091D01*
X7908Y9101D01*
X7888D01*
X7878Y9091D01*
X7938D02*
X7948Y9101D01*
X7968D01*
X7978Y9091D01*
Y9051D01*
X7968Y9041D01*
X7948D01*
X7938Y9051D01*
Y9091D01*
X7998Y9041D02*
X8018D01*
X8008D01*
Y9101D01*
X8009D01*
X8008D02*
X7998Y9091D01*
X8078Y9101D02*
Y9041D01*
X8048Y9071D02*
X8078Y9101D01*
X8088Y9071D02*
X8048D01*
X7035Y9441D02*
X6968D01*
Y9391D01*
X7001Y9408D01*
X7018D01*
X7035Y9391D01*
Y9358D01*
X7018Y9341D01*
X6985D01*
X6968Y9358D01*
X7068Y9424D02*
X7085Y9441D01*
X7118D01*
X7135Y9424D01*
Y9358D01*
X7118Y9341D01*
X7085D01*
X7068Y9358D01*
Y9424D01*
X7168D02*
X7185Y9441D01*
X7218D01*
X7235Y9424D01*
Y9358D01*
X7218Y9341D01*
X7185D01*
X7168Y9358D01*
Y9424D01*
X7268Y9391D02*
X7335D01*
X7368Y9341D02*
X7401D01*
X7385D01*
Y9441D01*
X7386D01*
X7385D02*
X7368Y9424D01*
X7451D02*
X7468Y9441D01*
X7501D01*
X7518Y9424D01*
Y9358D01*
X7501Y9341D01*
X7468D01*
X7451Y9358D01*
Y9424D01*
X7551Y9441D02*
X7618D01*
Y9424D01*
X7551Y9358D01*
Y9341D01*
X7651Y9441D02*
X7718D01*
Y9424D01*
X7651Y9358D01*
Y9341D01*
X7751D02*
Y9408D01*
X7784Y9441D01*
X7818Y9408D01*
Y9341D01*
Y9391D01*
X7751D01*
X7851D02*
X7918D01*
X7951Y9424D02*
X7968Y9441D01*
X8001D01*
X8018Y9424D01*
Y9358D01*
X8001Y9341D01*
X7968D01*
X7951Y9358D01*
Y9424D01*
X8051Y9341D02*
X8118D01*
X8051D02*
X8118Y9408D01*
Y9424D01*
X8101Y9441D01*
X8068D01*
X8051Y9424D01*
X8301Y9441D02*
X8318Y9424D01*
X8301Y9441D02*
X8268D01*
X8251Y9424D01*
Y9358D01*
X8268Y9341D01*
X8301D01*
X8318Y9358D01*
X8368Y9441D02*
X8401D01*
X8368D02*
X8351Y9424D01*
Y9358D01*
X8368Y9341D01*
X8401D01*
X8418Y9358D01*
Y9424D01*
X8401Y9441D01*
X8451D02*
Y9341D01*
X8484Y9408D02*
X8451Y9441D01*
X8484Y9408D02*
X8517Y9441D01*
Y9341D01*
X8551D02*
Y9441D01*
X8601D01*
X8617Y9424D01*
Y9391D01*
X8601Y9374D01*
X8551D01*
X8667Y9441D02*
X8701D01*
X8667D02*
X8651Y9424D01*
Y9358D01*
X8667Y9341D01*
X8701D01*
X8717Y9358D01*
Y9424D01*
X8701Y9441D01*
X8751D02*
Y9341D01*
X8817D02*
X8751Y9441D01*
X8817D02*
Y9341D01*
X8851Y9441D02*
X8917D01*
X8851D02*
Y9341D01*
X8917D01*
X8884Y9391D02*
X8851D01*
X8951Y9341D02*
Y9441D01*
X9017Y9341D01*
Y9441D01*
X9051D02*
X9117D01*
X9084D01*
Y9341D01*
X9301Y9441D02*
X9317Y9424D01*
X9301Y9441D02*
X9267D01*
X9251Y9424D01*
Y9408D01*
X9267Y9391D01*
X9301D01*
X9317Y9374D01*
Y9358D01*
X9301Y9341D01*
X9267D01*
X9251Y9358D01*
X9351Y9441D02*
X9384D01*
X9367D01*
Y9341D01*
X9351D01*
X9384D01*
X9434D02*
Y9441D01*
Y9341D02*
X9484D01*
X9501Y9358D01*
Y9424D01*
X9484Y9441D01*
X9434D01*
X9534D02*
X9600D01*
X9534D02*
Y9341D01*
X9600D01*
X9567Y9391D02*
X9534D01*
X6918Y9266D02*
Y6266D01*
Y9266D02*
X12918D01*
Y6266D01*
X6918D01*
D15*
X8668Y7016D02*
X8918Y7266D01*
X9568Y6366D02*
X9843Y6641D01*
X11518Y7116D02*
X11668Y7266D01*
X9218D02*
X9093Y7391D01*
X9968Y7291D02*
X10243Y7016D01*
X9793Y6716D02*
X9643Y6866D01*
X12218Y6766D02*
X12418Y6566D01*
X12355Y6791D02*
X12721Y6424D01*
X9568Y6366D02*
X8993D01*
X8918Y6441D02*
X8793D01*
X7268Y7866D02*
X7218Y7816D01*
X9843Y6641D02*
X10043D01*
X10118Y6716D02*
X11368D01*
X9668Y6666D02*
X8418D01*
X9693Y6691D02*
X10018D01*
X10068Y6741D02*
X11621D01*
X9968Y6716D02*
X9793D01*
X10018Y6766D02*
X12218D01*
X12355Y6791D02*
X9893D01*
X7418Y7816D02*
Y7866D01*
X9668Y6966D02*
X9943D01*
X10043Y6866D02*
X11368D01*
X10721Y7016D02*
X10243D01*
X9643Y6866D02*
X8843D01*
X11493Y7116D02*
X11518D01*
X11493D02*
X10418D01*
X10243Y7341D02*
X9318D01*
X9368Y7266D02*
X9218D01*
X9093Y7391D02*
X8018D01*
X9393Y7291D02*
X9968D01*
X8493Y7341D02*
X7918D01*
X10868Y7266D02*
X10918D01*
X10868D02*
X10568D01*
X11018Y7366D02*
X11718D01*
X8068Y7816D02*
X8018Y7866D01*
X8993Y7591D02*
X9643D01*
X8068Y7666D02*
X7818D01*
X9668Y7616D02*
X9768D01*
X12218Y7666D02*
X12318D01*
X12218D02*
X12118D01*
X12318D02*
X12418D01*
X11568D02*
X11468D01*
X11668Y7941D02*
X10718D01*
X10693Y7916D02*
X10643D01*
X10618Y7941D02*
X10593D01*
X10168D01*
X9818Y7966D02*
X10668D01*
X7868Y7941D02*
X7218D01*
X7993Y7866D02*
X8018D01*
X7993D02*
X7418D01*
X7268D01*
X8568Y8266D02*
X8668Y8366D01*
X8493Y7341D02*
X8568Y7266D01*
X8668Y7016D02*
Y6966D01*
X9968Y8316D02*
X10543D01*
X10593Y8266D02*
X10768D01*
X9243D02*
X9218D01*
X9293Y8316D02*
X9618D01*
X9693Y8391D02*
X10068D01*
X10118Y8341D02*
X11518D01*
X9518Y8366D02*
X8668D01*
X9418Y8266D02*
X9518D01*
X9418D02*
X9318D01*
X8918Y6441D02*
X8993Y6366D01*
Y7591D02*
X8918Y7666D01*
X9043Y8591D02*
X8968Y8666D01*
X10343Y8466D02*
X11293D01*
X11418Y8541D02*
X11468D01*
X11418D02*
X10268D01*
X9868Y8591D02*
X10993D01*
X9318Y8541D02*
X8468D01*
X9793Y8516D02*
X9968D01*
X9718Y8591D02*
X9043D01*
X11718Y8416D02*
X12318D01*
X9293Y8316D02*
X9243Y8266D01*
X10118Y8766D02*
X10218D01*
X10343Y8741D02*
X10493D01*
X10293Y8691D02*
X9868D01*
X9793Y8616D02*
X9718D01*
X8968Y8666D02*
X8668D01*
X11868D02*
X11968D01*
X12068D02*
X12118D01*
X12018Y8716D02*
X11668D01*
X9393Y7291D02*
X9368Y7266D01*
X10518Y8866D02*
X11568D01*
X10318D02*
X9843D01*
X9693Y8391D02*
X9618Y8316D01*
X9768Y8666D02*
Y8691D01*
X9818Y8741D02*
Y8841D01*
X9718Y8866D02*
Y9141D01*
X9693Y6691D02*
X9668Y6666D01*
X9793Y8616D02*
X9868Y8691D01*
X9818Y8741D02*
X9768Y8691D01*
X9818Y8841D02*
X9843Y8866D01*
X9668Y7616D02*
X9643Y7591D01*
X9668Y8816D02*
X9718Y8866D01*
Y9141D02*
X9768Y9191D01*
X9668Y8666D02*
X9718Y8616D01*
Y8591D02*
X9793Y8516D01*
X9768Y9191D02*
X12793D01*
X10068Y6741D02*
X10018Y6691D01*
X9968Y6716D02*
X10018Y6766D01*
X10043Y6866D02*
X9943Y6966D01*
X10118Y6716D02*
X10043Y6641D01*
X10218Y8766D02*
X10268Y8816D01*
X10168Y7941D02*
X10118Y7891D01*
Y8341D02*
X10068Y8391D01*
X10118Y8766D02*
X10068Y8816D01*
X10293Y8691D02*
X10343Y8741D01*
X10318Y8866D02*
X10368Y8916D01*
X10493Y8741D02*
X10568Y8816D01*
X10543Y8316D02*
X10593Y8266D01*
X10518Y8866D02*
X10468Y8916D01*
X10718Y7941D02*
X10693Y7916D01*
X10643D02*
X10618Y7941D01*
X10993Y8591D02*
X11068Y8666D01*
X11018Y7366D02*
X10918Y7266D01*
X11368Y6716D02*
X11418Y6666D01*
X11568Y8641D02*
Y8666D01*
Y8641D02*
X11468Y8541D01*
X11721Y6641D02*
Y6424D01*
Y6641D02*
X11621Y6741D01*
X11668Y8366D02*
X11693Y8391D01*
X11718Y8416D01*
X12018Y8716D02*
X12068Y8666D01*
D19*
X11868Y8966D02*
X11693Y8791D01*
X12181Y6491D02*
X12115Y6424D01*
X12243Y8891D02*
X12343Y8991D01*
X12843Y6366D02*
X12793Y6316D01*
X11068Y7266D02*
X10993Y7191D01*
X10968Y8741D02*
X11018Y8791D01*
X10043Y8991D02*
X9968Y8916D01*
X7718Y8116D02*
X7643Y8041D01*
X8293D02*
X8368Y8116D01*
X8893Y8041D02*
X8968Y8116D01*
X9543Y8041D02*
X9618Y8116D01*
X11193Y8041D02*
X11268Y8116D01*
X11793Y8041D02*
X11868Y8116D01*
X8993Y7891D02*
X8918Y7816D01*
X9568D02*
X9643Y7891D01*
X10168Y7816D02*
X10243Y7891D01*
X10668Y7816D02*
X10743Y7891D01*
X11168Y7816D02*
X11243Y7891D01*
X11768Y7816D02*
X11843Y7891D01*
X12843Y8916D02*
X12768Y8991D01*
X12518Y6491D02*
X12693Y6316D01*
X10443Y7191D02*
X10368Y7266D01*
X12168Y8966D02*
X12243Y8891D01*
X8768Y7816D02*
X8693Y7891D01*
X7293Y8041D02*
X7218Y8116D01*
X7868Y8091D02*
X7918Y8041D01*
X8468Y8116D02*
X8543Y8041D01*
X9118Y8116D02*
X9193Y8041D01*
X9768Y8091D02*
X9818Y8041D01*
X11368Y8091D02*
X11418Y8041D01*
X9418Y7816D02*
X9343Y7891D01*
X9993D02*
X10068Y7816D01*
X10593Y7891D02*
X10668Y7816D01*
X11093Y7891D02*
X11168Y7816D01*
X11618Y7891D02*
X11668Y7841D01*
X12268Y7891D02*
X12318Y7841D01*
X12115Y6424D02*
X12093Y6416D01*
X12243Y8791D02*
X12240Y8816D01*
X11115Y6424D02*
X11118Y6416D01*
X11543Y6424D02*
X11638Y6331D01*
X12008D02*
X12093Y6416D01*
X11118D02*
X11033Y6331D01*
X10623D02*
X10518Y6424D01*
X12693Y6316D02*
X12793D01*
X11543Y6424D02*
X11115D01*
X10518D02*
X10115D01*
X11638Y6331D02*
X12008D01*
X11033D02*
X10623D01*
X12181Y6491D02*
X12518D01*
X7118Y7741D02*
Y7816D01*
X7318D02*
Y7741D01*
X7618Y8116D02*
Y8191D01*
Y7816D02*
Y7741D01*
X7518D02*
Y7816D01*
X10443Y7191D02*
X10993D01*
X7868Y8091D02*
Y8116D01*
X7768Y7816D02*
Y7741D01*
X7968D02*
Y7816D01*
X8168D02*
Y7741D01*
Y8116D02*
Y8191D01*
X9018Y7741D02*
X9668D01*
X9968D01*
X10268D01*
X11268D01*
X11668D01*
X11868D01*
X12218D01*
X9018D02*
X8368D01*
X8268D01*
X8168D01*
X7968D01*
X7768D01*
X7618D01*
X7518D01*
X7318D01*
X7118D01*
X8268Y8116D02*
Y8191D01*
X8368Y7816D02*
Y7741D01*
X8268D02*
Y7816D01*
X8768D02*
X8868D01*
X8693Y7891D02*
X8268D01*
X8868Y7816D02*
X8918D01*
X9418D02*
X9518D01*
X9343Y7891D02*
X8993D01*
X9518Y7816D02*
X9568D01*
X10068D02*
X10168D01*
X9993Y7891D02*
X9643D01*
X10243D02*
X10593D01*
X10743D02*
X11093D01*
X11668Y7816D02*
X11768D01*
X11618Y7891D02*
X11243D01*
X11843D02*
X12268D01*
X12318Y7816D02*
X12618D01*
X11868Y8191D02*
X11718D01*
X8168D02*
X7618D01*
X8168D02*
X8268D01*
X8868D02*
X9418D01*
X9518D01*
X10068D01*
X10168D01*
X11168D01*
X11868D01*
X7218Y8116D02*
X7118D01*
X7718D02*
X7768D01*
X7868D01*
X7643Y8041D02*
X7293D01*
X8368Y8116D02*
X8468D01*
X8293Y8041D02*
X7918D01*
X8968Y8116D02*
X9018D01*
X9118D01*
X8893Y8041D02*
X8543D01*
X9618Y8116D02*
X9668D01*
X9768D01*
X9543Y8041D02*
X9193D01*
X9818D02*
X10268D01*
X10568D01*
X10868D01*
X11268Y8116D02*
X11368D01*
X11193Y8041D02*
X10868D01*
X11868Y8116D02*
X12018D01*
X11793Y8041D02*
X11418D01*
X11768Y8191D02*
X11868D01*
X12318Y8116D02*
X12618D01*
X12318Y8191D02*
X11868D01*
X8868D02*
Y8116D01*
X9018Y7816D02*
Y7741D01*
X10468Y8666D02*
X10968D01*
X9418Y8191D02*
Y8116D01*
X11018Y8791D02*
X11693D01*
X12240Y8816D02*
X12243D01*
X12168Y8966D02*
X11868D01*
X9968Y8916D02*
X9868D01*
X9768D01*
X9518Y8191D02*
Y8116D01*
X12343Y8991D02*
X12768D01*
X10568D02*
X10043D01*
X9768Y8116D02*
Y8091D01*
X9668Y7816D02*
Y7741D01*
X9968D02*
Y7816D01*
X10068Y8116D02*
Y8191D01*
X10168D02*
Y8116D01*
X10268Y7816D02*
Y7741D01*
Y8041D02*
Y8116D01*
X10568Y8916D02*
Y8991D01*
Y8116D02*
Y8041D01*
X10968Y8666D02*
Y8741D01*
X10868Y8116D02*
Y8041D01*
X11168Y8116D02*
Y8191D01*
X11368Y8116D02*
Y8091D01*
X11268Y7816D02*
Y7741D01*
X11718Y8191D02*
Y8316D01*
X11768Y8191D02*
Y8116D01*
X11668Y7841D02*
Y7816D01*
Y7741D02*
Y7666D01*
X11868Y8191D02*
Y8266D01*
Y7816D02*
Y7741D01*
X12243Y8791D02*
Y8891D01*
Y8816D01*
X12218Y7816D02*
Y7741D01*
X12318Y8116D02*
Y8191D01*
Y7841D02*
Y7816D01*
X12843Y8916D02*
Y6366D01*
D21*
X11768Y8366D02*
D03*
X11718Y8316D02*
D03*
X11668Y8366D02*
D03*
Y8466D02*
D03*
X11718Y8516D02*
D03*
X11768Y8466D02*
D03*
D25*
X12793Y9191D02*
D03*
X12418Y6566D02*
D03*
X11668Y7941D02*
D03*
X11718Y7366D02*
D03*
X11668Y8716D02*
D03*
X11418Y6666D02*
D03*
X11518Y8341D02*
D03*
X11568Y8866D02*
D03*
X11368Y6866D02*
D03*
X11293Y8466D02*
D03*
X10668Y7966D02*
D03*
X10768Y8266D02*
D03*
X10721Y7016D02*
D03*
X10243Y7341D02*
D03*
X10418Y7116D02*
D03*
X10343Y8466D02*
D03*
X10268Y8541D02*
D03*
X10118Y7891D02*
D03*
X9893Y6791D02*
D03*
X9868Y8591D02*
D03*
X9818Y7966D02*
D03*
X9768Y7616D02*
D03*
X9518Y8366D02*
D03*
X9318Y7341D02*
D03*
Y8541D02*
D03*
X8793Y6441D02*
D03*
X8843Y6866D02*
D03*
X8468Y8541D02*
D03*
X8418Y6666D02*
D03*
X8268Y7891D02*
D03*
X8018Y7391D02*
D03*
X8068Y7666D02*
D03*
X7918Y7341D02*
D03*
X7868Y7941D02*
D03*
X7218D02*
D03*
X7118Y8116D02*
D03*
Y7816D02*
D03*
X7318D02*
D03*
X7218Y8116D02*
D03*
X7318D02*
D03*
X7418D02*
D03*
X7518D02*
D03*
Y7816D02*
D03*
X7418D02*
D03*
X8368D02*
D03*
Y8116D02*
D03*
X8868D02*
D03*
Y7816D02*
D03*
X9018D02*
D03*
Y8116D02*
D03*
X7618D02*
D03*
Y7816D02*
D03*
X7768Y8116D02*
D03*
Y7816D02*
D03*
X8268Y8116D02*
D03*
Y7816D02*
D03*
X8568Y7266D02*
D03*
Y7666D02*
D03*
X8468D02*
D03*
Y7266D02*
D03*
X8068Y7816D02*
D03*
X8168D02*
D03*
Y8116D02*
D03*
X8068D02*
D03*
X7968D02*
D03*
X7868D02*
D03*
X7968Y7816D02*
D03*
X8668D02*
D03*
X8768D02*
D03*
Y8116D02*
D03*
X8668D02*
D03*
X8568D02*
D03*
X8468D02*
D03*
X8568Y7816D02*
D03*
X8918Y7266D02*
D03*
Y7666D02*
D03*
X7818Y7266D02*
D03*
Y7666D02*
D03*
X8668Y8266D02*
D03*
Y8666D02*
D03*
X8568Y8266D02*
D03*
Y8666D02*
D03*
X9668Y8266D02*
D03*
Y8666D02*
D03*
X10268Y8116D02*
D03*
Y7816D02*
D03*
X9668Y8116D02*
D03*
Y7816D02*
D03*
X10168D02*
D03*
Y8116D02*
D03*
X9518D02*
D03*
Y7816D02*
D03*
X9218Y7666D02*
D03*
Y7266D02*
D03*
X9118Y7666D02*
D03*
Y7266D02*
D03*
X9968Y8316D02*
D03*
Y8516D02*
D03*
X9868Y7666D02*
D03*
Y7466D02*
D03*
X10568Y7266D02*
D03*
Y7666D02*
D03*
X10368Y7266D02*
D03*
Y7666D02*
D03*
X9318Y7816D02*
D03*
X9418D02*
D03*
Y8116D02*
D03*
X9318D02*
D03*
X9218D02*
D03*
X9118D02*
D03*
X9218Y7816D02*
D03*
X9968D02*
D03*
X10068D02*
D03*
Y8116D02*
D03*
X9968D02*
D03*
X9868D02*
D03*
X9768D02*
D03*
X9868Y7816D02*
D03*
X10468D02*
D03*
X10568D02*
D03*
X10668D02*
D03*
X10768D02*
D03*
X10868D02*
D03*
X10968D02*
D03*
X11068D02*
D03*
Y8116D02*
D03*
X10968D02*
D03*
X10868D02*
D03*
X10768D02*
D03*
X10668D02*
D03*
X10568D02*
D03*
X10468D02*
D03*
X10368D02*
D03*
X9768Y8266D02*
D03*
Y8666D02*
D03*
X9518Y8266D02*
D03*
Y8666D02*
D03*
X9418Y8266D02*
D03*
Y8666D02*
D03*
X9318Y8266D02*
D03*
Y8666D02*
D03*
X9218Y8266D02*
D03*
Y8666D02*
D03*
X10468Y8266D02*
D03*
Y8666D02*
D03*
X10368Y8266D02*
D03*
Y8666D02*
D03*
X9668Y8916D02*
D03*
X9768Y8816D02*
D03*
Y8916D02*
D03*
X9868Y8816D02*
D03*
Y8916D02*
D03*
X9968Y8816D02*
D03*
Y8916D02*
D03*
X10068Y8816D02*
D03*
Y8916D02*
D03*
X10168Y8816D02*
D03*
Y8916D02*
D03*
X10268Y8816D02*
D03*
Y8916D02*
D03*
X10368Y8816D02*
D03*
Y8916D02*
D03*
X10468Y8816D02*
D03*
Y8916D02*
D03*
X10568Y8816D02*
D03*
Y8916D02*
D03*
X11968Y8666D02*
D03*
Y8266D02*
D03*
X12018Y7666D02*
D03*
Y7266D02*
D03*
X11168Y7816D02*
D03*
Y8116D02*
D03*
X11268D02*
D03*
Y7816D02*
D03*
X11768D02*
D03*
Y8116D02*
D03*
X11068Y7266D02*
D03*
Y7666D02*
D03*
X10868Y7266D02*
D03*
Y7666D02*
D03*
X11668D02*
D03*
Y7266D02*
D03*
X11368D02*
D03*
Y7666D02*
D03*
X12118Y8666D02*
D03*
Y8266D02*
D03*
X11568Y7816D02*
D03*
X11668D02*
D03*
Y8116D02*
D03*
X11568D02*
D03*
X11468D02*
D03*
X11368D02*
D03*
X11468Y7816D02*
D03*
X11868D02*
D03*
Y8116D02*
D03*
X12118Y7816D02*
D03*
X12018Y8116D02*
D03*
X12118D02*
D03*
X12218D02*
D03*
X12318D02*
D03*
Y7816D02*
D03*
X12218D02*
D03*
X12118Y7266D02*
D03*
Y7666D02*
D03*
X11468D02*
D03*
Y7266D02*
D03*
X11568D02*
D03*
Y7666D02*
D03*
X11868Y8266D02*
D03*
Y8666D02*
D03*
X11568Y8266D02*
D03*
Y8666D02*
D03*
X11468Y8266D02*
D03*
Y8666D02*
D03*
X10968Y8266D02*
D03*
Y8666D02*
D03*
X11068Y8266D02*
D03*
Y8666D02*
D03*
X12218Y7666D02*
D03*
Y7266D02*
D03*
X12318Y7666D02*
D03*
Y7266D02*
D03*
X12418Y7666D02*
D03*
Y7266D02*
D03*
X12218Y8666D02*
D03*
Y8266D02*
D03*
X12618Y8116D02*
D03*
Y7816D02*
D03*
X12318Y8516D02*
D03*
Y8416D02*
D03*
D31*
X10721Y6424D02*
D03*
X10115D02*
D03*
X10418Y6326D02*
D03*
X11721Y6424D02*
D03*
X11115D02*
D03*
X11418Y6326D02*
D03*
X12721Y6424D02*
D03*
X12115D02*
D03*
X12418Y6326D02*
D03*
D34*
X7418Y7066D02*
D03*
X7268Y6566D02*
D03*
X7568D02*
D03*
X8418Y7066D02*
D03*
X8268Y6566D02*
D03*
X8568D02*
D03*
X9418Y7066D02*
D03*
X9268Y6566D02*
D03*
X9568D02*
D03*
D36*
X12396Y8816D02*
D03*
X12084D02*
D03*
X12552D02*
D03*
X12240D02*
D03*
D38*
X7418Y6466D02*
D03*
X7668Y6966D02*
D03*
X7568Y6766D02*
D03*
X8418Y6466D02*
D03*
X8668Y6966D02*
D03*
X8568Y6766D02*
D03*
X9418Y6466D02*
D03*
X9668Y6966D02*
D03*
X9568Y6766D02*
D03*
D40*
X7218Y7816D02*
D03*
X7868D02*
D03*
X8468D02*
D03*
X9118D02*
D03*
X9768D02*
D03*
X10368D02*
D03*
X9668Y8816D02*
D03*
X11368Y7816D02*
D03*
X12018D02*
D03*
M02*
