*%FSLAX23Y23*%
*%MOIN*%
G01*
%ADD11C,0.006*%
%ADD12C,0.007*%
%ADD13C,0.008*%
%ADD14C,0.010*%
%ADD15C,0.012*%
%ADD16C,0.032*%
%ADD17C,0.036*%
%ADD18C,0.050*%
%ADD19C,0.050*%
%ADD20C,0.052*%
%ADD21C,0.055*%
%ADD22C,0.056*%
%ADD23C,0.059*%
%ADD24C,0.060*%
%ADD25C,0.062*%
%ADD26C,0.066*%
%ADD27C,0.070*%
%ADD28C,0.080*%
%ADD29C,0.090*%
%ADD30C,0.095*%
%ADD31C,0.100*%
%ADD32C,0.104*%
%ADD33C,0.115*%
%ADD34C,0.120*%
%ADD35C,0.124*%
%ADD36C,0.125*%
%ADD37C,0.129*%
%ADD38C,0.150*%
%ADD39C,0.154*%
%ADD40R,0.062X0.062*%
%ADD41R,0.066X0.066*%
D14*
X10826Y9741D02*
X10893D01*
Y9691D01*
X10860Y9708D01*
X10843D01*
X10826Y9691D01*
Y9658D01*
X10843Y9641D01*
X10876D01*
X10893Y9658D01*
X10793Y9724D02*
X10776Y9741D01*
X10743D01*
X10726Y9724D01*
Y9658D01*
X10743Y9641D01*
X10776D01*
X10793Y9658D01*
Y9724D01*
X10693D02*
X10676Y9741D01*
X10643D01*
X10626Y9724D01*
Y9658D01*
X10643Y9641D01*
X10676D01*
X10693Y9658D01*
Y9724D01*
X10593Y9691D02*
X10526D01*
X10493Y9641D02*
X10460D01*
X10476D01*
Y9741D01*
X10477D01*
X10476D02*
X10493Y9724D01*
X10410D02*
X10393Y9741D01*
X10360D01*
X10343Y9724D01*
Y9658D01*
X10360Y9641D01*
X10393D01*
X10410Y9658D01*
Y9724D01*
X10310Y9741D02*
X10243D01*
Y9724D01*
X10310Y9658D01*
Y9641D01*
X10210Y9741D02*
X10143D01*
Y9724D01*
X10210Y9658D01*
Y9641D01*
X10110D02*
Y9708D01*
X10077Y9741D01*
X10043Y9708D01*
Y9641D01*
Y9691D01*
X10110D01*
X10010D02*
X9943D01*
X9910Y9724D02*
X9893Y9741D01*
X9860D01*
X9843Y9724D01*
Y9658D01*
X9860Y9641D01*
X9893D01*
X9910Y9658D01*
Y9724D01*
X9810D02*
X9793Y9741D01*
X9760D01*
X9743Y9724D01*
Y9708D01*
X9744D01*
X9743D02*
X9744D01*
X9743D02*
X9744D01*
X9743D02*
X9760Y9691D01*
X9777D01*
X9760D01*
X9743Y9674D01*
Y9658D01*
X9760Y9641D01*
X9793D01*
X9810Y9658D01*
X9560Y9741D02*
X9543Y9724D01*
X9560Y9741D02*
X9593D01*
X9610Y9724D01*
Y9658D01*
X9593Y9641D01*
X9560D01*
X9543Y9658D01*
X9510Y9741D02*
X9477D01*
X9493D01*
Y9641D01*
X9510D01*
X9477D01*
X9427D02*
Y9741D01*
X9377D01*
X9360Y9724D01*
Y9691D01*
X9377Y9674D01*
X9427D01*
X9393D02*
X9360Y9641D01*
X9260Y9724D02*
X9277Y9741D01*
X9310D01*
X9327Y9724D01*
Y9658D01*
X9310Y9641D01*
X9277D01*
X9260Y9658D01*
X9227D02*
Y9741D01*
Y9658D02*
X9210Y9641D01*
X9177D01*
X9160Y9658D01*
Y9741D01*
X9127D02*
X9094D01*
X9110D01*
Y9641D01*
X9127D01*
X9094D01*
X9044Y9741D02*
X8977D01*
X9010D01*
Y9641D01*
X8944D02*
X8877Y9708D01*
X8794Y9741D02*
X8777Y9724D01*
X8794Y9741D02*
X8827D01*
X8844Y9724D01*
Y9658D01*
X8827Y9641D01*
X8794D01*
X8777Y9658D01*
X8727Y9741D02*
X8694D01*
X8727D02*
X8744Y9724D01*
Y9658D01*
X8727Y9641D01*
X8694D01*
X8677Y9658D01*
Y9724D01*
X8694Y9741D01*
X8644D02*
Y9641D01*
X8610Y9708D02*
X8644Y9741D01*
X8610Y9708D02*
X8577Y9741D01*
Y9641D01*
X8544D02*
Y9741D01*
X8494D01*
X8477Y9724D01*
Y9691D01*
X8494Y9674D01*
X8544D01*
X8427Y9741D02*
X8394D01*
X8427D02*
X8444Y9724D01*
Y9658D01*
X8427Y9641D01*
X8394D01*
X8377Y9658D01*
Y9724D01*
X8394Y9741D01*
X8344D02*
Y9641D01*
X8277D02*
X8344Y9741D01*
X8277D02*
Y9641D01*
X8244Y9741D02*
X8177D01*
X8244D02*
Y9641D01*
X8177D01*
X8211Y9691D02*
X8244D01*
X8144Y9641D02*
Y9741D01*
X8077Y9641D01*
Y9741D01*
X8044D02*
X7977D01*
X8011D01*
Y9641D01*
X7794Y9741D02*
X7777Y9724D01*
X7794Y9741D02*
X7827D01*
X7844Y9724D01*
Y9708D01*
X7827Y9691D01*
X7794D01*
X7777Y9674D01*
Y9658D01*
X7794Y9641D01*
X7827D01*
X7844Y9658D01*
X7727Y9741D02*
X7694D01*
X7727D02*
X7744Y9724D01*
Y9658D01*
X7727Y9641D01*
X7694D01*
X7677Y9658D01*
Y9724D01*
X7694Y9741D01*
X7644D02*
Y9641D01*
X7577D01*
X7544D02*
Y9741D01*
Y9641D02*
X7494D01*
X7477Y9658D01*
Y9724D01*
X7494Y9741D01*
X7544D01*
X7444D02*
X7377D01*
X7444D02*
Y9641D01*
X7377D01*
X7411Y9691D02*
X7444D01*
X7344Y9641D02*
Y9741D01*
X7294D01*
X7278Y9724D01*
Y9691D01*
X7294Y9674D01*
X7344D01*
X7311D02*
X7278Y9641D01*
X7144D02*
Y9741D01*
X7111Y9708D01*
X7078Y9741D01*
Y9641D01*
X7044D02*
Y9708D01*
X7011Y9741D01*
X6978Y9708D01*
Y9641D01*
Y9691D01*
X7044D01*
X6894Y9741D02*
X6878Y9724D01*
X6894Y9741D02*
X6928D01*
X6944Y9724D01*
Y9708D01*
X6928Y9691D01*
X6894D01*
X6878Y9674D01*
Y9658D01*
X6894Y9641D01*
X6928D01*
X6944Y9658D01*
X6844Y9641D02*
Y9741D01*
Y9674D02*
Y9641D01*
Y9674D02*
X6778Y9741D01*
X6828Y9691D01*
X6778Y9641D01*
X6918Y9266D02*
Y6266D01*
Y9266D02*
X12918D01*
Y6266D01*
X6918D01*
D23*
X11768Y8366D02*
D03*
X11718Y8316D02*
D03*
X11668Y8366D02*
D03*
Y8466D02*
D03*
X11718Y8516D02*
D03*
X11768Y8466D02*
D03*
D26*
X12793Y9191D02*
D03*
X12418Y6566D02*
D03*
X11668Y7941D02*
D03*
X11718Y7366D02*
D03*
X11668Y8716D02*
D03*
X11418Y6666D02*
D03*
X11518Y8341D02*
D03*
X11568Y8866D02*
D03*
X11368Y6866D02*
D03*
X11293Y8466D02*
D03*
X10668Y7966D02*
D03*
X10768Y8266D02*
D03*
X10721Y7016D02*
D03*
X10243Y7341D02*
D03*
X10418Y7116D02*
D03*
X10343Y8466D02*
D03*
X10268Y8541D02*
D03*
X10118Y7891D02*
D03*
X9893Y6791D02*
D03*
X9868Y8591D02*
D03*
X9818Y7966D02*
D03*
X9768Y7616D02*
D03*
X9518Y8366D02*
D03*
X9318Y7341D02*
D03*
Y8541D02*
D03*
X8793Y6441D02*
D03*
X8843Y6866D02*
D03*
X8468Y8541D02*
D03*
X8418Y6666D02*
D03*
X8268Y7891D02*
D03*
X8018Y7391D02*
D03*
X8068Y7666D02*
D03*
X7918Y7341D02*
D03*
X7868Y7941D02*
D03*
X7218D02*
D03*
X7118Y8116D02*
D03*
Y7816D02*
D03*
X7318D02*
D03*
X7218Y8116D02*
D03*
X7318D02*
D03*
X7418D02*
D03*
X7518D02*
D03*
Y7816D02*
D03*
X7418D02*
D03*
X8368D02*
D03*
Y8116D02*
D03*
X8868D02*
D03*
Y7816D02*
D03*
X9018D02*
D03*
Y8116D02*
D03*
X7618D02*
D03*
Y7816D02*
D03*
X7768Y8116D02*
D03*
Y7816D02*
D03*
X8268Y8116D02*
D03*
Y7816D02*
D03*
X8568Y7266D02*
D03*
Y7666D02*
D03*
X8468D02*
D03*
Y7266D02*
D03*
X8068Y7816D02*
D03*
X8168D02*
D03*
Y8116D02*
D03*
X8068D02*
D03*
X7968D02*
D03*
X7868D02*
D03*
X7968Y7816D02*
D03*
X8668D02*
D03*
X8768D02*
D03*
Y8116D02*
D03*
X8668D02*
D03*
X8568D02*
D03*
X8468D02*
D03*
X8568Y7816D02*
D03*
X8918Y7266D02*
D03*
Y7666D02*
D03*
X7818Y7266D02*
D03*
Y7666D02*
D03*
X8668Y8266D02*
D03*
Y8666D02*
D03*
X8568Y8266D02*
D03*
Y8666D02*
D03*
X9668Y8266D02*
D03*
Y8666D02*
D03*
X10268Y8116D02*
D03*
Y7816D02*
D03*
X9668Y8116D02*
D03*
Y7816D02*
D03*
X10168D02*
D03*
Y8116D02*
D03*
X9518D02*
D03*
Y7816D02*
D03*
X9218Y7666D02*
D03*
Y7266D02*
D03*
X9118Y7666D02*
D03*
Y7266D02*
D03*
X9968Y8316D02*
D03*
Y8516D02*
D03*
X9868Y7666D02*
D03*
Y7466D02*
D03*
X10568Y7266D02*
D03*
Y7666D02*
D03*
X10368Y7266D02*
D03*
Y7666D02*
D03*
X9318Y7816D02*
D03*
X9418D02*
D03*
Y8116D02*
D03*
X9318D02*
D03*
X9218D02*
D03*
X9118D02*
D03*
X9218Y7816D02*
D03*
X9968D02*
D03*
X10068D02*
D03*
Y8116D02*
D03*
X9968D02*
D03*
X9868D02*
D03*
X9768D02*
D03*
X9868Y7816D02*
D03*
X10468D02*
D03*
X10568D02*
D03*
X10668D02*
D03*
X10768D02*
D03*
X10868D02*
D03*
X10968D02*
D03*
X11068D02*
D03*
Y8116D02*
D03*
X10968D02*
D03*
X10868D02*
D03*
X10768D02*
D03*
X10668D02*
D03*
X10568D02*
D03*
X10468D02*
D03*
X10368D02*
D03*
X9768Y8266D02*
D03*
Y8666D02*
D03*
X9518Y8266D02*
D03*
Y8666D02*
D03*
X9418Y8266D02*
D03*
Y8666D02*
D03*
X9318Y8266D02*
D03*
Y8666D02*
D03*
X9218Y8266D02*
D03*
Y8666D02*
D03*
X10468Y8266D02*
D03*
Y8666D02*
D03*
X10368Y8266D02*
D03*
Y8666D02*
D03*
X9668Y8916D02*
D03*
X9768Y8816D02*
D03*
Y8916D02*
D03*
X9868Y8816D02*
D03*
Y8916D02*
D03*
X9968Y8816D02*
D03*
Y8916D02*
D03*
X10068Y8816D02*
D03*
Y8916D02*
D03*
X10168Y8816D02*
D03*
Y8916D02*
D03*
X10268Y8816D02*
D03*
Y8916D02*
D03*
X10368Y8816D02*
D03*
Y8916D02*
D03*
X10468Y8816D02*
D03*
Y8916D02*
D03*
X10568Y8816D02*
D03*
Y8916D02*
D03*
X11968Y8666D02*
D03*
Y8266D02*
D03*
X12018Y7666D02*
D03*
Y7266D02*
D03*
X11168Y7816D02*
D03*
Y8116D02*
D03*
X11268D02*
D03*
Y7816D02*
D03*
X11768D02*
D03*
Y8116D02*
D03*
X11068Y7266D02*
D03*
Y7666D02*
D03*
X10868Y7266D02*
D03*
Y7666D02*
D03*
X11668D02*
D03*
Y7266D02*
D03*
X11368D02*
D03*
Y7666D02*
D03*
X12118Y8666D02*
D03*
Y8266D02*
D03*
X11568Y7816D02*
D03*
X11668D02*
D03*
Y8116D02*
D03*
X11568D02*
D03*
X11468D02*
D03*
X11368D02*
D03*
X11468Y7816D02*
D03*
X11868D02*
D03*
Y8116D02*
D03*
X12118Y7816D02*
D03*
X12018Y8116D02*
D03*
X12118D02*
D03*
X12218D02*
D03*
X12318D02*
D03*
Y7816D02*
D03*
X12218D02*
D03*
X12118Y7266D02*
D03*
Y7666D02*
D03*
X11468D02*
D03*
Y7266D02*
D03*
X11568D02*
D03*
Y7666D02*
D03*
X11868Y8266D02*
D03*
Y8666D02*
D03*
X11568Y8266D02*
D03*
Y8666D02*
D03*
X11468Y8266D02*
D03*
Y8666D02*
D03*
X10968Y8266D02*
D03*
Y8666D02*
D03*
X11068Y8266D02*
D03*
Y8666D02*
D03*
X12218Y7666D02*
D03*
Y7266D02*
D03*
X12318Y7666D02*
D03*
Y7266D02*
D03*
X12418Y7666D02*
D03*
Y7266D02*
D03*
X12218Y8666D02*
D03*
Y8266D02*
D03*
X12618Y8116D02*
D03*
Y7816D02*
D03*
X12318Y8516D02*
D03*
Y8416D02*
D03*
D32*
X10721Y6424D02*
D03*
X10115D02*
D03*
X10418Y6326D02*
D03*
X11721Y6424D02*
D03*
X11115D02*
D03*
X11418Y6326D02*
D03*
X12721Y6424D02*
D03*
X12115D02*
D03*
X12418Y6326D02*
D03*
D35*
X7418Y7066D02*
D03*
X7268Y6566D02*
D03*
X7568D02*
D03*
X8418Y7066D02*
D03*
X8268Y6566D02*
D03*
X8568D02*
D03*
X9418Y7066D02*
D03*
X9268Y6566D02*
D03*
X9568D02*
D03*
D37*
X12396Y8816D02*
D03*
X12084D02*
D03*
X12552D02*
D03*
X12240D02*
D03*
D39*
X7418Y6466D02*
D03*
X7668Y6966D02*
D03*
X7568Y6766D02*
D03*
X8418Y6466D02*
D03*
X8668Y6966D02*
D03*
X8568Y6766D02*
D03*
X9418Y6466D02*
D03*
X9668Y6966D02*
D03*
X9568Y6766D02*
D03*
D41*
X7218Y7816D02*
D03*
X7868D02*
D03*
X8468D02*
D03*
X9118D02*
D03*
X9768D02*
D03*
X10368D02*
D03*
X9668Y8816D02*
D03*
X11368Y7816D02*
D03*
X12018D02*
D03*
M02*
