*%FSLAX23Y23*%
*%MOIN*%
G01*
%ADD11C,0.007*%
%ADD12C,0.008*%
%ADD13C,0.010*%
%ADD14C,0.012*%
%ADD15C,0.036*%
%ADD16C,0.056*%
%ADD17C,0.062*%
%ADD18C,0.066*%
%ADD19C,0.068*%
%ADD20C,0.070*%
%ADD21C,0.090*%
%ADD22C,0.100*%
%ADD23C,0.125*%
%ADD24C,0.131*%
%ADD25C,0.250*%
%ADD26R,0.062X0.062*%
%ADD27R,0.068X0.068*%
D13*
X6774Y8802D02*
X6841D01*
X6774D02*
X6841Y8869D01*
Y8885D01*
X6824Y8902D01*
X6791D01*
X6774Y8885D01*
X6874D02*
X6891Y8902D01*
X6924D01*
X6941Y8885D01*
Y8819D01*
X6924Y8802D01*
X6891D01*
X6874Y8819D01*
Y8885D01*
X6974D02*
X6991Y8902D01*
X7024D01*
X7041Y8885D01*
Y8819D01*
X7024Y8802D01*
X6991D01*
X6974Y8819D01*
Y8885D01*
X7074Y8852D02*
X7141D01*
X7174Y8802D02*
X7207D01*
X7191D01*
Y8902D01*
X7192D01*
X7191D02*
X7174Y8885D01*
X7257D02*
X7274Y8902D01*
X7307D01*
X7324Y8885D01*
Y8819D01*
X7307Y8802D01*
X7274D01*
X7257Y8819D01*
Y8885D01*
X7357D02*
X7374Y8902D01*
X7407D01*
X7424Y8885D01*
Y8869D01*
X7425D01*
X7424D02*
X7425D01*
X7424D02*
X7425D01*
X7424D02*
X7407Y8852D01*
X7390D01*
X7407D01*
X7424Y8835D01*
Y8819D01*
X7407Y8802D01*
X7374D01*
X7357Y8819D01*
X7457D02*
X7474Y8802D01*
X7507D01*
X7524Y8819D01*
Y8885D01*
X7507Y8902D01*
X7474D01*
X7457Y8885D01*
Y8869D01*
X7474Y8852D01*
X7524D01*
X7557D02*
X7624D01*
X7657Y8885D02*
X7674Y8902D01*
X7707D01*
X7724Y8885D01*
Y8819D01*
X7707Y8802D01*
X7674D01*
X7657Y8819D01*
Y8885D01*
X7757D02*
X7774Y8902D01*
X7807D01*
X7824Y8885D01*
Y8869D01*
X7825D01*
X7824D02*
X7825D01*
X7824D02*
X7825D01*
X7824D02*
X7807Y8852D01*
X7790D01*
X7807D01*
X7824Y8835D01*
Y8819D01*
X7807Y8802D01*
X7774D01*
X7757Y8819D01*
X7857Y8802D02*
X7924Y8869D01*
X7957Y8885D02*
X7974Y8902D01*
X8007D01*
X8024Y8885D01*
Y8819D01*
X8007Y8802D01*
X7974D01*
X7957Y8819D01*
Y8885D01*
X8107Y8902D02*
Y8802D01*
X8057Y8852D02*
X8107Y8902D01*
X8124Y8852D02*
X8057D01*
X8257Y8802D02*
Y8902D01*
X8307D01*
X8323Y8885D01*
Y8852D01*
X8307Y8835D01*
X8257D01*
X8290D02*
X8323Y8802D01*
X8357Y8902D02*
X8423D01*
X8357D02*
Y8802D01*
X8423D01*
X8390Y8852D02*
X8357D01*
X8457Y8835D02*
Y8902D01*
Y8835D02*
X8490Y8802D01*
X8523Y8835D01*
Y8902D01*
X8657D02*
Y8802D01*
X8723D02*
X8657Y8902D01*
X8723D02*
Y8802D01*
X8823Y8885D02*
X8807Y8902D01*
X8773D01*
X8757Y8885D01*
Y8819D01*
X8773Y8802D01*
X8807D01*
X8823Y8819D01*
X9007Y8902D02*
X9023Y8885D01*
X9007Y8902D02*
X8973D01*
X8957Y8885D01*
Y8819D01*
X8973Y8802D01*
X9007D01*
X9023Y8819D01*
X9057Y8902D02*
X9090D01*
X9073D01*
Y8802D01*
X9057D01*
X9090D01*
X9140D02*
Y8902D01*
X9190D01*
X9207Y8885D01*
Y8852D01*
X9190Y8835D01*
X9140D01*
X9173D02*
X9207Y8802D01*
X9307Y8885D02*
X9290Y8902D01*
X9257D01*
X9240Y8885D01*
Y8819D01*
X9257Y8802D01*
X9290D01*
X9307Y8819D01*
X9340D02*
Y8902D01*
Y8819D02*
X9356Y8802D01*
X9390D01*
X9406Y8819D01*
Y8902D01*
X9440D02*
X9473D01*
X9456D01*
Y8802D01*
X9440D01*
X9473D01*
X9523Y8902D02*
X9590D01*
X9556D01*
Y8802D01*
X9623D02*
X9690Y8869D01*
X9773Y8902D02*
X9790Y8885D01*
X9773Y8902D02*
X9740D01*
X9723Y8885D01*
Y8819D01*
X9740Y8802D01*
X9773D01*
X9790Y8819D01*
X9840Y8902D02*
X9873D01*
X9840D02*
X9823Y8885D01*
Y8819D01*
X9840Y8802D01*
X9873D01*
X9890Y8819D01*
Y8885D01*
X9873Y8902D01*
X9923D02*
Y8802D01*
X9956Y8869D02*
X9923Y8902D01*
X9956Y8869D02*
X9990Y8902D01*
Y8802D01*
X10023D02*
Y8902D01*
X10073D01*
X10090Y8885D01*
Y8852D01*
X10073Y8835D01*
X10023D01*
X10140Y8902D02*
X10173D01*
X10140D02*
X10123Y8885D01*
Y8819D01*
X10140Y8802D01*
X10173D01*
X10190Y8819D01*
Y8885D01*
X10173Y8902D01*
X10223D02*
Y8802D01*
X10290D02*
X10223Y8902D01*
X10290D02*
Y8802D01*
X10323Y8902D02*
X10389D01*
X10323D02*
Y8802D01*
X10389D01*
X10356Y8852D02*
X10323D01*
X10423Y8802D02*
Y8902D01*
X10489Y8802D01*
Y8902D01*
X10523D02*
X10589D01*
X10556D01*
Y8802D01*
X10773Y8902D02*
X10789Y8885D01*
X10773Y8902D02*
X10739D01*
X10723Y8885D01*
Y8869D01*
X10739Y8852D01*
X10773D01*
X10789Y8835D01*
Y8819D01*
X10773Y8802D01*
X10739D01*
X10723Y8819D01*
X10823Y8902D02*
X10856D01*
X10839D01*
Y8802D01*
X10823D01*
X10856D01*
X10906D02*
Y8902D01*
Y8802D02*
X10956D01*
X10973Y8819D01*
Y8885D01*
X10956Y8902D01*
X10906D01*
X11006D02*
X11073D01*
X11006D02*
Y8802D01*
X11073D01*
X11039Y8852D02*
X11006D01*
X11256Y8902D02*
X11273Y8885D01*
X11256Y8902D02*
X11223D01*
X11206Y8885D01*
Y8869D01*
X11223Y8852D01*
X11256D01*
X11273Y8835D01*
Y8819D01*
X11256Y8802D01*
X11223D01*
X11206Y8819D01*
X11323Y8902D02*
X11356D01*
X11323D02*
X11306Y8885D01*
Y8819D01*
X11323Y8802D01*
X11356D01*
X11373Y8819D01*
Y8885D01*
X11356Y8902D01*
X11406D02*
Y8802D01*
X11472D01*
X11506D02*
Y8902D01*
Y8802D02*
X11556D01*
X11572Y8819D01*
Y8885D01*
X11556Y8902D01*
X11506D01*
X11606D02*
X11672D01*
X11606D02*
Y8802D01*
X11672D01*
X11639Y8852D02*
X11606D01*
X11706Y8802D02*
Y8902D01*
X11756D01*
X11772Y8885D01*
Y8852D01*
X11756Y8835D01*
X11706D01*
X11739D02*
X11772Y8802D01*
X11906D02*
Y8902D01*
X11939Y8869D01*
X11972Y8902D01*
Y8802D01*
X12006D02*
Y8869D01*
X12039Y8902D01*
X12072Y8869D01*
Y8802D01*
Y8852D01*
X12006D01*
X12156Y8902D02*
X12172Y8885D01*
X12156Y8902D02*
X12122D01*
X12106Y8885D01*
Y8869D01*
X12122Y8852D01*
X12156D01*
X12172Y8835D01*
Y8819D01*
X12156Y8802D01*
X12122D01*
X12106Y8819D01*
X12206Y8802D02*
Y8902D01*
Y8835D02*
Y8802D01*
Y8835D02*
X12272Y8902D01*
X12222Y8852D01*
X12272Y8802D01*
X14074Y7052D02*
X5574D01*
Y8452D02*
X14074D01*
Y7052D01*
X5574D02*
Y8452D01*
D18*
X6074Y7452D02*
D03*
D19*
X13174Y7552D02*
D03*
X13074D02*
D03*
X13174Y7652D02*
D03*
X13074D02*
D03*
X13174Y7752D02*
D03*
X13074D02*
D03*
X13174Y7852D02*
D03*
X13074D02*
D03*
X13174Y7952D02*
D03*
X12174Y7552D02*
D03*
X12074D02*
D03*
X12174Y7652D02*
D03*
X12074D02*
D03*
X12174Y7752D02*
D03*
X12074D02*
D03*
X12174Y7852D02*
D03*
X12074D02*
D03*
X12174Y7952D02*
D03*
X11174Y7552D02*
D03*
X11074D02*
D03*
X11174Y7652D02*
D03*
X11074D02*
D03*
X11174Y7752D02*
D03*
X11074D02*
D03*
X11174Y7852D02*
D03*
X11074D02*
D03*
X11174Y7952D02*
D03*
X10174Y7552D02*
D03*
X10074D02*
D03*
X10174Y7652D02*
D03*
X10074D02*
D03*
X10174Y7752D02*
D03*
X10074D02*
D03*
X10174Y7852D02*
D03*
X10074D02*
D03*
X10174Y7952D02*
D03*
X9174Y7552D02*
D03*
X9074D02*
D03*
X9174Y7652D02*
D03*
X9074D02*
D03*
X9174Y7752D02*
D03*
X9074D02*
D03*
X9174Y7852D02*
D03*
X9074D02*
D03*
X9174Y7952D02*
D03*
X8174Y7552D02*
D03*
X8074D02*
D03*
X8174Y7652D02*
D03*
X8074D02*
D03*
X8174Y7752D02*
D03*
X8074D02*
D03*
X8174Y7852D02*
D03*
X8074D02*
D03*
X8174Y7952D02*
D03*
X7174Y7552D02*
D03*
X7074D02*
D03*
X7174Y7652D02*
D03*
X7074D02*
D03*
X7174Y7752D02*
D03*
X7074D02*
D03*
X7174Y7852D02*
D03*
X7074D02*
D03*
X7174Y7952D02*
D03*
X6174Y7552D02*
D03*
X6074D02*
D03*
X6174Y7652D02*
D03*
X6074D02*
D03*
X6174Y7752D02*
D03*
X6074D02*
D03*
X6174Y7852D02*
D03*
X6074D02*
D03*
X6174Y7952D02*
D03*
D24*
X13474Y7674D02*
D03*
Y7986D02*
D03*
Y7518D02*
D03*
Y7830D02*
D03*
D27*
X13074Y7952D02*
D03*
X12074D02*
D03*
X11074D02*
D03*
X10074D02*
D03*
X9074D02*
D03*
X8074D02*
D03*
X7074D02*
D03*
X6074D02*
D03*
M02*
