*%FSLAX23Y23*%
*%MOIN*%
G01*
%ADD11C,0.007*%
%ADD12C,0.008*%
%ADD13C,0.010*%
%ADD14C,0.012*%
%ADD15C,0.036*%
%ADD16C,0.056*%
%ADD17C,0.062*%
%ADD18C,0.066*%
%ADD19C,0.068*%
%ADD20C,0.070*%
%ADD21C,0.090*%
%ADD22C,0.100*%
%ADD23C,0.125*%
%ADD24C,0.131*%
%ADD25C,0.250*%
%ADD26R,0.062X0.062*%
%ADD27R,0.068X0.068*%
D13*
X7374Y8652D02*
X7441D01*
X7374D02*
X7441Y8719D01*
Y8735D01*
X7424Y8752D01*
X7391D01*
X7374Y8735D01*
X7474D02*
X7491Y8752D01*
X7524D01*
X7541Y8735D01*
Y8669D01*
X7524Y8652D01*
X7491D01*
X7474Y8669D01*
Y8735D01*
X7574D02*
X7591Y8752D01*
X7624D01*
X7641Y8735D01*
Y8669D01*
X7624Y8652D01*
X7591D01*
X7574Y8669D01*
Y8735D01*
X7674Y8702D02*
X7741D01*
X7774Y8652D02*
X7807D01*
X7791D01*
Y8752D01*
X7792D01*
X7791D02*
X7774Y8735D01*
X7857D02*
X7874Y8752D01*
X7907D01*
X7924Y8735D01*
Y8669D01*
X7907Y8652D01*
X7874D01*
X7857Y8669D01*
Y8735D01*
X7957D02*
X7974Y8752D01*
X8007D01*
X8024Y8735D01*
Y8719D01*
X8025D01*
X8024D02*
X8025D01*
X8024D02*
X8025D01*
X8024D02*
X8007Y8702D01*
X7990D01*
X8007D01*
X8024Y8685D01*
Y8669D01*
X8007Y8652D01*
X7974D01*
X7957Y8669D01*
X8057D02*
X8074Y8652D01*
X8107D01*
X8124Y8669D01*
Y8735D01*
X8107Y8752D01*
X8074D01*
X8057Y8735D01*
Y8719D01*
X8074Y8702D01*
X8124D01*
X8157D02*
X8224D01*
X8257Y8735D02*
X8274Y8752D01*
X8307D01*
X8324Y8735D01*
Y8669D01*
X8307Y8652D01*
X8274D01*
X8257Y8669D01*
Y8735D01*
X8357Y8652D02*
X8424D01*
X8357D02*
X8424Y8719D01*
Y8735D01*
X8407Y8752D01*
X8374D01*
X8357Y8735D01*
X8557Y8752D02*
Y8652D01*
Y8752D02*
X8607D01*
X8624Y8735D01*
Y8702D01*
X8607Y8685D01*
X8557D01*
X8590D02*
X8624Y8652D01*
X8657Y8752D02*
X8724D01*
X8657D02*
Y8652D01*
X8724D01*
X8690Y8702D02*
X8657D01*
X8757Y8685D02*
Y8752D01*
Y8685D02*
X8790Y8652D01*
X8824Y8685D01*
Y8752D01*
X8957D02*
Y8652D01*
X9023D02*
X8957Y8752D01*
X9023D02*
Y8652D01*
X9123Y8735D02*
X9107Y8752D01*
X9073D01*
X9057Y8735D01*
Y8669D01*
X9073Y8652D01*
X9107D01*
X9123Y8669D01*
X9307Y8752D02*
X9323Y8735D01*
X9307Y8752D02*
X9273D01*
X9257Y8735D01*
Y8669D01*
X9273Y8652D01*
X9307D01*
X9323Y8669D01*
X9373Y8752D02*
X9407D01*
X9373D02*
X9357Y8735D01*
Y8669D01*
X9373Y8652D01*
X9407D01*
X9423Y8669D01*
Y8735D01*
X9407Y8752D01*
X9457D02*
Y8652D01*
X9490Y8719D02*
X9457Y8752D01*
X9490Y8719D02*
X9523Y8752D01*
Y8652D01*
X9557D02*
Y8752D01*
X9607D01*
X9623Y8735D01*
Y8702D01*
X9607Y8685D01*
X9557D01*
X9673Y8752D02*
X9707D01*
X9673D02*
X9657Y8735D01*
Y8669D01*
X9673Y8652D01*
X9707D01*
X9723Y8669D01*
Y8735D01*
X9707Y8752D01*
X9757D02*
Y8652D01*
X9823D02*
X9757Y8752D01*
X9823D02*
Y8652D01*
X9857Y8752D02*
X9923D01*
X9857D02*
Y8652D01*
X9923D01*
X9890Y8702D02*
X9857D01*
X9956Y8652D02*
Y8752D01*
X10023Y8652D01*
Y8752D01*
X10056D02*
X10123D01*
X10090D01*
Y8652D01*
X10306Y8752D02*
X10323Y8735D01*
X10306Y8752D02*
X10273D01*
X10256Y8735D01*
Y8719D01*
X10273Y8702D01*
X10306D01*
X10323Y8685D01*
Y8669D01*
X10306Y8652D01*
X10273D01*
X10256Y8669D01*
X10356Y8752D02*
X10390D01*
X10373D01*
Y8652D01*
X10356D01*
X10390D01*
X10440D02*
Y8752D01*
Y8652D02*
X10490D01*
X10506Y8669D01*
Y8735D01*
X10490Y8752D01*
X10440D01*
X10540D02*
X10606D01*
X10540D02*
Y8652D01*
X10606D01*
X10573Y8702D02*
X10540D01*
X14074Y7052D02*
X5574D01*
Y8452D02*
X14074D01*
Y7052D01*
X5574D02*
Y8452D01*
D14*
X6074Y7596D02*
X13124D01*
X13127Y7596D01*
X13130Y7596D01*
X13133Y7596D01*
X13136Y7596D01*
X13139Y7595D01*
X13142Y7595D01*
X13145Y7595D01*
X13148Y7594D01*
X13150Y7594D01*
X13153Y7593D01*
X13156Y7592D01*
X13159Y7592D01*
X13162Y7591D01*
X13165Y7590D01*
X13168Y7589D01*
X13170Y7588D01*
X13173Y7587D01*
X13176Y7586D01*
X13179Y7585D01*
X13181Y7584D01*
X13184Y7583D01*
X13187Y7582D01*
X13190Y7580D01*
X13192Y7579D01*
X13195Y7577D01*
X13197Y7576D01*
X13200Y7574D01*
X13202Y7573D01*
X13205Y7571D01*
X13207Y7570D01*
X13210Y7568D01*
X13212Y7566D01*
X13214Y7564D01*
X13217Y7562D01*
X13219Y7560D01*
X13221Y7558D01*
X13223Y7556D01*
X13225Y7554D01*
X13227Y7552D01*
X13229Y7550D01*
X13231Y7548D01*
X13233Y7546D01*
X13235Y7543D01*
X13237Y7541D01*
X13239Y7539D01*
X13241Y7536D01*
X13242Y7534D01*
X13244Y7532D01*
X13246Y7529D01*
X13247Y7527D01*
X13249Y7524D01*
X13250Y7521D01*
X13252Y7519D01*
X13253Y7516D01*
X13254Y7514D01*
X13255Y7511D01*
X13257Y7508D01*
X13258Y7505D01*
X13259Y7503D01*
X13260Y7500D01*
X13261Y7497D01*
X13262Y7494D01*
X13263Y7491D01*
X13263Y7489D01*
X13264Y7486D01*
X13265Y7483D01*
X13265Y7480D01*
X13266Y7477D01*
X13266Y7474D01*
X13267Y7471D01*
X13267Y7468D01*
X13267Y7465D01*
X13268Y7462D01*
X13268Y7459D01*
X13268Y7456D01*
X13268Y7453D01*
Y7451D01*
X13268Y7448D01*
X13268Y7445D01*
X13268Y7442D01*
X13267Y7439D01*
X13267Y7436D01*
X13267Y7433D01*
X13266Y7430D01*
X13266Y7427D01*
X13265Y7424D01*
X13265Y7421D01*
X13264Y7418D01*
X13263Y7415D01*
X13263Y7413D01*
X13262Y7410D01*
X13261Y7407D01*
X13260Y7404D01*
X13259Y7401D01*
X13258Y7399D01*
X13257Y7396D01*
X13255Y7393D01*
X13254Y7390D01*
X13253Y7388D01*
X13252Y7385D01*
X13250Y7383D01*
X13249Y7380D01*
X13247Y7377D01*
X13246Y7375D01*
X13244Y7372D01*
X13242Y7370D01*
X13241Y7368D01*
X13239Y7365D01*
X13237Y7363D01*
X13235Y7361D01*
X13233Y7358D01*
X13231Y7356D01*
X13229Y7354D01*
X13227Y7352D01*
X13225Y7350D01*
X13223Y7348D01*
X13221Y7346D01*
X13219Y7344D01*
X13217Y7342D01*
X13214Y7340D01*
X13212Y7338D01*
X13210Y7336D01*
X13207Y7334D01*
X13205Y7333D01*
X13202Y7331D01*
X13200Y7330D01*
X13197Y7328D01*
X13195Y7327D01*
X13192Y7325D01*
X13190Y7324D01*
X13187Y7322D01*
X13184Y7321D01*
X13181Y7320D01*
X13179Y7319D01*
X13176Y7318D01*
X13173Y7317D01*
X13170Y7316D01*
X13168Y7315D01*
X13165Y7314D01*
X13162Y7313D01*
X13159Y7312D01*
X13156Y7312D01*
X13153Y7311D01*
X13150Y7310D01*
X13148Y7310D01*
X13145Y7309D01*
X13142Y7309D01*
X13139Y7309D01*
X13136Y7308D01*
X13133Y7308D01*
X13130Y7308D01*
X13127Y7308D01*
X13124Y7308D01*
X6074D01*
X6071Y7308D01*
X6068Y7308D01*
X6065Y7308D01*
X6062Y7308D01*
X6059Y7309D01*
X6056Y7309D01*
X6053Y7309D01*
X6050Y7310D01*
X6048Y7310D01*
X6045Y7311D01*
X6042Y7312D01*
X6039Y7312D01*
X6036Y7313D01*
X6033Y7314D01*
X6030Y7315D01*
X6028Y7316D01*
X6025Y7317D01*
X6022Y7318D01*
X6019Y7319D01*
X6017Y7320D01*
X6014Y7321D01*
X6011Y7322D01*
X6008Y7324D01*
X6006Y7325D01*
X6003Y7327D01*
X6001Y7328D01*
X5998Y7330D01*
X5996Y7331D01*
X5993Y7333D01*
X5991Y7334D01*
X5988Y7336D01*
X5986Y7338D01*
X5984Y7340D01*
X5981Y7342D01*
X5979Y7344D01*
X5977Y7346D01*
X5975Y7348D01*
X5973Y7350D01*
X5971Y7352D01*
X5969Y7354D01*
X5967Y7356D01*
X5965Y7358D01*
X5963Y7361D01*
X5961Y7363D01*
X5959Y7365D01*
X5957Y7368D01*
X5956Y7370D01*
X5954Y7372D01*
X5952Y7375D01*
X5951Y7377D01*
X5949Y7380D01*
X5948Y7383D01*
X5946Y7385D01*
X5945Y7388D01*
X5944Y7390D01*
X5943Y7393D01*
X5941Y7396D01*
X5940Y7399D01*
X5939Y7401D01*
X5938Y7404D01*
X5937Y7407D01*
X5936Y7410D01*
X5935Y7413D01*
X5935Y7415D01*
X5934Y7418D01*
X5933Y7421D01*
X5933Y7424D01*
X5932Y7427D01*
X5932Y7430D01*
X5931Y7433D01*
X5931Y7436D01*
X5931Y7439D01*
X5930Y7442D01*
X5930Y7445D01*
X5930Y7448D01*
X5930Y7451D01*
Y7453D01*
X5930Y7456D01*
X5930Y7459D01*
X5930Y7462D01*
X5931Y7465D01*
X5931Y7468D01*
X5931Y7471D01*
X5932Y7474D01*
X5932Y7477D01*
X5933Y7480D01*
X5933Y7483D01*
X5934Y7486D01*
X5935Y7489D01*
X5935Y7491D01*
X5936Y7494D01*
X5937Y7497D01*
X5938Y7500D01*
X5939Y7503D01*
X5940Y7505D01*
X5941Y7508D01*
X5943Y7511D01*
X5944Y7514D01*
X5945Y7516D01*
X5946Y7519D01*
X5948Y7521D01*
X5949Y7524D01*
X5951Y7527D01*
X5952Y7529D01*
X5954Y7532D01*
X5956Y7534D01*
X5957Y7536D01*
X5959Y7539D01*
X5961Y7541D01*
X5963Y7543D01*
X5965Y7546D01*
X5967Y7548D01*
X5969Y7550D01*
X5971Y7552D01*
X5973Y7554D01*
X5975Y7556D01*
X5977Y7558D01*
X5979Y7560D01*
X5981Y7562D01*
X5984Y7564D01*
X5986Y7566D01*
X5988Y7568D01*
X5991Y7570D01*
X5993Y7571D01*
X5996Y7573D01*
X5998Y7574D01*
X6001Y7576D01*
X6003Y7577D01*
X6006Y7579D01*
X6008Y7580D01*
X6011Y7582D01*
X6014Y7583D01*
X6017Y7584D01*
X6019Y7585D01*
X6022Y7586D01*
X6025Y7587D01*
X6028Y7588D01*
X6030Y7589D01*
X6033Y7590D01*
X6036Y7591D01*
X6039Y7592D01*
X6042Y7592D01*
X6045Y7593D01*
X6048Y7594D01*
X6050Y7594D01*
X6053Y7595D01*
X6056Y7595D01*
X6059Y7595D01*
X6062Y7596D01*
X6065Y7596D01*
X6068Y7596D01*
X6071Y7596D01*
X6074Y7596D01*
Y7586D02*
X13124D01*
X13127Y7586D01*
X13130Y7586D01*
X13133Y7586D01*
X13136Y7585D01*
X13139Y7585D01*
X13142Y7585D01*
X13145Y7584D01*
X13148Y7584D01*
X13151Y7583D01*
X13154Y7583D01*
X13157Y7582D01*
X13159Y7581D01*
X13162Y7580D01*
X13165Y7580D01*
X13168Y7579D01*
X13171Y7578D01*
X13174Y7577D01*
X13176Y7575D01*
X13179Y7574D01*
X13182Y7573D01*
X13184Y7572D01*
X13187Y7570D01*
X13190Y7569D01*
X13192Y7567D01*
X13195Y7566D01*
X13197Y7564D01*
X13200Y7562D01*
X13202Y7561D01*
X13205Y7559D01*
X13207Y7557D01*
X13209Y7555D01*
X13212Y7553D01*
X13214Y7551D01*
X13216Y7549D01*
X13218Y7547D01*
X13220Y7545D01*
X13222Y7543D01*
X13224Y7541D01*
X13226Y7539D01*
X13228Y7536D01*
X13230Y7534D01*
X13232Y7531D01*
X13234Y7529D01*
X13235Y7527D01*
X13237Y7524D01*
X13239Y7522D01*
X13240Y7519D01*
X13242Y7516D01*
X13243Y7514D01*
X13244Y7511D01*
X13246Y7508D01*
X13247Y7506D01*
X13248Y7503D01*
X13249Y7500D01*
X13250Y7497D01*
X13251Y7495D01*
X13252Y7492D01*
X13253Y7489D01*
X13254Y7486D01*
X13254Y7483D01*
X13255Y7480D01*
X13256Y7477D01*
X13256Y7474D01*
X13257Y7471D01*
X13257Y7468D01*
X13257Y7465D01*
X13258Y7462D01*
X13258Y7459D01*
X13258Y7456D01*
X13258Y7453D01*
Y7451D01*
X13258Y7448D01*
X13258Y7445D01*
X13258Y7442D01*
X13257Y7439D01*
X13257Y7436D01*
X13257Y7433D01*
X13256Y7430D01*
X13256Y7427D01*
X13255Y7424D01*
X13254Y7421D01*
X13254Y7418D01*
X13253Y7415D01*
X13252Y7412D01*
X13251Y7409D01*
X13250Y7407D01*
X13249Y7404D01*
X13248Y7401D01*
X13247Y7398D01*
X13246Y7396D01*
X13244Y7393D01*
X13243Y7390D01*
X13242Y7388D01*
X13240Y7385D01*
X13239Y7382D01*
X13237Y7380D01*
X13235Y7377D01*
X13234Y7375D01*
X13232Y7373D01*
X13230Y7370D01*
X13228Y7368D01*
X13226Y7365D01*
X13224Y7363D01*
X13222Y7361D01*
X13220Y7359D01*
X13218Y7357D01*
X13216Y7355D01*
X13214Y7353D01*
X13212Y7351D01*
X13209Y7349D01*
X13207Y7347D01*
X13205Y7345D01*
X13202Y7343D01*
X13200Y7342D01*
X13197Y7340D01*
X13195Y7338D01*
X13192Y7337D01*
X13190Y7335D01*
X13187Y7334D01*
X13184Y7332D01*
X13182Y7331D01*
X13179Y7330D01*
X13176Y7329D01*
X13174Y7327D01*
X13171Y7326D01*
X13168Y7325D01*
X13165Y7324D01*
X13162Y7324D01*
X13159Y7323D01*
X13157Y7322D01*
X13154Y7321D01*
X13151Y7321D01*
X13148Y7320D01*
X13145Y7320D01*
X13142Y7319D01*
X13139Y7319D01*
X13136Y7319D01*
X13133Y7318D01*
X13130Y7318D01*
X13127Y7318D01*
X13124Y7318D01*
X6074D01*
X6071Y7318D01*
X6068Y7318D01*
X6065Y7318D01*
X6062Y7319D01*
X6059Y7319D01*
X6056Y7319D01*
X6053Y7320D01*
X6050Y7320D01*
X6047Y7321D01*
X6044Y7321D01*
X6041Y7322D01*
X6039Y7323D01*
X6036Y7324D01*
X6033Y7324D01*
X6030Y7325D01*
X6027Y7326D01*
X6024Y7327D01*
X6022Y7329D01*
X6019Y7330D01*
X6016Y7331D01*
X6014Y7332D01*
X6011Y7334D01*
X6008Y7335D01*
X6006Y7337D01*
X6003Y7338D01*
X6001Y7340D01*
X5998Y7342D01*
X5996Y7343D01*
X5993Y7345D01*
X5991Y7347D01*
X5989Y7349D01*
X5986Y7351D01*
X5984Y7353D01*
X5982Y7355D01*
X5980Y7357D01*
X5978Y7359D01*
X5976Y7361D01*
X5974Y7363D01*
X5972Y7365D01*
X5970Y7368D01*
X5968Y7370D01*
X5966Y7373D01*
X5964Y7375D01*
X5963Y7377D01*
X5961Y7380D01*
X5959Y7382D01*
X5958Y7385D01*
X5956Y7388D01*
X5955Y7390D01*
X5954Y7393D01*
X5952Y7396D01*
X5951Y7398D01*
X5950Y7401D01*
X5949Y7404D01*
X5948Y7407D01*
X5947Y7409D01*
X5946Y7412D01*
X5945Y7415D01*
X5944Y7418D01*
X5944Y7421D01*
X5943Y7424D01*
X5942Y7427D01*
X5942Y7430D01*
X5941Y7433D01*
X5941Y7436D01*
X5941Y7439D01*
X5940Y7442D01*
X5940Y7445D01*
X5940Y7448D01*
X5940Y7451D01*
Y7453D01*
X5940Y7456D01*
X5940Y7459D01*
X5940Y7462D01*
X5941Y7465D01*
X5941Y7468D01*
X5941Y7471D01*
X5942Y7474D01*
X5942Y7477D01*
X5943Y7480D01*
X5944Y7483D01*
X5944Y7486D01*
X5945Y7489D01*
X5946Y7492D01*
X5947Y7495D01*
X5948Y7497D01*
X5949Y7500D01*
X5950Y7503D01*
X5951Y7506D01*
X5952Y7508D01*
X5954Y7511D01*
X5955Y7514D01*
X5956Y7516D01*
X5958Y7519D01*
X5959Y7522D01*
X5961Y7524D01*
X5963Y7527D01*
X5964Y7529D01*
X5966Y7531D01*
X5968Y7534D01*
X5970Y7536D01*
X5972Y7539D01*
X5974Y7541D01*
X5976Y7543D01*
X5978Y7545D01*
X5980Y7547D01*
X5982Y7549D01*
X5984Y7551D01*
X5986Y7553D01*
X5989Y7555D01*
X5991Y7557D01*
X5993Y7559D01*
X5996Y7561D01*
X5998Y7562D01*
X6001Y7564D01*
X6003Y7566D01*
X6006Y7567D01*
X6008Y7569D01*
X6011Y7570D01*
X6014Y7572D01*
X6016Y7573D01*
X6019Y7574D01*
X6022Y7575D01*
X6024Y7577D01*
X6027Y7578D01*
X6030Y7579D01*
X6033Y7580D01*
X6036Y7580D01*
X6039Y7581D01*
X6041Y7582D01*
X6044Y7583D01*
X6047Y7583D01*
X6050Y7584D01*
X6053Y7584D01*
X6056Y7585D01*
X6059Y7585D01*
X6062Y7585D01*
X6065Y7586D01*
X6068Y7586D01*
X6071Y7586D01*
X6074Y7586D01*
Y7576D02*
X13124D01*
X13127Y7576D01*
X13130Y7576D01*
X13133Y7576D01*
X13136Y7575D01*
X13139Y7575D01*
X13142Y7575D01*
X13145Y7574D01*
X13148Y7574D01*
X13151Y7573D01*
X13154Y7572D01*
X13157Y7572D01*
X13160Y7571D01*
X13163Y7570D01*
X13165Y7569D01*
X13168Y7568D01*
X13171Y7567D01*
X13174Y7566D01*
X13177Y7564D01*
X13179Y7563D01*
X13182Y7562D01*
X13185Y7560D01*
X13187Y7559D01*
X13190Y7557D01*
X13192Y7555D01*
X13195Y7554D01*
X13197Y7552D01*
X13200Y7550D01*
X13202Y7548D01*
X13204Y7546D01*
X13207Y7544D01*
X13209Y7542D01*
X13211Y7540D01*
X13213Y7538D01*
X13215Y7536D01*
X13217Y7534D01*
X13219Y7531D01*
X13221Y7529D01*
X13223Y7527D01*
X13225Y7524D01*
X13227Y7522D01*
X13228Y7519D01*
X13230Y7517D01*
X13231Y7514D01*
X13233Y7511D01*
X13234Y7509D01*
X13236Y7506D01*
X13237Y7503D01*
X13238Y7500D01*
X13239Y7498D01*
X13240Y7495D01*
X13241Y7492D01*
X13242Y7489D01*
X13243Y7486D01*
X13244Y7483D01*
X13245Y7480D01*
X13245Y7477D01*
X13246Y7475D01*
X13246Y7472D01*
X13247Y7469D01*
X13247Y7466D01*
X13248Y7463D01*
X13248Y7460D01*
X13248Y7457D01*
X13248Y7454D01*
Y7450D01*
X13248Y7447D01*
X13248Y7444D01*
X13248Y7441D01*
X13247Y7438D01*
X13247Y7435D01*
X13246Y7432D01*
X13246Y7429D01*
X13245Y7427D01*
X13245Y7424D01*
X13244Y7421D01*
X13243Y7418D01*
X13242Y7415D01*
X13241Y7412D01*
X13240Y7409D01*
X13239Y7406D01*
X13238Y7404D01*
X13237Y7401D01*
X13236Y7398D01*
X13234Y7395D01*
X13233Y7393D01*
X13231Y7390D01*
X13230Y7387D01*
X13228Y7385D01*
X13227Y7382D01*
X13225Y7380D01*
X13223Y7377D01*
X13221Y7375D01*
X13219Y7373D01*
X13217Y7370D01*
X13215Y7368D01*
X13213Y7366D01*
X13211Y7364D01*
X13209Y7362D01*
X13207Y7360D01*
X13204Y7358D01*
X13202Y7356D01*
X13200Y7354D01*
X13197Y7352D01*
X13195Y7350D01*
X13192Y7349D01*
X13190Y7347D01*
X13187Y7345D01*
X13185Y7344D01*
X13182Y7342D01*
X13179Y7341D01*
X13177Y7340D01*
X13174Y7338D01*
X13171Y7337D01*
X13168Y7336D01*
X13165Y7335D01*
X13163Y7334D01*
X13160Y7333D01*
X13157Y7332D01*
X13154Y7332D01*
X13151Y7331D01*
X13148Y7330D01*
X13145Y7330D01*
X13142Y7329D01*
X13139Y7329D01*
X13136Y7329D01*
X13133Y7328D01*
X13130Y7328D01*
X13127Y7328D01*
X13124Y7328D01*
X6074D01*
X6071Y7328D01*
X6068Y7328D01*
X6065Y7328D01*
X6062Y7329D01*
X6059Y7329D01*
X6056Y7329D01*
X6053Y7330D01*
X6050Y7330D01*
X6047Y7331D01*
X6044Y7332D01*
X6041Y7332D01*
X6038Y7333D01*
X6035Y7334D01*
X6033Y7335D01*
X6030Y7336D01*
X6027Y7337D01*
X6024Y7338D01*
X6021Y7340D01*
X6019Y7341D01*
X6016Y7342D01*
X6013Y7344D01*
X6011Y7345D01*
X6008Y7347D01*
X6006Y7349D01*
X6003Y7350D01*
X6001Y7352D01*
X5998Y7354D01*
X5996Y7356D01*
X5994Y7358D01*
X5991Y7360D01*
X5989Y7362D01*
X5987Y7364D01*
X5985Y7366D01*
X5983Y7368D01*
X5981Y7370D01*
X5979Y7373D01*
X5977Y7375D01*
X5975Y7377D01*
X5973Y7380D01*
X5971Y7382D01*
X5970Y7385D01*
X5968Y7387D01*
X5967Y7390D01*
X5965Y7393D01*
X5964Y7395D01*
X5962Y7398D01*
X5961Y7401D01*
X5960Y7404D01*
X5959Y7406D01*
X5958Y7409D01*
X5957Y7412D01*
X5956Y7415D01*
X5955Y7418D01*
X5954Y7421D01*
X5953Y7424D01*
X5953Y7427D01*
X5952Y7429D01*
X5952Y7432D01*
X5951Y7435D01*
X5951Y7438D01*
X5950Y7441D01*
X5950Y7444D01*
X5950Y7447D01*
X5950Y7450D01*
Y7454D01*
X5950Y7457D01*
X5950Y7460D01*
X5950Y7463D01*
X5951Y7466D01*
X5951Y7469D01*
X5952Y7472D01*
X5952Y7475D01*
X5953Y7477D01*
X5953Y7480D01*
X5954Y7483D01*
X5955Y7486D01*
X5956Y7489D01*
X5957Y7492D01*
X5958Y7495D01*
X5959Y7498D01*
X5960Y7500D01*
X5961Y7503D01*
X5962Y7506D01*
X5964Y7509D01*
X5965Y7511D01*
X5967Y7514D01*
X5968Y7517D01*
X5970Y7519D01*
X5971Y7522D01*
X5973Y7524D01*
X5975Y7527D01*
X5977Y7529D01*
X5979Y7531D01*
X5981Y7534D01*
X5983Y7536D01*
X5985Y7538D01*
X5987Y7540D01*
X5989Y7542D01*
X5991Y7544D01*
X5994Y7546D01*
X5996Y7548D01*
X5998Y7550D01*
X6001Y7552D01*
X6003Y7554D01*
X6006Y7555D01*
X6008Y7557D01*
X6011Y7559D01*
X6013Y7560D01*
X6016Y7562D01*
X6019Y7563D01*
X6021Y7564D01*
X6024Y7566D01*
X6027Y7567D01*
X6030Y7568D01*
X6033Y7569D01*
X6035Y7570D01*
X6038Y7571D01*
X6041Y7572D01*
X6044Y7572D01*
X6047Y7573D01*
X6050Y7574D01*
X6053Y7574D01*
X6056Y7575D01*
X6059Y7575D01*
X6062Y7575D01*
X6065Y7576D01*
X6068Y7576D01*
X6071Y7576D01*
X6074Y7576D01*
Y7566D02*
X13124D01*
X13127Y7566D01*
X13130Y7566D01*
X13133Y7566D01*
X13136Y7565D01*
X13139Y7565D01*
X13141Y7565D01*
X13144Y7564D01*
X13147Y7564D01*
X13150Y7563D01*
X13153Y7562D01*
X13156Y7562D01*
X13158Y7561D01*
X13161Y7560D01*
X13164Y7559D01*
X13167Y7558D01*
X13169Y7557D01*
X13172Y7555D01*
X13175Y7554D01*
X13177Y7553D01*
X13180Y7551D01*
X13182Y7550D01*
X13185Y7548D01*
X13187Y7547D01*
X13190Y7545D01*
X13192Y7544D01*
X13194Y7542D01*
X13197Y7540D01*
X13199Y7538D01*
X13201Y7536D01*
X13203Y7534D01*
X13205Y7532D01*
X13207Y7530D01*
X13209Y7528D01*
X13211Y7526D01*
X13213Y7523D01*
X13215Y7521D01*
X13216Y7519D01*
X13218Y7516D01*
X13220Y7514D01*
X13221Y7512D01*
X13223Y7509D01*
X13224Y7506D01*
X13226Y7504D01*
X13227Y7501D01*
X13228Y7499D01*
X13229Y7496D01*
X13230Y7493D01*
X13231Y7491D01*
X13232Y7488D01*
X13233Y7485D01*
X13234Y7482D01*
X13235Y7479D01*
X13235Y7477D01*
X13236Y7474D01*
X13236Y7471D01*
X13237Y7468D01*
X13237Y7465D01*
X13238Y7462D01*
X13238Y7459D01*
X13238Y7456D01*
X13238Y7453D01*
Y7451D01*
X13238Y7448D01*
X13238Y7445D01*
X13238Y7442D01*
X13237Y7439D01*
X13237Y7436D01*
X13236Y7433D01*
X13236Y7430D01*
X13235Y7427D01*
X13235Y7425D01*
X13234Y7422D01*
X13233Y7419D01*
X13232Y7416D01*
X13231Y7413D01*
X13230Y7411D01*
X13229Y7408D01*
X13228Y7405D01*
X13227Y7403D01*
X13226Y7400D01*
X13224Y7398D01*
X13223Y7395D01*
X13221Y7392D01*
X13220Y7390D01*
X13218Y7388D01*
X13216Y7385D01*
X13215Y7383D01*
X13213Y7381D01*
X13211Y7378D01*
X13209Y7376D01*
X13207Y7374D01*
X13205Y7372D01*
X13203Y7370D01*
X13201Y7368D01*
X13199Y7366D01*
X13197Y7364D01*
X13194Y7362D01*
X13192Y7360D01*
X13190Y7359D01*
X13187Y7357D01*
X13185Y7356D01*
X13182Y7354D01*
X13180Y7353D01*
X13177Y7351D01*
X13175Y7350D01*
X13172Y7349D01*
X13169Y7347D01*
X13167Y7346D01*
X13164Y7345D01*
X13161Y7344D01*
X13158Y7343D01*
X13156Y7342D01*
X13153Y7342D01*
X13150Y7341D01*
X13147Y7340D01*
X13144Y7340D01*
X13141Y7339D01*
X13139Y7339D01*
X13136Y7339D01*
X13133Y7338D01*
X13130Y7338D01*
X13127Y7338D01*
X13124Y7338D01*
X6074D01*
X6071Y7338D01*
X6068Y7338D01*
X6065Y7338D01*
X6062Y7339D01*
X6059Y7339D01*
X6057Y7339D01*
X6054Y7340D01*
X6051Y7340D01*
X6048Y7341D01*
X6045Y7342D01*
X6042Y7342D01*
X6040Y7343D01*
X6037Y7344D01*
X6034Y7345D01*
X6031Y7346D01*
X6029Y7347D01*
X6026Y7349D01*
X6023Y7350D01*
X6021Y7351D01*
X6018Y7353D01*
X6016Y7354D01*
X6013Y7356D01*
X6011Y7357D01*
X6008Y7359D01*
X6006Y7360D01*
X6004Y7362D01*
X6001Y7364D01*
X5999Y7366D01*
X5997Y7368D01*
X5995Y7370D01*
X5993Y7372D01*
X5991Y7374D01*
X5989Y7376D01*
X5987Y7378D01*
X5985Y7381D01*
X5983Y7383D01*
X5982Y7385D01*
X5980Y7388D01*
X5978Y7390D01*
X5977Y7392D01*
X5975Y7395D01*
X5974Y7398D01*
X5972Y7400D01*
X5971Y7403D01*
X5970Y7405D01*
X5969Y7408D01*
X5968Y7411D01*
X5967Y7413D01*
X5966Y7416D01*
X5965Y7419D01*
X5964Y7422D01*
X5963Y7425D01*
X5963Y7427D01*
X5962Y7430D01*
X5962Y7433D01*
X5961Y7436D01*
X5961Y7439D01*
X5960Y7442D01*
X5960Y7445D01*
X5960Y7448D01*
X5960Y7451D01*
Y7453D01*
X5960Y7456D01*
X5960Y7459D01*
X5960Y7462D01*
X5961Y7465D01*
X5961Y7468D01*
X5962Y7471D01*
X5962Y7474D01*
X5963Y7477D01*
X5963Y7479D01*
X5964Y7482D01*
X5965Y7485D01*
X5966Y7488D01*
X5967Y7491D01*
X5968Y7493D01*
X5969Y7496D01*
X5970Y7499D01*
X5971Y7501D01*
X5972Y7504D01*
X5974Y7506D01*
X5975Y7509D01*
X5977Y7512D01*
X5978Y7514D01*
X5980Y7516D01*
X5982Y7519D01*
X5983Y7521D01*
X5985Y7523D01*
X5987Y7526D01*
X5989Y7528D01*
X5991Y7530D01*
X5993Y7532D01*
X5995Y7534D01*
X5997Y7536D01*
X5999Y7538D01*
X6001Y7540D01*
X6004Y7542D01*
X6006Y7544D01*
X6008Y7545D01*
X6011Y7547D01*
X6013Y7548D01*
X6016Y7550D01*
X6018Y7551D01*
X6021Y7553D01*
X6023Y7554D01*
X6026Y7555D01*
X6029Y7557D01*
X6031Y7558D01*
X6034Y7559D01*
X6037Y7560D01*
X6040Y7561D01*
X6042Y7562D01*
X6045Y7562D01*
X6048Y7563D01*
X6051Y7564D01*
X6054Y7564D01*
X6057Y7565D01*
X6059Y7565D01*
X6062Y7565D01*
X6065Y7566D01*
X6068Y7566D01*
X6071Y7566D01*
X6074Y7566D01*
Y7556D02*
X13124D01*
X13127Y7556D01*
X13130Y7556D01*
X13133Y7556D01*
X13136Y7555D01*
X13139Y7555D01*
X13142Y7555D01*
X13144Y7554D01*
X13147Y7553D01*
X13150Y7553D01*
X13153Y7552D01*
X13156Y7551D01*
X13159Y7550D01*
X13161Y7549D01*
X13164Y7548D01*
X13167Y7547D01*
X13170Y7546D01*
X13172Y7544D01*
X13175Y7543D01*
X13177Y7541D01*
X13180Y7540D01*
X13182Y7538D01*
X13185Y7536D01*
X13187Y7535D01*
X13189Y7533D01*
X13192Y7531D01*
X13194Y7529D01*
X13196Y7527D01*
X13198Y7525D01*
X13200Y7523D01*
X13202Y7521D01*
X13204Y7518D01*
X13206Y7516D01*
X13208Y7514D01*
X13209Y7511D01*
X13211Y7509D01*
X13213Y7507D01*
X13214Y7504D01*
X13216Y7501D01*
X13217Y7499D01*
X13218Y7496D01*
X13219Y7493D01*
X13221Y7491D01*
X13222Y7488D01*
X13223Y7485D01*
X13223Y7482D01*
X13224Y7480D01*
X13225Y7477D01*
X13226Y7474D01*
X13226Y7471D01*
X13227Y7468D01*
X13227Y7465D01*
X13227Y7462D01*
X13228Y7459D01*
X13228Y7456D01*
X13228Y7453D01*
Y7451D01*
X13228Y7448D01*
X13228Y7445D01*
X13227Y7442D01*
X13227Y7439D01*
X13227Y7436D01*
X13226Y7433D01*
X13226Y7430D01*
X13225Y7427D01*
X13224Y7424D01*
X13223Y7422D01*
X13223Y7419D01*
X13222Y7416D01*
X13221Y7413D01*
X13219Y7411D01*
X13218Y7408D01*
X13217Y7405D01*
X13216Y7403D01*
X13214Y7400D01*
X13213Y7397D01*
X13211Y7395D01*
X13209Y7393D01*
X13208Y7390D01*
X13206Y7388D01*
X13204Y7386D01*
X13202Y7383D01*
X13200Y7381D01*
X13198Y7379D01*
X13196Y7377D01*
X13194Y7375D01*
X13192Y7373D01*
X13189Y7371D01*
X13187Y7369D01*
X13185Y7368D01*
X13182Y7366D01*
X13180Y7364D01*
X13177Y7363D01*
X13175Y7361D01*
X13172Y7360D01*
X13170Y7358D01*
X13167Y7357D01*
X13164Y7356D01*
X13161Y7355D01*
X13159Y7354D01*
X13156Y7353D01*
X13153Y7352D01*
X13150Y7351D01*
X13147Y7351D01*
X13144Y7350D01*
X13142Y7349D01*
X13139Y7349D01*
X13136Y7349D01*
X13133Y7348D01*
X13130Y7348D01*
X13127Y7348D01*
X13124Y7348D01*
X6074D01*
X6071Y7348D01*
X6068Y7348D01*
X6065Y7348D01*
X6062Y7349D01*
X6059Y7349D01*
X6056Y7349D01*
X6054Y7350D01*
X6051Y7351D01*
X6048Y7351D01*
X6045Y7352D01*
X6042Y7353D01*
X6039Y7354D01*
X6037Y7355D01*
X6034Y7356D01*
X6031Y7357D01*
X6028Y7358D01*
X6026Y7360D01*
X6023Y7361D01*
X6021Y7363D01*
X6018Y7364D01*
X6016Y7366D01*
X6013Y7368D01*
X6011Y7369D01*
X6009Y7371D01*
X6006Y7373D01*
X6004Y7375D01*
X6002Y7377D01*
X6000Y7379D01*
X5998Y7381D01*
X5996Y7383D01*
X5994Y7386D01*
X5992Y7388D01*
X5990Y7390D01*
X5989Y7393D01*
X5987Y7395D01*
X5985Y7397D01*
X5984Y7400D01*
X5982Y7403D01*
X5981Y7405D01*
X5980Y7408D01*
X5979Y7411D01*
X5977Y7413D01*
X5976Y7416D01*
X5975Y7419D01*
X5975Y7422D01*
X5974Y7424D01*
X5973Y7427D01*
X5972Y7430D01*
X5972Y7433D01*
X5971Y7436D01*
X5971Y7439D01*
X5971Y7442D01*
X5970Y7445D01*
X5970Y7448D01*
X5970Y7451D01*
Y7453D01*
X5970Y7456D01*
X5970Y7459D01*
X5971Y7462D01*
X5971Y7465D01*
X5971Y7468D01*
X5972Y7471D01*
X5972Y7474D01*
X5973Y7477D01*
X5974Y7480D01*
X5975Y7482D01*
X5975Y7485D01*
X5976Y7488D01*
X5977Y7491D01*
X5979Y7493D01*
X5980Y7496D01*
X5981Y7499D01*
X5982Y7501D01*
X5984Y7504D01*
X5985Y7507D01*
X5987Y7509D01*
X5989Y7511D01*
X5990Y7514D01*
X5992Y7516D01*
X5994Y7518D01*
X5996Y7521D01*
X5998Y7523D01*
X6000Y7525D01*
X6002Y7527D01*
X6004Y7529D01*
X6006Y7531D01*
X6009Y7533D01*
X6011Y7535D01*
X6013Y7536D01*
X6016Y7538D01*
X6018Y7540D01*
X6021Y7541D01*
X6023Y7543D01*
X6026Y7544D01*
X6028Y7546D01*
X6031Y7547D01*
X6034Y7548D01*
X6037Y7549D01*
X6039Y7550D01*
X6042Y7551D01*
X6045Y7552D01*
X6048Y7553D01*
X6051Y7553D01*
X6054Y7554D01*
X6056Y7555D01*
X6059Y7555D01*
X6062Y7555D01*
X6065Y7556D01*
X6068Y7556D01*
X6071Y7556D01*
X6074Y7556D01*
Y7546D02*
X13124D01*
X13127Y7546D01*
X13130Y7546D01*
X13133Y7546D01*
X13136Y7545D01*
X13139Y7545D01*
X13142Y7544D01*
X13145Y7544D01*
X13148Y7543D01*
X13150Y7542D01*
X13153Y7541D01*
X13156Y7540D01*
X13159Y7539D01*
X13162Y7538D01*
X13164Y7537D01*
X13167Y7536D01*
X13170Y7534D01*
X13172Y7533D01*
X13175Y7531D01*
X13177Y7529D01*
X13180Y7528D01*
X13182Y7526D01*
X13184Y7524D01*
X13187Y7522D01*
X13189Y7520D01*
X13191Y7518D01*
X13193Y7516D01*
X13195Y7514D01*
X13197Y7511D01*
X13199Y7509D01*
X13201Y7507D01*
X13202Y7504D01*
X13204Y7502D01*
X13205Y7499D01*
X13207Y7496D01*
X13208Y7494D01*
X13210Y7491D01*
X13211Y7488D01*
X13212Y7486D01*
X13213Y7483D01*
X13214Y7480D01*
X13215Y7477D01*
X13215Y7474D01*
X13216Y7471D01*
X13217Y7468D01*
X13217Y7465D01*
X13217Y7462D01*
X13218Y7459D01*
X13218Y7456D01*
X13218Y7453D01*
Y7451D01*
X13218Y7448D01*
X13218Y7445D01*
X13217Y7442D01*
X13217Y7439D01*
X13217Y7436D01*
X13216Y7433D01*
X13215Y7430D01*
X13215Y7427D01*
X13214Y7424D01*
X13213Y7421D01*
X13212Y7418D01*
X13211Y7416D01*
X13210Y7413D01*
X13208Y7410D01*
X13207Y7408D01*
X13205Y7405D01*
X13204Y7402D01*
X13202Y7400D01*
X13201Y7397D01*
X13199Y7395D01*
X13197Y7393D01*
X13195Y7390D01*
X13193Y7388D01*
X13191Y7386D01*
X13189Y7384D01*
X13187Y7382D01*
X13184Y7380D01*
X13182Y7378D01*
X13180Y7376D01*
X13177Y7375D01*
X13175Y7373D01*
X13172Y7371D01*
X13170Y7370D01*
X13167Y7368D01*
X13164Y7367D01*
X13162Y7366D01*
X13159Y7365D01*
X13156Y7364D01*
X13153Y7363D01*
X13150Y7362D01*
X13148Y7361D01*
X13145Y7360D01*
X13142Y7360D01*
X13139Y7359D01*
X13136Y7359D01*
X13133Y7358D01*
X13130Y7358D01*
X13127Y7358D01*
X13124Y7358D01*
X6074D01*
X6071Y7358D01*
X6068Y7358D01*
X6065Y7358D01*
X6062Y7359D01*
X6059Y7359D01*
X6056Y7360D01*
X6053Y7360D01*
X6050Y7361D01*
X6048Y7362D01*
X6045Y7363D01*
X6042Y7364D01*
X6039Y7365D01*
X6036Y7366D01*
X6034Y7367D01*
X6031Y7368D01*
X6028Y7370D01*
X6026Y7371D01*
X6023Y7373D01*
X6021Y7375D01*
X6018Y7376D01*
X6016Y7378D01*
X6014Y7380D01*
X6011Y7382D01*
X6009Y7384D01*
X6007Y7386D01*
X6005Y7388D01*
X6003Y7390D01*
X6001Y7393D01*
X5999Y7395D01*
X5997Y7397D01*
X5996Y7400D01*
X5994Y7402D01*
X5993Y7405D01*
X5991Y7408D01*
X5990Y7410D01*
X5988Y7413D01*
X5987Y7416D01*
X5986Y7418D01*
X5985Y7421D01*
X5984Y7424D01*
X5983Y7427D01*
X5983Y7430D01*
X5982Y7433D01*
X5981Y7436D01*
X5981Y7439D01*
X5981Y7442D01*
X5980Y7445D01*
X5980Y7448D01*
X5980Y7451D01*
Y7453D01*
X5980Y7456D01*
X5980Y7459D01*
X5981Y7462D01*
X5981Y7465D01*
X5981Y7468D01*
X5982Y7471D01*
X5983Y7474D01*
X5983Y7477D01*
X5984Y7480D01*
X5985Y7483D01*
X5986Y7486D01*
X5987Y7488D01*
X5988Y7491D01*
X5990Y7494D01*
X5991Y7496D01*
X5993Y7499D01*
X5994Y7502D01*
X5996Y7504D01*
X5997Y7507D01*
X5999Y7509D01*
X6001Y7511D01*
X6003Y7514D01*
X6005Y7516D01*
X6007Y7518D01*
X6009Y7520D01*
X6011Y7522D01*
X6014Y7524D01*
X6016Y7526D01*
X6018Y7528D01*
X6021Y7529D01*
X6023Y7531D01*
X6026Y7533D01*
X6028Y7534D01*
X6031Y7536D01*
X6034Y7537D01*
X6036Y7538D01*
X6039Y7539D01*
X6042Y7540D01*
X6045Y7541D01*
X6048Y7542D01*
X6050Y7543D01*
X6053Y7544D01*
X6056Y7544D01*
X6059Y7545D01*
X6062Y7545D01*
X6065Y7546D01*
X6068Y7546D01*
X6071Y7546D01*
X6074Y7546D01*
Y7536D02*
X13124D01*
X13127Y7536D01*
X13130Y7536D01*
X13132Y7536D01*
X13135Y7535D01*
X13138Y7535D01*
X13141Y7534D01*
X13144Y7534D01*
X13146Y7533D01*
X13149Y7532D01*
X13152Y7531D01*
X13154Y7530D01*
X13157Y7529D01*
X13160Y7528D01*
X13162Y7527D01*
X13165Y7525D01*
X13167Y7524D01*
X13170Y7523D01*
X13172Y7521D01*
X13174Y7519D01*
X13177Y7518D01*
X13179Y7516D01*
X13181Y7514D01*
X13183Y7512D01*
X13185Y7510D01*
X13187Y7508D01*
X13189Y7506D01*
X13190Y7503D01*
X13192Y7501D01*
X13194Y7499D01*
X13195Y7496D01*
X13197Y7494D01*
X13198Y7492D01*
X13199Y7489D01*
X13201Y7486D01*
X13202Y7484D01*
X13203Y7481D01*
X13204Y7478D01*
X13205Y7476D01*
X13205Y7473D01*
X13206Y7470D01*
X13207Y7468D01*
X13207Y7465D01*
X13207Y7462D01*
X13208Y7459D01*
X13208Y7456D01*
X13208Y7453D01*
Y7451D01*
X13208Y7448D01*
X13208Y7445D01*
X13207Y7442D01*
X13207Y7439D01*
X13207Y7436D01*
X13206Y7434D01*
X13205Y7431D01*
X13205Y7428D01*
X13204Y7426D01*
X13203Y7423D01*
X13202Y7420D01*
X13201Y7418D01*
X13199Y7415D01*
X13198Y7412D01*
X13197Y7410D01*
X13195Y7408D01*
X13194Y7405D01*
X13192Y7403D01*
X13190Y7401D01*
X13189Y7398D01*
X13187Y7396D01*
X13185Y7394D01*
X13183Y7392D01*
X13181Y7390D01*
X13179Y7388D01*
X13177Y7386D01*
X13174Y7385D01*
X13172Y7383D01*
X13170Y7381D01*
X13167Y7380D01*
X13165Y7379D01*
X13162Y7377D01*
X13160Y7376D01*
X13157Y7375D01*
X13154Y7374D01*
X13152Y7373D01*
X13149Y7372D01*
X13146Y7371D01*
X13144Y7370D01*
X13141Y7370D01*
X13138Y7369D01*
X13135Y7369D01*
X13132Y7368D01*
X13130Y7368D01*
X13127Y7368D01*
X13124Y7368D01*
X6074D01*
X6071Y7368D01*
X6068Y7368D01*
X6066Y7368D01*
X6063Y7369D01*
X6060Y7369D01*
X6057Y7370D01*
X6054Y7370D01*
X6052Y7371D01*
X6049Y7372D01*
X6046Y7373D01*
X6044Y7374D01*
X6041Y7375D01*
X6038Y7376D01*
X6036Y7377D01*
X6033Y7379D01*
X6031Y7380D01*
X6028Y7381D01*
X6026Y7383D01*
X6024Y7385D01*
X6021Y7386D01*
X6019Y7388D01*
X6017Y7390D01*
X6015Y7392D01*
X6013Y7394D01*
X6011Y7396D01*
X6009Y7398D01*
X6008Y7401D01*
X6006Y7403D01*
X6004Y7405D01*
X6003Y7408D01*
X6001Y7410D01*
X6000Y7412D01*
X5999Y7415D01*
X5997Y7418D01*
X5996Y7420D01*
X5995Y7423D01*
X5994Y7426D01*
X5993Y7428D01*
X5993Y7431D01*
X5992Y7434D01*
X5991Y7436D01*
X5991Y7439D01*
X5991Y7442D01*
X5990Y7445D01*
X5990Y7448D01*
X5990Y7451D01*
Y7453D01*
X5990Y7456D01*
X5990Y7459D01*
X5991Y7462D01*
X5991Y7465D01*
X5991Y7468D01*
X5992Y7470D01*
X5993Y7473D01*
X5993Y7476D01*
X5994Y7478D01*
X5995Y7481D01*
X5996Y7484D01*
X5997Y7486D01*
X5999Y7489D01*
X6000Y7492D01*
X6001Y7494D01*
X6003Y7496D01*
X6004Y7499D01*
X6006Y7501D01*
X6008Y7503D01*
X6009Y7506D01*
X6011Y7508D01*
X6013Y7510D01*
X6015Y7512D01*
X6017Y7514D01*
X6019Y7516D01*
X6021Y7518D01*
X6024Y7519D01*
X6026Y7521D01*
X6028Y7523D01*
X6031Y7524D01*
X6033Y7525D01*
X6036Y7527D01*
X6038Y7528D01*
X6041Y7529D01*
X6044Y7530D01*
X6046Y7531D01*
X6049Y7532D01*
X6052Y7533D01*
X6054Y7534D01*
X6057Y7534D01*
X6060Y7535D01*
X6063Y7535D01*
X6066Y7536D01*
X6068Y7536D01*
X6071Y7536D01*
X6074Y7536D01*
Y7526D02*
X13124D01*
X13127Y7526D01*
X13130Y7526D01*
X13133Y7526D01*
X13135Y7525D01*
X13138Y7525D01*
X13141Y7524D01*
X13144Y7523D01*
X13147Y7522D01*
X13149Y7522D01*
X13152Y7521D01*
X13155Y7519D01*
X13157Y7518D01*
X13160Y7517D01*
X13162Y7515D01*
X13165Y7514D01*
X13167Y7512D01*
X13169Y7510D01*
X13172Y7509D01*
X13174Y7507D01*
X13176Y7505D01*
X13178Y7503D01*
X13180Y7501D01*
X13182Y7498D01*
X13183Y7496D01*
X13185Y7494D01*
X13187Y7491D01*
X13188Y7489D01*
X13189Y7486D01*
X13191Y7484D01*
X13192Y7481D01*
X13193Y7479D01*
X13194Y7476D01*
X13195Y7473D01*
X13196Y7470D01*
X13196Y7468D01*
X13197Y7465D01*
X13197Y7462D01*
X13198Y7459D01*
X13198Y7456D01*
X13198Y7453D01*
Y7451D01*
X13198Y7448D01*
X13198Y7445D01*
X13197Y7442D01*
X13197Y7439D01*
X13196Y7436D01*
X13196Y7434D01*
X13195Y7431D01*
X13194Y7428D01*
X13193Y7425D01*
X13192Y7423D01*
X13191Y7420D01*
X13189Y7418D01*
X13188Y7415D01*
X13187Y7413D01*
X13185Y7410D01*
X13183Y7408D01*
X13182Y7406D01*
X13180Y7403D01*
X13178Y7401D01*
X13176Y7399D01*
X13174Y7397D01*
X13172Y7395D01*
X13169Y7394D01*
X13167Y7392D01*
X13165Y7390D01*
X13162Y7389D01*
X13160Y7387D01*
X13157Y7386D01*
X13155Y7385D01*
X13152Y7383D01*
X13149Y7382D01*
X13147Y7382D01*
X13144Y7381D01*
X13141Y7380D01*
X13138Y7379D01*
X13135Y7379D01*
X13133Y7378D01*
X13130Y7378D01*
X13127Y7378D01*
X13124Y7378D01*
X6074D01*
X6071Y7378D01*
X6068Y7378D01*
X6065Y7378D01*
X6063Y7379D01*
X6060Y7379D01*
X6057Y7380D01*
X6054Y7381D01*
X6051Y7382D01*
X6049Y7382D01*
X6046Y7383D01*
X6043Y7385D01*
X6041Y7386D01*
X6038Y7387D01*
X6036Y7389D01*
X6033Y7390D01*
X6031Y7392D01*
X6029Y7394D01*
X6026Y7395D01*
X6024Y7397D01*
X6022Y7399D01*
X6020Y7401D01*
X6018Y7403D01*
X6016Y7406D01*
X6015Y7408D01*
X6013Y7410D01*
X6011Y7413D01*
X6010Y7415D01*
X6009Y7418D01*
X6007Y7420D01*
X6006Y7423D01*
X6005Y7425D01*
X6004Y7428D01*
X6003Y7431D01*
X6002Y7434D01*
X6002Y7436D01*
X6001Y7439D01*
X6001Y7442D01*
X6000Y7445D01*
X6000Y7448D01*
X6000Y7451D01*
Y7453D01*
X6000Y7456D01*
X6000Y7459D01*
X6001Y7462D01*
X6001Y7465D01*
X6002Y7468D01*
X6002Y7470D01*
X6003Y7473D01*
X6004Y7476D01*
X6005Y7479D01*
X6006Y7481D01*
X6007Y7484D01*
X6009Y7486D01*
X6010Y7489D01*
X6011Y7491D01*
X6013Y7494D01*
X6015Y7496D01*
X6016Y7498D01*
X6018Y7501D01*
X6020Y7503D01*
X6022Y7505D01*
X6024Y7507D01*
X6026Y7509D01*
X6029Y7510D01*
X6031Y7512D01*
X6033Y7514D01*
X6036Y7515D01*
X6038Y7517D01*
X6041Y7518D01*
X6043Y7519D01*
X6046Y7521D01*
X6049Y7522D01*
X6051Y7522D01*
X6054Y7523D01*
X6057Y7524D01*
X6060Y7525D01*
X6063Y7525D01*
X6065Y7526D01*
X6068Y7526D01*
X6071Y7526D01*
X6074Y7526D01*
Y7516D02*
X13124D01*
X13127Y7516D01*
X13130Y7516D01*
X13133Y7515D01*
X13136Y7515D01*
X13138Y7514D01*
X13141Y7514D01*
X13144Y7513D01*
X13147Y7512D01*
X13149Y7511D01*
X13152Y7509D01*
X13155Y7508D01*
X13157Y7507D01*
X13160Y7505D01*
X13162Y7503D01*
X13164Y7502D01*
X13167Y7500D01*
X13169Y7498D01*
X13171Y7496D01*
X13173Y7494D01*
X13175Y7491D01*
X13176Y7489D01*
X13178Y7486D01*
X13179Y7484D01*
X13181Y7481D01*
X13182Y7479D01*
X13183Y7476D01*
X13184Y7473D01*
X13185Y7471D01*
X13186Y7468D01*
X13187Y7465D01*
X13187Y7462D01*
X13188Y7459D01*
X13188Y7456D01*
X13188Y7453D01*
Y7451D01*
X13188Y7448D01*
X13188Y7445D01*
X13187Y7442D01*
X13187Y7439D01*
X13186Y7436D01*
X13185Y7433D01*
X13184Y7431D01*
X13183Y7428D01*
X13182Y7425D01*
X13181Y7423D01*
X13179Y7420D01*
X13178Y7418D01*
X13176Y7415D01*
X13175Y7413D01*
X13173Y7410D01*
X13171Y7408D01*
X13169Y7406D01*
X13167Y7404D01*
X13164Y7402D01*
X13162Y7401D01*
X13160Y7399D01*
X13157Y7397D01*
X13155Y7396D01*
X13152Y7395D01*
X13149Y7393D01*
X13147Y7392D01*
X13144Y7391D01*
X13141Y7390D01*
X13138Y7390D01*
X13136Y7389D01*
X13133Y7389D01*
X13130Y7388D01*
X13127Y7388D01*
X13124Y7388D01*
X6074D01*
X6071Y7388D01*
X6068Y7388D01*
X6065Y7389D01*
X6062Y7389D01*
X6060Y7390D01*
X6057Y7390D01*
X6054Y7391D01*
X6051Y7392D01*
X6049Y7393D01*
X6046Y7395D01*
X6043Y7396D01*
X6041Y7397D01*
X6038Y7399D01*
X6036Y7401D01*
X6034Y7402D01*
X6031Y7404D01*
X6029Y7406D01*
X6027Y7408D01*
X6025Y7410D01*
X6023Y7413D01*
X6022Y7415D01*
X6020Y7418D01*
X6019Y7420D01*
X6017Y7423D01*
X6016Y7425D01*
X6015Y7428D01*
X6014Y7431D01*
X6013Y7433D01*
X6012Y7436D01*
X6011Y7439D01*
X6011Y7442D01*
X6010Y7445D01*
X6010Y7448D01*
X6010Y7451D01*
Y7453D01*
X6010Y7456D01*
X6010Y7459D01*
X6011Y7462D01*
X6011Y7465D01*
X6012Y7468D01*
X6013Y7471D01*
X6014Y7473D01*
X6015Y7476D01*
X6016Y7479D01*
X6017Y7481D01*
X6019Y7484D01*
X6020Y7486D01*
X6022Y7489D01*
X6023Y7491D01*
X6025Y7494D01*
X6027Y7496D01*
X6029Y7498D01*
X6031Y7500D01*
X6034Y7502D01*
X6036Y7503D01*
X6038Y7505D01*
X6041Y7507D01*
X6043Y7508D01*
X6046Y7509D01*
X6049Y7511D01*
X6051Y7512D01*
X6054Y7513D01*
X6057Y7514D01*
X6060Y7514D01*
X6062Y7515D01*
X6065Y7515D01*
X6068Y7516D01*
X6071Y7516D01*
X6074Y7516D01*
Y7506D02*
X13124D01*
X13127Y7506D01*
X13129Y7506D01*
X13132Y7505D01*
X13135Y7505D01*
X13137Y7504D01*
X13140Y7504D01*
X13142Y7503D01*
X13145Y7502D01*
X13147Y7501D01*
X13150Y7499D01*
X13152Y7498D01*
X13154Y7497D01*
X13157Y7495D01*
X13159Y7493D01*
X13161Y7492D01*
X13163Y7490D01*
X13164Y7488D01*
X13166Y7486D01*
X13168Y7484D01*
X13169Y7481D01*
X13171Y7479D01*
X13172Y7477D01*
X13173Y7474D01*
X13174Y7472D01*
X13175Y7469D01*
X13176Y7467D01*
X13177Y7464D01*
X13177Y7461D01*
X13178Y7459D01*
X13178Y7456D01*
X13178Y7453D01*
Y7451D01*
X13178Y7448D01*
X13178Y7445D01*
X13177Y7443D01*
X13177Y7440D01*
X13176Y7437D01*
X13175Y7435D01*
X13174Y7432D01*
X13173Y7430D01*
X13172Y7427D01*
X13171Y7425D01*
X13169Y7423D01*
X13168Y7420D01*
X13166Y7418D01*
X13164Y7416D01*
X13163Y7414D01*
X13161Y7412D01*
X13159Y7411D01*
X13157Y7409D01*
X13154Y7407D01*
X13152Y7406D01*
X13150Y7405D01*
X13147Y7403D01*
X13145Y7402D01*
X13142Y7401D01*
X13140Y7400D01*
X13137Y7400D01*
X13135Y7399D01*
X13132Y7399D01*
X13129Y7398D01*
X13127Y7398D01*
X13124Y7398D01*
X6074D01*
X6071Y7398D01*
X6069Y7398D01*
X6066Y7399D01*
X6063Y7399D01*
X6061Y7400D01*
X6058Y7400D01*
X6056Y7401D01*
X6053Y7402D01*
X6051Y7403D01*
X6048Y7405D01*
X6046Y7406D01*
X6044Y7407D01*
X6041Y7409D01*
X6039Y7411D01*
X6037Y7412D01*
X6035Y7414D01*
X6034Y7416D01*
X6032Y7418D01*
X6030Y7420D01*
X6029Y7423D01*
X6027Y7425D01*
X6026Y7427D01*
X6025Y7430D01*
X6024Y7432D01*
X6023Y7435D01*
X6022Y7437D01*
X6021Y7440D01*
X6021Y7443D01*
X6020Y7445D01*
X6020Y7448D01*
X6020Y7451D01*
Y7453D01*
X6020Y7456D01*
X6020Y7459D01*
X6021Y7461D01*
X6021Y7464D01*
X6022Y7467D01*
X6023Y7469D01*
X6024Y7472D01*
X6025Y7474D01*
X6026Y7477D01*
X6027Y7479D01*
X6029Y7481D01*
X6030Y7484D01*
X6032Y7486D01*
X6034Y7488D01*
X6035Y7490D01*
X6037Y7492D01*
X6039Y7493D01*
X6041Y7495D01*
X6044Y7497D01*
X6046Y7498D01*
X6048Y7499D01*
X6051Y7501D01*
X6053Y7502D01*
X6056Y7503D01*
X6058Y7504D01*
X6061Y7504D01*
X6063Y7505D01*
X6066Y7505D01*
X6069Y7506D01*
X6071Y7506D01*
X6074Y7506D01*
Y7496D02*
X13124D01*
X13127Y7496D01*
X13129Y7496D01*
X13132Y7495D01*
X13135Y7495D01*
X13137Y7494D01*
X13140Y7493D01*
X13142Y7492D01*
X13145Y7491D01*
X13147Y7489D01*
X13149Y7488D01*
X13152Y7486D01*
X13154Y7485D01*
X13156Y7483D01*
X13157Y7481D01*
X13159Y7479D01*
X13161Y7476D01*
X13162Y7474D01*
X13163Y7472D01*
X13165Y7469D01*
X13165Y7467D01*
X13166Y7464D01*
X13167Y7461D01*
X13167Y7459D01*
X13168Y7456D01*
X13168Y7453D01*
Y7451D01*
X13168Y7448D01*
X13167Y7445D01*
X13167Y7443D01*
X13166Y7440D01*
X13165Y7437D01*
X13165Y7435D01*
X13163Y7432D01*
X13162Y7430D01*
X13161Y7428D01*
X13159Y7425D01*
X13157Y7423D01*
X13156Y7421D01*
X13154Y7419D01*
X13152Y7418D01*
X13149Y7416D01*
X13147Y7415D01*
X13145Y7413D01*
X13142Y7412D01*
X13140Y7411D01*
X13137Y7410D01*
X13135Y7409D01*
X13132Y7409D01*
X13129Y7408D01*
X13127Y7408D01*
X13124Y7408D01*
X6074D01*
X6071Y7408D01*
X6069Y7408D01*
X6066Y7409D01*
X6063Y7409D01*
X6061Y7410D01*
X6058Y7411D01*
X6056Y7412D01*
X6053Y7413D01*
X6051Y7415D01*
X6049Y7416D01*
X6046Y7418D01*
X6044Y7419D01*
X6042Y7421D01*
X6041Y7423D01*
X6039Y7425D01*
X6037Y7428D01*
X6036Y7430D01*
X6035Y7432D01*
X6033Y7435D01*
X6033Y7437D01*
X6032Y7440D01*
X6031Y7443D01*
X6031Y7445D01*
X6030Y7448D01*
X6030Y7451D01*
Y7453D01*
X6030Y7456D01*
X6031Y7459D01*
X6031Y7461D01*
X6032Y7464D01*
X6033Y7467D01*
X6033Y7469D01*
X6035Y7472D01*
X6036Y7474D01*
X6037Y7476D01*
X6039Y7479D01*
X6041Y7481D01*
X6042Y7483D01*
X6044Y7485D01*
X6046Y7486D01*
X6049Y7488D01*
X6051Y7489D01*
X6053Y7491D01*
X6056Y7492D01*
X6058Y7493D01*
X6061Y7494D01*
X6063Y7495D01*
X6066Y7495D01*
X6069Y7496D01*
X6071Y7496D01*
X6074Y7496D01*
Y7486D02*
X13124D01*
X13127Y7486D01*
X13129Y7486D01*
X13132Y7485D01*
X13135Y7484D01*
X13137Y7483D01*
X13140Y7482D01*
X13142Y7481D01*
X13144Y7479D01*
X13147Y7477D01*
X13149Y7476D01*
X13150Y7474D01*
X13152Y7471D01*
X13153Y7469D01*
X13155Y7467D01*
X13156Y7464D01*
X13157Y7461D01*
X13157Y7459D01*
X13158Y7456D01*
X13158Y7453D01*
Y7451D01*
X13158Y7448D01*
X13157Y7445D01*
X13157Y7443D01*
X13156Y7440D01*
X13155Y7437D01*
X13153Y7435D01*
X13152Y7433D01*
X13150Y7430D01*
X13149Y7428D01*
X13147Y7427D01*
X13144Y7425D01*
X13142Y7423D01*
X13140Y7422D01*
X13137Y7421D01*
X13135Y7420D01*
X13132Y7419D01*
X13129Y7418D01*
X13127Y7418D01*
X13124Y7418D01*
X6074D01*
X6071Y7418D01*
X6069Y7418D01*
X6066Y7419D01*
X6063Y7420D01*
X6061Y7421D01*
X6058Y7422D01*
X6056Y7423D01*
X6054Y7425D01*
X6051Y7427D01*
X6049Y7428D01*
X6048Y7430D01*
X6046Y7433D01*
X6045Y7435D01*
X6043Y7437D01*
X6042Y7440D01*
X6041Y7443D01*
X6041Y7445D01*
X6040Y7448D01*
X6040Y7451D01*
Y7453D01*
X6040Y7456D01*
X6041Y7459D01*
X6041Y7461D01*
X6042Y7464D01*
X6043Y7467D01*
X6045Y7469D01*
X6046Y7471D01*
X6048Y7474D01*
X6049Y7476D01*
X6051Y7477D01*
X6054Y7479D01*
X6056Y7481D01*
X6058Y7482D01*
X6061Y7483D01*
X6063Y7484D01*
X6066Y7485D01*
X6069Y7486D01*
X6071Y7486D01*
X6074Y7486D01*
Y7476D02*
X13124D01*
X13126Y7476D01*
X13129Y7476D01*
X13131Y7475D01*
X13133Y7474D01*
X13135Y7473D01*
X13137Y7472D01*
X13139Y7471D01*
X13141Y7469D01*
X13142Y7468D01*
X13144Y7466D01*
X13145Y7464D01*
X13146Y7462D01*
X13147Y7460D01*
X13147Y7458D01*
X13148Y7455D01*
X13148Y7453D01*
Y7451D01*
X13148Y7449D01*
X13147Y7446D01*
X13147Y7444D01*
X13146Y7442D01*
X13145Y7440D01*
X13144Y7438D01*
X13142Y7436D01*
X13141Y7435D01*
X13139Y7433D01*
X13137Y7432D01*
X13135Y7431D01*
X13133Y7430D01*
X13131Y7429D01*
X13129Y7428D01*
X13126Y7428D01*
X13124Y7428D01*
X6074D01*
X6072Y7428D01*
X6069Y7428D01*
X6067Y7429D01*
X6065Y7430D01*
X6063Y7431D01*
X6061Y7432D01*
X6059Y7433D01*
X6057Y7435D01*
X6056Y7436D01*
X6054Y7438D01*
X6053Y7440D01*
X6052Y7442D01*
X6051Y7444D01*
X6051Y7446D01*
X6050Y7449D01*
X6050Y7451D01*
Y7453D01*
X6050Y7455D01*
X6051Y7458D01*
X6051Y7460D01*
X6052Y7462D01*
X6053Y7464D01*
X6054Y7466D01*
X6056Y7468D01*
X6057Y7469D01*
X6059Y7471D01*
X6061Y7472D01*
X6063Y7473D01*
X6065Y7474D01*
X6067Y7475D01*
X6069Y7476D01*
X6072Y7476D01*
X6074Y7476D01*
Y7466D02*
X13124D01*
X13126Y7466D01*
X13128Y7465D01*
X13130Y7465D01*
X13132Y7464D01*
X13134Y7462D01*
X13135Y7461D01*
X13136Y7459D01*
X13137Y7457D01*
X13138Y7455D01*
X13138Y7453D01*
Y7451D01*
X13138Y7449D01*
X13137Y7447D01*
X13136Y7445D01*
X13135Y7443D01*
X13134Y7442D01*
X13132Y7440D01*
X13130Y7439D01*
X13128Y7439D01*
X13126Y7438D01*
X13124Y7438D01*
X6074D01*
X6072Y7438D01*
X6070Y7439D01*
X6068Y7439D01*
X6066Y7440D01*
X6064Y7442D01*
X6063Y7443D01*
X6062Y7445D01*
X6061Y7447D01*
X6060Y7449D01*
X6060Y7451D01*
Y7453D01*
X6060Y7455D01*
X6061Y7457D01*
X6062Y7459D01*
X6063Y7461D01*
X6064Y7462D01*
X6066Y7464D01*
X6068Y7465D01*
X6070Y7465D01*
X6072Y7466D01*
X6074Y7466D01*
Y7456D02*
X13124D01*
X13125Y7456D01*
X13127Y7455D01*
X13127Y7454D01*
X13128Y7453D01*
Y7451D01*
X13127Y7450D01*
X13127Y7449D01*
X13125Y7448D01*
X13124Y7448D01*
X6074D01*
X6073Y7448D01*
X6071Y7449D01*
X6071Y7450D01*
X6070Y7451D01*
Y7453D01*
X6071Y7454D01*
X6071Y7455D01*
X6073Y7456D01*
X6074Y7456D01*
Y7452D02*
X13124D01*
Y7596D02*
X13174D01*
X13177Y7596D01*
X13180Y7596D01*
X13183Y7596D01*
X13186Y7596D01*
X13189Y7595D01*
X13192Y7595D01*
X13195Y7595D01*
X13198Y7594D01*
X13200Y7594D01*
X13203Y7593D01*
X13206Y7592D01*
X13209Y7592D01*
X13212Y7591D01*
X13215Y7590D01*
X13218Y7589D01*
X13220Y7588D01*
X13223Y7587D01*
X13226Y7586D01*
X13229Y7585D01*
X13231Y7584D01*
X13234Y7583D01*
X13237Y7582D01*
X13240Y7580D01*
X13242Y7579D01*
X13245Y7577D01*
X13247Y7576D01*
X13250Y7574D01*
X13252Y7573D01*
X13255Y7571D01*
X13257Y7570D01*
X13260Y7568D01*
X13262Y7566D01*
X13264Y7564D01*
X13267Y7562D01*
X13269Y7560D01*
X13271Y7558D01*
X13273Y7556D01*
X13275Y7554D01*
X13277Y7552D01*
X13279Y7550D01*
X13281Y7548D01*
X13283Y7546D01*
X13285Y7543D01*
X13287Y7541D01*
X13289Y7539D01*
X13291Y7536D01*
X13292Y7534D01*
X13294Y7532D01*
X13296Y7529D01*
X13297Y7527D01*
X13299Y7524D01*
X13300Y7521D01*
X13302Y7519D01*
X13303Y7516D01*
X13304Y7514D01*
X13305Y7511D01*
X13307Y7508D01*
X13308Y7505D01*
X13309Y7503D01*
X13310Y7500D01*
X13311Y7497D01*
X13312Y7494D01*
X13313Y7491D01*
X13313Y7489D01*
X13314Y7486D01*
X13315Y7483D01*
X13315Y7480D01*
X13316Y7477D01*
X13316Y7474D01*
X13317Y7471D01*
X13317Y7468D01*
X13317Y7465D01*
X13318Y7462D01*
X13318Y7459D01*
X13318Y7456D01*
X13318Y7453D01*
Y7451D01*
X13318Y7448D01*
X13318Y7445D01*
X13318Y7442D01*
X13317Y7439D01*
X13317Y7436D01*
X13317Y7433D01*
X13316Y7430D01*
X13316Y7427D01*
X13315Y7424D01*
X13315Y7421D01*
X13314Y7418D01*
X13313Y7415D01*
X13313Y7413D01*
X13312Y7410D01*
X13311Y7407D01*
X13310Y7404D01*
X13309Y7401D01*
X13308Y7399D01*
X13307Y7396D01*
X13305Y7393D01*
X13304Y7390D01*
X13303Y7388D01*
X13302Y7385D01*
X13300Y7383D01*
X13299Y7380D01*
X13297Y7377D01*
X13296Y7375D01*
X13294Y7372D01*
X13292Y7370D01*
X13291Y7368D01*
X13289Y7365D01*
X13287Y7363D01*
X13285Y7361D01*
X13283Y7358D01*
X13281Y7356D01*
X13279Y7354D01*
X13277Y7352D01*
X13275Y7350D01*
X13273Y7348D01*
X13271Y7346D01*
X13269Y7344D01*
X13267Y7342D01*
X13264Y7340D01*
X13262Y7338D01*
X13260Y7336D01*
X13257Y7334D01*
X13255Y7333D01*
X13252Y7331D01*
X13250Y7330D01*
X13247Y7328D01*
X13245Y7327D01*
X13242Y7325D01*
X13240Y7324D01*
X13237Y7322D01*
X13234Y7321D01*
X13231Y7320D01*
X13229Y7319D01*
X13226Y7318D01*
X13223Y7317D01*
X13220Y7316D01*
X13218Y7315D01*
X13215Y7314D01*
X13212Y7313D01*
X13209Y7312D01*
X13206Y7312D01*
X13203Y7311D01*
X13200Y7310D01*
X13198Y7310D01*
X13195Y7309D01*
X13192Y7309D01*
X13189Y7309D01*
X13186Y7308D01*
X13183Y7308D01*
X13180Y7308D01*
X13177Y7308D01*
X13174Y7308D01*
X13124D01*
X13121Y7308D01*
X13118Y7308D01*
X13115Y7308D01*
X13112Y7308D01*
X13109Y7309D01*
X13106Y7309D01*
X13103Y7309D01*
X13100Y7310D01*
X13098Y7310D01*
X13095Y7311D01*
X13092Y7312D01*
X13089Y7312D01*
X13086Y7313D01*
X13083Y7314D01*
X13080Y7315D01*
X13078Y7316D01*
X13075Y7317D01*
X13072Y7318D01*
X13069Y7319D01*
X13067Y7320D01*
X13064Y7321D01*
X13061Y7322D01*
X13058Y7324D01*
X13056Y7325D01*
X13053Y7327D01*
X13051Y7328D01*
X13048Y7330D01*
X13046Y7331D01*
X13043Y7333D01*
X13041Y7334D01*
X13038Y7336D01*
X13036Y7338D01*
X13034Y7340D01*
X13031Y7342D01*
X13029Y7344D01*
X13027Y7346D01*
X13025Y7348D01*
X13023Y7350D01*
X13021Y7352D01*
X13019Y7354D01*
X13017Y7356D01*
X13015Y7358D01*
X13013Y7361D01*
X13011Y7363D01*
X13009Y7365D01*
X13007Y7368D01*
X13006Y7370D01*
X13004Y7372D01*
X13002Y7375D01*
X13001Y7377D01*
X12999Y7380D01*
X12998Y7383D01*
X12996Y7385D01*
X12995Y7388D01*
X12994Y7390D01*
X12993Y7393D01*
X12991Y7396D01*
X12990Y7399D01*
X12989Y7401D01*
X12988Y7404D01*
X12987Y7407D01*
X12986Y7410D01*
X12985Y7413D01*
X12985Y7415D01*
X12984Y7418D01*
X12983Y7421D01*
X12983Y7424D01*
X12982Y7427D01*
X12982Y7430D01*
X12981Y7433D01*
X12981Y7436D01*
X12981Y7439D01*
X12980Y7442D01*
X12980Y7445D01*
X12980Y7448D01*
X12980Y7451D01*
Y7453D01*
X12980Y7456D01*
X12980Y7459D01*
X12980Y7462D01*
X12981Y7465D01*
X12981Y7468D01*
X12981Y7471D01*
X12982Y7474D01*
X12982Y7477D01*
X12983Y7480D01*
X12983Y7483D01*
X12984Y7486D01*
X12985Y7489D01*
X12985Y7491D01*
X12986Y7494D01*
X12987Y7497D01*
X12988Y7500D01*
X12989Y7503D01*
X12990Y7505D01*
X12991Y7508D01*
X12993Y7511D01*
X12994Y7514D01*
X12995Y7516D01*
X12996Y7519D01*
X12998Y7521D01*
X12999Y7524D01*
X13001Y7527D01*
X13002Y7529D01*
X13004Y7532D01*
X13006Y7534D01*
X13007Y7536D01*
X13009Y7539D01*
X13011Y7541D01*
X13013Y7543D01*
X13015Y7546D01*
X13017Y7548D01*
X13019Y7550D01*
X13021Y7552D01*
X13023Y7554D01*
X13025Y7556D01*
X13027Y7558D01*
X13029Y7560D01*
X13031Y7562D01*
X13034Y7564D01*
X13036Y7566D01*
X13038Y7568D01*
X13041Y7570D01*
X13043Y7571D01*
X13046Y7573D01*
X13048Y7574D01*
X13051Y7576D01*
X13053Y7577D01*
X13056Y7579D01*
X13058Y7580D01*
X13061Y7582D01*
X13064Y7583D01*
X13067Y7584D01*
X13069Y7585D01*
X13072Y7586D01*
X13075Y7587D01*
X13078Y7588D01*
X13080Y7589D01*
X13083Y7590D01*
X13086Y7591D01*
X13089Y7592D01*
X13092Y7592D01*
X13095Y7593D01*
X13098Y7594D01*
X13100Y7594D01*
X13103Y7595D01*
X13106Y7595D01*
X13109Y7595D01*
X13112Y7596D01*
X13115Y7596D01*
X13118Y7596D01*
X13121Y7596D01*
X13124Y7596D01*
Y7586D02*
X13174D01*
X13177Y7586D01*
X13180Y7586D01*
X13183Y7586D01*
X13186Y7585D01*
X13189Y7585D01*
X13192Y7585D01*
X13195Y7584D01*
X13198Y7584D01*
X13201Y7583D01*
X13204Y7583D01*
X13207Y7582D01*
X13209Y7581D01*
X13212Y7580D01*
X13215Y7580D01*
X13218Y7579D01*
X13221Y7578D01*
X13224Y7577D01*
X13226Y7575D01*
X13229Y7574D01*
X13232Y7573D01*
X13234Y7572D01*
X13237Y7570D01*
X13240Y7569D01*
X13242Y7567D01*
X13245Y7566D01*
X13247Y7564D01*
X13250Y7562D01*
X13252Y7561D01*
X13255Y7559D01*
X13257Y7557D01*
X13259Y7555D01*
X13262Y7553D01*
X13264Y7551D01*
X13266Y7549D01*
X13268Y7547D01*
X13270Y7545D01*
X13272Y7543D01*
X13274Y7541D01*
X13276Y7539D01*
X13278Y7536D01*
X13280Y7534D01*
X13282Y7531D01*
X13284Y7529D01*
X13285Y7527D01*
X13287Y7524D01*
X13289Y7522D01*
X13290Y7519D01*
X13292Y7516D01*
X13293Y7514D01*
X13294Y7511D01*
X13296Y7508D01*
X13297Y7506D01*
X13298Y7503D01*
X13299Y7500D01*
X13300Y7497D01*
X13301Y7495D01*
X13302Y7492D01*
X13303Y7489D01*
X13304Y7486D01*
X13304Y7483D01*
X13305Y7480D01*
X13306Y7477D01*
X13306Y7474D01*
X13307Y7471D01*
X13307Y7468D01*
X13307Y7465D01*
X13308Y7462D01*
X13308Y7459D01*
X13308Y7456D01*
X13308Y7453D01*
Y7451D01*
X13308Y7448D01*
X13308Y7445D01*
X13308Y7442D01*
X13307Y7439D01*
X13307Y7436D01*
X13307Y7433D01*
X13306Y7430D01*
X13306Y7427D01*
X13305Y7424D01*
X13304Y7421D01*
X13304Y7418D01*
X13303Y7415D01*
X13302Y7412D01*
X13301Y7409D01*
X13300Y7407D01*
X13299Y7404D01*
X13298Y7401D01*
X13297Y7398D01*
X13296Y7396D01*
X13294Y7393D01*
X13293Y7390D01*
X13292Y7388D01*
X13290Y7385D01*
X13289Y7382D01*
X13287Y7380D01*
X13285Y7377D01*
X13284Y7375D01*
X13282Y7373D01*
X13280Y7370D01*
X13278Y7368D01*
X13276Y7365D01*
X13274Y7363D01*
X13272Y7361D01*
X13270Y7359D01*
X13268Y7357D01*
X13266Y7355D01*
X13264Y7353D01*
X13262Y7351D01*
X13259Y7349D01*
X13257Y7347D01*
X13255Y7345D01*
X13252Y7343D01*
X13250Y7342D01*
X13247Y7340D01*
X13245Y7338D01*
X13242Y7337D01*
X13240Y7335D01*
X13237Y7334D01*
X13234Y7332D01*
X13232Y7331D01*
X13229Y7330D01*
X13226Y7329D01*
X13224Y7327D01*
X13221Y7326D01*
X13218Y7325D01*
X13215Y7324D01*
X13212Y7324D01*
X13209Y7323D01*
X13207Y7322D01*
X13204Y7321D01*
X13201Y7321D01*
X13198Y7320D01*
X13195Y7320D01*
X13192Y7319D01*
X13189Y7319D01*
X13186Y7319D01*
X13183Y7318D01*
X13180Y7318D01*
X13177Y7318D01*
X13174Y7318D01*
X13124D01*
X13121Y7318D01*
X13118Y7318D01*
X13115Y7318D01*
X13112Y7319D01*
X13109Y7319D01*
X13106Y7319D01*
X13103Y7320D01*
X13100Y7320D01*
X13097Y7321D01*
X13094Y7321D01*
X13091Y7322D01*
X13089Y7323D01*
X13086Y7324D01*
X13083Y7324D01*
X13080Y7325D01*
X13077Y7326D01*
X13074Y7327D01*
X13072Y7329D01*
X13069Y7330D01*
X13066Y7331D01*
X13064Y7332D01*
X13061Y7334D01*
X13058Y7335D01*
X13056Y7337D01*
X13053Y7338D01*
X13051Y7340D01*
X13048Y7342D01*
X13046Y7343D01*
X13043Y7345D01*
X13041Y7347D01*
X13039Y7349D01*
X13036Y7351D01*
X13034Y7353D01*
X13032Y7355D01*
X13030Y7357D01*
X13028Y7359D01*
X13026Y7361D01*
X13024Y7363D01*
X13022Y7365D01*
X13020Y7368D01*
X13018Y7370D01*
X13016Y7373D01*
X13014Y7375D01*
X13013Y7377D01*
X13011Y7380D01*
X13009Y7382D01*
X13008Y7385D01*
X13006Y7388D01*
X13005Y7390D01*
X13004Y7393D01*
X13002Y7396D01*
X13001Y7398D01*
X13000Y7401D01*
X12999Y7404D01*
X12998Y7407D01*
X12997Y7409D01*
X12996Y7412D01*
X12995Y7415D01*
X12994Y7418D01*
X12994Y7421D01*
X12993Y7424D01*
X12992Y7427D01*
X12992Y7430D01*
X12991Y7433D01*
X12991Y7436D01*
X12991Y7439D01*
X12990Y7442D01*
X12990Y7445D01*
X12990Y7448D01*
X12990Y7451D01*
Y7453D01*
X12990Y7456D01*
X12990Y7459D01*
X12990Y7462D01*
X12991Y7465D01*
X12991Y7468D01*
X12991Y7471D01*
X12992Y7474D01*
X12992Y7477D01*
X12993Y7480D01*
X12994Y7483D01*
X12994Y7486D01*
X12995Y7489D01*
X12996Y7492D01*
X12997Y7495D01*
X12998Y7497D01*
X12999Y7500D01*
X13000Y7503D01*
X13001Y7506D01*
X13002Y7508D01*
X13004Y7511D01*
X13005Y7514D01*
X13006Y7516D01*
X13008Y7519D01*
X13009Y7522D01*
X13011Y7524D01*
X13013Y7527D01*
X13014Y7529D01*
X13016Y7531D01*
X13018Y7534D01*
X13020Y7536D01*
X13022Y7539D01*
X13024Y7541D01*
X13026Y7543D01*
X13028Y7545D01*
X13030Y7547D01*
X13032Y7549D01*
X13034Y7551D01*
X13036Y7553D01*
X13039Y7555D01*
X13041Y7557D01*
X13043Y7559D01*
X13046Y7561D01*
X13048Y7562D01*
X13051Y7564D01*
X13053Y7566D01*
X13056Y7567D01*
X13058Y7569D01*
X13061Y7570D01*
X13064Y7572D01*
X13066Y7573D01*
X13069Y7574D01*
X13072Y7575D01*
X13074Y7577D01*
X13077Y7578D01*
X13080Y7579D01*
X13083Y7580D01*
X13086Y7580D01*
X13089Y7581D01*
X13091Y7582D01*
X13094Y7583D01*
X13097Y7583D01*
X13100Y7584D01*
X13103Y7584D01*
X13106Y7585D01*
X13109Y7585D01*
X13112Y7585D01*
X13115Y7586D01*
X13118Y7586D01*
X13121Y7586D01*
X13124Y7586D01*
Y7576D02*
X13174D01*
X13177Y7576D01*
X13180Y7576D01*
X13183Y7576D01*
X13186Y7575D01*
X13189Y7575D01*
X13192Y7575D01*
X13195Y7574D01*
X13198Y7574D01*
X13201Y7573D01*
X13204Y7572D01*
X13207Y7572D01*
X13210Y7571D01*
X13213Y7570D01*
X13215Y7569D01*
X13218Y7568D01*
X13221Y7567D01*
X13224Y7566D01*
X13227Y7564D01*
X13229Y7563D01*
X13232Y7562D01*
X13235Y7560D01*
X13237Y7559D01*
X13240Y7557D01*
X13242Y7555D01*
X13245Y7554D01*
X13247Y7552D01*
X13250Y7550D01*
X13252Y7548D01*
X13254Y7546D01*
X13257Y7544D01*
X13259Y7542D01*
X13261Y7540D01*
X13263Y7538D01*
X13265Y7536D01*
X13267Y7534D01*
X13269Y7531D01*
X13271Y7529D01*
X13273Y7527D01*
X13275Y7524D01*
X13277Y7522D01*
X13278Y7519D01*
X13280Y7517D01*
X13281Y7514D01*
X13283Y7511D01*
X13284Y7509D01*
X13286Y7506D01*
X13287Y7503D01*
X13288Y7500D01*
X13289Y7498D01*
X13290Y7495D01*
X13291Y7492D01*
X13292Y7489D01*
X13293Y7486D01*
X13294Y7483D01*
X13295Y7480D01*
X13295Y7477D01*
X13296Y7475D01*
X13296Y7472D01*
X13297Y7469D01*
X13297Y7466D01*
X13298Y7463D01*
X13298Y7460D01*
X13298Y7457D01*
X13298Y7454D01*
Y7450D01*
X13298Y7447D01*
X13298Y7444D01*
X13298Y7441D01*
X13297Y7438D01*
X13297Y7435D01*
X13296Y7432D01*
X13296Y7429D01*
X13295Y7427D01*
X13295Y7424D01*
X13294Y7421D01*
X13293Y7418D01*
X13292Y7415D01*
X13291Y7412D01*
X13290Y7409D01*
X13289Y7406D01*
X13288Y7404D01*
X13287Y7401D01*
X13286Y7398D01*
X13284Y7395D01*
X13283Y7393D01*
X13281Y7390D01*
X13280Y7387D01*
X13278Y7385D01*
X13277Y7382D01*
X13275Y7380D01*
X13273Y7377D01*
X13271Y7375D01*
X13269Y7373D01*
X13267Y7370D01*
X13265Y7368D01*
X13263Y7366D01*
X13261Y7364D01*
X13259Y7362D01*
X13257Y7360D01*
X13254Y7358D01*
X13252Y7356D01*
X13250Y7354D01*
X13247Y7352D01*
X13245Y7350D01*
X13242Y7349D01*
X13240Y7347D01*
X13237Y7345D01*
X13235Y7344D01*
X13232Y7342D01*
X13229Y7341D01*
X13227Y7340D01*
X13224Y7338D01*
X13221Y7337D01*
X13218Y7336D01*
X13215Y7335D01*
X13213Y7334D01*
X13210Y7333D01*
X13207Y7332D01*
X13204Y7332D01*
X13201Y7331D01*
X13198Y7330D01*
X13195Y7330D01*
X13192Y7329D01*
X13189Y7329D01*
X13186Y7329D01*
X13183Y7328D01*
X13180Y7328D01*
X13177Y7328D01*
X13174Y7328D01*
X13124D01*
X13121Y7328D01*
X13118Y7328D01*
X13115Y7328D01*
X13112Y7329D01*
X13109Y7329D01*
X13106Y7329D01*
X13103Y7330D01*
X13100Y7330D01*
X13097Y7331D01*
X13094Y7332D01*
X13091Y7332D01*
X13088Y7333D01*
X13085Y7334D01*
X13083Y7335D01*
X13080Y7336D01*
X13077Y7337D01*
X13074Y7338D01*
X13071Y7340D01*
X13069Y7341D01*
X13066Y7342D01*
X13063Y7344D01*
X13061Y7345D01*
X13058Y7347D01*
X13056Y7349D01*
X13053Y7350D01*
X13051Y7352D01*
X13048Y7354D01*
X13046Y7356D01*
X13044Y7358D01*
X13041Y7360D01*
X13039Y7362D01*
X13037Y7364D01*
X13035Y7366D01*
X13033Y7368D01*
X13031Y7370D01*
X13029Y7373D01*
X13027Y7375D01*
X13025Y7377D01*
X13023Y7380D01*
X13021Y7382D01*
X13020Y7385D01*
X13018Y7387D01*
X13017Y7390D01*
X13015Y7393D01*
X13014Y7395D01*
X13012Y7398D01*
X13011Y7401D01*
X13010Y7404D01*
X13009Y7406D01*
X13008Y7409D01*
X13007Y7412D01*
X13006Y7415D01*
X13005Y7418D01*
X13004Y7421D01*
X13003Y7424D01*
X13003Y7427D01*
X13002Y7429D01*
X13002Y7432D01*
X13001Y7435D01*
X13001Y7438D01*
X13000Y7441D01*
X13000Y7444D01*
X13000Y7447D01*
X13000Y7450D01*
Y7454D01*
X13000Y7457D01*
X13000Y7460D01*
X13000Y7463D01*
X13001Y7466D01*
X13001Y7469D01*
X13002Y7472D01*
X13002Y7475D01*
X13003Y7477D01*
X13003Y7480D01*
X13004Y7483D01*
X13005Y7486D01*
X13006Y7489D01*
X13007Y7492D01*
X13008Y7495D01*
X13009Y7498D01*
X13010Y7500D01*
X13011Y7503D01*
X13012Y7506D01*
X13014Y7509D01*
X13015Y7511D01*
X13017Y7514D01*
X13018Y7517D01*
X13020Y7519D01*
X13021Y7522D01*
X13023Y7524D01*
X13025Y7527D01*
X13027Y7529D01*
X13029Y7531D01*
X13031Y7534D01*
X13033Y7536D01*
X13035Y7538D01*
X13037Y7540D01*
X13039Y7542D01*
X13041Y7544D01*
X13044Y7546D01*
X13046Y7548D01*
X13048Y7550D01*
X13051Y7552D01*
X13053Y7554D01*
X13056Y7555D01*
X13058Y7557D01*
X13061Y7559D01*
X13063Y7560D01*
X13066Y7562D01*
X13069Y7563D01*
X13071Y7564D01*
X13074Y7566D01*
X13077Y7567D01*
X13080Y7568D01*
X13083Y7569D01*
X13085Y7570D01*
X13088Y7571D01*
X13091Y7572D01*
X13094Y7572D01*
X13097Y7573D01*
X13100Y7574D01*
X13103Y7574D01*
X13106Y7575D01*
X13109Y7575D01*
X13112Y7575D01*
X13115Y7576D01*
X13118Y7576D01*
X13121Y7576D01*
X13124Y7576D01*
Y7566D02*
X13174D01*
X13177Y7566D01*
X13180Y7566D01*
X13183Y7566D01*
X13186Y7565D01*
X13189Y7565D01*
X13191Y7565D01*
X13194Y7564D01*
X13197Y7564D01*
X13200Y7563D01*
X13203Y7562D01*
X13206Y7562D01*
X13208Y7561D01*
X13211Y7560D01*
X13214Y7559D01*
X13217Y7558D01*
X13219Y7557D01*
X13222Y7555D01*
X13225Y7554D01*
X13227Y7553D01*
X13230Y7551D01*
X13232Y7550D01*
X13235Y7548D01*
X13237Y7547D01*
X13240Y7545D01*
X13242Y7544D01*
X13244Y7542D01*
X13247Y7540D01*
X13249Y7538D01*
X13251Y7536D01*
X13253Y7534D01*
X13255Y7532D01*
X13257Y7530D01*
X13259Y7528D01*
X13261Y7526D01*
X13263Y7523D01*
X13265Y7521D01*
X13266Y7519D01*
X13268Y7516D01*
X13270Y7514D01*
X13271Y7512D01*
X13273Y7509D01*
X13274Y7506D01*
X13276Y7504D01*
X13277Y7501D01*
X13278Y7499D01*
X13279Y7496D01*
X13280Y7493D01*
X13281Y7491D01*
X13282Y7488D01*
X13283Y7485D01*
X13284Y7482D01*
X13285Y7479D01*
X13285Y7477D01*
X13286Y7474D01*
X13286Y7471D01*
X13287Y7468D01*
X13287Y7465D01*
X13288Y7462D01*
X13288Y7459D01*
X13288Y7456D01*
X13288Y7453D01*
Y7451D01*
X13288Y7448D01*
X13288Y7445D01*
X13288Y7442D01*
X13287Y7439D01*
X13287Y7436D01*
X13286Y7433D01*
X13286Y7430D01*
X13285Y7427D01*
X13285Y7425D01*
X13284Y7422D01*
X13283Y7419D01*
X13282Y7416D01*
X13281Y7413D01*
X13280Y7411D01*
X13279Y7408D01*
X13278Y7405D01*
X13277Y7403D01*
X13276Y7400D01*
X13274Y7398D01*
X13273Y7395D01*
X13271Y7392D01*
X13270Y7390D01*
X13268Y7388D01*
X13266Y7385D01*
X13265Y7383D01*
X13263Y7381D01*
X13261Y7378D01*
X13259Y7376D01*
X13257Y7374D01*
X13255Y7372D01*
X13253Y7370D01*
X13251Y7368D01*
X13249Y7366D01*
X13247Y7364D01*
X13244Y7362D01*
X13242Y7360D01*
X13240Y7359D01*
X13237Y7357D01*
X13235Y7356D01*
X13232Y7354D01*
X13230Y7353D01*
X13227Y7351D01*
X13225Y7350D01*
X13222Y7349D01*
X13219Y7347D01*
X13217Y7346D01*
X13214Y7345D01*
X13211Y7344D01*
X13208Y7343D01*
X13206Y7342D01*
X13203Y7342D01*
X13200Y7341D01*
X13197Y7340D01*
X13194Y7340D01*
X13191Y7339D01*
X13189Y7339D01*
X13186Y7339D01*
X13183Y7338D01*
X13180Y7338D01*
X13177Y7338D01*
X13174Y7338D01*
X13124D01*
X13121Y7338D01*
X13118Y7338D01*
X13115Y7338D01*
X13112Y7339D01*
X13109Y7339D01*
X13107Y7339D01*
X13104Y7340D01*
X13101Y7340D01*
X13098Y7341D01*
X13095Y7342D01*
X13092Y7342D01*
X13090Y7343D01*
X13087Y7344D01*
X13084Y7345D01*
X13081Y7346D01*
X13079Y7347D01*
X13076Y7349D01*
X13073Y7350D01*
X13071Y7351D01*
X13068Y7353D01*
X13066Y7354D01*
X13063Y7356D01*
X13061Y7357D01*
X13058Y7359D01*
X13056Y7360D01*
X13054Y7362D01*
X13051Y7364D01*
X13049Y7366D01*
X13047Y7368D01*
X13045Y7370D01*
X13043Y7372D01*
X13041Y7374D01*
X13039Y7376D01*
X13037Y7378D01*
X13035Y7381D01*
X13033Y7383D01*
X13032Y7385D01*
X13030Y7388D01*
X13028Y7390D01*
X13027Y7392D01*
X13025Y7395D01*
X13024Y7398D01*
X13022Y7400D01*
X13021Y7403D01*
X13020Y7405D01*
X13019Y7408D01*
X13018Y7411D01*
X13017Y7413D01*
X13016Y7416D01*
X13015Y7419D01*
X13014Y7422D01*
X13013Y7425D01*
X13013Y7427D01*
X13012Y7430D01*
X13012Y7433D01*
X13011Y7436D01*
X13011Y7439D01*
X13010Y7442D01*
X13010Y7445D01*
X13010Y7448D01*
X13010Y7451D01*
Y7453D01*
X13010Y7456D01*
X13010Y7459D01*
X13010Y7462D01*
X13011Y7465D01*
X13011Y7468D01*
X13012Y7471D01*
X13012Y7474D01*
X13013Y7477D01*
X13013Y7479D01*
X13014Y7482D01*
X13015Y7485D01*
X13016Y7488D01*
X13017Y7491D01*
X13018Y7493D01*
X13019Y7496D01*
X13020Y7499D01*
X13021Y7501D01*
X13022Y7504D01*
X13024Y7506D01*
X13025Y7509D01*
X13027Y7512D01*
X13028Y7514D01*
X13030Y7516D01*
X13032Y7519D01*
X13033Y7521D01*
X13035Y7523D01*
X13037Y7526D01*
X13039Y7528D01*
X13041Y7530D01*
X13043Y7532D01*
X13045Y7534D01*
X13047Y7536D01*
X13049Y7538D01*
X13051Y7540D01*
X13054Y7542D01*
X13056Y7544D01*
X13058Y7545D01*
X13061Y7547D01*
X13063Y7548D01*
X13066Y7550D01*
X13068Y7551D01*
X13071Y7553D01*
X13073Y7554D01*
X13076Y7555D01*
X13079Y7557D01*
X13081Y7558D01*
X13084Y7559D01*
X13087Y7560D01*
X13090Y7561D01*
X13092Y7562D01*
X13095Y7562D01*
X13098Y7563D01*
X13101Y7564D01*
X13104Y7564D01*
X13107Y7565D01*
X13109Y7565D01*
X13112Y7565D01*
X13115Y7566D01*
X13118Y7566D01*
X13121Y7566D01*
X13124Y7566D01*
Y7556D02*
X13174D01*
X13177Y7556D01*
X13180Y7556D01*
X13183Y7556D01*
X13186Y7555D01*
X13189Y7555D01*
X13192Y7555D01*
X13194Y7554D01*
X13197Y7553D01*
X13200Y7553D01*
X13203Y7552D01*
X13206Y7551D01*
X13209Y7550D01*
X13211Y7549D01*
X13214Y7548D01*
X13217Y7547D01*
X13220Y7546D01*
X13222Y7544D01*
X13225Y7543D01*
X13227Y7541D01*
X13230Y7540D01*
X13232Y7538D01*
X13235Y7536D01*
X13237Y7535D01*
X13239Y7533D01*
X13242Y7531D01*
X13244Y7529D01*
X13246Y7527D01*
X13248Y7525D01*
X13250Y7523D01*
X13252Y7521D01*
X13254Y7518D01*
X13256Y7516D01*
X13258Y7514D01*
X13259Y7511D01*
X13261Y7509D01*
X13263Y7507D01*
X13264Y7504D01*
X13266Y7501D01*
X13267Y7499D01*
X13268Y7496D01*
X13269Y7493D01*
X13271Y7491D01*
X13272Y7488D01*
X13273Y7485D01*
X13273Y7482D01*
X13274Y7480D01*
X13275Y7477D01*
X13276Y7474D01*
X13276Y7471D01*
X13277Y7468D01*
X13277Y7465D01*
X13277Y7462D01*
X13278Y7459D01*
X13278Y7456D01*
X13278Y7453D01*
Y7451D01*
X13278Y7448D01*
X13278Y7445D01*
X13277Y7442D01*
X13277Y7439D01*
X13277Y7436D01*
X13276Y7433D01*
X13276Y7430D01*
X13275Y7427D01*
X13274Y7424D01*
X13273Y7422D01*
X13273Y7419D01*
X13272Y7416D01*
X13271Y7413D01*
X13269Y7411D01*
X13268Y7408D01*
X13267Y7405D01*
X13266Y7403D01*
X13264Y7400D01*
X13263Y7397D01*
X13261Y7395D01*
X13259Y7393D01*
X13258Y7390D01*
X13256Y7388D01*
X13254Y7386D01*
X13252Y7383D01*
X13250Y7381D01*
X13248Y7379D01*
X13246Y7377D01*
X13244Y7375D01*
X13242Y7373D01*
X13239Y7371D01*
X13237Y7369D01*
X13235Y7368D01*
X13232Y7366D01*
X13230Y7364D01*
X13227Y7363D01*
X13225Y7361D01*
X13222Y7360D01*
X13220Y7358D01*
X13217Y7357D01*
X13214Y7356D01*
X13211Y7355D01*
X13209Y7354D01*
X13206Y7353D01*
X13203Y7352D01*
X13200Y7351D01*
X13197Y7351D01*
X13194Y7350D01*
X13192Y7349D01*
X13189Y7349D01*
X13186Y7349D01*
X13183Y7348D01*
X13180Y7348D01*
X13177Y7348D01*
X13174Y7348D01*
X13124D01*
X13121Y7348D01*
X13118Y7348D01*
X13115Y7348D01*
X13112Y7349D01*
X13109Y7349D01*
X13106Y7349D01*
X13104Y7350D01*
X13101Y7351D01*
X13098Y7351D01*
X13095Y7352D01*
X13092Y7353D01*
X13089Y7354D01*
X13087Y7355D01*
X13084Y7356D01*
X13081Y7357D01*
X13078Y7358D01*
X13076Y7360D01*
X13073Y7361D01*
X13071Y7363D01*
X13068Y7364D01*
X13066Y7366D01*
X13063Y7368D01*
X13061Y7369D01*
X13059Y7371D01*
X13056Y7373D01*
X13054Y7375D01*
X13052Y7377D01*
X13050Y7379D01*
X13048Y7381D01*
X13046Y7383D01*
X13044Y7386D01*
X13042Y7388D01*
X13040Y7390D01*
X13039Y7393D01*
X13037Y7395D01*
X13035Y7397D01*
X13034Y7400D01*
X13032Y7403D01*
X13031Y7405D01*
X13030Y7408D01*
X13029Y7411D01*
X13027Y7413D01*
X13026Y7416D01*
X13025Y7419D01*
X13025Y7422D01*
X13024Y7424D01*
X13023Y7427D01*
X13022Y7430D01*
X13022Y7433D01*
X13021Y7436D01*
X13021Y7439D01*
X13021Y7442D01*
X13020Y7445D01*
X13020Y7448D01*
X13020Y7451D01*
Y7453D01*
X13020Y7456D01*
X13020Y7459D01*
X13021Y7462D01*
X13021Y7465D01*
X13021Y7468D01*
X13022Y7471D01*
X13022Y7474D01*
X13023Y7477D01*
X13024Y7480D01*
X13025Y7482D01*
X13025Y7485D01*
X13026Y7488D01*
X13027Y7491D01*
X13029Y7493D01*
X13030Y7496D01*
X13031Y7499D01*
X13032Y7501D01*
X13034Y7504D01*
X13035Y7507D01*
X13037Y7509D01*
X13039Y7511D01*
X13040Y7514D01*
X13042Y7516D01*
X13044Y7518D01*
X13046Y7521D01*
X13048Y7523D01*
X13050Y7525D01*
X13052Y7527D01*
X13054Y7529D01*
X13056Y7531D01*
X13059Y7533D01*
X13061Y7535D01*
X13063Y7536D01*
X13066Y7538D01*
X13068Y7540D01*
X13071Y7541D01*
X13073Y7543D01*
X13076Y7544D01*
X13078Y7546D01*
X13081Y7547D01*
X13084Y7548D01*
X13087Y7549D01*
X13089Y7550D01*
X13092Y7551D01*
X13095Y7552D01*
X13098Y7553D01*
X13101Y7553D01*
X13104Y7554D01*
X13106Y7555D01*
X13109Y7555D01*
X13112Y7555D01*
X13115Y7556D01*
X13118Y7556D01*
X13121Y7556D01*
X13124Y7556D01*
Y7546D02*
X13174D01*
X13177Y7546D01*
X13180Y7546D01*
X13183Y7546D01*
X13186Y7545D01*
X13189Y7545D01*
X13192Y7544D01*
X13195Y7544D01*
X13198Y7543D01*
X13200Y7542D01*
X13203Y7541D01*
X13206Y7540D01*
X13209Y7539D01*
X13212Y7538D01*
X13214Y7537D01*
X13217Y7536D01*
X13220Y7534D01*
X13222Y7533D01*
X13225Y7531D01*
X13227Y7529D01*
X13230Y7528D01*
X13232Y7526D01*
X13234Y7524D01*
X13237Y7522D01*
X13239Y7520D01*
X13241Y7518D01*
X13243Y7516D01*
X13245Y7514D01*
X13247Y7511D01*
X13249Y7509D01*
X13251Y7507D01*
X13252Y7504D01*
X13254Y7502D01*
X13255Y7499D01*
X13257Y7496D01*
X13258Y7494D01*
X13260Y7491D01*
X13261Y7488D01*
X13262Y7486D01*
X13263Y7483D01*
X13264Y7480D01*
X13265Y7477D01*
X13265Y7474D01*
X13266Y7471D01*
X13267Y7468D01*
X13267Y7465D01*
X13267Y7462D01*
X13268Y7459D01*
X13268Y7456D01*
X13268Y7453D01*
Y7451D01*
X13268Y7448D01*
X13268Y7445D01*
X13267Y7442D01*
X13267Y7439D01*
X13267Y7436D01*
X13266Y7433D01*
X13265Y7430D01*
X13265Y7427D01*
X13264Y7424D01*
X13263Y7421D01*
X13262Y7418D01*
X13261Y7416D01*
X13260Y7413D01*
X13258Y7410D01*
X13257Y7408D01*
X13255Y7405D01*
X13254Y7402D01*
X13252Y7400D01*
X13251Y7397D01*
X13249Y7395D01*
X13247Y7393D01*
X13245Y7390D01*
X13243Y7388D01*
X13241Y7386D01*
X13239Y7384D01*
X13237Y7382D01*
X13234Y7380D01*
X13232Y7378D01*
X13230Y7376D01*
X13227Y7375D01*
X13225Y7373D01*
X13222Y7371D01*
X13220Y7370D01*
X13217Y7368D01*
X13214Y7367D01*
X13212Y7366D01*
X13209Y7365D01*
X13206Y7364D01*
X13203Y7363D01*
X13200Y7362D01*
X13198Y7361D01*
X13195Y7360D01*
X13192Y7360D01*
X13189Y7359D01*
X13186Y7359D01*
X13183Y7358D01*
X13180Y7358D01*
X13177Y7358D01*
X13174Y7358D01*
X13124D01*
X13121Y7358D01*
X13118Y7358D01*
X13115Y7358D01*
X13112Y7359D01*
X13109Y7359D01*
X13106Y7360D01*
X13103Y7360D01*
X13100Y7361D01*
X13098Y7362D01*
X13095Y7363D01*
X13092Y7364D01*
X13089Y7365D01*
X13086Y7366D01*
X13084Y7367D01*
X13081Y7368D01*
X13078Y7370D01*
X13076Y7371D01*
X13073Y7373D01*
X13071Y7375D01*
X13068Y7376D01*
X13066Y7378D01*
X13064Y7380D01*
X13061Y7382D01*
X13059Y7384D01*
X13057Y7386D01*
X13055Y7388D01*
X13053Y7390D01*
X13051Y7393D01*
X13049Y7395D01*
X13047Y7397D01*
X13046Y7400D01*
X13044Y7402D01*
X13043Y7405D01*
X13041Y7408D01*
X13040Y7410D01*
X13038Y7413D01*
X13037Y7416D01*
X13036Y7418D01*
X13035Y7421D01*
X13034Y7424D01*
X13033Y7427D01*
X13033Y7430D01*
X13032Y7433D01*
X13031Y7436D01*
X13031Y7439D01*
X13031Y7442D01*
X13030Y7445D01*
X13030Y7448D01*
X13030Y7451D01*
Y7453D01*
X13030Y7456D01*
X13030Y7459D01*
X13031Y7462D01*
X13031Y7465D01*
X13031Y7468D01*
X13032Y7471D01*
X13033Y7474D01*
X13033Y7477D01*
X13034Y7480D01*
X13035Y7483D01*
X13036Y7486D01*
X13037Y7488D01*
X13038Y7491D01*
X13040Y7494D01*
X13041Y7496D01*
X13043Y7499D01*
X13044Y7502D01*
X13046Y7504D01*
X13047Y7507D01*
X13049Y7509D01*
X13051Y7511D01*
X13053Y7514D01*
X13055Y7516D01*
X13057Y7518D01*
X13059Y7520D01*
X13061Y7522D01*
X13064Y7524D01*
X13066Y7526D01*
X13068Y7528D01*
X13071Y7529D01*
X13073Y7531D01*
X13076Y7533D01*
X13078Y7534D01*
X13081Y7536D01*
X13084Y7537D01*
X13086Y7538D01*
X13089Y7539D01*
X13092Y7540D01*
X13095Y7541D01*
X13098Y7542D01*
X13100Y7543D01*
X13103Y7544D01*
X13106Y7544D01*
X13109Y7545D01*
X13112Y7545D01*
X13115Y7546D01*
X13118Y7546D01*
X13121Y7546D01*
X13124Y7546D01*
Y7536D02*
X13174D01*
X13177Y7536D01*
X13180Y7536D01*
X13182Y7536D01*
X13185Y7535D01*
X13188Y7535D01*
X13191Y7534D01*
X13194Y7534D01*
X13196Y7533D01*
X13199Y7532D01*
X13202Y7531D01*
X13204Y7530D01*
X13207Y7529D01*
X13210Y7528D01*
X13212Y7527D01*
X13215Y7525D01*
X13217Y7524D01*
X13220Y7523D01*
X13222Y7521D01*
X13224Y7519D01*
X13227Y7518D01*
X13229Y7516D01*
X13231Y7514D01*
X13233Y7512D01*
X13235Y7510D01*
X13237Y7508D01*
X13239Y7506D01*
X13240Y7503D01*
X13242Y7501D01*
X13244Y7499D01*
X13245Y7496D01*
X13247Y7494D01*
X13248Y7492D01*
X13249Y7489D01*
X13251Y7486D01*
X13252Y7484D01*
X13253Y7481D01*
X13254Y7478D01*
X13255Y7476D01*
X13255Y7473D01*
X13256Y7470D01*
X13257Y7468D01*
X13257Y7465D01*
X13257Y7462D01*
X13258Y7459D01*
X13258Y7456D01*
X13258Y7453D01*
Y7451D01*
X13258Y7448D01*
X13258Y7445D01*
X13257Y7442D01*
X13257Y7439D01*
X13257Y7436D01*
X13256Y7434D01*
X13255Y7431D01*
X13255Y7428D01*
X13254Y7426D01*
X13253Y7423D01*
X13252Y7420D01*
X13251Y7418D01*
X13249Y7415D01*
X13248Y7412D01*
X13247Y7410D01*
X13245Y7408D01*
X13244Y7405D01*
X13242Y7403D01*
X13240Y7401D01*
X13239Y7398D01*
X13237Y7396D01*
X13235Y7394D01*
X13233Y7392D01*
X13231Y7390D01*
X13229Y7388D01*
X13227Y7386D01*
X13224Y7385D01*
X13222Y7383D01*
X13220Y7381D01*
X13217Y7380D01*
X13215Y7379D01*
X13212Y7377D01*
X13210Y7376D01*
X13207Y7375D01*
X13204Y7374D01*
X13202Y7373D01*
X13199Y7372D01*
X13196Y7371D01*
X13194Y7370D01*
X13191Y7370D01*
X13188Y7369D01*
X13185Y7369D01*
X13182Y7368D01*
X13180Y7368D01*
X13177Y7368D01*
X13174Y7368D01*
X13124D01*
X13121Y7368D01*
X13118Y7368D01*
X13116Y7368D01*
X13113Y7369D01*
X13110Y7369D01*
X13107Y7370D01*
X13104Y7370D01*
X13102Y7371D01*
X13099Y7372D01*
X13096Y7373D01*
X13094Y7374D01*
X13091Y7375D01*
X13088Y7376D01*
X13086Y7377D01*
X13083Y7379D01*
X13081Y7380D01*
X13078Y7381D01*
X13076Y7383D01*
X13074Y7385D01*
X13071Y7386D01*
X13069Y7388D01*
X13067Y7390D01*
X13065Y7392D01*
X13063Y7394D01*
X13061Y7396D01*
X13059Y7398D01*
X13058Y7401D01*
X13056Y7403D01*
X13054Y7405D01*
X13053Y7408D01*
X13051Y7410D01*
X13050Y7412D01*
X13049Y7415D01*
X13047Y7418D01*
X13046Y7420D01*
X13045Y7423D01*
X13044Y7426D01*
X13043Y7428D01*
X13043Y7431D01*
X13042Y7434D01*
X13041Y7436D01*
X13041Y7439D01*
X13041Y7442D01*
X13040Y7445D01*
X13040Y7448D01*
X13040Y7451D01*
Y7453D01*
X13040Y7456D01*
X13040Y7459D01*
X13041Y7462D01*
X13041Y7465D01*
X13041Y7468D01*
X13042Y7470D01*
X13043Y7473D01*
X13043Y7476D01*
X13044Y7478D01*
X13045Y7481D01*
X13046Y7484D01*
X13047Y7486D01*
X13049Y7489D01*
X13050Y7492D01*
X13051Y7494D01*
X13053Y7496D01*
X13054Y7499D01*
X13056Y7501D01*
X13058Y7503D01*
X13059Y7506D01*
X13061Y7508D01*
X13063Y7510D01*
X13065Y7512D01*
X13067Y7514D01*
X13069Y7516D01*
X13071Y7518D01*
X13074Y7519D01*
X13076Y7521D01*
X13078Y7523D01*
X13081Y7524D01*
X13083Y7525D01*
X13086Y7527D01*
X13088Y7528D01*
X13091Y7529D01*
X13094Y7530D01*
X13096Y7531D01*
X13099Y7532D01*
X13102Y7533D01*
X13104Y7534D01*
X13107Y7534D01*
X13110Y7535D01*
X13113Y7535D01*
X13116Y7536D01*
X13118Y7536D01*
X13121Y7536D01*
X13124Y7536D01*
Y7526D02*
X13174D01*
X13177Y7526D01*
X13180Y7526D01*
X13183Y7526D01*
X13185Y7525D01*
X13188Y7525D01*
X13191Y7524D01*
X13194Y7523D01*
X13197Y7522D01*
X13199Y7522D01*
X13202Y7521D01*
X13205Y7519D01*
X13207Y7518D01*
X13210Y7517D01*
X13212Y7515D01*
X13215Y7514D01*
X13217Y7512D01*
X13219Y7510D01*
X13222Y7509D01*
X13224Y7507D01*
X13226Y7505D01*
X13228Y7503D01*
X13230Y7501D01*
X13232Y7498D01*
X13233Y7496D01*
X13235Y7494D01*
X13237Y7491D01*
X13238Y7489D01*
X13239Y7486D01*
X13241Y7484D01*
X13242Y7481D01*
X13243Y7479D01*
X13244Y7476D01*
X13245Y7473D01*
X13246Y7470D01*
X13246Y7468D01*
X13247Y7465D01*
X13247Y7462D01*
X13248Y7459D01*
X13248Y7456D01*
X13248Y7453D01*
Y7451D01*
X13248Y7448D01*
X13248Y7445D01*
X13247Y7442D01*
X13247Y7439D01*
X13246Y7436D01*
X13246Y7434D01*
X13245Y7431D01*
X13244Y7428D01*
X13243Y7425D01*
X13242Y7423D01*
X13241Y7420D01*
X13239Y7418D01*
X13238Y7415D01*
X13237Y7413D01*
X13235Y7410D01*
X13233Y7408D01*
X13232Y7406D01*
X13230Y7403D01*
X13228Y7401D01*
X13226Y7399D01*
X13224Y7397D01*
X13222Y7395D01*
X13219Y7394D01*
X13217Y7392D01*
X13215Y7390D01*
X13212Y7389D01*
X13210Y7387D01*
X13207Y7386D01*
X13205Y7385D01*
X13202Y7383D01*
X13199Y7382D01*
X13197Y7382D01*
X13194Y7381D01*
X13191Y7380D01*
X13188Y7379D01*
X13185Y7379D01*
X13183Y7378D01*
X13180Y7378D01*
X13177Y7378D01*
X13174Y7378D01*
X13124D01*
X13121Y7378D01*
X13118Y7378D01*
X13115Y7378D01*
X13113Y7379D01*
X13110Y7379D01*
X13107Y7380D01*
X13104Y7381D01*
X13101Y7382D01*
X13099Y7382D01*
X13096Y7383D01*
X13093Y7385D01*
X13091Y7386D01*
X13088Y7387D01*
X13086Y7389D01*
X13083Y7390D01*
X13081Y7392D01*
X13079Y7394D01*
X13076Y7395D01*
X13074Y7397D01*
X13072Y7399D01*
X13070Y7401D01*
X13068Y7403D01*
X13066Y7406D01*
X13065Y7408D01*
X13063Y7410D01*
X13061Y7413D01*
X13060Y7415D01*
X13059Y7418D01*
X13057Y7420D01*
X13056Y7423D01*
X13055Y7425D01*
X13054Y7428D01*
X13053Y7431D01*
X13052Y7434D01*
X13052Y7436D01*
X13051Y7439D01*
X13051Y7442D01*
X13050Y7445D01*
X13050Y7448D01*
X13050Y7451D01*
Y7453D01*
X13050Y7456D01*
X13050Y7459D01*
X13051Y7462D01*
X13051Y7465D01*
X13052Y7468D01*
X13052Y7470D01*
X13053Y7473D01*
X13054Y7476D01*
X13055Y7479D01*
X13056Y7481D01*
X13057Y7484D01*
X13059Y7486D01*
X13060Y7489D01*
X13061Y7491D01*
X13063Y7494D01*
X13065Y7496D01*
X13066Y7498D01*
X13068Y7501D01*
X13070Y7503D01*
X13072Y7505D01*
X13074Y7507D01*
X13076Y7509D01*
X13079Y7510D01*
X13081Y7512D01*
X13083Y7514D01*
X13086Y7515D01*
X13088Y7517D01*
X13091Y7518D01*
X13093Y7519D01*
X13096Y7521D01*
X13099Y7522D01*
X13101Y7522D01*
X13104Y7523D01*
X13107Y7524D01*
X13110Y7525D01*
X13113Y7525D01*
X13115Y7526D01*
X13118Y7526D01*
X13121Y7526D01*
X13124Y7526D01*
Y7516D02*
X13174D01*
X13177Y7516D01*
X13180Y7516D01*
X13183Y7515D01*
X13186Y7515D01*
X13188Y7514D01*
X13191Y7514D01*
X13194Y7513D01*
X13197Y7512D01*
X13199Y7511D01*
X13202Y7509D01*
X13205Y7508D01*
X13207Y7507D01*
X13210Y7505D01*
X13212Y7503D01*
X13214Y7502D01*
X13217Y7500D01*
X13219Y7498D01*
X13221Y7496D01*
X13223Y7494D01*
X13225Y7491D01*
X13226Y7489D01*
X13228Y7486D01*
X13229Y7484D01*
X13231Y7481D01*
X13232Y7479D01*
X13233Y7476D01*
X13234Y7473D01*
X13235Y7471D01*
X13236Y7468D01*
X13237Y7465D01*
X13237Y7462D01*
X13238Y7459D01*
X13238Y7456D01*
X13238Y7453D01*
Y7451D01*
X13238Y7448D01*
X13238Y7445D01*
X13237Y7442D01*
X13237Y7439D01*
X13236Y7436D01*
X13235Y7433D01*
X13234Y7431D01*
X13233Y7428D01*
X13232Y7425D01*
X13231Y7423D01*
X13229Y7420D01*
X13228Y7418D01*
X13226Y7415D01*
X13225Y7413D01*
X13223Y7410D01*
X13221Y7408D01*
X13219Y7406D01*
X13217Y7404D01*
X13214Y7402D01*
X13212Y7401D01*
X13210Y7399D01*
X13207Y7397D01*
X13205Y7396D01*
X13202Y7395D01*
X13199Y7393D01*
X13197Y7392D01*
X13194Y7391D01*
X13191Y7390D01*
X13188Y7390D01*
X13186Y7389D01*
X13183Y7389D01*
X13180Y7388D01*
X13177Y7388D01*
X13174Y7388D01*
X13124D01*
X13121Y7388D01*
X13118Y7388D01*
X13115Y7389D01*
X13112Y7389D01*
X13110Y7390D01*
X13107Y7390D01*
X13104Y7391D01*
X13101Y7392D01*
X13099Y7393D01*
X13096Y7395D01*
X13093Y7396D01*
X13091Y7397D01*
X13088Y7399D01*
X13086Y7401D01*
X13084Y7402D01*
X13081Y7404D01*
X13079Y7406D01*
X13077Y7408D01*
X13075Y7410D01*
X13073Y7413D01*
X13072Y7415D01*
X13070Y7418D01*
X13069Y7420D01*
X13067Y7423D01*
X13066Y7425D01*
X13065Y7428D01*
X13064Y7431D01*
X13063Y7433D01*
X13062Y7436D01*
X13061Y7439D01*
X13061Y7442D01*
X13060Y7445D01*
X13060Y7448D01*
X13060Y7451D01*
Y7453D01*
X13060Y7456D01*
X13060Y7459D01*
X13061Y7462D01*
X13061Y7465D01*
X13062Y7468D01*
X13063Y7471D01*
X13064Y7473D01*
X13065Y7476D01*
X13066Y7479D01*
X13067Y7481D01*
X13069Y7484D01*
X13070Y7486D01*
X13072Y7489D01*
X13073Y7491D01*
X13075Y7494D01*
X13077Y7496D01*
X13079Y7498D01*
X13081Y7500D01*
X13084Y7502D01*
X13086Y7503D01*
X13088Y7505D01*
X13091Y7507D01*
X13093Y7508D01*
X13096Y7509D01*
X13099Y7511D01*
X13101Y7512D01*
X13104Y7513D01*
X13107Y7514D01*
X13110Y7514D01*
X13112Y7515D01*
X13115Y7515D01*
X13118Y7516D01*
X13121Y7516D01*
X13124Y7516D01*
Y7506D02*
X13174D01*
X13177Y7506D01*
X13179Y7506D01*
X13182Y7505D01*
X13185Y7505D01*
X13187Y7504D01*
X13190Y7504D01*
X13192Y7503D01*
X13195Y7502D01*
X13197Y7501D01*
X13200Y7499D01*
X13202Y7498D01*
X13204Y7497D01*
X13207Y7495D01*
X13209Y7493D01*
X13211Y7492D01*
X13213Y7490D01*
X13214Y7488D01*
X13216Y7486D01*
X13218Y7484D01*
X13219Y7481D01*
X13221Y7479D01*
X13222Y7477D01*
X13223Y7474D01*
X13224Y7472D01*
X13225Y7469D01*
X13226Y7467D01*
X13227Y7464D01*
X13227Y7461D01*
X13228Y7459D01*
X13228Y7456D01*
X13228Y7453D01*
Y7451D01*
X13228Y7448D01*
X13228Y7445D01*
X13227Y7443D01*
X13227Y7440D01*
X13226Y7437D01*
X13225Y7435D01*
X13224Y7432D01*
X13223Y7430D01*
X13222Y7427D01*
X13221Y7425D01*
X13219Y7423D01*
X13218Y7420D01*
X13216Y7418D01*
X13214Y7416D01*
X13213Y7414D01*
X13211Y7412D01*
X13209Y7411D01*
X13207Y7409D01*
X13204Y7407D01*
X13202Y7406D01*
X13200Y7405D01*
X13197Y7403D01*
X13195Y7402D01*
X13192Y7401D01*
X13190Y7400D01*
X13187Y7400D01*
X13185Y7399D01*
X13182Y7399D01*
X13179Y7398D01*
X13177Y7398D01*
X13174Y7398D01*
X13124D01*
X13121Y7398D01*
X13119Y7398D01*
X13116Y7399D01*
X13113Y7399D01*
X13111Y7400D01*
X13108Y7400D01*
X13106Y7401D01*
X13103Y7402D01*
X13101Y7403D01*
X13098Y7405D01*
X13096Y7406D01*
X13094Y7407D01*
X13091Y7409D01*
X13089Y7411D01*
X13087Y7412D01*
X13085Y7414D01*
X13084Y7416D01*
X13082Y7418D01*
X13080Y7420D01*
X13079Y7423D01*
X13077Y7425D01*
X13076Y7427D01*
X13075Y7430D01*
X13074Y7432D01*
X13073Y7435D01*
X13072Y7437D01*
X13071Y7440D01*
X13071Y7443D01*
X13070Y7445D01*
X13070Y7448D01*
X13070Y7451D01*
Y7453D01*
X13070Y7456D01*
X13070Y7459D01*
X13071Y7461D01*
X13071Y7464D01*
X13072Y7467D01*
X13073Y7469D01*
X13074Y7472D01*
X13075Y7474D01*
X13076Y7477D01*
X13077Y7479D01*
X13079Y7481D01*
X13080Y7484D01*
X13082Y7486D01*
X13084Y7488D01*
X13085Y7490D01*
X13087Y7492D01*
X13089Y7493D01*
X13091Y7495D01*
X13094Y7497D01*
X13096Y7498D01*
X13098Y7499D01*
X13101Y7501D01*
X13103Y7502D01*
X13106Y7503D01*
X13108Y7504D01*
X13111Y7504D01*
X13113Y7505D01*
X13116Y7505D01*
X13119Y7506D01*
X13121Y7506D01*
X13124Y7506D01*
Y7496D02*
X13174D01*
X13177Y7496D01*
X13179Y7496D01*
X13182Y7495D01*
X13185Y7495D01*
X13187Y7494D01*
X13190Y7493D01*
X13192Y7492D01*
X13195Y7491D01*
X13197Y7489D01*
X13199Y7488D01*
X13202Y7486D01*
X13204Y7485D01*
X13206Y7483D01*
X13207Y7481D01*
X13209Y7479D01*
X13211Y7476D01*
X13212Y7474D01*
X13213Y7472D01*
X13215Y7469D01*
X13215Y7467D01*
X13216Y7464D01*
X13217Y7461D01*
X13217Y7459D01*
X13218Y7456D01*
X13218Y7453D01*
Y7451D01*
X13218Y7448D01*
X13217Y7445D01*
X13217Y7443D01*
X13216Y7440D01*
X13215Y7437D01*
X13215Y7435D01*
X13213Y7432D01*
X13212Y7430D01*
X13211Y7428D01*
X13209Y7425D01*
X13207Y7423D01*
X13206Y7421D01*
X13204Y7419D01*
X13202Y7418D01*
X13199Y7416D01*
X13197Y7415D01*
X13195Y7413D01*
X13192Y7412D01*
X13190Y7411D01*
X13187Y7410D01*
X13185Y7409D01*
X13182Y7409D01*
X13179Y7408D01*
X13177Y7408D01*
X13174Y7408D01*
X13124D01*
X13121Y7408D01*
X13119Y7408D01*
X13116Y7409D01*
X13113Y7409D01*
X13111Y7410D01*
X13108Y7411D01*
X13106Y7412D01*
X13103Y7413D01*
X13101Y7415D01*
X13099Y7416D01*
X13096Y7418D01*
X13094Y7419D01*
X13092Y7421D01*
X13091Y7423D01*
X13089Y7425D01*
X13087Y7428D01*
X13086Y7430D01*
X13085Y7432D01*
X13083Y7435D01*
X13083Y7437D01*
X13082Y7440D01*
X13081Y7443D01*
X13081Y7445D01*
X13080Y7448D01*
X13080Y7451D01*
Y7453D01*
X13080Y7456D01*
X13081Y7459D01*
X13081Y7461D01*
X13082Y7464D01*
X13083Y7467D01*
X13083Y7469D01*
X13085Y7472D01*
X13086Y7474D01*
X13087Y7476D01*
X13089Y7479D01*
X13091Y7481D01*
X13092Y7483D01*
X13094Y7485D01*
X13096Y7486D01*
X13099Y7488D01*
X13101Y7489D01*
X13103Y7491D01*
X13106Y7492D01*
X13108Y7493D01*
X13111Y7494D01*
X13113Y7495D01*
X13116Y7495D01*
X13119Y7496D01*
X13121Y7496D01*
X13124Y7496D01*
Y7486D02*
X13174D01*
X13177Y7486D01*
X13179Y7486D01*
X13182Y7485D01*
X13185Y7484D01*
X13187Y7483D01*
X13190Y7482D01*
X13192Y7481D01*
X13194Y7479D01*
X13197Y7477D01*
X13199Y7476D01*
X13200Y7474D01*
X13202Y7471D01*
X13203Y7469D01*
X13205Y7467D01*
X13206Y7464D01*
X13207Y7461D01*
X13207Y7459D01*
X13208Y7456D01*
X13208Y7453D01*
Y7451D01*
X13208Y7448D01*
X13207Y7445D01*
X13207Y7443D01*
X13206Y7440D01*
X13205Y7437D01*
X13203Y7435D01*
X13202Y7433D01*
X13200Y7430D01*
X13199Y7428D01*
X13197Y7427D01*
X13194Y7425D01*
X13192Y7423D01*
X13190Y7422D01*
X13187Y7421D01*
X13185Y7420D01*
X13182Y7419D01*
X13179Y7418D01*
X13177Y7418D01*
X13174Y7418D01*
X13124D01*
X13121Y7418D01*
X13119Y7418D01*
X13116Y7419D01*
X13113Y7420D01*
X13111Y7421D01*
X13108Y7422D01*
X13106Y7423D01*
X13104Y7425D01*
X13101Y7427D01*
X13099Y7428D01*
X13098Y7430D01*
X13096Y7433D01*
X13095Y7435D01*
X13093Y7437D01*
X13092Y7440D01*
X13091Y7443D01*
X13091Y7445D01*
X13090Y7448D01*
X13090Y7451D01*
Y7453D01*
X13090Y7456D01*
X13091Y7459D01*
X13091Y7461D01*
X13092Y7464D01*
X13093Y7467D01*
X13095Y7469D01*
X13096Y7471D01*
X13098Y7474D01*
X13099Y7476D01*
X13101Y7477D01*
X13104Y7479D01*
X13106Y7481D01*
X13108Y7482D01*
X13111Y7483D01*
X13113Y7484D01*
X13116Y7485D01*
X13119Y7486D01*
X13121Y7486D01*
X13124Y7486D01*
Y7476D02*
X13174D01*
X13176Y7476D01*
X13179Y7476D01*
X13181Y7475D01*
X13183Y7474D01*
X13185Y7473D01*
X13187Y7472D01*
X13189Y7471D01*
X13191Y7469D01*
X13192Y7468D01*
X13194Y7466D01*
X13195Y7464D01*
X13196Y7462D01*
X13197Y7460D01*
X13197Y7458D01*
X13198Y7455D01*
X13198Y7453D01*
Y7451D01*
X13198Y7449D01*
X13197Y7446D01*
X13197Y7444D01*
X13196Y7442D01*
X13195Y7440D01*
X13194Y7438D01*
X13192Y7436D01*
X13191Y7435D01*
X13189Y7433D01*
X13187Y7432D01*
X13185Y7431D01*
X13183Y7430D01*
X13181Y7429D01*
X13179Y7428D01*
X13176Y7428D01*
X13174Y7428D01*
X13124D01*
X13122Y7428D01*
X13119Y7428D01*
X13117Y7429D01*
X13115Y7430D01*
X13113Y7431D01*
X13111Y7432D01*
X13109Y7433D01*
X13107Y7435D01*
X13106Y7436D01*
X13104Y7438D01*
X13103Y7440D01*
X13102Y7442D01*
X13101Y7444D01*
X13101Y7446D01*
X13100Y7449D01*
X13100Y7451D01*
Y7453D01*
X13100Y7455D01*
X13101Y7458D01*
X13101Y7460D01*
X13102Y7462D01*
X13103Y7464D01*
X13104Y7466D01*
X13106Y7468D01*
X13107Y7469D01*
X13109Y7471D01*
X13111Y7472D01*
X13113Y7473D01*
X13115Y7474D01*
X13117Y7475D01*
X13119Y7476D01*
X13122Y7476D01*
X13124Y7476D01*
Y7466D02*
X13174D01*
X13176Y7466D01*
X13178Y7465D01*
X13180Y7465D01*
X13182Y7464D01*
X13184Y7462D01*
X13185Y7461D01*
X13186Y7459D01*
X13187Y7457D01*
X13188Y7455D01*
X13188Y7453D01*
Y7451D01*
X13188Y7449D01*
X13187Y7447D01*
X13186Y7445D01*
X13185Y7443D01*
X13184Y7442D01*
X13182Y7440D01*
X13180Y7439D01*
X13178Y7439D01*
X13176Y7438D01*
X13174Y7438D01*
X13124D01*
X13122Y7438D01*
X13120Y7439D01*
X13118Y7439D01*
X13116Y7440D01*
X13114Y7442D01*
X13113Y7443D01*
X13112Y7445D01*
X13111Y7447D01*
X13110Y7449D01*
X13110Y7451D01*
Y7453D01*
X13110Y7455D01*
X13111Y7457D01*
X13112Y7459D01*
X13113Y7461D01*
X13114Y7462D01*
X13116Y7464D01*
X13118Y7465D01*
X13120Y7465D01*
X13122Y7466D01*
X13124Y7466D01*
Y7456D02*
X13174D01*
X13175Y7456D01*
X13177Y7455D01*
X13177Y7454D01*
X13178Y7453D01*
Y7451D01*
X13177Y7450D01*
X13177Y7449D01*
X13175Y7448D01*
X13174Y7448D01*
X13124D01*
X13123Y7448D01*
X13121Y7449D01*
X13121Y7450D01*
X13120Y7451D01*
Y7453D01*
X13121Y7454D01*
X13121Y7455D01*
X13123Y7456D01*
X13124Y7456D01*
Y7452D02*
X13174D01*
Y8196D02*
X6074D01*
X6071Y8196D01*
X6068Y8196D01*
X6065Y8196D01*
X6062Y8196D01*
X6059Y8195D01*
X6056Y8195D01*
X6053Y8195D01*
X6050Y8194D01*
X6048Y8194D01*
X6045Y8193D01*
X6042Y8192D01*
X6039Y8192D01*
X6036Y8191D01*
X6033Y8190D01*
X6030Y8189D01*
X6028Y8188D01*
X6025Y8187D01*
X6022Y8186D01*
X6019Y8185D01*
X6017Y8184D01*
X6014Y8183D01*
X6011Y8182D01*
X6008Y8180D01*
X6006Y8179D01*
X6003Y8177D01*
X6001Y8176D01*
X5998Y8174D01*
X5996Y8173D01*
X5993Y8171D01*
X5991Y8170D01*
X5988Y8168D01*
X5986Y8166D01*
X5984Y8164D01*
X5981Y8162D01*
X5979Y8160D01*
X5977Y8158D01*
X5975Y8156D01*
X5973Y8154D01*
X5971Y8152D01*
X5969Y8150D01*
X5967Y8148D01*
X5965Y8146D01*
X5963Y8143D01*
X5961Y8141D01*
X5959Y8139D01*
X5957Y8136D01*
X5956Y8134D01*
X5954Y8132D01*
X5952Y8129D01*
X5951Y8127D01*
X5949Y8124D01*
X5948Y8121D01*
X5946Y8119D01*
X5945Y8116D01*
X5944Y8114D01*
X5943Y8111D01*
X5941Y8108D01*
X5940Y8105D01*
X5939Y8103D01*
X5938Y8100D01*
X5937Y8097D01*
X5936Y8094D01*
X5935Y8091D01*
X5935Y8089D01*
X5934Y8086D01*
X5933Y8083D01*
X5933Y8080D01*
X5932Y8077D01*
X5932Y8074D01*
X5931Y8071D01*
X5931Y8068D01*
X5931Y8065D01*
X5930Y8062D01*
X5930Y8059D01*
X5930Y8056D01*
X5930Y8053D01*
Y8051D01*
X5930Y8048D01*
X5930Y8045D01*
X5930Y8042D01*
X5931Y8039D01*
X5931Y8036D01*
X5931Y8033D01*
X5932Y8030D01*
X5932Y8027D01*
X5933Y8024D01*
X5933Y8021D01*
X5934Y8018D01*
X5935Y8015D01*
X5935Y8013D01*
X5936Y8010D01*
X5937Y8007D01*
X5938Y8004D01*
X5939Y8001D01*
X5940Y7999D01*
X5941Y7996D01*
X5943Y7993D01*
X5944Y7990D01*
X5945Y7988D01*
X5946Y7985D01*
X5948Y7983D01*
X5949Y7980D01*
X5951Y7977D01*
X5952Y7975D01*
X5954Y7972D01*
X5956Y7970D01*
X5957Y7968D01*
X5959Y7965D01*
X5961Y7963D01*
X5963Y7961D01*
X5965Y7958D01*
X5967Y7956D01*
X5969Y7954D01*
X5971Y7952D01*
X5973Y7950D01*
X5975Y7948D01*
X5977Y7946D01*
X5979Y7944D01*
X5981Y7942D01*
X5984Y7940D01*
X5986Y7938D01*
X5988Y7936D01*
X5991Y7934D01*
X5993Y7933D01*
X5996Y7931D01*
X5998Y7930D01*
X6001Y7928D01*
X6003Y7927D01*
X6006Y7925D01*
X6008Y7924D01*
X6011Y7922D01*
X6014Y7921D01*
X6017Y7920D01*
X6019Y7919D01*
X6022Y7918D01*
X6025Y7917D01*
X6028Y7916D01*
X6030Y7915D01*
X6033Y7914D01*
X6036Y7913D01*
X6039Y7912D01*
X6042Y7912D01*
X6045Y7911D01*
X6048Y7910D01*
X6050Y7910D01*
X6053Y7909D01*
X6056Y7909D01*
X6059Y7909D01*
X6062Y7908D01*
X6065Y7908D01*
X6068Y7908D01*
X6071Y7908D01*
X6074Y7908D01*
X13174D01*
X13177Y7908D01*
X13180Y7908D01*
X13183Y7908D01*
X13186Y7908D01*
X13189Y7909D01*
X13192Y7909D01*
X13195Y7909D01*
X13198Y7910D01*
X13200Y7910D01*
X13203Y7911D01*
X13206Y7912D01*
X13209Y7912D01*
X13212Y7913D01*
X13215Y7914D01*
X13218Y7915D01*
X13220Y7916D01*
X13223Y7917D01*
X13226Y7918D01*
X13229Y7919D01*
X13231Y7920D01*
X13234Y7921D01*
X13237Y7922D01*
X13240Y7924D01*
X13242Y7925D01*
X13245Y7927D01*
X13247Y7928D01*
X13250Y7930D01*
X13252Y7931D01*
X13255Y7933D01*
X13257Y7934D01*
X13260Y7936D01*
X13262Y7938D01*
X13264Y7940D01*
X13267Y7942D01*
X13269Y7944D01*
X13271Y7946D01*
X13273Y7948D01*
X13275Y7950D01*
X13277Y7952D01*
X13279Y7954D01*
X13281Y7956D01*
X13283Y7958D01*
X13285Y7961D01*
X13287Y7963D01*
X13289Y7965D01*
X13291Y7968D01*
X13292Y7970D01*
X13294Y7972D01*
X13296Y7975D01*
X13297Y7977D01*
X13299Y7980D01*
X13300Y7983D01*
X13302Y7985D01*
X13303Y7988D01*
X13304Y7990D01*
X13305Y7993D01*
X13307Y7996D01*
X13308Y7999D01*
X13309Y8001D01*
X13310Y8004D01*
X13311Y8007D01*
X13312Y8010D01*
X13313Y8013D01*
X13313Y8015D01*
X13314Y8018D01*
X13315Y8021D01*
X13315Y8024D01*
X13316Y8027D01*
X13316Y8030D01*
X13317Y8033D01*
X13317Y8036D01*
X13317Y8039D01*
X13318Y8042D01*
X13318Y8045D01*
X13318Y8048D01*
X13318Y8051D01*
Y8053D01*
X13318Y8056D01*
X13318Y8059D01*
X13318Y8062D01*
X13317Y8065D01*
X13317Y8068D01*
X13317Y8071D01*
X13316Y8074D01*
X13316Y8077D01*
X13315Y8080D01*
X13315Y8083D01*
X13314Y8086D01*
X13313Y8089D01*
X13313Y8091D01*
X13312Y8094D01*
X13311Y8097D01*
X13310Y8100D01*
X13309Y8103D01*
X13308Y8105D01*
X13307Y8108D01*
X13305Y8111D01*
X13304Y8114D01*
X13303Y8116D01*
X13302Y8119D01*
X13300Y8121D01*
X13299Y8124D01*
X13297Y8127D01*
X13296Y8129D01*
X13294Y8132D01*
X13292Y8134D01*
X13291Y8136D01*
X13289Y8139D01*
X13287Y8141D01*
X13285Y8143D01*
X13283Y8146D01*
X13281Y8148D01*
X13279Y8150D01*
X13277Y8152D01*
X13275Y8154D01*
X13273Y8156D01*
X13271Y8158D01*
X13269Y8160D01*
X13267Y8162D01*
X13264Y8164D01*
X13262Y8166D01*
X13260Y8168D01*
X13257Y8170D01*
X13255Y8171D01*
X13252Y8173D01*
X13250Y8174D01*
X13247Y8176D01*
X13245Y8177D01*
X13242Y8179D01*
X13240Y8180D01*
X13237Y8182D01*
X13234Y8183D01*
X13231Y8184D01*
X13229Y8185D01*
X13226Y8186D01*
X13223Y8187D01*
X13220Y8188D01*
X13218Y8189D01*
X13215Y8190D01*
X13212Y8191D01*
X13209Y8192D01*
X13206Y8192D01*
X13203Y8193D01*
X13200Y8194D01*
X13198Y8194D01*
X13195Y8195D01*
X13192Y8195D01*
X13189Y8195D01*
X13186Y8196D01*
X13183Y8196D01*
X13180Y8196D01*
X13177Y8196D01*
X13174Y8196D01*
Y8186D02*
X6074D01*
X6071Y8186D01*
X6068Y8186D01*
X6065Y8186D01*
X6062Y8185D01*
X6059Y8185D01*
X6056Y8185D01*
X6053Y8184D01*
X6050Y8184D01*
X6047Y8183D01*
X6044Y8183D01*
X6041Y8182D01*
X6039Y8181D01*
X6036Y8180D01*
X6033Y8180D01*
X6030Y8179D01*
X6027Y8178D01*
X6024Y8177D01*
X6022Y8175D01*
X6019Y8174D01*
X6016Y8173D01*
X6014Y8172D01*
X6011Y8170D01*
X6008Y8169D01*
X6006Y8167D01*
X6003Y8166D01*
X6001Y8164D01*
X5998Y8162D01*
X5996Y8161D01*
X5993Y8159D01*
X5991Y8157D01*
X5989Y8155D01*
X5986Y8153D01*
X5984Y8151D01*
X5982Y8149D01*
X5980Y8147D01*
X5978Y8145D01*
X5976Y8143D01*
X5974Y8141D01*
X5972Y8139D01*
X5970Y8136D01*
X5968Y8134D01*
X5966Y8131D01*
X5964Y8129D01*
X5963Y8127D01*
X5961Y8124D01*
X5959Y8122D01*
X5958Y8119D01*
X5956Y8116D01*
X5955Y8114D01*
X5954Y8111D01*
X5952Y8108D01*
X5951Y8106D01*
X5950Y8103D01*
X5949Y8100D01*
X5948Y8097D01*
X5947Y8095D01*
X5946Y8092D01*
X5945Y8089D01*
X5944Y8086D01*
X5944Y8083D01*
X5943Y8080D01*
X5942Y8077D01*
X5942Y8074D01*
X5941Y8071D01*
X5941Y8068D01*
X5941Y8065D01*
X5940Y8062D01*
X5940Y8059D01*
X5940Y8056D01*
X5940Y8053D01*
Y8051D01*
X5940Y8048D01*
X5940Y8045D01*
X5940Y8042D01*
X5941Y8039D01*
X5941Y8036D01*
X5941Y8033D01*
X5942Y8030D01*
X5942Y8027D01*
X5943Y8024D01*
X5944Y8021D01*
X5944Y8018D01*
X5945Y8015D01*
X5946Y8012D01*
X5947Y8009D01*
X5948Y8007D01*
X5949Y8004D01*
X5950Y8001D01*
X5951Y7998D01*
X5952Y7996D01*
X5954Y7993D01*
X5955Y7990D01*
X5956Y7988D01*
X5958Y7985D01*
X5959Y7982D01*
X5961Y7980D01*
X5963Y7977D01*
X5964Y7975D01*
X5966Y7973D01*
X5968Y7970D01*
X5970Y7968D01*
X5972Y7965D01*
X5974Y7963D01*
X5976Y7961D01*
X5978Y7959D01*
X5980Y7957D01*
X5982Y7955D01*
X5984Y7953D01*
X5986Y7951D01*
X5989Y7949D01*
X5991Y7947D01*
X5993Y7945D01*
X5996Y7943D01*
X5998Y7942D01*
X6001Y7940D01*
X6003Y7938D01*
X6006Y7937D01*
X6008Y7935D01*
X6011Y7934D01*
X6014Y7932D01*
X6016Y7931D01*
X6019Y7930D01*
X6022Y7929D01*
X6024Y7927D01*
X6027Y7926D01*
X6030Y7925D01*
X6033Y7924D01*
X6036Y7924D01*
X6039Y7923D01*
X6041Y7922D01*
X6044Y7921D01*
X6047Y7921D01*
X6050Y7920D01*
X6053Y7920D01*
X6056Y7919D01*
X6059Y7919D01*
X6062Y7919D01*
X6065Y7918D01*
X6068Y7918D01*
X6071Y7918D01*
X6074Y7918D01*
X13174D01*
X13177Y7918D01*
X13180Y7918D01*
X13183Y7918D01*
X13186Y7919D01*
X13189Y7919D01*
X13192Y7919D01*
X13195Y7920D01*
X13198Y7920D01*
X13201Y7921D01*
X13204Y7921D01*
X13207Y7922D01*
X13209Y7923D01*
X13212Y7924D01*
X13215Y7924D01*
X13218Y7925D01*
X13221Y7926D01*
X13224Y7927D01*
X13226Y7929D01*
X13229Y7930D01*
X13232Y7931D01*
X13234Y7932D01*
X13237Y7934D01*
X13240Y7935D01*
X13242Y7937D01*
X13245Y7938D01*
X13247Y7940D01*
X13250Y7942D01*
X13252Y7943D01*
X13255Y7945D01*
X13257Y7947D01*
X13259Y7949D01*
X13262Y7951D01*
X13264Y7953D01*
X13266Y7955D01*
X13268Y7957D01*
X13270Y7959D01*
X13272Y7961D01*
X13274Y7963D01*
X13276Y7965D01*
X13278Y7968D01*
X13280Y7970D01*
X13282Y7973D01*
X13284Y7975D01*
X13285Y7977D01*
X13287Y7980D01*
X13289Y7982D01*
X13290Y7985D01*
X13292Y7988D01*
X13293Y7990D01*
X13294Y7993D01*
X13296Y7996D01*
X13297Y7998D01*
X13298Y8001D01*
X13299Y8004D01*
X13300Y8007D01*
X13301Y8009D01*
X13302Y8012D01*
X13303Y8015D01*
X13304Y8018D01*
X13304Y8021D01*
X13305Y8024D01*
X13306Y8027D01*
X13306Y8030D01*
X13307Y8033D01*
X13307Y8036D01*
X13307Y8039D01*
X13308Y8042D01*
X13308Y8045D01*
X13308Y8048D01*
X13308Y8051D01*
Y8053D01*
X13308Y8056D01*
X13308Y8059D01*
X13308Y8062D01*
X13307Y8065D01*
X13307Y8068D01*
X13307Y8071D01*
X13306Y8074D01*
X13306Y8077D01*
X13305Y8080D01*
X13304Y8083D01*
X13304Y8086D01*
X13303Y8089D01*
X13302Y8092D01*
X13301Y8095D01*
X13300Y8097D01*
X13299Y8100D01*
X13298Y8103D01*
X13297Y8106D01*
X13296Y8108D01*
X13294Y8111D01*
X13293Y8114D01*
X13292Y8116D01*
X13290Y8119D01*
X13289Y8122D01*
X13287Y8124D01*
X13285Y8127D01*
X13284Y8129D01*
X13282Y8131D01*
X13280Y8134D01*
X13278Y8136D01*
X13276Y8139D01*
X13274Y8141D01*
X13272Y8143D01*
X13270Y8145D01*
X13268Y8147D01*
X13266Y8149D01*
X13264Y8151D01*
X13262Y8153D01*
X13259Y8155D01*
X13257Y8157D01*
X13255Y8159D01*
X13252Y8161D01*
X13250Y8162D01*
X13247Y8164D01*
X13245Y8166D01*
X13242Y8167D01*
X13240Y8169D01*
X13237Y8170D01*
X13234Y8172D01*
X13232Y8173D01*
X13229Y8174D01*
X13226Y8175D01*
X13224Y8177D01*
X13221Y8178D01*
X13218Y8179D01*
X13215Y8180D01*
X13212Y8180D01*
X13209Y8181D01*
X13207Y8182D01*
X13204Y8183D01*
X13201Y8183D01*
X13198Y8184D01*
X13195Y8184D01*
X13192Y8185D01*
X13189Y8185D01*
X13186Y8185D01*
X13183Y8186D01*
X13180Y8186D01*
X13177Y8186D01*
X13174Y8186D01*
Y8176D02*
X6074D01*
X6071Y8176D01*
X6068Y8176D01*
X6065Y8176D01*
X6062Y8175D01*
X6059Y8175D01*
X6056Y8175D01*
X6053Y8174D01*
X6050Y8174D01*
X6047Y8173D01*
X6044Y8172D01*
X6041Y8172D01*
X6038Y8171D01*
X6035Y8170D01*
X6033Y8169D01*
X6030Y8168D01*
X6027Y8167D01*
X6024Y8166D01*
X6021Y8164D01*
X6019Y8163D01*
X6016Y8162D01*
X6013Y8160D01*
X6011Y8159D01*
X6008Y8157D01*
X6006Y8155D01*
X6003Y8154D01*
X6001Y8152D01*
X5998Y8150D01*
X5996Y8148D01*
X5994Y8146D01*
X5991Y8144D01*
X5989Y8142D01*
X5987Y8140D01*
X5985Y8138D01*
X5983Y8136D01*
X5981Y8134D01*
X5979Y8131D01*
X5977Y8129D01*
X5975Y8127D01*
X5973Y8124D01*
X5971Y8122D01*
X5970Y8119D01*
X5968Y8117D01*
X5967Y8114D01*
X5965Y8111D01*
X5964Y8109D01*
X5962Y8106D01*
X5961Y8103D01*
X5960Y8100D01*
X5959Y8098D01*
X5958Y8095D01*
X5957Y8092D01*
X5956Y8089D01*
X5955Y8086D01*
X5954Y8083D01*
X5953Y8080D01*
X5953Y8077D01*
X5952Y8075D01*
X5952Y8072D01*
X5951Y8069D01*
X5951Y8066D01*
X5950Y8063D01*
X5950Y8060D01*
X5950Y8057D01*
X5950Y8054D01*
Y8050D01*
X5950Y8047D01*
X5950Y8044D01*
X5950Y8041D01*
X5951Y8038D01*
X5951Y8035D01*
X5952Y8032D01*
X5952Y8029D01*
X5953Y8027D01*
X5953Y8024D01*
X5954Y8021D01*
X5955Y8018D01*
X5956Y8015D01*
X5957Y8012D01*
X5958Y8009D01*
X5959Y8006D01*
X5960Y8004D01*
X5961Y8001D01*
X5962Y7998D01*
X5964Y7995D01*
X5965Y7993D01*
X5967Y7990D01*
X5968Y7987D01*
X5970Y7985D01*
X5971Y7982D01*
X5973Y7980D01*
X5975Y7977D01*
X5977Y7975D01*
X5979Y7973D01*
X5981Y7970D01*
X5983Y7968D01*
X5985Y7966D01*
X5987Y7964D01*
X5989Y7962D01*
X5991Y7960D01*
X5994Y7958D01*
X5996Y7956D01*
X5998Y7954D01*
X6001Y7952D01*
X6003Y7950D01*
X6006Y7949D01*
X6008Y7947D01*
X6011Y7945D01*
X6013Y7944D01*
X6016Y7942D01*
X6019Y7941D01*
X6021Y7940D01*
X6024Y7938D01*
X6027Y7937D01*
X6030Y7936D01*
X6033Y7935D01*
X6035Y7934D01*
X6038Y7933D01*
X6041Y7932D01*
X6044Y7932D01*
X6047Y7931D01*
X6050Y7930D01*
X6053Y7930D01*
X6056Y7929D01*
X6059Y7929D01*
X6062Y7929D01*
X6065Y7928D01*
X6068Y7928D01*
X6071Y7928D01*
X6074Y7928D01*
X13174D01*
X13177Y7928D01*
X13180Y7928D01*
X13183Y7928D01*
X13186Y7929D01*
X13189Y7929D01*
X13192Y7929D01*
X13195Y7930D01*
X13198Y7930D01*
X13201Y7931D01*
X13204Y7932D01*
X13207Y7932D01*
X13210Y7933D01*
X13213Y7934D01*
X13215Y7935D01*
X13218Y7936D01*
X13221Y7937D01*
X13224Y7938D01*
X13227Y7940D01*
X13229Y7941D01*
X13232Y7942D01*
X13235Y7944D01*
X13237Y7945D01*
X13240Y7947D01*
X13242Y7949D01*
X13245Y7950D01*
X13247Y7952D01*
X13250Y7954D01*
X13252Y7956D01*
X13254Y7958D01*
X13257Y7960D01*
X13259Y7962D01*
X13261Y7964D01*
X13263Y7966D01*
X13265Y7968D01*
X13267Y7970D01*
X13269Y7973D01*
X13271Y7975D01*
X13273Y7977D01*
X13275Y7980D01*
X13277Y7982D01*
X13278Y7985D01*
X13280Y7987D01*
X13281Y7990D01*
X13283Y7993D01*
X13284Y7995D01*
X13286Y7998D01*
X13287Y8001D01*
X13288Y8004D01*
X13289Y8006D01*
X13290Y8009D01*
X13291Y8012D01*
X13292Y8015D01*
X13293Y8018D01*
X13294Y8021D01*
X13295Y8024D01*
X13295Y8027D01*
X13296Y8029D01*
X13296Y8032D01*
X13297Y8035D01*
X13297Y8038D01*
X13298Y8041D01*
X13298Y8044D01*
X13298Y8047D01*
X13298Y8050D01*
Y8054D01*
X13298Y8057D01*
X13298Y8060D01*
X13298Y8063D01*
X13297Y8066D01*
X13297Y8069D01*
X13296Y8072D01*
X13296Y8075D01*
X13295Y8077D01*
X13295Y8080D01*
X13294Y8083D01*
X13293Y8086D01*
X13292Y8089D01*
X13291Y8092D01*
X13290Y8095D01*
X13289Y8098D01*
X13288Y8100D01*
X13287Y8103D01*
X13286Y8106D01*
X13284Y8109D01*
X13283Y8111D01*
X13281Y8114D01*
X13280Y8117D01*
X13278Y8119D01*
X13277Y8122D01*
X13275Y8124D01*
X13273Y8127D01*
X13271Y8129D01*
X13269Y8131D01*
X13267Y8134D01*
X13265Y8136D01*
X13263Y8138D01*
X13261Y8140D01*
X13259Y8142D01*
X13257Y8144D01*
X13254Y8146D01*
X13252Y8148D01*
X13250Y8150D01*
X13247Y8152D01*
X13245Y8154D01*
X13242Y8155D01*
X13240Y8157D01*
X13237Y8159D01*
X13235Y8160D01*
X13232Y8162D01*
X13229Y8163D01*
X13227Y8164D01*
X13224Y8166D01*
X13221Y8167D01*
X13218Y8168D01*
X13215Y8169D01*
X13213Y8170D01*
X13210Y8171D01*
X13207Y8172D01*
X13204Y8172D01*
X13201Y8173D01*
X13198Y8174D01*
X13195Y8174D01*
X13192Y8175D01*
X13189Y8175D01*
X13186Y8175D01*
X13183Y8176D01*
X13180Y8176D01*
X13177Y8176D01*
X13174Y8176D01*
Y8166D02*
X6074D01*
X6071Y8166D01*
X6068Y8166D01*
X6065Y8166D01*
X6062Y8165D01*
X6059Y8165D01*
X6057Y8165D01*
X6054Y8164D01*
X6051Y8164D01*
X6048Y8163D01*
X6045Y8162D01*
X6042Y8162D01*
X6040Y8161D01*
X6037Y8160D01*
X6034Y8159D01*
X6031Y8158D01*
X6029Y8157D01*
X6026Y8155D01*
X6023Y8154D01*
X6021Y8153D01*
X6018Y8151D01*
X6016Y8150D01*
X6013Y8148D01*
X6011Y8147D01*
X6008Y8145D01*
X6006Y8144D01*
X6004Y8142D01*
X6001Y8140D01*
X5999Y8138D01*
X5997Y8136D01*
X5995Y8134D01*
X5993Y8132D01*
X5991Y8130D01*
X5989Y8128D01*
X5987Y8126D01*
X5985Y8123D01*
X5983Y8121D01*
X5982Y8119D01*
X5980Y8116D01*
X5978Y8114D01*
X5977Y8112D01*
X5975Y8109D01*
X5974Y8106D01*
X5972Y8104D01*
X5971Y8101D01*
X5970Y8099D01*
X5969Y8096D01*
X5968Y8093D01*
X5967Y8091D01*
X5966Y8088D01*
X5965Y8085D01*
X5964Y8082D01*
X5963Y8079D01*
X5963Y8077D01*
X5962Y8074D01*
X5962Y8071D01*
X5961Y8068D01*
X5961Y8065D01*
X5960Y8062D01*
X5960Y8059D01*
X5960Y8056D01*
X5960Y8053D01*
Y8051D01*
X5960Y8048D01*
X5960Y8045D01*
X5960Y8042D01*
X5961Y8039D01*
X5961Y8036D01*
X5962Y8033D01*
X5962Y8030D01*
X5963Y8027D01*
X5963Y8025D01*
X5964Y8022D01*
X5965Y8019D01*
X5966Y8016D01*
X5967Y8013D01*
X5968Y8011D01*
X5969Y8008D01*
X5970Y8005D01*
X5971Y8003D01*
X5972Y8000D01*
X5974Y7998D01*
X5975Y7995D01*
X5977Y7992D01*
X5978Y7990D01*
X5980Y7988D01*
X5982Y7985D01*
X5983Y7983D01*
X5985Y7981D01*
X5987Y7978D01*
X5989Y7976D01*
X5991Y7974D01*
X5993Y7972D01*
X5995Y7970D01*
X5997Y7968D01*
X5999Y7966D01*
X6001Y7964D01*
X6004Y7962D01*
X6006Y7960D01*
X6008Y7959D01*
X6011Y7957D01*
X6013Y7956D01*
X6016Y7954D01*
X6018Y7953D01*
X6021Y7951D01*
X6023Y7950D01*
X6026Y7949D01*
X6029Y7947D01*
X6031Y7946D01*
X6034Y7945D01*
X6037Y7944D01*
X6040Y7943D01*
X6042Y7942D01*
X6045Y7942D01*
X6048Y7941D01*
X6051Y7940D01*
X6054Y7940D01*
X6057Y7939D01*
X6059Y7939D01*
X6062Y7939D01*
X6065Y7938D01*
X6068Y7938D01*
X6071Y7938D01*
X6074Y7938D01*
X13174D01*
X13177Y7938D01*
X13180Y7938D01*
X13183Y7938D01*
X13186Y7939D01*
X13189Y7939D01*
X13191Y7939D01*
X13194Y7940D01*
X13197Y7940D01*
X13200Y7941D01*
X13203Y7942D01*
X13206Y7942D01*
X13208Y7943D01*
X13211Y7944D01*
X13214Y7945D01*
X13217Y7946D01*
X13219Y7947D01*
X13222Y7949D01*
X13225Y7950D01*
X13227Y7951D01*
X13230Y7953D01*
X13232Y7954D01*
X13235Y7956D01*
X13237Y7957D01*
X13240Y7959D01*
X13242Y7960D01*
X13244Y7962D01*
X13247Y7964D01*
X13249Y7966D01*
X13251Y7968D01*
X13253Y7970D01*
X13255Y7972D01*
X13257Y7974D01*
X13259Y7976D01*
X13261Y7978D01*
X13263Y7981D01*
X13265Y7983D01*
X13266Y7985D01*
X13268Y7988D01*
X13270Y7990D01*
X13271Y7992D01*
X13273Y7995D01*
X13274Y7998D01*
X13276Y8000D01*
X13277Y8003D01*
X13278Y8005D01*
X13279Y8008D01*
X13280Y8011D01*
X13281Y8013D01*
X13282Y8016D01*
X13283Y8019D01*
X13284Y8022D01*
X13285Y8025D01*
X13285Y8027D01*
X13286Y8030D01*
X13286Y8033D01*
X13287Y8036D01*
X13287Y8039D01*
X13288Y8042D01*
X13288Y8045D01*
X13288Y8048D01*
X13288Y8051D01*
Y8053D01*
X13288Y8056D01*
X13288Y8059D01*
X13288Y8062D01*
X13287Y8065D01*
X13287Y8068D01*
X13286Y8071D01*
X13286Y8074D01*
X13285Y8077D01*
X13285Y8079D01*
X13284Y8082D01*
X13283Y8085D01*
X13282Y8088D01*
X13281Y8091D01*
X13280Y8093D01*
X13279Y8096D01*
X13278Y8099D01*
X13277Y8101D01*
X13276Y8104D01*
X13274Y8106D01*
X13273Y8109D01*
X13271Y8112D01*
X13270Y8114D01*
X13268Y8116D01*
X13266Y8119D01*
X13265Y8121D01*
X13263Y8123D01*
X13261Y8126D01*
X13259Y8128D01*
X13257Y8130D01*
X13255Y8132D01*
X13253Y8134D01*
X13251Y8136D01*
X13249Y8138D01*
X13247Y8140D01*
X13244Y8142D01*
X13242Y8144D01*
X13240Y8145D01*
X13237Y8147D01*
X13235Y8148D01*
X13232Y8150D01*
X13230Y8151D01*
X13227Y8153D01*
X13225Y8154D01*
X13222Y8155D01*
X13219Y8157D01*
X13217Y8158D01*
X13214Y8159D01*
X13211Y8160D01*
X13208Y8161D01*
X13206Y8162D01*
X13203Y8162D01*
X13200Y8163D01*
X13197Y8164D01*
X13194Y8164D01*
X13191Y8165D01*
X13189Y8165D01*
X13186Y8165D01*
X13183Y8166D01*
X13180Y8166D01*
X13177Y8166D01*
X13174Y8166D01*
Y8156D02*
X6074D01*
X6071Y8156D01*
X6068Y8156D01*
X6065Y8156D01*
X6062Y8155D01*
X6059Y8155D01*
X6056Y8155D01*
X6054Y8154D01*
X6051Y8153D01*
X6048Y8153D01*
X6045Y8152D01*
X6042Y8151D01*
X6039Y8150D01*
X6037Y8149D01*
X6034Y8148D01*
X6031Y8147D01*
X6028Y8146D01*
X6026Y8144D01*
X6023Y8143D01*
X6021Y8141D01*
X6018Y8140D01*
X6016Y8138D01*
X6013Y8136D01*
X6011Y8135D01*
X6009Y8133D01*
X6006Y8131D01*
X6004Y8129D01*
X6002Y8127D01*
X6000Y8125D01*
X5998Y8123D01*
X5996Y8121D01*
X5994Y8118D01*
X5992Y8116D01*
X5990Y8114D01*
X5989Y8111D01*
X5987Y8109D01*
X5985Y8107D01*
X5984Y8104D01*
X5982Y8101D01*
X5981Y8099D01*
X5980Y8096D01*
X5979Y8093D01*
X5977Y8091D01*
X5976Y8088D01*
X5975Y8085D01*
X5975Y8082D01*
X5974Y8080D01*
X5973Y8077D01*
X5972Y8074D01*
X5972Y8071D01*
X5971Y8068D01*
X5971Y8065D01*
X5971Y8062D01*
X5970Y8059D01*
X5970Y8056D01*
X5970Y8053D01*
Y8051D01*
X5970Y8048D01*
X5970Y8045D01*
X5971Y8042D01*
X5971Y8039D01*
X5971Y8036D01*
X5972Y8033D01*
X5972Y8030D01*
X5973Y8027D01*
X5974Y8024D01*
X5975Y8022D01*
X5975Y8019D01*
X5976Y8016D01*
X5977Y8013D01*
X5979Y8011D01*
X5980Y8008D01*
X5981Y8005D01*
X5982Y8003D01*
X5984Y8000D01*
X5985Y7997D01*
X5987Y7995D01*
X5989Y7993D01*
X5990Y7990D01*
X5992Y7988D01*
X5994Y7986D01*
X5996Y7983D01*
X5998Y7981D01*
X6000Y7979D01*
X6002Y7977D01*
X6004Y7975D01*
X6006Y7973D01*
X6009Y7971D01*
X6011Y7969D01*
X6013Y7968D01*
X6016Y7966D01*
X6018Y7964D01*
X6021Y7963D01*
X6023Y7961D01*
X6026Y7960D01*
X6028Y7958D01*
X6031Y7957D01*
X6034Y7956D01*
X6037Y7955D01*
X6039Y7954D01*
X6042Y7953D01*
X6045Y7952D01*
X6048Y7951D01*
X6051Y7951D01*
X6054Y7950D01*
X6056Y7949D01*
X6059Y7949D01*
X6062Y7949D01*
X6065Y7948D01*
X6068Y7948D01*
X6071Y7948D01*
X6074Y7948D01*
X13174D01*
X13177Y7948D01*
X13180Y7948D01*
X13183Y7948D01*
X13186Y7949D01*
X13189Y7949D01*
X13192Y7949D01*
X13194Y7950D01*
X13197Y7951D01*
X13200Y7951D01*
X13203Y7952D01*
X13206Y7953D01*
X13209Y7954D01*
X13211Y7955D01*
X13214Y7956D01*
X13217Y7957D01*
X13220Y7958D01*
X13222Y7960D01*
X13225Y7961D01*
X13227Y7963D01*
X13230Y7964D01*
X13232Y7966D01*
X13235Y7968D01*
X13237Y7969D01*
X13239Y7971D01*
X13242Y7973D01*
X13244Y7975D01*
X13246Y7977D01*
X13248Y7979D01*
X13250Y7981D01*
X13252Y7983D01*
X13254Y7986D01*
X13256Y7988D01*
X13258Y7990D01*
X13259Y7993D01*
X13261Y7995D01*
X13263Y7997D01*
X13264Y8000D01*
X13266Y8003D01*
X13267Y8005D01*
X13268Y8008D01*
X13269Y8011D01*
X13271Y8013D01*
X13272Y8016D01*
X13273Y8019D01*
X13273Y8022D01*
X13274Y8024D01*
X13275Y8027D01*
X13276Y8030D01*
X13276Y8033D01*
X13277Y8036D01*
X13277Y8039D01*
X13277Y8042D01*
X13278Y8045D01*
X13278Y8048D01*
X13278Y8051D01*
Y8053D01*
X13278Y8056D01*
X13278Y8059D01*
X13277Y8062D01*
X13277Y8065D01*
X13277Y8068D01*
X13276Y8071D01*
X13276Y8074D01*
X13275Y8077D01*
X13274Y8080D01*
X13273Y8082D01*
X13273Y8085D01*
X13272Y8088D01*
X13271Y8091D01*
X13269Y8093D01*
X13268Y8096D01*
X13267Y8099D01*
X13266Y8101D01*
X13264Y8104D01*
X13263Y8107D01*
X13261Y8109D01*
X13259Y8111D01*
X13258Y8114D01*
X13256Y8116D01*
X13254Y8118D01*
X13252Y8121D01*
X13250Y8123D01*
X13248Y8125D01*
X13246Y8127D01*
X13244Y8129D01*
X13242Y8131D01*
X13239Y8133D01*
X13237Y8135D01*
X13235Y8136D01*
X13232Y8138D01*
X13230Y8140D01*
X13227Y8141D01*
X13225Y8143D01*
X13222Y8144D01*
X13220Y8146D01*
X13217Y8147D01*
X13214Y8148D01*
X13211Y8149D01*
X13209Y8150D01*
X13206Y8151D01*
X13203Y8152D01*
X13200Y8153D01*
X13197Y8153D01*
X13194Y8154D01*
X13192Y8155D01*
X13189Y8155D01*
X13186Y8155D01*
X13183Y8156D01*
X13180Y8156D01*
X13177Y8156D01*
X13174Y8156D01*
Y8146D02*
X6074D01*
X6071Y8146D01*
X6068Y8146D01*
X6065Y8146D01*
X6062Y8145D01*
X6059Y8145D01*
X6056Y8144D01*
X6053Y8144D01*
X6050Y8143D01*
X6048Y8142D01*
X6045Y8141D01*
X6042Y8140D01*
X6039Y8139D01*
X6036Y8138D01*
X6034Y8137D01*
X6031Y8136D01*
X6028Y8134D01*
X6026Y8133D01*
X6023Y8131D01*
X6021Y8129D01*
X6018Y8128D01*
X6016Y8126D01*
X6014Y8124D01*
X6011Y8122D01*
X6009Y8120D01*
X6007Y8118D01*
X6005Y8116D01*
X6003Y8114D01*
X6001Y8111D01*
X5999Y8109D01*
X5997Y8107D01*
X5996Y8104D01*
X5994Y8102D01*
X5993Y8099D01*
X5991Y8096D01*
X5990Y8094D01*
X5988Y8091D01*
X5987Y8088D01*
X5986Y8086D01*
X5985Y8083D01*
X5984Y8080D01*
X5983Y8077D01*
X5983Y8074D01*
X5982Y8071D01*
X5981Y8068D01*
X5981Y8065D01*
X5981Y8062D01*
X5980Y8059D01*
X5980Y8056D01*
X5980Y8053D01*
Y8051D01*
X5980Y8048D01*
X5980Y8045D01*
X5981Y8042D01*
X5981Y8039D01*
X5981Y8036D01*
X5982Y8033D01*
X5983Y8030D01*
X5983Y8027D01*
X5984Y8024D01*
X5985Y8021D01*
X5986Y8018D01*
X5987Y8016D01*
X5988Y8013D01*
X5990Y8010D01*
X5991Y8008D01*
X5993Y8005D01*
X5994Y8002D01*
X5996Y8000D01*
X5997Y7997D01*
X5999Y7995D01*
X6001Y7993D01*
X6003Y7990D01*
X6005Y7988D01*
X6007Y7986D01*
X6009Y7984D01*
X6011Y7982D01*
X6014Y7980D01*
X6016Y7978D01*
X6018Y7976D01*
X6021Y7975D01*
X6023Y7973D01*
X6026Y7971D01*
X6028Y7970D01*
X6031Y7968D01*
X6034Y7967D01*
X6036Y7966D01*
X6039Y7965D01*
X6042Y7964D01*
X6045Y7963D01*
X6048Y7962D01*
X6050Y7961D01*
X6053Y7960D01*
X6056Y7960D01*
X6059Y7959D01*
X6062Y7959D01*
X6065Y7958D01*
X6068Y7958D01*
X6071Y7958D01*
X6074Y7958D01*
X13174D01*
X13177Y7958D01*
X13180Y7958D01*
X13183Y7958D01*
X13186Y7959D01*
X13189Y7959D01*
X13192Y7960D01*
X13195Y7960D01*
X13198Y7961D01*
X13200Y7962D01*
X13203Y7963D01*
X13206Y7964D01*
X13209Y7965D01*
X13212Y7966D01*
X13214Y7967D01*
X13217Y7968D01*
X13220Y7970D01*
X13222Y7971D01*
X13225Y7973D01*
X13227Y7975D01*
X13230Y7976D01*
X13232Y7978D01*
X13234Y7980D01*
X13237Y7982D01*
X13239Y7984D01*
X13241Y7986D01*
X13243Y7988D01*
X13245Y7990D01*
X13247Y7993D01*
X13249Y7995D01*
X13251Y7997D01*
X13252Y8000D01*
X13254Y8002D01*
X13255Y8005D01*
X13257Y8008D01*
X13258Y8010D01*
X13260Y8013D01*
X13261Y8016D01*
X13262Y8018D01*
X13263Y8021D01*
X13264Y8024D01*
X13265Y8027D01*
X13265Y8030D01*
X13266Y8033D01*
X13267Y8036D01*
X13267Y8039D01*
X13267Y8042D01*
X13268Y8045D01*
X13268Y8048D01*
X13268Y8051D01*
Y8053D01*
X13268Y8056D01*
X13268Y8059D01*
X13267Y8062D01*
X13267Y8065D01*
X13267Y8068D01*
X13266Y8071D01*
X13265Y8074D01*
X13265Y8077D01*
X13264Y8080D01*
X13263Y8083D01*
X13262Y8086D01*
X13261Y8088D01*
X13260Y8091D01*
X13258Y8094D01*
X13257Y8096D01*
X13255Y8099D01*
X13254Y8102D01*
X13252Y8104D01*
X13251Y8107D01*
X13249Y8109D01*
X13247Y8111D01*
X13245Y8114D01*
X13243Y8116D01*
X13241Y8118D01*
X13239Y8120D01*
X13237Y8122D01*
X13234Y8124D01*
X13232Y8126D01*
X13230Y8128D01*
X13227Y8129D01*
X13225Y8131D01*
X13222Y8133D01*
X13220Y8134D01*
X13217Y8136D01*
X13214Y8137D01*
X13212Y8138D01*
X13209Y8139D01*
X13206Y8140D01*
X13203Y8141D01*
X13200Y8142D01*
X13198Y8143D01*
X13195Y8144D01*
X13192Y8144D01*
X13189Y8145D01*
X13186Y8145D01*
X13183Y8146D01*
X13180Y8146D01*
X13177Y8146D01*
X13174Y8146D01*
Y8136D02*
X6074D01*
X6071Y8136D01*
X6068Y8136D01*
X6066Y8136D01*
X6063Y8135D01*
X6060Y8135D01*
X6057Y8134D01*
X6054Y8134D01*
X6052Y8133D01*
X6049Y8132D01*
X6046Y8131D01*
X6044Y8130D01*
X6041Y8129D01*
X6038Y8128D01*
X6036Y8127D01*
X6033Y8125D01*
X6031Y8124D01*
X6028Y8123D01*
X6026Y8121D01*
X6024Y8119D01*
X6021Y8118D01*
X6019Y8116D01*
X6017Y8114D01*
X6015Y8112D01*
X6013Y8110D01*
X6011Y8108D01*
X6009Y8106D01*
X6008Y8103D01*
X6006Y8101D01*
X6004Y8099D01*
X6003Y8096D01*
X6001Y8094D01*
X6000Y8092D01*
X5999Y8089D01*
X5997Y8086D01*
X5996Y8084D01*
X5995Y8081D01*
X5994Y8078D01*
X5993Y8076D01*
X5993Y8073D01*
X5992Y8070D01*
X5991Y8068D01*
X5991Y8065D01*
X5991Y8062D01*
X5990Y8059D01*
X5990Y8056D01*
X5990Y8053D01*
Y8051D01*
X5990Y8048D01*
X5990Y8045D01*
X5991Y8042D01*
X5991Y8039D01*
X5991Y8036D01*
X5992Y8034D01*
X5993Y8031D01*
X5993Y8028D01*
X5994Y8026D01*
X5995Y8023D01*
X5996Y8020D01*
X5997Y8018D01*
X5999Y8015D01*
X6000Y8012D01*
X6001Y8010D01*
X6003Y8008D01*
X6004Y8005D01*
X6006Y8003D01*
X6008Y8001D01*
X6009Y7998D01*
X6011Y7996D01*
X6013Y7994D01*
X6015Y7992D01*
X6017Y7990D01*
X6019Y7988D01*
X6021Y7986D01*
X6024Y7985D01*
X6026Y7983D01*
X6028Y7981D01*
X6031Y7980D01*
X6033Y7979D01*
X6036Y7977D01*
X6038Y7976D01*
X6041Y7975D01*
X6044Y7974D01*
X6046Y7973D01*
X6049Y7972D01*
X6052Y7971D01*
X6054Y7970D01*
X6057Y7970D01*
X6060Y7969D01*
X6063Y7969D01*
X6066Y7968D01*
X6068Y7968D01*
X6071Y7968D01*
X6074Y7968D01*
X13174D01*
X13177Y7968D01*
X13180Y7968D01*
X13182Y7968D01*
X13185Y7969D01*
X13188Y7969D01*
X13191Y7970D01*
X13194Y7970D01*
X13196Y7971D01*
X13199Y7972D01*
X13202Y7973D01*
X13204Y7974D01*
X13207Y7975D01*
X13210Y7976D01*
X13212Y7977D01*
X13215Y7979D01*
X13217Y7980D01*
X13220Y7981D01*
X13222Y7983D01*
X13224Y7985D01*
X13227Y7986D01*
X13229Y7988D01*
X13231Y7990D01*
X13233Y7992D01*
X13235Y7994D01*
X13237Y7996D01*
X13239Y7998D01*
X13240Y8001D01*
X13242Y8003D01*
X13244Y8005D01*
X13245Y8008D01*
X13247Y8010D01*
X13248Y8012D01*
X13249Y8015D01*
X13251Y8018D01*
X13252Y8020D01*
X13253Y8023D01*
X13254Y8026D01*
X13255Y8028D01*
X13255Y8031D01*
X13256Y8034D01*
X13257Y8036D01*
X13257Y8039D01*
X13257Y8042D01*
X13258Y8045D01*
X13258Y8048D01*
X13258Y8051D01*
Y8053D01*
X13258Y8056D01*
X13258Y8059D01*
X13257Y8062D01*
X13257Y8065D01*
X13257Y8068D01*
X13256Y8070D01*
X13255Y8073D01*
X13255Y8076D01*
X13254Y8078D01*
X13253Y8081D01*
X13252Y8084D01*
X13251Y8086D01*
X13249Y8089D01*
X13248Y8092D01*
X13247Y8094D01*
X13245Y8096D01*
X13244Y8099D01*
X13242Y8101D01*
X13240Y8103D01*
X13239Y8106D01*
X13237Y8108D01*
X13235Y8110D01*
X13233Y8112D01*
X13231Y8114D01*
X13229Y8116D01*
X13227Y8118D01*
X13224Y8119D01*
X13222Y8121D01*
X13220Y8123D01*
X13217Y8124D01*
X13215Y8125D01*
X13212Y8127D01*
X13210Y8128D01*
X13207Y8129D01*
X13204Y8130D01*
X13202Y8131D01*
X13199Y8132D01*
X13196Y8133D01*
X13194Y8134D01*
X13191Y8134D01*
X13188Y8135D01*
X13185Y8135D01*
X13182Y8136D01*
X13180Y8136D01*
X13177Y8136D01*
X13174Y8136D01*
Y8126D02*
X6074D01*
X6071Y8126D01*
X6068Y8126D01*
X6065Y8126D01*
X6063Y8125D01*
X6060Y8125D01*
X6057Y8124D01*
X6054Y8123D01*
X6051Y8122D01*
X6049Y8122D01*
X6046Y8121D01*
X6043Y8119D01*
X6041Y8118D01*
X6038Y8117D01*
X6036Y8115D01*
X6033Y8114D01*
X6031Y8112D01*
X6029Y8110D01*
X6026Y8109D01*
X6024Y8107D01*
X6022Y8105D01*
X6020Y8103D01*
X6018Y8101D01*
X6016Y8098D01*
X6015Y8096D01*
X6013Y8094D01*
X6011Y8091D01*
X6010Y8089D01*
X6009Y8086D01*
X6007Y8084D01*
X6006Y8081D01*
X6005Y8079D01*
X6004Y8076D01*
X6003Y8073D01*
X6002Y8070D01*
X6002Y8068D01*
X6001Y8065D01*
X6001Y8062D01*
X6000Y8059D01*
X6000Y8056D01*
X6000Y8053D01*
Y8051D01*
X6000Y8048D01*
X6000Y8045D01*
X6001Y8042D01*
X6001Y8039D01*
X6002Y8036D01*
X6002Y8034D01*
X6003Y8031D01*
X6004Y8028D01*
X6005Y8025D01*
X6006Y8023D01*
X6007Y8020D01*
X6009Y8018D01*
X6010Y8015D01*
X6011Y8013D01*
X6013Y8010D01*
X6015Y8008D01*
X6016Y8006D01*
X6018Y8003D01*
X6020Y8001D01*
X6022Y7999D01*
X6024Y7997D01*
X6026Y7995D01*
X6029Y7994D01*
X6031Y7992D01*
X6033Y7990D01*
X6036Y7989D01*
X6038Y7987D01*
X6041Y7986D01*
X6043Y7985D01*
X6046Y7983D01*
X6049Y7982D01*
X6051Y7982D01*
X6054Y7981D01*
X6057Y7980D01*
X6060Y7979D01*
X6063Y7979D01*
X6065Y7978D01*
X6068Y7978D01*
X6071Y7978D01*
X6074Y7978D01*
X13174D01*
X13177Y7978D01*
X13180Y7978D01*
X13183Y7978D01*
X13185Y7979D01*
X13188Y7979D01*
X13191Y7980D01*
X13194Y7981D01*
X13197Y7982D01*
X13199Y7982D01*
X13202Y7983D01*
X13205Y7985D01*
X13207Y7986D01*
X13210Y7987D01*
X13212Y7989D01*
X13215Y7990D01*
X13217Y7992D01*
X13219Y7994D01*
X13222Y7995D01*
X13224Y7997D01*
X13226Y7999D01*
X13228Y8001D01*
X13230Y8003D01*
X13232Y8006D01*
X13233Y8008D01*
X13235Y8010D01*
X13237Y8013D01*
X13238Y8015D01*
X13239Y8018D01*
X13241Y8020D01*
X13242Y8023D01*
X13243Y8025D01*
X13244Y8028D01*
X13245Y8031D01*
X13246Y8034D01*
X13246Y8036D01*
X13247Y8039D01*
X13247Y8042D01*
X13248Y8045D01*
X13248Y8048D01*
X13248Y8051D01*
Y8053D01*
X13248Y8056D01*
X13248Y8059D01*
X13247Y8062D01*
X13247Y8065D01*
X13246Y8068D01*
X13246Y8070D01*
X13245Y8073D01*
X13244Y8076D01*
X13243Y8079D01*
X13242Y8081D01*
X13241Y8084D01*
X13239Y8086D01*
X13238Y8089D01*
X13237Y8091D01*
X13235Y8094D01*
X13233Y8096D01*
X13232Y8098D01*
X13230Y8101D01*
X13228Y8103D01*
X13226Y8105D01*
X13224Y8107D01*
X13222Y8109D01*
X13219Y8110D01*
X13217Y8112D01*
X13215Y8114D01*
X13212Y8115D01*
X13210Y8117D01*
X13207Y8118D01*
X13205Y8119D01*
X13202Y8121D01*
X13199Y8122D01*
X13197Y8122D01*
X13194Y8123D01*
X13191Y8124D01*
X13188Y8125D01*
X13185Y8125D01*
X13183Y8126D01*
X13180Y8126D01*
X13177Y8126D01*
X13174Y8126D01*
Y8116D02*
X6074D01*
X6071Y8116D01*
X6068Y8116D01*
X6065Y8115D01*
X6062Y8115D01*
X6060Y8114D01*
X6057Y8114D01*
X6054Y8113D01*
X6051Y8112D01*
X6049Y8111D01*
X6046Y8109D01*
X6043Y8108D01*
X6041Y8107D01*
X6038Y8105D01*
X6036Y8103D01*
X6034Y8102D01*
X6031Y8100D01*
X6029Y8098D01*
X6027Y8096D01*
X6025Y8094D01*
X6023Y8091D01*
X6022Y8089D01*
X6020Y8086D01*
X6019Y8084D01*
X6017Y8081D01*
X6016Y8079D01*
X6015Y8076D01*
X6014Y8073D01*
X6013Y8071D01*
X6012Y8068D01*
X6011Y8065D01*
X6011Y8062D01*
X6010Y8059D01*
X6010Y8056D01*
X6010Y8053D01*
Y8051D01*
X6010Y8048D01*
X6010Y8045D01*
X6011Y8042D01*
X6011Y8039D01*
X6012Y8036D01*
X6013Y8033D01*
X6014Y8031D01*
X6015Y8028D01*
X6016Y8025D01*
X6017Y8023D01*
X6019Y8020D01*
X6020Y8018D01*
X6022Y8015D01*
X6023Y8013D01*
X6025Y8010D01*
X6027Y8008D01*
X6029Y8006D01*
X6031Y8004D01*
X6034Y8002D01*
X6036Y8001D01*
X6038Y7999D01*
X6041Y7997D01*
X6043Y7996D01*
X6046Y7995D01*
X6049Y7993D01*
X6051Y7992D01*
X6054Y7991D01*
X6057Y7990D01*
X6060Y7990D01*
X6062Y7989D01*
X6065Y7989D01*
X6068Y7988D01*
X6071Y7988D01*
X6074Y7988D01*
X13174D01*
X13177Y7988D01*
X13180Y7988D01*
X13183Y7989D01*
X13186Y7989D01*
X13188Y7990D01*
X13191Y7990D01*
X13194Y7991D01*
X13197Y7992D01*
X13199Y7993D01*
X13202Y7995D01*
X13205Y7996D01*
X13207Y7997D01*
X13210Y7999D01*
X13212Y8001D01*
X13214Y8002D01*
X13217Y8004D01*
X13219Y8006D01*
X13221Y8008D01*
X13223Y8010D01*
X13225Y8013D01*
X13226Y8015D01*
X13228Y8018D01*
X13229Y8020D01*
X13231Y8023D01*
X13232Y8025D01*
X13233Y8028D01*
X13234Y8031D01*
X13235Y8033D01*
X13236Y8036D01*
X13237Y8039D01*
X13237Y8042D01*
X13238Y8045D01*
X13238Y8048D01*
X13238Y8051D01*
Y8053D01*
X13238Y8056D01*
X13238Y8059D01*
X13237Y8062D01*
X13237Y8065D01*
X13236Y8068D01*
X13235Y8071D01*
X13234Y8073D01*
X13233Y8076D01*
X13232Y8079D01*
X13231Y8081D01*
X13229Y8084D01*
X13228Y8086D01*
X13226Y8089D01*
X13225Y8091D01*
X13223Y8094D01*
X13221Y8096D01*
X13219Y8098D01*
X13217Y8100D01*
X13214Y8102D01*
X13212Y8103D01*
X13210Y8105D01*
X13207Y8107D01*
X13205Y8108D01*
X13202Y8109D01*
X13199Y8111D01*
X13197Y8112D01*
X13194Y8113D01*
X13191Y8114D01*
X13188Y8114D01*
X13186Y8115D01*
X13183Y8115D01*
X13180Y8116D01*
X13177Y8116D01*
X13174Y8116D01*
Y8106D02*
X6074D01*
X6071Y8106D01*
X6069Y8106D01*
X6066Y8105D01*
X6063Y8105D01*
X6061Y8104D01*
X6058Y8104D01*
X6056Y8103D01*
X6053Y8102D01*
X6051Y8101D01*
X6048Y8099D01*
X6046Y8098D01*
X6044Y8097D01*
X6041Y8095D01*
X6039Y8093D01*
X6037Y8092D01*
X6035Y8090D01*
X6034Y8088D01*
X6032Y8086D01*
X6030Y8084D01*
X6029Y8081D01*
X6027Y8079D01*
X6026Y8077D01*
X6025Y8074D01*
X6024Y8072D01*
X6023Y8069D01*
X6022Y8067D01*
X6021Y8064D01*
X6021Y8061D01*
X6020Y8059D01*
X6020Y8056D01*
X6020Y8053D01*
Y8051D01*
X6020Y8048D01*
X6020Y8045D01*
X6021Y8043D01*
X6021Y8040D01*
X6022Y8037D01*
X6023Y8035D01*
X6024Y8032D01*
X6025Y8030D01*
X6026Y8027D01*
X6027Y8025D01*
X6029Y8023D01*
X6030Y8020D01*
X6032Y8018D01*
X6034Y8016D01*
X6035Y8014D01*
X6037Y8012D01*
X6039Y8011D01*
X6041Y8009D01*
X6044Y8007D01*
X6046Y8006D01*
X6048Y8005D01*
X6051Y8003D01*
X6053Y8002D01*
X6056Y8001D01*
X6058Y8000D01*
X6061Y8000D01*
X6063Y7999D01*
X6066Y7999D01*
X6069Y7998D01*
X6071Y7998D01*
X6074Y7998D01*
X13174D01*
X13177Y7998D01*
X13179Y7998D01*
X13182Y7999D01*
X13185Y7999D01*
X13187Y8000D01*
X13190Y8000D01*
X13192Y8001D01*
X13195Y8002D01*
X13197Y8003D01*
X13200Y8005D01*
X13202Y8006D01*
X13204Y8007D01*
X13207Y8009D01*
X13209Y8011D01*
X13211Y8012D01*
X13213Y8014D01*
X13214Y8016D01*
X13216Y8018D01*
X13218Y8020D01*
X13219Y8023D01*
X13221Y8025D01*
X13222Y8027D01*
X13223Y8030D01*
X13224Y8032D01*
X13225Y8035D01*
X13226Y8037D01*
X13227Y8040D01*
X13227Y8043D01*
X13228Y8045D01*
X13228Y8048D01*
X13228Y8051D01*
Y8053D01*
X13228Y8056D01*
X13228Y8059D01*
X13227Y8061D01*
X13227Y8064D01*
X13226Y8067D01*
X13225Y8069D01*
X13224Y8072D01*
X13223Y8074D01*
X13222Y8077D01*
X13221Y8079D01*
X13219Y8081D01*
X13218Y8084D01*
X13216Y8086D01*
X13214Y8088D01*
X13213Y8090D01*
X13211Y8092D01*
X13209Y8093D01*
X13207Y8095D01*
X13204Y8097D01*
X13202Y8098D01*
X13200Y8099D01*
X13197Y8101D01*
X13195Y8102D01*
X13192Y8103D01*
X13190Y8104D01*
X13187Y8104D01*
X13185Y8105D01*
X13182Y8105D01*
X13179Y8106D01*
X13177Y8106D01*
X13174Y8106D01*
Y8096D02*
X6074D01*
X6071Y8096D01*
X6069Y8096D01*
X6066Y8095D01*
X6063Y8095D01*
X6061Y8094D01*
X6058Y8093D01*
X6056Y8092D01*
X6053Y8091D01*
X6051Y8089D01*
X6049Y8088D01*
X6046Y8086D01*
X6044Y8085D01*
X6042Y8083D01*
X6041Y8081D01*
X6039Y8079D01*
X6037Y8076D01*
X6036Y8074D01*
X6035Y8072D01*
X6033Y8069D01*
X6033Y8067D01*
X6032Y8064D01*
X6031Y8061D01*
X6031Y8059D01*
X6030Y8056D01*
X6030Y8053D01*
Y8051D01*
X6030Y8048D01*
X6031Y8045D01*
X6031Y8043D01*
X6032Y8040D01*
X6033Y8037D01*
X6033Y8035D01*
X6035Y8032D01*
X6036Y8030D01*
X6037Y8028D01*
X6039Y8025D01*
X6041Y8023D01*
X6042Y8021D01*
X6044Y8019D01*
X6046Y8018D01*
X6049Y8016D01*
X6051Y8015D01*
X6053Y8013D01*
X6056Y8012D01*
X6058Y8011D01*
X6061Y8010D01*
X6063Y8009D01*
X6066Y8009D01*
X6069Y8008D01*
X6071Y8008D01*
X6074Y8008D01*
X13174D01*
X13177Y8008D01*
X13179Y8008D01*
X13182Y8009D01*
X13185Y8009D01*
X13187Y8010D01*
X13190Y8011D01*
X13192Y8012D01*
X13195Y8013D01*
X13197Y8015D01*
X13199Y8016D01*
X13202Y8018D01*
X13204Y8019D01*
X13206Y8021D01*
X13207Y8023D01*
X13209Y8025D01*
X13211Y8028D01*
X13212Y8030D01*
X13213Y8032D01*
X13215Y8035D01*
X13215Y8037D01*
X13216Y8040D01*
X13217Y8043D01*
X13217Y8045D01*
X13218Y8048D01*
X13218Y8051D01*
Y8053D01*
X13218Y8056D01*
X13217Y8059D01*
X13217Y8061D01*
X13216Y8064D01*
X13215Y8067D01*
X13215Y8069D01*
X13213Y8072D01*
X13212Y8074D01*
X13211Y8076D01*
X13209Y8079D01*
X13207Y8081D01*
X13206Y8083D01*
X13204Y8085D01*
X13202Y8086D01*
X13199Y8088D01*
X13197Y8089D01*
X13195Y8091D01*
X13192Y8092D01*
X13190Y8093D01*
X13187Y8094D01*
X13185Y8095D01*
X13182Y8095D01*
X13179Y8096D01*
X13177Y8096D01*
X13174Y8096D01*
Y8086D02*
X6074D01*
X6071Y8086D01*
X6069Y8086D01*
X6066Y8085D01*
X6063Y8084D01*
X6061Y8083D01*
X6058Y8082D01*
X6056Y8081D01*
X6054Y8079D01*
X6051Y8077D01*
X6049Y8076D01*
X6048Y8074D01*
X6046Y8071D01*
X6045Y8069D01*
X6043Y8067D01*
X6042Y8064D01*
X6041Y8061D01*
X6041Y8059D01*
X6040Y8056D01*
X6040Y8053D01*
Y8051D01*
X6040Y8048D01*
X6041Y8045D01*
X6041Y8043D01*
X6042Y8040D01*
X6043Y8037D01*
X6045Y8035D01*
X6046Y8033D01*
X6048Y8030D01*
X6049Y8028D01*
X6051Y8027D01*
X6054Y8025D01*
X6056Y8023D01*
X6058Y8022D01*
X6061Y8021D01*
X6063Y8020D01*
X6066Y8019D01*
X6069Y8018D01*
X6071Y8018D01*
X6074Y8018D01*
X13174D01*
X13177Y8018D01*
X13179Y8018D01*
X13182Y8019D01*
X13185Y8020D01*
X13187Y8021D01*
X13190Y8022D01*
X13192Y8023D01*
X13194Y8025D01*
X13197Y8027D01*
X13199Y8028D01*
X13200Y8030D01*
X13202Y8033D01*
X13203Y8035D01*
X13205Y8037D01*
X13206Y8040D01*
X13207Y8043D01*
X13207Y8045D01*
X13208Y8048D01*
X13208Y8051D01*
Y8053D01*
X13208Y8056D01*
X13207Y8059D01*
X13207Y8061D01*
X13206Y8064D01*
X13205Y8067D01*
X13203Y8069D01*
X13202Y8071D01*
X13200Y8074D01*
X13199Y8076D01*
X13197Y8077D01*
X13194Y8079D01*
X13192Y8081D01*
X13190Y8082D01*
X13187Y8083D01*
X13185Y8084D01*
X13182Y8085D01*
X13179Y8086D01*
X13177Y8086D01*
X13174Y8086D01*
Y8076D02*
X6074D01*
X6072Y8076D01*
X6069Y8076D01*
X6067Y8075D01*
X6065Y8074D01*
X6063Y8073D01*
X6061Y8072D01*
X6059Y8071D01*
X6057Y8069D01*
X6056Y8068D01*
X6054Y8066D01*
X6053Y8064D01*
X6052Y8062D01*
X6051Y8060D01*
X6051Y8058D01*
X6050Y8055D01*
X6050Y8053D01*
Y8051D01*
X6050Y8049D01*
X6051Y8046D01*
X6051Y8044D01*
X6052Y8042D01*
X6053Y8040D01*
X6054Y8038D01*
X6056Y8036D01*
X6057Y8035D01*
X6059Y8033D01*
X6061Y8032D01*
X6063Y8031D01*
X6065Y8030D01*
X6067Y8029D01*
X6069Y8028D01*
X6072Y8028D01*
X6074Y8028D01*
X13174D01*
X13176Y8028D01*
X13179Y8028D01*
X13181Y8029D01*
X13183Y8030D01*
X13185Y8031D01*
X13187Y8032D01*
X13189Y8033D01*
X13191Y8035D01*
X13192Y8036D01*
X13194Y8038D01*
X13195Y8040D01*
X13196Y8042D01*
X13197Y8044D01*
X13197Y8046D01*
X13198Y8049D01*
X13198Y8051D01*
Y8053D01*
X13198Y8055D01*
X13197Y8058D01*
X13197Y8060D01*
X13196Y8062D01*
X13195Y8064D01*
X13194Y8066D01*
X13192Y8068D01*
X13191Y8069D01*
X13189Y8071D01*
X13187Y8072D01*
X13185Y8073D01*
X13183Y8074D01*
X13181Y8075D01*
X13179Y8076D01*
X13176Y8076D01*
X13174Y8076D01*
Y8066D02*
X6074D01*
X6072Y8066D01*
X6070Y8065D01*
X6068Y8065D01*
X6066Y8064D01*
X6064Y8062D01*
X6063Y8061D01*
X6062Y8059D01*
X6061Y8057D01*
X6060Y8055D01*
X6060Y8053D01*
Y8051D01*
X6060Y8049D01*
X6061Y8047D01*
X6062Y8045D01*
X6063Y8043D01*
X6064Y8042D01*
X6066Y8040D01*
X6068Y8039D01*
X6070Y8039D01*
X6072Y8038D01*
X6074Y8038D01*
X13174D01*
X13176Y8038D01*
X13178Y8039D01*
X13180Y8039D01*
X13182Y8040D01*
X13184Y8042D01*
X13185Y8043D01*
X13186Y8045D01*
X13187Y8047D01*
X13188Y8049D01*
X13188Y8051D01*
Y8053D01*
X13188Y8055D01*
X13187Y8057D01*
X13186Y8059D01*
X13185Y8061D01*
X13184Y8062D01*
X13182Y8064D01*
X13180Y8065D01*
X13178Y8065D01*
X13176Y8066D01*
X13174Y8066D01*
Y8056D02*
X6074D01*
X6073Y8056D01*
X6071Y8055D01*
X6071Y8054D01*
X6070Y8053D01*
Y8051D01*
X6071Y8050D01*
X6071Y8049D01*
X6073Y8048D01*
X6074Y8048D01*
X13174D01*
X13175Y8048D01*
X13177Y8049D01*
X13177Y8050D01*
X13178Y8051D01*
Y8053D01*
X13177Y8054D01*
X13177Y8055D01*
X13175Y8056D01*
X13174Y8056D01*
Y8052D02*
X6074D01*
D17*
Y7452D02*
D03*
X13174Y7552D02*
D03*
X13074D02*
D03*
X13174Y7652D02*
D03*
X13074D02*
D03*
X13174Y7752D02*
D03*
X13074D02*
D03*
X13174Y7852D02*
D03*
X13074D02*
D03*
X13174Y7952D02*
D03*
X12174Y7552D02*
D03*
X12074D02*
D03*
X12174Y7652D02*
D03*
X12074D02*
D03*
X12174Y7752D02*
D03*
X12074D02*
D03*
X12174Y7852D02*
D03*
X12074D02*
D03*
X12174Y7952D02*
D03*
X11174Y7552D02*
D03*
X11074D02*
D03*
X11174Y7652D02*
D03*
X11074D02*
D03*
X11174Y7752D02*
D03*
X11074D02*
D03*
X11174Y7852D02*
D03*
X11074D02*
D03*
X11174Y7952D02*
D03*
X10174Y7552D02*
D03*
X10074D02*
D03*
X10174Y7652D02*
D03*
X10074D02*
D03*
X10174Y7752D02*
D03*
X10074D02*
D03*
X10174Y7852D02*
D03*
X10074D02*
D03*
X10174Y7952D02*
D03*
X9174Y7552D02*
D03*
X9074D02*
D03*
X9174Y7652D02*
D03*
X9074D02*
D03*
X9174Y7752D02*
D03*
X9074D02*
D03*
X9174Y7852D02*
D03*
X9074D02*
D03*
X9174Y7952D02*
D03*
X8174Y7552D02*
D03*
X8074D02*
D03*
X8174Y7652D02*
D03*
X8074D02*
D03*
X8174Y7752D02*
D03*
X8074D02*
D03*
X8174Y7852D02*
D03*
X8074D02*
D03*
X8174Y7952D02*
D03*
X7174Y7552D02*
D03*
X7074D02*
D03*
X7174Y7652D02*
D03*
X7074D02*
D03*
X7174Y7752D02*
D03*
X7074D02*
D03*
X7174Y7852D02*
D03*
X7074D02*
D03*
X7174Y7952D02*
D03*
X6174Y7552D02*
D03*
X6074D02*
D03*
X6174Y7652D02*
D03*
X6074D02*
D03*
X6174Y7752D02*
D03*
X6074D02*
D03*
X6174Y7852D02*
D03*
X6074D02*
D03*
X6174Y7952D02*
D03*
D22*
X13424Y7452D02*
X13474Y7502D01*
Y8002D02*
X13424Y8052D01*
Y7452D02*
X13224D01*
Y8052D02*
X13424D01*
D23*
X13474Y7674D02*
D03*
Y7986D02*
D03*
Y7518D02*
D03*
Y7830D02*
D03*
D25*
X13524Y7752D02*
X6074D01*
D26*
X13074Y7952D02*
D03*
X12074D02*
D03*
X11074D02*
D03*
X10074D02*
D03*
X9074D02*
D03*
X8074D02*
D03*
X7074D02*
D03*
X6074D02*
D03*
M02*
