%FSLAX24Y24*%
%MOIN*%
G70*
G01*
G75*
G04 Layer_Color=8388736*
%ADD10C,0.0120*%
%ADD11C,0.0100*%
%ADD12C,0.1000*%
%ADD13C,0.0620*%
%ADD14R,0.0620X0.0620*%
%ADD15C,0.0200*%
%ADD16C,0.0060*%
%ADD17C,0.1040*%
%ADD18C,0.0660*%
%ADD19R,0.0660X0.0660*%
D11*
X10000Y10000D02*
Y24000D01*
X50000Y10000D02*
Y24000D01*
X10000D02*
X50000D01*
X10000Y10000D02*
X50000D01*
D17*
X45000Y10750D02*
D03*
X41968Y11734D02*
D03*
X48032D02*
D03*
X35000Y10750D02*
D03*
X31969Y11734D02*
D03*
X38031D02*
D03*
X25000Y10750D02*
D03*
X21969Y11734D02*
D03*
X28031D02*
D03*
X15000Y10750D02*
D03*
X11968Y11734D02*
D03*
X18032D02*
D03*
D18*
X11750Y10500D02*
D03*
X10750D02*
D03*
X13500Y18500D02*
D03*
X17500D02*
D03*
Y21000D02*
D03*
X14500D02*
D03*
X15500Y20000D02*
D03*
Y21000D02*
D03*
X16500Y20000D02*
D03*
Y21000D02*
D03*
X17500Y20000D02*
D03*
X18500D02*
D03*
Y21000D02*
D03*
X21750Y10500D02*
D03*
X20750D02*
D03*
X27000Y21000D02*
D03*
X28000Y20000D02*
D03*
Y21000D02*
D03*
X29000Y20000D02*
D03*
Y21000D02*
D03*
X30000Y20000D02*
D03*
Y21000D02*
D03*
X31000Y20000D02*
D03*
Y21000D02*
D03*
X32000Y20000D02*
D03*
Y21000D02*
D03*
X33000Y20000D02*
D03*
Y21000D02*
D03*
X34000Y20000D02*
D03*
Y21000D02*
D03*
X30000Y18000D02*
D03*
X26000D02*
D03*
X20500Y17000D02*
D03*
X16500D02*
D03*
X31750Y10500D02*
D03*
X30750D02*
D03*
X41750D02*
D03*
X40750D02*
D03*
Y17000D02*
D03*
Y21000D02*
D03*
X26000Y23000D02*
D03*
X26500Y16250D02*
D03*
X17000Y11000D02*
D03*
X14000Y23250D02*
D03*
D19*
X14500Y20000D02*
D03*
X27000D02*
D03*
M02*
