%FSLAX24Y24*%
%MOIN*%
G70*
G01*
G75*
G04 Layer_Color=16711935*
%ADD10C,0.0120*%
%ADD11C,0.0100*%
%ADD12C,0.1000*%
%ADD13C,0.0620*%
%ADD14R,0.0620X0.0620*%
%ADD15C,0.0200*%
%ADD16C,0.0060*%
%ADD17C,0.1040*%
%ADD18C,0.0660*%
%ADD19R,0.0660X0.0660*%
D11*
X21416Y28750D02*
X20750D01*
Y28250D01*
X21083Y28416D01*
X21250D01*
X21416Y28250D01*
Y27917D01*
X21250Y27750D01*
X20917D01*
X20750Y27917D01*
X21750Y28583D02*
X21916Y28750D01*
X22250D01*
X22416Y28583D01*
Y27917D01*
X22250Y27750D01*
X21916D01*
X21750Y27917D01*
Y28583D01*
X22749D02*
X22916Y28750D01*
X23249D01*
X23416Y28583D01*
Y27917D01*
X23249Y27750D01*
X22916D01*
X22749Y27917D01*
Y28583D01*
X23749Y28250D02*
X24415D01*
X24749Y27750D02*
X25082D01*
X24915D01*
Y28750D01*
X24749Y28583D01*
X25582D02*
X25748Y28750D01*
X26082D01*
X26248Y28583D01*
Y27917D01*
X26082Y27750D01*
X25748D01*
X25582Y27917D01*
Y28583D01*
X26581Y28750D02*
X27248D01*
Y28583D01*
X26581Y27917D01*
Y27750D01*
X27581D02*
X27914D01*
X27748D01*
Y28750D01*
X27581Y28583D01*
X28414Y28250D02*
X29081D01*
X29414Y28583D02*
X29580Y28750D01*
X29914D01*
X30080Y28583D01*
Y27917D01*
X29914Y27750D01*
X29580D01*
X29414Y27917D01*
Y28583D01*
X30414D02*
X30580Y28750D01*
X30913D01*
X31080Y28583D01*
Y28416D01*
X30913Y28250D01*
X30747D01*
X30913D01*
X31080Y28083D01*
Y27917D01*
X30913Y27750D01*
X30580D01*
X30414Y27917D01*
X32413Y27750D02*
Y28750D01*
X32913D01*
X33079Y28583D01*
Y28250D01*
X32913Y28083D01*
X32413D01*
X32746D02*
X33079Y27750D01*
X34079Y28750D02*
X33413D01*
Y27750D01*
X34079D01*
X33413Y28250D02*
X33746D01*
X34412Y28750D02*
Y28083D01*
X34745Y27750D01*
X35079Y28083D01*
Y28750D01*
X36412Y27750D02*
Y28416D01*
X36745Y28750D01*
X37078Y28416D01*
Y27750D01*
Y28250D01*
X36412D01*
X38411Y28750D02*
X39077D01*
X38744D01*
Y27750D01*
X39910Y28750D02*
X39577D01*
X39411Y28583D01*
Y27917D01*
X39577Y27750D01*
X39910D01*
X40077Y27917D01*
Y28583D01*
X39910Y28750D01*
X40410Y27750D02*
Y28750D01*
X40910D01*
X41077Y28583D01*
Y28250D01*
X40910Y28083D01*
X40410D01*
X42410Y28750D02*
Y27750D01*
X42910D01*
X43076Y27917D01*
Y28083D01*
X42910Y28250D01*
X42410D01*
X42910D01*
X43076Y28416D01*
Y28583D01*
X42910Y28750D01*
X42410D01*
X43909D02*
X43576D01*
X43409Y28583D01*
Y27917D01*
X43576Y27750D01*
X43909D01*
X44076Y27917D01*
Y28583D01*
X43909Y28750D01*
X44409D02*
X45075D01*
X44742D01*
Y27750D01*
X45409Y28750D02*
X46075D01*
X45742D01*
Y27750D01*
X46908Y28750D02*
X46575D01*
X46408Y28583D01*
Y27917D01*
X46575Y27750D01*
X46908D01*
X47075Y27917D01*
Y28583D01*
X46908Y28750D01*
X47408Y27750D02*
Y28750D01*
X47741Y28416D01*
X48074Y28750D01*
Y27750D01*
X50074Y28583D02*
X49907Y28750D01*
X49574D01*
X49407Y28583D01*
Y28416D01*
X49574Y28250D01*
X49907D01*
X50074Y28083D01*
Y27917D01*
X49907Y27750D01*
X49574D01*
X49407Y27917D01*
X50907Y28750D02*
X50574D01*
X50407Y28583D01*
Y27917D01*
X50574Y27750D01*
X50907D01*
X51074Y27917D01*
Y28583D01*
X50907Y28750D01*
X51407D02*
Y27750D01*
X52073D01*
X52406Y28750D02*
Y27750D01*
X52906D01*
X53073Y27917D01*
Y28583D01*
X52906Y28750D01*
X52406D01*
X54073D02*
X53406D01*
Y27750D01*
X54073D01*
X53406Y28250D02*
X53739D01*
X54406Y27750D02*
Y28750D01*
X54906D01*
X55072Y28583D01*
Y28250D01*
X54906Y28083D01*
X54406D01*
X54739D02*
X55072Y27750D01*
X56405D02*
Y28750D01*
X56738Y28416D01*
X57072Y28750D01*
Y27750D01*
X57405D02*
Y28416D01*
X57738Y28750D01*
X58071Y28416D01*
Y27750D01*
Y28250D01*
X57405D01*
X59071Y28583D02*
X58904Y28750D01*
X58571D01*
X58404Y28583D01*
Y28416D01*
X58571Y28250D01*
X58904D01*
X59071Y28083D01*
Y27917D01*
X58904Y27750D01*
X58571D01*
X58404Y27917D01*
X59404Y28750D02*
Y27750D01*
Y28083D01*
X60071Y28750D01*
X59571Y28250D01*
X60071Y27750D01*
X10000Y10000D02*
Y24000D01*
X50000Y10000D02*
Y24000D01*
X10000D02*
X50000D01*
X10000Y10000D02*
X50000D01*
D17*
X45000Y10750D02*
D03*
X41968Y11734D02*
D03*
X48032D02*
D03*
X35000Y10750D02*
D03*
X31969Y11734D02*
D03*
X38031D02*
D03*
X25000Y10750D02*
D03*
X21969Y11734D02*
D03*
X28031D02*
D03*
X15000Y10750D02*
D03*
X11968Y11734D02*
D03*
X18032D02*
D03*
D18*
X11750Y10500D02*
D03*
X10750D02*
D03*
X13500Y18500D02*
D03*
X17500D02*
D03*
Y21000D02*
D03*
X14500D02*
D03*
X15500Y20000D02*
D03*
Y21000D02*
D03*
X16500Y20000D02*
D03*
Y21000D02*
D03*
X17500Y20000D02*
D03*
X18500D02*
D03*
Y21000D02*
D03*
X21750Y10500D02*
D03*
X20750D02*
D03*
X27000Y21000D02*
D03*
X28000Y20000D02*
D03*
Y21000D02*
D03*
X29000Y20000D02*
D03*
Y21000D02*
D03*
X30000Y20000D02*
D03*
Y21000D02*
D03*
X31000Y20000D02*
D03*
Y21000D02*
D03*
X32000Y20000D02*
D03*
Y21000D02*
D03*
X33000Y20000D02*
D03*
Y21000D02*
D03*
X34000Y20000D02*
D03*
Y21000D02*
D03*
X30000Y18000D02*
D03*
X26000D02*
D03*
X20500Y17000D02*
D03*
X16500D02*
D03*
X31750Y10500D02*
D03*
X30750D02*
D03*
X41750D02*
D03*
X40750D02*
D03*
Y17000D02*
D03*
Y21000D02*
D03*
X26000Y23000D02*
D03*
X26500Y16250D02*
D03*
X17000Y11000D02*
D03*
X14000Y23250D02*
D03*
D19*
X14500Y20000D02*
D03*
X27000D02*
D03*
M02*
