*%FSLAX23Y23*%
*%MOIN*%
G01*
%ADD11C,0.007*%
%ADD12C,0.008*%
%ADD13C,0.010*%
%ADD14C,0.012*%
%ADD15C,0.020*%
%ADD16C,0.032*%
%ADD17C,0.036*%
%ADD18C,0.050*%
%ADD19C,0.052*%
%ADD20C,0.055*%
%ADD21C,0.056*%
%ADD22C,0.060*%
%ADD23C,0.061*%
%ADD24C,0.062*%
%ADD25C,0.066*%
%ADD26C,0.068*%
%ADD27C,0.070*%
%ADD28C,0.080*%
%ADD29C,0.090*%
%ADD30C,0.095*%
%ADD31C,0.115*%
%ADD32C,0.120*%
%ADD33C,0.125*%
%ADD34C,0.126*%
%ADD35C,0.131*%
%ADD36C,0.150*%
%ADD37C,0.156*%
%ADD38R,0.062X0.062*%
%ADD39R,0.068X0.068*%
D13*
X11909Y9314D02*
X11976D01*
X11909Y9381D01*
Y9397D01*
X11926Y9414D01*
X11959D01*
X11976Y9397D01*
X11876D02*
X11859Y9414D01*
X11826D01*
X11809Y9397D01*
Y9331D01*
X11826Y9314D01*
X11859D01*
X11876Y9331D01*
Y9397D01*
X11776D02*
X11759Y9414D01*
X11726D01*
X11709Y9397D01*
Y9331D01*
X11726Y9314D01*
X11759D01*
X11776Y9331D01*
Y9397D01*
X11676Y9364D02*
X11609D01*
X11576Y9314D02*
X11543D01*
X11559D01*
Y9414D01*
X11560D01*
X11559D02*
X11576Y9397D01*
X11493D02*
X11476Y9414D01*
X11443D01*
X11426Y9397D01*
Y9331D01*
X11443Y9314D01*
X11476D01*
X11493Y9331D01*
Y9397D01*
X11393D02*
X11376Y9414D01*
X11343D01*
X11326Y9397D01*
Y9331D01*
X11343Y9314D01*
X11376D01*
X11393Y9331D01*
Y9397D01*
X11243Y9414D02*
Y9314D01*
X11293Y9364D02*
X11243Y9414D01*
X11226Y9364D02*
X11293D01*
X11193D02*
X11126D01*
X11093Y9397D02*
X11076Y9414D01*
X11043D01*
X11026Y9397D01*
Y9331D01*
X11043Y9314D01*
X11076D01*
X11093Y9331D01*
Y9397D01*
X10993Y9314D02*
X10960D01*
X10976D01*
Y9414D01*
X10977D01*
X10976D02*
X10993Y9397D01*
X10810Y9414D02*
Y9314D01*
Y9414D02*
X10760D01*
X10743Y9397D01*
Y9364D01*
X10760Y9347D01*
X10810D01*
X10776D02*
X10743Y9314D01*
X10710Y9414D02*
X10643D01*
X10710D02*
Y9314D01*
X10643D01*
X10676Y9364D02*
X10710D01*
X10610Y9347D02*
Y9414D01*
Y9347D02*
X10576Y9314D01*
X10543Y9347D01*
Y9414D01*
X10410D02*
Y9314D01*
X10343D02*
X10410Y9414D01*
X10343D02*
Y9314D01*
X10243Y9397D02*
X10260Y9414D01*
X10293D01*
X10310Y9397D01*
Y9331D01*
X10293Y9314D01*
X10260D01*
X10243Y9331D01*
X10060Y9414D02*
X10043Y9397D01*
X10060Y9414D02*
X10093D01*
X10110Y9397D01*
Y9331D01*
X10093Y9314D01*
X10060D01*
X10043Y9331D01*
X10010Y9414D02*
X9977D01*
X9993D01*
Y9314D01*
X10010D01*
X9977D01*
X9927D02*
Y9414D01*
X9877D01*
X9860Y9397D01*
Y9364D01*
X9877Y9347D01*
X9927D01*
X9893D02*
X9860Y9314D01*
X9760Y9397D02*
X9777Y9414D01*
X9810D01*
X9827Y9397D01*
Y9331D01*
X9810Y9314D01*
X9777D01*
X9760Y9331D01*
X9727D02*
Y9414D01*
Y9331D02*
X9710Y9314D01*
X9677D01*
X9660Y9331D01*
Y9414D01*
X9627D02*
X9593D01*
X9610D01*
Y9314D01*
X9627D01*
X9593D01*
X9543Y9414D02*
X9477D01*
X9510D01*
Y9314D01*
X9294Y9414D02*
X9277Y9397D01*
X9294Y9414D02*
X9327D01*
X9344Y9397D01*
Y9381D01*
X9327Y9364D01*
X9294D01*
X9277Y9347D01*
Y9331D01*
X9294Y9314D01*
X9327D01*
X9344Y9331D01*
X9244Y9414D02*
X9210D01*
X9227D01*
Y9314D01*
X9244D01*
X9210D01*
X9160D02*
Y9414D01*
Y9314D02*
X9110D01*
X9094Y9331D01*
Y9397D01*
X9110Y9414D01*
X9160D01*
X9060D02*
X8994D01*
X9060D02*
Y9314D01*
X8994D01*
X9027Y9364D02*
X9060D01*
X6526Y7989D02*
Y7949D01*
Y7989D02*
X6486Y7949D01*
X6476D01*
X6466Y7959D01*
Y7979D01*
X6476Y7989D01*
Y7929D02*
X6466Y7919D01*
Y7899D01*
X6476Y7889D01*
X6516D01*
X6526Y7899D01*
Y7919D01*
X6516Y7929D01*
X6476D01*
Y7869D02*
X6466Y7859D01*
Y7839D01*
X6476Y7829D01*
X6516D01*
X6526Y7839D01*
Y7859D01*
X6516Y7869D01*
X6476D01*
X6496Y7809D02*
Y7769D01*
X6526Y7749D02*
Y7729D01*
Y7739D01*
X6466D01*
X6467D01*
X6466D02*
X6476Y7749D01*
Y7699D02*
X6466Y7689D01*
Y7669D01*
X6476Y7659D01*
X6516D01*
X6526Y7669D01*
Y7689D01*
X6516Y7699D01*
X6476D01*
Y7639D02*
X6466Y7629D01*
Y7609D01*
X6476Y7599D01*
X6516D01*
X6526Y7609D01*
Y7629D01*
X6516Y7639D01*
X6476D01*
X6466Y7549D02*
X6526D01*
X6496Y7579D02*
X6466Y7549D01*
X6496Y7539D02*
Y7579D01*
X6526Y7459D02*
X6466D01*
Y7429D01*
X6476Y7419D01*
X6496D01*
X6506Y7429D01*
Y7459D01*
Y7439D02*
X6526Y7419D01*
X6466Y7399D02*
Y7359D01*
Y7399D02*
X6526D01*
Y7359D01*
X6496Y7379D02*
Y7399D01*
X6506Y7339D02*
X6466D01*
X6506D02*
X6526Y7319D01*
X6506Y7299D01*
X6466D01*
Y7219D02*
X6526D01*
Y7179D02*
X6466Y7219D01*
Y7179D02*
X6526D01*
X6476Y7119D02*
X6466Y7129D01*
Y7149D01*
X6476Y7159D01*
X6516D01*
X6526Y7149D01*
Y7129D01*
X6516Y7119D01*
X6426Y7964D02*
X6366D01*
X6426D02*
Y7934D01*
X6416Y7924D01*
X6406D01*
X6396Y7934D01*
Y7964D01*
X6397D01*
X6396D02*
X6397D01*
X6396D02*
X6397D01*
X6396D02*
Y7934D01*
X6386Y7924D01*
X6376D01*
X6366Y7934D01*
Y7964D01*
Y7904D02*
X6376D01*
X6396Y7884D01*
X6376Y7864D01*
X6366D01*
X6396Y7884D02*
X6426D01*
X6366Y7764D02*
Y7744D01*
Y7754D02*
Y7764D01*
Y7754D02*
X6416D01*
X6426Y7764D01*
Y7774D01*
X6416Y7784D01*
X6366Y7724D02*
Y7704D01*
Y7714D01*
X6426D01*
Y7724D01*
Y7704D01*
Y7674D02*
X6366D01*
X6386Y7654D01*
X6366Y7634D01*
X6426D01*
Y7554D02*
X6366D01*
Y7524D01*
X6376Y7514D01*
X6396D01*
X6406Y7524D01*
Y7554D01*
X6426Y7494D02*
X6386D01*
X6366Y7474D01*
X6386Y7454D01*
X6426D01*
X6396D01*
Y7494D01*
X6366Y7434D02*
Y7394D01*
Y7414D01*
X6426D01*
X6366Y7344D02*
X6376Y7334D01*
X6366Y7344D02*
Y7364D01*
X6376Y7374D01*
X6416D01*
X6426Y7364D01*
Y7344D01*
X6416Y7334D01*
X6426Y7314D02*
X6366D01*
X6396D02*
X6426D01*
X6396D02*
Y7274D01*
X6366D01*
X6426D01*
X6366Y7254D02*
Y7214D01*
Y7254D02*
X6426D01*
Y7214D01*
X6396Y7234D02*
Y7254D01*
X6366Y7194D02*
X6426D01*
Y7154D01*
Y7134D02*
X6366D01*
X6426D02*
Y7094D01*
X6276Y7999D02*
X6266Y8009D01*
Y8029D01*
X6276Y8039D01*
X6316D01*
X6326Y8029D01*
Y8009D01*
X6316Y7999D01*
X6266Y7969D02*
Y7949D01*
Y7969D02*
X6276Y7979D01*
X6316D01*
X6326Y7969D01*
Y7949D01*
X6316Y7939D01*
X6276D01*
X6266Y7949D01*
Y7919D02*
X6326D01*
X6266D02*
Y7889D01*
X6276Y7879D01*
X6296D01*
X6306Y7889D01*
Y7919D01*
X6276Y7859D02*
X6266D01*
X6276D02*
X6296Y7839D01*
X6276Y7819D01*
X6266D01*
X6296Y7839D02*
X6326D01*
Y7799D02*
X6266D01*
Y7769D01*
X6276Y7759D01*
X6296D01*
X6306Y7769D01*
Y7799D01*
Y7779D02*
X6326Y7759D01*
X6266Y7739D02*
Y7719D01*
Y7729D01*
X6326D01*
Y7739D01*
Y7719D01*
X6266Y7659D02*
X6276Y7649D01*
X6266Y7659D02*
Y7679D01*
X6276Y7689D01*
X6316D01*
X6326Y7679D01*
Y7659D01*
X6316Y7649D01*
X6296D01*
Y7669D01*
X6266Y7629D02*
X6326D01*
X6296D01*
Y7589D01*
X6266D01*
X6326D01*
X6266Y7569D02*
Y7529D01*
Y7549D01*
X6326D01*
X6306Y7449D02*
X6326Y7429D01*
X6306Y7449D02*
X6286D01*
X6266Y7429D01*
Y7369D02*
X6276Y7359D01*
X6266Y7369D02*
Y7389D01*
X6276Y7399D01*
X6316D01*
X6326Y7389D01*
Y7369D01*
X6316Y7359D01*
X6326Y7339D02*
X6306Y7319D01*
X6286D01*
X6266Y7339D01*
X6326Y7229D02*
Y7189D01*
Y7229D02*
X6286Y7189D01*
X6276D01*
X6266Y7199D01*
Y7219D01*
X6276Y7229D01*
Y7169D02*
X6266Y7159D01*
Y7139D01*
X6276Y7129D01*
X6316D01*
X6326Y7139D01*
Y7159D01*
X6316Y7169D01*
X6276D01*
Y7109D02*
X6266Y7099D01*
Y7079D01*
X6276Y7069D01*
X6316D01*
X6326Y7079D01*
Y7099D01*
X6316Y7109D01*
X6276D01*
Y7049D02*
X6266Y7039D01*
Y7019D01*
X6276Y7009D01*
X6286D01*
X6287D01*
X6286D02*
X6287D01*
X6286D02*
X6287D01*
X6286D02*
X6296Y7019D01*
Y7029D01*
Y7019D01*
X6306Y7009D01*
X6316D01*
X6326Y7019D01*
Y7039D01*
X6316Y7049D01*
X6201Y9214D02*
X14201D01*
Y6464D02*
X6201D01*
X14201D02*
Y9214D01*
X6201D02*
Y6464D01*
D14*
X9501Y7514D02*
X9626Y7389D01*
X11976Y7814D02*
X12126Y7664D01*
X9551Y7164D02*
X9201Y7514D01*
X11951Y8239D02*
X12176Y8014D01*
Y7914D02*
X11901Y8189D01*
X11926Y8214D02*
X12176Y7964D01*
X11651Y7464D02*
X11501Y7614D01*
X12051Y6714D02*
X11926Y6589D01*
X7451Y8514D02*
X7301Y8364D01*
X10301Y8914D02*
X10476Y9089D01*
X10576Y6814D02*
X10401Y6639D01*
X13501Y7714D02*
X13751Y7964D01*
X11926Y6589D02*
X11776D01*
X10376Y6614D02*
X10301D01*
X10676Y6589D02*
X11251D01*
X12676D02*
X13001D01*
X11951Y6564D02*
X11626D01*
X12051Y6714D02*
X12501D01*
X12701Y6764D02*
X12051D01*
X12801Y6789D02*
X11276D01*
X12801D02*
X12826D01*
X10851Y6714D02*
X10751D01*
X10876Y6689D02*
X11176D01*
X12826Y6789D02*
X13051D01*
X12051Y6814D02*
X10576D01*
X11326Y6664D02*
X11601D01*
X11201D02*
X10801D01*
X11801D02*
X11951D01*
X11726Y6739D02*
X11276D01*
X12801Y6664D02*
X12976D01*
X13051Y6739D02*
X13726D01*
X12601Y6664D02*
X12051D01*
X13326D02*
X13601D01*
X13301Y6689D02*
X13101D01*
X11126Y6839D02*
X10776D01*
X12501Y7014D02*
X13701D01*
X13226Y6914D02*
X12151D01*
X13276Y6964D02*
X13976D01*
X13276Y6864D02*
X12251D01*
X13326Y6914D02*
X13751D01*
X11126Y7114D02*
X10951D01*
X11176Y7164D02*
X11251D01*
X9951D02*
X9551D01*
X11751Y7064D02*
X11901D01*
X7101Y7164D02*
X6951D01*
X8951D02*
X9151D01*
X8101D02*
X7951D01*
X9626Y7389D02*
X10451D01*
X10601Y7364D02*
X9501D01*
X11351Y7264D02*
X11701D01*
X11926Y7314D02*
X12601D01*
X11001Y7414D02*
X10651D01*
X11051Y7314D02*
X11151D01*
Y7464D02*
X10526D01*
X12576Y7614D02*
X12601D01*
X12551Y7589D02*
X12101D01*
X9201Y7514D02*
X9001D01*
X10101Y7564D02*
X11051D01*
X7751D02*
X7651D01*
X7301D02*
X7101D01*
X7926D02*
X8101D01*
X7601Y7514D02*
X7501D01*
X11401Y7614D02*
X11501D01*
X11726D02*
X11801D01*
X8676Y7564D02*
X8101D01*
X8726Y7614D02*
X9001D01*
X9051Y7564D02*
X9151D01*
X8926Y7589D02*
X8776D01*
X9151Y7564D02*
X9351D01*
X9551D02*
X9651D01*
X9901Y7514D02*
X9951D01*
X10401D02*
X10501D01*
X10326Y7439D02*
X10126D01*
X12126Y7664D02*
X12401D01*
X12026D02*
X11776D01*
X11101D02*
X10101D01*
X7851Y7639D02*
X7376D01*
X11401Y7714D02*
X11626D01*
X13151D02*
X13501D01*
X11976Y7814D02*
X11251D01*
X8651Y7864D02*
X8551D01*
X9501Y7914D02*
X9601D01*
X10876D02*
X11001D01*
X10776Y7814D02*
X10251D01*
X10201Y7914D02*
X10301D01*
X12526Y7889D02*
X13376D01*
X13451Y7964D02*
X13501D01*
X12501Y7914D02*
X12401D01*
X12176D01*
Y7964D02*
X12926D01*
X7101Y7989D02*
X6876D01*
X7101D02*
X7326D01*
X8851Y7864D02*
X8951D01*
X8026Y7914D02*
X7801D01*
X9226D02*
X9301D01*
X9151Y7839D02*
X8101D01*
X7701Y7914D02*
X7601D01*
X8476Y8139D02*
X8626D01*
X8351Y8164D02*
X9651D01*
X9601Y8189D02*
X8326D01*
X8301Y8114D02*
X8101D01*
X8276Y8139D02*
X7326D01*
X7101Y8164D02*
X8251D01*
X11501Y8064D02*
X11601D01*
X12176Y8014D02*
X12826D01*
X11901Y8189D02*
X9676D01*
X8101Y8114D02*
X7376D01*
X12976Y8014D02*
X13051D01*
X13151D02*
X13401D01*
X13426Y8039D02*
X13951D01*
X6876Y7989D02*
X6801Y8064D01*
X8301Y8214D02*
X9576D01*
X8501Y8264D02*
X8126D01*
X8076Y8214D02*
X7801D01*
X7301Y8364D02*
X7201D01*
X11601D02*
X11701D01*
X10301D02*
X10201D01*
X12951Y8239D02*
X13151D01*
X11951D02*
X9601D01*
X11826Y8214D02*
X11926D01*
X11826D02*
X9626D01*
X7101Y8064D02*
Y7989D01*
X7001Y8064D02*
X7101Y8164D01*
X7451Y8514D02*
X8901D01*
X10301D02*
X10401D01*
X10301D02*
X10201D01*
X11101D02*
X11201D01*
X7301Y8114D02*
Y8064D01*
X7351Y8014D02*
X7326Y7989D01*
X7301Y8114D02*
X7326Y8139D01*
X7376Y7639D02*
X7301Y7564D01*
X10576Y8714D02*
X11451D01*
X11601Y8664D02*
X11026D01*
X10976Y8614D02*
X10501D01*
X11101D02*
X11201D01*
X7351Y8089D02*
Y8014D01*
Y8089D02*
X7376Y8114D01*
X10401Y8914D02*
X10476D01*
X10601Y8939D02*
X10826D01*
X7651Y7564D02*
X7601Y7514D01*
X10476Y9089D02*
X10901D01*
X10876Y8989D02*
X11051D01*
X7801Y7514D02*
X7751Y7564D01*
X7851Y7639D02*
X7926Y7564D01*
X8101Y8064D02*
Y8114D01*
X8026Y7914D02*
X8101Y7839D01*
X8076Y8214D02*
X8126Y8264D01*
X8301Y8114D02*
X8351Y8164D01*
X8326Y8189D02*
X8276Y8139D01*
X8251Y8164D02*
X8301Y8214D01*
X8501Y7914D02*
X8551Y7864D01*
X8401Y8064D02*
X8476Y8139D01*
X8626D02*
X8701Y8064D01*
Y7914D02*
X8651Y7864D01*
X8726Y7614D02*
X8676Y7564D01*
X8701Y7514D02*
X8776Y7589D01*
X8851Y7864D02*
X8801Y7914D01*
X9001Y8364D02*
Y8414D01*
X8901Y8514D01*
X8926Y7589D02*
X9001Y7514D01*
X9051Y7564D02*
X9001Y7614D01*
X8951Y7864D02*
X9001Y7914D01*
X9151Y7839D02*
X9226Y7914D01*
X9401Y7514D02*
Y7464D01*
X9501Y7364D01*
X9401Y7514D02*
X9351Y7564D01*
X9651D02*
X9701Y7514D01*
X9551Y7564D02*
X9501Y7514D01*
X9651Y8164D02*
X9676Y8189D01*
X9626Y8214D02*
X9601Y8189D01*
X9576Y8214D02*
X9601Y8239D01*
X10051Y7514D02*
X10126Y7439D01*
X10001Y7564D02*
X9951Y7514D01*
X10451Y7389D02*
X10526Y7464D01*
X10401Y7514D02*
X10326Y7439D01*
X10401Y6639D02*
X10376Y6614D01*
X10501Y8839D02*
Y8889D01*
Y8839D02*
Y8789D01*
Y8889D02*
X10476Y8914D01*
X10501Y8789D02*
X10576Y8714D01*
X10601Y6664D02*
X10676Y6589D01*
X10601Y7364D02*
X10651Y7414D01*
X10576Y8914D02*
X10601Y8939D01*
X10701Y6914D02*
X10776Y6839D01*
X10851Y6714D02*
X10876Y6689D01*
X10751Y6714D02*
X10701Y6664D01*
X10776Y7814D02*
X10876Y7914D01*
X10826Y8939D02*
X10876Y8989D01*
X10926Y9064D02*
X10901Y9089D01*
X11026Y8664D02*
X10976Y8614D01*
X11001Y8514D02*
X11101Y8614D01*
X11151Y6914D02*
Y6864D01*
X11201Y7714D02*
Y7764D01*
Y7714D02*
Y7514D01*
X11101Y8914D02*
Y8939D01*
X11051Y8989D01*
X11176Y7164D02*
X11126Y7114D01*
X11151Y6864D02*
X11126Y6839D01*
X11201Y7764D02*
X11251Y7814D01*
X11201Y7514D02*
X11151Y7464D01*
X11276Y6789D02*
X11176Y6689D01*
X11201Y6664D02*
X11276Y6739D01*
X11251Y7164D02*
X11351Y7264D01*
X11326Y6664D02*
X11251Y6589D01*
X11601D02*
Y6664D01*
X11726Y7614D02*
X11626Y7714D01*
X11601Y6589D02*
X11626Y6564D01*
X11751Y7164D02*
Y7214D01*
X11701Y7264D01*
X11776Y7664D02*
X11701Y7739D01*
Y6664D02*
X11776Y6589D01*
X11751Y7064D02*
X11651Y7164D01*
X11726Y6739D02*
X11801Y6664D01*
X12101Y7589D02*
X12026Y7664D01*
X12051Y6764D02*
X11951Y6664D01*
Y6564D02*
X12051Y6664D01*
Y6814D02*
X12151Y6914D01*
X12401Y7664D02*
X12501Y7764D01*
X12526Y7889D02*
X12501Y7914D01*
X12601Y6664D02*
X12676Y6589D01*
X12551Y7589D02*
X12576Y7614D01*
X12701Y6764D02*
X12801Y6664D01*
X12851Y8039D02*
Y8139D01*
X12951Y8239D01*
X12851Y8039D02*
X12826Y8014D01*
X12926Y7964D02*
X12976Y8014D01*
X13051Y6739D02*
X12976Y6664D01*
X13001Y6589D02*
X13101Y6689D01*
X13151Y8014D02*
X13101Y8064D01*
Y7764D02*
X13151Y7714D01*
X13051Y8014D02*
X13101Y8064D01*
X13301Y6689D02*
X13326Y6664D01*
X13376Y7889D02*
X13451Y7964D01*
X13276Y6964D02*
X13226Y6914D01*
X13276Y6864D02*
X13326Y6914D01*
X13401Y8014D02*
X13426Y8039D01*
X13751Y6914D02*
X13801Y6864D01*
X13726Y6739D02*
X13801Y6664D01*
X14076Y6864D02*
X13976Y6964D01*
X14026Y7964D02*
X13951Y8039D01*
D18*
X11751Y6889D02*
X11676Y6964D01*
X9651Y7464D02*
X9601Y7514D01*
X10026Y7764D02*
X10051Y7739D01*
X9676Y7439D02*
X9651Y7464D01*
X10876Y7314D02*
X10951Y7239D01*
X12601Y8589D02*
X12626Y8564D01*
X12576Y8589D02*
X12476Y8689D01*
Y8989D02*
X12326Y9139D01*
X11951Y8064D02*
X12176Y7839D01*
X10926Y7039D02*
X10901Y7064D01*
X14076Y8889D02*
X14151Y8814D01*
X13926Y8689D02*
X14151Y8464D01*
X12201Y8064D02*
X11976Y8289D01*
X13176Y7239D02*
X13251Y7164D01*
X6576Y8064D02*
X6501Y8139D01*
X12001Y6889D02*
X12201Y7089D01*
X11351Y7164D02*
X11226Y7039D01*
X9826Y7764D02*
X9801Y7739D01*
Y7464D02*
X9776Y7439D01*
X11201Y7239D02*
X11251Y7289D01*
Y7414D02*
X11301Y7464D01*
X9076Y9139D02*
X8901Y8964D01*
X12276Y8064D02*
X12351Y8139D01*
X12626Y8589D02*
X12726Y8689D01*
X12601Y8739D02*
X12751Y8889D01*
X14151Y6614D02*
X14051Y6514D01*
X9851Y6964D02*
X9701Y6814D01*
X12226Y8564D02*
X12251Y8589D01*
X12226Y8564D02*
X12026Y8364D01*
X12151Y7539D02*
X12126Y7514D01*
X6676Y8914D02*
X6501Y8739D01*
X9701Y6514D02*
X14051D01*
X9701D02*
X8701D01*
X7701D01*
X6701D01*
X11751Y6889D02*
X12001D01*
X11676Y6964D02*
X11501D01*
X11226Y7039D02*
X10926D01*
X12201Y7089D02*
X12801D01*
X13701Y7164D02*
X13976D01*
X13701D02*
X13451D01*
X13301D02*
X13251D01*
X12051D02*
X11851D01*
X10876Y7314D02*
X10701D01*
X10951Y7239D02*
X11201D01*
X8501Y7414D02*
X7701D01*
X8501D02*
X8801D01*
X12201Y7389D02*
X12701D01*
X12201D02*
X11551D01*
X12701Y7239D02*
X13176D01*
X12701D02*
X12051D01*
X9776Y7439D02*
X9676D01*
X11301Y7464D02*
X11351D01*
X11551D01*
X12151Y7539D02*
X13301D01*
X12126Y7514D02*
X12051D01*
X11851D01*
X10026Y7764D02*
X9826D01*
X6501Y8139D02*
Y8739D01*
X12176Y7839D02*
X12701D01*
X7501Y7989D02*
X7401D01*
Y7939D02*
X6701D01*
X12701Y7839D02*
X13301D01*
X11401Y7989D02*
X11101D01*
X10801D01*
X10401D01*
X9801D01*
X9101D02*
X9001D01*
X8901D01*
X8601D01*
X8301D01*
X8201D01*
X7501D01*
X9101D02*
X9201D01*
X6701Y6664D02*
Y6514D01*
Y7939D02*
Y8064D01*
X11901D02*
X11951D01*
X12351Y8139D02*
X12701D01*
X12276Y8064D02*
X12201D01*
X13001Y8139D02*
X13301D01*
X11901Y8064D02*
X11801D01*
X11301D02*
X11201D01*
X11301Y8139D02*
X11801D01*
X11201D02*
X10701D01*
X10401D01*
X9701Y8064D02*
X9601D01*
X9701Y8139D02*
X10401D01*
X6701Y8064D02*
X6576D01*
X6901Y8289D02*
Y8364D01*
X6801D02*
Y8289D01*
X11901Y8364D02*
X12026D01*
X11501D02*
X11401D01*
X11501Y8289D02*
X11976D01*
X10901Y8364D02*
X10801D01*
X10901Y8289D02*
X11401D01*
X10801D02*
X10401D01*
X9801D01*
X9301Y8364D02*
X9201D01*
X9301Y8289D02*
X9801D01*
X9101D02*
X8701D01*
X7901D02*
X7801D01*
X7701D01*
X7601Y8364D02*
X7501D01*
X7601Y8289D02*
X7701D01*
X7501D02*
X7001D01*
X6901D01*
X6801Y8364D02*
X6701D01*
X6801Y8289D02*
X6901D01*
X7001D02*
Y8364D01*
X8501Y8439D02*
X8701D01*
X8501D02*
X8401D01*
X8001D02*
X7901D01*
X8001D02*
X8301D01*
X8401D01*
X12623Y8464D02*
X12626D01*
X12779D01*
X12601Y8589D02*
X12576D01*
X12601D02*
X12251D01*
X11901Y8439D02*
X11301D01*
X11201D01*
X10701D01*
X10101D01*
X9701D01*
X9301Y8564D02*
X9201D01*
X9101D02*
X8901D01*
X12726Y8689D02*
X13926D01*
X9151Y8664D02*
X8901D01*
X7401Y7989D02*
Y7939D01*
Y8064D01*
X7501D02*
Y7989D01*
Y7914D02*
Y8064D01*
Y8289D02*
Y8364D01*
X12751Y8889D02*
X14076D01*
X8901Y8914D02*
X6676D01*
X7701Y7514D02*
Y7414D01*
Y6664D02*
Y6514D01*
Y6639D02*
Y6664D01*
Y6639D02*
Y6514D01*
Y8289D02*
Y8364D01*
X7601D02*
Y8289D01*
X9076Y9139D02*
X12326D01*
X7901Y8439D02*
Y8364D01*
Y8289D01*
X7801D02*
Y8364D01*
X8001D02*
Y8439D01*
X8301D02*
Y8364D01*
Y8064D02*
Y7989D01*
X8201D02*
Y8064D01*
X8501Y8364D02*
Y8439D01*
X8401D02*
Y8364D01*
X8501Y7514D02*
Y7414D01*
X8701Y8364D02*
Y8439D01*
Y6664D02*
Y6514D01*
X8601Y7914D02*
Y7989D01*
X8701Y8289D02*
Y8364D01*
X8801Y7514D02*
Y7414D01*
X9001Y7989D02*
Y8064D01*
X8901Y7989D02*
Y7914D01*
Y8664D02*
Y8964D01*
Y8914D02*
Y8664D01*
X9151D02*
Y8614D01*
X9201Y8064D02*
Y7989D01*
X9101D02*
Y8064D01*
Y8289D02*
Y8364D01*
Y8564D01*
X9301Y8364D02*
Y8289D01*
X9801Y7739D02*
Y7464D01*
X9701Y6664D02*
Y6514D01*
Y6664D02*
Y6814D01*
Y8364D02*
Y8439D01*
X9801Y8364D02*
Y8289D01*
X9701Y8139D02*
Y8064D01*
X9801D02*
Y7989D01*
X10051Y7739D02*
Y7714D01*
X10101Y8364D02*
Y8439D01*
X10401Y8364D02*
Y8289D01*
Y8139D02*
Y8064D01*
Y7989D02*
Y7914D01*
X10701Y8364D02*
Y8439D01*
X10801Y8364D02*
Y8289D01*
X10701Y8139D02*
Y8064D01*
X10801D02*
Y7989D01*
X10901Y8289D02*
Y8364D01*
X11201D02*
Y8439D01*
Y8139D02*
Y8064D01*
X11101D02*
Y7989D01*
X11251Y7414D02*
Y7289D01*
X11301Y8364D02*
Y8439D01*
X11401Y8364D02*
Y8289D01*
X11301Y8139D02*
Y8064D01*
X11401D02*
Y7989D01*
X11501Y8289D02*
Y8364D01*
X11551Y7464D02*
Y7389D01*
X11801Y8064D02*
Y8139D01*
X11901Y8364D02*
Y8439D01*
X11851Y7514D02*
Y7464D01*
X12051D02*
Y7514D01*
X12201Y7164D02*
Y7089D01*
Y7389D02*
Y7464D01*
X12051Y7239D02*
Y7164D01*
X12476Y8689D02*
Y8989D01*
X12601Y8739D02*
Y8589D01*
X12801Y7764D02*
Y7539D01*
Y7164D02*
Y7089D01*
X12626Y8464D02*
Y8564D01*
Y8589D02*
Y8464D01*
X12701Y8139D02*
Y8064D01*
Y7464D02*
Y7389D01*
Y7239D02*
Y7164D01*
Y7764D02*
Y7839D01*
X13001Y8064D02*
Y8139D01*
X13301D02*
Y8064D01*
Y7539D02*
Y7464D01*
Y7764D02*
Y7839D01*
X13451Y7364D02*
Y7164D01*
X13701D02*
Y7364D01*
X13976D02*
Y7164D01*
X14151Y8639D02*
Y8814D01*
Y8464D02*
Y6614D01*
D20*
X13801Y7364D02*
D03*
X13701D02*
D03*
X13751Y7414D02*
D03*
X14076Y7364D02*
D03*
X13976D02*
D03*
X14026Y7414D02*
D03*
X13551Y7364D02*
D03*
X13451D02*
D03*
X13501Y7414D02*
D03*
X10901Y7164D02*
D03*
X10951Y7114D02*
D03*
X10901Y7064D02*
D03*
X10001Y7564D02*
D03*
X10101D02*
D03*
X10051Y7514D02*
D03*
X10101Y7664D02*
D03*
X10001D02*
D03*
X10051Y7714D02*
D03*
X9101Y8564D02*
D03*
X9151Y8614D02*
D03*
X9201Y8564D02*
D03*
D24*
X14151Y8639D02*
D03*
X13701Y7014D02*
D03*
X13151Y8239D02*
D03*
X13051Y6789D02*
D03*
X12601Y7614D02*
D03*
Y7314D02*
D03*
X12501Y6714D02*
D03*
Y7014D02*
D03*
X12401Y7914D02*
D03*
X12251Y6864D02*
D03*
X11926Y7314D02*
D03*
X11701Y7739D02*
D03*
X11451Y8714D02*
D03*
X11601Y8664D02*
D03*
X11051Y7564D02*
D03*
X11101Y7664D02*
D03*
X10926Y9064D02*
D03*
X10501Y8614D02*
D03*
X10576Y8914D02*
D03*
X10251Y7814D02*
D03*
X8501Y8264D02*
D03*
X7801Y8214D02*
D03*
X13751Y7564D02*
D03*
Y7964D02*
D03*
X14026Y7564D02*
D03*
Y7964D02*
D03*
X13801Y6664D02*
D03*
X13601D02*
D03*
X13701D02*
D03*
X13801Y7264D02*
D03*
Y6864D02*
D03*
X14076Y7264D02*
D03*
Y6864D02*
D03*
X12201Y8064D02*
D03*
Y7764D02*
D03*
X12501D02*
D03*
X12801D02*
D03*
X12901D02*
D03*
X13001D02*
D03*
X13101D02*
D03*
Y8064D02*
D03*
X13001D02*
D03*
X12901D02*
D03*
X12801D02*
D03*
X12701D02*
D03*
X12601D02*
D03*
X12501D02*
D03*
X12401D02*
D03*
X12601Y7764D02*
D03*
X12701D02*
D03*
X13301D02*
D03*
Y8064D02*
D03*
X12201Y7464D02*
D03*
Y7164D02*
D03*
X12501D02*
D03*
X12801D02*
D03*
X12901D02*
D03*
X13001D02*
D03*
X13101D02*
D03*
Y7464D02*
D03*
X13001D02*
D03*
X12901D02*
D03*
X12801D02*
D03*
X12701D02*
D03*
X12601D02*
D03*
X12501D02*
D03*
X12401D02*
D03*
X12601Y7164D02*
D03*
X12701D02*
D03*
X13301D02*
D03*
Y7464D02*
D03*
X13501Y7564D02*
D03*
Y7964D02*
D03*
X12051Y7164D02*
D03*
Y7464D02*
D03*
X12151Y6614D02*
D03*
X12251D02*
D03*
X13151D02*
D03*
X13251D02*
D03*
X12801Y6664D02*
D03*
X12601D02*
D03*
X12701D02*
D03*
X13551Y7264D02*
D03*
Y6864D02*
D03*
X11001Y8514D02*
D03*
Y8914D02*
D03*
X11101Y8514D02*
D03*
Y8914D02*
D03*
X10701Y8814D02*
D03*
X10601Y8514D02*
D03*
Y9014D02*
D03*
X10701Y8064D02*
D03*
Y8364D02*
D03*
X10801D02*
D03*
Y8064D02*
D03*
X11101D02*
D03*
X11201D02*
D03*
Y8364D02*
D03*
X11101D02*
D03*
X11001D02*
D03*
X10901D02*
D03*
X11001Y8064D02*
D03*
X11301D02*
D03*
Y8364D02*
D03*
X11401D02*
D03*
Y8064D02*
D03*
X11701D02*
D03*
X11801D02*
D03*
Y8364D02*
D03*
X11701D02*
D03*
X11601D02*
D03*
X11501D02*
D03*
X11601Y8064D02*
D03*
X11901D02*
D03*
Y8364D02*
D03*
X11751Y7164D02*
D03*
X11851D02*
D03*
Y7464D02*
D03*
X11751D02*
D03*
X11651D02*
D03*
X11551D02*
D03*
X11651Y7164D02*
D03*
X11351Y7464D02*
D03*
Y7164D02*
D03*
X11501Y7064D02*
D03*
X11901D02*
D03*
X11401Y7614D02*
D03*
X11801D02*
D03*
X11401Y7714D02*
D03*
X11801D02*
D03*
X11001Y7914D02*
D03*
Y7414D02*
D03*
X11051Y6914D02*
D03*
Y7314D02*
D03*
X10701Y6914D02*
D03*
Y7314D02*
D03*
X10501Y7514D02*
D03*
Y7914D02*
D03*
X11201Y8614D02*
D03*
Y8514D02*
D03*
X10801Y6664D02*
D03*
X10601D02*
D03*
X10701D02*
D03*
X11801D02*
D03*
X11601D02*
D03*
X11701D02*
D03*
X11901Y6964D02*
D03*
X11501D02*
D03*
X11151Y7314D02*
D03*
Y6914D02*
D03*
X10401Y8514D02*
D03*
Y8914D02*
D03*
X10101Y8814D02*
D03*
Y8614D02*
D03*
X9101Y7764D02*
D03*
Y7664D02*
D03*
X10201Y8064D02*
D03*
X10101D02*
D03*
X9901Y8364D02*
D03*
X10001D02*
D03*
X10101D02*
D03*
X10201D02*
D03*
X10301D02*
D03*
X10401D02*
D03*
X10501D02*
D03*
X10601D02*
D03*
Y8064D02*
D03*
X10501D02*
D03*
X10401D02*
D03*
X10301D02*
D03*
X10001D02*
D03*
X9801Y8364D02*
D03*
Y8064D02*
D03*
X9501D02*
D03*
X9601D02*
D03*
Y8364D02*
D03*
X9501D02*
D03*
X9401D02*
D03*
X9301D02*
D03*
X9401Y8064D02*
D03*
X8901Y8564D02*
D03*
Y8664D02*
D03*
Y7914D02*
D03*
Y7514D02*
D03*
X9001Y7914D02*
D03*
Y7514D02*
D03*
X10301Y8914D02*
D03*
Y8514D02*
D03*
X10201D02*
D03*
Y8914D02*
D03*
Y7914D02*
D03*
Y7514D02*
D03*
X10301Y7914D02*
D03*
Y7514D02*
D03*
X9901Y8514D02*
D03*
Y8914D02*
D03*
Y7514D02*
D03*
Y7914D02*
D03*
X9501D02*
D03*
Y7514D02*
D03*
X9401Y7914D02*
D03*
Y7514D02*
D03*
X9601D02*
D03*
Y7914D02*
D03*
X9151Y7564D02*
D03*
Y7164D02*
D03*
X9701Y7914D02*
D03*
Y7514D02*
D03*
X10401Y7914D02*
D03*
Y7514D02*
D03*
X9101Y8364D02*
D03*
Y8064D02*
D03*
X9301Y8564D02*
D03*
Y8864D02*
D03*
X9201Y8364D02*
D03*
Y8064D02*
D03*
X9701D02*
D03*
Y8364D02*
D03*
X9301Y7914D02*
D03*
Y7514D02*
D03*
X10201Y6614D02*
D03*
X10301D02*
D03*
X7501Y8364D02*
D03*
Y8064D02*
D03*
X7801D02*
D03*
X7901D02*
D03*
X8001D02*
D03*
X8101D02*
D03*
X8201D02*
D03*
Y8364D02*
D03*
X8101D02*
D03*
X8001D02*
D03*
X7901D02*
D03*
X7801D02*
D03*
X7701D02*
D03*
X7601D02*
D03*
X7701Y8064D02*
D03*
X8301Y8364D02*
D03*
Y8064D02*
D03*
X8501D02*
D03*
X8401Y8364D02*
D03*
X8501D02*
D03*
X8601D02*
D03*
X8701D02*
D03*
X8801D02*
D03*
X8901D02*
D03*
X9001D02*
D03*
Y8064D02*
D03*
X8901D02*
D03*
X8801D02*
D03*
X8701D02*
D03*
X8601D02*
D03*
X8501Y7914D02*
D03*
Y7514D02*
D03*
X8801Y7914D02*
D03*
Y7514D02*
D03*
X8601Y7914D02*
D03*
Y7514D02*
D03*
X8701Y7914D02*
D03*
Y7514D02*
D03*
X8401Y7764D02*
D03*
Y7664D02*
D03*
X7601Y7914D02*
D03*
Y7514D02*
D03*
X7501Y7914D02*
D03*
Y7514D02*
D03*
X8101Y7164D02*
D03*
Y7564D02*
D03*
X7701Y7914D02*
D03*
Y7514D02*
D03*
X7801D02*
D03*
Y7914D02*
D03*
X6901Y8064D02*
D03*
X6801Y8364D02*
D03*
X6901D02*
D03*
X7001D02*
D03*
X7101D02*
D03*
X7201D02*
D03*
X7301D02*
D03*
X7401D02*
D03*
Y8064D02*
D03*
X7301D02*
D03*
X7201D02*
D03*
X7101D02*
D03*
X7001D02*
D03*
X6701Y8364D02*
D03*
Y8064D02*
D03*
X7101Y7564D02*
D03*
Y7164D02*
D03*
D32*
X9551Y6764D02*
D03*
X9851D02*
D03*
X9701Y7264D02*
D03*
X7551Y6764D02*
D03*
X7851D02*
D03*
X7701Y7264D02*
D03*
X8701D02*
D03*
X8851Y6764D02*
D03*
X8551D02*
D03*
X6701Y7264D02*
D03*
X6851Y6764D02*
D03*
X6551D02*
D03*
D33*
X12779Y8464D02*
D03*
X12467D02*
D03*
X12935D02*
D03*
X12623D02*
D03*
D36*
X9951Y7164D02*
D03*
X9851Y6964D02*
D03*
X9701Y6664D02*
D03*
X7951Y7164D02*
D03*
X7851Y6964D02*
D03*
X7701Y6664D02*
D03*
X8701D02*
D03*
X8851Y6964D02*
D03*
X8951Y7164D02*
D03*
X6701Y6664D02*
D03*
X6851Y6964D02*
D03*
X6951Y7164D02*
D03*
D38*
X12401Y7764D02*
D03*
Y7164D02*
D03*
X10901Y8064D02*
D03*
X11501D02*
D03*
X11551Y7164D02*
D03*
X9901Y8064D02*
D03*
X9301D02*
D03*
X7601D02*
D03*
X8401D02*
D03*
X6801D02*
D03*
M02*
