*%FSLAX23Y23*%
*%MOIN*%
G01*
%ADD11C,0.006*%
%ADD12C,0.007*%
%ADD13C,0.008*%
%ADD14C,0.010*%
%ADD15C,0.012*%
%ADD16C,0.020*%
%ADD17C,0.032*%
%ADD18C,0.036*%
%ADD19C,0.050*%
%ADD20C,0.052*%
%ADD21C,0.055*%
%ADD22C,0.056*%
%ADD23C,0.059*%
%ADD24C,0.062*%
%ADD25C,0.066*%
%ADD26C,0.070*%
%ADD27C,0.090*%
%ADD28C,0.125*%
%ADD29C,0.129*%
%ADD30C,0.140*%
%ADD31C,0.160*%
%ADD32C,0.250*%
%ADD33R,0.062X0.062*%
%ADD34R,0.066X0.066*%
D14*
X7534Y9853D02*
X7524Y9863D01*
X7504D01*
X7494Y9853D01*
Y9813D01*
X7504Y9803D01*
X7524D01*
X7534Y9813D01*
X7564Y9863D02*
X7584D01*
X7564D02*
X7554Y9853D01*
Y9813D01*
X7564Y9803D01*
X7584D01*
X7594Y9813D01*
Y9853D01*
X7584Y9863D01*
X7614D02*
Y9803D01*
Y9863D02*
X7644D01*
X7654Y9853D01*
Y9833D01*
X7644Y9823D01*
X7614D01*
X7674Y9853D02*
Y9863D01*
Y9853D02*
X7694Y9833D01*
X7714Y9853D01*
Y9863D01*
X7694Y9833D02*
Y9803D01*
X7734D02*
Y9863D01*
X7764D01*
X7774Y9853D01*
Y9833D01*
X7764Y9823D01*
X7734D01*
X7754D02*
X7774Y9803D01*
X7794Y9863D02*
X7814D01*
X7804D01*
Y9803D01*
X7794D01*
X7814D01*
X7874Y9863D02*
X7884Y9853D01*
X7874Y9863D02*
X7854D01*
X7844Y9853D01*
Y9813D01*
X7854Y9803D01*
X7874D01*
X7884Y9813D01*
Y9833D01*
X7864D01*
X7904Y9863D02*
Y9803D01*
Y9833D01*
X7944D01*
Y9863D01*
Y9803D01*
X7964Y9863D02*
X8004D01*
X7984D01*
Y9803D01*
X8084Y9823D02*
X8104Y9803D01*
X8084Y9823D02*
Y9843D01*
X8104Y9863D01*
X8164D02*
X8174Y9853D01*
X8164Y9863D02*
X8144D01*
X8134Y9853D01*
Y9813D01*
X8144Y9803D01*
X8164D01*
X8174Y9813D01*
X8194Y9803D02*
X8214Y9823D01*
Y9843D01*
X8194Y9863D01*
X8304Y9803D02*
X8344D01*
X8304D02*
X8344Y9843D01*
Y9853D01*
X8334Y9863D01*
X8314D01*
X8304Y9853D01*
X8364D02*
X8374Y9863D01*
X8394D01*
X8404Y9853D01*
Y9813D01*
X8394Y9803D01*
X8374D01*
X8364Y9813D01*
Y9853D01*
X8424D02*
X8434Y9863D01*
X8454D01*
X8464Y9853D01*
Y9813D01*
X8454Y9803D01*
X8434D01*
X8424Y9813D01*
Y9853D01*
X8484D02*
X8494Y9863D01*
X8514D01*
X8524Y9853D01*
Y9843D01*
X8525D01*
X8524D02*
X8525D01*
X8524D02*
X8525D01*
X8524D02*
X8514Y9833D01*
X8504D01*
X8514D01*
X8524Y9823D01*
Y9813D01*
X8514Y9803D01*
X8494D01*
X8484Y9813D01*
X8624Y9863D02*
X8644D01*
X8634D02*
X8624D01*
X8634D02*
Y9813D01*
X8624Y9803D01*
X8614D01*
X8604Y9813D01*
X8664Y9803D02*
Y9843D01*
X8684Y9863D01*
X8704Y9843D01*
Y9803D01*
Y9833D01*
X8664D01*
X8724Y9803D02*
Y9863D01*
X8744Y9843D01*
X8764Y9863D01*
Y9803D01*
X8784Y9863D02*
X8824D01*
X8784D02*
Y9803D01*
X8824D01*
X8804Y9833D02*
X8784D01*
X8874Y9863D02*
X8884Y9853D01*
X8874Y9863D02*
X8854D01*
X8844Y9853D01*
Y9843D01*
X8854Y9833D01*
X8874D01*
X8884Y9823D01*
Y9813D01*
X8874Y9803D01*
X8854D01*
X8844Y9813D01*
X8964Y9803D02*
Y9863D01*
X8994D01*
X9004Y9853D01*
Y9833D01*
X8994Y9823D01*
X8964D01*
X9024Y9803D02*
Y9843D01*
X9043Y9863D01*
X9063Y9843D01*
Y9803D01*
Y9833D01*
X9024D01*
X9083Y9863D02*
X9123D01*
X9103D01*
Y9803D01*
X9173Y9863D02*
X9183Y9853D01*
X9173Y9863D02*
X9153D01*
X9143Y9853D01*
Y9813D01*
X9153Y9803D01*
X9173D01*
X9183Y9813D01*
X9203Y9803D02*
Y9863D01*
Y9833D02*
Y9803D01*
Y9833D02*
X9243D01*
Y9863D01*
Y9803D01*
X9263Y9863D02*
X9303D01*
X9263D02*
Y9803D01*
X9303D01*
X9283Y9833D02*
X9263D01*
X9323Y9863D02*
Y9803D01*
X9363D01*
X9383D02*
Y9863D01*
Y9803D02*
X9423D01*
X7539Y9903D02*
X7519D01*
X7529D02*
X7539D01*
X7529D02*
Y9963D01*
X7530D01*
X7529D02*
X7519Y9953D01*
X7569D02*
X7579Y9963D01*
X7599D01*
X7609Y9953D01*
Y9913D01*
X7599Y9903D01*
X7579D01*
X7569Y9913D01*
Y9953D01*
X7629D02*
X7639Y9963D01*
X7659D01*
X7669Y9953D01*
Y9913D01*
X7659Y9903D01*
X7639D01*
X7629Y9913D01*
Y9953D01*
X7689Y9933D02*
X7729D01*
X7749Y9903D02*
X7769D01*
X7759D01*
Y9963D01*
X7760D01*
X7759D02*
X7749Y9953D01*
X7799D02*
X7809Y9963D01*
X7829D01*
X7839Y9953D01*
Y9913D01*
X7829Y9903D01*
X7809D01*
X7799Y9913D01*
Y9953D01*
X7859D02*
X7869Y9963D01*
X7889D01*
X7899Y9953D01*
Y9913D01*
X7889Y9903D01*
X7869D01*
X7859Y9913D01*
Y9953D01*
X7919Y9913D02*
X7929Y9903D01*
X7949D01*
X7959Y9913D01*
Y9953D01*
X7949Y9963D01*
X7929D01*
X7919Y9953D01*
Y9943D01*
X7929Y9933D01*
X7959D01*
X8039Y9903D02*
Y9963D01*
X8069D01*
X8079Y9953D01*
Y9933D01*
X8069Y9923D01*
X8039D01*
X8059D02*
X8079Y9903D01*
X8099Y9963D02*
X8139D01*
X8099D02*
Y9903D01*
X8139D01*
X8119Y9933D02*
X8099D01*
X8159Y9923D02*
Y9963D01*
Y9923D02*
X8179Y9903D01*
X8199Y9923D01*
Y9963D01*
X8279D02*
Y9903D01*
X8319D02*
X8279Y9963D01*
X8319D02*
Y9903D01*
X8379Y9953D02*
X8369Y9963D01*
X8349D01*
X8339Y9953D01*
Y9913D01*
X8349Y9903D01*
X8369D01*
X8379Y9913D01*
X7907Y10253D02*
X7874D01*
X7891D02*
X7907D01*
X7891D02*
Y10353D01*
X7892D01*
X7891D02*
X7874Y10336D01*
X7957D02*
X7974Y10353D01*
X8007D01*
X8024Y10336D01*
Y10270D01*
X8007Y10253D01*
X7974D01*
X7957Y10270D01*
Y10336D01*
X8057D02*
X8074Y10353D01*
X8107D01*
X8124Y10336D01*
Y10270D01*
X8107Y10253D01*
X8074D01*
X8057Y10270D01*
Y10336D01*
X8157Y10303D02*
X8224D01*
X8257Y10253D02*
X8291D01*
X8274D01*
Y10353D01*
X8275D01*
X8274D02*
X8257Y10336D01*
X8341D02*
X8357Y10353D01*
X8390D01*
X8407Y10336D01*
Y10270D01*
X8390Y10253D01*
X8357D01*
X8341Y10270D01*
Y10336D01*
X8440D02*
X8457Y10353D01*
X8490D01*
X8507Y10336D01*
Y10270D01*
X8490Y10253D01*
X8457D01*
X8440Y10270D01*
Y10336D01*
X8540Y10270D02*
X8557Y10253D01*
X8590D01*
X8607Y10270D01*
Y10336D01*
X8590Y10353D01*
X8557D01*
X8540Y10336D01*
Y10320D01*
X8557Y10303D01*
X8607D01*
X8640D02*
X8707D01*
X8740Y10336D02*
X8757Y10353D01*
X8790D01*
X8807Y10336D01*
Y10270D01*
X8790Y10253D01*
X8757D01*
X8740Y10270D01*
Y10336D01*
X8840Y10253D02*
X8907D01*
X8840D02*
X8907Y10320D01*
Y10336D01*
X8890Y10353D01*
X8857D01*
X8840Y10336D01*
X9040Y10353D02*
Y10253D01*
Y10353D02*
X9090D01*
X9107Y10336D01*
Y10303D01*
X9090Y10286D01*
X9040D01*
X9074D02*
X9107Y10253D01*
X9140Y10353D02*
X9207D01*
X9140D02*
Y10253D01*
X9207D01*
X9174Y10303D02*
X9140D01*
X9240Y10286D02*
Y10353D01*
Y10286D02*
X9274Y10253D01*
X9307Y10286D01*
Y10353D01*
X9440D02*
Y10253D01*
X9507D02*
X9440Y10353D01*
X9507D02*
Y10253D01*
X9607Y10336D02*
X9590Y10353D01*
X9557D01*
X9540Y10336D01*
Y10270D01*
X9557Y10253D01*
X9590D01*
X9607Y10270D01*
X9790Y10353D02*
X9807Y10336D01*
X9790Y10353D02*
X9757D01*
X9740Y10336D01*
Y10270D01*
X9757Y10253D01*
X9790D01*
X9807Y10270D01*
X9857Y10353D02*
X9890D01*
X9857D02*
X9840Y10336D01*
Y10270D01*
X9857Y10253D01*
X9890D01*
X9907Y10270D01*
Y10336D01*
X9890Y10353D01*
X9940D02*
Y10253D01*
X9973Y10320D02*
X9940Y10353D01*
X9973Y10320D02*
X10007Y10353D01*
Y10253D01*
X10040D02*
Y10353D01*
X10090D01*
X10107Y10336D01*
Y10303D01*
X10090Y10286D01*
X10040D01*
X10157Y10353D02*
X10190D01*
X10157D02*
X10140Y10336D01*
Y10270D01*
X10157Y10253D01*
X10190D01*
X10207Y10270D01*
Y10336D01*
X10190Y10353D01*
X10240D02*
Y10253D01*
X10307D02*
X10240Y10353D01*
X10307D02*
Y10253D01*
X10340Y10353D02*
X10407D01*
X10340D02*
Y10253D01*
X10407D01*
X10373Y10303D02*
X10340D01*
X10440Y10253D02*
Y10353D01*
X10506Y10253D01*
Y10353D01*
X10540D02*
X10606D01*
X10573D01*
Y10253D01*
X10790Y10353D02*
X10806Y10336D01*
X10790Y10353D02*
X10756D01*
X10740Y10336D01*
Y10320D01*
X10756Y10303D01*
X10790D01*
X10806Y10286D01*
Y10270D01*
X10790Y10253D01*
X10756D01*
X10740Y10270D01*
X10840Y10353D02*
X10873D01*
X10856D01*
Y10253D01*
X10840D01*
X10873D01*
X10923D02*
Y10353D01*
Y10253D02*
X10973D01*
X10990Y10270D01*
Y10336D01*
X10973Y10353D01*
X10923D01*
X11023D02*
X11090D01*
X11023D02*
Y10253D01*
X11090D01*
X11056Y10303D02*
X11023D01*
X12319Y5503D02*
X6819D01*
Y10003D02*
X12319D01*
Y5503D01*
X6819D02*
Y10003D01*
D15*
X7619Y6128D02*
X7419Y5928D01*
X11669Y7453D02*
X11819Y7603D01*
X11919Y8253D02*
X12069Y8403D01*
X10169Y8153D02*
X10019Y8003D01*
X7744Y8678D02*
X7519Y8453D01*
X7619Y8503D02*
X7769Y8653D01*
Y8903D02*
X7894Y9028D01*
X11619Y8428D02*
X11794Y8603D01*
X11744Y8728D02*
X11419Y8403D01*
X9119Y9403D02*
X8969Y9253D01*
X9169Y6078D02*
X9019Y5928D01*
X10619Y5903D02*
X10869Y6153D01*
X11519Y6928D02*
X11319Y7128D01*
X11169Y6178D02*
X11319Y6028D01*
X7869Y7053D02*
X7719Y7203D01*
X10519Y7828D02*
X10669Y7678D01*
X9844Y9478D02*
X9719Y9603D01*
X9619Y9578D02*
X9469Y9728D01*
X8844Y9003D02*
X8969Y8878D01*
X8294Y5803D02*
X8219D01*
X11494Y5728D02*
X11594D01*
X7119Y6203D02*
Y6353D01*
X7169Y6428D02*
Y6028D01*
Y7753D02*
Y7953D01*
X7219Y6478D02*
X7169Y6428D01*
Y7653D02*
X7269Y7753D01*
X7169Y6028D02*
X7269Y5928D01*
X7219Y9103D02*
X7169Y9153D01*
Y9053D02*
X7219Y9003D01*
X7169Y8953D02*
X7219Y8903D01*
Y6353D02*
Y6203D01*
X7319Y6653D02*
Y6803D01*
Y6653D02*
Y6503D01*
X7219Y6653D02*
Y6803D01*
Y6653D02*
Y6478D01*
X7369Y8253D02*
Y8278D01*
Y8378D02*
Y8403D01*
X7269Y8278D02*
Y8253D01*
X7369Y8678D02*
Y8803D01*
X7269Y7953D02*
Y7803D01*
Y7753D01*
X7369Y8278D02*
X7469Y8378D01*
X7369D02*
X7269Y8278D01*
X7469Y8578D02*
X7369Y8678D01*
X9644Y6128D02*
X9744D01*
X7419Y5928D02*
Y5803D01*
X7469Y8378D02*
Y8403D01*
Y8578D01*
X7569Y8803D02*
Y8928D01*
X7469Y8878D02*
Y8803D01*
X7419Y7303D02*
Y7128D01*
X7469Y7078D02*
Y6953D01*
X7519Y7653D02*
Y8453D01*
X7469Y7403D02*
Y7353D01*
Y7403D02*
Y7603D01*
X7569Y7403D02*
Y7253D01*
Y7403D02*
Y7603D01*
X7519Y7578D02*
Y7353D01*
X7469Y7303D02*
Y7253D01*
X7519Y9228D02*
Y9603D01*
X7469Y7353D02*
X7419Y7303D01*
X7469Y7603D02*
X7519Y7653D01*
X7569Y7603D02*
X7619Y7653D01*
X7519Y7353D02*
X7469Y7303D01*
X7569Y8928D02*
X7494Y9003D01*
X7444Y8903D02*
X7469Y8878D01*
X7419Y7128D02*
X7469Y7078D01*
X7544Y9203D02*
X7519Y9228D01*
X7544Y9203D02*
X7569Y9178D01*
X7519Y9603D02*
X7469Y9653D01*
X7619Y6153D02*
Y6128D01*
X7719Y6353D02*
Y6653D01*
Y6353D02*
Y6203D01*
Y6003D01*
X7769Y7953D02*
Y8253D01*
Y7953D02*
Y7803D01*
X7669Y8803D02*
Y9028D01*
X7744Y9153D02*
Y8678D01*
X7619Y8503D02*
Y7653D01*
X7769Y8653D02*
Y8903D01*
Y7703D02*
Y7403D01*
X7719Y7303D02*
Y7203D01*
X7669Y7353D02*
Y7403D01*
X7719Y9303D02*
Y9603D01*
X7619D02*
Y9253D01*
X7669Y7803D02*
Y7578D01*
X7719Y7528D02*
Y7353D01*
X7769Y7303D02*
Y7253D01*
X7744Y9153D02*
X7819Y9228D01*
X7719Y9603D02*
X7769Y9653D01*
X7669D02*
X7619Y9603D01*
Y9078D02*
X7669Y9028D01*
X7619Y9078D02*
X7594Y9103D01*
X7669Y7353D02*
X7719Y7303D01*
Y9103D02*
X7644Y9178D01*
X7669Y7578D02*
X7719Y7528D01*
Y7353D02*
X7769Y7303D01*
X7919Y6653D02*
Y6503D01*
X7969Y6253D02*
Y5903D01*
X7919Y6303D02*
Y6353D01*
X7869Y6303D02*
Y6403D01*
X7919Y6453D02*
Y6503D01*
Y6253D02*
Y6203D01*
X7819D02*
Y6353D01*
Y6203D02*
Y6053D01*
X7969Y7253D02*
Y7403D01*
X7869D02*
Y7253D01*
Y8253D02*
Y8403D01*
X7794Y8453D02*
Y8728D01*
X7819Y9228D02*
Y9603D01*
X7919D02*
Y9053D01*
Y7553D02*
Y7103D01*
X7969Y7603D02*
Y7803D01*
X7869Y7053D02*
Y6953D01*
X7969Y8203D02*
Y8253D01*
Y8003D02*
Y7953D01*
X7944Y8028D02*
Y8103D01*
X7919Y6453D02*
X7869Y6403D01*
X7794Y8728D02*
X7869Y8803D01*
X7819Y9603D02*
X7869Y9653D01*
X7919Y9053D02*
X7894Y9028D01*
X7919Y9603D02*
X7969Y9653D01*
Y7603D02*
X7919Y7553D01*
Y6303D02*
X7969Y6253D01*
X7919D02*
X7869Y6303D01*
X7819Y6053D02*
X7869Y6003D01*
X7969Y8528D02*
X7944Y8553D01*
X7969Y8203D02*
X8019Y8153D01*
X7944Y8028D02*
X7969Y8003D01*
X8019Y6353D02*
Y6203D01*
Y6353D02*
Y6653D01*
X8119Y6353D02*
Y5653D01*
Y7203D02*
Y7303D01*
X8069Y7153D02*
Y6953D01*
Y7953D02*
Y8253D01*
Y7953D02*
Y7803D01*
Y7728D02*
Y7403D01*
X8019Y8103D02*
Y8153D01*
X8169Y7353D02*
X8119Y7303D01*
Y7203D02*
X8069Y7153D01*
X8019Y8653D02*
X8044Y8678D01*
X8069Y8703D01*
X8294Y6203D02*
Y5903D01*
X8219Y6278D02*
Y6353D01*
X8169Y6303D02*
Y6553D01*
Y6303D02*
Y6278D01*
X8219Y6228D02*
Y6203D01*
Y6603D02*
Y6653D01*
X8319Y6903D02*
Y7303D01*
X8269Y6853D02*
Y6303D01*
X8344Y6228D02*
Y5853D01*
X8169Y7353D02*
Y7403D01*
X8269Y7253D02*
Y7103D01*
Y7803D02*
Y7953D01*
X8219Y7903D02*
Y8153D01*
X8169Y7853D02*
Y7803D01*
X8269Y8203D02*
Y8253D01*
X8169D02*
Y8403D01*
X8269Y7403D02*
Y7353D01*
X8319Y7853D02*
Y8103D01*
X8169Y8478D02*
Y8803D01*
X8219Y6603D02*
X8169Y6553D01*
X8269Y6853D02*
X8319Y6903D01*
X8344Y5853D02*
X8294Y5803D01*
X8219Y8153D02*
X8269Y8203D01*
X8219Y7903D02*
X8169Y7853D01*
X8219Y6278D02*
X8294Y6203D01*
X8219Y6228D02*
X8169Y6278D01*
X8319Y7303D02*
X8269Y7353D01*
Y6303D02*
X8319Y6253D01*
X8344Y6228D01*
X8369Y7703D02*
X8269Y7803D01*
X8319Y7853D02*
X8369Y7803D01*
X11119Y7053D02*
X11144D01*
X8519Y6353D02*
Y6203D01*
Y6353D02*
Y6503D01*
Y5978D02*
Y5703D01*
X8469Y7253D02*
Y7278D01*
X8419Y7303D02*
Y7203D01*
X8369Y7153D02*
Y6953D01*
Y7353D02*
Y7403D01*
X8469Y7803D02*
Y7953D01*
X8519Y8653D02*
Y9003D01*
Y7853D02*
Y7753D01*
X8394Y6228D02*
Y6103D01*
X8369Y6253D02*
Y6728D01*
X8419Y6778D02*
Y7103D01*
X8519Y7203D02*
Y7278D01*
X8469Y8378D02*
Y9103D01*
X8519Y8328D02*
Y8103D01*
X8569Y6028D02*
X8519Y5978D01*
X8469Y7278D02*
X8569Y7378D01*
X8419Y7203D02*
X8369Y7153D01*
X8519Y9003D02*
X8619Y9103D01*
X8569Y7903D02*
X8519Y7853D01*
Y7753D02*
X8469Y7703D01*
X8419Y6778D02*
X8369Y6728D01*
X8419Y7103D02*
X8519Y7203D01*
Y7278D02*
X8619Y7378D01*
X8419Y7303D02*
X8369Y7353D01*
X8619Y8553D02*
X8519Y8653D01*
X8369Y6253D02*
X8394Y6228D01*
X8494Y8353D02*
X8469Y8378D01*
X8494Y8353D02*
X8519Y8328D01*
X11269Y7303D02*
X11369D01*
X8694Y7328D02*
X8669D01*
X8569Y6403D02*
Y6028D01*
X8619Y6453D02*
Y6653D01*
X8569Y7253D02*
Y7278D01*
X8669Y7378D02*
Y7403D01*
X8569D02*
Y7378D01*
X8619Y7553D02*
Y8553D01*
Y9103D02*
Y9603D01*
X8569Y8803D02*
Y8703D01*
Y8403D02*
Y8253D01*
X8669D02*
Y8403D01*
Y8603D01*
X8569Y7953D02*
Y7903D01*
X8619Y7278D02*
Y7203D01*
X8569Y7153D02*
Y6953D01*
X8619Y7378D02*
Y7428D01*
Y7453D01*
X8719Y7553D02*
Y9703D01*
X8619Y6453D02*
X8569Y6403D01*
X8619Y9603D02*
X8669Y9653D01*
Y7378D02*
X8569Y7278D01*
X8619D02*
X8669Y7328D01*
X8619Y7203D02*
X8569Y7153D01*
X8694Y7328D02*
X8769Y7403D01*
X8619Y7453D02*
X8719Y7553D01*
Y9703D02*
X8744Y9728D01*
X8569Y8703D02*
X8669Y8603D01*
X10044Y7528D02*
X10194D01*
X10044D02*
X9994D01*
X8894Y7478D02*
X8844D01*
X8919Y6253D02*
Y6203D01*
X8869Y9628D02*
Y9653D01*
X8819Y9603D02*
Y9578D01*
X8919D02*
Y9428D01*
X8844Y9353D02*
Y9003D01*
X8819Y9578D02*
Y7503D01*
X8919Y7453D02*
Y6803D01*
X8769Y7478D02*
Y7803D01*
X8819Y7428D02*
Y7353D01*
X8769Y7303D02*
Y7253D01*
X8919Y7903D02*
Y8103D01*
X8869Y7853D02*
Y7803D01*
X8969Y6303D02*
X8919Y6253D01*
X8844Y9353D02*
X8919Y9428D01*
X8819Y7353D02*
X8769Y7303D01*
X8869Y7853D02*
X8919Y7903D01*
Y9578D02*
X8869Y9628D01*
X8819Y9603D02*
X8769Y9653D01*
X8944Y9728D02*
X8969Y9703D01*
X8819Y7503D02*
X8844Y7478D01*
X8894D02*
X8919Y7453D01*
X8794D02*
X8769Y7478D01*
X8794Y7453D02*
X8819Y7428D01*
X10369Y7703D02*
X10419D01*
X8469D02*
X8369D01*
X8969Y7103D02*
Y6953D01*
X9019Y6353D02*
Y6203D01*
X9069Y6303D02*
Y6403D01*
X9119Y6453D02*
Y6653D01*
X8969Y6403D02*
Y6303D01*
X9019Y6453D02*
Y6653D01*
X9119Y6253D02*
Y6203D01*
X9069Y7253D02*
Y7403D01*
X9019Y7303D02*
Y7203D01*
X8969Y7153D02*
Y6953D01*
Y7353D02*
Y7403D01*
X9119Y9003D02*
Y9103D01*
X8969Y9653D02*
Y9703D01*
Y8878D02*
Y8553D01*
X9119Y8653D02*
Y8878D01*
X9069Y7953D02*
Y7803D01*
X9019Y5928D02*
Y5803D01*
X9069Y6403D02*
X9119Y6453D01*
X9019D02*
X8969Y6403D01*
Y7153D02*
X9019Y7203D01*
X9069Y7703D02*
X9169Y7803D01*
X9069Y7503D02*
X8969Y7403D01*
X9119Y8878D02*
X9169Y8928D01*
X9069Y6303D02*
X9119Y6253D01*
X9019Y7303D02*
X8969Y7353D01*
X9119Y9103D02*
X9019Y9203D01*
X9119Y8653D02*
X9219Y8553D01*
Y6353D02*
Y6303D01*
X9319Y6503D02*
Y6653D01*
X9169Y8253D02*
Y8403D01*
X9269Y8703D02*
Y8803D01*
X9169Y7953D02*
Y7803D01*
Y7953D02*
Y8103D01*
X9319Y9503D02*
Y9603D01*
X9169Y7528D02*
Y7403D01*
X9319Y8503D02*
Y8653D01*
X9269Y9153D02*
Y9453D01*
X9169Y9053D02*
Y8928D01*
X9219Y8553D02*
Y7578D01*
X9169Y8653D02*
Y8803D01*
X9269Y8403D02*
Y8253D01*
Y8403D02*
Y8553D01*
X9294Y7728D02*
Y7353D01*
X9169Y6453D02*
Y6078D01*
X9219Y6503D02*
Y6653D01*
X9169Y7528D02*
X9219Y7578D01*
X9269Y9453D02*
X9319Y9503D01*
Y9603D02*
X9369Y9653D01*
X9344Y9728D02*
X9269Y9653D01*
Y9153D02*
X9169Y9053D01*
X9369Y7803D02*
X9294Y7728D01*
X9219Y6503D02*
X9169Y6453D01*
X9219Y6303D02*
X9319Y6203D01*
Y8653D02*
X9269Y8703D01*
X9169Y8653D02*
X9269Y8553D01*
X9294Y7353D02*
X9369Y7278D01*
X11019Y8053D02*
X11069D01*
X9419Y6253D02*
Y6203D01*
Y6503D02*
Y6653D01*
X9469Y7253D02*
Y7403D01*
X9419Y7303D02*
Y7053D01*
X9369Y7353D02*
Y7403D01*
X9469Y7003D02*
Y6953D01*
X9369Y8703D02*
Y8803D01*
Y7278D02*
Y7253D01*
X9519Y6653D02*
Y6503D01*
Y6353D02*
X9419Y6253D01*
X9469Y7003D02*
X9419Y7053D01*
Y7303D02*
X9369Y7353D01*
X9519Y6503D02*
X9569Y6453D01*
X11794Y8328D02*
X11919D01*
X11319D02*
X11269D01*
X9919D02*
X9844D01*
X10869Y8303D02*
X10919D01*
X9719Y6653D02*
Y6503D01*
X9669Y6453D02*
Y6303D01*
X9619Y6503D02*
Y6653D01*
X9719Y6253D02*
Y6203D01*
X9619D02*
Y6153D01*
X9719Y6303D02*
Y6353D01*
X9569Y7253D02*
Y7403D01*
X9669Y7953D02*
Y8253D01*
Y7953D02*
Y7803D01*
X9719Y7303D02*
Y7053D01*
X9669Y7003D02*
Y6953D01*
X9569Y7603D02*
Y7803D01*
Y8453D02*
Y9203D01*
X9719Y9703D02*
Y9803D01*
Y9703D02*
Y9603D01*
X9619Y9578D02*
Y9403D01*
X9719Y8053D02*
Y7653D01*
X9644Y7703D02*
Y7528D01*
X9669Y7503D02*
Y7403D01*
X9619Y6028D02*
Y5803D01*
X9569Y6078D02*
Y6453D01*
X9669Y7003D02*
X9719Y7053D01*
Y7303D02*
X9769Y7353D01*
X9719Y8053D02*
X9819Y8153D01*
X9719Y6503D02*
X9769Y6453D01*
X9669Y6303D02*
X9719Y6253D01*
X9669Y6453D02*
X9619Y6503D01*
X9719Y6303D02*
X9769Y6253D01*
X9644Y6128D02*
X9619Y6153D01*
X9719Y9803D02*
X9619Y9903D01*
X9644Y7528D02*
X9669Y7503D01*
X9569Y6078D02*
X9619Y6028D01*
X11969Y8603D02*
X12044D01*
X8094Y8528D02*
X7969D01*
X9769Y6453D02*
Y6303D01*
X9819Y6253D02*
Y6203D01*
X9769Y6153D02*
Y6253D01*
Y7103D02*
Y7253D01*
X9819Y7903D02*
Y8003D01*
X9869Y8053D02*
Y8253D01*
X9769Y7853D02*
Y7803D01*
X9869D02*
Y7828D01*
X9769Y8253D02*
Y8403D01*
X9919Y8103D02*
Y8053D01*
X9869Y8003D02*
Y7953D01*
X9769Y7403D02*
Y7353D01*
X9919Y9253D02*
Y9603D01*
X9819Y8953D02*
Y8903D01*
X9919D02*
Y8953D01*
X9819Y8303D02*
Y8153D01*
X9869Y8803D02*
Y8853D01*
Y8803D02*
Y8578D01*
X9769Y8503D02*
Y8803D01*
X9869Y8453D02*
Y8403D01*
Y7703D02*
Y7403D01*
X9919Y7353D02*
Y7453D01*
X9769Y6153D02*
X9744Y6128D01*
X9769Y7853D02*
X9819Y7903D01*
Y8003D02*
X9869Y8053D01*
X9969Y7928D02*
X9869Y7828D01*
Y8003D02*
X9919Y8053D01*
Y9603D02*
X9969Y9653D01*
X9844Y8328D02*
X9819Y8303D01*
X9919Y8328D02*
X9969Y8378D01*
X9869Y8453D02*
X9969Y8553D01*
X9994Y7528D02*
X9919Y7453D01*
X9769Y6303D02*
X9819Y6253D01*
X9869Y8853D02*
X9819Y8903D01*
X9919D02*
X9969Y8853D01*
X9919Y7353D02*
X9969Y7303D01*
X11969Y8703D02*
X12069D01*
X8019Y8653D02*
X7919D01*
X10119Y5853D02*
Y5703D01*
Y6203D02*
Y6353D01*
Y6503D01*
X10069Y7253D02*
Y7403D01*
X10019Y7303D02*
Y7103D01*
X9969Y7353D02*
Y7403D01*
Y7053D02*
Y6953D01*
Y7953D02*
Y8253D01*
Y7953D02*
Y7928D01*
X10019Y7903D02*
Y8003D01*
X9969Y7853D02*
Y7803D01*
X10069Y8253D02*
Y8403D01*
Y7803D02*
Y7653D01*
X9969Y9653D02*
Y9803D01*
X10069Y9403D02*
Y9353D01*
X10019Y9303D02*
Y9253D01*
X9969Y9303D02*
Y8903D01*
X10019Y9353D02*
Y9503D01*
X10069Y9553D02*
Y9803D01*
X10119Y9253D02*
Y9103D01*
X10069Y9128D02*
Y9303D01*
X10019Y9078D02*
Y8953D01*
X9969Y8403D02*
Y8378D01*
X10019Y8578D02*
Y8853D01*
X9969D02*
Y8803D01*
Y8553D01*
Y7303D02*
Y7253D01*
X10194Y5928D02*
X10119Y5853D01*
X9969Y7053D02*
X10019Y7103D01*
X9969Y7853D02*
X10019Y7903D01*
Y9303D02*
X10069Y9353D01*
X10019D02*
X9969Y9303D01*
X10019Y9503D02*
X10044Y9528D01*
X10069Y9553D01*
X10144Y9378D02*
X10069Y9303D01*
Y9128D02*
X10019Y9078D01*
X9969Y7353D02*
X10019Y7303D01*
Y8853D02*
X9969Y8903D01*
X7494Y9003D02*
X7219D01*
Y8903D02*
X7444D01*
X10644Y8878D02*
X10794D01*
X10194Y6203D02*
Y5928D01*
X10169Y6228D02*
Y6403D01*
X10219Y6453D02*
Y6653D01*
X10319Y5803D02*
Y5628D01*
X10269Y6303D02*
Y6803D01*
X10319Y6253D02*
Y6203D01*
X10169Y7253D02*
Y7403D01*
Y8153D02*
Y8253D01*
X10319Y9503D02*
Y9553D01*
X10269Y9578D02*
Y9453D01*
X10319Y9628D02*
Y9703D01*
X10269Y9653D02*
Y9803D01*
X10219Y8103D02*
Y8053D01*
X10169Y8003D02*
Y7953D01*
X10219Y7303D02*
Y7053D01*
X10169Y7003D02*
Y6953D01*
X10269Y7353D02*
Y7403D01*
X10319Y6753D02*
Y8428D01*
X10144Y9378D02*
Y9478D01*
X10269Y7803D02*
Y7603D01*
X10219Y6453D02*
X10169Y6403D01*
X10319Y9553D02*
X10369Y9603D01*
X10319Y9628D02*
X10269Y9578D01*
X10219Y8053D02*
X10169Y8003D01*
X10269Y7353D02*
X10219Y7303D01*
Y7053D02*
X10169Y7003D01*
X10319Y8428D02*
X10344Y8453D01*
X10269Y7603D02*
X10194Y7528D01*
X10169Y6228D02*
X10194Y6203D01*
X10369Y6703D02*
X10319Y6753D01*
X10269Y6303D02*
X10319Y6253D01*
X7594Y9103D02*
X7219D01*
X7569Y9178D02*
X7644D01*
X7694Y9103D02*
X7719D01*
X10369Y6703D02*
Y6303D01*
X10419Y6253D02*
Y6203D01*
Y6803D02*
Y7553D01*
X10369Y7803D02*
Y7953D01*
X10469Y7803D02*
Y7753D01*
Y8603D02*
Y8803D01*
X10369Y9603D02*
Y9653D01*
X10469Y8403D02*
Y8253D01*
Y8403D02*
Y8503D01*
Y7953D02*
Y7803D01*
Y7953D02*
Y8103D01*
Y7103D02*
Y6953D01*
X10394Y8503D02*
Y8578D01*
X10419Y8478D02*
Y8228D01*
X10469Y8903D02*
Y8953D01*
X10344Y8503D02*
Y8453D01*
X10419Y8553D02*
Y8728D01*
X10344Y8703D02*
Y8628D01*
X10469Y7753D02*
X10419Y7703D01*
X10494Y9653D02*
X10569Y9728D01*
X10519Y7153D02*
X10469Y7103D01*
X10369Y8803D02*
X10469Y8903D01*
X10369Y6303D02*
X10419Y6253D01*
X10569Y8503D02*
X10469Y8603D01*
X10444Y8528D02*
X10469Y8503D01*
X10444Y8528D02*
X10419Y8553D01*
X10394Y8578D02*
X10344Y8628D01*
X10394Y8503D02*
X10419Y8478D01*
Y8228D02*
X10519Y8128D01*
Y5953D02*
Y5803D01*
X10619Y6203D02*
Y6353D01*
X10569Y6403D02*
Y6253D01*
X10619Y6453D02*
Y6653D01*
X10569Y8253D02*
Y8403D01*
Y8503D01*
X10669Y9253D02*
Y9403D01*
X10569D02*
Y9253D01*
Y9728D02*
Y9803D01*
X10669Y7153D02*
Y6953D01*
X10519Y7153D02*
Y7603D01*
X10594Y7553D02*
Y7653D01*
X10569Y7528D02*
Y7253D01*
X10519Y7828D02*
Y8128D01*
X10669Y7403D02*
Y7353D01*
Y7403D02*
Y7678D01*
X10619Y7928D02*
Y8503D01*
Y5903D02*
Y5803D01*
X10569Y6403D02*
X10619Y6453D01*
X10569Y6253D02*
X10519Y6203D01*
X10669Y7153D02*
X10719Y7203D01*
X10569Y7528D02*
X10594Y7553D01*
X10669Y7353D02*
X10719Y7303D01*
Y7828D02*
X10619Y7928D01*
X10644Y8878D02*
X10569Y8953D01*
X10769Y9203D02*
Y9253D01*
X10819Y6353D02*
Y6203D01*
X10769Y6253D02*
Y6428D01*
X10719Y6478D02*
Y6653D01*
X10819Y6828D02*
Y7003D01*
X10894Y7378D02*
Y7778D01*
X10869Y8403D02*
Y8678D01*
X10719Y7303D02*
Y7203D01*
Y7703D02*
Y7828D01*
X10769Y7403D02*
Y7253D01*
Y7403D02*
Y7653D01*
X10869Y8903D02*
Y9103D01*
X10819Y8528D02*
Y8353D01*
X10869Y9078D02*
Y9103D01*
Y6403D02*
Y6153D01*
X10819Y6453D02*
Y6653D01*
X10769Y6253D02*
X10719Y6203D01*
X10819Y7003D02*
X10919Y7103D01*
X10894Y7778D02*
X10969Y7853D01*
X10869Y8678D02*
X10919Y8728D01*
X10869Y9103D02*
X10769Y9203D01*
X10719Y6478D02*
X10769Y6428D01*
X10969Y7303D02*
X10894Y7378D01*
X10769Y7653D02*
X10719Y7703D01*
X10919Y8853D02*
X10869Y8903D01*
X10794Y8878D02*
X10869Y8803D01*
X10794Y8553D02*
X10819Y8528D01*
Y8353D02*
X10869Y8303D01*
X10819Y6453D02*
X10869Y6403D01*
X10494Y9653D02*
X10369D01*
X9469Y9728D02*
X9344D01*
X8919D02*
X8744D01*
X8919D02*
X8944D01*
X11069Y6453D02*
Y6328D01*
Y6303D01*
X11019Y6503D02*
Y6653D01*
X10919Y7103D02*
Y7178D01*
X10969Y7228D02*
Y7303D01*
Y7853D02*
Y8003D01*
X11069Y6828D02*
Y6503D01*
X10919D02*
Y6653D01*
Y8728D02*
Y8853D01*
X10969Y8728D02*
Y8703D01*
X11044Y8803D02*
Y9003D01*
X11019Y9028D02*
Y9053D01*
X10969Y7228D02*
X10919Y7178D01*
X11069Y8053D02*
X11119Y8103D01*
X10969Y8728D02*
X11044Y8803D01*
X11019Y6503D02*
X11069Y6453D01*
Y6303D02*
X11119Y6253D01*
Y6453D02*
X11069Y6503D01*
X11144Y6928D02*
X11069Y7003D01*
X11044Y9003D02*
X11019Y9028D01*
X11219Y6978D02*
Y6928D01*
Y6853D01*
X11119Y7353D02*
Y7403D01*
X11219D02*
Y7353D01*
X11119Y6253D02*
Y6053D01*
X11269Y6303D02*
Y6403D01*
X11219Y6253D02*
Y6203D01*
Y6453D02*
Y6653D01*
X11119Y6453D02*
Y6353D01*
X11144Y6753D02*
Y6928D01*
X11169Y6728D02*
Y6178D01*
X11119Y7803D02*
Y7853D01*
X11219Y8703D02*
Y8803D01*
X11169Y8753D02*
Y8703D01*
Y8653D02*
Y8553D01*
X11119Y8603D02*
Y8653D01*
X11269Y7928D02*
Y7503D01*
X11219Y8403D02*
Y8603D01*
Y8403D02*
Y8378D01*
Y7953D02*
Y7853D01*
X11119Y8103D02*
Y8253D01*
X11269Y6303D02*
X11219Y6253D01*
X11169Y8653D02*
X11219Y8703D01*
X11169D02*
X11119Y8653D01*
X11219Y8603D02*
X11319Y8703D01*
X11369Y8028D02*
X11269Y7928D01*
X11219Y7953D02*
X11319Y8053D01*
X11144Y7053D02*
X11219Y6978D01*
Y7253D02*
X11119Y7353D01*
X11219D02*
X11269Y7303D01*
X11219Y6453D02*
X11269Y6403D01*
X11169Y6728D02*
X11144Y6753D01*
X11219Y7703D02*
X11119Y7803D01*
X11269Y8328D02*
X11219Y8378D01*
X11319Y7253D02*
Y7128D01*
Y6353D02*
Y6203D01*
X11369Y6303D02*
Y6403D01*
X11319Y6453D02*
Y6653D01*
X11419Y6253D02*
Y6203D01*
X11319Y6028D02*
Y5803D01*
X11494Y6053D02*
Y6703D01*
X11469Y6728D02*
Y6878D01*
X11369Y6803D02*
Y6578D01*
X11469Y6478D02*
Y6153D01*
X11419Y6103D02*
Y6078D01*
X11319Y7703D02*
Y7853D01*
Y8703D02*
Y8803D01*
X11369Y8278D02*
Y8028D01*
X11319Y8053D02*
Y8253D01*
X11419D02*
Y8403D01*
X11469Y8153D02*
Y7553D01*
Y6153D02*
X11419Y6103D01*
X11369Y6803D02*
X11419Y6853D01*
Y7253D02*
X11369Y7303D01*
Y6303D02*
X11419Y6253D01*
X11369Y6403D02*
X11319Y6453D01*
X11494Y6053D02*
X11569Y5978D01*
X11494Y6703D02*
X11469Y6728D01*
Y6878D02*
X11419Y6928D01*
X11369Y6578D02*
X11469Y6478D01*
X11419Y5803D02*
X11494Y5728D01*
X11369Y8278D02*
X11319Y8328D01*
X11669Y7053D02*
Y6753D01*
X11519Y6853D02*
Y6928D01*
X11569Y5978D02*
Y5803D01*
X11619Y5753D02*
Y6703D01*
X11569Y6753D02*
Y6928D01*
X11619Y6978D02*
Y7103D01*
X11669Y7153D02*
Y7453D01*
X11619Y8253D02*
Y8428D01*
X11644Y9353D02*
Y9403D01*
X11569D02*
Y9328D01*
X11719Y7103D02*
X11669Y7053D01*
X11619Y5753D02*
X11594Y5728D01*
X11569Y6928D02*
X11619Y6978D01*
Y7103D02*
X11669Y7153D01*
Y6753D02*
X11719Y6703D01*
X11619D02*
X11569Y6753D01*
X11744Y9253D02*
X11644Y9353D01*
X11569Y9328D02*
X11644Y9253D01*
X11869Y6653D02*
Y6528D01*
Y6003D02*
Y5803D01*
X11719Y5553D02*
Y6703D01*
Y7103D02*
Y7253D01*
Y7403D01*
X11819D02*
Y7278D01*
X11719Y7028D02*
Y6853D01*
X11819Y7253D02*
Y7278D01*
Y7253D02*
Y7128D01*
X11769Y6353D02*
Y6203D01*
Y6353D02*
Y6503D01*
X11819Y7703D02*
Y7853D01*
Y7703D02*
Y7603D01*
X11719Y7853D02*
Y8028D01*
X11819Y8128D02*
Y8253D01*
X11794Y8603D02*
Y9403D01*
X11744Y9253D02*
Y8728D01*
X11919Y6053D02*
X11869Y6003D01*
X11719Y7028D02*
X11819Y7128D01*
X11719Y8028D02*
X11819Y8128D01*
X11719Y8253D02*
X11794Y8328D01*
X11869Y6528D02*
X11919Y6478D01*
Y6053D01*
Y7703D02*
Y7853D01*
X12069Y8403D02*
Y8528D01*
Y8578D01*
X11969Y8503D02*
Y8378D01*
X12019Y8253D02*
X12094Y8328D01*
X11969Y8378D02*
X11919Y8328D01*
X12094Y8678D02*
X12069Y8703D01*
X12044Y8603D02*
X12069Y8578D01*
X12094Y8678D02*
Y8328D01*
D19*
X7069Y8803D02*
X7044Y8778D01*
X7094Y8103D02*
X7019Y8028D01*
X7269Y9503D02*
X7319Y9553D01*
X11119Y9403D02*
X11269Y9553D01*
X11394Y9478D02*
X11269Y9353D01*
X12194Y7553D02*
X12094Y7453D01*
X12169Y7403D02*
X12269Y7503D01*
X10994Y6903D02*
X10819Y6728D01*
X10969Y7153D02*
X11044Y7228D01*
X7019Y8153D02*
X6944Y8078D01*
X7194Y7153D02*
X7169Y7128D01*
X7119Y7078D01*
Y6878D02*
X7044Y6803D01*
Y6528D02*
X6969Y6453D01*
Y7078D02*
X7119Y7228D01*
X10294Y9153D02*
X10369Y9228D01*
X11044Y8303D02*
X10819Y8078D01*
X11044Y8728D02*
X11119Y8803D01*
X10844Y7128D02*
X10769Y7053D01*
X12119Y6353D02*
X12194Y6428D01*
X7419Y6478D02*
X7319Y6378D01*
X8894Y9328D02*
X8969Y9403D01*
X10269Y8828D02*
X10294Y8853D01*
X8769Y5803D02*
X8544Y5578D01*
X9819Y5878D02*
X9994Y6053D01*
X10619Y5553D02*
X10719Y5653D01*
X7094Y8303D02*
X7044Y8353D01*
X12144Y9553D02*
X12269Y9428D01*
X12169D02*
X12119Y9478D01*
X12169Y7678D02*
X12194Y7653D01*
X12094Y7278D02*
X12119Y7253D01*
X10994Y7003D02*
X10969Y7028D01*
X11044Y7628D02*
X11019Y7653D01*
X10969Y7703D01*
X10419Y6578D02*
X10519Y6478D01*
X7119Y7353D02*
X6944Y7528D01*
X7019Y7603D02*
X7194Y7428D01*
X8669Y7128D02*
X8769Y7028D01*
X10744Y7903D02*
X10769Y7878D01*
X10744Y8078D02*
X10669Y8153D01*
X10819Y7928D02*
X10844Y7903D01*
X12169Y7303D02*
X12194Y7278D01*
X8919Y6453D02*
X8819Y6553D01*
X11119Y8403D02*
X11219Y8303D01*
X8969Y9153D02*
X8894Y9228D01*
X7994Y5628D02*
X8044Y5578D01*
X9919Y6303D02*
X9994Y6228D01*
X9819Y5628D02*
X9894Y5553D01*
X7994Y5628D02*
X7819D01*
X8044Y5578D02*
X8544D01*
X9894Y5553D02*
X10619D01*
X6944Y7528D02*
Y8078D01*
X6969Y6453D02*
Y6353D01*
Y6653D02*
Y7078D01*
X8919Y5728D02*
X9219D01*
X8919Y5803D02*
X8769D01*
X7069Y8803D02*
Y8853D01*
X7044Y8778D02*
Y8353D01*
X7094Y8303D02*
Y8103D01*
X7019Y8028D02*
Y7953D01*
X7069Y8853D02*
Y9253D01*
X7019Y8253D02*
Y8153D01*
X7119Y7353D02*
Y7253D01*
X7019Y7603D02*
Y7953D01*
X7119Y7078D02*
Y6953D01*
Y6878D01*
X7044Y6803D02*
Y6528D01*
X7119Y7228D02*
Y7253D01*
X7269Y9253D02*
Y9503D01*
X7194Y7428D02*
Y7153D01*
X7319Y6378D02*
Y6353D01*
X7419Y6528D02*
Y6653D01*
Y6528D02*
Y6478D01*
X7819Y5803D02*
Y5628D01*
X8669Y7128D02*
Y7253D01*
X8769Y7028D02*
Y6953D01*
X8819Y6653D02*
Y6553D01*
X8919Y6453D02*
Y6353D01*
X8894Y9228D02*
Y9328D01*
X8919Y5803D02*
Y5728D01*
X8969Y9403D02*
Y9553D01*
X9219Y5803D02*
Y5728D01*
X9919Y6303D02*
Y6353D01*
X9819Y5878D02*
Y5803D01*
Y5628D01*
X9994Y6053D02*
Y6228D01*
X7169Y8853D02*
X7069D01*
X10294D02*
Y9153D01*
X10269Y8828D02*
Y8253D01*
X10419Y6653D02*
Y6578D01*
X10369Y9253D02*
Y9453D01*
Y9253D02*
Y9228D01*
X7169Y9253D02*
X7069D01*
X10519Y6478D02*
Y6353D01*
X10669Y8153D02*
Y8253D01*
X7469Y9553D02*
X7319D01*
X11269D02*
X12144D01*
X12119Y9478D02*
X11394D01*
X10819Y6728D02*
Y6653D01*
X10769Y7803D02*
Y7878D01*
X10744Y7903D02*
Y8078D01*
X10819D02*
Y7953D01*
X10844Y7903D02*
Y7128D01*
X10819Y7928D02*
Y7953D01*
X10769Y7053D02*
Y6953D01*
X10719Y5803D02*
Y5653D01*
X10994Y6903D02*
Y7003D01*
X10969Y7028D02*
Y7153D01*
X11044Y7228D02*
Y7628D01*
Y8303D02*
Y8728D01*
X11269Y9103D02*
Y9353D01*
X11119Y9403D02*
Y9103D01*
Y9028D01*
Y8803D01*
X11219Y8303D02*
Y8253D01*
X11869Y9303D02*
Y9403D01*
Y9303D02*
Y9203D01*
Y9103D01*
Y9003D01*
Y8903D01*
Y8803D01*
Y8703D01*
Y8603D01*
Y8503D01*
X12169Y7703D02*
Y9428D01*
Y7703D02*
Y7678D01*
X12194Y7653D02*
Y7553D01*
X12094Y7453D02*
Y7278D01*
X12119Y7253D02*
Y6653D01*
X12269Y7503D02*
Y9428D01*
X12194Y7278D02*
Y6428D01*
X12169Y7303D02*
Y7403D01*
X11944Y9753D02*
X11945D01*
X11944D02*
X11944Y9743D01*
X11946Y9733D01*
X11948Y9723D01*
X11950Y9713D01*
X11954Y9704D01*
X11958Y9695D01*
X11963Y9686D01*
X11969Y9678D01*
X11975Y9670D01*
X11982Y9663D01*
X11990Y9656D01*
X11998Y9650D01*
X12006Y9645D01*
X12015Y9640D01*
X12025Y9636D01*
X12034Y9633D01*
X12044Y9631D01*
X12054Y9629D01*
X12064Y9628D01*
X12074D01*
X12084Y9629D01*
X12094Y9631D01*
X12104Y9633D01*
X12113Y9636D01*
X12123Y9640D01*
X12132Y9645D01*
X12140Y9650D01*
X12148Y9656D01*
X12156Y9663D01*
X12163Y9670D01*
X12169Y9678D01*
X12175Y9686D01*
X12180Y9695D01*
X12184Y9704D01*
X12188Y9713D01*
X12190Y9723D01*
X12192Y9733D01*
X12194Y9743D01*
X12194Y9753D01*
X12195D01*
X12194D02*
X12194Y9763D01*
X12192Y9773D01*
X12190Y9783D01*
X12188Y9793D01*
X12184Y9802D01*
X12180Y9811D01*
X12175Y9820D01*
X12169Y9828D01*
X12163Y9836D01*
X12156Y9843D01*
X12148Y9850D01*
X12140Y9856D01*
X12132Y9861D01*
X12123Y9866D01*
X12113Y9870D01*
X12104Y9873D01*
X12094Y9875D01*
X12084Y9877D01*
X12074Y9878D01*
X12064D01*
X12054Y9877D01*
X12044Y9875D01*
X12034Y9873D01*
X12025Y9870D01*
X12015Y9866D01*
X12006Y9861D01*
X11998Y9856D01*
X11990Y9850D01*
X11982Y9843D01*
X11975Y9836D01*
X11969Y9828D01*
X11963Y9820D01*
X11958Y9811D01*
X11954Y9802D01*
X11950Y9793D01*
X11948Y9783D01*
X11946Y9773D01*
X11944Y9763D01*
X11944Y9753D01*
X11992D02*
X11993D01*
X11992D02*
X11993Y9744D01*
X11994Y9735D01*
X11997Y9727D01*
X12000Y9718D01*
X12005Y9711D01*
X12010Y9704D01*
X12016Y9697D01*
X12023Y9691D01*
X12030Y9686D01*
X12039Y9682D01*
X12047Y9679D01*
X12056Y9677D01*
X12065Y9676D01*
X12073D01*
X12082Y9677D01*
X12091Y9679D01*
X12099Y9682D01*
X12108Y9686D01*
X12115Y9691D01*
X12122Y9697D01*
X12128Y9704D01*
X12133Y9711D01*
X12138Y9718D01*
X12141Y9727D01*
X12144Y9735D01*
X12145Y9744D01*
X12146Y9753D01*
X12147D01*
X12146D02*
X12145Y9762D01*
X12144Y9771D01*
X12141Y9779D01*
X12138Y9788D01*
X12133Y9795D01*
X12128Y9802D01*
X12122Y9809D01*
X12115Y9815D01*
X12108Y9820D01*
X12099Y9824D01*
X12091Y9827D01*
X12082Y9829D01*
X12073Y9830D01*
X12065D01*
X12056Y9829D01*
X12047Y9827D01*
X12039Y9824D01*
X12030Y9820D01*
X12023Y9815D01*
X12016Y9809D01*
X12010Y9802D01*
X12005Y9795D01*
X12000Y9788D01*
X11997Y9779D01*
X11994Y9771D01*
X11993Y9762D01*
X11992Y9753D01*
X12040D02*
X12041D01*
X12040D02*
X12041Y9747D01*
X12043Y9741D01*
X12046Y9736D01*
X12050Y9731D01*
X12054Y9728D01*
X12060Y9725D01*
X12066Y9724D01*
X12072D01*
X12078Y9725D01*
X12084Y9728D01*
X12088Y9731D01*
X12092Y9736D01*
X12095Y9741D01*
X12097Y9747D01*
X12098Y9753D01*
X12099D01*
X12098D02*
X12097Y9759D01*
X12095Y9765D01*
X12092Y9770D01*
X12088Y9775D01*
X12084Y9778D01*
X12078Y9781D01*
X12072Y9782D01*
X12066D01*
X12060Y9781D01*
X12054Y9778D01*
X12050Y9775D01*
X12046Y9770D01*
X12043Y9765D01*
X12041Y9759D01*
X12040Y9753D01*
X12069D02*
D03*
X11944Y5753D02*
X11945D01*
X11944D02*
X11944Y5743D01*
X11946Y5733D01*
X11948Y5723D01*
X11950Y5713D01*
X11954Y5704D01*
X11958Y5695D01*
X11963Y5686D01*
X11969Y5678D01*
X11975Y5670D01*
X11982Y5663D01*
X11990Y5656D01*
X11998Y5650D01*
X12006Y5645D01*
X12015Y5640D01*
X12025Y5636D01*
X12034Y5633D01*
X12044Y5631D01*
X12054Y5629D01*
X12064Y5628D01*
X12074D01*
X12084Y5629D01*
X12094Y5631D01*
X12104Y5633D01*
X12113Y5636D01*
X12123Y5640D01*
X12132Y5645D01*
X12140Y5650D01*
X12148Y5656D01*
X12156Y5663D01*
X12163Y5670D01*
X12169Y5678D01*
X12175Y5686D01*
X12180Y5695D01*
X12184Y5704D01*
X12188Y5713D01*
X12190Y5723D01*
X12192Y5733D01*
X12194Y5743D01*
X12194Y5753D01*
X12195D01*
X12194D02*
X12194Y5763D01*
X12192Y5773D01*
X12190Y5783D01*
X12188Y5793D01*
X12184Y5802D01*
X12180Y5811D01*
X12175Y5820D01*
X12169Y5828D01*
X12163Y5836D01*
X12156Y5843D01*
X12148Y5850D01*
X12140Y5856D01*
X12132Y5861D01*
X12123Y5866D01*
X12113Y5870D01*
X12104Y5873D01*
X12094Y5875D01*
X12084Y5877D01*
X12074Y5878D01*
X12064D01*
X12054Y5877D01*
X12044Y5875D01*
X12034Y5873D01*
X12025Y5870D01*
X12015Y5866D01*
X12006Y5861D01*
X11998Y5856D01*
X11990Y5850D01*
X11982Y5843D01*
X11975Y5836D01*
X11969Y5828D01*
X11963Y5820D01*
X11958Y5811D01*
X11954Y5802D01*
X11950Y5793D01*
X11948Y5783D01*
X11946Y5773D01*
X11944Y5763D01*
X11944Y5753D01*
X11992D02*
X11993D01*
X11992D02*
X11993Y5744D01*
X11994Y5735D01*
X11997Y5727D01*
X12000Y5718D01*
X12005Y5711D01*
X12010Y5704D01*
X12016Y5697D01*
X12023Y5691D01*
X12030Y5686D01*
X12039Y5682D01*
X12047Y5679D01*
X12056Y5677D01*
X12065Y5676D01*
X12073D01*
X12082Y5677D01*
X12091Y5679D01*
X12099Y5682D01*
X12108Y5686D01*
X12115Y5691D01*
X12122Y5697D01*
X12128Y5704D01*
X12133Y5711D01*
X12138Y5718D01*
X12141Y5727D01*
X12144Y5735D01*
X12145Y5744D01*
X12146Y5753D01*
X12147D01*
X12146D02*
X12145Y5762D01*
X12144Y5771D01*
X12141Y5779D01*
X12138Y5788D01*
X12133Y5795D01*
X12128Y5802D01*
X12122Y5809D01*
X12115Y5815D01*
X12108Y5820D01*
X12099Y5824D01*
X12091Y5827D01*
X12082Y5829D01*
X12073Y5830D01*
X12065D01*
X12056Y5829D01*
X12047Y5827D01*
X12039Y5824D01*
X12030Y5820D01*
X12023Y5815D01*
X12016Y5809D01*
X12010Y5802D01*
X12005Y5795D01*
X12000Y5788D01*
X11997Y5779D01*
X11994Y5771D01*
X11993Y5762D01*
X11992Y5753D01*
X12040D02*
X12041D01*
X12040D02*
X12041Y5747D01*
X12043Y5741D01*
X12046Y5736D01*
X12050Y5731D01*
X12054Y5728D01*
X12060Y5725D01*
X12066Y5724D01*
X12072D01*
X12078Y5725D01*
X12084Y5728D01*
X12088Y5731D01*
X12092Y5736D01*
X12095Y5741D01*
X12097Y5747D01*
X12098Y5753D01*
X12099D01*
X12098D02*
X12097Y5759D01*
X12095Y5765D01*
X12092Y5770D01*
X12088Y5775D01*
X12084Y5778D01*
X12078Y5781D01*
X12072Y5782D01*
X12066D01*
X12060Y5781D01*
X12054Y5778D01*
X12050Y5775D01*
X12046Y5770D01*
X12043Y5765D01*
X12041Y5759D01*
X12040Y5753D01*
X12069D02*
D03*
X6944Y9753D02*
X6945D01*
X6944D02*
X6944Y9743D01*
X6946Y9733D01*
X6948Y9723D01*
X6950Y9713D01*
X6954Y9704D01*
X6958Y9695D01*
X6963Y9686D01*
X6969Y9678D01*
X6975Y9670D01*
X6982Y9663D01*
X6990Y9656D01*
X6998Y9650D01*
X7006Y9645D01*
X7015Y9640D01*
X7025Y9636D01*
X7034Y9633D01*
X7044Y9631D01*
X7054Y9629D01*
X7064Y9628D01*
X7074D01*
X7084Y9629D01*
X7094Y9631D01*
X7104Y9633D01*
X7113Y9636D01*
X7123Y9640D01*
X7132Y9645D01*
X7140Y9650D01*
X7148Y9656D01*
X7156Y9663D01*
X7163Y9670D01*
X7169Y9678D01*
X7175Y9686D01*
X7180Y9695D01*
X7184Y9704D01*
X7188Y9713D01*
X7190Y9723D01*
X7192Y9733D01*
X7194Y9743D01*
X7194Y9753D01*
X7195D01*
X7194D02*
X7194Y9763D01*
X7192Y9773D01*
X7190Y9783D01*
X7188Y9793D01*
X7184Y9802D01*
X7180Y9811D01*
X7175Y9820D01*
X7169Y9828D01*
X7163Y9836D01*
X7156Y9843D01*
X7148Y9850D01*
X7140Y9856D01*
X7132Y9861D01*
X7123Y9866D01*
X7113Y9870D01*
X7104Y9873D01*
X7094Y9875D01*
X7084Y9877D01*
X7074Y9878D01*
X7064D01*
X7054Y9877D01*
X7044Y9875D01*
X7034Y9873D01*
X7025Y9870D01*
X7015Y9866D01*
X7006Y9861D01*
X6998Y9856D01*
X6990Y9850D01*
X6982Y9843D01*
X6975Y9836D01*
X6969Y9828D01*
X6963Y9820D01*
X6958Y9811D01*
X6954Y9802D01*
X6950Y9793D01*
X6948Y9783D01*
X6946Y9773D01*
X6944Y9763D01*
X6944Y9753D01*
X6992D02*
X6993D01*
X6992D02*
X6993Y9744D01*
X6994Y9735D01*
X6997Y9727D01*
X7000Y9718D01*
X7005Y9711D01*
X7010Y9704D01*
X7016Y9697D01*
X7023Y9691D01*
X7030Y9686D01*
X7039Y9682D01*
X7047Y9679D01*
X7056Y9677D01*
X7065Y9676D01*
X7073D01*
X7082Y9677D01*
X7091Y9679D01*
X7099Y9682D01*
X7108Y9686D01*
X7115Y9691D01*
X7122Y9697D01*
X7128Y9704D01*
X7133Y9711D01*
X7138Y9718D01*
X7141Y9727D01*
X7144Y9735D01*
X7145Y9744D01*
X7146Y9753D01*
X7147D01*
X7146D02*
X7145Y9762D01*
X7144Y9771D01*
X7141Y9779D01*
X7138Y9788D01*
X7133Y9795D01*
X7128Y9802D01*
X7122Y9809D01*
X7115Y9815D01*
X7108Y9820D01*
X7099Y9824D01*
X7091Y9827D01*
X7082Y9829D01*
X7073Y9830D01*
X7065D01*
X7056Y9829D01*
X7047Y9827D01*
X7039Y9824D01*
X7030Y9820D01*
X7023Y9815D01*
X7016Y9809D01*
X7010Y9802D01*
X7005Y9795D01*
X7000Y9788D01*
X6997Y9779D01*
X6994Y9771D01*
X6993Y9762D01*
X6992Y9753D01*
X7040D02*
X7041D01*
X7040D02*
X7041Y9747D01*
X7043Y9741D01*
X7046Y9736D01*
X7050Y9731D01*
X7054Y9728D01*
X7060Y9725D01*
X7066Y9724D01*
X7072D01*
X7078Y9725D01*
X7084Y9728D01*
X7088Y9731D01*
X7092Y9736D01*
X7095Y9741D01*
X7097Y9747D01*
X7098Y9753D01*
X7099D01*
X7098D02*
X7097Y9759D01*
X7095Y9765D01*
X7092Y9770D01*
X7088Y9775D01*
X7084Y9778D01*
X7078Y9781D01*
X7072Y9782D01*
X7066D01*
X7060Y9781D01*
X7054Y9778D01*
X7050Y9775D01*
X7046Y9770D01*
X7043Y9765D01*
X7041Y9759D01*
X7040Y9753D01*
X7069D02*
D03*
X6944Y5753D02*
X6945D01*
X6944D02*
X6944Y5743D01*
X6946Y5733D01*
X6948Y5723D01*
X6950Y5713D01*
X6954Y5704D01*
X6958Y5695D01*
X6963Y5686D01*
X6969Y5678D01*
X6975Y5670D01*
X6982Y5663D01*
X6990Y5656D01*
X6998Y5650D01*
X7006Y5645D01*
X7015Y5640D01*
X7025Y5636D01*
X7034Y5633D01*
X7044Y5631D01*
X7054Y5629D01*
X7064Y5628D01*
X7074D01*
X7084Y5629D01*
X7094Y5631D01*
X7104Y5633D01*
X7113Y5636D01*
X7123Y5640D01*
X7132Y5645D01*
X7140Y5650D01*
X7148Y5656D01*
X7156Y5663D01*
X7163Y5670D01*
X7169Y5678D01*
X7175Y5686D01*
X7180Y5695D01*
X7184Y5704D01*
X7188Y5713D01*
X7190Y5723D01*
X7192Y5733D01*
X7194Y5743D01*
X7194Y5753D01*
X7195D01*
X7194D02*
X7194Y5763D01*
X7192Y5773D01*
X7190Y5783D01*
X7188Y5793D01*
X7184Y5802D01*
X7180Y5811D01*
X7175Y5820D01*
X7169Y5828D01*
X7163Y5836D01*
X7156Y5843D01*
X7148Y5850D01*
X7140Y5856D01*
X7132Y5861D01*
X7123Y5866D01*
X7113Y5870D01*
X7104Y5873D01*
X7094Y5875D01*
X7084Y5877D01*
X7074Y5878D01*
X7064D01*
X7054Y5877D01*
X7044Y5875D01*
X7034Y5873D01*
X7025Y5870D01*
X7015Y5866D01*
X7006Y5861D01*
X6998Y5856D01*
X6990Y5850D01*
X6982Y5843D01*
X6975Y5836D01*
X6969Y5828D01*
X6963Y5820D01*
X6958Y5811D01*
X6954Y5802D01*
X6950Y5793D01*
X6948Y5783D01*
X6946Y5773D01*
X6944Y5763D01*
X6944Y5753D01*
X6992D02*
X6993D01*
X6992D02*
X6993Y5744D01*
X6994Y5735D01*
X6997Y5727D01*
X7000Y5718D01*
X7005Y5711D01*
X7010Y5704D01*
X7016Y5697D01*
X7023Y5691D01*
X7030Y5686D01*
X7039Y5682D01*
X7047Y5679D01*
X7056Y5677D01*
X7065Y5676D01*
X7073D01*
X7082Y5677D01*
X7091Y5679D01*
X7099Y5682D01*
X7108Y5686D01*
X7115Y5691D01*
X7122Y5697D01*
X7128Y5704D01*
X7133Y5711D01*
X7138Y5718D01*
X7141Y5727D01*
X7144Y5735D01*
X7145Y5744D01*
X7146Y5753D01*
X7147D01*
X7146D02*
X7145Y5762D01*
X7144Y5771D01*
X7141Y5779D01*
X7138Y5788D01*
X7133Y5795D01*
X7128Y5802D01*
X7122Y5809D01*
X7115Y5815D01*
X7108Y5820D01*
X7099Y5824D01*
X7091Y5827D01*
X7082Y5829D01*
X7073Y5830D01*
X7065D01*
X7056Y5829D01*
X7047Y5827D01*
X7039Y5824D01*
X7030Y5820D01*
X7023Y5815D01*
X7016Y5809D01*
X7010Y5802D01*
X7005Y5795D01*
X7000Y5788D01*
X6997Y5779D01*
X6994Y5771D01*
X6993Y5762D01*
X6992Y5753D01*
X7040D02*
X7041D01*
X7040D02*
X7041Y5747D01*
X7043Y5741D01*
X7046Y5736D01*
X7050Y5731D01*
X7054Y5728D01*
X7060Y5725D01*
X7066Y5724D01*
X7072D01*
X7078Y5725D01*
X7084Y5728D01*
X7088Y5731D01*
X7092Y5736D01*
X7095Y5741D01*
X7097Y5747D01*
X7098Y5753D01*
X7099D01*
X7098D02*
X7097Y5759D01*
X7095Y5765D01*
X7092Y5770D01*
X7088Y5775D01*
X7084Y5778D01*
X7078Y5781D01*
X7072Y5782D01*
X7066D01*
X7060Y5781D01*
X7054Y5778D01*
X7050Y5775D01*
X7046Y5770D01*
X7043Y5765D01*
X7041Y5759D01*
X7040Y5753D01*
X7069D02*
D03*
D21*
X10269Y9453D02*
D03*
X10319Y9503D02*
D03*
X10369Y9453D02*
D03*
X8969Y9153D02*
D03*
X9019Y9203D02*
D03*
X8969Y9253D02*
D03*
X10269Y9653D02*
D03*
X10319Y9703D02*
D03*
X10369Y9653D02*
D03*
X11069Y7103D02*
D03*
X11119Y7053D02*
D03*
X11069Y7003D02*
D03*
X11219Y8603D02*
D03*
X11169Y8553D02*
D03*
X11119Y8603D02*
D03*
X11219Y8803D02*
D03*
X11169Y8753D02*
D03*
X11119Y8803D02*
D03*
X10969Y8103D02*
D03*
X11019Y8053D02*
D03*
X10969Y8003D02*
D03*
D24*
X11719Y5553D02*
D03*
X11769Y6503D02*
D03*
X11794Y9403D02*
D03*
X11569D02*
D03*
X11644Y9253D02*
D03*
Y9403D02*
D03*
X11469Y7553D02*
D03*
X11419Y6078D02*
D03*
Y6928D02*
D03*
X11469Y8153D02*
D03*
X11119Y6053D02*
D03*
X11269Y7503D02*
D03*
X10919Y6503D02*
D03*
X11069Y6828D02*
D03*
X10919Y8303D02*
D03*
X11019Y9053D02*
D03*
X10969Y8703D02*
D03*
X10819Y6828D02*
D03*
X10869Y9078D02*
D03*
X10794Y8553D02*
D03*
X10519Y5953D02*
D03*
Y7603D02*
D03*
X10619Y8503D02*
D03*
X10594Y7653D02*
D03*
X10419Y7553D02*
D03*
Y6803D02*
D03*
X10344Y8703D02*
D03*
X10419Y8728D02*
D03*
X10344Y8503D02*
D03*
X10469Y8103D02*
D03*
X10319Y5628D02*
D03*
X10269Y6803D02*
D03*
X10219Y8103D02*
D03*
X10144Y9478D02*
D03*
X10119Y6503D02*
D03*
X10019Y8578D02*
D03*
X10119Y9103D02*
D03*
X10069Y7653D02*
D03*
X9769Y7103D02*
D03*
X9869Y7703D02*
D03*
X9769Y8503D02*
D03*
X9869Y8578D02*
D03*
X9919Y8103D02*
D03*
X9844Y9478D02*
D03*
X9569Y7603D02*
D03*
X9644Y7703D02*
D03*
X9719Y7653D02*
D03*
X9569Y8453D02*
D03*
Y9203D02*
D03*
X9419Y6503D02*
D03*
X9369Y8703D02*
D03*
X9319Y6503D02*
D03*
Y8503D02*
D03*
X9169Y8103D02*
D03*
X8969Y7103D02*
D03*
Y8553D02*
D03*
X8919Y6803D02*
D03*
Y8103D02*
D03*
X8619Y7553D02*
D03*
X8394Y6103D02*
D03*
X8519Y6503D02*
D03*
Y8103D02*
D03*
X8469Y9103D02*
D03*
X8294Y5903D02*
D03*
X8269Y7103D02*
D03*
X8169Y8478D02*
D03*
X8319Y8103D02*
D03*
X8119Y5653D02*
D03*
X8069Y8703D02*
D03*
X8019Y8103D02*
D03*
X8069Y7728D02*
D03*
X8094Y8528D02*
D03*
X7869Y6003D02*
D03*
X7969Y5903D02*
D03*
X7919Y7103D02*
D03*
Y6503D02*
D03*
X7944Y8103D02*
D03*
X7794Y8453D02*
D03*
X7919Y8653D02*
D03*
X7944Y8553D02*
D03*
X7719Y6003D02*
D03*
X7694Y9103D02*
D03*
X7769Y7703D02*
D03*
X7619Y9253D02*
D03*
X7719Y9303D02*
D03*
X7519Y7578D02*
D03*
X7269Y5928D02*
D03*
X7319Y6503D02*
D03*
X7119Y6953D02*
D03*
Y7253D02*
D03*
X7269D02*
D03*
X7369D02*
D03*
X7469D02*
D03*
X7569D02*
D03*
Y6953D02*
D03*
X7469D02*
D03*
X7369D02*
D03*
X6969Y6353D02*
D03*
Y6653D02*
D03*
X7119D02*
D03*
X7219D02*
D03*
X7319D02*
D03*
X7419D02*
D03*
Y6353D02*
D03*
X7319D02*
D03*
X7219D02*
D03*
Y6203D02*
D03*
X7119D02*
D03*
X7319Y6803D02*
D03*
X7219D02*
D03*
X7269Y7403D02*
D03*
Y7803D02*
D03*
X7169Y8553D02*
D03*
X7269Y8653D02*
D03*
X7169D02*
D03*
X7269Y8753D02*
D03*
X7169D02*
D03*
X7269Y8853D02*
D03*
X7169D02*
D03*
X7269Y8953D02*
D03*
X7169D02*
D03*
X7269Y9053D02*
D03*
X7169D02*
D03*
X7269Y9153D02*
D03*
X7169D02*
D03*
X7269Y9253D02*
D03*
X7169D02*
D03*
X7369Y8403D02*
D03*
Y8803D02*
D03*
X7019Y7953D02*
D03*
Y8253D02*
D03*
X7169Y7653D02*
D03*
Y7753D02*
D03*
Y8253D02*
D03*
X7269D02*
D03*
X7369D02*
D03*
X7469D02*
D03*
Y7953D02*
D03*
X7369D02*
D03*
X7269D02*
D03*
X7519Y5853D02*
D03*
X7619Y6153D02*
D03*
Y5653D02*
D03*
X8219Y5803D02*
D03*
Y6203D02*
D03*
X7919Y5803D02*
D03*
Y6203D02*
D03*
X8919Y5803D02*
D03*
Y6203D02*
D03*
X7419Y5803D02*
D03*
Y6203D02*
D03*
X8869Y7253D02*
D03*
X8969D02*
D03*
X9069D02*
D03*
X9169D02*
D03*
Y6953D02*
D03*
X9069D02*
D03*
X8969D02*
D03*
X8769D02*
D03*
Y7253D02*
D03*
X8669D02*
D03*
Y6953D02*
D03*
X7869Y7253D02*
D03*
X7969D02*
D03*
X8069D02*
D03*
X8169D02*
D03*
X8269D02*
D03*
X8369D02*
D03*
X8469D02*
D03*
X8569D02*
D03*
Y6953D02*
D03*
X8469D02*
D03*
X8369D02*
D03*
X8269D02*
D03*
X8169D02*
D03*
X8069D02*
D03*
X7969D02*
D03*
X7769D02*
D03*
Y7253D02*
D03*
X7669D02*
D03*
Y6953D02*
D03*
X8419Y6653D02*
D03*
X8519D02*
D03*
X8619D02*
D03*
X8719D02*
D03*
Y6353D02*
D03*
X8619D02*
D03*
X8519D02*
D03*
Y5703D02*
D03*
Y6203D02*
D03*
X7519Y6653D02*
D03*
Y6353D02*
D03*
X7619Y6653D02*
D03*
X7719D02*
D03*
X7819D02*
D03*
X7919D02*
D03*
X8019D02*
D03*
X8119D02*
D03*
X8219D02*
D03*
Y6353D02*
D03*
X8119D02*
D03*
X8019D02*
D03*
X7919D02*
D03*
X7819D02*
D03*
X7719D02*
D03*
X8319D02*
D03*
Y6653D02*
D03*
X8919Y6353D02*
D03*
Y6653D02*
D03*
X8819D02*
D03*
Y6353D02*
D03*
X8269Y7403D02*
D03*
Y7803D02*
D03*
X7819Y6203D02*
D03*
Y5803D02*
D03*
X7719Y6203D02*
D03*
Y5803D02*
D03*
X8369Y7403D02*
D03*
Y7803D02*
D03*
X8769Y7403D02*
D03*
Y7803D02*
D03*
X7469Y7403D02*
D03*
Y7803D02*
D03*
X7569Y7403D02*
D03*
Y7803D02*
D03*
X8169Y7403D02*
D03*
Y7803D02*
D03*
X7669Y7403D02*
D03*
Y7803D02*
D03*
X8869Y7403D02*
D03*
Y7803D02*
D03*
X8019Y6203D02*
D03*
Y5803D02*
D03*
X7569Y8253D02*
D03*
Y7953D02*
D03*
X8469Y7703D02*
D03*
Y7803D02*
D03*
X8369Y7953D02*
D03*
Y8253D02*
D03*
X7669D02*
D03*
X7769D02*
D03*
X7869D02*
D03*
X7969D02*
D03*
X8069D02*
D03*
X8169D02*
D03*
X8269D02*
D03*
Y7953D02*
D03*
X8169D02*
D03*
X8069D02*
D03*
X7969D02*
D03*
X7869D02*
D03*
X7769D02*
D03*
X8469Y8253D02*
D03*
X8569D02*
D03*
X8669D02*
D03*
X8769D02*
D03*
Y7953D02*
D03*
X8669D02*
D03*
X8569D02*
D03*
X8869Y8253D02*
D03*
Y7953D02*
D03*
X8669Y8803D02*
D03*
Y8403D02*
D03*
X8769Y8803D02*
D03*
Y8403D02*
D03*
X8869Y8803D02*
D03*
Y8403D02*
D03*
X8569Y8803D02*
D03*
Y8403D02*
D03*
X8069Y7803D02*
D03*
Y7403D02*
D03*
X7869Y8803D02*
D03*
Y8403D02*
D03*
X7769Y7803D02*
D03*
Y7403D02*
D03*
X8569Y7803D02*
D03*
Y7403D02*
D03*
X8669Y7803D02*
D03*
Y7403D02*
D03*
X7869Y7803D02*
D03*
Y7403D02*
D03*
X7969Y7803D02*
D03*
Y7403D02*
D03*
X8269Y8403D02*
D03*
Y8803D02*
D03*
X7969Y8403D02*
D03*
Y8803D02*
D03*
X7669D02*
D03*
Y8403D02*
D03*
X7569Y8803D02*
D03*
Y8403D02*
D03*
X7469Y8803D02*
D03*
Y8403D02*
D03*
X8169Y8803D02*
D03*
Y8403D02*
D03*
X8669Y9653D02*
D03*
X8769Y9553D02*
D03*
Y9653D02*
D03*
X8869Y9553D02*
D03*
Y9653D02*
D03*
X8969Y9553D02*
D03*
Y9653D02*
D03*
X9069Y9553D02*
D03*
Y9653D02*
D03*
X9169Y9553D02*
D03*
Y9653D02*
D03*
X9269Y9553D02*
D03*
Y9653D02*
D03*
X9369Y9553D02*
D03*
Y9653D02*
D03*
X7469D02*
D03*
X7569Y9553D02*
D03*
Y9653D02*
D03*
X7669Y9553D02*
D03*
Y9653D02*
D03*
X7769Y9553D02*
D03*
Y9653D02*
D03*
X7869Y9553D02*
D03*
Y9653D02*
D03*
X7969Y9553D02*
D03*
Y9653D02*
D03*
X8069Y9553D02*
D03*
Y9653D02*
D03*
X8169Y9553D02*
D03*
Y9653D02*
D03*
X9119Y5803D02*
D03*
Y6203D02*
D03*
X9719Y5803D02*
D03*
Y6203D02*
D03*
X9519Y5803D02*
D03*
Y6203D02*
D03*
X10469Y7253D02*
D03*
X10569D02*
D03*
X10669D02*
D03*
X10769D02*
D03*
Y6953D02*
D03*
X10669D02*
D03*
X10569D02*
D03*
X10369D02*
D03*
Y7253D02*
D03*
X9269D02*
D03*
Y6953D02*
D03*
X9369D02*
D03*
Y7253D02*
D03*
X9469D02*
D03*
X9569D02*
D03*
X9669D02*
D03*
X9769D02*
D03*
X9869D02*
D03*
X9969D02*
D03*
X10069D02*
D03*
X10169D02*
D03*
Y6953D02*
D03*
X10069D02*
D03*
X9969D02*
D03*
X9869D02*
D03*
X9769D02*
D03*
X9669D02*
D03*
X9569D02*
D03*
X10269Y7253D02*
D03*
Y6953D02*
D03*
X10119Y5703D02*
D03*
Y6203D02*
D03*
X10019Y6653D02*
D03*
X10119D02*
D03*
X10219D02*
D03*
X10319D02*
D03*
Y6353D02*
D03*
X10219D02*
D03*
X10119D02*
D03*
X9919D02*
D03*
Y6653D02*
D03*
X9819D02*
D03*
Y6353D02*
D03*
X10419Y6653D02*
D03*
Y6353D02*
D03*
X9019Y6653D02*
D03*
X9119D02*
D03*
X9219D02*
D03*
X9319D02*
D03*
X9419D02*
D03*
X9519D02*
D03*
X9619D02*
D03*
X9719D02*
D03*
Y6353D02*
D03*
X9619D02*
D03*
X9519D02*
D03*
X9419D02*
D03*
X9319D02*
D03*
X9219D02*
D03*
X9119D02*
D03*
X9069Y7503D02*
D03*
Y7403D02*
D03*
X9219Y6203D02*
D03*
Y5803D02*
D03*
X9019Y6203D02*
D03*
Y5803D02*
D03*
X9319Y6203D02*
D03*
Y5803D02*
D03*
X9819Y6203D02*
D03*
Y5803D02*
D03*
X9619Y6203D02*
D03*
Y5803D02*
D03*
X9419Y6203D02*
D03*
Y5803D02*
D03*
X9169Y7403D02*
D03*
Y7803D02*
D03*
X10469Y7403D02*
D03*
Y7803D02*
D03*
X10269Y7403D02*
D03*
Y7803D02*
D03*
X9969Y7403D02*
D03*
Y7803D02*
D03*
X9769Y7403D02*
D03*
Y7803D02*
D03*
X9369Y7403D02*
D03*
Y7803D02*
D03*
X8969Y7403D02*
D03*
Y7803D02*
D03*
X10319Y6203D02*
D03*
Y5803D02*
D03*
X10419Y6203D02*
D03*
Y5803D02*
D03*
X9919Y6203D02*
D03*
Y5803D02*
D03*
X10219Y9253D02*
D03*
Y8953D02*
D03*
X9819Y9253D02*
D03*
X9919D02*
D03*
X10019D02*
D03*
X10119D02*
D03*
Y8953D02*
D03*
X10019D02*
D03*
X9919D02*
D03*
X10469Y9253D02*
D03*
X10569D02*
D03*
X10669D02*
D03*
X10769D02*
D03*
Y8953D02*
D03*
X10669D02*
D03*
X10569D02*
D03*
X9069Y7703D02*
D03*
Y7803D02*
D03*
X8969Y7953D02*
D03*
Y8253D02*
D03*
X9069D02*
D03*
X9169D02*
D03*
X9269D02*
D03*
X9369D02*
D03*
Y7953D02*
D03*
X9269D02*
D03*
X9169D02*
D03*
X9469Y8253D02*
D03*
Y7953D02*
D03*
X9569Y8253D02*
D03*
X9669D02*
D03*
X9769D02*
D03*
X9869D02*
D03*
X9969D02*
D03*
X10069D02*
D03*
X10169D02*
D03*
Y7953D02*
D03*
X10069D02*
D03*
X9969D02*
D03*
X9869D02*
D03*
X9769D02*
D03*
X9669D02*
D03*
X10369Y8253D02*
D03*
X10469D02*
D03*
X10569D02*
D03*
X10669D02*
D03*
Y7953D02*
D03*
X10569D02*
D03*
X10469D02*
D03*
X10269D02*
D03*
Y8253D02*
D03*
X10369Y7703D02*
D03*
Y7803D02*
D03*
X9269Y8803D02*
D03*
Y8403D02*
D03*
X9369Y8803D02*
D03*
Y8403D02*
D03*
X9469Y8803D02*
D03*
Y8403D02*
D03*
X9169Y8803D02*
D03*
Y8403D02*
D03*
X9769Y8803D02*
D03*
Y8403D02*
D03*
X9669D02*
D03*
Y8803D02*
D03*
Y7803D02*
D03*
Y7403D02*
D03*
X10469Y8803D02*
D03*
Y8403D02*
D03*
X10069Y8803D02*
D03*
Y8403D02*
D03*
X10169D02*
D03*
Y8803D02*
D03*
Y7803D02*
D03*
Y7403D02*
D03*
X10069Y7803D02*
D03*
Y7403D02*
D03*
X9869Y7803D02*
D03*
Y7403D02*
D03*
X9469Y7803D02*
D03*
Y7403D02*
D03*
X9569Y7803D02*
D03*
Y7403D02*
D03*
X9869Y8403D02*
D03*
Y8803D02*
D03*
X9969Y8403D02*
D03*
Y8803D02*
D03*
X10369D02*
D03*
Y8403D02*
D03*
X9119Y9003D02*
D03*
Y9403D02*
D03*
X9669Y8953D02*
D03*
Y9253D02*
D03*
X10269Y9903D02*
D03*
Y9803D02*
D03*
X9719Y9703D02*
D03*
X9619Y9403D02*
D03*
Y9903D02*
D03*
X10369Y8953D02*
D03*
Y9253D02*
D03*
X10069Y9803D02*
D03*
Y9403D02*
D03*
X9969D02*
D03*
Y9803D02*
D03*
X10469Y9403D02*
D03*
Y9803D02*
D03*
X9219Y9403D02*
D03*
Y9003D02*
D03*
X9319Y9403D02*
D03*
Y9003D02*
D03*
X11069Y5803D02*
D03*
Y6203D02*
D03*
X10969Y5803D02*
D03*
Y6203D02*
D03*
X11569Y5803D02*
D03*
Y6203D02*
D03*
X10719Y5803D02*
D03*
Y6203D02*
D03*
X11419Y5803D02*
D03*
Y6203D02*
D03*
X10919Y7253D02*
D03*
Y6953D02*
D03*
X11319Y7253D02*
D03*
Y6853D02*
D03*
X11419Y7253D02*
D03*
Y6853D02*
D03*
X11569Y6353D02*
D03*
Y6653D02*
D03*
X11669D02*
D03*
X11769D02*
D03*
X11869D02*
D03*
X11969D02*
D03*
Y6353D02*
D03*
X11869D02*
D03*
X11769D02*
D03*
X10519D02*
D03*
Y6653D02*
D03*
X11419D02*
D03*
Y6353D02*
D03*
X10619Y6653D02*
D03*
X10719D02*
D03*
X10819D02*
D03*
X10919D02*
D03*
X11019D02*
D03*
X11119D02*
D03*
X11219D02*
D03*
X11319D02*
D03*
Y6353D02*
D03*
X11219D02*
D03*
X11119D02*
D03*
X11019D02*
D03*
X10919D02*
D03*
X10819D02*
D03*
X10719D02*
D03*
X11119Y7703D02*
D03*
X11219D02*
D03*
X11319D02*
D03*
X11419D02*
D03*
Y7403D02*
D03*
X11319D02*
D03*
X11219D02*
D03*
X11519Y7703D02*
D03*
Y7403D02*
D03*
X11719Y7703D02*
D03*
X11819D02*
D03*
X11919D02*
D03*
X12019D02*
D03*
Y7403D02*
D03*
X11919D02*
D03*
X11819D02*
D03*
X11719Y6853D02*
D03*
Y7253D02*
D03*
X11769Y6203D02*
D03*
Y5803D02*
D03*
X11669Y6203D02*
D03*
Y5803D02*
D03*
X10519Y6203D02*
D03*
Y5803D02*
D03*
X10619Y6203D02*
D03*
Y5803D02*
D03*
X10819Y6203D02*
D03*
Y5803D02*
D03*
X11219Y6203D02*
D03*
Y5803D02*
D03*
X11319Y6203D02*
D03*
Y5803D02*
D03*
X10769Y7403D02*
D03*
Y7803D02*
D03*
X11619Y6853D02*
D03*
Y7253D02*
D03*
X11519D02*
D03*
Y6853D02*
D03*
X11219Y7253D02*
D03*
Y6853D02*
D03*
X11869Y6203D02*
D03*
Y5803D02*
D03*
X12019Y6853D02*
D03*
Y7253D02*
D03*
X11819Y6853D02*
D03*
Y7253D02*
D03*
X11919Y6853D02*
D03*
Y7253D02*
D03*
X10669Y7403D02*
D03*
Y7803D02*
D03*
X10819Y8253D02*
D03*
Y7953D02*
D03*
X10919Y9253D02*
D03*
Y8953D02*
D03*
X10969Y7403D02*
D03*
Y7703D02*
D03*
X11619Y7403D02*
D03*
Y7703D02*
D03*
X11819Y8253D02*
D03*
Y7853D02*
D03*
X11219D02*
D03*
Y8253D02*
D03*
X11119D02*
D03*
Y7853D02*
D03*
X11419D02*
D03*
Y8253D02*
D03*
X11319D02*
D03*
Y7853D02*
D03*
X10669Y8803D02*
D03*
Y8403D02*
D03*
X10869D02*
D03*
Y8803D02*
D03*
X10969D02*
D03*
Y8403D02*
D03*
X11319Y8803D02*
D03*
Y8403D02*
D03*
X11519Y8253D02*
D03*
Y7853D02*
D03*
X12019Y8253D02*
D03*
Y7853D02*
D03*
X11919Y8253D02*
D03*
Y7853D02*
D03*
X11719Y8253D02*
D03*
Y7853D02*
D03*
X11619Y8253D02*
D03*
Y7853D02*
D03*
X10769Y8803D02*
D03*
Y8403D02*
D03*
X10569Y8803D02*
D03*
Y8403D02*
D03*
X11219D02*
D03*
X11119D02*
D03*
X10669Y9803D02*
D03*
Y9403D02*
D03*
X10769Y9803D02*
D03*
Y9403D02*
D03*
X10569D02*
D03*
Y9803D02*
D03*
X11969Y9403D02*
D03*
X11869Y9303D02*
D03*
X11969D02*
D03*
X11869Y9203D02*
D03*
X11969D02*
D03*
X11869Y9103D02*
D03*
X11969D02*
D03*
X11869Y9003D02*
D03*
X11969D02*
D03*
X11869Y8903D02*
D03*
X11969D02*
D03*
X11869Y8803D02*
D03*
X11969D02*
D03*
X11869Y8703D02*
D03*
X11969D02*
D03*
X11869Y8603D02*
D03*
X11969D02*
D03*
X11869Y8503D02*
D03*
X11969D02*
D03*
X12169Y7703D02*
D03*
Y7403D02*
D03*
X12119Y6653D02*
D03*
Y6353D02*
D03*
D28*
X11119Y9103D02*
D03*
X11587D02*
D03*
X11431D02*
D03*
X11275D02*
D03*
D33*
X7269Y6953D02*
D03*
X7119Y6353D02*
D03*
X7269Y8553D02*
D03*
X7169Y7953D02*
D03*
X8869Y6953D02*
D03*
X7869D02*
D03*
X8419Y6353D02*
D03*
X7619D02*
D03*
X7669Y7953D02*
D03*
X8469D02*
D03*
X8669Y9553D02*
D03*
X7469D02*
D03*
X10469Y6953D02*
D03*
X9469D02*
D03*
X10019Y6353D02*
D03*
X9019D02*
D03*
X9819Y8953D02*
D03*
X10469D02*
D03*
X9069Y7953D02*
D03*
X9569D02*
D03*
X10369D02*
D03*
X11669Y6353D02*
D03*
X10619D02*
D03*
X11119Y7403D02*
D03*
X11719D02*
D03*
X11869Y9403D02*
D03*
M02*
