G04 #@! TF.FileFunction,Soldermask,Top*
%FSLAX46Y46*%
G04 Gerber Fmt 4.6, Leading zero omitted, Abs format (unit mm)*
G04 Created by KiCad (PCBNEW 4.0.7) date 02/13/18 13:09:01*
%MOMM*%
%LPD*%
G01*
G04 APERTURE LIST*
%ADD10C,0.100000*%
%ADD11C,1.974800*%
%ADD12R,1.974800X1.974800*%
%ADD13C,2.940000*%
%ADD14C,1.797000*%
%ADD15C,1.924000*%
%ADD16C,4.210000*%
%ADD17C,3.575000*%
%ADD18C,4.464000*%
%ADD19R,2.940000X2.940000*%
G04 APERTURE END LIST*
D10*
D11*
X195580000Y-157480000D03*
D12*
X198120000Y-157480000D03*
D11*
X176530000Y-157480000D03*
D12*
X179070000Y-157480000D03*
D11*
X187960000Y-134620000D03*
X193040000Y-134620000D03*
X210820000Y-125730000D03*
X210820000Y-120650000D03*
X158750000Y-121920000D03*
X158750000Y-127000000D03*
X192405000Y-90805000D03*
X187325000Y-90805000D03*
D13*
X158750000Y-90805000D03*
X176530000Y-90805000D03*
D14*
X187960000Y-152400000D03*
X186690000Y-153670000D03*
X185420000Y-152400000D03*
X167640000Y-151130000D03*
X166370000Y-149860000D03*
X167640000Y-148590000D03*
X185420000Y-149860000D03*
X186690000Y-148590000D03*
X187960000Y-149860000D03*
X190500000Y-146050000D03*
X189230000Y-147320000D03*
X187960000Y-146050000D03*
X190500000Y-142240000D03*
X189230000Y-143510000D03*
X187960000Y-142240000D03*
X176530000Y-142240000D03*
X177800000Y-140970000D03*
X179070000Y-142240000D03*
D15*
X182397400Y-126365000D03*
X184785000Y-126365000D03*
X187172600Y-126365000D03*
D16*
X184785000Y-117475000D03*
D14*
X200025000Y-135255000D03*
X198755000Y-136525000D03*
X197485000Y-135255000D03*
X169545000Y-135890000D03*
X170815000Y-134620000D03*
X172085000Y-135890000D03*
D17*
X193294000Y-127508000D03*
X198755000Y-127508000D03*
X204216000Y-127508000D03*
D18*
X198755000Y-105410000D03*
D17*
X165354000Y-127508000D03*
X170815000Y-127508000D03*
X176276000Y-127508000D03*
D18*
X170815000Y-105410000D03*
D11*
X194310000Y-151130000D03*
X204470000Y-151130000D03*
X204470000Y-153670000D03*
X194310000Y-153670000D03*
X181610000Y-152400000D03*
X171450000Y-152400000D03*
X175260000Y-154940000D03*
X165100000Y-154940000D03*
X204470000Y-148590000D03*
X194310000Y-148590000D03*
X181610000Y-149860000D03*
X171450000Y-149860000D03*
X173990000Y-143510000D03*
X163830000Y-143510000D03*
X173990000Y-146050000D03*
X163830000Y-146050000D03*
X180340000Y-138430000D03*
X190500000Y-138430000D03*
X191770000Y-156210000D03*
X181610000Y-156210000D03*
X190500000Y-132080000D03*
X180340000Y-132080000D03*
X204470000Y-146050000D03*
X194310000Y-146050000D03*
X185420000Y-134620000D03*
X175260000Y-134620000D03*
X204470000Y-142240000D03*
X194310000Y-142240000D03*
X186690000Y-111125000D03*
X186690000Y-100965000D03*
X180975000Y-83820000D03*
X183515000Y-88900000D03*
X180975000Y-96520000D03*
X182880000Y-100965000D03*
X182880000Y-111125000D03*
X173990000Y-140970000D03*
X163830000Y-140970000D03*
X204470000Y-138430000D03*
X194310000Y-138430000D03*
X173990000Y-138430000D03*
X163830000Y-138430000D03*
X204470000Y-132080000D03*
X194310000Y-132080000D03*
X163830000Y-132080000D03*
X173990000Y-132080000D03*
D13*
X207645000Y-96520000D03*
X189865000Y-96520000D03*
X158750000Y-96520000D03*
X176530000Y-96520000D03*
D14*
X176530000Y-146050000D03*
X177800000Y-144780000D03*
X179070000Y-146050000D03*
D19*
X205600000Y-84455000D03*
D13*
X202100000Y-84455000D03*
X198600000Y-84455000D03*
X195100000Y-84455000D03*
X191600000Y-84455000D03*
X188100000Y-84455000D03*
X212725000Y-90805000D03*
X194945000Y-90805000D03*
X158750000Y-85090000D03*
X176530000Y-85090000D03*
D12*
X212090000Y-157480000D03*
D11*
X209550000Y-157480000D03*
X207010000Y-157480000D03*
X204470000Y-157480000D03*
M02*
