*%FSLAX23Y23*%
*%MOIN*%
G01*
%ADD11C,0.007*%
%ADD12C,0.008*%
%ADD13C,0.010*%
%ADD14C,0.012*%
%ADD15C,0.032*%
%ADD16C,0.036*%
%ADD17C,0.050*%
%ADD18C,0.052*%
%ADD19C,0.055*%
%ADD20C,0.056*%
%ADD21C,0.060*%
%ADD22C,0.061*%
%ADD23C,0.062*%
%ADD24C,0.066*%
%ADD25C,0.068*%
%ADD26C,0.070*%
%ADD27C,0.080*%
%ADD28C,0.090*%
%ADD29C,0.095*%
%ADD30C,0.115*%
%ADD31C,0.120*%
%ADD32C,0.125*%
%ADD33C,0.126*%
%ADD34C,0.131*%
%ADD35C,0.150*%
%ADD36C,0.156*%
%ADD37R,0.062X0.062*%
%ADD38R,0.068X0.068*%
D13*
X7744Y9726D02*
X7811D01*
X7744D02*
X7811Y9793D01*
Y9809D01*
X7794Y9826D01*
X7761D01*
X7744Y9809D01*
X7844D02*
X7861Y9826D01*
X7894D01*
X7911Y9809D01*
Y9743D01*
X7894Y9726D01*
X7861D01*
X7844Y9743D01*
Y9809D01*
X7944D02*
X7961Y9826D01*
X7994D01*
X8011Y9809D01*
Y9743D01*
X7994Y9726D01*
X7961D01*
X7944Y9743D01*
Y9809D01*
X8044Y9776D02*
X8111D01*
X8144Y9726D02*
X8177D01*
X8161D01*
Y9826D01*
X8162D01*
X8161D02*
X8144Y9809D01*
X8227D02*
X8244Y9826D01*
X8277D01*
X8294Y9809D01*
Y9743D01*
X8277Y9726D01*
X8244D01*
X8227Y9743D01*
Y9809D01*
X8327Y9726D02*
X8394D01*
X8327D02*
X8394Y9793D01*
Y9809D01*
X8377Y9826D01*
X8344D01*
X8327Y9809D01*
X8427Y9743D02*
X8444Y9726D01*
X8477D01*
X8494Y9743D01*
Y9809D01*
X8477Y9826D01*
X8444D01*
X8427Y9809D01*
Y9793D01*
X8444Y9776D01*
X8494D01*
X8527D02*
X8594D01*
X8627Y9809D02*
X8644Y9826D01*
X8677D01*
X8694Y9809D01*
Y9743D01*
X8677Y9726D01*
X8644D01*
X8627Y9743D01*
Y9809D01*
X8727D02*
X8744Y9826D01*
X8777D01*
X8794Y9809D01*
Y9793D01*
X8795D01*
X8794D02*
X8795D01*
X8794D02*
X8795D01*
X8794D02*
X8777Y9776D01*
X8760D01*
X8777D01*
X8794Y9759D01*
Y9743D01*
X8777Y9726D01*
X8744D01*
X8727Y9743D01*
X8827Y9726D02*
X8894Y9793D01*
X8927Y9809D02*
X8944Y9826D01*
X8977D01*
X8994Y9809D01*
Y9743D01*
X8977Y9726D01*
X8944D01*
X8927Y9743D01*
Y9809D01*
X9077Y9826D02*
Y9726D01*
X9027Y9776D02*
X9077Y9826D01*
X9094Y9776D02*
X9027D01*
X9227Y9726D02*
Y9826D01*
X9277D01*
X9293Y9809D01*
Y9776D01*
X9277Y9759D01*
X9227D01*
X9260D02*
X9293Y9726D01*
X9327Y9826D02*
X9393D01*
X9327D02*
Y9726D01*
X9393D01*
X9360Y9776D02*
X9327D01*
X9427Y9759D02*
Y9826D01*
Y9759D02*
X9460Y9726D01*
X9493Y9759D01*
Y9826D01*
X9627D02*
Y9726D01*
X9693D02*
X9627Y9826D01*
X9693D02*
Y9726D01*
X9793Y9809D02*
X9777Y9826D01*
X9743D01*
X9727Y9809D01*
Y9743D01*
X9743Y9726D01*
X9777D01*
X9793Y9743D01*
X9977Y9826D02*
X9993Y9809D01*
X9977Y9826D02*
X9943D01*
X9927Y9809D01*
Y9743D01*
X9943Y9726D01*
X9977D01*
X9993Y9743D01*
X10027Y9826D02*
X10060D01*
X10043D01*
Y9726D01*
X10027D01*
X10060D01*
X10110D02*
Y9826D01*
X10160D01*
X10177Y9809D01*
Y9776D01*
X10160Y9759D01*
X10110D01*
X10143D02*
X10177Y9726D01*
X10277Y9809D02*
X10260Y9826D01*
X10227D01*
X10210Y9809D01*
Y9743D01*
X10227Y9726D01*
X10260D01*
X10277Y9743D01*
X10310D02*
Y9826D01*
Y9743D02*
X10326Y9726D01*
X10360D01*
X10376Y9743D01*
Y9826D01*
X10410D02*
X10443D01*
X10426D01*
Y9726D01*
X10410D01*
X10443D01*
X10493Y9826D02*
X10560D01*
X10526D01*
Y9726D01*
X10593D02*
X10660Y9793D01*
X10743Y9826D02*
X10760Y9809D01*
X10743Y9826D02*
X10710D01*
X10693Y9809D01*
Y9743D01*
X10710Y9726D01*
X10743D01*
X10760Y9743D01*
X10810Y9826D02*
X10843D01*
X10810D02*
X10793Y9809D01*
Y9743D01*
X10810Y9726D01*
X10843D01*
X10860Y9743D01*
Y9809D01*
X10843Y9826D01*
X10893D02*
Y9726D01*
X10926Y9793D02*
X10893Y9826D01*
X10926Y9793D02*
X10960Y9826D01*
Y9726D01*
X10993D02*
Y9826D01*
X11043D01*
X11060Y9809D01*
Y9776D01*
X11043Y9759D01*
X10993D01*
X11110Y9826D02*
X11143D01*
X11110D02*
X11093Y9809D01*
Y9743D01*
X11110Y9726D01*
X11143D01*
X11160Y9743D01*
Y9809D01*
X11143Y9826D01*
X11193D02*
Y9726D01*
X11260D02*
X11193Y9826D01*
X11260D02*
Y9726D01*
X11293Y9826D02*
X11359D01*
X11293D02*
Y9726D01*
X11359D01*
X11326Y9776D02*
X11293D01*
X11393Y9726D02*
Y9826D01*
X11459Y9726D01*
Y9826D01*
X11493D02*
X11559D01*
X11526D01*
Y9726D01*
X11743Y9826D02*
X11759Y9809D01*
X11743Y9826D02*
X11709D01*
X11693Y9809D01*
Y9793D01*
X11709Y9776D01*
X11743D01*
X11759Y9759D01*
Y9743D01*
X11743Y9726D01*
X11709D01*
X11693Y9743D01*
X11809Y9826D02*
X11843D01*
X11809D02*
X11793Y9809D01*
Y9743D01*
X11809Y9726D01*
X11843D01*
X11859Y9743D01*
Y9809D01*
X11843Y9826D01*
X11893D02*
Y9726D01*
X11959D01*
X11993D02*
Y9826D01*
Y9726D02*
X12043D01*
X12059Y9743D01*
Y9809D01*
X12043Y9826D01*
X11993D01*
X12093D02*
X12159D01*
X12093D02*
Y9726D01*
X12159D01*
X12126Y9776D02*
X12093D01*
X12193Y9726D02*
Y9826D01*
X12243D01*
X12259Y9809D01*
Y9776D01*
X12243Y9759D01*
X12193D01*
X12226D02*
X12259Y9726D01*
X12392D02*
Y9826D01*
X12426Y9793D01*
X12459Y9826D01*
Y9726D01*
X12492D02*
Y9793D01*
X12526Y9826D01*
X12559Y9793D01*
Y9726D01*
Y9776D01*
X12492D01*
X12642Y9826D02*
X12659Y9809D01*
X12642Y9826D02*
X12609D01*
X12592Y9809D01*
Y9793D01*
X12609Y9776D01*
X12642D01*
X12659Y9759D01*
Y9743D01*
X12642Y9726D01*
X12609D01*
X12592Y9743D01*
X12692Y9726D02*
Y9826D01*
Y9759D02*
Y9726D01*
Y9759D02*
X12759Y9826D01*
X12709Y9776D01*
X12759Y9726D01*
X7694Y9176D02*
Y6426D01*
X12694D02*
Y9176D01*
Y6426D02*
X7694D01*
Y9176D02*
X12694D01*
D22*
X12394Y7226D02*
D03*
X12444Y7276D02*
D03*
X12344D02*
D03*
X8744Y8576D02*
D03*
X8794Y8626D02*
D03*
X8744Y8676D02*
D03*
D24*
X11894Y7476D02*
D03*
Y7876D02*
D03*
X9994Y8476D02*
D03*
Y8876D02*
D03*
X9694Y8476D02*
D03*
Y8876D02*
D03*
X8594Y7126D02*
D03*
Y6726D02*
D03*
D25*
X11944Y7601D02*
D03*
X11644Y9076D02*
D03*
X11569Y8901D02*
D03*
X11544Y7801D02*
D03*
X10644Y7601D02*
D03*
X10219Y8701D02*
D03*
X10394Y8176D02*
D03*
X9894Y9001D02*
D03*
X9844Y7726D02*
D03*
X9944Y7701D02*
D03*
X9644Y9001D02*
D03*
X9469Y8176D02*
D03*
X9544D02*
D03*
X9044Y8801D02*
D03*
Y8551D02*
D03*
X9194Y7651D02*
D03*
X8919Y7876D02*
D03*
X8669Y8801D02*
D03*
X8719Y7801D02*
D03*
X8694Y8176D02*
D03*
X8819Y7701D02*
D03*
X8544Y9001D02*
D03*
X8494Y8776D02*
D03*
X8594Y8176D02*
D03*
X8494Y7426D02*
D03*
X8144Y7726D02*
D03*
X7944D02*
D03*
X7994Y8176D02*
D03*
X11894Y8876D02*
D03*
Y8476D02*
D03*
X12294Y8876D02*
D03*
Y8476D02*
D03*
X12394Y8876D02*
D03*
Y8476D02*
D03*
X11994Y8876D02*
D03*
Y8476D02*
D03*
X12094Y8876D02*
D03*
Y8476D02*
D03*
X12294Y8026D02*
D03*
X12194Y8326D02*
D03*
X12294D02*
D03*
X12394D02*
D03*
X12494D02*
D03*
Y8026D02*
D03*
X12394D02*
D03*
X12594D02*
D03*
Y8326D02*
D03*
X12094D02*
D03*
Y8026D02*
D03*
X11994D02*
D03*
Y8326D02*
D03*
X11694Y8026D02*
D03*
X11594Y8326D02*
D03*
X11694D02*
D03*
X11794D02*
D03*
X11894D02*
D03*
Y8026D02*
D03*
X11794D02*
D03*
X11494Y8326D02*
D03*
Y8026D02*
D03*
X11794Y8476D02*
D03*
Y8876D02*
D03*
X11694Y8476D02*
D03*
Y8876D02*
D03*
X11594Y7476D02*
D03*
Y7876D02*
D03*
X11694Y7476D02*
D03*
Y7876D02*
D03*
X11794Y7476D02*
D03*
Y7876D02*
D03*
X12294D02*
D03*
Y7476D02*
D03*
X12394Y7876D02*
D03*
Y7476D02*
D03*
X11644Y7026D02*
D03*
Y7126D02*
D03*
X12194Y7026D02*
D03*
X12594D02*
D03*
X12194Y7126D02*
D03*
X12594D02*
D03*
X12044Y7326D02*
D03*
X11744D02*
D03*
X12194Y6626D02*
D03*
X12094D02*
D03*
X12294D02*
D03*
X12044Y7026D02*
D03*
X11744Y6926D02*
D03*
Y7026D02*
D03*
Y7126D02*
D03*
Y7226D02*
D03*
X12044D02*
D03*
Y7126D02*
D03*
X12194Y6926D02*
D03*
X12594D02*
D03*
X11744Y6826D02*
D03*
X12044D02*
D03*
X9894Y8876D02*
D03*
Y8476D02*
D03*
X10694Y8826D02*
D03*
X10594Y8526D02*
D03*
Y9026D02*
D03*
X10294Y8876D02*
D03*
Y8476D02*
D03*
X10494Y8876D02*
D03*
Y8476D02*
D03*
X10394Y8876D02*
D03*
Y8476D02*
D03*
X10094D02*
D03*
Y8876D02*
D03*
X10644Y7126D02*
D03*
Y7326D02*
D03*
X10794D02*
D03*
Y6926D02*
D03*
X10694Y8026D02*
D03*
Y8326D02*
D03*
X10394Y8026D02*
D03*
X10294Y8326D02*
D03*
X10394D02*
D03*
X10494D02*
D03*
X10594D02*
D03*
Y8026D02*
D03*
X10494D02*
D03*
X10194Y8326D02*
D03*
Y8026D02*
D03*
X10094D02*
D03*
Y8326D02*
D03*
X11094Y7476D02*
D03*
Y7876D02*
D03*
X11194Y7476D02*
D03*
Y7876D02*
D03*
X10944Y7726D02*
D03*
Y7826D02*
D03*
X10294Y7526D02*
D03*
X10194Y7826D02*
D03*
X10294D02*
D03*
X10394D02*
D03*
X10494D02*
D03*
X10594D02*
D03*
X10694D02*
D03*
X10794D02*
D03*
Y7526D02*
D03*
X10694D02*
D03*
X10594D02*
D03*
X10494D02*
D03*
X10394D02*
D03*
X10094Y7826D02*
D03*
Y7526D02*
D03*
X10194Y8476D02*
D03*
Y8876D02*
D03*
X10644Y6926D02*
D03*
Y6526D02*
D03*
X9194Y8876D02*
D03*
Y8476D02*
D03*
X8994Y8876D02*
D03*
Y8476D02*
D03*
X9294D02*
D03*
Y8876D02*
D03*
X9494Y8476D02*
D03*
Y8676D02*
D03*
Y7526D02*
D03*
X9394D02*
D03*
X9194Y7826D02*
D03*
X9294D02*
D03*
X9394D02*
D03*
X9494D02*
D03*
X9594D02*
D03*
X9694D02*
D03*
X9794D02*
D03*
X9894D02*
D03*
Y7526D02*
D03*
X9794D02*
D03*
X9694D02*
D03*
X9594D02*
D03*
X9294D02*
D03*
X8294Y8026D02*
D03*
Y8326D02*
D03*
X8494Y8026D02*
D03*
X8394Y8326D02*
D03*
X8494D02*
D03*
X8594D02*
D03*
X8694D02*
D03*
X8794D02*
D03*
X8894D02*
D03*
X8994D02*
D03*
Y8026D02*
D03*
X8894D02*
D03*
X8794D02*
D03*
X8694D02*
D03*
X8594D02*
D03*
X9794Y8476D02*
D03*
Y8876D02*
D03*
X8594Y7876D02*
D03*
Y7476D02*
D03*
X8794Y7876D02*
D03*
Y7476D02*
D03*
X9594Y8026D02*
D03*
X9494D02*
D03*
X9294Y8326D02*
D03*
X9394D02*
D03*
X9494D02*
D03*
X9594D02*
D03*
X9694D02*
D03*
X9794D02*
D03*
X9894D02*
D03*
X9994D02*
D03*
Y8026D02*
D03*
X9894D02*
D03*
X9794D02*
D03*
X9694D02*
D03*
X9394D02*
D03*
X9094Y8476D02*
D03*
Y8876D02*
D03*
X8894Y8476D02*
D03*
Y8876D02*
D03*
X9169Y8326D02*
D03*
Y8026D02*
D03*
X9044Y7526D02*
D03*
Y7826D02*
D03*
X9644Y6726D02*
D03*
Y7126D02*
D03*
X8094Y8876D02*
D03*
Y8476D02*
D03*
X7994Y8876D02*
D03*
Y8476D02*
D03*
X7894Y8576D02*
D03*
Y8476D02*
D03*
X7794Y8326D02*
D03*
Y8026D02*
D03*
X7994D02*
D03*
X7894Y8326D02*
D03*
X7994D02*
D03*
X8094D02*
D03*
X8194D02*
D03*
Y8026D02*
D03*
X8094D02*
D03*
X7994Y7476D02*
D03*
Y7876D02*
D03*
X7894Y7476D02*
D03*
Y7876D02*
D03*
X7794Y7776D02*
D03*
Y7876D02*
D03*
D33*
X11194Y7226D02*
D03*
X11344Y6726D02*
D03*
X11044D02*
D03*
X10194Y7226D02*
D03*
X10344Y6726D02*
D03*
X10044D02*
D03*
X9194Y7226D02*
D03*
X9344Y6726D02*
D03*
X9044D02*
D03*
X8194Y7226D02*
D03*
X8344Y6726D02*
D03*
X8044D02*
D03*
D34*
X11272Y8426D02*
D03*
X10960D02*
D03*
X11428D02*
D03*
X11116D02*
D03*
D36*
X11194Y6626D02*
D03*
X11344Y6926D02*
D03*
X11444Y7126D02*
D03*
X10194Y6626D02*
D03*
X10344Y6926D02*
D03*
X10444Y7126D02*
D03*
X9194Y6626D02*
D03*
X9344Y6926D02*
D03*
X9444Y7126D02*
D03*
X8194Y6626D02*
D03*
X8344Y6926D02*
D03*
X8444Y7126D02*
D03*
D38*
X12194Y8026D02*
D03*
X11594D02*
D03*
X12044Y6926D02*
D03*
X10294Y8026D02*
D03*
X10194Y7526D02*
D03*
X9194D02*
D03*
X8394Y8026D02*
D03*
X9294D02*
D03*
X7894D02*
D03*
M02*
