M71
M48
T1F00S00C0.032
T2F00S00C0.036
T3F00S00C0.062
T4F00S00C0.095
%
T01
X023Y016
X0235Y0155
X024Y016
X0315Y024
Y025
X032Y0245
X0345Y024
Y025
X035Y0245
X0375Y024
Y025
X038Y0245
X0405Y024
Y025
X041Y0245
T02
X0095Y003
X0105
X0195
X0205
X0295
X0305
X0395
X0405
X054Y013
Y016
X0535Y01975
X0525Y016
X0515
X0505
X0495
X0485
X0475
X0465
X045
X0435
X0425
X0415
X0405
X0395
X0385
X0375
Y013
X0385
X0395
X0405
X0415
X0425
X0435
Y0145
X045Y013
X0465
X0475
X0485
X0495
X0505
X0515
X0525
X0475Y0115
Y0175
Y0215
X0495Y02075
X041Y0225
X038
Y0185
X041
X042Y01725
X0405Y01175
X0385
Y01025
X0395Y00975
X0405Y009
X0375Y00975
X0405Y005
X0305
Y009
X029Y011
X02825Y0105
X0275Y00975
Y013
X0285
X0295
X0305
X0315
X0325
X0335
X0345
X036
Y016
X0345
X0335
X0325
X0315
X0305
X0295
X0285
X0275
X0255
Y017
Y018
Y013
X0315Y0145
X032Y0185
X03075
X0315Y0195
X032Y0225
X035
Y0185
X021Y016
X0195
X0185
X0175
X0165
X0155
X0135
Y013
X0155
X0165
X0175
X0185
X0195
X021
X0185Y0115
X0175Y01
X0205Y009
Y005
X0105
Y009
X012
X0115Y01
X0125Y01125
X0105Y0145
X011Y0195
X0185Y02
Y019
X0175Y0175
X0195
X0185Y0145
X0175Y0215
X0195
X00875Y0085
X0085Y013
X0095
X0105
X0115
X0125
Y016
X0115
X0105
X0095
X0085
X0075
X0065
X0055
X0045
Y013
X0055
X0065
X0075
X0055Y01125
X0075Y02225
Y02325
X0085
Y02225
X0095
Y02325
X0105
Y02225
X0115
Y02325
X0205
X04675Y0225
X0505Y0215
Y0175
X056Y0195
Y0205
Y0215
Y0225
T03
X005Y002
X0065Y005
X0075Y007
X0175
X0165Y005
X015Y002
X025
X0265Y005
X0275Y007
X0375
X0365Y005
X035Y002
X045
X0465Y005
X0475Y007
X0575
X0565Y005
X055Y002
T04
X0035Y003
X0065
X005Y008
X015
X0165Y003
X0135
X0235
X0265
X025Y008
X035
X0365Y003
X0335
X0435
X0465
X045Y008
X055
X0565Y003
X0535
M30
