*%FSLAX23Y23*%
*%MOIN*%
G01*
%ADD11C,0.006*%
%ADD12C,0.007*%
%ADD13C,0.008*%
%ADD14C,0.010*%
%ADD15C,0.012*%
%ADD16C,0.020*%
%ADD17C,0.032*%
%ADD18C,0.036*%
%ADD19C,0.050*%
%ADD20C,0.052*%
%ADD21C,0.055*%
%ADD22C,0.056*%
%ADD23C,0.060*%
%ADD24C,0.061*%
%ADD25C,0.062*%
%ADD26C,0.066*%
%ADD27C,0.068*%
%ADD28C,0.070*%
%ADD29C,0.080*%
%ADD30C,0.090*%
%ADD31C,0.095*%
%ADD32C,0.115*%
%ADD33C,0.120*%
%ADD34C,0.125*%
%ADD35C,0.126*%
%ADD36C,0.131*%
%ADD37C,0.150*%
%ADD38C,0.156*%
%ADD39R,0.062X0.062*%
%ADD40R,0.068X0.068*%
D11*
X10836Y7468D02*
Y7508D01*
X10876D01*
Y7468D01*
X10836D01*
X10786Y8543D02*
Y8583D01*
X10826D01*
Y8543D01*
X10786D01*
X9986Y7783D02*
Y7743D01*
Y7783D02*
X10026D01*
Y7743D01*
X9986D01*
X9686Y8168D02*
Y8208D01*
X9726D01*
Y8168D01*
X9686D01*
X9286Y7558D02*
Y7518D01*
Y7558D02*
X9326D01*
Y7518D01*
X9286D01*
X9361Y7508D02*
Y7468D01*
Y7508D02*
X9401D01*
Y7468D01*
X9361D01*
X9036Y7793D02*
Y7833D01*
X9076D01*
Y7793D01*
X9036D01*
X9111Y7608D02*
Y7568D01*
Y7608D02*
X9151D01*
Y7568D01*
X9111D01*
X9186Y7583D02*
Y7543D01*
Y7583D02*
X9226D01*
Y7543D01*
X9186D01*
X8886Y8168D02*
Y8208D01*
X8926D01*
Y8168D01*
X8886D01*
X8861Y7783D02*
Y7743D01*
Y7783D02*
X8901D01*
Y7743D01*
X8861D01*
X8936Y7658D02*
Y7618D01*
Y7658D02*
X8976D01*
Y7618D01*
X8936D01*
X9011Y7633D02*
Y7593D01*
Y7633D02*
X9051D01*
Y7593D01*
X9011D01*
X8386Y8093D02*
Y8133D01*
X8426D01*
Y8093D01*
X8386D01*
X8136Y8818D02*
Y8858D01*
X8176D01*
Y8818D01*
X8136D01*
X7886Y8658D02*
Y8618D01*
Y8658D02*
X7926D01*
Y8618D01*
X7886D01*
X7686Y7658D02*
Y7618D01*
Y7658D02*
X7726D01*
Y7618D01*
X7686D01*
X7586Y8268D02*
Y8308D01*
X7626D01*
Y8268D01*
X7586D01*
X7636Y8818D02*
Y8858D01*
X7676D01*
Y8818D01*
X7636D01*
X7386Y8508D02*
Y8468D01*
Y8508D02*
X7426D01*
Y8468D01*
X7386D01*
X7361Y8183D02*
Y8143D01*
Y8183D02*
X7401D01*
Y8143D01*
X7361D01*
X7236Y7083D02*
Y7043D01*
Y7083D02*
X7276D01*
Y7043D01*
X7236D01*
X7161Y7818D02*
Y7858D01*
X7201D01*
Y7818D01*
X7161D01*
X7086Y8243D02*
Y8283D01*
X7126D01*
Y8243D01*
X7086D01*
X7136Y7358D02*
Y7318D01*
Y7358D02*
X7176D01*
Y7318D01*
X7136D01*
X7211Y7918D02*
Y7958D01*
X7251D01*
Y7918D01*
X7211D01*
X7136Y8918D02*
Y8958D01*
X7176D01*
Y8918D01*
X7136D01*
X7211Y8993D02*
Y9033D01*
X7251D01*
Y8993D01*
X7211D01*
X7276Y6738D02*
X7275Y6731D01*
X7271Y6725D01*
X7266Y6721D01*
X7259Y6718D01*
X7253D01*
X7246Y6721D01*
X7241Y6725D01*
X7237Y6731D01*
X7236Y6738D01*
X7237Y6745D01*
X7241Y6751D01*
X7246Y6755D01*
X7253Y6758D01*
X7259D01*
X7266Y6755D01*
X7271Y6751D01*
X7275Y6745D01*
X7276Y6738D01*
X7576D02*
X7575Y6731D01*
X7571Y6725D01*
X7566Y6721D01*
X7559Y6718D01*
X7553D01*
X7546Y6721D01*
X7541Y6725D01*
X7537Y6731D01*
X7536Y6738D01*
X7537Y6745D01*
X7541Y6751D01*
X7546Y6755D01*
X7553Y6758D01*
X7559D01*
X7566Y6755D01*
X7571Y6751D01*
X7575Y6745D01*
X7576Y6738D01*
X7656Y7118D02*
X7636Y7158D01*
X7676D01*
X7656Y7118D01*
X7536Y6958D02*
X7556Y6918D01*
X7536Y6958D02*
X7576D01*
X7556Y6918D01*
X7426Y7238D02*
X7425Y7231D01*
X7421Y7225D01*
X7416Y7221D01*
X7409Y7218D01*
X7403D01*
X7396Y7221D01*
X7391Y7225D01*
X7387Y7231D01*
X7386Y7238D01*
X7387Y7245D01*
X7391Y7251D01*
X7396Y7255D01*
X7403Y7258D01*
X7409D01*
X7416Y7255D01*
X7421Y7251D01*
X7425Y7245D01*
X7426Y7238D01*
X7386Y6658D02*
X7406Y6618D01*
X7386Y6658D02*
X7426D01*
X7406Y6618D01*
X6986Y6768D02*
Y6808D01*
X7026D01*
Y6768D01*
X6986D01*
Y6608D02*
Y6568D01*
Y6608D02*
X7026D01*
Y6568D01*
X6986D01*
Y7318D02*
Y7358D01*
X7026D01*
Y7318D01*
X6986D01*
Y6958D02*
Y6918D01*
Y6958D02*
X7026D01*
Y6918D01*
X6986D01*
Y8068D02*
Y8108D01*
X7026D01*
Y8068D01*
X6986D01*
Y8008D02*
Y7968D01*
Y8008D02*
X7026D01*
Y7968D01*
X6986D01*
Y7908D02*
Y7868D01*
Y7908D02*
X7026D01*
Y7868D01*
X6986D01*
Y7808D02*
Y7768D01*
Y7808D02*
X7026D01*
Y7768D01*
X6986D01*
Y7708D02*
Y7668D01*
Y7708D02*
X7026D01*
Y7668D01*
X6986D01*
Y7608D02*
Y7568D01*
Y7608D02*
X7026D01*
Y7568D01*
X6986D01*
Y7508D02*
Y7468D01*
Y7508D02*
X7026D01*
Y7468D01*
X6986D01*
X7286D02*
Y7508D01*
X7326D01*
Y7468D01*
X7286D01*
Y7568D02*
Y7608D01*
X7326D01*
Y7568D01*
X7286D01*
Y7668D02*
Y7708D01*
X7326D01*
Y7668D01*
X7286D01*
Y7768D02*
Y7808D01*
X7326D01*
Y7768D01*
X7286D01*
Y7868D02*
Y7908D01*
X7326D01*
Y7868D01*
X7286D01*
Y7968D02*
Y8008D01*
X7326D01*
Y7968D01*
X7286D01*
Y8068D02*
Y8108D01*
X7326D01*
Y8068D01*
X7286D01*
Y8218D02*
Y8258D01*
X7326D01*
Y8218D01*
X7286D01*
X6986D02*
Y8258D01*
X7026D01*
Y8218D01*
X6986D01*
Y8918D02*
Y8958D01*
X7026D01*
Y8918D01*
X6986D01*
Y8858D02*
Y8818D01*
Y8858D02*
X7026D01*
Y8818D01*
X6986D01*
Y8758D02*
Y8718D01*
Y8758D02*
X7026D01*
Y8718D01*
X6986D01*
Y8658D02*
Y8618D01*
Y8658D02*
X7026D01*
Y8618D01*
X6986D01*
Y8558D02*
Y8518D01*
Y8558D02*
X7026D01*
Y8518D01*
X6986D01*
Y8458D02*
Y8418D01*
Y8458D02*
X7026D01*
Y8418D01*
X6986D01*
Y8358D02*
Y8318D01*
Y8358D02*
X7026D01*
Y8318D01*
X6986D01*
X7286D02*
Y8358D01*
X7326D01*
Y8318D01*
X7286D01*
Y8418D02*
Y8458D01*
X7326D01*
Y8418D01*
X7286D01*
Y8518D02*
Y8558D01*
X7326D01*
Y8518D01*
X7286D01*
Y8618D02*
Y8658D01*
X7326D01*
Y8618D01*
X7286D01*
Y8718D02*
Y8758D01*
X7326D01*
Y8718D01*
X7286D01*
Y8818D02*
Y8858D01*
X7326D01*
Y8818D01*
X7286D01*
Y8918D02*
Y8958D01*
X7326D01*
Y8918D01*
X7286D01*
Y9068D02*
Y9108D01*
X7326D01*
Y9068D01*
X7286D01*
X6986D02*
Y9108D01*
X7026D01*
Y9068D01*
X6986D01*
X7986Y6608D02*
Y6568D01*
Y6608D02*
X8026D01*
Y6568D01*
X7986D01*
Y6968D02*
Y7008D01*
X8026D01*
Y6968D01*
X7986D01*
X7886Y6608D02*
Y6568D01*
Y6608D02*
X7926D01*
Y6568D01*
X7886D01*
Y6968D02*
Y7008D01*
X7926D01*
Y6968D01*
X7886D01*
X7786D02*
Y7008D01*
X7826D01*
Y6968D01*
X7786D01*
Y6608D02*
Y6568D01*
Y6608D02*
X7826D01*
Y6568D01*
X7786D01*
X8276Y6738D02*
X8275Y6731D01*
X8271Y6725D01*
X8266Y6721D01*
X8259Y6718D01*
X8253D01*
X8246Y6721D01*
X8241Y6725D01*
X8237Y6731D01*
X8236Y6738D01*
X8237Y6745D01*
X8241Y6751D01*
X8246Y6755D01*
X8253Y6758D01*
X8259D01*
X8266Y6755D01*
X8271Y6751D01*
X8275Y6745D01*
X8276Y6738D01*
X8576D02*
X8575Y6731D01*
X8571Y6725D01*
X8566Y6721D01*
X8559Y6718D01*
X8553D01*
X8546Y6721D01*
X8541Y6725D01*
X8537Y6731D01*
X8536Y6738D01*
X8537Y6745D01*
X8541Y6751D01*
X8546Y6755D01*
X8553Y6758D01*
X8559D01*
X8566Y6755D01*
X8571Y6751D01*
X8575Y6745D01*
X8576Y6738D01*
X8656Y7118D02*
X8636Y7158D01*
X8676D01*
X8656Y7118D01*
X8536Y6958D02*
X8556Y6918D01*
X8536Y6958D02*
X8576D01*
X8556Y6918D01*
X8426Y7238D02*
X8425Y7231D01*
X8421Y7225D01*
X8416Y7221D01*
X8409Y7218D01*
X8403D01*
X8396Y7221D01*
X8391Y7225D01*
X8387Y7231D01*
X8386Y7238D01*
X8387Y7245D01*
X8391Y7251D01*
X8396Y7255D01*
X8403Y7258D01*
X8409D01*
X8416Y7255D01*
X8421Y7251D01*
X8425Y7245D01*
X8426Y7238D01*
X8386Y6658D02*
X8406Y6618D01*
X8386Y6658D02*
X8426D01*
X8406Y6618D01*
X8986Y6718D02*
Y6758D01*
X9026D01*
Y6718D01*
X8986D01*
Y7118D02*
Y7158D01*
X9026D01*
Y7118D01*
X8986D01*
X8886Y6758D02*
Y6718D01*
Y6758D02*
X8926D01*
Y6718D01*
X8886D01*
Y7118D02*
Y7158D01*
X8926D01*
Y7118D01*
X8886D01*
X8786D02*
Y7158D01*
X8826D01*
Y7118D01*
X8786D01*
Y6758D02*
Y6718D01*
Y6758D02*
X8826D01*
Y6718D01*
X8786D01*
X7836Y7068D02*
Y7108D01*
X7876D01*
Y7068D01*
X7836D01*
Y7268D02*
Y7308D01*
X7876D01*
Y7268D01*
X7836D01*
X7986Y8068D02*
Y8108D01*
X8026D01*
Y8068D01*
X7986D01*
Y8008D02*
Y7968D01*
Y8008D02*
X8026D01*
Y7968D01*
X7986D01*
Y7908D02*
Y7868D01*
Y7908D02*
X8026D01*
Y7868D01*
X7986D01*
Y7808D02*
Y7768D01*
Y7808D02*
X8026D01*
Y7768D01*
X7986D01*
Y7708D02*
Y7668D01*
Y7708D02*
X8026D01*
Y7668D01*
X7986D01*
Y7608D02*
Y7568D01*
Y7608D02*
X8026D01*
Y7568D01*
X7986D01*
Y7508D02*
Y7468D01*
Y7508D02*
X8026D01*
Y7468D01*
X7986D01*
X8286D02*
Y7508D01*
X8326D01*
Y7468D01*
X8286D01*
Y7568D02*
Y7608D01*
X8326D01*
Y7568D01*
X8286D01*
Y7668D02*
Y7708D01*
X8326D01*
Y7668D01*
X8286D01*
Y7768D02*
Y7808D01*
X8326D01*
Y7768D01*
X8286D01*
Y7868D02*
Y7908D01*
X8326D01*
Y7868D01*
X8286D01*
Y7968D02*
Y8008D01*
X8326D01*
Y7968D01*
X8286D01*
Y8068D02*
Y8108D01*
X8326D01*
Y8068D01*
X8286D01*
Y8218D02*
Y8258D01*
X8326D01*
Y8218D01*
X8286D01*
X7986D02*
Y8258D01*
X8026D01*
Y8218D01*
X7986D01*
X7486Y8108D02*
Y8068D01*
Y8108D02*
X7526D01*
Y8068D01*
X7486D01*
Y8008D02*
Y7968D01*
Y8008D02*
X7526D01*
Y7968D01*
X7486D01*
Y7908D02*
Y7868D01*
Y7908D02*
X7526D01*
Y7868D01*
X7486D01*
Y7808D02*
Y7768D01*
Y7808D02*
X7526D01*
Y7768D01*
X7486D01*
Y7708D02*
Y7668D01*
Y7708D02*
X7526D01*
Y7668D01*
X7486D01*
Y7608D02*
Y7568D01*
Y7608D02*
X7526D01*
Y7568D01*
X7486D01*
Y7508D02*
Y7468D01*
Y7508D02*
X7526D01*
Y7468D01*
X7486D01*
X7786D02*
Y7508D01*
X7826D01*
Y7468D01*
X7786D01*
Y7568D02*
Y7608D01*
X7826D01*
Y7568D01*
X7786D01*
Y7668D02*
Y7708D01*
X7826D01*
Y7668D01*
X7786D01*
Y7768D02*
Y7808D01*
X7826D01*
Y7768D01*
X7786D01*
Y7868D02*
Y7908D01*
X7826D01*
Y7868D01*
X7786D01*
Y7968D02*
Y8008D01*
X7826D01*
Y7968D01*
X7786D01*
Y8068D02*
Y8108D01*
X7826D01*
Y8068D01*
X7786D01*
Y8218D02*
Y8258D01*
X7826D01*
Y8218D01*
X7786D01*
X7486D02*
Y8258D01*
X7526D01*
Y8218D01*
X7486D01*
X8486Y8318D02*
Y8358D01*
X8526D01*
Y8318D01*
X8486D01*
Y8058D02*
Y8018D01*
Y8058D02*
X8526D01*
Y8018D01*
X8486D01*
X8586D02*
Y8058D01*
X8626D01*
Y8018D01*
X8586D01*
X8686D02*
Y8058D01*
X8726D01*
Y8018D01*
X8686D01*
X8786D02*
Y8058D01*
X8826D01*
Y8018D01*
X8786D01*
X8886D02*
Y8058D01*
X8926D01*
Y8018D01*
X8886D01*
X8986D02*
Y8058D01*
X9026D01*
Y8018D01*
X8986D01*
X9086D02*
Y8058D01*
X9126D01*
Y8018D01*
X9086D01*
X9186D02*
Y8058D01*
X9226D01*
Y8018D01*
X9186D01*
X9286D02*
Y8058D01*
X9326D01*
Y8018D01*
X9286D01*
Y8318D02*
Y8358D01*
X9326D01*
Y8318D01*
X9286D01*
X9186D02*
Y8358D01*
X9226D01*
Y8318D01*
X9186D01*
X9086D02*
Y8358D01*
X9126D01*
Y8318D01*
X9086D01*
X8986D02*
Y8358D01*
X9026D01*
Y8318D01*
X8986D01*
X8886D02*
Y8358D01*
X8926D01*
Y8318D01*
X8886D01*
X8786D02*
Y8358D01*
X8826D01*
Y8318D01*
X8786D01*
X8686D02*
Y8358D01*
X8726D01*
Y8318D01*
X8686D01*
X8586D02*
Y8358D01*
X8626D01*
Y8318D01*
X8586D01*
Y8568D02*
Y8608D01*
X8626D01*
Y8568D01*
X8586D01*
Y8508D02*
Y8468D01*
Y8508D02*
X8626D01*
Y8468D01*
X8586D01*
X8686D02*
Y8508D01*
X8726D01*
Y8468D01*
X8686D01*
Y8868D02*
Y8908D01*
X8726D01*
Y8868D01*
X8686D01*
X8786Y8508D02*
Y8468D01*
Y8508D02*
X8826D01*
Y8468D01*
X8786D01*
Y8868D02*
Y8908D01*
X8826D01*
Y8868D01*
X8786D01*
X8286Y9068D02*
Y9108D01*
X8326D01*
Y9068D01*
X8286D01*
X7986D02*
Y9108D01*
X8026D01*
Y9068D01*
X7986D01*
Y8958D02*
Y8918D01*
Y8958D02*
X8026D01*
Y8918D01*
X7986D01*
Y8858D02*
Y8818D01*
Y8858D02*
X8026D01*
Y8818D01*
X7986D01*
Y8758D02*
Y8718D01*
Y8758D02*
X8026D01*
Y8718D01*
X7986D01*
Y8658D02*
Y8618D01*
Y8658D02*
X8026D01*
Y8618D01*
X7986D01*
Y8558D02*
Y8518D01*
Y8558D02*
X8026D01*
Y8518D01*
X7986D01*
Y8458D02*
Y8418D01*
Y8458D02*
X8026D01*
Y8418D01*
X7986D01*
Y8358D02*
Y8318D01*
Y8358D02*
X8026D01*
Y8318D01*
X7986D01*
X8286D02*
Y8358D01*
X8326D01*
Y8318D01*
X8286D01*
Y8418D02*
Y8458D01*
X8326D01*
Y8418D01*
X8286D01*
Y8518D02*
Y8558D01*
X8326D01*
Y8518D01*
X8286D01*
Y8618D02*
Y8658D01*
X8326D01*
Y8618D01*
X8286D01*
Y8718D02*
Y8758D01*
X8326D01*
Y8718D01*
X8286D01*
Y8818D02*
Y8858D01*
X8326D01*
Y8818D01*
X8286D01*
Y8918D02*
Y8958D01*
X8326D01*
Y8918D01*
X8286D01*
X7786Y9068D02*
Y9108D01*
X7826D01*
Y9068D01*
X7786D01*
X7486D02*
Y9108D01*
X7526D01*
Y9068D01*
X7486D01*
Y8958D02*
Y8918D01*
Y8958D02*
X7526D01*
Y8918D01*
X7486D01*
Y8858D02*
Y8818D01*
Y8858D02*
X7526D01*
Y8818D01*
X7486D01*
Y8758D02*
Y8718D01*
Y8758D02*
X7526D01*
Y8718D01*
X7486D01*
Y8658D02*
Y8618D01*
Y8658D02*
X7526D01*
Y8618D01*
X7486D01*
Y8558D02*
Y8518D01*
Y8558D02*
X7526D01*
Y8518D01*
X7486D01*
Y8458D02*
Y8418D01*
Y8458D02*
X7526D01*
Y8418D01*
X7486D01*
Y8358D02*
Y8318D01*
Y8358D02*
X7526D01*
Y8318D01*
X7486D01*
X7786D02*
Y8358D01*
X7826D01*
Y8318D01*
X7786D01*
Y8418D02*
Y8458D01*
X7826D01*
Y8418D01*
X7786D01*
Y8518D02*
Y8558D01*
X7826D01*
Y8518D01*
X7786D01*
Y8618D02*
Y8658D01*
X7826D01*
Y8618D01*
X7786D01*
Y8718D02*
Y8758D01*
X7826D01*
Y8718D01*
X7786D01*
Y8818D02*
Y8858D01*
X7826D01*
Y8818D01*
X7786D01*
Y8918D02*
Y8958D01*
X7826D01*
Y8918D01*
X7786D01*
X8486Y8968D02*
Y9008D01*
X8526D01*
Y8968D01*
X8486D01*
X8586D02*
Y9008D01*
X8626D01*
Y8968D01*
X8586D01*
X8541Y8803D02*
X8531Y8793D01*
X8541Y8803D02*
X8551D01*
X8541Y8813D01*
X8551Y8823D01*
X8541D01*
X8531Y8833D01*
X8521Y8823D01*
X8511D01*
X8521Y8813D01*
X8511Y8803D01*
X8521D01*
X8531Y8793D01*
X8581Y8743D02*
X8591Y8753D01*
X8601D01*
X8591Y8763D01*
X8601Y8773D01*
X8591D01*
X8581Y8783D01*
X8571Y8773D01*
X8561D01*
X8571Y8763D01*
X8561Y8753D01*
X8571D01*
X8581Y8743D01*
X8541Y8703D02*
X8531Y8693D01*
X8541Y8703D02*
X8551D01*
X8541Y8713D01*
X8551Y8723D01*
X8541D01*
X8531Y8733D01*
X8521Y8723D01*
X8511D01*
X8521Y8713D01*
X8511Y8703D01*
X8521D01*
X8531Y8693D01*
X9276Y6738D02*
X9275Y6731D01*
X9271Y6725D01*
X9266Y6721D01*
X9259Y6718D01*
X9253D01*
X9246Y6721D01*
X9241Y6725D01*
X9237Y6731D01*
X9236Y6738D01*
X9237Y6745D01*
X9241Y6751D01*
X9246Y6755D01*
X9253Y6758D01*
X9259D01*
X9266Y6755D01*
X9271Y6751D01*
X9275Y6745D01*
X9276Y6738D01*
X9576D02*
X9575Y6731D01*
X9571Y6725D01*
X9566Y6721D01*
X9559Y6718D01*
X9553D01*
X9546Y6721D01*
X9541Y6725D01*
X9537Y6731D01*
X9536Y6738D01*
X9537Y6745D01*
X9541Y6751D01*
X9546Y6755D01*
X9553Y6758D01*
X9559D01*
X9566Y6755D01*
X9571Y6751D01*
X9575Y6745D01*
X9576Y6738D01*
X9656Y7118D02*
X9636Y7158D01*
X9676D01*
X9656Y7118D01*
X9536Y6958D02*
X9556Y6918D01*
X9536Y6958D02*
X9576D01*
X9556Y6918D01*
X9426Y7238D02*
X9425Y7231D01*
X9421Y7225D01*
X9416Y7221D01*
X9409Y7218D01*
X9403D01*
X9396Y7221D01*
X9391Y7225D01*
X9387Y7231D01*
X9386Y7238D01*
X9387Y7245D01*
X9391Y7251D01*
X9396Y7255D01*
X9403Y7258D01*
X9409D01*
X9416Y7255D01*
X9421Y7251D01*
X9425Y7245D01*
X9426Y7238D01*
X9386Y6658D02*
X9406Y6618D01*
X9386Y6658D02*
X9426D01*
X9406Y6618D01*
X9786Y7118D02*
Y7158D01*
X9826D01*
Y7118D01*
X9786D01*
Y6758D02*
Y6718D01*
Y6758D02*
X9826D01*
Y6718D01*
X9786D01*
X10276Y6738D02*
X10275Y6731D01*
X10271Y6725D01*
X10266Y6721D01*
X10259Y6718D01*
X10253D01*
X10246Y6721D01*
X10241Y6725D01*
X10237Y6731D01*
X10236Y6738D01*
X10237Y6745D01*
X10241Y6751D01*
X10246Y6755D01*
X10253Y6758D01*
X10259D01*
X10266Y6755D01*
X10271Y6751D01*
X10275Y6745D01*
X10276Y6738D01*
X10576D02*
X10575Y6731D01*
X10571Y6725D01*
X10566Y6721D01*
X10559Y6718D01*
X10553D01*
X10546Y6721D01*
X10541Y6725D01*
X10537Y6731D01*
X10536Y6738D01*
X10537Y6745D01*
X10541Y6751D01*
X10546Y6755D01*
X10553Y6758D01*
X10559D01*
X10566Y6755D01*
X10571Y6751D01*
X10575Y6745D01*
X10576Y6738D01*
X10656Y7118D02*
X10636Y7158D01*
X10676D01*
X10656Y7118D01*
X10536Y6958D02*
X10556Y6918D01*
X10536Y6958D02*
X10576D01*
X10556Y6918D01*
X10426Y7238D02*
X10425Y7231D01*
X10421Y7225D01*
X10416Y7221D01*
X10409Y7218D01*
X10403D01*
X10396Y7221D01*
X10391Y7225D01*
X10387Y7231D01*
X10386Y7238D01*
X10387Y7245D01*
X10391Y7251D01*
X10396Y7255D01*
X10403Y7258D01*
X10409D01*
X10416Y7255D01*
X10421Y7251D01*
X10425Y7245D01*
X10426Y7238D01*
X10386Y6658D02*
X10406Y6618D01*
X10386Y6658D02*
X10426D01*
X10406Y6618D01*
X10308Y8418D02*
X10318Y8438D01*
X10308Y8458D01*
X10328Y8448D01*
X10348Y8458D01*
X10338Y8438D01*
X10348Y8418D01*
X10328Y8428D01*
X10308Y8418D01*
X10620D02*
X10630Y8438D01*
X10620Y8458D01*
X10640Y8448D01*
X10660Y8458D01*
X10650Y8438D01*
X10660Y8418D01*
X10640Y8428D01*
X10620Y8418D01*
X10162Y8438D02*
X10152Y8418D01*
X10162Y8438D02*
X10152Y8458D01*
X10172Y8448D01*
X10192Y8458D01*
X10182Y8438D01*
X10192Y8418D01*
X10172Y8428D01*
X10152Y8418D01*
X10464D02*
X10474Y8438D01*
X10464Y8458D01*
X10484Y8448D01*
X10504Y8458D01*
X10494Y8438D01*
X10504Y8418D01*
X10484Y8428D01*
X10464Y8418D01*
X9386Y8058D02*
Y8018D01*
Y8058D02*
X9426D01*
Y8018D01*
X9386D01*
Y8318D02*
Y8358D01*
X9426D01*
Y8318D01*
X9386D01*
X9486D02*
Y8358D01*
X9526D01*
Y8318D01*
X9486D01*
Y8058D02*
Y8018D01*
Y8058D02*
X9526D01*
Y8018D01*
X9486D01*
X9586D02*
Y8058D01*
X9626D01*
Y8018D01*
X9586D01*
X9686D02*
Y8058D01*
X9726D01*
Y8018D01*
X9686D01*
X9786D02*
Y8058D01*
X9826D01*
Y8018D01*
X9786D01*
X9886D02*
Y8058D01*
X9926D01*
Y8018D01*
X9886D01*
Y8318D02*
Y8358D01*
X9926D01*
Y8318D01*
X9886D01*
X9786D02*
Y8358D01*
X9826D01*
Y8318D01*
X9786D01*
X9686D02*
Y8358D01*
X9726D01*
Y8318D01*
X9686D01*
X9586D02*
Y8358D01*
X9626D01*
Y8318D01*
X9586D01*
X9986Y8058D02*
Y8018D01*
Y8058D02*
X10026D01*
Y8018D01*
X9986D01*
Y8318D02*
Y8358D01*
X10026D01*
Y8318D01*
X9986D01*
X9586Y7608D02*
Y7568D01*
Y7608D02*
X9626D01*
Y7568D01*
X9586D01*
Y7768D02*
Y7808D01*
X9626D01*
Y7768D01*
X9586D01*
X9686Y7868D02*
Y7908D01*
X9726D01*
Y7868D01*
X9686D01*
Y7508D02*
Y7468D01*
Y7508D02*
X9726D01*
Y7468D01*
X9686D01*
X9786Y7868D02*
Y7908D01*
X9826D01*
Y7868D01*
X9786D01*
Y7508D02*
Y7468D01*
Y7508D02*
X9826D01*
Y7468D01*
X9786D01*
X10236Y8218D02*
Y8258D01*
X10276D01*
Y8218D01*
X10236D01*
Y8318D02*
Y8358D01*
X10276D01*
Y8318D01*
X10236D01*
X9236Y8768D02*
Y8808D01*
X9276D01*
Y8768D01*
X9236D01*
Y8608D02*
Y8568D01*
Y8608D02*
X9276D01*
Y8568D01*
X9236D01*
X9386Y8768D02*
Y8808D01*
X9426D01*
Y8768D01*
X9386D01*
Y8608D02*
Y8568D01*
Y8608D02*
X9426D01*
Y8568D01*
X9386D01*
X9486Y8868D02*
Y8908D01*
X9526D01*
Y8868D01*
X9486D01*
Y8508D02*
Y8468D01*
Y8508D02*
X9526D01*
Y8468D01*
X9486D01*
X9586Y8868D02*
Y8908D01*
X9626D01*
Y8868D01*
X9586D01*
Y8508D02*
Y8468D01*
Y8508D02*
X9626D01*
Y8468D01*
X9586D01*
X9686Y8868D02*
Y8908D01*
X9726D01*
Y8868D01*
X9686D01*
Y8508D02*
Y8468D01*
Y8508D02*
X9726D01*
Y8468D01*
X9686D01*
X9786Y8868D02*
Y8908D01*
X9826D01*
Y8868D01*
X9786D01*
Y8508D02*
Y8468D01*
Y8508D02*
X9826D01*
Y8468D01*
X9786D01*
X11786Y7158D02*
Y7118D01*
Y7158D02*
X11826D01*
Y7118D01*
X11786D01*
Y6758D02*
Y6718D01*
Y6758D02*
X11826D01*
Y6718D01*
X11786D01*
X11276Y6738D02*
X11275Y6731D01*
X11271Y6725D01*
X11266Y6721D01*
X11259Y6718D01*
X11253D01*
X11246Y6721D01*
X11241Y6725D01*
X11237Y6731D01*
X11236Y6738D01*
X11237Y6745D01*
X11241Y6751D01*
X11246Y6755D01*
X11253Y6758D01*
X11259D01*
X11266Y6755D01*
X11271Y6751D01*
X11275Y6745D01*
X11276Y6738D01*
X11576D02*
X11575Y6731D01*
X11571Y6725D01*
X11566Y6721D01*
X11559Y6718D01*
X11553D01*
X11546Y6721D01*
X11541Y6725D01*
X11537Y6731D01*
X11536Y6738D01*
X11537Y6745D01*
X11541Y6751D01*
X11546Y6755D01*
X11553Y6758D01*
X11559D01*
X11566Y6755D01*
X11571Y6751D01*
X11575Y6745D01*
X11576Y6738D01*
X11656Y7118D02*
X11636Y7158D01*
X11676D01*
X11656Y7118D01*
X11536Y6958D02*
X11556Y6918D01*
X11536Y6958D02*
X11576D01*
X11556Y6918D01*
X11426Y7238D02*
X11425Y7231D01*
X11421Y7225D01*
X11416Y7221D01*
X11409Y7218D01*
X11403D01*
X11396Y7221D01*
X11391Y7225D01*
X11387Y7231D01*
X11386Y7238D01*
X11387Y7245D01*
X11391Y7251D01*
X11396Y7255D01*
X11403Y7258D01*
X11409D01*
X11416Y7255D01*
X11421Y7251D01*
X11425Y7245D01*
X11426Y7238D01*
X11386Y6658D02*
X11406Y6618D01*
X11386Y6658D02*
X11426D01*
X11406Y6618D01*
X10786Y7118D02*
Y7158D01*
X10826D01*
Y7118D01*
X10786D01*
Y6758D02*
Y6718D01*
Y6758D02*
X10826D01*
Y6718D01*
X10786D01*
X11686Y7818D02*
Y7858D01*
X11726D01*
Y7818D01*
X11686D01*
Y7558D02*
Y7518D01*
Y7558D02*
X11726D01*
Y7518D01*
X11686D01*
X11436Y8018D02*
Y8058D01*
X11476D01*
Y8018D01*
X11436D01*
Y8318D02*
Y8358D01*
X11476D01*
Y8318D01*
X11436D01*
X11706Y8468D02*
X11716Y8478D01*
X11726D01*
X11716Y8488D01*
X11726Y8498D01*
X11716D01*
X11706Y8508D01*
X11696Y8498D01*
X11686D01*
X11696Y8488D01*
X11686Y8478D01*
X11696D01*
X11706Y8468D01*
X11756Y8418D02*
X11766Y8428D01*
X11776D01*
X11766Y8438D01*
X11776Y8448D01*
X11766D01*
X11756Y8458D01*
X11746Y8448D01*
X11736D01*
X11746Y8438D01*
X11736Y8428D01*
X11746D01*
X11756Y8418D01*
X11716Y8378D02*
X11706Y8368D01*
X11716Y8378D02*
X11726D01*
X11716Y8388D01*
X11726Y8398D01*
X11716D01*
X11706Y8408D01*
X11696Y8398D01*
X11686D01*
X11696Y8388D01*
X11686Y8378D01*
X11696D01*
X11706Y8368D01*
X11486Y7858D02*
Y7818D01*
Y7858D02*
X11526D01*
Y7818D01*
X11486D01*
Y7558D02*
Y7518D01*
Y7558D02*
X11526D01*
Y7518D01*
X11486D01*
X11336Y7508D02*
Y7468D01*
Y7508D02*
X11376D01*
Y7468D01*
X11336D01*
Y7868D02*
Y7908D01*
X11376D01*
Y7868D01*
X11336D01*
X11236Y8468D02*
Y8508D01*
X11276D01*
Y8468D01*
X11236D01*
Y8868D02*
Y8908D01*
X11276D01*
Y8868D01*
X11236D01*
Y7508D02*
Y7468D01*
Y7508D02*
X11276D01*
Y7468D01*
X11236D01*
Y7868D02*
Y7908D01*
X11276D01*
Y7868D01*
X11236D01*
X11136D02*
Y7908D01*
X11176D01*
Y7868D01*
X11136D01*
Y7508D02*
Y7468D01*
Y7508D02*
X11176D01*
Y7468D01*
X11136D01*
X11036D02*
Y7508D01*
X11076D01*
Y7468D01*
X11036D01*
Y7868D02*
Y7908D01*
X11076D01*
Y7868D01*
X11036D01*
Y8018D02*
Y8058D01*
X11076D01*
Y8018D01*
X11036D01*
X11136D02*
Y8058D01*
X11176D01*
Y8018D01*
X11136D01*
X11236D02*
Y8058D01*
X11276D01*
Y8018D01*
X11236D01*
X11336D02*
Y8058D01*
X11376D01*
Y8018D01*
X11336D01*
Y8318D02*
Y8358D01*
X11376D01*
Y8318D01*
X11336D01*
X11236D02*
Y8358D01*
X11276D01*
Y8318D01*
X11236D01*
X11136D02*
Y8358D01*
X11176D01*
Y8318D01*
X11136D01*
X11036D02*
Y8358D01*
X11076D01*
Y8318D01*
X11036D01*
X10936D02*
Y8358D01*
X10976D01*
Y8318D01*
X10936D01*
Y8058D02*
Y8018D01*
Y8058D02*
X10976D01*
Y8018D01*
X10936D01*
X10711Y7958D02*
Y7918D01*
Y7958D02*
X10751D01*
Y7918D01*
X10711D01*
Y8018D02*
Y8058D01*
X10751D01*
Y8018D01*
X10711D01*
X11786Y9018D02*
Y9058D01*
X11826D01*
Y9018D01*
X11786D01*
Y8658D02*
Y8618D01*
Y8658D02*
X11826D01*
Y8618D01*
X11786D01*
X11686Y9018D02*
Y9058D01*
X11726D01*
Y9018D01*
X11686D01*
Y8658D02*
Y8618D01*
Y8658D02*
X11726D01*
Y8618D01*
X11686D01*
X11586Y9018D02*
Y9058D01*
X11626D01*
Y9018D01*
X11586D01*
Y8658D02*
Y8618D01*
Y8658D02*
X11626D01*
Y8618D01*
X11586D01*
X11386Y9018D02*
Y9058D01*
X11426D01*
Y9018D01*
X11386D01*
Y8558D02*
Y8518D01*
Y8558D02*
X11426D01*
Y8518D01*
X11386D01*
X11486Y8818D02*
Y8858D01*
X11526D01*
Y8818D01*
X11486D01*
X11136Y8868D02*
Y8908D01*
X11176D01*
Y8868D01*
X11136D01*
Y8508D02*
Y8468D01*
Y8508D02*
X11176D01*
Y8468D01*
X11136D01*
X10911Y9018D02*
Y9058D01*
X10951D01*
Y9018D01*
X10911D01*
Y8558D02*
Y8518D01*
Y8558D02*
X10951D01*
Y8518D01*
X10911D01*
X11011Y8818D02*
Y8858D01*
X11051D01*
Y8818D01*
X11011D01*
X12446Y8128D02*
X12456Y8138D01*
X12466D01*
X12456Y8148D01*
X12466Y8158D01*
X12456D01*
X12446Y8168D01*
X12436Y8158D01*
X12426D01*
X12436Y8148D01*
X12426Y8138D01*
X12436D01*
X12446Y8128D01*
X12426Y8328D02*
Y8368D01*
X12466D01*
Y8328D01*
X12426D01*
X12446Y8528D02*
X12426Y8568D01*
X12466D01*
X12446Y8528D01*
X12426Y8728D02*
X12436Y8748D01*
X12426Y8768D01*
X12446Y8758D01*
X12466Y8768D01*
X12456Y8748D01*
X12466Y8728D01*
X12446Y8738D01*
X12426Y8728D01*
X12466Y8948D02*
X12465Y8941D01*
X12461Y8935D01*
X12456Y8931D01*
X12449Y8928D01*
X12443D01*
X12436Y8931D01*
X12431Y8935D01*
X12427Y8941D01*
X12426Y8948D01*
X12427Y8955D01*
X12431Y8961D01*
X12436Y8965D01*
X12443Y8968D01*
X12449D01*
X12456Y8965D01*
X12461Y8961D01*
X12465Y8955D01*
X12466Y8948D01*
D14*
X9208Y6238D02*
X6906D01*
X9604D02*
X11906D01*
X12106Y6438D02*
X12156D01*
Y9188D02*
X12106D01*
X6906Y6263D02*
Y6213D01*
X11906D02*
Y6263D01*
X12131Y6438D02*
Y7615D01*
Y8011D02*
Y9188D01*
X6973Y6260D02*
X6906Y6238D01*
X6973Y6216D01*
X11839Y6260D02*
X11906Y6238D01*
X11839Y6216D01*
X12131Y6438D02*
X12109Y6505D01*
X12153D02*
X12131Y6438D01*
X12109Y9121D02*
X12131Y9188D01*
X12153Y9121D01*
X7993Y9768D02*
X7926D01*
X7993Y9835D01*
Y9851D01*
X7976Y9868D01*
X7943D01*
X7926Y9851D01*
X8026D02*
X8043Y9868D01*
X8076D01*
X8093Y9851D01*
Y9785D01*
X8076Y9768D01*
X8043D01*
X8026Y9785D01*
Y9851D01*
X8126D02*
X8143Y9868D01*
X8176D01*
X8193Y9851D01*
Y9785D01*
X8176Y9768D01*
X8143D01*
X8126Y9785D01*
Y9851D01*
X8226Y9818D02*
X8293D01*
X8326Y9768D02*
X8359D01*
X8343D01*
Y9868D01*
X8344D01*
X8343D02*
X8326Y9851D01*
X8409D02*
X8426Y9868D01*
X8459D01*
X8476Y9851D01*
Y9785D01*
X8459Y9768D01*
X8426D01*
X8409Y9785D01*
Y9851D01*
X8509Y9768D02*
X8576D01*
X8509D02*
X8576Y9835D01*
Y9851D01*
X8559Y9868D01*
X8526D01*
X8509Y9851D01*
X8609Y9768D02*
X8642D01*
X8626D01*
Y9868D01*
X8627D01*
X8626D02*
X8609Y9851D01*
X8692Y9818D02*
X8759D01*
X8792Y9851D02*
X8809Y9868D01*
X8842D01*
X8859Y9851D01*
Y9785D01*
X8842Y9768D01*
X8809D01*
X8792Y9785D01*
Y9851D01*
X8926D02*
X8959Y9868D01*
X8926Y9851D02*
X8892Y9818D01*
Y9785D01*
X8909Y9768D01*
X8942D01*
X8959Y9785D01*
Y9801D01*
X8942Y9818D01*
X8892D01*
X9092Y9768D02*
Y9868D01*
X9142D01*
X9159Y9851D01*
Y9818D01*
X9142Y9801D01*
X9092D01*
X9126D02*
X9159Y9768D01*
X9192Y9868D02*
X9259D01*
X9192D02*
Y9768D01*
X9259D01*
X9226Y9818D02*
X9192D01*
X9292Y9801D02*
Y9868D01*
Y9801D02*
X9326Y9768D01*
X9359Y9801D01*
Y9868D01*
X9492D02*
Y9768D01*
X9559D02*
X9492Y9868D01*
X9559D02*
Y9768D01*
X9659Y9851D02*
X9642Y9868D01*
X9609D01*
X9592Y9851D01*
Y9785D01*
X9609Y9768D01*
X9642D01*
X9659Y9785D01*
X9792Y9868D02*
X9859D01*
X9792D02*
Y9818D01*
X9825D01*
X9792D01*
Y9768D01*
X9892D02*
Y9835D01*
X9925Y9868D01*
X9959Y9835D01*
Y9768D01*
Y9818D01*
X9892D01*
X9992Y9768D02*
Y9868D01*
Y9768D02*
X10042D01*
X10059Y9785D01*
Y9801D01*
X10042Y9818D01*
X9992D01*
X9993D01*
X9992D02*
X9993D01*
X9992D02*
X9993D01*
X9992D02*
X10042D01*
X10059Y9835D01*
Y9851D01*
X10042Y9868D01*
X9992D01*
X10192D02*
Y9768D01*
X10242D01*
X10259Y9785D01*
Y9851D01*
X10242Y9868D01*
X10192D01*
X10292D02*
Y9768D01*
Y9868D02*
X10342D01*
X10359Y9851D01*
Y9818D01*
X10342Y9801D01*
X10292D01*
X10325D02*
X10359Y9768D01*
X10392D02*
Y9835D01*
X10425Y9868D01*
X10459Y9835D01*
Y9768D01*
Y9818D01*
X10392D01*
X10492Y9768D02*
Y9868D01*
X10525Y9801D02*
X10492Y9768D01*
X10525Y9801D02*
X10558Y9768D01*
Y9868D01*
X10592D02*
X10625D01*
X10608D01*
Y9768D01*
X10592D01*
X10625D01*
X10675D02*
Y9868D01*
X10742Y9768D01*
Y9868D01*
X10825D02*
X10842Y9851D01*
X10825Y9868D02*
X10792D01*
X10775Y9851D01*
Y9785D01*
X10792Y9768D01*
X10825D01*
X10842Y9785D01*
Y9818D01*
X10808D01*
X12164Y7665D02*
Y7625D01*
X12124Y7665D01*
X12114D01*
X12104Y7655D01*
Y7635D01*
X12114Y7625D01*
X12104Y7685D02*
Y7725D01*
X12114D01*
X12154Y7685D01*
X12164D01*
X12104Y7745D02*
Y7785D01*
Y7745D02*
X12134D01*
X12124Y7765D01*
Y7775D01*
X12134Y7785D01*
X12154D01*
X12164Y7775D01*
Y7755D01*
X12154Y7745D01*
X12114Y7805D02*
X12104Y7815D01*
Y7835D01*
X12114Y7845D01*
X12154D01*
X12164Y7835D01*
Y7815D01*
X12154Y7805D01*
X12114D01*
X12124Y7865D02*
X12164D01*
X12124D02*
Y7875D01*
X12134Y7885D01*
X12164D01*
X12134D01*
X12124Y7895D01*
X12134Y7905D01*
X12164D01*
Y7925D02*
Y7945D01*
Y7935D01*
X12124D01*
Y7925D01*
X12104Y7935D02*
X12105D01*
X12164Y7974D02*
Y7994D01*
Y7984D01*
X12104D01*
Y7974D01*
X9258Y6265D02*
X9218D01*
Y6235D01*
X9238Y6245D01*
X9248D01*
X9258Y6235D01*
Y6215D01*
X9248Y6205D01*
X9228D01*
X9218Y6215D01*
X9278Y6255D02*
X9288Y6265D01*
X9308D01*
X9318Y6255D01*
Y6215D01*
X9308Y6205D01*
X9288D01*
X9278Y6215D01*
Y6255D01*
X9338D02*
X9348Y6265D01*
X9368D01*
X9378Y6255D01*
Y6215D01*
X9368Y6205D01*
X9348D01*
X9338Y6215D01*
Y6255D01*
X9398D02*
X9408Y6265D01*
X9428D01*
X9438Y6255D01*
Y6215D01*
X9428Y6205D01*
X9408D01*
X9398Y6215D01*
Y6255D01*
X9458Y6245D02*
Y6205D01*
Y6245D02*
X9468D01*
X9478Y6235D01*
Y6205D01*
Y6235D01*
X9488Y6245D01*
X9498Y6235D01*
Y6205D01*
X9518D02*
X9538D01*
X9528D01*
Y6245D01*
X9518D01*
X9528Y6265D02*
X9529D01*
X9568Y6205D02*
X9587D01*
X9577D01*
Y6265D01*
X9568D01*
X11906Y9188D02*
X6906D01*
Y6438D02*
X11906D01*
X6906D02*
Y9188D01*
X11906D02*
Y6438D01*
X12816Y8184D02*
X12811Y8193D01*
X12797Y8198D01*
X12787D01*
X12773Y8193D01*
X12763Y8179D01*
X12758Y8155D01*
Y8131D01*
X12763Y8112D01*
X12773Y8103D01*
X12787Y8098D01*
X12792D01*
X12806Y8103D01*
X12816Y8112D01*
X12820Y8127D01*
Y8131D01*
X12816Y8146D01*
X12806Y8155D01*
X12792Y8160D01*
X12787D01*
X12773Y8155D01*
X12763Y8146D01*
X12758Y8131D01*
X13549Y8198D02*
X13602D01*
X13573Y8160D01*
X13587D01*
X13597Y8155D01*
X13602Y8150D01*
X13606Y8136D01*
Y8127D01*
X13602Y8112D01*
X13592Y8103D01*
X13578Y8098D01*
X13564D01*
X13549Y8103D01*
X13545Y8108D01*
X13540Y8117D01*
X13634Y8174D02*
Y8179D01*
X13638Y8188D01*
X13643Y8193D01*
X13653Y8198D01*
X13672D01*
X13681Y8193D01*
X13686Y8188D01*
X13691Y8179D01*
Y8169D01*
X13686Y8160D01*
X13676Y8146D01*
X13629Y8098D01*
X13695D01*
X13718D02*
Y8165D01*
X13732Y8160D02*
X13718Y8146D01*
X13732Y8160D02*
X13742Y8165D01*
X13756D01*
X13765Y8160D01*
X13770Y8146D01*
Y8098D01*
Y8146D02*
X13784Y8160D01*
X13794Y8165D01*
X13808D01*
X13818Y8160D01*
X13823Y8146D01*
Y8098D01*
X13868Y8193D02*
X13863Y8198D01*
X13868Y8193D02*
X13873Y8198D01*
X13868Y8203D01*
X13863Y8198D01*
X13868Y8165D02*
Y8098D01*
X13891D02*
Y8198D01*
X14648Y8193D02*
X14662Y8198D01*
X14648Y8193D02*
X14638Y8179D01*
X14634Y8155D01*
Y8141D01*
X14638Y8117D01*
X14648Y8103D01*
X14662Y8098D01*
X14672D01*
X14686Y8103D01*
X14695Y8117D01*
X14700Y8141D01*
Y8155D01*
X14695Y8179D01*
X14686Y8193D01*
X14672Y8198D01*
X14662D01*
X14727Y8108D02*
X14723Y8103D01*
X14727Y8098D01*
X14732Y8103D01*
X14727Y8108D01*
X14763Y8193D02*
X14778Y8198D01*
X14763Y8193D02*
X14759Y8184D01*
Y8174D01*
X14763Y8165D01*
X14773Y8160D01*
X14792Y8155D01*
X14806Y8150D01*
X14816Y8141D01*
X14821Y8131D01*
Y8117D01*
X14816Y8108D01*
X14811Y8103D01*
X14797Y8098D01*
X14778D01*
X14763Y8103D01*
X14759Y8108D01*
X14754Y8117D01*
Y8131D01*
X14759Y8141D01*
X14768Y8150D01*
X14783Y8155D01*
X14802Y8160D01*
X14811Y8165D01*
X14816Y8174D01*
Y8184D01*
X14811Y8193D01*
X14797Y8198D01*
X14778D01*
X14843Y8179D02*
X14853Y8184D01*
X14867Y8198D01*
Y8098D01*
X14921Y8174D02*
Y8179D01*
X14926Y8188D01*
X14931Y8193D01*
X14940Y8198D01*
X14959D01*
X14969Y8193D01*
X14973Y8188D01*
X14978Y8179D01*
Y8169D01*
X14973Y8160D01*
X14964Y8146D01*
X14916Y8098D01*
X14983D01*
X15015Y8193D02*
X15029Y8198D01*
X15015Y8193D02*
X15010Y8184D01*
Y8174D01*
X15015Y8165D01*
X15024Y8160D01*
X15043Y8155D01*
X15058Y8150D01*
X15067Y8141D01*
X15072Y8131D01*
Y8117D01*
X15067Y8108D01*
X15062Y8103D01*
X15048Y8098D01*
X15029D01*
X15015Y8103D01*
X15010Y8108D01*
X15005Y8117D01*
Y8131D01*
X15010Y8141D01*
X15020Y8150D01*
X15034Y8155D01*
X15053Y8160D01*
X15062Y8165D01*
X15067Y8174D01*
Y8184D01*
X15062Y8193D01*
X15048Y8198D01*
X15029D01*
X15094Y8165D02*
Y8098D01*
Y8146D02*
X15109Y8160D01*
X15118Y8165D01*
X15132D01*
X15142Y8160D01*
X15147Y8146D01*
Y8098D01*
Y8146D02*
X15161Y8160D01*
X15171Y8165D01*
X15185D01*
X15194Y8160D01*
X15199Y8146D01*
Y8098D01*
X15231D02*
Y8165D01*
X15245Y8160D02*
X15231Y8146D01*
X15245Y8160D02*
X15254Y8165D01*
X15269D01*
X15278Y8160D01*
X15283Y8146D01*
Y8098D01*
Y8146D02*
X15297Y8160D01*
X15307Y8165D01*
X15321D01*
X15330Y8160D01*
X15335Y8146D01*
Y8098D01*
X12763Y8374D02*
Y8379D01*
X12768Y8388D01*
X12773Y8393D01*
X12782Y8398D01*
X12801D01*
X12811Y8393D01*
X12816Y8388D01*
X12820Y8379D01*
Y8369D01*
X12816Y8360D01*
X12806Y8346D01*
X12758Y8298D01*
X12825D01*
X12857Y8398D02*
X12905D01*
X12857D02*
X12852Y8355D01*
X12857Y8360D01*
X12871Y8365D01*
X12886D01*
X12900Y8360D01*
X12909Y8350D01*
X12914Y8336D01*
Y8327D01*
X12909Y8312D01*
X12900Y8303D01*
X12886Y8298D01*
X12871D01*
X12857Y8303D01*
X12852Y8308D01*
X12848Y8317D01*
X12951Y8393D02*
X12965Y8398D01*
X12951Y8393D02*
X12941Y8379D01*
X12937Y8355D01*
Y8341D01*
X12941Y8317D01*
X12951Y8303D01*
X12965Y8298D01*
X12975D01*
X12989Y8303D01*
X12998Y8317D01*
X13003Y8341D01*
Y8355D01*
X12998Y8379D01*
X12989Y8393D01*
X12975Y8398D01*
X12965D01*
X13549D02*
X13602D01*
X13573Y8360D01*
X13587D01*
X13597Y8355D01*
X13602Y8350D01*
X13606Y8336D01*
Y8327D01*
X13602Y8312D01*
X13592Y8303D01*
X13578Y8298D01*
X13564D01*
X13549Y8303D01*
X13545Y8308D01*
X13540Y8317D01*
X13681Y8393D02*
X13686Y8384D01*
X13681Y8393D02*
X13667Y8398D01*
X13657D01*
X13643Y8393D01*
X13634Y8379D01*
X13629Y8355D01*
Y8331D01*
X13634Y8312D01*
X13643Y8303D01*
X13657Y8298D01*
X13662D01*
X13676Y8303D01*
X13686Y8312D01*
X13691Y8327D01*
Y8331D01*
X13686Y8346D01*
X13676Y8355D01*
X13662Y8360D01*
X13657D01*
X13643Y8355D01*
X13634Y8346D01*
X13629Y8331D01*
X13713Y8365D02*
Y8298D01*
Y8346D02*
X13727Y8360D01*
X13736Y8365D01*
X13751D01*
X13760Y8360D01*
X13765Y8346D01*
Y8298D01*
Y8346D02*
X13779Y8360D01*
X13789Y8365D01*
X13803D01*
X13813Y8360D01*
X13817Y8346D01*
Y8298D01*
X13863Y8393D02*
X13858Y8398D01*
X13863Y8393D02*
X13868Y8398D01*
X13863Y8403D01*
X13858Y8398D01*
X13863Y8365D02*
Y8298D01*
X13885D02*
Y8398D01*
X14648Y8393D02*
X14662Y8398D01*
X14648Y8393D02*
X14638Y8379D01*
X14634Y8355D01*
Y8341D01*
X14638Y8317D01*
X14648Y8303D01*
X14662Y8298D01*
X14672D01*
X14686Y8303D01*
X14695Y8317D01*
X14700Y8341D01*
Y8355D01*
X14695Y8379D01*
X14686Y8393D01*
X14672Y8398D01*
X14662D01*
X14727Y8308D02*
X14723Y8303D01*
X14727Y8298D01*
X14732Y8303D01*
X14727Y8308D01*
X14811Y8350D02*
X14816Y8365D01*
X14811Y8350D02*
X14802Y8341D01*
X14787Y8336D01*
X14783D01*
X14768Y8341D01*
X14759Y8350D01*
X14754Y8365D01*
Y8369D01*
X14759Y8384D01*
X14768Y8393D01*
X14783Y8398D01*
X14787D01*
X14802Y8393D01*
X14811Y8384D01*
X14816Y8365D01*
Y8341D01*
X14811Y8317D01*
X14802Y8303D01*
X14787Y8298D01*
X14778D01*
X14763Y8303D01*
X14759Y8312D01*
X14843Y8379D02*
X14853Y8384D01*
X14867Y8398D01*
Y8298D01*
X14916Y8331D02*
X14964Y8398D01*
X14988Y8331D02*
X14916D01*
X14964Y8298D02*
Y8398D01*
X15005Y8331D02*
X15053Y8398D01*
X15077Y8331D02*
X15005D01*
X15053Y8298D02*
Y8398D01*
X15094Y8365D02*
Y8298D01*
Y8346D02*
X15109Y8360D01*
X15118Y8365D01*
X15132D01*
X15142Y8360D01*
X15147Y8346D01*
Y8298D01*
Y8346D02*
X15161Y8360D01*
X15171Y8365D01*
X15185D01*
X15194Y8360D01*
X15199Y8346D01*
Y8298D01*
X15231D02*
Y8365D01*
X15245Y8360D02*
X15231Y8346D01*
X15245Y8360D02*
X15254Y8365D01*
X15269D01*
X15278Y8360D01*
X15283Y8346D01*
Y8298D01*
Y8346D02*
X15297Y8360D01*
X15307Y8365D01*
X15321D01*
X15330Y8360D01*
X15335Y8346D01*
Y8298D01*
X12768Y8584D02*
X12758Y8579D01*
X12768Y8584D02*
X12782Y8598D01*
Y8498D01*
X12841Y8598D02*
X12889D01*
X12841D02*
X12837Y8555D01*
X12841Y8560D01*
X12856Y8565D01*
X12870D01*
X12884Y8560D01*
X12894Y8550D01*
X12898Y8536D01*
Y8527D01*
X12894Y8512D01*
X12884Y8503D01*
X12870Y8498D01*
X12856D01*
X12841Y8503D01*
X12837Y8508D01*
X12832Y8517D01*
X13592Y8593D02*
X13597Y8584D01*
X13592Y8593D02*
X13578Y8598D01*
X13568D01*
X13554Y8593D01*
X13545Y8579D01*
X13540Y8555D01*
Y8531D01*
X13545Y8512D01*
X13554Y8503D01*
X13568Y8498D01*
X13573D01*
X13587Y8503D01*
X13597Y8512D01*
X13602Y8527D01*
Y8531D01*
X13597Y8546D01*
X13587Y8555D01*
X13573Y8560D01*
X13568D01*
X13554Y8555D01*
X13545Y8546D01*
X13540Y8531D01*
X13638Y8593D02*
X13652Y8598D01*
X13638Y8593D02*
X13628Y8579D01*
X13624Y8555D01*
Y8541D01*
X13628Y8517D01*
X13638Y8503D01*
X13652Y8498D01*
X13662D01*
X13676Y8503D01*
X13685Y8517D01*
X13690Y8541D01*
Y8555D01*
X13685Y8579D01*
X13676Y8593D01*
X13662Y8598D01*
X13652D01*
X13713Y8565D02*
Y8498D01*
Y8546D02*
X13727Y8560D01*
X13736Y8565D01*
X13751D01*
X13760Y8560D01*
X13765Y8546D01*
Y8498D01*
Y8546D02*
X13779Y8560D01*
X13789Y8565D01*
X13803D01*
X13813Y8560D01*
X13817Y8546D01*
Y8498D01*
X13863Y8593D02*
X13858Y8598D01*
X13863Y8593D02*
X13868Y8598D01*
X13863Y8603D01*
X13858Y8598D01*
X13863Y8565D02*
Y8498D01*
X13885D02*
Y8598D01*
X14634Y8579D02*
X14643Y8584D01*
X14657Y8598D01*
Y8498D01*
X14707Y8503D02*
X14712Y8508D01*
X14707Y8503D02*
X14712Y8498D01*
X14716Y8503D01*
X14712Y8508D01*
X14748Y8598D02*
X14795D01*
X14748D02*
X14743Y8555D01*
X14748Y8560D01*
X14762Y8565D01*
X14776D01*
X14791Y8560D01*
X14800Y8550D01*
X14805Y8536D01*
Y8527D01*
X14800Y8512D01*
X14791Y8503D01*
X14776Y8498D01*
X14762D01*
X14748Y8503D01*
X14743Y8508D01*
X14738Y8517D01*
X14832Y8574D02*
Y8579D01*
X14837Y8588D01*
X14842Y8593D01*
X14851Y8598D01*
X14870D01*
X14880Y8593D01*
X14884Y8588D01*
X14889Y8579D01*
Y8569D01*
X14884Y8560D01*
X14875Y8546D01*
X14827Y8498D01*
X14894D01*
X14916Y8531D02*
X14964Y8598D01*
X14988Y8531D02*
X14916D01*
X14964Y8498D02*
Y8598D01*
X15005Y8565D02*
Y8498D01*
Y8546D02*
X15020Y8560D01*
X15029Y8565D01*
X15043D01*
X15053Y8560D01*
X15058Y8546D01*
Y8498D01*
Y8546D02*
X15072Y8560D01*
X15081Y8565D01*
X15096D01*
X15105Y8560D01*
X15110Y8546D01*
Y8498D01*
X15141D02*
Y8565D01*
X15156Y8560D02*
X15141Y8546D01*
X15156Y8560D02*
X15165Y8565D01*
X15180D01*
X15189Y8560D01*
X15194Y8546D01*
Y8498D01*
Y8546D02*
X15208Y8560D01*
X15218Y8565D01*
X15232D01*
X15241Y8560D01*
X15246Y8546D01*
Y8498D01*
X12806Y8798D02*
X12758Y8731D01*
X12830D01*
X12806Y8698D02*
Y8798D01*
X13559Y8698D02*
X13606Y8798D01*
X13540D01*
X13643Y8793D02*
X13657Y8798D01*
X13643Y8793D02*
X13634Y8779D01*
X13629Y8755D01*
Y8741D01*
X13634Y8717D01*
X13643Y8703D01*
X13657Y8698D01*
X13667D01*
X13681Y8703D01*
X13691Y8717D01*
X13695Y8741D01*
Y8755D01*
X13691Y8779D01*
X13681Y8793D01*
X13667Y8798D01*
X13657D01*
X13718Y8765D02*
Y8698D01*
Y8746D02*
X13732Y8760D01*
X13742Y8765D01*
X13756D01*
X13765Y8760D01*
X13770Y8746D01*
Y8698D01*
Y8746D02*
X13784Y8760D01*
X13794Y8765D01*
X13808D01*
X13818Y8760D01*
X13823Y8746D01*
Y8698D01*
X13868Y8793D02*
X13863Y8798D01*
X13868Y8793D02*
X13873Y8798D01*
X13868Y8803D01*
X13863Y8798D01*
X13868Y8765D02*
Y8698D01*
X13891D02*
Y8798D01*
X14634Y8779D02*
X14643Y8784D01*
X14657Y8798D01*
Y8698D01*
X14707Y8703D02*
X14712Y8708D01*
X14707Y8703D02*
X14712Y8698D01*
X14716Y8703D01*
X14712Y8708D01*
X14757Y8698D02*
X14805Y8798D01*
X14738D01*
X14846Y8698D02*
X14894Y8798D01*
X14827D01*
X14926Y8793D02*
X14940Y8798D01*
X14926Y8793D02*
X14921Y8784D01*
Y8774D01*
X14926Y8765D01*
X14935Y8760D01*
X14954Y8755D01*
X14969Y8750D01*
X14978Y8741D01*
X14983Y8731D01*
Y8717D01*
X14978Y8708D01*
X14973Y8703D01*
X14959Y8698D01*
X14940D01*
X14926Y8703D01*
X14921Y8708D01*
X14916Y8717D01*
Y8731D01*
X14921Y8741D01*
X14931Y8750D01*
X14945Y8755D01*
X14964Y8760D01*
X14973Y8765D01*
X14978Y8774D01*
Y8784D01*
X14973Y8793D01*
X14959Y8798D01*
X14940D01*
X15005Y8765D02*
Y8698D01*
Y8746D02*
X15020Y8760D01*
X15029Y8765D01*
X15043D01*
X15053Y8760D01*
X15058Y8746D01*
Y8698D01*
Y8746D02*
X15072Y8760D01*
X15081Y8765D01*
X15096D01*
X15105Y8760D01*
X15110Y8746D01*
Y8698D01*
X15141D02*
Y8765D01*
X15156Y8760D02*
X15141Y8746D01*
X15156Y8760D02*
X15165Y8765D01*
X15180D01*
X15189Y8760D01*
X15194Y8746D01*
Y8698D01*
Y8746D02*
X15208Y8760D01*
X15218Y8765D01*
X15232D01*
X15241Y8760D01*
X15246Y8746D01*
Y8698D01*
X12768Y8984D02*
X12758Y8979D01*
X12768Y8984D02*
X12782Y8998D01*
Y8898D01*
X12841Y8998D02*
X12889D01*
X12841D02*
X12837Y8955D01*
X12841Y8960D01*
X12856Y8965D01*
X12870D01*
X12884Y8960D01*
X12894Y8950D01*
X12898Y8936D01*
Y8927D01*
X12894Y8912D01*
X12884Y8903D01*
X12870Y8898D01*
X12856D01*
X12841Y8903D01*
X12837Y8908D01*
X12832Y8917D01*
X13597Y8950D02*
X13602Y8965D01*
X13597Y8950D02*
X13587Y8941D01*
X13573Y8936D01*
X13568D01*
X13554Y8941D01*
X13545Y8950D01*
X13540Y8965D01*
Y8969D01*
X13545Y8984D01*
X13554Y8993D01*
X13568Y8998D01*
X13573D01*
X13587Y8993D01*
X13597Y8984D01*
X13602Y8965D01*
Y8941D01*
X13597Y8917D01*
X13587Y8903D01*
X13573Y8898D01*
X13564D01*
X13549Y8903D01*
X13545Y8912D01*
X13638Y8998D02*
X13686D01*
X13638D02*
X13634Y8955D01*
X13638Y8960D01*
X13653Y8965D01*
X13667D01*
X13681Y8960D01*
X13691Y8950D01*
X13695Y8936D01*
Y8927D01*
X13691Y8912D01*
X13681Y8903D01*
X13667Y8898D01*
X13653D01*
X13638Y8903D01*
X13634Y8908D01*
X13629Y8917D01*
X13718Y8898D02*
Y8965D01*
X13732Y8960D02*
X13718Y8946D01*
X13732Y8960D02*
X13742Y8965D01*
X13756D01*
X13765Y8960D01*
X13770Y8946D01*
Y8898D01*
Y8946D02*
X13784Y8960D01*
X13794Y8965D01*
X13808D01*
X13818Y8960D01*
X13823Y8946D01*
Y8898D01*
X13868Y8993D02*
X13863Y8998D01*
X13868Y8993D02*
X13873Y8998D01*
X13868Y9003D01*
X13863Y8998D01*
X13868Y8965D02*
Y8898D01*
X13891D02*
Y8998D01*
X14638Y8979D02*
Y8974D01*
Y8979D02*
X14643Y8988D01*
X14648Y8993D01*
X14657Y8998D01*
X14676D01*
X14686Y8993D01*
X14691Y8988D01*
X14695Y8979D01*
Y8969D01*
X14691Y8960D01*
X14681Y8946D01*
X14634Y8898D01*
X14700D01*
X14723Y8903D02*
X14727Y8908D01*
X14723Y8903D02*
X14727Y8898D01*
X14732Y8903D01*
X14727Y8908D01*
X14754Y8931D02*
X14802Y8998D01*
X14825Y8931D02*
X14754D01*
X14802Y8898D02*
Y8998D01*
X14843Y8979D02*
X14853Y8984D01*
X14867Y8998D01*
Y8898D01*
X14926Y8998D02*
X14978D01*
X14950Y8960D01*
X14964D01*
X14973Y8955D01*
X14978Y8950D01*
X14983Y8936D01*
Y8927D01*
X14978Y8912D01*
X14969Y8903D01*
X14954Y8898D01*
X14940D01*
X14926Y8903D01*
X14921Y8908D01*
X14916Y8917D01*
X15005Y8898D02*
Y8965D01*
X15020Y8960D02*
X15005Y8946D01*
X15020Y8960D02*
X15029Y8965D01*
X15043D01*
X15053Y8960D01*
X15058Y8946D01*
Y8898D01*
Y8946D02*
X15072Y8960D01*
X15081Y8965D01*
X15096D01*
X15105Y8960D01*
X15110Y8946D01*
Y8898D01*
X15141D02*
Y8965D01*
X15156Y8960D02*
X15141Y8946D01*
X15156Y8960D02*
X15165Y8965D01*
X15180D01*
X15189Y8960D01*
X15194Y8946D01*
Y8898D01*
Y8946D02*
X15208Y8960D01*
X15218Y8965D01*
X15232D01*
X15241Y8960D01*
X15246Y8946D01*
Y8898D01*
X12763Y7979D02*
Y7974D01*
Y7979D02*
X12768Y7988D01*
X12773Y7993D01*
X12782Y7998D01*
X12801D01*
X12811Y7993D01*
X12816Y7988D01*
X12820Y7979D01*
Y7969D01*
X12816Y7960D01*
X12806Y7946D01*
X12758Y7898D01*
X12825D01*
X12905Y7950D02*
X12909Y7965D01*
X12905Y7950D02*
X12895Y7941D01*
X12881Y7936D01*
X12876D01*
X12862Y7941D01*
X12852Y7950D01*
X12848Y7965D01*
Y7969D01*
X12852Y7984D01*
X12862Y7993D01*
X12876Y7998D01*
X12881D01*
X12895Y7993D01*
X12905Y7984D01*
X12909Y7965D01*
Y7941D01*
X12905Y7917D01*
X12895Y7903D01*
X12881Y7898D01*
X12871D01*
X12857Y7903D01*
X12852Y7912D01*
X12951Y7993D02*
X12965Y7998D01*
X12951Y7993D02*
X12941Y7979D01*
X12937Y7955D01*
Y7941D01*
X12941Y7917D01*
X12951Y7903D01*
X12965Y7898D01*
X12975D01*
X12989Y7903D01*
X12998Y7917D01*
X13003Y7941D01*
Y7955D01*
X12998Y7979D01*
X12989Y7993D01*
X12975Y7998D01*
X12965D01*
X13573D02*
Y7898D01*
X13540Y7998D02*
X13606D01*
X13633Y7960D02*
X13642Y7965D01*
X13633Y7960D02*
X13623Y7950D01*
X13618Y7936D01*
Y7927D01*
X13623Y7912D01*
X13633Y7903D01*
X13642Y7898D01*
X13656D01*
X13666Y7903D01*
X13675Y7912D01*
X13680Y7927D01*
Y7936D01*
X13675Y7950D01*
X13666Y7960D01*
X13656Y7965D01*
X13642D01*
X13716Y7998D02*
Y7917D01*
X13721Y7903D01*
X13731Y7898D01*
X13740D01*
X13735Y7965D02*
X13702D01*
X13812D02*
Y7898D01*
Y7950D02*
X13802Y7960D01*
X13793Y7965D01*
X13778D01*
X13769Y7960D01*
X13759Y7950D01*
X13754Y7936D01*
Y7927D01*
X13759Y7912D01*
X13769Y7903D01*
X13778Y7898D01*
X13793D01*
X13802Y7903D01*
X13812Y7912D01*
X13838Y7898D02*
Y7998D01*
D02*
M02*
