*%FSLAX23Y23*%
*%MOIN*%
G01*
%ADD11C,0.006*%
%ADD12C,0.007*%
%ADD13C,0.008*%
%ADD14C,0.010*%
%ADD15C,0.012*%
%ADD16C,0.020*%
%ADD17C,0.032*%
%ADD18C,0.036*%
%ADD19C,0.050*%
%ADD20C,0.052*%
%ADD21C,0.055*%
%ADD22C,0.056*%
%ADD23C,0.060*%
%ADD24C,0.061*%
%ADD25C,0.062*%
%ADD26C,0.066*%
%ADD27C,0.068*%
%ADD28C,0.070*%
%ADD29C,0.080*%
%ADD30C,0.090*%
%ADD31C,0.095*%
%ADD32C,0.115*%
%ADD33C,0.120*%
%ADD34C,0.125*%
%ADD35C,0.126*%
%ADD36C,0.131*%
%ADD37C,0.150*%
%ADD38C,0.156*%
%ADD39R,0.062X0.062*%
%ADD40R,0.068X0.068*%
D11*
X10926Y8876D02*
Y8893D01*
Y8885D02*
Y8876D01*
Y8885D02*
X10976D01*
X10977D01*
X10976D02*
X10968Y8893D01*
X10976Y8851D02*
X10926D01*
X10943D01*
X10976Y8818D01*
X10951Y8843D01*
X10926Y8818D01*
X11106Y9123D02*
Y9173D01*
X11131D01*
X11139Y9165D01*
Y9148D01*
X11131Y9140D01*
X11106D01*
X11123D02*
X11139Y9123D01*
X11156D02*
X11173D01*
X11164D01*
Y9173D01*
X11165D01*
X11164D02*
X11156Y9165D01*
X11198Y9123D02*
X11214D01*
X11206D01*
Y9173D01*
X11207D01*
X11206D02*
X11198Y9165D01*
X11136Y8783D02*
Y8766D01*
Y8775D01*
X11186D01*
X11187D01*
X11186D02*
X11178Y8783D01*
Y8741D02*
X11186Y8733D01*
Y8716D01*
X11178Y8708D01*
X11144D01*
X11136Y8716D01*
Y8733D01*
X11144Y8741D01*
X11178D01*
Y8691D02*
X11186Y8683D01*
Y8666D01*
X11178Y8658D01*
X11144D01*
X11136Y8666D01*
Y8683D01*
X11144Y8691D01*
X11178D01*
X11186Y8641D02*
X11136D01*
X11153D01*
X11186Y8608D01*
X11161Y8633D01*
X11136Y8608D01*
X11131Y9053D02*
X11181D01*
Y9028D01*
X11173Y9020D01*
X11156D01*
X11148Y9028D01*
Y9053D01*
Y9036D02*
X11131Y9020D01*
Y9003D02*
Y8970D01*
Y9003D02*
X11164Y8970D01*
X11173D01*
X11181Y8978D01*
Y8995D01*
X11173Y9003D01*
X11131Y8953D02*
Y8936D01*
Y8945D01*
X11181D01*
X11182D01*
X11181D02*
X11173Y8953D01*
X11391Y8938D02*
Y8905D01*
Y8938D02*
X11424Y8905D01*
X11433D01*
X11441Y8913D01*
Y8930D01*
X11433Y8938D01*
Y8888D02*
X11441Y8880D01*
Y8863D01*
X11433Y8855D01*
X11399D01*
X11391Y8863D01*
Y8880D01*
X11399Y8888D01*
X11433D01*
X11441Y8838D02*
X11391D01*
X11408D01*
X11441Y8805D01*
X11416Y8830D01*
X11391Y8805D01*
X11231Y9118D02*
Y9168D01*
X11256D01*
X11264Y9160D01*
Y9143D01*
X11256Y9135D01*
X11231D01*
X11248D02*
X11264Y9118D01*
X11281D02*
X11298D01*
X11289D01*
Y9168D01*
X11290D01*
X11289D02*
X11281Y9160D01*
X11323Y9168D02*
X11356D01*
Y9160D01*
X11323Y9126D01*
Y9118D01*
X11586Y8938D02*
Y8921D01*
Y8930D01*
X11636D01*
X11637D01*
X11636D02*
X11628Y8938D01*
Y8896D02*
X11636Y8888D01*
Y8871D01*
X11628Y8863D01*
X11594D01*
X11586Y8871D01*
Y8888D01*
X11594Y8896D01*
X11628D01*
Y8846D02*
X11636Y8838D01*
Y8821D01*
X11628Y8813D01*
X11594D01*
X11586Y8821D01*
Y8838D01*
X11594Y8846D01*
X11628D01*
X11636Y8796D02*
X11586D01*
X11603D01*
X11636Y8763D01*
X11611Y8788D01*
X11586Y8763D01*
X11576Y8598D02*
X11626D01*
Y8573D01*
X11618Y8565D01*
X11601D01*
X11593Y8573D01*
Y8598D01*
Y8581D02*
X11576Y8565D01*
Y8548D02*
Y8515D01*
Y8548D02*
X11609Y8515D01*
X11618D01*
X11626Y8523D01*
Y8540D01*
X11618Y8548D01*
Y8498D02*
X11626Y8490D01*
Y8473D01*
X11618Y8465D01*
X11584D01*
X11576Y8473D01*
Y8490D01*
X11584Y8498D01*
X11618D01*
X11681Y8916D02*
Y8933D01*
Y8925D02*
Y8916D01*
Y8925D02*
X11731D01*
X11732D01*
X11731D02*
X11723Y8933D01*
Y8891D02*
X11731Y8883D01*
Y8866D01*
X11723Y8858D01*
X11689D01*
X11681Y8866D01*
Y8883D01*
X11689Y8891D01*
X11723D01*
Y8841D02*
X11731Y8833D01*
Y8816D01*
X11723Y8808D01*
X11689D01*
X11681Y8816D01*
Y8833D01*
X11689Y8841D01*
X11723D01*
X11731Y8791D02*
X11681D01*
X11698D01*
X11731Y8758D01*
X11706Y8783D01*
X11681Y8758D01*
X11656Y9108D02*
Y9158D01*
X11681D01*
X11689Y9150D01*
Y9133D01*
X11681Y9125D01*
X11656D01*
X11673D02*
X11689Y9108D01*
X11706D02*
X11723D01*
X11714D01*
Y9158D01*
X11715D01*
X11714D02*
X11706Y9150D01*
X11773Y9158D02*
Y9108D01*
X11748Y9133D02*
X11773Y9158D01*
X11781Y9133D02*
X11748D01*
X11781Y8918D02*
Y8901D01*
Y8910D01*
X11831D01*
X11832D01*
X11831D02*
X11823Y8918D01*
Y8876D02*
X11831Y8868D01*
Y8851D01*
X11823Y8843D01*
X11789D01*
X11781Y8851D01*
Y8868D01*
X11789Y8876D01*
X11823D01*
X11831Y8826D02*
X11781D01*
X11798D01*
X11831Y8793D01*
X11806Y8818D01*
X11781Y8793D01*
X11866Y8903D02*
X11916D01*
Y8878D01*
X11908Y8870D01*
X11891D01*
X11883Y8878D01*
Y8903D01*
Y8886D02*
X11866Y8870D01*
Y8853D02*
Y8836D01*
Y8845D01*
X11916D01*
X11917D01*
X11916D02*
X11908Y8853D01*
Y8811D02*
X11916Y8803D01*
Y8786D01*
X11908Y8778D01*
X11899D01*
X11900D01*
X11899D02*
X11900D01*
X11899D02*
X11900D01*
X11899D02*
X11891Y8786D01*
Y8795D01*
Y8786D01*
X11883Y8778D01*
X11874D01*
X11866Y8786D01*
Y8803D01*
X11874Y8811D01*
X10678Y8098D02*
X10661D01*
X10669D02*
X10678D01*
X10669D02*
Y8148D01*
X10670D01*
X10669D02*
X10661Y8140D01*
X10703D02*
X10711Y8148D01*
X10728D01*
X10736Y8140D01*
Y8106D01*
X10728Y8098D01*
X10711D01*
X10703Y8106D01*
Y8140D01*
X10753Y8131D02*
Y8106D01*
X10761Y8098D01*
X10786D01*
Y8131D01*
X10803Y8148D02*
X10836D01*
X10803D02*
Y8123D01*
X10819D01*
X10803D01*
Y8098D01*
X10709Y8200D02*
X10701Y8208D01*
X10684D01*
X10676Y8200D01*
Y8166D01*
X10684Y8158D01*
X10701D01*
X10709Y8166D01*
X10726Y8200D02*
X10734Y8208D01*
X10751D01*
X10759Y8200D01*
Y8191D01*
X10760D01*
X10759D02*
X10760D01*
X10759D02*
X10760D01*
X10759D02*
X10751Y8183D01*
X10743D01*
X10751D01*
X10759Y8175D01*
Y8166D01*
X10751Y8158D01*
X10734D01*
X10726Y8166D01*
X10776Y8158D02*
X10809D01*
X10776D02*
X10809Y8191D01*
Y8200D01*
X10801Y8208D01*
X10784D01*
X10776Y8200D01*
X10913Y8340D02*
X10921Y8348D01*
Y8365D01*
X10913Y8373D01*
X10879D01*
X10871Y8365D01*
Y8348D01*
X10879Y8340D01*
X10871Y8323D02*
Y8290D01*
Y8323D02*
X10904Y8290D01*
X10913D01*
X10921Y8298D01*
Y8315D01*
X10913Y8323D01*
Y8273D02*
X10921Y8265D01*
Y8248D01*
X10913Y8240D01*
X10904D01*
X10905D01*
X10904D02*
X10905D01*
X10904D02*
X10905D01*
X10904D02*
X10896Y8248D01*
Y8256D01*
Y8248D01*
X10888Y8240D01*
X10879D01*
X10871Y8248D01*
Y8265D01*
X10879Y8273D01*
X11066Y8213D02*
X11099D01*
X11083D01*
Y8163D01*
X11116D02*
Y8213D01*
Y8163D02*
X11149D01*
X11166Y8205D02*
X11174Y8213D01*
X11191D01*
X11199Y8205D01*
Y8171D01*
X11191Y8163D01*
X11174D01*
X11166Y8171D01*
Y8205D01*
X11216Y8213D02*
X11249D01*
Y8205D01*
X11216Y8171D01*
Y8163D01*
X11266D02*
X11299D01*
X11266D02*
X11299Y8196D01*
Y8205D01*
X11291Y8213D01*
X11274D01*
X11266Y8205D01*
X10986Y7998D02*
Y7956D01*
X10994Y7948D01*
X11011D01*
X11019Y7956D01*
Y7998D01*
X11036Y7948D02*
X11053D01*
X11044D01*
Y7998D01*
X11045D01*
X11044D02*
X11036Y7990D01*
X11078Y7998D02*
X11111D01*
X11078D02*
Y7973D01*
X11094Y7981D01*
X11103D01*
X11111Y7973D01*
Y7956D01*
X11103Y7948D01*
X11086D01*
X11078Y7956D01*
X11031Y7788D02*
Y7771D01*
Y7780D01*
X11081D01*
X11082D01*
X11081D02*
X11073Y7788D01*
Y7746D02*
X11081Y7738D01*
Y7721D01*
X11073Y7713D01*
X11039D01*
X11031Y7721D01*
Y7738D01*
X11039Y7746D01*
X11073D01*
X11081Y7696D02*
X11031D01*
X11048D01*
X11081Y7663D01*
X11056Y7688D01*
X11031Y7663D01*
X11056Y7438D02*
X11006D01*
X11056D02*
Y7413D01*
X11048Y7405D01*
X11031D01*
X11023Y7413D01*
Y7438D01*
Y7421D02*
X11006Y7405D01*
Y7388D02*
Y7371D01*
Y7380D01*
X11056D01*
X11057D01*
X11056D02*
X11048Y7388D01*
Y7346D02*
X11056Y7338D01*
Y7321D01*
X11048Y7313D01*
X11039D01*
X11031Y7321D01*
X11023Y7313D01*
X11014D01*
X11006Y7321D01*
Y7338D01*
X11014Y7346D01*
X11023D01*
X11031Y7338D01*
X11039Y7346D01*
X11048D01*
X11031Y7338D02*
Y7321D01*
X11126Y7776D02*
Y7793D01*
Y7785D02*
Y7776D01*
Y7785D02*
X11176D01*
X11177D01*
X11176D02*
X11168Y7793D01*
Y7751D02*
X11176Y7743D01*
Y7726D01*
X11168Y7718D01*
X11134D01*
X11126Y7726D01*
Y7743D01*
X11134Y7751D01*
X11168D01*
X11176Y7701D02*
X11126D01*
X11143D01*
X11176Y7668D01*
X11151Y7693D01*
X11126Y7668D01*
X11101Y7448D02*
Y7398D01*
Y7448D02*
X11126D01*
X11134Y7440D01*
Y7423D01*
X11126Y7415D01*
X11101D01*
X11118D02*
X11134Y7398D01*
X11151D02*
X11168D01*
X11159D01*
Y7448D01*
X11160D01*
X11159D02*
X11151Y7440D01*
X11193Y7406D02*
X11201Y7398D01*
X11218D01*
X11226Y7406D01*
Y7440D01*
X11218Y7448D01*
X11201D01*
X11193Y7440D01*
Y7431D01*
X11201Y7423D01*
X11226D01*
X11231Y7776D02*
Y7793D01*
Y7785D02*
Y7776D01*
Y7785D02*
X11281D01*
X11282D01*
X11281D02*
X11273Y7793D01*
X11281Y7751D02*
X11231D01*
X11264Y7735D02*
X11281Y7751D01*
X11264Y7735D02*
X11281Y7718D01*
X11231D01*
X11196Y7933D02*
Y7983D01*
X11221D01*
X11229Y7975D01*
Y7958D01*
X11221Y7950D01*
X11196D01*
X11213D02*
X11229Y7933D01*
X11246D02*
X11263D01*
X11254D01*
Y7983D01*
X11255D01*
X11254D02*
X11246Y7975D01*
X11288Y7983D02*
X11321D01*
X11288D02*
Y7958D01*
X11304Y7966D01*
X11313D01*
X11321Y7958D01*
Y7941D01*
X11313Y7933D01*
X11296D01*
X11288Y7941D01*
X11231Y8766D02*
Y8783D01*
Y8775D02*
Y8766D01*
Y8775D02*
X11281D01*
X11282D01*
X11281D02*
X11273Y8783D01*
Y8741D02*
X11281Y8733D01*
Y8716D01*
X11273Y8708D01*
X11239D01*
X11231Y8716D01*
Y8733D01*
X11239Y8741D01*
X11273D01*
Y8691D02*
X11281Y8683D01*
Y8666D01*
X11273Y8658D01*
X11239D01*
X11231Y8666D01*
Y8683D01*
X11239Y8691D01*
X11273D01*
X11281Y8641D02*
X11231D01*
X11248D01*
X11281Y8608D01*
X11256Y8633D01*
X11231Y8608D01*
X11236Y9068D02*
X11286D01*
Y9043D01*
X11278Y9035D01*
X11261D01*
X11253Y9043D01*
Y9068D01*
Y9051D02*
X11236Y9035D01*
Y9018D02*
Y8985D01*
Y9018D02*
X11269Y8985D01*
X11278D01*
X11286Y8993D01*
Y9010D01*
X11278Y9018D01*
X11236Y8968D02*
Y8935D01*
Y8968D02*
X11269Y8935D01*
X11278D01*
X11286Y8943D01*
Y8960D01*
X11278Y8968D01*
X11331Y7793D02*
Y7776D01*
Y7785D01*
X11381D01*
X11382D01*
X11381D02*
X11373Y7793D01*
X11381Y7751D02*
X11331D01*
X11364Y7735D02*
X11381Y7751D01*
X11364Y7735D02*
X11381Y7718D01*
X11331D01*
X11296Y7458D02*
Y7408D01*
Y7458D02*
X11321D01*
X11329Y7450D01*
Y7433D01*
X11321Y7425D01*
X11296D01*
X11313D02*
X11329Y7408D01*
X11346D02*
X11363D01*
X11354D01*
Y7458D01*
X11355D01*
X11354D02*
X11346Y7450D01*
X11404D02*
X11421Y7458D01*
X11404Y7450D02*
X11388Y7433D01*
Y7416D01*
X11396Y7408D01*
X11413D01*
X11421Y7416D01*
Y7425D01*
X11413Y7433D01*
X11388D01*
X11431Y7773D02*
X11439D01*
Y7765D01*
X11431D01*
Y7773D01*
Y7731D02*
Y7715D01*
Y7723D01*
X11481D01*
X11482D01*
X11481D02*
X11473Y7731D01*
X11464Y7690D02*
X11439D01*
X11431Y7681D01*
Y7656D01*
X11464D01*
X11481Y7640D02*
Y7606D01*
Y7640D02*
X11456D01*
Y7623D01*
Y7640D01*
X11431D01*
X11553Y7955D02*
X11561Y7963D01*
Y7980D01*
X11553Y7988D01*
X11519D01*
X11511Y7980D01*
Y7963D01*
X11519Y7955D01*
X11561Y7938D02*
Y7905D01*
X11553D01*
X11519Y7938D01*
X11511D01*
X11811Y8368D02*
X11861D01*
X11811D02*
Y8335D01*
Y8318D02*
X11861D01*
X11844Y8301D01*
X11861Y8285D01*
X11811D01*
Y8243D02*
X11861D01*
X11836Y8268D01*
Y8235D01*
X11853Y8218D02*
X11861Y8210D01*
Y8193D01*
X11853Y8185D01*
X11819D01*
X11811Y8193D01*
Y8210D01*
X11819Y8218D01*
X11853D01*
X11861Y8143D02*
X11811D01*
X11836Y8168D02*
X11861Y8143D01*
X11836Y8135D02*
Y8168D01*
X11811Y8118D02*
Y8101D01*
Y8110D01*
X11861D01*
X11862D01*
X11861D02*
X11853Y8118D01*
X11861Y8051D02*
X11853Y8043D01*
X11861Y8051D02*
Y8068D01*
X11853Y8076D01*
X11819D01*
X11811Y8068D01*
Y8051D01*
X11819Y8043D01*
X11861Y8026D02*
Y7993D01*
X11853D01*
X11819Y8026D01*
X11811D01*
Y7993D01*
X11836Y7976D02*
Y7943D01*
X11844Y7926D02*
X11811D01*
X11844D02*
X11861Y7910D01*
X11844Y7893D01*
X11811D01*
X11836D01*
Y7926D01*
X11861Y7876D02*
X11811D01*
Y7852D01*
X11819Y7843D01*
X11853D01*
X11861Y7852D01*
Y7876D01*
Y7810D02*
Y7793D01*
Y7802D02*
Y7810D01*
Y7802D02*
X11819D01*
X11811Y7810D01*
Y7818D01*
X11819Y7827D01*
X11824Y8553D02*
X11866D01*
X11824D02*
X11816Y8545D01*
Y8528D01*
X11824Y8520D01*
X11866D01*
X11816Y8503D02*
Y8486D01*
Y8495D01*
X11866D01*
X11867D01*
X11866D02*
X11858Y8503D01*
Y8445D02*
X11866Y8428D01*
X11858Y8445D02*
X11841Y8461D01*
X11824D01*
X11816Y8453D01*
Y8436D01*
X11824Y8428D01*
X11833D01*
X11841Y8436D01*
Y8461D01*
X11586Y8193D02*
X11578Y8185D01*
X11586Y8193D02*
Y8210D01*
X11578Y8218D01*
X11544D01*
X11536Y8210D01*
Y8193D01*
X11544Y8185D01*
X11578Y8168D02*
X11586Y8160D01*
Y8143D01*
X11578Y8135D01*
X11569D01*
X11570D01*
X11569D02*
X11570D01*
X11569D02*
X11570D01*
X11569D02*
X11561Y8143D01*
Y8151D01*
Y8143D01*
X11553Y8135D01*
X11544D01*
X11536Y8143D01*
Y8160D01*
X11544Y8168D01*
X11536Y8118D02*
Y8101D01*
Y8110D01*
X11586D01*
X11587D01*
X11586D02*
X11578Y8118D01*
X11681Y7773D02*
X11689D01*
Y7765D01*
X11681D01*
Y7773D01*
Y7731D02*
Y7715D01*
Y7723D01*
X11731D01*
X11732D01*
X11731D02*
X11723Y7731D01*
X11714Y7690D02*
X11689D01*
X11681Y7681D01*
Y7656D01*
X11714D01*
X11731Y7640D02*
Y7606D01*
Y7640D02*
X11706D01*
Y7623D01*
Y7640D01*
X11681D01*
X11718Y7960D02*
X11726Y7968D01*
Y7985D01*
X11718Y7993D01*
X11684D01*
X11676Y7985D01*
Y7968D01*
X11684Y7960D01*
X11718Y7943D02*
X11726Y7935D01*
Y7918D01*
X11718Y7910D01*
X11709D01*
X11701Y7918D01*
X11693Y7910D01*
X11684D01*
X11676Y7918D01*
Y7935D01*
X11684Y7943D01*
X11693D01*
X11701Y7935D01*
X11709Y7943D01*
X11718D01*
X11701Y7935D02*
Y7918D01*
X10776Y7023D02*
Y7003D01*
Y7013D01*
X10836D01*
X10837D01*
X10836D02*
X10826Y7023D01*
X10836Y6973D02*
X10776D01*
X10796D01*
X10836Y6933D01*
X10806Y6963D01*
X10776Y6933D01*
Y6683D02*
X10836D01*
Y6653D01*
X10826Y6643D01*
X10806D01*
X10796Y6653D01*
Y6683D01*
Y6663D02*
X10776Y6643D01*
Y6623D02*
Y6583D01*
Y6623D02*
X10816Y6583D01*
X10826D01*
X10836Y6593D01*
Y6613D01*
X10826Y6623D01*
X10836Y6533D02*
X10776D01*
X10806Y6563D02*
X10836Y6533D01*
X10806Y6523D02*
Y6563D01*
X11513Y7468D02*
X11529D01*
X11521D02*
X11513D01*
X11521D02*
Y7426D01*
X11513Y7418D01*
X11504D01*
X11496Y7426D01*
X11546Y7418D02*
X11563D01*
X11554D01*
Y7468D01*
X11555D01*
X11554D02*
X11546Y7460D01*
X11776Y7033D02*
Y7013D01*
Y7023D01*
X11836D01*
X11837D01*
X11836D02*
X11826Y7033D01*
X11836Y6983D02*
X11776D01*
X11796D01*
X11836Y6943D01*
X11806Y6973D01*
X11776Y6943D01*
Y6693D02*
X11836D01*
Y6663D01*
X11826Y6653D01*
X11806D01*
X11796Y6663D01*
Y6693D01*
Y6673D02*
X11776Y6653D01*
Y6633D02*
Y6593D01*
Y6633D02*
X11816Y6593D01*
X11826D01*
X11836Y6603D01*
Y6623D01*
X11826Y6633D01*
Y6573D02*
X11836Y6563D01*
Y6543D01*
X11826Y6533D01*
X11816D01*
X11817D01*
X11816D02*
X11817D01*
X11816D02*
X11817D01*
X11816D02*
X11806Y6543D01*
Y6553D01*
Y6543D01*
X11796Y6533D01*
X11786D01*
X11776Y6543D01*
Y6563D01*
X11786Y6573D01*
X9776Y8776D02*
Y8793D01*
Y8785D02*
Y8776D01*
Y8785D02*
X9826D01*
X9827D01*
X9826D02*
X9818Y8793D01*
Y8751D02*
X9826Y8743D01*
Y8726D01*
X9818Y8718D01*
X9784D01*
X9776Y8726D01*
Y8743D01*
X9784Y8751D01*
X9818D01*
Y8701D02*
X9826Y8693D01*
Y8676D01*
X9818Y8668D01*
X9784D01*
X9776Y8676D01*
Y8693D01*
X9784Y8701D01*
X9818D01*
X9826Y8651D02*
X9776D01*
X9793D01*
X9826Y8618D01*
X9801Y8643D01*
X9776Y8618D01*
Y9073D02*
X9826D01*
Y9048D01*
X9818Y9040D01*
X9801D01*
X9793Y9048D01*
Y9073D01*
Y9056D02*
X9776Y9040D01*
Y9023D02*
Y9006D01*
Y9015D01*
X9826D01*
X9827D01*
X9826D02*
X9818Y9023D01*
X9776Y8981D02*
Y8948D01*
Y8981D02*
X9809Y8948D01*
X9818D01*
X9826Y8956D01*
Y8973D01*
X9818Y8981D01*
X9681Y8793D02*
Y8776D01*
Y8785D01*
X9731D01*
X9732D01*
X9731D02*
X9723Y8793D01*
Y8751D02*
X9731Y8743D01*
Y8726D01*
X9723Y8718D01*
X9689D01*
X9681Y8726D01*
Y8743D01*
X9689Y8751D01*
X9723D01*
Y8701D02*
X9731Y8693D01*
Y8676D01*
X9723Y8668D01*
X9689D01*
X9681Y8676D01*
Y8693D01*
X9689Y8701D01*
X9723D01*
X9731Y8651D02*
X9681D01*
X9698D01*
X9731Y8618D01*
X9706Y8643D01*
X9681Y8618D01*
X9706Y9088D02*
X9656D01*
X9706D02*
Y9063D01*
X9698Y9055D01*
X9681D01*
X9673Y9063D01*
Y9088D01*
Y9071D02*
X9656Y9055D01*
Y9038D02*
Y9021D01*
Y9030D01*
X9706D01*
X9707D01*
X9706D02*
X9698Y9038D01*
Y8996D02*
X9706Y8988D01*
Y8971D01*
X9698Y8963D01*
X9664D01*
X9656Y8971D01*
Y8988D01*
X9664Y8996D01*
X9698D01*
X9631Y8793D02*
Y8760D01*
X9623D01*
X9589Y8793D01*
X9581D01*
Y8743D02*
X9589D01*
Y8735D01*
X9581D01*
Y8743D01*
X9631Y8701D02*
Y8668D01*
Y8701D02*
X9606D01*
X9614Y8685D01*
Y8676D01*
X9606Y8668D01*
X9589D01*
X9581Y8676D01*
Y8693D01*
X9589Y8701D01*
X9581Y8651D02*
X9631D01*
X9598D02*
X9581D01*
X9598D02*
X9631Y8618D01*
X9606Y8643D01*
X9581Y8618D01*
X9566Y9048D02*
X9616D01*
Y9023D01*
X9608Y9015D01*
X9591D01*
X9583Y9023D01*
Y9048D01*
Y9031D02*
X9566Y9015D01*
X9616Y8998D02*
Y8965D01*
X9608D01*
X9574Y8998D01*
X9566D01*
X9481Y8793D02*
Y8776D01*
Y8785D01*
X9531D01*
X9532D01*
X9531D02*
X9523Y8793D01*
X9531Y8751D02*
Y8718D01*
Y8751D02*
X9506D01*
X9514Y8735D01*
Y8726D01*
X9506Y8718D01*
X9489D01*
X9481Y8726D01*
Y8743D01*
X9489Y8751D01*
X9481Y8701D02*
X9531D01*
X9498D02*
X9481D01*
X9498D02*
X9531Y8668D01*
X9506Y8693D01*
X9481Y8668D01*
X9471Y9058D02*
X9521D01*
Y9033D01*
X9513Y9025D01*
X9496D01*
X9488Y9033D01*
Y9058D01*
Y9041D02*
X9471Y9025D01*
X9479Y9008D02*
X9471Y9000D01*
Y8983D01*
X9479Y8975D01*
X9513D01*
X9521Y8983D01*
Y9000D01*
X9513Y9008D01*
X9504D01*
X9496Y9000D01*
Y8975D01*
X9359Y9113D02*
X9351D01*
X9359D02*
Y9105D01*
X9351D01*
Y9113D01*
X9393Y9071D02*
X9401Y9063D01*
Y9046D01*
X9393Y9038D01*
X9359D01*
X9351Y9046D01*
Y9063D01*
X9359Y9071D01*
X9393D01*
Y9021D02*
X9401Y9013D01*
Y8996D01*
X9393Y8988D01*
X9359D01*
X9351Y8996D01*
Y9013D01*
X9359Y9021D01*
X9393D01*
X9351Y8971D02*
Y8955D01*
Y8963D01*
X9401D01*
X9402D01*
X9401D02*
X9393Y8971D01*
X9384Y8930D02*
X9359D01*
X9351Y8921D01*
Y8896D01*
X9384D01*
X9401Y8880D02*
Y8846D01*
Y8880D02*
X9376D01*
Y8863D01*
Y8880D01*
X9351D01*
X9453Y8930D02*
X9461Y8938D01*
Y8955D01*
X9453Y8963D01*
X9419D01*
X9411Y8955D01*
Y8938D01*
X9419Y8930D01*
X9461Y8913D02*
Y8880D01*
Y8913D02*
X9436D01*
X9444Y8896D01*
Y8888D01*
X9436Y8880D01*
X9419D01*
X9411Y8888D01*
Y8905D01*
X9419Y8913D01*
X9199Y9083D02*
X9191D01*
X9199D02*
Y9075D01*
X9191D01*
Y9083D01*
X9233Y9041D02*
X9241Y9033D01*
Y9016D01*
X9233Y9008D01*
X9199D01*
X9191Y9016D01*
Y9033D01*
X9199Y9041D01*
X9233D01*
X9191Y8991D02*
Y8958D01*
Y8991D02*
X9224Y8958D01*
X9233D01*
X9241Y8966D01*
Y8983D01*
X9233Y8991D01*
X9224Y8941D02*
X9199D01*
X9191Y8933D01*
Y8908D01*
X9224D01*
X9241Y8891D02*
Y8858D01*
Y8891D02*
X9216D01*
Y8875D01*
Y8891D01*
X9191D01*
X9323Y8940D02*
X9331Y8948D01*
Y8965D01*
X9323Y8973D01*
X9289D01*
X9281Y8965D01*
Y8948D01*
X9289Y8940D01*
X9323Y8906D02*
X9331Y8890D01*
X9323Y8906D02*
X9306Y8923D01*
X9289D01*
X9281Y8915D01*
Y8898D01*
X9289Y8890D01*
X9298D01*
X9306Y8898D01*
Y8923D01*
X10101Y8318D02*
Y8301D01*
Y8310D01*
X10151D01*
X10152D01*
X10151D02*
X10143Y8318D01*
Y8276D02*
X10151Y8268D01*
Y8251D01*
X10143Y8243D01*
X10109D01*
X10101Y8251D01*
Y8268D01*
X10109Y8276D01*
X10143D01*
X10134Y8226D02*
X10109D01*
X10101Y8218D01*
Y8193D01*
X10134D01*
X10151Y8176D02*
Y8143D01*
Y8176D02*
X10126D01*
Y8160D01*
Y8176D01*
X10101D01*
X10088Y8270D02*
X10096Y8278D01*
Y8295D01*
X10088Y8303D01*
X10054D01*
X10046Y8295D01*
Y8278D01*
X10054Y8270D01*
X10046Y8253D02*
Y8220D01*
Y8253D02*
X10079Y8220D01*
X10088D01*
X10096Y8228D01*
Y8245D01*
X10088Y8253D01*
Y8186D02*
X10096Y8170D01*
X10088Y8186D02*
X10071Y8203D01*
X10054D01*
X10046Y8195D01*
Y8178D01*
X10054Y8170D01*
X10063D01*
X10071Y8178D01*
Y8203D01*
X9836Y7748D02*
X9786D01*
X9811Y7773D02*
X9836Y7748D01*
X9811Y7740D02*
Y7773D01*
X9794Y7723D02*
X9786D01*
X9794D02*
Y7715D01*
X9786D01*
Y7723D01*
X9836Y7681D02*
Y7648D01*
X9828D01*
X9794Y7681D01*
X9786D01*
Y7631D02*
X9836D01*
X9803D02*
X9786D01*
X9803D02*
X9836Y7598D01*
X9811Y7623D01*
X9786Y7598D01*
X9781Y7438D02*
X9831D01*
Y7413D01*
X9823Y7405D01*
X9806D01*
X9798Y7413D01*
Y7438D01*
Y7421D02*
X9781Y7405D01*
X9823Y7388D02*
X9831Y7380D01*
Y7363D01*
X9823Y7355D01*
X9814D01*
X9806Y7363D01*
X9798Y7355D01*
X9789D01*
X9781Y7363D01*
Y7380D01*
X9789Y7388D01*
X9798D01*
X9806Y7380D01*
X9814Y7388D01*
X9823D01*
X9806Y7380D02*
Y7363D01*
X9686Y7760D02*
Y7793D01*
X9719Y7760D01*
X9728D01*
X9736Y7768D01*
Y7785D01*
X9728Y7793D01*
X9694Y7743D02*
X9686D01*
X9694D02*
Y7735D01*
X9686D01*
Y7743D01*
Y7676D02*
X9736D01*
X9711Y7701D01*
Y7668D01*
X9694Y7651D02*
X9686Y7643D01*
Y7626D01*
X9694Y7618D01*
X9728D01*
X9736Y7626D01*
Y7643D01*
X9728Y7651D01*
X9719D01*
X9711Y7643D01*
Y7618D01*
X9736Y7601D02*
X9686D01*
X9703D01*
X9736Y7568D01*
X9711Y7593D01*
X9686Y7568D01*
Y7443D02*
X9736D01*
Y7418D01*
X9728Y7410D01*
X9711D01*
X9703Y7418D01*
Y7443D01*
Y7426D02*
X9686Y7410D01*
Y7368D02*
X9736D01*
X9711Y7393D01*
Y7360D01*
X9479Y7843D02*
X9471D01*
X9479D02*
Y7835D01*
X9471D01*
Y7843D01*
X9513Y7801D02*
X9521Y7793D01*
Y7776D01*
X9513Y7768D01*
X9479D01*
X9471Y7776D01*
Y7793D01*
X9479Y7801D01*
X9513D01*
Y7751D02*
X9521Y7743D01*
Y7726D01*
X9513Y7718D01*
X9479D01*
X9471Y7726D01*
Y7743D01*
X9479Y7751D01*
X9513D01*
X9471Y7701D02*
Y7668D01*
Y7701D02*
X9504Y7668D01*
X9513D01*
X9521Y7676D01*
Y7693D01*
X9513Y7701D01*
X9471Y7651D02*
Y7618D01*
Y7651D02*
X9504Y7618D01*
X9513D01*
X9521Y7626D01*
Y7643D01*
X9513Y7651D01*
X9504Y7601D02*
X9479D01*
X9471Y7593D01*
Y7568D01*
X9504D01*
X9521Y7551D02*
Y7518D01*
Y7551D02*
X9496D01*
Y7535D01*
Y7551D01*
X9471D01*
X9623Y7480D02*
X9631Y7488D01*
Y7505D01*
X9623Y7513D01*
X9589D01*
X9581Y7505D01*
Y7488D01*
X9589Y7480D01*
X9623Y7463D02*
X9631Y7455D01*
Y7438D01*
X9623Y7430D01*
X9614D01*
X9615D01*
X9614D02*
X9615D01*
X9614D02*
X9615D01*
X9614D02*
X9606Y7438D01*
Y7446D01*
Y7438D01*
X9598Y7430D01*
X9589D01*
X9581Y7438D01*
Y7455D01*
X9589Y7463D01*
X10033Y7960D02*
X10041Y7968D01*
Y7985D01*
X10033Y7993D01*
X9999D01*
X9991Y7985D01*
Y7968D01*
X9999Y7960D01*
X9991Y7943D02*
Y7926D01*
Y7935D01*
X10041D01*
X10042D01*
X10041D02*
X10033Y7943D01*
X10041Y7876D02*
X9991D01*
X10016Y7901D02*
X10041Y7876D01*
X10016Y7868D02*
Y7901D01*
X9729Y8213D02*
X9696D01*
X9713D02*
X9729D01*
X9713D02*
Y8163D01*
X9746D02*
Y8213D01*
Y8163D02*
X9779D01*
X9796Y8205D02*
X9804Y8213D01*
X9821D01*
X9829Y8205D01*
Y8171D01*
X9821Y8163D01*
X9804D01*
X9796Y8171D01*
Y8205D01*
X9846Y8213D02*
X9879D01*
Y8205D01*
X9846Y8171D01*
Y8163D01*
X9896D02*
X9929D01*
X9896D02*
X9929Y8196D01*
Y8205D01*
X9921Y8213D01*
X9904D01*
X9896Y8205D01*
X9526Y7998D02*
Y7956D01*
X9534Y7948D01*
X9551D01*
X9559Y7956D01*
Y7998D01*
X9576Y7948D02*
X9593D01*
X9584D01*
Y7998D01*
X9585D01*
X9584D02*
X9576Y7990D01*
X9643Y7998D02*
Y7948D01*
X9618Y7973D02*
X9643Y7998D01*
X9651Y7973D02*
X9618D01*
X9521Y7963D02*
X9513Y7955D01*
X9521Y7963D02*
Y7980D01*
X9513Y7988D01*
X9479D01*
X9471Y7980D01*
Y7963D01*
X9479Y7955D01*
X9471Y7938D02*
Y7905D01*
Y7938D02*
X9504Y7905D01*
X9513D01*
X9521Y7913D01*
Y7930D01*
X9513Y7938D01*
X9471Y7888D02*
Y7855D01*
Y7888D02*
X9504Y7855D01*
X9513D01*
X9521Y7863D01*
Y7880D01*
X9513Y7888D01*
X9426Y7963D02*
X9418Y7955D01*
X9426Y7963D02*
Y7980D01*
X9418Y7988D01*
X9384D01*
X9376Y7980D01*
Y7963D01*
X9384Y7955D01*
X9376Y7938D02*
Y7905D01*
Y7938D02*
X9409Y7905D01*
X9418D01*
X9426Y7913D01*
Y7930D01*
X9418Y7938D01*
Y7888D02*
X9426Y7880D01*
Y7863D01*
X9418Y7855D01*
X9409D01*
X9401Y7863D01*
X9393Y7855D01*
X9384D01*
X9376Y7863D01*
Y7880D01*
X9384Y7888D01*
X9393D01*
X9401Y7880D01*
X9409Y7888D01*
X9418D01*
X9401Y7880D02*
Y7863D01*
X10311Y8548D02*
Y8598D01*
X10336D01*
X10344Y8590D01*
Y8573D01*
X10336Y8565D01*
X10311D01*
X10369Y8598D02*
X10386D01*
X10369D02*
X10361Y8590D01*
Y8556D01*
X10369Y8548D01*
X10386D01*
X10394Y8556D01*
Y8590D01*
X10386Y8598D01*
X10411D02*
Y8548D01*
X10428Y8565D01*
X10444Y8548D01*
Y8598D01*
X10461D02*
X10494D01*
X10461D02*
Y8548D01*
X10494D01*
X10478Y8573D02*
X10461D01*
X10511Y8548D02*
Y8598D01*
X10536D01*
X10544Y8590D01*
Y8573D01*
X10536Y8565D01*
X10511D01*
X10528D02*
X10544Y8548D01*
X10276Y8483D02*
Y8433D01*
Y8483D02*
X10301D01*
X10309Y8475D01*
Y8458D01*
X10301Y8450D01*
X10276D01*
X10326Y8433D02*
X10343D01*
X10334D01*
Y8483D01*
X10335D01*
X10334D02*
X10326Y8475D01*
X10199Y7463D02*
X10183D01*
X10191D01*
Y7421D01*
X10183Y7413D01*
X10174D01*
X10166Y7421D01*
X10216Y7455D02*
X10224Y7463D01*
X10241D01*
X10249Y7455D01*
Y7446D01*
X10250D01*
X10249D02*
X10250D01*
X10249D02*
X10250D01*
X10249D02*
X10241Y7438D01*
X10233D01*
X10241D01*
X10249Y7430D01*
Y7421D01*
X10241Y7413D01*
X10224D01*
X10216Y7421D01*
X9781Y7023D02*
Y7003D01*
Y7013D01*
X9841D01*
X9842D01*
X9841D02*
X9831Y7023D01*
X9841Y6973D02*
X9781D01*
X9801D01*
X9841Y6933D01*
X9811Y6963D01*
X9781Y6933D01*
X9786Y6683D02*
X9846D01*
Y6653D01*
X9836Y6643D01*
X9816D01*
X9806Y6653D01*
Y6683D01*
Y6663D02*
X9786Y6643D01*
Y6623D02*
Y6583D01*
Y6623D02*
X9826Y6583D01*
X9836D01*
X9846Y6593D01*
Y6613D01*
X9836Y6623D01*
X9846Y6563D02*
Y6523D01*
Y6563D02*
X9816D01*
X9826Y6543D01*
Y6533D01*
X9816Y6523D01*
X9796D01*
X9786Y6533D01*
Y6553D01*
X9796Y6563D01*
X9544Y7453D02*
X9528D01*
X9536D01*
Y7411D01*
X9528Y7403D01*
X9519D01*
X9511Y7411D01*
X9586Y7403D02*
Y7453D01*
X9561Y7428D01*
X9594D01*
X8401Y8840D02*
Y8873D01*
Y8840D02*
X8393D01*
X8359Y8873D01*
X8351D01*
X8393Y8823D02*
X8401Y8815D01*
Y8798D01*
X8393Y8790D01*
X8384D01*
X8376Y8798D01*
X8368Y8790D01*
X8359D01*
X8351Y8798D01*
Y8815D01*
X8359Y8823D01*
X8368D01*
X8376Y8815D01*
X8384Y8823D01*
X8393D01*
X8376Y8815D02*
Y8798D01*
X8401Y8773D02*
X8351D01*
Y8740D01*
X8393Y8723D02*
X8401Y8715D01*
Y8698D01*
X8393Y8690D01*
X8359D01*
X8351Y8698D01*
Y8715D01*
X8359Y8723D01*
X8393D01*
X8401Y8673D02*
Y8640D01*
Y8673D02*
X8376D01*
X8384Y8656D01*
Y8648D01*
X8376Y8640D01*
X8359D01*
X8351Y8648D01*
Y8665D01*
X8359Y8673D01*
X8419Y8828D02*
X8461D01*
X8419D02*
X8411Y8820D01*
Y8803D01*
X8419Y8795D01*
X8461D01*
X8411Y8778D02*
Y8761D01*
Y8770D01*
X8461D01*
X8462D01*
X8461D02*
X8453Y8778D01*
X8461Y8736D02*
Y8703D01*
X8453D01*
X8419Y8736D01*
X8411D01*
X8656Y9043D02*
X8673D01*
X8664D01*
Y9093D01*
X8665D01*
X8664D02*
X8656Y9085D01*
X8698D02*
X8706Y9093D01*
X8723D01*
X8731Y9085D01*
Y9051D01*
X8723Y9043D01*
X8706D01*
X8698Y9051D01*
Y9085D01*
X8748Y9076D02*
Y9051D01*
X8756Y9043D01*
X8781D01*
Y9076D01*
X8798Y9093D02*
X8831D01*
X8798D02*
Y9068D01*
X8814D01*
X8798D01*
Y9043D01*
X8431Y9053D02*
X8423Y9045D01*
X8431Y9053D02*
Y9070D01*
X8423Y9078D01*
X8389D01*
X8381Y9070D01*
Y9053D01*
X8389Y9045D01*
X8381Y9028D02*
Y8995D01*
Y9028D02*
X8414Y8995D01*
X8423D01*
X8431Y9003D01*
Y9020D01*
X8423Y9028D01*
X8431Y8978D02*
Y8945D01*
X8423D01*
X8389Y8978D01*
X8381D01*
X7676Y8788D02*
Y8755D01*
X7668D01*
X7634Y8788D01*
X7626D01*
Y8713D02*
X7676D01*
X7651Y8738D01*
Y8705D01*
X7676Y8688D02*
X7626D01*
X7651D01*
Y8655D01*
X7676D01*
X7626D01*
X7676Y8613D02*
X7668Y8605D01*
X7676Y8613D02*
Y8630D01*
X7668Y8638D01*
X7634D01*
X7626Y8630D01*
Y8613D01*
X7634Y8605D01*
X7626Y8588D02*
Y8571D01*
Y8580D01*
X7676D01*
X7677D01*
X7676D02*
X7668Y8588D01*
Y8530D02*
X7676Y8513D01*
X7668Y8530D02*
X7651Y8546D01*
X7634D01*
X7626Y8538D01*
Y8521D01*
X7634Y8513D01*
X7643D01*
X7651Y8521D01*
Y8546D01*
X7626Y8471D02*
X7676D01*
X7651Y8496D01*
Y8463D01*
X7446Y8958D02*
X7404D01*
X7396Y8950D01*
Y8933D01*
X7404Y8925D01*
X7446D01*
X7404Y8908D02*
X7396Y8900D01*
Y8883D01*
X7404Y8875D01*
X7438D01*
X7446Y8883D01*
Y8900D01*
X7438Y8908D01*
X7429D01*
X7421Y8900D01*
Y8875D01*
X7494Y9040D02*
X7486Y9048D01*
X7469D01*
X7461Y9040D01*
Y9006D01*
X7469Y8998D01*
X7486D01*
X7494Y9006D01*
X7511Y8998D02*
X7528D01*
X7519D01*
Y9048D01*
X7520D01*
X7519D02*
X7511Y9040D01*
X7553D02*
X7561Y9048D01*
X7578D01*
X7586Y9040D01*
Y9006D01*
X7578Y8998D01*
X7561D01*
X7553Y9006D01*
Y9040D01*
X8181Y8798D02*
Y8765D01*
X8173D01*
X8139Y8798D01*
X8131D01*
Y8723D02*
X8181D01*
X8156Y8748D01*
Y8715D01*
X8181Y8698D02*
X8131D01*
X8156D01*
Y8665D01*
X8181D01*
X8131D01*
X8181Y8623D02*
X8173Y8615D01*
X8181Y8623D02*
Y8640D01*
X8173Y8648D01*
X8139D01*
X8131Y8640D01*
Y8623D01*
X8139Y8615D01*
X8131Y8598D02*
Y8581D01*
Y8590D01*
X8181D01*
X8182D01*
X8181D02*
X8173Y8598D01*
Y8540D02*
X8181Y8523D01*
X8173Y8540D02*
X8156Y8556D01*
X8139D01*
X8131Y8548D01*
Y8531D01*
X8139Y8523D01*
X8148D01*
X8156Y8531D01*
Y8556D01*
X8131Y8481D02*
X8181D01*
X8156Y8506D01*
Y8473D01*
X7951Y8963D02*
X7909D01*
X7901Y8955D01*
Y8938D01*
X7909Y8930D01*
X7951D01*
X7943Y8896D02*
X7951Y8880D01*
X7943Y8896D02*
X7926Y8913D01*
X7909D01*
X7901Y8905D01*
Y8888D01*
X7909Y8880D01*
X7918D01*
X7926Y8888D01*
Y8913D01*
X7974Y9040D02*
X7966Y9048D01*
X7949D01*
X7941Y9040D01*
Y9006D01*
X7949Y8998D01*
X7966D01*
X7974Y9006D01*
X7991Y8998D02*
X8008D01*
X7999D01*
Y9048D01*
X8000D01*
X7999D02*
X7991Y9040D01*
X8033Y8998D02*
X8049D01*
X8041D01*
Y9048D01*
X8042D01*
X8041D02*
X8033Y9040D01*
X8781Y8773D02*
X8831D01*
X8806Y8798D01*
Y8765D01*
X8789Y8748D02*
X8781D01*
X8789D02*
Y8740D01*
X8781D01*
Y8748D01*
X8789Y8706D02*
X8781Y8698D01*
Y8681D01*
X8789Y8673D01*
X8823D01*
X8831Y8681D01*
Y8698D01*
X8823Y8706D01*
X8814D01*
X8806Y8698D01*
Y8673D01*
X8789Y8656D02*
X8781Y8648D01*
Y8631D01*
X8789Y8623D01*
X8823D01*
X8831Y8631D01*
Y8648D01*
X8823Y8656D01*
X8814D01*
X8806Y8648D01*
Y8623D01*
X8831Y8606D02*
X8781D01*
X8798D01*
X8831Y8573D01*
X8806Y8598D01*
X8781Y8573D01*
Y9023D02*
X8831D01*
Y8998D01*
X8823Y8990D01*
X8806D01*
X8798Y8998D01*
Y9023D01*
Y9006D02*
X8781Y8990D01*
X8831Y8973D02*
Y8940D01*
Y8973D02*
X8806D01*
X8814Y8956D01*
Y8948D01*
X8806Y8940D01*
X8789D01*
X8781Y8948D01*
Y8965D01*
X8789Y8973D01*
X8731Y8773D02*
X8681D01*
X8706Y8798D02*
X8731Y8773D01*
X8706Y8765D02*
Y8798D01*
X8689Y8748D02*
X8681D01*
X8689D02*
Y8740D01*
X8681D01*
Y8748D01*
X8689Y8706D02*
X8681Y8698D01*
Y8681D01*
X8689Y8673D01*
X8723D01*
X8731Y8681D01*
Y8698D01*
X8723Y8706D01*
X8714D01*
X8706Y8698D01*
Y8673D01*
X8689Y8656D02*
X8681Y8648D01*
Y8631D01*
X8689Y8623D01*
X8723D01*
X8731Y8631D01*
Y8648D01*
X8723Y8656D01*
X8714D01*
X8706Y8648D01*
Y8623D01*
X8731Y8606D02*
X8681D01*
X8698D01*
X8731Y8573D01*
X8706Y8598D01*
X8681Y8573D01*
X8686Y9023D02*
X8736D01*
Y8998D01*
X8728Y8990D01*
X8711D01*
X8703Y8998D01*
Y9023D01*
Y9006D02*
X8686Y8990D01*
X8728Y8956D02*
X8736Y8940D01*
X8728Y8956D02*
X8711Y8973D01*
X8694D01*
X8686Y8965D01*
Y8948D01*
X8694Y8940D01*
X8703D01*
X8711Y8948D01*
Y8973D01*
X8494Y8613D02*
X8486D01*
X8494D02*
Y8605D01*
X8486D01*
Y8613D01*
X8528Y8571D02*
X8536Y8563D01*
Y8546D01*
X8528Y8538D01*
X8494D01*
X8486Y8546D01*
Y8563D01*
X8494Y8571D01*
X8528D01*
X8486Y8521D02*
Y8505D01*
Y8513D01*
X8536D01*
X8537D01*
X8536D02*
X8528Y8521D01*
X8519Y8480D02*
X8494D01*
X8486Y8471D01*
Y8446D01*
X8519D01*
X8536Y8430D02*
Y8396D01*
Y8430D02*
X8511D01*
Y8413D01*
Y8430D01*
X8486D01*
X8468Y8510D02*
X8476Y8518D01*
Y8535D01*
X8468Y8543D01*
X8434D01*
X8426Y8535D01*
Y8518D01*
X8434Y8510D01*
X8426Y8468D02*
X8476D01*
X8451Y8493D01*
Y8460D01*
X8606Y8213D02*
Y8163D01*
X8631D01*
X8639Y8171D01*
Y8205D01*
X8631Y8213D01*
X8606D01*
X8656Y8196D02*
Y8163D01*
Y8196D02*
X8673Y8213D01*
X8689Y8196D01*
Y8163D01*
Y8188D01*
X8656D01*
X8731Y8213D02*
X8739Y8205D01*
X8731Y8213D02*
X8714D01*
X8706Y8205D01*
Y8171D01*
X8714Y8163D01*
X8731D01*
X8739Y8171D01*
X8756Y8205D02*
X8764Y8213D01*
X8781D01*
X8789Y8205D01*
Y8171D01*
X8781Y8163D01*
X8764D01*
X8756Y8171D01*
Y8205D01*
X8806D02*
X8814Y8213D01*
X8831D01*
X8839Y8205D01*
Y8196D01*
X8831Y8188D01*
X8839Y8180D01*
Y8171D01*
X8831Y8163D01*
X8814D01*
X8806Y8171D01*
Y8180D01*
X8814Y8188D01*
X8806Y8196D01*
Y8205D01*
X8814Y8188D02*
X8831D01*
X8601Y7978D02*
Y7936D01*
X8609Y7928D01*
X8626D01*
X8634Y7936D01*
Y7978D01*
X8651Y7928D02*
X8668D01*
X8659D01*
Y7978D01*
X8660D01*
X8659D02*
X8651Y7970D01*
X8693D02*
X8701Y7978D01*
X8718D01*
X8726Y7970D01*
Y7961D01*
X8727D01*
X8726D02*
X8727D01*
X8726D02*
X8727D01*
X8726D02*
X8718Y7953D01*
X8709D01*
X8718D01*
X8726Y7945D01*
Y7936D01*
X8718Y7928D01*
X8701D01*
X8693Y7936D01*
X8471Y8088D02*
X8463Y8080D01*
X8471Y8088D02*
Y8105D01*
X8463Y8113D01*
X8429D01*
X8421Y8105D01*
Y8088D01*
X8429Y8080D01*
X8421Y8063D02*
Y8030D01*
Y8063D02*
X8454Y8030D01*
X8463D01*
X8471Y8038D01*
Y8055D01*
X8463Y8063D01*
X8471Y8013D02*
Y7980D01*
Y8013D02*
X8446D01*
X8454Y7996D01*
Y7988D01*
X8446Y7980D01*
X8429D01*
X8421Y7988D01*
Y8005D01*
X8429Y8013D01*
X7494Y8190D02*
X7486Y8198D01*
X7469D01*
X7461Y8190D01*
Y8156D01*
X7469Y8148D01*
X7486D01*
X7494Y8156D01*
X7511Y8148D02*
X7528D01*
X7519D01*
Y8198D01*
X7520D01*
X7519D02*
X7511Y8190D01*
X7553Y8148D02*
X7586D01*
X7553D02*
X7586Y8181D01*
Y8190D01*
X7578Y8198D01*
X7561D01*
X7553Y8190D01*
X7676Y7988D02*
Y7955D01*
X7668D01*
X7634Y7988D01*
X7626D01*
Y7913D02*
X7676D01*
X7651Y7938D01*
Y7905D01*
X7676Y7888D02*
X7626D01*
X7651D01*
Y7855D01*
X7676D01*
X7626D01*
X7676Y7813D02*
X7668Y7805D01*
X7676Y7813D02*
Y7830D01*
X7668Y7838D01*
X7634D01*
X7626Y7830D01*
Y7813D01*
X7634Y7805D01*
X7626Y7788D02*
Y7771D01*
Y7780D01*
X7676D01*
X7677D01*
X7676D02*
X7668Y7788D01*
Y7730D02*
X7676Y7713D01*
X7668Y7730D02*
X7651Y7746D01*
X7634D01*
X7626Y7738D01*
Y7721D01*
X7634Y7713D01*
X7643D01*
X7651Y7721D01*
Y7746D01*
X7626Y7671D02*
X7676D01*
X7651Y7696D01*
Y7663D01*
X7446Y8113D02*
X7404D01*
X7396Y8105D01*
Y8088D01*
X7404Y8080D01*
X7446D01*
Y8063D02*
Y8030D01*
X7438D01*
X7404Y8063D01*
X7396D01*
X8001Y8203D02*
X8009Y8195D01*
X8001Y8203D02*
X7984D01*
X7976Y8195D01*
Y8161D01*
X7984Y8153D01*
X8001D01*
X8009Y8161D01*
X8026Y8153D02*
X8043D01*
X8034D01*
Y8203D01*
X8035D01*
X8034D02*
X8026Y8195D01*
X8068D02*
X8076Y8203D01*
X8093D01*
X8101Y8195D01*
Y8186D01*
X8102D01*
X8101D02*
X8102D01*
X8101D02*
X8102D01*
X8101D02*
X8093Y8178D01*
X8084D01*
X8093D01*
X8101Y8170D01*
Y8161D01*
X8093Y8153D01*
X8076D01*
X8068Y8161D01*
X8171Y7938D02*
Y7905D01*
X8163D01*
X8129Y7938D01*
X8121D01*
Y7863D02*
X8171D01*
X8146Y7888D01*
Y7855D01*
X8171Y7838D02*
X8121D01*
X8146D01*
Y7805D01*
X8171D01*
X8121D01*
X8171Y7763D02*
X8163Y7755D01*
X8171Y7763D02*
Y7780D01*
X8163Y7788D01*
X8129D01*
X8121Y7780D01*
Y7763D01*
X8129Y7755D01*
X8121Y7738D02*
Y7721D01*
Y7730D01*
X8171D01*
X8172D01*
X8171D02*
X8163Y7738D01*
Y7680D02*
X8171Y7663D01*
X8163Y7680D02*
X8146Y7696D01*
X8129D01*
X8121Y7688D01*
Y7671D01*
X8129Y7663D01*
X8138D01*
X8146Y7671D01*
Y7696D01*
X8121Y7621D02*
X8171D01*
X8146Y7646D01*
Y7613D01*
X7946Y8108D02*
X7904D01*
X7896Y8100D01*
Y8083D01*
X7904Y8075D01*
X7946D01*
X7938Y8058D02*
X7946Y8050D01*
Y8033D01*
X7938Y8025D01*
X7929D01*
X7930D01*
X7929D02*
X7930D01*
X7929D02*
X7930D01*
X7929D02*
X7921Y8033D01*
Y8041D01*
Y8033D01*
X7913Y8025D01*
X7904D01*
X7896Y8033D01*
Y8050D01*
X7904Y8058D01*
X7956Y7343D02*
X7964D01*
Y7335D01*
X7956D01*
Y7343D01*
X7998Y7301D02*
X8006Y7293D01*
Y7276D01*
X7998Y7268D01*
X7964D01*
X7956Y7276D01*
Y7293D01*
X7964Y7301D01*
X7998D01*
X7956Y7251D02*
Y7235D01*
Y7243D01*
X8006D01*
X8007D01*
X8006D02*
X7998Y7251D01*
X7989Y7210D02*
X7964D01*
X7956Y7201D01*
Y7176D01*
X7989D01*
X8006Y7160D02*
Y7126D01*
Y7160D02*
X7981D01*
Y7143D01*
Y7160D01*
X7956D01*
X7908Y7410D02*
X7916Y7418D01*
Y7435D01*
X7908Y7443D01*
X7874D01*
X7866Y7435D01*
Y7418D01*
X7874Y7410D01*
X7866Y7393D02*
Y7360D01*
Y7393D02*
X7899Y7360D01*
X7908D01*
X7916Y7368D01*
Y7385D01*
X7908Y7393D01*
X8781Y7043D02*
Y7026D01*
Y7035D01*
X8831D01*
X8832D01*
X8831D02*
X8823Y7043D01*
X8831Y7001D02*
X8781D01*
X8798D01*
X8831Y6968D01*
X8806Y6993D01*
X8781Y6968D01*
X8776Y7268D02*
X8826D01*
Y7243D01*
X8818Y7235D01*
X8801D01*
X8793Y7243D01*
Y7268D01*
Y7251D02*
X8776Y7235D01*
Y7218D02*
Y7201D01*
Y7210D01*
X8826D01*
X8827D01*
X8826D02*
X8818Y7218D01*
X8881Y7048D02*
Y7031D01*
Y7040D01*
X8931D01*
X8932D01*
X8931D02*
X8923Y7048D01*
X8931Y7006D02*
X8881D01*
Y6973D02*
X8931Y7006D01*
Y6973D02*
X8881D01*
X8889Y6956D02*
X8881Y6948D01*
Y6931D01*
X8889Y6923D01*
X8923D01*
X8931Y6931D01*
Y6948D01*
X8923Y6956D01*
X8914D01*
X8906Y6948D01*
Y6923D01*
X8881Y6906D02*
Y6890D01*
Y6898D01*
X8931D01*
X8932D01*
X8931D02*
X8923Y6906D01*
X8931Y6840D02*
X8881D01*
X8906Y6865D02*
X8931Y6840D01*
X8906Y6831D02*
Y6865D01*
X8926Y7318D02*
X8876D01*
Y7293D01*
X8884Y7285D01*
X8918D01*
X8926Y7293D01*
Y7318D01*
X8876Y7268D02*
Y7251D01*
Y7260D01*
X8926D01*
X8927D01*
X8926D02*
X8918Y7268D01*
X8986Y7043D02*
Y7026D01*
Y7035D01*
X9036D01*
X9037D01*
X9036D02*
X9028Y7043D01*
X9036Y7001D02*
X8986D01*
Y6968D02*
X9036Y7001D01*
Y6968D02*
X8986D01*
X8994Y6951D02*
X8986Y6943D01*
Y6926D01*
X8994Y6918D01*
X9028D01*
X9036Y6926D01*
Y6943D01*
X9028Y6951D01*
X9019D01*
X9011Y6943D01*
Y6918D01*
X8986Y6901D02*
Y6885D01*
Y6893D01*
X9036D01*
X9037D01*
X9036D02*
X9028Y6901D01*
X9036Y6835D02*
X8986D01*
X9011Y6860D02*
X9036Y6835D01*
X9011Y6826D02*
Y6860D01*
X9011Y7323D02*
X8961D01*
Y7298D01*
X8969Y7290D01*
X9003D01*
X9011Y7298D01*
Y7323D01*
X8961Y7273D02*
Y7240D01*
Y7273D02*
X8994Y7240D01*
X9003D01*
X9011Y7248D01*
Y7265D01*
X9003Y7273D01*
X8534Y7468D02*
X8518D01*
X8526D01*
Y7426D01*
X8518Y7418D01*
X8509D01*
X8501Y7426D01*
X8551Y7418D02*
X8584D01*
X8551D02*
X8584Y7451D01*
Y7460D01*
X8576Y7468D01*
X8559D01*
X8551Y7460D01*
X7786Y6883D02*
Y6866D01*
Y6875D01*
X7836D01*
X7837D01*
X7836D02*
X7828Y6883D01*
Y6841D02*
X7836Y6833D01*
Y6816D01*
X7828Y6808D01*
X7794D01*
X7786Y6816D01*
Y6833D01*
X7794Y6841D01*
X7828D01*
Y6791D02*
X7836Y6783D01*
Y6766D01*
X7828Y6758D01*
X7794D01*
X7786Y6766D01*
Y6783D01*
X7794Y6791D01*
X7828D01*
X7836Y6741D02*
X7786D01*
X7803D01*
X7836Y6708D01*
X7811Y6733D01*
X7786Y6708D01*
X7781Y7098D02*
X7731D01*
X7781D02*
Y7073D01*
X7773Y7065D01*
X7756D01*
X7748Y7073D01*
Y7098D01*
Y7081D02*
X7731Y7065D01*
X7773Y7048D02*
X7781Y7040D01*
Y7023D01*
X7773Y7015D01*
X7764D01*
X7765D01*
X7764D02*
X7765D01*
X7764D02*
X7765D01*
X7764D02*
X7756Y7023D01*
Y7031D01*
Y7023D01*
X7748Y7015D01*
X7739D01*
X7731Y7023D01*
Y7040D01*
X7739Y7048D01*
X7886Y6903D02*
Y6886D01*
Y6895D01*
X7936D01*
X7937D01*
X7936D02*
X7928Y6903D01*
X7936Y6861D02*
X7886D01*
Y6828D02*
X7936Y6861D01*
Y6828D02*
X7886D01*
X7894Y6811D02*
X7886Y6803D01*
Y6786D01*
X7894Y6778D01*
X7928D01*
X7936Y6786D01*
Y6803D01*
X7928Y6811D01*
X7919D01*
X7911Y6803D01*
Y6778D01*
X7886Y6761D02*
Y6745D01*
Y6753D01*
X7936D01*
X7937D01*
X7936D02*
X7928Y6761D01*
X7936Y6695D02*
X7886D01*
X7911Y6720D02*
X7936Y6695D01*
X7911Y6686D02*
Y6720D01*
X7941Y7108D02*
X7991D01*
X7941D02*
Y7083D01*
X7949Y7075D01*
X7983D01*
X7991Y7083D01*
Y7108D01*
X7983Y7058D02*
X7991Y7050D01*
Y7033D01*
X7983Y7025D01*
X7974D01*
X7975D01*
X7974D02*
X7975D01*
X7974D02*
X7975D01*
X7974D02*
X7966Y7033D01*
Y7041D01*
Y7033D01*
X7958Y7025D01*
X7949D01*
X7941Y7033D01*
Y7050D01*
X7949Y7058D01*
X7976Y6893D02*
Y6876D01*
Y6885D01*
X8026D01*
X8027D01*
X8026D02*
X8018Y6893D01*
X8026Y6851D02*
X7976D01*
Y6818D02*
X8026Y6851D01*
Y6818D02*
X7976D01*
X7984Y6801D02*
X7976Y6793D01*
Y6776D01*
X7984Y6768D01*
X8018D01*
X8026Y6776D01*
Y6793D01*
X8018Y6801D01*
X8009D01*
X8001Y6793D01*
Y6768D01*
X7976Y6751D02*
Y6735D01*
Y6743D01*
X8026D01*
X8027D01*
X8026D02*
X8018Y6751D01*
X8026Y6685D02*
X7976D01*
X8001Y6710D02*
X8026Y6685D01*
X8001Y6676D02*
Y6710D01*
X8006Y7108D02*
X8056D01*
X8006D02*
Y7083D01*
X8014Y7075D01*
X8048D01*
X8056Y7083D01*
Y7108D01*
Y7033D02*
X8006D01*
X8031Y7058D02*
X8056Y7033D01*
X8031Y7025D02*
Y7058D01*
X7009Y9040D02*
X7001Y9048D01*
X6984D01*
X6976Y9040D01*
Y9006D01*
X6984Y8998D01*
X7001D01*
X7009Y9006D01*
X7026Y8998D02*
X7043D01*
X7034D01*
Y9048D01*
X7035D01*
X7034D02*
X7026Y9040D01*
X7068D02*
X7076Y9048D01*
X7093D01*
X7101Y9040D01*
Y9031D01*
X7093Y9023D01*
X7101Y9015D01*
Y9006D01*
X7093Y8998D01*
X7076D01*
X7068Y9006D01*
Y9015D01*
X7076Y9023D01*
X7068Y9031D01*
Y9040D01*
X7076Y9023D02*
X7093D01*
X7186Y8813D02*
Y8780D01*
X7178D01*
X7144Y8813D01*
X7136D01*
Y8738D02*
X7186D01*
X7161Y8763D01*
Y8730D01*
X7186Y8713D02*
X7136D01*
X7161D01*
Y8680D01*
X7186D01*
X7136D01*
X7186Y8638D02*
X7178Y8630D01*
X7186Y8638D02*
Y8655D01*
X7178Y8663D01*
X7144D01*
X7136Y8655D01*
Y8638D01*
X7144Y8630D01*
X7178Y8613D02*
X7186Y8605D01*
Y8588D01*
X7178Y8580D01*
X7169D01*
X7161Y8588D01*
X7153Y8580D01*
X7144D01*
X7136Y8588D01*
Y8605D01*
X7144Y8613D01*
X7153D01*
X7161Y8605D01*
X7169Y8613D01*
X7178D01*
X7161Y8605D02*
Y8588D01*
X7178Y8546D02*
X7186Y8530D01*
X7178Y8546D02*
X7161Y8563D01*
X7144D01*
X7136Y8555D01*
Y8538D01*
X7144Y8530D01*
X7153D01*
X7161Y8538D01*
Y8563D01*
X6971Y9008D02*
X6929D01*
X6921Y9000D01*
Y8983D01*
X6929Y8975D01*
X6971D01*
X6921Y8958D02*
Y8941D01*
Y8950D01*
X6971D01*
X6972D01*
X6971D02*
X6963Y8958D01*
X6921Y8916D02*
Y8900D01*
Y8908D01*
X6971D01*
X6972D01*
X6971D02*
X6963Y8916D01*
X6961Y8198D02*
X6969Y8190D01*
X6961Y8198D02*
X6944D01*
X6936Y8190D01*
Y8156D01*
X6944Y8148D01*
X6961D01*
X6969Y8156D01*
X6986Y8148D02*
X7003D01*
X6994D01*
Y8198D01*
X6995D01*
X6994D02*
X6986Y8190D01*
X7028Y8156D02*
X7036Y8148D01*
X7053D01*
X7061Y8156D01*
Y8190D01*
X7053Y8198D01*
X7036D01*
X7028Y8190D01*
Y8181D01*
X7036Y8173D01*
X7061D01*
X7131Y7983D02*
Y7950D01*
X7123D01*
X7089Y7983D01*
X7081D01*
Y7908D02*
X7131D01*
X7106Y7933D01*
Y7900D01*
X7131Y7883D02*
X7081D01*
X7106D01*
Y7850D01*
X7131D01*
X7081D01*
X7131Y7808D02*
X7123Y7800D01*
X7131Y7808D02*
Y7825D01*
X7123Y7833D01*
X7089D01*
X7081Y7825D01*
Y7808D01*
X7089Y7800D01*
X7081Y7783D02*
Y7766D01*
Y7775D01*
X7131D01*
X7132D01*
X7131D02*
X7123Y7783D01*
X7131Y7716D02*
X7081D01*
X7106Y7741D02*
X7131Y7716D01*
X7106Y7708D02*
Y7741D01*
X6975Y8256D02*
Y8298D01*
Y8256D02*
X6983Y8248D01*
X7000D01*
X7008Y8256D01*
Y8298D01*
X7025Y8248D02*
X7042D01*
X7033D01*
Y8298D01*
X7034D01*
X7033D02*
X7025Y8290D01*
X6981Y7213D02*
Y7196D01*
Y7205D01*
X7031D01*
X7032D01*
X7031D02*
X7023Y7213D01*
Y7171D02*
X7031Y7163D01*
Y7146D01*
X7023Y7138D01*
X6989D01*
X6981Y7146D01*
Y7163D01*
X6989Y7171D01*
X7023D01*
X7031Y7121D02*
X6981D01*
X6998D01*
X7031Y7088D01*
X7006Y7113D01*
X6981Y7088D01*
X6971Y7363D02*
X6921D01*
X6971D02*
Y7338D01*
X6963Y7330D01*
X6946D01*
X6938Y7338D01*
Y7363D01*
Y7346D02*
X6921Y7330D01*
Y7313D02*
Y7280D01*
Y7313D02*
X6954Y7280D01*
X6963D01*
X6971Y7288D01*
Y7305D01*
X6963Y7313D01*
X7096Y6803D02*
X7104D01*
Y6795D01*
X7096D01*
Y6803D01*
X7138Y6761D02*
X7146Y6753D01*
Y6736D01*
X7138Y6728D01*
X7104D01*
X7096Y6736D01*
Y6753D01*
X7104Y6761D01*
X7138D01*
Y6711D02*
X7146Y6703D01*
Y6686D01*
X7138Y6678D01*
X7104D01*
X7096Y6686D01*
Y6703D01*
X7104Y6711D01*
X7138D01*
X7096Y6661D02*
Y6645D01*
Y6653D01*
X7146D01*
X7147D01*
X7146D02*
X7138Y6661D01*
X7129Y6620D02*
X7104D01*
X7096Y6611D01*
Y6586D01*
X7129D01*
X7146Y6570D02*
Y6536D01*
Y6570D02*
X7121D01*
Y6553D01*
Y6570D01*
X7096D01*
X7031Y6493D02*
X7023Y6485D01*
X7031Y6493D02*
Y6510D01*
X7023Y6518D01*
X6989D01*
X6981Y6510D01*
Y6493D01*
X6989Y6485D01*
X6981Y6468D02*
Y6451D01*
Y6460D01*
X7031D01*
X7032D01*
X7031D02*
X7023Y6468D01*
X7678Y7403D02*
X7694D01*
X7686D02*
X7678D01*
X7686D02*
Y7361D01*
X7678Y7353D01*
X7669D01*
X7661Y7361D01*
X7711Y7403D02*
X7744D01*
X7711D02*
Y7378D01*
X7728Y7386D01*
X7736D01*
X7744Y7378D01*
Y7361D01*
X7736Y7353D01*
X7719D01*
X7711Y7361D01*
D13*
X11006Y8163D02*
X11009Y8163D01*
X11012Y8164D01*
X11016Y8165D01*
X11018Y8166D01*
X11021Y8168D01*
X11024Y8170D01*
X11026Y8173D01*
X11028Y8176D01*
X11029Y8178D01*
X11030Y8182D01*
X11031Y8185D01*
X11031Y8188D01*
X11031Y8191D01*
X11030Y8194D01*
X11029Y8198D01*
X11028Y8200D01*
X11026Y8203D01*
X11024Y8206D01*
X11021Y8208D01*
X11018Y8210D01*
X11016Y8211D01*
X11012Y8212D01*
X11009Y8213D01*
X11006Y8213D01*
Y8163D02*
Y8088D01*
Y8213D02*
Y8288D01*
X11406D02*
Y8088D01*
Y8288D02*
X11006D01*
Y8088D02*
X11406D01*
X9556Y8163D02*
X9559Y8163D01*
X9562Y8164D01*
X9566Y8165D01*
X9568Y8166D01*
X9571Y8168D01*
X9574Y8170D01*
X9576Y8173D01*
X9578Y8176D01*
X9579Y8178D01*
X9580Y8182D01*
X9581Y8185D01*
X9581Y8188D01*
X9581Y8191D01*
X9580Y8194D01*
X9579Y8198D01*
X9578Y8200D01*
X9576Y8203D01*
X9574Y8206D01*
X9571Y8208D01*
X9568Y8210D01*
X9566Y8211D01*
X9562Y8212D01*
X9559Y8213D01*
X9556Y8213D01*
Y8163D02*
Y8088D01*
Y8213D02*
Y8288D01*
X9956D02*
Y8088D01*
Y8288D02*
X9556D01*
Y8088D02*
X9956D01*
X7681Y8988D02*
X7681Y8985D01*
X7680Y8982D01*
X7679Y8978D01*
X7678Y8976D01*
X7676Y8973D01*
X7674Y8970D01*
X7671Y8968D01*
X7668Y8966D01*
X7666Y8965D01*
X7662Y8964D01*
X7659Y8963D01*
X7656Y8963D01*
X7653Y8963D01*
X7650Y8964D01*
X7646Y8965D01*
X7644Y8966D01*
X7641Y8968D01*
X7638Y8970D01*
X7636Y8973D01*
X7634Y8976D01*
X7633Y8978D01*
X7632Y8982D01*
X7631Y8985D01*
X7631Y8988D01*
X7756D02*
Y8288D01*
X7556D02*
Y8988D01*
X7631D01*
X7681D02*
X7756D01*
Y8288D02*
X7556D01*
X8131Y8988D02*
X8131Y8985D01*
X8132Y8982D01*
X8133Y8978D01*
X8134Y8976D01*
X8136Y8973D01*
X8138Y8970D01*
X8141Y8968D01*
X8144Y8966D01*
X8146Y8965D01*
X8150Y8964D01*
X8153Y8963D01*
X8156Y8963D01*
X8159Y8963D01*
X8162Y8964D01*
X8166Y8965D01*
X8168Y8966D01*
X8171Y8968D01*
X8174Y8970D01*
X8176Y8973D01*
X8178Y8976D01*
X8179Y8978D01*
X8180Y8982D01*
X8181Y8985D01*
X8181Y8988D01*
X8256D02*
Y8288D01*
X8056D02*
Y8988D01*
X8131D01*
X8181D02*
X8256D01*
Y8288D02*
X8056D01*
X8556Y8213D02*
X8559Y8213D01*
X8562Y8212D01*
X8566Y8211D01*
X8568Y8210D01*
X8571Y8208D01*
X8574Y8206D01*
X8576Y8203D01*
X8578Y8200D01*
X8579Y8198D01*
X8580Y8194D01*
X8581Y8191D01*
X8581Y8188D01*
X8581Y8185D01*
X8580Y8182D01*
X8579Y8178D01*
X8578Y8176D01*
X8576Y8173D01*
X8574Y8170D01*
X8571Y8168D01*
X8568Y8166D01*
X8566Y8165D01*
X8562Y8164D01*
X8559Y8163D01*
X8556Y8163D01*
Y8088D01*
Y8213D02*
Y8288D01*
X9356D02*
Y8088D01*
Y8288D02*
X8556D01*
Y8088D02*
X9356D01*
X7681Y8138D02*
X7681Y8135D01*
X7680Y8132D01*
X7679Y8128D01*
X7678Y8126D01*
X7676Y8123D01*
X7674Y8120D01*
X7671Y8118D01*
X7668Y8116D01*
X7666Y8115D01*
X7662Y8114D01*
X7659Y8113D01*
X7656Y8113D01*
X7653Y8113D01*
X7650Y8114D01*
X7646Y8115D01*
X7644Y8116D01*
X7641Y8118D01*
X7638Y8120D01*
X7636Y8123D01*
X7634Y8126D01*
X7633Y8128D01*
X7632Y8132D01*
X7631Y8135D01*
X7631Y8138D01*
X7756D02*
Y7438D01*
X7556D02*
Y8138D01*
X7631D01*
X7681D02*
X7756D01*
Y7438D02*
X7556D01*
X8131Y8138D02*
X8131Y8135D01*
X8132Y8132D01*
X8133Y8128D01*
X8134Y8126D01*
X8136Y8123D01*
X8138Y8120D01*
X8141Y8118D01*
X8144Y8116D01*
X8146Y8115D01*
X8150Y8114D01*
X8153Y8113D01*
X8156Y8113D01*
X8159Y8113D01*
X8162Y8114D01*
X8166Y8115D01*
X8168Y8116D01*
X8171Y8118D01*
X8174Y8120D01*
X8176Y8123D01*
X8178Y8126D01*
X8179Y8128D01*
X8180Y8132D01*
X8181Y8135D01*
X8181Y8138D01*
X8256D02*
Y7438D01*
X8056D02*
Y8138D01*
X8131D01*
X8181D02*
X8256D01*
Y7438D02*
X8056D01*
X7181Y8988D02*
X7181Y8985D01*
X7180Y8982D01*
X7179Y8978D01*
X7178Y8976D01*
X7176Y8973D01*
X7174Y8970D01*
X7171Y8968D01*
X7168Y8966D01*
X7166Y8965D01*
X7162Y8964D01*
X7159Y8963D01*
X7156Y8963D01*
X7153Y8963D01*
X7150Y8964D01*
X7146Y8965D01*
X7144Y8966D01*
X7141Y8968D01*
X7138Y8970D01*
X7136Y8973D01*
X7134Y8976D01*
X7133Y8978D01*
X7132Y8982D01*
X7131Y8985D01*
X7131Y8988D01*
X7256D02*
Y8288D01*
X7056D02*
Y8988D01*
X7131D01*
X7181D02*
X7256D01*
Y8288D02*
X7056D01*
X7131Y8138D02*
X7131Y8135D01*
X7132Y8132D01*
X7133Y8128D01*
X7134Y8126D01*
X7136Y8123D01*
X7138Y8120D01*
X7141Y8118D01*
X7144Y8116D01*
X7146Y8115D01*
X7150Y8114D01*
X7153Y8113D01*
X7156Y8113D01*
X7159Y8113D01*
X7162Y8114D01*
X7166Y8115D01*
X7168Y8116D01*
X7171Y8118D01*
X7174Y8120D01*
X7176Y8123D01*
X7178Y8126D01*
X7179Y8128D01*
X7180Y8132D01*
X7181Y8135D01*
X7181Y8138D01*
X7256D02*
Y7438D01*
X7056D02*
Y8138D01*
X7131D01*
X7181D02*
X7256D01*
Y7438D02*
X7056D01*
D14*
X10576Y8323D02*
X10616D01*
X10636Y8293D02*
X10656D01*
X10646D01*
Y8353D01*
X10647D01*
X10646D02*
X10636Y8343D01*
X10686Y8353D02*
X10726D01*
X10686D02*
Y8323D01*
X10706Y8333D01*
X10716D01*
X10726Y8323D01*
Y8303D01*
X10716Y8293D01*
X10696D01*
X10686Y8303D01*
X10426Y8348D02*
X10416Y8358D01*
X10396D01*
X10386Y8348D01*
Y8308D01*
X10396Y8298D01*
X10416D01*
X10426Y8308D01*
Y8328D01*
X10406D01*
X10446Y8298D02*
Y8358D01*
X10486Y8298D01*
Y8358D01*
X10506D02*
Y8298D01*
X10536D01*
X10546Y8308D01*
Y8348D01*
X10536Y8358D01*
X10506D01*
X9981Y8433D02*
X9941D01*
X9961Y8453D02*
Y8413D01*
X10001Y8403D02*
X10021D01*
X10011D01*
Y8463D01*
X10012D01*
X10011D02*
X10001Y8453D01*
X10051Y8463D02*
X10091D01*
X10051D02*
Y8433D01*
X10071Y8443D01*
X10081D01*
X10091Y8433D01*
Y8413D01*
X10081Y8403D01*
X10061D01*
X10051Y8413D01*
X10006Y7573D02*
Y7513D01*
X10036D01*
X10046Y7523D01*
Y7533D01*
Y7543D01*
X10036Y7553D01*
X10006D01*
X10066D02*
Y7523D01*
X10076Y7513D01*
X10106D01*
Y7503D01*
X10096Y7493D01*
X10086D01*
X10106Y7513D02*
Y7553D01*
X10206Y7573D02*
X10226D01*
X10216D02*
X10206D01*
X10216D02*
Y7523D01*
X10206Y7513D01*
X10196D01*
X10186Y7523D01*
X10246Y7573D02*
X10266D01*
X10256D01*
Y7513D01*
X10246D01*
X10266D01*
X10296D02*
Y7573D01*
X10316Y7553D01*
X10336Y7573D01*
Y7513D01*
X10416D02*
Y7573D01*
X10446D01*
X10456Y7563D01*
Y7543D01*
X10446Y7533D01*
X10416D01*
X10476Y7513D02*
Y7553D01*
X10496Y7573D01*
X10516Y7553D01*
Y7513D01*
Y7543D01*
X10476D01*
X10536Y7573D02*
X10576D01*
X10556D01*
Y7513D01*
X10626Y7573D02*
X10636Y7563D01*
X10626Y7573D02*
X10606D01*
X10596Y7563D01*
Y7523D01*
X10606Y7513D01*
X10626D01*
X10636Y7523D01*
X10656Y7513D02*
Y7573D01*
Y7543D02*
Y7513D01*
Y7543D02*
X10696D01*
Y7573D01*
Y7513D01*
X10716Y7573D02*
X10756D01*
X10716D02*
Y7513D01*
X10756D01*
X10736Y7543D02*
X10716D01*
X10776Y7573D02*
Y7513D01*
X10816D01*
X10836D02*
Y7573D01*
Y7513D02*
X10876D01*
X10196Y8063D02*
X10156D01*
X10196Y8103D01*
Y8113D01*
X10186Y8123D01*
X10166D01*
X10156Y8113D01*
X10216D02*
X10226Y8123D01*
X10246D01*
X10256Y8113D01*
Y8073D01*
X10246Y8063D01*
X10226D01*
X10216Y8073D01*
Y8113D01*
X10276D02*
X10286Y8123D01*
X10306D01*
X10316Y8113D01*
Y8073D01*
X10306Y8063D01*
X10286D01*
X10276Y8073D01*
Y8113D01*
X10336Y8093D02*
X10376D01*
X10396Y8063D02*
X10416D01*
X10406D01*
Y8123D01*
X10407D01*
X10406D02*
X10396Y8113D01*
X10446D02*
X10456Y8123D01*
X10476D01*
X10486Y8113D01*
Y8073D01*
X10476Y8063D01*
X10456D01*
X10446Y8073D01*
Y8113D01*
X10506Y8063D02*
X10546D01*
X10506D02*
X10546Y8103D01*
Y8113D01*
X10536Y8123D01*
X10516D01*
X10506Y8113D01*
X10566Y8063D02*
X10586D01*
X10576D01*
Y8123D01*
X10577D01*
X10576D02*
X10566Y8113D01*
X11001Y6993D02*
X11061D01*
X11021Y6973D02*
X11001Y6993D01*
X11021Y6973D02*
X11001Y6953D01*
X11061D01*
Y6933D02*
X11001D01*
X11031D01*
Y6893D01*
X11061D01*
X11001D01*
X11061Y6873D02*
Y6853D01*
Y6863D01*
X11001D01*
Y6873D01*
Y6853D01*
X11061Y6823D02*
Y6783D01*
Y6803D01*
X11001D01*
X11061Y6763D02*
Y6723D01*
Y6763D02*
X11001D01*
Y6723D01*
X11031Y6743D02*
Y6763D01*
X10061Y7033D02*
X10001D01*
X10061D02*
Y7003D01*
X10051Y6993D01*
X10031D01*
X10021Y7003D01*
Y7033D01*
X10061Y6973D02*
Y6953D01*
Y6963D01*
X10001D01*
Y6973D01*
Y6953D01*
Y6923D02*
X10061D01*
X10001Y6883D01*
X10061D01*
Y6863D02*
X10001D01*
X10021D01*
X10061Y6823D01*
X10031Y6853D01*
X10001Y6823D01*
X9056Y6663D02*
X8996D01*
Y6623D01*
X9056Y6603D02*
Y6563D01*
Y6603D02*
X9026D01*
Y6583D01*
Y6603D01*
X8996D01*
X7756Y6523D02*
Y6463D01*
Y6523D02*
X7786D01*
X7796Y6513D01*
Y6493D01*
X7786Y6483D01*
X7756D01*
X7776D02*
X7796Y6463D01*
X7856Y6513D02*
X7846Y6523D01*
X7826D01*
X7816Y6513D01*
Y6503D01*
X7826Y6493D01*
X7846D01*
X7856Y6483D01*
Y6473D01*
X7846Y6463D01*
X7826D01*
X7816Y6473D01*
X7876Y6523D02*
X7916D01*
X7896D01*
Y6463D01*
X8801Y6613D02*
X8811Y6623D01*
Y6643D01*
X8801Y6653D01*
X8761D01*
X8751Y6643D01*
Y6623D01*
X8761Y6613D01*
X8751Y6593D02*
X8811D01*
X8751D02*
Y6553D01*
Y6533D02*
X8811D01*
X8771D02*
X8751D01*
X8771D02*
X8811Y6493D01*
X8781Y6523D01*
X8751Y6493D01*
X7823Y9643D02*
X7756D01*
X7823Y9710D01*
Y9726D01*
X7806Y9743D01*
X7773D01*
X7756Y9726D01*
X7856D02*
X7873Y9743D01*
X7906D01*
X7923Y9726D01*
Y9660D01*
X7906Y9643D01*
X7873D01*
X7856Y9660D01*
Y9726D01*
X7956D02*
X7973Y9743D01*
X8006D01*
X8023Y9726D01*
Y9660D01*
X8006Y9643D01*
X7973D01*
X7956Y9660D01*
Y9726D01*
X8056Y9693D02*
X8123D01*
X8156Y9643D02*
X8189D01*
X8173D01*
Y9743D01*
X8174D01*
X8173D02*
X8156Y9726D01*
X8239D02*
X8256Y9743D01*
X8289D01*
X8306Y9726D01*
Y9660D01*
X8289Y9643D01*
X8256D01*
X8239Y9660D01*
Y9726D01*
X8339Y9643D02*
X8406D01*
X8339D02*
X8406Y9710D01*
Y9726D01*
X8389Y9743D01*
X8356D01*
X8339Y9726D01*
X8439Y9643D02*
X8472D01*
X8456D01*
Y9743D01*
X8457D01*
X8456D02*
X8439Y9726D01*
X8522Y9693D02*
X8589D01*
X8622Y9726D02*
X8639Y9743D01*
X8672D01*
X8689Y9726D01*
Y9660D01*
X8672Y9643D01*
X8639D01*
X8622Y9660D01*
Y9726D01*
X8722Y9743D02*
X8789D01*
X8722D02*
Y9693D01*
X8756Y9710D01*
X8772D01*
X8789Y9693D01*
Y9660D01*
X8772Y9643D01*
X8739D01*
X8722Y9660D01*
X8922Y9643D02*
Y9743D01*
X8972D01*
X8989Y9726D01*
Y9693D01*
X8972Y9676D01*
X8922D01*
X8956D02*
X8989Y9643D01*
X9022Y9743D02*
X9089D01*
X9022D02*
Y9643D01*
X9089D01*
X9056Y9693D02*
X9022D01*
X9122Y9676D02*
Y9743D01*
Y9676D02*
X9156Y9643D01*
X9189Y9676D01*
Y9743D01*
X9322D02*
Y9643D01*
X9389D02*
X9322Y9743D01*
X9389D02*
Y9643D01*
X9489Y9726D02*
X9472Y9743D01*
X9439D01*
X9422Y9726D01*
Y9660D01*
X9439Y9643D01*
X9472D01*
X9489Y9660D01*
X9672Y9743D02*
X9689Y9726D01*
X9672Y9743D02*
X9639D01*
X9622Y9726D01*
Y9660D01*
X9639Y9643D01*
X9672D01*
X9689Y9660D01*
X9739Y9743D02*
X9772D01*
X9739D02*
X9722Y9726D01*
Y9660D01*
X9739Y9643D01*
X9772D01*
X9789Y9660D01*
Y9726D01*
X9772Y9743D01*
X9822D02*
Y9643D01*
X9855Y9710D02*
X9822Y9743D01*
X9855Y9710D02*
X9889Y9743D01*
Y9643D01*
X9922D02*
Y9743D01*
X9972D01*
X9989Y9726D01*
Y9693D01*
X9972Y9676D01*
X9922D01*
X10039Y9743D02*
X10072D01*
X10039D02*
X10022Y9726D01*
Y9660D01*
X10039Y9643D01*
X10072D01*
X10089Y9660D01*
Y9726D01*
X10072Y9743D01*
X10122D02*
Y9643D01*
X10189D02*
X10122Y9743D01*
X10189D02*
Y9643D01*
X10222Y9743D02*
X10289D01*
X10222D02*
Y9643D01*
X10289D01*
X10255Y9693D02*
X10222D01*
X10322Y9643D02*
Y9743D01*
X10388Y9643D01*
Y9743D01*
X10422D02*
X10488D01*
X10455D01*
Y9643D01*
X10672Y9743D02*
X10688Y9726D01*
X10672Y9743D02*
X10638D01*
X10622Y9726D01*
Y9710D01*
X10638Y9693D01*
X10672D01*
X10688Y9676D01*
Y9660D01*
X10672Y9643D01*
X10638D01*
X10622Y9660D01*
X10722Y9743D02*
X10755D01*
X10738D01*
Y9643D01*
X10722D01*
X10755D01*
X10805D02*
Y9743D01*
Y9643D02*
X10855D01*
X10872Y9660D01*
Y9726D01*
X10855Y9743D01*
X10805D01*
X10905D02*
X10972D01*
X10905D02*
Y9643D01*
X10972D01*
X10938Y9693D02*
X10905D01*
X11105Y9643D02*
Y9743D01*
Y9643D02*
X11172D01*
X11205Y9743D02*
X11272D01*
X11205D02*
Y9643D01*
X11272D01*
X11238Y9693D02*
X11205D01*
X11355Y9743D02*
X11371Y9726D01*
X11355Y9743D02*
X11322D01*
X11305Y9726D01*
Y9660D01*
X11322Y9643D01*
X11355D01*
X11371Y9660D01*
Y9693D01*
X11338D01*
X11405Y9743D02*
X11471D01*
X11405D02*
Y9643D01*
X11471D01*
X11438Y9693D02*
X11405D01*
X11505Y9643D02*
Y9743D01*
X11571Y9643D01*
Y9743D01*
X11605D02*
Y9643D01*
X11655D01*
X11671Y9660D01*
Y9726D01*
X11655Y9743D01*
X11605D01*
X10881Y9138D02*
Y8438D01*
X11081D02*
Y9138D01*
X10931D02*
Y9188D01*
X11031D02*
Y9138D01*
X11081Y8438D02*
X10881D01*
Y9138D02*
X11081D01*
X11031Y9188D02*
X10931D01*
X11356Y9138D02*
Y8438D01*
X11556D02*
Y9138D01*
X11406D02*
Y9188D01*
X11506D02*
Y9138D01*
X11556Y8438D02*
X11356D01*
Y9138D02*
X11556D01*
X11506Y9188D02*
X11406D01*
X10831Y7988D02*
X10831Y7985D01*
X10831Y7981D01*
X10831Y7978D01*
X10830Y7975D01*
X10830Y7971D01*
X10829Y7968D01*
X10828Y7965D01*
X10827Y7962D01*
X10827Y7959D01*
X10826Y7955D01*
X10824Y7952D01*
X10823Y7949D01*
X10822Y7946D01*
X10820Y7943D01*
X10819Y7940D01*
X10817Y7937D01*
X10815Y7934D01*
X10814Y7932D01*
X10812Y7929D01*
X10810Y7926D01*
X10808Y7924D01*
X10805Y7921D01*
X10803Y7919D01*
X10801Y7916D01*
X10798Y7914D01*
X10796Y7912D01*
X10793Y7910D01*
X10791Y7908D01*
X10788Y7906D01*
X10785Y7904D01*
X10782Y7902D01*
X10780Y7901D01*
X10777Y7899D01*
X10774Y7898D01*
X10771Y7896D01*
X10768Y7895D01*
X10764Y7894D01*
X10761Y7893D01*
X10758Y7892D01*
X10755Y7891D01*
X10752Y7890D01*
X10748Y7890D01*
X10745Y7889D01*
X10742Y7889D01*
X10738Y7888D01*
X10735Y7888D01*
X10732Y7888D01*
X10729Y7888D01*
X10725Y7888D01*
X10722Y7888D01*
X10719Y7889D01*
X10715Y7889D01*
X10712Y7890D01*
X10709Y7891D01*
X10706Y7891D01*
X10702Y7892D01*
X10699Y7893D01*
X10696Y7894D01*
X10693Y7896D01*
X10690Y7897D01*
X10687Y7898D01*
X10684Y7900D01*
X10681Y7901D01*
X10678Y7903D01*
X10675Y7905D01*
X10673Y7907D01*
X10670Y7909D01*
X10667Y7911D01*
X10665Y7913D01*
X10662Y7915D01*
X10660Y7918D01*
X10658Y7920D01*
X10655Y7922D01*
X10653Y7925D01*
X10651Y7928D01*
X10649Y7930D01*
X10647Y7933D01*
X10646Y7936D01*
X10644Y7939D01*
X10642Y7942D01*
X10641Y7945D01*
X10640Y7948D01*
X10638Y7951D01*
X10637Y7954D01*
X10636Y7957D01*
X10635Y7960D01*
X10634Y7963D01*
X10633Y7967D01*
X10633Y7970D01*
X10632Y7973D01*
X10632Y7976D01*
X10631Y7980D01*
X10631Y7983D01*
X10631Y7986D01*
Y7990D01*
X10631Y7993D01*
X10631Y7996D01*
X10632Y8000D01*
X10632Y8003D01*
X10633Y8006D01*
X10633Y8009D01*
X10634Y8013D01*
X10635Y8016D01*
X10636Y8019D01*
X10637Y8022D01*
X10638Y8025D01*
X10640Y8028D01*
X10641Y8031D01*
X10642Y8034D01*
X10644Y8037D01*
X10646Y8040D01*
X10647Y8043D01*
X10649Y8046D01*
X10651Y8048D01*
X10653Y8051D01*
X10655Y8054D01*
X10658Y8056D01*
X10660Y8058D01*
X10662Y8061D01*
X10665Y8063D01*
X10667Y8065D01*
X10670Y8067D01*
X10673Y8069D01*
X10675Y8071D01*
X10678Y8073D01*
X10681Y8075D01*
X10684Y8076D01*
X10687Y8078D01*
X10690Y8079D01*
X10693Y8080D01*
X10696Y8082D01*
X10699Y8083D01*
X10702Y8084D01*
X10706Y8085D01*
X10709Y8085D01*
X10712Y8086D01*
X10715Y8087D01*
X10719Y8087D01*
X10722Y8088D01*
X10725Y8088D01*
X10729Y8088D01*
X10732Y8088D01*
X10735Y8088D01*
X10738Y8088D01*
X10742Y8087D01*
X10745Y8087D01*
X10748Y8086D01*
X10752Y8086D01*
X10755Y8085D01*
X10758Y8084D01*
X10761Y8083D01*
X10764Y8082D01*
X10768Y8081D01*
X10771Y8080D01*
X10774Y8078D01*
X10777Y8077D01*
X10780Y8075D01*
X10782Y8074D01*
X10785Y8072D01*
X10788Y8070D01*
X10791Y8068D01*
X10793Y8066D01*
X10796Y8064D01*
X10798Y8062D01*
X10801Y8060D01*
X10803Y8057D01*
X10805Y8055D01*
X10808Y8052D01*
X10810Y8050D01*
X10812Y8047D01*
X10814Y8044D01*
X10815Y8042D01*
X10817Y8039D01*
X10819Y8036D01*
X10820Y8033D01*
X10822Y8030D01*
X10823Y8027D01*
X10824Y8024D01*
X10826Y8021D01*
X10827Y8017D01*
X10827Y8014D01*
X10828Y8011D01*
X10829Y8008D01*
X10830Y8005D01*
X10830Y8001D01*
X10831Y7998D01*
X10831Y7995D01*
X10831Y7991D01*
X10831Y7988D01*
X10806Y7903D02*
Y7853D01*
X10781Y7878D02*
X10831D01*
X11556Y7488D02*
X11559Y7488D01*
X11563Y7488D01*
X11566Y7489D01*
X11569Y7490D01*
X11572Y7491D01*
X11575Y7492D01*
X11578Y7493D01*
X11581Y7495D01*
X11584Y7496D01*
X11586Y7498D01*
X11589Y7500D01*
X11591Y7503D01*
X11594Y7505D01*
X11596Y7508D01*
X11598Y7510D01*
X11599Y7513D01*
X11601Y7516D01*
X11602Y7519D01*
X11603Y7522D01*
X11604Y7525D01*
X11605Y7528D01*
X11606Y7531D01*
X11606Y7535D01*
X11606Y7538D01*
X11456Y7488D02*
X11453Y7488D01*
X11449Y7488D01*
X11446Y7489D01*
X11443Y7490D01*
X11440Y7491D01*
X11437Y7492D01*
X11434Y7493D01*
X11431Y7495D01*
X11428Y7496D01*
X11426Y7498D01*
X11423Y7500D01*
X11421Y7503D01*
X11418Y7505D01*
X11416Y7508D01*
X11414Y7510D01*
X11413Y7513D01*
X11411Y7516D01*
X11410Y7519D01*
X11409Y7522D01*
X11408Y7525D01*
X11407Y7528D01*
X11406Y7531D01*
X11406Y7535D01*
X11406Y7538D01*
Y7838D02*
X11406Y7841D01*
X11406Y7845D01*
X11407Y7848D01*
X11408Y7851D01*
X11409Y7854D01*
X11410Y7857D01*
X11411Y7860D01*
X11413Y7863D01*
X11414Y7866D01*
X11416Y7868D01*
X11418Y7871D01*
X11421Y7873D01*
X11423Y7876D01*
X11426Y7878D01*
X11428Y7880D01*
X11431Y7881D01*
X11434Y7883D01*
X11437Y7884D01*
X11440Y7885D01*
X11443Y7886D01*
X11446Y7887D01*
X11449Y7888D01*
X11453Y7888D01*
X11456Y7888D01*
X11556D02*
X11559Y7888D01*
X11563Y7888D01*
X11566Y7887D01*
X11569Y7886D01*
X11572Y7885D01*
X11575Y7884D01*
X11578Y7883D01*
X11581Y7881D01*
X11584Y7880D01*
X11586Y7878D01*
X11589Y7876D01*
X11591Y7873D01*
X11594Y7871D01*
X11596Y7868D01*
X11598Y7866D01*
X11599Y7863D01*
X11601Y7860D01*
X11602Y7857D01*
X11603Y7854D01*
X11604Y7851D01*
X11605Y7848D01*
X11606Y7845D01*
X11606Y7841D01*
X11606Y7838D01*
X11406D02*
Y7538D01*
X11606D02*
Y7838D01*
X11556Y7488D02*
X11456D01*
Y7888D02*
X11556D01*
X11806Y8488D02*
X11756Y8538D01*
X11806Y8388D02*
X11756Y8338D01*
X11656D02*
Y8538D01*
X11806Y8488D02*
Y8388D01*
X11756Y8538D02*
X11656D01*
Y8338D02*
X11756D01*
X11806Y7538D02*
X11806Y7535D01*
X11806Y7531D01*
X11805Y7528D01*
X11804Y7525D01*
X11803Y7522D01*
X11802Y7519D01*
X11801Y7516D01*
X11799Y7513D01*
X11798Y7510D01*
X11796Y7508D01*
X11794Y7505D01*
X11791Y7503D01*
X11789Y7500D01*
X11786Y7498D01*
X11784Y7496D01*
X11781Y7495D01*
X11778Y7493D01*
X11775Y7492D01*
X11772Y7491D01*
X11769Y7490D01*
X11766Y7489D01*
X11763Y7488D01*
X11759Y7488D01*
X11756Y7488D01*
X11656D02*
X11653Y7488D01*
X11649Y7488D01*
X11646Y7489D01*
X11643Y7490D01*
X11640Y7491D01*
X11637Y7492D01*
X11634Y7493D01*
X11631Y7495D01*
X11628Y7496D01*
X11626Y7498D01*
X11623Y7500D01*
X11621Y7503D01*
X11618Y7505D01*
X11616Y7508D01*
X11614Y7510D01*
X11613Y7513D01*
X11611Y7516D01*
X11610Y7519D01*
X11609Y7522D01*
X11608Y7525D01*
X11607Y7528D01*
X11606Y7531D01*
X11606Y7535D01*
X11606Y7538D01*
Y7838D02*
X11606Y7841D01*
X11606Y7845D01*
X11607Y7848D01*
X11608Y7851D01*
X11609Y7854D01*
X11610Y7857D01*
X11611Y7860D01*
X11613Y7863D01*
X11614Y7866D01*
X11616Y7868D01*
X11618Y7871D01*
X11621Y7873D01*
X11623Y7876D01*
X11626Y7878D01*
X11628Y7880D01*
X11631Y7881D01*
X11634Y7883D01*
X11637Y7884D01*
X11640Y7885D01*
X11643Y7886D01*
X11646Y7887D01*
X11649Y7888D01*
X11653Y7888D01*
X11656Y7888D01*
X11756D02*
X11759Y7888D01*
X11763Y7888D01*
X11766Y7887D01*
X11769Y7886D01*
X11772Y7885D01*
X11775Y7884D01*
X11778Y7883D01*
X11781Y7881D01*
X11784Y7880D01*
X11786Y7878D01*
X11789Y7876D01*
X11791Y7873D01*
X11794Y7871D01*
X11796Y7868D01*
X11798Y7866D01*
X11799Y7863D01*
X11801Y7860D01*
X11802Y7857D01*
X11803Y7854D01*
X11804Y7851D01*
X11805Y7848D01*
X11806Y7845D01*
X11806Y7841D01*
X11806Y7838D01*
X11606D02*
Y7538D01*
X11806D02*
Y7838D01*
X11756Y7488D02*
X11656D01*
Y7888D02*
X11756D01*
X11581Y7388D02*
X11731Y7238D01*
X11231Y7388D02*
X11081Y7238D01*
Y6416D01*
X11731D02*
Y7238D01*
X11591Y6413D02*
Y6133D01*
X11221D02*
Y6413D01*
X11231Y7388D02*
X11581D01*
X11731Y6416D02*
X11081D01*
X11221Y6133D02*
X11591D01*
X9381Y8538D02*
X9378Y8538D01*
X9374Y8538D01*
X9371Y8539D01*
X9368Y8540D01*
X9365Y8541D01*
X9362Y8542D01*
X9359Y8543D01*
X9356Y8545D01*
X9353Y8546D01*
X9351Y8548D01*
X9348Y8550D01*
X9346Y8553D01*
X9343Y8555D01*
X9341Y8558D01*
X9339Y8560D01*
X9338Y8563D01*
X9336Y8566D01*
X9335Y8569D01*
X9334Y8572D01*
X9333Y8575D01*
X9332Y8578D01*
X9331Y8581D01*
X9331Y8585D01*
X9331Y8588D01*
X9431Y8538D02*
X9434Y8538D01*
X9438Y8538D01*
X9441Y8539D01*
X9444Y8540D01*
X9447Y8541D01*
X9450Y8542D01*
X9453Y8543D01*
X9456Y8545D01*
X9459Y8546D01*
X9461Y8548D01*
X9464Y8550D01*
X9466Y8553D01*
X9469Y8555D01*
X9471Y8558D01*
X9473Y8560D01*
X9474Y8563D01*
X9476Y8566D01*
X9477Y8569D01*
X9478Y8572D01*
X9479Y8575D01*
X9480Y8578D01*
X9481Y8581D01*
X9481Y8585D01*
X9481Y8588D01*
Y8788D02*
X9481Y8791D01*
X9481Y8795D01*
X9480Y8798D01*
X9479Y8801D01*
X9478Y8804D01*
X9477Y8807D01*
X9476Y8810D01*
X9474Y8813D01*
X9473Y8816D01*
X9471Y8818D01*
X9469Y8821D01*
X9466Y8823D01*
X9464Y8826D01*
X9461Y8828D01*
X9459Y8830D01*
X9456Y8831D01*
X9453Y8833D01*
X9450Y8834D01*
X9447Y8835D01*
X9444Y8836D01*
X9441Y8837D01*
X9438Y8838D01*
X9434Y8838D01*
X9431Y8838D01*
X9381D02*
X9378Y8838D01*
X9374Y8838D01*
X9371Y8837D01*
X9368Y8836D01*
X9365Y8835D01*
X9362Y8834D01*
X9359Y8833D01*
X9356Y8831D01*
X9353Y8830D01*
X9351Y8828D01*
X9348Y8826D01*
X9346Y8823D01*
X9343Y8821D01*
X9341Y8818D01*
X9339Y8816D01*
X9338Y8813D01*
X9336Y8810D01*
X9335Y8807D01*
X9334Y8804D01*
X9333Y8801D01*
X9332Y8798D01*
X9331Y8795D01*
X9331Y8791D01*
X9331Y8788D01*
Y8588D01*
X9481D02*
Y8788D01*
X9431Y8538D02*
X9381D01*
Y8838D02*
X9431D01*
X9181Y8588D02*
X9181Y8585D01*
X9181Y8581D01*
X9182Y8578D01*
X9183Y8575D01*
X9184Y8572D01*
X9185Y8569D01*
X9186Y8566D01*
X9188Y8563D01*
X9189Y8560D01*
X9191Y8558D01*
X9193Y8555D01*
X9196Y8553D01*
X9198Y8550D01*
X9201Y8548D01*
X9203Y8546D01*
X9206Y8545D01*
X9209Y8543D01*
X9212Y8542D01*
X9215Y8541D01*
X9218Y8540D01*
X9221Y8539D01*
X9224Y8538D01*
X9228Y8538D01*
X9231Y8538D01*
X9281D02*
X9284Y8538D01*
X9288Y8538D01*
X9291Y8539D01*
X9294Y8540D01*
X9297Y8541D01*
X9300Y8542D01*
X9303Y8543D01*
X9306Y8545D01*
X9309Y8546D01*
X9311Y8548D01*
X9314Y8550D01*
X9316Y8553D01*
X9319Y8555D01*
X9321Y8558D01*
X9323Y8560D01*
X9324Y8563D01*
X9326Y8566D01*
X9327Y8569D01*
X9328Y8572D01*
X9329Y8575D01*
X9330Y8578D01*
X9331Y8581D01*
X9331Y8585D01*
X9331Y8588D01*
Y8788D02*
X9331Y8791D01*
X9331Y8795D01*
X9330Y8798D01*
X9329Y8801D01*
X9328Y8804D01*
X9327Y8807D01*
X9326Y8810D01*
X9324Y8813D01*
X9323Y8816D01*
X9321Y8818D01*
X9319Y8821D01*
X9316Y8823D01*
X9314Y8826D01*
X9311Y8828D01*
X9309Y8830D01*
X9306Y8831D01*
X9303Y8833D01*
X9300Y8834D01*
X9297Y8835D01*
X9294Y8836D01*
X9291Y8837D01*
X9288Y8838D01*
X9284Y8838D01*
X9281Y8838D01*
X9231D02*
X9228Y8838D01*
X9224Y8838D01*
X9221Y8837D01*
X9218Y8836D01*
X9215Y8835D01*
X9212Y8834D01*
X9209Y8833D01*
X9206Y8831D01*
X9203Y8830D01*
X9201Y8828D01*
X9198Y8826D01*
X9196Y8823D01*
X9193Y8821D01*
X9191Y8818D01*
X9189Y8816D01*
X9188Y8813D01*
X9186Y8810D01*
X9185Y8807D01*
X9184Y8804D01*
X9183Y8801D01*
X9182Y8798D01*
X9181Y8795D01*
X9181Y8791D01*
X9181Y8788D01*
Y8588D01*
X9331D02*
Y8788D01*
X9281Y8538D02*
X9231D01*
Y8838D02*
X9281D01*
X10356Y8288D02*
X10356Y8285D01*
X10356Y8281D01*
X10356Y8278D01*
X10355Y8275D01*
X10355Y8271D01*
X10354Y8268D01*
X10353Y8265D01*
X10352Y8262D01*
X10352Y8259D01*
X10351Y8255D01*
X10349Y8252D01*
X10348Y8249D01*
X10347Y8246D01*
X10345Y8243D01*
X10344Y8240D01*
X10342Y8237D01*
X10340Y8234D01*
X10339Y8232D01*
X10337Y8229D01*
X10335Y8226D01*
X10333Y8224D01*
X10330Y8221D01*
X10328Y8219D01*
X10326Y8216D01*
X10323Y8214D01*
X10321Y8212D01*
X10318Y8210D01*
X10316Y8208D01*
X10313Y8206D01*
X10310Y8204D01*
X10307Y8202D01*
X10305Y8201D01*
X10302Y8199D01*
X10299Y8198D01*
X10296Y8196D01*
X10293Y8195D01*
X10289Y8194D01*
X10286Y8193D01*
X10283Y8192D01*
X10280Y8191D01*
X10277Y8190D01*
X10273Y8190D01*
X10270Y8189D01*
X10267Y8189D01*
X10263Y8188D01*
X10260Y8188D01*
X10257Y8188D01*
X10254Y8188D01*
X10250Y8188D01*
X10247Y8188D01*
X10244Y8189D01*
X10240Y8189D01*
X10237Y8190D01*
X10234Y8191D01*
X10231Y8191D01*
X10227Y8192D01*
X10224Y8193D01*
X10221Y8194D01*
X10218Y8196D01*
X10215Y8197D01*
X10212Y8198D01*
X10209Y8200D01*
X10206Y8201D01*
X10203Y8203D01*
X10200Y8205D01*
X10198Y8207D01*
X10195Y8209D01*
X10192Y8211D01*
X10190Y8213D01*
X10187Y8215D01*
X10185Y8218D01*
X10183Y8220D01*
X10180Y8222D01*
X10178Y8225D01*
X10176Y8228D01*
X10174Y8230D01*
X10172Y8233D01*
X10171Y8236D01*
X10169Y8239D01*
X10167Y8242D01*
X10166Y8245D01*
X10165Y8248D01*
X10163Y8251D01*
X10162Y8254D01*
X10161Y8257D01*
X10160Y8260D01*
X10159Y8263D01*
X10158Y8267D01*
X10158Y8270D01*
X10157Y8273D01*
X10157Y8276D01*
X10156Y8280D01*
X10156Y8283D01*
X10156Y8286D01*
Y8290D01*
X10156Y8293D01*
X10156Y8296D01*
X10157Y8300D01*
X10157Y8303D01*
X10158Y8306D01*
X10158Y8309D01*
X10159Y8313D01*
X10160Y8316D01*
X10161Y8319D01*
X10162Y8322D01*
X10163Y8325D01*
X10165Y8328D01*
X10166Y8331D01*
X10167Y8334D01*
X10169Y8337D01*
X10171Y8340D01*
X10172Y8343D01*
X10174Y8346D01*
X10176Y8348D01*
X10178Y8351D01*
X10180Y8354D01*
X10183Y8356D01*
X10185Y8358D01*
X10187Y8361D01*
X10190Y8363D01*
X10192Y8365D01*
X10195Y8367D01*
X10198Y8369D01*
X10200Y8371D01*
X10203Y8373D01*
X10206Y8375D01*
X10209Y8376D01*
X10212Y8378D01*
X10215Y8379D01*
X10218Y8380D01*
X10221Y8382D01*
X10224Y8383D01*
X10227Y8384D01*
X10231Y8385D01*
X10234Y8385D01*
X10237Y8386D01*
X10240Y8387D01*
X10244Y8387D01*
X10247Y8388D01*
X10250Y8388D01*
X10254Y8388D01*
X10257Y8388D01*
X10260Y8388D01*
X10263Y8388D01*
X10267Y8387D01*
X10270Y8387D01*
X10273Y8386D01*
X10277Y8386D01*
X10280Y8385D01*
X10283Y8384D01*
X10286Y8383D01*
X10289Y8382D01*
X10293Y8381D01*
X10296Y8380D01*
X10299Y8378D01*
X10302Y8377D01*
X10305Y8375D01*
X10307Y8374D01*
X10310Y8372D01*
X10313Y8370D01*
X10316Y8368D01*
X10318Y8366D01*
X10321Y8364D01*
X10323Y8362D01*
X10326Y8360D01*
X10328Y8357D01*
X10330Y8355D01*
X10333Y8352D01*
X10335Y8350D01*
X10337Y8347D01*
X10339Y8344D01*
X10340Y8342D01*
X10342Y8339D01*
X10344Y8336D01*
X10345Y8333D01*
X10347Y8330D01*
X10348Y8327D01*
X10349Y8324D01*
X10351Y8321D01*
X10352Y8317D01*
X10352Y8314D01*
X10353Y8311D01*
X10354Y8308D01*
X10355Y8305D01*
X10355Y8301D01*
X10356Y8298D01*
X10356Y8295D01*
X10356Y8291D01*
X10356Y8288D01*
X10331Y8203D02*
Y8153D01*
X10306Y8178D02*
X10356D01*
X9681Y7788D02*
X9681Y7791D01*
X9681Y7795D01*
X9680Y7798D01*
X9679Y7801D01*
X9678Y7804D01*
X9677Y7807D01*
X9676Y7810D01*
X9674Y7813D01*
X9673Y7816D01*
X9671Y7818D01*
X9669Y7821D01*
X9666Y7823D01*
X9664Y7826D01*
X9661Y7828D01*
X9659Y7830D01*
X9656Y7831D01*
X9653Y7833D01*
X9650Y7834D01*
X9647Y7835D01*
X9644Y7836D01*
X9641Y7837D01*
X9638Y7838D01*
X9634Y7838D01*
X9631Y7838D01*
X9581D02*
X9578Y7838D01*
X9574Y7838D01*
X9571Y7837D01*
X9568Y7836D01*
X9565Y7835D01*
X9562Y7834D01*
X9559Y7833D01*
X9556Y7831D01*
X9553Y7830D01*
X9551Y7828D01*
X9548Y7826D01*
X9546Y7823D01*
X9543Y7821D01*
X9541Y7818D01*
X9539Y7816D01*
X9538Y7813D01*
X9536Y7810D01*
X9535Y7807D01*
X9534Y7804D01*
X9533Y7801D01*
X9532Y7798D01*
X9531Y7795D01*
X9531Y7791D01*
X9531Y7788D01*
Y7588D02*
X9531Y7585D01*
X9531Y7581D01*
X9532Y7578D01*
X9533Y7575D01*
X9534Y7572D01*
X9535Y7569D01*
X9536Y7566D01*
X9538Y7563D01*
X9539Y7560D01*
X9541Y7558D01*
X9543Y7555D01*
X9546Y7553D01*
X9548Y7550D01*
X9551Y7548D01*
X9553Y7546D01*
X9556Y7545D01*
X9559Y7543D01*
X9562Y7542D01*
X9565Y7541D01*
X9568Y7540D01*
X9571Y7539D01*
X9574Y7538D01*
X9578Y7538D01*
X9581Y7538D01*
X9631D02*
X9634Y7538D01*
X9638Y7538D01*
X9641Y7539D01*
X9644Y7540D01*
X9647Y7541D01*
X9650Y7542D01*
X9653Y7543D01*
X9656Y7545D01*
X9659Y7546D01*
X9661Y7548D01*
X9664Y7550D01*
X9666Y7553D01*
X9669Y7555D01*
X9671Y7558D01*
X9673Y7560D01*
X9674Y7563D01*
X9676Y7566D01*
X9677Y7569D01*
X9678Y7572D01*
X9679Y7575D01*
X9680Y7578D01*
X9681Y7581D01*
X9681Y7585D01*
X9681Y7588D01*
Y7788D01*
X9531D02*
Y7588D01*
X9581Y7838D02*
X9631D01*
Y7538D02*
X9581D01*
X10581Y7388D02*
X10731Y7238D01*
X10231Y7388D02*
X10081Y7238D01*
Y6416D01*
X10731D02*
Y7238D01*
X10591Y6413D02*
Y6133D01*
X10221D02*
Y6413D01*
X10231Y7388D02*
X10581D01*
X10731Y6416D02*
X10081D01*
X10221Y6133D02*
X10591D01*
X9731Y7238D02*
X9581Y7388D01*
X9231D02*
X9081Y7238D01*
Y6416D01*
X9731D02*
Y7238D01*
X9591Y6413D02*
Y6133D01*
X9221D02*
Y6413D01*
X9231Y7388D02*
X9581D01*
X9731Y6416D02*
X9081D01*
X9221Y6133D02*
X9591D01*
X8631Y8813D02*
X8581Y8863D01*
X8631Y8713D02*
X8581Y8663D01*
X8481D02*
Y8863D01*
X8631Y8813D02*
Y8713D01*
X8581Y8863D02*
X8481D01*
Y8663D02*
X8581D01*
X8656Y8988D02*
X8656Y8985D01*
X8656Y8981D01*
X8656Y8978D01*
X8655Y8975D01*
X8655Y8971D01*
X8654Y8968D01*
X8653Y8965D01*
X8652Y8962D01*
X8652Y8959D01*
X8651Y8955D01*
X8649Y8952D01*
X8648Y8949D01*
X8647Y8946D01*
X8645Y8943D01*
X8644Y8940D01*
X8642Y8937D01*
X8640Y8934D01*
X8639Y8932D01*
X8637Y8929D01*
X8635Y8926D01*
X8633Y8924D01*
X8630Y8921D01*
X8628Y8919D01*
X8626Y8916D01*
X8623Y8914D01*
X8621Y8912D01*
X8618Y8910D01*
X8616Y8908D01*
X8613Y8906D01*
X8610Y8904D01*
X8607Y8902D01*
X8605Y8901D01*
X8602Y8899D01*
X8599Y8898D01*
X8596Y8896D01*
X8593Y8895D01*
X8589Y8894D01*
X8586Y8893D01*
X8583Y8892D01*
X8580Y8891D01*
X8577Y8890D01*
X8573Y8890D01*
X8570Y8889D01*
X8567Y8889D01*
X8563Y8888D01*
X8560Y8888D01*
X8557Y8888D01*
X8554Y8888D01*
X8550Y8888D01*
X8547Y8888D01*
X8544Y8889D01*
X8540Y8889D01*
X8537Y8890D01*
X8534Y8891D01*
X8531Y8891D01*
X8527Y8892D01*
X8524Y8893D01*
X8521Y8894D01*
X8518Y8896D01*
X8515Y8897D01*
X8512Y8898D01*
X8509Y8900D01*
X8506Y8901D01*
X8503Y8903D01*
X8500Y8905D01*
X8498Y8907D01*
X8495Y8909D01*
X8492Y8911D01*
X8490Y8913D01*
X8487Y8915D01*
X8485Y8918D01*
X8483Y8920D01*
X8480Y8922D01*
X8478Y8925D01*
X8476Y8928D01*
X8474Y8930D01*
X8472Y8933D01*
X8471Y8936D01*
X8469Y8939D01*
X8467Y8942D01*
X8466Y8945D01*
X8465Y8948D01*
X8463Y8951D01*
X8462Y8954D01*
X8461Y8957D01*
X8460Y8960D01*
X8459Y8963D01*
X8458Y8967D01*
X8458Y8970D01*
X8457Y8973D01*
X8457Y8976D01*
X8456Y8980D01*
X8456Y8983D01*
X8456Y8986D01*
Y8990D01*
X8456Y8993D01*
X8456Y8996D01*
X8457Y9000D01*
X8457Y9003D01*
X8458Y9006D01*
X8458Y9009D01*
X8459Y9013D01*
X8460Y9016D01*
X8461Y9019D01*
X8462Y9022D01*
X8463Y9025D01*
X8465Y9028D01*
X8466Y9031D01*
X8467Y9034D01*
X8469Y9037D01*
X8471Y9040D01*
X8472Y9043D01*
X8474Y9046D01*
X8476Y9048D01*
X8478Y9051D01*
X8480Y9054D01*
X8483Y9056D01*
X8485Y9058D01*
X8487Y9061D01*
X8490Y9063D01*
X8492Y9065D01*
X8495Y9067D01*
X8498Y9069D01*
X8500Y9071D01*
X8503Y9073D01*
X8506Y9075D01*
X8509Y9076D01*
X8512Y9078D01*
X8515Y9079D01*
X8518Y9080D01*
X8521Y9082D01*
X8524Y9083D01*
X8527Y9084D01*
X8531Y9085D01*
X8534Y9085D01*
X8537Y9086D01*
X8540Y9087D01*
X8544Y9087D01*
X8547Y9088D01*
X8550Y9088D01*
X8554Y9088D01*
X8557Y9088D01*
X8560Y9088D01*
X8563Y9088D01*
X8567Y9087D01*
X8570Y9087D01*
X8573Y9086D01*
X8577Y9086D01*
X8580Y9085D01*
X8583Y9084D01*
X8586Y9083D01*
X8589Y9082D01*
X8593Y9081D01*
X8596Y9080D01*
X8599Y9078D01*
X8602Y9077D01*
X8605Y9075D01*
X8607Y9074D01*
X8610Y9072D01*
X8613Y9070D01*
X8616Y9068D01*
X8618Y9066D01*
X8621Y9064D01*
X8623Y9062D01*
X8626Y9060D01*
X8628Y9057D01*
X8630Y9055D01*
X8633Y9052D01*
X8635Y9050D01*
X8637Y9047D01*
X8639Y9044D01*
X8640Y9042D01*
X8642Y9039D01*
X8644Y9036D01*
X8645Y9033D01*
X8647Y9030D01*
X8648Y9027D01*
X8649Y9024D01*
X8651Y9021D01*
X8652Y9017D01*
X8652Y9014D01*
X8653Y9011D01*
X8654Y9008D01*
X8655Y9005D01*
X8655Y9001D01*
X8656Y8998D01*
X8656Y8995D01*
X8656Y8991D01*
X8656Y8988D01*
X8446Y8938D02*
Y8888D01*
X8421Y8913D02*
X8471D01*
X7881Y7338D02*
X7884Y7338D01*
X7888Y7338D01*
X7891Y7337D01*
X7894Y7336D01*
X7897Y7335D01*
X7900Y7334D01*
X7903Y7333D01*
X7906Y7331D01*
X7909Y7330D01*
X7911Y7328D01*
X7914Y7326D01*
X7916Y7323D01*
X7919Y7321D01*
X7921Y7318D01*
X7923Y7316D01*
X7924Y7313D01*
X7926Y7310D01*
X7927Y7307D01*
X7928Y7304D01*
X7929Y7301D01*
X7930Y7298D01*
X7931Y7295D01*
X7931Y7291D01*
X7931Y7288D01*
X7831Y7338D02*
X7828Y7338D01*
X7824Y7338D01*
X7821Y7337D01*
X7818Y7336D01*
X7815Y7335D01*
X7812Y7334D01*
X7809Y7333D01*
X7806Y7331D01*
X7803Y7330D01*
X7801Y7328D01*
X7798Y7326D01*
X7796Y7323D01*
X7793Y7321D01*
X7791Y7318D01*
X7789Y7316D01*
X7788Y7313D01*
X7786Y7310D01*
X7785Y7307D01*
X7784Y7304D01*
X7783Y7301D01*
X7782Y7298D01*
X7781Y7295D01*
X7781Y7291D01*
X7781Y7288D01*
Y7088D02*
X7781Y7085D01*
X7781Y7081D01*
X7782Y7078D01*
X7783Y7075D01*
X7784Y7072D01*
X7785Y7069D01*
X7786Y7066D01*
X7788Y7063D01*
X7789Y7060D01*
X7791Y7058D01*
X7793Y7055D01*
X7796Y7053D01*
X7798Y7050D01*
X7801Y7048D01*
X7803Y7046D01*
X7806Y7045D01*
X7809Y7043D01*
X7812Y7042D01*
X7815Y7041D01*
X7818Y7040D01*
X7821Y7039D01*
X7824Y7038D01*
X7828Y7038D01*
X7831Y7038D01*
X7881D02*
X7884Y7038D01*
X7888Y7038D01*
X7891Y7039D01*
X7894Y7040D01*
X7897Y7041D01*
X7900Y7042D01*
X7903Y7043D01*
X7906Y7045D01*
X7909Y7046D01*
X7911Y7048D01*
X7914Y7050D01*
X7916Y7053D01*
X7919Y7055D01*
X7921Y7058D01*
X7923Y7060D01*
X7924Y7063D01*
X7926Y7066D01*
X7927Y7069D01*
X7928Y7072D01*
X7929Y7075D01*
X7930Y7078D01*
X7931Y7081D01*
X7931Y7085D01*
X7931Y7088D01*
Y7288D01*
X7781D02*
Y7088D01*
X7831Y7338D02*
X7881D01*
Y7038D02*
X7831D01*
X8581Y7388D02*
X8731Y7238D01*
X8231Y7388D02*
X8081Y7238D01*
Y6416D01*
X8731D02*
Y7238D01*
X8591Y6413D02*
Y6133D01*
X8221D02*
Y6413D01*
X8231Y7388D02*
X8581D01*
X8731Y6416D02*
X8081D01*
X8221Y6133D02*
X8591D01*
X6981Y6538D02*
X6978Y6538D01*
X6974Y6538D01*
X6971Y6539D01*
X6968Y6540D01*
X6965Y6541D01*
X6962Y6542D01*
X6959Y6543D01*
X6956Y6545D01*
X6953Y6546D01*
X6951Y6548D01*
X6948Y6550D01*
X6946Y6553D01*
X6943Y6555D01*
X6941Y6558D01*
X6939Y6560D01*
X6938Y6563D01*
X6936Y6566D01*
X6935Y6569D01*
X6934Y6572D01*
X6933Y6575D01*
X6932Y6578D01*
X6931Y6581D01*
X6931Y6585D01*
X6931Y6588D01*
X7031Y6538D02*
X7034Y6538D01*
X7038Y6538D01*
X7041Y6539D01*
X7044Y6540D01*
X7047Y6541D01*
X7050Y6542D01*
X7053Y6543D01*
X7056Y6545D01*
X7059Y6546D01*
X7061Y6548D01*
X7064Y6550D01*
X7066Y6553D01*
X7069Y6555D01*
X7071Y6558D01*
X7073Y6560D01*
X7074Y6563D01*
X7076Y6566D01*
X7077Y6569D01*
X7078Y6572D01*
X7079Y6575D01*
X7080Y6578D01*
X7081Y6581D01*
X7081Y6585D01*
X7081Y6588D01*
Y6788D02*
X7081Y6791D01*
X7081Y6795D01*
X7080Y6798D01*
X7079Y6801D01*
X7078Y6804D01*
X7077Y6807D01*
X7076Y6810D01*
X7074Y6813D01*
X7073Y6816D01*
X7071Y6818D01*
X7069Y6821D01*
X7066Y6823D01*
X7064Y6826D01*
X7061Y6828D01*
X7059Y6830D01*
X7056Y6831D01*
X7053Y6833D01*
X7050Y6834D01*
X7047Y6835D01*
X7044Y6836D01*
X7041Y6837D01*
X7038Y6838D01*
X7034Y6838D01*
X7031Y6838D01*
X6981D02*
X6978Y6838D01*
X6974Y6838D01*
X6971Y6837D01*
X6968Y6836D01*
X6965Y6835D01*
X6962Y6834D01*
X6959Y6833D01*
X6956Y6831D01*
X6953Y6830D01*
X6951Y6828D01*
X6948Y6826D01*
X6946Y6823D01*
X6943Y6821D01*
X6941Y6818D01*
X6939Y6816D01*
X6938Y6813D01*
X6936Y6810D01*
X6935Y6807D01*
X6934Y6804D01*
X6933Y6801D01*
X6932Y6798D01*
X6931Y6795D01*
X6931Y6791D01*
X6931Y6788D01*
Y6588D01*
X7081D02*
Y6788D01*
X7031Y6538D02*
X6981D01*
Y6838D02*
X7031D01*
X7581Y7388D02*
X7731Y7238D01*
X7231Y7388D02*
X7081Y7238D01*
Y6416D01*
X7731D02*
Y7238D01*
X7591Y6413D02*
Y6133D01*
X7221D02*
Y6413D01*
X7231Y7388D02*
X7581D01*
X7731Y6416D02*
X7081D01*
X7221Y6133D02*
X7591D01*
X6906Y9188D02*
X11906D01*
Y6438D02*
X6906D01*
Y9188D01*
X11906D02*
Y6438D01*
D15*
X11196Y8568D02*
Y8808D01*
X11116D02*
Y8568D01*
X11156Y8808D02*
Y8888D01*
Y8568D02*
Y8488D01*
X11116Y8808D02*
X11196D01*
Y8568D02*
X11116D01*
X11646Y8718D02*
Y8958D01*
X11566D02*
Y8718D01*
X11606Y8958D02*
Y9038D01*
Y8718D02*
Y8638D01*
X11566Y8958D02*
X11646D01*
Y8718D02*
X11566D01*
X11746D02*
Y8958D01*
X11666D02*
Y8718D01*
X11706Y8958D02*
Y9038D01*
Y8718D02*
Y8638D01*
X11666Y8958D02*
X11746D01*
Y8718D02*
X11666D01*
X11846D02*
Y8958D01*
X11766D02*
Y8718D01*
X11806Y8958D02*
Y9038D01*
Y8718D02*
Y8638D01*
X11766Y8958D02*
X11846D01*
Y8718D02*
X11766D01*
X10996Y8158D02*
X10996Y8155D01*
X10995Y8152D01*
X10995Y8148D01*
X10994Y8145D01*
X10993Y8142D01*
X10991Y8139D01*
X10990Y8137D01*
X10988Y8134D01*
X10986Y8131D01*
X10984Y8129D01*
X10981Y8127D01*
X10979Y8125D01*
X10976Y8123D01*
X10973Y8122D01*
X10970Y8121D01*
X10967Y8120D01*
X10964Y8119D01*
X10961Y8118D01*
X10958Y8118D01*
X10954D01*
X10951Y8118D01*
X10948Y8119D01*
X10945Y8120D01*
X10942Y8121D01*
X10939Y8122D01*
X10936Y8123D01*
X10933Y8125D01*
X10931Y8127D01*
X10928Y8129D01*
X10926Y8131D01*
X10924Y8134D01*
X10922Y8137D01*
X10921Y8139D01*
X10919Y8142D01*
X10918Y8145D01*
X10917Y8148D01*
X10917Y8152D01*
X10916Y8155D01*
X10916Y8158D01*
Y8218D02*
X10916Y8221D01*
X10917Y8224D01*
X10917Y8228D01*
X10918Y8231D01*
X10919Y8234D01*
X10921Y8237D01*
X10922Y8239D01*
X10924Y8242D01*
X10926Y8245D01*
X10928Y8247D01*
X10931Y8249D01*
X10933Y8251D01*
X10936Y8253D01*
X10939Y8254D01*
X10942Y8255D01*
X10945Y8256D01*
X10948Y8257D01*
X10951Y8258D01*
X10954Y8258D01*
X10958D01*
X10961Y8258D01*
X10964Y8257D01*
X10967Y8256D01*
X10970Y8255D01*
X10973Y8254D01*
X10976Y8253D01*
X10979Y8251D01*
X10981Y8249D01*
X10984Y8247D01*
X10986Y8245D01*
X10988Y8242D01*
X10990Y8239D01*
X10991Y8237D01*
X10993Y8234D01*
X10994Y8231D01*
X10995Y8228D01*
X10995Y8224D01*
X10996Y8221D01*
X10996Y8218D01*
X10956Y8118D02*
Y8078D01*
Y8258D02*
Y8298D01*
X10996Y8218D02*
Y8158D01*
X10916D02*
Y8218D01*
X11016Y7808D02*
Y7568D01*
X11096D02*
Y7808D01*
X11056Y7568D02*
Y7488D01*
Y7808D02*
Y7888D01*
X11016Y7568D02*
X11096D01*
Y7808D02*
X11016D01*
X11196D02*
Y7568D01*
X11116D02*
Y7808D01*
X11156D02*
Y7888D01*
Y7568D02*
Y7488D01*
X11116Y7808D02*
X11196D01*
Y7568D02*
X11116D01*
X11216D02*
Y7808D01*
X11296D02*
Y7568D01*
X11256D02*
Y7488D01*
Y7808D02*
Y7888D01*
X11216Y7568D02*
X11296D01*
Y7808D02*
X11216D01*
Y8568D02*
Y8808D01*
X11296D02*
Y8568D01*
X11256D02*
Y8488D01*
Y8808D02*
Y8888D01*
X11216Y8568D02*
X11296D01*
Y8808D02*
X11216D01*
X11316Y7808D02*
Y7568D01*
X11396D02*
Y7808D01*
X11356Y7568D02*
Y7488D01*
Y7808D02*
Y7888D01*
X11316Y7568D02*
X11396D01*
Y7808D02*
X11316D01*
X11416Y8218D02*
X11416Y8221D01*
X11417Y8224D01*
X11417Y8228D01*
X11418Y8231D01*
X11419Y8234D01*
X11421Y8237D01*
X11422Y8239D01*
X11424Y8242D01*
X11426Y8245D01*
X11428Y8247D01*
X11431Y8249D01*
X11433Y8251D01*
X11436Y8253D01*
X11439Y8254D01*
X11442Y8255D01*
X11445Y8256D01*
X11448Y8257D01*
X11451Y8258D01*
X11454Y8258D01*
X11458D01*
X11461Y8258D01*
X11464Y8257D01*
X11467Y8256D01*
X11470Y8255D01*
X11473Y8254D01*
X11476Y8253D01*
X11479Y8251D01*
X11481Y8249D01*
X11484Y8247D01*
X11486Y8245D01*
X11488Y8242D01*
X11490Y8239D01*
X11491Y8237D01*
X11493Y8234D01*
X11494Y8231D01*
X11495Y8228D01*
X11495Y8224D01*
X11496Y8221D01*
X11496Y8218D01*
Y8158D02*
X11496Y8155D01*
X11495Y8152D01*
X11495Y8148D01*
X11494Y8145D01*
X11493Y8142D01*
X11491Y8139D01*
X11490Y8137D01*
X11488Y8134D01*
X11486Y8131D01*
X11484Y8129D01*
X11481Y8127D01*
X11479Y8125D01*
X11476Y8123D01*
X11473Y8122D01*
X11470Y8121D01*
X11467Y8120D01*
X11464Y8119D01*
X11461Y8118D01*
X11458Y8118D01*
X11454D01*
X11451Y8118D01*
X11448Y8119D01*
X11445Y8120D01*
X11442Y8121D01*
X11439Y8122D01*
X11436Y8123D01*
X11433Y8125D01*
X11431Y8127D01*
X11428Y8129D01*
X11426Y8131D01*
X11424Y8134D01*
X11422Y8137D01*
X11421Y8139D01*
X11419Y8142D01*
X11418Y8145D01*
X11417Y8148D01*
X11417Y8152D01*
X11416Y8155D01*
X11416Y8158D01*
X11456Y8258D02*
Y8298D01*
Y8118D02*
Y8078D01*
X11416Y8158D02*
Y8218D01*
X11496D02*
Y8158D01*
X10806Y7138D02*
Y7058D01*
Y6818D02*
Y6738D01*
X10846Y6818D02*
Y7058D01*
X10766D02*
Y6818D01*
Y7058D02*
X10846D01*
Y6818D02*
X10766D01*
X11806Y7058D02*
Y7138D01*
Y6818D02*
Y6738D01*
X11846Y6818D02*
Y7058D01*
X11766D02*
Y6818D01*
Y7058D02*
X11846D01*
Y6818D02*
X11766D01*
X9846Y8568D02*
Y8808D01*
X9766D02*
Y8568D01*
X9806Y8808D02*
Y8888D01*
Y8568D02*
Y8488D01*
X9766Y8808D02*
X9846D01*
Y8568D02*
X9766D01*
X9746D02*
Y8808D01*
X9666D02*
Y8568D01*
X9706Y8808D02*
Y8888D01*
Y8568D02*
Y8488D01*
X9666Y8808D02*
X9746D01*
Y8568D02*
X9666D01*
X9646D02*
Y8808D01*
X9566D02*
Y8568D01*
X9606Y8808D02*
Y8888D01*
Y8568D02*
Y8488D01*
X9566Y8808D02*
X9646D01*
Y8568D02*
X9566D01*
X9546D02*
Y8808D01*
X9466D02*
Y8568D01*
X9506Y8808D02*
Y8888D01*
Y8568D02*
Y8488D01*
X9466Y8808D02*
X9546D01*
Y8568D02*
X9466D01*
X9846Y7808D02*
Y7568D01*
X9766D02*
Y7808D01*
X9806D02*
Y7888D01*
Y7568D02*
Y7488D01*
X9766Y7808D02*
X9846D01*
Y7568D02*
X9766D01*
X9746D02*
Y7808D01*
X9666D02*
Y7568D01*
X9706Y7808D02*
Y7888D01*
Y7568D02*
Y7488D01*
X9666Y7808D02*
X9746D01*
Y7568D02*
X9666D01*
X9966Y8218D02*
X9966Y8221D01*
X9967Y8224D01*
X9967Y8228D01*
X9968Y8231D01*
X9969Y8234D01*
X9971Y8237D01*
X9972Y8239D01*
X9974Y8242D01*
X9976Y8245D01*
X9978Y8247D01*
X9981Y8249D01*
X9983Y8251D01*
X9986Y8253D01*
X9989Y8254D01*
X9992Y8255D01*
X9995Y8256D01*
X9998Y8257D01*
X10001Y8258D01*
X10004Y8258D01*
X10008D01*
X10011Y8258D01*
X10014Y8257D01*
X10017Y8256D01*
X10020Y8255D01*
X10023Y8254D01*
X10026Y8253D01*
X10029Y8251D01*
X10031Y8249D01*
X10034Y8247D01*
X10036Y8245D01*
X10038Y8242D01*
X10040Y8239D01*
X10041Y8237D01*
X10043Y8234D01*
X10044Y8231D01*
X10045Y8228D01*
X10045Y8224D01*
X10046Y8221D01*
X10046Y8218D01*
Y8158D02*
X10046Y8155D01*
X10045Y8152D01*
X10045Y8148D01*
X10044Y8145D01*
X10043Y8142D01*
X10041Y8139D01*
X10040Y8137D01*
X10038Y8134D01*
X10036Y8131D01*
X10034Y8129D01*
X10031Y8127D01*
X10029Y8125D01*
X10026Y8123D01*
X10023Y8122D01*
X10020Y8121D01*
X10017Y8120D01*
X10014Y8119D01*
X10011Y8118D01*
X10008Y8118D01*
X10004D01*
X10001Y8118D01*
X9998Y8119D01*
X9995Y8120D01*
X9992Y8121D01*
X9989Y8122D01*
X9986Y8123D01*
X9983Y8125D01*
X9981Y8127D01*
X9978Y8129D01*
X9976Y8131D01*
X9974Y8134D01*
X9972Y8137D01*
X9971Y8139D01*
X9969Y8142D01*
X9968Y8145D01*
X9967Y8148D01*
X9967Y8152D01*
X9966Y8155D01*
X9966Y8158D01*
X10006Y8258D02*
Y8298D01*
Y8118D02*
Y8078D01*
X9966Y8158D02*
Y8218D01*
X10046D02*
Y8158D01*
X9546D02*
X9546Y8155D01*
X9545Y8152D01*
X9545Y8148D01*
X9544Y8145D01*
X9543Y8142D01*
X9541Y8139D01*
X9540Y8137D01*
X9538Y8134D01*
X9536Y8131D01*
X9534Y8129D01*
X9531Y8127D01*
X9529Y8125D01*
X9526Y8123D01*
X9523Y8122D01*
X9520Y8121D01*
X9517Y8120D01*
X9514Y8119D01*
X9511Y8118D01*
X9508Y8118D01*
X9504D01*
X9501Y8118D01*
X9498Y8119D01*
X9495Y8120D01*
X9492Y8121D01*
X9489Y8122D01*
X9486Y8123D01*
X9483Y8125D01*
X9481Y8127D01*
X9478Y8129D01*
X9476Y8131D01*
X9474Y8134D01*
X9472Y8137D01*
X9471Y8139D01*
X9469Y8142D01*
X9468Y8145D01*
X9467Y8148D01*
X9467Y8152D01*
X9466Y8155D01*
X9466Y8158D01*
Y8218D02*
X9466Y8221D01*
X9467Y8224D01*
X9467Y8228D01*
X9468Y8231D01*
X9469Y8234D01*
X9471Y8237D01*
X9472Y8239D01*
X9474Y8242D01*
X9476Y8245D01*
X9478Y8247D01*
X9481Y8249D01*
X9483Y8251D01*
X9486Y8253D01*
X9489Y8254D01*
X9492Y8255D01*
X9495Y8256D01*
X9498Y8257D01*
X9501Y8258D01*
X9504Y8258D01*
X9508D01*
X9511Y8258D01*
X9514Y8257D01*
X9517Y8256D01*
X9520Y8255D01*
X9523Y8254D01*
X9526Y8253D01*
X9529Y8251D01*
X9531Y8249D01*
X9534Y8247D01*
X9536Y8245D01*
X9538Y8242D01*
X9540Y8239D01*
X9541Y8237D01*
X9543Y8234D01*
X9544Y8231D01*
X9545Y8228D01*
X9545Y8224D01*
X9546Y8221D01*
X9546Y8218D01*
X9506Y8118D02*
Y8078D01*
Y8258D02*
Y8298D01*
X9546Y8218D02*
Y8158D01*
X9466D02*
Y8218D01*
X9446D02*
X9446Y8221D01*
X9445Y8224D01*
X9445Y8228D01*
X9444Y8231D01*
X9443Y8234D01*
X9441Y8237D01*
X9440Y8239D01*
X9438Y8242D01*
X9436Y8245D01*
X9434Y8247D01*
X9431Y8249D01*
X9429Y8251D01*
X9426Y8253D01*
X9423Y8254D01*
X9420Y8255D01*
X9417Y8256D01*
X9414Y8257D01*
X9411Y8258D01*
X9408Y8258D01*
X9404D01*
X9401Y8258D01*
X9398Y8257D01*
X9395Y8256D01*
X9392Y8255D01*
X9389Y8254D01*
X9386Y8253D01*
X9383Y8251D01*
X9381Y8249D01*
X9378Y8247D01*
X9376Y8245D01*
X9374Y8242D01*
X9372Y8239D01*
X9371Y8237D01*
X9369Y8234D01*
X9368Y8231D01*
X9367Y8228D01*
X9367Y8224D01*
X9366Y8221D01*
X9366Y8218D01*
Y8158D02*
X9366Y8155D01*
X9367Y8152D01*
X9367Y8148D01*
X9368Y8145D01*
X9369Y8142D01*
X9371Y8139D01*
X9372Y8137D01*
X9374Y8134D01*
X9376Y8131D01*
X9378Y8129D01*
X9381Y8127D01*
X9383Y8125D01*
X9386Y8123D01*
X9389Y8122D01*
X9392Y8121D01*
X9395Y8120D01*
X9398Y8119D01*
X9401Y8118D01*
X9404Y8118D01*
X9408D01*
X9411Y8118D01*
X9414Y8119D01*
X9417Y8120D01*
X9420Y8121D01*
X9423Y8122D01*
X9426Y8123D01*
X9429Y8125D01*
X9431Y8127D01*
X9434Y8129D01*
X9436Y8131D01*
X9438Y8134D01*
X9440Y8137D01*
X9441Y8139D01*
X9443Y8142D01*
X9444Y8145D01*
X9445Y8148D01*
X9445Y8152D01*
X9446Y8155D01*
X9446Y8158D01*
X9406Y8258D02*
Y8298D01*
Y8118D02*
Y8078D01*
X9366Y8158D02*
Y8218D01*
X9446D02*
Y8158D01*
X10047Y8513D02*
Y9013D01*
X10772D02*
Y8513D01*
X10047D01*
Y9013D02*
X10772D01*
X9806Y7138D02*
Y7058D01*
Y6818D02*
Y6738D01*
X9846Y6818D02*
Y7058D01*
X9766D02*
Y6818D01*
Y7058D02*
X9846D01*
Y6818D02*
X9766D01*
X7626Y9048D02*
X7623Y9048D01*
X7620Y9049D01*
X7616Y9049D01*
X7613Y9050D01*
X7610Y9051D01*
X7607Y9053D01*
X7605Y9054D01*
X7602Y9056D01*
X7599Y9058D01*
X7597Y9060D01*
X7595Y9063D01*
X7593Y9065D01*
X7591Y9068D01*
X7590Y9071D01*
X7589Y9074D01*
X7588Y9077D01*
X7587Y9080D01*
X7586Y9083D01*
X7586Y9086D01*
Y9090D01*
X7586Y9093D01*
X7587Y9096D01*
X7588Y9099D01*
X7589Y9102D01*
X7590Y9105D01*
X7591Y9108D01*
X7593Y9111D01*
X7595Y9113D01*
X7597Y9116D01*
X7599Y9118D01*
X7602Y9120D01*
X7605Y9122D01*
X7607Y9123D01*
X7610Y9125D01*
X7613Y9126D01*
X7616Y9127D01*
X7620Y9127D01*
X7623Y9128D01*
X7626Y9128D01*
X7686D02*
X7689Y9128D01*
X7692Y9127D01*
X7696Y9127D01*
X7699Y9126D01*
X7702Y9125D01*
X7705Y9123D01*
X7707Y9122D01*
X7710Y9120D01*
X7713Y9118D01*
X7715Y9116D01*
X7717Y9113D01*
X7719Y9111D01*
X7721Y9108D01*
X7722Y9105D01*
X7723Y9102D01*
X7724Y9099D01*
X7725Y9096D01*
X7726Y9093D01*
X7726Y9090D01*
Y9086D01*
X7726Y9083D01*
X7725Y9080D01*
X7724Y9077D01*
X7723Y9074D01*
X7722Y9071D01*
X7721Y9068D01*
X7719Y9065D01*
X7717Y9063D01*
X7715Y9060D01*
X7713Y9058D01*
X7710Y9056D01*
X7707Y9054D01*
X7705Y9053D01*
X7702Y9051D01*
X7699Y9050D01*
X7696Y9049D01*
X7692Y9049D01*
X7689Y9048D01*
X7686Y9048D01*
X7586Y9088D02*
X7546D01*
X7726D02*
X7766D01*
X7686Y9048D02*
X7626D01*
Y9128D02*
X7686D01*
X8126D02*
X8123Y9128D01*
X8120Y9127D01*
X8116Y9127D01*
X8113Y9126D01*
X8110Y9125D01*
X8107Y9123D01*
X8105Y9122D01*
X8102Y9120D01*
X8099Y9118D01*
X8097Y9116D01*
X8095Y9113D01*
X8093Y9111D01*
X8091Y9108D01*
X8090Y9105D01*
X8089Y9102D01*
X8088Y9099D01*
X8087Y9096D01*
X8086Y9093D01*
X8086Y9090D01*
Y9086D01*
X8086Y9083D01*
X8087Y9080D01*
X8088Y9077D01*
X8089Y9074D01*
X8090Y9071D01*
X8091Y9068D01*
X8093Y9065D01*
X8095Y9063D01*
X8097Y9060D01*
X8099Y9058D01*
X8102Y9056D01*
X8105Y9054D01*
X8107Y9053D01*
X8110Y9051D01*
X8113Y9050D01*
X8116Y9049D01*
X8120Y9049D01*
X8123Y9048D01*
X8126Y9048D01*
X8186D02*
X8189Y9048D01*
X8192Y9049D01*
X8196Y9049D01*
X8199Y9050D01*
X8202Y9051D01*
X8205Y9053D01*
X8207Y9054D01*
X8210Y9056D01*
X8213Y9058D01*
X8215Y9060D01*
X8217Y9063D01*
X8219Y9065D01*
X8221Y9068D01*
X8222Y9071D01*
X8223Y9074D01*
X8224Y9077D01*
X8225Y9080D01*
X8226Y9083D01*
X8226Y9086D01*
Y9090D01*
X8226Y9093D01*
X8225Y9096D01*
X8224Y9099D01*
X8223Y9102D01*
X8222Y9105D01*
X8221Y9108D01*
X8219Y9111D01*
X8217Y9113D01*
X8215Y9116D01*
X8213Y9118D01*
X8210Y9120D01*
X8207Y9122D01*
X8205Y9123D01*
X8202Y9125D01*
X8199Y9126D01*
X8196Y9127D01*
X8192Y9127D01*
X8189Y9128D01*
X8186Y9128D01*
X8086Y9088D02*
X8046D01*
X8226D02*
X8266D01*
X8186Y9048D02*
X8126D01*
Y9128D02*
X8186D01*
X8766Y8808D02*
Y8568D01*
X8846D02*
Y8808D01*
X8806Y8568D02*
Y8488D01*
Y8808D02*
Y8888D01*
X8766Y8568D02*
X8846D01*
Y8808D02*
X8766D01*
X8666D02*
Y8568D01*
X8746D02*
Y8808D01*
X8706Y8568D02*
Y8488D01*
Y8808D02*
Y8888D01*
X8666Y8568D02*
X8746D01*
Y8808D02*
X8666D01*
X8656Y8638D02*
Y8438D01*
X8556D02*
Y8638D01*
X8656D01*
Y8438D02*
X8556D01*
X8546Y8158D02*
X8546Y8155D01*
X8545Y8152D01*
X8545Y8148D01*
X8544Y8145D01*
X8543Y8142D01*
X8541Y8139D01*
X8540Y8137D01*
X8538Y8134D01*
X8536Y8131D01*
X8534Y8129D01*
X8531Y8127D01*
X8529Y8125D01*
X8526Y8123D01*
X8523Y8122D01*
X8520Y8121D01*
X8517Y8120D01*
X8514Y8119D01*
X8511Y8118D01*
X8508Y8118D01*
X8504D01*
X8501Y8118D01*
X8498Y8119D01*
X8495Y8120D01*
X8492Y8121D01*
X8489Y8122D01*
X8486Y8123D01*
X8483Y8125D01*
X8481Y8127D01*
X8478Y8129D01*
X8476Y8131D01*
X8474Y8134D01*
X8472Y8137D01*
X8471Y8139D01*
X8469Y8142D01*
X8468Y8145D01*
X8467Y8148D01*
X8467Y8152D01*
X8466Y8155D01*
X8466Y8158D01*
Y8218D02*
X8466Y8221D01*
X8467Y8224D01*
X8467Y8228D01*
X8468Y8231D01*
X8469Y8234D01*
X8471Y8237D01*
X8472Y8239D01*
X8474Y8242D01*
X8476Y8245D01*
X8478Y8247D01*
X8481Y8249D01*
X8483Y8251D01*
X8486Y8253D01*
X8489Y8254D01*
X8492Y8255D01*
X8495Y8256D01*
X8498Y8257D01*
X8501Y8258D01*
X8504Y8258D01*
X8508D01*
X8511Y8258D01*
X8514Y8257D01*
X8517Y8256D01*
X8520Y8255D01*
X8523Y8254D01*
X8526Y8253D01*
X8529Y8251D01*
X8531Y8249D01*
X8534Y8247D01*
X8536Y8245D01*
X8538Y8242D01*
X8540Y8239D01*
X8541Y8237D01*
X8543Y8234D01*
X8544Y8231D01*
X8545Y8228D01*
X8545Y8224D01*
X8546Y8221D01*
X8546Y8218D01*
X8506Y8118D02*
Y8078D01*
Y8258D02*
Y8298D01*
X8546Y8218D02*
Y8158D01*
X8466D02*
Y8218D01*
X7626Y8198D02*
X7623Y8198D01*
X7620Y8199D01*
X7616Y8199D01*
X7613Y8200D01*
X7610Y8201D01*
X7607Y8203D01*
X7605Y8204D01*
X7602Y8206D01*
X7599Y8208D01*
X7597Y8210D01*
X7595Y8213D01*
X7593Y8215D01*
X7591Y8218D01*
X7590Y8221D01*
X7589Y8224D01*
X7588Y8227D01*
X7587Y8230D01*
X7586Y8233D01*
X7586Y8236D01*
Y8240D01*
X7586Y8243D01*
X7587Y8246D01*
X7588Y8249D01*
X7589Y8252D01*
X7590Y8255D01*
X7591Y8258D01*
X7593Y8261D01*
X7595Y8263D01*
X7597Y8266D01*
X7599Y8268D01*
X7602Y8270D01*
X7605Y8272D01*
X7607Y8273D01*
X7610Y8275D01*
X7613Y8276D01*
X7616Y8277D01*
X7620Y8277D01*
X7623Y8278D01*
X7626Y8278D01*
X7686D02*
X7689Y8278D01*
X7692Y8277D01*
X7696Y8277D01*
X7699Y8276D01*
X7702Y8275D01*
X7705Y8273D01*
X7707Y8272D01*
X7710Y8270D01*
X7713Y8268D01*
X7715Y8266D01*
X7717Y8263D01*
X7719Y8261D01*
X7721Y8258D01*
X7722Y8255D01*
X7723Y8252D01*
X7724Y8249D01*
X7725Y8246D01*
X7726Y8243D01*
X7726Y8240D01*
Y8236D01*
X7726Y8233D01*
X7725Y8230D01*
X7724Y8227D01*
X7723Y8224D01*
X7722Y8221D01*
X7721Y8218D01*
X7719Y8215D01*
X7717Y8213D01*
X7715Y8210D01*
X7713Y8208D01*
X7710Y8206D01*
X7707Y8204D01*
X7705Y8203D01*
X7702Y8201D01*
X7699Y8200D01*
X7696Y8199D01*
X7692Y8199D01*
X7689Y8198D01*
X7686Y8198D01*
X7586Y8238D02*
X7546D01*
X7726D02*
X7766D01*
X7686Y8198D02*
X7626D01*
Y8278D02*
X7686D01*
X8126D02*
X8123Y8278D01*
X8120Y8277D01*
X8116Y8277D01*
X8113Y8276D01*
X8110Y8275D01*
X8107Y8273D01*
X8105Y8272D01*
X8102Y8270D01*
X8099Y8268D01*
X8097Y8266D01*
X8095Y8263D01*
X8093Y8261D01*
X8091Y8258D01*
X8090Y8255D01*
X8089Y8252D01*
X8088Y8249D01*
X8087Y8246D01*
X8086Y8243D01*
X8086Y8240D01*
Y8236D01*
X8086Y8233D01*
X8087Y8230D01*
X8088Y8227D01*
X8089Y8224D01*
X8090Y8221D01*
X8091Y8218D01*
X8093Y8215D01*
X8095Y8213D01*
X8097Y8210D01*
X8099Y8208D01*
X8102Y8206D01*
X8105Y8204D01*
X8107Y8203D01*
X8110Y8201D01*
X8113Y8200D01*
X8116Y8199D01*
X8120Y8199D01*
X8123Y8198D01*
X8126Y8198D01*
X8186D02*
X8189Y8198D01*
X8192Y8199D01*
X8196Y8199D01*
X8199Y8200D01*
X8202Y8201D01*
X8205Y8203D01*
X8207Y8204D01*
X8210Y8206D01*
X8213Y8208D01*
X8215Y8210D01*
X8217Y8213D01*
X8219Y8215D01*
X8221Y8218D01*
X8222Y8221D01*
X8223Y8224D01*
X8224Y8227D01*
X8225Y8230D01*
X8226Y8233D01*
X8226Y8236D01*
Y8240D01*
X8226Y8243D01*
X8225Y8246D01*
X8224Y8249D01*
X8223Y8252D01*
X8222Y8255D01*
X8221Y8258D01*
X8219Y8261D01*
X8217Y8263D01*
X8215Y8266D01*
X8213Y8268D01*
X8210Y8270D01*
X8207Y8272D01*
X8205Y8273D01*
X8202Y8275D01*
X8199Y8276D01*
X8196Y8277D01*
X8192Y8277D01*
X8189Y8278D01*
X8186Y8278D01*
X8086Y8238D02*
X8046D01*
X8226D02*
X8266D01*
X8186Y8198D02*
X8126D01*
Y8278D02*
X8186D01*
X8846Y7058D02*
Y6818D01*
X8766D02*
Y7058D01*
X8806D02*
Y7138D01*
Y6818D02*
Y6738D01*
X8766Y7058D02*
X8846D01*
Y6818D02*
X8766D01*
X8906Y7068D02*
Y7138D01*
Y6808D02*
Y6738D01*
X8956Y6808D02*
Y7068D01*
X8856D02*
Y6808D01*
X8956D01*
Y7068D02*
X8856D01*
Y7018D02*
X8956D01*
X9006Y7068D02*
Y7138D01*
Y6808D02*
Y6738D01*
X9056Y6808D02*
Y7068D01*
X8956D02*
Y6808D01*
X9056D01*
Y7068D02*
X8956D01*
Y7018D02*
X9056D01*
X7846Y6908D02*
Y6668D01*
X7766D02*
Y6908D01*
X7806D02*
Y6988D01*
Y6668D02*
Y6588D01*
X7766Y6908D02*
X7846D01*
Y6668D02*
X7766D01*
X7906Y6918D02*
Y6988D01*
Y6658D02*
Y6588D01*
X7956Y6658D02*
Y6918D01*
X7856D02*
Y6658D01*
X7956D01*
Y6918D02*
X7856D01*
Y6868D02*
X7956D01*
X8006Y6918D02*
Y6988D01*
Y6658D02*
Y6588D01*
X8056Y6658D02*
Y6918D01*
X7956D02*
Y6658D01*
X8056D01*
Y6918D02*
X7956D01*
Y6868D02*
X8056D01*
X7126Y9048D02*
X7123Y9048D01*
X7120Y9049D01*
X7116Y9049D01*
X7113Y9050D01*
X7110Y9051D01*
X7107Y9053D01*
X7105Y9054D01*
X7102Y9056D01*
X7099Y9058D01*
X7097Y9060D01*
X7095Y9063D01*
X7093Y9065D01*
X7091Y9068D01*
X7090Y9071D01*
X7089Y9074D01*
X7088Y9077D01*
X7087Y9080D01*
X7086Y9083D01*
X7086Y9086D01*
Y9090D01*
X7086Y9093D01*
X7087Y9096D01*
X7088Y9099D01*
X7089Y9102D01*
X7090Y9105D01*
X7091Y9108D01*
X7093Y9111D01*
X7095Y9113D01*
X7097Y9116D01*
X7099Y9118D01*
X7102Y9120D01*
X7105Y9122D01*
X7107Y9123D01*
X7110Y9125D01*
X7113Y9126D01*
X7116Y9127D01*
X7120Y9127D01*
X7123Y9128D01*
X7126Y9128D01*
X7186D02*
X7189Y9128D01*
X7192Y9127D01*
X7196Y9127D01*
X7199Y9126D01*
X7202Y9125D01*
X7205Y9123D01*
X7207Y9122D01*
X7210Y9120D01*
X7213Y9118D01*
X7215Y9116D01*
X7217Y9113D01*
X7219Y9111D01*
X7221Y9108D01*
X7222Y9105D01*
X7223Y9102D01*
X7224Y9099D01*
X7225Y9096D01*
X7226Y9093D01*
X7226Y9090D01*
Y9086D01*
X7226Y9083D01*
X7225Y9080D01*
X7224Y9077D01*
X7223Y9074D01*
X7222Y9071D01*
X7221Y9068D01*
X7219Y9065D01*
X7217Y9063D01*
X7215Y9060D01*
X7213Y9058D01*
X7210Y9056D01*
X7207Y9054D01*
X7205Y9053D01*
X7202Y9051D01*
X7199Y9050D01*
X7196Y9049D01*
X7192Y9049D01*
X7189Y9048D01*
X7186Y9048D01*
X7086Y9088D02*
X7046D01*
X7226D02*
X7266D01*
X7186Y9048D02*
X7126D01*
Y9128D02*
X7186D01*
X7126Y8278D02*
X7123Y8278D01*
X7120Y8277D01*
X7116Y8277D01*
X7113Y8276D01*
X7110Y8275D01*
X7107Y8273D01*
X7105Y8272D01*
X7102Y8270D01*
X7099Y8268D01*
X7097Y8266D01*
X7095Y8263D01*
X7093Y8261D01*
X7091Y8258D01*
X7090Y8255D01*
X7089Y8252D01*
X7088Y8249D01*
X7087Y8246D01*
X7086Y8243D01*
X7086Y8240D01*
Y8236D01*
X7086Y8233D01*
X7087Y8230D01*
X7088Y8227D01*
X7089Y8224D01*
X7090Y8221D01*
X7091Y8218D01*
X7093Y8215D01*
X7095Y8213D01*
X7097Y8210D01*
X7099Y8208D01*
X7102Y8206D01*
X7105Y8204D01*
X7107Y8203D01*
X7110Y8201D01*
X7113Y8200D01*
X7116Y8199D01*
X7120Y8199D01*
X7123Y8198D01*
X7126Y8198D01*
X7186D02*
X7189Y8198D01*
X7192Y8199D01*
X7196Y8199D01*
X7199Y8200D01*
X7202Y8201D01*
X7205Y8203D01*
X7207Y8204D01*
X7210Y8206D01*
X7213Y8208D01*
X7215Y8210D01*
X7217Y8213D01*
X7219Y8215D01*
X7221Y8218D01*
X7222Y8221D01*
X7223Y8224D01*
X7224Y8227D01*
X7225Y8230D01*
X7226Y8233D01*
X7226Y8236D01*
Y8240D01*
X7226Y8243D01*
X7225Y8246D01*
X7224Y8249D01*
X7223Y8252D01*
X7222Y8255D01*
X7221Y8258D01*
X7219Y8261D01*
X7217Y8263D01*
X7215Y8266D01*
X7213Y8268D01*
X7210Y8270D01*
X7207Y8272D01*
X7205Y8273D01*
X7202Y8275D01*
X7199Y8276D01*
X7196Y8277D01*
X7192Y8277D01*
X7189Y8278D01*
X7186Y8278D01*
X7086Y8238D02*
X7046D01*
X7226D02*
X7266D01*
X7186Y8198D02*
X7126D01*
Y8278D02*
X7186D01*
X7046Y7258D02*
Y7018D01*
X6966D02*
Y7258D01*
X7006D02*
Y7338D01*
Y7018D02*
Y6938D01*
X6966Y7258D02*
X7046D01*
Y7018D02*
X6966D01*
D16*
X10006Y7688D02*
X10023Y7671D01*
X10006Y7688D02*
X9973D01*
X9956Y7671D01*
Y7605D01*
X9973Y7588D01*
X10006D01*
X10023Y7605D01*
Y7638D01*
X9989D01*
X10056Y7688D02*
X10123D01*
X10056D02*
Y7588D01*
X10123D01*
X10089Y7638D02*
X10056D01*
X10156Y7588D02*
Y7688D01*
X10223Y7588D01*
Y7688D01*
X10256D02*
X10323D01*
X10256D02*
Y7588D01*
X10323D01*
X10289Y7638D02*
X10256D01*
X10356Y7588D02*
Y7688D01*
X10406D01*
X10423Y7671D01*
Y7638D01*
X10406Y7621D01*
X10356D01*
X10389D02*
X10423Y7588D01*
X10456D02*
Y7655D01*
X10489Y7688D01*
X10522Y7655D01*
Y7588D01*
Y7638D01*
X10456D01*
X10556Y7688D02*
X10622D01*
X10589D01*
Y7588D01*
X10672Y7688D02*
X10706D01*
X10672D02*
X10656Y7671D01*
Y7605D01*
X10672Y7588D01*
X10706D01*
X10722Y7605D01*
Y7671D01*
X10706Y7688D01*
X10756D02*
Y7588D01*
Y7688D02*
X10806D01*
X10822Y7671D01*
Y7638D01*
X10806Y7621D01*
X10756D01*
X10789D02*
X10822Y7588D01*
X9881Y7713D02*
Y7803D01*
Y7713D02*
X9926D01*
X9941Y7728D01*
Y7788D01*
X9926Y7803D01*
X9881D01*
X9971D02*
X10001D01*
X9986D01*
Y7713D01*
X9971D01*
X10001D01*
X10091Y7803D02*
X10106Y7788D01*
X10091Y7803D02*
X10061D01*
X10046Y7788D01*
Y7728D01*
X10061Y7713D01*
X10091D01*
X10106Y7728D01*
Y7758D01*
X10076D01*
X10136Y7803D02*
X10166D01*
X10151D01*
Y7713D01*
X10136D01*
X10166D01*
X10211Y7803D02*
X10271D01*
X10241D01*
Y7713D01*
X10301D02*
Y7773D01*
X10331Y7803D01*
X10361Y7773D01*
Y7713D01*
Y7758D01*
X10301D01*
X10391Y7803D02*
Y7713D01*
X10451D01*
X10571D02*
Y7803D01*
X10631Y7713D01*
Y7803D01*
X10676D02*
X10706D01*
X10676D02*
X10661Y7788D01*
Y7728D01*
X10676Y7713D01*
X10706D01*
X10721Y7728D01*
Y7788D01*
X10706Y7803D01*
X10751D02*
X10781D01*
X10766D01*
Y7713D01*
X10751D01*
X10781D01*
X10871Y7803D02*
X10886Y7788D01*
X10871Y7803D02*
X10841D01*
X10826Y7788D01*
Y7773D01*
X10841Y7758D01*
X10871D01*
X10886Y7743D01*
Y7728D01*
X10871Y7713D01*
X10841D01*
X10826Y7728D01*
X10916Y7803D02*
X10976D01*
X10916D02*
Y7713D01*
X10976D01*
X10946Y7758D02*
X10916D01*
D02*
M02*
