*%FSLAX23Y23*%
*%MOIN*%
G01*
%ADD11C,0.006*%
%ADD12C,0.007*%
%ADD13C,0.008*%
%ADD14C,0.010*%
%ADD15C,0.012*%
%ADD16C,0.020*%
%ADD17C,0.032*%
%ADD18C,0.036*%
%ADD19C,0.050*%
%ADD20C,0.052*%
%ADD21C,0.055*%
%ADD22C,0.056*%
%ADD23C,0.060*%
%ADD24C,0.061*%
%ADD25C,0.062*%
%ADD26C,0.066*%
%ADD27C,0.068*%
%ADD28C,0.070*%
%ADD29C,0.080*%
%ADD30C,0.090*%
%ADD31C,0.095*%
%ADD32C,0.115*%
%ADD33C,0.120*%
%ADD34C,0.125*%
%ADD35C,0.126*%
%ADD36C,0.131*%
%ADD37C,0.150*%
%ADD38C,0.156*%
%ADD39R,0.062X0.062*%
%ADD40R,0.068X0.068*%
D14*
X6906Y9523D02*
X6973D01*
X6906D02*
X6973Y9590D01*
Y9606D01*
X6956Y9623D01*
X6923D01*
X6906Y9606D01*
X7006D02*
X7023Y9623D01*
X7056D01*
X7073Y9606D01*
Y9540D01*
X7056Y9523D01*
X7023D01*
X7006Y9540D01*
Y9606D01*
X7106D02*
X7123Y9623D01*
X7156D01*
X7173Y9606D01*
Y9540D01*
X7156Y9523D01*
X7123D01*
X7106Y9540D01*
Y9606D01*
X7206Y9573D02*
X7273D01*
X7306Y9523D02*
X7339D01*
X7323D01*
Y9623D01*
X7324D01*
X7323D02*
X7306Y9606D01*
X7389D02*
X7406Y9623D01*
X7439D01*
X7456Y9606D01*
Y9540D01*
X7439Y9523D01*
X7406D01*
X7389Y9540D01*
Y9606D01*
X7489Y9523D02*
X7556D01*
X7489D02*
X7556Y9590D01*
Y9606D01*
X7539Y9623D01*
X7506D01*
X7489Y9606D01*
X7589Y9523D02*
X7622D01*
X7606D01*
Y9623D01*
X7607D01*
X7606D02*
X7589Y9606D01*
X7672Y9573D02*
X7739D01*
X7772Y9606D02*
X7789Y9623D01*
X7822D01*
X7839Y9606D01*
Y9540D01*
X7822Y9523D01*
X7789D01*
X7772Y9540D01*
Y9606D01*
X7872D02*
X7889Y9623D01*
X7922D01*
X7939Y9606D01*
Y9590D01*
X7940D01*
X7939D02*
X7940D01*
X7939D02*
X7940D01*
X7939D02*
X7922Y9573D01*
X7906D01*
X7922D01*
X7939Y9556D01*
Y9540D01*
X7922Y9523D01*
X7889D01*
X7872Y9540D01*
X7972Y9523D02*
X8039Y9590D01*
X8072Y9606D02*
X8089Y9623D01*
X8122D01*
X8139Y9606D01*
Y9540D01*
X8122Y9523D01*
X8089D01*
X8072Y9540D01*
Y9606D01*
X8222Y9623D02*
Y9523D01*
X8172Y9573D02*
X8222Y9623D01*
X8239Y9573D02*
X8172D01*
X8372Y9523D02*
Y9623D01*
X8422D01*
X8439Y9606D01*
Y9573D01*
X8422Y9556D01*
X8372D01*
X8406D02*
X8439Y9523D01*
X8472Y9623D02*
X8539D01*
X8472D02*
Y9523D01*
X8539D01*
X8505Y9573D02*
X8472D01*
X8572Y9556D02*
Y9623D01*
Y9556D02*
X8605Y9523D01*
X8639Y9556D01*
Y9623D01*
X8772D02*
Y9523D01*
X8839D02*
X8772Y9623D01*
X8839D02*
Y9523D01*
X8939Y9606D02*
X8922Y9623D01*
X8889D01*
X8872Y9606D01*
Y9540D01*
X8889Y9523D01*
X8922D01*
X8939Y9540D01*
X9122Y9623D02*
X9139Y9606D01*
X9122Y9623D02*
X9089D01*
X9072Y9606D01*
Y9540D01*
X9089Y9523D01*
X9122D01*
X9139Y9540D01*
X9189Y9623D02*
X9222D01*
X9189D02*
X9172Y9606D01*
Y9540D01*
X9189Y9523D01*
X9222D01*
X9239Y9540D01*
Y9606D01*
X9222Y9623D01*
X9272D02*
Y9523D01*
X9305Y9590D02*
X9272Y9623D01*
X9305Y9590D02*
X9339Y9623D01*
Y9523D01*
X9372D02*
Y9623D01*
X9422D01*
X9439Y9606D01*
Y9573D01*
X9422Y9556D01*
X9372D01*
X9488Y9623D02*
X9522D01*
X9488D02*
X9472Y9606D01*
Y9540D01*
X9488Y9523D01*
X9522D01*
X9538Y9540D01*
Y9606D01*
X9522Y9623D01*
X9572D02*
Y9523D01*
X9638D02*
X9572Y9623D01*
X9638D02*
Y9523D01*
X9672Y9623D02*
X9738D01*
X9672D02*
Y9523D01*
X9738D01*
X9705Y9573D02*
X9672D01*
X9772Y9523D02*
Y9623D01*
X9838Y9523D01*
Y9623D01*
X9872D02*
X9938D01*
X9905D01*
Y9523D01*
X9972D02*
X10038Y9590D01*
X10122Y9623D02*
X10138Y9606D01*
X10122Y9623D02*
X10088D01*
X10072Y9606D01*
Y9540D01*
X10088Y9523D01*
X10122D01*
X10138Y9540D01*
X10172Y9623D02*
X10205D01*
X10188D01*
Y9523D01*
X10172D01*
X10205D01*
X10255D02*
Y9623D01*
X10305D01*
X10322Y9606D01*
Y9573D01*
X10305Y9556D01*
X10255D01*
X10288D02*
X10322Y9523D01*
X10422Y9606D02*
X10405Y9623D01*
X10372D01*
X10355Y9606D01*
Y9540D01*
X10372Y9523D01*
X10405D01*
X10422Y9540D01*
X10455D02*
Y9623D01*
Y9540D02*
X10472Y9523D01*
X10505D01*
X10521Y9540D01*
Y9623D01*
X10555D02*
X10588D01*
X10571D01*
Y9523D01*
X10555D01*
X10588D01*
X10638Y9623D02*
X10705D01*
X10671D01*
Y9523D01*
X10888Y9623D02*
X10905Y9606D01*
X10888Y9623D02*
X10855D01*
X10838Y9606D01*
Y9590D01*
X10855Y9573D01*
X10888D01*
X10905Y9556D01*
Y9540D01*
X10888Y9523D01*
X10855D01*
X10838Y9540D01*
X10938Y9623D02*
X10971D01*
X10955D01*
Y9523D01*
X10938D01*
X10971D01*
X11021D02*
Y9623D01*
Y9523D02*
X11071D01*
X11088Y9540D01*
Y9606D01*
X11071Y9623D01*
X11021D01*
X11121D02*
X11188D01*
X11121D02*
Y9523D01*
X11188D01*
X11155Y9573D02*
X11121D01*
X11371Y9623D02*
X11388Y9606D01*
X11371Y9623D02*
X11338D01*
X11321Y9606D01*
Y9590D01*
X11338Y9573D01*
X11371D01*
X11388Y9556D01*
Y9540D01*
X11371Y9523D01*
X11338D01*
X11321Y9540D01*
X11438Y9623D02*
X11471D01*
X11438D02*
X11421Y9606D01*
Y9540D01*
X11438Y9523D01*
X11471D01*
X11488Y9540D01*
Y9606D01*
X11471Y9623D01*
X11521D02*
Y9523D01*
X11588D01*
X11621D02*
Y9623D01*
Y9523D02*
X11671D01*
X11688Y9540D01*
Y9606D01*
X11671Y9623D01*
X11621D01*
X11721D02*
X11788D01*
X11721D02*
Y9523D01*
X11788D01*
X11754Y9573D02*
X11721D01*
X11821Y9523D02*
Y9623D01*
X11871D01*
X11888Y9606D01*
Y9573D01*
X11871Y9556D01*
X11821D01*
X11854D02*
X11888Y9523D01*
X12021D02*
Y9623D01*
X12054Y9590D01*
X12088Y9623D01*
Y9523D01*
X12121D02*
Y9590D01*
X12154Y9623D01*
X12188Y9590D01*
Y9523D01*
Y9573D01*
X12121D01*
X12271Y9623D02*
X12288Y9606D01*
X12271Y9623D02*
X12238D01*
X12221Y9606D01*
Y9590D01*
X12238Y9573D01*
X12271D01*
X12288Y9556D01*
Y9540D01*
X12271Y9523D01*
X12238D01*
X12221Y9540D01*
X12321Y9523D02*
Y9623D01*
Y9556D02*
Y9523D01*
Y9556D02*
X12388Y9623D01*
X12338Y9573D01*
X12388Y9523D01*
X11906Y9188D02*
X6906D01*
Y6438D02*
X11906D01*
X6906D02*
Y9188D01*
X11906D02*
Y6438D01*
D24*
X11706Y8488D02*
D03*
X11756Y8438D02*
D03*
X11706Y8388D02*
D03*
X8531Y8813D02*
D03*
X8581Y8763D02*
D03*
X8531Y8713D02*
D03*
D26*
X10806Y8563D02*
D03*
X10856Y7488D02*
D03*
X10006Y7763D02*
D03*
X9706Y8188D02*
D03*
X9381Y7488D02*
D03*
X9306Y7538D02*
D03*
X9206Y7563D02*
D03*
X9131Y7588D02*
D03*
X9056Y7813D02*
D03*
X9031Y7613D02*
D03*
X8956Y7638D02*
D03*
X8881Y7763D02*
D03*
X8906Y8188D02*
D03*
X8406Y8113D02*
D03*
X8156Y8838D02*
D03*
X7906Y8638D02*
D03*
X7706Y7638D02*
D03*
X7656Y8838D02*
D03*
X7606Y8288D02*
D03*
X7381Y8163D02*
D03*
X7406Y8488D02*
D03*
X7231Y9013D02*
D03*
X7156Y8938D02*
D03*
X7231Y7938D02*
D03*
X7156Y7338D02*
D03*
X7106Y8263D02*
D03*
X7181Y7838D02*
D03*
X7256Y7063D02*
D03*
D27*
X10931Y9038D02*
D03*
Y8538D02*
D03*
X11031Y8838D02*
D03*
X11156Y8888D02*
D03*
Y8488D02*
D03*
X11406Y9038D02*
D03*
Y8538D02*
D03*
X11506Y8838D02*
D03*
X11606Y9038D02*
D03*
Y8638D02*
D03*
X11706Y9038D02*
D03*
Y8638D02*
D03*
X11806Y9038D02*
D03*
Y8638D02*
D03*
X10731Y7938D02*
D03*
Y8038D02*
D03*
X10956Y8338D02*
D03*
Y8038D02*
D03*
X11156D02*
D03*
X11256D02*
D03*
X11356D02*
D03*
Y8338D02*
D03*
X11256D02*
D03*
X11156D02*
D03*
X11056D02*
D03*
Y7488D02*
D03*
Y7888D02*
D03*
X11156D02*
D03*
Y7488D02*
D03*
X11256D02*
D03*
Y7888D02*
D03*
Y8488D02*
D03*
Y8888D02*
D03*
X11356Y7488D02*
D03*
Y7888D02*
D03*
X11506Y7838D02*
D03*
Y7538D02*
D03*
X11456Y8038D02*
D03*
Y8338D02*
D03*
X11706Y7838D02*
D03*
Y7538D02*
D03*
X10806Y7138D02*
D03*
Y6738D02*
D03*
X11806Y7138D02*
D03*
Y6738D02*
D03*
X9806Y8888D02*
D03*
Y8488D02*
D03*
X9706Y8888D02*
D03*
Y8488D02*
D03*
X9606Y8888D02*
D03*
Y8488D02*
D03*
X9506Y8888D02*
D03*
Y8488D02*
D03*
X9406Y8788D02*
D03*
Y8588D02*
D03*
X9256Y8788D02*
D03*
Y8588D02*
D03*
X10256Y8238D02*
D03*
Y8338D02*
D03*
X9806Y7888D02*
D03*
Y7488D02*
D03*
X9706Y7888D02*
D03*
Y7488D02*
D03*
X9606Y7588D02*
D03*
Y7788D02*
D03*
X10006Y8038D02*
D03*
Y8338D02*
D03*
X9706Y8038D02*
D03*
X9806D02*
D03*
X9906D02*
D03*
Y8338D02*
D03*
X9806D02*
D03*
X9706D02*
D03*
X9606D02*
D03*
X9506D02*
D03*
Y8038D02*
D03*
X9406D02*
D03*
Y8338D02*
D03*
X9806Y7138D02*
D03*
Y6738D02*
D03*
X8506Y8988D02*
D03*
X8606D02*
D03*
X7506Y8838D02*
D03*
Y8738D02*
D03*
Y8638D02*
D03*
Y8538D02*
D03*
Y8438D02*
D03*
Y8338D02*
D03*
X7806D02*
D03*
Y8438D02*
D03*
Y8538D02*
D03*
Y8638D02*
D03*
Y8738D02*
D03*
Y8838D02*
D03*
Y8938D02*
D03*
Y9088D02*
D03*
X7506D02*
D03*
X8006Y8838D02*
D03*
Y8738D02*
D03*
Y8638D02*
D03*
Y8538D02*
D03*
Y8438D02*
D03*
Y8338D02*
D03*
X8306D02*
D03*
Y8438D02*
D03*
Y8538D02*
D03*
Y8638D02*
D03*
Y8738D02*
D03*
Y8838D02*
D03*
Y8938D02*
D03*
Y9088D02*
D03*
X8006D02*
D03*
X8806Y8488D02*
D03*
Y8888D02*
D03*
X8706Y8488D02*
D03*
Y8888D02*
D03*
X8606Y8588D02*
D03*
Y8488D02*
D03*
X8706Y8038D02*
D03*
X8806D02*
D03*
X8906D02*
D03*
X9006D02*
D03*
X9106D02*
D03*
X9206D02*
D03*
X9306D02*
D03*
Y8338D02*
D03*
X9206D02*
D03*
X9106D02*
D03*
X9006D02*
D03*
X8906D02*
D03*
X8806D02*
D03*
X8706D02*
D03*
X8606D02*
D03*
X8506D02*
D03*
Y8038D02*
D03*
X7806Y8238D02*
D03*
X7506D02*
D03*
Y7988D02*
D03*
Y7888D02*
D03*
Y7788D02*
D03*
Y7688D02*
D03*
Y7588D02*
D03*
Y7488D02*
D03*
X7806D02*
D03*
Y7588D02*
D03*
Y7688D02*
D03*
Y7788D02*
D03*
Y7888D02*
D03*
Y7988D02*
D03*
Y8088D02*
D03*
X8306Y8238D02*
D03*
X8006D02*
D03*
Y7988D02*
D03*
Y7888D02*
D03*
Y7788D02*
D03*
Y7688D02*
D03*
Y7588D02*
D03*
Y7488D02*
D03*
X8306D02*
D03*
Y7588D02*
D03*
Y7688D02*
D03*
Y7788D02*
D03*
Y7888D02*
D03*
Y7988D02*
D03*
Y8088D02*
D03*
X7856Y7088D02*
D03*
Y7288D02*
D03*
X8806Y7138D02*
D03*
Y6738D02*
D03*
X8906D02*
D03*
Y7138D02*
D03*
X9006Y6738D02*
D03*
Y7138D02*
D03*
X7806Y6988D02*
D03*
Y6588D02*
D03*
X7906D02*
D03*
Y6988D02*
D03*
X8006Y6588D02*
D03*
Y6988D02*
D03*
X7306Y9088D02*
D03*
X7006D02*
D03*
Y8838D02*
D03*
Y8738D02*
D03*
Y8638D02*
D03*
Y8538D02*
D03*
Y8438D02*
D03*
Y8338D02*
D03*
X7306D02*
D03*
Y8438D02*
D03*
Y8538D02*
D03*
Y8638D02*
D03*
Y8738D02*
D03*
Y8838D02*
D03*
Y8938D02*
D03*
Y8238D02*
D03*
X7006D02*
D03*
Y7988D02*
D03*
Y7888D02*
D03*
Y7788D02*
D03*
Y7688D02*
D03*
Y7588D02*
D03*
Y7488D02*
D03*
X7306D02*
D03*
Y7588D02*
D03*
Y7688D02*
D03*
Y7788D02*
D03*
Y7888D02*
D03*
Y7988D02*
D03*
Y8088D02*
D03*
X7006Y7338D02*
D03*
Y6938D02*
D03*
Y6788D02*
D03*
Y6588D02*
D03*
D35*
X11256Y6738D02*
D03*
X11556D02*
D03*
X11406Y7238D02*
D03*
X10256Y6738D02*
D03*
X10556D02*
D03*
X10406Y7238D02*
D03*
X9256Y6738D02*
D03*
X9556D02*
D03*
X9406Y7238D02*
D03*
X8256Y6738D02*
D03*
X8556D02*
D03*
X8406Y7238D02*
D03*
X7256Y6738D02*
D03*
X7556D02*
D03*
X7406Y7238D02*
D03*
D36*
X10328Y8438D02*
D03*
X10640D02*
D03*
X10172D02*
D03*
X10484D02*
D03*
D38*
X11656Y7138D02*
D03*
X11556Y6938D02*
D03*
X11406Y6638D02*
D03*
X10656Y7138D02*
D03*
X10556Y6938D02*
D03*
X10406Y6638D02*
D03*
X9656Y7138D02*
D03*
X9556Y6938D02*
D03*
X9406Y6638D02*
D03*
X8656Y7138D02*
D03*
X8556Y6938D02*
D03*
X8406Y6638D02*
D03*
X7656Y7138D02*
D03*
X7556Y6938D02*
D03*
X7406Y6638D02*
D03*
D40*
X11056Y8038D02*
D03*
X9606D02*
D03*
X7506Y8938D02*
D03*
X8006D02*
D03*
X8606Y8038D02*
D03*
X7506Y8088D02*
D03*
X8006D02*
D03*
X7006Y8938D02*
D03*
Y8088D02*
D03*
M02*
