*%FSLAX23Y23*%
*%MOIN*%
G01*
%ADD11C,0.007*%
%ADD12C,0.008*%
%ADD13C,0.010*%
%ADD14C,0.012*%
%ADD15C,0.020*%
%ADD16C,0.032*%
%ADD17C,0.036*%
%ADD18C,0.050*%
%ADD19C,0.052*%
%ADD20C,0.055*%
%ADD21C,0.056*%
%ADD22C,0.059*%
%ADD23C,0.060*%
%ADD24C,0.061*%
%ADD25C,0.062*%
%ADD26C,0.066*%
%ADD27C,0.068*%
%ADD28C,0.070*%
%ADD29C,0.080*%
%ADD30C,0.090*%
%ADD31C,0.095*%
%ADD32C,0.115*%
%ADD33C,0.120*%
%ADD34C,0.125*%
%ADD35C,0.126*%
%ADD36C,0.131*%
%ADD37C,0.150*%
%ADD38C,0.156*%
%ADD39R,0.062X0.062*%
%ADD40R,0.068X0.068*%
D13*
X11099Y9342D02*
X11166D01*
X11099Y9409D01*
Y9425D01*
X11116Y9442D01*
X11149D01*
X11166Y9425D01*
X11066D02*
X11049Y9442D01*
X11016D01*
X10999Y9425D01*
Y9359D01*
X11016Y9342D01*
X11049D01*
X11066Y9359D01*
Y9425D01*
X10966D02*
X10949Y9442D01*
X10916D01*
X10899Y9425D01*
Y9359D01*
X10916Y9342D01*
X10949D01*
X10966Y9359D01*
Y9425D01*
X10866Y9392D02*
X10799D01*
X10766Y9342D02*
X10733D01*
X10749D01*
Y9442D01*
X10750D01*
X10749D02*
X10766Y9425D01*
X10683D02*
X10666Y9442D01*
X10633D01*
X10616Y9425D01*
Y9359D01*
X10633Y9342D01*
X10666D01*
X10683Y9359D01*
Y9425D01*
X10583D02*
X10566Y9442D01*
X10533D01*
X10516Y9425D01*
Y9359D01*
X10533Y9342D01*
X10566D01*
X10583Y9359D01*
Y9425D01*
X10483Y9359D02*
X10466Y9342D01*
X10433D01*
X10416Y9359D01*
Y9425D01*
X10433Y9442D01*
X10466D01*
X10483Y9425D01*
Y9409D01*
X10466Y9392D01*
X10416D01*
X10383D02*
X10316D01*
X10283Y9425D02*
X10266Y9442D01*
X10233D01*
X10216Y9425D01*
Y9359D01*
X10233Y9342D01*
X10266D01*
X10283Y9359D01*
Y9425D01*
X10183Y9342D02*
X10150D01*
X10166D01*
Y9442D01*
X10167D01*
X10166D02*
X10183Y9425D01*
X10000Y9442D02*
Y9342D01*
Y9442D02*
X9950D01*
X9933Y9425D01*
Y9392D01*
X9950Y9375D01*
X10000D01*
X9966D02*
X9933Y9342D01*
X9900Y9442D02*
X9833D01*
X9900D02*
Y9342D01*
X9833D01*
X9866Y9392D02*
X9900D01*
X9800Y9375D02*
Y9442D01*
Y9375D02*
X9766Y9342D01*
X9733Y9375D01*
Y9442D01*
X9600D02*
Y9342D01*
X9533D02*
X9600Y9442D01*
X9533D02*
Y9342D01*
X9433Y9425D02*
X9450Y9442D01*
X9483D01*
X9500Y9425D01*
Y9359D01*
X9483Y9342D01*
X9450D01*
X9433Y9359D01*
X9250Y9442D02*
X9233Y9425D01*
X9250Y9442D02*
X9283D01*
X9300Y9425D01*
Y9359D01*
X9283Y9342D01*
X9250D01*
X9233Y9359D01*
X9200Y9442D02*
X9167D01*
X9183D01*
Y9342D01*
X9200D01*
X9167D01*
X9117D02*
Y9442D01*
X9067D01*
X9050Y9425D01*
Y9392D01*
X9067Y9375D01*
X9117D01*
X9083D02*
X9050Y9342D01*
X8950Y9425D02*
X8967Y9442D01*
X9000D01*
X9017Y9425D01*
Y9359D01*
X9000Y9342D01*
X8967D01*
X8950Y9359D01*
X8917D02*
Y9442D01*
Y9359D02*
X8900Y9342D01*
X8867D01*
X8850Y9359D01*
Y9442D01*
X8817D02*
X8783D01*
X8800D01*
Y9342D01*
X8817D01*
X8783D01*
X8733Y9442D02*
X8667D01*
X8700D01*
Y9342D01*
X8484Y9442D02*
X8467Y9425D01*
X8484Y9442D02*
X8517D01*
X8534Y9425D01*
Y9409D01*
X8517Y9392D01*
X8484D01*
X8467Y9375D01*
Y9359D01*
X8484Y9342D01*
X8517D01*
X8534Y9359D01*
X8434Y9442D02*
X8400D01*
X8417D01*
Y9342D01*
X8434D01*
X8400D01*
X8350D02*
Y9442D01*
Y9342D02*
X8300D01*
X8284Y9359D01*
Y9425D01*
X8300Y9442D01*
X8350D01*
X8250D02*
X8184D01*
X8250D02*
Y9342D01*
X8184D01*
X8217Y9392D02*
X8250D01*
X8416Y7777D02*
X8406Y7767D01*
X8386D01*
X8376Y7777D01*
Y7817D01*
X8386Y7827D01*
X8406D01*
X8416Y7817D01*
X8446Y7767D02*
X8466D01*
X8446D02*
X8436Y7777D01*
Y7817D01*
X8446Y7827D01*
X8466D01*
X8476Y7817D01*
Y7777D01*
X8466Y7767D01*
X8496D02*
Y7827D01*
Y7767D02*
X8526D01*
X8536Y7777D01*
Y7797D01*
X8526Y7807D01*
X8496D01*
X8556Y7777D02*
Y7767D01*
Y7777D02*
X8576Y7797D01*
X8596Y7777D01*
Y7767D01*
X8576Y7797D02*
Y7827D01*
X8616D02*
Y7767D01*
X8646D01*
X8656Y7777D01*
Y7797D01*
X8646Y7807D01*
X8616D01*
X8636D02*
X8656Y7827D01*
X8676Y7767D02*
X8696D01*
X8686D01*
Y7827D01*
X8676D01*
X8696D01*
X8756Y7767D02*
X8766Y7777D01*
X8756Y7767D02*
X8736D01*
X8726Y7777D01*
Y7817D01*
X8736Y7827D01*
X8756D01*
X8766Y7817D01*
Y7797D01*
X8746D01*
X8786Y7767D02*
Y7827D01*
Y7797D01*
X8826D01*
Y7767D01*
Y7827D01*
X8846Y7767D02*
X8886D01*
X8866D01*
Y7827D01*
X8966Y7807D02*
X8986Y7827D01*
X8966Y7807D02*
Y7787D01*
X8986Y7767D01*
X9046D02*
X9056Y7777D01*
X9046Y7767D02*
X9026D01*
X9016Y7777D01*
Y7817D01*
X9026Y7827D01*
X9046D01*
X9056Y7817D01*
X9076Y7827D02*
X9096Y7807D01*
Y7787D01*
X9076Y7767D01*
X9186Y7827D02*
X9226D01*
X9186D02*
X9226Y7787D01*
Y7777D01*
X9216Y7767D01*
X9196D01*
X9186Y7777D01*
X9246D02*
X9256Y7767D01*
X9276D01*
X9286Y7777D01*
Y7817D01*
X9276Y7827D01*
X9256D01*
X9246Y7817D01*
Y7777D01*
X9306D02*
X9316Y7767D01*
X9336D01*
X9346Y7777D01*
Y7817D01*
X9336Y7827D01*
X9316D01*
X9306Y7817D01*
Y7777D01*
X9366Y7827D02*
X9406D01*
X9366D02*
X9406Y7787D01*
Y7777D01*
X9396Y7767D01*
X9376D01*
X9366Y7777D01*
X9486Y7767D02*
Y7827D01*
X9516D01*
X9526Y7817D01*
Y7807D01*
X9516Y7797D01*
X9486D01*
X9487D01*
X9486D02*
X9487D01*
X9486D02*
X9487D01*
X9486D02*
X9516D01*
X9526Y7787D01*
Y7777D01*
X9516Y7767D01*
X9486D01*
X9546D02*
Y7777D01*
X9566Y7797D01*
X9586Y7777D01*
Y7767D01*
X9566Y7797D02*
Y7827D01*
X9686Y7767D02*
X9706D01*
X9696D02*
X9686D01*
X9696D02*
Y7817D01*
X9686Y7827D01*
X9676D01*
X9666Y7817D01*
X9726Y7767D02*
X9746D01*
X9736D01*
Y7827D01*
X9726D01*
X9746D01*
X9776D02*
Y7767D01*
X9796Y7787D01*
X9816Y7767D01*
Y7827D01*
X9896D02*
Y7767D01*
X9925D01*
X9935Y7777D01*
Y7797D01*
X9925Y7807D01*
X9896D01*
X9955Y7827D02*
Y7787D01*
X9975Y7767D01*
X9995Y7787D01*
Y7827D01*
Y7797D01*
X9955D01*
X10015Y7767D02*
X10055D01*
X10035D01*
Y7827D01*
X10105Y7767D02*
X10115Y7777D01*
X10105Y7767D02*
X10085D01*
X10075Y7777D01*
Y7817D01*
X10085Y7827D01*
X10105D01*
X10115Y7817D01*
X10135Y7827D02*
Y7767D01*
Y7797D02*
Y7827D01*
Y7797D02*
X10175D01*
Y7767D01*
Y7827D01*
X10195Y7767D02*
X10235D01*
X10195D02*
Y7827D01*
X10235D01*
X10215Y7797D02*
X10195D01*
X10255Y7767D02*
Y7827D01*
X10295D01*
X10315D02*
Y7767D01*
Y7827D02*
X10355D01*
X10201Y7677D02*
X10161D01*
X10201D02*
X10161Y7717D01*
Y7727D01*
X10171Y7737D01*
X10191D01*
X10201Y7727D01*
X10141D02*
X10131Y7737D01*
X10111D01*
X10101Y7727D01*
Y7687D01*
X10111Y7677D01*
X10131D01*
X10141Y7687D01*
Y7727D01*
X10081D02*
X10071Y7737D01*
X10051D01*
X10041Y7727D01*
Y7687D01*
X10051Y7677D01*
X10071D01*
X10081Y7687D01*
Y7727D01*
X10021Y7707D02*
X9981D01*
X9961Y7677D02*
X9941D01*
X9951D01*
Y7737D01*
X9952D01*
X9951D02*
X9961Y7727D01*
X9911D02*
X9901Y7737D01*
X9881D01*
X9871Y7727D01*
Y7687D01*
X9881Y7677D01*
X9901D01*
X9911Y7687D01*
Y7727D01*
X9851Y7677D02*
X9831D01*
X9841D01*
Y7737D01*
X9842D01*
X9841D02*
X9851Y7727D01*
X9801Y7687D02*
X9791Y7677D01*
X9771D01*
X9761Y7687D01*
Y7727D01*
X9771Y7737D01*
X9791D01*
X9801Y7727D01*
Y7717D01*
X9791Y7707D01*
X9761D01*
X9676Y7677D02*
Y7737D01*
X9646D01*
X9636Y7727D01*
Y7707D01*
X9646Y7697D01*
X9676D01*
X9656D02*
X9636Y7677D01*
X9616Y7737D02*
X9576D01*
X9616D02*
Y7677D01*
X9576D01*
X9596Y7707D02*
X9616D01*
X9556Y7697D02*
Y7737D01*
Y7697D02*
X9536Y7677D01*
X9516Y7697D01*
Y7737D01*
X9436D02*
Y7677D01*
X9396D02*
X9436Y7737D01*
X9396D02*
Y7677D01*
X9336Y7727D02*
X9346Y7737D01*
X9366D01*
X9376Y7727D01*
Y7687D01*
X9366Y7677D01*
X9346D01*
X9336Y7687D01*
D14*
X7826Y8577D02*
Y8727D01*
X7926Y8827D01*
X8176Y8577D02*
X8226Y8627D01*
X8176Y8827D02*
X8276Y8927D01*
Y8977D01*
X8701Y9002D02*
Y8877D01*
X8776Y8977D02*
X8876Y8877D01*
X8801Y8777D02*
X8701Y8877D01*
X8676Y7977D02*
X8751Y7902D01*
X8701Y9002D02*
X8751Y9052D01*
X8926Y8627D02*
X8976Y8577D01*
X9026Y7902D02*
X8751D01*
X8776Y7977D02*
X8876D01*
X10651Y7902D02*
X11401D01*
X10376Y7927D02*
X9476D01*
X10426Y7977D02*
X10576D01*
X9076Y8977D02*
Y9027D01*
X9051Y9052D01*
X11026Y8127D02*
X11126D01*
X10601Y8252D02*
X9676D01*
X9376Y8127D02*
X9276D01*
X9451Y8952D02*
X9376Y9027D01*
X10626Y8277D02*
X11126D01*
X9651D02*
X9476D01*
X8926Y8627D02*
X8226D01*
X9651Y8277D02*
X9676Y8252D01*
X8976Y8827D02*
X10701D01*
X11201Y8777D02*
X11326D01*
X10876D02*
X8801D01*
X10876D02*
X11201D01*
X8076Y8827D02*
X7926D01*
X8076D02*
X8176D01*
X7926Y8977D02*
X7826D01*
X8876Y8877D02*
X10676D01*
X10726Y8927D02*
X10826D01*
X10876Y8877D02*
X10751D01*
X11126D02*
X11226D01*
X8376Y8977D02*
X8276D01*
X9451Y8952D02*
X9776D01*
X9051Y9052D02*
X8751D01*
X9276Y9077D02*
X10926D01*
X10426Y7977D02*
X10376Y7927D01*
X10576Y7977D02*
X10651Y7902D01*
X10676Y8877D02*
X10726Y8927D01*
X10751Y8877D02*
X10701Y8827D01*
X10626Y8277D02*
X10601Y8252D01*
X11026Y8977D02*
X10926Y9077D01*
Y8927D02*
X10876Y8877D01*
X11326Y8777D02*
X11426Y8877D01*
X11326Y8977D02*
X11226Y8877D01*
X11426D02*
Y8977D01*
Y7877D02*
Y7227D01*
Y7877D02*
X11401Y7902D01*
X11676Y9277D02*
X7676D01*
Y6527D02*
X11676D01*
Y9277D01*
X7676D02*
Y6527D01*
D18*
X10001Y8402D02*
X10026Y8377D01*
X9826Y8402D02*
X9801Y8427D01*
X9776Y8352D02*
X9801Y8327D01*
X9976D02*
X10001Y8302D01*
X9801Y8052D02*
X9826Y8027D01*
X8176Y7677D02*
X7926Y7927D01*
X10501Y8477D02*
X10526Y8502D01*
X10501Y8427D02*
X10476Y8402D01*
X10451Y8377D01*
X10526Y8302D02*
X10576Y8352D01*
X10351Y8052D02*
X10326Y8027D01*
X8026Y8777D02*
X7926Y8677D01*
X8326Y7027D02*
X8176Y6877D01*
X9176D02*
X9326Y7027D01*
X11176Y6877D02*
X11326Y7027D01*
X9176Y6602D02*
X8176D01*
X9176D02*
X10176D01*
X11176D01*
X7926Y8502D02*
Y8577D01*
Y8677D01*
Y8127D02*
Y8052D01*
Y8127D02*
Y7927D01*
X8076Y8352D02*
Y8427D01*
X8176Y6877D02*
Y6727D01*
Y6602D01*
Y7577D02*
Y7677D01*
X8376Y8427D02*
Y8502D01*
X8476D02*
Y8427D01*
X8576D02*
Y8352D01*
X8476Y8202D02*
Y8127D01*
X8576D02*
Y8052D01*
X8676Y8352D02*
Y8427D01*
X8976D02*
Y8502D01*
Y8202D02*
Y8127D01*
X8876D02*
Y8052D01*
X8576D02*
X7926D01*
X8576D02*
X8876D01*
X9176D01*
X9801D01*
X10351D02*
X10576D01*
X9926Y8027D02*
X9826D01*
X9926D02*
X10326D01*
X10576Y8052D02*
X10926D01*
X9076Y8427D02*
Y8502D01*
X9176Y8427D02*
Y8352D01*
X9076Y8202D02*
Y8127D01*
X9176D02*
Y8052D01*
Y6727D02*
Y6602D01*
Y6727D02*
Y6877D01*
X11226Y8202D02*
X11526D01*
X11226D02*
X10276D01*
Y8127D02*
X9676D01*
X9576Y8202D02*
X9076D01*
X9576Y8127D02*
X9676D01*
X8976Y8202D02*
X8476D01*
X8976Y8127D02*
X9076D01*
X8476D02*
X8376D01*
X9276Y8352D02*
Y8427D01*
X10276Y8377D02*
X10451D01*
X10276D02*
X10026D01*
X10001Y8402D02*
X9826D01*
X9801Y8427D02*
X9676D01*
X9576D01*
X8476D02*
X8376D01*
X8576Y8352D02*
X8076D01*
Y8427D02*
X7926D01*
X8676Y8352D02*
X9176D01*
X8676Y8427D02*
X8576D01*
X9276Y8352D02*
X9776D01*
X9276Y8427D02*
X9176D01*
X10001Y8302D02*
X10476D01*
X10526D01*
X9926Y8327D02*
X9801D01*
X9926D02*
X9976D01*
X10576Y8352D02*
X11226D01*
X10276Y8377D02*
X10101D01*
X9576Y8427D02*
Y8502D01*
Y8202D02*
Y8127D01*
X11426Y8502D02*
X11526D01*
X11426D02*
X11326D01*
X10926D01*
X10526D01*
X9576D02*
X9076D01*
X8976D01*
X8376D02*
X7926D01*
X8476D02*
X8976D01*
X10098Y8527D02*
X10101D01*
X10254D01*
X10176Y6727D02*
Y6602D01*
X10101Y8377D02*
Y8427D01*
Y8527D01*
X10276Y8202D02*
Y8127D01*
Y8377D02*
Y8427D01*
X10501D02*
Y8477D01*
X10576Y8427D02*
Y8352D01*
Y8127D02*
Y8052D01*
X10926D02*
Y8127D01*
Y8427D02*
Y8502D01*
X11176Y6877D02*
Y6727D01*
Y6602D01*
X11326Y8502D02*
Y8577D01*
X11226Y8427D02*
Y8352D01*
Y8202D02*
Y8127D01*
X11526Y8427D02*
Y8502D01*
X11426D02*
Y8577D01*
X11526Y8202D02*
Y8127D01*
D20*
X10876Y8977D02*
D03*
X10826Y8927D02*
D03*
X10926D02*
D03*
X10876Y8777D02*
D03*
X10926Y8827D02*
D03*
X10826D02*
D03*
X8026Y8777D02*
D03*
X8076Y8827D02*
D03*
X8026Y8877D02*
D03*
D25*
X11126Y8277D02*
D03*
X9776Y8952D02*
D03*
X9476Y8277D02*
D03*
Y7927D02*
D03*
X9276Y9077D02*
D03*
X9026Y7902D02*
D03*
X8976Y8827D02*
D03*
X11426Y8977D02*
D03*
Y8577D02*
D03*
X11526Y8427D02*
D03*
Y8127D02*
D03*
X11026Y8977D02*
D03*
Y8577D02*
D03*
X11126Y8677D02*
D03*
Y8877D02*
D03*
X11326Y8977D02*
D03*
Y8577D02*
D03*
X10576Y7977D02*
D03*
Y7577D02*
D03*
X11026Y8127D02*
D03*
X10926D02*
D03*
X10726Y8427D02*
D03*
X10826D02*
D03*
X10926D02*
D03*
X11026D02*
D03*
X11126D02*
D03*
X11226D02*
D03*
X11326D02*
D03*
X11426D02*
D03*
Y8127D02*
D03*
X11326D02*
D03*
X11226D02*
D03*
X11126D02*
D03*
X10826D02*
D03*
X10726Y8577D02*
D03*
Y8977D02*
D03*
Y7977D02*
D03*
Y7577D02*
D03*
X9926Y8027D02*
D03*
Y8327D02*
D03*
X10276Y8427D02*
D03*
Y8127D02*
D03*
X10576D02*
D03*
Y8427D02*
D03*
X8776Y8977D02*
D03*
Y8577D02*
D03*
X8276Y8977D02*
D03*
Y8577D02*
D03*
X8476Y8427D02*
D03*
Y8127D02*
D03*
X9076Y8427D02*
D03*
Y8127D02*
D03*
X8376Y8577D02*
D03*
Y8977D02*
D03*
X8976Y8577D02*
D03*
Y8977D02*
D03*
X8876Y8577D02*
D03*
Y8677D02*
D03*
X8776Y8127D02*
D03*
X8676Y8427D02*
D03*
X8776D02*
D03*
X8876D02*
D03*
X8976D02*
D03*
Y8127D02*
D03*
X8876D02*
D03*
X8576D02*
D03*
Y8427D02*
D03*
X8776Y7577D02*
D03*
Y7977D02*
D03*
X8676Y7577D02*
D03*
Y7977D02*
D03*
X8876Y7577D02*
D03*
Y7977D02*
D03*
X9076Y8577D02*
D03*
Y8977D02*
D03*
X9176Y8127D02*
D03*
Y8427D02*
D03*
X9376Y8127D02*
D03*
X9276Y8427D02*
D03*
X9376D02*
D03*
X9476D02*
D03*
X9576D02*
D03*
Y8127D02*
D03*
X9476D02*
D03*
X9676Y8427D02*
D03*
Y8127D02*
D03*
X9376Y8627D02*
D03*
Y9027D02*
D03*
X9476Y8627D02*
D03*
Y9027D02*
D03*
X7926Y8977D02*
D03*
Y8577D02*
D03*
X8176Y8977D02*
D03*
Y8577D02*
D03*
X7826D02*
D03*
Y8977D02*
D03*
X8176Y8127D02*
D03*
X8076Y8427D02*
D03*
X8176D02*
D03*
X8276D02*
D03*
X8376D02*
D03*
Y8127D02*
D03*
X8276D02*
D03*
X7926D02*
D03*
Y8427D02*
D03*
X8076Y7577D02*
D03*
Y7977D02*
D03*
X8176D02*
D03*
Y7577D02*
D03*
D33*
X10176Y7327D02*
D03*
X10326Y6827D02*
D03*
X10026D02*
D03*
X11176Y7327D02*
D03*
X11326Y6827D02*
D03*
X11026D02*
D03*
X9176Y7327D02*
D03*
X9326Y6827D02*
D03*
X9026D02*
D03*
X8176Y7327D02*
D03*
X8326Y6827D02*
D03*
X8026D02*
D03*
D34*
X10254Y8527D02*
D03*
X9942D02*
D03*
X10410D02*
D03*
X10098D02*
D03*
D37*
X10176Y6727D02*
D03*
X10326Y7027D02*
D03*
X10426Y7227D02*
D03*
X11176Y6727D02*
D03*
X11326Y7027D02*
D03*
X11426Y7227D02*
D03*
X9176Y6727D02*
D03*
X9326Y7027D02*
D03*
X9426Y7227D02*
D03*
X8176Y6727D02*
D03*
X8326Y7027D02*
D03*
X8426Y7227D02*
D03*
D39*
X10726Y8127D02*
D03*
X8676D02*
D03*
X9276D02*
D03*
X8076D02*
D03*
M02*
