*%FSLAX23Y23*%
*%MOIN*%
G01*
%ADD11C,0.007*%
%ADD12C,0.008*%
%ADD13C,0.010*%
%ADD14C,0.012*%
%ADD15C,0.020*%
%ADD16C,0.032*%
%ADD17C,0.036*%
%ADD18C,0.050*%
%ADD19C,0.052*%
%ADD20C,0.055*%
%ADD21C,0.056*%
%ADD22C,0.059*%
%ADD23C,0.060*%
%ADD24C,0.061*%
%ADD25C,0.062*%
%ADD26C,0.066*%
%ADD27C,0.068*%
%ADD28C,0.070*%
%ADD29C,0.080*%
%ADD30C,0.090*%
%ADD31C,0.095*%
%ADD32C,0.115*%
%ADD33C,0.120*%
%ADD34C,0.125*%
%ADD35C,0.126*%
%ADD36C,0.131*%
%ADD37C,0.150*%
%ADD38C,0.156*%
%ADD39R,0.062X0.062*%
%ADD40R,0.068X0.068*%
D13*
X7951Y9502D02*
X8018D01*
X7951D02*
X8018Y9569D01*
Y9585D01*
X8001Y9602D01*
X7968D01*
X7951Y9585D01*
X8051D02*
X8068Y9602D01*
X8101D01*
X8118Y9585D01*
Y9519D01*
X8101Y9502D01*
X8068D01*
X8051Y9519D01*
Y9585D01*
X8151D02*
X8168Y9602D01*
X8201D01*
X8218Y9585D01*
Y9519D01*
X8201Y9502D01*
X8168D01*
X8151Y9519D01*
Y9585D01*
X8251Y9552D02*
X8318D01*
X8351Y9502D02*
X8384D01*
X8368D01*
Y9602D01*
X8369D01*
X8368D02*
X8351Y9585D01*
X8434D02*
X8451Y9602D01*
X8484D01*
X8501Y9585D01*
Y9519D01*
X8484Y9502D01*
X8451D01*
X8434Y9519D01*
Y9585D01*
X8534D02*
X8551Y9602D01*
X8584D01*
X8601Y9585D01*
Y9519D01*
X8584Y9502D01*
X8551D01*
X8534Y9519D01*
Y9585D01*
X8634Y9519D02*
X8651Y9502D01*
X8684D01*
X8701Y9519D01*
Y9585D01*
X8684Y9602D01*
X8651D01*
X8634Y9585D01*
Y9569D01*
X8651Y9552D01*
X8701D01*
X8734D02*
X8801D01*
X8834Y9585D02*
X8851Y9602D01*
X8884D01*
X8901Y9585D01*
Y9519D01*
X8884Y9502D01*
X8851D01*
X8834Y9519D01*
Y9585D01*
X8934Y9502D02*
X9001D01*
X8934D02*
X9001Y9569D01*
Y9585D01*
X8984Y9602D01*
X8951D01*
X8934Y9585D01*
X9134Y9602D02*
Y9502D01*
Y9602D02*
X9184D01*
X9201Y9585D01*
Y9552D01*
X9184Y9535D01*
X9134D01*
X9167D02*
X9201Y9502D01*
X9234Y9602D02*
X9301D01*
X9234D02*
Y9502D01*
X9301D01*
X9267Y9552D02*
X9234D01*
X9334Y9535D02*
Y9602D01*
Y9535D02*
X9367Y9502D01*
X9401Y9535D01*
Y9602D01*
X9534D02*
Y9502D01*
X9600D02*
X9534Y9602D01*
X9600D02*
Y9502D01*
X9700Y9585D02*
X9684Y9602D01*
X9650D01*
X9634Y9585D01*
Y9519D01*
X9650Y9502D01*
X9684D01*
X9700Y9519D01*
X9884Y9602D02*
X9900Y9585D01*
X9884Y9602D02*
X9850D01*
X9834Y9585D01*
Y9519D01*
X9850Y9502D01*
X9884D01*
X9900Y9519D01*
X9950Y9602D02*
X9984D01*
X9950D02*
X9934Y9585D01*
Y9519D01*
X9950Y9502D01*
X9984D01*
X10000Y9519D01*
Y9585D01*
X9984Y9602D01*
X10034D02*
Y9502D01*
X10067Y9569D02*
X10034Y9602D01*
X10067Y9569D02*
X10100Y9602D01*
Y9502D01*
X10134D02*
Y9602D01*
X10184D01*
X10200Y9585D01*
Y9552D01*
X10184Y9535D01*
X10134D01*
X10250Y9602D02*
X10284D01*
X10250D02*
X10234Y9585D01*
Y9519D01*
X10250Y9502D01*
X10284D01*
X10300Y9519D01*
Y9585D01*
X10284Y9602D01*
X10334D02*
Y9502D01*
X10400D02*
X10334Y9602D01*
X10400D02*
Y9502D01*
X10434Y9602D02*
X10500D01*
X10434D02*
Y9502D01*
X10500D01*
X10467Y9552D02*
X10434D01*
X10533Y9502D02*
Y9602D01*
X10600Y9502D01*
Y9602D01*
X10633D02*
X10700D01*
X10667D01*
Y9502D01*
X10883Y9602D02*
X10900Y9585D01*
X10883Y9602D02*
X10850D01*
X10833Y9585D01*
Y9569D01*
X10850Y9552D01*
X10883D01*
X10900Y9535D01*
Y9519D01*
X10883Y9502D01*
X10850D01*
X10833Y9519D01*
X10933Y9602D02*
X10967D01*
X10950D01*
Y9502D01*
X10933D01*
X10967D01*
X11017D02*
Y9602D01*
Y9502D02*
X11067D01*
X11083Y9519D01*
Y9585D01*
X11067Y9602D01*
X11017D01*
X11117D02*
X11183D01*
X11117D02*
Y9502D01*
X11183D01*
X11150Y9552D02*
X11117D01*
X8016Y9227D02*
X8006Y9237D01*
X7986D01*
X7976Y9227D01*
Y9187D01*
X7986Y9177D01*
X8006D01*
X8016Y9187D01*
X8046Y9237D02*
X8066D01*
X8046D02*
X8036Y9227D01*
Y9187D01*
X8046Y9177D01*
X8066D01*
X8076Y9187D01*
Y9227D01*
X8066Y9237D01*
X8096D02*
Y9177D01*
Y9237D02*
X8126D01*
X8136Y9227D01*
Y9207D01*
X8126Y9197D01*
X8096D01*
X8156Y9227D02*
Y9237D01*
Y9227D02*
X8176Y9207D01*
X8196Y9227D01*
Y9237D01*
X8176Y9207D02*
Y9177D01*
X8216D02*
Y9237D01*
X8246D01*
X8256Y9227D01*
Y9207D01*
X8246Y9197D01*
X8216D01*
X8236D02*
X8256Y9177D01*
X8276Y9237D02*
X8296D01*
X8286D01*
Y9177D01*
X8276D01*
X8296D01*
X8356Y9237D02*
X8366Y9227D01*
X8356Y9237D02*
X8336D01*
X8326Y9227D01*
Y9187D01*
X8336Y9177D01*
X8356D01*
X8366Y9187D01*
Y9207D01*
X8346D01*
X8386Y9237D02*
Y9177D01*
Y9207D01*
X8426D01*
Y9237D01*
Y9177D01*
X8446Y9237D02*
X8486D01*
X8466D01*
Y9177D01*
X8566Y9197D02*
X8586Y9177D01*
X8566Y9197D02*
Y9217D01*
X8586Y9237D01*
X8646D02*
X8656Y9227D01*
X8646Y9237D02*
X8626D01*
X8616Y9227D01*
Y9187D01*
X8626Y9177D01*
X8646D01*
X8656Y9187D01*
X8676Y9177D02*
X8696Y9197D01*
Y9217D01*
X8676Y9237D01*
X8786Y9177D02*
X8826D01*
X8786D02*
X8826Y9217D01*
Y9227D01*
X8816Y9237D01*
X8796D01*
X8786Y9227D01*
X8846D02*
X8856Y9237D01*
X8876D01*
X8886Y9227D01*
Y9187D01*
X8876Y9177D01*
X8856D01*
X8846Y9187D01*
Y9227D01*
X8906D02*
X8916Y9237D01*
X8936D01*
X8946Y9227D01*
Y9187D01*
X8936Y9177D01*
X8916D01*
X8906Y9187D01*
Y9227D01*
X8966Y9177D02*
X9006D01*
X8966D02*
X9006Y9217D01*
Y9227D01*
X8996Y9237D01*
X8976D01*
X8966Y9227D01*
X8001Y9137D02*
Y9077D01*
X8031D01*
X8041Y9087D01*
Y9097D01*
X8031Y9107D01*
X8001D01*
X8002D01*
X8001D02*
X8002D01*
X8001D02*
X8002D01*
X8001D02*
X8031D01*
X8041Y9117D01*
Y9127D01*
X8031Y9137D01*
X8001D01*
X8061D02*
Y9127D01*
X8081Y9107D01*
X8101Y9127D01*
Y9137D01*
X8081Y9107D02*
Y9077D01*
X8201Y9137D02*
X8221D01*
X8211D02*
X8201D01*
X8211D02*
Y9087D01*
X8201Y9077D01*
X8191D01*
X8181Y9087D01*
X8241Y9137D02*
X8261D01*
X8251D01*
Y9077D01*
X8241D01*
X8261D01*
X8291D02*
Y9137D01*
X8311Y9117D01*
X8331Y9137D01*
Y9077D01*
X8411D02*
Y9137D01*
X8441D01*
X8451Y9127D01*
Y9107D01*
X8441Y9097D01*
X8411D01*
X8471Y9077D02*
Y9117D01*
X8491Y9137D01*
X8511Y9117D01*
Y9077D01*
Y9107D01*
X8471D01*
X8531Y9137D02*
X8571D01*
X8551D01*
Y9077D01*
X8621Y9137D02*
X8631Y9127D01*
X8621Y9137D02*
X8601D01*
X8591Y9127D01*
Y9087D01*
X8601Y9077D01*
X8621D01*
X8631Y9087D01*
X8651Y9077D02*
Y9137D01*
Y9107D02*
Y9077D01*
Y9107D02*
X8691D01*
Y9137D01*
Y9077D01*
X8711Y9137D02*
X8751D01*
X8711D02*
Y9077D01*
X8751D01*
X8731Y9107D02*
X8711D01*
X8771Y9137D02*
Y9077D01*
X8811D01*
X8831D02*
Y9137D01*
Y9077D02*
X8871D01*
X9351Y9177D02*
X9391D01*
X9351D02*
X9391Y9217D01*
Y9227D01*
X9381Y9237D01*
X9361D01*
X9351Y9227D01*
X9411D02*
X9421Y9237D01*
X9441D01*
X9451Y9227D01*
Y9187D01*
X9441Y9177D01*
X9421D01*
X9411Y9187D01*
Y9227D01*
X9471D02*
X9481Y9237D01*
X9501D01*
X9511Y9227D01*
Y9187D01*
X9501Y9177D01*
X9481D01*
X9471Y9187D01*
Y9227D01*
X9531Y9207D02*
X9571D01*
X9591Y9177D02*
X9611D01*
X9601D01*
Y9237D01*
X9602D01*
X9601D02*
X9591Y9227D01*
X9641D02*
X9651Y9237D01*
X9671D01*
X9681Y9227D01*
Y9187D01*
X9671Y9177D01*
X9651D01*
X9641Y9187D01*
Y9227D01*
X9701Y9177D02*
X9721D01*
X9711D01*
Y9237D01*
X9712D01*
X9711D02*
X9701Y9227D01*
X9751Y9187D02*
X9761Y9177D01*
X9781D01*
X9791Y9187D01*
Y9227D01*
X9781Y9237D01*
X9761D01*
X9751Y9227D01*
Y9217D01*
X9761Y9207D01*
X9791D01*
X9851Y9177D02*
Y9237D01*
X9881D01*
X9891Y9227D01*
Y9207D01*
X9881Y9197D01*
X9851D01*
X9871D02*
X9891Y9177D01*
X9911Y9237D02*
X9951D01*
X9911D02*
Y9177D01*
X9951D01*
X9931Y9207D02*
X9911D01*
X9971Y9197D02*
Y9237D01*
Y9197D02*
X9991Y9177D01*
X10011Y9197D01*
Y9237D01*
X10091D02*
Y9177D01*
X10131D02*
X10091Y9237D01*
X10131D02*
Y9177D01*
X10191Y9227D02*
X10181Y9237D01*
X10161D01*
X10151Y9227D01*
Y9187D01*
X10161Y9177D01*
X10181D01*
X10191Y9187D01*
D14*
X8776Y7402D02*
X8601Y7227D01*
X9776Y8027D02*
X10426Y7377D01*
X9426Y7352D02*
X9201Y7577D01*
X8026Y8877D02*
X7926Y8977D01*
X8176D02*
Y8827D01*
Y8577D02*
Y8427D01*
X8076Y7702D02*
Y7577D01*
X8176Y7802D02*
Y7977D01*
Y8127D01*
X8076D02*
Y7977D01*
X8176Y7802D02*
X8076Y7702D01*
X8276Y8727D02*
X8176Y8827D01*
X8426Y7227D02*
X8601D01*
X8276Y8577D02*
Y8727D01*
Y8577D02*
Y8427D01*
Y8227D02*
Y8127D01*
Y8827D02*
Y8977D01*
X8326Y8777D02*
Y8277D01*
X8276Y8227D01*
X8326Y8777D02*
X8276Y8827D01*
X8876Y7577D02*
X9201D01*
X8776D02*
Y7402D01*
Y7852D02*
Y7977D01*
Y8127D01*
X8676Y7752D02*
Y7577D01*
Y7977D02*
Y8127D01*
X8776Y8427D02*
Y8577D01*
Y7852D02*
X8676Y7752D01*
X8776Y8577D02*
X8876Y8677D01*
X8976Y8827D02*
Y8977D01*
Y8677D01*
X8876Y8577D02*
Y8427D01*
Y8577D02*
X8976Y8677D01*
X9076Y8577D02*
Y8527D01*
X9026Y8477D02*
Y7902D01*
Y8477D02*
X9076Y8527D01*
X9376Y8627D02*
Y8777D01*
Y8627D02*
Y8427D01*
X9276Y8277D02*
Y8127D01*
X9226Y8327D02*
Y8502D01*
X9276Y8552D02*
Y9077D01*
X9476Y8877D02*
X9376Y8777D01*
X9276Y8552D02*
X9226Y8502D01*
Y8327D02*
X9276Y8277D01*
X9476Y8127D02*
Y7927D01*
X9426Y7352D02*
Y7227D01*
X9476Y8877D02*
Y9027D01*
Y8427D02*
Y8277D01*
Y8427D02*
Y8627D01*
X9776Y8952D02*
Y8027D01*
X10576Y8302D02*
Y8427D01*
X10426Y7377D02*
Y7227D01*
X10651Y8227D02*
X10576Y8302D01*
X10651Y8227D02*
Y7827D01*
X10726Y7752D02*
Y7577D01*
Y7977D02*
Y8127D01*
Y8427D02*
Y8577D01*
Y8927D02*
Y8977D01*
X10651Y7827D02*
X10726Y7752D01*
X10826Y8827D02*
X10726Y8927D01*
X10826D02*
X10926Y8827D01*
X11126Y8427D02*
Y8277D01*
X11026Y8427D02*
Y8577D01*
Y8427D02*
Y8127D01*
Y8577D02*
X11126Y8677D01*
X11676Y9277D02*
X7676D01*
Y6527D02*
X11676D01*
Y9277D01*
X7676D02*
Y6527D01*
D18*
X10101Y9027D02*
X10126Y9052D01*
X8001Y8202D02*
X7926Y8127D01*
X10376Y6602D02*
X10551Y6777D01*
X10360Y8127D02*
X10410Y8177D01*
X10501Y8027D02*
X10576Y8102D01*
X10876Y8977D02*
X10801Y9052D01*
X8576Y8502D02*
X8501Y8577D01*
X8001Y8502D02*
X7926Y8577D01*
X10176Y6627D02*
X10201Y6602D01*
X10551Y7474D02*
X10098Y7927D01*
X10501Y7652D02*
X10576Y7577D01*
X10376Y6602D02*
X10201D01*
X8001Y8202D02*
Y8502D01*
X8576D02*
Y8427D01*
X10276Y8127D02*
X10360D01*
X9942Y8327D02*
X9926D01*
X8501Y8577D02*
X8376D01*
X9942Y8527D02*
Y8327D01*
X10101Y8527D02*
Y9027D01*
X10098Y8527D02*
Y7927D01*
X10176Y6727D02*
Y6627D01*
X10126Y9052D02*
X10801D01*
X10551Y7474D02*
Y6777D01*
X10410Y8177D02*
Y8527D01*
X10576Y8127D02*
Y8102D01*
X10501Y8027D02*
Y7652D01*
X10926Y8127D02*
Y8427D01*
D20*
X10876Y8977D02*
D03*
X10826Y8927D02*
D03*
X10926D02*
D03*
X10876Y8777D02*
D03*
X10926Y8827D02*
D03*
X10826D02*
D03*
X8026Y8777D02*
D03*
X8076Y8827D02*
D03*
X8026Y8877D02*
D03*
D25*
X11126Y8277D02*
D03*
X9776Y8952D02*
D03*
X9476Y8277D02*
D03*
Y7927D02*
D03*
X9276Y9077D02*
D03*
X9026Y7902D02*
D03*
X8976Y8827D02*
D03*
X11426Y8977D02*
D03*
Y8577D02*
D03*
X11526Y8427D02*
D03*
Y8127D02*
D03*
X11026Y8977D02*
D03*
Y8577D02*
D03*
X11126Y8677D02*
D03*
Y8877D02*
D03*
X11326Y8977D02*
D03*
Y8577D02*
D03*
X10576Y7977D02*
D03*
Y7577D02*
D03*
X11026Y8127D02*
D03*
X10926D02*
D03*
X10726Y8427D02*
D03*
X10826D02*
D03*
X10926D02*
D03*
X11026D02*
D03*
X11126D02*
D03*
X11226D02*
D03*
X11326D02*
D03*
X11426D02*
D03*
Y8127D02*
D03*
X11326D02*
D03*
X11226D02*
D03*
X11126D02*
D03*
X10826D02*
D03*
X10726Y8577D02*
D03*
Y8977D02*
D03*
Y7977D02*
D03*
Y7577D02*
D03*
X9926Y8027D02*
D03*
Y8327D02*
D03*
X10276Y8427D02*
D03*
Y8127D02*
D03*
X10576D02*
D03*
Y8427D02*
D03*
X8776Y8977D02*
D03*
Y8577D02*
D03*
X8276Y8977D02*
D03*
Y8577D02*
D03*
X8476Y8427D02*
D03*
Y8127D02*
D03*
X9076Y8427D02*
D03*
Y8127D02*
D03*
X8376Y8577D02*
D03*
Y8977D02*
D03*
X8976Y8577D02*
D03*
Y8977D02*
D03*
X8876Y8577D02*
D03*
Y8677D02*
D03*
X8776Y8127D02*
D03*
X8676Y8427D02*
D03*
X8776D02*
D03*
X8876D02*
D03*
X8976D02*
D03*
Y8127D02*
D03*
X8876D02*
D03*
X8576D02*
D03*
Y8427D02*
D03*
X8776Y7577D02*
D03*
Y7977D02*
D03*
X8676Y7577D02*
D03*
Y7977D02*
D03*
X8876Y7577D02*
D03*
Y7977D02*
D03*
X9076Y8577D02*
D03*
Y8977D02*
D03*
X9176Y8127D02*
D03*
Y8427D02*
D03*
X9376Y8127D02*
D03*
X9276Y8427D02*
D03*
X9376D02*
D03*
X9476D02*
D03*
X9576D02*
D03*
Y8127D02*
D03*
X9476D02*
D03*
X9676Y8427D02*
D03*
Y8127D02*
D03*
X9376Y8627D02*
D03*
Y9027D02*
D03*
X9476Y8627D02*
D03*
Y9027D02*
D03*
X7926Y8977D02*
D03*
Y8577D02*
D03*
X8176Y8977D02*
D03*
Y8577D02*
D03*
X7826D02*
D03*
Y8977D02*
D03*
X8176Y8127D02*
D03*
X8076Y8427D02*
D03*
X8176D02*
D03*
X8276D02*
D03*
X8376D02*
D03*
Y8127D02*
D03*
X8276D02*
D03*
X7926D02*
D03*
Y8427D02*
D03*
X8076Y7577D02*
D03*
Y7977D02*
D03*
X8176D02*
D03*
Y7577D02*
D03*
D33*
X10176Y7327D02*
D03*
X10326Y6827D02*
D03*
X10026D02*
D03*
X11176Y7327D02*
D03*
X11326Y6827D02*
D03*
X11026D02*
D03*
X9176Y7327D02*
D03*
X9326Y6827D02*
D03*
X9026D02*
D03*
X8176Y7327D02*
D03*
X8326Y6827D02*
D03*
X8026D02*
D03*
D34*
X10254Y8527D02*
D03*
X9942D02*
D03*
X10410D02*
D03*
X10098D02*
D03*
D37*
X10176Y6727D02*
D03*
X10326Y7027D02*
D03*
X10426Y7227D02*
D03*
X11176Y6727D02*
D03*
X11326Y7027D02*
D03*
X11426Y7227D02*
D03*
X9176Y6727D02*
D03*
X9326Y7027D02*
D03*
X9426Y7227D02*
D03*
X8176Y6727D02*
D03*
X8326Y7027D02*
D03*
X8426Y7227D02*
D03*
D39*
X10726Y8127D02*
D03*
X8676D02*
D03*
X9276D02*
D03*
X8076D02*
D03*
M02*
