*%FSLAX23Y23*%
*%MOIN*%
G01*
%ADD11C,0.007*%
%ADD12C,0.008*%
%ADD13C,0.010*%
%ADD14C,0.012*%
%ADD15C,0.020*%
%ADD16C,0.032*%
%ADD17C,0.036*%
%ADD18C,0.050*%
%ADD19C,0.052*%
%ADD20C,0.055*%
%ADD21C,0.056*%
%ADD22C,0.059*%
%ADD23C,0.060*%
%ADD24C,0.061*%
%ADD25C,0.062*%
%ADD26C,0.068*%
%ADD27C,0.070*%
%ADD28C,0.080*%
%ADD29C,0.090*%
%ADD30C,0.095*%
%ADD31C,0.115*%
%ADD32C,0.120*%
%ADD33C,0.125*%
%ADD34C,0.126*%
%ADD35C,0.131*%
%ADD36C,0.150*%
%ADD37C,0.156*%
%ADD38R,0.062X0.062*%
%ADD39R,0.068X0.068*%
D13*
X10032Y9439D02*
X10099D01*
X10032Y9506D01*
Y9522D01*
X10049Y9539D01*
X10082D01*
X10099Y9522D01*
X9999D02*
X9982Y9539D01*
X9949D01*
X9932Y9522D01*
Y9456D01*
X9949Y9439D01*
X9982D01*
X9999Y9456D01*
Y9522D01*
X9899D02*
X9882Y9539D01*
X9849D01*
X9832Y9522D01*
Y9456D01*
X9849Y9439D01*
X9882D01*
X9899Y9456D01*
Y9522D01*
X9799Y9489D02*
X9732D01*
X9699Y9439D02*
X9666D01*
X9682D01*
Y9539D01*
X9683D01*
X9682D02*
X9699Y9522D01*
X9616D02*
X9599Y9539D01*
X9566D01*
X9549Y9522D01*
Y9456D01*
X9566Y9439D01*
X9599D01*
X9616Y9456D01*
Y9522D01*
X9516D02*
X9499Y9539D01*
X9466D01*
X9449Y9522D01*
Y9456D01*
X9466Y9439D01*
X9499D01*
X9516Y9456D01*
Y9522D01*
X9416Y9539D02*
X9349D01*
Y9522D01*
X9416Y9456D01*
Y9439D01*
X9316Y9489D02*
X9249D01*
X9216Y9522D02*
X9199Y9539D01*
X9166D01*
X9149Y9522D01*
Y9456D01*
X9166Y9439D01*
X9199D01*
X9216Y9456D01*
Y9522D01*
X9116Y9439D02*
X9083D01*
X9099D01*
Y9539D01*
X9100D01*
X9099D02*
X9116Y9522D01*
X8933Y9539D02*
Y9439D01*
Y9539D02*
X8883D01*
X8866Y9522D01*
Y9489D01*
X8883Y9472D01*
X8933D01*
X8899D02*
X8866Y9439D01*
X8833Y9539D02*
X8766D01*
X8833D02*
Y9439D01*
X8766D01*
X8799Y9489D02*
X8833D01*
X8733Y9472D02*
Y9539D01*
Y9472D02*
X8699Y9439D01*
X8666Y9472D01*
Y9539D01*
X8533Y9506D02*
Y9439D01*
Y9506D02*
X8500Y9539D01*
X8466Y9506D01*
Y9439D01*
Y9489D01*
X8533D01*
X8283Y9539D02*
X8266Y9522D01*
X8283Y9539D02*
X8316D01*
X8333Y9522D01*
Y9456D01*
X8316Y9439D01*
X8283D01*
X8266Y9456D01*
X8233Y9539D02*
X8200D01*
X8216D01*
Y9439D01*
X8233D01*
X8200D01*
X8150D02*
Y9539D01*
X8100D01*
X8083Y9522D01*
Y9489D01*
X8100Y9472D01*
X8150D01*
X8116D02*
X8083Y9439D01*
X7983Y9522D02*
X8000Y9539D01*
X8033D01*
X8050Y9522D01*
Y9456D01*
X8033Y9439D01*
X8000D01*
X7983Y9456D01*
X7950D02*
Y9539D01*
Y9456D02*
X7933Y9439D01*
X7900D01*
X7883Y9456D01*
Y9539D01*
X7850D02*
X7816D01*
X7833D01*
Y9439D01*
X7850D01*
X7816D01*
X7766Y9539D02*
X7700D01*
X7733D01*
Y9439D01*
X7517Y9539D02*
X7500Y9522D01*
X7517Y9539D02*
X7550D01*
X7566Y9522D01*
Y9506D01*
X7550Y9489D01*
X7517D01*
X7500Y9472D01*
Y9456D01*
X7517Y9439D01*
X7550D01*
X7566Y9456D01*
X7467Y9539D02*
X7433D01*
X7450D01*
Y9439D01*
X7467D01*
X7433D01*
X7383D02*
Y9539D01*
Y9439D02*
X7333D01*
X7317Y9456D01*
Y9522D01*
X7333Y9539D01*
X7383D01*
X7283D02*
X7217D01*
X7283D02*
Y9439D01*
X7217D01*
X7250Y9489D02*
X7283D01*
X3842Y8751D02*
X3834Y8759D01*
Y8776D01*
X3842Y8784D01*
X3876D01*
X3884Y8776D01*
Y8759D01*
X3876Y8751D01*
X3884Y8726D02*
Y8709D01*
X3876Y8701D01*
X3859D01*
X3851Y8709D01*
Y8726D01*
X3859Y8734D01*
X3876D01*
X3884Y8726D01*
X3901Y8684D02*
X3851D01*
Y8659D01*
X3859Y8651D01*
X3876D01*
X3884Y8659D01*
Y8684D01*
X3876Y8634D02*
X3851D01*
X3876D02*
X3884Y8626D01*
Y8601D01*
X3892D01*
X3901Y8609D01*
Y8617D01*
X3884Y8601D02*
X3851D01*
Y8584D02*
X3884D01*
X3867D01*
X3859Y8576D01*
X3851Y8567D01*
Y8559D01*
X3884Y8534D02*
Y8517D01*
Y8526D01*
X3851D01*
Y8534D01*
X3834Y8526D02*
X3835D01*
X3901Y8476D02*
Y8467D01*
X3892Y8459D01*
X3851D01*
Y8484D01*
X3859Y8492D01*
X3876D01*
X3884Y8484D01*
Y8459D01*
Y8442D02*
X3834D01*
X3859D02*
X3884D01*
X3859D02*
X3851Y8434D01*
Y8417D01*
X3859Y8409D01*
X3884D01*
X3851Y8384D02*
X3842D01*
X3851D02*
Y8392D01*
Y8376D01*
Y8384D01*
X3876D01*
X3884Y8376D01*
X3867Y8301D02*
X3884Y8284D01*
X3867Y8301D02*
X3851D01*
X3834Y8284D01*
X3851Y8251D02*
Y8226D01*
Y8251D02*
X3859Y8259D01*
X3876D01*
X3884Y8251D01*
Y8226D01*
Y8209D02*
X3867Y8193D01*
X3851D01*
X3834Y8209D01*
X3884Y8118D02*
Y8084D01*
Y8118D02*
X3851Y8084D01*
X3842D01*
X3834Y8093D01*
Y8109D01*
X3842Y8118D01*
Y8068D02*
X3834Y8059D01*
Y8043D01*
X3842Y8034D01*
X3876D01*
X3884Y8043D01*
Y8059D01*
X3876Y8068D01*
X3842D01*
Y8018D02*
X3834Y8009D01*
Y7993D01*
X3842Y7984D01*
X3876D01*
X3884Y7993D01*
Y8009D01*
X3876Y8018D01*
X3842D01*
X3884Y7968D02*
Y7934D01*
Y7968D02*
X3851Y7934D01*
X3842D01*
X3834Y7943D01*
Y7959D01*
X3842Y7968D01*
X3834Y7868D02*
X3884D01*
Y7843D01*
X3876Y7834D01*
X3867D01*
X3859D01*
X3851Y7843D01*
Y7868D01*
Y7818D02*
X3876D01*
X3884Y7809D01*
Y7784D01*
X3892D01*
X3901Y7793D01*
Y7801D01*
X3884Y7784D02*
X3851D01*
X3834Y7701D02*
Y7684D01*
Y7693D02*
Y7701D01*
Y7693D02*
X3876D01*
X3884Y7701D01*
Y7709D01*
X3876Y7718D01*
X3884Y7668D02*
Y7651D01*
Y7659D01*
X3851D01*
Y7668D01*
X3834Y7659D02*
X3835D01*
X3851Y7626D02*
X3884D01*
X3851D02*
Y7618D01*
X3859Y7609D01*
X3884D01*
X3859D01*
X3851Y7601D01*
X3859Y7593D01*
X3884D01*
Y7526D02*
X3834D01*
Y7501D01*
X3842Y7493D01*
X3859D01*
X3867Y7501D01*
Y7526D01*
X3851Y7468D02*
Y7451D01*
X3859Y7443D01*
X3884D01*
Y7468D01*
X3876Y7476D01*
X3867Y7468D01*
Y7443D01*
X3851Y7418D02*
X3842D01*
X3851D02*
Y7426D01*
Y7409D01*
Y7418D01*
X3876D01*
X3884Y7409D01*
X3851Y7376D02*
Y7351D01*
Y7376D02*
X3859Y7384D01*
X3876D01*
X3884Y7376D01*
Y7351D01*
Y7334D02*
X3834D01*
X3859D02*
X3884D01*
X3859D02*
X3851Y7326D01*
Y7309D01*
X3859Y7301D01*
X3884D01*
Y7276D02*
Y7259D01*
Y7276D02*
X3876Y7284D01*
X3859D01*
X3851Y7276D01*
Y7259D01*
X3859Y7251D01*
X3867D01*
Y7284D01*
X3884Y7235D02*
Y7218D01*
Y7226D01*
X3834D01*
Y7235D01*
X3884Y7193D02*
Y7176D01*
Y7185D01*
X3834D01*
Y7193D01*
X4024Y7114D02*
Y7074D01*
Y7114D02*
X3984Y7074D01*
X3974D01*
X3964Y7084D01*
Y7104D01*
X3974Y7114D01*
Y7054D02*
X3964Y7044D01*
Y7024D01*
X3974Y7014D01*
X4014D01*
X4024Y7024D01*
Y7044D01*
X4014Y7054D01*
X3974D01*
Y6994D02*
X3964Y6984D01*
Y6964D01*
X3974Y6954D01*
X4014D01*
X4024Y6964D01*
Y6984D01*
X4014Y6994D01*
X3974D01*
X3994Y6934D02*
Y6894D01*
X4024Y6874D02*
Y6854D01*
Y6864D01*
X3964D01*
X3965D01*
X3964D02*
X3974Y6874D01*
Y6824D02*
X3964Y6814D01*
Y6794D01*
X3974Y6784D01*
X4014D01*
X4024Y6794D01*
Y6814D01*
X4014Y6824D01*
X3974D01*
Y6764D02*
X3964Y6754D01*
Y6734D01*
X3974Y6724D01*
X4014D01*
X4024Y6734D01*
Y6754D01*
X4014Y6764D01*
X3974D01*
X3964Y6704D02*
Y6664D01*
X3974D01*
X4014Y6704D01*
X4024D01*
X3924Y7039D02*
X3864D01*
Y7009D01*
X3874Y6999D01*
X3894D01*
X3904Y7009D01*
Y7039D01*
Y7019D02*
X3924Y6999D01*
X3864Y6979D02*
Y6939D01*
Y6979D02*
X3924D01*
Y6939D01*
X3894Y6959D02*
Y6979D01*
X3904Y6919D02*
X3864D01*
X3904D02*
X3924Y6899D01*
X3904Y6879D01*
X3864D01*
X3884Y6799D02*
X3924D01*
X3884D02*
X3864Y6779D01*
X3884Y6759D01*
X3924D01*
X3894D01*
Y6799D01*
X15774Y6589D02*
Y9339D01*
X3774D02*
Y6589D01*
X15774D01*
Y9339D02*
X3774D01*
D14*
X6574Y8514D02*
X6749Y8689D01*
X12524D02*
X12724Y8889D01*
X14674Y8189D02*
X14924Y8439D01*
X14824Y8414D02*
X14574Y8164D01*
X9824Y9189D02*
X9624Y8989D01*
X6574Y8039D02*
X6424Y7889D01*
X5524Y8989D02*
X5649Y9114D01*
X8274Y8739D02*
X8424Y8889D01*
X8274Y8389D02*
X8124Y8239D01*
X5749Y8039D02*
X5424Y7714D01*
X13299Y8864D02*
X13424Y8989D01*
X4274Y8489D02*
X4049Y8714D01*
X3924D02*
X4174Y8464D01*
X6374Y8989D02*
X6574Y8789D01*
X4324Y8189D02*
X4174Y8339D01*
X4924Y8989D02*
X5124Y8789D01*
X5299Y8989D02*
X5074Y9214D01*
X8224Y7589D02*
X8524Y7289D01*
X4374Y8189D02*
X4224Y8339D01*
X10224Y7689D02*
X10524Y7389D01*
X13924Y7414D02*
X14249Y7089D01*
X10624Y7489D02*
X10374Y7739D01*
X14849Y8639D02*
X14974Y8514D01*
X6874Y8189D02*
X6724Y8339D01*
X7199Y7839D02*
X7324Y7714D01*
X12774Y7864D02*
X12924Y7714D01*
X12524Y7489D02*
X12724Y7289D01*
X6749Y9064D02*
X6624Y9239D01*
X7224Y8589D02*
X7124Y8439D01*
X14474Y7689D02*
X14574Y7839D01*
X15199Y6714D02*
X15449D01*
X3924Y8714D02*
Y8914D01*
X3949Y8939D01*
X4049Y8839D02*
Y8714D01*
X4124Y8139D02*
Y7639D01*
X4049Y8839D02*
X3999Y8889D01*
X4174Y8439D02*
Y8339D01*
Y8439D02*
Y8464D01*
X4324Y8189D02*
Y8139D01*
X4274Y8364D02*
Y8489D01*
X4224Y8439D02*
Y8339D01*
X4324Y8139D02*
Y7989D01*
X4199Y8889D02*
X4149Y8939D01*
X4299Y8889D02*
X4349Y8839D01*
X4274Y8364D02*
X4374Y8264D01*
X12724Y7289D02*
X13524D01*
X4349Y8514D02*
Y8839D01*
X4374Y8189D02*
Y7689D01*
X4424Y7989D02*
Y8064D01*
X4474Y8114D02*
Y8214D01*
X4424Y8264D02*
Y8439D01*
X4474Y8114D02*
X4424Y8064D01*
Y8439D02*
X4349Y8514D01*
X4424Y8264D02*
X4474Y8214D01*
X9074Y7539D02*
X9424D01*
X14499D02*
X14574D01*
X6874Y7514D02*
X6799D01*
X4674Y8364D02*
Y8964D01*
X4724Y8314D02*
Y8139D01*
Y7189D01*
Y8439D02*
Y8564D01*
X4799Y8639D01*
X4674Y8364D02*
X4724Y8314D01*
X6549Y7639D02*
X6574D01*
X4924Y8139D02*
Y8289D01*
Y8989D02*
Y9039D01*
Y8139D02*
Y7989D01*
X4774Y7864D02*
Y8239D01*
X4824Y8289D02*
Y8439D01*
X4924Y9039D02*
X5024Y9139D01*
X4824Y8289D02*
X4774Y8239D01*
X10474Y7839D02*
X10574D01*
X7199D02*
X7049D01*
X5024Y8439D02*
Y8514D01*
Y9139D02*
Y9164D01*
X4974Y8739D02*
Y8564D01*
X5024Y8039D02*
Y7989D01*
X4974Y8089D02*
Y8214D01*
X5024Y8264D02*
Y8439D01*
Y8264D02*
X4974Y8214D01*
X5024Y8514D02*
X4974Y8564D01*
Y8089D02*
X5024Y8039D01*
X7374Y8089D02*
X7574D01*
X5824Y8039D02*
X5749D01*
X12399Y8064D02*
X12449D01*
X5124Y8939D02*
Y9039D01*
X5224Y8839D02*
Y8689D01*
X5124Y8639D02*
Y8789D01*
X5224Y8839D02*
X5124Y8939D01*
X5424Y8789D02*
Y8439D01*
X5324Y8139D02*
Y7789D01*
X5424Y7714D02*
Y7589D01*
X11249Y8339D02*
X11649D01*
X5624Y8439D02*
Y8589D01*
X5524Y8139D02*
Y7989D01*
X5649Y9114D02*
Y9164D01*
X5724Y9239D01*
X6374Y8589D02*
X6399D01*
X6749Y8689D02*
X6799D01*
X6949D02*
X7024D01*
X5924Y8589D02*
X5874D01*
X4924Y8639D02*
X4799D01*
X5824Y8814D02*
Y8889D01*
X5774Y8764D02*
Y8689D01*
X5724Y8739D02*
Y8789D01*
X5774Y8839D02*
Y9189D01*
X5874Y8464D02*
Y8089D01*
X5799Y8789D02*
X5824Y8814D01*
X5799Y8789D02*
X5774Y8764D01*
Y9189D02*
X5799Y9214D01*
X5774Y8839D02*
X5724Y8789D01*
X5874Y8089D02*
X5824Y8039D01*
X5874Y8464D02*
X5974Y8564D01*
X5924Y9039D02*
X5824Y9139D01*
X5774Y8689D02*
X5874Y8589D01*
X5824Y8739D02*
X5924D01*
X6024Y8589D02*
Y8439D01*
X5924Y8139D02*
Y7989D01*
X6024D02*
Y8139D01*
X5924Y8989D02*
Y9039D01*
X6024Y8989D02*
Y9139D01*
X5974Y8689D02*
Y8564D01*
X5924Y8739D02*
Y8989D01*
X6024Y9139D02*
X5949Y9214D01*
X5924Y8739D02*
X5974Y8689D01*
X4149Y8939D02*
X3949D01*
X8724Y9064D02*
X9024D01*
X6799D02*
X6749D01*
X7524Y8939D02*
X7574D01*
X5324Y8989D02*
X5299D01*
X14074Y9039D02*
X14349D01*
X12824D02*
X12674D01*
X6124Y8589D02*
Y8439D01*
X6174Y8264D02*
Y7814D01*
X6124Y7764D02*
Y7589D01*
X6174Y8539D02*
Y8689D01*
X6224Y8439D02*
Y8314D01*
Y8439D02*
Y8489D01*
X6174Y7814D02*
X6124Y7764D01*
X6174Y8264D02*
X6224Y8314D01*
Y8489D02*
X6174Y8539D01*
X6799Y9189D02*
X6899D01*
X6949Y9239D02*
X7099D01*
X7174Y9164D02*
X8524D01*
X6624Y9239D02*
X5724D01*
X5799Y9214D02*
X5949D01*
X6449Y7864D02*
Y7789D01*
X6324Y7814D02*
Y7889D01*
X6424Y7789D02*
Y7714D01*
X6374Y7664D02*
Y7764D01*
X6399Y8589D02*
X6499Y8689D01*
X6449Y7789D02*
X6499Y7739D01*
X6449Y7864D02*
X6424Y7889D01*
X6374Y7839D02*
X6424Y7789D01*
X6374Y7764D02*
X6324Y7814D01*
X6574Y8639D02*
Y8789D01*
X6499Y9089D02*
Y9189D01*
X6574Y8514D02*
Y8039D01*
X6499Y7739D02*
Y7689D01*
X6624Y7814D02*
Y8139D01*
Y8289D01*
X6599Y8989D02*
X6499Y9089D01*
X6624Y7814D02*
X6724Y7714D01*
X6549Y7639D02*
X6499Y7689D01*
X6799Y8689D02*
Y9064D01*
X6874Y8614D02*
Y8339D01*
X6824Y7739D02*
Y7589D01*
X6724D02*
Y7714D01*
X6874Y8014D02*
Y8189D01*
X6724Y8339D02*
Y8439D01*
X6874Y8614D02*
X6949Y8689D01*
X6924Y7564D02*
X6874Y7514D01*
X6824Y7739D02*
X6924Y7839D01*
X6724Y7589D02*
X6799Y7514D01*
X6924Y7964D02*
X6874Y8014D01*
X6974Y8239D02*
X6874Y8339D01*
X7024Y9089D02*
Y9189D01*
X6924Y7739D02*
Y7564D01*
Y7839D02*
Y7964D01*
X6974Y7914D02*
Y8239D01*
X7074Y7939D02*
Y8564D01*
X6899Y9189D02*
X6949Y9239D01*
X7124Y8614D02*
X7074Y8564D01*
X7124Y8989D02*
X7024Y9089D01*
X6974Y7914D02*
X7049Y7839D01*
X7124Y8614D02*
Y8989D01*
X7224Y8139D02*
Y7989D01*
Y8439D02*
X7324Y8539D01*
X7174Y9164D02*
X7099Y9239D01*
X7324Y8589D02*
Y8539D01*
X7374Y8789D02*
Y8239D01*
X7424Y8289D02*
Y8439D01*
Y8189D02*
Y8139D01*
X7324Y8839D02*
Y8989D01*
X7424Y8839D02*
Y8589D01*
X7324Y7714D02*
Y7589D01*
X7424Y8839D02*
X7524Y8939D01*
X7374Y8239D02*
X7424Y8189D01*
X7374Y8789D02*
X7324Y8839D01*
Y8139D02*
X7374Y8089D01*
X7624Y8139D02*
Y7989D01*
Y8314D02*
Y8439D01*
X7524Y7839D02*
Y7289D01*
X7574Y8089D02*
X7624Y8139D01*
X7674Y8264D02*
X7624Y8314D01*
X7774Y8539D02*
Y8689D01*
X7724Y8589D02*
Y8439D01*
Y8139D02*
Y7989D01*
X7824Y8439D02*
Y8489D01*
X7674Y8264D02*
Y7814D01*
X7724Y7764D02*
Y7589D01*
X7824Y8489D02*
X7774Y8539D01*
X7674Y7814D02*
X7724Y7764D01*
X7924Y8039D02*
Y7464D01*
X7874Y8089D02*
Y8489D01*
X7924Y8539D02*
Y8589D01*
Y8539D02*
X7874Y8489D01*
Y8089D02*
X7924Y8039D01*
X8224Y7989D02*
Y8139D01*
Y7989D02*
Y7789D01*
X8124Y7689D02*
Y7589D01*
X8224Y8439D02*
Y8589D01*
X8124Y8139D02*
Y7989D01*
Y8139D02*
Y8239D01*
X8224Y7789D02*
X8124Y7689D01*
X8424Y8439D02*
Y8589D01*
X8324D02*
Y8439D01*
X8274Y8389D02*
Y8739D01*
X8424Y8889D02*
Y8989D01*
X8624Y8964D02*
X8724Y9064D01*
X8824Y8589D02*
Y8439D01*
Y7814D02*
Y7589D01*
Y7989D02*
Y8139D01*
X8724D02*
Y7989D01*
X8824Y8589D02*
Y8914D01*
X8774Y8714D02*
Y7389D01*
X8724Y8764D02*
Y8989D01*
X8874Y7864D02*
X8824Y7814D01*
X8874Y8939D02*
X8824Y8989D01*
X8724Y8764D02*
X8774Y8714D01*
X8874Y8839D02*
Y8939D01*
X8924Y8589D02*
Y8439D01*
Y8589D02*
Y8789D01*
X8974Y8839D02*
Y8414D01*
X8874Y8314D02*
Y7864D01*
X8924Y8889D02*
Y8989D01*
X9024D02*
Y8664D01*
X8974Y8414D02*
X8874Y8314D01*
X9074Y9014D02*
X9024Y9064D01*
X8874Y8839D02*
X8924Y8789D01*
X8974Y8839D02*
X8924Y8889D01*
X9024Y7589D02*
X9074Y7539D01*
X9124Y7589D02*
Y7789D01*
X9074Y7839D02*
Y9014D01*
X9224Y8889D02*
Y8689D01*
X9074Y7839D02*
X9124Y7789D01*
X9224Y8889D02*
X9124Y8989D01*
X9224Y9189D02*
X9324Y9089D01*
Y8989D01*
X9424D02*
Y8864D01*
Y8589D02*
Y8439D01*
Y8339D01*
Y8139D02*
Y7739D01*
X9474Y7589D02*
X9424Y7539D01*
X9474Y8814D02*
X9424Y8864D01*
Y8339D02*
X9474Y8289D01*
Y7589D01*
X9524Y8889D02*
Y8989D01*
Y8489D02*
Y8439D01*
Y8139D02*
Y7739D01*
Y7514D02*
Y7289D01*
X9574Y7414D02*
Y8239D01*
X9474Y8339D02*
Y8814D01*
X9624Y8589D02*
X9524Y8489D01*
X9624Y8789D02*
X9524Y8889D01*
X9474Y8339D02*
X9574Y8239D01*
X9624Y8589D02*
Y8789D01*
X9974Y8214D02*
Y7939D01*
X9824Y8689D02*
Y8764D01*
X9924Y8864D02*
Y8989D01*
X10024Y8264D02*
X9974Y8214D01*
Y7939D02*
X9924Y7889D01*
X9824Y8764D02*
X9924Y8864D01*
X10024Y8139D02*
Y7989D01*
X10124D02*
Y8139D01*
X10024Y8264D02*
Y8439D01*
Y8589D01*
X10124Y7989D02*
X10224Y7889D01*
X10374Y7839D02*
Y7739D01*
Y7839D02*
X10424Y7889D01*
X10474Y8014D02*
Y8189D01*
X10574Y8289D02*
Y8489D01*
X10524Y7389D02*
Y7289D01*
X10424Y7889D02*
Y7964D01*
X10574Y7839D02*
X10624Y7889D01*
X10474Y8014D02*
X10424Y7964D01*
X10474Y8189D02*
X10574Y8289D01*
Y8489D02*
X10624Y8539D01*
Y7989D02*
Y7889D01*
Y7989D02*
Y8139D01*
Y8539D02*
Y8589D01*
Y8739D02*
Y8989D01*
X10774Y8264D02*
Y7539D01*
X10724Y8439D02*
Y8639D01*
Y8439D02*
Y8314D01*
Y8639D02*
X10624Y8739D01*
X10724Y8314D02*
X10774Y8264D01*
X11074Y7939D02*
Y7764D01*
X11124Y7714D02*
Y7689D01*
Y7989D02*
Y8139D01*
X11224Y7989D02*
X11124Y7889D01*
X11074Y7939D02*
X11124Y7989D01*
X11074Y7764D02*
X11124Y7714D01*
X11224Y7589D02*
Y7864D01*
X11274Y7914D02*
Y8289D01*
X11324Y8439D02*
Y8614D01*
X11224Y8139D02*
Y7989D01*
Y8139D02*
Y8314D01*
Y8439D02*
Y8614D01*
Y9039D01*
X11424Y7689D02*
X11324Y7589D01*
X11224Y7864D02*
X11274Y7914D01*
X11224Y8314D02*
X11249Y8339D01*
X11674Y8839D02*
Y9189D01*
X11724Y8489D02*
Y8289D01*
X11774Y8539D02*
Y8739D01*
Y8139D02*
Y7989D01*
X11674Y8364D02*
Y8439D01*
Y8139D02*
Y7964D01*
X11724Y8489D02*
X11774Y8539D01*
X11674Y8364D02*
X11649Y8339D01*
X11774Y8739D02*
X11674Y8839D01*
X11874Y8439D02*
Y8139D01*
Y7989D01*
X12074Y8439D02*
Y8589D01*
X11974Y8439D02*
Y8139D01*
Y7739D01*
X12274Y8439D02*
Y8589D01*
X12324Y7689D02*
Y7589D01*
X12274Y8139D02*
Y8289D01*
X12424Y7789D02*
X12324Y7689D01*
Y7989D02*
X12399Y8064D01*
X12424Y7989D02*
Y7789D01*
X12524Y7414D02*
Y7289D01*
X12424Y7514D02*
Y7589D01*
X12474Y8614D02*
Y9089D01*
Y8614D02*
Y8314D01*
X12524Y8264D02*
Y8139D01*
Y7589D02*
Y7489D01*
X12449Y8064D02*
X12524Y8139D01*
X12624Y8589D02*
X12524Y8689D01*
X12424Y7514D02*
X12524Y7414D01*
Y8264D02*
X12474Y8314D01*
X12724Y8889D02*
Y8989D01*
X12624Y8589D02*
Y8439D01*
Y8139D02*
Y7989D01*
X12724Y8439D02*
Y8589D01*
Y8439D02*
Y8289D01*
X12624Y7589D02*
Y7464D01*
Y8989D02*
X12674Y9039D01*
X12874Y8989D02*
Y8339D01*
X12924Y7714D02*
Y7589D01*
X12774Y7864D02*
Y8839D01*
X12874Y8339D02*
X12974Y8239D01*
X12874Y8989D02*
X12824Y9039D01*
X12974Y8239D02*
Y7839D01*
X13124Y8064D02*
Y8139D01*
Y8789D02*
Y8889D01*
Y8689D02*
Y8439D01*
X13024Y7789D02*
Y7589D01*
X13174Y8014D02*
X13124Y8064D01*
Y8889D02*
X13024Y8989D01*
X12974Y7839D02*
X13024Y7789D01*
X13174D02*
Y7739D01*
X13274Y7639D02*
Y7589D01*
X13174Y7889D02*
Y8014D01*
Y7739D02*
X13274Y7639D01*
X13424Y8139D02*
Y8439D01*
X13524Y8139D02*
Y7889D01*
Y8439D02*
Y8589D01*
X13924Y7789D02*
Y7414D01*
X13824Y8864D02*
Y8989D01*
X13924Y8764D02*
Y8689D01*
Y8764D02*
X13824Y8864D01*
X14024Y7839D02*
Y7589D01*
X14124D02*
Y7914D01*
Y8089D02*
Y8139D01*
Y8089D02*
X14024Y7989D01*
Y8989D02*
X14074Y9039D01*
X14274Y7064D02*
Y6789D01*
X14224Y7989D02*
Y8139D01*
Y8439D02*
Y8589D01*
Y8689D02*
Y8989D01*
X14249Y7089D02*
X14274Y7064D01*
X14474Y7564D02*
Y7689D01*
Y8089D02*
Y8239D01*
X14324Y8139D02*
Y7989D01*
Y8439D02*
Y8664D01*
X14424Y8439D02*
Y8964D01*
X14574Y8339D02*
X14474Y8239D01*
Y7564D02*
X14499Y7539D01*
X14524Y8039D02*
X14474Y8089D01*
X14424Y8964D02*
X14349Y9039D01*
X14624Y8039D02*
Y7989D01*
Y7789D01*
X14674Y8089D02*
Y8189D01*
Y8014D02*
Y7939D01*
X14574Y7839D02*
Y8164D01*
X14524Y7689D02*
Y7589D01*
X14674Y9014D02*
Y9189D01*
X14524Y8039D02*
Y7989D01*
X14574Y8339D02*
Y8914D01*
X14674Y8789D02*
Y8689D01*
Y8364D01*
Y8089D02*
X14649Y8064D01*
X14624Y8039D01*
X14674Y8014D02*
X14724Y8064D01*
X14624Y7589D02*
X14574Y7539D01*
X14674Y8789D02*
X14774Y8889D01*
X14624Y7789D02*
X14524Y7689D01*
X14574Y8914D02*
X14674Y9014D01*
Y8364D02*
X14599Y8289D01*
X14674Y7939D02*
X14724Y7889D01*
Y7589D01*
Y8064D02*
Y8139D01*
X14824Y8414D02*
Y8439D01*
X14774Y8889D02*
Y8989D01*
X14849Y9039D02*
Y8639D01*
X14824Y8139D02*
Y8089D01*
Y8139D02*
Y8264D01*
Y8089D02*
X14724Y7989D01*
X14824Y8264D02*
X14849Y8289D01*
Y9039D02*
X14774Y9114D01*
X15074Y8389D02*
Y8039D01*
X14924Y7989D02*
Y8139D01*
X14974Y7814D02*
Y8514D01*
X14924Y7764D02*
Y7589D01*
X15024Y7989D02*
X15074Y8039D01*
X14974Y7814D02*
X14924Y7764D01*
X15074Y8389D02*
X15024Y8439D01*
X15274Y7364D02*
Y6789D01*
X15174D02*
Y6739D01*
X15199Y6714D01*
X15474Y6739D02*
Y7489D01*
X15374Y7789D02*
Y6789D01*
X15449Y6714D02*
X15474Y6739D01*
X15374Y7789D02*
X15424Y7839D01*
Y7539D02*
X15474Y7489D01*
D18*
X14824Y7539D02*
X14774Y7489D01*
X11624Y8214D02*
X11599Y8189D01*
X11749Y8214D02*
X11799Y8264D01*
X15199Y8614D02*
X15374Y8789D01*
X12424Y7089D02*
X12274Y6939D01*
X13274D02*
X13424Y7089D01*
X5524Y7539D02*
X5499Y7514D01*
X7574Y8814D02*
X7649Y8889D01*
X9424Y7089D02*
X9274Y6939D01*
X8424Y7089D02*
X8274Y6939D01*
X10274D02*
X10424Y7089D01*
X11274Y6939D02*
X11424Y7089D01*
X15674Y6639D02*
X15724Y6689D01*
X5724Y9089D02*
X5624Y8989D01*
X4874Y9214D02*
X4849Y9189D01*
X9899Y8714D02*
X10024Y8839D01*
X9899Y8614D02*
X9799Y8514D01*
X9774D02*
X9724Y8464D01*
X5674Y8839D02*
X5649Y8814D01*
X5674Y8839D02*
X5724Y8889D01*
X5049Y8689D02*
X5024Y8664D01*
X6249Y7914D02*
X6324Y7989D01*
X6649Y7564D02*
X6574Y7489D01*
X15024Y7689D02*
X15274Y7939D01*
X11074Y9264D02*
X10924Y9114D01*
X8274Y6789D02*
X8199Y6714D01*
X7274Y6789D02*
X7199Y6714D01*
X6274Y6789D02*
X6199Y6714D01*
X5274Y6789D02*
X5199Y6714D01*
X12924Y8489D02*
X13024Y8589D01*
X13924Y8364D02*
X14024Y8264D01*
X13024D02*
X12924Y8364D01*
X11024Y8239D02*
X10924Y8339D01*
X14324Y7514D02*
X14349Y7489D01*
X11774Y7689D02*
X11599Y7864D01*
X11799Y8339D02*
X11774Y8364D01*
X15199Y8439D02*
X15274Y8364D01*
X15649Y8789D02*
X15724Y8714D01*
X13424Y6639D02*
X13274Y6789D01*
X12349Y9189D02*
X12274Y9264D01*
X5049Y8789D02*
X4874Y8964D01*
X4849Y8989D01*
X10324Y8314D02*
X10424Y8214D01*
X9824Y8264D02*
X9724Y8364D01*
X9224Y8239D02*
X9124Y8339D01*
X8024Y8264D02*
X7924Y8364D01*
X5824Y8239D02*
X5724Y8339D01*
X4624Y8239D02*
X4524Y8339D01*
X5649Y8714D02*
X5824Y8539D01*
X5124Y8489D02*
X5024Y8589D01*
X5124Y8339D02*
X5224Y8239D01*
X6924Y8364D02*
X7024Y8264D01*
X5274Y7514D02*
X5224Y7564D01*
X5649Y7589D02*
X5749Y7489D01*
X6574Y7739D02*
X6649Y7664D01*
X6324Y8489D02*
X6299Y8514D01*
X7274Y6789D02*
X7349Y6714D01*
X6349D02*
X6274Y6789D01*
X5349Y6714D02*
X5274Y6789D01*
X4349Y6714D02*
X4274Y6789D01*
X8524Y8339D02*
X8624Y8239D01*
X6424Y8264D02*
X6324Y8364D01*
X13299Y8589D02*
X13324Y8564D01*
X6274Y7764D02*
X6249Y7789D01*
X6299Y8889D02*
X6224Y8989D01*
X6274Y7764D02*
X6299Y7714D01*
X13424Y6639D02*
X15674D01*
X14374D02*
X13424D01*
X8199Y6714D02*
X7349D01*
X7199D02*
X6349D01*
X6199D02*
X5349D01*
X5199D02*
X4349D01*
X11424Y7089D02*
X12424D01*
X13424D01*
X9424D02*
X8424D01*
X9424D02*
X10424D01*
X11424D01*
X4524Y8339D02*
Y8439D01*
X14349Y7489D02*
X14774D01*
X6574D02*
X5749D01*
X5499Y7514D02*
X5274D01*
X4624Y8139D02*
Y8239D01*
X5524Y7589D02*
X5649D01*
X4424D02*
X4324D01*
X4924D02*
X5024D01*
X5224D01*
X6299Y7714D02*
X6324D01*
X4849Y8989D02*
Y9189D01*
X5049Y8789D02*
Y8689D01*
X5024Y8664D02*
Y8639D01*
Y8589D01*
X5124Y8489D02*
Y8439D01*
Y8414D02*
Y8339D01*
Y8414D02*
Y8439D01*
X5224Y8239D02*
Y8139D01*
Y7564D01*
Y7589D02*
Y8139D01*
Y7589D02*
Y7564D01*
X11624Y8214D02*
X11749D01*
X9799Y8514D02*
X9774D01*
X5649Y8714D02*
Y8814D01*
X5524Y7589D02*
Y7539D01*
X5724Y9089D02*
Y9139D01*
Y8439D02*
Y8339D01*
X5824Y8239D02*
Y8139D01*
Y8439D02*
Y8539D01*
X15374Y8789D02*
X15649D01*
X8024Y9064D02*
X7824D01*
X7649D01*
X7424D01*
X7224D01*
X6249Y7914D02*
Y7789D01*
X11999Y9264D02*
X12274D01*
X12349Y9189D02*
X12524D01*
X4974Y9214D02*
X4874D01*
X11074Y9264D02*
X11999D01*
X6324Y8489D02*
Y8439D01*
Y8139D02*
Y7989D01*
X6299Y8514D02*
Y8889D01*
X6424Y8264D02*
Y8139D01*
X6324Y8364D02*
Y8439D01*
X6649Y7664D02*
Y7564D01*
X6924Y8364D02*
Y8439D01*
X7024Y8264D02*
Y8139D01*
X7224Y8989D02*
Y9064D01*
X7424D02*
Y8989D01*
X7574Y8814D02*
Y8639D01*
X7649Y8889D02*
Y9064D01*
X7824D02*
Y8989D01*
X8024Y8264D02*
Y8139D01*
X7924Y8364D02*
Y8439D01*
X8024Y8989D02*
Y9064D01*
X8274Y6939D02*
Y6789D01*
X8624Y8139D02*
Y8239D01*
X8524Y8339D02*
Y8439D01*
X9124D02*
Y8339D01*
X9224Y8239D02*
Y8139D01*
X9274Y6939D02*
Y6789D01*
X9724Y8364D02*
Y8439D01*
Y8464D01*
X9824Y8264D02*
Y8139D01*
X9899Y8614D02*
Y8714D01*
X10024Y8839D02*
Y8989D01*
X10274Y6939D02*
Y6789D01*
X10324Y8314D02*
Y8439D01*
X10424Y8214D02*
Y8139D01*
X10924Y8339D02*
Y8439D01*
Y9114D01*
X11024Y8239D02*
Y8139D01*
X11274Y6939D02*
Y6789D01*
X11774Y8364D02*
Y8439D01*
Y7689D02*
Y7589D01*
X11599Y7864D02*
Y8189D01*
X11799Y8264D02*
Y8339D01*
X12274Y6939D02*
Y6789D01*
X12924Y8364D02*
Y8439D01*
Y8489D01*
X13024Y8264D02*
Y8139D01*
X13324D02*
Y8439D01*
Y8564D01*
X13274Y6939D02*
Y6789D01*
X13299Y8589D02*
Y8664D01*
X13924Y8439D02*
Y8364D01*
X14024Y8264D02*
Y8139D01*
X14324Y7589D02*
Y7514D01*
X14374Y6789D02*
Y6639D01*
X14824Y7539D02*
Y7589D01*
X15024D02*
Y7689D01*
X15199Y8439D02*
Y8589D01*
X15274Y8364D02*
Y7939D01*
X15199Y8589D02*
Y8614D01*
X15724Y8714D02*
Y8239D01*
Y6689D01*
D20*
X13124Y8689D02*
D03*
Y8789D02*
D03*
X13174Y8739D02*
D03*
Y7889D02*
D03*
Y7789D02*
D03*
X13124Y7839D02*
D03*
X10424Y7789D02*
D03*
X10474Y7839D02*
D03*
X10424Y7889D02*
D03*
X6324D02*
D03*
X6424D02*
D03*
X6374Y7839D02*
D03*
X6324Y7714D02*
D03*
X6424D02*
D03*
X6374Y7664D02*
D03*
X5724Y8889D02*
D03*
X5824D02*
D03*
X5774Y8839D02*
D03*
X5074Y9214D02*
D03*
X5024Y9164D02*
D03*
X4974Y9214D02*
D03*
X5724Y8739D02*
D03*
X5824D02*
D03*
X5774Y8689D02*
D03*
D25*
X15274Y7364D02*
D03*
X14774Y9114D02*
D03*
X14849Y8289D02*
D03*
X14574Y7839D02*
D03*
X14599Y8289D02*
D03*
X14324Y8664D02*
D03*
X14224Y8689D02*
D03*
X14024Y7839D02*
D03*
X14124Y7914D02*
D03*
X13924Y7789D02*
D03*
X13524Y7889D02*
D03*
X12774Y8839D02*
D03*
X12724Y8289D02*
D03*
X12624Y7464D02*
D03*
X12474Y9089D02*
D03*
X12274Y8289D02*
D03*
X11974Y7739D02*
D03*
X11724Y8289D02*
D03*
X11674Y7964D02*
D03*
X11224Y9039D02*
D03*
X11274Y8289D02*
D03*
X11124Y7689D02*
D03*
X10774Y7539D02*
D03*
X9524Y7739D02*
D03*
Y7514D02*
D03*
X9574Y7414D02*
D03*
X9424Y7739D02*
D03*
X9024Y8664D02*
D03*
X8824Y8914D02*
D03*
X8774Y7389D02*
D03*
X7924Y7464D02*
D03*
X7774Y8689D02*
D03*
X7524Y7839D02*
D03*
X7424Y8289D02*
D03*
X7074Y7939D02*
D03*
X6799Y9064D02*
D03*
X6574Y8639D02*
D03*
X6624Y8289D02*
D03*
X6174Y8689D02*
D03*
X5424Y8789D02*
D03*
X5324Y7789D02*
D03*
X4974Y8739D02*
D03*
X4924Y8289D02*
D03*
X4774Y7864D02*
D03*
X4674Y8964D02*
D03*
X4724Y7189D02*
D03*
X4374Y8264D02*
D03*
Y7689D02*
D03*
X4124Y7639D02*
D03*
X15424Y7739D02*
D03*
Y7639D02*
D03*
Y7539D02*
D03*
X15374Y6789D02*
D03*
X15174D02*
D03*
X15274D02*
D03*
X13824Y8989D02*
D03*
Y8589D02*
D03*
X13924Y9189D02*
D03*
Y8689D02*
D03*
X14024Y8989D02*
D03*
X14674Y9189D02*
D03*
Y8689D02*
D03*
X14774Y8989D02*
D03*
X14524Y7589D02*
D03*
Y7989D02*
D03*
X14624D02*
D03*
Y7589D02*
D03*
X14724Y7989D02*
D03*
Y7589D02*
D03*
X14824D02*
D03*
Y7989D02*
D03*
X14924Y7589D02*
D03*
Y7989D02*
D03*
X15124D02*
D03*
Y7589D02*
D03*
X15024D02*
D03*
Y7989D02*
D03*
X15124Y8139D02*
D03*
Y8439D02*
D03*
X14624D02*
D03*
Y8139D02*
D03*
X14824D02*
D03*
X14924D02*
D03*
X15024D02*
D03*
Y8439D02*
D03*
X14924D02*
D03*
X14824D02*
D03*
X14724D02*
D03*
X14024D02*
D03*
Y8139D02*
D03*
X14224D02*
D03*
X14324D02*
D03*
X14424D02*
D03*
Y8439D02*
D03*
X14324D02*
D03*
X14224D02*
D03*
X14124D02*
D03*
X13924Y8139D02*
D03*
Y8439D02*
D03*
X14224Y8589D02*
D03*
Y8989D02*
D03*
X14424Y7589D02*
D03*
Y7989D02*
D03*
X14024D02*
D03*
Y7589D02*
D03*
X14524Y8139D02*
D03*
Y8439D02*
D03*
X14124Y7589D02*
D03*
Y7989D02*
D03*
X14224Y7589D02*
D03*
Y7989D02*
D03*
X14324D02*
D03*
Y7589D02*
D03*
X14374Y6789D02*
D03*
X14174D02*
D03*
X14274D02*
D03*
X12524Y9189D02*
D03*
Y8689D02*
D03*
X12624Y8989D02*
D03*
X13024D02*
D03*
Y8589D02*
D03*
X13524Y8989D02*
D03*
Y8589D02*
D03*
X13299Y8664D02*
D03*
Y8864D02*
D03*
X12274Y8589D02*
D03*
Y8989D02*
D03*
X13024Y8439D02*
D03*
Y8139D02*
D03*
X13224D02*
D03*
X13324D02*
D03*
X13424D02*
D03*
X13524D02*
D03*
X13624D02*
D03*
X13724D02*
D03*
X13824D02*
D03*
Y8439D02*
D03*
X13724D02*
D03*
X13624D02*
D03*
X13524D02*
D03*
X13424D02*
D03*
X13324D02*
D03*
X13224D02*
D03*
X13124D02*
D03*
X12724Y8589D02*
D03*
Y8989D02*
D03*
X12924Y8139D02*
D03*
Y8439D02*
D03*
X12624Y8139D02*
D03*
X12724D02*
D03*
X12824D02*
D03*
Y8439D02*
D03*
X12724D02*
D03*
X12624D02*
D03*
X12524D02*
D03*
X12424D02*
D03*
Y8139D02*
D03*
X12324Y7589D02*
D03*
Y7989D02*
D03*
X12524Y7589D02*
D03*
Y7989D02*
D03*
X12624Y7589D02*
D03*
Y7989D02*
D03*
X12724Y7589D02*
D03*
Y7989D02*
D03*
X12824Y7589D02*
D03*
Y7989D02*
D03*
X12924D02*
D03*
Y7589D02*
D03*
X13024Y7989D02*
D03*
Y7589D02*
D03*
X12424D02*
D03*
Y7989D02*
D03*
X13274Y7589D02*
D03*
Y7989D02*
D03*
X13424Y8589D02*
D03*
Y8989D02*
D03*
X11674Y9189D02*
D03*
Y8689D02*
D03*
X11774Y8989D02*
D03*
X10624Y7989D02*
D03*
Y7489D02*
D03*
Y8589D02*
D03*
Y8989D02*
D03*
X10924Y8139D02*
D03*
Y8439D02*
D03*
X11124Y7989D02*
D03*
Y7889D02*
D03*
X11424D02*
D03*
Y7689D02*
D03*
X11324Y7589D02*
D03*
Y7989D02*
D03*
X11224Y7589D02*
D03*
Y7989D02*
D03*
X11774Y8139D02*
D03*
X11874D02*
D03*
X11974D02*
D03*
X12074D02*
D03*
X12174D02*
D03*
X12274D02*
D03*
Y8439D02*
D03*
X12174D02*
D03*
X12074D02*
D03*
X11974D02*
D03*
X11874D02*
D03*
X11774D02*
D03*
X11674D02*
D03*
X11024D02*
D03*
Y8139D02*
D03*
X11524D02*
D03*
Y8439D02*
D03*
X11224Y8139D02*
D03*
X11324D02*
D03*
X11424D02*
D03*
Y8439D02*
D03*
X11324D02*
D03*
X11224D02*
D03*
X11124D02*
D03*
X11324Y8614D02*
D03*
X11224D02*
D03*
X12074Y8989D02*
D03*
Y8589D02*
D03*
X11874Y7989D02*
D03*
Y7589D02*
D03*
X11774Y7989D02*
D03*
Y7589D02*
D03*
X9524Y8989D02*
D03*
Y8589D02*
D03*
X9624Y8989D02*
D03*
Y8589D02*
D03*
X9724Y8989D02*
D03*
Y8589D02*
D03*
X9824Y9189D02*
D03*
Y8689D02*
D03*
X9924Y8989D02*
D03*
X9224Y9189D02*
D03*
Y8689D02*
D03*
X9324Y8989D02*
D03*
X9124D02*
D03*
Y8589D02*
D03*
X9024Y8989D02*
D03*
Y8589D02*
D03*
X9124Y7589D02*
D03*
Y7989D02*
D03*
X9424Y8589D02*
D03*
Y8989D02*
D03*
X9024Y7589D02*
D03*
Y7989D02*
D03*
X9124Y8139D02*
D03*
Y8439D02*
D03*
X9724Y8139D02*
D03*
Y8439D02*
D03*
X9224D02*
D03*
Y8139D02*
D03*
X9424D02*
D03*
X9524D02*
D03*
X9624D02*
D03*
Y8439D02*
D03*
X9524D02*
D03*
X9424D02*
D03*
X9324D02*
D03*
X9924Y7889D02*
D03*
Y7989D02*
D03*
X10024Y8589D02*
D03*
Y8989D02*
D03*
X10224Y7889D02*
D03*
Y7689D02*
D03*
X10124Y7589D02*
D03*
Y7989D02*
D03*
X10024Y7589D02*
D03*
Y7989D02*
D03*
X9824Y8439D02*
D03*
Y8139D02*
D03*
X10024D02*
D03*
X10124D02*
D03*
X10224D02*
D03*
Y8439D02*
D03*
X10124D02*
D03*
X10024D02*
D03*
X9924D02*
D03*
X10324Y8139D02*
D03*
Y8439D02*
D03*
X10424D02*
D03*
Y8139D02*
D03*
X10624D02*
D03*
X10724D02*
D03*
X10824D02*
D03*
Y8439D02*
D03*
X10724D02*
D03*
X10624D02*
D03*
X10524D02*
D03*
X8524Y9164D02*
D03*
Y8664D02*
D03*
X8624Y8964D02*
D03*
X7724Y8989D02*
D03*
Y8589D02*
D03*
X7924Y8989D02*
D03*
Y8589D02*
D03*
X8024D02*
D03*
Y8989D02*
D03*
X8124Y8589D02*
D03*
Y8989D02*
D03*
X8424D02*
D03*
Y8589D02*
D03*
X8324Y8989D02*
D03*
Y8589D02*
D03*
X8924Y8989D02*
D03*
Y8589D02*
D03*
X8824Y8989D02*
D03*
Y8589D02*
D03*
X7624Y7589D02*
D03*
Y7989D02*
D03*
X7824Y8589D02*
D03*
Y8989D02*
D03*
X7724Y7989D02*
D03*
Y7589D02*
D03*
X7924Y8139D02*
D03*
Y8439D02*
D03*
X8224Y8589D02*
D03*
Y8989D02*
D03*
X8024Y7589D02*
D03*
Y7989D02*
D03*
X8124Y7589D02*
D03*
Y7989D02*
D03*
X8524Y7589D02*
D03*
Y7989D02*
D03*
X8424Y7589D02*
D03*
Y7989D02*
D03*
X8324Y7589D02*
D03*
Y7989D02*
D03*
X8224Y7589D02*
D03*
Y7989D02*
D03*
X8024Y8439D02*
D03*
Y8139D02*
D03*
X8224D02*
D03*
X8324D02*
D03*
X8424D02*
D03*
Y8439D02*
D03*
X8324D02*
D03*
X8224D02*
D03*
X8124D02*
D03*
X8524Y8139D02*
D03*
Y8439D02*
D03*
X8724Y8589D02*
D03*
Y8989D02*
D03*
X8924Y7989D02*
D03*
Y7589D02*
D03*
X8824Y7989D02*
D03*
Y7589D02*
D03*
X8624D02*
D03*
Y7989D02*
D03*
X8724D02*
D03*
Y7589D02*
D03*
X8624Y8439D02*
D03*
Y8139D02*
D03*
X8824D02*
D03*
X8924D02*
D03*
X9024D02*
D03*
Y8439D02*
D03*
X8924D02*
D03*
X8824D02*
D03*
X8724D02*
D03*
X7574Y8939D02*
D03*
Y8639D02*
D03*
X7224Y8989D02*
D03*
Y8589D02*
D03*
X7024Y9189D02*
D03*
Y8689D02*
D03*
X7124Y8989D02*
D03*
X6799Y9189D02*
D03*
Y8689D02*
D03*
X6899Y8989D02*
D03*
X6599D02*
D03*
X6499Y8689D02*
D03*
Y9189D02*
D03*
X6574Y7739D02*
D03*
Y7639D02*
D03*
X6724Y7589D02*
D03*
Y7989D02*
D03*
X6824Y7589D02*
D03*
Y7989D02*
D03*
X6924Y7839D02*
D03*
Y7739D02*
D03*
X6224Y7589D02*
D03*
Y7989D02*
D03*
X6024D02*
D03*
Y7589D02*
D03*
X6124D02*
D03*
Y7989D02*
D03*
X5924D02*
D03*
Y7589D02*
D03*
X6224Y8589D02*
D03*
Y8989D02*
D03*
X6124Y8589D02*
D03*
Y8989D02*
D03*
X5924Y8589D02*
D03*
Y8989D02*
D03*
X6024Y8589D02*
D03*
Y8989D02*
D03*
Y8139D02*
D03*
X6124D02*
D03*
X6224D02*
D03*
Y8439D02*
D03*
X6124D02*
D03*
X6024D02*
D03*
X5924D02*
D03*
X6324Y8139D02*
D03*
Y8439D02*
D03*
X6924Y8139D02*
D03*
Y8439D02*
D03*
X6424D02*
D03*
Y8139D02*
D03*
X6624D02*
D03*
X6724D02*
D03*
X6824D02*
D03*
Y8439D02*
D03*
X6724D02*
D03*
X6624D02*
D03*
X6524D02*
D03*
X7324Y7989D02*
D03*
Y7589D02*
D03*
X7224D02*
D03*
Y7989D02*
D03*
X7024Y8439D02*
D03*
Y8139D02*
D03*
X7424Y8589D02*
D03*
Y8989D02*
D03*
X7324Y8589D02*
D03*
Y8989D02*
D03*
X7224Y8139D02*
D03*
X7324D02*
D03*
X7424D02*
D03*
X7524D02*
D03*
X7624D02*
D03*
X7724D02*
D03*
X7824D02*
D03*
Y8439D02*
D03*
X7724D02*
D03*
X7624D02*
D03*
X7524D02*
D03*
X7424D02*
D03*
X7324D02*
D03*
X7224D02*
D03*
X7124D02*
D03*
X6374Y8989D02*
D03*
Y8589D02*
D03*
X5024Y9039D02*
D03*
Y8639D02*
D03*
X5224Y9189D02*
D03*
Y8689D02*
D03*
X5324Y8989D02*
D03*
X5524D02*
D03*
Y8589D02*
D03*
X5824Y9139D02*
D03*
X5724D02*
D03*
X4824Y8139D02*
D03*
X4924D02*
D03*
X5024D02*
D03*
Y8439D02*
D03*
X4924D02*
D03*
X4824D02*
D03*
X4724D02*
D03*
X4624D02*
D03*
Y8139D02*
D03*
X4524D02*
D03*
Y8439D02*
D03*
X5124Y8139D02*
D03*
Y8439D02*
D03*
X4924Y8639D02*
D03*
Y9039D02*
D03*
X5124Y8639D02*
D03*
Y9039D02*
D03*
X5624Y8589D02*
D03*
Y8989D02*
D03*
X5424Y7589D02*
D03*
Y7989D02*
D03*
X5524D02*
D03*
Y7589D02*
D03*
X5224Y8439D02*
D03*
Y8139D02*
D03*
X5424D02*
D03*
X5524D02*
D03*
X5624D02*
D03*
Y8439D02*
D03*
X5524D02*
D03*
X5424D02*
D03*
X5324D02*
D03*
X5724Y8139D02*
D03*
Y8439D02*
D03*
X5824D02*
D03*
Y8139D02*
D03*
X5024Y7589D02*
D03*
Y7989D02*
D03*
X4924Y7589D02*
D03*
Y7989D02*
D03*
X4424Y7589D02*
D03*
Y7989D02*
D03*
X4399Y8889D02*
D03*
Y8789D02*
D03*
X4299Y8889D02*
D03*
Y8789D02*
D03*
X4199Y8889D02*
D03*
Y8789D02*
D03*
X4099Y8889D02*
D03*
Y8789D02*
D03*
X3999Y8889D02*
D03*
X4024Y8439D02*
D03*
Y8139D02*
D03*
X4224D02*
D03*
X4324D02*
D03*
X4424D02*
D03*
Y8439D02*
D03*
X4324D02*
D03*
X4224D02*
D03*
X4124D02*
D03*
X4324Y7589D02*
D03*
Y7989D02*
D03*
D32*
X12124Y6889D02*
D03*
X12424D02*
D03*
X12274Y7389D02*
D03*
X13124Y6889D02*
D03*
X13424D02*
D03*
X13274Y7389D02*
D03*
X11124Y6889D02*
D03*
X11424D02*
D03*
X11274Y7389D02*
D03*
X9124Y6889D02*
D03*
X9424D02*
D03*
X9274Y7389D02*
D03*
X10124Y6889D02*
D03*
X10424D02*
D03*
X10274Y7389D02*
D03*
X8124Y6889D02*
D03*
X8424D02*
D03*
X8274Y7389D02*
D03*
X7124Y6889D02*
D03*
X7424D02*
D03*
X7274Y7389D02*
D03*
X6124Y6889D02*
D03*
X6424D02*
D03*
X6274Y7389D02*
D03*
X5124Y6889D02*
D03*
X5424D02*
D03*
X5274Y7389D02*
D03*
X4124Y6889D02*
D03*
X4424D02*
D03*
X4274Y7389D02*
D03*
D33*
X15352Y8589D02*
D03*
X15040D02*
D03*
X15508D02*
D03*
X15196D02*
D03*
D36*
X12524Y7289D02*
D03*
X12424Y7089D02*
D03*
X12274Y6789D02*
D03*
X13524Y7289D02*
D03*
X13424Y7089D02*
D03*
X13274Y6789D02*
D03*
X11524Y7289D02*
D03*
X11424Y7089D02*
D03*
X11274Y6789D02*
D03*
X9524Y7289D02*
D03*
X9424Y7089D02*
D03*
X9274Y6789D02*
D03*
X10524Y7289D02*
D03*
X10424Y7089D02*
D03*
X10274Y6789D02*
D03*
X8524Y7289D02*
D03*
X8424Y7089D02*
D03*
X8274Y6789D02*
D03*
X7524Y7289D02*
D03*
X7424Y7089D02*
D03*
X7274Y6789D02*
D03*
X6524Y7289D02*
D03*
X6424Y7089D02*
D03*
X6274Y6789D02*
D03*
X5524Y7289D02*
D03*
X5424Y7089D02*
D03*
X5274Y6789D02*
D03*
X4524Y7289D02*
D03*
X4424Y7089D02*
D03*
X4274Y6789D02*
D03*
D38*
X15424Y7839D02*
D03*
X14724Y8139D02*
D03*
X14124D02*
D03*
X13124D02*
D03*
X12524D02*
D03*
X11674D02*
D03*
X11124D02*
D03*
X9324D02*
D03*
X9924D02*
D03*
X10524D02*
D03*
X8124D02*
D03*
X8724D02*
D03*
X5924D02*
D03*
X6524D02*
D03*
X7124D02*
D03*
X4724D02*
D03*
X5324D02*
D03*
X3999Y8789D02*
D03*
X4124Y8139D02*
D03*
M02*
