G04 #@! TF.GenerationSoftware,KiCad,Pcbnew,(5.0.0)*
G04 #@! TF.CreationDate,2018-10-08T11:56:45-07:00*
G04 #@! TF.ProjectId,500-1126,3530302D313132362E6B696361645F70,rev?*
G04 #@! TF.SameCoordinates,Original*
G04 #@! TF.FileFunction,Legend,Top*
G04 #@! TF.FilePolarity,Positive*
%FSLAX46Y46*%
G04 Gerber Fmt 4.6, Leading zero omitted, Abs format (unit mm)*
G04 Created by KiCad (PCBNEW (5.0.0)) date 10/08/18 11:56:45*
%MOMM*%
%LPD*%
G01*
G04 APERTURE LIST*
%ADD10C,0.120000*%
%ADD11C,0.150000*%
G04 APERTURE END LIST*
D10*
G04 #@! TO.C,D1*
X147770000Y-135890462D02*
G75*
G03X142220000Y-134345170I-2990000J462D01*
G01*
X147770000Y-135889538D02*
G75*
G02X142220000Y-137434830I-2990000J-462D01*
G01*
X147280000Y-135890000D02*
G75*
G03X147280000Y-135890000I-2500000J0D01*
G01*
X142220000Y-134345000D02*
X142220000Y-137435000D01*
G04 #@! TO.C,D2*
X173170000Y-135890462D02*
G75*
G03X167620000Y-134345170I-2990000J462D01*
G01*
X173170000Y-135889538D02*
G75*
G02X167620000Y-137434830I-2990000J-462D01*
G01*
X172680000Y-135890000D02*
G75*
G03X172680000Y-135890000I-2500000J0D01*
G01*
X167620000Y-134345000D02*
X167620000Y-137435000D01*
G04 #@! TO.C,D3*
X198570000Y-135890462D02*
G75*
G03X193020000Y-134345170I-2990000J462D01*
G01*
X198570000Y-135889538D02*
G75*
G02X193020000Y-137434830I-2990000J-462D01*
G01*
X198080000Y-135890000D02*
G75*
G03X198080000Y-135890000I-2500000J0D01*
G01*
X193020000Y-134345000D02*
X193020000Y-137435000D01*
G04 #@! TO.C,D4*
X223970000Y-135890462D02*
G75*
G03X218420000Y-134345170I-2990000J462D01*
G01*
X223970000Y-135889538D02*
G75*
G02X218420000Y-137434830I-2990000J-462D01*
G01*
X223480000Y-135890000D02*
G75*
G03X223480000Y-135890000I-2500000J0D01*
G01*
X218420000Y-134345000D02*
X218420000Y-137435000D01*
G04 #@! TO.C,D5*
X249370000Y-135890462D02*
G75*
G03X243820000Y-134345170I-2990000J462D01*
G01*
X249370000Y-135889538D02*
G75*
G02X243820000Y-137434830I-2990000J-462D01*
G01*
X248880000Y-135890000D02*
G75*
G03X248880000Y-135890000I-2500000J0D01*
G01*
X243820000Y-134345000D02*
X243820000Y-137435000D01*
D11*
G04 #@! TO.C,J1*
X136779000Y-139700000D02*
X136779000Y-146888200D01*
X136779000Y-146888200D02*
X127381000Y-146888200D01*
X127381000Y-146888200D02*
X127381000Y-139700000D01*
X127635000Y-115011200D02*
X136525000Y-115011200D01*
X136525000Y-115011200D02*
X140335000Y-118821200D01*
X140335000Y-118821200D02*
X140335000Y-139700000D01*
X140335000Y-139700000D02*
X123825000Y-139700000D01*
X123825000Y-139700000D02*
X123825000Y-118821200D01*
X123825000Y-118821200D02*
X127635000Y-115011200D01*
G04 #@! TO.C,J2*
X162179000Y-139700000D02*
X162179000Y-146888200D01*
X162179000Y-146888200D02*
X152781000Y-146888200D01*
X152781000Y-146888200D02*
X152781000Y-139700000D01*
X153035000Y-115011200D02*
X161925000Y-115011200D01*
X161925000Y-115011200D02*
X165735000Y-118821200D01*
X165735000Y-118821200D02*
X165735000Y-139700000D01*
X165735000Y-139700000D02*
X149225000Y-139700000D01*
X149225000Y-139700000D02*
X149225000Y-118821200D01*
X149225000Y-118821200D02*
X153035000Y-115011200D01*
G04 #@! TO.C,J3*
X187579000Y-139700000D02*
X187579000Y-146888200D01*
X187579000Y-146888200D02*
X178181000Y-146888200D01*
X178181000Y-146888200D02*
X178181000Y-139700000D01*
X178435000Y-115011200D02*
X187325000Y-115011200D01*
X187325000Y-115011200D02*
X191135000Y-118821200D01*
X191135000Y-118821200D02*
X191135000Y-139700000D01*
X191135000Y-139700000D02*
X174625000Y-139700000D01*
X174625000Y-139700000D02*
X174625000Y-118821200D01*
X174625000Y-118821200D02*
X178435000Y-115011200D01*
G04 #@! TO.C,J4*
X212979000Y-139700000D02*
X212979000Y-146888200D01*
X212979000Y-146888200D02*
X203581000Y-146888200D01*
X203581000Y-146888200D02*
X203581000Y-139700000D01*
X203835000Y-115011200D02*
X212725000Y-115011200D01*
X212725000Y-115011200D02*
X216535000Y-118821200D01*
X216535000Y-118821200D02*
X216535000Y-139700000D01*
X216535000Y-139700000D02*
X200025000Y-139700000D01*
X200025000Y-139700000D02*
X200025000Y-118821200D01*
X200025000Y-118821200D02*
X203835000Y-115011200D01*
G04 #@! TO.C,J5*
X238379000Y-139700000D02*
X238379000Y-146888200D01*
X238379000Y-146888200D02*
X228981000Y-146888200D01*
X228981000Y-146888200D02*
X228981000Y-139700000D01*
X229235000Y-115011200D02*
X238125000Y-115011200D01*
X238125000Y-115011200D02*
X241935000Y-118821200D01*
X241935000Y-118821200D02*
X241935000Y-139700000D01*
X241935000Y-139700000D02*
X225425000Y-139700000D01*
X225425000Y-139700000D02*
X225425000Y-118821200D01*
X225425000Y-118821200D02*
X229235000Y-115011200D01*
G04 #@! TO.C,P1*
X179070000Y-102235000D02*
X212090000Y-102235000D01*
X212090000Y-102235000D02*
X212090000Y-111125000D01*
X212090000Y-111125000D02*
X179705000Y-111125000D01*
X179705000Y-111125000D02*
X179070000Y-111125000D01*
X179070000Y-111125000D02*
X179070000Y-102235000D01*
X179070000Y-102235000D02*
X179705000Y-102235000D01*
G04 #@! TO.C,P2*
X152400000Y-102235000D02*
X152400000Y-104140000D01*
X172720000Y-102235000D02*
X152400000Y-102235000D01*
X172720000Y-104140000D02*
X172720000Y-102235000D01*
X152400000Y-111125000D02*
X152400000Y-109220000D01*
X172720000Y-111125000D02*
X152400000Y-111125000D01*
X172720000Y-109220000D02*
X172720000Y-111125000D01*
X172720000Y-104140000D02*
X172720000Y-109220000D01*
X152400000Y-109220000D02*
X152400000Y-104140000D01*
G04 #@! TO.C,D1*
X144041904Y-132382380D02*
X144041904Y-131382380D01*
X144280000Y-131382380D01*
X144422857Y-131430000D01*
X144518095Y-131525238D01*
X144565714Y-131620476D01*
X144613333Y-131810952D01*
X144613333Y-131953809D01*
X144565714Y-132144285D01*
X144518095Y-132239523D01*
X144422857Y-132334761D01*
X144280000Y-132382380D01*
X144041904Y-132382380D01*
X145565714Y-132382380D02*
X144994285Y-132382380D01*
X145280000Y-132382380D02*
X145280000Y-131382380D01*
X145184761Y-131525238D01*
X145089523Y-131620476D01*
X144994285Y-131668095D01*
G04 #@! TO.C,D2*
X169441904Y-132382380D02*
X169441904Y-131382380D01*
X169680000Y-131382380D01*
X169822857Y-131430000D01*
X169918095Y-131525238D01*
X169965714Y-131620476D01*
X170013333Y-131810952D01*
X170013333Y-131953809D01*
X169965714Y-132144285D01*
X169918095Y-132239523D01*
X169822857Y-132334761D01*
X169680000Y-132382380D01*
X169441904Y-132382380D01*
X170394285Y-131477619D02*
X170441904Y-131430000D01*
X170537142Y-131382380D01*
X170775238Y-131382380D01*
X170870476Y-131430000D01*
X170918095Y-131477619D01*
X170965714Y-131572857D01*
X170965714Y-131668095D01*
X170918095Y-131810952D01*
X170346666Y-132382380D01*
X170965714Y-132382380D01*
G04 #@! TO.C,D3*
X194841904Y-132382380D02*
X194841904Y-131382380D01*
X195080000Y-131382380D01*
X195222857Y-131430000D01*
X195318095Y-131525238D01*
X195365714Y-131620476D01*
X195413333Y-131810952D01*
X195413333Y-131953809D01*
X195365714Y-132144285D01*
X195318095Y-132239523D01*
X195222857Y-132334761D01*
X195080000Y-132382380D01*
X194841904Y-132382380D01*
X195746666Y-131382380D02*
X196365714Y-131382380D01*
X196032380Y-131763333D01*
X196175238Y-131763333D01*
X196270476Y-131810952D01*
X196318095Y-131858571D01*
X196365714Y-131953809D01*
X196365714Y-132191904D01*
X196318095Y-132287142D01*
X196270476Y-132334761D01*
X196175238Y-132382380D01*
X195889523Y-132382380D01*
X195794285Y-132334761D01*
X195746666Y-132287142D01*
G04 #@! TO.C,D4*
X220241904Y-132382380D02*
X220241904Y-131382380D01*
X220480000Y-131382380D01*
X220622857Y-131430000D01*
X220718095Y-131525238D01*
X220765714Y-131620476D01*
X220813333Y-131810952D01*
X220813333Y-131953809D01*
X220765714Y-132144285D01*
X220718095Y-132239523D01*
X220622857Y-132334761D01*
X220480000Y-132382380D01*
X220241904Y-132382380D01*
X221670476Y-131715714D02*
X221670476Y-132382380D01*
X221432380Y-131334761D02*
X221194285Y-132049047D01*
X221813333Y-132049047D01*
G04 #@! TO.C,D5*
X245641904Y-132382380D02*
X245641904Y-131382380D01*
X245880000Y-131382380D01*
X246022857Y-131430000D01*
X246118095Y-131525238D01*
X246165714Y-131620476D01*
X246213333Y-131810952D01*
X246213333Y-131953809D01*
X246165714Y-132144285D01*
X246118095Y-132239523D01*
X246022857Y-132334761D01*
X245880000Y-132382380D01*
X245641904Y-132382380D01*
X247118095Y-131382380D02*
X246641904Y-131382380D01*
X246594285Y-131858571D01*
X246641904Y-131810952D01*
X246737142Y-131763333D01*
X246975238Y-131763333D01*
X247070476Y-131810952D01*
X247118095Y-131858571D01*
X247165714Y-131953809D01*
X247165714Y-132191904D01*
X247118095Y-132287142D01*
X247070476Y-132334761D01*
X246975238Y-132382380D01*
X246737142Y-132382380D01*
X246641904Y-132334761D01*
X246594285Y-132287142D01*
G04 #@! TO.C,J1*
X131746666Y-113752380D02*
X131746666Y-114466666D01*
X131699047Y-114609523D01*
X131603809Y-114704761D01*
X131460952Y-114752380D01*
X131365714Y-114752380D01*
X132746666Y-114752380D02*
X132175238Y-114752380D01*
X132460952Y-114752380D02*
X132460952Y-113752380D01*
X132365714Y-113895238D01*
X132270476Y-113990476D01*
X132175238Y-114038095D01*
G04 #@! TO.C,J2*
X157146666Y-113752380D02*
X157146666Y-114466666D01*
X157099047Y-114609523D01*
X157003809Y-114704761D01*
X156860952Y-114752380D01*
X156765714Y-114752380D01*
X157575238Y-113847619D02*
X157622857Y-113800000D01*
X157718095Y-113752380D01*
X157956190Y-113752380D01*
X158051428Y-113800000D01*
X158099047Y-113847619D01*
X158146666Y-113942857D01*
X158146666Y-114038095D01*
X158099047Y-114180952D01*
X157527619Y-114752380D01*
X158146666Y-114752380D01*
G04 #@! TO.C,J3*
X182546666Y-113752380D02*
X182546666Y-114466666D01*
X182499047Y-114609523D01*
X182403809Y-114704761D01*
X182260952Y-114752380D01*
X182165714Y-114752380D01*
X182927619Y-113752380D02*
X183546666Y-113752380D01*
X183213333Y-114133333D01*
X183356190Y-114133333D01*
X183451428Y-114180952D01*
X183499047Y-114228571D01*
X183546666Y-114323809D01*
X183546666Y-114561904D01*
X183499047Y-114657142D01*
X183451428Y-114704761D01*
X183356190Y-114752380D01*
X183070476Y-114752380D01*
X182975238Y-114704761D01*
X182927619Y-114657142D01*
G04 #@! TO.C,J4*
X198842380Y-134394533D02*
X199556666Y-134394533D01*
X199699523Y-134442152D01*
X199794761Y-134537390D01*
X199842380Y-134680247D01*
X199842380Y-134775485D01*
X199175714Y-133489771D02*
X199842380Y-133489771D01*
X198794761Y-133727866D02*
X199509047Y-133965961D01*
X199509047Y-133346914D01*
G04 #@! TO.C,J5*
X224242380Y-134394533D02*
X224956666Y-134394533D01*
X225099523Y-134442152D01*
X225194761Y-134537390D01*
X225242380Y-134680247D01*
X225242380Y-134775485D01*
X224242380Y-133442152D02*
X224242380Y-133918342D01*
X224718571Y-133965961D01*
X224670952Y-133918342D01*
X224623333Y-133823104D01*
X224623333Y-133585009D01*
X224670952Y-133489771D01*
X224718571Y-133442152D01*
X224813809Y-133394533D01*
X225051904Y-133394533D01*
X225147142Y-133442152D01*
X225194761Y-133489771D01*
X225242380Y-133585009D01*
X225242380Y-133823104D01*
X225194761Y-133918342D01*
X225147142Y-133965961D01*
G04 #@! TO.C,P1*
X196111904Y-113982380D02*
X196111904Y-112982380D01*
X196492857Y-112982380D01*
X196588095Y-113030000D01*
X196635714Y-113077619D01*
X196683333Y-113172857D01*
X196683333Y-113315714D01*
X196635714Y-113410952D01*
X196588095Y-113458571D01*
X196492857Y-113506190D01*
X196111904Y-113506190D01*
X197635714Y-113982380D02*
X197064285Y-113982380D01*
X197350000Y-113982380D02*
X197350000Y-112982380D01*
X197254761Y-113125238D01*
X197159523Y-113220476D01*
X197064285Y-113268095D01*
X189373809Y-111982380D02*
X188897619Y-111982380D01*
X188850000Y-112458571D01*
X188897619Y-112410952D01*
X188992857Y-112363333D01*
X189230952Y-112363333D01*
X189326190Y-112410952D01*
X189373809Y-112458571D01*
X189421428Y-112553809D01*
X189421428Y-112791904D01*
X189373809Y-112887142D01*
X189326190Y-112934761D01*
X189230952Y-112982380D01*
X188992857Y-112982380D01*
X188897619Y-112934761D01*
X188850000Y-112887142D01*
X190040476Y-111982380D02*
X190135714Y-111982380D01*
X190230952Y-112030000D01*
X190278571Y-112077619D01*
X190326190Y-112172857D01*
X190373809Y-112363333D01*
X190373809Y-112601428D01*
X190326190Y-112791904D01*
X190278571Y-112887142D01*
X190230952Y-112934761D01*
X190135714Y-112982380D01*
X190040476Y-112982380D01*
X189945238Y-112934761D01*
X189897619Y-112887142D01*
X189850000Y-112791904D01*
X189802380Y-112601428D01*
X189802380Y-112363333D01*
X189850000Y-112172857D01*
X189897619Y-112077619D01*
X189945238Y-112030000D01*
X190040476Y-111982380D01*
X190992857Y-111982380D02*
X191088095Y-111982380D01*
X191183333Y-112030000D01*
X191230952Y-112077619D01*
X191278571Y-112172857D01*
X191326190Y-112363333D01*
X191326190Y-112601428D01*
X191278571Y-112791904D01*
X191230952Y-112887142D01*
X191183333Y-112934761D01*
X191088095Y-112982380D01*
X190992857Y-112982380D01*
X190897619Y-112934761D01*
X190850000Y-112887142D01*
X190802380Y-112791904D01*
X190754761Y-112601428D01*
X190754761Y-112363333D01*
X190802380Y-112172857D01*
X190850000Y-112077619D01*
X190897619Y-112030000D01*
X190992857Y-111982380D01*
X191754761Y-112601428D02*
X192516666Y-112601428D01*
X193516666Y-112982380D02*
X192945238Y-112982380D01*
X193230952Y-112982380D02*
X193230952Y-111982380D01*
X193135714Y-112125238D01*
X193040476Y-112220476D01*
X192945238Y-112268095D01*
X194469047Y-112982380D02*
X193897619Y-112982380D01*
X194183333Y-112982380D02*
X194183333Y-111982380D01*
X194088095Y-112125238D01*
X193992857Y-112220476D01*
X193897619Y-112268095D01*
X194850000Y-112077619D02*
X194897619Y-112030000D01*
X194992857Y-111982380D01*
X195230952Y-111982380D01*
X195326190Y-112030000D01*
X195373809Y-112077619D01*
X195421428Y-112172857D01*
X195421428Y-112268095D01*
X195373809Y-112410952D01*
X194802380Y-112982380D01*
X195421428Y-112982380D01*
X196278571Y-111982380D02*
X196088095Y-111982380D01*
X195992857Y-112030000D01*
X195945238Y-112077619D01*
X195850000Y-112220476D01*
X195802380Y-112410952D01*
X195802380Y-112791904D01*
X195850000Y-112887142D01*
X195897619Y-112934761D01*
X195992857Y-112982380D01*
X196183333Y-112982380D01*
X196278571Y-112934761D01*
X196326190Y-112887142D01*
X196373809Y-112791904D01*
X196373809Y-112553809D01*
X196326190Y-112458571D01*
X196278571Y-112410952D01*
X196183333Y-112363333D01*
X195992857Y-112363333D01*
X195897619Y-112410952D01*
X195850000Y-112458571D01*
X195802380Y-112553809D01*
X196802380Y-112601428D02*
X197564285Y-112601428D01*
X198707142Y-113077619D02*
X198611904Y-113030000D01*
X198516666Y-112934761D01*
X198373809Y-112791904D01*
X198278571Y-112744285D01*
X198183333Y-112744285D01*
X198230952Y-112982380D02*
X198135714Y-112934761D01*
X198040476Y-112839523D01*
X197992857Y-112649047D01*
X197992857Y-112315714D01*
X198040476Y-112125238D01*
X198135714Y-112030000D01*
X198230952Y-111982380D01*
X198421428Y-111982380D01*
X198516666Y-112030000D01*
X198611904Y-112125238D01*
X198659523Y-112315714D01*
X198659523Y-112649047D01*
X198611904Y-112839523D01*
X198516666Y-112934761D01*
X198421428Y-112982380D01*
X198230952Y-112982380D01*
X199516666Y-112315714D02*
X199516666Y-112982380D01*
X199088095Y-112315714D02*
X199088095Y-112839523D01*
X199135714Y-112934761D01*
X199230952Y-112982380D01*
X199373809Y-112982380D01*
X199469047Y-112934761D01*
X199516666Y-112887142D01*
X199992857Y-112982380D02*
X199992857Y-112315714D01*
X199992857Y-111982380D02*
X199945238Y-112030000D01*
X199992857Y-112077619D01*
X200040476Y-112030000D01*
X199992857Y-111982380D01*
X199992857Y-112077619D01*
X200469047Y-112315714D02*
X200469047Y-112982380D01*
X200469047Y-112410952D02*
X200516666Y-112363333D01*
X200611904Y-112315714D01*
X200754761Y-112315714D01*
X200850000Y-112363333D01*
X200897619Y-112458571D01*
X200897619Y-112982380D01*
X201230952Y-112315714D02*
X201611904Y-112315714D01*
X201373809Y-111982380D02*
X201373809Y-112839523D01*
X201421428Y-112934761D01*
X201516666Y-112982380D01*
X201611904Y-112982380D01*
X202230952Y-111982380D02*
X202230952Y-112696666D01*
X202183333Y-112839523D01*
X202088095Y-112934761D01*
X201945238Y-112982380D01*
X201850000Y-112982380D01*
X203135714Y-112982380D02*
X203135714Y-112458571D01*
X203088095Y-112363333D01*
X202992857Y-112315714D01*
X202802380Y-112315714D01*
X202707142Y-112363333D01*
X203135714Y-112934761D02*
X203040476Y-112982380D01*
X202802380Y-112982380D01*
X202707142Y-112934761D01*
X202659523Y-112839523D01*
X202659523Y-112744285D01*
X202707142Y-112649047D01*
X202802380Y-112601428D01*
X203040476Y-112601428D01*
X203135714Y-112553809D01*
X204040476Y-112934761D02*
X203945238Y-112982380D01*
X203754761Y-112982380D01*
X203659523Y-112934761D01*
X203611904Y-112887142D01*
X203564285Y-112791904D01*
X203564285Y-112506190D01*
X203611904Y-112410952D01*
X203659523Y-112363333D01*
X203754761Y-112315714D01*
X203945238Y-112315714D01*
X204040476Y-112363333D01*
X204469047Y-112982380D02*
X204469047Y-111982380D01*
X204564285Y-112601428D02*
X204850000Y-112982380D01*
X204850000Y-112315714D02*
X204469047Y-112696666D01*
G04 #@! TO.C,P2*
X161821904Y-100782380D02*
X161821904Y-99782380D01*
X162202857Y-99782380D01*
X162298095Y-99830000D01*
X162345714Y-99877619D01*
X162393333Y-99972857D01*
X162393333Y-100115714D01*
X162345714Y-100210952D01*
X162298095Y-100258571D01*
X162202857Y-100306190D01*
X161821904Y-100306190D01*
X162774285Y-99877619D02*
X162821904Y-99830000D01*
X162917142Y-99782380D01*
X163155238Y-99782380D01*
X163250476Y-99830000D01*
X163298095Y-99877619D01*
X163345714Y-99972857D01*
X163345714Y-100068095D01*
X163298095Y-100210952D01*
X162726666Y-100782380D01*
X163345714Y-100782380D01*
X156075714Y-101052380D02*
X155599523Y-101052380D01*
X155551904Y-101528571D01*
X155599523Y-101480952D01*
X155694761Y-101433333D01*
X155932857Y-101433333D01*
X156028095Y-101480952D01*
X156075714Y-101528571D01*
X156123333Y-101623809D01*
X156123333Y-101861904D01*
X156075714Y-101957142D01*
X156028095Y-102004761D01*
X155932857Y-102052380D01*
X155694761Y-102052380D01*
X155599523Y-102004761D01*
X155551904Y-101957142D01*
X156742380Y-101052380D02*
X156837619Y-101052380D01*
X156932857Y-101100000D01*
X156980476Y-101147619D01*
X157028095Y-101242857D01*
X157075714Y-101433333D01*
X157075714Y-101671428D01*
X157028095Y-101861904D01*
X156980476Y-101957142D01*
X156932857Y-102004761D01*
X156837619Y-102052380D01*
X156742380Y-102052380D01*
X156647142Y-102004761D01*
X156599523Y-101957142D01*
X156551904Y-101861904D01*
X156504285Y-101671428D01*
X156504285Y-101433333D01*
X156551904Y-101242857D01*
X156599523Y-101147619D01*
X156647142Y-101100000D01*
X156742380Y-101052380D01*
X157694761Y-101052380D02*
X157790000Y-101052380D01*
X157885238Y-101100000D01*
X157932857Y-101147619D01*
X157980476Y-101242857D01*
X158028095Y-101433333D01*
X158028095Y-101671428D01*
X157980476Y-101861904D01*
X157932857Y-101957142D01*
X157885238Y-102004761D01*
X157790000Y-102052380D01*
X157694761Y-102052380D01*
X157599523Y-102004761D01*
X157551904Y-101957142D01*
X157504285Y-101861904D01*
X157456666Y-101671428D01*
X157456666Y-101433333D01*
X157504285Y-101242857D01*
X157551904Y-101147619D01*
X157599523Y-101100000D01*
X157694761Y-101052380D01*
X158456666Y-101671428D02*
X159218571Y-101671428D01*
X160218571Y-102052380D02*
X159647142Y-102052380D01*
X159932857Y-102052380D02*
X159932857Y-101052380D01*
X159837619Y-101195238D01*
X159742380Y-101290476D01*
X159647142Y-101338095D01*
X161170952Y-102052380D02*
X160599523Y-102052380D01*
X160885238Y-102052380D02*
X160885238Y-101052380D01*
X160790000Y-101195238D01*
X160694761Y-101290476D01*
X160599523Y-101338095D01*
X161551904Y-101147619D02*
X161599523Y-101100000D01*
X161694761Y-101052380D01*
X161932857Y-101052380D01*
X162028095Y-101100000D01*
X162075714Y-101147619D01*
X162123333Y-101242857D01*
X162123333Y-101338095D01*
X162075714Y-101480952D01*
X161504285Y-102052380D01*
X162123333Y-102052380D01*
X162980476Y-101052380D02*
X162790000Y-101052380D01*
X162694761Y-101100000D01*
X162647142Y-101147619D01*
X162551904Y-101290476D01*
X162504285Y-101480952D01*
X162504285Y-101861904D01*
X162551904Y-101957142D01*
X162599523Y-102004761D01*
X162694761Y-102052380D01*
X162885238Y-102052380D01*
X162980476Y-102004761D01*
X163028095Y-101957142D01*
X163075714Y-101861904D01*
X163075714Y-101623809D01*
X163028095Y-101528571D01*
X162980476Y-101480952D01*
X162885238Y-101433333D01*
X162694761Y-101433333D01*
X162599523Y-101480952D01*
X162551904Y-101528571D01*
X162504285Y-101623809D01*
X163504285Y-101671428D02*
X164266190Y-101671428D01*
X165218571Y-102052380D02*
X164742380Y-102052380D01*
X164742380Y-101052380D01*
X165551904Y-101528571D02*
X165885238Y-101528571D01*
X166028095Y-102052380D02*
X165551904Y-102052380D01*
X165551904Y-101052380D01*
X166028095Y-101052380D01*
X166456666Y-102052380D02*
X166456666Y-101052380D01*
X166694761Y-101052380D01*
X166837619Y-101100000D01*
X166932857Y-101195238D01*
X166980476Y-101290476D01*
X167028095Y-101480952D01*
X167028095Y-101623809D01*
X166980476Y-101814285D01*
X166932857Y-101909523D01*
X166837619Y-102004761D01*
X166694761Y-102052380D01*
X166456666Y-102052380D01*
G04 #@! TD*
M02*
