*%FSLAX23Y23*%
*%MOIN*%
G01*
%ADD11C,0.006*%
%ADD12C,0.007*%
%ADD13C,0.008*%
%ADD14C,0.010*%
%ADD15C,0.012*%
%ADD16C,0.020*%
%ADD17C,0.032*%
%ADD18C,0.036*%
%ADD19C,0.050*%
%ADD20C,0.052*%
%ADD21C,0.055*%
%ADD22C,0.056*%
%ADD23C,0.059*%
%ADD24C,0.062*%
%ADD25C,0.066*%
%ADD26C,0.070*%
%ADD27C,0.090*%
%ADD28C,0.125*%
%ADD29C,0.129*%
%ADD30C,0.140*%
%ADD31C,0.160*%
%ADD32C,0.250*%
%ADD33R,0.062X0.062*%
%ADD34R,0.066X0.066*%
D14*
X6799Y10183D02*
X6832D01*
X6816D01*
Y10283D01*
X6817D01*
X6816D02*
X6799Y10266D01*
X6882D02*
X6899Y10283D01*
X6932D01*
X6949Y10266D01*
Y10200D01*
X6932Y10183D01*
X6899D01*
X6882Y10200D01*
Y10266D01*
X6982D02*
X6999Y10283D01*
X7032D01*
X7049Y10266D01*
Y10200D01*
X7032Y10183D01*
X6999D01*
X6982Y10200D01*
Y10266D01*
X7082Y10233D02*
X7149D01*
X7182Y10183D02*
X7216D01*
X7199D01*
Y10283D01*
X7200D01*
X7199D02*
X7182Y10266D01*
X7266D02*
X7282Y10283D01*
X7316D01*
X7332Y10266D01*
Y10200D01*
X7316Y10183D01*
X7282D01*
X7266Y10200D01*
Y10266D01*
X7365D02*
X7382Y10283D01*
X7415D01*
X7432Y10266D01*
Y10200D01*
X7415Y10183D01*
X7382D01*
X7365Y10200D01*
Y10266D01*
X7465Y10283D02*
X7532D01*
X7465D02*
Y10233D01*
X7499Y10250D01*
X7515D01*
X7532Y10233D01*
Y10200D01*
X7515Y10183D01*
X7482D01*
X7465Y10200D01*
X7565Y10233D02*
X7632D01*
X7665Y10266D02*
X7682Y10283D01*
X7715D01*
X7732Y10266D01*
Y10200D01*
X7715Y10183D01*
X7682D01*
X7665Y10200D01*
Y10266D01*
X7765D02*
X7782Y10283D01*
X7815D01*
X7832Y10266D01*
Y10250D01*
X7833D01*
X7832D02*
X7833D01*
X7832D02*
X7833D01*
X7832D02*
X7815Y10233D01*
X7799D01*
X7815D01*
X7832Y10216D01*
Y10200D01*
X7815Y10183D01*
X7782D01*
X7765Y10200D01*
X7865Y10183D02*
X7932Y10250D01*
X7965Y10266D02*
X7982Y10283D01*
X8015D01*
X8032Y10266D01*
Y10200D01*
X8015Y10183D01*
X7982D01*
X7965Y10200D01*
Y10266D01*
X8115Y10283D02*
Y10183D01*
X8065Y10233D02*
X8115Y10283D01*
X8132Y10233D02*
X8065D01*
X8265Y10183D02*
Y10283D01*
X8315D01*
X8332Y10266D01*
Y10233D01*
X8315Y10216D01*
X8265D01*
X8299D02*
X8332Y10183D01*
X8365Y10283D02*
X8432D01*
X8365D02*
Y10183D01*
X8432D01*
X8398Y10233D02*
X8365D01*
X8465Y10216D02*
Y10283D01*
Y10216D02*
X8498Y10183D01*
X8532Y10216D01*
Y10283D01*
X8665Y10250D02*
Y10183D01*
Y10250D02*
X8698Y10283D01*
X8732Y10250D01*
Y10183D01*
Y10233D01*
X8665D01*
X8915Y10283D02*
X8932Y10266D01*
X8915Y10283D02*
X8882D01*
X8865Y10266D01*
Y10250D01*
X8882Y10233D01*
X8915D01*
X8932Y10216D01*
Y10200D01*
X8915Y10183D01*
X8882D01*
X8865Y10200D01*
X8982Y10283D02*
X9015D01*
X8982D02*
X8965Y10266D01*
Y10200D01*
X8982Y10183D01*
X9015D01*
X9032Y10200D01*
Y10266D01*
X9015Y10283D01*
X9065D02*
Y10183D01*
X9132D01*
X9165D02*
Y10283D01*
Y10183D02*
X9215D01*
X9232Y10200D01*
Y10266D01*
X9215Y10283D01*
X9165D01*
X9265D02*
X9332D01*
X9265D02*
Y10183D01*
X9332D01*
X9298Y10233D02*
X9265D01*
X9365Y10183D02*
Y10283D01*
X9415D01*
X9431Y10266D01*
Y10233D01*
X9415Y10216D01*
X9365D01*
X9398D02*
X9431Y10183D01*
X9565D02*
Y10283D01*
X9598Y10250D01*
X9631Y10283D01*
Y10183D01*
X9665D02*
Y10250D01*
X9698Y10283D01*
X9731Y10250D01*
Y10183D01*
Y10233D01*
X9665D01*
X9815Y10283D02*
X9831Y10266D01*
X9815Y10283D02*
X9781D01*
X9765Y10266D01*
Y10250D01*
X9781Y10233D01*
X9815D01*
X9831Y10216D01*
Y10200D01*
X9815Y10183D01*
X9781D01*
X9765Y10200D01*
X9865Y10183D02*
Y10283D01*
Y10216D02*
Y10183D01*
Y10216D02*
X9931Y10283D01*
X9881Y10233D01*
X9931Y10183D01*
X10115Y10283D02*
X10131Y10266D01*
X10115Y10283D02*
X10081D01*
X10065Y10266D01*
Y10200D01*
X10081Y10183D01*
X10115D01*
X10131Y10200D01*
X10165Y10283D02*
X10198D01*
X10181D01*
Y10183D01*
X10165D01*
X10198D01*
X10248D02*
Y10283D01*
X10298D01*
X10315Y10266D01*
Y10233D01*
X10298Y10216D01*
X10248D01*
X10281D02*
X10315Y10183D01*
X10414Y10266D02*
X10398Y10283D01*
X10365D01*
X10348Y10266D01*
Y10200D01*
X10365Y10183D01*
X10398D01*
X10414Y10200D01*
X10448D02*
Y10283D01*
Y10200D02*
X10464Y10183D01*
X10498D01*
X10514Y10200D01*
Y10283D01*
X10548D02*
X10581D01*
X10564D01*
Y10183D01*
X10548D01*
X10581D01*
X10631Y10283D02*
X10698D01*
X10664D01*
Y10183D01*
X10731D02*
X10798Y10250D01*
X10881Y10283D02*
X10898Y10266D01*
X10881Y10283D02*
X10848D01*
X10831Y10266D01*
Y10200D01*
X10848Y10183D01*
X10881D01*
X10898Y10200D01*
X10948Y10283D02*
X10981D01*
X10948D02*
X10931Y10266D01*
Y10200D01*
X10948Y10183D01*
X10981D01*
X10998Y10200D01*
Y10266D01*
X10981Y10283D01*
X11031D02*
Y10183D01*
X11064Y10250D02*
X11031Y10283D01*
X11064Y10250D02*
X11098Y10283D01*
Y10183D01*
X11131D02*
Y10283D01*
X11181D01*
X11198Y10266D01*
Y10233D01*
X11181Y10216D01*
X11131D01*
X11248Y10283D02*
X11281D01*
X11248D02*
X11231Y10266D01*
Y10200D01*
X11248Y10183D01*
X11281D01*
X11298Y10200D01*
Y10266D01*
X11281Y10283D01*
X11331D02*
Y10183D01*
X11398D02*
X11331Y10283D01*
X11398D02*
Y10183D01*
X11431Y10283D02*
X11497D01*
X11431D02*
Y10183D01*
X11497D01*
X11464Y10233D02*
X11431D01*
X11531Y10183D02*
Y10283D01*
X11597Y10183D01*
Y10283D01*
X11631D02*
X11697D01*
X11664D01*
Y10183D01*
X11881Y10283D02*
X11897Y10266D01*
X11881Y10283D02*
X11847D01*
X11831Y10266D01*
Y10250D01*
X11847Y10233D01*
X11881D01*
X11897Y10216D01*
Y10200D01*
X11881Y10183D01*
X11847D01*
X11831Y10200D01*
X11931Y10283D02*
X11964D01*
X11947D01*
Y10183D01*
X11931D01*
X11964D01*
X12014D02*
Y10283D01*
Y10183D02*
X12064D01*
X12081Y10200D01*
Y10266D01*
X12064Y10283D01*
X12014D01*
X12114D02*
X12181D01*
X12114D02*
Y10183D01*
X12181D01*
X12147Y10233D02*
X12114D01*
X12694Y9843D02*
X6194D01*
Y5843D02*
X12694D01*
Y9843D01*
X6194D02*
Y5843D01*
D19*
X6317Y6093D02*
X6318D01*
X6317D02*
X6317Y6083D01*
X6319Y6073D01*
X6321Y6063D01*
X6324Y6053D01*
X6327Y6043D01*
X6332Y6034D01*
X6337Y6025D01*
X6342Y6017D01*
X6349Y6009D01*
X6356Y6001D01*
X6364Y5995D01*
X6372Y5988D01*
X6380Y5983D01*
X6390Y5978D01*
X6399Y5974D01*
X6409Y5971D01*
X6419Y5969D01*
X6429Y5967D01*
X6439Y5966D01*
X6449D01*
X6459Y5967D01*
X6469Y5969D01*
X6479Y5971D01*
X6489Y5974D01*
X6498Y5978D01*
X6508Y5983D01*
X6516Y5988D01*
X6524Y5995D01*
X6532Y6001D01*
X6539Y6009D01*
X6546Y6017D01*
X6551Y6025D01*
X6556Y6034D01*
X6561Y6043D01*
X6564Y6053D01*
X6567Y6063D01*
X6569Y6073D01*
X6571Y6083D01*
X6571Y6093D01*
X6572D01*
X6571D02*
X6571Y6103D01*
X6569Y6113D01*
X6567Y6123D01*
X6564Y6133D01*
X6561Y6143D01*
X6556Y6152D01*
X6551Y6161D01*
X6546Y6169D01*
X6539Y6177D01*
X6532Y6185D01*
X6524Y6191D01*
X6516Y6198D01*
X6508Y6203D01*
X6498Y6208D01*
X6489Y6212D01*
X6479Y6215D01*
X6469Y6217D01*
X6459Y6219D01*
X6449Y6220D01*
X6439D01*
X6429Y6219D01*
X6419Y6217D01*
X6409Y6215D01*
X6399Y6212D01*
X6390Y6208D01*
X6380Y6203D01*
X6372Y6198D01*
X6364Y6191D01*
X6356Y6185D01*
X6349Y6177D01*
X6342Y6169D01*
X6337Y6161D01*
X6332Y6152D01*
X6327Y6143D01*
X6324Y6133D01*
X6321Y6123D01*
X6319Y6113D01*
X6317Y6103D01*
X6317Y6093D01*
X6365D02*
X6366D01*
X6365D02*
X6366Y6084D01*
X6367Y6075D01*
X6370Y6066D01*
X6373Y6058D01*
X6378Y6050D01*
X6383Y6042D01*
X6390Y6036D01*
X6397Y6030D01*
X6404Y6025D01*
X6413Y6020D01*
X6421Y6017D01*
X6430Y6015D01*
X6439Y6014D01*
X6449D01*
X6458Y6015D01*
X6467Y6017D01*
X6475Y6020D01*
X6484Y6025D01*
X6491Y6030D01*
X6498Y6036D01*
X6505Y6042D01*
X6510Y6050D01*
X6515Y6058D01*
X6518Y6066D01*
X6521Y6075D01*
X6522Y6084D01*
X6523Y6093D01*
X6524D01*
X6523D02*
X6522Y6102D01*
X6521Y6111D01*
X6518Y6120D01*
X6515Y6128D01*
X6510Y6136D01*
X6505Y6144D01*
X6498Y6150D01*
X6491Y6156D01*
X6484Y6161D01*
X6475Y6166D01*
X6467Y6169D01*
X6458Y6171D01*
X6449Y6172D01*
X6439D01*
X6430Y6171D01*
X6421Y6169D01*
X6413Y6166D01*
X6404Y6161D01*
X6397Y6156D01*
X6390Y6150D01*
X6383Y6144D01*
X6378Y6136D01*
X6373Y6128D01*
X6370Y6120D01*
X6367Y6111D01*
X6366Y6102D01*
X6365Y6093D01*
X6413D02*
X6414D01*
X6413D02*
X6414Y6087D01*
X6416Y6080D01*
X6419Y6075D01*
X6423Y6070D01*
X6428Y6066D01*
X6434Y6064D01*
X6441Y6062D01*
X6447D01*
X6454Y6064D01*
X6460Y6066D01*
X6465Y6070D01*
X6469Y6075D01*
X6472Y6080D01*
X6474Y6087D01*
X6475Y6093D01*
X6476D01*
X6475D02*
X6474Y6099D01*
X6472Y6106D01*
X6469Y6111D01*
X6465Y6116D01*
X6460Y6120D01*
X6454Y6122D01*
X6447Y6124D01*
X6441D01*
X6434Y6122D01*
X6428Y6120D01*
X6423Y6116D01*
X6419Y6111D01*
X6416Y6106D01*
X6414Y6099D01*
X6413Y6093D01*
X6444D02*
D03*
X6317Y9593D02*
X6318D01*
X6317D02*
X6317Y9583D01*
X6319Y9573D01*
X6321Y9563D01*
X6324Y9553D01*
X6327Y9543D01*
X6332Y9534D01*
X6337Y9525D01*
X6342Y9517D01*
X6349Y9509D01*
X6356Y9501D01*
X6364Y9495D01*
X6372Y9488D01*
X6380Y9483D01*
X6390Y9478D01*
X6399Y9474D01*
X6409Y9471D01*
X6419Y9469D01*
X6429Y9467D01*
X6439Y9466D01*
X6449D01*
X6459Y9467D01*
X6469Y9469D01*
X6479Y9471D01*
X6489Y9474D01*
X6498Y9478D01*
X6508Y9483D01*
X6516Y9488D01*
X6524Y9495D01*
X6532Y9501D01*
X6539Y9509D01*
X6546Y9517D01*
X6551Y9525D01*
X6556Y9534D01*
X6561Y9543D01*
X6564Y9553D01*
X6567Y9563D01*
X6569Y9573D01*
X6571Y9583D01*
X6571Y9593D01*
X6572D01*
X6571D02*
X6571Y9603D01*
X6569Y9613D01*
X6567Y9623D01*
X6564Y9633D01*
X6561Y9643D01*
X6556Y9652D01*
X6551Y9661D01*
X6546Y9669D01*
X6539Y9677D01*
X6532Y9685D01*
X6524Y9691D01*
X6516Y9698D01*
X6508Y9703D01*
X6498Y9708D01*
X6489Y9712D01*
X6479Y9715D01*
X6469Y9717D01*
X6459Y9719D01*
X6449Y9720D01*
X6439D01*
X6429Y9719D01*
X6419Y9717D01*
X6409Y9715D01*
X6399Y9712D01*
X6390Y9708D01*
X6380Y9703D01*
X6372Y9698D01*
X6364Y9691D01*
X6356Y9685D01*
X6349Y9677D01*
X6342Y9669D01*
X6337Y9661D01*
X6332Y9652D01*
X6327Y9643D01*
X6324Y9633D01*
X6321Y9623D01*
X6319Y9613D01*
X6317Y9603D01*
X6317Y9593D01*
X6365D02*
X6366D01*
X6365D02*
X6366Y9584D01*
X6367Y9575D01*
X6370Y9566D01*
X6373Y9558D01*
X6378Y9550D01*
X6383Y9542D01*
X6390Y9536D01*
X6397Y9530D01*
X6404Y9525D01*
X6413Y9520D01*
X6421Y9517D01*
X6430Y9515D01*
X6439Y9514D01*
X6449D01*
X6458Y9515D01*
X6467Y9517D01*
X6475Y9520D01*
X6484Y9525D01*
X6491Y9530D01*
X6498Y9536D01*
X6505Y9542D01*
X6510Y9550D01*
X6515Y9558D01*
X6518Y9566D01*
X6521Y9575D01*
X6522Y9584D01*
X6523Y9593D01*
X6524D01*
X6523D02*
X6522Y9602D01*
X6521Y9611D01*
X6518Y9620D01*
X6515Y9628D01*
X6510Y9636D01*
X6505Y9644D01*
X6498Y9650D01*
X6491Y9656D01*
X6484Y9661D01*
X6475Y9666D01*
X6467Y9669D01*
X6458Y9671D01*
X6449Y9672D01*
X6439D01*
X6430Y9671D01*
X6421Y9669D01*
X6413Y9666D01*
X6404Y9661D01*
X6397Y9656D01*
X6390Y9650D01*
X6383Y9644D01*
X6378Y9636D01*
X6373Y9628D01*
X6370Y9620D01*
X6367Y9611D01*
X6366Y9602D01*
X6365Y9593D01*
X6413D02*
X6414D01*
X6413D02*
X6414Y9587D01*
X6416Y9580D01*
X6419Y9575D01*
X6423Y9570D01*
X6428Y9566D01*
X6434Y9564D01*
X6441Y9562D01*
X6447D01*
X6454Y9564D01*
X6460Y9566D01*
X6465Y9570D01*
X6469Y9575D01*
X6472Y9580D01*
X6474Y9587D01*
X6475Y9593D01*
X6476D01*
X6475D02*
X6474Y9599D01*
X6472Y9606D01*
X6469Y9611D01*
X6465Y9616D01*
X6460Y9620D01*
X6454Y9622D01*
X6447Y9624D01*
X6441D01*
X6434Y9622D01*
X6428Y9620D01*
X6423Y9616D01*
X6419Y9611D01*
X6416Y9606D01*
X6414Y9599D01*
X6413Y9593D01*
X6444D02*
D03*
X12317Y6093D02*
X12318D01*
X12317D02*
X12317Y6083D01*
X12319Y6073D01*
X12321Y6063D01*
X12324Y6053D01*
X12327Y6043D01*
X12332Y6034D01*
X12337Y6025D01*
X12342Y6017D01*
X12349Y6009D01*
X12356Y6001D01*
X12364Y5995D01*
X12372Y5988D01*
X12380Y5983D01*
X12390Y5978D01*
X12399Y5974D01*
X12409Y5971D01*
X12419Y5969D01*
X12429Y5967D01*
X12439Y5966D01*
X12449D01*
X12459Y5967D01*
X12469Y5969D01*
X12479Y5971D01*
X12489Y5974D01*
X12498Y5978D01*
X12508Y5983D01*
X12516Y5988D01*
X12524Y5995D01*
X12532Y6001D01*
X12539Y6009D01*
X12546Y6017D01*
X12551Y6025D01*
X12556Y6034D01*
X12561Y6043D01*
X12564Y6053D01*
X12567Y6063D01*
X12569Y6073D01*
X12571Y6083D01*
X12571Y6093D01*
X12572D01*
X12571D02*
X12571Y6103D01*
X12569Y6113D01*
X12567Y6123D01*
X12564Y6133D01*
X12561Y6143D01*
X12556Y6152D01*
X12551Y6161D01*
X12546Y6169D01*
X12539Y6177D01*
X12532Y6185D01*
X12524Y6191D01*
X12516Y6198D01*
X12508Y6203D01*
X12498Y6208D01*
X12489Y6212D01*
X12479Y6215D01*
X12469Y6217D01*
X12459Y6219D01*
X12449Y6220D01*
X12439D01*
X12429Y6219D01*
X12419Y6217D01*
X12409Y6215D01*
X12399Y6212D01*
X12390Y6208D01*
X12380Y6203D01*
X12372Y6198D01*
X12364Y6191D01*
X12356Y6185D01*
X12349Y6177D01*
X12342Y6169D01*
X12337Y6161D01*
X12332Y6152D01*
X12327Y6143D01*
X12324Y6133D01*
X12321Y6123D01*
X12319Y6113D01*
X12317Y6103D01*
X12317Y6093D01*
X12365D02*
X12366D01*
X12365D02*
X12366Y6084D01*
X12367Y6075D01*
X12370Y6066D01*
X12373Y6058D01*
X12378Y6050D01*
X12383Y6042D01*
X12390Y6036D01*
X12397Y6030D01*
X12404Y6025D01*
X12413Y6020D01*
X12421Y6017D01*
X12430Y6015D01*
X12439Y6014D01*
X12449D01*
X12458Y6015D01*
X12467Y6017D01*
X12475Y6020D01*
X12484Y6025D01*
X12491Y6030D01*
X12498Y6036D01*
X12505Y6042D01*
X12510Y6050D01*
X12515Y6058D01*
X12518Y6066D01*
X12521Y6075D01*
X12522Y6084D01*
X12523Y6093D01*
X12524D01*
X12523D02*
X12522Y6102D01*
X12521Y6111D01*
X12518Y6120D01*
X12515Y6128D01*
X12510Y6136D01*
X12505Y6144D01*
X12498Y6150D01*
X12491Y6156D01*
X12484Y6161D01*
X12475Y6166D01*
X12467Y6169D01*
X12458Y6171D01*
X12449Y6172D01*
X12439D01*
X12430Y6171D01*
X12421Y6169D01*
X12413Y6166D01*
X12404Y6161D01*
X12397Y6156D01*
X12390Y6150D01*
X12383Y6144D01*
X12378Y6136D01*
X12373Y6128D01*
X12370Y6120D01*
X12367Y6111D01*
X12366Y6102D01*
X12365Y6093D01*
X12413D02*
X12414D01*
X12413D02*
X12414Y6087D01*
X12416Y6080D01*
X12419Y6075D01*
X12423Y6070D01*
X12428Y6066D01*
X12434Y6064D01*
X12441Y6062D01*
X12447D01*
X12454Y6064D01*
X12460Y6066D01*
X12465Y6070D01*
X12469Y6075D01*
X12472Y6080D01*
X12474Y6087D01*
X12475Y6093D01*
X12476D01*
X12475D02*
X12474Y6099D01*
X12472Y6106D01*
X12469Y6111D01*
X12465Y6116D01*
X12460Y6120D01*
X12454Y6122D01*
X12447Y6124D01*
X12441D01*
X12434Y6122D01*
X12428Y6120D01*
X12423Y6116D01*
X12419Y6111D01*
X12416Y6106D01*
X12414Y6099D01*
X12413Y6093D01*
X12444D02*
D03*
X12317Y9593D02*
X12318D01*
X12317D02*
X12317Y9583D01*
X12319Y9573D01*
X12321Y9563D01*
X12324Y9553D01*
X12327Y9543D01*
X12332Y9534D01*
X12337Y9525D01*
X12342Y9517D01*
X12349Y9509D01*
X12356Y9501D01*
X12364Y9495D01*
X12372Y9488D01*
X12380Y9483D01*
X12390Y9478D01*
X12399Y9474D01*
X12409Y9471D01*
X12419Y9469D01*
X12429Y9467D01*
X12439Y9466D01*
X12449D01*
X12459Y9467D01*
X12469Y9469D01*
X12479Y9471D01*
X12489Y9474D01*
X12498Y9478D01*
X12508Y9483D01*
X12516Y9488D01*
X12524Y9495D01*
X12532Y9501D01*
X12539Y9509D01*
X12546Y9517D01*
X12551Y9525D01*
X12556Y9534D01*
X12561Y9543D01*
X12564Y9553D01*
X12567Y9563D01*
X12569Y9573D01*
X12571Y9583D01*
X12571Y9593D01*
X12572D01*
X12571D02*
X12571Y9603D01*
X12569Y9613D01*
X12567Y9623D01*
X12564Y9633D01*
X12561Y9643D01*
X12556Y9652D01*
X12551Y9661D01*
X12546Y9669D01*
X12539Y9677D01*
X12532Y9685D01*
X12524Y9691D01*
X12516Y9698D01*
X12508Y9703D01*
X12498Y9708D01*
X12489Y9712D01*
X12479Y9715D01*
X12469Y9717D01*
X12459Y9719D01*
X12449Y9720D01*
X12439D01*
X12429Y9719D01*
X12419Y9717D01*
X12409Y9715D01*
X12399Y9712D01*
X12390Y9708D01*
X12380Y9703D01*
X12372Y9698D01*
X12364Y9691D01*
X12356Y9685D01*
X12349Y9677D01*
X12342Y9669D01*
X12337Y9661D01*
X12332Y9652D01*
X12327Y9643D01*
X12324Y9633D01*
X12321Y9623D01*
X12319Y9613D01*
X12317Y9603D01*
X12317Y9593D01*
X12365D02*
X12366D01*
X12365D02*
X12366Y9584D01*
X12367Y9575D01*
X12370Y9566D01*
X12373Y9558D01*
X12378Y9550D01*
X12383Y9542D01*
X12390Y9536D01*
X12397Y9530D01*
X12404Y9525D01*
X12413Y9520D01*
X12421Y9517D01*
X12430Y9515D01*
X12439Y9514D01*
X12449D01*
X12458Y9515D01*
X12467Y9517D01*
X12475Y9520D01*
X12484Y9525D01*
X12491Y9530D01*
X12498Y9536D01*
X12505Y9542D01*
X12510Y9550D01*
X12515Y9558D01*
X12518Y9566D01*
X12521Y9575D01*
X12522Y9584D01*
X12523Y9593D01*
X12524D01*
X12523D02*
X12522Y9602D01*
X12521Y9611D01*
X12518Y9620D01*
X12515Y9628D01*
X12510Y9636D01*
X12505Y9644D01*
X12498Y9650D01*
X12491Y9656D01*
X12484Y9661D01*
X12475Y9666D01*
X12467Y9669D01*
X12458Y9671D01*
X12449Y9672D01*
X12439D01*
X12430Y9671D01*
X12421Y9669D01*
X12413Y9666D01*
X12404Y9661D01*
X12397Y9656D01*
X12390Y9650D01*
X12383Y9644D01*
X12378Y9636D01*
X12373Y9628D01*
X12370Y9620D01*
X12367Y9611D01*
X12366Y9602D01*
X12365Y9593D01*
X12413D02*
X12414D01*
X12413D02*
X12414Y9587D01*
X12416Y9580D01*
X12419Y9575D01*
X12423Y9570D01*
X12428Y9566D01*
X12434Y9564D01*
X12441Y9562D01*
X12447D01*
X12454Y9564D01*
X12460Y9566D01*
X12465Y9570D01*
X12469Y9575D01*
X12472Y9580D01*
X12474Y9587D01*
X12475Y9593D01*
X12476D01*
X12475D02*
X12474Y9599D01*
X12472Y9606D01*
X12469Y9611D01*
X12465Y9616D01*
X12460Y9620D01*
X12454Y9622D01*
X12447Y9624D01*
X12441D01*
X12434Y9622D01*
X12428Y9620D01*
X12423Y9616D01*
X12419Y9611D01*
X12416Y9606D01*
X12414Y9599D01*
X12413Y9593D01*
X12444D02*
D03*
D23*
X7819Y6368D02*
D03*
X7769Y6418D02*
D03*
Y6318D02*
D03*
X8044Y6368D02*
D03*
X7994Y6418D02*
D03*
Y6318D02*
D03*
X8269Y6368D02*
D03*
X8219Y6418D02*
D03*
Y6318D02*
D03*
X8269Y6668D02*
D03*
X8219Y6718D02*
D03*
Y6618D02*
D03*
X8044Y6668D02*
D03*
X7994Y6718D02*
D03*
Y6618D02*
D03*
X7819Y6668D02*
D03*
X7769Y6718D02*
D03*
Y6618D02*
D03*
X7694Y9243D02*
D03*
X7744Y9293D02*
D03*
X7644D02*
D03*
X7694Y9443D02*
D03*
X7644Y9393D02*
D03*
X7744D02*
D03*
X6994Y9243D02*
D03*
X7044Y9293D02*
D03*
X6944D02*
D03*
X6994Y9443D02*
D03*
X6944Y9393D02*
D03*
X7044D02*
D03*
X8494Y6368D02*
D03*
X8444Y6418D02*
D03*
Y6318D02*
D03*
X8494Y6668D02*
D03*
X8444Y6718D02*
D03*
Y6618D02*
D03*
X9494Y8443D02*
D03*
X9544Y8493D02*
D03*
X9494Y8543D02*
D03*
X11194Y9243D02*
D03*
X11244Y9293D02*
D03*
X11144D02*
D03*
X11194Y9443D02*
D03*
X11144Y9393D02*
D03*
X11244D02*
D03*
X10494Y9243D02*
D03*
X10544Y9293D02*
D03*
X10444D02*
D03*
X10494Y9443D02*
D03*
X10444Y9393D02*
D03*
X10544D02*
D03*
X11694Y7243D02*
D03*
X11744Y7293D02*
D03*
X11694Y7343D02*
D03*
X11894Y9443D02*
D03*
X11944Y9493D02*
D03*
X11844D02*
D03*
X11894Y9293D02*
D03*
X11944Y9343D02*
D03*
X11844D02*
D03*
X12394Y8493D02*
D03*
X12444Y8543D02*
D03*
X12344D02*
D03*
X12394Y8293D02*
D03*
X12444Y8343D02*
D03*
X12344D02*
D03*
D25*
X12119Y6918D02*
D03*
X11794Y6518D02*
D03*
X11694Y8068D02*
D03*
X11719Y9418D02*
D03*
X11394Y9718D02*
D03*
X11444Y8518D02*
D03*
X11244Y6443D02*
D03*
X11094Y7043D02*
D03*
X11144Y6493D02*
D03*
X10919Y6743D02*
D03*
X10894Y6543D02*
D03*
Y6993D02*
D03*
Y9443D02*
D03*
X10994Y9268D02*
D03*
X10744Y6543D02*
D03*
X10794Y7743D02*
D03*
X10744Y8543D02*
D03*
X10594Y7443D02*
D03*
X10494Y6543D02*
D03*
Y6718D02*
D03*
X10594Y7743D02*
D03*
X10644Y9518D02*
D03*
X10594Y8418D02*
D03*
X10344Y7418D02*
D03*
X10444Y7443D02*
D03*
X10294Y8018D02*
D03*
X10094Y6493D02*
D03*
X10144Y7218D02*
D03*
X9919Y7243D02*
D03*
X9894Y8543D02*
D03*
X9794Y6418D02*
D03*
X9744Y7418D02*
D03*
X9769Y8043D02*
D03*
X9744Y8493D02*
D03*
X9794Y8343D02*
D03*
X9544Y7743D02*
D03*
X9644Y7443D02*
D03*
X9319Y9218D02*
D03*
X9394Y9268D02*
D03*
X9344Y9393D02*
D03*
X9394Y9468D02*
D03*
X9369Y8268D02*
D03*
X9444Y8293D02*
D03*
X9244Y7418D02*
D03*
X9144Y6718D02*
D03*
X9194Y9318D02*
D03*
X9244Y8068D02*
D03*
X9094Y7268D02*
D03*
Y8343D02*
D03*
X9044Y9193D02*
D03*
X8944D02*
D03*
X8994Y8293D02*
D03*
X8719Y7243D02*
D03*
X8894Y9393D02*
D03*
X8819Y8368D02*
D03*
X8694Y6993D02*
D03*
X8544Y6168D02*
D03*
X8594Y7268D02*
D03*
X8644Y7418D02*
D03*
X8544Y7443D02*
D03*
X8694Y9343D02*
D03*
X8619Y8118D02*
D03*
X8444Y7743D02*
D03*
X8519Y8393D02*
D03*
X8394Y8443D02*
D03*
X8144Y7418D02*
D03*
X8244Y8193D02*
D03*
X8144Y8168D02*
D03*
X8244Y8343D02*
D03*
X8319Y6168D02*
D03*
Y8568D02*
D03*
X8044Y6993D02*
D03*
X7944Y8893D02*
D03*
X7994Y8493D02*
D03*
X8094Y8568D02*
D03*
X7544Y7418D02*
D03*
X7594Y8418D02*
D03*
X7369Y6993D02*
D03*
X7444Y6593D02*
D03*
Y8893D02*
D03*
X7244Y6193D02*
D03*
X7344Y7743D02*
D03*
Y7218D02*
D03*
X7194Y6443D02*
D03*
Y8818D02*
D03*
X7144Y7443D02*
D03*
X6994Y6468D02*
D03*
X7094Y6693D02*
D03*
X7044Y7418D02*
D03*
Y6618D02*
D03*
Y8443D02*
D03*
X6944Y6193D02*
D03*
X6844Y6143D02*
D03*
X6944Y7293D02*
D03*
X6769Y7418D02*
D03*
X6869Y6993D02*
D03*
X6744Y6093D02*
D03*
X6669Y7268D02*
D03*
X6694Y7343D02*
D03*
X6469Y7218D02*
D03*
Y6768D02*
D03*
X6594Y6293D02*
D03*
Y6693D02*
D03*
X6694Y6293D02*
D03*
Y6693D02*
D03*
X6319Y6843D02*
D03*
Y7143D02*
D03*
X6419D02*
D03*
X6519D02*
D03*
X6619D02*
D03*
X6719D02*
D03*
X6819D02*
D03*
X6919D02*
D03*
X7019D02*
D03*
Y6843D02*
D03*
X6919D02*
D03*
X6819D02*
D03*
X6719D02*
D03*
X6619D02*
D03*
X6519D02*
D03*
X6419Y8443D02*
D03*
X6319Y8343D02*
D03*
X6419D02*
D03*
X6319Y8243D02*
D03*
X6419D02*
D03*
X6319Y8143D02*
D03*
X6419D02*
D03*
X6319Y8043D02*
D03*
X6419D02*
D03*
X6319Y7943D02*
D03*
X6419D02*
D03*
X6319Y7843D02*
D03*
X6419D02*
D03*
X6319Y7743D02*
D03*
X6419D02*
D03*
X6319Y7643D02*
D03*
X6419D02*
D03*
X6319Y7543D02*
D03*
X6419D02*
D03*
X6644Y8743D02*
D03*
Y9043D02*
D03*
Y9293D02*
D03*
Y9193D02*
D03*
X6744Y8593D02*
D03*
Y8193D02*
D03*
Y9043D02*
D03*
X6844D02*
D03*
X6944D02*
D03*
X7044D02*
D03*
Y8743D02*
D03*
X6944D02*
D03*
X6844D02*
D03*
X6744Y9193D02*
D03*
Y9593D02*
D03*
X7044Y6068D02*
D03*
X7144Y5968D02*
D03*
Y6068D02*
D03*
X7244Y5968D02*
D03*
Y6068D02*
D03*
X7344Y5968D02*
D03*
Y6068D02*
D03*
X7444Y5968D02*
D03*
Y6068D02*
D03*
X7544Y5968D02*
D03*
Y6068D02*
D03*
X7644Y5968D02*
D03*
Y6068D02*
D03*
X7744Y5968D02*
D03*
Y6068D02*
D03*
X7494Y6293D02*
D03*
Y6693D02*
D03*
X8094Y7143D02*
D03*
X8194D02*
D03*
X8294D02*
D03*
X8394D02*
D03*
X8494D02*
D03*
X8594D02*
D03*
X8694D02*
D03*
X8794D02*
D03*
Y6843D02*
D03*
X8694D02*
D03*
X8594D02*
D03*
X8494D02*
D03*
X8394D02*
D03*
X8294D02*
D03*
X8194D02*
D03*
X7994D02*
D03*
Y7143D02*
D03*
X6794Y6293D02*
D03*
Y6693D02*
D03*
X6994Y6293D02*
D03*
Y6693D02*
D03*
X7194Y6293D02*
D03*
Y6693D02*
D03*
X6894Y6293D02*
D03*
Y6693D02*
D03*
X7394Y6293D02*
D03*
Y6693D02*
D03*
X8044Y7893D02*
D03*
X8144D02*
D03*
X8244D02*
D03*
X8344D02*
D03*
X8444D02*
D03*
X8544D02*
D03*
X8644D02*
D03*
X8744D02*
D03*
Y7593D02*
D03*
X8644D02*
D03*
X8544D02*
D03*
X8444D02*
D03*
X8344D02*
D03*
X8244D02*
D03*
X8144D02*
D03*
X7944D02*
D03*
Y7893D02*
D03*
X7744D02*
D03*
Y7593D02*
D03*
X6944Y7893D02*
D03*
X7044D02*
D03*
X7144D02*
D03*
X7244D02*
D03*
X7344D02*
D03*
X7444D02*
D03*
X7544D02*
D03*
X7644D02*
D03*
Y7593D02*
D03*
X7544D02*
D03*
X7444D02*
D03*
X7344D02*
D03*
X7244D02*
D03*
X7144D02*
D03*
X7044D02*
D03*
X6844D02*
D03*
Y7893D02*
D03*
X7144Y6843D02*
D03*
Y7143D02*
D03*
X7269D02*
D03*
X7369D02*
D03*
X7469D02*
D03*
X7569D02*
D03*
X7669D02*
D03*
X7769D02*
D03*
X7869D02*
D03*
Y6843D02*
D03*
X7769D02*
D03*
X7669D02*
D03*
X7569D02*
D03*
X7469D02*
D03*
X7369D02*
D03*
X7344Y8343D02*
D03*
Y8043D02*
D03*
X7944Y9593D02*
D03*
Y9193D02*
D03*
X7444Y8593D02*
D03*
Y8193D02*
D03*
X7544Y8593D02*
D03*
Y8193D02*
D03*
X7644Y8593D02*
D03*
Y8193D02*
D03*
X7744Y8593D02*
D03*
Y8193D02*
D03*
X8244Y9693D02*
D03*
Y9193D02*
D03*
X7144Y9043D02*
D03*
Y8743D02*
D03*
X7344Y9293D02*
D03*
Y9193D02*
D03*
X7444Y9043D02*
D03*
X7544D02*
D03*
X7644D02*
D03*
X7744D02*
D03*
Y8743D02*
D03*
X7644D02*
D03*
X7544D02*
D03*
X7244Y9593D02*
D03*
Y9193D02*
D03*
X6844Y8593D02*
D03*
Y8193D02*
D03*
X6944Y8593D02*
D03*
Y8193D02*
D03*
X7044Y8593D02*
D03*
Y8193D02*
D03*
X7344Y8743D02*
D03*
Y9043D02*
D03*
X7844D02*
D03*
Y8743D02*
D03*
X7944D02*
D03*
Y9043D02*
D03*
X8044D02*
D03*
X8144D02*
D03*
X8244D02*
D03*
X8344D02*
D03*
Y8743D02*
D03*
X8244D02*
D03*
X8144D02*
D03*
X8094Y9193D02*
D03*
Y9593D02*
D03*
X7844Y9193D02*
D03*
Y9593D02*
D03*
X7544Y9193D02*
D03*
Y9593D02*
D03*
X7444Y9193D02*
D03*
Y9593D02*
D03*
X7144Y9193D02*
D03*
Y9593D02*
D03*
X6844Y9193D02*
D03*
Y9593D02*
D03*
X9744Y6243D02*
D03*
Y6643D02*
D03*
X8794Y6068D02*
D03*
X8894Y5968D02*
D03*
Y6068D02*
D03*
X8994Y5968D02*
D03*
Y6068D02*
D03*
X9094Y5968D02*
D03*
Y6068D02*
D03*
X9194Y5968D02*
D03*
Y6068D02*
D03*
X9294Y5968D02*
D03*
Y6068D02*
D03*
X9394Y5968D02*
D03*
Y6068D02*
D03*
X9494Y5968D02*
D03*
Y6068D02*
D03*
X9844Y6643D02*
D03*
Y6243D02*
D03*
X9494D02*
D03*
Y6643D02*
D03*
X9394Y6243D02*
D03*
Y6643D02*
D03*
X9294Y6243D02*
D03*
Y6643D02*
D03*
X9194Y6243D02*
D03*
Y6643D02*
D03*
X9094Y6243D02*
D03*
Y6643D02*
D03*
X8994Y6243D02*
D03*
Y6643D02*
D03*
X8894Y6243D02*
D03*
Y6643D02*
D03*
X8794Y6243D02*
D03*
Y6643D02*
D03*
X9144Y7893D02*
D03*
X9244D02*
D03*
X9344D02*
D03*
X9444D02*
D03*
X9544D02*
D03*
X9644D02*
D03*
X9744D02*
D03*
X9844D02*
D03*
Y7593D02*
D03*
X9744D02*
D03*
X9644D02*
D03*
X9544D02*
D03*
X9444D02*
D03*
X9344D02*
D03*
X9244D02*
D03*
X9044D02*
D03*
Y7893D02*
D03*
X8844D02*
D03*
Y7593D02*
D03*
X9869Y6843D02*
D03*
Y7143D02*
D03*
X9044D02*
D03*
X9144D02*
D03*
X9244D02*
D03*
X9344D02*
D03*
X9444D02*
D03*
X9544D02*
D03*
X9644D02*
D03*
X9744D02*
D03*
Y6843D02*
D03*
X9644D02*
D03*
X9544D02*
D03*
X9444D02*
D03*
X9344D02*
D03*
X9244D02*
D03*
X9144D02*
D03*
X8919D02*
D03*
Y7143D02*
D03*
X9044Y8593D02*
D03*
Y8193D02*
D03*
X9644Y8593D02*
D03*
Y8193D02*
D03*
X9744Y8593D02*
D03*
Y8193D02*
D03*
X9844Y9693D02*
D03*
Y9193D02*
D03*
X9244Y8593D02*
D03*
Y8193D02*
D03*
X9344Y8593D02*
D03*
Y8193D02*
D03*
X8744Y8593D02*
D03*
Y8193D02*
D03*
X8644Y8593D02*
D03*
Y8193D02*
D03*
X8444Y9043D02*
D03*
Y8743D02*
D03*
X8544D02*
D03*
Y9043D02*
D03*
X9444D02*
D03*
Y8743D02*
D03*
X9544D02*
D03*
Y9043D02*
D03*
X8644D02*
D03*
X8744D02*
D03*
X8844D02*
D03*
X8944D02*
D03*
X9044D02*
D03*
X9144D02*
D03*
X9244D02*
D03*
X9344D02*
D03*
Y8743D02*
D03*
X9244D02*
D03*
X9144D02*
D03*
X9044D02*
D03*
X8944D02*
D03*
X8844D02*
D03*
X8744D02*
D03*
X9644Y9043D02*
D03*
X9744D02*
D03*
X9844D02*
D03*
X9944D02*
D03*
Y8743D02*
D03*
X9844D02*
D03*
X9744D02*
D03*
X8444Y8343D02*
D03*
Y8043D02*
D03*
X9544Y8343D02*
D03*
Y8043D02*
D03*
X9494Y9618D02*
D03*
X9394Y9718D02*
D03*
Y9618D02*
D03*
X9294Y9718D02*
D03*
Y9618D02*
D03*
X9194Y9718D02*
D03*
Y9618D02*
D03*
X9094Y9718D02*
D03*
Y9618D02*
D03*
X8994Y9718D02*
D03*
Y9618D02*
D03*
X8894Y9718D02*
D03*
Y9618D02*
D03*
X8794Y9718D02*
D03*
Y9618D02*
D03*
X8694Y9718D02*
D03*
Y9618D02*
D03*
X8594Y9718D02*
D03*
Y9618D02*
D03*
X10344Y6593D02*
D03*
Y6393D02*
D03*
X10494Y6643D02*
D03*
Y6243D02*
D03*
X10144Y6068D02*
D03*
X10244Y5968D02*
D03*
Y6068D02*
D03*
X10344Y5968D02*
D03*
Y6068D02*
D03*
X10444Y5968D02*
D03*
Y6068D02*
D03*
X10544Y5968D02*
D03*
Y6068D02*
D03*
X10644Y5968D02*
D03*
Y6068D02*
D03*
X10744Y5968D02*
D03*
Y6068D02*
D03*
X10844Y5968D02*
D03*
Y6068D02*
D03*
X10944Y5968D02*
D03*
Y6068D02*
D03*
X11044Y5968D02*
D03*
Y6068D02*
D03*
X11194Y6643D02*
D03*
Y6243D02*
D03*
X11094D02*
D03*
Y6643D02*
D03*
X10794Y6243D02*
D03*
Y6643D02*
D03*
X10694D02*
D03*
Y6243D02*
D03*
X11444Y7943D02*
D03*
X11344D02*
D03*
X10244Y6243D02*
D03*
Y6643D02*
D03*
X10144D02*
D03*
Y6243D02*
D03*
X10044Y6643D02*
D03*
Y6243D02*
D03*
X9944D02*
D03*
Y6643D02*
D03*
X11394D02*
D03*
Y6243D02*
D03*
X9944Y7893D02*
D03*
Y7593D02*
D03*
X11294Y6243D02*
D03*
Y6643D02*
D03*
X10994D02*
D03*
Y6243D02*
D03*
X10894Y6643D02*
D03*
Y6243D02*
D03*
X10594D02*
D03*
Y6643D02*
D03*
X10094Y7593D02*
D03*
Y7893D02*
D03*
X10194D02*
D03*
X10294D02*
D03*
X10394D02*
D03*
X10494D02*
D03*
X10594D02*
D03*
X10694D02*
D03*
X10794D02*
D03*
X10894D02*
D03*
Y7593D02*
D03*
X10794D02*
D03*
X10694D02*
D03*
X10594D02*
D03*
X10494D02*
D03*
X10394D02*
D03*
X10294D02*
D03*
X10994Y7893D02*
D03*
Y7593D02*
D03*
X11094D02*
D03*
Y7993D02*
D03*
X11194D02*
D03*
Y7593D02*
D03*
X10844Y7143D02*
D03*
X10944D02*
D03*
X11044D02*
D03*
X11144D02*
D03*
X11244D02*
D03*
X11344D02*
D03*
X11444D02*
D03*
Y6843D02*
D03*
X11344D02*
D03*
X11244D02*
D03*
X11144D02*
D03*
X11044D02*
D03*
X10944D02*
D03*
X10719D02*
D03*
Y7143D02*
D03*
X9994D02*
D03*
X10094D02*
D03*
X10194D02*
D03*
X10294D02*
D03*
X10394D02*
D03*
X10494D02*
D03*
X10594D02*
D03*
Y6843D02*
D03*
X10494D02*
D03*
X10394D02*
D03*
X10294D02*
D03*
X10194D02*
D03*
X10094D02*
D03*
X10744Y9593D02*
D03*
Y9193D02*
D03*
X9994Y8443D02*
D03*
Y8243D02*
D03*
X9894Y8343D02*
D03*
X11394Y8593D02*
D03*
Y8193D02*
D03*
X10144Y9293D02*
D03*
Y9193D02*
D03*
X10544Y8593D02*
D03*
Y8193D02*
D03*
X10444Y8593D02*
D03*
Y8193D02*
D03*
X10244Y8593D02*
D03*
Y8193D02*
D03*
X10344Y8593D02*
D03*
Y8193D02*
D03*
X10844Y9293D02*
D03*
Y9193D02*
D03*
X10944Y8593D02*
D03*
Y8193D02*
D03*
X11244Y8593D02*
D03*
Y8193D02*
D03*
X11144Y8593D02*
D03*
Y8193D02*
D03*
X11044Y8593D02*
D03*
Y8193D02*
D03*
X10244Y9043D02*
D03*
X10344D02*
D03*
X10444D02*
D03*
X10544D02*
D03*
Y8743D02*
D03*
X10444D02*
D03*
X10344D02*
D03*
X11344Y9043D02*
D03*
Y8743D02*
D03*
X10844D02*
D03*
Y9043D02*
D03*
X10944D02*
D03*
X11044D02*
D03*
X11144D02*
D03*
X11244D02*
D03*
Y8743D02*
D03*
X11144D02*
D03*
X11044D02*
D03*
X10044Y9043D02*
D03*
Y8743D02*
D03*
X10144D02*
D03*
Y9043D02*
D03*
X10644D02*
D03*
Y8743D02*
D03*
Y8343D02*
D03*
Y8043D02*
D03*
X9994Y9193D02*
D03*
Y9593D02*
D03*
X10644Y9193D02*
D03*
Y9593D02*
D03*
X10344Y9193D02*
D03*
Y9593D02*
D03*
X10244Y9193D02*
D03*
Y9593D02*
D03*
X11344Y9193D02*
D03*
Y9593D02*
D03*
X11044Y9193D02*
D03*
Y9593D02*
D03*
X10944Y9193D02*
D03*
Y9593D02*
D03*
X11494Y6243D02*
D03*
Y6643D02*
D03*
X12344Y6293D02*
D03*
Y6693D02*
D03*
X12194Y7143D02*
D03*
Y6843D02*
D03*
X11694D02*
D03*
Y7143D02*
D03*
X11794D02*
D03*
X11894D02*
D03*
X11994D02*
D03*
X12094D02*
D03*
Y6843D02*
D03*
X11994D02*
D03*
X11894D02*
D03*
X12044Y7893D02*
D03*
Y7593D02*
D03*
X11544D02*
D03*
Y7893D02*
D03*
X11644D02*
D03*
X11744D02*
D03*
X11844D02*
D03*
X11944D02*
D03*
Y7593D02*
D03*
X11844D02*
D03*
X11744D02*
D03*
X12469Y7018D02*
D03*
X12569Y7118D02*
D03*
X12469D02*
D03*
X12569Y7218D02*
D03*
X12469D02*
D03*
X12569Y7318D02*
D03*
X12469D02*
D03*
X12569Y7418D02*
D03*
X12469D02*
D03*
X12569Y7518D02*
D03*
X12469D02*
D03*
X12569Y7618D02*
D03*
X12469D02*
D03*
X12569Y7718D02*
D03*
X12469D02*
D03*
X12569Y7818D02*
D03*
X12469D02*
D03*
X12569Y7918D02*
D03*
X12469D02*
D03*
X12244Y6243D02*
D03*
Y6643D02*
D03*
X11594Y6543D02*
D03*
Y6643D02*
D03*
X12144D02*
D03*
Y6243D02*
D03*
X12044Y6643D02*
D03*
Y6243D02*
D03*
X11944D02*
D03*
Y6643D02*
D03*
X11844Y6243D02*
D03*
Y6643D02*
D03*
X11744Y6243D02*
D03*
Y6643D02*
D03*
X11469Y7218D02*
D03*
Y7318D02*
D03*
X11444Y9593D02*
D03*
Y9193D02*
D03*
X12044Y8743D02*
D03*
Y9043D02*
D03*
X11944D02*
D03*
Y8743D02*
D03*
X11544Y9043D02*
D03*
X11644D02*
D03*
X11744D02*
D03*
X11844D02*
D03*
Y8743D02*
D03*
X11744D02*
D03*
X11644D02*
D03*
X11444D02*
D03*
Y9043D02*
D03*
X12544Y8693D02*
D03*
Y8793D02*
D03*
Y8193D02*
D03*
Y8593D02*
D03*
X12244Y8193D02*
D03*
Y8593D02*
D03*
X12144D02*
D03*
Y8193D02*
D03*
X12044D02*
D03*
Y8593D02*
D03*
X11744Y9593D02*
D03*
Y9193D02*
D03*
X12044Y9593D02*
D03*
Y9193D02*
D03*
X12244Y9593D02*
D03*
Y9193D02*
D03*
X12144Y9043D02*
D03*
X12244D02*
D03*
X12344D02*
D03*
X12444D02*
D03*
Y8743D02*
D03*
X12344D02*
D03*
X12244D02*
D03*
X11494Y8193D02*
D03*
Y8593D02*
D03*
X11794D02*
D03*
Y8193D02*
D03*
X11894D02*
D03*
Y8593D02*
D03*
X11694D02*
D03*
Y8193D02*
D03*
X11594D02*
D03*
Y8593D02*
D03*
X12394Y9268D02*
D03*
Y9368D02*
D03*
X12144Y9193D02*
D03*
Y9593D02*
D03*
D29*
X6369Y9318D02*
D03*
Y8850D02*
D03*
Y9006D02*
D03*
Y9162D02*
D03*
D34*
X6419Y6843D02*
D03*
X6319Y8443D02*
D03*
X6744Y8743D02*
D03*
X7044Y5968D02*
D03*
X8094Y6843D02*
D03*
X8044Y7593D02*
D03*
X6944D02*
D03*
X7269Y6843D02*
D03*
X7444Y8743D02*
D03*
X8044D02*
D03*
X8794Y5968D02*
D03*
X9144Y7593D02*
D03*
X9044Y6843D02*
D03*
X8644Y8743D02*
D03*
X9644D02*
D03*
X9494Y9718D02*
D03*
X10144Y5968D02*
D03*
X10194Y7593D02*
D03*
X10844Y6843D02*
D03*
X9994D02*
D03*
X10244Y8743D02*
D03*
X10944D02*
D03*
X11794Y6843D02*
D03*
X11644Y7593D02*
D03*
X12569Y7018D02*
D03*
X11544Y8743D02*
D03*
X12144D02*
D03*
M02*
