M48
; DRILL file {KiCad (5.1.0-1546-g4fcfd266e)} date 9/2/2019 12:57:54 PM
; FORMAT={-:-/ absolute / metric / decimal}
; #@! TF.CreationDate,2019-09-02T12:57:54-07:00
; #@! TF.GenerationSoftware,Kicad,Pcbnew,(5.1.0-1546-g4fcfd266e)
FMAT,2
METRIC
T1C0.508
T2C0.711
T3C0.762
T4C0.914
T5C1.575
T6C2.540
T7C3.200
T8C3.556
%
G90
G05
T1
X45.085Y-125.73
X46.253Y-115.57
X46.99Y-127.0
X47.727Y-116.84
X52.705Y-118.745
X53.975Y-139.065
X54.61Y-118.745
X55.88Y-126.365
X57.15Y-118.11
X57.15Y-142.24
X58.42Y-133.985
X59.69Y-118.745
X60.96Y-117.475
X60.96Y-136.525
X62.23Y-151.765
X63.5Y-127.102
X65.405Y-128.905
X66.04Y-125.73
X68.58Y-151.765
X74.93Y-113.03
X76.2Y-151.232
X76.835Y-142.24
X77.47Y-95.885
X78.065Y-150.16
X78.74Y-160.02
X78.764Y-95.689
X79.552Y-149.962
X79.91Y-95.918
X81.077Y-95.866
X81.28Y-85.725
X81.28Y-166.37
X82.55Y-95.909
X83.718Y-95.884
X83.82Y-141.605
X83.922Y-137.795
X84.455Y-83.82
X85.09Y-140.335
X85.344Y-95.732
X85.549Y-146.695
X85.702Y-147.853
X85.725Y-152.502
X86.36Y-83.82
X86.36Y-137.795
X87.052Y-95.706
X87.63Y-113.03
X87.63Y-128.905
X88.265Y-151.765
X88.29Y-165.112
X88.9Y-114.122
X88.9Y-121.742
X89.535Y-151.765
X90.17Y-140.97
X91.44Y-139.065
X91.44Y-142.24
X92.075Y-166.37
X93.345Y-86.258
X93.345Y-148.59
X94.424Y-151.663
X95.225Y-124.434
X95.25Y-84.557
X96.52Y-151.359
X101.6Y-128.905
X102.87Y-99.06
X102.87Y-109.855
X102.87Y-134.62
X103.607Y-127.737
X104.75Y-133.73
X105.41Y-99.695
X106.68Y-103.505
X107.95Y-128.372
X107.95Y-135.153
X110.49Y-107.95
X110.49Y-133.985
X111.125Y-123.825
X111.125Y-127.0
X111.43Y-146.349
X111.547Y-142.589
X113.03Y-103.505
X113.03Y-107.95
X114.3Y-100.33
X114.3Y-131.953
X115.57Y-92.71
X115.57Y-104.14
X115.57Y-107.315
X115.57Y-128.905
X115.57Y-150.495
X116.738Y-97.155
X116.738Y-112.293
X117.742Y-141.935
X118.11Y-105.41
X118.11Y-121.818
X118.11Y-138.43
X118.203Y-107.493
X118.745Y-154.305
X119.38Y-152.4
X119.519Y-97.93
X119.519Y-113.169
X119.984Y-141.359
X121.08Y-141.765
X121.183Y-107.315
X121.285Y-96.52
X121.92Y-142.875
X121.92Y-149.225
X121.92Y-152.502
X122.532Y-85.191
X122.81Y-140.36
X123.178Y-106.477
X123.19Y-107.95
X123.19Y-111.76
X123.825Y-95.885
X124.333Y-111.252
X124.46Y-84.455
X124.46Y-151.13
X125.73Y-106.578
X125.73Y-108.585
X126.365Y-85.725
X127.0Y-122.555
X127.533Y-86.995
X127.635Y-108.585
X128.043Y-104.953
X128.27Y-83.82
X128.27Y-114.3
X129.956Y-99.152
X130.175Y-112.928
X130.81Y-91.44
X130.81Y-121.183
X130.81Y-128.905
X131.089Y-98.868
X132.08Y-132.08
X135.255Y-115.57
X139.243Y-119.946
X139.7Y-109.626
X139.7Y-132.08
T2
X81.28Y-112.395
X86.13Y-112.273
X106.045Y-125.095
X107.95Y-159.385
X109.855Y-144.78
X109.855Y-149.86
X111.76Y-154.305
X113.665Y-149.86
X113.665Y-156.21
X114.935Y-140.335
X125.73Y-139.065
X128.27Y-127.0
X128.27Y-137.16
X128.27Y-156.21
X130.175Y-134.62
X136.525Y-123.848
X137.795Y-127.0
T3
X40.88Y-138.13
X40.88Y-140.87
X40.88Y-143.61
X40.88Y-146.35
X43.42Y-136.76
X43.42Y-139.5
X43.42Y-142.24
X43.42Y-144.98
X43.42Y-147.72
X40.88Y-106.38
X40.88Y-109.12
X40.88Y-111.86
X40.88Y-114.6
X43.42Y-105.01
X43.42Y-107.75
X43.42Y-110.49
X43.42Y-113.23
X43.42Y-115.97
X132.08Y-151.765
X132.08Y-154.305
X134.62Y-153.035
X134.62Y-155.575
T4
X76.2Y-158.013
X76.2Y-160.02
X76.2Y-162.027
X83.185Y-144.78
X83.185Y-147.32
X97.155Y-158.013
X97.155Y-160.02
X97.155Y-162.027
X55.88Y-130.81
X55.88Y-140.97
X118.11Y-90.17
X118.11Y-92.71
X120.65Y-90.17
X120.65Y-92.71
X123.19Y-90.17
X123.19Y-92.71
X125.73Y-90.17
X125.73Y-92.71
X128.27Y-90.17
X128.27Y-92.71
X96.52Y-115.57
X96.52Y-123.19
X114.3Y-134.62
X114.3Y-137.16
X116.84Y-134.62
X116.84Y-137.16
X119.38Y-134.62
X119.38Y-137.16
X121.92Y-134.62
X121.92Y-137.16
X124.46Y-134.62
X124.46Y-137.16
X100.965Y-154.305
X100.965Y-164.465
X69.215Y-144.78
X69.215Y-147.32
X62.23Y-130.81
X62.23Y-140.97
X55.245Y-158.013
X55.245Y-160.02
X55.245Y-162.027
X61.595Y-112.395
X64.135Y-112.395
X96.52Y-90.17
X96.52Y-92.71
X99.06Y-90.17
X99.06Y-92.71
X101.6Y-90.17
X101.6Y-92.71
X104.14Y-90.17
X104.14Y-92.71
X106.68Y-90.17
X106.68Y-92.71
X73.66Y-115.57
X73.66Y-123.19
X114.3Y-124.46
X114.3Y-127.0
X116.84Y-124.46
X116.84Y-127.0
X119.38Y-124.46
X119.38Y-127.0
X121.92Y-124.46
X121.92Y-127.0
X124.46Y-124.46
X124.46Y-127.0
X53.34Y-90.17
X53.34Y-92.71
X55.88Y-90.17
X55.88Y-92.71
X58.42Y-90.17
X58.42Y-92.71
X60.96Y-90.17
X60.96Y-92.71
X63.5Y-90.17
X63.5Y-92.71
X69.215Y-158.013
X69.215Y-160.02
X69.215Y-162.027
X66.04Y-154.305
X66.04Y-164.465
X90.17Y-144.78
X90.17Y-147.32
X53.34Y-115.57
X53.34Y-123.19
X55.88Y-115.57
X55.88Y-123.19
X58.42Y-115.57
X58.42Y-123.19
X60.96Y-115.57
X60.96Y-123.19
X63.5Y-115.57
X63.5Y-123.19
X66.04Y-115.57
X66.04Y-123.19
X68.58Y-115.57
X68.58Y-123.19
X71.12Y-115.57
X71.12Y-123.19
X51.435Y-112.395
X53.975Y-112.395
X135.89Y-110.49
X135.89Y-118.11
X74.93Y-90.17
X74.93Y-92.71
X77.47Y-90.17
X77.47Y-92.71
X80.01Y-90.17
X80.01Y-92.71
X82.55Y-90.17
X82.55Y-92.71
X85.09Y-90.17
X85.09Y-92.71
X86.995Y-154.305
X86.995Y-164.465
X62.23Y-158.013
X62.23Y-160.02
X62.23Y-162.027
X59.055Y-154.305
X59.055Y-164.465
X76.2Y-101.6
X76.2Y-109.22
X78.74Y-101.6
X78.74Y-109.22
X81.28Y-101.6
X81.28Y-109.22
X83.82Y-101.6
X83.82Y-109.22
X86.36Y-101.6
X86.36Y-109.22
X88.9Y-101.6
X88.9Y-109.22
X91.44Y-101.6
X91.44Y-109.22
X93.98Y-101.6
X93.98Y-109.22
X93.98Y-130.81
X93.98Y-140.97
X113.665Y-159.385
X113.665Y-161.925
X116.205Y-159.385
X116.205Y-161.925
X118.745Y-159.385
X118.745Y-161.925
X121.285Y-159.385
X121.285Y-161.925
X123.825Y-159.385
X123.825Y-161.925
X62.23Y-144.78
X62.23Y-147.32
X56.515Y-112.395
X59.055Y-112.395
X67.31Y-112.395
X69.85Y-112.395
X114.3Y-144.78
X114.3Y-147.32
X116.84Y-144.78
X116.84Y-147.32
X119.38Y-144.78
X119.38Y-147.32
X121.92Y-144.78
X121.92Y-147.32
X124.46Y-144.78
X124.46Y-147.32
X52.07Y-154.305
X52.07Y-164.465
X90.17Y-158.013
X90.17Y-160.02
X90.17Y-162.027
X80.01Y-154.305
X80.01Y-164.465
X68.58Y-130.81
X68.58Y-140.97
X74.93Y-130.81
X74.93Y-140.97
X73.025Y-154.305
X73.025Y-164.465
X104.14Y-144.78
X104.14Y-147.32
X100.33Y-101.6
X100.33Y-118.11
X102.87Y-101.6
X102.87Y-118.11
X105.41Y-101.6
X105.41Y-118.11
X107.95Y-101.6
X107.95Y-118.11
X110.49Y-101.6
X110.49Y-118.11
X113.03Y-101.6
X113.03Y-118.11
X115.57Y-101.6
X115.57Y-118.11
X118.11Y-101.6
X118.11Y-118.11
X120.65Y-101.6
X120.65Y-118.11
X123.19Y-101.6
X123.19Y-118.11
X125.73Y-101.6
X125.73Y-118.11
X128.27Y-101.6
X128.27Y-118.11
X130.81Y-101.6
X130.81Y-118.11
X133.35Y-101.6
X133.35Y-118.11
X83.185Y-158.013
X83.185Y-160.02
X83.185Y-162.027
X97.155Y-144.78
X97.155Y-147.32
X48.26Y-101.6
X48.26Y-109.22
X50.8Y-101.6
X50.8Y-109.22
X53.34Y-101.6
X53.34Y-109.22
X55.88Y-101.6
X55.88Y-109.22
X58.42Y-101.6
X58.42Y-109.22
X60.96Y-101.6
X60.96Y-109.22
X63.5Y-101.6
X63.5Y-109.22
X66.04Y-101.6
X66.04Y-109.22
X68.58Y-101.6
X68.58Y-109.22
X71.12Y-101.6
X71.12Y-109.22
X87.63Y-130.81
X87.63Y-140.97
X96.52Y-101.6
X96.52Y-109.22
X135.89Y-135.255
X135.89Y-145.415
X81.28Y-130.81
X81.28Y-140.97
X93.98Y-154.305
X93.98Y-164.465
X100.33Y-130.81
X100.33Y-140.97
X142.24Y-101.6
X142.24Y-104.14
X142.24Y-106.68
X142.24Y-109.22
X142.24Y-111.76
X142.24Y-114.3
X142.24Y-116.84
X142.24Y-119.38
X142.24Y-121.92
X142.24Y-124.46
X142.24Y-127.0
X142.24Y-129.54
X142.24Y-132.08
X142.24Y-134.62
X142.24Y-137.16
X142.24Y-139.7
X142.24Y-142.24
X144.78Y-101.6
X144.78Y-104.14
X144.78Y-106.68
X144.78Y-109.22
X144.78Y-111.76
X144.78Y-114.3
X144.78Y-116.84
X144.78Y-119.38
X144.78Y-121.92
X144.78Y-124.46
X144.78Y-127.0
X144.78Y-129.54
X144.78Y-132.08
X144.78Y-134.62
X144.78Y-137.16
X144.78Y-139.7
X144.78Y-142.24
X76.2Y-144.78
X76.2Y-147.32
X104.14Y-158.013
X104.14Y-160.02
X104.14Y-162.027
X132.08Y-135.255
X132.08Y-145.415
X73.66Y-101.6
X73.66Y-109.22
X76.2Y-115.57
X76.2Y-123.19
X78.74Y-115.57
X78.74Y-123.19
X81.28Y-115.57
X81.28Y-123.19
X83.82Y-115.57
X83.82Y-123.19
X86.36Y-115.57
X86.36Y-123.19
X88.9Y-115.57
X88.9Y-123.19
X91.44Y-115.57
X91.44Y-123.19
X93.98Y-115.57
X93.98Y-123.19
X55.245Y-144.78
X55.245Y-147.32
T5
X69.215Y-155.905
X69.215Y-164.135
X62.23Y-155.905
X62.23Y-164.135
X90.17Y-155.905
X90.17Y-164.135
X83.185Y-155.905
X83.185Y-164.135
X104.14Y-155.905
X104.14Y-164.135
X76.2Y-155.905
X76.2Y-164.135
X97.155Y-155.905
X97.155Y-164.135
X55.245Y-155.905
X55.245Y-164.135
T6
X42.15Y-129.74
X42.15Y-154.74
X42.15Y-97.99
X42.15Y-122.99
T7
X140.97Y-149.86
X140.97Y-157.48
T8
X36.83Y-163.83
X142.24Y-163.83
X36.83Y-88.9
X142.24Y-88.9
T0
M30
