G04 #@! TF.GenerationSoftware,KiCad,Pcbnew,(5.0.2)-1*
G04 #@! TF.CreationDate,2019-01-01T19:01:33-08:00*
G04 #@! TF.ProjectId,500-1117,3530302d-3131-4313-972e-6b696361645f,A*
G04 #@! TF.SameCoordinates,Original*
G04 #@! TF.FileFunction,Copper,L2,Bot*
G04 #@! TF.FilePolarity,Positive*
%FSLAX46Y46*%
G04 Gerber Fmt 4.6, Leading zero omitted, Abs format (unit mm)*
G04 Created by KiCad (PCBNEW (5.0.2)-1) date 1/1/2019 7:01:33 PM*
%MOMM*%
%LPD*%
G01*
G04 APERTURE LIST*
G04 #@! TA.AperFunction,ComponentPad*
%ADD10C,2.540000*%
G04 #@! TD*
G04 #@! TA.AperFunction,ComponentPad*
%ADD11C,1.574800*%
G04 #@! TD*
G04 #@! TA.AperFunction,ComponentPad*
%ADD12R,1.574800X1.574800*%
G04 #@! TD*
G04 #@! TA.AperFunction,Conductor*
%ADD13C,0.304800*%
G04 #@! TD*
G04 APERTURE END LIST*
D10*
G04 #@! TO.P,R1,*
G04 #@! TO.N,*
X114300000Y-115920000D03*
X114300000Y-102520000D03*
D11*
G04 #@! TO.P,R1,4*
G04 #@! TO.N,Net-(P1-Pad8)*
X114300000Y-110490000D03*
G04 #@! TO.P,R1,5*
G04 #@! TO.N,Net-(P1-Pad7)*
X114300000Y-107950000D03*
G04 #@! TO.P,R1,2*
G04 #@! TO.N,Net-(P1-Pad2)*
X125300000Y-109220000D03*
G04 #@! TO.P,R1,3*
G04 #@! TO.N,Net-(P1-Pad3)*
X125300000Y-105220000D03*
G04 #@! TO.P,R1,1*
G04 #@! TO.N,Net-(P1-Pad1)*
X125300000Y-113220000D03*
G04 #@! TD*
D10*
G04 #@! TO.P,R2,*
G04 #@! TO.N,*
X139700000Y-102520000D03*
X139700000Y-115920000D03*
D11*
G04 #@! TO.P,R2,4*
G04 #@! TO.N,Net-(P1-Pad10)*
X139700000Y-107950000D03*
G04 #@! TO.P,R2,5*
G04 #@! TO.N,Net-(P1-Pad9)*
X139700000Y-110490000D03*
G04 #@! TO.P,R2,2*
G04 #@! TO.N,Net-(P1-Pad5)*
X128700000Y-109220000D03*
G04 #@! TO.P,R2,3*
G04 #@! TO.N,Net-(P1-Pad6)*
X128700000Y-113220000D03*
G04 #@! TO.P,R2,1*
G04 #@! TO.N,Net-(P1-Pad4)*
X128700000Y-105220000D03*
G04 #@! TD*
D12*
G04 #@! TO.P,P1,1*
G04 #@! TO.N,Net-(P1-Pad1)*
X132715000Y-120015000D03*
D11*
G04 #@! TO.P,P1,2*
G04 #@! TO.N,Net-(P1-Pad2)*
X132715000Y-117475000D03*
G04 #@! TO.P,P1,3*
G04 #@! TO.N,Net-(P1-Pad3)*
X130175000Y-120015000D03*
G04 #@! TO.P,P1,4*
G04 #@! TO.N,Net-(P1-Pad4)*
X130175000Y-117475000D03*
G04 #@! TO.P,P1,5*
G04 #@! TO.N,Net-(P1-Pad5)*
X127635000Y-120015000D03*
G04 #@! TO.P,P1,6*
G04 #@! TO.N,Net-(P1-Pad6)*
X127635000Y-117475000D03*
G04 #@! TO.P,P1,7*
G04 #@! TO.N,Net-(P1-Pad7)*
X125095000Y-120015000D03*
G04 #@! TO.P,P1,8*
G04 #@! TO.N,Net-(P1-Pad8)*
X125095000Y-117475000D03*
G04 #@! TO.P,P1,9*
G04 #@! TO.N,Net-(P1-Pad9)*
X122555000Y-120015000D03*
G04 #@! TO.P,P1,10*
G04 #@! TO.N,Net-(P1-Pad10)*
X122555000Y-117475000D03*
G04 #@! TD*
D13*
G04 #@! TO.N,Net-(P1-Pad5)*
X128422399Y-119227601D02*
X128422399Y-118592601D01*
X127635000Y-120015000D02*
X128422399Y-119227601D01*
X128422399Y-118592601D02*
X128905000Y-118110000D01*
X128905000Y-118110000D02*
X128905000Y-116205000D01*
X128905000Y-116205000D02*
X130175000Y-114935000D01*
X130175000Y-110695000D02*
X128700000Y-109220000D01*
X130175000Y-114935000D02*
X130175000Y-110695000D01*
G04 #@! TO.N,Net-(P1-Pad6)*
X127635000Y-114285000D02*
X128700000Y-113220000D01*
X127635000Y-117475000D02*
X127635000Y-114285000D01*
G04 #@! TO.N,Net-(P1-Pad9)*
X122555000Y-121128551D02*
X123346449Y-121920000D01*
X122555000Y-120015000D02*
X122555000Y-121128551D01*
X123346449Y-121920000D02*
X140970000Y-121920000D01*
X140970000Y-121920000D02*
X142875000Y-120015000D01*
X142875000Y-120015000D02*
X142875000Y-111760000D01*
X142875000Y-111760000D02*
X141605000Y-110490000D01*
X141605000Y-110490000D02*
X139700000Y-110490000D01*
G04 #@! TO.N,Net-(P1-Pad10)*
X143510000Y-109220000D02*
X142240000Y-107950000D01*
X121441449Y-117475000D02*
X120650000Y-118266449D01*
X143510000Y-121285000D02*
X143510000Y-109220000D01*
X122555000Y-117475000D02*
X121441449Y-117475000D01*
X120650000Y-118266449D02*
X120650000Y-121285000D01*
X120650000Y-121285000D02*
X121920000Y-122555000D01*
X142240000Y-107950000D02*
X139700000Y-107950000D01*
X121920000Y-122555000D02*
X142240000Y-122555000D01*
X142240000Y-122555000D02*
X143510000Y-121285000D01*
G04 #@! TD*
M02*
