*%FSLAX23Y23*%
*%MOIN*%
G01*
%ADD11C,0.006*%
%ADD12C,0.007*%
%ADD13C,0.008*%
%ADD14C,0.010*%
%ADD15C,0.012*%
%ADD16C,0.020*%
%ADD17C,0.032*%
%ADD18C,0.036*%
%ADD19C,0.050*%
%ADD20C,0.050*%
%ADD21C,0.052*%
%ADD22C,0.054*%
%ADD23C,0.055*%
%ADD24C,0.056*%
%ADD25C,0.059*%
%ADD26C,0.062*%
%ADD27C,0.066*%
%ADD28C,0.070*%
%ADD29C,0.090*%
%ADD30C,0.125*%
%ADD31C,0.129*%
%ADD32C,0.140*%
%ADD33C,0.160*%
%ADD34C,0.250*%
%ADD35R,0.062X0.062*%
%ADD36R,0.066X0.066*%
D11*
X6760Y5768D02*
Y5808D01*
X6800D01*
Y5768D01*
X6760D01*
Y9768D02*
Y9808D01*
X6800D01*
Y9768D01*
X6760D01*
X11760Y5808D02*
Y5768D01*
Y5808D02*
X11800D01*
Y5768D01*
X11760D01*
Y9768D02*
Y9808D01*
X11800D01*
Y9768D01*
X11760D01*
X11450Y7013D02*
X11449Y7006D01*
X11445Y7000D01*
X11440Y6996D01*
X11433Y6993D01*
X11427D01*
X11420Y6996D01*
X11415Y7000D01*
X11411Y7006D01*
X11410Y7013D01*
X11411Y7020D01*
X11415Y7026D01*
X11420Y7030D01*
X11427Y7033D01*
X11433D01*
X11440Y7030D01*
X11445Y7026D01*
X11449Y7020D01*
X11450Y7013D01*
X10975Y9263D02*
X10974Y9256D01*
X10970Y9250D01*
X10965Y9246D01*
X10958Y9243D01*
X10952D01*
X10945Y9246D01*
X10940Y9250D01*
X10936Y9256D01*
X10935Y9263D01*
X10936Y9270D01*
X10940Y9276D01*
X10945Y9280D01*
X10952Y9283D01*
X10958D01*
X10965Y9280D01*
X10970Y9276D01*
X10974Y9270D01*
X10975Y9263D01*
X10675Y8913D02*
X10674Y8906D01*
X10670Y8900D01*
X10665Y8896D01*
X10658Y8893D01*
X10652D01*
X10645Y8896D01*
X10640Y8900D01*
X10636Y8906D01*
X10635Y8913D01*
X10636Y8920D01*
X10640Y8926D01*
X10645Y8930D01*
X10652Y8933D01*
X10658D01*
X10665Y8930D01*
X10670Y8926D01*
X10674Y8920D01*
X10675Y8913D01*
X10800Y7938D02*
X10799Y7931D01*
X10795Y7925D01*
X10790Y7921D01*
X10783Y7918D01*
X10777D01*
X10770Y7921D01*
X10765Y7925D01*
X10761Y7931D01*
X10760Y7938D01*
X10761Y7945D01*
X10765Y7951D01*
X10770Y7955D01*
X10777Y7958D01*
X10783D01*
X10790Y7955D01*
X10795Y7951D01*
X10799Y7945D01*
X10800Y7938D01*
Y8388D02*
X10799Y8381D01*
X10795Y8375D01*
X10790Y8371D01*
X10783Y8368D01*
X10777D01*
X10770Y8371D01*
X10765Y8375D01*
X10761Y8381D01*
X10760Y8388D01*
X10761Y8395D01*
X10765Y8401D01*
X10770Y8405D01*
X10777Y8408D01*
X10783D01*
X10790Y8405D01*
X10795Y8401D01*
X10799Y8395D01*
X10800Y8388D01*
X10550Y6888D02*
X10549Y6881D01*
X10545Y6875D01*
X10540Y6871D01*
X10533Y6868D01*
X10527D01*
X10520Y6871D01*
X10515Y6875D01*
X10511Y6881D01*
X10510Y6888D01*
X10511Y6895D01*
X10515Y6901D01*
X10520Y6905D01*
X10527Y6908D01*
X10533D01*
X10540Y6905D01*
X10545Y6901D01*
X10549Y6895D01*
X10550Y6888D01*
X10500Y7563D02*
X10499Y7556D01*
X10495Y7550D01*
X10490Y7546D01*
X10483Y7543D01*
X10477D01*
X10470Y7546D01*
X10465Y7550D01*
X10461Y7556D01*
X10460Y7563D01*
X10461Y7570D01*
X10465Y7576D01*
X10470Y7580D01*
X10477Y7583D01*
X10483D01*
X10490Y7580D01*
X10495Y7576D01*
X10499Y7570D01*
X10500Y7563D01*
X10575Y7413D02*
X10574Y7406D01*
X10570Y7400D01*
X10565Y7396D01*
X10558Y7393D01*
X10552D01*
X10545Y7396D01*
X10540Y7400D01*
X10536Y7406D01*
X10535Y7413D01*
X10536Y7420D01*
X10540Y7426D01*
X10545Y7430D01*
X10552Y7433D01*
X10558D01*
X10565Y7430D01*
X10570Y7426D01*
X10574Y7420D01*
X10575Y7413D01*
X10500Y9038D02*
X10499Y9031D01*
X10495Y9025D01*
X10490Y9021D01*
X10483Y9018D01*
X10477D01*
X10470Y9021D01*
X10465Y9025D01*
X10461Y9031D01*
X10460Y9038D01*
X10461Y9045D01*
X10465Y9051D01*
X10470Y9055D01*
X10477Y9058D01*
X10483D01*
X10490Y9055D01*
X10495Y9051D01*
X10499Y9045D01*
X10500Y9038D01*
X10600Y9088D02*
X10599Y9081D01*
X10595Y9075D01*
X10590Y9071D01*
X10583Y9068D01*
X10577D01*
X10570Y9071D01*
X10565Y9075D01*
X10561Y9081D01*
X10560Y9088D01*
X10561Y9095D01*
X10565Y9101D01*
X10570Y9105D01*
X10577Y9108D01*
X10583D01*
X10590Y9105D01*
X10595Y9101D01*
X10599Y9095D01*
X10600Y9088D01*
X10375D02*
X10374Y9081D01*
X10370Y9075D01*
X10365Y9071D01*
X10358Y9068D01*
X10352D01*
X10345Y9071D01*
X10340Y9075D01*
X10336Y9081D01*
X10335Y9088D01*
X10336Y9095D01*
X10340Y9101D01*
X10345Y9105D01*
X10352Y9108D01*
X10358D01*
X10365Y9105D01*
X10370Y9101D01*
X10374Y9095D01*
X10375Y9088D01*
X10125Y7613D02*
X10124Y7606D01*
X10120Y7600D01*
X10115Y7596D01*
X10108Y7593D01*
X10102D01*
X10095Y7596D01*
X10090Y7600D01*
X10086Y7606D01*
X10085Y7613D01*
X10086Y7620D01*
X10090Y7626D01*
X10095Y7630D01*
X10102Y7633D01*
X10108D01*
X10115Y7630D01*
X10120Y7626D01*
X10124Y7620D01*
X10125Y7613D01*
Y8238D02*
X10124Y8231D01*
X10120Y8225D01*
X10115Y8221D01*
X10108Y8218D01*
X10102D01*
X10095Y8221D01*
X10090Y8225D01*
X10086Y8231D01*
X10085Y8238D01*
X10086Y8245D01*
X10090Y8251D01*
X10095Y8255D01*
X10102Y8258D01*
X10108D01*
X10115Y8255D01*
X10120Y8251D01*
X10124Y8245D01*
X10125Y8238D01*
X10100Y9488D02*
X10099Y9481D01*
X10095Y9475D01*
X10090Y9471D01*
X10083Y9468D01*
X10077D01*
X10070Y9471D01*
X10065Y9475D01*
X10061Y9481D01*
X10060Y9488D01*
X10061Y9495D01*
X10065Y9501D01*
X10070Y9505D01*
X10077Y9508D01*
X10083D01*
X10090Y9505D01*
X10095Y9501D01*
X10099Y9495D01*
X10100Y9488D01*
X9950Y6688D02*
X9949Y6681D01*
X9945Y6675D01*
X9940Y6671D01*
X9933Y6668D01*
X9927D01*
X9920Y6671D01*
X9915Y6675D01*
X9911Y6681D01*
X9910Y6688D01*
X9911Y6695D01*
X9915Y6701D01*
X9920Y6705D01*
X9927Y6708D01*
X9933D01*
X9940Y6705D01*
X9945Y6701D01*
X9949Y6695D01*
X9950Y6688D01*
X10000Y6938D02*
X9999Y6931D01*
X9995Y6925D01*
X9990Y6921D01*
X9983Y6918D01*
X9977D01*
X9970Y6921D01*
X9965Y6925D01*
X9961Y6931D01*
X9960Y6938D01*
X9961Y6945D01*
X9965Y6951D01*
X9970Y6955D01*
X9977Y6958D01*
X9983D01*
X9990Y6955D01*
X9995Y6951D01*
X9999Y6945D01*
X10000Y6938D01*
X9850Y6388D02*
X9849Y6381D01*
X9845Y6375D01*
X9840Y6371D01*
X9833Y6368D01*
X9827D01*
X9820Y6371D01*
X9815Y6375D01*
X9811Y6381D01*
X9810Y6388D01*
X9811Y6395D01*
X9815Y6401D01*
X9820Y6405D01*
X9827Y6408D01*
X9833D01*
X9840Y6405D01*
X9845Y6401D01*
X9849Y6395D01*
X9850Y6388D01*
X9550Y6788D02*
X9549Y6781D01*
X9545Y6775D01*
X9540Y6771D01*
X9533Y6768D01*
X9527D01*
X9520Y6771D01*
X9515Y6775D01*
X9511Y6781D01*
X9510Y6788D01*
X9511Y6795D01*
X9515Y6801D01*
X9520Y6805D01*
X9527Y6808D01*
X9533D01*
X9540Y6805D01*
X9545Y6801D01*
X9549Y6795D01*
X9550Y6788D01*
X9600Y8713D02*
X9599Y8706D01*
X9595Y8700D01*
X9590Y8696D01*
X9583Y8693D01*
X9577D01*
X9570Y8696D01*
X9565Y8700D01*
X9561Y8706D01*
X9560Y8713D01*
X9561Y8720D01*
X9565Y8726D01*
X9570Y8730D01*
X9577Y8733D01*
X9583D01*
X9590Y8730D01*
X9595Y8726D01*
X9599Y8720D01*
X9600Y8713D01*
X9400Y7338D02*
X9399Y7331D01*
X9395Y7325D01*
X9390Y7321D01*
X9383Y7318D01*
X9377D01*
X9370Y7321D01*
X9365Y7325D01*
X9361Y7331D01*
X9360Y7338D01*
X9361Y7345D01*
X9365Y7351D01*
X9370Y7355D01*
X9377Y7358D01*
X9383D01*
X9390Y7355D01*
X9395Y7351D01*
X9399Y7345D01*
X9400Y7338D01*
X9000Y7388D02*
X8999Y7381D01*
X8995Y7375D01*
X8990Y7371D01*
X8983Y7368D01*
X8977D01*
X8970Y7371D01*
X8965Y7375D01*
X8961Y7381D01*
X8960Y7388D01*
X8961Y7395D01*
X8965Y7401D01*
X8970Y7405D01*
X8977Y7408D01*
X8983D01*
X8990Y7405D01*
X8995Y7401D01*
X8999Y7395D01*
X9000Y7388D01*
X8900Y8988D02*
X8899Y8981D01*
X8895Y8975D01*
X8890Y8971D01*
X8883Y8968D01*
X8877D01*
X8870Y8971D01*
X8865Y8975D01*
X8861Y8981D01*
X8860Y8988D01*
X8861Y8995D01*
X8865Y9001D01*
X8870Y9005D01*
X8877Y9008D01*
X8883D01*
X8890Y9005D01*
X8895Y9001D01*
X8899Y8995D01*
X8900Y8988D01*
X9025Y8688D02*
X9024Y8681D01*
X9020Y8675D01*
X9015Y8671D01*
X9008Y8668D01*
X9002D01*
X8995Y8671D01*
X8990Y8675D01*
X8986Y8681D01*
X8985Y8688D01*
X8986Y8695D01*
X8990Y8701D01*
X8995Y8705D01*
X9002Y8708D01*
X9008D01*
X9015Y8705D01*
X9020Y8701D01*
X9024Y8695D01*
X9025Y8688D01*
X8900Y9838D02*
X8899Y9831D01*
X8895Y9825D01*
X8890Y9821D01*
X8883Y9818D01*
X8877D01*
X8870Y9821D01*
X8865Y9825D01*
X8861Y9831D01*
X8860Y9838D01*
X8861Y9845D01*
X8865Y9851D01*
X8870Y9855D01*
X8877Y9858D01*
X8883D01*
X8890Y9855D01*
X8895Y9851D01*
X8899Y9845D01*
X8900Y9838D01*
X8800Y9138D02*
X8799Y9131D01*
X8795Y9125D01*
X8790Y9121D01*
X8783Y9118D01*
X8777D01*
X8770Y9121D01*
X8765Y9125D01*
X8761Y9131D01*
X8760Y9138D01*
X8761Y9145D01*
X8765Y9151D01*
X8770Y9155D01*
X8777Y9158D01*
X8783D01*
X8790Y9155D01*
X8795Y9151D01*
X8799Y9145D01*
X8800Y9138D01*
Y9488D02*
X8799Y9481D01*
X8795Y9475D01*
X8790Y9471D01*
X8783Y9468D01*
X8777D01*
X8770Y9471D01*
X8765Y9475D01*
X8761Y9481D01*
X8760Y9488D01*
X8761Y9495D01*
X8765Y9501D01*
X8770Y9505D01*
X8777Y9508D01*
X8783D01*
X8790Y9505D01*
X8795Y9501D01*
X8799Y9495D01*
X8800Y9488D01*
X8500Y8963D02*
X8499Y8956D01*
X8495Y8950D01*
X8490Y8946D01*
X8483Y8943D01*
X8477D01*
X8470Y8946D01*
X8465Y8950D01*
X8461Y8956D01*
X8460Y8963D01*
X8461Y8970D01*
X8465Y8976D01*
X8470Y8980D01*
X8477Y8983D01*
X8483D01*
X8490Y8980D01*
X8495Y8976D01*
X8499Y8970D01*
X8500Y8963D01*
X8650Y9063D02*
X8649Y9056D01*
X8645Y9050D01*
X8640Y9046D01*
X8633Y9043D01*
X8627D01*
X8620Y9046D01*
X8615Y9050D01*
X8611Y9056D01*
X8610Y9063D01*
X8611Y9070D01*
X8615Y9076D01*
X8620Y9080D01*
X8627Y9083D01*
X8633D01*
X8640Y9080D01*
X8645Y9076D01*
X8649Y9070D01*
X8650Y9063D01*
X8500Y8488D02*
X8499Y8481D01*
X8495Y8475D01*
X8490Y8471D01*
X8483Y8468D01*
X8477D01*
X8470Y8471D01*
X8465Y8475D01*
X8461Y8481D01*
X8460Y8488D01*
X8461Y8495D01*
X8465Y8501D01*
X8470Y8505D01*
X8477Y8508D01*
X8483D01*
X8490Y8505D01*
X8495Y8501D01*
X8499Y8495D01*
X8500Y8488D01*
X8600Y9888D02*
X8599Y9881D01*
X8595Y9875D01*
X8590Y9871D01*
X8583Y9868D01*
X8577D01*
X8570Y9871D01*
X8565Y9875D01*
X8561Y9881D01*
X8560Y9888D01*
X8561Y9895D01*
X8565Y9901D01*
X8570Y9905D01*
X8577Y9908D01*
X8583D01*
X8590Y9905D01*
X8595Y9901D01*
X8599Y9895D01*
X8600Y9888D01*
X8300Y9488D02*
X8299Y9481D01*
X8295Y9475D01*
X8290Y9471D01*
X8283Y9468D01*
X8277D01*
X8270Y9471D01*
X8265Y9475D01*
X8261Y9481D01*
X8260Y9488D01*
X8261Y9495D01*
X8265Y9501D01*
X8270Y9505D01*
X8277Y9508D01*
X8283D01*
X8290Y9505D01*
X8295Y9501D01*
X8299Y9495D01*
X8300Y9488D01*
X8400Y9788D02*
X8399Y9781D01*
X8395Y9775D01*
X8390Y9771D01*
X8383Y9768D01*
X8377D01*
X8370Y9771D01*
X8365Y9775D01*
X8361Y9781D01*
X8360Y9788D01*
X8361Y9795D01*
X8365Y9801D01*
X8370Y9805D01*
X8377Y9808D01*
X8383D01*
X8390Y9805D01*
X8395Y9801D01*
X8399Y9795D01*
X8400Y9788D01*
X8125Y7063D02*
X8124Y7056D01*
X8120Y7050D01*
X8115Y7046D01*
X8108Y7043D01*
X8102D01*
X8095Y7046D01*
X8090Y7050D01*
X8086Y7056D01*
X8085Y7063D01*
X8086Y7070D01*
X8090Y7076D01*
X8095Y7080D01*
X8102Y7083D01*
X8108D01*
X8115Y7080D01*
X8120Y7076D01*
X8124Y7070D01*
X8125Y7063D01*
X8025Y6088D02*
X8024Y6081D01*
X8020Y6075D01*
X8015Y6071D01*
X8008Y6068D01*
X8002D01*
X7995Y6071D01*
X7990Y6075D01*
X7986Y6081D01*
X7985Y6088D01*
X7986Y6095D01*
X7990Y6101D01*
X7995Y6105D01*
X8002Y6108D01*
X8008D01*
X8015Y6105D01*
X8020Y6101D01*
X8024Y6095D01*
X8025Y6088D01*
X8075Y5988D02*
X8074Y5981D01*
X8070Y5975D01*
X8065Y5971D01*
X8058Y5968D01*
X8052D01*
X8045Y5971D01*
X8040Y5975D01*
X8036Y5981D01*
X8035Y5988D01*
X8036Y5995D01*
X8040Y6001D01*
X8045Y6005D01*
X8052Y6008D01*
X8058D01*
X8065Y6005D01*
X8070Y6001D01*
X8074Y5995D01*
X8075Y5988D01*
X8050Y7138D02*
X8049Y7131D01*
X8045Y7125D01*
X8040Y7121D01*
X8033Y7118D01*
X8027D01*
X8020Y7121D01*
X8015Y7125D01*
X8011Y7131D01*
X8010Y7138D01*
X8011Y7145D01*
X8015Y7151D01*
X8020Y7155D01*
X8027Y7158D01*
X8033D01*
X8040Y7155D01*
X8045Y7151D01*
X8049Y7145D01*
X8050Y7138D01*
X7800Y6038D02*
X7799Y6031D01*
X7795Y6025D01*
X7790Y6021D01*
X7783Y6018D01*
X7777D01*
X7770Y6021D01*
X7765Y6025D01*
X7761Y6031D01*
X7760Y6038D01*
X7761Y6045D01*
X7765Y6051D01*
X7770Y6055D01*
X7777Y6058D01*
X7783D01*
X7790Y6055D01*
X7795Y6051D01*
X7799Y6045D01*
X7800Y6038D01*
X7825Y7263D02*
X7824Y7256D01*
X7820Y7250D01*
X7815Y7246D01*
X7808Y7243D01*
X7802D01*
X7795Y7246D01*
X7790Y7250D01*
X7786Y7256D01*
X7785Y7263D01*
X7786Y7270D01*
X7790Y7276D01*
X7795Y7280D01*
X7802Y7283D01*
X7808D01*
X7815Y7280D01*
X7820Y7276D01*
X7824Y7270D01*
X7825Y7263D01*
X7800Y6438D02*
X7799Y6431D01*
X7795Y6425D01*
X7790Y6421D01*
X7783Y6418D01*
X7777D01*
X7770Y6421D01*
X7765Y6425D01*
X7761Y6431D01*
X7760Y6438D01*
X7761Y6445D01*
X7765Y6451D01*
X7770Y6455D01*
X7777Y6458D01*
X7783D01*
X7790Y6455D01*
X7795Y6451D01*
X7799Y6445D01*
X7800Y6438D01*
X7850Y9488D02*
X7849Y9481D01*
X7845Y9475D01*
X7840Y9471D01*
X7833Y9468D01*
X7827D01*
X7820Y9471D01*
X7815Y9475D01*
X7811Y9481D01*
X7810Y9488D01*
X7811Y9495D01*
X7815Y9501D01*
X7820Y9505D01*
X7827Y9508D01*
X7833D01*
X7840Y9505D01*
X7845Y9501D01*
X7849Y9495D01*
X7850Y9488D01*
X7550Y7513D02*
X7549Y7506D01*
X7545Y7500D01*
X7540Y7496D01*
X7533Y7493D01*
X7527D01*
X7520Y7496D01*
X7515Y7500D01*
X7511Y7506D01*
X7510Y7513D01*
X7511Y7520D01*
X7515Y7526D01*
X7520Y7530D01*
X7527Y7533D01*
X7533D01*
X7540Y7530D01*
X7545Y7526D01*
X7549Y7520D01*
X7550Y7513D01*
X7350Y6038D02*
X7349Y6031D01*
X7345Y6025D01*
X7340Y6021D01*
X7333Y6018D01*
X7327D01*
X7320Y6021D01*
X7315Y6025D01*
X7311Y6031D01*
X7310Y6038D01*
X7311Y6045D01*
X7315Y6051D01*
X7320Y6055D01*
X7327Y6058D01*
X7333D01*
X7340Y6055D01*
X7345Y6051D01*
X7349Y6045D01*
X7350Y6038D01*
Y6538D02*
X7349Y6531D01*
X7345Y6525D01*
X7340Y6521D01*
X7333Y6518D01*
X7327D01*
X7320Y6521D01*
X7315Y6525D01*
X7311Y6531D01*
X7310Y6538D01*
X7311Y6545D01*
X7315Y6551D01*
X7320Y6555D01*
X7327Y6558D01*
X7333D01*
X7340Y6555D01*
X7345Y6551D01*
X7349Y6545D01*
X7350Y6538D01*
X7425Y6138D02*
X7424Y6131D01*
X7420Y6125D01*
X7415Y6121D01*
X7408Y6118D01*
X7402D01*
X7395Y6121D01*
X7390Y6125D01*
X7386Y6131D01*
X7385Y6138D01*
X7386Y6145D01*
X7390Y6151D01*
X7395Y6155D01*
X7402Y6158D01*
X7408D01*
X7415Y6155D01*
X7420Y6151D01*
X7424Y6145D01*
X7425Y6138D01*
X7450Y6913D02*
X7449Y6906D01*
X7445Y6900D01*
X7440Y6896D01*
X7433Y6893D01*
X7427D01*
X7420Y6896D01*
X7415Y6900D01*
X7411Y6906D01*
X7410Y6913D01*
X7411Y6920D01*
X7415Y6926D01*
X7420Y6930D01*
X7427Y6933D01*
X7433D01*
X7440Y6930D01*
X7445Y6926D01*
X7449Y6920D01*
X7450Y6913D01*
X7125Y6538D02*
X7124Y6531D01*
X7120Y6525D01*
X7115Y6521D01*
X7108Y6518D01*
X7102D01*
X7095Y6521D01*
X7090Y6525D01*
X7086Y6531D01*
X7085Y6538D01*
X7086Y6545D01*
X7090Y6551D01*
X7095Y6555D01*
X7102Y6558D01*
X7108D01*
X7115Y6555D01*
X7120Y6551D01*
X7124Y6545D01*
X7125Y6538D01*
X6975Y7938D02*
X6974Y7931D01*
X6970Y7925D01*
X6965Y7921D01*
X6958Y7918D01*
X6952D01*
X6945Y7921D01*
X6940Y7925D01*
X6936Y7931D01*
X6935Y7938D01*
X6936Y7945D01*
X6940Y7951D01*
X6945Y7955D01*
X6952Y7958D01*
X6958D01*
X6965Y7955D01*
X6970Y7951D01*
X6974Y7945D01*
X6975Y7938D01*
X6850Y8438D02*
X6849Y8431D01*
X6845Y8425D01*
X6840Y8421D01*
X6833Y8418D01*
X6827D01*
X6820Y8421D01*
X6815Y8425D01*
X6811Y8431D01*
X6810Y8438D01*
X6811Y8445D01*
X6815Y8451D01*
X6820Y8455D01*
X6827Y8458D01*
X6833D01*
X6840Y8455D01*
X6845Y8451D01*
X6849Y8445D01*
X6850Y8438D01*
X7100Y6338D02*
X7099Y6331D01*
X7095Y6325D01*
X7090Y6321D01*
X7083Y6318D01*
X7077D01*
X7070Y6321D01*
X7065Y6325D01*
X7061Y6331D01*
X7060Y6338D01*
X7061Y6345D01*
X7065Y6351D01*
X7070Y6355D01*
X7077Y6358D01*
X7083D01*
X7090Y6355D01*
X7095Y6351D01*
X7099Y6345D01*
X7100Y6338D01*
Y5938D02*
X7099Y5931D01*
X7095Y5925D01*
X7090Y5921D01*
X7083Y5918D01*
X7077D01*
X7070Y5921D01*
X7065Y5925D01*
X7061Y5931D01*
X7060Y5938D01*
X7061Y5945D01*
X7065Y5951D01*
X7070Y5955D01*
X7077Y5958D01*
X7083D01*
X7090Y5955D01*
X7095Y5951D01*
X7099Y5945D01*
X7100Y5938D01*
X6900Y7388D02*
X6899Y7381D01*
X6895Y7375D01*
X6890Y7371D01*
X6883Y7368D01*
X6877D01*
X6870Y7371D01*
X6865Y7375D01*
X6861Y7381D01*
X6860Y7388D01*
X6861Y7395D01*
X6865Y7401D01*
X6870Y7405D01*
X6877Y7408D01*
X6883D01*
X6890Y7405D01*
X6895Y7401D01*
X6899Y7395D01*
X6900Y7388D01*
X7200Y7288D02*
X7199Y7281D01*
X7195Y7275D01*
X7190Y7271D01*
X7183Y7268D01*
X7177D01*
X7170Y7271D01*
X7165Y7275D01*
X7161Y7281D01*
X7160Y7288D01*
X7161Y7295D01*
X7165Y7301D01*
X7170Y7305D01*
X7177Y7308D01*
X7183D01*
X7190Y7305D01*
X7195Y7301D01*
X7199Y7295D01*
X7200Y7288D01*
X6700D02*
X6699Y7281D01*
X6695Y7275D01*
X6690Y7271D01*
X6683Y7268D01*
X6677D01*
X6670Y7271D01*
X6665Y7275D01*
X6661Y7281D01*
X6660Y7288D01*
X6661Y7295D01*
X6665Y7301D01*
X6670Y7305D01*
X6677Y7308D01*
X6683D01*
X6690Y7305D01*
X6695Y7301D01*
X6699Y7295D01*
X6700Y7288D01*
X7100Y7188D02*
X7099Y7181D01*
X7095Y7175D01*
X7090Y7171D01*
X7083Y7168D01*
X7077D01*
X7070Y7171D01*
X7065Y7175D01*
X7061Y7181D01*
X7060Y7188D01*
X7061Y7195D01*
X7065Y7201D01*
X7070Y7205D01*
X7077Y7208D01*
X7083D01*
X7090Y7205D01*
X7095Y7201D01*
X7099Y7195D01*
X7100Y7188D01*
X6700D02*
X6699Y7181D01*
X6695Y7175D01*
X6690Y7171D01*
X6683Y7168D01*
X6677D01*
X6670Y7171D01*
X6665Y7175D01*
X6661Y7181D01*
X6660Y7188D01*
X6661Y7195D01*
X6665Y7201D01*
X6670Y7205D01*
X6677Y7208D01*
X6683D01*
X6690Y7205D01*
X6695Y7201D01*
X6699Y7195D01*
X6700Y7188D01*
X7000Y6188D02*
X6999Y6181D01*
X6995Y6175D01*
X6990Y6171D01*
X6983Y6168D01*
X6977D01*
X6970Y6171D01*
X6965Y6175D01*
X6961Y6181D01*
X6960Y6188D01*
X6961Y6195D01*
X6965Y6201D01*
X6970Y6205D01*
X6977Y6208D01*
X6983D01*
X6990Y6205D01*
X6995Y6201D01*
X6999Y6195D01*
X7000Y6188D01*
X6900D02*
X6899Y6181D01*
X6895Y6175D01*
X6890Y6171D01*
X6883Y6168D01*
X6877D01*
X6870Y6171D01*
X6865Y6175D01*
X6861Y6181D01*
X6860Y6188D01*
X6861Y6195D01*
X6865Y6201D01*
X6870Y6205D01*
X6877Y6208D01*
X6883D01*
X6890Y6205D01*
X6895Y6201D01*
X6899Y6195D01*
X6900Y6188D01*
X7000Y6288D02*
X6999Y6281D01*
X6995Y6275D01*
X6990Y6271D01*
X6983Y6268D01*
X6977D01*
X6970Y6271D01*
X6965Y6275D01*
X6961Y6281D01*
X6960Y6288D01*
X6961Y6295D01*
X6965Y6301D01*
X6970Y6305D01*
X6977Y6308D01*
X6983D01*
X6990Y6305D01*
X6995Y6301D01*
X6999Y6295D01*
X7000Y6288D01*
X6900D02*
X6899Y6281D01*
X6895Y6275D01*
X6890Y6271D01*
X6883Y6268D01*
X6877D01*
X6870Y6271D01*
X6865Y6275D01*
X6861Y6281D01*
X6860Y6288D01*
X6861Y6295D01*
X6865Y6301D01*
X6870Y6305D01*
X6877Y6308D01*
X6883D01*
X6890Y6305D01*
X6895Y6301D01*
X6899Y6295D01*
X6900Y6288D01*
X7000Y6388D02*
X6999Y6381D01*
X6995Y6375D01*
X6990Y6371D01*
X6983Y6368D01*
X6977D01*
X6970Y6371D01*
X6965Y6375D01*
X6961Y6381D01*
X6960Y6388D01*
X6961Y6395D01*
X6965Y6401D01*
X6970Y6405D01*
X6977Y6408D01*
X6983D01*
X6990Y6405D01*
X6995Y6401D01*
X6999Y6395D01*
X7000Y6388D01*
X6900D02*
X6899Y6381D01*
X6895Y6375D01*
X6890Y6371D01*
X6883Y6368D01*
X6877D01*
X6870Y6371D01*
X6865Y6375D01*
X6861Y6381D01*
X6860Y6388D01*
X6861Y6395D01*
X6865Y6401D01*
X6870Y6405D01*
X6877Y6408D01*
X6883D01*
X6890Y6405D01*
X6895Y6401D01*
X6899Y6395D01*
X6900Y6388D01*
X7000Y6488D02*
X6999Y6481D01*
X6995Y6475D01*
X6990Y6471D01*
X6983Y6468D01*
X6977D01*
X6970Y6471D01*
X6965Y6475D01*
X6961Y6481D01*
X6960Y6488D01*
X6961Y6495D01*
X6965Y6501D01*
X6970Y6505D01*
X6977Y6508D01*
X6983D01*
X6990Y6505D01*
X6995Y6501D01*
X6999Y6495D01*
X7000Y6488D01*
X6900D02*
X6899Y6481D01*
X6895Y6475D01*
X6890Y6471D01*
X6883Y6468D01*
X6877D01*
X6870Y6471D01*
X6865Y6475D01*
X6861Y6481D01*
X6860Y6488D01*
X6861Y6495D01*
X6865Y6501D01*
X6870Y6505D01*
X6877Y6508D01*
X6883D01*
X6890Y6505D01*
X6895Y6501D01*
X6899Y6495D01*
X6900Y6488D01*
X7000Y6588D02*
X6999Y6581D01*
X6995Y6575D01*
X6990Y6571D01*
X6983Y6568D01*
X6977D01*
X6970Y6571D01*
X6965Y6575D01*
X6961Y6581D01*
X6960Y6588D01*
X6961Y6595D01*
X6965Y6601D01*
X6970Y6605D01*
X6977Y6608D01*
X6983D01*
X6990Y6605D01*
X6995Y6601D01*
X6999Y6595D01*
X7000Y6588D01*
X6900D02*
X6899Y6581D01*
X6895Y6575D01*
X6890Y6571D01*
X6883Y6568D01*
X6877D01*
X6870Y6571D01*
X6865Y6575D01*
X6861Y6581D01*
X6860Y6588D01*
X6861Y6595D01*
X6865Y6601D01*
X6870Y6605D01*
X6877Y6608D01*
X6883D01*
X6890Y6605D01*
X6895Y6601D01*
X6899Y6595D01*
X6900Y6588D01*
X7000Y6688D02*
X6999Y6681D01*
X6995Y6675D01*
X6990Y6671D01*
X6983Y6668D01*
X6977D01*
X6970Y6671D01*
X6965Y6675D01*
X6961Y6681D01*
X6960Y6688D01*
X6961Y6695D01*
X6965Y6701D01*
X6970Y6705D01*
X6977Y6708D01*
X6983D01*
X6990Y6705D01*
X6995Y6701D01*
X6999Y6695D01*
X7000Y6688D01*
X6900D02*
X6899Y6681D01*
X6895Y6675D01*
X6890Y6671D01*
X6883Y6668D01*
X6877D01*
X6870Y6671D01*
X6865Y6675D01*
X6861Y6681D01*
X6860Y6688D01*
X6861Y6695D01*
X6865Y6701D01*
X6870Y6705D01*
X6877Y6708D01*
X6883D01*
X6890Y6705D01*
X6895Y6701D01*
X6899Y6695D01*
X6900Y6688D01*
X7000Y6788D02*
X6999Y6781D01*
X6995Y6775D01*
X6990Y6771D01*
X6983Y6768D01*
X6977D01*
X6970Y6771D01*
X6965Y6775D01*
X6961Y6781D01*
X6960Y6788D01*
X6961Y6795D01*
X6965Y6801D01*
X6970Y6805D01*
X6977Y6808D01*
X6983D01*
X6990Y6805D01*
X6995Y6801D01*
X6999Y6795D01*
X7000Y6788D01*
X6900D02*
X6899Y6781D01*
X6895Y6775D01*
X6890Y6771D01*
X6883Y6768D01*
X6877D01*
X6870Y6771D01*
X6865Y6775D01*
X6861Y6781D01*
X6860Y6788D01*
X6861Y6795D01*
X6865Y6801D01*
X6870Y6805D01*
X6877Y6808D01*
X6883D01*
X6890Y6805D01*
X6895Y6801D01*
X6899Y6795D01*
X6900Y6788D01*
X7000Y6888D02*
X6999Y6881D01*
X6995Y6875D01*
X6990Y6871D01*
X6983Y6868D01*
X6977D01*
X6970Y6871D01*
X6965Y6875D01*
X6961Y6881D01*
X6960Y6888D01*
X6961Y6895D01*
X6965Y6901D01*
X6970Y6905D01*
X6977Y6908D01*
X6983D01*
X6990Y6905D01*
X6995Y6901D01*
X6999Y6895D01*
X7000Y6888D01*
X6900D02*
X6899Y6881D01*
X6895Y6875D01*
X6890Y6871D01*
X6883Y6868D01*
X6877D01*
X6870Y6871D01*
X6865Y6875D01*
X6861Y6881D01*
X6860Y6888D01*
X6861Y6895D01*
X6865Y6901D01*
X6870Y6905D01*
X6877Y6908D01*
X6883D01*
X6890Y6905D01*
X6895Y6901D01*
X6899Y6895D01*
X6900Y6888D01*
X6700Y8238D02*
X6699Y8231D01*
X6695Y8225D01*
X6690Y8221D01*
X6683Y8218D01*
X6677D01*
X6670Y8221D01*
X6665Y8225D01*
X6661Y8231D01*
X6660Y8238D01*
X6661Y8245D01*
X6665Y8251D01*
X6670Y8255D01*
X6677Y8258D01*
X6683D01*
X6690Y8255D01*
X6695Y8251D01*
X6699Y8245D01*
X6700Y8238D01*
X7200D02*
X7199Y8231D01*
X7195Y8225D01*
X7190Y8221D01*
X7183Y8218D01*
X7177D01*
X7170Y8221D01*
X7165Y8225D01*
X7161Y8231D01*
X7160Y8238D01*
X7161Y8245D01*
X7165Y8251D01*
X7170Y8255D01*
X7177Y8258D01*
X7183D01*
X7190Y8255D01*
X7195Y8251D01*
X7199Y8245D01*
X7200Y8238D01*
X6900Y8338D02*
X6899Y8331D01*
X6895Y8325D01*
X6890Y8321D01*
X6883Y8318D01*
X6877D01*
X6870Y8321D01*
X6865Y8325D01*
X6861Y8331D01*
X6860Y8338D01*
X6861Y8345D01*
X6865Y8351D01*
X6870Y8355D01*
X6877Y8358D01*
X6883D01*
X6890Y8355D01*
X6895Y8351D01*
X6899Y8345D01*
X6900Y8338D01*
X6700Y8488D02*
X6699Y8481D01*
X6695Y8475D01*
X6690Y8471D01*
X6683Y8468D01*
X6677D01*
X6670Y8471D01*
X6665Y8475D01*
X6661Y8481D01*
X6660Y8488D01*
X6661Y8495D01*
X6665Y8501D01*
X6670Y8505D01*
X6677Y8508D01*
X6683D01*
X6690Y8505D01*
X6695Y8501D01*
X6699Y8495D01*
X6700Y8488D01*
X7200D02*
X7199Y8481D01*
X7195Y8475D01*
X7190Y8471D01*
X7183Y8468D01*
X7177D01*
X7170Y8471D01*
X7165Y8475D01*
X7161Y8481D01*
X7160Y8488D01*
X7161Y8495D01*
X7165Y8501D01*
X7170Y8505D01*
X7177Y8508D01*
X7183D01*
X7190Y8505D01*
X7195Y8501D01*
X7199Y8495D01*
X7200Y8488D01*
X6900Y8588D02*
X6899Y8581D01*
X6895Y8575D01*
X6890Y8571D01*
X6883Y8568D01*
X6877D01*
X6870Y8571D01*
X6865Y8575D01*
X6861Y8581D01*
X6860Y8588D01*
X6861Y8595D01*
X6865Y8601D01*
X6870Y8605D01*
X6877Y8608D01*
X6883D01*
X6890Y8605D01*
X6895Y8601D01*
X6899Y8595D01*
X6900Y8588D01*
X7050Y9638D02*
X7049Y9631D01*
X7045Y9625D01*
X7040Y9621D01*
X7033Y9618D01*
X7027D01*
X7020Y9621D01*
X7015Y9625D01*
X7011Y9631D01*
X7010Y9638D01*
X7011Y9645D01*
X7015Y9651D01*
X7020Y9655D01*
X7027Y9658D01*
X7033D01*
X7040Y9655D01*
X7045Y9651D01*
X7049Y9645D01*
X7050Y9638D01*
Y9338D02*
X7049Y9331D01*
X7045Y9325D01*
X7040Y9321D01*
X7033Y9318D01*
X7027D01*
X7020Y9321D01*
X7015Y9325D01*
X7011Y9331D01*
X7010Y9338D01*
X7011Y9345D01*
X7015Y9351D01*
X7020Y9355D01*
X7027Y9358D01*
X7033D01*
X7040Y9355D01*
X7045Y9351D01*
X7049Y9345D01*
X7050Y9338D01*
X7500Y5688D02*
X7499Y5681D01*
X7495Y5675D01*
X7490Y5671D01*
X7483Y5668D01*
X7477D01*
X7470Y5671D01*
X7465Y5675D01*
X7461Y5681D01*
X7460Y5688D01*
X7461Y5695D01*
X7465Y5701D01*
X7470Y5705D01*
X7477Y5708D01*
X7483D01*
X7490Y5705D01*
X7495Y5701D01*
X7499Y5695D01*
X7500Y5688D01*
X7200D02*
X7199Y5681D01*
X7195Y5675D01*
X7190Y5671D01*
X7183Y5668D01*
X7177D01*
X7170Y5671D01*
X7165Y5675D01*
X7161Y5681D01*
X7160Y5688D01*
X7161Y5695D01*
X7165Y5701D01*
X7170Y5705D01*
X7177Y5708D01*
X7183D01*
X7190Y5705D01*
X7195Y5701D01*
X7199Y5695D01*
X7200Y5688D01*
X7950D02*
X7949Y5681D01*
X7945Y5675D01*
X7940Y5671D01*
X7933Y5668D01*
X7927D01*
X7920Y5671D01*
X7915Y5675D01*
X7911Y5681D01*
X7910Y5688D01*
X7911Y5695D01*
X7915Y5701D01*
X7920Y5705D01*
X7927Y5708D01*
X7933D01*
X7940Y5705D01*
X7945Y5701D01*
X7949Y5695D01*
X7950Y5688D01*
X7650D02*
X7649Y5681D01*
X7645Y5675D01*
X7640Y5671D01*
X7633Y5668D01*
X7627D01*
X7620Y5671D01*
X7615Y5675D01*
X7611Y5681D01*
X7610Y5688D01*
X7611Y5695D01*
X7615Y5701D01*
X7620Y5705D01*
X7627Y5708D01*
X7633D01*
X7640Y5705D01*
X7645Y5701D01*
X7649Y5695D01*
X7650Y5688D01*
X8550Y6088D02*
X8549Y6081D01*
X8545Y6075D01*
X8540Y6071D01*
X8533Y6068D01*
X8527D01*
X8520Y6071D01*
X8515Y6075D01*
X8511Y6081D01*
X8510Y6088D01*
X8511Y6095D01*
X8515Y6101D01*
X8520Y6105D01*
X8527Y6108D01*
X8533D01*
X8540Y6105D01*
X8545Y6101D01*
X8549Y6095D01*
X8550Y6088D01*
Y5688D02*
X8549Y5681D01*
X8545Y5675D01*
X8540Y5671D01*
X8533Y5668D01*
X8527D01*
X8520Y5671D01*
X8515Y5675D01*
X8511Y5681D01*
X8510Y5688D01*
X8511Y5695D01*
X8515Y5701D01*
X8520Y5705D01*
X8527Y5708D01*
X8533D01*
X8540Y5705D01*
X8545Y5701D01*
X8549Y5695D01*
X8550Y5688D01*
X8250Y6088D02*
X8249Y6081D01*
X8245Y6075D01*
X8240Y6071D01*
X8233Y6068D01*
X8227D01*
X8220Y6071D01*
X8215Y6075D01*
X8211Y6081D01*
X8210Y6088D01*
X8211Y6095D01*
X8215Y6101D01*
X8220Y6105D01*
X8227Y6108D01*
X8233D01*
X8240Y6105D01*
X8245Y6101D01*
X8249Y6095D01*
X8250Y6088D01*
Y5688D02*
X8249Y5681D01*
X8245Y5675D01*
X8240Y5671D01*
X8233Y5668D01*
X8227D01*
X8220Y5671D01*
X8215Y5675D01*
X8211Y5681D01*
X8210Y5688D01*
X8211Y5695D01*
X8215Y5701D01*
X8220Y5705D01*
X8227Y5708D01*
X8233D01*
X8240Y5705D01*
X8245Y5701D01*
X8249Y5695D01*
X8250Y5688D01*
X8150Y6088D02*
X8149Y6081D01*
X8145Y6075D01*
X8140Y6071D01*
X8133Y6068D01*
X8127D01*
X8120Y6071D01*
X8115Y6075D01*
X8111Y6081D01*
X8110Y6088D01*
X8111Y6095D01*
X8115Y6101D01*
X8120Y6105D01*
X8127Y6108D01*
X8133D01*
X8140Y6105D01*
X8145Y6101D01*
X8149Y6095D01*
X8150Y6088D01*
Y5688D02*
X8149Y5681D01*
X8145Y5675D01*
X8140Y5671D01*
X8133Y5668D01*
X8127D01*
X8120Y5671D01*
X8115Y5675D01*
X8111Y5681D01*
X8110Y5688D01*
X8111Y5695D01*
X8115Y5701D01*
X8120Y5705D01*
X8127Y5708D01*
X8133D01*
X8140Y5705D01*
X8145Y5701D01*
X8149Y5695D01*
X8150Y5688D01*
X8450D02*
X8449Y5681D01*
X8445Y5675D01*
X8440Y5671D01*
X8433Y5668D01*
X8427D01*
X8420Y5671D01*
X8415Y5675D01*
X8411Y5681D01*
X8410Y5688D01*
X8411Y5695D01*
X8415Y5701D01*
X8420Y5705D01*
X8427Y5708D01*
X8433D01*
X8440Y5705D01*
X8445Y5701D01*
X8449Y5695D01*
X8450Y5688D01*
X8350D02*
X8349Y5681D01*
X8345Y5675D01*
X8340Y5671D01*
X8333Y5668D01*
X8327D01*
X8320Y5671D01*
X8315Y5675D01*
X8311Y5681D01*
X8310Y5688D01*
X8311Y5695D01*
X8315Y5701D01*
X8320Y5705D01*
X8327Y5708D01*
X8333D01*
X8340Y5705D01*
X8345Y5701D01*
X8349Y5695D01*
X8350Y5688D01*
X8400Y5988D02*
X8399Y5981D01*
X8395Y5975D01*
X8390Y5971D01*
X8383Y5968D01*
X8377D01*
X8370Y5971D01*
X8365Y5975D01*
X8361Y5981D01*
X8360Y5988D01*
X8361Y5995D01*
X8365Y6001D01*
X8370Y6005D01*
X8377Y6008D01*
X8383D01*
X8390Y6005D01*
X8395Y6001D01*
X8399Y5995D01*
X8400Y5988D01*
Y6088D02*
X8399Y6081D01*
X8395Y6075D01*
X8390Y6071D01*
X8383Y6068D01*
X8377D01*
X8370Y6071D01*
X8365Y6075D01*
X8361Y6081D01*
X8360Y6088D01*
X8361Y6095D01*
X8365Y6101D01*
X8370Y6105D01*
X8377Y6108D01*
X8383D01*
X8390Y6105D01*
X8395Y6101D01*
X8399Y6095D01*
X8400Y6088D01*
X8350Y5838D02*
X8349Y5831D01*
X8345Y5825D01*
X8340Y5821D01*
X8333Y5818D01*
X8327D01*
X8320Y5821D01*
X8315Y5825D01*
X8311Y5831D01*
X8310Y5838D01*
X8311Y5845D01*
X8315Y5851D01*
X8320Y5855D01*
X8327Y5858D01*
X8333D01*
X8340Y5855D01*
X8345Y5851D01*
X8349Y5845D01*
X8350Y5838D01*
X8450D02*
X8449Y5831D01*
X8445Y5825D01*
X8440Y5821D01*
X8433Y5818D01*
X8427D01*
X8420Y5821D01*
X8415Y5825D01*
X8411Y5831D01*
X8410Y5838D01*
X8411Y5845D01*
X8415Y5851D01*
X8420Y5855D01*
X8427Y5858D01*
X8433D01*
X8440Y5855D01*
X8445Y5851D01*
X8449Y5845D01*
X8450Y5838D01*
X7550Y6938D02*
X7549Y6931D01*
X7545Y6925D01*
X7540Y6921D01*
X7533Y6918D01*
X7527D01*
X7520Y6921D01*
X7515Y6925D01*
X7511Y6931D01*
X7510Y6938D01*
X7511Y6945D01*
X7515Y6951D01*
X7520Y6955D01*
X7527Y6958D01*
X7533D01*
X7540Y6955D01*
X7545Y6951D01*
X7549Y6945D01*
X7550Y6938D01*
X7150D02*
X7149Y6931D01*
X7145Y6925D01*
X7140Y6921D01*
X7133Y6918D01*
X7127D01*
X7120Y6921D01*
X7115Y6925D01*
X7111Y6931D01*
X7110Y6938D01*
X7111Y6945D01*
X7115Y6951D01*
X7120Y6955D01*
X7127Y6958D01*
X7133D01*
X7140Y6955D01*
X7145Y6951D01*
X7149Y6945D01*
X7150Y6938D01*
X7550Y7638D02*
X7549Y7631D01*
X7545Y7625D01*
X7540Y7621D01*
X7533Y7618D01*
X7527D01*
X7520Y7621D01*
X7515Y7625D01*
X7511Y7631D01*
X7510Y7638D01*
X7511Y7645D01*
X7515Y7651D01*
X7520Y7655D01*
X7527Y7658D01*
X7533D01*
X7540Y7655D01*
X7545Y7651D01*
X7549Y7645D01*
X7550Y7638D01*
Y7238D02*
X7549Y7231D01*
X7545Y7225D01*
X7540Y7221D01*
X7533Y7218D01*
X7527D01*
X7520Y7221D01*
X7515Y7225D01*
X7511Y7231D01*
X7510Y7238D01*
X7511Y7245D01*
X7515Y7251D01*
X7520Y7255D01*
X7527Y7258D01*
X7533D01*
X7540Y7255D01*
X7545Y7251D01*
X7549Y7245D01*
X7550Y7238D01*
X7200Y6688D02*
X7199Y6681D01*
X7195Y6675D01*
X7190Y6671D01*
X7183Y6668D01*
X7177D01*
X7170Y6671D01*
X7165Y6675D01*
X7161Y6681D01*
X7160Y6688D01*
X7161Y6695D01*
X7165Y6701D01*
X7170Y6705D01*
X7177Y6708D01*
X7183D01*
X7190Y6705D01*
X7195Y6701D01*
X7199Y6695D01*
X7200Y6688D01*
X7500D02*
X7499Y6681D01*
X7495Y6675D01*
X7490Y6671D01*
X7483Y6668D01*
X7477D01*
X7470Y6671D01*
X7465Y6675D01*
X7461Y6681D01*
X7460Y6688D01*
X7461Y6695D01*
X7465Y6701D01*
X7470Y6705D01*
X7477Y6708D01*
X7483D01*
X7490Y6705D01*
X7495Y6701D01*
X7499Y6695D01*
X7500Y6688D01*
X7200Y6538D02*
X7199Y6531D01*
X7195Y6525D01*
X7190Y6521D01*
X7183Y6518D01*
X7177D01*
X7170Y6521D01*
X7165Y6525D01*
X7161Y6531D01*
X7160Y6538D01*
X7161Y6545D01*
X7165Y6551D01*
X7170Y6555D01*
X7177Y6558D01*
X7183D01*
X7190Y6555D01*
X7195Y6551D01*
X7199Y6545D01*
X7200Y6538D01*
Y6438D02*
X7199Y6431D01*
X7195Y6425D01*
X7190Y6421D01*
X7183Y6418D01*
X7177D01*
X7170Y6421D01*
X7165Y6425D01*
X7161Y6431D01*
X7160Y6438D01*
X7161Y6445D01*
X7165Y6451D01*
X7170Y6455D01*
X7177Y6458D01*
X7183D01*
X7190Y6455D01*
X7195Y6451D01*
X7199Y6445D01*
X7200Y6438D01*
Y6338D02*
X7199Y6331D01*
X7195Y6325D01*
X7190Y6321D01*
X7183Y6318D01*
X7177D01*
X7170Y6321D01*
X7165Y6325D01*
X7161Y6331D01*
X7160Y6338D01*
X7161Y6345D01*
X7165Y6351D01*
X7170Y6355D01*
X7177Y6358D01*
X7183D01*
X7190Y6355D01*
X7195Y6351D01*
X7199Y6345D01*
X7200Y6338D01*
Y6238D02*
X7199Y6231D01*
X7195Y6225D01*
X7190Y6221D01*
X7183Y6218D01*
X7177D01*
X7170Y6221D01*
X7165Y6225D01*
X7161Y6231D01*
X7160Y6238D01*
X7161Y6245D01*
X7165Y6251D01*
X7170Y6255D01*
X7177Y6258D01*
X7183D01*
X7190Y6255D01*
X7195Y6251D01*
X7199Y6245D01*
X7200Y6238D01*
Y6138D02*
X7199Y6131D01*
X7195Y6125D01*
X7190Y6121D01*
X7183Y6118D01*
X7177D01*
X7170Y6121D01*
X7165Y6125D01*
X7161Y6131D01*
X7160Y6138D01*
X7161Y6145D01*
X7165Y6151D01*
X7170Y6155D01*
X7177Y6158D01*
X7183D01*
X7190Y6155D01*
X7195Y6151D01*
X7199Y6145D01*
X7200Y6138D01*
Y6038D02*
X7199Y6031D01*
X7195Y6025D01*
X7190Y6021D01*
X7183Y6018D01*
X7177D01*
X7170Y6021D01*
X7165Y6025D01*
X7161Y6031D01*
X7160Y6038D01*
X7161Y6045D01*
X7165Y6051D01*
X7170Y6055D01*
X7177Y6058D01*
X7183D01*
X7190Y6055D01*
X7195Y6051D01*
X7199Y6045D01*
X7200Y6038D01*
Y5938D02*
X7199Y5931D01*
X7195Y5925D01*
X7190Y5921D01*
X7183Y5918D01*
X7177D01*
X7170Y5921D01*
X7165Y5925D01*
X7161Y5931D01*
X7160Y5938D01*
X7161Y5945D01*
X7165Y5951D01*
X7170Y5955D01*
X7177Y5958D01*
X7183D01*
X7190Y5955D01*
X7195Y5951D01*
X7199Y5945D01*
X7200Y5938D01*
Y5838D02*
X7199Y5831D01*
X7195Y5825D01*
X7190Y5821D01*
X7183Y5818D01*
X7177D01*
X7170Y5821D01*
X7165Y5825D01*
X7161Y5831D01*
X7160Y5838D01*
X7161Y5845D01*
X7165Y5851D01*
X7170Y5855D01*
X7177Y5858D01*
X7183D01*
X7190Y5855D01*
X7195Y5851D01*
X7199Y5845D01*
X7200Y5838D01*
X7500D02*
X7499Y5831D01*
X7495Y5825D01*
X7490Y5821D01*
X7483Y5818D01*
X7477D01*
X7470Y5821D01*
X7465Y5825D01*
X7461Y5831D01*
X7460Y5838D01*
X7461Y5845D01*
X7465Y5851D01*
X7470Y5855D01*
X7477Y5858D01*
X7483D01*
X7490Y5855D01*
X7495Y5851D01*
X7499Y5845D01*
X7500Y5838D01*
Y5938D02*
X7499Y5931D01*
X7495Y5925D01*
X7490Y5921D01*
X7483Y5918D01*
X7477D01*
X7470Y5921D01*
X7465Y5925D01*
X7461Y5931D01*
X7460Y5938D01*
X7461Y5945D01*
X7465Y5951D01*
X7470Y5955D01*
X7477Y5958D01*
X7483D01*
X7490Y5955D01*
X7495Y5951D01*
X7499Y5945D01*
X7500Y5938D01*
Y6038D02*
X7499Y6031D01*
X7495Y6025D01*
X7490Y6021D01*
X7483Y6018D01*
X7477D01*
X7470Y6021D01*
X7465Y6025D01*
X7461Y6031D01*
X7460Y6038D01*
X7461Y6045D01*
X7465Y6051D01*
X7470Y6055D01*
X7477Y6058D01*
X7483D01*
X7490Y6055D01*
X7495Y6051D01*
X7499Y6045D01*
X7500Y6038D01*
Y6138D02*
X7499Y6131D01*
X7495Y6125D01*
X7490Y6121D01*
X7483Y6118D01*
X7477D01*
X7470Y6121D01*
X7465Y6125D01*
X7461Y6131D01*
X7460Y6138D01*
X7461Y6145D01*
X7465Y6151D01*
X7470Y6155D01*
X7477Y6158D01*
X7483D01*
X7490Y6155D01*
X7495Y6151D01*
X7499Y6145D01*
X7500Y6138D01*
Y6238D02*
X7499Y6231D01*
X7495Y6225D01*
X7490Y6221D01*
X7483Y6218D01*
X7477D01*
X7470Y6221D01*
X7465Y6225D01*
X7461Y6231D01*
X7460Y6238D01*
X7461Y6245D01*
X7465Y6251D01*
X7470Y6255D01*
X7477Y6258D01*
X7483D01*
X7490Y6255D01*
X7495Y6251D01*
X7499Y6245D01*
X7500Y6238D01*
Y6338D02*
X7499Y6331D01*
X7495Y6325D01*
X7490Y6321D01*
X7483Y6318D01*
X7477D01*
X7470Y6321D01*
X7465Y6325D01*
X7461Y6331D01*
X7460Y6338D01*
X7461Y6345D01*
X7465Y6351D01*
X7470Y6355D01*
X7477Y6358D01*
X7483D01*
X7490Y6355D01*
X7495Y6351D01*
X7499Y6345D01*
X7500Y6338D01*
Y6438D02*
X7499Y6431D01*
X7495Y6425D01*
X7490Y6421D01*
X7483Y6418D01*
X7477D01*
X7470Y6421D01*
X7465Y6425D01*
X7461Y6431D01*
X7460Y6438D01*
X7461Y6445D01*
X7465Y6451D01*
X7470Y6455D01*
X7477Y6458D01*
X7483D01*
X7490Y6455D01*
X7495Y6451D01*
X7499Y6445D01*
X7500Y6438D01*
Y6538D02*
X7499Y6531D01*
X7495Y6525D01*
X7490Y6521D01*
X7483Y6518D01*
X7477D01*
X7470Y6521D01*
X7465Y6525D01*
X7461Y6531D01*
X7460Y6538D01*
X7461Y6545D01*
X7465Y6551D01*
X7470Y6555D01*
X7477Y6558D01*
X7483D01*
X7490Y6555D01*
X7495Y6551D01*
X7499Y6545D01*
X7500Y6538D01*
X7650D02*
X7649Y6531D01*
X7645Y6525D01*
X7640Y6521D01*
X7633Y6518D01*
X7627D01*
X7620Y6521D01*
X7615Y6525D01*
X7611Y6531D01*
X7610Y6538D01*
X7611Y6545D01*
X7615Y6551D01*
X7620Y6555D01*
X7627Y6558D01*
X7633D01*
X7640Y6555D01*
X7645Y6551D01*
X7649Y6545D01*
X7650Y6538D01*
Y6438D02*
X7649Y6431D01*
X7645Y6425D01*
X7640Y6421D01*
X7633Y6418D01*
X7627D01*
X7620Y6421D01*
X7615Y6425D01*
X7611Y6431D01*
X7610Y6438D01*
X7611Y6445D01*
X7615Y6451D01*
X7620Y6455D01*
X7627Y6458D01*
X7633D01*
X7640Y6455D01*
X7645Y6451D01*
X7649Y6445D01*
X7650Y6438D01*
Y6338D02*
X7649Y6331D01*
X7645Y6325D01*
X7640Y6321D01*
X7633Y6318D01*
X7627D01*
X7620Y6321D01*
X7615Y6325D01*
X7611Y6331D01*
X7610Y6338D01*
X7611Y6345D01*
X7615Y6351D01*
X7620Y6355D01*
X7627Y6358D01*
X7633D01*
X7640Y6355D01*
X7645Y6351D01*
X7649Y6345D01*
X7650Y6338D01*
Y6238D02*
X7649Y6231D01*
X7645Y6225D01*
X7640Y6221D01*
X7633Y6218D01*
X7627D01*
X7620Y6221D01*
X7615Y6225D01*
X7611Y6231D01*
X7610Y6238D01*
X7611Y6245D01*
X7615Y6251D01*
X7620Y6255D01*
X7627Y6258D01*
X7633D01*
X7640Y6255D01*
X7645Y6251D01*
X7649Y6245D01*
X7650Y6238D01*
Y6138D02*
X7649Y6131D01*
X7645Y6125D01*
X7640Y6121D01*
X7633Y6118D01*
X7627D01*
X7620Y6121D01*
X7615Y6125D01*
X7611Y6131D01*
X7610Y6138D01*
X7611Y6145D01*
X7615Y6151D01*
X7620Y6155D01*
X7627Y6158D01*
X7633D01*
X7640Y6155D01*
X7645Y6151D01*
X7649Y6145D01*
X7650Y6138D01*
Y6038D02*
X7649Y6031D01*
X7645Y6025D01*
X7640Y6021D01*
X7633Y6018D01*
X7627D01*
X7620Y6021D01*
X7615Y6025D01*
X7611Y6031D01*
X7610Y6038D01*
X7611Y6045D01*
X7615Y6051D01*
X7620Y6055D01*
X7627Y6058D01*
X7633D01*
X7640Y6055D01*
X7645Y6051D01*
X7649Y6045D01*
X7650Y6038D01*
Y5938D02*
X7649Y5931D01*
X7645Y5925D01*
X7640Y5921D01*
X7633Y5918D01*
X7627D01*
X7620Y5921D01*
X7615Y5925D01*
X7611Y5931D01*
X7610Y5938D01*
X7611Y5945D01*
X7615Y5951D01*
X7620Y5955D01*
X7627Y5958D01*
X7633D01*
X7640Y5955D01*
X7645Y5951D01*
X7649Y5945D01*
X7650Y5938D01*
Y5838D02*
X7649Y5831D01*
X7645Y5825D01*
X7640Y5821D01*
X7633Y5818D01*
X7627D01*
X7620Y5821D01*
X7615Y5825D01*
X7611Y5831D01*
X7610Y5838D01*
X7611Y5845D01*
X7615Y5851D01*
X7620Y5855D01*
X7627Y5858D01*
X7633D01*
X7640Y5855D01*
X7645Y5851D01*
X7649Y5845D01*
X7650Y5838D01*
X7950D02*
X7949Y5831D01*
X7945Y5825D01*
X7940Y5821D01*
X7933Y5818D01*
X7927D01*
X7920Y5821D01*
X7915Y5825D01*
X7911Y5831D01*
X7910Y5838D01*
X7911Y5845D01*
X7915Y5851D01*
X7920Y5855D01*
X7927Y5858D01*
X7933D01*
X7940Y5855D01*
X7945Y5851D01*
X7949Y5845D01*
X7950Y5838D01*
Y5938D02*
X7949Y5931D01*
X7945Y5925D01*
X7940Y5921D01*
X7933Y5918D01*
X7927D01*
X7920Y5921D01*
X7915Y5925D01*
X7911Y5931D01*
X7910Y5938D01*
X7911Y5945D01*
X7915Y5951D01*
X7920Y5955D01*
X7927Y5958D01*
X7933D01*
X7940Y5955D01*
X7945Y5951D01*
X7949Y5945D01*
X7950Y5938D01*
Y6038D02*
X7949Y6031D01*
X7945Y6025D01*
X7940Y6021D01*
X7933Y6018D01*
X7927D01*
X7920Y6021D01*
X7915Y6025D01*
X7911Y6031D01*
X7910Y6038D01*
X7911Y6045D01*
X7915Y6051D01*
X7920Y6055D01*
X7927Y6058D01*
X7933D01*
X7940Y6055D01*
X7945Y6051D01*
X7949Y6045D01*
X7950Y6038D01*
Y6138D02*
X7949Y6131D01*
X7945Y6125D01*
X7940Y6121D01*
X7933Y6118D01*
X7927D01*
X7920Y6121D01*
X7915Y6125D01*
X7911Y6131D01*
X7910Y6138D01*
X7911Y6145D01*
X7915Y6151D01*
X7920Y6155D01*
X7927Y6158D01*
X7933D01*
X7940Y6155D01*
X7945Y6151D01*
X7949Y6145D01*
X7950Y6138D01*
Y6238D02*
X7949Y6231D01*
X7945Y6225D01*
X7940Y6221D01*
X7933Y6218D01*
X7927D01*
X7920Y6221D01*
X7915Y6225D01*
X7911Y6231D01*
X7910Y6238D01*
X7911Y6245D01*
X7915Y6251D01*
X7920Y6255D01*
X7927Y6258D01*
X7933D01*
X7940Y6255D01*
X7945Y6251D01*
X7949Y6245D01*
X7950Y6238D01*
Y6338D02*
X7949Y6331D01*
X7945Y6325D01*
X7940Y6321D01*
X7933Y6318D01*
X7927D01*
X7920Y6321D01*
X7915Y6325D01*
X7911Y6331D01*
X7910Y6338D01*
X7911Y6345D01*
X7915Y6351D01*
X7920Y6355D01*
X7927Y6358D01*
X7933D01*
X7940Y6355D01*
X7945Y6351D01*
X7949Y6345D01*
X7950Y6338D01*
Y6438D02*
X7949Y6431D01*
X7945Y6425D01*
X7940Y6421D01*
X7933Y6418D01*
X7927D01*
X7920Y6421D01*
X7915Y6425D01*
X7911Y6431D01*
X7910Y6438D01*
X7911Y6445D01*
X7915Y6451D01*
X7920Y6455D01*
X7927Y6458D01*
X7933D01*
X7940Y6455D01*
X7945Y6451D01*
X7949Y6445D01*
X7950Y6438D01*
Y6538D02*
X7949Y6531D01*
X7945Y6525D01*
X7940Y6521D01*
X7933Y6518D01*
X7927D01*
X7920Y6521D01*
X7915Y6525D01*
X7911Y6531D01*
X7910Y6538D01*
X7911Y6545D01*
X7915Y6551D01*
X7920Y6555D01*
X7927Y6558D01*
X7933D01*
X7940Y6555D01*
X7945Y6551D01*
X7949Y6545D01*
X7950Y6538D01*
Y6688D02*
X7949Y6681D01*
X7945Y6675D01*
X7940Y6671D01*
X7933Y6668D01*
X7927D01*
X7920Y6671D01*
X7915Y6675D01*
X7911Y6681D01*
X7910Y6688D01*
X7911Y6695D01*
X7915Y6701D01*
X7920Y6705D01*
X7927Y6708D01*
X7933D01*
X7940Y6705D01*
X7945Y6701D01*
X7949Y6695D01*
X7950Y6688D01*
X7650D02*
X7649Y6681D01*
X7645Y6675D01*
X7640Y6671D01*
X7633Y6668D01*
X7627D01*
X7620Y6671D01*
X7615Y6675D01*
X7611Y6681D01*
X7610Y6688D01*
X7611Y6695D01*
X7615Y6701D01*
X7620Y6705D01*
X7627Y6708D01*
X7633D01*
X7640Y6705D01*
X7645Y6701D01*
X7649Y6695D01*
X7650Y6688D01*
X8150Y6538D02*
X8149Y6531D01*
X8145Y6525D01*
X8140Y6521D01*
X8133Y6518D01*
X8127D01*
X8120Y6521D01*
X8115Y6525D01*
X8111Y6531D01*
X8110Y6538D01*
X8111Y6545D01*
X8115Y6551D01*
X8120Y6555D01*
X8127Y6558D01*
X8133D01*
X8140Y6555D01*
X8145Y6551D01*
X8149Y6545D01*
X8150Y6538D01*
Y6238D02*
X8149Y6231D01*
X8145Y6225D01*
X8140Y6221D01*
X8133Y6218D01*
X8127D01*
X8120Y6221D01*
X8115Y6225D01*
X8111Y6231D01*
X8110Y6238D01*
X8111Y6245D01*
X8115Y6251D01*
X8120Y6255D01*
X8127Y6258D01*
X8133D01*
X8140Y6255D01*
X8145Y6251D01*
X8149Y6245D01*
X8150Y6238D01*
X8650D02*
X8649Y6231D01*
X8645Y6225D01*
X8640Y6221D01*
X8633Y6218D01*
X8627D01*
X8620Y6221D01*
X8615Y6225D01*
X8611Y6231D01*
X8610Y6238D01*
X8611Y6245D01*
X8615Y6251D01*
X8620Y6255D01*
X8627Y6258D01*
X8633D01*
X8640Y6255D01*
X8645Y6251D01*
X8649Y6245D01*
X8650Y6238D01*
Y6538D02*
X8649Y6531D01*
X8645Y6525D01*
X8640Y6521D01*
X8633Y6518D01*
X8627D01*
X8620Y6521D01*
X8615Y6525D01*
X8611Y6531D01*
X8610Y6538D01*
X8611Y6545D01*
X8615Y6551D01*
X8620Y6555D01*
X8627Y6558D01*
X8633D01*
X8640Y6555D01*
X8645Y6551D01*
X8649Y6545D01*
X8650Y6538D01*
X8250D02*
X8249Y6531D01*
X8245Y6525D01*
X8240Y6521D01*
X8233Y6518D01*
X8227D01*
X8220Y6521D01*
X8215Y6525D01*
X8211Y6531D01*
X8210Y6538D01*
X8211Y6545D01*
X8215Y6551D01*
X8220Y6555D01*
X8227Y6558D01*
X8233D01*
X8240Y6555D01*
X8245Y6551D01*
X8249Y6545D01*
X8250Y6538D01*
X8350D02*
X8349Y6531D01*
X8345Y6525D01*
X8340Y6521D01*
X8333Y6518D01*
X8327D01*
X8320Y6521D01*
X8315Y6525D01*
X8311Y6531D01*
X8310Y6538D01*
X8311Y6545D01*
X8315Y6551D01*
X8320Y6555D01*
X8327Y6558D01*
X8333D01*
X8340Y6555D01*
X8345Y6551D01*
X8349Y6545D01*
X8350Y6538D01*
X8450D02*
X8449Y6531D01*
X8445Y6525D01*
X8440Y6521D01*
X8433Y6518D01*
X8427D01*
X8420Y6521D01*
X8415Y6525D01*
X8411Y6531D01*
X8410Y6538D01*
X8411Y6545D01*
X8415Y6551D01*
X8420Y6555D01*
X8427Y6558D01*
X8433D01*
X8440Y6555D01*
X8445Y6551D01*
X8449Y6545D01*
X8450Y6538D01*
X8550D02*
X8549Y6531D01*
X8545Y6525D01*
X8540Y6521D01*
X8533Y6518D01*
X8527D01*
X8520Y6521D01*
X8515Y6525D01*
X8511Y6531D01*
X8510Y6538D01*
X8511Y6545D01*
X8515Y6551D01*
X8520Y6555D01*
X8527Y6558D01*
X8533D01*
X8540Y6555D01*
X8545Y6551D01*
X8549Y6545D01*
X8550Y6538D01*
Y6238D02*
X8549Y6231D01*
X8545Y6225D01*
X8540Y6221D01*
X8533Y6218D01*
X8527D01*
X8520Y6221D01*
X8515Y6225D01*
X8511Y6231D01*
X8510Y6238D01*
X8511Y6245D01*
X8515Y6251D01*
X8520Y6255D01*
X8527Y6258D01*
X8533D01*
X8540Y6255D01*
X8545Y6251D01*
X8549Y6245D01*
X8550Y6238D01*
X8450D02*
X8449Y6231D01*
X8445Y6225D01*
X8440Y6221D01*
X8433Y6218D01*
X8427D01*
X8420Y6221D01*
X8415Y6225D01*
X8411Y6231D01*
X8410Y6238D01*
X8411Y6245D01*
X8415Y6251D01*
X8420Y6255D01*
X8427Y6258D01*
X8433D01*
X8440Y6255D01*
X8445Y6251D01*
X8449Y6245D01*
X8450Y6238D01*
X8350D02*
X8349Y6231D01*
X8345Y6225D01*
X8340Y6221D01*
X8333Y6218D01*
X8327D01*
X8320Y6221D01*
X8315Y6225D01*
X8311Y6231D01*
X8310Y6238D01*
X8311Y6245D01*
X8315Y6251D01*
X8320Y6255D01*
X8327Y6258D01*
X8333D01*
X8340Y6255D01*
X8345Y6251D01*
X8349Y6245D01*
X8350Y6238D01*
X8250D02*
X8249Y6231D01*
X8245Y6225D01*
X8240Y6221D01*
X8233Y6218D01*
X8227D01*
X8220Y6221D01*
X8215Y6225D01*
X8211Y6231D01*
X8210Y6238D01*
X8211Y6245D01*
X8215Y6251D01*
X8220Y6255D01*
X8227Y6258D01*
X8233D01*
X8240Y6255D01*
X8245Y6251D01*
X8249Y6245D01*
X8250Y6238D01*
Y7088D02*
X8249Y7081D01*
X8245Y7075D01*
X8240Y7071D01*
X8233Y7068D01*
X8227D01*
X8220Y7071D01*
X8215Y7075D01*
X8211Y7081D01*
X8210Y7088D01*
X8211Y7095D01*
X8215Y7101D01*
X8220Y7105D01*
X8227Y7108D01*
X8233D01*
X8240Y7105D01*
X8245Y7101D01*
X8249Y7095D01*
X8250Y7088D01*
Y6688D02*
X8249Y6681D01*
X8245Y6675D01*
X8240Y6671D01*
X8233Y6668D01*
X8227D01*
X8220Y6671D01*
X8215Y6675D01*
X8211Y6681D01*
X8210Y6688D01*
X8211Y6695D01*
X8215Y6701D01*
X8220Y6705D01*
X8227Y6708D01*
X8233D01*
X8240Y6705D01*
X8245Y6701D01*
X8249Y6695D01*
X8250Y6688D01*
X8350Y7088D02*
X8349Y7081D01*
X8345Y7075D01*
X8340Y7071D01*
X8333Y7068D01*
X8327D01*
X8320Y7071D01*
X8315Y7075D01*
X8311Y7081D01*
X8310Y7088D01*
X8311Y7095D01*
X8315Y7101D01*
X8320Y7105D01*
X8327Y7108D01*
X8333D01*
X8340Y7105D01*
X8345Y7101D01*
X8349Y7095D01*
X8350Y7088D01*
Y6688D02*
X8349Y6681D01*
X8345Y6675D01*
X8340Y6671D01*
X8333Y6668D01*
X8327D01*
X8320Y6671D01*
X8315Y6675D01*
X8311Y6681D01*
X8310Y6688D01*
X8311Y6695D01*
X8315Y6701D01*
X8320Y6705D01*
X8327Y6708D01*
X8333D01*
X8340Y6705D01*
X8345Y6701D01*
X8349Y6695D01*
X8350Y6688D01*
X8450Y7088D02*
X8449Y7081D01*
X8445Y7075D01*
X8440Y7071D01*
X8433Y7068D01*
X8427D01*
X8420Y7071D01*
X8415Y7075D01*
X8411Y7081D01*
X8410Y7088D01*
X8411Y7095D01*
X8415Y7101D01*
X8420Y7105D01*
X8427Y7108D01*
X8433D01*
X8440Y7105D01*
X8445Y7101D01*
X8449Y7095D01*
X8450Y7088D01*
Y6688D02*
X8449Y6681D01*
X8445Y6675D01*
X8440Y6671D01*
X8433Y6668D01*
X8427D01*
X8420Y6671D01*
X8415Y6675D01*
X8411Y6681D01*
X8410Y6688D01*
X8411Y6695D01*
X8415Y6701D01*
X8420Y6705D01*
X8427Y6708D01*
X8433D01*
X8440Y6705D01*
X8445Y6701D01*
X8449Y6695D01*
X8450Y6688D01*
X7650Y7638D02*
X7649Y7631D01*
X7645Y7625D01*
X7640Y7621D01*
X7633Y7618D01*
X7627D01*
X7620Y7621D01*
X7615Y7625D01*
X7611Y7631D01*
X7610Y7638D01*
X7611Y7645D01*
X7615Y7651D01*
X7620Y7655D01*
X7627Y7658D01*
X7633D01*
X7640Y7655D01*
X7645Y7651D01*
X7649Y7645D01*
X7650Y7638D01*
Y7238D02*
X7649Y7231D01*
X7645Y7225D01*
X7640Y7221D01*
X7633Y7218D01*
X7627D01*
X7620Y7221D01*
X7615Y7225D01*
X7611Y7231D01*
X7610Y7238D01*
X7611Y7245D01*
X7615Y7251D01*
X7620Y7255D01*
X7627Y7258D01*
X7633D01*
X7640Y7255D01*
X7645Y7251D01*
X7649Y7245D01*
X7650Y7238D01*
X7750Y7638D02*
X7749Y7631D01*
X7745Y7625D01*
X7740Y7621D01*
X7733Y7618D01*
X7727D01*
X7720Y7621D01*
X7715Y7625D01*
X7711Y7631D01*
X7710Y7638D01*
X7711Y7645D01*
X7715Y7651D01*
X7720Y7655D01*
X7727Y7658D01*
X7733D01*
X7740Y7655D01*
X7745Y7651D01*
X7749Y7645D01*
X7750Y7638D01*
Y7238D02*
X7749Y7231D01*
X7745Y7225D01*
X7740Y7221D01*
X7733Y7218D01*
X7727D01*
X7720Y7221D01*
X7715Y7225D01*
X7711Y7231D01*
X7710Y7238D01*
X7711Y7245D01*
X7715Y7251D01*
X7720Y7255D01*
X7727Y7258D01*
X7733D01*
X7740Y7255D01*
X7745Y7251D01*
X7749Y7245D01*
X7750Y7238D01*
X7450Y7638D02*
X7449Y7631D01*
X7445Y7625D01*
X7440Y7621D01*
X7433Y7618D01*
X7427D01*
X7420Y7621D01*
X7415Y7625D01*
X7411Y7631D01*
X7410Y7638D01*
X7411Y7645D01*
X7415Y7651D01*
X7420Y7655D01*
X7427Y7658D01*
X7433D01*
X7440Y7655D01*
X7445Y7651D01*
X7449Y7645D01*
X7450Y7638D01*
Y7238D02*
X7449Y7231D01*
X7445Y7225D01*
X7440Y7221D01*
X7433Y7218D01*
X7427D01*
X7420Y7221D01*
X7415Y7225D01*
X7411Y7231D01*
X7410Y7238D01*
X7411Y7245D01*
X7415Y7251D01*
X7420Y7255D01*
X7427Y7258D01*
X7433D01*
X7440Y7255D01*
X7445Y7251D01*
X7449Y7245D01*
X7450Y7238D01*
X7210Y7108D02*
X7230Y7068D01*
X7210Y7108D02*
X7250D01*
X7230Y7068D01*
X7280Y7118D02*
X7260Y7158D01*
X7300D01*
X7280Y7118D01*
X7310Y7108D02*
X7330Y7068D01*
X7310Y7108D02*
X7350D01*
X7330Y7068D01*
X7850Y7488D02*
X7849Y7481D01*
X7845Y7475D01*
X7840Y7471D01*
X7833Y7468D01*
X7827D01*
X7820Y7471D01*
X7815Y7475D01*
X7811Y7481D01*
X7810Y7488D01*
X7811Y7495D01*
X7815Y7501D01*
X7820Y7505D01*
X7827Y7508D01*
X7833D01*
X7840Y7505D01*
X7845Y7501D01*
X7849Y7495D01*
X7850Y7488D01*
Y7388D02*
X7849Y7381D01*
X7845Y7375D01*
X7840Y7371D01*
X7833Y7368D01*
X7827D01*
X7820Y7371D01*
X7815Y7375D01*
X7811Y7381D01*
X7810Y7388D01*
X7811Y7395D01*
X7815Y7401D01*
X7820Y7405D01*
X7827Y7408D01*
X7833D01*
X7840Y7405D01*
X7845Y7401D01*
X7849Y7395D01*
X7850Y7388D01*
X7550Y6838D02*
X7549Y6831D01*
X7545Y6825D01*
X7540Y6821D01*
X7533Y6818D01*
X7527D01*
X7520Y6821D01*
X7515Y6825D01*
X7511Y6831D01*
X7510Y6838D01*
X7511Y6845D01*
X7515Y6851D01*
X7520Y6855D01*
X7527Y6858D01*
X7533D01*
X7540Y6855D01*
X7545Y6851D01*
X7549Y6845D01*
X7550Y6838D01*
X7150D02*
X7149Y6831D01*
X7145Y6825D01*
X7140Y6821D01*
X7133Y6818D01*
X7127D01*
X7120Y6821D01*
X7115Y6825D01*
X7111Y6831D01*
X7110Y6838D01*
X7111Y6845D01*
X7115Y6851D01*
X7120Y6855D01*
X7127Y6858D01*
X7133D01*
X7140Y6855D01*
X7145Y6851D01*
X7149Y6845D01*
X7150Y6838D01*
X8050Y6988D02*
X8049Y6981D01*
X8045Y6975D01*
X8040Y6971D01*
X8033Y6968D01*
X8027D01*
X8020Y6971D01*
X8015Y6975D01*
X8011Y6981D01*
X8010Y6988D01*
X8011Y6995D01*
X8015Y7001D01*
X8020Y7005D01*
X8027Y7008D01*
X8033D01*
X8040Y7005D01*
X8045Y7001D01*
X8049Y6995D01*
X8050Y6988D01*
X7650D02*
X7649Y6981D01*
X7645Y6975D01*
X7640Y6971D01*
X7633Y6968D01*
X7627D01*
X7620Y6971D01*
X7615Y6975D01*
X7611Y6981D01*
X7610Y6988D01*
X7611Y6995D01*
X7615Y7001D01*
X7620Y7005D01*
X7627Y7008D01*
X7633D01*
X7640Y7005D01*
X7645Y7001D01*
X7649Y6995D01*
X7650Y6988D01*
X8100Y6688D02*
X8099Y6681D01*
X8095Y6675D01*
X8090Y6671D01*
X8083Y6668D01*
X8077D01*
X8070Y6671D01*
X8065Y6675D01*
X8061Y6681D01*
X8060Y6688D01*
X8061Y6695D01*
X8065Y6701D01*
X8070Y6705D01*
X8077Y6708D01*
X8083D01*
X8090Y6705D01*
X8095Y6701D01*
X8099Y6695D01*
X8100Y6688D01*
Y6788D02*
X8099Y6781D01*
X8095Y6775D01*
X8090Y6771D01*
X8083Y6768D01*
X8077D01*
X8070Y6771D01*
X8065Y6775D01*
X8061Y6781D01*
X8060Y6788D01*
X8061Y6795D01*
X8065Y6801D01*
X8070Y6805D01*
X8077Y6808D01*
X8083D01*
X8090Y6805D01*
X8095Y6801D01*
X8099Y6795D01*
X8100Y6788D01*
X8600Y6988D02*
X8599Y6981D01*
X8595Y6975D01*
X8590Y6971D01*
X8583Y6968D01*
X8577D01*
X8570Y6971D01*
X8565Y6975D01*
X8561Y6981D01*
X8560Y6988D01*
X8561Y6995D01*
X8565Y7001D01*
X8570Y7005D01*
X8577Y7008D01*
X8583D01*
X8590Y7005D01*
X8595Y7001D01*
X8599Y6995D01*
X8600Y6988D01*
Y7088D02*
X8599Y7081D01*
X8595Y7075D01*
X8590Y7071D01*
X8583Y7068D01*
X8577D01*
X8570Y7071D01*
X8565Y7075D01*
X8561Y7081D01*
X8560Y7088D01*
X8561Y7095D01*
X8565Y7101D01*
X8570Y7105D01*
X8577Y7108D01*
X8583D01*
X8590Y7105D01*
X8595Y7101D01*
X8599Y7095D01*
X8600Y7088D01*
X8050Y5838D02*
X8049Y5831D01*
X8045Y5825D01*
X8040Y5821D01*
X8033Y5818D01*
X8027D01*
X8020Y5821D01*
X8015Y5825D01*
X8011Y5831D01*
X8010Y5838D01*
X8011Y5845D01*
X8015Y5851D01*
X8020Y5855D01*
X8027Y5858D01*
X8033D01*
X8040Y5855D01*
X8045Y5851D01*
X8049Y5845D01*
X8050Y5838D01*
Y6238D02*
X8049Y6231D01*
X8045Y6225D01*
X8040Y6221D01*
X8033Y6218D01*
X8027D01*
X8020Y6221D01*
X8015Y6225D01*
X8011Y6231D01*
X8010Y6238D01*
X8011Y6245D01*
X8015Y6251D01*
X8020Y6255D01*
X8027Y6258D01*
X8033D01*
X8040Y6255D01*
X8045Y6251D01*
X8049Y6245D01*
X8050Y6238D01*
X8550Y6788D02*
X8549Y6781D01*
X8545Y6775D01*
X8540Y6771D01*
X8533Y6768D01*
X8527D01*
X8520Y6771D01*
X8515Y6775D01*
X8511Y6781D01*
X8510Y6788D01*
X8511Y6795D01*
X8515Y6801D01*
X8520Y6805D01*
X8527Y6808D01*
X8533D01*
X8540Y6805D01*
X8545Y6801D01*
X8549Y6795D01*
X8550Y6788D01*
Y6688D02*
X8549Y6681D01*
X8545Y6675D01*
X8540Y6671D01*
X8533Y6668D01*
X8527D01*
X8520Y6671D01*
X8515Y6675D01*
X8511Y6681D01*
X8510Y6688D01*
X8511Y6695D01*
X8515Y6701D01*
X8520Y6705D01*
X8527Y6708D01*
X8533D01*
X8540Y6705D01*
X8545Y6701D01*
X8549Y6695D01*
X8550Y6688D01*
X8250Y7238D02*
X8249Y7231D01*
X8245Y7225D01*
X8240Y7221D01*
X8233Y7218D01*
X8227D01*
X8220Y7221D01*
X8215Y7225D01*
X8211Y7231D01*
X8210Y7238D01*
X8211Y7245D01*
X8215Y7251D01*
X8220Y7255D01*
X8227Y7258D01*
X8233D01*
X8240Y7255D01*
X8245Y7251D01*
X8249Y7245D01*
X8250Y7238D01*
Y7638D02*
X8249Y7631D01*
X8245Y7625D01*
X8240Y7621D01*
X8233Y7618D01*
X8227D01*
X8220Y7621D01*
X8215Y7625D01*
X8211Y7631D01*
X8210Y7638D01*
X8211Y7645D01*
X8215Y7651D01*
X8220Y7655D01*
X8227Y7658D01*
X8233D01*
X8240Y7655D01*
X8245Y7651D01*
X8249Y7645D01*
X8250Y7638D01*
X8150Y7238D02*
X8149Y7231D01*
X8145Y7225D01*
X8140Y7221D01*
X8133Y7218D01*
X8127D01*
X8120Y7221D01*
X8115Y7225D01*
X8111Y7231D01*
X8110Y7238D01*
X8111Y7245D01*
X8115Y7251D01*
X8120Y7255D01*
X8127Y7258D01*
X8133D01*
X8140Y7255D01*
X8145Y7251D01*
X8149Y7245D01*
X8150Y7238D01*
Y7638D02*
X8149Y7631D01*
X8145Y7625D01*
X8140Y7621D01*
X8133Y7618D01*
X8127D01*
X8120Y7621D01*
X8115Y7625D01*
X8111Y7631D01*
X8110Y7638D01*
X8111Y7645D01*
X8115Y7651D01*
X8120Y7655D01*
X8127Y7658D01*
X8133D01*
X8140Y7655D01*
X8145Y7651D01*
X8149Y7645D01*
X8150Y7638D01*
X8625Y7788D02*
X8624Y7781D01*
X8620Y7775D01*
X8615Y7771D01*
X8608Y7768D01*
X8602D01*
X8595Y7771D01*
X8590Y7775D01*
X8586Y7781D01*
X8585Y7788D01*
X8586Y7795D01*
X8590Y7801D01*
X8595Y7805D01*
X8602Y7808D01*
X8608D01*
X8615Y7805D01*
X8620Y7801D01*
X8624Y7795D01*
X8625Y7788D01*
Y8088D02*
X8624Y8081D01*
X8620Y8075D01*
X8615Y8071D01*
X8608Y8068D01*
X8602D01*
X8595Y8071D01*
X8590Y8075D01*
X8586Y8081D01*
X8585Y8088D01*
X8586Y8095D01*
X8590Y8101D01*
X8595Y8105D01*
X8602Y8108D01*
X8608D01*
X8615Y8105D01*
X8620Y8101D01*
X8624Y8095D01*
X8625Y8088D01*
X8025D02*
X8024Y8081D01*
X8020Y8075D01*
X8015Y8071D01*
X8008Y8068D01*
X8002D01*
X7995Y8071D01*
X7990Y8075D01*
X7986Y8081D01*
X7985Y8088D01*
X7986Y8095D01*
X7990Y8101D01*
X7995Y8105D01*
X8002Y8108D01*
X8008D01*
X8015Y8105D01*
X8020Y8101D01*
X8024Y8095D01*
X8025Y8088D01*
Y7788D02*
X8024Y7781D01*
X8020Y7775D01*
X8015Y7771D01*
X8008Y7768D01*
X8002D01*
X7995Y7771D01*
X7990Y7775D01*
X7986Y7781D01*
X7985Y7788D01*
X7986Y7795D01*
X7990Y7801D01*
X7995Y7805D01*
X8002Y7808D01*
X8008D01*
X8015Y7805D01*
X8020Y7801D01*
X8024Y7795D01*
X8025Y7788D01*
X8600Y8788D02*
X8599Y8781D01*
X8595Y8775D01*
X8590Y8771D01*
X8583Y8768D01*
X8577D01*
X8570Y8771D01*
X8565Y8775D01*
X8561Y8781D01*
X8560Y8788D01*
X8561Y8795D01*
X8565Y8801D01*
X8570Y8805D01*
X8577Y8808D01*
X8583D01*
X8590Y8805D01*
X8595Y8801D01*
X8599Y8795D01*
X8600Y8788D01*
Y9188D02*
X8599Y9181D01*
X8595Y9175D01*
X8590Y9171D01*
X8583Y9168D01*
X8577D01*
X8570Y9171D01*
X8565Y9175D01*
X8561Y9181D01*
X8560Y9188D01*
X8561Y9195D01*
X8565Y9201D01*
X8570Y9205D01*
X8577Y9208D01*
X8583D01*
X8590Y9205D01*
X8595Y9201D01*
X8599Y9195D01*
X8600Y9188D01*
X7300Y8088D02*
X7299Y8081D01*
X7295Y8075D01*
X7290Y8071D01*
X7283Y8068D01*
X7277D01*
X7270Y8071D01*
X7265Y8075D01*
X7261Y8081D01*
X7260Y8088D01*
X7261Y8095D01*
X7265Y8101D01*
X7270Y8105D01*
X7277Y8108D01*
X7283D01*
X7290Y8105D01*
X7295Y8101D01*
X7299Y8095D01*
X7300Y8088D01*
Y7788D02*
X7299Y7781D01*
X7295Y7775D01*
X7290Y7771D01*
X7283Y7768D01*
X7277D01*
X7270Y7771D01*
X7265Y7775D01*
X7261Y7781D01*
X7260Y7788D01*
X7261Y7795D01*
X7265Y7801D01*
X7270Y7805D01*
X7277Y7808D01*
X7283D01*
X7290Y7805D01*
X7295Y7801D01*
X7299Y7795D01*
X7300Y7788D01*
X7450D02*
X7449Y7781D01*
X7445Y7775D01*
X7440Y7771D01*
X7433Y7768D01*
X7427D01*
X7420Y7771D01*
X7415Y7775D01*
X7411Y7781D01*
X7410Y7788D01*
X7411Y7795D01*
X7415Y7801D01*
X7420Y7805D01*
X7427Y7808D01*
X7433D01*
X7440Y7805D01*
X7445Y7801D01*
X7449Y7795D01*
X7450Y7788D01*
X7550D02*
X7549Y7781D01*
X7545Y7775D01*
X7540Y7771D01*
X7533Y7768D01*
X7527D01*
X7520Y7771D01*
X7515Y7775D01*
X7511Y7781D01*
X7510Y7788D01*
X7511Y7795D01*
X7515Y7801D01*
X7520Y7805D01*
X7527Y7808D01*
X7533D01*
X7540Y7805D01*
X7545Y7801D01*
X7549Y7795D01*
X7550Y7788D01*
X7650D02*
X7649Y7781D01*
X7645Y7775D01*
X7640Y7771D01*
X7633Y7768D01*
X7627D01*
X7620Y7771D01*
X7615Y7775D01*
X7611Y7781D01*
X7610Y7788D01*
X7611Y7795D01*
X7615Y7801D01*
X7620Y7805D01*
X7627Y7808D01*
X7633D01*
X7640Y7805D01*
X7645Y7801D01*
X7649Y7795D01*
X7650Y7788D01*
X7750D02*
X7749Y7781D01*
X7745Y7775D01*
X7740Y7771D01*
X7733Y7768D01*
X7727D01*
X7720Y7771D01*
X7715Y7775D01*
X7711Y7781D01*
X7710Y7788D01*
X7711Y7795D01*
X7715Y7801D01*
X7720Y7805D01*
X7727Y7808D01*
X7733D01*
X7740Y7805D01*
X7745Y7801D01*
X7749Y7795D01*
X7750Y7788D01*
Y8088D02*
X7749Y8081D01*
X7745Y8075D01*
X7740Y8071D01*
X7733Y8068D01*
X7727D01*
X7720Y8071D01*
X7715Y8075D01*
X7711Y8081D01*
X7710Y8088D01*
X7711Y8095D01*
X7715Y8101D01*
X7720Y8105D01*
X7727Y8108D01*
X7733D01*
X7740Y8105D01*
X7745Y8101D01*
X7749Y8095D01*
X7750Y8088D01*
X7650D02*
X7649Y8081D01*
X7645Y8075D01*
X7640Y8071D01*
X7633Y8068D01*
X7627D01*
X7620Y8071D01*
X7615Y8075D01*
X7611Y8081D01*
X7610Y8088D01*
X7611Y8095D01*
X7615Y8101D01*
X7620Y8105D01*
X7627Y8108D01*
X7633D01*
X7640Y8105D01*
X7645Y8101D01*
X7649Y8095D01*
X7650Y8088D01*
X7550D02*
X7549Y8081D01*
X7545Y8075D01*
X7540Y8071D01*
X7533Y8068D01*
X7527D01*
X7520Y8071D01*
X7515Y8075D01*
X7511Y8081D01*
X7510Y8088D01*
X7511Y8095D01*
X7515Y8101D01*
X7520Y8105D01*
X7527Y8108D01*
X7533D01*
X7540Y8105D01*
X7545Y8101D01*
X7549Y8095D01*
X7550Y8088D01*
X7450D02*
X7449Y8081D01*
X7445Y8075D01*
X7440Y8071D01*
X7433Y8068D01*
X7427D01*
X7420Y8071D01*
X7415Y8075D01*
X7411Y8081D01*
X7410Y8088D01*
X7411Y8095D01*
X7415Y8101D01*
X7420Y8105D01*
X7427Y8108D01*
X7433D01*
X7440Y8105D01*
X7445Y8101D01*
X7449Y8095D01*
X7450Y8088D01*
X7850Y7788D02*
X7849Y7781D01*
X7845Y7775D01*
X7840Y7771D01*
X7833Y7768D01*
X7827D01*
X7820Y7771D01*
X7815Y7775D01*
X7811Y7781D01*
X7810Y7788D01*
X7811Y7795D01*
X7815Y7801D01*
X7820Y7805D01*
X7827Y7808D01*
X7833D01*
X7840Y7805D01*
X7845Y7801D01*
X7849Y7795D01*
X7850Y7788D01*
Y8088D02*
X7849Y8081D01*
X7845Y8075D01*
X7840Y8071D01*
X7833Y8068D01*
X7827D01*
X7820Y8071D01*
X7815Y8075D01*
X7811Y8081D01*
X7810Y8088D01*
X7811Y8095D01*
X7815Y8101D01*
X7820Y8105D01*
X7827Y8108D01*
X7833D01*
X7840Y8105D01*
X7845Y8101D01*
X7849Y8095D01*
X7850Y8088D01*
Y9188D02*
X7849Y9181D01*
X7845Y9175D01*
X7840Y9171D01*
X7833Y9168D01*
X7827D01*
X7820Y9171D01*
X7815Y9175D01*
X7811Y9181D01*
X7810Y9188D01*
X7811Y9195D01*
X7815Y9201D01*
X7820Y9205D01*
X7827Y9208D01*
X7833D01*
X7840Y9205D01*
X7845Y9201D01*
X7849Y9195D01*
X7850Y9188D01*
Y8688D02*
X7849Y8681D01*
X7845Y8675D01*
X7840Y8671D01*
X7833Y8668D01*
X7827D01*
X7820Y8671D01*
X7815Y8675D01*
X7811Y8681D01*
X7810Y8688D01*
X7811Y8695D01*
X7815Y8701D01*
X7820Y8705D01*
X7827Y8708D01*
X7833D01*
X7840Y8705D01*
X7845Y8701D01*
X7849Y8695D01*
X7850Y8688D01*
X8400Y9188D02*
X8399Y9181D01*
X8395Y9175D01*
X8390Y9171D01*
X8383Y9168D01*
X8377D01*
X8370Y9171D01*
X8365Y9175D01*
X8361Y9181D01*
X8360Y9188D01*
X8361Y9195D01*
X8365Y9201D01*
X8370Y9205D01*
X8377Y9208D01*
X8383D01*
X8390Y9205D01*
X8395Y9201D01*
X8399Y9195D01*
X8400Y9188D01*
Y8788D02*
X8399Y8781D01*
X8395Y8775D01*
X8390Y8771D01*
X8383Y8768D01*
X8377D01*
X8370Y8771D01*
X8365Y8775D01*
X8361Y8781D01*
X8360Y8788D01*
X8361Y8795D01*
X8365Y8801D01*
X8370Y8805D01*
X8377Y8808D01*
X8383D01*
X8390Y8805D01*
X8395Y8801D01*
X8399Y8795D01*
X8400Y8788D01*
X8050Y9188D02*
X8049Y9181D01*
X8045Y9175D01*
X8040Y9171D01*
X8033Y9168D01*
X8027D01*
X8020Y9171D01*
X8015Y9175D01*
X8011Y9181D01*
X8010Y9188D01*
X8011Y9195D01*
X8015Y9201D01*
X8020Y9205D01*
X8027Y9208D01*
X8033D01*
X8040Y9205D01*
X8045Y9201D01*
X8049Y9195D01*
X8050Y9188D01*
Y8788D02*
X8049Y8781D01*
X8045Y8775D01*
X8040Y8771D01*
X8033Y8768D01*
X8027D01*
X8020Y8771D01*
X8015Y8775D01*
X8011Y8781D01*
X8010Y8788D01*
X8011Y8795D01*
X8015Y8801D01*
X8020Y8805D01*
X8027Y8808D01*
X8033D01*
X8040Y8805D01*
X8045Y8801D01*
X8049Y8795D01*
X8050Y8788D01*
X7680Y9118D02*
X7660Y9158D01*
X7700D01*
X7680Y9118D01*
X7630Y9068D02*
X7610Y9108D01*
X7650D01*
X7630Y9068D01*
X7660Y9058D02*
X7680Y9018D01*
X7660Y9058D02*
X7700D01*
X7680Y9018D01*
X7250Y8788D02*
X7249Y8781D01*
X7245Y8775D01*
X7240Y8771D01*
X7233Y8768D01*
X7227D01*
X7220Y8771D01*
X7215Y8775D01*
X7211Y8781D01*
X7210Y8788D01*
X7211Y8795D01*
X7215Y8801D01*
X7220Y8805D01*
X7227Y8808D01*
X7233D01*
X7240Y8805D01*
X7245Y8801D01*
X7249Y8795D01*
X7250Y8788D01*
Y9188D02*
X7249Y9181D01*
X7245Y9175D01*
X7240Y9171D01*
X7233Y9168D01*
X7227D01*
X7220Y9171D01*
X7215Y9175D01*
X7211Y9181D01*
X7210Y9188D01*
X7211Y9195D01*
X7215Y9201D01*
X7220Y9205D01*
X7227Y9208D01*
X7233D01*
X7240Y9205D01*
X7245Y9201D01*
X7249Y9195D01*
X7250Y9188D01*
X7350Y8788D02*
X7349Y8781D01*
X7345Y8775D01*
X7340Y8771D01*
X7333Y8768D01*
X7327D01*
X7320Y8771D01*
X7315Y8775D01*
X7311Y8781D01*
X7310Y8788D01*
X7311Y8795D01*
X7315Y8801D01*
X7320Y8805D01*
X7327Y8808D01*
X7333D01*
X7340Y8805D01*
X7345Y8801D01*
X7349Y8795D01*
X7350Y8788D01*
Y9188D02*
X7349Y9181D01*
X7345Y9175D01*
X7340Y9171D01*
X7333Y9168D01*
X7327D01*
X7320Y9171D01*
X7315Y9175D01*
X7311Y9181D01*
X7310Y9188D01*
X7311Y9195D01*
X7315Y9201D01*
X7320Y9205D01*
X7327Y9208D01*
X7333D01*
X7340Y9205D01*
X7345Y9201D01*
X7349Y9195D01*
X7350Y9188D01*
X7550D02*
X7549Y9181D01*
X7545Y9175D01*
X7540Y9171D01*
X7533Y9168D01*
X7527D01*
X7520Y9171D01*
X7515Y9175D01*
X7511Y9181D01*
X7510Y9188D01*
X7511Y9195D01*
X7515Y9201D01*
X7520Y9205D01*
X7527Y9208D01*
X7533D01*
X7540Y9205D01*
X7545Y9201D01*
X7549Y9195D01*
X7550Y9188D01*
Y8788D02*
X7549Y8781D01*
X7545Y8775D01*
X7540Y8771D01*
X7533Y8768D01*
X7527D01*
X7520Y8771D01*
X7515Y8775D01*
X7511Y8781D01*
X7510Y8788D01*
X7511Y8795D01*
X7515Y8801D01*
X7520Y8805D01*
X7527Y8808D01*
X7533D01*
X7540Y8805D01*
X7545Y8801D01*
X7549Y8795D01*
X7550Y8788D01*
X7450Y9038D02*
X7449Y9031D01*
X7445Y9025D01*
X7440Y9021D01*
X7433Y9018D01*
X7427D01*
X7420Y9021D01*
X7415Y9025D01*
X7411Y9031D01*
X7410Y9038D01*
X7411Y9045D01*
X7415Y9051D01*
X7420Y9055D01*
X7427Y9058D01*
X7433D01*
X7440Y9055D01*
X7445Y9051D01*
X7449Y9045D01*
X7450Y9038D01*
Y8938D02*
X7449Y8931D01*
X7445Y8925D01*
X7440Y8921D01*
X7433Y8918D01*
X7427D01*
X7420Y8921D01*
X7415Y8925D01*
X7411Y8931D01*
X7410Y8938D01*
X7411Y8945D01*
X7415Y8951D01*
X7420Y8955D01*
X7427Y8958D01*
X7433D01*
X7440Y8955D01*
X7445Y8951D01*
X7449Y8945D01*
X7450Y8938D01*
X8150Y7788D02*
X8149Y7781D01*
X8145Y7775D01*
X8140Y7771D01*
X8133Y7768D01*
X8127D01*
X8120Y7771D01*
X8115Y7775D01*
X8111Y7781D01*
X8110Y7788D01*
X8111Y7795D01*
X8115Y7801D01*
X8120Y7805D01*
X8127Y7808D01*
X8133D01*
X8140Y7805D01*
X8145Y7801D01*
X8149Y7795D01*
X8150Y7788D01*
X8350D02*
X8349Y7781D01*
X8345Y7775D01*
X8340Y7771D01*
X8333Y7768D01*
X8327D01*
X8320Y7771D01*
X8315Y7775D01*
X8311Y7781D01*
X8310Y7788D01*
X8311Y7795D01*
X8315Y7801D01*
X8320Y7805D01*
X8327Y7808D01*
X8333D01*
X8340Y7805D01*
X8345Y7801D01*
X8349Y7795D01*
X8350Y7788D01*
X8450D02*
X8449Y7781D01*
X8445Y7775D01*
X8440Y7771D01*
X8433Y7768D01*
X8427D01*
X8420Y7771D01*
X8415Y7775D01*
X8411Y7781D01*
X8410Y7788D01*
X8411Y7795D01*
X8415Y7801D01*
X8420Y7805D01*
X8427Y7808D01*
X8433D01*
X8440Y7805D01*
X8445Y7801D01*
X8449Y7795D01*
X8450Y7788D01*
Y8088D02*
X8449Y8081D01*
X8445Y8075D01*
X8440Y8071D01*
X8433Y8068D01*
X8427D01*
X8420Y8071D01*
X8415Y8075D01*
X8411Y8081D01*
X8410Y8088D01*
X8411Y8095D01*
X8415Y8101D01*
X8420Y8105D01*
X8427Y8108D01*
X8433D01*
X8440Y8105D01*
X8445Y8101D01*
X8449Y8095D01*
X8450Y8088D01*
X8350D02*
X8349Y8081D01*
X8345Y8075D01*
X8340Y8071D01*
X8333Y8068D01*
X8327D01*
X8320Y8071D01*
X8315Y8075D01*
X8311Y8081D01*
X8310Y8088D01*
X8311Y8095D01*
X8315Y8101D01*
X8320Y8105D01*
X8327Y8108D01*
X8333D01*
X8340Y8105D01*
X8345Y8101D01*
X8349Y8095D01*
X8350Y8088D01*
X8250D02*
X8249Y8081D01*
X8245Y8075D01*
X8240Y8071D01*
X8233Y8068D01*
X8227D01*
X8220Y8071D01*
X8215Y8075D01*
X8211Y8081D01*
X8210Y8088D01*
X8211Y8095D01*
X8215Y8101D01*
X8220Y8105D01*
X8227Y8108D01*
X8233D01*
X8240Y8105D01*
X8245Y8101D01*
X8249Y8095D01*
X8250Y8088D01*
X8150D02*
X8149Y8081D01*
X8145Y8075D01*
X8140Y8071D01*
X8133Y8068D01*
X8127D01*
X8120Y8071D01*
X8115Y8075D01*
X8111Y8081D01*
X8110Y8088D01*
X8111Y8095D01*
X8115Y8101D01*
X8120Y8105D01*
X8127Y8108D01*
X8133D01*
X8140Y8105D01*
X8145Y8101D01*
X8149Y8095D01*
X8150Y8088D01*
X8250Y7788D02*
X8249Y7781D01*
X8245Y7775D01*
X8240Y7771D01*
X8233Y7768D01*
X8227D01*
X8220Y7771D01*
X8215Y7775D01*
X8211Y7781D01*
X8210Y7788D01*
X8211Y7795D01*
X8215Y7801D01*
X8220Y7805D01*
X8227Y7808D01*
X8233D01*
X8240Y7805D01*
X8245Y7801D01*
X8249Y7795D01*
X8250Y7788D01*
X8450Y8638D02*
X8449Y8631D01*
X8445Y8625D01*
X8440Y8621D01*
X8433Y8618D01*
X8427D01*
X8420Y8621D01*
X8415Y8625D01*
X8411Y8631D01*
X8410Y8638D01*
X8411Y8645D01*
X8415Y8651D01*
X8420Y8655D01*
X8427Y8658D01*
X8433D01*
X8440Y8655D01*
X8445Y8651D01*
X8449Y8645D01*
X8450Y8638D01*
Y8238D02*
X8449Y8231D01*
X8445Y8225D01*
X8440Y8221D01*
X8433Y8218D01*
X8427D01*
X8420Y8221D01*
X8415Y8225D01*
X8411Y8231D01*
X8410Y8238D01*
X8411Y8245D01*
X8415Y8251D01*
X8420Y8255D01*
X8427Y8258D01*
X8433D01*
X8440Y8255D01*
X8445Y8251D01*
X8449Y8245D01*
X8450Y8238D01*
X8350Y8638D02*
X8349Y8631D01*
X8345Y8625D01*
X8340Y8621D01*
X8333Y8618D01*
X8327D01*
X8320Y8621D01*
X8315Y8625D01*
X8311Y8631D01*
X8310Y8638D01*
X8311Y8645D01*
X8315Y8651D01*
X8320Y8655D01*
X8327Y8658D01*
X8333D01*
X8340Y8655D01*
X8345Y8651D01*
X8349Y8645D01*
X8350Y8638D01*
Y8238D02*
X8349Y8231D01*
X8345Y8225D01*
X8340Y8221D01*
X8333Y8218D01*
X8327D01*
X8320Y8221D01*
X8315Y8225D01*
X8311Y8231D01*
X8310Y8238D01*
X8311Y8245D01*
X8315Y8251D01*
X8320Y8255D01*
X8327Y8258D01*
X8333D01*
X8340Y8255D01*
X8345Y8251D01*
X8349Y8245D01*
X8350Y8238D01*
X8300Y9338D02*
X8299Y9331D01*
X8295Y9325D01*
X8290Y9321D01*
X8283Y9318D01*
X8277D01*
X8270Y9321D01*
X8265Y9325D01*
X8261Y9331D01*
X8260Y9338D01*
X8261Y9345D01*
X8265Y9351D01*
X8270Y9355D01*
X8277Y9358D01*
X8283D01*
X8290Y9355D01*
X8295Y9351D01*
X8299Y9345D01*
X8300Y9338D01*
X8400D02*
X8399Y9331D01*
X8395Y9325D01*
X8390Y9321D01*
X8383Y9318D01*
X8377D01*
X8370Y9321D01*
X8365Y9325D01*
X8361Y9331D01*
X8360Y9338D01*
X8361Y9345D01*
X8365Y9351D01*
X8370Y9355D01*
X8377Y9358D01*
X8383D01*
X8390Y9355D01*
X8395Y9351D01*
X8399Y9345D01*
X8400Y9338D01*
X8500D02*
X8499Y9331D01*
X8495Y9325D01*
X8490Y9321D01*
X8483Y9318D01*
X8477D01*
X8470Y9321D01*
X8465Y9325D01*
X8461Y9331D01*
X8460Y9338D01*
X8461Y9345D01*
X8465Y9351D01*
X8470Y9355D01*
X8477Y9358D01*
X8483D01*
X8490Y9355D01*
X8495Y9351D01*
X8499Y9345D01*
X8500Y9338D01*
X8600D02*
X8599Y9331D01*
X8595Y9325D01*
X8590Y9321D01*
X8583Y9318D01*
X8577D01*
X8570Y9321D01*
X8565Y9325D01*
X8561Y9331D01*
X8560Y9338D01*
X8561Y9345D01*
X8565Y9351D01*
X8570Y9355D01*
X8577Y9358D01*
X8583D01*
X8590Y9355D01*
X8595Y9351D01*
X8599Y9345D01*
X8600Y9338D01*
X8700D02*
X8699Y9331D01*
X8695Y9325D01*
X8690Y9321D01*
X8683Y9318D01*
X8677D01*
X8670Y9321D01*
X8665Y9325D01*
X8661Y9331D01*
X8660Y9338D01*
X8661Y9345D01*
X8665Y9351D01*
X8670Y9355D01*
X8677Y9358D01*
X8683D01*
X8690Y9355D01*
X8695Y9351D01*
X8699Y9345D01*
X8700Y9338D01*
X8800D02*
X8799Y9331D01*
X8795Y9325D01*
X8790Y9321D01*
X8783Y9318D01*
X8777D01*
X8770Y9321D01*
X8765Y9325D01*
X8761Y9331D01*
X8760Y9338D01*
X8761Y9345D01*
X8765Y9351D01*
X8770Y9355D01*
X8777Y9358D01*
X8783D01*
X8790Y9355D01*
X8795Y9351D01*
X8799Y9345D01*
X8800Y9338D01*
X8900D02*
X8899Y9331D01*
X8895Y9325D01*
X8890Y9321D01*
X8883Y9318D01*
X8877D01*
X8870Y9321D01*
X8865Y9325D01*
X8861Y9331D01*
X8860Y9338D01*
X8861Y9345D01*
X8865Y9351D01*
X8870Y9355D01*
X8877Y9358D01*
X8883D01*
X8890Y9355D01*
X8895Y9351D01*
X8899Y9345D01*
X8900Y9338D01*
Y9638D02*
X8899Y9631D01*
X8895Y9625D01*
X8890Y9621D01*
X8883Y9618D01*
X8877D01*
X8870Y9621D01*
X8865Y9625D01*
X8861Y9631D01*
X8860Y9638D01*
X8861Y9645D01*
X8865Y9651D01*
X8870Y9655D01*
X8877Y9658D01*
X8883D01*
X8890Y9655D01*
X8895Y9651D01*
X8899Y9645D01*
X8900Y9638D01*
X8800D02*
X8799Y9631D01*
X8795Y9625D01*
X8790Y9621D01*
X8783Y9618D01*
X8777D01*
X8770Y9621D01*
X8765Y9625D01*
X8761Y9631D01*
X8760Y9638D01*
X8761Y9645D01*
X8765Y9651D01*
X8770Y9655D01*
X8777Y9658D01*
X8783D01*
X8790Y9655D01*
X8795Y9651D01*
X8799Y9645D01*
X8800Y9638D01*
X8700D02*
X8699Y9631D01*
X8695Y9625D01*
X8690Y9621D01*
X8683Y9618D01*
X8677D01*
X8670Y9621D01*
X8665Y9625D01*
X8661Y9631D01*
X8660Y9638D01*
X8661Y9645D01*
X8665Y9651D01*
X8670Y9655D01*
X8677Y9658D01*
X8683D01*
X8690Y9655D01*
X8695Y9651D01*
X8699Y9645D01*
X8700Y9638D01*
X8600D02*
X8599Y9631D01*
X8595Y9625D01*
X8590Y9621D01*
X8583Y9618D01*
X8577D01*
X8570Y9621D01*
X8565Y9625D01*
X8561Y9631D01*
X8560Y9638D01*
X8561Y9645D01*
X8565Y9651D01*
X8570Y9655D01*
X8577Y9658D01*
X8583D01*
X8590Y9655D01*
X8595Y9651D01*
X8599Y9645D01*
X8600Y9638D01*
X8500D02*
X8499Y9631D01*
X8495Y9625D01*
X8490Y9621D01*
X8483Y9618D01*
X8477D01*
X8470Y9621D01*
X8465Y9625D01*
X8461Y9631D01*
X8460Y9638D01*
X8461Y9645D01*
X8465Y9651D01*
X8470Y9655D01*
X8477Y9658D01*
X8483D01*
X8490Y9655D01*
X8495Y9651D01*
X8499Y9645D01*
X8500Y9638D01*
X8400D02*
X8399Y9631D01*
X8395Y9625D01*
X8390Y9621D01*
X8383Y9618D01*
X8377D01*
X8370Y9621D01*
X8365Y9625D01*
X8361Y9631D01*
X8360Y9638D01*
X8361Y9645D01*
X8365Y9651D01*
X8370Y9655D01*
X8377Y9658D01*
X8383D01*
X8390Y9655D01*
X8395Y9651D01*
X8399Y9645D01*
X8400Y9638D01*
X8300D02*
X8299Y9631D01*
X8295Y9625D01*
X8290Y9621D01*
X8283Y9618D01*
X8277D01*
X8270Y9621D01*
X8265Y9625D01*
X8261Y9631D01*
X8260Y9638D01*
X8261Y9645D01*
X8265Y9651D01*
X8270Y9655D01*
X8277Y9658D01*
X8283D01*
X8290Y9655D01*
X8295Y9651D01*
X8299Y9645D01*
X8300Y9638D01*
X7750Y9338D02*
X7749Y9331D01*
X7745Y9325D01*
X7740Y9321D01*
X7733Y9318D01*
X7727D01*
X7720Y9321D01*
X7715Y9325D01*
X7711Y9331D01*
X7710Y9338D01*
X7711Y9345D01*
X7715Y9351D01*
X7720Y9355D01*
X7727Y9358D01*
X7733D01*
X7740Y9355D01*
X7745Y9351D01*
X7749Y9345D01*
X7750Y9338D01*
X7850D02*
X7849Y9331D01*
X7845Y9325D01*
X7840Y9321D01*
X7833Y9318D01*
X7827D01*
X7820Y9321D01*
X7815Y9325D01*
X7811Y9331D01*
X7810Y9338D01*
X7811Y9345D01*
X7815Y9351D01*
X7820Y9355D01*
X7827Y9358D01*
X7833D01*
X7840Y9355D01*
X7845Y9351D01*
X7849Y9345D01*
X7850Y9338D01*
X7950D02*
X7949Y9331D01*
X7945Y9325D01*
X7940Y9321D01*
X7933Y9318D01*
X7927D01*
X7920Y9321D01*
X7915Y9325D01*
X7911Y9331D01*
X7910Y9338D01*
X7911Y9345D01*
X7915Y9351D01*
X7920Y9355D01*
X7927Y9358D01*
X7933D01*
X7940Y9355D01*
X7945Y9351D01*
X7949Y9345D01*
X7950Y9338D01*
X8050D02*
X8049Y9331D01*
X8045Y9325D01*
X8040Y9321D01*
X8033Y9318D01*
X8027D01*
X8020Y9321D01*
X8015Y9325D01*
X8011Y9331D01*
X8010Y9338D01*
X8011Y9345D01*
X8015Y9351D01*
X8020Y9355D01*
X8027Y9358D01*
X8033D01*
X8040Y9355D01*
X8045Y9351D01*
X8049Y9345D01*
X8050Y9338D01*
Y9638D02*
X8049Y9631D01*
X8045Y9625D01*
X8040Y9621D01*
X8033Y9618D01*
X8027D01*
X8020Y9621D01*
X8015Y9625D01*
X8011Y9631D01*
X8010Y9638D01*
X8011Y9645D01*
X8015Y9651D01*
X8020Y9655D01*
X8027Y9658D01*
X8033D01*
X8040Y9655D01*
X8045Y9651D01*
X8049Y9645D01*
X8050Y9638D01*
X7950D02*
X7949Y9631D01*
X7945Y9625D01*
X7940Y9621D01*
X7933Y9618D01*
X7927D01*
X7920Y9621D01*
X7915Y9625D01*
X7911Y9631D01*
X7910Y9638D01*
X7911Y9645D01*
X7915Y9651D01*
X7920Y9655D01*
X7927Y9658D01*
X7933D01*
X7940Y9655D01*
X7945Y9651D01*
X7949Y9645D01*
X7950Y9638D01*
X7850D02*
X7849Y9631D01*
X7845Y9625D01*
X7840Y9621D01*
X7833Y9618D01*
X7827D01*
X7820Y9621D01*
X7815Y9625D01*
X7811Y9631D01*
X7810Y9638D01*
X7811Y9645D01*
X7815Y9651D01*
X7820Y9655D01*
X7827Y9658D01*
X7833D01*
X7840Y9655D01*
X7845Y9651D01*
X7849Y9645D01*
X7850Y9638D01*
X7750D02*
X7749Y9631D01*
X7745Y9625D01*
X7740Y9621D01*
X7733Y9618D01*
X7727D01*
X7720Y9621D01*
X7715Y9625D01*
X7711Y9631D01*
X7710Y9638D01*
X7711Y9645D01*
X7715Y9651D01*
X7720Y9655D01*
X7727Y9658D01*
X7733D01*
X7740Y9655D01*
X7745Y9651D01*
X7749Y9645D01*
X7750Y9638D01*
X7150Y9338D02*
X7149Y9331D01*
X7145Y9325D01*
X7140Y9321D01*
X7133Y9318D01*
X7127D01*
X7120Y9321D01*
X7115Y9325D01*
X7111Y9331D01*
X7110Y9338D01*
X7111Y9345D01*
X7115Y9351D01*
X7120Y9355D01*
X7127Y9358D01*
X7133D01*
X7140Y9355D01*
X7145Y9351D01*
X7149Y9345D01*
X7150Y9338D01*
X7250D02*
X7249Y9331D01*
X7245Y9325D01*
X7240Y9321D01*
X7233Y9318D01*
X7227D01*
X7220Y9321D01*
X7215Y9325D01*
X7211Y9331D01*
X7210Y9338D01*
X7211Y9345D01*
X7215Y9351D01*
X7220Y9355D01*
X7227Y9358D01*
X7233D01*
X7240Y9355D01*
X7245Y9351D01*
X7249Y9345D01*
X7250Y9338D01*
X7350D02*
X7349Y9331D01*
X7345Y9325D01*
X7340Y9321D01*
X7333Y9318D01*
X7327D01*
X7320Y9321D01*
X7315Y9325D01*
X7311Y9331D01*
X7310Y9338D01*
X7311Y9345D01*
X7315Y9351D01*
X7320Y9355D01*
X7327Y9358D01*
X7333D01*
X7340Y9355D01*
X7345Y9351D01*
X7349Y9345D01*
X7350Y9338D01*
X7450D02*
X7449Y9331D01*
X7445Y9325D01*
X7440Y9321D01*
X7433Y9318D01*
X7427D01*
X7420Y9321D01*
X7415Y9325D01*
X7411Y9331D01*
X7410Y9338D01*
X7411Y9345D01*
X7415Y9351D01*
X7420Y9355D01*
X7427Y9358D01*
X7433D01*
X7440Y9355D01*
X7445Y9351D01*
X7449Y9345D01*
X7450Y9338D01*
Y9638D02*
X7449Y9631D01*
X7445Y9625D01*
X7440Y9621D01*
X7433Y9618D01*
X7427D01*
X7420Y9621D01*
X7415Y9625D01*
X7411Y9631D01*
X7410Y9638D01*
X7411Y9645D01*
X7415Y9651D01*
X7420Y9655D01*
X7427Y9658D01*
X7433D01*
X7440Y9655D01*
X7445Y9651D01*
X7449Y9645D01*
X7450Y9638D01*
X7350D02*
X7349Y9631D01*
X7345Y9625D01*
X7340Y9621D01*
X7333Y9618D01*
X7327D01*
X7320Y9621D01*
X7315Y9625D01*
X7311Y9631D01*
X7310Y9638D01*
X7311Y9645D01*
X7315Y9651D01*
X7320Y9655D01*
X7327Y9658D01*
X7333D01*
X7340Y9655D01*
X7345Y9651D01*
X7349Y9645D01*
X7350Y9638D01*
X7250D02*
X7249Y9631D01*
X7245Y9625D01*
X7240Y9621D01*
X7233Y9618D01*
X7227D01*
X7220Y9621D01*
X7215Y9625D01*
X7211Y9631D01*
X7210Y9638D01*
X7211Y9645D01*
X7215Y9651D01*
X7220Y9655D01*
X7227Y9658D01*
X7233D01*
X7240Y9655D01*
X7245Y9651D01*
X7249Y9645D01*
X7250Y9638D01*
X7150D02*
X7149Y9631D01*
X7145Y9625D01*
X7140Y9621D01*
X7133Y9618D01*
X7127D01*
X7120Y9621D01*
X7115Y9625D01*
X7111Y9631D01*
X7110Y9638D01*
X7111Y9645D01*
X7115Y9651D01*
X7120Y9655D01*
X7127Y9658D01*
X7133D01*
X7140Y9655D01*
X7145Y9651D01*
X7149Y9645D01*
X7150Y9638D01*
X8150Y9338D02*
X8149Y9331D01*
X8145Y9325D01*
X8140Y9321D01*
X8133Y9318D01*
X8127D01*
X8120Y9321D01*
X8115Y9325D01*
X8111Y9331D01*
X8110Y9338D01*
X8111Y9345D01*
X8115Y9351D01*
X8120Y9355D01*
X8127Y9358D01*
X8133D01*
X8140Y9355D01*
X8145Y9351D01*
X8149Y9345D01*
X8150Y9338D01*
Y9638D02*
X8149Y9631D01*
X8145Y9625D01*
X8140Y9621D01*
X8133Y9618D01*
X8127D01*
X8120Y9621D01*
X8115Y9625D01*
X8111Y9631D01*
X8110Y9638D01*
X8111Y9645D01*
X8115Y9651D01*
X8120Y9655D01*
X8127Y9658D01*
X8133D01*
X8140Y9655D01*
X8145Y9651D01*
X8149Y9645D01*
X8150Y9638D01*
X7650D02*
X7649Y9631D01*
X7645Y9625D01*
X7640Y9621D01*
X7633Y9618D01*
X7627D01*
X7620Y9621D01*
X7615Y9625D01*
X7611Y9631D01*
X7610Y9638D01*
X7611Y9645D01*
X7615Y9651D01*
X7620Y9655D01*
X7627Y9658D01*
X7633D01*
X7640Y9655D01*
X7645Y9651D01*
X7649Y9645D01*
X7650Y9638D01*
Y9338D02*
X7649Y9331D01*
X7645Y9325D01*
X7640Y9321D01*
X7633Y9318D01*
X7627D01*
X7620Y9321D01*
X7615Y9325D01*
X7611Y9331D01*
X7610Y9338D01*
X7611Y9345D01*
X7615Y9351D01*
X7620Y9355D01*
X7627Y9358D01*
X7633D01*
X7640Y9355D01*
X7645Y9351D01*
X7649Y9345D01*
X7650Y9338D01*
X7550D02*
X7549Y9331D01*
X7545Y9325D01*
X7540Y9321D01*
X7533Y9318D01*
X7527D01*
X7520Y9321D01*
X7515Y9325D01*
X7511Y9331D01*
X7510Y9338D01*
X7511Y9345D01*
X7515Y9351D01*
X7520Y9355D01*
X7527Y9358D01*
X7533D01*
X7540Y9355D01*
X7545Y9351D01*
X7549Y9345D01*
X7550Y9338D01*
Y9638D02*
X7549Y9631D01*
X7545Y9625D01*
X7540Y9621D01*
X7533Y9618D01*
X7527D01*
X7520Y9621D01*
X7515Y9625D01*
X7511Y9631D01*
X7510Y9638D01*
X7511Y9645D01*
X7515Y9651D01*
X7520Y9655D01*
X7527Y9658D01*
X7533D01*
X7540Y9655D01*
X7545Y9651D01*
X7549Y9645D01*
X7550Y9638D01*
X7450Y9888D02*
X7449Y9881D01*
X7445Y9875D01*
X7440Y9871D01*
X7433Y9868D01*
X7427D01*
X7420Y9871D01*
X7415Y9875D01*
X7411Y9881D01*
X7410Y9888D01*
X7411Y9895D01*
X7415Y9901D01*
X7420Y9905D01*
X7427Y9908D01*
X7433D01*
X7440Y9905D01*
X7445Y9901D01*
X7449Y9895D01*
X7450Y9888D01*
X7650D02*
X7649Y9881D01*
X7645Y9875D01*
X7640Y9871D01*
X7633Y9868D01*
X7627D01*
X7620Y9871D01*
X7615Y9875D01*
X7611Y9881D01*
X7610Y9888D01*
X7611Y9895D01*
X7615Y9901D01*
X7620Y9905D01*
X7627Y9908D01*
X7633D01*
X7640Y9905D01*
X7645Y9901D01*
X7649Y9895D01*
X7650Y9888D01*
X8750Y5888D02*
X8749Y5881D01*
X8745Y5875D01*
X8740Y5871D01*
X8733Y5868D01*
X8727D01*
X8720Y5871D01*
X8715Y5875D01*
X8711Y5881D01*
X8710Y5888D01*
X8711Y5895D01*
X8715Y5901D01*
X8720Y5905D01*
X8727Y5908D01*
X8733D01*
X8740Y5905D01*
X8745Y5901D01*
X8749Y5895D01*
X8750Y5888D01*
X8850Y6188D02*
X8849Y6181D01*
X8845Y6175D01*
X8840Y6171D01*
X8833Y6168D01*
X8827D01*
X8820Y6171D01*
X8815Y6175D01*
X8811Y6181D01*
X8810Y6188D01*
X8811Y6195D01*
X8815Y6201D01*
X8820Y6205D01*
X8827Y6208D01*
X8833D01*
X8840Y6205D01*
X8845Y6201D01*
X8849Y6195D01*
X8850Y6188D01*
Y5688D02*
X8849Y5681D01*
X8845Y5675D01*
X8840Y5671D01*
X8833Y5668D01*
X8827D01*
X8820Y5671D01*
X8815Y5675D01*
X8811Y5681D01*
X8810Y5688D01*
X8811Y5695D01*
X8815Y5701D01*
X8820Y5705D01*
X8827Y5708D01*
X8833D01*
X8840Y5705D01*
X8845Y5701D01*
X8849Y5695D01*
X8850Y5688D01*
X9550Y5888D02*
X9549Y5881D01*
X9545Y5875D01*
X9540Y5871D01*
X9533Y5868D01*
X9527D01*
X9520Y5871D01*
X9515Y5875D01*
X9511Y5881D01*
X9510Y5888D01*
X9511Y5895D01*
X9515Y5901D01*
X9520Y5905D01*
X9527Y5908D01*
X9533D01*
X9540Y5905D01*
X9545Y5901D01*
X9549Y5895D01*
X9550Y5888D01*
X9650Y6188D02*
X9649Y6181D01*
X9645Y6175D01*
X9640Y6171D01*
X9633Y6168D01*
X9627D01*
X9620Y6171D01*
X9615Y6175D01*
X9611Y6181D01*
X9610Y6188D01*
X9611Y6195D01*
X9615Y6201D01*
X9620Y6205D01*
X9627Y6208D01*
X9633D01*
X9640Y6205D01*
X9645Y6201D01*
X9649Y6195D01*
X9650Y6188D01*
Y5688D02*
X9649Y5681D01*
X9645Y5675D01*
X9640Y5671D01*
X9633Y5668D01*
X9627D01*
X9620Y5671D01*
X9615Y5675D01*
X9611Y5681D01*
X9610Y5688D01*
X9611Y5695D01*
X9615Y5701D01*
X9620Y5705D01*
X9627Y5708D01*
X9633D01*
X9640Y5705D01*
X9645Y5701D01*
X9649Y5695D01*
X9650Y5688D01*
X10050Y6088D02*
X10049Y6081D01*
X10045Y6075D01*
X10040Y6071D01*
X10033Y6068D01*
X10027D01*
X10020Y6071D01*
X10015Y6075D01*
X10011Y6081D01*
X10010Y6088D01*
X10011Y6095D01*
X10015Y6101D01*
X10020Y6105D01*
X10027Y6108D01*
X10033D01*
X10040Y6105D01*
X10045Y6101D01*
X10049Y6095D01*
X10050Y6088D01*
Y5688D02*
X10049Y5681D01*
X10045Y5675D01*
X10040Y5671D01*
X10033Y5668D01*
X10027D01*
X10020Y5671D01*
X10015Y5675D01*
X10011Y5681D01*
X10010Y5688D01*
X10011Y5695D01*
X10015Y5701D01*
X10020Y5705D01*
X10027Y5708D01*
X10033D01*
X10040Y5705D01*
X10045Y5701D01*
X10049Y5695D01*
X10050Y5688D01*
X9950D02*
X9949Y5681D01*
X9945Y5675D01*
X9940Y5671D01*
X9933Y5668D01*
X9927D01*
X9920Y5671D01*
X9915Y5675D01*
X9911Y5681D01*
X9910Y5688D01*
X9911Y5695D01*
X9915Y5701D01*
X9920Y5705D01*
X9927Y5708D01*
X9933D01*
X9940Y5705D01*
X9945Y5701D01*
X9949Y5695D01*
X9950Y5688D01*
Y6088D02*
X9949Y6081D01*
X9945Y6075D01*
X9940Y6071D01*
X9933Y6068D01*
X9927D01*
X9920Y6071D01*
X9915Y6075D01*
X9911Y6081D01*
X9910Y6088D01*
X9911Y6095D01*
X9915Y6101D01*
X9920Y6105D01*
X9927Y6108D01*
X9933D01*
X9940Y6105D01*
X9945Y6101D01*
X9949Y6095D01*
X9950Y6088D01*
X8950D02*
X8949Y6081D01*
X8945Y6075D01*
X8940Y6071D01*
X8933Y6068D01*
X8927D01*
X8920Y6071D01*
X8915Y6075D01*
X8911Y6081D01*
X8910Y6088D01*
X8911Y6095D01*
X8915Y6101D01*
X8920Y6105D01*
X8927Y6108D01*
X8933D01*
X8940Y6105D01*
X8945Y6101D01*
X8949Y6095D01*
X8950Y6088D01*
Y5688D02*
X8949Y5681D01*
X8945Y5675D01*
X8940Y5671D01*
X8933Y5668D01*
X8927D01*
X8920Y5671D01*
X8915Y5675D01*
X8911Y5681D01*
X8910Y5688D01*
X8911Y5695D01*
X8915Y5701D01*
X8920Y5705D01*
X8927Y5708D01*
X8933D01*
X8940Y5705D01*
X8945Y5701D01*
X8949Y5695D01*
X8950Y5688D01*
X9050D02*
X9049Y5681D01*
X9045Y5675D01*
X9040Y5671D01*
X9033Y5668D01*
X9027D01*
X9020Y5671D01*
X9015Y5675D01*
X9011Y5681D01*
X9010Y5688D01*
X9011Y5695D01*
X9015Y5701D01*
X9020Y5705D01*
X9027Y5708D01*
X9033D01*
X9040Y5705D01*
X9045Y5701D01*
X9049Y5695D01*
X9050Y5688D01*
Y6088D02*
X9049Y6081D01*
X9045Y6075D01*
X9040Y6071D01*
X9033Y6068D01*
X9027D01*
X9020Y6071D01*
X9015Y6075D01*
X9011Y6081D01*
X9010Y6088D01*
X9011Y6095D01*
X9015Y6101D01*
X9020Y6105D01*
X9027Y6108D01*
X9033D01*
X9040Y6105D01*
X9045Y6101D01*
X9049Y6095D01*
X9050Y6088D01*
X9150D02*
X9149Y6081D01*
X9145Y6075D01*
X9140Y6071D01*
X9133Y6068D01*
X9127D01*
X9120Y6071D01*
X9115Y6075D01*
X9111Y6081D01*
X9110Y6088D01*
X9111Y6095D01*
X9115Y6101D01*
X9120Y6105D01*
X9127Y6108D01*
X9133D01*
X9140Y6105D01*
X9145Y6101D01*
X9149Y6095D01*
X9150Y6088D01*
Y5688D02*
X9149Y5681D01*
X9145Y5675D01*
X9140Y5671D01*
X9133Y5668D01*
X9127D01*
X9120Y5671D01*
X9115Y5675D01*
X9111Y5681D01*
X9110Y5688D01*
X9111Y5695D01*
X9115Y5701D01*
X9120Y5705D01*
X9127Y5708D01*
X9133D01*
X9140Y5705D01*
X9145Y5701D01*
X9149Y5695D01*
X9150Y5688D01*
X9250Y6088D02*
X9249Y6081D01*
X9245Y6075D01*
X9240Y6071D01*
X9233Y6068D01*
X9227D01*
X9220Y6071D01*
X9215Y6075D01*
X9211Y6081D01*
X9210Y6088D01*
X9211Y6095D01*
X9215Y6101D01*
X9220Y6105D01*
X9227Y6108D01*
X9233D01*
X9240Y6105D01*
X9245Y6101D01*
X9249Y6095D01*
X9250Y6088D01*
Y5688D02*
X9249Y5681D01*
X9245Y5675D01*
X9240Y5671D01*
X9233Y5668D01*
X9227D01*
X9220Y5671D01*
X9215Y5675D01*
X9211Y5681D01*
X9210Y5688D01*
X9211Y5695D01*
X9215Y5701D01*
X9220Y5705D01*
X9227Y5708D01*
X9233D01*
X9240Y5705D01*
X9245Y5701D01*
X9249Y5695D01*
X9250Y5688D01*
X9330Y5818D02*
X9310Y5858D01*
X9350D01*
X9330Y5818D01*
X9410Y5858D02*
X9430Y5818D01*
X9410Y5858D02*
X9450D01*
X9430Y5818D01*
X9380Y5768D02*
X9360Y5808D01*
X9400D01*
X9380Y5768D01*
X9800Y5938D02*
X9799Y5931D01*
X9795Y5925D01*
X9790Y5921D01*
X9783Y5918D01*
X9777D01*
X9770Y5921D01*
X9765Y5925D01*
X9761Y5931D01*
X9760Y5938D01*
X9761Y5945D01*
X9765Y5951D01*
X9770Y5955D01*
X9777Y5958D01*
X9783D01*
X9790Y5955D01*
X9795Y5951D01*
X9799Y5945D01*
X9800Y5938D01*
Y5838D02*
X9799Y5831D01*
X9795Y5825D01*
X9790Y5821D01*
X9783Y5818D01*
X9777D01*
X9770Y5821D01*
X9765Y5825D01*
X9761Y5831D01*
X9760Y5838D01*
X9761Y5845D01*
X9765Y5851D01*
X9770Y5855D01*
X9777Y5858D01*
X9783D01*
X9790Y5855D01*
X9795Y5851D01*
X9799Y5845D01*
X9800Y5838D01*
X9330Y5968D02*
X9310Y6008D01*
X9350D01*
X9330Y5968D01*
X9410Y6008D02*
X9430Y5968D01*
X9410Y6008D02*
X9450D01*
X9430Y5968D01*
X9380Y5918D02*
X9360Y5958D01*
X9400D01*
X9380Y5918D01*
X8950Y6538D02*
X8949Y6531D01*
X8945Y6525D01*
X8940Y6521D01*
X8933Y6518D01*
X8927D01*
X8920Y6521D01*
X8915Y6525D01*
X8911Y6531D01*
X8910Y6538D01*
X8911Y6545D01*
X8915Y6551D01*
X8920Y6555D01*
X8927Y6558D01*
X8933D01*
X8940Y6555D01*
X8945Y6551D01*
X8949Y6545D01*
X8950Y6538D01*
Y6238D02*
X8949Y6231D01*
X8945Y6225D01*
X8940Y6221D01*
X8933Y6218D01*
X8927D01*
X8920Y6221D01*
X8915Y6225D01*
X8911Y6231D01*
X8910Y6238D01*
X8911Y6245D01*
X8915Y6251D01*
X8920Y6255D01*
X8927Y6258D01*
X8933D01*
X8940Y6255D01*
X8945Y6251D01*
X8949Y6245D01*
X8950Y6238D01*
X9450D02*
X9449Y6231D01*
X9445Y6225D01*
X9440Y6221D01*
X9433Y6218D01*
X9427D01*
X9420Y6221D01*
X9415Y6225D01*
X9411Y6231D01*
X9410Y6238D01*
X9411Y6245D01*
X9415Y6251D01*
X9420Y6255D01*
X9427Y6258D01*
X9433D01*
X9440Y6255D01*
X9445Y6251D01*
X9449Y6245D01*
X9450Y6238D01*
Y6538D02*
X9449Y6531D01*
X9445Y6525D01*
X9440Y6521D01*
X9433Y6518D01*
X9427D01*
X9420Y6521D01*
X9415Y6525D01*
X9411Y6531D01*
X9410Y6538D01*
X9411Y6545D01*
X9415Y6551D01*
X9420Y6555D01*
X9427Y6558D01*
X9433D01*
X9440Y6555D01*
X9445Y6551D01*
X9449Y6545D01*
X9450Y6538D01*
X9050Y6238D02*
X9049Y6231D01*
X9045Y6225D01*
X9040Y6221D01*
X9033Y6218D01*
X9027D01*
X9020Y6221D01*
X9015Y6225D01*
X9011Y6231D01*
X9010Y6238D01*
X9011Y6245D01*
X9015Y6251D01*
X9020Y6255D01*
X9027Y6258D01*
X9033D01*
X9040Y6255D01*
X9045Y6251D01*
X9049Y6245D01*
X9050Y6238D01*
X9150D02*
X9149Y6231D01*
X9145Y6225D01*
X9140Y6221D01*
X9133Y6218D01*
X9127D01*
X9120Y6221D01*
X9115Y6225D01*
X9111Y6231D01*
X9110Y6238D01*
X9111Y6245D01*
X9115Y6251D01*
X9120Y6255D01*
X9127Y6258D01*
X9133D01*
X9140Y6255D01*
X9145Y6251D01*
X9149Y6245D01*
X9150Y6238D01*
X9250D02*
X9249Y6231D01*
X9245Y6225D01*
X9240Y6221D01*
X9233Y6218D01*
X9227D01*
X9220Y6221D01*
X9215Y6225D01*
X9211Y6231D01*
X9210Y6238D01*
X9211Y6245D01*
X9215Y6251D01*
X9220Y6255D01*
X9227Y6258D01*
X9233D01*
X9240Y6255D01*
X9245Y6251D01*
X9249Y6245D01*
X9250Y6238D01*
X9350D02*
X9349Y6231D01*
X9345Y6225D01*
X9340Y6221D01*
X9333Y6218D01*
X9327D01*
X9320Y6221D01*
X9315Y6225D01*
X9311Y6231D01*
X9310Y6238D01*
X9311Y6245D01*
X9315Y6251D01*
X9320Y6255D01*
X9327Y6258D01*
X9333D01*
X9340Y6255D01*
X9345Y6251D01*
X9349Y6245D01*
X9350Y6238D01*
Y6538D02*
X9349Y6531D01*
X9345Y6525D01*
X9340Y6521D01*
X9333Y6518D01*
X9327D01*
X9320Y6521D01*
X9315Y6525D01*
X9311Y6531D01*
X9310Y6538D01*
X9311Y6545D01*
X9315Y6551D01*
X9320Y6555D01*
X9327Y6558D01*
X9333D01*
X9340Y6555D01*
X9345Y6551D01*
X9349Y6545D01*
X9350Y6538D01*
X9250D02*
X9249Y6531D01*
X9245Y6525D01*
X9240Y6521D01*
X9233Y6518D01*
X9227D01*
X9220Y6521D01*
X9215Y6525D01*
X9211Y6531D01*
X9210Y6538D01*
X9211Y6545D01*
X9215Y6551D01*
X9220Y6555D01*
X9227Y6558D01*
X9233D01*
X9240Y6555D01*
X9245Y6551D01*
X9249Y6545D01*
X9250Y6538D01*
X9150D02*
X9149Y6531D01*
X9145Y6525D01*
X9140Y6521D01*
X9133Y6518D01*
X9127D01*
X9120Y6521D01*
X9115Y6525D01*
X9111Y6531D01*
X9110Y6538D01*
X9111Y6545D01*
X9115Y6551D01*
X9120Y6555D01*
X9127Y6558D01*
X9133D01*
X9140Y6555D01*
X9145Y6551D01*
X9149Y6545D01*
X9150Y6538D01*
X9050D02*
X9049Y6531D01*
X9045Y6525D01*
X9040Y6521D01*
X9033Y6518D01*
X9027D01*
X9020Y6521D01*
X9015Y6525D01*
X9011Y6531D01*
X9010Y6538D01*
X9011Y6545D01*
X9015Y6551D01*
X9020Y6555D01*
X9027Y6558D01*
X9033D01*
X9040Y6555D01*
X9045Y6551D01*
X9049Y6545D01*
X9050Y6538D01*
X9150Y7238D02*
X9149Y7231D01*
X9145Y7225D01*
X9140Y7221D01*
X9133Y7218D01*
X9127D01*
X9120Y7221D01*
X9115Y7225D01*
X9111Y7231D01*
X9110Y7238D01*
X9111Y7245D01*
X9115Y7251D01*
X9120Y7255D01*
X9127Y7258D01*
X9133D01*
X9140Y7255D01*
X9145Y7251D01*
X9149Y7245D01*
X9150Y7238D01*
Y7638D02*
X9149Y7631D01*
X9145Y7625D01*
X9140Y7621D01*
X9133Y7618D01*
X9127D01*
X9120Y7621D01*
X9115Y7625D01*
X9111Y7631D01*
X9110Y7638D01*
X9111Y7645D01*
X9115Y7651D01*
X9120Y7655D01*
X9127Y7658D01*
X9133D01*
X9140Y7655D01*
X9145Y7651D01*
X9149Y7645D01*
X9150Y7638D01*
X9050Y7238D02*
X9049Y7231D01*
X9045Y7225D01*
X9040Y7221D01*
X9033Y7218D01*
X9027D01*
X9020Y7221D01*
X9015Y7225D01*
X9011Y7231D01*
X9010Y7238D01*
X9011Y7245D01*
X9015Y7251D01*
X9020Y7255D01*
X9027Y7258D01*
X9033D01*
X9040Y7255D01*
X9045Y7251D01*
X9049Y7245D01*
X9050Y7238D01*
Y7638D02*
X9049Y7631D01*
X9045Y7625D01*
X9040Y7621D01*
X9033Y7618D01*
X9027D01*
X9020Y7621D01*
X9015Y7625D01*
X9011Y7631D01*
X9010Y7638D01*
X9011Y7645D01*
X9015Y7651D01*
X9020Y7655D01*
X9027Y7658D01*
X9033D01*
X9040Y7655D01*
X9045Y7651D01*
X9049Y7645D01*
X9050Y7638D01*
X9250D02*
X9249Y7631D01*
X9245Y7625D01*
X9240Y7621D01*
X9233Y7618D01*
X9227D01*
X9220Y7621D01*
X9215Y7625D01*
X9211Y7631D01*
X9210Y7638D01*
X9211Y7645D01*
X9215Y7651D01*
X9220Y7655D01*
X9227Y7658D01*
X9233D01*
X9240Y7655D01*
X9245Y7651D01*
X9249Y7645D01*
X9250Y7638D01*
Y7238D02*
X9249Y7231D01*
X9245Y7225D01*
X9240Y7221D01*
X9233Y7218D01*
X9227D01*
X9220Y7221D01*
X9215Y7225D01*
X9211Y7231D01*
X9210Y7238D01*
X9211Y7245D01*
X9215Y7251D01*
X9220Y7255D01*
X9227Y7258D01*
X9233D01*
X9240Y7255D01*
X9245Y7251D01*
X9249Y7245D01*
X9250Y7238D01*
X9350Y7638D02*
X9349Y7631D01*
X9345Y7625D01*
X9340Y7621D01*
X9333Y7618D01*
X9327D01*
X9320Y7621D01*
X9315Y7625D01*
X9311Y7631D01*
X9310Y7638D01*
X9311Y7645D01*
X9315Y7651D01*
X9320Y7655D01*
X9327Y7658D01*
X9333D01*
X9340Y7655D01*
X9345Y7651D01*
X9349Y7645D01*
X9350Y7638D01*
Y7238D02*
X9349Y7231D01*
X9345Y7225D01*
X9340Y7221D01*
X9333Y7218D01*
X9327D01*
X9320Y7221D01*
X9315Y7225D01*
X9311Y7231D01*
X9310Y7238D01*
X9311Y7245D01*
X9315Y7251D01*
X9320Y7255D01*
X9327Y7258D01*
X9333D01*
X9340Y7255D01*
X9345Y7251D01*
X9349Y7245D01*
X9350Y7238D01*
X9550Y7638D02*
X9549Y7631D01*
X9545Y7625D01*
X9540Y7621D01*
X9533Y7618D01*
X9527D01*
X9520Y7621D01*
X9515Y7625D01*
X9511Y7631D01*
X9510Y7638D01*
X9511Y7645D01*
X9515Y7651D01*
X9520Y7655D01*
X9527Y7658D01*
X9533D01*
X9540Y7655D01*
X9545Y7651D01*
X9549Y7645D01*
X9550Y7638D01*
Y7238D02*
X9549Y7231D01*
X9545Y7225D01*
X9540Y7221D01*
X9533Y7218D01*
X9527D01*
X9520Y7221D01*
X9515Y7225D01*
X9511Y7231D01*
X9510Y7238D01*
X9511Y7245D01*
X9515Y7251D01*
X9520Y7255D01*
X9527Y7258D01*
X9533D01*
X9540Y7255D01*
X9545Y7251D01*
X9549Y7245D01*
X9550Y7238D01*
X9650D02*
X9649Y7231D01*
X9645Y7225D01*
X9640Y7221D01*
X9633Y7218D01*
X9627D01*
X9620Y7221D01*
X9615Y7225D01*
X9611Y7231D01*
X9610Y7238D01*
X9611Y7245D01*
X9615Y7251D01*
X9620Y7255D01*
X9627Y7258D01*
X9633D01*
X9640Y7255D01*
X9645Y7251D01*
X9649Y7245D01*
X9650Y7238D01*
Y7638D02*
X9649Y7631D01*
X9645Y7625D01*
X9640Y7621D01*
X9633Y7618D01*
X9627D01*
X9620Y7621D01*
X9615Y7625D01*
X9611Y7631D01*
X9610Y7638D01*
X9611Y7645D01*
X9615Y7651D01*
X9620Y7655D01*
X9627Y7658D01*
X9633D01*
X9640Y7655D01*
X9645Y7651D01*
X9649Y7645D01*
X9650Y7638D01*
X9750D02*
X9749Y7631D01*
X9745Y7625D01*
X9740Y7621D01*
X9733Y7618D01*
X9727D01*
X9720Y7621D01*
X9715Y7625D01*
X9711Y7631D01*
X9710Y7638D01*
X9711Y7645D01*
X9715Y7651D01*
X9720Y7655D01*
X9727Y7658D01*
X9733D01*
X9740Y7655D01*
X9745Y7651D01*
X9749Y7645D01*
X9750Y7638D01*
Y7238D02*
X9749Y7231D01*
X9745Y7225D01*
X9740Y7221D01*
X9733Y7218D01*
X9727D01*
X9720Y7221D01*
X9715Y7225D01*
X9711Y7231D01*
X9710Y7238D01*
X9711Y7245D01*
X9715Y7251D01*
X9720Y7255D01*
X9727Y7258D01*
X9733D01*
X9740Y7255D01*
X9745Y7251D01*
X9749Y7245D01*
X9750Y7238D01*
X9850Y7638D02*
X9849Y7631D01*
X9845Y7625D01*
X9840Y7621D01*
X9833Y7618D01*
X9827D01*
X9820Y7621D01*
X9815Y7625D01*
X9811Y7631D01*
X9810Y7638D01*
X9811Y7645D01*
X9815Y7651D01*
X9820Y7655D01*
X9827Y7658D01*
X9833D01*
X9840Y7655D01*
X9845Y7651D01*
X9849Y7645D01*
X9850Y7638D01*
Y7238D02*
X9849Y7231D01*
X9845Y7225D01*
X9840Y7221D01*
X9833Y7218D01*
X9827D01*
X9820Y7221D01*
X9815Y7225D01*
X9811Y7231D01*
X9810Y7238D01*
X9811Y7245D01*
X9815Y7251D01*
X9820Y7255D01*
X9827Y7258D01*
X9833D01*
X9840Y7255D01*
X9845Y7251D01*
X9849Y7245D01*
X9850Y7238D01*
X9950D02*
X9949Y7231D01*
X9945Y7225D01*
X9940Y7221D01*
X9933Y7218D01*
X9927D01*
X9920Y7221D01*
X9915Y7225D01*
X9911Y7231D01*
X9910Y7238D01*
X9911Y7245D01*
X9915Y7251D01*
X9920Y7255D01*
X9927Y7258D01*
X9933D01*
X9940Y7255D01*
X9945Y7251D01*
X9949Y7245D01*
X9950Y7238D01*
Y7638D02*
X9949Y7631D01*
X9945Y7625D01*
X9940Y7621D01*
X9933Y7618D01*
X9927D01*
X9920Y7621D01*
X9915Y7625D01*
X9911Y7631D01*
X9910Y7638D01*
X9911Y7645D01*
X9915Y7651D01*
X9920Y7655D01*
X9927Y7658D01*
X9933D01*
X9940Y7655D01*
X9945Y7651D01*
X9949Y7645D01*
X9950Y7638D01*
X10110Y7408D02*
X10130Y7368D01*
X10110Y7408D02*
X10150D01*
X10130Y7368D01*
Y7468D02*
X10110Y7508D01*
X10150D01*
X10130Y7468D01*
X10160Y7458D02*
X10180Y7418D01*
X10160Y7458D02*
X10200D01*
X10180Y7418D01*
X9850Y6538D02*
X9849Y6531D01*
X9845Y6525D01*
X9840Y6521D01*
X9833Y6518D01*
X9827D01*
X9820Y6521D01*
X9815Y6525D01*
X9811Y6531D01*
X9810Y6538D01*
X9811Y6545D01*
X9815Y6551D01*
X9820Y6555D01*
X9827Y6558D01*
X9833D01*
X9840Y6555D01*
X9845Y6551D01*
X9849Y6545D01*
X9850Y6538D01*
X9950D02*
X9949Y6531D01*
X9945Y6525D01*
X9940Y6521D01*
X9933Y6518D01*
X9927D01*
X9920Y6521D01*
X9915Y6525D01*
X9911Y6531D01*
X9910Y6538D01*
X9911Y6545D01*
X9915Y6551D01*
X9920Y6555D01*
X9927Y6558D01*
X9933D01*
X9940Y6555D01*
X9945Y6551D01*
X9949Y6545D01*
X9950Y6538D01*
X10050D02*
X10049Y6531D01*
X10045Y6525D01*
X10040Y6521D01*
X10033Y6518D01*
X10027D01*
X10020Y6521D01*
X10015Y6525D01*
X10011Y6531D01*
X10010Y6538D01*
X10011Y6545D01*
X10015Y6551D01*
X10020Y6555D01*
X10027Y6558D01*
X10033D01*
X10040Y6555D01*
X10045Y6551D01*
X10049Y6545D01*
X10050Y6538D01*
X10150D02*
X10149Y6531D01*
X10145Y6525D01*
X10140Y6521D01*
X10133Y6518D01*
X10127D01*
X10120Y6521D01*
X10115Y6525D01*
X10111Y6531D01*
X10110Y6538D01*
X10111Y6545D01*
X10115Y6551D01*
X10120Y6555D01*
X10127Y6558D01*
X10133D01*
X10140Y6555D01*
X10145Y6551D01*
X10149Y6545D01*
X10150Y6538D01*
Y6238D02*
X10149Y6231D01*
X10145Y6225D01*
X10140Y6221D01*
X10133Y6218D01*
X10127D01*
X10120Y6221D01*
X10115Y6225D01*
X10111Y6231D01*
X10110Y6238D01*
X10111Y6245D01*
X10115Y6251D01*
X10120Y6255D01*
X10127Y6258D01*
X10133D01*
X10140Y6255D01*
X10145Y6251D01*
X10149Y6245D01*
X10150Y6238D01*
X10050D02*
X10049Y6231D01*
X10045Y6225D01*
X10040Y6221D01*
X10033Y6218D01*
X10027D01*
X10020Y6221D01*
X10015Y6225D01*
X10011Y6231D01*
X10010Y6238D01*
X10011Y6245D01*
X10015Y6251D01*
X10020Y6255D01*
X10027Y6258D01*
X10033D01*
X10040Y6255D01*
X10045Y6251D01*
X10049Y6245D01*
X10050Y6238D01*
X9950D02*
X9949Y6231D01*
X9945Y6225D01*
X9940Y6221D01*
X9933Y6218D01*
X9927D01*
X9920Y6221D01*
X9915Y6225D01*
X9911Y6231D01*
X9910Y6238D01*
X9911Y6245D01*
X9915Y6251D01*
X9920Y6255D01*
X9927Y6258D01*
X9933D01*
X9940Y6255D01*
X9945Y6251D01*
X9949Y6245D01*
X9950Y6238D01*
X9850D02*
X9849Y6231D01*
X9845Y6225D01*
X9840Y6221D01*
X9833Y6218D01*
X9827D01*
X9820Y6221D01*
X9815Y6225D01*
X9811Y6231D01*
X9810Y6238D01*
X9811Y6245D01*
X9815Y6251D01*
X9820Y6255D01*
X9827Y6258D01*
X9833D01*
X9840Y6255D01*
X9845Y6251D01*
X9849Y6245D01*
X9850Y6238D01*
X9750Y6538D02*
X9749Y6531D01*
X9745Y6525D01*
X9740Y6521D01*
X9733Y6518D01*
X9727D01*
X9720Y6521D01*
X9715Y6525D01*
X9711Y6531D01*
X9710Y6538D01*
X9711Y6545D01*
X9715Y6551D01*
X9720Y6555D01*
X9727Y6558D01*
X9733D01*
X9740Y6555D01*
X9745Y6551D01*
X9749Y6545D01*
X9750Y6538D01*
Y6238D02*
X9749Y6231D01*
X9745Y6225D01*
X9740Y6221D01*
X9733Y6218D01*
X9727D01*
X9720Y6221D01*
X9715Y6225D01*
X9711Y6231D01*
X9710Y6238D01*
X9711Y6245D01*
X9715Y6251D01*
X9720Y6255D01*
X9727Y6258D01*
X9733D01*
X9740Y6255D01*
X9745Y6251D01*
X9749Y6245D01*
X9750Y6238D01*
X10150Y6688D02*
X10149Y6681D01*
X10145Y6675D01*
X10140Y6671D01*
X10133Y6668D01*
X10127D01*
X10120Y6671D01*
X10115Y6675D01*
X10111Y6681D01*
X10110Y6688D01*
X10111Y6695D01*
X10115Y6701D01*
X10120Y6705D01*
X10127Y6708D01*
X10133D01*
X10140Y6705D01*
X10145Y6701D01*
X10149Y6695D01*
X10150Y6688D01*
Y7088D02*
X10149Y7081D01*
X10145Y7075D01*
X10140Y7071D01*
X10133Y7068D01*
X10127D01*
X10120Y7071D01*
X10115Y7075D01*
X10111Y7081D01*
X10110Y7088D01*
X10111Y7095D01*
X10115Y7101D01*
X10120Y7105D01*
X10127Y7108D01*
X10133D01*
X10140Y7105D01*
X10145Y7101D01*
X10149Y7095D01*
X10150Y7088D01*
X10050D02*
X10049Y7081D01*
X10045Y7075D01*
X10040Y7071D01*
X10033Y7068D01*
X10027D01*
X10020Y7071D01*
X10015Y7075D01*
X10011Y7081D01*
X10010Y7088D01*
X10011Y7095D01*
X10015Y7101D01*
X10020Y7105D01*
X10027Y7108D01*
X10033D01*
X10040Y7105D01*
X10045Y7101D01*
X10049Y7095D01*
X10050Y7088D01*
Y6688D02*
X10049Y6681D01*
X10045Y6675D01*
X10040Y6671D01*
X10033Y6668D01*
X10027D01*
X10020Y6671D01*
X10015Y6675D01*
X10011Y6681D01*
X10010Y6688D01*
X10011Y6695D01*
X10015Y6701D01*
X10020Y6705D01*
X10027Y6708D01*
X10033D01*
X10040Y6705D01*
X10045Y6701D01*
X10049Y6695D01*
X10050Y6688D01*
X9350D02*
X9349Y6681D01*
X9345Y6675D01*
X9340Y6671D01*
X9333Y6668D01*
X9327D01*
X9320Y6671D01*
X9315Y6675D01*
X9311Y6681D01*
X9310Y6688D01*
X9311Y6695D01*
X9315Y6701D01*
X9320Y6705D01*
X9327Y6708D01*
X9333D01*
X9340Y6705D01*
X9345Y6701D01*
X9349Y6695D01*
X9350Y6688D01*
Y7088D02*
X9349Y7081D01*
X9345Y7075D01*
X9340Y7071D01*
X9333Y7068D01*
X9327D01*
X9320Y7071D01*
X9315Y7075D01*
X9311Y7081D01*
X9310Y7088D01*
X9311Y7095D01*
X9315Y7101D01*
X9320Y7105D01*
X9327Y7108D01*
X9333D01*
X9340Y7105D01*
X9345Y7101D01*
X9349Y7095D01*
X9350Y7088D01*
X9450Y6688D02*
X9449Y6681D01*
X9445Y6675D01*
X9440Y6671D01*
X9433Y6668D01*
X9427D01*
X9420Y6671D01*
X9415Y6675D01*
X9411Y6681D01*
X9410Y6688D01*
X9411Y6695D01*
X9415Y6701D01*
X9420Y6705D01*
X9427Y6708D01*
X9433D01*
X9440Y6705D01*
X9445Y6701D01*
X9449Y6695D01*
X9450Y6688D01*
Y7088D02*
X9449Y7081D01*
X9445Y7075D01*
X9440Y7071D01*
X9433Y7068D01*
X9427D01*
X9420Y7071D01*
X9415Y7075D01*
X9411Y7081D01*
X9410Y7088D01*
X9411Y7095D01*
X9415Y7101D01*
X9420Y7105D01*
X9427Y7108D01*
X9433D01*
X9440Y7105D01*
X9445Y7101D01*
X9449Y7095D01*
X9450Y7088D01*
X9150Y6688D02*
X9149Y6681D01*
X9145Y6675D01*
X9140Y6671D01*
X9133Y6668D01*
X9127D01*
X9120Y6671D01*
X9115Y6675D01*
X9111Y6681D01*
X9110Y6688D01*
X9111Y6695D01*
X9115Y6701D01*
X9120Y6705D01*
X9127Y6708D01*
X9133D01*
X9140Y6705D01*
X9145Y6701D01*
X9149Y6695D01*
X9150Y6688D01*
Y7088D02*
X9149Y7081D01*
X9145Y7075D01*
X9140Y7071D01*
X9133Y7068D01*
X9127D01*
X9120Y7071D01*
X9115Y7075D01*
X9111Y7081D01*
X9110Y7088D01*
X9111Y7095D01*
X9115Y7101D01*
X9120Y7105D01*
X9127Y7108D01*
X9133D01*
X9140Y7105D01*
X9145Y7101D01*
X9149Y7095D01*
X9150Y7088D01*
X9600Y6988D02*
X9599Y6981D01*
X9595Y6975D01*
X9590Y6971D01*
X9583Y6968D01*
X9577D01*
X9570Y6971D01*
X9565Y6975D01*
X9561Y6981D01*
X9560Y6988D01*
X9561Y6995D01*
X9565Y7001D01*
X9570Y7005D01*
X9577Y7008D01*
X9583D01*
X9590Y7005D01*
X9595Y7001D01*
X9599Y6995D01*
X9600Y6988D01*
Y6888D02*
X9599Y6881D01*
X9595Y6875D01*
X9590Y6871D01*
X9583Y6868D01*
X9577D01*
X9570Y6871D01*
X9565Y6875D01*
X9561Y6881D01*
X9560Y6888D01*
X9561Y6895D01*
X9565Y6901D01*
X9570Y6905D01*
X9577Y6908D01*
X9583D01*
X9590Y6905D01*
X9595Y6901D01*
X9599Y6895D01*
X9600Y6888D01*
X8880Y6768D02*
X8860Y6808D01*
X8900D01*
X8880Y6768D01*
X8960Y6808D02*
X8980Y6768D01*
X8960Y6808D02*
X9000D01*
X8980Y6768D01*
X8930Y6718D02*
X8910Y6758D01*
X8950D01*
X8930Y6718D01*
X9250Y6688D02*
X9249Y6681D01*
X9245Y6675D01*
X9240Y6671D01*
X9233Y6668D01*
X9227D01*
X9220Y6671D01*
X9215Y6675D01*
X9211Y6681D01*
X9210Y6688D01*
X9211Y6695D01*
X9215Y6701D01*
X9220Y6705D01*
X9227Y6708D01*
X9233D01*
X9240Y6705D01*
X9245Y6701D01*
X9249Y6695D01*
X9250Y6688D01*
Y7088D02*
X9249Y7081D01*
X9245Y7075D01*
X9240Y7071D01*
X9233Y7068D01*
X9227D01*
X9220Y7071D01*
X9215Y7075D01*
X9211Y7081D01*
X9210Y7088D01*
X9211Y7095D01*
X9215Y7101D01*
X9220Y7105D01*
X9227Y7108D01*
X9233D01*
X9240Y7105D01*
X9245Y7101D01*
X9249Y7095D01*
X9250Y7088D01*
X8880Y6918D02*
X8860Y6958D01*
X8900D01*
X8880Y6918D01*
X8960Y6958D02*
X8980Y6918D01*
X8960Y6958D02*
X9000D01*
X8980Y6918D01*
X8930Y6868D02*
X8910Y6908D01*
X8950D01*
X8930Y6868D01*
X8800Y7238D02*
X8799Y7231D01*
X8795Y7225D01*
X8790Y7221D01*
X8783Y7218D01*
X8777D01*
X8770Y7221D01*
X8765Y7225D01*
X8761Y7231D01*
X8760Y7238D01*
X8761Y7245D01*
X8765Y7251D01*
X8770Y7255D01*
X8777Y7258D01*
X8783D01*
X8790Y7255D01*
X8795Y7251D01*
X8799Y7245D01*
X8800Y7238D01*
Y7638D02*
X8799Y7631D01*
X8795Y7625D01*
X8790Y7621D01*
X8783Y7618D01*
X8777D01*
X8770Y7621D01*
X8765Y7625D01*
X8761Y7631D01*
X8760Y7638D01*
X8761Y7645D01*
X8765Y7651D01*
X8770Y7655D01*
X8777Y7658D01*
X8783D01*
X8790Y7655D01*
X8795Y7651D01*
X8799Y7645D01*
X8800Y7638D01*
X8875Y8088D02*
X8874Y8081D01*
X8870Y8075D01*
X8865Y8071D01*
X8858Y8068D01*
X8852D01*
X8845Y8071D01*
X8840Y8075D01*
X8836Y8081D01*
X8835Y8088D01*
X8836Y8095D01*
X8840Y8101D01*
X8845Y8105D01*
X8852Y8108D01*
X8858D01*
X8865Y8105D01*
X8870Y8101D01*
X8874Y8095D01*
X8875Y8088D01*
Y7788D02*
X8874Y7781D01*
X8870Y7775D01*
X8865Y7771D01*
X8858Y7768D01*
X8852D01*
X8845Y7771D01*
X8840Y7775D01*
X8836Y7781D01*
X8835Y7788D01*
X8836Y7795D01*
X8840Y7801D01*
X8845Y7805D01*
X8852Y7808D01*
X8858D01*
X8865Y7805D01*
X8870Y7801D01*
X8874Y7795D01*
X8875Y7788D01*
X10050Y8638D02*
X10049Y8631D01*
X10045Y8625D01*
X10040Y8621D01*
X10033Y8618D01*
X10027D01*
X10020Y8621D01*
X10015Y8625D01*
X10011Y8631D01*
X10010Y8638D01*
X10011Y8645D01*
X10015Y8651D01*
X10020Y8655D01*
X10027Y8658D01*
X10033D01*
X10040Y8655D01*
X10045Y8651D01*
X10049Y8645D01*
X10050Y8638D01*
Y8238D02*
X10049Y8231D01*
X10045Y8225D01*
X10040Y8221D01*
X10033Y8218D01*
X10027D01*
X10020Y8221D01*
X10015Y8225D01*
X10011Y8231D01*
X10010Y8238D01*
X10011Y8245D01*
X10015Y8251D01*
X10020Y8255D01*
X10027Y8258D01*
X10033D01*
X10040Y8255D01*
X10045Y8251D01*
X10049Y8245D01*
X10050Y8238D01*
X9050Y8088D02*
X9049Y8081D01*
X9045Y8075D01*
X9040Y8071D01*
X9033Y8068D01*
X9027D01*
X9020Y8071D01*
X9015Y8075D01*
X9011Y8081D01*
X9010Y8088D01*
X9011Y8095D01*
X9015Y8101D01*
X9020Y8105D01*
X9027Y8108D01*
X9033D01*
X9040Y8105D01*
X9045Y8101D01*
X9049Y8095D01*
X9050Y8088D01*
X9150D02*
X9149Y8081D01*
X9145Y8075D01*
X9140Y8071D01*
X9133Y8068D01*
X9127D01*
X9120Y8071D01*
X9115Y8075D01*
X9111Y8081D01*
X9110Y8088D01*
X9111Y8095D01*
X9115Y8101D01*
X9120Y8105D01*
X9127Y8108D01*
X9133D01*
X9140Y8105D01*
X9145Y8101D01*
X9149Y8095D01*
X9150Y8088D01*
X9250D02*
X9249Y8081D01*
X9245Y8075D01*
X9240Y8071D01*
X9233Y8068D01*
X9227D01*
X9220Y8071D01*
X9215Y8075D01*
X9211Y8081D01*
X9210Y8088D01*
X9211Y8095D01*
X9215Y8101D01*
X9220Y8105D01*
X9227Y8108D01*
X9233D01*
X9240Y8105D01*
X9245Y8101D01*
X9249Y8095D01*
X9250Y8088D01*
X9350D02*
X9349Y8081D01*
X9345Y8075D01*
X9340Y8071D01*
X9333Y8068D01*
X9327D01*
X9320Y8071D01*
X9315Y8075D01*
X9311Y8081D01*
X9310Y8088D01*
X9311Y8095D01*
X9315Y8101D01*
X9320Y8105D01*
X9327Y8108D01*
X9333D01*
X9340Y8105D01*
X9345Y8101D01*
X9349Y8095D01*
X9350Y8088D01*
Y7788D02*
X9349Y7781D01*
X9345Y7775D01*
X9340Y7771D01*
X9333Y7768D01*
X9327D01*
X9320Y7771D01*
X9315Y7775D01*
X9311Y7781D01*
X9310Y7788D01*
X9311Y7795D01*
X9315Y7801D01*
X9320Y7805D01*
X9327Y7808D01*
X9333D01*
X9340Y7805D01*
X9345Y7801D01*
X9349Y7795D01*
X9350Y7788D01*
X9250D02*
X9249Y7781D01*
X9245Y7775D01*
X9240Y7771D01*
X9233Y7768D01*
X9227D01*
X9220Y7771D01*
X9215Y7775D01*
X9211Y7781D01*
X9210Y7788D01*
X9211Y7795D01*
X9215Y7801D01*
X9220Y7805D01*
X9227Y7808D01*
X9233D01*
X9240Y7805D01*
X9245Y7801D01*
X9249Y7795D01*
X9250Y7788D01*
X9150D02*
X9149Y7781D01*
X9145Y7775D01*
X9140Y7771D01*
X9133Y7768D01*
X9127D01*
X9120Y7771D01*
X9115Y7775D01*
X9111Y7781D01*
X9110Y7788D01*
X9111Y7795D01*
X9115Y7801D01*
X9120Y7805D01*
X9127Y7808D01*
X9133D01*
X9140Y7805D01*
X9145Y7801D01*
X9149Y7795D01*
X9150Y7788D01*
X9050D02*
X9049Y7781D01*
X9045Y7775D01*
X9040Y7771D01*
X9033Y7768D01*
X9027D01*
X9020Y7771D01*
X9015Y7775D01*
X9011Y7781D01*
X9010Y7788D01*
X9011Y7795D01*
X9015Y7801D01*
X9020Y7805D01*
X9027Y7808D01*
X9033D01*
X9040Y7805D01*
X9045Y7801D01*
X9049Y7795D01*
X9050Y7788D01*
X9450D02*
X9449Y7781D01*
X9445Y7775D01*
X9440Y7771D01*
X9433Y7768D01*
X9427D01*
X9420Y7771D01*
X9415Y7775D01*
X9411Y7781D01*
X9410Y7788D01*
X9411Y7795D01*
X9415Y7801D01*
X9420Y7805D01*
X9427Y7808D01*
X9433D01*
X9440Y7805D01*
X9445Y7801D01*
X9449Y7795D01*
X9450Y7788D01*
Y8088D02*
X9449Y8081D01*
X9445Y8075D01*
X9440Y8071D01*
X9433Y8068D01*
X9427D01*
X9420Y8071D01*
X9415Y8075D01*
X9411Y8081D01*
X9410Y8088D01*
X9411Y8095D01*
X9415Y8101D01*
X9420Y8105D01*
X9427Y8108D01*
X9433D01*
X9440Y8105D01*
X9445Y8101D01*
X9449Y8095D01*
X9450Y8088D01*
X9550Y8238D02*
X9549Y8231D01*
X9545Y8225D01*
X9540Y8221D01*
X9533Y8218D01*
X9527D01*
X9520Y8221D01*
X9515Y8225D01*
X9511Y8231D01*
X9510Y8238D01*
X9511Y8245D01*
X9515Y8251D01*
X9520Y8255D01*
X9527Y8258D01*
X9533D01*
X9540Y8255D01*
X9545Y8251D01*
X9549Y8245D01*
X9550Y8238D01*
Y8638D02*
X9549Y8631D01*
X9545Y8625D01*
X9540Y8621D01*
X9533Y8618D01*
X9527D01*
X9520Y8621D01*
X9515Y8625D01*
X9511Y8631D01*
X9510Y8638D01*
X9511Y8645D01*
X9515Y8651D01*
X9520Y8655D01*
X9527Y8658D01*
X9533D01*
X9540Y8655D01*
X9545Y8651D01*
X9549Y8645D01*
X9550Y8638D01*
X9650D02*
X9649Y8631D01*
X9645Y8625D01*
X9640Y8621D01*
X9633Y8618D01*
X9627D01*
X9620Y8621D01*
X9615Y8625D01*
X9611Y8631D01*
X9610Y8638D01*
X9611Y8645D01*
X9615Y8651D01*
X9620Y8655D01*
X9627Y8658D01*
X9633D01*
X9640Y8655D01*
X9645Y8651D01*
X9649Y8645D01*
X9650Y8638D01*
Y8238D02*
X9649Y8231D01*
X9645Y8225D01*
X9640Y8221D01*
X9633Y8218D01*
X9627D01*
X9620Y8221D01*
X9615Y8225D01*
X9611Y8231D01*
X9610Y8238D01*
X9611Y8245D01*
X9615Y8251D01*
X9620Y8255D01*
X9627Y8258D01*
X9633D01*
X9640Y8255D01*
X9645Y8251D01*
X9649Y8245D01*
X9650Y8238D01*
X9750Y8638D02*
X9749Y8631D01*
X9745Y8625D01*
X9740Y8621D01*
X9733Y8618D01*
X9727D01*
X9720Y8621D01*
X9715Y8625D01*
X9711Y8631D01*
X9710Y8638D01*
X9711Y8645D01*
X9715Y8651D01*
X9720Y8655D01*
X9727Y8658D01*
X9733D01*
X9740Y8655D01*
X9745Y8651D01*
X9749Y8645D01*
X9750Y8638D01*
Y8238D02*
X9749Y8231D01*
X9745Y8225D01*
X9740Y8221D01*
X9733Y8218D01*
X9727D01*
X9720Y8221D01*
X9715Y8225D01*
X9711Y8231D01*
X9710Y8238D01*
X9711Y8245D01*
X9715Y8251D01*
X9720Y8255D01*
X9727Y8258D01*
X9733D01*
X9740Y8255D01*
X9745Y8251D01*
X9749Y8245D01*
X9750Y8238D01*
X9850Y8638D02*
X9849Y8631D01*
X9845Y8625D01*
X9840Y8621D01*
X9833Y8618D01*
X9827D01*
X9820Y8621D01*
X9815Y8625D01*
X9811Y8631D01*
X9810Y8638D01*
X9811Y8645D01*
X9815Y8651D01*
X9820Y8655D01*
X9827Y8658D01*
X9833D01*
X9840Y8655D01*
X9845Y8651D01*
X9849Y8645D01*
X9850Y8638D01*
Y8238D02*
X9849Y8231D01*
X9845Y8225D01*
X9840Y8221D01*
X9833Y8218D01*
X9827D01*
X9820Y8221D01*
X9815Y8225D01*
X9811Y8231D01*
X9810Y8238D01*
X9811Y8245D01*
X9815Y8251D01*
X9820Y8255D01*
X9827Y8258D01*
X9833D01*
X9840Y8255D01*
X9845Y8251D01*
X9849Y8245D01*
X9850Y8238D01*
X9950D02*
X9949Y8231D01*
X9945Y8225D01*
X9940Y8221D01*
X9933Y8218D01*
X9927D01*
X9920Y8221D01*
X9915Y8225D01*
X9911Y8231D01*
X9910Y8238D01*
X9911Y8245D01*
X9915Y8251D01*
X9920Y8255D01*
X9927Y8258D01*
X9933D01*
X9940Y8255D01*
X9945Y8251D01*
X9949Y8245D01*
X9950Y8238D01*
Y8638D02*
X9949Y8631D01*
X9945Y8625D01*
X9940Y8621D01*
X9933Y8618D01*
X9927D01*
X9920Y8621D01*
X9915Y8625D01*
X9911Y8631D01*
X9910Y8638D01*
X9911Y8645D01*
X9915Y8651D01*
X9920Y8655D01*
X9927Y8658D01*
X9933D01*
X9940Y8655D01*
X9945Y8651D01*
X9949Y8645D01*
X9950Y8638D01*
X9550Y8088D02*
X9549Y8081D01*
X9545Y8075D01*
X9540Y8071D01*
X9533Y8068D01*
X9527D01*
X9520Y8071D01*
X9515Y8075D01*
X9511Y8081D01*
X9510Y8088D01*
X9511Y8095D01*
X9515Y8101D01*
X9520Y8105D01*
X9527Y8108D01*
X9533D01*
X9540Y8105D01*
X9545Y8101D01*
X9549Y8095D01*
X9550Y8088D01*
Y7788D02*
X9549Y7781D01*
X9545Y7775D01*
X9540Y7771D01*
X9533Y7768D01*
X9527D01*
X9520Y7771D01*
X9515Y7775D01*
X9511Y7781D01*
X9510Y7788D01*
X9511Y7795D01*
X9515Y7801D01*
X9520Y7805D01*
X9527Y7808D01*
X9533D01*
X9540Y7805D01*
X9545Y7801D01*
X9549Y7795D01*
X9550Y7788D01*
X9650Y8088D02*
X9649Y8081D01*
X9645Y8075D01*
X9640Y8071D01*
X9633Y8068D01*
X9627D01*
X9620Y8071D01*
X9615Y8075D01*
X9611Y8081D01*
X9610Y8088D01*
X9611Y8095D01*
X9615Y8101D01*
X9620Y8105D01*
X9627Y8108D01*
X9633D01*
X9640Y8105D01*
X9645Y8101D01*
X9649Y8095D01*
X9650Y8088D01*
X9750D02*
X9749Y8081D01*
X9745Y8075D01*
X9740Y8071D01*
X9733Y8068D01*
X9727D01*
X9720Y8071D01*
X9715Y8075D01*
X9711Y8081D01*
X9710Y8088D01*
X9711Y8095D01*
X9715Y8101D01*
X9720Y8105D01*
X9727Y8108D01*
X9733D01*
X9740Y8105D01*
X9745Y8101D01*
X9749Y8095D01*
X9750Y8088D01*
X9850D02*
X9849Y8081D01*
X9845Y8075D01*
X9840Y8071D01*
X9833Y8068D01*
X9827D01*
X9820Y8071D01*
X9815Y8075D01*
X9811Y8081D01*
X9810Y8088D01*
X9811Y8095D01*
X9815Y8101D01*
X9820Y8105D01*
X9827Y8108D01*
X9833D01*
X9840Y8105D01*
X9845Y8101D01*
X9849Y8095D01*
X9850Y8088D01*
X9950D02*
X9949Y8081D01*
X9945Y8075D01*
X9940Y8071D01*
X9933Y8068D01*
X9927D01*
X9920Y8071D01*
X9915Y8075D01*
X9911Y8081D01*
X9910Y8088D01*
X9911Y8095D01*
X9915Y8101D01*
X9920Y8105D01*
X9927Y8108D01*
X9933D01*
X9940Y8105D01*
X9945Y8101D01*
X9949Y8095D01*
X9950Y8088D01*
Y7788D02*
X9949Y7781D01*
X9945Y7775D01*
X9940Y7771D01*
X9933Y7768D01*
X9927D01*
X9920Y7771D01*
X9915Y7775D01*
X9911Y7781D01*
X9910Y7788D01*
X9911Y7795D01*
X9915Y7801D01*
X9920Y7805D01*
X9927Y7808D01*
X9933D01*
X9940Y7805D01*
X9945Y7801D01*
X9949Y7795D01*
X9950Y7788D01*
X9850D02*
X9849Y7781D01*
X9845Y7775D01*
X9840Y7771D01*
X9833Y7768D01*
X9827D01*
X9820Y7771D01*
X9815Y7775D01*
X9811Y7781D01*
X9810Y7788D01*
X9811Y7795D01*
X9815Y7801D01*
X9820Y7805D01*
X9827Y7808D01*
X9833D01*
X9840Y7805D01*
X9845Y7801D01*
X9849Y7795D01*
X9850Y7788D01*
X9750D02*
X9749Y7781D01*
X9745Y7775D01*
X9740Y7771D01*
X9733Y7768D01*
X9727D01*
X9720Y7771D01*
X9715Y7775D01*
X9711Y7781D01*
X9710Y7788D01*
X9711Y7795D01*
X9715Y7801D01*
X9720Y7805D01*
X9727Y7808D01*
X9733D01*
X9740Y7805D01*
X9745Y7801D01*
X9749Y7795D01*
X9750Y7788D01*
X9650D02*
X9649Y7781D01*
X9645Y7775D01*
X9640Y7771D01*
X9633Y7768D01*
X9627D01*
X9620Y7771D01*
X9615Y7775D01*
X9611Y7781D01*
X9610Y7788D01*
X9611Y7795D01*
X9615Y7801D01*
X9620Y7805D01*
X9627Y7808D01*
X9633D01*
X9640Y7805D01*
X9645Y7801D01*
X9649Y7795D01*
X9650Y7788D01*
X10050D02*
X10049Y7781D01*
X10045Y7775D01*
X10040Y7771D01*
X10033Y7768D01*
X10027D01*
X10020Y7771D01*
X10015Y7775D01*
X10011Y7781D01*
X10010Y7788D01*
X10011Y7795D01*
X10015Y7801D01*
X10020Y7805D01*
X10027Y7808D01*
X10033D01*
X10040Y7805D01*
X10045Y7801D01*
X10049Y7795D01*
X10050Y7788D01*
Y8088D02*
X10049Y8081D01*
X10045Y8075D01*
X10040Y8071D01*
X10033Y8068D01*
X10027D01*
X10020Y8071D01*
X10015Y8075D01*
X10011Y8081D01*
X10010Y8088D01*
X10011Y8095D01*
X10015Y8101D01*
X10020Y8105D01*
X10027Y8108D01*
X10033D01*
X10040Y8105D01*
X10045Y8101D01*
X10049Y8095D01*
X10050Y8088D01*
X10200D02*
X10199Y8081D01*
X10195Y8075D01*
X10190Y8071D01*
X10183Y8068D01*
X10177D01*
X10170Y8071D01*
X10165Y8075D01*
X10161Y8081D01*
X10160Y8088D01*
X10161Y8095D01*
X10165Y8101D01*
X10170Y8105D01*
X10177Y8108D01*
X10183D01*
X10190Y8105D01*
X10195Y8101D01*
X10199Y8095D01*
X10200Y8088D01*
Y7788D02*
X10199Y7781D01*
X10195Y7775D01*
X10190Y7771D01*
X10183Y7768D01*
X10177D01*
X10170Y7771D01*
X10165Y7775D01*
X10161Y7781D01*
X10160Y7788D01*
X10161Y7795D01*
X10165Y7801D01*
X10170Y7805D01*
X10177Y7808D01*
X10183D01*
X10190Y7805D01*
X10195Y7801D01*
X10199Y7795D01*
X10200Y7788D01*
X10000Y8788D02*
X9999Y8781D01*
X9995Y8775D01*
X9990Y8771D01*
X9983Y8768D01*
X9977D01*
X9970Y8771D01*
X9965Y8775D01*
X9961Y8781D01*
X9960Y8788D01*
X9961Y8795D01*
X9965Y8801D01*
X9970Y8805D01*
X9977Y8808D01*
X9983D01*
X9990Y8805D01*
X9995Y8801D01*
X9999Y8795D01*
X10000Y8788D01*
Y9188D02*
X9999Y9181D01*
X9995Y9175D01*
X9990Y9171D01*
X9983Y9168D01*
X9977D01*
X9970Y9171D01*
X9965Y9175D01*
X9961Y9181D01*
X9960Y9188D01*
X9961Y9195D01*
X9965Y9201D01*
X9970Y9205D01*
X9977Y9208D01*
X9983D01*
X9990Y9205D01*
X9995Y9201D01*
X9999Y9195D01*
X10000Y9188D01*
X10100D02*
X10099Y9181D01*
X10095Y9175D01*
X10090Y9171D01*
X10083Y9168D01*
X10077D01*
X10070Y9171D01*
X10065Y9175D01*
X10061Y9181D01*
X10060Y9188D01*
X10061Y9195D01*
X10065Y9201D01*
X10070Y9205D01*
X10077Y9208D01*
X10083D01*
X10090Y9205D01*
X10095Y9201D01*
X10099Y9195D01*
X10100Y9188D01*
Y8788D02*
X10099Y8781D01*
X10095Y8775D01*
X10090Y8771D01*
X10083Y8768D01*
X10077D01*
X10070Y8771D01*
X10065Y8775D01*
X10061Y8781D01*
X10060Y8788D01*
X10061Y8795D01*
X10065Y8801D01*
X10070Y8805D01*
X10077Y8808D01*
X10083D01*
X10090Y8805D01*
X10095Y8801D01*
X10099Y8795D01*
X10100Y8788D01*
X10200Y9088D02*
X10199Y9081D01*
X10195Y9075D01*
X10190Y9071D01*
X10183Y9068D01*
X10177D01*
X10170Y9071D01*
X10165Y9075D01*
X10161Y9081D01*
X10160Y9088D01*
X10161Y9095D01*
X10165Y9101D01*
X10170Y9105D01*
X10177Y9108D01*
X10183D01*
X10190Y9105D01*
X10195Y9101D01*
X10199Y9095D01*
X10200Y9088D01*
Y8938D02*
X10199Y8931D01*
X10195Y8925D01*
X10190Y8921D01*
X10183Y8918D01*
X10177D01*
X10170Y8921D01*
X10165Y8925D01*
X10161Y8931D01*
X10160Y8938D01*
X10161Y8945D01*
X10165Y8951D01*
X10170Y8955D01*
X10177Y8958D01*
X10183D01*
X10190Y8955D01*
X10195Y8951D01*
X10199Y8945D01*
X10200Y8938D01*
X8700Y8788D02*
X8699Y8781D01*
X8695Y8775D01*
X8690Y8771D01*
X8683Y8768D01*
X8677D01*
X8670Y8771D01*
X8665Y8775D01*
X8661Y8781D01*
X8660Y8788D01*
X8661Y8795D01*
X8665Y8801D01*
X8670Y8805D01*
X8677Y8808D01*
X8683D01*
X8690Y8805D01*
X8695Y8801D01*
X8699Y8795D01*
X8700Y8788D01*
Y9188D02*
X8699Y9181D01*
X8695Y9175D01*
X8690Y9171D01*
X8683Y9168D01*
X8677D01*
X8670Y9171D01*
X8665Y9175D01*
X8661Y9181D01*
X8660Y9188D01*
X8661Y9195D01*
X8665Y9201D01*
X8670Y9205D01*
X8677Y9208D01*
X8683D01*
X8690Y9205D01*
X8695Y9201D01*
X8699Y9195D01*
X8700Y9188D01*
X8900D02*
X8899Y9181D01*
X8895Y9175D01*
X8890Y9171D01*
X8883Y9168D01*
X8877D01*
X8870Y9171D01*
X8865Y9175D01*
X8861Y9181D01*
X8860Y9188D01*
X8861Y9195D01*
X8865Y9201D01*
X8870Y9205D01*
X8877Y9208D01*
X8883D01*
X8890Y9205D01*
X8895Y9201D01*
X8899Y9195D01*
X8900Y9188D01*
Y8788D02*
X8899Y8781D01*
X8895Y8775D01*
X8890Y8771D01*
X8883Y8768D01*
X8877D01*
X8870Y8771D01*
X8865Y8775D01*
X8861Y8781D01*
X8860Y8788D01*
X8861Y8795D01*
X8865Y8801D01*
X8870Y8805D01*
X8877Y8808D01*
X8883D01*
X8890Y8805D01*
X8895Y8801D01*
X8899Y8795D01*
X8900Y8788D01*
X9200D02*
X9199Y8781D01*
X9195Y8775D01*
X9190Y8771D01*
X9183Y8768D01*
X9177D01*
X9170Y8771D01*
X9165Y8775D01*
X9161Y8781D01*
X9160Y8788D01*
X9161Y8795D01*
X9165Y8801D01*
X9170Y8805D01*
X9177Y8808D01*
X9183D01*
X9190Y8805D01*
X9195Y8801D01*
X9199Y8795D01*
X9200Y8788D01*
Y9188D02*
X9199Y9181D01*
X9195Y9175D01*
X9190Y9171D01*
X9183Y9168D01*
X9177D01*
X9170Y9171D01*
X9165Y9175D01*
X9161Y9181D01*
X9160Y9188D01*
X9161Y9195D01*
X9165Y9201D01*
X9170Y9205D01*
X9177Y9208D01*
X9183D01*
X9190Y9205D01*
X9195Y9201D01*
X9199Y9195D01*
X9200Y9188D01*
X9300Y8938D02*
X9299Y8931D01*
X9295Y8925D01*
X9290Y8921D01*
X9283Y8918D01*
X9277D01*
X9270Y8921D01*
X9265Y8925D01*
X9261Y8931D01*
X9260Y8938D01*
X9261Y8945D01*
X9265Y8951D01*
X9270Y8955D01*
X9277Y8958D01*
X9283D01*
X9290Y8955D01*
X9295Y8951D01*
X9299Y8945D01*
X9300Y8938D01*
Y9038D02*
X9299Y9031D01*
X9295Y9025D01*
X9290Y9021D01*
X9283Y9018D01*
X9277D01*
X9270Y9021D01*
X9265Y9025D01*
X9261Y9031D01*
X9260Y9038D01*
X9261Y9045D01*
X9265Y9051D01*
X9270Y9055D01*
X9277Y9058D01*
X9283D01*
X9290Y9055D01*
X9295Y9051D01*
X9299Y9045D01*
X9300Y9038D01*
X9100Y8888D02*
X9099Y8881D01*
X9095Y8875D01*
X9090Y8871D01*
X9083Y8868D01*
X9077D01*
X9070Y8871D01*
X9065Y8875D01*
X9061Y8881D01*
X9060Y8888D01*
X9061Y8895D01*
X9065Y8901D01*
X9070Y8905D01*
X9077Y8908D01*
X9083D01*
X9090Y8905D01*
X9095Y8901D01*
X9099Y8895D01*
X9100Y8888D01*
Y9088D02*
X9099Y9081D01*
X9095Y9075D01*
X9090Y9071D01*
X9083Y9068D01*
X9077D01*
X9070Y9071D01*
X9065Y9075D01*
X9061Y9081D01*
X9060Y9088D01*
X9061Y9095D01*
X9065Y9101D01*
X9070Y9105D01*
X9077Y9108D01*
X9083D01*
X9090Y9105D01*
X9095Y9101D01*
X9099Y9095D01*
X9100Y9088D01*
X10110Y8408D02*
X10130Y8368D01*
X10110Y8408D02*
X10150D01*
X10130Y8368D01*
Y8468D02*
X10110Y8508D01*
X10150D01*
X10130Y8468D01*
X10160Y8458D02*
X10180Y8418D01*
X10160Y8458D02*
X10200D01*
X10180Y8418D01*
X9100Y9638D02*
X9099Y9631D01*
X9095Y9625D01*
X9090Y9621D01*
X9083Y9618D01*
X9077D01*
X9070Y9621D01*
X9065Y9625D01*
X9061Y9631D01*
X9060Y9638D01*
X9061Y9645D01*
X9065Y9651D01*
X9070Y9655D01*
X9077Y9658D01*
X9083D01*
X9090Y9655D01*
X9095Y9651D01*
X9099Y9645D01*
X9100Y9638D01*
X9200D02*
X9199Y9631D01*
X9195Y9625D01*
X9190Y9621D01*
X9183Y9618D01*
X9177D01*
X9170Y9621D01*
X9165Y9625D01*
X9161Y9631D01*
X9160Y9638D01*
X9161Y9645D01*
X9165Y9651D01*
X9170Y9655D01*
X9177Y9658D01*
X9183D01*
X9190Y9655D01*
X9195Y9651D01*
X9199Y9645D01*
X9200Y9638D01*
X9300D02*
X9299Y9631D01*
X9295Y9625D01*
X9290Y9621D01*
X9283Y9618D01*
X9277D01*
X9270Y9621D01*
X9265Y9625D01*
X9261Y9631D01*
X9260Y9638D01*
X9261Y9645D01*
X9265Y9651D01*
X9270Y9655D01*
X9277Y9658D01*
X9283D01*
X9290Y9655D01*
X9295Y9651D01*
X9299Y9645D01*
X9300Y9638D01*
X9400D02*
X9399Y9631D01*
X9395Y9625D01*
X9390Y9621D01*
X9383Y9618D01*
X9377D01*
X9370Y9621D01*
X9365Y9625D01*
X9361Y9631D01*
X9360Y9638D01*
X9361Y9645D01*
X9365Y9651D01*
X9370Y9655D01*
X9377Y9658D01*
X9383D01*
X9390Y9655D01*
X9395Y9651D01*
X9399Y9645D01*
X9400Y9638D01*
Y9338D02*
X9399Y9331D01*
X9395Y9325D01*
X9390Y9321D01*
X9383Y9318D01*
X9377D01*
X9370Y9321D01*
X9365Y9325D01*
X9361Y9331D01*
X9360Y9338D01*
X9361Y9345D01*
X9365Y9351D01*
X9370Y9355D01*
X9377Y9358D01*
X9383D01*
X9390Y9355D01*
X9395Y9351D01*
X9399Y9345D01*
X9400Y9338D01*
X9300D02*
X9299Y9331D01*
X9295Y9325D01*
X9290Y9321D01*
X9283Y9318D01*
X9277D01*
X9270Y9321D01*
X9265Y9325D01*
X9261Y9331D01*
X9260Y9338D01*
X9261Y9345D01*
X9265Y9351D01*
X9270Y9355D01*
X9277Y9358D01*
X9283D01*
X9290Y9355D01*
X9295Y9351D01*
X9299Y9345D01*
X9300Y9338D01*
X9200D02*
X9199Y9331D01*
X9195Y9325D01*
X9190Y9321D01*
X9183Y9318D01*
X9177D01*
X9170Y9321D01*
X9165Y9325D01*
X9161Y9331D01*
X9160Y9338D01*
X9161Y9345D01*
X9165Y9351D01*
X9170Y9355D01*
X9177Y9358D01*
X9183D01*
X9190Y9355D01*
X9195Y9351D01*
X9199Y9345D01*
X9200Y9338D01*
X9100D02*
X9099Y9331D01*
X9095Y9325D01*
X9090Y9321D01*
X9083Y9318D01*
X9077D01*
X9070Y9321D01*
X9065Y9325D01*
X9061Y9331D01*
X9060Y9338D01*
X9061Y9345D01*
X9065Y9351D01*
X9070Y9355D01*
X9077Y9358D01*
X9083D01*
X9090Y9355D01*
X9095Y9351D01*
X9099Y9345D01*
X9100Y9338D01*
X9000Y9638D02*
X8999Y9631D01*
X8995Y9625D01*
X8990Y9621D01*
X8983Y9618D01*
X8977D01*
X8970Y9621D01*
X8965Y9625D01*
X8961Y9631D01*
X8960Y9638D01*
X8961Y9645D01*
X8965Y9651D01*
X8970Y9655D01*
X8977Y9658D01*
X8983D01*
X8990Y9655D01*
X8995Y9651D01*
X8999Y9645D01*
X9000Y9638D01*
Y9338D02*
X8999Y9331D01*
X8995Y9325D01*
X8990Y9321D01*
X8983Y9318D01*
X8977D01*
X8970Y9321D01*
X8965Y9325D01*
X8961Y9331D01*
X8960Y9338D01*
X8961Y9345D01*
X8965Y9351D01*
X8970Y9355D01*
X8977Y9358D01*
X8983D01*
X8990Y9355D01*
X8995Y9351D01*
X8999Y9345D01*
X9000Y9338D01*
X9500D02*
X9499Y9331D01*
X9495Y9325D01*
X9490Y9321D01*
X9483Y9318D01*
X9477D01*
X9470Y9321D01*
X9465Y9325D01*
X9461Y9331D01*
X9460Y9338D01*
X9461Y9345D01*
X9465Y9351D01*
X9470Y9355D01*
X9477Y9358D01*
X9483D01*
X9490Y9355D01*
X9495Y9351D01*
X9499Y9345D01*
X9500Y9338D01*
Y9638D02*
X9499Y9631D01*
X9495Y9625D01*
X9490Y9621D01*
X9483Y9618D01*
X9477D01*
X9470Y9621D01*
X9465Y9625D01*
X9461Y9631D01*
X9460Y9638D01*
X9461Y9645D01*
X9465Y9651D01*
X9470Y9655D01*
X9477Y9658D01*
X9483D01*
X9490Y9655D01*
X9495Y9651D01*
X9499Y9645D01*
X9500Y9638D01*
X9700Y9338D02*
X9699Y9331D01*
X9695Y9325D01*
X9690Y9321D01*
X9683Y9318D01*
X9677D01*
X9670Y9321D01*
X9665Y9325D01*
X9661Y9331D01*
X9660Y9338D01*
X9661Y9345D01*
X9665Y9351D01*
X9670Y9355D01*
X9677Y9358D01*
X9683D01*
X9690Y9355D01*
X9695Y9351D01*
X9699Y9345D01*
X9700Y9338D01*
X9800D02*
X9799Y9331D01*
X9795Y9325D01*
X9790Y9321D01*
X9783Y9318D01*
X9777D01*
X9770Y9321D01*
X9765Y9325D01*
X9761Y9331D01*
X9760Y9338D01*
X9761Y9345D01*
X9765Y9351D01*
X9770Y9355D01*
X9777Y9358D01*
X9783D01*
X9790Y9355D01*
X9795Y9351D01*
X9799Y9345D01*
X9800Y9338D01*
X9900D02*
X9899Y9331D01*
X9895Y9325D01*
X9890Y9321D01*
X9883Y9318D01*
X9877D01*
X9870Y9321D01*
X9865Y9325D01*
X9861Y9331D01*
X9860Y9338D01*
X9861Y9345D01*
X9865Y9351D01*
X9870Y9355D01*
X9877Y9358D01*
X9883D01*
X9890Y9355D01*
X9895Y9351D01*
X9899Y9345D01*
X9900Y9338D01*
X10000D02*
X9999Y9331D01*
X9995Y9325D01*
X9990Y9321D01*
X9983Y9318D01*
X9977D01*
X9970Y9321D01*
X9965Y9325D01*
X9961Y9331D01*
X9960Y9338D01*
X9961Y9345D01*
X9965Y9351D01*
X9970Y9355D01*
X9977Y9358D01*
X9983D01*
X9990Y9355D01*
X9995Y9351D01*
X9999Y9345D01*
X10000Y9338D01*
X10100D02*
X10099Y9331D01*
X10095Y9325D01*
X10090Y9321D01*
X10083Y9318D01*
X10077D01*
X10070Y9321D01*
X10065Y9325D01*
X10061Y9331D01*
X10060Y9338D01*
X10061Y9345D01*
X10065Y9351D01*
X10070Y9355D01*
X10077Y9358D01*
X10083D01*
X10090Y9355D01*
X10095Y9351D01*
X10099Y9345D01*
X10100Y9338D01*
X10200D02*
X10199Y9331D01*
X10195Y9325D01*
X10190Y9321D01*
X10183Y9318D01*
X10177D01*
X10170Y9321D01*
X10165Y9325D01*
X10161Y9331D01*
X10160Y9338D01*
X10161Y9345D01*
X10165Y9351D01*
X10170Y9355D01*
X10177Y9358D01*
X10183D01*
X10190Y9355D01*
X10195Y9351D01*
X10199Y9345D01*
X10200Y9338D01*
X10300D02*
X10299Y9331D01*
X10295Y9325D01*
X10290Y9321D01*
X10283Y9318D01*
X10277D01*
X10270Y9321D01*
X10265Y9325D01*
X10261Y9331D01*
X10260Y9338D01*
X10261Y9345D01*
X10265Y9351D01*
X10270Y9355D01*
X10277Y9358D01*
X10283D01*
X10290Y9355D01*
X10295Y9351D01*
X10299Y9345D01*
X10300Y9338D01*
X10400D02*
X10399Y9331D01*
X10395Y9325D01*
X10390Y9321D01*
X10383Y9318D01*
X10377D01*
X10370Y9321D01*
X10365Y9325D01*
X10361Y9331D01*
X10360Y9338D01*
X10361Y9345D01*
X10365Y9351D01*
X10370Y9355D01*
X10377Y9358D01*
X10383D01*
X10390Y9355D01*
X10395Y9351D01*
X10399Y9345D01*
X10400Y9338D01*
Y9638D02*
X10399Y9631D01*
X10395Y9625D01*
X10390Y9621D01*
X10383Y9618D01*
X10377D01*
X10370Y9621D01*
X10365Y9625D01*
X10361Y9631D01*
X10360Y9638D01*
X10361Y9645D01*
X10365Y9651D01*
X10370Y9655D01*
X10377Y9658D01*
X10383D01*
X10390Y9655D01*
X10395Y9651D01*
X10399Y9645D01*
X10400Y9638D01*
X10300D02*
X10299Y9631D01*
X10295Y9625D01*
X10290Y9621D01*
X10283Y9618D01*
X10277D01*
X10270Y9621D01*
X10265Y9625D01*
X10261Y9631D01*
X10260Y9638D01*
X10261Y9645D01*
X10265Y9651D01*
X10270Y9655D01*
X10277Y9658D01*
X10283D01*
X10290Y9655D01*
X10295Y9651D01*
X10299Y9645D01*
X10300Y9638D01*
X10200D02*
X10199Y9631D01*
X10195Y9625D01*
X10190Y9621D01*
X10183Y9618D01*
X10177D01*
X10170Y9621D01*
X10165Y9625D01*
X10161Y9631D01*
X10160Y9638D01*
X10161Y9645D01*
X10165Y9651D01*
X10170Y9655D01*
X10177Y9658D01*
X10183D01*
X10190Y9655D01*
X10195Y9651D01*
X10199Y9645D01*
X10200Y9638D01*
X10100D02*
X10099Y9631D01*
X10095Y9625D01*
X10090Y9621D01*
X10083Y9618D01*
X10077D01*
X10070Y9621D01*
X10065Y9625D01*
X10061Y9631D01*
X10060Y9638D01*
X10061Y9645D01*
X10065Y9651D01*
X10070Y9655D01*
X10077Y9658D01*
X10083D01*
X10090Y9655D01*
X10095Y9651D01*
X10099Y9645D01*
X10100Y9638D01*
X10000D02*
X9999Y9631D01*
X9995Y9625D01*
X9990Y9621D01*
X9983Y9618D01*
X9977D01*
X9970Y9621D01*
X9965Y9625D01*
X9961Y9631D01*
X9960Y9638D01*
X9961Y9645D01*
X9965Y9651D01*
X9970Y9655D01*
X9977Y9658D01*
X9983D01*
X9990Y9655D01*
X9995Y9651D01*
X9999Y9645D01*
X10000Y9638D01*
X9900D02*
X9899Y9631D01*
X9895Y9625D01*
X9890Y9621D01*
X9883Y9618D01*
X9877D01*
X9870Y9621D01*
X9865Y9625D01*
X9861Y9631D01*
X9860Y9638D01*
X9861Y9645D01*
X9865Y9651D01*
X9870Y9655D01*
X9877Y9658D01*
X9883D01*
X9890Y9655D01*
X9895Y9651D01*
X9899Y9645D01*
X9900Y9638D01*
X9800D02*
X9799Y9631D01*
X9795Y9625D01*
X9790Y9621D01*
X9783Y9618D01*
X9777D01*
X9770Y9621D01*
X9765Y9625D01*
X9761Y9631D01*
X9760Y9638D01*
X9761Y9645D01*
X9765Y9651D01*
X9770Y9655D01*
X9777Y9658D01*
X9783D01*
X9790Y9655D01*
X9795Y9651D01*
X9799Y9645D01*
X9800Y9638D01*
X9700D02*
X9699Y9631D01*
X9695Y9625D01*
X9690Y9621D01*
X9683Y9618D01*
X9677D01*
X9670Y9621D01*
X9665Y9625D01*
X9661Y9631D01*
X9660Y9638D01*
X9661Y9645D01*
X9665Y9651D01*
X9670Y9655D01*
X9677Y9658D01*
X9683D01*
X9690Y9655D01*
X9695Y9651D01*
X9699Y9645D01*
X9700Y9638D01*
X9600D02*
X9599Y9631D01*
X9595Y9625D01*
X9590Y9621D01*
X9583Y9618D01*
X9577D01*
X9570Y9621D01*
X9565Y9625D01*
X9561Y9631D01*
X9560Y9638D01*
X9561Y9645D01*
X9565Y9651D01*
X9570Y9655D01*
X9577Y9658D01*
X9583D01*
X9590Y9655D01*
X9595Y9651D01*
X9599Y9645D01*
X9600Y9638D01*
Y9338D02*
X9599Y9331D01*
X9595Y9325D01*
X9590Y9321D01*
X9583Y9318D01*
X9577D01*
X9570Y9321D01*
X9565Y9325D01*
X9561Y9331D01*
X9560Y9338D01*
X9561Y9345D01*
X9565Y9351D01*
X9570Y9355D01*
X9577Y9358D01*
X9583D01*
X9590Y9355D01*
X9595Y9351D01*
X9599Y9345D01*
X9600Y9338D01*
X8700Y9788D02*
X8699Y9781D01*
X8695Y9775D01*
X8690Y9771D01*
X8683Y9768D01*
X8677D01*
X8670Y9771D01*
X8665Y9775D01*
X8661Y9781D01*
X8660Y9788D01*
X8661Y9795D01*
X8665Y9801D01*
X8670Y9805D01*
X8677Y9808D01*
X8683D01*
X8690Y9805D01*
X8695Y9801D01*
X8699Y9795D01*
X8700Y9788D01*
X9100D02*
X9099Y9781D01*
X9095Y9775D01*
X9090Y9771D01*
X9083Y9768D01*
X9077D01*
X9070Y9771D01*
X9065Y9775D01*
X9061Y9781D01*
X9060Y9788D01*
X9061Y9795D01*
X9065Y9801D01*
X9070Y9805D01*
X9077Y9808D01*
X9083D01*
X9090Y9805D01*
X9095Y9801D01*
X9099Y9795D01*
X9100Y9788D01*
X9200Y9888D02*
X9199Y9881D01*
X9195Y9875D01*
X9190Y9871D01*
X9183Y9868D01*
X9177D01*
X9170Y9871D01*
X9165Y9875D01*
X9161Y9881D01*
X9160Y9888D01*
X9161Y9895D01*
X9165Y9901D01*
X9170Y9905D01*
X9177Y9908D01*
X9183D01*
X9190Y9905D01*
X9195Y9901D01*
X9199Y9895D01*
X9200Y9888D01*
X9300D02*
X9299Y9881D01*
X9295Y9875D01*
X9290Y9871D01*
X9283Y9868D01*
X9277D01*
X9270Y9871D01*
X9265Y9875D01*
X9261Y9881D01*
X9260Y9888D01*
X9261Y9895D01*
X9265Y9901D01*
X9270Y9905D01*
X9277Y9908D01*
X9283D01*
X9290Y9905D01*
X9295Y9901D01*
X9299Y9895D01*
X9300Y9888D01*
X10550Y5688D02*
X10549Y5681D01*
X10545Y5675D01*
X10540Y5671D01*
X10533Y5668D01*
X10527D01*
X10520Y5671D01*
X10515Y5675D01*
X10511Y5681D01*
X10510Y5688D01*
X10511Y5695D01*
X10515Y5701D01*
X10520Y5705D01*
X10527Y5708D01*
X10533D01*
X10540Y5705D01*
X10545Y5701D01*
X10549Y5695D01*
X10550Y5688D01*
Y6088D02*
X10549Y6081D01*
X10545Y6075D01*
X10540Y6071D01*
X10533Y6068D01*
X10527D01*
X10520Y6071D01*
X10515Y6075D01*
X10511Y6081D01*
X10510Y6088D01*
X10511Y6095D01*
X10515Y6101D01*
X10520Y6105D01*
X10527Y6108D01*
X10533D01*
X10540Y6105D01*
X10545Y6101D01*
X10549Y6095D01*
X10550Y6088D01*
X10450Y5688D02*
X10449Y5681D01*
X10445Y5675D01*
X10440Y5671D01*
X10433Y5668D01*
X10427D01*
X10420Y5671D01*
X10415Y5675D01*
X10411Y5681D01*
X10410Y5688D01*
X10411Y5695D01*
X10415Y5701D01*
X10420Y5705D01*
X10427Y5708D01*
X10433D01*
X10440Y5705D01*
X10445Y5701D01*
X10449Y5695D01*
X10450Y5688D01*
Y6088D02*
X10449Y6081D01*
X10445Y6075D01*
X10440Y6071D01*
X10433Y6068D01*
X10427D01*
X10420Y6071D01*
X10415Y6075D01*
X10411Y6081D01*
X10410Y6088D01*
X10411Y6095D01*
X10415Y6101D01*
X10420Y6105D01*
X10427Y6108D01*
X10433D01*
X10440Y6105D01*
X10445Y6101D01*
X10449Y6095D01*
X10450Y6088D01*
X10650Y5688D02*
X10649Y5681D01*
X10645Y5675D01*
X10640Y5671D01*
X10633Y5668D01*
X10627D01*
X10620Y5671D01*
X10615Y5675D01*
X10611Y5681D01*
X10610Y5688D01*
X10611Y5695D01*
X10615Y5701D01*
X10620Y5705D01*
X10627Y5708D01*
X10633D01*
X10640Y5705D01*
X10645Y5701D01*
X10649Y5695D01*
X10650Y5688D01*
Y6088D02*
X10649Y6081D01*
X10645Y6075D01*
X10640Y6071D01*
X10633Y6068D01*
X10627D01*
X10620Y6071D01*
X10615Y6075D01*
X10611Y6081D01*
X10610Y6088D01*
X10611Y6095D01*
X10615Y6101D01*
X10620Y6105D01*
X10627Y6108D01*
X10633D01*
X10640Y6105D01*
X10645Y6101D01*
X10649Y6095D01*
X10650Y6088D01*
X10950Y7238D02*
X10949Y7231D01*
X10945Y7225D01*
X10940Y7221D01*
X10933Y7218D01*
X10927D01*
X10920Y7221D01*
X10915Y7225D01*
X10911Y7231D01*
X10910Y7238D01*
X10911Y7245D01*
X10915Y7251D01*
X10920Y7255D01*
X10927Y7258D01*
X10933D01*
X10940Y7255D01*
X10945Y7251D01*
X10949Y7245D01*
X10950Y7238D01*
Y7638D02*
X10949Y7631D01*
X10945Y7625D01*
X10940Y7621D01*
X10933Y7618D01*
X10927D01*
X10920Y7621D01*
X10915Y7625D01*
X10911Y7631D01*
X10910Y7638D01*
X10911Y7645D01*
X10915Y7651D01*
X10920Y7655D01*
X10927Y7658D01*
X10933D01*
X10940Y7655D01*
X10945Y7651D01*
X10949Y7645D01*
X10950Y7638D01*
X11350Y7238D02*
X11349Y7231D01*
X11345Y7225D01*
X11340Y7221D01*
X11333Y7218D01*
X11327D01*
X11320Y7221D01*
X11315Y7225D01*
X11311Y7231D01*
X11310Y7238D01*
X11311Y7245D01*
X11315Y7251D01*
X11320Y7255D01*
X11327Y7258D01*
X11333D01*
X11340Y7255D01*
X11345Y7251D01*
X11349Y7245D01*
X11350Y7238D01*
Y7638D02*
X11349Y7631D01*
X11345Y7625D01*
X11340Y7621D01*
X11333Y7618D01*
X11327D01*
X11320Y7621D01*
X11315Y7625D01*
X11311Y7631D01*
X11310Y7638D01*
X11311Y7645D01*
X11315Y7651D01*
X11320Y7655D01*
X11327Y7658D01*
X11333D01*
X11340Y7655D01*
X11345Y7651D01*
X11349Y7645D01*
X11350Y7638D01*
X11250Y7238D02*
X11249Y7231D01*
X11245Y7225D01*
X11240Y7221D01*
X11233Y7218D01*
X11227D01*
X11220Y7221D01*
X11215Y7225D01*
X11211Y7231D01*
X11210Y7238D01*
X11211Y7245D01*
X11215Y7251D01*
X11220Y7255D01*
X11227Y7258D01*
X11233D01*
X11240Y7255D01*
X11245Y7251D01*
X11249Y7245D01*
X11250Y7238D01*
Y7638D02*
X11249Y7631D01*
X11245Y7625D01*
X11240Y7621D01*
X11233Y7618D01*
X11227D01*
X11220Y7621D01*
X11215Y7625D01*
X11211Y7631D01*
X11210Y7638D01*
X11211Y7645D01*
X11215Y7651D01*
X11220Y7655D01*
X11227Y7658D01*
X11233D01*
X11240Y7655D01*
X11245Y7651D01*
X11249Y7645D01*
X11250Y7638D01*
X11150Y7238D02*
X11149Y7231D01*
X11145Y7225D01*
X11140Y7221D01*
X11133Y7218D01*
X11127D01*
X11120Y7221D01*
X11115Y7225D01*
X11111Y7231D01*
X11110Y7238D01*
X11111Y7245D01*
X11115Y7251D01*
X11120Y7255D01*
X11127Y7258D01*
X11133D01*
X11140Y7255D01*
X11145Y7251D01*
X11149Y7245D01*
X11150Y7238D01*
Y7638D02*
X11149Y7631D01*
X11145Y7625D01*
X11140Y7621D01*
X11133Y7618D01*
X11127D01*
X11120Y7621D01*
X11115Y7625D01*
X11111Y7631D01*
X11110Y7638D01*
X11111Y7645D01*
X11115Y7651D01*
X11120Y7655D01*
X11127Y7658D01*
X11133D01*
X11140Y7655D01*
X11145Y7651D01*
X11149Y7645D01*
X11150Y7638D01*
X11050Y7238D02*
X11049Y7231D01*
X11045Y7225D01*
X11040Y7221D01*
X11033Y7218D01*
X11027D01*
X11020Y7221D01*
X11015Y7225D01*
X11011Y7231D01*
X11010Y7238D01*
X11011Y7245D01*
X11015Y7251D01*
X11020Y7255D01*
X11027Y7258D01*
X11033D01*
X11040Y7255D01*
X11045Y7251D01*
X11049Y7245D01*
X11050Y7238D01*
Y7638D02*
X11049Y7631D01*
X11045Y7625D01*
X11040Y7621D01*
X11033Y7618D01*
X11027D01*
X11020Y7621D01*
X11015Y7625D01*
X11011Y7631D01*
X11010Y7638D01*
X11011Y7645D01*
X11015Y7651D01*
X11020Y7655D01*
X11027Y7658D01*
X11033D01*
X11040Y7655D01*
X11045Y7651D01*
X11049Y7645D01*
X11050Y7638D01*
X10400D02*
X10399Y7631D01*
X10395Y7625D01*
X10390Y7621D01*
X10383Y7618D01*
X10377D01*
X10370Y7621D01*
X10365Y7625D01*
X10361Y7631D01*
X10360Y7638D01*
X10361Y7645D01*
X10365Y7651D01*
X10370Y7655D01*
X10377Y7658D01*
X10383D01*
X10390Y7655D01*
X10395Y7651D01*
X10399Y7645D01*
X10400Y7638D01*
Y7238D02*
X10399Y7231D01*
X10395Y7225D01*
X10390Y7221D01*
X10383Y7218D01*
X10377D01*
X10370Y7221D01*
X10365Y7225D01*
X10361Y7231D01*
X10360Y7238D01*
X10361Y7245D01*
X10365Y7251D01*
X10370Y7255D01*
X10377Y7258D01*
X10383D01*
X10390Y7255D01*
X10395Y7251D01*
X10399Y7245D01*
X10400Y7238D01*
X10300Y7638D02*
X10299Y7631D01*
X10295Y7625D01*
X10290Y7621D01*
X10283Y7618D01*
X10277D01*
X10270Y7621D01*
X10265Y7625D01*
X10261Y7631D01*
X10260Y7638D01*
X10261Y7645D01*
X10265Y7651D01*
X10270Y7655D01*
X10277Y7658D01*
X10283D01*
X10290Y7655D01*
X10295Y7651D01*
X10299Y7645D01*
X10300Y7638D01*
Y7238D02*
X10299Y7231D01*
X10295Y7225D01*
X10290Y7221D01*
X10283Y7218D01*
X10277D01*
X10270Y7221D01*
X10265Y7225D01*
X10261Y7231D01*
X10260Y7238D01*
X10261Y7245D01*
X10265Y7251D01*
X10270Y7255D01*
X10277Y7258D01*
X10283D01*
X10290Y7255D01*
X10295Y7251D01*
X10299Y7245D01*
X10300Y7238D01*
X10450Y6238D02*
X10449Y6231D01*
X10445Y6225D01*
X10440Y6221D01*
X10433Y6218D01*
X10427D01*
X10420Y6221D01*
X10415Y6225D01*
X10411Y6231D01*
X10410Y6238D01*
X10411Y6245D01*
X10415Y6251D01*
X10420Y6255D01*
X10427Y6258D01*
X10433D01*
X10440Y6255D01*
X10445Y6251D01*
X10449Y6245D01*
X10450Y6238D01*
X10550D02*
X10549Y6231D01*
X10545Y6225D01*
X10540Y6221D01*
X10533Y6218D01*
X10527D01*
X10520Y6221D01*
X10515Y6225D01*
X10511Y6231D01*
X10510Y6238D01*
X10511Y6245D01*
X10515Y6251D01*
X10520Y6255D01*
X10527Y6258D01*
X10533D01*
X10540Y6255D01*
X10545Y6251D01*
X10549Y6245D01*
X10550Y6238D01*
X10650D02*
X10649Y6231D01*
X10645Y6225D01*
X10640Y6221D01*
X10633Y6218D01*
X10627D01*
X10620Y6221D01*
X10615Y6225D01*
X10611Y6231D01*
X10610Y6238D01*
X10611Y6245D01*
X10615Y6251D01*
X10620Y6255D01*
X10627Y6258D01*
X10633D01*
X10640Y6255D01*
X10645Y6251D01*
X10649Y6245D01*
X10650Y6238D01*
X10750D02*
X10749Y6231D01*
X10745Y6225D01*
X10740Y6221D01*
X10733Y6218D01*
X10727D01*
X10720Y6221D01*
X10715Y6225D01*
X10711Y6231D01*
X10710Y6238D01*
X10711Y6245D01*
X10715Y6251D01*
X10720Y6255D01*
X10727Y6258D01*
X10733D01*
X10740Y6255D01*
X10745Y6251D01*
X10749Y6245D01*
X10750Y6238D01*
Y6538D02*
X10749Y6531D01*
X10745Y6525D01*
X10740Y6521D01*
X10733Y6518D01*
X10727D01*
X10720Y6521D01*
X10715Y6525D01*
X10711Y6531D01*
X10710Y6538D01*
X10711Y6545D01*
X10715Y6551D01*
X10720Y6555D01*
X10727Y6558D01*
X10733D01*
X10740Y6555D01*
X10745Y6551D01*
X10749Y6545D01*
X10750Y6538D01*
X10650D02*
X10649Y6531D01*
X10645Y6525D01*
X10640Y6521D01*
X10633Y6518D01*
X10627D01*
X10620Y6521D01*
X10615Y6525D01*
X10611Y6531D01*
X10610Y6538D01*
X10611Y6545D01*
X10615Y6551D01*
X10620Y6555D01*
X10627Y6558D01*
X10633D01*
X10640Y6555D01*
X10645Y6551D01*
X10649Y6545D01*
X10650Y6538D01*
X10550D02*
X10549Y6531D01*
X10545Y6525D01*
X10540Y6521D01*
X10533Y6518D01*
X10527D01*
X10520Y6521D01*
X10515Y6525D01*
X10511Y6531D01*
X10510Y6538D01*
X10511Y6545D01*
X10515Y6551D01*
X10520Y6555D01*
X10527Y6558D01*
X10533D01*
X10540Y6555D01*
X10545Y6551D01*
X10549Y6545D01*
X10550Y6538D01*
X10450D02*
X10449Y6531D01*
X10445Y6525D01*
X10440Y6521D01*
X10433Y6518D01*
X10427D01*
X10420Y6521D01*
X10415Y6525D01*
X10411Y6531D01*
X10410Y6538D01*
X10411Y6545D01*
X10415Y6551D01*
X10420Y6555D01*
X10427Y6558D01*
X10433D01*
X10440Y6555D01*
X10445Y6551D01*
X10449Y6545D01*
X10450Y6538D01*
X10850Y6238D02*
X10849Y6231D01*
X10845Y6225D01*
X10840Y6221D01*
X10833Y6218D01*
X10827D01*
X10820Y6221D01*
X10815Y6225D01*
X10811Y6231D01*
X10810Y6238D01*
X10811Y6245D01*
X10815Y6251D01*
X10820Y6255D01*
X10827Y6258D01*
X10833D01*
X10840Y6255D01*
X10845Y6251D01*
X10849Y6245D01*
X10850Y6238D01*
Y6538D02*
X10849Y6531D01*
X10845Y6525D01*
X10840Y6521D01*
X10833Y6518D01*
X10827D01*
X10820Y6521D01*
X10815Y6525D01*
X10811Y6531D01*
X10810Y6538D01*
X10811Y6545D01*
X10815Y6551D01*
X10820Y6555D01*
X10827Y6558D01*
X10833D01*
X10840Y6555D01*
X10845Y6551D01*
X10849Y6545D01*
X10850Y6538D01*
X10350D02*
X10349Y6531D01*
X10345Y6525D01*
X10340Y6521D01*
X10333Y6518D01*
X10327D01*
X10320Y6521D01*
X10315Y6525D01*
X10311Y6531D01*
X10310Y6538D01*
X10311Y6545D01*
X10315Y6551D01*
X10320Y6555D01*
X10327Y6558D01*
X10333D01*
X10340Y6555D01*
X10345Y6551D01*
X10349Y6545D01*
X10350Y6538D01*
Y6238D02*
X10349Y6231D01*
X10345Y6225D01*
X10340Y6221D01*
X10333Y6218D01*
X10327D01*
X10320Y6221D01*
X10315Y6225D01*
X10311Y6231D01*
X10310Y6238D01*
X10311Y6245D01*
X10315Y6251D01*
X10320Y6255D01*
X10327Y6258D01*
X10333D01*
X10340Y6255D01*
X10345Y6251D01*
X10349Y6245D01*
X10350Y6238D01*
X10850Y6688D02*
X10849Y6681D01*
X10845Y6675D01*
X10840Y6671D01*
X10833Y6668D01*
X10827D01*
X10820Y6671D01*
X10815Y6675D01*
X10811Y6681D01*
X10810Y6688D01*
X10811Y6695D01*
X10815Y6701D01*
X10820Y6705D01*
X10827Y6708D01*
X10833D01*
X10840Y6705D01*
X10845Y6701D01*
X10849Y6695D01*
X10850Y6688D01*
Y7088D02*
X10849Y7081D01*
X10845Y7075D01*
X10840Y7071D01*
X10833Y7068D01*
X10827D01*
X10820Y7071D01*
X10815Y7075D01*
X10811Y7081D01*
X10810Y7088D01*
X10811Y7095D01*
X10815Y7101D01*
X10820Y7105D01*
X10827Y7108D01*
X10833D01*
X10840Y7105D01*
X10845Y7101D01*
X10849Y7095D01*
X10850Y7088D01*
X10550D02*
X10549Y7081D01*
X10545Y7075D01*
X10540Y7071D01*
X10533Y7068D01*
X10527D01*
X10520Y7071D01*
X10515Y7075D01*
X10511Y7081D01*
X10510Y7088D01*
X10511Y7095D01*
X10515Y7101D01*
X10520Y7105D01*
X10527Y7108D01*
X10533D01*
X10540Y7105D01*
X10545Y7101D01*
X10549Y7095D01*
X10550Y7088D01*
Y6688D02*
X10549Y6681D01*
X10545Y6675D01*
X10540Y6671D01*
X10533Y6668D01*
X10527D01*
X10520Y6671D01*
X10515Y6675D01*
X10511Y6681D01*
X10510Y6688D01*
X10511Y6695D01*
X10515Y6701D01*
X10520Y6705D01*
X10527Y6708D01*
X10533D01*
X10540Y6705D01*
X10545Y6701D01*
X10549Y6695D01*
X10550Y6688D01*
X10650D02*
X10649Y6681D01*
X10645Y6675D01*
X10640Y6671D01*
X10633Y6668D01*
X10627D01*
X10620Y6671D01*
X10615Y6675D01*
X10611Y6681D01*
X10610Y6688D01*
X10611Y6695D01*
X10615Y6701D01*
X10620Y6705D01*
X10627Y6708D01*
X10633D01*
X10640Y6705D01*
X10645Y6701D01*
X10649Y6695D01*
X10650Y6688D01*
Y7088D02*
X10649Y7081D01*
X10645Y7075D01*
X10640Y7071D01*
X10633Y7068D01*
X10627D01*
X10620Y7071D01*
X10615Y7075D01*
X10611Y7081D01*
X10610Y7088D01*
X10611Y7095D01*
X10615Y7101D01*
X10620Y7105D01*
X10627Y7108D01*
X10633D01*
X10640Y7105D01*
X10645Y7101D01*
X10649Y7095D01*
X10650Y7088D01*
X10750D02*
X10749Y7081D01*
X10745Y7075D01*
X10740Y7071D01*
X10733Y7068D01*
X10727D01*
X10720Y7071D01*
X10715Y7075D01*
X10711Y7081D01*
X10710Y7088D01*
X10711Y7095D01*
X10715Y7101D01*
X10720Y7105D01*
X10727Y7108D01*
X10733D01*
X10740Y7105D01*
X10745Y7101D01*
X10749Y7095D01*
X10750Y7088D01*
Y6688D02*
X10749Y6681D01*
X10745Y6675D01*
X10740Y6671D01*
X10733Y6668D01*
X10727D01*
X10720Y6671D01*
X10715Y6675D01*
X10711Y6681D01*
X10710Y6688D01*
X10711Y6695D01*
X10715Y6701D01*
X10720Y6705D01*
X10727Y6708D01*
X10733D01*
X10740Y6705D01*
X10745Y6701D01*
X10749Y6695D01*
X10750Y6688D01*
X10250Y6238D02*
X10249Y6231D01*
X10245Y6225D01*
X10240Y6221D01*
X10233Y6218D01*
X10227D01*
X10220Y6221D01*
X10215Y6225D01*
X10211Y6231D01*
X10210Y6238D01*
X10211Y6245D01*
X10215Y6251D01*
X10220Y6255D01*
X10227Y6258D01*
X10233D01*
X10240Y6255D01*
X10245Y6251D01*
X10249Y6245D01*
X10250Y6238D01*
Y6538D02*
X10249Y6531D01*
X10245Y6525D01*
X10240Y6521D01*
X10233Y6518D01*
X10227D01*
X10220Y6521D01*
X10215Y6525D01*
X10211Y6531D01*
X10210Y6538D01*
X10211Y6545D01*
X10215Y6551D01*
X10220Y6555D01*
X10227Y6558D01*
X10233D01*
X10240Y6555D01*
X10245Y6551D01*
X10249Y6545D01*
X10250Y6538D01*
X11480Y6518D02*
X11490Y6528D01*
X11500D01*
X11490Y6538D01*
X11500Y6548D01*
X11490D01*
X11480Y6558D01*
X11470Y6548D01*
X11460D01*
X11470Y6538D01*
X11460Y6528D01*
X11470D01*
X11480Y6518D01*
X11022Y6528D02*
X11012Y6518D01*
X11022Y6528D02*
X11032D01*
X11022Y6538D01*
X11032Y6548D01*
X11022D01*
X11012Y6558D01*
X11002Y6548D01*
X10992D01*
X11002Y6538D01*
X10992Y6528D01*
X11002D01*
X11012Y6518D01*
X11168D02*
X11178Y6528D01*
X11188D01*
X11178Y6538D01*
X11188Y6548D01*
X11178D01*
X11168Y6558D01*
X11158Y6548D01*
X11148D01*
X11158Y6538D01*
X11148Y6528D01*
X11158D01*
X11168Y6518D01*
X11324D02*
X11334Y6528D01*
X11344D01*
X11334Y6538D01*
X11344Y6548D01*
X11334D01*
X11324Y6558D01*
X11314Y6548D01*
X11304D01*
X11314Y6538D01*
X11304Y6528D01*
X11314D01*
X11324Y6518D01*
X10800Y8638D02*
X10799Y8631D01*
X10795Y8625D01*
X10790Y8621D01*
X10783Y8618D01*
X10777D01*
X10770Y8621D01*
X10765Y8625D01*
X10761Y8631D01*
X10760Y8638D01*
X10761Y8645D01*
X10765Y8651D01*
X10770Y8655D01*
X10777Y8658D01*
X10783D01*
X10790Y8655D01*
X10795Y8651D01*
X10799Y8645D01*
X10800Y8638D01*
Y8238D02*
X10799Y8231D01*
X10795Y8225D01*
X10790Y8221D01*
X10783Y8218D01*
X10777D01*
X10770Y8221D01*
X10765Y8225D01*
X10761Y8231D01*
X10760Y8238D01*
X10761Y8245D01*
X10765Y8251D01*
X10770Y8255D01*
X10777Y8258D01*
X10783D01*
X10790Y8255D01*
X10795Y8251D01*
X10799Y8245D01*
X10800Y8238D01*
X10900D02*
X10899Y8231D01*
X10895Y8225D01*
X10890Y8221D01*
X10883Y8218D01*
X10877D01*
X10870Y8221D01*
X10865Y8225D01*
X10861Y8231D01*
X10860Y8238D01*
X10861Y8245D01*
X10865Y8251D01*
X10870Y8255D01*
X10877Y8258D01*
X10883D01*
X10890Y8255D01*
X10895Y8251D01*
X10899Y8245D01*
X10900Y8238D01*
Y8638D02*
X10899Y8631D01*
X10895Y8625D01*
X10890Y8621D01*
X10883Y8618D01*
X10877D01*
X10870Y8621D01*
X10865Y8625D01*
X10861Y8631D01*
X10860Y8638D01*
X10861Y8645D01*
X10865Y8651D01*
X10870Y8655D01*
X10877Y8658D01*
X10883D01*
X10890Y8655D01*
X10895Y8651D01*
X10899Y8645D01*
X10900Y8638D01*
X11000Y8238D02*
X10999Y8231D01*
X10995Y8225D01*
X10990Y8221D01*
X10983Y8218D01*
X10977D01*
X10970Y8221D01*
X10965Y8225D01*
X10961Y8231D01*
X10960Y8238D01*
X10961Y8245D01*
X10965Y8251D01*
X10970Y8255D01*
X10977Y8258D01*
X10983D01*
X10990Y8255D01*
X10995Y8251D01*
X10999Y8245D01*
X11000Y8238D01*
Y8638D02*
X10999Y8631D01*
X10995Y8625D01*
X10990Y8621D01*
X10983Y8618D01*
X10977D01*
X10970Y8621D01*
X10965Y8625D01*
X10961Y8631D01*
X10960Y8638D01*
X10961Y8645D01*
X10965Y8651D01*
X10970Y8655D01*
X10977Y8658D01*
X10983D01*
X10990Y8655D01*
X10995Y8651D01*
X10999Y8645D01*
X11000Y8638D01*
X11100D02*
X11099Y8631D01*
X11095Y8625D01*
X11090Y8621D01*
X11083Y8618D01*
X11077D01*
X11070Y8621D01*
X11065Y8625D01*
X11061Y8631D01*
X11060Y8638D01*
X11061Y8645D01*
X11065Y8651D01*
X11070Y8655D01*
X11077Y8658D01*
X11083D01*
X11090Y8655D01*
X11095Y8651D01*
X11099Y8645D01*
X11100Y8638D01*
Y8238D02*
X11099Y8231D01*
X11095Y8225D01*
X11090Y8221D01*
X11083Y8218D01*
X11077D01*
X11070Y8221D01*
X11065Y8225D01*
X11061Y8231D01*
X11060Y8238D01*
X11061Y8245D01*
X11065Y8251D01*
X11070Y8255D01*
X11077Y8258D01*
X11083D01*
X11090Y8255D01*
X11095Y8251D01*
X11099Y8245D01*
X11100Y8238D01*
X11200Y8638D02*
X11199Y8631D01*
X11195Y8625D01*
X11190Y8621D01*
X11183Y8618D01*
X11177D01*
X11170Y8621D01*
X11165Y8625D01*
X11161Y8631D01*
X11160Y8638D01*
X11161Y8645D01*
X11165Y8651D01*
X11170Y8655D01*
X11177Y8658D01*
X11183D01*
X11190Y8655D01*
X11195Y8651D01*
X11199Y8645D01*
X11200Y8638D01*
Y8238D02*
X11199Y8231D01*
X11195Y8225D01*
X11190Y8221D01*
X11183Y8218D01*
X11177D01*
X11170Y8221D01*
X11165Y8225D01*
X11161Y8231D01*
X11160Y8238D01*
X11161Y8245D01*
X11165Y8251D01*
X11170Y8255D01*
X11177Y8258D01*
X11183D01*
X11190Y8255D01*
X11195Y8251D01*
X11199Y8245D01*
X11200Y8238D01*
X11300Y8638D02*
X11299Y8631D01*
X11295Y8625D01*
X11290Y8621D01*
X11283Y8618D01*
X11277D01*
X11270Y8621D01*
X11265Y8625D01*
X11261Y8631D01*
X11260Y8638D01*
X11261Y8645D01*
X11265Y8651D01*
X11270Y8655D01*
X11277Y8658D01*
X11283D01*
X11290Y8655D01*
X11295Y8651D01*
X11299Y8645D01*
X11300Y8638D01*
Y8238D02*
X11299Y8231D01*
X11295Y8225D01*
X11290Y8221D01*
X11283Y8218D01*
X11277D01*
X11270Y8221D01*
X11265Y8225D01*
X11261Y8231D01*
X11260Y8238D01*
X11261Y8245D01*
X11265Y8251D01*
X11270Y8255D01*
X11277Y8258D01*
X11283D01*
X11290Y8255D01*
X11295Y8251D01*
X11299Y8245D01*
X11300Y8238D01*
X11000Y8088D02*
X10999Y8081D01*
X10995Y8075D01*
X10990Y8071D01*
X10983Y8068D01*
X10977D01*
X10970Y8071D01*
X10965Y8075D01*
X10961Y8081D01*
X10960Y8088D01*
X10961Y8095D01*
X10965Y8101D01*
X10970Y8105D01*
X10977Y8108D01*
X10983D01*
X10990Y8105D01*
X10995Y8101D01*
X10999Y8095D01*
X11000Y8088D01*
X11100D02*
X11099Y8081D01*
X11095Y8075D01*
X11090Y8071D01*
X11083Y8068D01*
X11077D01*
X11070Y8071D01*
X11065Y8075D01*
X11061Y8081D01*
X11060Y8088D01*
X11061Y8095D01*
X11065Y8101D01*
X11070Y8105D01*
X11077Y8108D01*
X11083D01*
X11090Y8105D01*
X11095Y8101D01*
X11099Y8095D01*
X11100Y8088D01*
X11200D02*
X11199Y8081D01*
X11195Y8075D01*
X11190Y8071D01*
X11183Y8068D01*
X11177D01*
X11170Y8071D01*
X11165Y8075D01*
X11161Y8081D01*
X11160Y8088D01*
X11161Y8095D01*
X11165Y8101D01*
X11170Y8105D01*
X11177Y8108D01*
X11183D01*
X11190Y8105D01*
X11195Y8101D01*
X11199Y8095D01*
X11200Y8088D01*
X11300D02*
X11299Y8081D01*
X11295Y8075D01*
X11290Y8071D01*
X11283Y8068D01*
X11277D01*
X11270Y8071D01*
X11265Y8075D01*
X11261Y8081D01*
X11260Y8088D01*
X11261Y8095D01*
X11265Y8101D01*
X11270Y8105D01*
X11277Y8108D01*
X11283D01*
X11290Y8105D01*
X11295Y8101D01*
X11299Y8095D01*
X11300Y8088D01*
Y7788D02*
X11299Y7781D01*
X11295Y7775D01*
X11290Y7771D01*
X11283Y7768D01*
X11277D01*
X11270Y7771D01*
X11265Y7775D01*
X11261Y7781D01*
X11260Y7788D01*
X11261Y7795D01*
X11265Y7801D01*
X11270Y7805D01*
X11277Y7808D01*
X11283D01*
X11290Y7805D01*
X11295Y7801D01*
X11299Y7795D01*
X11300Y7788D01*
X11200D02*
X11199Y7781D01*
X11195Y7775D01*
X11190Y7771D01*
X11183Y7768D01*
X11177D01*
X11170Y7771D01*
X11165Y7775D01*
X11161Y7781D01*
X11160Y7788D01*
X11161Y7795D01*
X11165Y7801D01*
X11170Y7805D01*
X11177Y7808D01*
X11183D01*
X11190Y7805D01*
X11195Y7801D01*
X11199Y7795D01*
X11200Y7788D01*
X11100D02*
X11099Y7781D01*
X11095Y7775D01*
X11090Y7771D01*
X11083Y7768D01*
X11077D01*
X11070Y7771D01*
X11065Y7775D01*
X11061Y7781D01*
X11060Y7788D01*
X11061Y7795D01*
X11065Y7801D01*
X11070Y7805D01*
X11077Y7808D01*
X11083D01*
X11090Y7805D01*
X11095Y7801D01*
X11099Y7795D01*
X11100Y7788D01*
X11000D02*
X10999Y7781D01*
X10995Y7775D01*
X10990Y7771D01*
X10983Y7768D01*
X10977D01*
X10970Y7771D01*
X10965Y7775D01*
X10961Y7781D01*
X10960Y7788D01*
X10961Y7795D01*
X10965Y7801D01*
X10970Y7805D01*
X10977Y7808D01*
X10983D01*
X10990Y7805D01*
X10995Y7801D01*
X10999Y7795D01*
X11000Y7788D01*
X10300Y8238D02*
X10299Y8231D01*
X10295Y8225D01*
X10290Y8221D01*
X10283Y8218D01*
X10277D01*
X10270Y8221D01*
X10265Y8225D01*
X10261Y8231D01*
X10260Y8238D01*
X10261Y8245D01*
X10265Y8251D01*
X10270Y8255D01*
X10277Y8258D01*
X10283D01*
X10290Y8255D01*
X10295Y8251D01*
X10299Y8245D01*
X10300Y8238D01*
Y8638D02*
X10299Y8631D01*
X10295Y8625D01*
X10290Y8621D01*
X10283Y8618D01*
X10277D01*
X10270Y8621D01*
X10265Y8625D01*
X10261Y8631D01*
X10260Y8638D01*
X10261Y8645D01*
X10265Y8651D01*
X10270Y8655D01*
X10277Y8658D01*
X10283D01*
X10290Y8655D01*
X10295Y8651D01*
X10299Y8645D01*
X10300Y8638D01*
X10400D02*
X10399Y8631D01*
X10395Y8625D01*
X10390Y8621D01*
X10383Y8618D01*
X10377D01*
X10370Y8621D01*
X10365Y8625D01*
X10361Y8631D01*
X10360Y8638D01*
X10361Y8645D01*
X10365Y8651D01*
X10370Y8655D01*
X10377Y8658D01*
X10383D01*
X10390Y8655D01*
X10395Y8651D01*
X10399Y8645D01*
X10400Y8638D01*
Y8238D02*
X10399Y8231D01*
X10395Y8225D01*
X10390Y8221D01*
X10383Y8218D01*
X10377D01*
X10370Y8221D01*
X10365Y8225D01*
X10361Y8231D01*
X10360Y8238D01*
X10361Y8245D01*
X10365Y8251D01*
X10370Y8255D01*
X10377Y8258D01*
X10383D01*
X10390Y8255D01*
X10395Y8251D01*
X10399Y8245D01*
X10400Y8238D01*
X11600Y8638D02*
X11599Y8631D01*
X11595Y8625D01*
X11590Y8621D01*
X11583Y8618D01*
X11577D01*
X11570Y8621D01*
X11565Y8625D01*
X11561Y8631D01*
X11560Y8638D01*
X11561Y8645D01*
X11565Y8651D01*
X11570Y8655D01*
X11577Y8658D01*
X11583D01*
X11590Y8655D01*
X11595Y8651D01*
X11599Y8645D01*
X11600Y8638D01*
X11700D02*
X11699Y8631D01*
X11695Y8625D01*
X11690Y8621D01*
X11683Y8618D01*
X11677D01*
X11670Y8621D01*
X11665Y8625D01*
X11661Y8631D01*
X11660Y8638D01*
X11661Y8645D01*
X11665Y8651D01*
X11670Y8655D01*
X11677Y8658D01*
X11683D01*
X11690Y8655D01*
X11695Y8651D01*
X11699Y8645D01*
X11700Y8638D01*
X11600Y8538D02*
X11599Y8531D01*
X11595Y8525D01*
X11590Y8521D01*
X11583Y8518D01*
X11577D01*
X11570Y8521D01*
X11565Y8525D01*
X11561Y8531D01*
X11560Y8538D01*
X11561Y8545D01*
X11565Y8551D01*
X11570Y8555D01*
X11577Y8558D01*
X11583D01*
X11590Y8555D01*
X11595Y8551D01*
X11599Y8545D01*
X11600Y8538D01*
X11700D02*
X11699Y8531D01*
X11695Y8525D01*
X11690Y8521D01*
X11683Y8518D01*
X11677D01*
X11670Y8521D01*
X11665Y8525D01*
X11661Y8531D01*
X11660Y8538D01*
X11661Y8545D01*
X11665Y8551D01*
X11670Y8555D01*
X11677Y8558D01*
X11683D01*
X11690Y8555D01*
X11695Y8551D01*
X11699Y8545D01*
X11700Y8538D01*
X11600Y8438D02*
X11599Y8431D01*
X11595Y8425D01*
X11590Y8421D01*
X11583Y8418D01*
X11577D01*
X11570Y8421D01*
X11565Y8425D01*
X11561Y8431D01*
X11560Y8438D01*
X11561Y8445D01*
X11565Y8451D01*
X11570Y8455D01*
X11577Y8458D01*
X11583D01*
X11590Y8455D01*
X11595Y8451D01*
X11599Y8445D01*
X11600Y8438D01*
X11700D02*
X11699Y8431D01*
X11695Y8425D01*
X11690Y8421D01*
X11683Y8418D01*
X11677D01*
X11670Y8421D01*
X11665Y8425D01*
X11661Y8431D01*
X11660Y8438D01*
X11661Y8445D01*
X11665Y8451D01*
X11670Y8455D01*
X11677Y8458D01*
X11683D01*
X11690Y8455D01*
X11695Y8451D01*
X11699Y8445D01*
X11700Y8438D01*
X11600Y8338D02*
X11599Y8331D01*
X11595Y8325D01*
X11590Y8321D01*
X11583Y8318D01*
X11577D01*
X11570Y8321D01*
X11565Y8325D01*
X11561Y8331D01*
X11560Y8338D01*
X11561Y8345D01*
X11565Y8351D01*
X11570Y8355D01*
X11577Y8358D01*
X11583D01*
X11590Y8355D01*
X11595Y8351D01*
X11599Y8345D01*
X11600Y8338D01*
X11700D02*
X11699Y8331D01*
X11695Y8325D01*
X11690Y8321D01*
X11683Y8318D01*
X11677D01*
X11670Y8321D01*
X11665Y8325D01*
X11661Y8331D01*
X11660Y8338D01*
X11661Y8345D01*
X11665Y8351D01*
X11670Y8355D01*
X11677Y8358D01*
X11683D01*
X11690Y8355D01*
X11695Y8351D01*
X11699Y8345D01*
X11700Y8338D01*
X11600Y8238D02*
X11599Y8231D01*
X11595Y8225D01*
X11590Y8221D01*
X11583Y8218D01*
X11577D01*
X11570Y8221D01*
X11565Y8225D01*
X11561Y8231D01*
X11560Y8238D01*
X11561Y8245D01*
X11565Y8251D01*
X11570Y8255D01*
X11577Y8258D01*
X11583D01*
X11590Y8255D01*
X11595Y8251D01*
X11599Y8245D01*
X11600Y8238D01*
X11700D02*
X11699Y8231D01*
X11695Y8225D01*
X11690Y8221D01*
X11683Y8218D01*
X11677D01*
X11670Y8221D01*
X11665Y8225D01*
X11661Y8231D01*
X11660Y8238D01*
X11661Y8245D01*
X11665Y8251D01*
X11670Y8255D01*
X11677Y8258D01*
X11683D01*
X11690Y8255D01*
X11695Y8251D01*
X11699Y8245D01*
X11700Y8238D01*
X11600Y8138D02*
X11599Y8131D01*
X11595Y8125D01*
X11590Y8121D01*
X11583Y8118D01*
X11577D01*
X11570Y8121D01*
X11565Y8125D01*
X11561Y8131D01*
X11560Y8138D01*
X11561Y8145D01*
X11565Y8151D01*
X11570Y8155D01*
X11577Y8158D01*
X11583D01*
X11590Y8155D01*
X11595Y8151D01*
X11599Y8145D01*
X11600Y8138D01*
X11700D02*
X11699Y8131D01*
X11695Y8125D01*
X11690Y8121D01*
X11683Y8118D01*
X11677D01*
X11670Y8121D01*
X11665Y8125D01*
X11661Y8131D01*
X11660Y8138D01*
X11661Y8145D01*
X11665Y8151D01*
X11670Y8155D01*
X11677Y8158D01*
X11683D01*
X11690Y8155D01*
X11695Y8151D01*
X11699Y8145D01*
X11700Y8138D01*
X11600Y8038D02*
X11599Y8031D01*
X11595Y8025D01*
X11590Y8021D01*
X11583Y8018D01*
X11577D01*
X11570Y8021D01*
X11565Y8025D01*
X11561Y8031D01*
X11560Y8038D01*
X11561Y8045D01*
X11565Y8051D01*
X11570Y8055D01*
X11577Y8058D01*
X11583D01*
X11590Y8055D01*
X11595Y8051D01*
X11599Y8045D01*
X11600Y8038D01*
X11700D02*
X11699Y8031D01*
X11695Y8025D01*
X11690Y8021D01*
X11683Y8018D01*
X11677D01*
X11670Y8021D01*
X11665Y8025D01*
X11661Y8031D01*
X11660Y8038D01*
X11661Y8045D01*
X11665Y8051D01*
X11670Y8055D01*
X11677Y8058D01*
X11683D01*
X11690Y8055D01*
X11695Y8051D01*
X11699Y8045D01*
X11700Y8038D01*
X11600Y7938D02*
X11599Y7931D01*
X11595Y7925D01*
X11590Y7921D01*
X11583Y7918D01*
X11577D01*
X11570Y7921D01*
X11565Y7925D01*
X11561Y7931D01*
X11560Y7938D01*
X11561Y7945D01*
X11565Y7951D01*
X11570Y7955D01*
X11577Y7958D01*
X11583D01*
X11590Y7955D01*
X11595Y7951D01*
X11599Y7945D01*
X11600Y7938D01*
X11700D02*
X11699Y7931D01*
X11695Y7925D01*
X11690Y7921D01*
X11683Y7918D01*
X11677D01*
X11670Y7921D01*
X11665Y7925D01*
X11661Y7931D01*
X11660Y7938D01*
X11661Y7945D01*
X11665Y7951D01*
X11670Y7955D01*
X11677Y7958D01*
X11683D01*
X11690Y7955D01*
X11695Y7951D01*
X11699Y7945D01*
X11700Y7938D01*
X11600Y7838D02*
X11599Y7831D01*
X11595Y7825D01*
X11590Y7821D01*
X11583Y7818D01*
X11577D01*
X11570Y7821D01*
X11565Y7825D01*
X11561Y7831D01*
X11560Y7838D01*
X11561Y7845D01*
X11565Y7851D01*
X11570Y7855D01*
X11577Y7858D01*
X11583D01*
X11590Y7855D01*
X11595Y7851D01*
X11599Y7845D01*
X11600Y7838D01*
X11700D02*
X11699Y7831D01*
X11695Y7825D01*
X11690Y7821D01*
X11683Y7818D01*
X11677D01*
X11670Y7821D01*
X11665Y7825D01*
X11661Y7831D01*
X11660Y7838D01*
X11661Y7845D01*
X11665Y7851D01*
X11670Y7855D01*
X11677Y7858D01*
X11683D01*
X11690Y7855D01*
X11695Y7851D01*
X11699Y7845D01*
X11700Y7838D01*
X11600Y7738D02*
X11599Y7731D01*
X11595Y7725D01*
X11590Y7721D01*
X11583Y7718D01*
X11577D01*
X11570Y7721D01*
X11565Y7725D01*
X11561Y7731D01*
X11560Y7738D01*
X11561Y7745D01*
X11565Y7751D01*
X11570Y7755D01*
X11577Y7758D01*
X11583D01*
X11590Y7755D01*
X11595Y7751D01*
X11599Y7745D01*
X11600Y7738D01*
X11700D02*
X11699Y7731D01*
X11695Y7725D01*
X11690Y7721D01*
X11683Y7718D01*
X11677D01*
X11670Y7721D01*
X11665Y7725D01*
X11661Y7731D01*
X11660Y7738D01*
X11661Y7745D01*
X11665Y7751D01*
X11670Y7755D01*
X11677Y7758D01*
X11683D01*
X11690Y7755D01*
X11695Y7751D01*
X11699Y7745D01*
X11700Y7738D01*
X11600Y7638D02*
X11599Y7631D01*
X11595Y7625D01*
X11590Y7621D01*
X11583Y7618D01*
X11577D01*
X11570Y7621D01*
X11565Y7625D01*
X11561Y7631D01*
X11560Y7638D01*
X11561Y7645D01*
X11565Y7651D01*
X11570Y7655D01*
X11577Y7658D01*
X11583D01*
X11590Y7655D01*
X11595Y7651D01*
X11599Y7645D01*
X11600Y7638D01*
X11700D02*
X11699Y7631D01*
X11695Y7625D01*
X11690Y7621D01*
X11683Y7618D01*
X11677D01*
X11670Y7621D01*
X11665Y7625D01*
X11661Y7631D01*
X11660Y7638D01*
X11661Y7645D01*
X11665Y7651D01*
X11670Y7655D01*
X11677Y7658D01*
X11683D01*
X11690Y7655D01*
X11695Y7651D01*
X11699Y7645D01*
X11700Y7638D01*
X11600Y7538D02*
X11599Y7531D01*
X11595Y7525D01*
X11590Y7521D01*
X11583Y7518D01*
X11577D01*
X11570Y7521D01*
X11565Y7525D01*
X11561Y7531D01*
X11560Y7538D01*
X11561Y7545D01*
X11565Y7551D01*
X11570Y7555D01*
X11577Y7558D01*
X11583D01*
X11590Y7555D01*
X11595Y7551D01*
X11599Y7545D01*
X11600Y7538D01*
X11700D02*
X11699Y7531D01*
X11695Y7525D01*
X11690Y7521D01*
X11683Y7518D01*
X11677D01*
X11670Y7521D01*
X11665Y7525D01*
X11661Y7531D01*
X11660Y7538D01*
X11661Y7545D01*
X11665Y7551D01*
X11670Y7555D01*
X11677Y7558D01*
X11683D01*
X11690Y7555D01*
X11695Y7551D01*
X11699Y7545D01*
X11700Y7538D01*
X11600Y7438D02*
X11599Y7431D01*
X11595Y7425D01*
X11590Y7421D01*
X11583Y7418D01*
X11577D01*
X11570Y7421D01*
X11565Y7425D01*
X11561Y7431D01*
X11560Y7438D01*
X11561Y7445D01*
X11565Y7451D01*
X11570Y7455D01*
X11577Y7458D01*
X11583D01*
X11590Y7455D01*
X11595Y7451D01*
X11599Y7445D01*
X11600Y7438D01*
X11700D02*
X11699Y7431D01*
X11695Y7425D01*
X11690Y7421D01*
X11683Y7418D01*
X11677D01*
X11670Y7421D01*
X11665Y7425D01*
X11661Y7431D01*
X11660Y7438D01*
X11661Y7445D01*
X11665Y7451D01*
X11670Y7455D01*
X11677Y7458D01*
X11683D01*
X11690Y7455D01*
X11695Y7451D01*
X11699Y7445D01*
X11700Y7438D01*
X11400Y7788D02*
X11399Y7781D01*
X11395Y7775D01*
X11390Y7771D01*
X11383Y7768D01*
X11377D01*
X11370Y7771D01*
X11365Y7775D01*
X11361Y7781D01*
X11360Y7788D01*
X11361Y7795D01*
X11365Y7801D01*
X11370Y7805D01*
X11377Y7808D01*
X11383D01*
X11390Y7805D01*
X11395Y7801D01*
X11399Y7795D01*
X11400Y7788D01*
Y8088D02*
X11399Y8081D01*
X11395Y8075D01*
X11390Y8071D01*
X11383Y8068D01*
X11377D01*
X11370Y8071D01*
X11365Y8075D01*
X11361Y8081D01*
X11360Y8088D01*
X11361Y8095D01*
X11365Y8101D01*
X11370Y8105D01*
X11377Y8108D01*
X11383D01*
X11390Y8105D01*
X11395Y8101D01*
X11399Y8095D01*
X11400Y8088D01*
X10850D02*
X10849Y8081D01*
X10845Y8075D01*
X10840Y8071D01*
X10833Y8068D01*
X10827D01*
X10820Y8071D01*
X10815Y8075D01*
X10811Y8081D01*
X10810Y8088D01*
X10811Y8095D01*
X10815Y8101D01*
X10820Y8105D01*
X10827Y8108D01*
X10833D01*
X10840Y8105D01*
X10845Y8101D01*
X10849Y8095D01*
X10850Y8088D01*
Y7788D02*
X10849Y7781D01*
X10845Y7775D01*
X10840Y7771D01*
X10833Y7768D01*
X10827D01*
X10820Y7771D01*
X10815Y7775D01*
X10811Y7781D01*
X10810Y7788D01*
X10811Y7795D01*
X10815Y7801D01*
X10820Y7805D01*
X10827Y7808D01*
X10833D01*
X10840Y7805D01*
X10845Y7801D01*
X10849Y7795D01*
X10850Y7788D01*
X10700D02*
X10699Y7781D01*
X10695Y7775D01*
X10690Y7771D01*
X10683Y7768D01*
X10677D01*
X10670Y7771D01*
X10665Y7775D01*
X10661Y7781D01*
X10660Y7788D01*
X10661Y7795D01*
X10665Y7801D01*
X10670Y7805D01*
X10677Y7808D01*
X10683D01*
X10690Y7805D01*
X10695Y7801D01*
X10699Y7795D01*
X10700Y7788D01*
Y8088D02*
X10699Y8081D01*
X10695Y8075D01*
X10690Y8071D01*
X10683Y8068D01*
X10677D01*
X10670Y8071D01*
X10665Y8075D01*
X10661Y8081D01*
X10660Y8088D01*
X10661Y8095D01*
X10665Y8101D01*
X10670Y8105D01*
X10677Y8108D01*
X10683D01*
X10690Y8105D01*
X10695Y8101D01*
X10699Y8095D01*
X10700Y8088D01*
X10300Y7788D02*
X10299Y7781D01*
X10295Y7775D01*
X10290Y7771D01*
X10283Y7768D01*
X10277D01*
X10270Y7771D01*
X10265Y7775D01*
X10261Y7781D01*
X10260Y7788D01*
X10261Y7795D01*
X10265Y7801D01*
X10270Y7805D01*
X10277Y7808D01*
X10283D01*
X10290Y7805D01*
X10295Y7801D01*
X10299Y7795D01*
X10300Y7788D01*
X10400D02*
X10399Y7781D01*
X10395Y7775D01*
X10390Y7771D01*
X10383Y7768D01*
X10377D01*
X10370Y7771D01*
X10365Y7775D01*
X10361Y7781D01*
X10360Y7788D01*
X10361Y7795D01*
X10365Y7801D01*
X10370Y7805D01*
X10377Y7808D01*
X10383D01*
X10390Y7805D01*
X10395Y7801D01*
X10399Y7795D01*
X10400Y7788D01*
X10500D02*
X10499Y7781D01*
X10495Y7775D01*
X10490Y7771D01*
X10483Y7768D01*
X10477D01*
X10470Y7771D01*
X10465Y7775D01*
X10461Y7781D01*
X10460Y7788D01*
X10461Y7795D01*
X10465Y7801D01*
X10470Y7805D01*
X10477Y7808D01*
X10483D01*
X10490Y7805D01*
X10495Y7801D01*
X10499Y7795D01*
X10500Y7788D01*
X10600D02*
X10599Y7781D01*
X10595Y7775D01*
X10590Y7771D01*
X10583Y7768D01*
X10577D01*
X10570Y7771D01*
X10565Y7775D01*
X10561Y7781D01*
X10560Y7788D01*
X10561Y7795D01*
X10565Y7801D01*
X10570Y7805D01*
X10577Y7808D01*
X10583D01*
X10590Y7805D01*
X10595Y7801D01*
X10599Y7795D01*
X10600Y7788D01*
Y8088D02*
X10599Y8081D01*
X10595Y8075D01*
X10590Y8071D01*
X10583Y8068D01*
X10577D01*
X10570Y8071D01*
X10565Y8075D01*
X10561Y8081D01*
X10560Y8088D01*
X10561Y8095D01*
X10565Y8101D01*
X10570Y8105D01*
X10577Y8108D01*
X10583D01*
X10590Y8105D01*
X10595Y8101D01*
X10599Y8095D01*
X10600Y8088D01*
X10500D02*
X10499Y8081D01*
X10495Y8075D01*
X10490Y8071D01*
X10483Y8068D01*
X10477D01*
X10470Y8071D01*
X10465Y8075D01*
X10461Y8081D01*
X10460Y8088D01*
X10461Y8095D01*
X10465Y8101D01*
X10470Y8105D01*
X10477Y8108D01*
X10483D01*
X10490Y8105D01*
X10495Y8101D01*
X10499Y8095D01*
X10500Y8088D01*
X10400D02*
X10399Y8081D01*
X10395Y8075D01*
X10390Y8071D01*
X10383Y8068D01*
X10377D01*
X10370Y8071D01*
X10365Y8075D01*
X10361Y8081D01*
X10360Y8088D01*
X10361Y8095D01*
X10365Y8101D01*
X10370Y8105D01*
X10377Y8108D01*
X10383D01*
X10390Y8105D01*
X10395Y8101D01*
X10399Y8095D01*
X10400Y8088D01*
X10300D02*
X10299Y8081D01*
X10295Y8075D01*
X10290Y8071D01*
X10283Y8068D01*
X10277D01*
X10270Y8071D01*
X10265Y8075D01*
X10261Y8081D01*
X10260Y8088D01*
X10261Y8095D01*
X10265Y8101D01*
X10270Y8105D01*
X10277Y8108D01*
X10283D01*
X10290Y8105D01*
X10295Y8101D01*
X10299Y8095D01*
X10300Y8088D01*
X11400Y8888D02*
X11399Y8881D01*
X11395Y8875D01*
X11390Y8871D01*
X11383Y8868D01*
X11377D01*
X11370Y8871D01*
X11365Y8875D01*
X11361Y8881D01*
X11360Y8888D01*
X11361Y8895D01*
X11365Y8901D01*
X11370Y8905D01*
X11377Y8908D01*
X11383D01*
X11390Y8905D01*
X11395Y8901D01*
X11399Y8895D01*
X11400Y8888D01*
X11800D02*
X11799Y8881D01*
X11795Y8875D01*
X11790Y8871D01*
X11783Y8868D01*
X11777D01*
X11770Y8871D01*
X11765Y8875D01*
X11761Y8881D01*
X11760Y8888D01*
X11761Y8895D01*
X11765Y8901D01*
X11770Y8905D01*
X11777Y8908D01*
X11783D01*
X11790Y8905D01*
X11795Y8901D01*
X11799Y8895D01*
X11800Y8888D01*
X10500Y9188D02*
X10499Y9181D01*
X10495Y9175D01*
X10490Y9171D01*
X10483Y9168D01*
X10477D01*
X10470Y9171D01*
X10465Y9175D01*
X10461Y9181D01*
X10460Y9188D01*
X10461Y9195D01*
X10465Y9201D01*
X10470Y9205D01*
X10477Y9208D01*
X10483D01*
X10490Y9205D01*
X10495Y9201D01*
X10499Y9195D01*
X10500Y9188D01*
Y8788D02*
X10499Y8781D01*
X10495Y8775D01*
X10490Y8771D01*
X10483Y8768D01*
X10477D01*
X10470Y8771D01*
X10465Y8775D01*
X10461Y8781D01*
X10460Y8788D01*
X10461Y8795D01*
X10465Y8801D01*
X10470Y8805D01*
X10477Y8808D01*
X10483D01*
X10490Y8805D01*
X10495Y8801D01*
X10499Y8795D01*
X10500Y8788D01*
X10600Y9188D02*
X10599Y9181D01*
X10595Y9175D01*
X10590Y9171D01*
X10583Y9168D01*
X10577D01*
X10570Y9171D01*
X10565Y9175D01*
X10561Y9181D01*
X10560Y9188D01*
X10561Y9195D01*
X10565Y9201D01*
X10570Y9205D01*
X10577Y9208D01*
X10583D01*
X10590Y9205D01*
X10595Y9201D01*
X10599Y9195D01*
X10600Y9188D01*
Y8788D02*
X10599Y8781D01*
X10595Y8775D01*
X10590Y8771D01*
X10583Y8768D01*
X10577D01*
X10570Y8771D01*
X10565Y8775D01*
X10561Y8781D01*
X10560Y8788D01*
X10561Y8795D01*
X10565Y8801D01*
X10570Y8805D01*
X10577Y8808D01*
X10583D01*
X10590Y8805D01*
X10595Y8801D01*
X10599Y8795D01*
X10600Y8788D01*
X10700D02*
X10699Y8781D01*
X10695Y8775D01*
X10690Y8771D01*
X10683Y8768D01*
X10677D01*
X10670Y8771D01*
X10665Y8775D01*
X10661Y8781D01*
X10660Y8788D01*
X10661Y8795D01*
X10665Y8801D01*
X10670Y8805D01*
X10677Y8808D01*
X10683D01*
X10690Y8805D01*
X10695Y8801D01*
X10699Y8795D01*
X10700Y8788D01*
Y9188D02*
X10699Y9181D01*
X10695Y9175D01*
X10690Y9171D01*
X10683Y9168D01*
X10677D01*
X10670Y9171D01*
X10665Y9175D01*
X10661Y9181D01*
X10660Y9188D01*
X10661Y9195D01*
X10665Y9201D01*
X10670Y9205D01*
X10677Y9208D01*
X10683D01*
X10690Y9205D01*
X10695Y9201D01*
X10699Y9195D01*
X10700Y9188D01*
X10900Y8788D02*
X10899Y8781D01*
X10895Y8775D01*
X10890Y8771D01*
X10883Y8768D01*
X10877D01*
X10870Y8771D01*
X10865Y8775D01*
X10861Y8781D01*
X10860Y8788D01*
X10861Y8795D01*
X10865Y8801D01*
X10870Y8805D01*
X10877Y8808D01*
X10883D01*
X10890Y8805D01*
X10895Y8801D01*
X10899Y8795D01*
X10900Y8788D01*
Y9188D02*
X10899Y9181D01*
X10895Y9175D01*
X10890Y9171D01*
X10883Y9168D01*
X10877D01*
X10870Y9171D01*
X10865Y9175D01*
X10861Y9181D01*
X10860Y9188D01*
X10861Y9195D01*
X10865Y9201D01*
X10870Y9205D01*
X10877Y9208D01*
X10883D01*
X10890Y9205D01*
X10895Y9201D01*
X10899Y9195D01*
X10900Y9188D01*
X11100Y8788D02*
X11099Y8781D01*
X11095Y8775D01*
X11090Y8771D01*
X11083Y8768D01*
X11077D01*
X11070Y8771D01*
X11065Y8775D01*
X11061Y8781D01*
X11060Y8788D01*
X11061Y8795D01*
X11065Y8801D01*
X11070Y8805D01*
X11077Y8808D01*
X11083D01*
X11090Y8805D01*
X11095Y8801D01*
X11099Y8795D01*
X11100Y8788D01*
Y9188D02*
X11099Y9181D01*
X11095Y9175D01*
X11090Y9171D01*
X11083Y9168D01*
X11077D01*
X11070Y9171D01*
X11065Y9175D01*
X11061Y9181D01*
X11060Y9188D01*
X11061Y9195D01*
X11065Y9201D01*
X11070Y9205D01*
X11077Y9208D01*
X11083D01*
X11090Y9205D01*
X11095Y9201D01*
X11099Y9195D01*
X11100Y9188D01*
X11200Y8788D02*
X11199Y8781D01*
X11195Y8775D01*
X11190Y8771D01*
X11183Y8768D01*
X11177D01*
X11170Y8771D01*
X11165Y8775D01*
X11161Y8781D01*
X11160Y8788D01*
X11161Y8795D01*
X11165Y8801D01*
X11170Y8805D01*
X11177Y8808D01*
X11183D01*
X11190Y8805D01*
X11195Y8801D01*
X11199Y8795D01*
X11200Y8788D01*
Y9188D02*
X11199Y9181D01*
X11195Y9175D01*
X11190Y9171D01*
X11183Y9168D01*
X11177D01*
X11170Y9171D01*
X11165Y9175D01*
X11161Y9181D01*
X11160Y9188D01*
X11161Y9195D01*
X11165Y9201D01*
X11170Y9205D01*
X11177Y9208D01*
X11183D01*
X11190Y9205D01*
X11195Y9201D01*
X11199Y9195D01*
X11200Y9188D01*
X10800Y8788D02*
X10799Y8781D01*
X10795Y8775D01*
X10790Y8771D01*
X10783Y8768D01*
X10777D01*
X10770Y8771D01*
X10765Y8775D01*
X10761Y8781D01*
X10760Y8788D01*
X10761Y8795D01*
X10765Y8801D01*
X10770Y8805D01*
X10777Y8808D01*
X10783D01*
X10790Y8805D01*
X10795Y8801D01*
X10799Y8795D01*
X10800Y8788D01*
Y9188D02*
X10799Y9181D01*
X10795Y9175D01*
X10790Y9171D01*
X10783Y9168D01*
X10777D01*
X10770Y9171D01*
X10765Y9175D01*
X10761Y9181D01*
X10760Y9188D01*
X10761Y9195D01*
X10765Y9201D01*
X10770Y9205D01*
X10777Y9208D01*
X10783D01*
X10790Y9205D01*
X10795Y9201D01*
X10799Y9195D01*
X10800Y9188D01*
X11000Y8788D02*
X10999Y8781D01*
X10995Y8775D01*
X10990Y8771D01*
X10983Y8768D01*
X10977D01*
X10970Y8771D01*
X10965Y8775D01*
X10961Y8781D01*
X10960Y8788D01*
X10961Y8795D01*
X10965Y8801D01*
X10970Y8805D01*
X10977Y8808D01*
X10983D01*
X10990Y8805D01*
X10995Y8801D01*
X10999Y8795D01*
X11000Y8788D01*
Y9188D02*
X10999Y9181D01*
X10995Y9175D01*
X10990Y9171D01*
X10983Y9168D01*
X10977D01*
X10970Y9171D01*
X10965Y9175D01*
X10961Y9181D01*
X10960Y9188D01*
X10961Y9195D01*
X10965Y9201D01*
X10970Y9205D01*
X10977Y9208D01*
X10983D01*
X10990Y9205D01*
X10995Y9201D01*
X10999Y9195D01*
X11000Y9188D01*
X10700Y8638D02*
X10699Y8631D01*
X10695Y8625D01*
X10690Y8621D01*
X10683Y8618D01*
X10677D01*
X10670Y8621D01*
X10665Y8625D01*
X10661Y8631D01*
X10660Y8638D01*
X10661Y8645D01*
X10665Y8651D01*
X10670Y8655D01*
X10677Y8658D01*
X10683D01*
X10690Y8655D01*
X10695Y8651D01*
X10699Y8645D01*
X10700Y8638D01*
Y8238D02*
X10699Y8231D01*
X10695Y8225D01*
X10690Y8221D01*
X10683Y8218D01*
X10677D01*
X10670Y8221D01*
X10665Y8225D01*
X10661Y8231D01*
X10660Y8238D01*
X10661Y8245D01*
X10665Y8251D01*
X10670Y8255D01*
X10677Y8258D01*
X10683D01*
X10690Y8255D01*
X10695Y8251D01*
X10699Y8245D01*
X10700Y8238D01*
X10600Y8638D02*
X10599Y8631D01*
X10595Y8625D01*
X10590Y8621D01*
X10583Y8618D01*
X10577D01*
X10570Y8621D01*
X10565Y8625D01*
X10561Y8631D01*
X10560Y8638D01*
X10561Y8645D01*
X10565Y8651D01*
X10570Y8655D01*
X10577Y8658D01*
X10583D01*
X10590Y8655D01*
X10595Y8651D01*
X10599Y8645D01*
X10600Y8638D01*
Y8238D02*
X10599Y8231D01*
X10595Y8225D01*
X10590Y8221D01*
X10583Y8218D01*
X10577D01*
X10570Y8221D01*
X10565Y8225D01*
X10561Y8231D01*
X10560Y8238D01*
X10561Y8245D01*
X10565Y8251D01*
X10570Y8255D01*
X10577Y8258D01*
X10583D01*
X10590Y8255D01*
X10595Y8251D01*
X10599Y8245D01*
X10600Y8238D01*
X10500D02*
X10499Y8231D01*
X10495Y8225D01*
X10490Y8221D01*
X10483Y8218D01*
X10477D01*
X10470Y8221D01*
X10465Y8225D01*
X10461Y8231D01*
X10460Y8238D01*
X10461Y8245D01*
X10465Y8251D01*
X10470Y8255D01*
X10477Y8258D01*
X10483D01*
X10490Y8255D01*
X10495Y8251D01*
X10499Y8245D01*
X10500Y8238D01*
Y8638D02*
X10499Y8631D01*
X10495Y8625D01*
X10490Y8621D01*
X10483Y8618D01*
X10477D01*
X10470Y8621D01*
X10465Y8625D01*
X10461Y8631D01*
X10460Y8638D01*
X10461Y8645D01*
X10465Y8651D01*
X10470Y8655D01*
X10477Y8658D01*
X10483D01*
X10490Y8655D01*
X10495Y8651D01*
X10499Y8645D01*
X10500Y8638D01*
X11100Y9788D02*
X11099Y9781D01*
X11095Y9775D01*
X11090Y9771D01*
X11083Y9768D01*
X11077D01*
X11070Y9771D01*
X11065Y9775D01*
X11061Y9781D01*
X11060Y9788D01*
X11061Y9795D01*
X11065Y9801D01*
X11070Y9805D01*
X11077Y9808D01*
X11083D01*
X11090Y9805D01*
X11095Y9801D01*
X11099Y9795D01*
X11100Y9788D01*
X10700D02*
X10699Y9781D01*
X10695Y9775D01*
X10690Y9771D01*
X10683Y9768D01*
X10677D01*
X10670Y9771D01*
X10665Y9775D01*
X10661Y9781D01*
X10660Y9788D01*
X10661Y9795D01*
X10665Y9801D01*
X10670Y9805D01*
X10677Y9808D01*
X10683D01*
X10690Y9805D01*
X10695Y9801D01*
X10699Y9795D01*
X10700Y9788D01*
Y9338D02*
X10699Y9331D01*
X10695Y9325D01*
X10690Y9321D01*
X10683Y9318D01*
X10677D01*
X10670Y9321D01*
X10665Y9325D01*
X10661Y9331D01*
X10660Y9338D01*
X10661Y9345D01*
X10665Y9351D01*
X10670Y9355D01*
X10677Y9358D01*
X10683D01*
X10690Y9355D01*
X10695Y9351D01*
X10699Y9345D01*
X10700Y9338D01*
X10800D02*
X10799Y9331D01*
X10795Y9325D01*
X10790Y9321D01*
X10783Y9318D01*
X10777D01*
X10770Y9321D01*
X10765Y9325D01*
X10761Y9331D01*
X10760Y9338D01*
X10761Y9345D01*
X10765Y9351D01*
X10770Y9355D01*
X10777Y9358D01*
X10783D01*
X10790Y9355D01*
X10795Y9351D01*
X10799Y9345D01*
X10800Y9338D01*
X10900D02*
X10899Y9331D01*
X10895Y9325D01*
X10890Y9321D01*
X10883Y9318D01*
X10877D01*
X10870Y9321D01*
X10865Y9325D01*
X10861Y9331D01*
X10860Y9338D01*
X10861Y9345D01*
X10865Y9351D01*
X10870Y9355D01*
X10877Y9358D01*
X10883D01*
X10890Y9355D01*
X10895Y9351D01*
X10899Y9345D01*
X10900Y9338D01*
X11000D02*
X10999Y9331D01*
X10995Y9325D01*
X10990Y9321D01*
X10983Y9318D01*
X10977D01*
X10970Y9321D01*
X10965Y9325D01*
X10961Y9331D01*
X10960Y9338D01*
X10961Y9345D01*
X10965Y9351D01*
X10970Y9355D01*
X10977Y9358D01*
X10983D01*
X10990Y9355D01*
X10995Y9351D01*
X10999Y9345D01*
X11000Y9338D01*
Y9638D02*
X10999Y9631D01*
X10995Y9625D01*
X10990Y9621D01*
X10983Y9618D01*
X10977D01*
X10970Y9621D01*
X10965Y9625D01*
X10961Y9631D01*
X10960Y9638D01*
X10961Y9645D01*
X10965Y9651D01*
X10970Y9655D01*
X10977Y9658D01*
X10983D01*
X10990Y9655D01*
X10995Y9651D01*
X10999Y9645D01*
X11000Y9638D01*
X10900D02*
X10899Y9631D01*
X10895Y9625D01*
X10890Y9621D01*
X10883Y9618D01*
X10877D01*
X10870Y9621D01*
X10865Y9625D01*
X10861Y9631D01*
X10860Y9638D01*
X10861Y9645D01*
X10865Y9651D01*
X10870Y9655D01*
X10877Y9658D01*
X10883D01*
X10890Y9655D01*
X10895Y9651D01*
X10899Y9645D01*
X10900Y9638D01*
X10800D02*
X10799Y9631D01*
X10795Y9625D01*
X10790Y9621D01*
X10783Y9618D01*
X10777D01*
X10770Y9621D01*
X10765Y9625D01*
X10761Y9631D01*
X10760Y9638D01*
X10761Y9645D01*
X10765Y9651D01*
X10770Y9655D01*
X10777Y9658D01*
X10783D01*
X10790Y9655D01*
X10795Y9651D01*
X10799Y9645D01*
X10800Y9638D01*
X10700D02*
X10699Y9631D01*
X10695Y9625D01*
X10690Y9621D01*
X10683Y9618D01*
X10677D01*
X10670Y9621D01*
X10665Y9625D01*
X10661Y9631D01*
X10660Y9638D01*
X10661Y9645D01*
X10665Y9651D01*
X10670Y9655D01*
X10677Y9658D01*
X10683D01*
X10690Y9655D01*
X10695Y9651D01*
X10699Y9645D01*
X10700Y9638D01*
X11100Y9338D02*
X11099Y9331D01*
X11095Y9325D01*
X11090Y9321D01*
X11083Y9318D01*
X11077D01*
X11070Y9321D01*
X11065Y9325D01*
X11061Y9331D01*
X11060Y9338D01*
X11061Y9345D01*
X11065Y9351D01*
X11070Y9355D01*
X11077Y9358D01*
X11083D01*
X11090Y9355D01*
X11095Y9351D01*
X11099Y9345D01*
X11100Y9338D01*
Y9638D02*
X11099Y9631D01*
X11095Y9625D01*
X11090Y9621D01*
X11083Y9618D01*
X11077D01*
X11070Y9621D01*
X11065Y9625D01*
X11061Y9631D01*
X11060Y9638D01*
X11061Y9645D01*
X11065Y9651D01*
X11070Y9655D01*
X11077Y9658D01*
X11083D01*
X11090Y9655D01*
X11095Y9651D01*
X11099Y9645D01*
X11100Y9638D01*
X10500Y9338D02*
X10499Y9331D01*
X10495Y9325D01*
X10490Y9321D01*
X10483Y9318D01*
X10477D01*
X10470Y9321D01*
X10465Y9325D01*
X10461Y9331D01*
X10460Y9338D01*
X10461Y9345D01*
X10465Y9351D01*
X10470Y9355D01*
X10477Y9358D01*
X10483D01*
X10490Y9355D01*
X10495Y9351D01*
X10499Y9345D01*
X10500Y9338D01*
Y9638D02*
X10499Y9631D01*
X10495Y9625D01*
X10490Y9621D01*
X10483Y9618D01*
X10477D01*
X10470Y9621D01*
X10465Y9625D01*
X10461Y9631D01*
X10460Y9638D01*
X10461Y9645D01*
X10465Y9651D01*
X10470Y9655D01*
X10477Y9658D01*
X10483D01*
X10490Y9655D01*
X10495Y9651D01*
X10499Y9645D01*
X10500Y9638D01*
X10600D02*
X10599Y9631D01*
X10595Y9625D01*
X10590Y9621D01*
X10583Y9618D01*
X10577D01*
X10570Y9621D01*
X10565Y9625D01*
X10561Y9631D01*
X10560Y9638D01*
X10561Y9645D01*
X10565Y9651D01*
X10570Y9655D01*
X10577Y9658D01*
X10583D01*
X10590Y9655D01*
X10595Y9651D01*
X10599Y9645D01*
X10600Y9638D01*
Y9338D02*
X10599Y9331D01*
X10595Y9325D01*
X10590Y9321D01*
X10583Y9318D01*
X10577D01*
X10570Y9321D01*
X10565Y9325D01*
X10561Y9331D01*
X10560Y9338D01*
X10561Y9345D01*
X10565Y9351D01*
X10570Y9355D01*
X10577Y9358D01*
X10583D01*
X10590Y9355D01*
X10595Y9351D01*
X10599Y9345D01*
X10600Y9338D01*
X11900Y6888D02*
X11899Y6881D01*
X11895Y6875D01*
X11890Y6871D01*
X11883Y6868D01*
X11877D01*
X11870Y6871D01*
X11865Y6875D01*
X11861Y6881D01*
X11860Y6888D01*
X11861Y6895D01*
X11865Y6901D01*
X11870Y6905D01*
X11877Y6908D01*
X11883D01*
X11890Y6905D01*
X11895Y6901D01*
X11899Y6895D01*
X11900Y6888D01*
X11400D02*
X11399Y6881D01*
X11395Y6875D01*
X11390Y6871D01*
X11383Y6868D01*
X11377D01*
X11370Y6871D01*
X11365Y6875D01*
X11361Y6881D01*
X11360Y6888D01*
X11361Y6895D01*
X11365Y6901D01*
X11370Y6905D01*
X11377Y6908D01*
X11383D01*
X11390Y6905D01*
X11395Y6901D01*
X11399Y6895D01*
X11400Y6888D01*
X11700Y6788D02*
X11699Y6781D01*
X11695Y6775D01*
X11690Y6771D01*
X11683Y6768D01*
X11677D01*
X11670Y6771D01*
X11665Y6775D01*
X11661Y6781D01*
X11660Y6788D01*
X11661Y6795D01*
X11665Y6801D01*
X11670Y6805D01*
X11677Y6808D01*
X11683D01*
X11690Y6805D01*
X11695Y6801D01*
X11699Y6795D01*
X11700Y6788D01*
X11900Y9138D02*
X11899Y9131D01*
X11895Y9125D01*
X11890Y9121D01*
X11883Y9118D01*
X11877D01*
X11870Y9121D01*
X11865Y9125D01*
X11861Y9131D01*
X11860Y9138D01*
X11861Y9145D01*
X11865Y9151D01*
X11870Y9155D01*
X11877Y9158D01*
X11883D01*
X11890Y9155D01*
X11895Y9151D01*
X11899Y9145D01*
X11900Y9138D01*
X11400D02*
X11399Y9131D01*
X11395Y9125D01*
X11390Y9121D01*
X11383Y9118D01*
X11377D01*
X11370Y9121D01*
X11365Y9125D01*
X11361Y9131D01*
X11360Y9138D01*
X11361Y9145D01*
X11365Y9151D01*
X11370Y9155D01*
X11377Y9158D01*
X11383D01*
X11390Y9155D01*
X11395Y9151D01*
X11399Y9145D01*
X11400Y9138D01*
X11700Y9038D02*
X11699Y9031D01*
X11695Y9025D01*
X11690Y9021D01*
X11683Y9018D01*
X11677D01*
X11670Y9021D01*
X11665Y9025D01*
X11661Y9031D01*
X11660Y9038D01*
X11661Y9045D01*
X11665Y9051D01*
X11670Y9055D01*
X11677Y9058D01*
X11683D01*
X11690Y9055D01*
X11695Y9051D01*
X11699Y9045D01*
X11700Y9038D01*
X11900Y9538D02*
X11899Y9531D01*
X11895Y9525D01*
X11890Y9521D01*
X11883Y9518D01*
X11877D01*
X11870Y9521D01*
X11865Y9525D01*
X11861Y9531D01*
X11860Y9538D01*
X11861Y9545D01*
X11865Y9551D01*
X11870Y9555D01*
X11877Y9558D01*
X11883D01*
X11890Y9555D01*
X11895Y9551D01*
X11899Y9545D01*
X11900Y9538D01*
X11400D02*
X11399Y9531D01*
X11395Y9525D01*
X11390Y9521D01*
X11383Y9518D01*
X11377D01*
X11370Y9521D01*
X11365Y9525D01*
X11361Y9531D01*
X11360Y9538D01*
X11361Y9545D01*
X11365Y9551D01*
X11370Y9555D01*
X11377Y9558D01*
X11383D01*
X11390Y9555D01*
X11395Y9551D01*
X11399Y9545D01*
X11400Y9538D01*
X11700Y9438D02*
X11699Y9431D01*
X11695Y9425D01*
X11690Y9421D01*
X11683Y9418D01*
X11677D01*
X11670Y9421D01*
X11665Y9425D01*
X11661Y9431D01*
X11660Y9438D01*
X11661Y9445D01*
X11665Y9451D01*
X11670Y9455D01*
X11677Y9458D01*
X11683D01*
X11690Y9455D01*
X11695Y9451D01*
X11699Y9445D01*
X11700Y9438D01*
X11900Y9338D02*
X11899Y9331D01*
X11895Y9325D01*
X11890Y9321D01*
X11883Y9318D01*
X11877D01*
X11870Y9321D01*
X11865Y9325D01*
X11861Y9331D01*
X11860Y9338D01*
X11861Y9345D01*
X11865Y9351D01*
X11870Y9355D01*
X11877Y9358D01*
X11883D01*
X11890Y9355D01*
X11895Y9351D01*
X11899Y9345D01*
X11900Y9338D01*
X11400D02*
X11399Y9331D01*
X11395Y9325D01*
X11390Y9321D01*
X11383Y9318D01*
X11377D01*
X11370Y9321D01*
X11365Y9325D01*
X11361Y9331D01*
X11360Y9338D01*
X11361Y9345D01*
X11365Y9351D01*
X11370Y9355D01*
X11377Y9358D01*
X11383D01*
X11390Y9355D01*
X11395Y9351D01*
X11399Y9345D01*
X11400Y9338D01*
X11700Y9238D02*
X11699Y9231D01*
X11695Y9225D01*
X11690Y9221D01*
X11683Y9218D01*
X11677D01*
X11670Y9221D01*
X11665Y9225D01*
X11661Y9231D01*
X11660Y9238D01*
X11661Y9245D01*
X11665Y9251D01*
X11670Y9255D01*
X11677Y9258D01*
X11683D01*
X11690Y9255D01*
X11695Y9251D01*
X11699Y9245D01*
X11700Y9238D01*
X8350Y7638D02*
X8349Y7631D01*
X8345Y7625D01*
X8340Y7621D01*
X8333Y7618D01*
X8327D01*
X8320Y7621D01*
X8315Y7625D01*
X8311Y7631D01*
X8310Y7638D01*
X8311Y7645D01*
X8315Y7651D01*
X8320Y7655D01*
X8327Y7658D01*
X8333D01*
X8340Y7655D01*
X8345Y7651D01*
X8349Y7645D01*
X8350Y7638D01*
Y7238D02*
X8349Y7231D01*
X8345Y7225D01*
X8340Y7221D01*
X8333Y7218D01*
X8327D01*
X8320Y7221D01*
X8315Y7225D01*
X8311Y7231D01*
X8310Y7238D01*
X8311Y7245D01*
X8315Y7251D01*
X8320Y7255D01*
X8327Y7258D01*
X8333D01*
X8340Y7255D01*
X8345Y7251D01*
X8349Y7245D01*
X8350Y7238D01*
X12885Y8708D02*
X12905Y8668D01*
X12885Y8708D02*
X12925D01*
X12905Y8668D01*
X12925Y8888D02*
X12924Y8881D01*
X12920Y8875D01*
X12915Y8871D01*
X12908Y8868D01*
X12902D01*
X12895Y8871D01*
X12890Y8875D01*
X12886Y8881D01*
X12885Y8888D01*
X12886Y8895D01*
X12890Y8901D01*
X12895Y8905D01*
X12902Y8908D01*
X12908D01*
X12915Y8905D01*
X12920Y8901D01*
X12924Y8895D01*
X12925Y8888D01*
X12905Y9068D02*
X12915Y9078D01*
X12925D01*
X12915Y9088D01*
X12925Y9098D01*
X12915D01*
X12905Y9108D01*
X12895Y9098D01*
X12885D01*
X12895Y9088D01*
X12885Y9078D01*
X12895D01*
X12905Y9068D01*
X12885Y9268D02*
Y9308D01*
X12925D01*
Y9268D01*
X12885D01*
D13*
X9156Y5335D02*
X9122D01*
Y5310D01*
X9139Y5318D01*
X9147D01*
X9156Y5310D01*
Y5293D01*
X9147Y5285D01*
X9131D01*
X9122Y5293D01*
X9172Y5335D02*
X9206D01*
X9172D02*
Y5310D01*
X9189Y5318D01*
X9197D01*
X9206Y5310D01*
Y5293D01*
X9197Y5285D01*
X9181D01*
X9172Y5293D01*
X9222Y5326D02*
X9231Y5335D01*
X9247D01*
X9256Y5326D01*
Y5293D01*
X9247Y5285D01*
X9231D01*
X9222Y5293D01*
Y5326D01*
X9272D02*
X9281Y5335D01*
X9297D01*
X9306Y5326D01*
Y5293D01*
X9297Y5285D01*
X9281D01*
X9272Y5293D01*
Y5326D01*
X9322Y5318D02*
Y5285D01*
Y5318D02*
X9331D01*
X9339Y5310D01*
Y5285D01*
Y5310D01*
X9347Y5318D01*
X9356Y5310D01*
Y5285D01*
X9372D02*
X9389D01*
X9381D01*
Y5318D01*
X9372D01*
X9381Y5335D02*
X9382D01*
X9414Y5285D02*
X9431D01*
X9422D01*
Y5335D01*
X9414D01*
X12227Y7921D02*
X12277D01*
X12252Y7946D01*
Y7912D01*
X12277Y7896D02*
Y7862D01*
Y7896D02*
X12252D01*
X12260Y7879D01*
Y7871D01*
X12252Y7862D01*
X12235D01*
X12227Y7871D01*
Y7887D01*
X12235Y7896D01*
X12268Y7846D02*
X12277Y7837D01*
Y7821D01*
X12268Y7812D01*
X12235D01*
X12227Y7821D01*
Y7837D01*
X12235Y7846D01*
X12268D01*
Y7796D02*
X12277Y7787D01*
Y7771D01*
X12268Y7762D01*
X12235D01*
X12227Y7771D01*
Y7787D01*
X12235Y7796D01*
X12268D01*
X12260Y7746D02*
X12227D01*
X12260D02*
Y7737D01*
X12252Y7729D01*
X12227D01*
X12252D01*
X12260Y7721D01*
X12252Y7712D01*
X12227D01*
Y7696D02*
Y7679D01*
Y7687D01*
X12260D01*
Y7696D01*
X12277Y7687D02*
X12278D01*
X12227Y7654D02*
Y7637D01*
Y7646D01*
X12277D01*
Y7654D01*
D14*
X9112Y5313D02*
X6530D01*
X9448D02*
X12030D01*
X12230Y10038D02*
X12280D01*
Y5538D02*
X12230D01*
X6530Y5338D02*
Y5288D01*
X12030D02*
Y5338D01*
X12255Y7956D02*
Y10038D01*
Y7620D02*
Y5538D01*
X6587Y5332D02*
X6530Y5313D01*
X6587Y5294D01*
X11973Y5332D02*
X12030Y5313D01*
X11973Y5294D01*
X12274Y9981D02*
X12255Y10038D01*
X12236Y9981D01*
X12274Y5595D02*
X12255Y5538D01*
X12236Y5595D01*
X7613Y10613D02*
X7580D01*
X7597D02*
X7613D01*
X7597D02*
Y10713D01*
X7598D01*
X7597D02*
X7580Y10696D01*
X7663D02*
X7680Y10713D01*
X7713D01*
X7730Y10696D01*
Y10630D01*
X7713Y10613D01*
X7680D01*
X7663Y10630D01*
Y10696D01*
X7763D02*
X7780Y10713D01*
X7813D01*
X7830Y10696D01*
Y10630D01*
X7813Y10613D01*
X7780D01*
X7763Y10630D01*
Y10696D01*
X7863Y10663D02*
X7930D01*
X7963Y10613D02*
X7997D01*
X7980D01*
Y10713D01*
X7981D01*
X7980D02*
X7963Y10696D01*
X8047D02*
X8063Y10713D01*
X8096D01*
X8113Y10696D01*
Y10630D01*
X8096Y10613D01*
X8063D01*
X8047Y10630D01*
Y10696D01*
X8146D02*
X8163Y10713D01*
X8196D01*
X8213Y10696D01*
Y10630D01*
X8196Y10613D01*
X8163D01*
X8146Y10630D01*
Y10696D01*
X8246Y10713D02*
X8313D01*
Y10696D01*
X8246Y10630D01*
Y10613D01*
X8346Y10663D02*
X8413D01*
X8446Y10696D02*
X8463Y10713D01*
X8496D01*
X8513Y10696D01*
Y10630D01*
X8496Y10613D01*
X8463D01*
X8446Y10630D01*
Y10696D01*
X8580D02*
X8613Y10713D01*
X8580Y10696D02*
X8546Y10663D01*
Y10630D01*
X8563Y10613D01*
X8596D01*
X8613Y10630D01*
Y10646D01*
X8596Y10663D01*
X8546D01*
X8746Y10613D02*
Y10713D01*
X8796D01*
X8813Y10696D01*
Y10663D01*
X8796Y10646D01*
X8746D01*
X8780D02*
X8813Y10613D01*
X8846Y10713D02*
X8913D01*
X8846D02*
Y10613D01*
X8913D01*
X8880Y10663D02*
X8846D01*
X8946Y10646D02*
Y10713D01*
Y10646D02*
X8980Y10613D01*
X9013Y10646D01*
Y10713D01*
X9146Y10680D02*
Y10613D01*
Y10680D02*
X9179Y10713D01*
X9213Y10680D01*
Y10613D01*
Y10663D01*
X9146D01*
X9346Y10713D02*
X9413D01*
X9346D02*
Y10663D01*
X9379D01*
X9346D01*
Y10613D01*
X9446D02*
Y10680D01*
X9479Y10713D01*
X9513Y10680D01*
Y10613D01*
Y10663D01*
X9446D01*
X9546Y10613D02*
Y10713D01*
Y10613D02*
X9596D01*
X9613Y10630D01*
Y10646D01*
X9596Y10663D01*
X9546D01*
X9547D01*
X9546D02*
X9547D01*
X9546D02*
X9547D01*
X9546D02*
X9596D01*
X9613Y10680D01*
Y10696D01*
X9596Y10713D01*
X9546D01*
X9746D02*
Y10613D01*
X9796D01*
X9813Y10630D01*
Y10696D01*
X9796Y10713D01*
X9746D01*
X9846D02*
Y10613D01*
Y10713D02*
X9896D01*
X9913Y10696D01*
Y10663D01*
X9896Y10646D01*
X9846D01*
X9879D02*
X9913Y10613D01*
X9946D02*
Y10680D01*
X9979Y10713D01*
X10013Y10680D01*
Y10613D01*
Y10663D01*
X9946D01*
X10046Y10613D02*
Y10713D01*
X10079Y10646D02*
X10046Y10613D01*
X10079Y10646D02*
X10113Y10613D01*
Y10713D01*
X10146D02*
X10179D01*
X10162D01*
Y10613D01*
X10146D01*
X10179D01*
X10229D02*
Y10713D01*
X10296Y10613D01*
Y10713D01*
X10379D02*
X10396Y10696D01*
X10379Y10713D02*
X10346D01*
X10329Y10696D01*
Y10630D01*
X10346Y10613D01*
X10379D01*
X10396Y10630D01*
Y10663D01*
X10362D01*
X12030Y10038D02*
X6530D01*
Y5538D02*
X12030D01*
X6530D02*
Y10038D01*
X12030D02*
Y5538D01*
X13222Y8714D02*
Y8719D01*
X13227Y8728D01*
X13232Y8733D01*
X13241Y8738D01*
X13260D01*
X13270Y8733D01*
X13275Y8728D01*
X13279Y8719D01*
Y8709D01*
X13275Y8700D01*
X13265Y8686D01*
X13218Y8638D01*
X13284D01*
X13307Y8671D02*
X13354Y8738D01*
X13378Y8671D02*
X13307D01*
X13354Y8638D02*
Y8738D01*
X14008D02*
X14061D01*
X14032Y8700D01*
X14046D01*
X14056Y8695D01*
X14061Y8690D01*
X14065Y8676D01*
Y8667D01*
X14061Y8652D01*
X14051Y8643D01*
X14037Y8638D01*
X14023D01*
X14008Y8643D01*
X14004Y8648D01*
X13999Y8657D01*
X14093Y8714D02*
Y8719D01*
X14097Y8728D01*
X14102Y8733D01*
X14112Y8738D01*
X14131D01*
X14140Y8733D01*
X14145Y8728D01*
X14150Y8719D01*
Y8709D01*
X14145Y8700D01*
X14135Y8686D01*
X14088Y8638D01*
X14154D01*
X14177D02*
Y8705D01*
X14191Y8700D02*
X14177Y8686D01*
X14191Y8700D02*
X14201Y8705D01*
X14215D01*
X14224Y8700D01*
X14229Y8686D01*
Y8638D01*
Y8686D02*
X14243Y8700D01*
X14253Y8705D01*
X14267D01*
X14277Y8700D01*
X14282Y8686D01*
Y8638D01*
X14327Y8733D02*
X14322Y8738D01*
X14327Y8733D02*
X14332Y8738D01*
X14327Y8743D01*
X14322Y8738D01*
X14327Y8705D02*
Y8638D01*
X14350D02*
Y8738D01*
X15107Y8733D02*
X15121Y8738D01*
X15107Y8733D02*
X15097Y8719D01*
X15092Y8695D01*
Y8681D01*
X15097Y8657D01*
X15107Y8643D01*
X15121Y8638D01*
X15131D01*
X15145Y8643D01*
X15154Y8657D01*
X15159Y8681D01*
Y8695D01*
X15154Y8719D01*
X15145Y8733D01*
X15131Y8738D01*
X15121D01*
X15186Y8648D02*
X15182Y8643D01*
X15186Y8638D01*
X15191Y8643D01*
X15186Y8648D01*
X15222Y8733D02*
X15237Y8738D01*
X15222Y8733D02*
X15218Y8724D01*
Y8714D01*
X15222Y8705D01*
X15232Y8700D01*
X15251Y8695D01*
X15265Y8690D01*
X15275Y8681D01*
X15280Y8671D01*
Y8657D01*
X15275Y8648D01*
X15270Y8643D01*
X15256Y8638D01*
X15237D01*
X15222Y8643D01*
X15218Y8648D01*
X15213Y8657D01*
Y8671D01*
X15218Y8681D01*
X15227Y8690D01*
X15242Y8695D01*
X15261Y8700D01*
X15270Y8705D01*
X15275Y8714D01*
Y8724D01*
X15270Y8733D01*
X15256Y8738D01*
X15237D01*
X15302Y8719D02*
X15312Y8724D01*
X15326Y8738D01*
Y8638D01*
X15380Y8714D02*
Y8719D01*
X15385Y8728D01*
X15390Y8733D01*
X15399Y8738D01*
X15418D01*
X15428Y8733D01*
X15432Y8728D01*
X15437Y8719D01*
Y8709D01*
X15432Y8700D01*
X15423Y8686D01*
X15375Y8638D01*
X15442D01*
X15474Y8733D02*
X15488Y8738D01*
X15474Y8733D02*
X15469Y8724D01*
Y8714D01*
X15474Y8705D01*
X15483Y8700D01*
X15502Y8695D01*
X15517Y8690D01*
X15526Y8681D01*
X15531Y8671D01*
Y8657D01*
X15526Y8648D01*
X15521Y8643D01*
X15507Y8638D01*
X15488D01*
X15474Y8643D01*
X15469Y8648D01*
X15464Y8657D01*
Y8671D01*
X15469Y8681D01*
X15479Y8690D01*
X15493Y8695D01*
X15512Y8700D01*
X15521Y8705D01*
X15526Y8714D01*
Y8724D01*
X15521Y8733D01*
X15507Y8738D01*
X15488D01*
X15553Y8705D02*
Y8638D01*
Y8686D02*
X15568Y8700D01*
X15577Y8705D01*
X15591D01*
X15601Y8700D01*
X15606Y8686D01*
Y8638D01*
Y8686D02*
X15620Y8700D01*
X15630Y8705D01*
X15644D01*
X15653Y8700D01*
X15658Y8686D01*
Y8638D01*
X15690D02*
Y8705D01*
X15704Y8700D02*
X15690Y8686D01*
X15704Y8700D02*
X15713Y8705D01*
X15728D01*
X15737Y8700D01*
X15742Y8686D01*
Y8638D01*
Y8686D02*
X15756Y8700D01*
X15766Y8705D01*
X15780D01*
X15789Y8700D01*
X15794Y8686D01*
Y8638D01*
X13275Y8938D02*
X13227D01*
X13222Y8895D01*
X13227Y8900D01*
X13241Y8905D01*
X13256D01*
X13270Y8900D01*
X13279Y8890D01*
X13284Y8876D01*
Y8867D01*
X13279Y8852D01*
X13270Y8843D01*
X13256Y8838D01*
X13241D01*
X13227Y8843D01*
X13222Y8848D01*
X13218Y8857D01*
X13316Y8933D02*
X13330Y8938D01*
X13316Y8933D02*
X13311Y8924D01*
Y8914D01*
X13316Y8905D01*
X13326Y8900D01*
X13345Y8895D01*
X13359Y8890D01*
X13368Y8881D01*
X13373Y8871D01*
Y8857D01*
X13368Y8848D01*
X13364Y8843D01*
X13349Y8838D01*
X13330D01*
X13316Y8843D01*
X13311Y8848D01*
X13307Y8857D01*
Y8871D01*
X13311Y8881D01*
X13321Y8890D01*
X13335Y8895D01*
X13354Y8900D01*
X13364Y8905D01*
X13368Y8914D01*
Y8924D01*
X13364Y8933D01*
X13349Y8938D01*
X13330D01*
X13405D02*
X13457D01*
X13429Y8900D01*
X13443D01*
X13453Y8895D01*
X13457Y8890D01*
X13462Y8876D01*
Y8867D01*
X13457Y8852D01*
X13448Y8843D01*
X13434Y8838D01*
X13419D01*
X13405Y8843D01*
X13400Y8848D01*
X13396Y8857D01*
X14008Y8938D02*
X14061D01*
X14032Y8900D01*
X14046D01*
X14056Y8895D01*
X14061Y8890D01*
X14065Y8876D01*
Y8867D01*
X14061Y8852D01*
X14051Y8843D01*
X14037Y8838D01*
X14023D01*
X14008Y8843D01*
X14004Y8848D01*
X13999Y8857D01*
X14140Y8933D02*
X14145Y8924D01*
X14140Y8933D02*
X14126Y8938D01*
X14116D01*
X14102Y8933D01*
X14093Y8919D01*
X14088Y8895D01*
Y8871D01*
X14093Y8852D01*
X14102Y8843D01*
X14116Y8838D01*
X14121D01*
X14135Y8843D01*
X14145Y8852D01*
X14150Y8867D01*
Y8871D01*
X14145Y8886D01*
X14135Y8895D01*
X14121Y8900D01*
X14116D01*
X14102Y8895D01*
X14093Y8886D01*
X14088Y8871D01*
X14172Y8905D02*
Y8838D01*
Y8886D02*
X14186Y8900D01*
X14195Y8905D01*
X14210D01*
X14219Y8900D01*
X14224Y8886D01*
Y8838D01*
Y8886D02*
X14238Y8900D01*
X14248Y8905D01*
X14262D01*
X14272Y8900D01*
X14276Y8886D01*
Y8838D01*
X14322Y8933D02*
X14317Y8938D01*
X14322Y8933D02*
X14327Y8938D01*
X14322Y8943D01*
X14317Y8938D01*
X14322Y8905D02*
Y8838D01*
X14344D02*
Y8938D01*
X15107Y8933D02*
X15121Y8938D01*
X15107Y8933D02*
X15097Y8919D01*
X15092Y8895D01*
Y8881D01*
X15097Y8857D01*
X15107Y8843D01*
X15121Y8838D01*
X15131D01*
X15145Y8843D01*
X15154Y8857D01*
X15159Y8881D01*
Y8895D01*
X15154Y8919D01*
X15145Y8933D01*
X15131Y8938D01*
X15121D01*
X15186Y8848D02*
X15182Y8843D01*
X15186Y8838D01*
X15191Y8843D01*
X15186Y8848D01*
X15270Y8890D02*
X15275Y8905D01*
X15270Y8890D02*
X15261Y8881D01*
X15246Y8876D01*
X15242D01*
X15227Y8881D01*
X15218Y8890D01*
X15213Y8905D01*
Y8909D01*
X15218Y8924D01*
X15227Y8933D01*
X15242Y8938D01*
X15246D01*
X15261Y8933D01*
X15270Y8924D01*
X15275Y8905D01*
Y8881D01*
X15270Y8857D01*
X15261Y8843D01*
X15246Y8838D01*
X15237D01*
X15222Y8843D01*
X15218Y8852D01*
X15302Y8919D02*
X15312Y8924D01*
X15326Y8938D01*
Y8838D01*
X15375Y8871D02*
X15423Y8938D01*
X15447Y8871D02*
X15375D01*
X15423Y8838D02*
Y8938D01*
X15464Y8871D02*
X15512Y8938D01*
X15536Y8871D02*
X15464D01*
X15512Y8838D02*
Y8938D01*
X15553Y8905D02*
Y8838D01*
Y8886D02*
X15568Y8900D01*
X15577Y8905D01*
X15591D01*
X15601Y8900D01*
X15606Y8886D01*
Y8838D01*
Y8886D02*
X15620Y8900D01*
X15630Y8905D01*
X15644D01*
X15653Y8900D01*
X15658Y8886D01*
Y8838D01*
X15690D02*
Y8905D01*
X15704Y8900D02*
X15690Y8886D01*
X15704Y8900D02*
X15713Y8905D01*
X15728D01*
X15737Y8900D01*
X15742Y8886D01*
Y8838D01*
Y8886D02*
X15756Y8900D01*
X15766Y8905D01*
X15780D01*
X15789Y8900D01*
X15794Y8886D01*
Y8838D01*
X13265Y9138D02*
X13218Y9071D01*
X13289D01*
X13265Y9038D02*
Y9138D01*
X14018Y9038D02*
X14065Y9138D01*
X13999D01*
X14102Y9133D02*
X14116Y9138D01*
X14102Y9133D02*
X14093Y9119D01*
X14088Y9095D01*
Y9081D01*
X14093Y9057D01*
X14102Y9043D01*
X14116Y9038D01*
X14126D01*
X14140Y9043D01*
X14150Y9057D01*
X14154Y9081D01*
Y9095D01*
X14150Y9119D01*
X14140Y9133D01*
X14126Y9138D01*
X14116D01*
X14177Y9105D02*
Y9038D01*
Y9086D02*
X14191Y9100D01*
X14201Y9105D01*
X14215D01*
X14224Y9100D01*
X14229Y9086D01*
Y9038D01*
Y9086D02*
X14243Y9100D01*
X14253Y9105D01*
X14267D01*
X14277Y9100D01*
X14282Y9086D01*
Y9038D01*
X14327Y9133D02*
X14322Y9138D01*
X14327Y9133D02*
X14332Y9138D01*
X14327Y9143D01*
X14322Y9138D01*
X14327Y9105D02*
Y9038D01*
X14350D02*
Y9138D01*
X15092Y9119D02*
X15102Y9124D01*
X15116Y9138D01*
Y9038D01*
X15166Y9043D02*
X15171Y9048D01*
X15166Y9043D02*
X15171Y9038D01*
X15175Y9043D01*
X15171Y9048D01*
X15216Y9038D02*
X15264Y9138D01*
X15197D01*
X15305Y9038D02*
X15353Y9138D01*
X15286D01*
X15385Y9133D02*
X15399Y9138D01*
X15385Y9133D02*
X15380Y9124D01*
Y9114D01*
X15385Y9105D01*
X15394Y9100D01*
X15413Y9095D01*
X15428Y9090D01*
X15437Y9081D01*
X15442Y9071D01*
Y9057D01*
X15437Y9048D01*
X15432Y9043D01*
X15418Y9038D01*
X15399D01*
X15385Y9043D01*
X15380Y9048D01*
X15375Y9057D01*
Y9071D01*
X15380Y9081D01*
X15390Y9090D01*
X15404Y9095D01*
X15423Y9100D01*
X15432Y9105D01*
X15437Y9114D01*
Y9124D01*
X15432Y9133D01*
X15418Y9138D01*
X15399D01*
X15464Y9105D02*
Y9038D01*
Y9086D02*
X15479Y9100D01*
X15488Y9105D01*
X15502D01*
X15512Y9100D01*
X15517Y9086D01*
Y9038D01*
Y9086D02*
X15531Y9100D01*
X15540Y9105D01*
X15555D01*
X15564Y9100D01*
X15569Y9086D01*
Y9038D01*
X15600D02*
Y9105D01*
X15615Y9100D02*
X15600Y9086D01*
X15615Y9100D02*
X15624Y9105D01*
X15639D01*
X15648Y9100D01*
X15653Y9086D01*
Y9038D01*
Y9086D02*
X15667Y9100D01*
X15677Y9105D01*
X15691D01*
X15700Y9100D01*
X15705Y9086D01*
Y9038D01*
X13265Y9338D02*
X13218Y9271D01*
X13289D01*
X13265Y9238D02*
Y9338D01*
X13999Y9319D02*
X14008Y9324D01*
X14023Y9338D01*
Y9238D01*
X14072Y9271D02*
X14120Y9338D01*
X14143Y9271D02*
X14072D01*
X14120Y9238D02*
Y9338D01*
X14175Y9333D02*
X14190Y9338D01*
X14175Y9333D02*
X14166Y9319D01*
X14161Y9295D01*
Y9281D01*
X14166Y9257D01*
X14175Y9243D01*
X14190Y9238D01*
X14199D01*
X14213Y9243D01*
X14223Y9257D01*
X14228Y9281D01*
Y9295D01*
X14223Y9319D01*
X14213Y9333D01*
X14199Y9338D01*
X14190D01*
X14250Y9305D02*
Y9238D01*
Y9286D02*
X14264Y9300D01*
X14274Y9305D01*
X14288D01*
X14298Y9300D01*
X14302Y9286D01*
Y9238D01*
Y9286D02*
X14317Y9300D01*
X14326Y9305D01*
X14341D01*
X14350Y9300D01*
X14355Y9286D01*
Y9238D01*
X14401Y9333D02*
X14396Y9338D01*
X14401Y9333D02*
X14405Y9338D01*
X14401Y9343D01*
X14396Y9338D01*
X14401Y9305D02*
Y9238D01*
X14423D02*
Y9338D01*
X15102D02*
X15154D01*
X15126Y9300D01*
X15140D01*
X15150Y9295D01*
X15154Y9290D01*
X15159Y9276D01*
Y9267D01*
X15154Y9252D01*
X15145Y9243D01*
X15131Y9238D01*
X15116D01*
X15102Y9243D01*
X15097Y9248D01*
X15092Y9257D01*
X15182Y9243D02*
X15186Y9248D01*
X15182Y9243D02*
X15186Y9238D01*
X15191Y9243D01*
X15186Y9248D01*
X15222Y9338D02*
X15270D01*
X15222D02*
X15218Y9295D01*
X15222Y9300D01*
X15237Y9305D01*
X15251D01*
X15265Y9300D01*
X15275Y9290D01*
X15280Y9276D01*
Y9267D01*
X15275Y9252D01*
X15265Y9243D01*
X15251Y9238D01*
X15237D01*
X15222Y9243D01*
X15218Y9248D01*
X15213Y9257D01*
X15312Y9338D02*
X15359D01*
X15312D02*
X15307Y9295D01*
X15312Y9300D01*
X15326Y9305D01*
X15340D01*
X15354Y9300D01*
X15364Y9290D01*
X15369Y9276D01*
Y9267D01*
X15364Y9252D01*
X15354Y9243D01*
X15340Y9238D01*
X15326D01*
X15312Y9243D01*
X15307Y9248D01*
X15302Y9257D01*
X15443Y9333D02*
X15448Y9324D01*
X15443Y9333D02*
X15429Y9338D01*
X15420D01*
X15405Y9333D01*
X15396Y9319D01*
X15391Y9295D01*
Y9271D01*
X15396Y9252D01*
X15405Y9243D01*
X15420Y9238D01*
X15424D01*
X15439Y9243D01*
X15448Y9252D01*
X15453Y9267D01*
Y9271D01*
X15448Y9286D01*
X15439Y9295D01*
X15424Y9300D01*
X15420D01*
X15405Y9295D01*
X15396Y9286D01*
X15391Y9271D01*
X15475Y9305D02*
Y9238D01*
Y9286D02*
X15489Y9300D01*
X15499Y9305D01*
X15513D01*
X15522Y9300D01*
X15527Y9286D01*
Y9238D01*
Y9286D02*
X15541Y9300D01*
X15551Y9305D01*
X15565D01*
X15575Y9300D01*
X15580Y9286D01*
Y9238D01*
X15611D02*
Y9305D01*
X15625Y9300D02*
X15611Y9286D01*
X15625Y9300D02*
X15635Y9305D01*
X15649D01*
X15659Y9300D01*
X15663Y9286D01*
Y9238D01*
Y9286D02*
X15678Y9300D01*
X15687Y9305D01*
X15701D01*
X15711Y9300D01*
X15716Y9286D01*
Y9238D01*
X13275Y8524D02*
X13270Y8533D01*
X13256Y8538D01*
X13246D01*
X13232Y8533D01*
X13222Y8519D01*
X13218Y8495D01*
Y8471D01*
X13222Y8452D01*
X13232Y8443D01*
X13246Y8438D01*
X13251D01*
X13265Y8443D01*
X13275Y8452D01*
X13279Y8467D01*
Y8471D01*
X13275Y8486D01*
X13265Y8495D01*
X13251Y8500D01*
X13246D01*
X13232Y8495D01*
X13222Y8486D01*
X13218Y8471D01*
X13301Y8519D02*
X13311Y8524D01*
X13325Y8538D01*
Y8438D01*
X13384Y8538D02*
X13432D01*
X13384D02*
X13379Y8495D01*
X13384Y8500D01*
X13398Y8505D01*
X13413D01*
X13427Y8500D01*
X13437Y8490D01*
X13441Y8476D01*
Y8467D01*
X13437Y8452D01*
X13427Y8443D01*
X13413Y8438D01*
X13398D01*
X13384Y8443D01*
X13379Y8448D01*
X13375Y8457D01*
X14032Y8438D02*
Y8538D01*
X13999D02*
X14065D01*
X14092Y8500D02*
X14101Y8505D01*
X14092Y8500D02*
X14082Y8490D01*
X14077Y8476D01*
Y8467D01*
X14082Y8452D01*
X14092Y8443D01*
X14101Y8438D01*
X14115D01*
X14125Y8443D01*
X14134Y8452D01*
X14139Y8467D01*
Y8476D01*
X14134Y8490D01*
X14125Y8500D01*
X14115Y8505D01*
X14101D01*
X14175Y8538D02*
Y8457D01*
X14180Y8443D01*
X14190Y8438D01*
X14199D01*
X14194Y8505D02*
X14161D01*
X14271D02*
Y8438D01*
Y8490D02*
X14261Y8500D01*
X14252Y8505D01*
X14237D01*
X14228Y8500D01*
X14218Y8490D01*
X14213Y8476D01*
Y8467D01*
X14218Y8452D01*
X14228Y8443D01*
X14237Y8438D01*
X14252D01*
X14261Y8443D01*
X14271Y8452D01*
X14297Y8438D02*
Y8538D01*
D02*
M02*
