*%FSLAX23Y23*%
*%MOIN*%
G01*
%ADD11C,0.006*%
%ADD12C,0.007*%
%ADD13C,0.008*%
%ADD14C,0.010*%
%ADD15C,0.012*%
%ADD16C,0.020*%
%ADD17C,0.032*%
%ADD18C,0.036*%
%ADD19C,0.050*%
%ADD20C,0.050*%
%ADD21C,0.052*%
%ADD22C,0.054*%
%ADD23C,0.055*%
%ADD24C,0.056*%
%ADD25C,0.059*%
%ADD26C,0.062*%
%ADD27C,0.066*%
%ADD28C,0.070*%
%ADD29C,0.090*%
%ADD30C,0.125*%
%ADD31C,0.129*%
%ADD32C,0.140*%
%ADD33C,0.160*%
%ADD34C,0.250*%
%ADD35R,0.062X0.062*%
%ADD36R,0.066X0.066*%
D14*
X7755Y10238D02*
X7788D01*
X7772D01*
Y10338D01*
X7773D01*
X7772D02*
X7755Y10321D01*
X7838D02*
X7855Y10338D01*
X7888D01*
X7905Y10321D01*
Y10255D01*
X7888Y10238D01*
X7855D01*
X7838Y10255D01*
Y10321D01*
X7938D02*
X7955Y10338D01*
X7988D01*
X8005Y10321D01*
Y10255D01*
X7988Y10238D01*
X7955D01*
X7938Y10255D01*
Y10321D01*
X8038Y10288D02*
X8105D01*
X8138Y10238D02*
X8172D01*
X8155D01*
Y10338D01*
X8156D01*
X8155D02*
X8138Y10321D01*
X8222D02*
X8238Y10338D01*
X8272D01*
X8288Y10321D01*
Y10255D01*
X8272Y10238D01*
X8238D01*
X8222Y10255D01*
Y10321D01*
X8321D02*
X8338Y10338D01*
X8371D01*
X8388Y10321D01*
Y10255D01*
X8371Y10238D01*
X8338D01*
X8321Y10255D01*
Y10321D01*
X8421Y10338D02*
X8488D01*
Y10321D01*
X8421Y10255D01*
Y10238D01*
X8521Y10288D02*
X8588D01*
X8621Y10321D02*
X8638Y10338D01*
X8671D01*
X8688Y10321D01*
Y10255D01*
X8671Y10238D01*
X8638D01*
X8621Y10255D01*
Y10321D01*
X8721Y10238D02*
X8788D01*
X8721D02*
X8788Y10305D01*
Y10321D01*
X8771Y10338D01*
X8738D01*
X8721Y10321D01*
X8921Y10338D02*
Y10238D01*
Y10338D02*
X8971D01*
X8988Y10321D01*
Y10288D01*
X8971Y10271D01*
X8921D01*
X8955D02*
X8988Y10238D01*
X9021Y10338D02*
X9088D01*
X9021D02*
Y10238D01*
X9088D01*
X9055Y10288D02*
X9021D01*
X9121Y10271D02*
Y10338D01*
Y10271D02*
X9155Y10238D01*
X9188Y10271D01*
Y10338D01*
X9321Y10305D02*
Y10238D01*
Y10305D02*
X9354Y10338D01*
X9388Y10305D01*
Y10238D01*
Y10288D01*
X9321D01*
X9571Y10338D02*
X9588Y10321D01*
X9571Y10338D02*
X9538D01*
X9521Y10321D01*
Y10255D01*
X9538Y10238D01*
X9571D01*
X9588Y10255D01*
X9638Y10338D02*
X9671D01*
X9638D02*
X9621Y10321D01*
Y10255D01*
X9638Y10238D01*
X9671D01*
X9688Y10255D01*
Y10321D01*
X9671Y10338D01*
X9721D02*
Y10238D01*
X9754Y10305D02*
X9721Y10338D01*
X9754Y10305D02*
X9788Y10338D01*
Y10238D01*
X9821D02*
Y10338D01*
X9871D01*
X9888Y10321D01*
Y10288D01*
X9871Y10271D01*
X9821D01*
X9938Y10338D02*
X9971D01*
X9938D02*
X9921Y10321D01*
Y10255D01*
X9938Y10238D01*
X9971D01*
X9988Y10255D01*
Y10321D01*
X9971Y10338D01*
X10021D02*
Y10238D01*
X10088D02*
X10021Y10338D01*
X10088D02*
Y10238D01*
X10121Y10338D02*
X10188D01*
X10121D02*
Y10238D01*
X10188D01*
X10154Y10288D02*
X10121D01*
X10221Y10238D02*
Y10338D01*
X10288Y10238D01*
Y10338D01*
X10321D02*
X10387D01*
X10354D01*
Y10238D01*
X10571Y10338D02*
X10587Y10321D01*
X10571Y10338D02*
X10537D01*
X10521Y10321D01*
Y10305D01*
X10537Y10288D01*
X10571D01*
X10587Y10271D01*
Y10255D01*
X10571Y10238D01*
X10537D01*
X10521Y10255D01*
X10621Y10338D02*
X10654D01*
X10637D01*
Y10238D01*
X10621D01*
X10654D01*
X10704D02*
Y10338D01*
Y10238D02*
X10754D01*
X10771Y10255D01*
Y10321D01*
X10754Y10338D01*
X10704D01*
X10804D02*
X10871D01*
X10804D02*
Y10238D01*
X10871D01*
X10837Y10288D02*
X10804D01*
X6635Y8768D02*
Y8748D01*
Y8758D02*
Y8768D01*
Y8758D02*
X6575D01*
X6576D01*
X6575D02*
X6585Y8748D01*
Y8798D02*
X6575Y8808D01*
Y8828D01*
X6585Y8838D01*
X6625D01*
X6635Y8828D01*
Y8808D01*
X6625Y8798D01*
X6585D01*
Y8858D02*
X6575Y8868D01*
Y8888D01*
X6585Y8898D01*
X6625D01*
X6635Y8888D01*
Y8868D01*
X6625Y8858D01*
X6585D01*
X6605Y8918D02*
Y8958D01*
X6635Y8978D02*
Y8998D01*
Y8988D01*
X6575D01*
X6576D01*
X6575D02*
X6585Y8978D01*
Y9028D02*
X6575Y9038D01*
Y9058D01*
X6585Y9068D01*
X6625D01*
X6635Y9058D01*
Y9038D01*
X6625Y9028D01*
X6585D01*
Y9088D02*
X6575Y9098D01*
Y9118D01*
X6585Y9128D01*
X6625D01*
X6635Y9118D01*
Y9098D01*
X6625Y9088D01*
X6585D01*
X6575Y9148D02*
Y9188D01*
X6585D01*
X6625Y9148D01*
X6635D01*
Y9268D02*
X6575D01*
Y9298D01*
X6585Y9308D01*
X6605D01*
X6615Y9298D01*
Y9268D01*
Y9288D02*
X6635Y9308D01*
X6575Y9328D02*
Y9368D01*
Y9328D02*
X6635D01*
Y9368D01*
X6605Y9348D02*
Y9328D01*
X6615Y9388D02*
X6575D01*
X6615D02*
X6635Y9408D01*
X6615Y9428D01*
X6575D01*
X6595Y9508D02*
X6635D01*
X6595D02*
X6575Y9528D01*
X6595Y9548D01*
X6635D01*
X6605D01*
Y9508D01*
X11655Y5573D02*
X11665Y5563D01*
X11685D01*
X11695Y5573D01*
Y5613D01*
X11685Y5623D01*
X11665D01*
X11655Y5613D01*
X11625Y5563D02*
X11605D01*
X11625D02*
X11635Y5573D01*
Y5613D01*
X11625Y5623D01*
X11605D01*
X11595Y5613D01*
Y5573D01*
X11605Y5563D01*
X11575D02*
Y5623D01*
Y5563D02*
X11545D01*
X11535Y5573D01*
Y5593D01*
X11545Y5603D01*
X11575D01*
X11515Y5573D02*
Y5563D01*
Y5573D02*
X11495Y5593D01*
X11475Y5573D01*
Y5563D01*
X11495Y5593D02*
Y5623D01*
X11455D02*
Y5563D01*
X11425D01*
X11415Y5573D01*
Y5593D01*
X11425Y5603D01*
X11455D01*
X11435D02*
X11415Y5623D01*
X11395Y5563D02*
X11375D01*
X11385D01*
Y5623D01*
X11395D01*
X11375D01*
X11315Y5563D02*
X11305Y5573D01*
X11315Y5563D02*
X11335D01*
X11345Y5573D01*
Y5613D01*
X11335Y5623D01*
X11315D01*
X11305Y5613D01*
Y5593D01*
X11325D01*
X11285Y5563D02*
Y5623D01*
Y5593D01*
X11245D01*
Y5563D01*
Y5623D01*
X11225Y5563D02*
X11185D01*
X11205D01*
Y5623D01*
X11165Y5603D02*
X11145Y5623D01*
X11165Y5603D02*
Y5583D01*
X11145Y5563D01*
X11085D02*
X11075Y5573D01*
X11085Y5563D02*
X11105D01*
X11115Y5573D01*
Y5613D01*
X11105Y5623D01*
X11085D01*
X11075Y5613D01*
X11055Y5623D02*
X11035Y5603D01*
Y5583D01*
X11055Y5563D01*
X10945Y5623D02*
X10905D01*
X10945D02*
X10905Y5583D01*
Y5573D01*
X10915Y5563D01*
X10935D01*
X10945Y5573D01*
X10885D02*
X10875Y5563D01*
X10855D01*
X10845Y5573D01*
Y5613D01*
X10855Y5623D01*
X10875D01*
X10885Y5613D01*
Y5573D01*
X10825D02*
X10815Y5563D01*
X10795D01*
X10785Y5573D01*
Y5613D01*
X10795Y5623D01*
X10815D01*
X10825Y5613D01*
Y5573D01*
X10765D02*
X10755Y5563D01*
X10735D01*
X10725Y5573D01*
Y5583D01*
X10726D01*
X10725D02*
X10726D01*
X10725D02*
X10726D01*
X10725D02*
X10735Y5593D01*
X10745D01*
X10735D01*
X10725Y5603D01*
Y5613D01*
X10735Y5623D01*
X10755D01*
X10765Y5613D01*
X11590Y5648D02*
Y5708D01*
X11560D01*
X11550Y5698D01*
Y5688D01*
X11560Y5678D01*
X11590D01*
X11591D01*
X11590D02*
X11591D01*
X11590D02*
X11591D01*
X11590D02*
X11560D01*
X11550Y5668D01*
Y5658D01*
X11560Y5648D01*
X11590D01*
X11530D02*
Y5658D01*
X11510Y5678D01*
X11490Y5658D01*
Y5648D01*
X11510Y5678D02*
Y5708D01*
X11390Y5648D02*
X11370D01*
X11380D02*
X11390D01*
X11380D02*
Y5698D01*
X11390Y5708D01*
X11400D01*
X11410Y5698D01*
X11350Y5648D02*
X11330D01*
X11340D01*
Y5708D01*
X11350D01*
X11330D01*
X11300D02*
Y5648D01*
X11280Y5668D01*
X11260Y5648D01*
Y5708D01*
X11180D02*
Y5648D01*
X11150D01*
X11140Y5658D01*
Y5678D01*
X11150Y5688D01*
X11180D01*
X11120Y5708D02*
Y5668D01*
X11100Y5648D01*
X11080Y5668D01*
Y5708D01*
Y5678D01*
X11120D01*
X11060Y5648D02*
X11020D01*
X11040D01*
Y5708D01*
X10970Y5648D02*
X10960Y5658D01*
X10970Y5648D02*
X10990D01*
X11000Y5658D01*
Y5698D01*
X10990Y5708D01*
X10970D01*
X10960Y5698D01*
X10940Y5708D02*
Y5648D01*
Y5678D02*
Y5708D01*
Y5678D02*
X10900D01*
Y5648D01*
Y5708D01*
X10880Y5648D02*
X10840D01*
X10880D02*
Y5708D01*
X10840D01*
X10860Y5678D02*
X10880D01*
X10820Y5648D02*
Y5708D01*
X10780D01*
X10760D02*
Y5648D01*
Y5708D02*
X10720D01*
X12030Y10038D02*
X6530D01*
Y5538D02*
X12030D01*
X6530D02*
Y10038D01*
X12030D02*
Y5538D01*
D15*
X10230Y8338D02*
X10355Y8463D01*
X11005D02*
X11180Y8638D01*
X10505Y7163D02*
X10280Y6938D01*
X11430Y7563D02*
X11555Y7688D01*
X8780Y6838D02*
X8530Y6588D01*
X11805Y8138D02*
X11980Y8313D01*
X8005Y9188D02*
X7855Y9038D01*
X8880Y8788D02*
X9030Y8938D01*
X11505Y9063D02*
X11680Y9238D01*
X11355D02*
X11205Y9088D01*
X11480Y9238D02*
X11680Y9438D01*
X11755Y7288D02*
X11580Y7113D01*
X11605Y7088D02*
X11780Y7263D01*
X11805Y7238D02*
X11630Y7063D01*
X11555Y7138D02*
X11730Y7313D01*
X6730Y8638D02*
X6605Y8513D01*
X8780Y8438D02*
X8980Y8638D01*
X8055Y7363D02*
X7880Y7188D01*
X9555Y9138D02*
X9980Y8713D01*
X9655Y8763D02*
X9430Y8988D01*
X9830Y8538D02*
X10030Y8338D01*
X9380Y6838D02*
X9530Y6688D01*
X7005Y5988D02*
X6880Y6113D01*
X8830Y8738D02*
X8705Y8863D01*
X7155Y7213D02*
X6980Y7388D01*
X8855Y8388D02*
X9005Y8238D01*
X11530Y8938D02*
X11680Y8788D01*
X10630Y7088D02*
X10755Y6963D01*
X11805Y7913D02*
X11680Y8038D01*
X9280Y5688D02*
X9230D01*
X6605Y8438D02*
Y8513D01*
X6680Y8488D02*
X6780Y8588D01*
X6605Y8438D02*
X6680Y8363D01*
X6780Y8388D02*
X6680Y8488D01*
X9005Y5838D02*
X9330D01*
X6880Y6113D02*
Y6188D01*
X6755Y6613D02*
Y6913D01*
X6930Y6738D02*
X6880Y6688D01*
Y6788D02*
X6930Y6838D01*
Y6538D02*
X6880Y6488D01*
X6755Y6913D02*
X6780Y6938D01*
X6830Y8338D02*
X6805Y8363D01*
X6755Y6613D02*
X6780Y6588D01*
X7780Y6088D02*
X8005D01*
X7930Y6038D02*
X7780D01*
X9030Y6088D02*
X9130D01*
X10530D02*
X10630D01*
X10030D02*
X9930D01*
X8055Y5988D02*
X7005D01*
X7330Y6038D02*
X7480D01*
X7055Y6738D02*
X7105Y6788D01*
X7005Y6838D02*
X7055Y6888D01*
X7155Y8563D02*
X7080Y8638D01*
X7180Y6138D02*
X7405D01*
X7630D02*
X7730D01*
X9830Y6238D02*
X9930D01*
X7480D02*
X7430D01*
X7855D02*
X7930D01*
X8030D01*
X7155Y7163D02*
Y7213D01*
X7305Y6863D02*
X7230Y6788D01*
Y8788D02*
X7305Y8863D01*
X7230Y6913D02*
X7205Y6888D01*
X7230Y7088D02*
X7155Y7163D01*
X8480Y6313D02*
X8655D01*
X7630Y6338D02*
X7580D01*
X7630D02*
X7755D01*
X7330D02*
X7180D01*
X7080D01*
X7630Y6438D02*
X7780D01*
X8730Y6388D02*
X9830D01*
X7480Y6888D02*
Y6963D01*
X7505Y6988D01*
X7480Y6888D02*
X7455Y6863D01*
Y8788D02*
X7505Y8838D01*
X7580Y6338D02*
X7480Y6238D01*
X7430D02*
X7330Y6338D01*
X7505Y7563D02*
X7430Y7638D01*
X9930Y6538D02*
X10030D01*
X7330D02*
X7180D01*
X7105D02*
X6930D01*
X9530Y6688D02*
X9930D01*
X9330D02*
X9230D01*
X10730D02*
X10830D01*
X10130D02*
X10030D01*
X8530D02*
X8430D01*
X6880Y6588D02*
X6780D01*
X7530Y7138D02*
X7630Y7238D01*
Y9138D02*
X7580Y9188D01*
X7530Y7513D02*
X7580Y7463D01*
X7055Y6738D02*
X6930D01*
X8780Y6838D02*
X9380D01*
X7455Y6863D02*
X7305D01*
X7005Y6838D02*
X6930D01*
X8980Y6788D02*
X9330D01*
X7230D02*
X7105D01*
X11555D02*
X11580D01*
X11680D01*
X8530D02*
X8430D01*
X7730Y9088D02*
X7830Y9188D01*
X7855Y8838D02*
X7955Y8738D01*
X7730Y7238D02*
X7780Y7188D01*
X7830Y7388D02*
X7755Y7463D01*
X7730Y6138D02*
X7780Y6088D01*
X7805Y7263D02*
X7780Y7288D01*
X7755Y6338D02*
X7855Y6238D01*
X7830Y7488D02*
X7755Y7563D01*
X9980Y6938D02*
X10280D01*
X7130D02*
X6780D01*
X7055Y6888D02*
X7205D01*
X7230Y6913D02*
X7430D01*
X10530Y6888D02*
X11380D01*
X11455D01*
X11505D02*
X11880D01*
X11430Y7013D02*
X10980D01*
X7630Y6988D02*
X7505D01*
X11080Y7063D02*
X11630D01*
X11430Y6963D02*
X10755D01*
X7880Y9888D02*
X7980Y9988D01*
X7905Y8863D02*
X7980Y8788D01*
X8980Y7088D02*
X9130D01*
X10830D02*
X10905D01*
X11280Y7113D02*
X11580D01*
X11605Y7088D02*
X11155D01*
X7730Y7238D02*
X7630D01*
X7530D02*
X7430D01*
X9580Y7188D02*
X9680D01*
X9030Y7238D02*
X8905D01*
X8730Y7188D02*
X8130D01*
X10505Y7163D02*
X10755D01*
X7530Y7138D02*
X7280D01*
X11380D02*
X11555D01*
X8805D02*
X8180D01*
X8080D02*
X8030D01*
X7880Y7188D02*
X7780D01*
X8180Y8788D02*
X8255Y8863D01*
X8180Y7138D02*
X8105Y7063D01*
X8080Y7138D02*
X8130Y7188D01*
X8180Y8563D02*
X8255Y8638D01*
X9980Y7313D02*
X10130D01*
X7305Y7288D02*
X7180D01*
X7305D02*
X7780D01*
X9680D02*
X9780D01*
X9605D02*
X9180D01*
X9630Y7313D02*
X9805D01*
X9855D01*
X10705Y7438D02*
X11580D01*
X10680Y7413D02*
X10555D01*
X9905Y7388D02*
X8980D01*
X10230Y7413D02*
X10380D01*
X7755Y7463D02*
X7580D01*
X6980Y7388D02*
X6880D01*
X9330Y7338D02*
X9380D01*
X9305Y7313D02*
X8905D01*
X8855Y7363D02*
X8055D01*
X8430Y6263D02*
Y6238D01*
Y6263D02*
X8480Y6313D01*
X8455Y8738D02*
X8505Y8788D01*
X8430Y6788D02*
X8330Y6688D01*
X11555Y7488D02*
X11605D01*
X10330Y7513D02*
X10155D01*
X10455Y7613D02*
X10605D01*
X11230Y7638D02*
X11330D01*
X11230D02*
X11130D01*
X11030D01*
X9830D02*
X9730D01*
X9830D02*
X9930D01*
X9630D02*
X9530D01*
X9330D02*
X9230D01*
X9130D01*
X10655Y7563D02*
X11430D01*
X10580D02*
X10480D01*
X10605Y7538D02*
X11580D01*
X10030D02*
X8880D01*
X8230Y7638D02*
X8130D01*
X7755Y7563D02*
X7505D01*
X8530Y6588D02*
Y6538D01*
X8730Y6388D02*
X8655Y6313D01*
X8555Y9138D02*
X8505Y9188D01*
X11555Y7688D02*
X11630D01*
X8905Y7238D02*
X8805Y7138D01*
X8755Y8963D02*
X8780Y8988D01*
Y7238D02*
X8730Y7188D01*
X8880Y9113D02*
X8805Y9188D01*
X8780Y7638D02*
X8880Y7538D01*
X8855Y7363D02*
X8905Y7313D01*
X10780Y7938D02*
X6955D01*
X8880Y6988D02*
Y6938D01*
X8930Y5763D02*
Y5688D01*
X8955Y9063D02*
X9030Y9138D01*
X8980Y7088D02*
X8880Y6988D01*
X9005Y5838D02*
X8930Y5763D01*
X8955Y9113D02*
X9030Y9188D01*
X8955Y8738D02*
X9005Y8688D01*
X10380Y8238D02*
X10480D01*
X10580D02*
X10680D01*
X10880D02*
X10980D01*
X9530D02*
X9005D01*
X9530D02*
X9630D01*
X9730D02*
X9830D01*
X9930D01*
X11680Y8138D02*
X11805D01*
X9180Y7288D02*
X9130Y7238D01*
X9055Y9888D02*
X9105Y9938D01*
X9230D02*
X9280Y9888D01*
X6805Y8363D02*
X6680D01*
X6830Y8338D02*
X6880D01*
X11555Y8288D02*
X11630D01*
X10255D02*
X10155D01*
X8855Y8388D02*
X6780D01*
X11530D02*
X11630D01*
X10780D02*
X10355D01*
X10230Y8338D02*
X10030D01*
X8780Y8438D02*
X6830D01*
X9305Y7313D02*
X9330Y7338D01*
X9380Y5788D02*
X9280Y5688D01*
X9430Y6688D02*
X9330Y6788D01*
X10355Y8463D02*
X11005D01*
X11555Y8488D02*
X11630D01*
X11080Y8638D02*
X10980D01*
X6880Y8588D02*
X6780D01*
X8980Y8638D02*
X9530D01*
X10180Y8538D02*
X10405D01*
X8180Y8563D02*
X7155D01*
X7080Y8638D02*
X6730D01*
X8255D02*
X8330D01*
X8480Y8488D02*
X7180D01*
X9630Y7238D02*
X9680Y7288D01*
X9630Y7313D02*
X9605Y7288D01*
X9530Y7238D02*
X9580Y7188D01*
X10830Y8688D02*
X10930D01*
X10330D02*
X9955D01*
X9880Y8763D02*
X9655D01*
X8180Y8788D02*
X8030D01*
X7855Y8838D02*
X7505D01*
X7455Y8788D02*
X7330D01*
X7980D02*
X8030D01*
X10255Y8838D02*
X10530D01*
X11180Y8788D02*
X11230D01*
X11255Y8763D02*
X11430D01*
X11455Y8788D02*
X11280D01*
X11305Y8813D02*
X11480D01*
X11530Y8838D02*
X11330D01*
X9855Y8713D02*
X9580D01*
X9980D02*
X10605D01*
X8955Y8738D02*
X8830D01*
X8455D02*
X7955D01*
X10030D02*
X10155D01*
X8580Y8788D02*
X8505D01*
X9830Y8638D02*
Y8538D01*
X9730Y7238D02*
X9680Y7188D01*
X9780Y7288D02*
X9830Y7238D01*
X8705Y8863D02*
X8255D01*
X7905D02*
X7305D01*
X11130D02*
X11205D01*
X11230Y8888D02*
X11030D01*
X8880Y8988D02*
X8780D01*
X8755Y8963D02*
X8480D01*
X8880Y8988D02*
X9430D01*
X10430D02*
X10680D01*
X10730Y9038D02*
X11680D01*
X7855D02*
X7680D01*
X10480D02*
X10655D01*
Y8913D02*
X10605D01*
X9280Y8938D02*
X9030D01*
X10930Y8913D02*
X11255D01*
X11530Y8938D02*
X10855D01*
X10105Y7613D02*
X10030Y7538D01*
Y8738D02*
X9980Y8788D01*
X9880Y8763D02*
X9955Y8688D01*
X9930Y8638D02*
X9855Y8713D01*
X9905Y7388D02*
X9980Y7313D01*
X9930Y7238D02*
X9855Y7313D01*
X8955Y9063D02*
X8630D01*
X7730Y9088D02*
X7630D01*
X10680Y9063D02*
X11505D01*
X11205Y9088D02*
X10580D01*
X9555Y9138D02*
X9030D01*
X8780D02*
X8555D01*
X8505Y9188D02*
X8380D01*
X9030D02*
X9180D01*
X8805D02*
X8680D01*
X8030D02*
X8005D01*
X7680Y9138D02*
X7630D01*
X7580Y9188D02*
X7530D01*
X11080D02*
X11180D01*
X11080D02*
X10980D01*
X10880D01*
X10780D01*
X10730Y9138D02*
X10630D01*
X10580Y9188D02*
X10480D01*
X10080D02*
X9980D01*
X8955Y9113D02*
X8880D01*
X10130Y8488D02*
X10180Y8538D01*
X10230Y7413D02*
X10130Y7313D01*
X10155Y8738D02*
X10255Y8838D01*
X10155Y7513D02*
X10130Y7488D01*
X10105Y8238D02*
X10155Y8288D01*
X10955Y9263D02*
X11180D01*
X11355Y9238D02*
X11480D01*
X11380Y9338D02*
X11255D01*
X10405Y7563D02*
Y7438D01*
X10380Y7563D02*
Y7638D01*
X10355Y9063D02*
Y9088D01*
X10480Y8613D02*
X10405Y8538D01*
Y7438D02*
X10380Y7413D01*
X10405Y7563D02*
X10455Y7613D01*
X10380Y7563D02*
X10330Y7513D01*
X10255Y8288D02*
X10355Y8388D01*
X10380Y8638D02*
X10330Y8688D01*
X10430Y8988D02*
X10355Y9063D01*
X10830Y9538D02*
X11380D01*
X10080Y9488D02*
X8780D01*
X8280D02*
X7830D01*
X10480Y8638D02*
Y8613D01*
X10530Y8838D02*
X10605Y8913D01*
Y8713D02*
X10680Y8638D01*
X10605Y7613D02*
X10655Y7563D01*
X10605Y7538D02*
X10580Y7563D01*
X10630Y9138D02*
X10580Y9188D01*
X10080Y9638D02*
X9980D01*
X10930Y9788D02*
X11080D01*
X8680D02*
X8380D01*
X10780Y8863D02*
Y8788D01*
Y9588D02*
Y9638D01*
X10830Y8688D02*
X10780Y8638D01*
Y8863D02*
X10855Y8938D01*
X10705Y7438D02*
X10680Y7413D01*
Y8988D02*
X10730Y9038D01*
X10680Y9063D02*
X10655Y9038D01*
X10730Y9138D02*
X10780Y9188D01*
X10755Y7163D02*
X10830Y7088D01*
Y9538D02*
X10780Y9588D01*
X10880Y9838D02*
X8880D01*
X7980Y9988D02*
X11930D01*
X9230Y9938D02*
X9105D01*
X7880Y9888D02*
X7630D01*
X8580D02*
X9055D01*
X10980Y8838D02*
Y8788D01*
X10880D02*
Y8863D01*
X10980Y8838D02*
X11030Y8888D01*
X10930Y8913D02*
X10880Y8863D01*
X10930Y8688D02*
X10980Y8638D01*
X10905Y7088D02*
X10980Y7013D01*
X10930Y9788D02*
X10880Y9838D01*
X11080Y8813D02*
Y8788D01*
X11130Y7238D02*
Y7113D01*
X11030D02*
Y7238D01*
X11180Y9263D02*
X11255Y9338D01*
X11130Y8863D02*
X11080Y8813D01*
X11130Y7113D02*
X11155Y7088D01*
X11080Y7063D02*
X11030Y7113D01*
X11280Y8788D02*
X11205Y8863D01*
X11230Y7238D02*
Y7163D01*
X11330Y7188D02*
Y7238D01*
X11255Y8763D02*
X11230Y8788D01*
X11305Y8813D02*
X11230Y8888D01*
X11255Y8913D02*
X11330Y8838D01*
X11230Y7163D02*
X11280Y7113D01*
X11330Y7188D02*
X11380Y7138D01*
X11480Y8363D02*
Y8713D01*
X11505Y8738D02*
Y8413D01*
X11530Y8513D02*
Y8763D01*
X11480Y8713D02*
X11430Y8763D01*
X11480Y8363D02*
X11555Y8288D01*
X11505Y8738D02*
X11455Y8788D01*
X11505Y8413D02*
X11530Y8388D01*
Y8763D02*
X11480Y8813D01*
X11530Y8513D02*
X11555Y8488D01*
X11630Y8738D02*
X11530Y8838D01*
X11455Y6888D02*
X11555Y6788D01*
X11505Y6888D02*
X11430Y6963D01*
X11755Y7288D02*
Y7763D01*
X11780Y7838D02*
Y7263D01*
X11630Y8588D02*
Y8738D01*
X11680Y8788D02*
Y8638D01*
X11730Y7688D02*
Y7313D01*
X11655Y7663D02*
X11630Y7688D01*
X11655Y7663D02*
X11680Y7638D01*
Y8238D02*
X11630Y8288D01*
X11680Y8338D02*
X11630Y8388D01*
X11680Y8438D02*
X11630Y8488D01*
X11680Y8538D02*
X11630Y8588D01*
X11680Y7938D02*
X11780Y7838D01*
X11755Y7763D02*
X11680Y7838D01*
Y7738D02*
X11730Y7688D01*
X11980Y8313D02*
Y9938D01*
X11805Y7913D02*
Y7238D01*
X11980Y9938D02*
X11930Y9988D01*
D16*
X10455Y7213D02*
X10330Y7088D01*
X8755Y5688D02*
X8630Y5563D01*
X9630Y6988D02*
X9805Y7163D01*
X10080Y7213D02*
X10230Y7363D01*
X10380D02*
X10505Y7488D01*
X9855Y6913D02*
X9730Y6788D01*
X8630Y5563D02*
X6605D01*
X8755Y5688D02*
X8830D01*
X8905Y5613D02*
X9055D01*
X9205D02*
X9355D01*
X6555D02*
Y8238D01*
X6630Y8313D01*
X6555Y5613D02*
X6605Y5563D01*
X9430Y5838D02*
X9480D01*
X9655D02*
X9780D01*
X9605Y5888D02*
X9530D01*
X6755Y8288D02*
X6730Y8313D01*
X6755Y8288D02*
X6805Y8238D01*
X8380Y6088D02*
X8530D01*
X8230Y6688D02*
X8080D01*
X9530Y6788D02*
X9730D01*
X9880Y7013D02*
X10055D01*
X9630Y6988D02*
X9580D01*
X10130Y7088D02*
X10330D01*
X9530D02*
X9430D01*
X9330D01*
X10455Y7213D02*
X10830D01*
X10080D02*
X10030D01*
X9980Y7163D02*
X9805D01*
X10230Y7363D02*
X10380D01*
X10905Y7338D02*
X11605D01*
X11555Y7488D02*
X10505D01*
X11605D02*
X11630D01*
X8905Y5613D02*
X8830Y5688D01*
X7180Y8238D02*
X6805D01*
X9130Y5688D02*
X9055Y5613D01*
X9180Y5638D02*
X9205Y5613D01*
X9180Y5638D02*
X9130Y5688D01*
X6730Y8313D02*
X6630D01*
X9430Y5838D02*
Y5688D01*
X9355Y5613D01*
X9580Y6988D02*
Y7038D01*
X9530Y5888D02*
X9480Y5838D01*
X9605Y5888D02*
X9655Y5838D01*
X9580Y7038D02*
X9530Y7088D01*
X9855Y6988D02*
Y6913D01*
X9980Y7163D02*
X10030Y7213D01*
X9880Y7013D02*
X9855Y6988D01*
X10055Y7013D02*
X10130Y7088D01*
X10855Y7238D02*
Y7288D01*
Y7238D02*
X10830Y7213D01*
X10855Y7288D02*
X10905Y7338D01*
X11680Y7413D02*
Y7438D01*
X11630Y7488D02*
X11680Y7538D01*
Y7413D02*
X11605Y7338D01*
D20*
X10855Y8563D02*
X10880Y8588D01*
X9655Y6313D02*
X9580Y6238D01*
X8855Y6313D02*
X8780Y6238D01*
X10905Y6613D02*
X10955Y6663D01*
X8630Y6063D02*
X8555Y5988D01*
Y5788D02*
X8530Y5763D01*
X8455D02*
X8430Y5738D01*
X8305Y6788D02*
X8505Y6988D01*
X9755Y7038D02*
X9805Y7088D01*
X9755Y6963D02*
X9680Y6888D01*
X10030Y7138D02*
X10055Y7163D01*
X10280Y7138D02*
X10380Y7238D01*
X11480Y7713D02*
X11505Y7738D01*
X11455Y8088D02*
X11505Y8138D01*
X8905Y6163D02*
X8855Y6113D01*
X9655D02*
X9705Y6163D01*
X7405Y6763D02*
X7330Y6688D01*
X7705Y6613D02*
X7780Y6688D01*
X7830Y5688D02*
X7755Y5613D01*
X7480Y6138D02*
X7580Y6238D01*
X7630Y6688D02*
X7805Y6863D01*
X8255D02*
X8330Y6938D01*
X11780Y9363D02*
X11880Y9463D01*
X8955Y7163D02*
X8780Y6988D01*
X8080Y7313D02*
X7880Y7113D01*
X7655D02*
X7605Y7063D01*
X10580Y8588D02*
X10605Y8563D01*
X11205Y6663D02*
X11330Y6538D01*
X9355Y6888D02*
X9230Y7013D01*
Y7138D02*
X9205Y7163D01*
X7855Y6138D02*
X7755Y6238D01*
X10180Y7163D02*
X10205Y7138D01*
X7155Y7013D02*
X7080Y7088D01*
X11805Y9563D02*
X11830Y9538D01*
X11705Y9563D02*
X11630Y9638D01*
X10880Y6463D02*
X10930Y6413D01*
X8755Y6113D02*
X8705Y6163D01*
X9530D02*
X9555Y6138D01*
X9580Y6113D01*
X7630Y6688D02*
X7555Y6763D01*
X7505Y6688D02*
X7580Y6613D01*
X7480Y5688D02*
X7555Y5613D01*
X8230Y7288D02*
X8205Y7313D01*
X7405Y7063D02*
X7380Y7088D01*
X7830Y5688D02*
X7930D01*
X8130D01*
X8230D01*
X8330D01*
X9930Y5613D02*
X10630D01*
X7755D02*
X7555D01*
X8455Y5763D02*
X8530D01*
X7930Y5838D02*
X7630D01*
X7480D01*
X7180D01*
X7930D02*
X8030D01*
X8380Y5988D02*
X8555D01*
X7080Y7088D02*
Y7188D01*
X7030Y9263D02*
Y9338D01*
X7855Y6138D02*
X7930D01*
X8755Y6113D02*
X8855D01*
X9580D02*
X9655D01*
X7755Y6238D02*
X7630D01*
X10730D02*
X10830D01*
X10230D02*
X10130D01*
X9580D02*
X9430D01*
X9330D01*
X8780D02*
X8630D01*
X7630D02*
X7580D01*
X8130Y6163D02*
X8630D01*
X8705D02*
X8130D01*
X8905D02*
X8930D01*
X9230D01*
X9530D01*
X9705D02*
X9730D01*
X10330D01*
X7280Y8013D02*
Y8088D01*
Y7788D02*
Y7713D01*
X7130Y9338D02*
Y9413D01*
Y9563D02*
Y9638D01*
X10230Y6313D02*
X10730D01*
X10130D02*
X9655D01*
X9330D02*
X8855D01*
X10930Y6413D02*
X11480D01*
X10880Y6463D02*
X10430D01*
X10330D02*
X9830D01*
X9505D02*
X9030D01*
X8730D02*
X8130D01*
X7430Y9338D02*
Y9413D01*
Y9563D02*
Y9638D01*
X7330Y7088D02*
Y7013D01*
Y9563D02*
Y9638D01*
X10330Y6538D02*
X10430D01*
X9830D02*
X9730D01*
X9505D01*
X9030D02*
X8930D01*
X8730D01*
X10830Y6613D02*
X10905D01*
X10830D02*
X10605D01*
X10955Y6663D02*
X11205D01*
X10605Y6613D02*
X10230D01*
X9430D01*
X8630D01*
X7330Y6688D02*
X7180D01*
X7780D02*
X7930D01*
X7705Y6613D02*
X7580D01*
X7505Y6688D02*
X7480D01*
X7530Y9338D02*
Y9413D01*
X7630Y9563D02*
Y9638D01*
Y9338D02*
Y9263D01*
X7530Y9638D02*
Y9713D01*
Y8088D02*
Y8013D01*
X7630Y7788D02*
Y7713D01*
X7805Y6863D02*
X8255D01*
X8305Y6788D02*
X8080D01*
X7555Y6763D02*
X7405D01*
X7830Y7788D02*
Y7863D01*
Y8088D02*
Y8163D01*
Y9563D02*
Y9638D01*
X9355Y6888D02*
X9580D01*
X9680D01*
X8580Y6988D02*
X8505D01*
X7330Y7013D02*
X7155D01*
X8580Y6988D02*
X8780D01*
X7605Y7063D02*
X7405D01*
X8030Y9338D02*
Y9413D01*
X7930Y9338D02*
Y9263D01*
X8005Y8088D02*
Y8013D01*
Y7788D02*
Y7713D01*
X9805Y7088D02*
X10030D01*
X8430D02*
X8330D01*
X8430D02*
X8580D01*
X10055Y7163D02*
X10180D01*
X10205Y7138D02*
X10280D01*
X9205Y7163D02*
X8955D01*
X8330Y7238D02*
X8230D01*
X7880Y7113D02*
X7655D01*
X7380Y7088D02*
X7330D01*
X8205Y9338D02*
Y9413D01*
X8130Y6538D02*
Y6463D01*
Y9638D02*
Y9713D01*
X8230Y8088D02*
Y8013D01*
X8130Y6238D02*
Y6163D01*
X8230Y7238D02*
Y7288D01*
X8205Y7313D02*
X8080D01*
X8430Y5738D02*
Y5688D01*
X8330Y6938D02*
Y7088D01*
X8430Y7788D02*
Y7863D01*
X8630Y6163D02*
Y6063D01*
X8555Y5988D02*
Y5863D01*
Y5788D01*
X8580Y9263D02*
Y9338D01*
X8630Y6613D02*
Y6538D01*
X8605Y8088D02*
Y8163D01*
Y7863D02*
Y7788D01*
X10830Y7713D02*
X11180D01*
X11480D01*
X7630D02*
X7280D01*
X9230D02*
X9530D01*
X9830D01*
X10180D01*
X10830D01*
X10755Y7863D02*
X11280D01*
Y7788D02*
X11380D01*
X10755D02*
X10680D01*
X10580D01*
Y7863D02*
X10105D01*
Y7788D02*
X10030D01*
X9930D01*
Y7863D02*
X9430D01*
Y7788D02*
X9330D01*
X8030Y7863D02*
X7830D01*
Y7788D02*
X7730D01*
X11505Y7738D02*
X11580D01*
X8430Y7863D02*
X8030D01*
X8005Y7713D02*
X7630D01*
X8430Y7863D02*
X8605D01*
X9330D01*
X9230Y7713D02*
X8855D01*
X8005D01*
X8780Y9638D02*
Y9713D01*
X8730Y6538D02*
Y6463D01*
X8855Y8013D02*
Y8088D01*
Y7788D02*
Y7713D01*
X10280Y8013D02*
X10755D01*
X10105D02*
X9630D01*
X9530D02*
X9030D01*
X8530D02*
X8230D01*
X7530D02*
X7280D01*
X8005D02*
X8230D01*
X8005D02*
X7530D01*
X8530D02*
X8855D01*
X9030Y6538D02*
Y6463D01*
X8980Y9263D02*
Y9338D01*
Y9563D02*
Y9638D01*
X8930Y6238D02*
Y6163D01*
X9030Y8013D02*
Y8088D01*
X10830D02*
X10980D01*
X11380D02*
X11455D01*
X10830D02*
X10755D01*
X10280D02*
X10180D01*
X10105D01*
X9630D02*
X9530D01*
X9930D02*
X10030D01*
X9930Y8163D02*
X9430D01*
X10030D02*
X10480D01*
X10680D01*
X11380D01*
X11505Y8138D02*
X11580D01*
X9430Y8163D02*
X8605D01*
X7830D01*
X8855Y8088D02*
X9030D01*
X9230Y7088D02*
Y7013D01*
Y7088D02*
Y7138D01*
X9080Y9563D02*
Y9638D01*
X9230Y7788D02*
Y7713D01*
Y6238D02*
Y6163D01*
X9430Y7788D02*
Y7863D01*
X9380Y9638D02*
Y9713D01*
X9330Y7863D02*
Y7788D01*
Y6313D02*
Y6238D01*
X9380Y9338D02*
Y9413D01*
X9280Y9338D02*
Y9263D01*
X9430Y8163D02*
Y8088D01*
Y6613D02*
Y6538D01*
X10605Y8563D02*
X10855D01*
X9580Y9563D02*
Y9638D01*
X9630Y8088D02*
Y8013D01*
X9480Y9338D02*
Y9413D01*
Y9638D02*
Y9713D01*
X9530Y8088D02*
Y8013D01*
X9505Y6538D02*
Y6463D01*
X9580Y9263D02*
Y9338D01*
X9530Y7788D02*
Y7713D01*
X9830Y6538D02*
Y6463D01*
X9755Y6963D02*
Y7038D01*
X9830Y7713D02*
Y7788D01*
X9730Y6238D02*
Y6163D01*
X9930Y5688D02*
Y5613D01*
Y7788D02*
Y7863D01*
Y8088D02*
Y8163D01*
X10030Y7138D02*
Y7088D01*
Y8088D02*
Y8163D01*
X9880Y9638D02*
Y9713D01*
Y9338D02*
Y9263D01*
X10180D02*
Y9088D01*
X10105Y8088D02*
Y8013D01*
Y7863D02*
Y7788D01*
X10130Y6313D02*
Y6238D01*
X10180Y9338D02*
Y9413D01*
Y9563D02*
Y9638D01*
Y7788D02*
Y7713D01*
X7630Y9263D02*
X7030D01*
X7630D02*
X7930D01*
X8580D01*
X9280D01*
X9480D01*
X9580D01*
X9880D01*
X10580D01*
X10880D01*
X10180D02*
X9880D01*
X10980Y9338D02*
X11080D01*
X10980Y9413D02*
X10480D01*
X10180D01*
X9380D01*
X8980D01*
X8205D01*
Y9338D02*
X8130D01*
X8030D01*
Y9413D02*
X7530D01*
Y9338D02*
X7430D01*
Y9413D02*
X7130D01*
X10280Y8088D02*
Y8013D01*
X10330Y6538D02*
Y6463D01*
X10230Y6313D02*
Y6238D01*
X10330D02*
Y6163D01*
X10230Y6538D02*
Y6613D01*
X9580Y9563D02*
X9080D01*
X7830D01*
X11830Y9538D02*
X11880D01*
X11805Y9563D02*
X11705D01*
X7330D02*
X7130D01*
X7430D02*
X7630D01*
X7830D01*
X9580D02*
X10180D01*
X10580D01*
Y8638D02*
Y8588D01*
Y9563D02*
Y9638D01*
Y7863D02*
Y7788D01*
X10430Y6538D02*
Y6463D01*
X10480Y9338D02*
Y9413D01*
X10580Y9338D02*
Y9263D01*
X10480Y9638D02*
Y9713D01*
X10980Y9638D02*
X11630D01*
X11080D02*
X10980D01*
X7130D02*
X7030D01*
X7330D02*
X7430D01*
X10580D02*
X10680D01*
X10480Y9713D02*
X10980D01*
X10480D02*
X9880D01*
X8980D01*
X8130D01*
X7530D01*
X10755Y8088D02*
Y8013D01*
Y7863D02*
Y7788D01*
X10630Y5688D02*
Y5613D01*
X10730Y6238D02*
Y6313D01*
X10680Y8088D02*
Y8163D01*
X10980Y9338D02*
Y9413D01*
Y9638D02*
Y9713D01*
X10880Y8638D02*
Y8588D01*
Y9263D02*
Y9338D01*
X10830Y6613D02*
Y6538D01*
Y7713D02*
Y7788D01*
X11180D02*
Y7713D01*
X11380Y8088D02*
Y8163D01*
X11280Y7863D02*
Y7788D01*
X11480Y6538D02*
Y6413D01*
X11780Y8888D02*
Y9363D01*
X11880Y9463D02*
Y9538D01*
X11655Y9788D02*
X11656D01*
X11655D02*
X11655Y9778D01*
X11657Y9768D01*
X11659Y9758D01*
X11661Y9748D01*
X11665Y9739D01*
X11669Y9730D01*
X11674Y9721D01*
X11680Y9713D01*
X11686Y9705D01*
X11693Y9698D01*
X11701Y9691D01*
X11709Y9685D01*
X11718Y9680D01*
X11726Y9675D01*
X11736Y9671D01*
X11745Y9668D01*
X11755Y9666D01*
X11765Y9664D01*
X11775Y9663D01*
X11785D01*
X11795Y9664D01*
X11805Y9666D01*
X11815Y9668D01*
X11824Y9671D01*
X11834Y9675D01*
X11842Y9680D01*
X11851Y9685D01*
X11859Y9691D01*
X11867Y9698D01*
X11874Y9705D01*
X11880Y9713D01*
X11886Y9721D01*
X11891Y9730D01*
X11895Y9739D01*
X11899Y9748D01*
X11901Y9758D01*
X11903Y9768D01*
X11905Y9778D01*
X11905Y9788D01*
X11906D01*
X11905D02*
X11905Y9798D01*
X11903Y9808D01*
X11901Y9818D01*
X11899Y9828D01*
X11895Y9837D01*
X11891Y9846D01*
X11886Y9855D01*
X11880Y9863D01*
X11874Y9871D01*
X11867Y9878D01*
X11859Y9885D01*
X11851Y9891D01*
X11842Y9896D01*
X11834Y9901D01*
X11824Y9905D01*
X11815Y9908D01*
X11805Y9910D01*
X11795Y9912D01*
X11785Y9913D01*
X11775D01*
X11765Y9912D01*
X11755Y9910D01*
X11745Y9908D01*
X11736Y9905D01*
X11726Y9901D01*
X11718Y9896D01*
X11709Y9891D01*
X11701Y9885D01*
X11693Y9878D01*
X11686Y9871D01*
X11680Y9863D01*
X11674Y9855D01*
X11669Y9846D01*
X11665Y9837D01*
X11661Y9828D01*
X11659Y9818D01*
X11657Y9808D01*
X11655Y9798D01*
X11655Y9788D01*
X11703D02*
X11704D01*
X11703D02*
X11704Y9779D01*
X11705Y9770D01*
X11708Y9762D01*
X11711Y9753D01*
X11716Y9746D01*
X11721Y9739D01*
X11727Y9732D01*
X11734Y9726D01*
X11742Y9721D01*
X11750Y9717D01*
X11758Y9714D01*
X11767Y9712D01*
X11776Y9711D01*
X11784D01*
X11793Y9712D01*
X11802Y9714D01*
X11810Y9717D01*
X11818Y9721D01*
X11826Y9726D01*
X11833Y9732D01*
X11839Y9739D01*
X11844Y9746D01*
X11849Y9753D01*
X11852Y9762D01*
X11855Y9770D01*
X11856Y9779D01*
X11857Y9788D01*
X11858D01*
X11857D02*
X11856Y9797D01*
X11855Y9806D01*
X11852Y9814D01*
X11849Y9823D01*
X11844Y9830D01*
X11839Y9837D01*
X11833Y9844D01*
X11826Y9850D01*
X11818Y9855D01*
X11810Y9859D01*
X11802Y9862D01*
X11793Y9864D01*
X11784Y9865D01*
X11776D01*
X11767Y9864D01*
X11758Y9862D01*
X11750Y9859D01*
X11742Y9855D01*
X11734Y9850D01*
X11727Y9844D01*
X11721Y9837D01*
X11716Y9830D01*
X11711Y9823D01*
X11708Y9814D01*
X11705Y9806D01*
X11704Y9797D01*
X11703Y9788D01*
X11751D02*
X11752D01*
X11751D02*
X11752Y9782D01*
X11754Y9776D01*
X11757Y9771D01*
X11761Y9766D01*
X11766Y9763D01*
X11771Y9760D01*
X11777Y9759D01*
X11783D01*
X11789Y9760D01*
X11794Y9763D01*
X11799Y9766D01*
X11803Y9771D01*
X11806Y9776D01*
X11808Y9782D01*
X11809Y9788D01*
X11810D01*
X11809D02*
X11808Y9794D01*
X11806Y9800D01*
X11803Y9805D01*
X11799Y9810D01*
X11794Y9813D01*
X11789Y9816D01*
X11783Y9817D01*
X11777D01*
X11771Y9816D01*
X11766Y9813D01*
X11761Y9810D01*
X11757Y9805D01*
X11754Y9800D01*
X11752Y9794D01*
X11751Y9788D01*
X11780D02*
D03*
X11655Y5788D02*
X11656D01*
X11655D02*
X11655Y5778D01*
X11657Y5768D01*
X11659Y5758D01*
X11661Y5748D01*
X11665Y5739D01*
X11669Y5730D01*
X11674Y5721D01*
X11680Y5713D01*
X11686Y5705D01*
X11693Y5698D01*
X11701Y5691D01*
X11709Y5685D01*
X11718Y5680D01*
X11726Y5675D01*
X11736Y5671D01*
X11745Y5668D01*
X11755Y5666D01*
X11765Y5664D01*
X11775Y5663D01*
X11785D01*
X11795Y5664D01*
X11805Y5666D01*
X11815Y5668D01*
X11824Y5671D01*
X11834Y5675D01*
X11842Y5680D01*
X11851Y5685D01*
X11859Y5691D01*
X11867Y5698D01*
X11874Y5705D01*
X11880Y5713D01*
X11886Y5721D01*
X11891Y5730D01*
X11895Y5739D01*
X11899Y5748D01*
X11901Y5758D01*
X11903Y5768D01*
X11905Y5778D01*
X11905Y5788D01*
X11906D01*
X11905D02*
X11905Y5798D01*
X11903Y5808D01*
X11901Y5818D01*
X11899Y5828D01*
X11895Y5837D01*
X11891Y5846D01*
X11886Y5855D01*
X11880Y5863D01*
X11874Y5871D01*
X11867Y5878D01*
X11859Y5885D01*
X11851Y5891D01*
X11842Y5896D01*
X11834Y5901D01*
X11824Y5905D01*
X11815Y5908D01*
X11805Y5910D01*
X11795Y5912D01*
X11785Y5913D01*
X11775D01*
X11765Y5912D01*
X11755Y5910D01*
X11745Y5908D01*
X11736Y5905D01*
X11726Y5901D01*
X11718Y5896D01*
X11709Y5891D01*
X11701Y5885D01*
X11693Y5878D01*
X11686Y5871D01*
X11680Y5863D01*
X11674Y5855D01*
X11669Y5846D01*
X11665Y5837D01*
X11661Y5828D01*
X11659Y5818D01*
X11657Y5808D01*
X11655Y5798D01*
X11655Y5788D01*
X11703D02*
X11704D01*
X11703D02*
X11704Y5779D01*
X11705Y5770D01*
X11708Y5762D01*
X11711Y5753D01*
X11716Y5746D01*
X11721Y5739D01*
X11727Y5732D01*
X11734Y5726D01*
X11742Y5721D01*
X11750Y5717D01*
X11758Y5714D01*
X11767Y5712D01*
X11776Y5711D01*
X11784D01*
X11793Y5712D01*
X11802Y5714D01*
X11810Y5717D01*
X11818Y5721D01*
X11826Y5726D01*
X11833Y5732D01*
X11839Y5739D01*
X11844Y5746D01*
X11849Y5753D01*
X11852Y5762D01*
X11855Y5770D01*
X11856Y5779D01*
X11857Y5788D01*
X11858D01*
X11857D02*
X11856Y5797D01*
X11855Y5806D01*
X11852Y5814D01*
X11849Y5823D01*
X11844Y5830D01*
X11839Y5837D01*
X11833Y5844D01*
X11826Y5850D01*
X11818Y5855D01*
X11810Y5859D01*
X11802Y5862D01*
X11793Y5864D01*
X11784Y5865D01*
X11776D01*
X11767Y5864D01*
X11758Y5862D01*
X11750Y5859D01*
X11742Y5855D01*
X11734Y5850D01*
X11727Y5844D01*
X11721Y5837D01*
X11716Y5830D01*
X11711Y5823D01*
X11708Y5814D01*
X11705Y5806D01*
X11704Y5797D01*
X11703Y5788D01*
X11751D02*
X11752D01*
X11751D02*
X11752Y5782D01*
X11754Y5776D01*
X11757Y5771D01*
X11761Y5766D01*
X11766Y5763D01*
X11771Y5760D01*
X11777Y5759D01*
X11783D01*
X11789Y5760D01*
X11794Y5763D01*
X11799Y5766D01*
X11803Y5771D01*
X11806Y5776D01*
X11808Y5782D01*
X11809Y5788D01*
X11810D01*
X11809D02*
X11808Y5794D01*
X11806Y5800D01*
X11803Y5805D01*
X11799Y5810D01*
X11794Y5813D01*
X11789Y5816D01*
X11783Y5817D01*
X11777D01*
X11771Y5816D01*
X11766Y5813D01*
X11761Y5810D01*
X11757Y5805D01*
X11754Y5800D01*
X11752Y5794D01*
X11751Y5788D01*
X11780D02*
D03*
X6655Y9788D02*
X6656D01*
X6655D02*
X6655Y9778D01*
X6657Y9768D01*
X6659Y9758D01*
X6661Y9748D01*
X6665Y9739D01*
X6669Y9730D01*
X6674Y9721D01*
X6680Y9713D01*
X6686Y9705D01*
X6693Y9698D01*
X6701Y9691D01*
X6709Y9685D01*
X6718Y9680D01*
X6726Y9675D01*
X6736Y9671D01*
X6745Y9668D01*
X6755Y9666D01*
X6765Y9664D01*
X6775Y9663D01*
X6785D01*
X6795Y9664D01*
X6805Y9666D01*
X6815Y9668D01*
X6824Y9671D01*
X6834Y9675D01*
X6842Y9680D01*
X6851Y9685D01*
X6859Y9691D01*
X6867Y9698D01*
X6874Y9705D01*
X6880Y9713D01*
X6886Y9721D01*
X6891Y9730D01*
X6895Y9739D01*
X6899Y9748D01*
X6901Y9758D01*
X6903Y9768D01*
X6905Y9778D01*
X6905Y9788D01*
X6906D01*
X6905D02*
X6905Y9798D01*
X6903Y9808D01*
X6901Y9818D01*
X6899Y9828D01*
X6895Y9837D01*
X6891Y9846D01*
X6886Y9855D01*
X6880Y9863D01*
X6874Y9871D01*
X6867Y9878D01*
X6859Y9885D01*
X6851Y9891D01*
X6842Y9896D01*
X6834Y9901D01*
X6824Y9905D01*
X6815Y9908D01*
X6805Y9910D01*
X6795Y9912D01*
X6785Y9913D01*
X6775D01*
X6765Y9912D01*
X6755Y9910D01*
X6745Y9908D01*
X6736Y9905D01*
X6726Y9901D01*
X6718Y9896D01*
X6709Y9891D01*
X6701Y9885D01*
X6693Y9878D01*
X6686Y9871D01*
X6680Y9863D01*
X6674Y9855D01*
X6669Y9846D01*
X6665Y9837D01*
X6661Y9828D01*
X6659Y9818D01*
X6657Y9808D01*
X6655Y9798D01*
X6655Y9788D01*
X6703D02*
X6704D01*
X6703D02*
X6704Y9779D01*
X6705Y9770D01*
X6708Y9762D01*
X6711Y9753D01*
X6716Y9746D01*
X6721Y9739D01*
X6727Y9732D01*
X6734Y9726D01*
X6742Y9721D01*
X6750Y9717D01*
X6758Y9714D01*
X6767Y9712D01*
X6776Y9711D01*
X6784D01*
X6793Y9712D01*
X6802Y9714D01*
X6810Y9717D01*
X6818Y9721D01*
X6826Y9726D01*
X6833Y9732D01*
X6839Y9739D01*
X6844Y9746D01*
X6849Y9753D01*
X6852Y9762D01*
X6855Y9770D01*
X6856Y9779D01*
X6857Y9788D01*
X6858D01*
X6857D02*
X6856Y9797D01*
X6855Y9806D01*
X6852Y9814D01*
X6849Y9823D01*
X6844Y9830D01*
X6839Y9837D01*
X6833Y9844D01*
X6826Y9850D01*
X6818Y9855D01*
X6810Y9859D01*
X6802Y9862D01*
X6793Y9864D01*
X6784Y9865D01*
X6776D01*
X6767Y9864D01*
X6758Y9862D01*
X6750Y9859D01*
X6742Y9855D01*
X6734Y9850D01*
X6727Y9844D01*
X6721Y9837D01*
X6716Y9830D01*
X6711Y9823D01*
X6708Y9814D01*
X6705Y9806D01*
X6704Y9797D01*
X6703Y9788D01*
X6751D02*
X6752D01*
X6751D02*
X6752Y9782D01*
X6754Y9776D01*
X6757Y9771D01*
X6761Y9766D01*
X6766Y9763D01*
X6771Y9760D01*
X6777Y9759D01*
X6783D01*
X6789Y9760D01*
X6794Y9763D01*
X6799Y9766D01*
X6803Y9771D01*
X6806Y9776D01*
X6808Y9782D01*
X6809Y9788D01*
X6810D01*
X6809D02*
X6808Y9794D01*
X6806Y9800D01*
X6803Y9805D01*
X6799Y9810D01*
X6794Y9813D01*
X6789Y9816D01*
X6783Y9817D01*
X6777D01*
X6771Y9816D01*
X6766Y9813D01*
X6761Y9810D01*
X6757Y9805D01*
X6754Y9800D01*
X6752Y9794D01*
X6751Y9788D01*
X6780D02*
D03*
X6655Y5788D02*
X6656D01*
X6655D02*
X6655Y5778D01*
X6657Y5768D01*
X6659Y5758D01*
X6661Y5748D01*
X6665Y5739D01*
X6669Y5730D01*
X6674Y5721D01*
X6680Y5713D01*
X6686Y5705D01*
X6693Y5698D01*
X6701Y5691D01*
X6709Y5685D01*
X6718Y5680D01*
X6726Y5675D01*
X6736Y5671D01*
X6745Y5668D01*
X6755Y5666D01*
X6765Y5664D01*
X6775Y5663D01*
X6785D01*
X6795Y5664D01*
X6805Y5666D01*
X6815Y5668D01*
X6824Y5671D01*
X6834Y5675D01*
X6842Y5680D01*
X6851Y5685D01*
X6859Y5691D01*
X6867Y5698D01*
X6874Y5705D01*
X6880Y5713D01*
X6886Y5721D01*
X6891Y5730D01*
X6895Y5739D01*
X6899Y5748D01*
X6901Y5758D01*
X6903Y5768D01*
X6905Y5778D01*
X6905Y5788D01*
X6906D01*
X6905D02*
X6905Y5798D01*
X6903Y5808D01*
X6901Y5818D01*
X6899Y5828D01*
X6895Y5837D01*
X6891Y5846D01*
X6886Y5855D01*
X6880Y5863D01*
X6874Y5871D01*
X6867Y5878D01*
X6859Y5885D01*
X6851Y5891D01*
X6842Y5896D01*
X6834Y5901D01*
X6824Y5905D01*
X6815Y5908D01*
X6805Y5910D01*
X6795Y5912D01*
X6785Y5913D01*
X6775D01*
X6765Y5912D01*
X6755Y5910D01*
X6745Y5908D01*
X6736Y5905D01*
X6726Y5901D01*
X6718Y5896D01*
X6709Y5891D01*
X6701Y5885D01*
X6693Y5878D01*
X6686Y5871D01*
X6680Y5863D01*
X6674Y5855D01*
X6669Y5846D01*
X6665Y5837D01*
X6661Y5828D01*
X6659Y5818D01*
X6657Y5808D01*
X6655Y5798D01*
X6655Y5788D01*
X6703D02*
X6704D01*
X6703D02*
X6704Y5779D01*
X6705Y5770D01*
X6708Y5762D01*
X6711Y5753D01*
X6716Y5746D01*
X6721Y5739D01*
X6727Y5732D01*
X6734Y5726D01*
X6742Y5721D01*
X6750Y5717D01*
X6758Y5714D01*
X6767Y5712D01*
X6776Y5711D01*
X6784D01*
X6793Y5712D01*
X6802Y5714D01*
X6810Y5717D01*
X6818Y5721D01*
X6826Y5726D01*
X6833Y5732D01*
X6839Y5739D01*
X6844Y5746D01*
X6849Y5753D01*
X6852Y5762D01*
X6855Y5770D01*
X6856Y5779D01*
X6857Y5788D01*
X6858D01*
X6857D02*
X6856Y5797D01*
X6855Y5806D01*
X6852Y5814D01*
X6849Y5823D01*
X6844Y5830D01*
X6839Y5837D01*
X6833Y5844D01*
X6826Y5850D01*
X6818Y5855D01*
X6810Y5859D01*
X6802Y5862D01*
X6793Y5864D01*
X6784Y5865D01*
X6776D01*
X6767Y5864D01*
X6758Y5862D01*
X6750Y5859D01*
X6742Y5855D01*
X6734Y5850D01*
X6727Y5844D01*
X6721Y5837D01*
X6716Y5830D01*
X6711Y5823D01*
X6708Y5814D01*
X6705Y5806D01*
X6704Y5797D01*
X6703Y5788D01*
X6751D02*
X6752D01*
X6751D02*
X6752Y5782D01*
X6754Y5776D01*
X6757Y5771D01*
X6761Y5766D01*
X6766Y5763D01*
X6771Y5760D01*
X6777Y5759D01*
X6783D01*
X6789Y5760D01*
X6794Y5763D01*
X6799Y5766D01*
X6803Y5771D01*
X6806Y5776D01*
X6808Y5782D01*
X6809Y5788D01*
X6810D01*
X6809D02*
X6808Y5794D01*
X6806Y5800D01*
X6803Y5805D01*
X6799Y5810D01*
X6794Y5813D01*
X6789Y5816D01*
X6783Y5817D01*
X6777D01*
X6771Y5816D01*
X6766Y5813D01*
X6761Y5810D01*
X6757Y5805D01*
X6754Y5800D01*
X6752Y5794D01*
X6751Y5788D01*
X6780D02*
D03*
X7680Y9138D02*
D03*
X7630Y9088D02*
D03*
X7680Y9038D02*
D03*
D23*
X10130Y8388D02*
D03*
Y8488D02*
D03*
X10180Y8438D02*
D03*
X8880Y6938D02*
D03*
X8980D02*
D03*
X8930Y6888D02*
D03*
X8880Y6788D02*
D03*
X8980D02*
D03*
X8930Y6738D02*
D03*
X10130Y7388D02*
D03*
Y7488D02*
D03*
X10180Y7438D02*
D03*
X9330Y5988D02*
D03*
X9430D02*
D03*
X9380Y5938D02*
D03*
X9330Y5838D02*
D03*
X9430D02*
D03*
X9380Y5788D02*
D03*
X7230Y7088D02*
D03*
X7280Y7138D02*
D03*
X7330Y7088D02*
D03*
D26*
X11430Y7013D02*
D03*
X10955Y9263D02*
D03*
X10780Y8388D02*
D03*
Y7938D02*
D03*
X10655Y8913D02*
D03*
X10580Y9088D02*
D03*
X10480Y9038D02*
D03*
X10555Y7413D02*
D03*
X10480Y7563D02*
D03*
X10530Y6888D02*
D03*
X10355Y9088D02*
D03*
X10080Y9488D02*
D03*
X10105Y8238D02*
D03*
Y7613D02*
D03*
X9980Y6938D02*
D03*
X9930Y6688D02*
D03*
X9830Y6388D02*
D03*
X9580Y8713D02*
D03*
X9530Y6788D02*
D03*
X9380Y7338D02*
D03*
X8880Y9838D02*
D03*
X9005Y8688D02*
D03*
X8880Y8988D02*
D03*
X8980Y7388D02*
D03*
X8780Y9488D02*
D03*
Y9138D02*
D03*
X8580Y9888D02*
D03*
X8480Y8488D02*
D03*
X8630Y9063D02*
D03*
X8480Y8963D02*
D03*
X8380Y9788D02*
D03*
X8280Y9488D02*
D03*
X8105Y7063D02*
D03*
X8030Y7138D02*
D03*
X8055Y5988D02*
D03*
X8005Y6088D02*
D03*
X7830Y9488D02*
D03*
X7780Y6438D02*
D03*
X7805Y7263D02*
D03*
X7780Y6038D02*
D03*
X7530Y7513D02*
D03*
X7430Y6913D02*
D03*
X7405Y6138D02*
D03*
X7330Y6538D02*
D03*
Y6038D02*
D03*
X7105Y6538D02*
D03*
X6955Y7938D02*
D03*
X6830Y8438D02*
D03*
X8330Y7638D02*
D03*
Y7238D02*
D03*
X11880Y9338D02*
D03*
X11380D02*
D03*
X11680Y9238D02*
D03*
X11880Y9538D02*
D03*
X11380D02*
D03*
X11680Y9438D02*
D03*
X11880Y9138D02*
D03*
X11380D02*
D03*
X11680Y9038D02*
D03*
X11880Y6888D02*
D03*
X11380D02*
D03*
X11680Y6788D02*
D03*
X10580Y9638D02*
D03*
Y9338D02*
D03*
X10480D02*
D03*
Y9638D02*
D03*
X11080Y9338D02*
D03*
Y9638D02*
D03*
X10780Y9338D02*
D03*
X10880D02*
D03*
X10980D02*
D03*
Y9638D02*
D03*
X10880D02*
D03*
X10780D02*
D03*
X10680D02*
D03*
X11080Y9788D02*
D03*
X10680D02*
D03*
X10480Y8238D02*
D03*
Y8638D02*
D03*
X10580D02*
D03*
Y8238D02*
D03*
X10680Y8638D02*
D03*
Y8238D02*
D03*
X10980Y8788D02*
D03*
Y9188D02*
D03*
X10780Y8788D02*
D03*
Y9188D02*
D03*
X11180Y8788D02*
D03*
Y9188D02*
D03*
X11080Y8788D02*
D03*
Y9188D02*
D03*
X10880Y8788D02*
D03*
Y9188D02*
D03*
X10680Y8788D02*
D03*
Y9188D02*
D03*
X10580D02*
D03*
Y8788D02*
D03*
X10480Y9188D02*
D03*
Y8788D02*
D03*
X11380Y8888D02*
D03*
X11780D02*
D03*
X10380Y7788D02*
D03*
X10480D02*
D03*
X10580D02*
D03*
Y8088D02*
D03*
X10480D02*
D03*
X10380D02*
D03*
X10280D02*
D03*
X10680Y7788D02*
D03*
Y8088D02*
D03*
X10830D02*
D03*
Y7788D02*
D03*
X11380D02*
D03*
Y8088D02*
D03*
X11680Y8638D02*
D03*
X11580Y8538D02*
D03*
X11680D02*
D03*
X11580Y8438D02*
D03*
X11680D02*
D03*
X11580Y8338D02*
D03*
X11680D02*
D03*
X11580Y8238D02*
D03*
X11680D02*
D03*
X11580Y8138D02*
D03*
X11680D02*
D03*
X11580Y8038D02*
D03*
X11680D02*
D03*
X11580Y7938D02*
D03*
X11680D02*
D03*
X11580Y7838D02*
D03*
X11680D02*
D03*
X11580Y7738D02*
D03*
X11680D02*
D03*
X11580Y7638D02*
D03*
X11680D02*
D03*
X11580Y7538D02*
D03*
X11680D02*
D03*
X11580Y7438D02*
D03*
X11680D02*
D03*
X10380Y8638D02*
D03*
Y8238D02*
D03*
X10280D02*
D03*
Y8638D02*
D03*
X10980Y8088D02*
D03*
X11080D02*
D03*
X11180D02*
D03*
X11280D02*
D03*
Y7788D02*
D03*
X11180D02*
D03*
X11080D02*
D03*
X11280Y8638D02*
D03*
Y8238D02*
D03*
X11180Y8638D02*
D03*
Y8238D02*
D03*
X11080Y8638D02*
D03*
Y8238D02*
D03*
X10980D02*
D03*
Y8638D02*
D03*
X10880Y8238D02*
D03*
Y8638D02*
D03*
X10780D02*
D03*
Y8238D02*
D03*
X10230Y6238D02*
D03*
Y6538D02*
D03*
X10730Y7088D02*
D03*
Y6688D02*
D03*
X10630D02*
D03*
Y7088D02*
D03*
X10530D02*
D03*
Y6688D02*
D03*
X10830D02*
D03*
Y7088D02*
D03*
X10330Y6538D02*
D03*
Y6238D02*
D03*
X10830D02*
D03*
Y6538D02*
D03*
X10530Y6238D02*
D03*
X10630D02*
D03*
X10730D02*
D03*
Y6538D02*
D03*
X10630D02*
D03*
X10530D02*
D03*
X10430D02*
D03*
X10280Y7638D02*
D03*
Y7238D02*
D03*
X10380Y7638D02*
D03*
Y7238D02*
D03*
X11030D02*
D03*
Y7638D02*
D03*
X11130Y7238D02*
D03*
Y7638D02*
D03*
X11230Y7238D02*
D03*
Y7638D02*
D03*
X11330Y7238D02*
D03*
Y7638D02*
D03*
X10930Y7238D02*
D03*
Y7638D02*
D03*
X10630Y5688D02*
D03*
Y6088D02*
D03*
X10430Y5688D02*
D03*
Y6088D02*
D03*
X10530Y5688D02*
D03*
Y6088D02*
D03*
X9180Y9888D02*
D03*
X9280D02*
D03*
X8680Y9788D02*
D03*
X9080D02*
D03*
X9580Y9638D02*
D03*
Y9338D02*
D03*
X9780D02*
D03*
X9880D02*
D03*
X9980D02*
D03*
X10080D02*
D03*
X10180D02*
D03*
X10280D02*
D03*
X10380D02*
D03*
Y9638D02*
D03*
X10280D02*
D03*
X10180D02*
D03*
X10080D02*
D03*
X9980D02*
D03*
X9880D02*
D03*
X9780D02*
D03*
X9680D02*
D03*
X9480Y9338D02*
D03*
Y9638D02*
D03*
X8980D02*
D03*
Y9338D02*
D03*
X9080Y9638D02*
D03*
X9180D02*
D03*
X9280D02*
D03*
X9380D02*
D03*
Y9338D02*
D03*
X9280D02*
D03*
X9180D02*
D03*
X9080Y8888D02*
D03*
Y9088D02*
D03*
X9280Y8938D02*
D03*
Y9038D02*
D03*
X9180Y8788D02*
D03*
Y9188D02*
D03*
X8880D02*
D03*
Y8788D02*
D03*
X8680D02*
D03*
Y9188D02*
D03*
X10180Y9088D02*
D03*
Y8938D02*
D03*
X10080Y9188D02*
D03*
Y8788D02*
D03*
X9980D02*
D03*
Y9188D02*
D03*
X10180Y8088D02*
D03*
Y7788D02*
D03*
X10030D02*
D03*
Y8088D02*
D03*
X9630D02*
D03*
X9730D02*
D03*
X9830D02*
D03*
X9930D02*
D03*
Y7788D02*
D03*
X9830D02*
D03*
X9730D02*
D03*
X9530Y8088D02*
D03*
Y7788D02*
D03*
X9930Y8238D02*
D03*
Y8638D02*
D03*
X9830D02*
D03*
Y8238D02*
D03*
X9730Y8638D02*
D03*
Y8238D02*
D03*
X9630Y8638D02*
D03*
Y8238D02*
D03*
X9530D02*
D03*
Y8638D02*
D03*
X9430Y7788D02*
D03*
Y8088D02*
D03*
X9030D02*
D03*
X9130D02*
D03*
X9230D02*
D03*
X9330D02*
D03*
Y7788D02*
D03*
X9230D02*
D03*
X9130D02*
D03*
X10030Y8638D02*
D03*
Y8238D02*
D03*
X8855Y8088D02*
D03*
Y7788D02*
D03*
X8780Y7238D02*
D03*
Y7638D02*
D03*
X9230Y6688D02*
D03*
Y7088D02*
D03*
X9580Y6988D02*
D03*
Y6888D02*
D03*
X9130Y6688D02*
D03*
Y7088D02*
D03*
X9430Y6688D02*
D03*
Y7088D02*
D03*
X9330Y6688D02*
D03*
Y7088D02*
D03*
X10030D02*
D03*
Y6688D02*
D03*
X10130D02*
D03*
Y7088D02*
D03*
X9730Y6538D02*
D03*
Y6238D02*
D03*
X9830Y6538D02*
D03*
X9930D02*
D03*
X10030D02*
D03*
X10130D02*
D03*
Y6238D02*
D03*
X10030D02*
D03*
X9930D02*
D03*
Y7238D02*
D03*
Y7638D02*
D03*
X9830D02*
D03*
Y7238D02*
D03*
X9730Y7638D02*
D03*
Y7238D02*
D03*
X9630D02*
D03*
Y7638D02*
D03*
X9530D02*
D03*
Y7238D02*
D03*
X9330Y7638D02*
D03*
Y7238D02*
D03*
X9230Y7638D02*
D03*
Y7238D02*
D03*
X9030D02*
D03*
Y7638D02*
D03*
X9130Y7238D02*
D03*
Y7638D02*
D03*
Y6238D02*
D03*
X9230D02*
D03*
X9330D02*
D03*
Y6538D02*
D03*
X9230D02*
D03*
X9130D02*
D03*
X9030D02*
D03*
X9430Y6238D02*
D03*
Y6538D02*
D03*
X8930D02*
D03*
Y6238D02*
D03*
X9780Y5938D02*
D03*
Y5838D02*
D03*
X9230Y6088D02*
D03*
Y5688D02*
D03*
X9130Y6088D02*
D03*
Y5688D02*
D03*
X9030D02*
D03*
Y6088D02*
D03*
X8930D02*
D03*
Y5688D02*
D03*
X9930D02*
D03*
Y6088D02*
D03*
X10030D02*
D03*
Y5688D02*
D03*
X9530Y5888D02*
D03*
X9630Y6188D02*
D03*
Y5688D02*
D03*
X8730Y5888D02*
D03*
X8830Y6188D02*
D03*
Y5688D02*
D03*
X7430Y9888D02*
D03*
X7630D02*
D03*
X7530Y9338D02*
D03*
Y9638D02*
D03*
X7630D02*
D03*
Y9338D02*
D03*
X8130D02*
D03*
Y9638D02*
D03*
X7230Y9338D02*
D03*
X7330D02*
D03*
X7430D02*
D03*
Y9638D02*
D03*
X7330D02*
D03*
X7230D02*
D03*
X7130D02*
D03*
X7830Y9338D02*
D03*
X7930D02*
D03*
X8030D02*
D03*
Y9638D02*
D03*
X7930D02*
D03*
X7830D02*
D03*
X7730D02*
D03*
X8380Y9338D02*
D03*
X8480D02*
D03*
X8580D02*
D03*
X8680D02*
D03*
X8780D02*
D03*
X8880D02*
D03*
Y9638D02*
D03*
X8780D02*
D03*
X8680D02*
D03*
X8580D02*
D03*
X8480D02*
D03*
X8380D02*
D03*
X8280D02*
D03*
X8330Y8638D02*
D03*
Y8238D02*
D03*
X8430Y8638D02*
D03*
Y8238D02*
D03*
X8330Y7788D02*
D03*
X8430D02*
D03*
Y8088D02*
D03*
X8330D02*
D03*
X8230D02*
D03*
X8130D02*
D03*
X8230Y7788D02*
D03*
X7430Y9038D02*
D03*
Y8938D02*
D03*
X7530Y9188D02*
D03*
Y8788D02*
D03*
X7330D02*
D03*
Y9188D02*
D03*
X7230Y8788D02*
D03*
Y9188D02*
D03*
X8030D02*
D03*
Y8788D02*
D03*
X8380Y9188D02*
D03*
Y8788D02*
D03*
X7830Y9188D02*
D03*
Y8688D02*
D03*
Y7788D02*
D03*
Y8088D02*
D03*
X7530Y7788D02*
D03*
X7630D02*
D03*
X7730D02*
D03*
Y8088D02*
D03*
X7630D02*
D03*
X7530D02*
D03*
X7430D02*
D03*
X7280D02*
D03*
Y7788D02*
D03*
X8580Y8788D02*
D03*
Y9188D02*
D03*
X8005Y8088D02*
D03*
Y7788D02*
D03*
X8605D02*
D03*
Y8088D02*
D03*
X8130Y7238D02*
D03*
Y7638D02*
D03*
X8230Y7238D02*
D03*
Y7638D02*
D03*
X8530Y6788D02*
D03*
Y6688D02*
D03*
X8030Y5838D02*
D03*
Y6238D02*
D03*
X8580Y6988D02*
D03*
Y7088D02*
D03*
X8080Y6688D02*
D03*
Y6788D02*
D03*
X8030Y6988D02*
D03*
X7630D02*
D03*
X7530Y6838D02*
D03*
X7130D02*
D03*
X7830Y7488D02*
D03*
Y7388D02*
D03*
X7430Y7638D02*
D03*
Y7238D02*
D03*
X7730Y7638D02*
D03*
Y7238D02*
D03*
X7630Y7638D02*
D03*
Y7238D02*
D03*
X8430Y7088D02*
D03*
Y6688D02*
D03*
X8330Y7088D02*
D03*
Y6688D02*
D03*
X8230Y7088D02*
D03*
Y6688D02*
D03*
Y6538D02*
D03*
X8330D02*
D03*
X8430D02*
D03*
X8530D02*
D03*
Y6238D02*
D03*
X8430D02*
D03*
X8330D02*
D03*
X8630D02*
D03*
Y6538D02*
D03*
X8130D02*
D03*
Y6238D02*
D03*
X7930Y6688D02*
D03*
X7630D02*
D03*
Y6438D02*
D03*
Y6338D02*
D03*
Y6238D02*
D03*
Y6138D02*
D03*
Y6038D02*
D03*
Y5938D02*
D03*
Y5838D02*
D03*
X7930D02*
D03*
Y5938D02*
D03*
Y6038D02*
D03*
Y6138D02*
D03*
Y6238D02*
D03*
Y6338D02*
D03*
Y6438D02*
D03*
Y6538D02*
D03*
X7180Y6438D02*
D03*
Y6338D02*
D03*
Y6238D02*
D03*
Y6138D02*
D03*
Y6038D02*
D03*
Y5938D02*
D03*
Y5838D02*
D03*
X7480D02*
D03*
Y5938D02*
D03*
Y6038D02*
D03*
Y6138D02*
D03*
Y6238D02*
D03*
Y6338D02*
D03*
Y6438D02*
D03*
Y6538D02*
D03*
X7180Y6688D02*
D03*
X7480D02*
D03*
X7530Y7638D02*
D03*
Y7238D02*
D03*
Y6938D02*
D03*
X7130D02*
D03*
X8330Y5838D02*
D03*
X8430D02*
D03*
X8380Y5988D02*
D03*
Y6088D02*
D03*
X8430Y5688D02*
D03*
X8330D02*
D03*
X8130Y6088D02*
D03*
Y5688D02*
D03*
X8230Y6088D02*
D03*
Y5688D02*
D03*
X8530Y6088D02*
D03*
Y5688D02*
D03*
X7930D02*
D03*
X7630D02*
D03*
X7480D02*
D03*
X7180D02*
D03*
X7030Y9638D02*
D03*
Y9338D02*
D03*
X6680Y8488D02*
D03*
X7180D02*
D03*
X6880Y8588D02*
D03*
X6680Y8238D02*
D03*
X7180D02*
D03*
X6880Y8338D02*
D03*
Y6188D02*
D03*
X6980Y6288D02*
D03*
X6880D02*
D03*
X6980Y6388D02*
D03*
X6880D02*
D03*
X6980Y6488D02*
D03*
X6880D02*
D03*
X6980Y6588D02*
D03*
X6880D02*
D03*
X6980Y6688D02*
D03*
X6880D02*
D03*
X6980Y6788D02*
D03*
X6880D02*
D03*
X6980Y6888D02*
D03*
X6880D02*
D03*
X7080Y7188D02*
D03*
X6680D02*
D03*
X6880Y7388D02*
D03*
X7180Y7288D02*
D03*
X6680D02*
D03*
X7080Y6338D02*
D03*
Y5938D02*
D03*
D30*
X11480Y6538D02*
D03*
X11012D02*
D03*
X11168D02*
D03*
X11324D02*
D03*
D35*
X10680Y9338D02*
D03*
X10280Y7788D02*
D03*
X11580Y8638D02*
D03*
X10980Y7788D02*
D03*
X10430Y6238D02*
D03*
X9680Y9338D02*
D03*
X9080D02*
D03*
X9630Y7788D02*
D03*
X9030D02*
D03*
X9830Y6238D02*
D03*
X9030D02*
D03*
X7130Y9338D02*
D03*
X7730D02*
D03*
X8280D02*
D03*
X8130Y7788D02*
D03*
X7430D02*
D03*
X8230Y6238D02*
D03*
X7630Y6538D02*
D03*
X7180D02*
D03*
X6980Y6188D02*
D03*
M02*
