*%FSLAX23Y23*%
*%MOIN*%
G01*
%ADD11C,0.006*%
%ADD12C,0.007*%
%ADD13C,0.008*%
%ADD14C,0.010*%
%ADD15C,0.012*%
%ADD16C,0.020*%
%ADD17C,0.032*%
%ADD18C,0.036*%
%ADD19C,0.050*%
%ADD20C,0.050*%
%ADD21C,0.052*%
%ADD22C,0.054*%
%ADD23C,0.055*%
%ADD24C,0.056*%
%ADD25C,0.059*%
%ADD26C,0.062*%
%ADD27C,0.066*%
%ADD28C,0.070*%
%ADD29C,0.090*%
%ADD30C,0.125*%
%ADD31C,0.129*%
%ADD32C,0.140*%
%ADD33C,0.160*%
%ADD34C,0.250*%
%ADD35C,0.250*%
%ADD36R,0.062X0.062*%
%ADD37R,0.066X0.066*%
D13*
X7256Y10255D02*
X7276D01*
X7266D01*
Y10315D01*
X7267D01*
X7266D02*
X7256Y10305D01*
X7306D02*
X7316Y10315D01*
X7336D01*
X7346Y10305D01*
Y10265D01*
X7336Y10255D01*
X7316D01*
X7306Y10265D01*
Y10305D01*
X7366D02*
X7376Y10315D01*
X7396D01*
X7406Y10305D01*
Y10265D01*
X7396Y10255D01*
X7376D01*
X7366Y10265D01*
Y10305D01*
X7426Y10285D02*
X7466D01*
X7486Y10255D02*
X7506D01*
X7496D01*
Y10315D01*
X7497D01*
X7496D02*
X7486Y10305D01*
X7536D02*
X7546Y10315D01*
X7566D01*
X7576Y10305D01*
Y10265D01*
X7566Y10255D01*
X7546D01*
X7536Y10265D01*
Y10305D01*
X7596D02*
X7606Y10315D01*
X7626D01*
X7636Y10305D01*
Y10265D01*
X7626Y10255D01*
X7606D01*
X7596Y10265D01*
Y10305D01*
X7656Y10255D02*
X7696D01*
X7656D02*
X7696Y10295D01*
Y10305D01*
X7686Y10315D01*
X7666D01*
X7656Y10305D01*
X6821Y6870D02*
X6831Y6860D01*
X6821Y6870D02*
X6801D01*
X6791Y6860D01*
Y6820D01*
X6801Y6810D01*
X6821D01*
X6831Y6820D01*
X6861Y6810D02*
X6881D01*
X6891Y6820D01*
Y6840D01*
X6881Y6850D01*
X6861D01*
X6851Y6840D01*
Y6820D01*
X6861Y6810D01*
X6911Y6790D02*
Y6850D01*
X6941D01*
X6951Y6840D01*
Y6820D01*
X6941Y6810D01*
X6911D01*
X6971Y6820D02*
Y6850D01*
Y6820D02*
X6981Y6810D01*
X7011D01*
Y6800D01*
X7001Y6790D01*
X6991D01*
X7011Y6810D02*
Y6850D01*
X7031D02*
Y6810D01*
Y6830D01*
X7041Y6840D01*
X7051Y6850D01*
X7061D01*
X7091Y6810D02*
X7111D01*
X7101D01*
Y6850D01*
X7091D01*
X7101Y6870D02*
X7102D01*
X7161Y6790D02*
X7171D01*
X7181Y6800D01*
Y6850D01*
X7151D01*
X7141Y6840D01*
Y6820D01*
X7151Y6810D01*
X7181D01*
X7201D02*
Y6870D01*
Y6840D02*
Y6810D01*
Y6840D02*
X7211Y6850D01*
X7231D01*
X7241Y6840D01*
Y6810D01*
X7271Y6850D02*
Y6860D01*
Y6850D02*
X7261D01*
X7281D01*
X7271D01*
Y6820D01*
X7281Y6810D01*
X7371Y6830D02*
X7391Y6810D01*
X7371Y6830D02*
Y6850D01*
X7391Y6870D01*
X7431Y6850D02*
X7461D01*
X7431D02*
X7421Y6840D01*
Y6820D01*
X7431Y6810D01*
X7461D01*
X7481D02*
X7501Y6830D01*
Y6850D01*
X7481Y6870D01*
X7591Y6810D02*
X7631D01*
X7591D02*
X7631Y6850D01*
Y6860D01*
X7621Y6870D01*
X7601D01*
X7591Y6860D01*
X7651D02*
X7661Y6870D01*
X7681D01*
X7691Y6860D01*
Y6820D01*
X7681Y6810D01*
X7661D01*
X7651Y6820D01*
Y6860D01*
X7711D02*
X7721Y6870D01*
X7741D01*
X7751Y6860D01*
Y6820D01*
X7741Y6810D01*
X7721D01*
X7711Y6820D01*
Y6860D01*
X7771Y6810D02*
X7791D01*
X7781D01*
Y6870D01*
X7782D01*
X7781D02*
X7771Y6860D01*
X7901Y6870D02*
X7921D01*
X7911D02*
X7901D01*
X7911D02*
Y6820D01*
X7901Y6810D01*
X7891D01*
X7881Y6820D01*
X7941Y6810D02*
X7961D01*
X7951D01*
Y6850D01*
X7941D01*
X7951Y6870D02*
X7952D01*
X7991Y6850D02*
Y6810D01*
Y6850D02*
X8001D01*
X8011Y6840D01*
Y6810D01*
Y6840D01*
X8021Y6850D01*
X8031Y6840D01*
Y6810D01*
X8111D02*
Y6870D01*
X8141D01*
X8151Y6860D01*
Y6840D01*
X8141Y6830D01*
X8111D01*
X8181Y6850D02*
X8201D01*
X8211Y6840D01*
Y6810D01*
X8181D01*
X8171Y6820D01*
X8181Y6830D01*
X8211D01*
X8241Y6850D02*
Y6860D01*
Y6850D02*
X8231D01*
X8251D01*
X8241D01*
Y6820D01*
X8251Y6810D01*
X8291Y6850D02*
X8321D01*
X8291D02*
X8281Y6840D01*
Y6820D01*
X8291Y6810D01*
X8321D01*
X8340D02*
Y6870D01*
Y6840D02*
Y6810D01*
Y6840D02*
X8350Y6850D01*
X8370D01*
X8380Y6840D01*
Y6810D01*
X8410D02*
X8430D01*
X8410D02*
X8400Y6820D01*
Y6840D01*
X8410Y6850D01*
X8430D01*
X8440Y6840D01*
Y6830D01*
X8400D01*
X8460Y6810D02*
X8480D01*
X8470D01*
Y6870D01*
X8460D01*
X8510Y6810D02*
X8530D01*
X8520D01*
Y6870D01*
X8510D01*
D14*
X12506Y6858D02*
Y6825D01*
Y6842D02*
Y6858D01*
Y6842D02*
X12406D01*
X12407D01*
X12406D02*
X12423Y6825D01*
Y6908D02*
X12406Y6925D01*
Y6958D01*
X12423Y6975D01*
X12489D01*
X12506Y6958D01*
Y6925D01*
X12489Y6908D01*
X12423D01*
Y7008D02*
X12406Y7025D01*
Y7058D01*
X12423Y7075D01*
X12489D01*
X12506Y7058D01*
Y7025D01*
X12489Y7008D01*
X12423D01*
X12456Y7108D02*
Y7175D01*
X12506Y7208D02*
Y7242D01*
Y7225D01*
X12406D01*
X12407D01*
X12406D02*
X12423Y7208D01*
Y7292D02*
X12406Y7308D01*
Y7342D01*
X12423Y7358D01*
X12489D01*
X12506Y7342D01*
Y7308D01*
X12489Y7292D01*
X12423D01*
Y7391D02*
X12406Y7408D01*
Y7441D01*
X12423Y7458D01*
X12489D01*
X12506Y7441D01*
Y7408D01*
X12489Y7391D01*
X12423D01*
X12506Y7491D02*
Y7558D01*
Y7491D02*
X12439Y7558D01*
X12423D01*
X12406Y7541D01*
Y7508D01*
X12423Y7491D01*
X12456Y7591D02*
Y7658D01*
X12506Y7691D02*
Y7725D01*
Y7708D01*
X12406D01*
X12407D01*
X12406D02*
X12423Y7691D01*
X12406Y7925D02*
X12423Y7941D01*
X12406Y7925D02*
Y7891D01*
X12423Y7875D01*
X12489D01*
X12506Y7891D01*
Y7925D01*
X12489Y7941D01*
X12506Y7991D02*
Y8025D01*
X12489Y8041D01*
X12456D01*
X12439Y8025D01*
Y7991D01*
X12456Y7975D01*
X12489D01*
X12506Y7991D01*
Y8075D02*
X12439D01*
Y8091D01*
X12456Y8108D01*
X12506D01*
X12456D01*
X12439Y8125D01*
X12456Y8141D01*
X12506D01*
X12539Y8175D02*
X12439D01*
Y8225D01*
X12456Y8241D01*
X12489D01*
X12506Y8225D01*
Y8175D01*
Y8291D02*
Y8325D01*
X12489Y8341D01*
X12456D01*
X12439Y8325D01*
Y8291D01*
X12456Y8275D01*
X12489D01*
X12506Y8291D01*
Y8374D02*
X12439D01*
Y8424D01*
X12456Y8441D01*
X12506D01*
Y8491D02*
Y8524D01*
Y8491D02*
X12489Y8474D01*
X12456D01*
X12439Y8491D01*
Y8524D01*
X12456Y8541D01*
X12473D01*
Y8474D01*
X12439Y8574D02*
X12506D01*
X12439D02*
Y8624D01*
X12456Y8641D01*
X12506D01*
X12439Y8691D02*
X12423D01*
X12439D02*
Y8674D01*
Y8708D01*
Y8691D01*
X12489D01*
X12506Y8708D01*
X12406Y8908D02*
X12423Y8924D01*
X12406Y8908D02*
Y8874D01*
X12423Y8858D01*
X12439D01*
X12456Y8874D01*
Y8908D01*
X12473Y8924D01*
X12489D01*
X12506Y8908D01*
Y8874D01*
X12489Y8858D01*
X12506Y8958D02*
Y8991D01*
Y8974D01*
X12439D01*
Y8958D01*
X12406Y8974D02*
X12407D01*
X12406Y9108D02*
X12506D01*
Y9058D01*
X12489Y9041D01*
X12456D01*
X12439Y9058D01*
Y9108D01*
X12506Y9158D02*
Y9191D01*
Y9158D02*
X12489Y9141D01*
X12456D01*
X12439Y9158D01*
Y9191D01*
X12456Y9208D01*
X12473D01*
Y9141D01*
X11756Y10375D02*
X6756D01*
Y5875D02*
X11756D01*
Y10375D01*
X6756D02*
Y5875D01*
D15*
X10256Y6250D02*
X10381Y6375D01*
X10831Y7825D02*
X10956Y7950D01*
X9781Y10175D02*
X9656Y10300D01*
X11131Y8200D02*
X11256Y8075D01*
X11356D02*
X11181Y8250D01*
X11131Y8400D02*
X11456Y8075D01*
X9356Y9825D02*
X9231Y9950D01*
X8606Y9825D02*
X8481Y9950D01*
X10681D02*
X10806Y9825D01*
X7106Y8425D02*
Y8325D01*
X7156Y8125D02*
X7106Y8075D01*
Y8425D02*
X7206Y8525D01*
X7156Y9625D02*
Y9775D01*
X7381Y8400D02*
X7306Y8325D01*
Y7975D02*
X7256Y7925D01*
X7306Y8075D02*
X7256Y8125D01*
X7206Y9575D02*
X7156Y9625D01*
X9756Y6625D02*
X9856D01*
X9156D02*
X9056D01*
X8456D02*
X8356D01*
X7756D02*
X7656D01*
X9856Y6525D02*
X9956D01*
X9256D02*
X9156D01*
X8556D02*
X8456D01*
X7956D02*
X7756D01*
X11206D02*
X11406D01*
X11156Y6575D02*
X11056D01*
X7431Y9850D02*
X7356Y9775D01*
X7206Y6675D02*
X8106D01*
X10206D02*
X10606D01*
X10206D02*
X9506D01*
X8706D01*
X8106D01*
X8981Y6800D02*
X10406D01*
X7706Y8475D02*
X7631Y8400D01*
X7606Y9525D02*
X7656Y9575D01*
X7631Y9625D02*
X7581Y9575D01*
X7656Y8525D02*
X7606Y8475D01*
X7581Y8525D02*
X7631Y8575D01*
X7656Y6625D02*
X7606Y6575D01*
X7706D02*
X7756Y6525D01*
X7681Y9775D02*
X7606Y9850D01*
X10631Y6900D02*
X10656D01*
X10981D01*
X11256Y6975D02*
X11356D01*
X11456D01*
X10206D02*
X10106D01*
X10206D02*
X10306D01*
X10106D02*
X10006D01*
X9906D01*
X9806D02*
X9706D01*
X9606D02*
X9506D01*
X9406D01*
X9306D01*
X9206D01*
X9106D02*
X9006D01*
X8906D02*
X8806D01*
X8706D02*
X8606D01*
X8706D02*
X8806D01*
X8606D02*
X8506D01*
X8406D02*
X8306D01*
X8206D02*
X8106D01*
X8006D01*
X7906D01*
X7806D01*
X7706D02*
X7606D01*
X7906Y9775D02*
Y9975D01*
Y7875D02*
Y7675D01*
Y9975D02*
X7981Y10050D01*
X8006Y7975D02*
X7906Y7875D01*
X7756Y6625D02*
X7806Y6575D01*
X8056Y6400D02*
Y6125D01*
X7956Y6525D02*
X8006Y6575D01*
X8206Y8525D02*
Y8725D01*
X8156Y8475D02*
Y8250D01*
X8106Y6675D02*
Y6575D01*
X8206Y9825D02*
X8256Y9875D01*
X8306Y9825D02*
X8231Y9750D01*
X8206Y8525D02*
X8156Y8475D01*
X8181Y9750D02*
X8106Y9825D01*
X8156Y8250D02*
X8256Y8150D01*
X8356Y6625D02*
X8306Y6575D01*
X8406D02*
X8456Y6525D01*
X8506Y9825D02*
X8431Y9900D01*
X8456Y6625D02*
X8506Y6575D01*
X8406Y9825D02*
X8356Y9875D01*
X10356Y7675D02*
X10456D01*
X10556D02*
X10656D01*
X10756D01*
X10856D01*
X10956D01*
X11056D01*
X11156D01*
X11256D01*
X11356D01*
X11456D01*
X11206Y7775D02*
X10656D01*
X8606Y7850D02*
Y7675D01*
Y7850D02*
X8681Y7925D01*
X8606Y6575D02*
X8556Y6525D01*
X10056Y7825D02*
X10831D01*
X10756Y7875D02*
X9381D01*
X8681Y7925D02*
X10656D01*
X10606Y7975D02*
X8006D01*
X7256Y7925D02*
X6956D01*
X7306Y7975D02*
X7556D01*
X8706Y9750D02*
Y9825D01*
Y6675D02*
Y6575D01*
X8906Y9775D02*
X8856Y9825D01*
X8731Y9725D02*
X8706Y9750D01*
X8931Y8200D02*
X11131D01*
X10356Y8075D02*
X10281D01*
X10231Y8025D02*
X9831D01*
X9806Y8050D02*
X9556D01*
X8256Y8150D02*
X11081D01*
X7256Y8125D02*
X7156D01*
X8906Y8225D02*
Y8550D01*
X8956Y8600D02*
Y8725D01*
X9006Y9775D02*
X9056Y9825D01*
Y6625D02*
X9006Y6575D01*
X8906Y8550D02*
X8956Y8600D01*
Y9825D02*
X9006Y9875D01*
X8906Y8225D02*
X8931Y8200D01*
X9706Y8250D02*
X11181D01*
X9306Y6575D02*
X9256Y6525D01*
Y9825D02*
X9181Y9900D01*
X9231Y10050D02*
X9331Y9950D01*
X9156Y9825D02*
X9106Y9875D01*
Y6575D02*
X9156Y6525D01*
X9206Y6575D02*
X9156Y6625D01*
X7706Y8575D02*
X7631D01*
X10556Y8400D02*
X11131D01*
X7631D02*
X7381D01*
X7706Y8475D02*
X7906D01*
X7606D02*
X7506D01*
X7456Y8525D02*
X7206D01*
X7456D02*
X7581D01*
X9456Y9725D02*
Y9825D01*
X9306Y7800D02*
Y7675D01*
Y7800D02*
X9381Y7875D01*
X7306Y8725D02*
X7206D01*
X9506Y6675D02*
Y6575D01*
X9656Y9825D02*
X9706Y9875D01*
X9606Y9775D02*
X9556Y9825D01*
X9856Y6375D02*
Y6125D01*
X9681Y8275D02*
Y8450D01*
X9756Y8525D02*
Y8725D01*
X9706Y9950D02*
X9806Y10050D01*
X9756Y8525D02*
X9681Y8450D01*
X9706Y9775D02*
X9756Y9825D01*
Y6625D02*
X9706Y6575D01*
X9831Y8025D02*
X9806Y8050D01*
X9856Y9825D02*
X9806Y9875D01*
Y6575D02*
X9856Y6525D01*
X9906Y6575D02*
X9856Y6625D01*
X9706Y8250D02*
X9681Y8275D01*
X10006Y7775D02*
Y7675D01*
Y7775D02*
X10056Y7825D01*
X10006Y6575D02*
X9956Y6525D01*
X7356Y9375D02*
X7256D01*
X10256Y6250D02*
Y6125D01*
X10206Y6575D02*
Y6675D01*
X10156Y9725D02*
Y9825D01*
X10281Y8075D02*
X10231Y8025D01*
X8206Y9425D02*
X8106D01*
X8306D02*
X8406D01*
X8506D01*
X8606D01*
X8706D01*
X8856D02*
X8956D01*
X9056D02*
X9156D01*
X9256D01*
X9356D01*
X9456D01*
X9556D02*
X9656D01*
X9756D02*
X9856D01*
X9956D01*
X10056D01*
X10156D01*
X10306D02*
X10406D01*
X10506D02*
X10606D01*
X10706D01*
X10806D01*
X10906D01*
X7606Y9525D02*
X7506D01*
X10406Y9825D02*
X10456Y9875D01*
X10356Y9775D02*
X10306Y9825D01*
X8231Y9750D02*
X8181D01*
X7456Y9575D02*
X7206D01*
X7456D02*
X7581D01*
X7631Y9625D02*
X7706D01*
X8731Y9725D02*
X9456D01*
X10156D01*
X10906D01*
X10606Y6975D02*
Y6925D01*
X10506Y8450D02*
Y8725D01*
X10656Y8025D02*
X10606Y7975D01*
X10456Y9775D02*
X10506Y9825D01*
X10556Y9875D02*
X10606Y9825D01*
Y6925D02*
X10631Y6900D01*
X10656Y10125D02*
X10606Y10175D01*
X10631Y9900D02*
X10706Y9825D01*
X10606Y6675D02*
X10706Y6575D01*
X10556Y8400D02*
X10506Y8450D01*
X9231Y9950D02*
X8706D01*
X9331D02*
X9706D01*
X8481D02*
X8256D01*
X10356D02*
X10681D01*
X7606Y9850D02*
X7431D01*
X7681Y9775D02*
X7906D01*
X10356D02*
X10456D01*
X9706D02*
X9606D01*
X9006D02*
X8906D01*
X9181Y9900D02*
X8606D01*
X8431D02*
X8156D01*
X8256Y9875D02*
X8356D01*
X10456D02*
X10556D01*
X9806D02*
X9706D01*
X9106D02*
X9006D01*
X10256Y9900D02*
X10631D01*
X10756Y8075D02*
Y8025D01*
X10656D02*
Y8075D01*
X10756Y7875D02*
X10856Y7975D01*
X10681Y10050D02*
X10756Y10125D01*
Y8025D02*
X10656Y7925D01*
X10681Y10050D02*
X9806D01*
X9231D02*
X7981D01*
X10956Y8075D02*
Y7950D01*
X10856Y7975D02*
Y8075D01*
X10906Y9725D02*
Y9825D01*
X10606Y10175D02*
X9781D01*
X9656Y10300D02*
X7981D01*
X11156Y6575D02*
X11206Y6525D01*
X11156Y8075D02*
X11081Y8150D01*
X11456Y6575D02*
X11406Y6525D01*
D20*
X11506Y7175D02*
X11631Y7300D01*
X8006Y8275D02*
X7956Y8225D01*
X6906Y9225D02*
X6856Y9175D01*
X11656Y7075D02*
X11706Y7125D01*
X6831Y7825D02*
X6806Y7800D01*
X7856Y9225D02*
X7931Y9300D01*
X9456Y8925D02*
X9531Y9000D01*
X8731D02*
X8656Y8925D01*
X7856Y9000D02*
X7781Y8925D01*
X7931Y9150D02*
X8006Y9225D01*
X11006Y8725D02*
X11131Y8600D01*
X11431D02*
X11631Y8400D01*
X10556Y9125D02*
X10506Y9175D01*
X11081Y9125D02*
X11331Y8875D01*
X11231Y9175D02*
X11181Y9225D01*
X8006Y8525D02*
X7956Y8575D01*
X7231Y8225D02*
X7206Y8250D01*
X6881Y8625D02*
X6856Y8650D01*
X7456Y8625D02*
X7506Y8575D01*
X11681Y9025D02*
X11706Y9000D01*
X6831Y7550D02*
X6806Y7575D01*
X6856Y8650D02*
Y9175D01*
X6806Y7800D02*
Y7575D01*
X7106Y8825D02*
Y8925D01*
X6956Y7175D02*
Y7075D01*
Y7400D02*
Y7475D01*
X7256Y9150D02*
Y9225D01*
X7206Y8325D02*
Y8250D01*
Y7475D02*
Y7400D01*
X7656D02*
Y7475D01*
Y7175D02*
Y7075D01*
X7556Y7175D02*
Y7250D01*
Y7475D02*
Y7550D01*
X7806Y7475D02*
Y7400D01*
X10456Y7075D02*
X11656D01*
X10456D02*
X10106D01*
X9756D01*
X9406D01*
X9056D01*
X8706D01*
X8356D01*
X8006D01*
X7656D01*
X6956D01*
X11031Y7175D02*
X11506D01*
X7556D02*
X7406D01*
X8106D02*
X8256D01*
X8806D02*
X8956D01*
X9506D02*
X9656D01*
X10206D02*
X10356D01*
X10906D02*
X11031D01*
X8006Y8275D02*
Y8525D01*
Y8825D02*
Y8925D01*
Y7175D02*
Y7075D01*
X9906Y7400D02*
X10456D01*
X9756D02*
X9206D01*
X9056D02*
X8506D01*
X8356D02*
X7806D01*
X7656D02*
X7206D01*
X6956D01*
X7556Y7250D02*
X8106D01*
X8256D02*
X8806D01*
X8956D02*
X9506D01*
X9656D02*
X10206D01*
X10356D02*
X10906D01*
X8206Y9150D02*
Y9225D01*
X8256Y7250D02*
Y7175D01*
Y7475D02*
Y7550D01*
X8106Y7250D02*
Y7175D01*
X10906Y7475D02*
X11031D01*
X10606D02*
X10456D01*
X9906D02*
X9756D01*
X9206D02*
X9056D01*
X8506D02*
X8356D01*
X7806D02*
X7656D01*
X7556Y7550D02*
X6831D01*
X7556D02*
X8256D01*
X8956D01*
X9656D01*
X10356D01*
X10906D01*
X8356Y7475D02*
Y7400D01*
Y7175D02*
Y7075D01*
X8656Y9225D02*
Y9300D01*
X8506Y7475D02*
Y7400D01*
Y8925D02*
Y9000D01*
Y9225D02*
Y9300D01*
X6956Y7825D02*
X6831D01*
X8806Y7250D02*
Y7175D01*
Y9150D02*
Y9225D01*
Y8925D02*
Y8825D01*
X8706Y7175D02*
Y7075D01*
X9056Y7400D02*
Y7475D01*
Y7175D02*
Y7075D01*
X8956Y7175D02*
Y7250D01*
Y9150D02*
Y9225D01*
Y7550D02*
Y7475D01*
X7956Y8225D02*
X7231D01*
X9206Y7475D02*
Y7400D01*
X9256Y8925D02*
Y9000D01*
Y9225D02*
Y9300D01*
X7956Y8575D02*
X7906D01*
X9406Y9225D02*
Y9300D01*
Y7175D02*
Y7075D01*
X11131Y8600D02*
X11431D01*
X7456Y8625D02*
X6881D01*
X9656Y7250D02*
Y7175D01*
X9606Y9150D02*
Y9225D01*
Y8925D02*
Y8825D01*
X9656Y7550D02*
Y7475D01*
X9506Y7250D02*
Y7175D01*
X11331Y8875D02*
X11506D01*
X8006Y8825D02*
X7106D01*
X8006D02*
X8806D01*
X9606D01*
X10306D01*
X10806Y8925D02*
X11006D01*
X10206D02*
X10056D01*
X9456D02*
X9406D01*
X9256D01*
X8656D02*
X8506D01*
X7781D02*
X7556D01*
X9756Y7475D02*
Y7400D01*
Y9150D02*
Y9225D01*
Y7175D02*
Y7075D01*
X11231Y9175D02*
X11506D01*
Y9025D02*
X11681D01*
X10806Y9000D02*
X10206D01*
X10056D02*
X9531D01*
X9256D02*
X8731D01*
X8506D02*
X7856D01*
X10556Y9125D02*
X11081D01*
X7931Y9150D02*
X7256D01*
X8206D02*
X8806D01*
X8956D02*
X9606D01*
X9756D02*
X10306D01*
X10056Y9225D02*
Y9300D01*
Y9000D02*
Y8925D01*
X9906Y7475D02*
Y7400D01*
X11006Y9225D02*
X11181D01*
X7106D02*
X6906D01*
X7706D02*
X7856D01*
X7706D02*
X7556D01*
X7256D02*
X7106D01*
X8006D02*
X8206D01*
X8806D02*
X8956D01*
X9606D02*
X9756D01*
X10306D02*
X10506D01*
X10206D02*
X10056D01*
X10806D02*
X11006D01*
X8506Y9300D02*
X7931D01*
X9406D02*
X10056D01*
X9406D02*
X9256D01*
X8656D01*
X8506D01*
X10206D02*
X10806D01*
X10206Y7250D02*
Y7175D01*
Y8925D02*
Y9000D01*
Y9225D02*
Y9300D01*
X10106Y7175D02*
Y7075D01*
X10356Y7175D02*
Y7250D01*
Y7475D02*
Y7550D01*
X10306Y8825D02*
Y8925D01*
Y9150D02*
Y9225D01*
X10456Y7475D02*
Y7400D01*
X10506Y9175D02*
Y9225D01*
X10456Y7175D02*
Y7075D01*
X10806Y8925D02*
Y9000D01*
Y9225D02*
Y9300D01*
X11006Y8925D02*
Y8725D01*
X10906Y7550D02*
Y7475D01*
Y7250D02*
Y7175D01*
X11506Y9175D02*
Y9187D01*
Y9031D02*
Y9025D01*
X11631Y8400D02*
Y7300D01*
X11706Y7125D02*
Y9000D01*
X7506Y9625D02*
D03*
Y9525D02*
D03*
X7456Y9575D02*
D03*
X7706Y9625D02*
D03*
Y9525D02*
D03*
X7656Y9575D02*
D03*
X7506Y8575D02*
D03*
Y8475D02*
D03*
X7456Y8525D02*
D03*
X7706Y8575D02*
D03*
Y8475D02*
D03*
X7656Y8525D02*
D03*
D23*
X6956Y7925D02*
D03*
X7006Y7875D02*
D03*
X6956Y7825D02*
D03*
D26*
X11206Y7775D02*
D03*
X10981Y6900D02*
D03*
X10656Y7775D02*
D03*
X10356Y9950D02*
D03*
X10406Y6800D02*
D03*
X10381Y6375D02*
D03*
X10256Y9900D02*
D03*
X9856Y6375D02*
D03*
X9556Y8050D02*
D03*
X8981Y6800D02*
D03*
X8706Y9950D02*
D03*
X8606Y9900D02*
D03*
X8156D02*
D03*
X8256Y9950D02*
D03*
X7981Y10300D02*
D03*
X8056Y6400D02*
D03*
X7206Y6675D02*
D03*
X10706Y9425D02*
D03*
Y9825D02*
D03*
X10806D02*
D03*
Y9425D02*
D03*
X10906Y9825D02*
D03*
Y9425D02*
D03*
X9856Y10125D02*
D03*
Y10225D02*
D03*
X9956Y10125D02*
D03*
Y10225D02*
D03*
X10056Y10125D02*
D03*
Y10225D02*
D03*
X10156Y10125D02*
D03*
Y10225D02*
D03*
X10256Y10125D02*
D03*
Y10225D02*
D03*
X10356Y10125D02*
D03*
Y10225D02*
D03*
X10456Y10125D02*
D03*
Y10225D02*
D03*
X10556Y10125D02*
D03*
Y10225D02*
D03*
X10656Y10125D02*
D03*
Y10225D02*
D03*
X10756Y10125D02*
D03*
X10606Y8925D02*
D03*
X10706D02*
D03*
X10806D02*
D03*
Y9225D02*
D03*
X10706D02*
D03*
X10606D02*
D03*
X10506D02*
D03*
X11006Y8925D02*
D03*
Y9225D02*
D03*
X10456Y8075D02*
D03*
Y7675D02*
D03*
X10556D02*
D03*
Y8075D02*
D03*
X11056D02*
D03*
Y7675D02*
D03*
X10606Y9425D02*
D03*
Y9825D02*
D03*
X10506Y9425D02*
D03*
Y9825D02*
D03*
Y8325D02*
D03*
Y8725D02*
D03*
X10606Y8325D02*
D03*
Y8725D02*
D03*
X10656Y8075D02*
D03*
Y7675D02*
D03*
X10756Y8075D02*
D03*
Y7675D02*
D03*
X10856Y8075D02*
D03*
Y7675D02*
D03*
X10956Y8075D02*
D03*
Y7675D02*
D03*
X11456Y8075D02*
D03*
Y7675D02*
D03*
X11356Y8075D02*
D03*
Y7675D02*
D03*
X11256Y8075D02*
D03*
Y7675D02*
D03*
X11156Y8075D02*
D03*
Y7675D02*
D03*
X10706Y7175D02*
D03*
X10806D02*
D03*
X10906D02*
D03*
Y7475D02*
D03*
X10806D02*
D03*
X10706D02*
D03*
X10606D02*
D03*
X10706Y6575D02*
D03*
Y6975D02*
D03*
X10606Y6575D02*
D03*
Y6975D02*
D03*
X11056D02*
D03*
Y6575D02*
D03*
X11156Y6975D02*
D03*
Y6575D02*
D03*
X11256Y6975D02*
D03*
Y6575D02*
D03*
X11356Y6975D02*
D03*
Y6575D02*
D03*
X11456Y6975D02*
D03*
Y6575D02*
D03*
X11031Y7175D02*
D03*
Y7475D02*
D03*
X10456Y7175D02*
D03*
Y7475D02*
D03*
X9056Y10125D02*
D03*
X8956Y10225D02*
D03*
Y10125D02*
D03*
X8856Y10225D02*
D03*
Y10125D02*
D03*
X8756Y10225D02*
D03*
Y10125D02*
D03*
X8656Y10225D02*
D03*
Y10125D02*
D03*
X8556Y10225D02*
D03*
Y10125D02*
D03*
X8456Y10225D02*
D03*
Y10125D02*
D03*
X8356Y10225D02*
D03*
Y10125D02*
D03*
X8256Y10225D02*
D03*
Y10125D02*
D03*
X8156Y10225D02*
D03*
Y10125D02*
D03*
X10406Y9425D02*
D03*
Y9825D02*
D03*
X9656Y9425D02*
D03*
Y9825D02*
D03*
X8956Y9425D02*
D03*
Y9825D02*
D03*
X9256Y9425D02*
D03*
Y9825D02*
D03*
X9356D02*
D03*
Y9425D02*
D03*
X9456Y9825D02*
D03*
Y9425D02*
D03*
X10156Y9825D02*
D03*
Y9425D02*
D03*
X10056Y9825D02*
D03*
Y9425D02*
D03*
X9956D02*
D03*
Y9825D02*
D03*
X10206Y8925D02*
D03*
Y9225D02*
D03*
X9606D02*
D03*
Y8925D02*
D03*
X9406Y8075D02*
D03*
Y7675D02*
D03*
X9306Y8075D02*
D03*
Y7675D02*
D03*
X10106Y8075D02*
D03*
Y7675D02*
D03*
X10006Y8075D02*
D03*
Y7675D02*
D03*
X9856Y8925D02*
D03*
X9956D02*
D03*
X10056D02*
D03*
Y9225D02*
D03*
X9956D02*
D03*
X9856D02*
D03*
X9756D02*
D03*
X9056Y8925D02*
D03*
X9156D02*
D03*
X9256D02*
D03*
Y9225D02*
D03*
X9156D02*
D03*
X9056D02*
D03*
X8956D02*
D03*
X9406Y8925D02*
D03*
Y9225D02*
D03*
X10306D02*
D03*
Y8925D02*
D03*
Y9825D02*
D03*
Y9425D02*
D03*
X9556Y9825D02*
D03*
Y9425D02*
D03*
X9756Y8325D02*
D03*
Y8725D02*
D03*
X9856Y8325D02*
D03*
Y8725D02*
D03*
X9156Y9425D02*
D03*
Y9825D02*
D03*
X9056Y9425D02*
D03*
Y9825D02*
D03*
X8956Y8325D02*
D03*
Y8725D02*
D03*
X9056Y8325D02*
D03*
Y8725D02*
D03*
X9856Y9425D02*
D03*
Y9825D02*
D03*
X9756Y9425D02*
D03*
Y9825D02*
D03*
Y7475D02*
D03*
Y7175D02*
D03*
X10356D02*
D03*
Y7475D02*
D03*
X9056D02*
D03*
Y7175D02*
D03*
X8956D02*
D03*
Y7475D02*
D03*
X9656Y7175D02*
D03*
Y7475D02*
D03*
X9006Y6975D02*
D03*
Y6575D02*
D03*
X9106D02*
D03*
Y6975D02*
D03*
X9206D02*
D03*
Y6575D02*
D03*
X9306Y6975D02*
D03*
Y6575D02*
D03*
X9406D02*
D03*
Y6975D02*
D03*
X9506Y6575D02*
D03*
Y6975D02*
D03*
X9706D02*
D03*
Y6575D02*
D03*
X9806D02*
D03*
Y6975D02*
D03*
X9906D02*
D03*
Y6575D02*
D03*
X10006Y6975D02*
D03*
Y6575D02*
D03*
X10106D02*
D03*
Y6975D02*
D03*
X10206Y6575D02*
D03*
Y6975D02*
D03*
X9306Y7175D02*
D03*
X9406D02*
D03*
X9506D02*
D03*
Y7475D02*
D03*
X9406D02*
D03*
X9306D02*
D03*
X9206D02*
D03*
X10006Y7175D02*
D03*
X10106D02*
D03*
X10206D02*
D03*
Y7475D02*
D03*
X10106D02*
D03*
X10006D02*
D03*
X9906D02*
D03*
X8906Y6975D02*
D03*
Y6575D02*
D03*
X9606Y6975D02*
D03*
Y6575D02*
D03*
X10306Y6975D02*
D03*
Y6575D02*
D03*
X10356Y7675D02*
D03*
Y8075D02*
D03*
X10756Y6125D02*
D03*
Y6025D02*
D03*
X10656Y6125D02*
D03*
Y6025D02*
D03*
X10556Y6125D02*
D03*
Y6025D02*
D03*
X10456Y6125D02*
D03*
Y6025D02*
D03*
X10356Y6125D02*
D03*
Y6025D02*
D03*
X10256Y6125D02*
D03*
Y6025D02*
D03*
X10156Y6125D02*
D03*
Y6025D02*
D03*
X10056Y6125D02*
D03*
Y6025D02*
D03*
X9956Y6125D02*
D03*
Y6025D02*
D03*
X9856Y6125D02*
D03*
X8206Y9425D02*
D03*
Y9825D02*
D03*
X8506Y9425D02*
D03*
Y9825D02*
D03*
X8606D02*
D03*
Y9425D02*
D03*
X8706Y9825D02*
D03*
Y9425D02*
D03*
X7506Y9775D02*
D03*
X7906D02*
D03*
X8606Y8075D02*
D03*
Y7675D02*
D03*
X8706Y8075D02*
D03*
Y7675D02*
D03*
X7906Y8075D02*
D03*
Y7675D02*
D03*
X8006Y8075D02*
D03*
Y7675D02*
D03*
X8806Y9225D02*
D03*
Y8925D02*
D03*
X8006Y9225D02*
D03*
Y8925D02*
D03*
X8306D02*
D03*
X8406D02*
D03*
X8506D02*
D03*
Y9225D02*
D03*
X8406D02*
D03*
X8306D02*
D03*
X8206D02*
D03*
X8656Y8925D02*
D03*
Y9225D02*
D03*
X7856Y8325D02*
D03*
X7456D02*
D03*
X8856Y9825D02*
D03*
Y9425D02*
D03*
X8406D02*
D03*
Y9825D02*
D03*
X8306Y9425D02*
D03*
Y9825D02*
D03*
X7906Y8575D02*
D03*
Y8475D02*
D03*
X8106Y9825D02*
D03*
Y9425D02*
D03*
X8206Y8325D02*
D03*
Y8725D02*
D03*
X8306Y8325D02*
D03*
Y8725D02*
D03*
X7356Y9375D02*
D03*
Y9775D02*
D03*
X7906Y9625D02*
D03*
Y9525D02*
D03*
X7706Y9225D02*
D03*
Y8925D02*
D03*
X7556Y7175D02*
D03*
Y7475D02*
D03*
X7656D02*
D03*
Y7175D02*
D03*
X8256D02*
D03*
Y7475D02*
D03*
X8356D02*
D03*
Y7175D02*
D03*
X8306Y6975D02*
D03*
Y6575D02*
D03*
X8606Y7175D02*
D03*
X8706D02*
D03*
X8806D02*
D03*
Y7475D02*
D03*
X8706D02*
D03*
X8606D02*
D03*
X8506D02*
D03*
X8706Y6575D02*
D03*
Y6975D02*
D03*
X8606D02*
D03*
Y6575D02*
D03*
X8506Y6975D02*
D03*
Y6575D02*
D03*
X8406D02*
D03*
Y6975D02*
D03*
X8806Y6575D02*
D03*
Y6975D02*
D03*
X7606D02*
D03*
Y6575D02*
D03*
X7706D02*
D03*
Y6975D02*
D03*
X7806D02*
D03*
Y6575D02*
D03*
X7906D02*
D03*
Y6975D02*
D03*
X8006D02*
D03*
Y6575D02*
D03*
X8106D02*
D03*
Y6975D02*
D03*
X7906Y7175D02*
D03*
X8006D02*
D03*
X8106D02*
D03*
Y7475D02*
D03*
X8006D02*
D03*
X7906D02*
D03*
X7806D02*
D03*
X8206Y6975D02*
D03*
Y6575D02*
D03*
X7556Y7975D02*
D03*
X7456Y7875D02*
D03*
X7656D02*
D03*
X8856Y6125D02*
D03*
Y6025D02*
D03*
X8756Y6125D02*
D03*
Y6025D02*
D03*
X8656Y6125D02*
D03*
Y6025D02*
D03*
X8556Y6125D02*
D03*
Y6025D02*
D03*
X8456Y6125D02*
D03*
Y6025D02*
D03*
X8356Y6125D02*
D03*
Y6025D02*
D03*
X8256Y6125D02*
D03*
Y6025D02*
D03*
X8156Y6125D02*
D03*
Y6025D02*
D03*
X8056Y6125D02*
D03*
Y6025D02*
D03*
X7956Y6125D02*
D03*
X7256Y9775D02*
D03*
Y9375D02*
D03*
X7206Y7675D02*
D03*
Y8075D02*
D03*
X7106Y8725D02*
D03*
Y8325D02*
D03*
X7206D02*
D03*
Y8725D02*
D03*
X7306D02*
D03*
Y8325D02*
D03*
X7106Y9225D02*
D03*
Y8925D02*
D03*
X7356D02*
D03*
X7456D02*
D03*
X7556D02*
D03*
Y9225D02*
D03*
X7456D02*
D03*
X7356D02*
D03*
X7256D02*
D03*
X7156Y9375D02*
D03*
Y9775D02*
D03*
X6956Y7475D02*
D03*
Y7175D02*
D03*
X7306Y6975D02*
D03*
Y6575D02*
D03*
X7206Y7175D02*
D03*
X7306D02*
D03*
X7406D02*
D03*
Y7475D02*
D03*
X7306D02*
D03*
X7206D02*
D03*
X7106D02*
D03*
Y7675D02*
D03*
Y8075D02*
D03*
X7306D02*
D03*
Y7675D02*
D03*
D30*
X11506Y8875D02*
D03*
Y9343D02*
D03*
Y9187D02*
D03*
Y9031D02*
D03*
D34*
X11256Y10125D02*
D03*
Y6125D02*
D03*
X9456Y10125D02*
D03*
Y6125D02*
D03*
X7006Y10125D02*
D03*
Y6125D02*
D03*
D36*
X10756Y10225D02*
D03*
X10506Y8925D02*
D03*
X10606Y7175D02*
D03*
X9056Y10225D02*
D03*
X9756Y8925D02*
D03*
X8956D02*
D03*
X9206Y7175D02*
D03*
X9906D02*
D03*
X9856Y6025D02*
D03*
X8206Y8925D02*
D03*
X8506Y7175D02*
D03*
X7806D02*
D03*
X7956Y6025D02*
D03*
X7256Y8925D02*
D03*
X7106Y7175D02*
D03*
M02*
