M71
M48
T1F00S00C0.032
T2F00S00C0.036
T3F00S00C0.070
T4F00S00C0.140
%
T01
X002Y0195
Y0205
X0025Y02
X0075Y026
Y027
X007Y0265
X009
X0095Y027
Y026
Y0365
Y0375
X009Y037
X0075Y0375
Y0365
X007Y037
T02
X012Y0015
X013
X014
X015
X016
X017
X018
X019
X02
X021
Y0025
X02
X019
X018
X017
X016
X015
X014
X013
X012
X013Y00525
X031Y005
Y0025
X032
X033
X034
X035
X036
X037
X038
X039
X04
Y0015
X039
X038
X037
X036
X035
X034
X033
X032
X031
X03625Y005
X0385Y007
X0395
X043
X044
X045
X046
X047
Y011
X046
X045
X044
X043
X04225Y01025
X04275Y013
X0415
X0405
X0395
X0385
X037
Y016
X0385
X0395
X0405
X0415
X04275
X0445Y019
X039
X0385Y011
X0395
X0355
X0345
X0335
X0325
X0315
X0305
X0295
X0285
X0275
X0265
X0255
X0245
X0235
X0225
X0215
X02225Y00925
X0225Y007
X0215
X0235
X0245
X0255
X0265
X0275
X0285
X0295
X0305
X0315
X0325
X0335
X0345
X0355
X0365Y00925
X036Y013
X0345
X0335
X0325
X0315
X03
X029
X0275
X0265
X0255
X0245
X023
X022
Y016
X023
X0245
X0255
X0265
X0275
X029
X03
X0315
X0325
X0335
X0345
X036
Y018
Y022
X0205Y016
X0195
X0185
X0175
X016
X015
X0135
X0125
X0115
X0105
X009
X008
Y013
X009
X0105
X0115
X0125
X0135
X015
X016
X0175
X0185
X0195
X0205
Y011
X0195
X0185
X0175
X0165
X0155
X0145
X0135
X0125
X0115
X0105
X0095
X0085
Y007
X0095
X0105
X0115
X0125
X0135
X0145
X0155
X0165
X0175
X0185
X0195
X0205
X009Y02
X008Y021
X007Y02
X0055Y022
X0035
Y018
X0055
Y016
X0065
X0045
X0035
X002
Y013
X0035
X0045
X0055
X0065
X0055Y011
X0045Y008
X0055Y007
X0045Y018
Y022
Y0245
X0055
X0035
Y0285
X0045
X0055
X005Y0305
X006
X007
X008
Y0335
X007
X006
X005
X0035
X004Y035
Y039
X0035Y0305
X0095
Y0335
X0125
X0145
X0155
X0165
X0175
X019
X0205
X021Y0355
Y0395
X0165
X0155
X0135
X0115Y0375
Y0365
X0135Y0355
X0155
X0165
Y0305
X0155
X0145
Y0285
X0155
Y0245
X0145
X011
X0115Y026
Y027
X0125Y0305
X0175
X019
X0205
X0195Y022
X0185
Y018
X0195
X0125
X0115
Y022
X0125
X007Y0245
X006Y035
Y039
X023Y0395
X024
Y0355
X023
Y0335
X024
X025
X0265
X0285
X03
X031
X032
X033
X0345
X0355
Y0355
Y0395
X031
X03
X028
Y0355
X03
X031
Y0305
X03
X0285
X0265
X025
X024
X023
X022
Y0285
X023
Y0245
X022
X0255Y022
X0265
X028Y02175
X03Y0245
X031
Y0285
X03
X032Y0305
X033
X0345
X0355
X0335Y022
X0325
Y018
X0335
X0265
X0255
X022Y0335
X0375
X0385
X0395
X0405
X0425
Y0305
X0405
X0395
X0385
X0375
Y0285
X0385
Y0245
X0375
X038Y022
X039
X04
X041
X042
X043
X044
X045
X046
X047
Y018
X046
X045
X044
X043
X042
X041
X04
X039
X038
X037
Y022
X0375Y0355
X0385
Y0395
X0375
X0395
X0405
X0415
Y0355
X0405
X0395
X039Y0425
X038
X037
X036
X035
X034
X033
X032
X031
Y0435
X032
X033
X034
X035
X036
X037
X038
X039
X04
Y0425
X036Y04075
X035Y04025
X034Y0395
X033
X032
X029
X027
X026
X025
X022
Y0425
X023
Y0435
X022
X021
Y0425
X02
Y0435
X019
Y0425
X018
Y0435
X017
Y0425
X016
Y0435
X015
Y0425
X014
Y0435
X022Y0355
X025
X026
X027
X029
X032
X033
X034
X0365
Y0395
X0195
X0185
Y04025
X0195Y04075
X0175Y0395
X0145
X014Y04025
X015Y04075
X0115Y039
X0075
X01225Y04425
X0145Y0355
X0175
X0185
X0195
X005Y035
Y039
T03
X0475Y03
Y03156
Y03312
Y03468
T04
X0025Y0025
X027
X045
Y0425
X027
X0025
M30
