G04 #@! TF.GenerationSoftware,KiCad,Pcbnew,(5.0.2)-1*
G04 #@! TF.CreationDate,2019-01-01T20:39:11-08:00*
G04 #@! TF.ProjectId,500-1141,3530302d-3131-4343-912e-6b696361645f,rev?*
G04 #@! TF.SameCoordinates,Original*
G04 #@! TF.FileFunction,Copper,L1,Top*
G04 #@! TF.FilePolarity,Positive*
%FSLAX46Y46*%
G04 Gerber Fmt 4.6, Leading zero omitted, Abs format (unit mm)*
G04 Created by KiCad (PCBNEW (5.0.2)-1) date 1/1/2019 8:39:11 PM*
%MOMM*%
%LPD*%
G01*
G04 APERTURE LIST*
G04 #@! TA.AperFunction,ComponentPad*
%ADD10C,5.080000*%
G04 #@! TD*
G04 #@! TA.AperFunction,ComponentPad*
%ADD11C,2.540000*%
G04 #@! TD*
G04 #@! TA.AperFunction,ComponentPad*
%ADD12O,2.540000X2.032000*%
G04 #@! TD*
G04 #@! TA.AperFunction,ComponentPad*
%ADD13C,1.574800*%
G04 #@! TD*
G04 #@! TA.AperFunction,ComponentPad*
%ADD14R,1.574800X1.574800*%
G04 #@! TD*
G04 #@! TA.AperFunction,Conductor*
%ADD15C,0.304800*%
G04 #@! TD*
G04 APERTURE END LIST*
D10*
G04 #@! TO.P,P5,1*
G04 #@! TO.N,Net-(P1-Pad10)*
X96520000Y-116205000D03*
G04 #@! TD*
D11*
G04 #@! TO.P,P1,4*
G04 #@! TO.N,Net-(P1-Pad4)*
X88900000Y-104394000D03*
G04 #@! TO.P,P1,5*
G04 #@! TO.N,Net-(P1-Pad5)*
X78740000Y-104394000D03*
G04 #@! TO.P,P1,1*
G04 #@! TO.N,N/C*
X91440000Y-106934000D03*
G04 #@! TO.P,P1,3*
X76200000Y-106934000D03*
G04 #@! TO.P,P1,2*
X83820000Y-106934000D03*
D12*
G04 #@! TO.P,P1,7*
G04 #@! TO.N,Net-(P1-Pad10)*
X86360000Y-117094000D03*
G04 #@! TO.P,P1,6*
X81280000Y-117094000D03*
G04 #@! TO.P,P1,9*
X83820000Y-117094000D03*
G04 #@! TO.P,P1,8*
X78740000Y-117094000D03*
G04 #@! TO.P,P1,10*
X88900000Y-117094000D03*
G04 #@! TD*
D11*
G04 #@! TO.P,P2,4*
G04 #@! TO.N,Net-(P2-Pad4)*
X114300000Y-104394000D03*
G04 #@! TO.P,P2,5*
G04 #@! TO.N,Net-(P2-Pad5)*
X104140000Y-104394000D03*
G04 #@! TO.P,P2,1*
G04 #@! TO.N,N/C*
X116840000Y-106934000D03*
G04 #@! TO.P,P2,3*
X101600000Y-106934000D03*
G04 #@! TO.P,P2,2*
G04 #@! TO.N,Net-(P1-Pad10)*
X109220000Y-106934000D03*
D12*
G04 #@! TO.P,P2,7*
X111760000Y-117094000D03*
G04 #@! TO.P,P2,6*
X106680000Y-117094000D03*
G04 #@! TO.P,P2,9*
X109220000Y-117094000D03*
G04 #@! TO.P,P2,8*
X104140000Y-117094000D03*
G04 #@! TO.P,P2,10*
X114300000Y-117094000D03*
G04 #@! TD*
D13*
G04 #@! TO.P,P3,10*
G04 #@! TO.N,Net-(P1-Pad10)*
X101600000Y-95250000D03*
G04 #@! TO.P,P3,9*
X101600000Y-97790000D03*
G04 #@! TO.P,P3,8*
G04 #@! TO.N,Net-(P2-Pad5)*
X99060000Y-95250000D03*
G04 #@! TO.P,P3,7*
G04 #@! TO.N,Net-(P2-Pad4)*
X99060000Y-97790000D03*
G04 #@! TO.P,P3,6*
G04 #@! TO.N,Net-(P1-Pad10)*
X96520000Y-95250000D03*
G04 #@! TO.P,P3,5*
X96520000Y-97790000D03*
G04 #@! TO.P,P3,4*
G04 #@! TO.N,Net-(P1-Pad5)*
X93980000Y-95250000D03*
G04 #@! TO.P,P3,3*
G04 #@! TO.N,Net-(P1-Pad4)*
X93980000Y-97790000D03*
G04 #@! TO.P,P3,2*
G04 #@! TO.N,Net-(P1-Pad10)*
X91440000Y-95250000D03*
D14*
G04 #@! TO.P,P3,1*
X91440000Y-97790000D03*
G04 #@! TD*
D15*
G04 #@! TO.N,Net-(P1-Pad5)*
X93980000Y-95250000D02*
X92710000Y-96520000D01*
X92710000Y-98917762D02*
X91297762Y-100330000D01*
X92710000Y-96520000D02*
X92710000Y-98917762D01*
X91297762Y-100330000D02*
X80010000Y-100330000D01*
X80010000Y-100330000D02*
X78740000Y-101600000D01*
X78740000Y-101600000D02*
X78740000Y-104394000D01*
G04 #@! TO.N,Net-(P1-Pad4)*
X93980000Y-97790000D02*
X93980000Y-99695000D01*
X93980000Y-99695000D02*
X92075000Y-101600000D01*
X92075000Y-101600000D02*
X90170000Y-101600000D01*
X90170000Y-101600000D02*
X88900000Y-102870000D01*
X88900000Y-102870000D02*
X88900000Y-104394000D01*
G04 #@! TO.N,Net-(P2-Pad4)*
X99060000Y-97790000D02*
X102235000Y-100965000D01*
X110871000Y-100965000D02*
X114300000Y-104394000D01*
X102235000Y-100965000D02*
X110871000Y-100965000D01*
G04 #@! TO.N,Net-(P2-Pad5)*
X99060000Y-95250000D02*
X97790000Y-96520000D01*
X102343949Y-104394000D02*
X104140000Y-104394000D01*
X97790000Y-99840051D02*
X102343949Y-104394000D01*
X97790000Y-96520000D02*
X97790000Y-99840051D01*
G04 #@! TD*
M02*
