*%FSLAX23Y23*%
*%MOIN*%
G01*
%ADD11C,0.007*%
%ADD12C,0.008*%
%ADD13C,0.010*%
%ADD14C,0.012*%
%ADD15C,0.020*%
%ADD16C,0.036*%
%ADD17C,0.050*%
%ADD18C,0.056*%
%ADD19C,0.062*%
%ADD20C,0.068*%
%ADD21C,0.070*%
%ADD22C,0.090*%
%ADD23C,0.125*%
%ADD24C,0.131*%
%ADD25C,0.140*%
%ADD26C,0.160*%
%ADD27C,0.250*%
%ADD28R,0.062X0.062*%
%ADD29R,0.068X0.068*%
D13*
X9841Y10061D02*
X9874D01*
X9857D02*
X9841D01*
X9857D02*
Y10161D01*
X9858D01*
X9857D02*
X9874Y10144D01*
X9791D02*
X9774Y10161D01*
X9741D01*
X9724Y10144D01*
Y10078D01*
X9741Y10061D01*
X9774D01*
X9791Y10078D01*
Y10144D01*
X9691D02*
X9674Y10161D01*
X9641D01*
X9624Y10144D01*
Y10078D01*
X9641Y10061D01*
X9674D01*
X9691Y10078D01*
Y10144D01*
X9591Y10111D02*
X9524D01*
X9491Y10061D02*
X9457D01*
X9474D01*
Y10161D01*
X9475D01*
X9474D02*
X9491Y10144D01*
X9407D02*
X9391Y10161D01*
X9358D01*
X9341Y10144D01*
Y10078D01*
X9358Y10061D01*
X9391D01*
X9407Y10078D01*
Y10144D01*
X9258Y10161D02*
Y10061D01*
X9308Y10111D02*
X9258Y10161D01*
X9241Y10111D02*
X9308D01*
X9208Y10061D02*
X9174D01*
X9191D01*
Y10161D01*
X9192D01*
X9191D02*
X9208Y10144D01*
X9124Y10111D02*
X9058D01*
X9024Y10144D02*
X9008Y10161D01*
X8974D01*
X8958Y10144D01*
Y10078D01*
X8974Y10061D01*
X9008D01*
X9024Y10078D01*
Y10144D01*
X8924Y10061D02*
X8891D01*
X8908D01*
Y10161D01*
X8909D01*
X8908D02*
X8924Y10144D01*
X8741Y10161D02*
Y10061D01*
Y10161D02*
X8691D01*
X8674Y10144D01*
Y10111D01*
X8691Y10094D01*
X8741D01*
X8708D02*
X8674Y10061D01*
X8641Y10161D02*
X8574D01*
X8641D02*
Y10061D01*
X8574D01*
X8608Y10111D02*
X8641D01*
X8541Y10094D02*
Y10161D01*
Y10094D02*
X8508Y10061D01*
X8474Y10094D01*
Y10161D01*
X8341D02*
Y10061D01*
X8275D02*
X8341Y10161D01*
X8275D02*
Y10061D01*
X8175Y10144D02*
X8191Y10161D01*
X8225D01*
X8241Y10144D01*
Y10078D01*
X8225Y10061D01*
X8191D01*
X8175Y10078D01*
X7991Y10161D02*
X7975Y10144D01*
X7991Y10161D02*
X8025D01*
X8041Y10144D01*
Y10078D01*
X8025Y10061D01*
X7991D01*
X7975Y10078D01*
X7941Y10161D02*
X7908D01*
X7925D01*
Y10061D01*
X7941D01*
X7908D01*
X7858D02*
Y10161D01*
X7808D01*
X7791Y10144D01*
Y10111D01*
X7808Y10094D01*
X7858D01*
X7825D02*
X7791Y10061D01*
X7691Y10144D02*
X7708Y10161D01*
X7741D01*
X7758Y10144D01*
Y10078D01*
X7741Y10061D01*
X7708D01*
X7691Y10078D01*
X7658D02*
Y10161D01*
Y10078D02*
X7641Y10061D01*
X7608D01*
X7591Y10078D01*
Y10161D01*
X7558D02*
X7525D01*
X7541D01*
Y10061D01*
X7558D01*
X7525D01*
X7475Y10161D02*
X7408D01*
X7441D01*
Y10061D01*
X7225Y10161D02*
X7208Y10144D01*
X7225Y10161D02*
X7258D01*
X7275Y10144D01*
Y10128D01*
X7258Y10111D01*
X7225D01*
X7208Y10094D01*
Y10078D01*
X7225Y10061D01*
X7258D01*
X7275Y10078D01*
X7175Y10161D02*
X7142D01*
X7158D01*
Y10061D01*
X7175D01*
X7142D01*
X7092D02*
Y10161D01*
Y10061D02*
X7042D01*
X7025Y10078D01*
Y10144D01*
X7042Y10161D01*
X7092D01*
X6992D02*
X6925D01*
X6992D02*
Y10061D01*
X6925D01*
X6958Y10111D02*
X6992D01*
X11859Y5671D02*
X11879D01*
X11869D02*
X11859D01*
X11869D02*
Y5731D01*
X11870D01*
X11869D02*
X11879Y5721D01*
X11829D02*
X11819Y5731D01*
X11799D01*
X11789Y5721D01*
Y5681D01*
X11799Y5671D01*
X11819D01*
X11829Y5681D01*
Y5721D01*
X11769D02*
X11759Y5731D01*
X11739D01*
X11729Y5721D01*
Y5681D01*
X11739Y5671D01*
X11759D01*
X11769Y5681D01*
Y5721D01*
X11709Y5701D02*
X11669D01*
X11649Y5671D02*
X11629D01*
X11639D01*
Y5731D01*
X11640D01*
X11639D02*
X11649Y5721D01*
X11599D02*
X11589Y5731D01*
X11569D01*
X11559Y5721D01*
Y5681D01*
X11569Y5671D01*
X11589D01*
X11599Y5681D01*
Y5721D01*
X11509Y5731D02*
Y5671D01*
X11539Y5701D02*
X11509Y5731D01*
X11499Y5701D02*
X11539D01*
X11479Y5671D02*
X11459D01*
X11469D01*
Y5731D01*
X11470D01*
X11469D02*
X11479Y5721D01*
X11369Y5731D02*
Y5671D01*
Y5731D02*
X11339D01*
X11329Y5721D01*
Y5701D01*
X11339Y5691D01*
X11369D01*
X11349D02*
X11329Y5671D01*
X11309Y5731D02*
X11269D01*
X11309D02*
Y5671D01*
X11269D01*
X11289Y5701D02*
X11309D01*
X11249Y5691D02*
Y5731D01*
Y5691D02*
X11229Y5671D01*
X11209Y5691D01*
Y5731D01*
X11129D02*
Y5671D01*
X11089D02*
X11129Y5731D01*
X11089D02*
Y5671D01*
X11029Y5721D02*
X11039Y5731D01*
X11059D01*
X11069Y5721D01*
Y5681D01*
X11059Y5671D01*
X11039D01*
X11029Y5681D01*
X12034Y5601D02*
X12044Y5611D01*
X12064D01*
X12074Y5601D01*
Y5561D01*
X12064Y5551D01*
X12044D01*
X12034Y5561D01*
X12004Y5611D02*
X11984D01*
X12004D02*
X12014Y5601D01*
Y5561D01*
X12004Y5551D01*
X11984D01*
X11974Y5561D01*
Y5601D01*
X11984Y5611D01*
X11954D02*
Y5551D01*
Y5611D02*
X11924D01*
X11914Y5601D01*
Y5581D01*
X11924Y5571D01*
X11954D01*
X11894Y5601D02*
Y5611D01*
Y5601D02*
X11874Y5581D01*
X11854Y5601D01*
Y5611D01*
X11874Y5581D02*
Y5551D01*
X11834D02*
Y5611D01*
X11804D01*
X11794Y5601D01*
Y5581D01*
X11804Y5571D01*
X11834D01*
X11814D02*
X11794Y5551D01*
X11774Y5611D02*
X11754D01*
X11764D01*
Y5551D01*
X11774D01*
X11754D01*
X11694Y5611D02*
X11684Y5601D01*
X11694Y5611D02*
X11714D01*
X11724Y5601D01*
Y5561D01*
X11714Y5551D01*
X11694D01*
X11684Y5561D01*
Y5581D01*
X11704D01*
X11664Y5611D02*
Y5551D01*
Y5581D01*
X11624D01*
Y5611D01*
Y5551D01*
X11604Y5611D02*
X11564D01*
X11584D01*
Y5551D01*
X11484Y5571D02*
X11464Y5551D01*
X11484Y5571D02*
Y5591D01*
X11464Y5611D01*
X11404D02*
X11394Y5601D01*
X11404Y5611D02*
X11424D01*
X11434Y5601D01*
Y5561D01*
X11424Y5551D01*
X11404D01*
X11394Y5561D01*
X11374Y5551D02*
X11354Y5571D01*
Y5591D01*
X11374Y5611D01*
X11264Y5551D02*
X11224D01*
X11264D02*
X11224Y5591D01*
Y5601D01*
X11234Y5611D01*
X11254D01*
X11264Y5601D01*
X11204D02*
X11194Y5611D01*
X11174D01*
X11164Y5601D01*
Y5561D01*
X11174Y5551D01*
X11194D01*
X11204Y5561D01*
Y5601D01*
X11144D02*
X11134Y5611D01*
X11114D01*
X11104Y5601D01*
Y5561D01*
X11114Y5551D01*
X11134D01*
X11144Y5561D01*
Y5601D01*
X11054Y5611D02*
Y5551D01*
X11084Y5581D02*
X11054Y5611D01*
X11044Y5581D02*
X11084D01*
X10944Y5611D02*
X10924D01*
X10934D02*
X10944D01*
X10934D02*
Y5561D01*
X10944Y5551D01*
X10954D01*
X10964Y5561D01*
X10904Y5551D02*
Y5591D01*
X10884Y5611D01*
X10864Y5591D01*
Y5551D01*
Y5581D01*
X10904D01*
X10844Y5551D02*
Y5611D01*
X10824Y5591D01*
X10804Y5611D01*
Y5551D01*
X10784Y5611D02*
X10744D01*
X10784D02*
Y5551D01*
X10744D01*
X10764Y5581D02*
X10784D01*
X10694Y5611D02*
X10684Y5601D01*
X10694Y5611D02*
X10714D01*
X10724Y5601D01*
Y5591D01*
X10714Y5581D01*
X10694D01*
X10684Y5571D01*
Y5561D01*
X10694Y5551D01*
X10714D01*
X10724Y5561D01*
X10604Y5551D02*
Y5611D01*
X10574D01*
X10564Y5601D01*
Y5581D01*
X10574Y5571D01*
X10604D01*
X10544Y5551D02*
Y5591D01*
X10525Y5611D01*
X10505Y5591D01*
Y5551D01*
Y5581D01*
X10544D01*
X10485Y5611D02*
X10445D01*
X10465D01*
Y5551D01*
X10395Y5611D02*
X10385Y5601D01*
X10395Y5611D02*
X10415D01*
X10425Y5601D01*
Y5561D01*
X10415Y5551D01*
X10395D01*
X10385Y5561D01*
X10365Y5551D02*
Y5611D01*
Y5581D02*
Y5551D01*
Y5581D02*
X10325D01*
Y5611D01*
Y5551D01*
X10305Y5611D02*
X10265D01*
X10305D02*
Y5551D01*
X10265D01*
X10285Y5581D02*
X10305D01*
X10245Y5611D02*
Y5551D01*
X10205D01*
X10185D02*
Y5611D01*
Y5551D02*
X10145D01*
X6624Y5511D02*
Y10011D01*
X13124D02*
Y5511D01*
Y10011D02*
X6624D01*
Y5511D02*
X13124D01*
D14*
X8274Y8961D02*
X8124Y8811D01*
X8324D02*
X8449Y8936D01*
X12724Y8361D02*
X12949Y8586D01*
X12924Y8661D02*
X12724Y8461D01*
Y8561D02*
X12899Y8736D01*
X12849Y8886D02*
X12724Y8761D01*
X10349Y9736D02*
X10224Y9611D01*
X12724Y8661D02*
X12874Y8811D01*
X12949Y9311D02*
X12449Y9811D01*
X12424Y9786D02*
X12924Y9286D01*
X12899Y9261D02*
X12399Y9761D01*
X12374Y9736D02*
X12874Y9236D01*
X12849Y9211D02*
X12349Y9711D01*
X12324Y9686D02*
X12774Y9236D01*
X12724D02*
X12299Y9661D01*
X12174Y9411D02*
X12574Y9011D01*
Y8911D02*
X12099Y9386D01*
X11974Y5811D02*
X9024D01*
X6974Y7111D02*
X6924Y7061D01*
X8699Y5986D02*
X11574D01*
X11724Y6036D02*
X10374D01*
X7074Y6911D02*
X7024Y6861D01*
X7074Y6311D02*
X7024Y6261D01*
X7074Y7711D02*
X7024Y7761D01*
X7074Y7911D02*
X7024Y7961D01*
X7099Y8536D02*
X7074Y8561D01*
X7024Y6761D02*
X7074Y6711D01*
X7149Y6311D02*
X7199Y6261D01*
X9224D02*
X9324D01*
X9424Y6111D02*
X7349D01*
X11374Y6261D02*
X11474D01*
X11374Y6111D02*
X10674D01*
X10424Y6261D02*
X10324D01*
X8224D02*
X8124D01*
X7449D02*
X7199D01*
X7224Y6086D02*
X7324D01*
X7349Y6111D01*
X7324Y8536D02*
X7349Y8561D01*
Y8136D02*
X7299Y8086D01*
Y7711D02*
X7324Y7686D01*
X7274Y6911D02*
X7374Y6811D01*
X8874Y6336D02*
X10449D01*
X10949Y6361D02*
X8924D01*
X8874Y6411D02*
X8849D01*
X8799Y6361D02*
X8249D01*
X8949Y6386D02*
X11349D01*
X8899Y6436D02*
X8824D01*
X8774Y6386D02*
X8199D01*
X8974Y6411D02*
X11374D01*
X8924Y6461D02*
X8799D01*
X8749Y6411D02*
X8099D01*
X8999Y6436D02*
X11774D01*
X8724D02*
X7999D01*
X10974Y6336D02*
X11024D01*
X8174Y6361D02*
X8124D01*
X11399Y6336D02*
X11474D01*
X11424Y6386D02*
X11399D01*
X11799Y6411D02*
X11999D01*
X7149Y6311D02*
X7074D01*
X7549Y9311D02*
X7599Y9361D01*
X7524Y8861D02*
X7474Y8811D01*
X7424Y8611D02*
X7399Y8586D01*
X7424Y7111D02*
X7474Y7061D01*
X8774Y6486D02*
X8949D01*
X8424Y6636D02*
X9524D01*
X10624D01*
X11674D01*
X7699Y9661D02*
X7649Y9611D01*
X9624Y6786D02*
X9999D01*
X10224D02*
X11724D01*
X8924Y6736D02*
X8624D01*
X8324Y6811D02*
X7374D01*
X8499Y6786D02*
X9624D01*
X8424Y6711D02*
X7074D01*
X8524Y6686D02*
X9624D01*
X10724D01*
X11774D01*
X9724Y6736D02*
X8624D01*
X9724D02*
X10824D01*
X11874D01*
X7924Y6361D02*
Y6261D01*
X7899Y9386D02*
X7949Y9436D01*
X7999Y6436D02*
X7924Y6361D01*
Y9311D02*
X7874Y9361D01*
X7949Y8136D02*
X8024Y8061D01*
X7874Y7061D02*
X7924Y7011D01*
X7274Y6911D02*
X7074D01*
X9124Y7011D02*
X9224D01*
X10224D02*
X10324D01*
X12574Y6961D02*
X12674D01*
X11074Y6861D02*
X9124D01*
X8224D02*
X7449D01*
X8024Y6336D02*
Y6261D01*
X8124Y7986D02*
Y8061D01*
X8174Y7061D02*
X8124Y7011D01*
X8099Y6411D02*
X8024Y6336D01*
X8124Y8636D02*
X8149Y8661D01*
X8099Y9361D02*
X8074Y9386D01*
X8099Y9436D02*
X8149Y9386D01*
X7974Y8861D02*
X8024Y8811D01*
Y9611D02*
X7974Y9661D01*
Y7361D02*
X8024Y7311D01*
X8249Y7111D02*
X8274D01*
X8299D01*
X8324Y7086D02*
X8799D01*
X10649D01*
X9449Y7136D02*
X9374D01*
X9474Y7161D02*
X10124D01*
X10174Y7111D02*
X10299D01*
X10349Y7161D02*
X11774D01*
X8324D02*
X6824D01*
X6974Y7111D02*
X7424D01*
X8424Y7161D02*
X8474D01*
X8499Y7186D02*
X8924D01*
X8949Y7161D02*
X9124D01*
X9149Y7136D02*
X9224D01*
X10174Y7161D02*
X10224D01*
X10149Y7186D02*
X8974D01*
X8924Y7236D02*
X8674D01*
X12574Y7161D02*
X12674D01*
X9074Y7061D02*
X8174D01*
X6924D02*
X6824D01*
X7474D02*
X7874D01*
X9474D02*
X10474D01*
X12574D02*
X12674D01*
X8224Y6561D02*
Y6486D01*
Y6336D02*
Y6261D01*
X8324Y7761D02*
X8399Y7836D01*
X8249Y6361D02*
X8224Y6336D01*
X8174Y6361D02*
X8199Y6386D01*
X8324Y6811D02*
X8374Y6861D01*
X8224Y8161D02*
X8249Y8186D01*
X8274Y7361D02*
X8224Y7311D01*
Y8061D02*
X8299Y8136D01*
Y7111D02*
X8324Y7086D01*
X8299Y8636D02*
X8274Y8661D01*
Y8561D02*
X8324Y8511D01*
Y9611D02*
X8249Y9686D01*
X8124Y7386D02*
X9399D01*
X9374Y7411D02*
X9224D01*
X10424D02*
X10724D01*
X9424Y7361D02*
X8274D01*
X9449Y7386D02*
X10224D01*
X10449Y7436D02*
X11474D01*
X7974Y7361D02*
X6849D01*
X10249Y7411D02*
X10324D01*
X9324Y7311D02*
X9224D01*
X10324D02*
X10424D01*
X10474Y7361D02*
X9474D01*
X12574D02*
X12674D01*
Y7261D02*
X12574D01*
X8524Y6261D02*
Y6186D01*
X8424Y6561D02*
Y6636D01*
Y7986D02*
Y8061D01*
X8524Y7886D02*
X8474Y7836D01*
X8499Y6786D02*
X8424Y6711D01*
X8474Y7161D02*
X8499Y7186D01*
X8424Y7761D02*
X8474Y7811D01*
X8524Y8061D02*
X8574Y8111D01*
X8424Y8511D02*
X8474Y8561D01*
X8524Y8811D02*
X8624Y8911D01*
X8424Y9311D02*
X8374Y9361D01*
X9474Y7461D02*
X9524D01*
X9449Y7486D02*
X10399D01*
X9374Y7461D02*
X9324D01*
X9424Y7511D02*
X10499D01*
X10374Y7461D02*
X9524D01*
X9174D02*
X7974D01*
X9299Y7536D02*
X10524D01*
X9274Y7511D02*
X9224D01*
X10549Y7461D02*
X10699D01*
X10624Y7511D02*
X10549D01*
X9224Y7561D02*
X9199D01*
X10749Y7511D02*
X11524D01*
X10724Y7561D02*
X9224D01*
X9149Y7486D02*
X8949D01*
X8874Y7561D02*
X8224D01*
X8999Y7536D02*
X9124D01*
X8924Y7611D02*
X8074D01*
X9024D02*
X11224D01*
X12574Y7561D02*
X12674D01*
Y7461D02*
X12574D01*
X8799Y6461D02*
X8749Y6411D01*
X8724Y6436D02*
X8774Y6486D01*
X8974Y7836D02*
X10499D01*
X8474D02*
X8399D01*
X10549D02*
X11399D01*
X10524Y7811D02*
X10374D01*
X7299Y7711D02*
X7074D01*
X9574Y7811D02*
X10174D01*
X10574D02*
X11124D01*
X8949D02*
X8474D01*
X9174D02*
X9374D01*
X12574Y7661D02*
X12674D01*
X8974Y7836D02*
X8949Y7811D01*
X8849Y6411D02*
X8799Y6361D01*
X8774Y6386D02*
X8824Y6436D01*
X8949Y6486D02*
X8999Y6436D01*
X8924Y6361D02*
X8874Y6411D01*
X8899Y6436D02*
X8949Y6386D01*
X8974Y6411D02*
X8924Y6461D01*
X8949Y7486D02*
X8874Y7561D01*
X8924Y7611D02*
X8999Y7536D01*
X8899Y9661D02*
X8799Y9761D01*
X8924Y7186D02*
X8949Y7161D01*
X8974Y7186D02*
X8924Y7236D01*
X9624Y7911D02*
X7074D01*
X9649Y7936D02*
X9774D01*
X9799Y7911D02*
X9924D01*
X9724Y7886D02*
X8524D01*
X11249Y8011D02*
X11324D01*
X10649D02*
X10574D01*
X10424Y7911D02*
X10099D01*
X9974Y7861D02*
X10474D01*
X10499Y7886D02*
X10674D01*
X10699Y7911D02*
X10824D01*
X10524Y7861D02*
X11949D01*
X10049Y7961D02*
X9874D01*
X11049Y7911D02*
X11774D01*
X9124Y7311D02*
Y7236D01*
Y7761D02*
X9174Y7811D01*
X9049Y9736D02*
X9074Y9761D01*
X9124Y7161D02*
X9149Y7136D01*
X9074Y7061D02*
X9124Y7011D01*
X9324Y8161D02*
X11224D01*
X11174Y8136D02*
X10699D01*
X7949D02*
X7349D01*
X8249Y8186D02*
X8324D01*
X8224Y8161D02*
X7274D01*
X9249Y8186D02*
X12249D01*
X9174Y8111D02*
X8574D01*
X9399Y8136D02*
X10549D01*
X10174Y8111D02*
X9674D01*
X9224Y8211D02*
X12099D01*
X9149Y8136D02*
X8299D01*
X9324Y6561D02*
Y6486D01*
X9174Y7511D02*
Y7536D01*
X9274Y7511D02*
X9299Y7536D01*
X9199Y7561D02*
X9174Y7536D01*
Y7511D02*
X9149Y7486D01*
X9174Y8111D02*
X9249Y8186D01*
X9324Y8161D02*
X9224Y8061D01*
X9324D02*
X9399Y8136D01*
X9224Y8211D02*
X9149Y8136D01*
X9174Y7461D02*
X9224Y7411D01*
X9324Y9311D02*
X9249Y9386D01*
X9274Y9811D02*
X9224Y9861D01*
X9174Y9811D02*
X9199Y9786D01*
X9524Y8311D02*
X9824D01*
X10949Y8286D02*
X11474D01*
X11524Y8336D02*
X11674D01*
X11374Y8311D02*
X11024D01*
X11449Y8386D02*
X11974D01*
X12049Y8311D02*
X12124D01*
X10924D02*
X10324D01*
X9974D01*
X9299D02*
X8224D01*
X10174Y8261D02*
X11624D01*
X10974Y8361D02*
X10224D01*
X9524Y8311D02*
X9374D01*
X11074Y8361D02*
X11324D01*
X12124Y8236D02*
X12224D01*
X9524Y6636D02*
Y6561D01*
X9399Y7386D02*
X9474Y7461D01*
X9449Y7486D02*
X9374Y7411D01*
Y7461D02*
X9424Y7511D01*
X9449Y7386D02*
X9424Y7361D01*
X9524Y7761D02*
X9574Y7811D01*
X9474Y7161D02*
X9449Y7136D01*
X9424Y8961D02*
X9449Y8986D01*
X9474Y8961D02*
X9449Y8936D01*
X9474Y8911D02*
X9499Y8936D01*
X9524Y8911D02*
X9424Y8811D01*
X9474Y7061D02*
X9424Y7011D01*
Y7311D02*
X9474Y7361D01*
X9424Y9611D02*
X9374Y9661D01*
Y7811D02*
X9424Y7761D01*
X8274Y8561D02*
X7349D01*
X7324Y8536D02*
X7099D01*
X7074Y8561D02*
X6824D01*
X7424Y8611D02*
X8224D01*
X7399Y8586D02*
X7224D01*
X11299Y8611D02*
X12299D01*
X10199Y8561D02*
X8474D01*
X11299D02*
X11424D01*
X11249Y8611D02*
X10749D01*
X10474Y8561D02*
X11124D01*
X11199Y8586D02*
X10324D01*
X9624Y6261D02*
Y6186D01*
Y7911D02*
X9649Y7936D01*
X9624Y8061D02*
X9674Y8111D01*
X8124Y8636D02*
X7149D01*
X8424D02*
X8874D01*
X11474Y8661D02*
X11824D01*
X7474Y8811D02*
X7449D01*
X8149Y8661D02*
X8274D01*
X8299Y8636D02*
X8424D01*
X10774D02*
X11274D01*
X10724Y8686D02*
X10574D01*
X10524Y8636D02*
X10274D01*
X10624D02*
X10724D01*
X9974Y7861D02*
X9924Y7911D01*
X9799D02*
X9774Y7936D01*
X11224Y8961D02*
X12324D01*
X10274Y9011D02*
X10074D01*
X7974Y8861D02*
X7524D01*
X11174Y9011D02*
X12199D01*
X11149Y8986D02*
X9449D01*
X9424Y8961D02*
X8274D01*
X12274Y9011D02*
X12399D01*
X12249Y8986D02*
X11199D01*
X11174Y8961D02*
X9474D01*
X9449Y8936D02*
X8449D01*
X9499D02*
X11199D01*
X9474Y8911D02*
X8624D01*
X9524D02*
X11274D01*
X11624Y8861D02*
X10774D01*
X12574Y9011D02*
X12649D01*
X12699Y8961D02*
X12724D01*
X12674Y8911D02*
X12574D01*
X10224Y9411D02*
X10124Y9311D01*
Y7161D02*
X10174Y7111D01*
X10074Y9011D02*
X10049Y9036D01*
Y7961D02*
X10099Y7911D01*
X10049Y9036D02*
X9824D01*
X10299D02*
X11099D01*
X11124Y9061D02*
X11574D01*
X9124Y9036D02*
X8124D01*
X12249Y9061D02*
X12299D01*
X10674D02*
X10249D01*
X10724Y9111D02*
X11449D01*
X11499Y9161D02*
X11724D01*
X10674Y9111D02*
X10549D01*
X10724Y9161D02*
X11424D01*
X10624D02*
X10324D01*
X10224Y7311D02*
Y7236D01*
X10274Y9011D02*
X10299Y9036D01*
X10349Y7161D02*
X10299Y7111D01*
X10224Y7386D02*
X10249Y7411D01*
X10199Y8561D02*
X10274Y8636D01*
X10174Y7811D02*
X10224Y7761D01*
X10149Y7186D02*
X10174Y7161D01*
X10224Y8061D02*
X10174Y8111D01*
X8374Y9361D02*
X8099D01*
X8149Y9386D02*
X9249D01*
X7899D02*
X7499D01*
X7599Y9361D02*
X7874D01*
X10499Y9386D02*
X12099D01*
X10424Y6561D02*
Y6486D01*
X10474Y7861D02*
X10499Y7886D01*
X10524Y7861D02*
X10499Y7836D01*
X10374Y7811D02*
X10324Y7761D01*
X10424Y8511D02*
X10474Y8561D01*
X10424Y9311D02*
X10499Y9386D01*
X10374Y7461D02*
X10424Y7411D01*
X10449Y7436D02*
X10399Y7486D01*
X10499Y7511D02*
X10549Y7461D01*
X10449Y6336D02*
X10474Y6311D01*
X10524Y6261D01*
Y7011D02*
X10474Y7061D01*
X10524Y7311D02*
X10474Y7361D01*
X8099Y9436D02*
X7949D01*
X8899Y9461D02*
X9699D01*
X8899D02*
X8274D01*
X10224Y9411D02*
X12174D01*
X10624Y6636D02*
Y6561D01*
X10674Y8036D02*
Y8111D01*
X10699Y8136D01*
X10674Y8036D02*
X10649Y8011D01*
X10699Y7911D02*
X10674Y7886D01*
X10549Y7836D02*
X10524Y7811D01*
X10749Y7511D02*
X10699Y7461D01*
X10524Y7761D02*
X10574Y7811D01*
X10524Y8636D02*
X10574Y8686D01*
X10674Y9061D02*
X10724Y9111D01*
X10674D02*
X10724Y9161D01*
X10524Y9611D02*
X10624Y9711D01*
X10524Y7536D02*
X10549Y7511D01*
X10649Y7086D02*
X10724Y7011D01*
X10574Y8011D02*
X10524Y8061D01*
X10549Y8136D02*
X10624Y8061D01*
X9374Y9661D02*
X8899D01*
X8799Y9761D02*
X7549D01*
X7599Y9686D02*
X8249D01*
X7974Y9661D02*
X7699D01*
X9199Y9786D02*
X12424D01*
X12399Y9761D02*
X9074D01*
X10349Y9736D02*
X12374D01*
X12349Y9711D02*
X10624D01*
X11349Y9686D02*
X12324D01*
X12299Y9661D02*
X11624D01*
X9049Y9736D02*
X8974D01*
X10724Y6261D02*
Y6186D01*
Y8811D02*
X10774Y8861D01*
X10724Y7411D02*
X10824Y7311D01*
X10774Y8636D02*
X10724Y8686D01*
Y8636D02*
X10749Y8611D01*
X10424Y9911D02*
X9074D01*
X9224Y9861D02*
X8174D01*
X9274Y9811D02*
X12449D01*
X9174D02*
X9124D01*
X11099Y9036D02*
X11124Y9061D01*
X10924Y8311D02*
X10949Y8286D01*
Y6361D02*
X10974Y6336D01*
X11024Y8311D02*
X10974Y8361D01*
X11274Y8111D02*
Y8061D01*
X11224D02*
Y8036D01*
Y8061D02*
Y8086D01*
X11149Y8986D02*
X11174Y9011D01*
X11199Y8986D02*
X11174Y8961D01*
X11199Y8936D02*
X11224Y8961D01*
X11274Y9611D02*
X11349Y9686D01*
X11224Y8161D02*
X11274Y8111D01*
X11224Y8036D02*
X11249Y8011D01*
X11224Y8086D02*
X11174Y8136D01*
X11124Y7811D02*
X11174Y7761D01*
X11299Y8611D02*
X11274Y8636D01*
X11249Y8611D02*
X11299Y8561D01*
X11174Y8511D02*
X11124Y8561D01*
X11199Y8586D02*
X11274Y8511D01*
X11474Y6561D02*
Y6486D01*
X11324Y8011D02*
X11374Y8061D01*
X11474Y8286D02*
X11524Y8336D01*
X11449Y8386D02*
X11374Y8311D01*
X11524Y6386D02*
X11474Y6336D01*
X11449Y9111D02*
X11499Y9161D01*
X11399Y7836D02*
X11474Y7761D01*
X11349Y6386D02*
X11399Y6336D01*
Y6386D02*
X11374Y6411D01*
X11474Y8511D02*
X11424Y8561D01*
X11674Y6636D02*
Y6561D01*
X11574Y9611D02*
X11624Y9661D01*
Y8861D02*
X11674Y8811D01*
X11774Y6261D02*
Y6186D01*
Y6561D02*
Y6686D01*
X11874Y6736D02*
Y6561D01*
X11774Y6436D02*
X11799Y6411D01*
X12049Y7686D02*
Y7761D01*
Y8311D02*
X11974Y8386D01*
X11949Y7861D02*
X12049Y7761D01*
Y7686D02*
X12099Y7636D01*
X12224Y8236D02*
X12249Y8261D01*
X12124Y8236D02*
X12099Y8211D01*
X12224Y9036D02*
X12249Y9061D01*
X12224Y9036D02*
X12199Y9011D01*
X12249Y8986D02*
X12274Y9011D01*
X12099Y7636D02*
X12124Y7611D01*
X12524Y7711D02*
X12574Y7661D01*
X12524Y7611D02*
X12574Y7561D01*
X12524Y7511D02*
X12574Y7461D01*
X12524Y7411D02*
X12574Y7361D01*
X12524Y7311D02*
X12574Y7261D01*
X12524Y7211D02*
X12574Y7161D01*
X12524Y7111D02*
X12574Y7061D01*
X12524Y7011D02*
X12574Y6961D01*
X12699Y8961D02*
X12649Y9011D01*
X12849Y8886D02*
Y9211D01*
X12774Y9236D02*
Y9111D01*
X12724Y9161D02*
Y9236D01*
Y7711D02*
X12674Y7661D01*
X12724Y7611D02*
X12674Y7561D01*
X12724Y7511D02*
X12674Y7461D01*
X12724Y7411D02*
X12674Y7361D01*
X12724Y7311D02*
X12674Y7261D01*
X12724Y7211D02*
X12674Y7161D01*
X12724Y7111D02*
X12674Y7061D01*
X12724Y7011D02*
X12674Y6961D01*
X12724Y9061D02*
X12774Y9111D01*
X12674Y8911D02*
X12724Y8861D01*
X12949Y8586D02*
Y9311D01*
X12924Y9286D02*
Y8661D01*
X12899Y8736D02*
Y9261D01*
X12874Y9236D02*
Y8811D01*
D17*
X12724Y8211D02*
X12549Y8036D01*
X11549Y7986D02*
X11524Y7961D01*
X10774Y7986D02*
X10749Y7961D01*
X7424Y7011D02*
X7374Y6961D01*
X7474Y8727D02*
X7558Y8811D01*
X7474Y8883D02*
X7624Y9033D01*
Y9261D02*
X7674Y9311D01*
X7624Y6261D02*
X7524Y6161D01*
X12171Y6261D02*
X12299Y6389D01*
X12249Y8036D02*
X12224Y8061D01*
X11224Y7961D02*
X11199Y7986D01*
X10524Y7961D02*
X10499Y7986D01*
X12233Y6561D02*
X12249Y6545D01*
X7524Y6161D02*
X7124D01*
X7849Y6186D02*
X8624D01*
X7724Y6261D02*
X7624D01*
X7724D02*
X7849D01*
X8949Y6186D02*
X9724D01*
X8774Y6261D02*
X8624D01*
X8774D02*
X8949D01*
X10049Y6186D02*
X10824D01*
X9924Y6261D02*
X9724D01*
X9924D02*
X10049D01*
X12074D02*
X12171D01*
X11874Y6186D02*
X11099D01*
X10974Y6261D02*
X10824D01*
X10974D02*
X11099D01*
X11874D02*
X12074D01*
X12299Y6389D02*
X12424D01*
Y6545D02*
X12249D01*
X11949Y6486D02*
X11174D01*
X12074Y6561D02*
X12233D01*
X12074D02*
X11949D01*
X10899Y6486D02*
X10124D01*
X10974Y6561D02*
X11174D01*
X10974D02*
X10899D01*
X9799Y6486D02*
X9024D01*
X9924Y6561D02*
X10124D01*
X9924D02*
X9799D01*
X8699Y6486D02*
X7924D01*
X8774Y6561D02*
X9024D01*
X8774D02*
X8699D01*
X7924D02*
X7724D01*
X7624Y9033D02*
Y9261D01*
X7724Y7761D02*
Y7686D01*
X7924Y9536D02*
Y9611D01*
X7849Y9311D02*
Y9236D01*
X7924Y8811D02*
Y8736D01*
X7849Y8511D02*
Y8436D01*
X7924Y8061D02*
Y7986D01*
Y7311D02*
Y7236D01*
X7849Y7011D02*
Y6936D01*
X7924Y6561D02*
Y6486D01*
X7849Y6261D02*
Y6186D01*
X7724Y7011D02*
X7424D01*
X7724D02*
X7849D01*
X7374Y6961D02*
X7124D01*
X11099Y6936D02*
X11774D01*
Y7011D02*
X11974D01*
X11099D02*
X11024D01*
X10824Y6936D02*
X10049D01*
X10824Y7011D02*
X11024D01*
X10049D02*
X9924D01*
X9724Y6936D02*
X8949D01*
X9724Y7011D02*
X9924D01*
X8949D02*
X8774D01*
X8524Y6936D02*
X7849D01*
X8524Y7011D02*
X8774D01*
X11174Y7236D02*
X11849D01*
X10899D02*
X10124D01*
X9799D02*
X9024D01*
X8599D02*
X7924D01*
X11849Y7311D02*
X11974D01*
X11174D02*
X11024D01*
X10899D01*
X10124D02*
X9924D01*
X9799D01*
X9024D02*
X8774D01*
X8599D01*
X7924D02*
X7724D01*
X8524Y9236D02*
Y9311D01*
Y8511D02*
Y8436D01*
Y7761D02*
Y7686D01*
Y7011D02*
Y6936D01*
X8599Y9536D02*
Y9611D01*
Y8811D02*
Y8736D01*
Y8061D02*
Y7986D01*
Y7311D02*
Y7236D01*
X8699Y6561D02*
Y6486D01*
X8624Y6261D02*
Y6186D01*
X7724Y7761D02*
X7124D01*
X7724Y7686D02*
X8524D01*
X8949D02*
X9624D01*
X8774Y7761D02*
X8524D01*
X8774D02*
X8949D01*
X10049Y7686D02*
X10824D01*
X9924Y7761D02*
X9624D01*
X9924D02*
X10049D01*
X11099Y7686D02*
X11774D01*
X10974Y7761D02*
X10824D01*
X10974D02*
X11099D01*
X11774D02*
X11974D01*
X8949Y9236D02*
Y9311D01*
Y8511D02*
Y8436D01*
Y7761D02*
Y7686D01*
Y7011D02*
Y6936D01*
Y6261D02*
Y6186D01*
X11174Y7986D02*
X11199D01*
X11224Y7961D02*
X11524D01*
X11549Y7986D02*
X11849D01*
X10899D02*
X10774D01*
X10749Y7961D02*
X10524D01*
X10499Y7986D02*
X10124D01*
X9699D02*
X9024D01*
X8599D02*
X7924D01*
X9024Y9536D02*
Y9611D01*
Y8811D02*
Y8736D01*
Y8061D02*
Y7986D01*
Y7311D02*
Y7236D01*
Y6561D02*
Y6486D01*
X11974Y8061D02*
X12224D01*
X11974D02*
X11849D01*
X11174D02*
X10974D01*
X10899D01*
X10124D02*
X9924D01*
X9699D01*
X9024D02*
X8774D01*
X8599D01*
X7924D02*
X7724D01*
X12249Y8036D02*
X12549D01*
X11974Y8511D02*
X11774D01*
X11099D02*
X10974D01*
X10724D01*
X10049D02*
X9924D01*
X9624D01*
X8949D02*
X8774D01*
X8524D01*
X7849D02*
X7724D01*
X11124Y8436D02*
X11774D01*
X11124D02*
X11099D01*
X10724D02*
X10049D01*
X9624D02*
X8949D01*
X8524D02*
X7849D01*
X9699Y9536D02*
Y9611D01*
X9624Y9311D02*
Y9236D01*
X9699Y8811D02*
Y8736D01*
X9624Y8511D02*
Y8436D01*
X9699Y8061D02*
Y7986D01*
X9624Y7761D02*
Y7686D01*
X9724Y7011D02*
Y6936D01*
Y6261D02*
Y6186D01*
X11174Y8736D02*
X11849D01*
Y8811D02*
X11974D01*
X10799Y8736D02*
X10124D01*
X10974Y8811D02*
X11174D01*
X10974D02*
X10799D01*
X9699Y8736D02*
X9024D01*
X9924Y8811D02*
X10124D01*
X9924D02*
X9699D01*
X8599Y8736D02*
X7924D01*
X8774Y8811D02*
X9024D01*
X8774D02*
X8599D01*
X7924D02*
X7724D01*
X7558D01*
X7474Y8727D02*
X7324D01*
X9799Y7311D02*
Y7236D01*
Y6561D02*
Y6486D01*
X7474Y8883D02*
X7324D01*
X10124Y9536D02*
Y9611D01*
Y8811D02*
Y8736D01*
Y8061D02*
Y7986D01*
Y7311D02*
Y7236D01*
Y6561D02*
Y6486D01*
X10049Y9236D02*
Y9311D01*
Y8511D02*
Y8436D01*
Y7761D02*
Y7686D01*
Y7011D02*
Y6936D01*
Y6261D02*
Y6186D01*
X8524Y9236D02*
X7849D01*
X8949D02*
X9624D01*
X8774Y9311D02*
X8524D01*
X8774D02*
X8949D01*
X10049Y9236D02*
X10724D01*
X9924Y9311D02*
X9624D01*
X9924D02*
X10049D01*
X11099Y9236D02*
X11774D01*
X10974Y9311D02*
X10724D01*
X10974D02*
X11099D01*
X11774D02*
X11974D01*
X7849D02*
X7724D01*
X7674D01*
X11174Y9536D02*
X11874D01*
X10799D02*
X10124D01*
X9699D02*
X9024D01*
X8599D02*
X7924D01*
X11874Y9611D02*
X11974D01*
X11174D02*
X10974D01*
X10799D01*
X10124D02*
X9924D01*
X9699D01*
X9024D02*
X8774D01*
X8599D01*
X7924D02*
X7724D01*
X10899Y8061D02*
Y7986D01*
Y7311D02*
Y7236D01*
Y6561D02*
Y6486D01*
X10799Y9536D02*
Y9611D01*
X10724Y9311D02*
Y9236D01*
X10799Y8811D02*
Y8736D01*
X10724Y8511D02*
Y8436D01*
X10824Y7761D02*
Y7686D01*
Y7011D02*
Y6936D01*
Y6261D02*
Y6186D01*
X11099Y9236D02*
Y9311D01*
Y8511D02*
Y8436D01*
Y7761D02*
Y7686D01*
Y7011D02*
Y6936D01*
Y6261D02*
Y6186D01*
X11174Y9536D02*
Y9611D01*
Y8811D02*
Y8736D01*
Y8061D02*
Y7986D01*
Y7311D02*
Y7236D01*
Y6561D02*
Y6486D01*
X11874Y9536D02*
Y9561D01*
Y9611D01*
X11774Y9311D02*
Y9236D01*
X11849Y8811D02*
Y8736D01*
X11774Y8511D02*
Y8436D01*
X11849Y8061D02*
Y7986D01*
X11774Y7761D02*
Y7686D01*
X11849Y7311D02*
Y7236D01*
X11774Y7011D02*
Y6936D01*
X11874Y6261D02*
Y6186D01*
X11949Y6486D02*
Y6561D01*
X12724Y8211D02*
Y8261D01*
X12749Y9761D02*
X12750D01*
X12749D02*
X12749Y9751D01*
X12751Y9741D01*
X12753Y9731D01*
X12755Y9721D01*
X12759Y9712D01*
X12763Y9703D01*
X12768Y9694D01*
X12774Y9686D01*
X12780Y9678D01*
X12787Y9671D01*
X12795Y9664D01*
X12803Y9658D01*
X12812Y9653D01*
X12820Y9648D01*
X12830Y9644D01*
X12839Y9641D01*
X12849Y9639D01*
X12859Y9637D01*
X12869Y9636D01*
X12879D01*
X12889Y9637D01*
X12899Y9639D01*
X12909Y9641D01*
X12918Y9644D01*
X12928Y9648D01*
X12936Y9653D01*
X12945Y9658D01*
X12953Y9664D01*
X12961Y9671D01*
X12968Y9678D01*
X12974Y9686D01*
X12980Y9694D01*
X12985Y9703D01*
X12989Y9712D01*
X12993Y9721D01*
X12995Y9731D01*
X12997Y9741D01*
X12999Y9751D01*
X12999Y9761D01*
X13000D01*
X12999D02*
X12999Y9771D01*
X12997Y9781D01*
X12995Y9791D01*
X12993Y9801D01*
X12989Y9810D01*
X12985Y9819D01*
X12980Y9828D01*
X12974Y9836D01*
X12968Y9844D01*
X12961Y9851D01*
X12953Y9858D01*
X12945Y9864D01*
X12936Y9869D01*
X12928Y9874D01*
X12918Y9878D01*
X12909Y9881D01*
X12899Y9883D01*
X12889Y9885D01*
X12879Y9886D01*
X12869D01*
X12859Y9885D01*
X12849Y9883D01*
X12839Y9881D01*
X12830Y9878D01*
X12820Y9874D01*
X12812Y9869D01*
X12803Y9864D01*
X12795Y9858D01*
X12787Y9851D01*
X12780Y9844D01*
X12774Y9836D01*
X12768Y9828D01*
X12763Y9819D01*
X12759Y9810D01*
X12755Y9801D01*
X12753Y9791D01*
X12751Y9781D01*
X12749Y9771D01*
X12749Y9761D01*
X12797D02*
X12798D01*
X12797D02*
X12798Y9752D01*
X12799Y9743D01*
X12802Y9735D01*
X12805Y9726D01*
X12810Y9719D01*
X12815Y9712D01*
X12821Y9705D01*
X12828Y9699D01*
X12836Y9694D01*
X12844Y9690D01*
X12852Y9687D01*
X12861Y9685D01*
X12870Y9684D01*
X12878D01*
X12887Y9685D01*
X12896Y9687D01*
X12904Y9690D01*
X12912Y9694D01*
X12920Y9699D01*
X12927Y9705D01*
X12933Y9712D01*
X12938Y9719D01*
X12943Y9726D01*
X12946Y9735D01*
X12949Y9743D01*
X12950Y9752D01*
X12951Y9761D01*
X12952D01*
X12951D02*
X12950Y9770D01*
X12949Y9779D01*
X12946Y9787D01*
X12943Y9796D01*
X12938Y9803D01*
X12933Y9810D01*
X12927Y9817D01*
X12920Y9823D01*
X12912Y9828D01*
X12904Y9832D01*
X12896Y9835D01*
X12887Y9837D01*
X12878Y9838D01*
X12870D01*
X12861Y9837D01*
X12852Y9835D01*
X12844Y9832D01*
X12836Y9828D01*
X12828Y9823D01*
X12821Y9817D01*
X12815Y9810D01*
X12810Y9803D01*
X12805Y9796D01*
X12802Y9787D01*
X12799Y9779D01*
X12798Y9770D01*
X12797Y9761D01*
X12845D02*
X12846D01*
X12845D02*
X12846Y9755D01*
X12848Y9749D01*
X12851Y9744D01*
X12855Y9739D01*
X12860Y9736D01*
X12865Y9733D01*
X12871Y9732D01*
X12877D01*
X12883Y9733D01*
X12888Y9736D01*
X12893Y9739D01*
X12897Y9744D01*
X12900Y9749D01*
X12902Y9755D01*
X12903Y9761D01*
X12904D01*
X12903D02*
X12902Y9767D01*
X12900Y9773D01*
X12897Y9778D01*
X12893Y9783D01*
X12888Y9786D01*
X12883Y9789D01*
X12877Y9790D01*
X12871D01*
X12865Y9789D01*
X12860Y9786D01*
X12855Y9783D01*
X12851Y9778D01*
X12848Y9773D01*
X12846Y9767D01*
X12845Y9761D01*
X12874D02*
D03*
X12749Y5761D02*
X12750D01*
X12749D02*
X12749Y5751D01*
X12751Y5741D01*
X12753Y5731D01*
X12755Y5721D01*
X12759Y5712D01*
X12763Y5703D01*
X12768Y5694D01*
X12774Y5686D01*
X12780Y5678D01*
X12787Y5671D01*
X12795Y5664D01*
X12803Y5658D01*
X12812Y5653D01*
X12820Y5648D01*
X12830Y5644D01*
X12839Y5641D01*
X12849Y5639D01*
X12859Y5637D01*
X12869Y5636D01*
X12879D01*
X12889Y5637D01*
X12899Y5639D01*
X12909Y5641D01*
X12918Y5644D01*
X12928Y5648D01*
X12936Y5653D01*
X12945Y5658D01*
X12953Y5664D01*
X12961Y5671D01*
X12968Y5678D01*
X12974Y5686D01*
X12980Y5694D01*
X12985Y5703D01*
X12989Y5712D01*
X12993Y5721D01*
X12995Y5731D01*
X12997Y5741D01*
X12999Y5751D01*
X12999Y5761D01*
X13000D01*
X12999D02*
X12999Y5771D01*
X12997Y5781D01*
X12995Y5791D01*
X12993Y5801D01*
X12989Y5810D01*
X12985Y5819D01*
X12980Y5828D01*
X12974Y5836D01*
X12968Y5844D01*
X12961Y5851D01*
X12953Y5858D01*
X12945Y5864D01*
X12936Y5869D01*
X12928Y5874D01*
X12918Y5878D01*
X12909Y5881D01*
X12899Y5883D01*
X12889Y5885D01*
X12879Y5886D01*
X12869D01*
X12859Y5885D01*
X12849Y5883D01*
X12839Y5881D01*
X12830Y5878D01*
X12820Y5874D01*
X12812Y5869D01*
X12803Y5864D01*
X12795Y5858D01*
X12787Y5851D01*
X12780Y5844D01*
X12774Y5836D01*
X12768Y5828D01*
X12763Y5819D01*
X12759Y5810D01*
X12755Y5801D01*
X12753Y5791D01*
X12751Y5781D01*
X12749Y5771D01*
X12749Y5761D01*
X12797D02*
X12798D01*
X12797D02*
X12798Y5752D01*
X12799Y5743D01*
X12802Y5735D01*
X12805Y5726D01*
X12810Y5719D01*
X12815Y5712D01*
X12821Y5705D01*
X12828Y5699D01*
X12836Y5694D01*
X12844Y5690D01*
X12852Y5687D01*
X12861Y5685D01*
X12870Y5684D01*
X12878D01*
X12887Y5685D01*
X12896Y5687D01*
X12904Y5690D01*
X12912Y5694D01*
X12920Y5699D01*
X12927Y5705D01*
X12933Y5712D01*
X12938Y5719D01*
X12943Y5726D01*
X12946Y5735D01*
X12949Y5743D01*
X12950Y5752D01*
X12951Y5761D01*
X12952D01*
X12951D02*
X12950Y5770D01*
X12949Y5779D01*
X12946Y5787D01*
X12943Y5796D01*
X12938Y5803D01*
X12933Y5810D01*
X12927Y5817D01*
X12920Y5823D01*
X12912Y5828D01*
X12904Y5832D01*
X12896Y5835D01*
X12887Y5837D01*
X12878Y5838D01*
X12870D01*
X12861Y5837D01*
X12852Y5835D01*
X12844Y5832D01*
X12836Y5828D01*
X12828Y5823D01*
X12821Y5817D01*
X12815Y5810D01*
X12810Y5803D01*
X12805Y5796D01*
X12802Y5787D01*
X12799Y5779D01*
X12798Y5770D01*
X12797Y5761D01*
X12845D02*
X12846D01*
X12845D02*
X12846Y5755D01*
X12848Y5749D01*
X12851Y5744D01*
X12855Y5739D01*
X12860Y5736D01*
X12865Y5733D01*
X12871Y5732D01*
X12877D01*
X12883Y5733D01*
X12888Y5736D01*
X12893Y5739D01*
X12897Y5744D01*
X12900Y5749D01*
X12902Y5755D01*
X12903Y5761D01*
X12904D01*
X12903D02*
X12902Y5767D01*
X12900Y5773D01*
X12897Y5778D01*
X12893Y5783D01*
X12888Y5786D01*
X12883Y5789D01*
X12877Y5790D01*
X12871D01*
X12865Y5789D01*
X12860Y5786D01*
X12855Y5783D01*
X12851Y5778D01*
X12848Y5773D01*
X12846Y5767D01*
X12845Y5761D01*
X12874D02*
D03*
X6749Y9761D02*
X6750D01*
X6749D02*
X6749Y9751D01*
X6751Y9741D01*
X6753Y9731D01*
X6755Y9721D01*
X6759Y9712D01*
X6763Y9703D01*
X6768Y9694D01*
X6774Y9686D01*
X6780Y9678D01*
X6787Y9671D01*
X6795Y9664D01*
X6803Y9658D01*
X6812Y9653D01*
X6820Y9648D01*
X6830Y9644D01*
X6839Y9641D01*
X6849Y9639D01*
X6859Y9637D01*
X6869Y9636D01*
X6879D01*
X6889Y9637D01*
X6899Y9639D01*
X6909Y9641D01*
X6918Y9644D01*
X6928Y9648D01*
X6936Y9653D01*
X6945Y9658D01*
X6953Y9664D01*
X6961Y9671D01*
X6968Y9678D01*
X6974Y9686D01*
X6980Y9694D01*
X6985Y9703D01*
X6989Y9712D01*
X6993Y9721D01*
X6995Y9731D01*
X6997Y9741D01*
X6999Y9751D01*
X6999Y9761D01*
X7000D01*
X6999D02*
X6999Y9771D01*
X6997Y9781D01*
X6995Y9791D01*
X6993Y9801D01*
X6989Y9810D01*
X6985Y9819D01*
X6980Y9828D01*
X6974Y9836D01*
X6968Y9844D01*
X6961Y9851D01*
X6953Y9858D01*
X6945Y9864D01*
X6936Y9869D01*
X6928Y9874D01*
X6918Y9878D01*
X6909Y9881D01*
X6899Y9883D01*
X6889Y9885D01*
X6879Y9886D01*
X6869D01*
X6859Y9885D01*
X6849Y9883D01*
X6839Y9881D01*
X6830Y9878D01*
X6820Y9874D01*
X6812Y9869D01*
X6803Y9864D01*
X6795Y9858D01*
X6787Y9851D01*
X6780Y9844D01*
X6774Y9836D01*
X6768Y9828D01*
X6763Y9819D01*
X6759Y9810D01*
X6755Y9801D01*
X6753Y9791D01*
X6751Y9781D01*
X6749Y9771D01*
X6749Y9761D01*
X6797D02*
X6798D01*
X6797D02*
X6798Y9752D01*
X6799Y9743D01*
X6802Y9735D01*
X6805Y9726D01*
X6810Y9719D01*
X6815Y9712D01*
X6821Y9705D01*
X6828Y9699D01*
X6836Y9694D01*
X6844Y9690D01*
X6852Y9687D01*
X6861Y9685D01*
X6870Y9684D01*
X6878D01*
X6887Y9685D01*
X6896Y9687D01*
X6904Y9690D01*
X6912Y9694D01*
X6920Y9699D01*
X6927Y9705D01*
X6933Y9712D01*
X6938Y9719D01*
X6943Y9726D01*
X6946Y9735D01*
X6949Y9743D01*
X6950Y9752D01*
X6951Y9761D01*
X6952D01*
X6951D02*
X6950Y9770D01*
X6949Y9779D01*
X6946Y9787D01*
X6943Y9796D01*
X6938Y9803D01*
X6933Y9810D01*
X6927Y9817D01*
X6920Y9823D01*
X6912Y9828D01*
X6904Y9832D01*
X6896Y9835D01*
X6887Y9837D01*
X6878Y9838D01*
X6870D01*
X6861Y9837D01*
X6852Y9835D01*
X6844Y9832D01*
X6836Y9828D01*
X6828Y9823D01*
X6821Y9817D01*
X6815Y9810D01*
X6810Y9803D01*
X6805Y9796D01*
X6802Y9787D01*
X6799Y9779D01*
X6798Y9770D01*
X6797Y9761D01*
X6845D02*
X6846D01*
X6845D02*
X6846Y9755D01*
X6848Y9749D01*
X6851Y9744D01*
X6855Y9739D01*
X6860Y9736D01*
X6865Y9733D01*
X6871Y9732D01*
X6877D01*
X6883Y9733D01*
X6888Y9736D01*
X6893Y9739D01*
X6897Y9744D01*
X6900Y9749D01*
X6902Y9755D01*
X6903Y9761D01*
X6904D01*
X6903D02*
X6902Y9767D01*
X6900Y9773D01*
X6897Y9778D01*
X6893Y9783D01*
X6888Y9786D01*
X6883Y9789D01*
X6877Y9790D01*
X6871D01*
X6865Y9789D01*
X6860Y9786D01*
X6855Y9783D01*
X6851Y9778D01*
X6848Y9773D01*
X6846Y9767D01*
X6845Y9761D01*
X6874D02*
D03*
X6749Y5761D02*
X6750D01*
X6749D02*
X6749Y5751D01*
X6751Y5741D01*
X6753Y5731D01*
X6755Y5721D01*
X6759Y5712D01*
X6763Y5703D01*
X6768Y5694D01*
X6774Y5686D01*
X6780Y5678D01*
X6787Y5671D01*
X6795Y5664D01*
X6803Y5658D01*
X6812Y5653D01*
X6820Y5648D01*
X6830Y5644D01*
X6839Y5641D01*
X6849Y5639D01*
X6859Y5637D01*
X6869Y5636D01*
X6879D01*
X6889Y5637D01*
X6899Y5639D01*
X6909Y5641D01*
X6918Y5644D01*
X6928Y5648D01*
X6936Y5653D01*
X6945Y5658D01*
X6953Y5664D01*
X6961Y5671D01*
X6968Y5678D01*
X6974Y5686D01*
X6980Y5694D01*
X6985Y5703D01*
X6989Y5712D01*
X6993Y5721D01*
X6995Y5731D01*
X6997Y5741D01*
X6999Y5751D01*
X6999Y5761D01*
X7000D01*
X6999D02*
X6999Y5771D01*
X6997Y5781D01*
X6995Y5791D01*
X6993Y5801D01*
X6989Y5810D01*
X6985Y5819D01*
X6980Y5828D01*
X6974Y5836D01*
X6968Y5844D01*
X6961Y5851D01*
X6953Y5858D01*
X6945Y5864D01*
X6936Y5869D01*
X6928Y5874D01*
X6918Y5878D01*
X6909Y5881D01*
X6899Y5883D01*
X6889Y5885D01*
X6879Y5886D01*
X6869D01*
X6859Y5885D01*
X6849Y5883D01*
X6839Y5881D01*
X6830Y5878D01*
X6820Y5874D01*
X6812Y5869D01*
X6803Y5864D01*
X6795Y5858D01*
X6787Y5851D01*
X6780Y5844D01*
X6774Y5836D01*
X6768Y5828D01*
X6763Y5819D01*
X6759Y5810D01*
X6755Y5801D01*
X6753Y5791D01*
X6751Y5781D01*
X6749Y5771D01*
X6749Y5761D01*
X6797D02*
X6798D01*
X6797D02*
X6798Y5752D01*
X6799Y5743D01*
X6802Y5735D01*
X6805Y5726D01*
X6810Y5719D01*
X6815Y5712D01*
X6821Y5705D01*
X6828Y5699D01*
X6836Y5694D01*
X6844Y5690D01*
X6852Y5687D01*
X6861Y5685D01*
X6870Y5684D01*
X6878D01*
X6887Y5685D01*
X6896Y5687D01*
X6904Y5690D01*
X6912Y5694D01*
X6920Y5699D01*
X6927Y5705D01*
X6933Y5712D01*
X6938Y5719D01*
X6943Y5726D01*
X6946Y5735D01*
X6949Y5743D01*
X6950Y5752D01*
X6951Y5761D01*
X6952D01*
X6951D02*
X6950Y5770D01*
X6949Y5779D01*
X6946Y5787D01*
X6943Y5796D01*
X6938Y5803D01*
X6933Y5810D01*
X6927Y5817D01*
X6920Y5823D01*
X6912Y5828D01*
X6904Y5832D01*
X6896Y5835D01*
X6887Y5837D01*
X6878Y5838D01*
X6870D01*
X6861Y5837D01*
X6852Y5835D01*
X6844Y5832D01*
X6836Y5828D01*
X6828Y5823D01*
X6821Y5817D01*
X6815Y5810D01*
X6810Y5803D01*
X6805Y5796D01*
X6802Y5787D01*
X6799Y5779D01*
X6798Y5770D01*
X6797Y5761D01*
X6845D02*
X6846D01*
X6845D02*
X6846Y5755D01*
X6848Y5749D01*
X6851Y5744D01*
X6855Y5739D01*
X6860Y5736D01*
X6865Y5733D01*
X6871Y5732D01*
X6877D01*
X6883Y5733D01*
X6888Y5736D01*
X6893Y5739D01*
X6897Y5744D01*
X6900Y5749D01*
X6902Y5755D01*
X6903Y5761D01*
X6904D01*
X6903D02*
X6902Y5767D01*
X6900Y5773D01*
X6897Y5778D01*
X6893Y5783D01*
X6888Y5786D01*
X6883Y5789D01*
X6877Y5790D01*
X6871D01*
X6865Y5789D01*
X6860Y5786D01*
X6855Y5783D01*
X6851Y5778D01*
X6848Y5773D01*
X6846Y5767D01*
X6845Y5761D01*
X6874D02*
D03*
D19*
X12324Y8961D02*
D03*
X12299Y8611D02*
D03*
Y9061D02*
D03*
X12399Y9011D02*
D03*
X12249Y8186D02*
D03*
Y8261D02*
D03*
X12124Y8311D02*
D03*
X11999Y6411D02*
D03*
X11974Y5811D02*
D03*
X11774Y7911D02*
D03*
X11824Y8661D02*
D03*
X11724Y9161D02*
D03*
X11774Y7161D02*
D03*
X11724Y6786D02*
D03*
Y6036D02*
D03*
X11574Y9061D02*
D03*
X11674Y8336D02*
D03*
X11624Y8261D02*
D03*
X11574Y6936D02*
D03*
X11524Y7511D02*
D03*
Y6386D02*
D03*
X11574Y5986D02*
D03*
X11474Y8661D02*
D03*
X11424Y9161D02*
D03*
X11324Y8361D02*
D03*
X11474Y7436D02*
D03*
X11374Y6111D02*
D03*
X11424Y6386D02*
D03*
X11274Y8911D02*
D03*
X11224Y7611D02*
D03*
X11049Y7911D02*
D03*
X11074Y8361D02*
D03*
Y6861D02*
D03*
X11024Y6336D02*
D03*
X10824Y7911D02*
D03*
X10724Y7561D02*
D03*
Y6686D02*
D03*
X10824Y6736D02*
D03*
X10549Y9111D02*
D03*
X10624Y9161D02*
D03*
Y8636D02*
D03*
X10524Y6936D02*
D03*
X10674Y6111D02*
D03*
X10624Y7511D02*
D03*
X10424Y9911D02*
D03*
Y7911D02*
D03*
X10324Y8311D02*
D03*
Y9161D02*
D03*
Y8586D02*
D03*
Y7411D02*
D03*
X10374Y6036D02*
D03*
X10174Y8261D02*
D03*
X10224Y8361D02*
D03*
X10249Y9061D02*
D03*
X10224Y6786D02*
D03*
Y7161D02*
D03*
X9974Y8311D02*
D03*
X9999Y6786D02*
D03*
X9824Y8311D02*
D03*
Y9036D02*
D03*
X9874Y7961D02*
D03*
X9699Y9461D02*
D03*
X9724Y7886D02*
D03*
X9624Y6786D02*
D03*
Y6686D02*
D03*
X9724Y6736D02*
D03*
X9374Y8311D02*
D03*
X9524D02*
D03*
X9424Y6936D02*
D03*
Y6111D02*
D03*
X9374Y7136D02*
D03*
X9299Y8311D02*
D03*
X9324Y7461D02*
D03*
X9224Y7511D02*
D03*
Y7136D02*
D03*
X9074Y9911D02*
D03*
X9124Y9811D02*
D03*
X8974Y9736D02*
D03*
X9124Y9036D02*
D03*
Y6861D02*
D03*
Y7536D02*
D03*
X9024Y7611D02*
D03*
Y5811D02*
D03*
X8874Y8636D02*
D03*
Y6336D02*
D03*
X8924Y6736D02*
D03*
X8674Y7236D02*
D03*
X8624Y6736D02*
D03*
X8699Y5986D02*
D03*
X8424Y8636D02*
D03*
X8374Y6861D02*
D03*
X8424Y7161D02*
D03*
X8524Y6686D02*
D03*
X8274Y9461D02*
D03*
X8174Y9861D02*
D03*
X8224Y8311D02*
D03*
Y8611D02*
D03*
X8324Y8186D02*
D03*
X8249Y7111D02*
D03*
X8224Y7561D02*
D03*
Y6861D02*
D03*
X8324Y7161D02*
D03*
X8074Y9386D02*
D03*
X8124Y9036D02*
D03*
Y7386D02*
D03*
X7974Y7461D02*
D03*
X8074Y7611D02*
D03*
X8124Y6361D02*
D03*
X7599Y9686D02*
D03*
X7649Y9611D02*
D03*
X7549Y9761D02*
D03*
Y9311D02*
D03*
X7499Y9386D02*
D03*
X7449Y8811D02*
D03*
Y6261D02*
D03*
Y6861D02*
D03*
X7324Y7686D02*
D03*
X7224Y8586D02*
D03*
X7299Y8086D02*
D03*
X7274Y8161D02*
D03*
X7224Y6086D02*
D03*
X7149Y8636D02*
D03*
X6824Y8561D02*
D03*
X6849Y7361D02*
D03*
X6824Y7161D02*
D03*
Y7061D02*
D03*
X11974Y9611D02*
D03*
Y9311D02*
D03*
X12724Y7711D02*
D03*
X12624Y7611D02*
D03*
X12724D02*
D03*
X12624Y7511D02*
D03*
X12724D02*
D03*
X12624Y7411D02*
D03*
X12724D02*
D03*
X12624Y7311D02*
D03*
X12724D02*
D03*
X12624Y7211D02*
D03*
X12724D02*
D03*
X12624Y7111D02*
D03*
X12724D02*
D03*
X12624Y7011D02*
D03*
X12724D02*
D03*
Y8261D02*
D03*
X12624D02*
D03*
X12724Y8361D02*
D03*
X12624D02*
D03*
X12724Y8461D02*
D03*
X12624D02*
D03*
X12724Y8561D02*
D03*
X12624D02*
D03*
X12724Y8661D02*
D03*
X12624D02*
D03*
X12724Y8761D02*
D03*
X12624D02*
D03*
X12724Y8861D02*
D03*
X12624D02*
D03*
X12724Y8961D02*
D03*
X12624D02*
D03*
X12724Y9061D02*
D03*
X12624D02*
D03*
X12724Y9161D02*
D03*
X11974Y8811D02*
D03*
Y8511D02*
D03*
X12124Y7711D02*
D03*
X12524D02*
D03*
X11974Y8061D02*
D03*
Y7761D02*
D03*
X12124Y7011D02*
D03*
X12524D02*
D03*
X12124Y7111D02*
D03*
X12524D02*
D03*
X12124Y7211D02*
D03*
X12524D02*
D03*
X12124Y7311D02*
D03*
X12524D02*
D03*
X12124Y7411D02*
D03*
X12524D02*
D03*
X12124Y7511D02*
D03*
X12524D02*
D03*
X12124Y7611D02*
D03*
X12524D02*
D03*
X11974Y7311D02*
D03*
Y7011D02*
D03*
X12074Y6561D02*
D03*
Y6261D02*
D03*
X11274Y9311D02*
D03*
X11474D02*
D03*
X11574D02*
D03*
X11674D02*
D03*
X11774D02*
D03*
Y9611D02*
D03*
X11674D02*
D03*
X11574D02*
D03*
X11474D02*
D03*
X11374D02*
D03*
X11274D02*
D03*
X11174D02*
D03*
X11374Y9311D02*
D03*
X10974Y9611D02*
D03*
Y9311D02*
D03*
X11274Y7761D02*
D03*
X11474D02*
D03*
X11574D02*
D03*
X11674D02*
D03*
X11774D02*
D03*
Y8061D02*
D03*
X11674D02*
D03*
X11574D02*
D03*
X11474D02*
D03*
X11374D02*
D03*
X11274D02*
D03*
X11174D02*
D03*
X11374Y7761D02*
D03*
X11274Y8511D02*
D03*
X11474D02*
D03*
X11574D02*
D03*
X11674D02*
D03*
X11774D02*
D03*
Y8811D02*
D03*
X11674D02*
D03*
X11574D02*
D03*
X11474D02*
D03*
X11374D02*
D03*
X11274D02*
D03*
X11174D02*
D03*
X11374Y8511D02*
D03*
X10974Y8061D02*
D03*
Y7761D02*
D03*
Y8811D02*
D03*
Y8511D02*
D03*
X11024Y7311D02*
D03*
Y7011D02*
D03*
X10974Y6561D02*
D03*
Y6261D02*
D03*
X11274D02*
D03*
X11374D02*
D03*
X11474D02*
D03*
X11574D02*
D03*
X11674D02*
D03*
X11774D02*
D03*
X11874D02*
D03*
Y6561D02*
D03*
X11774D02*
D03*
X11674D02*
D03*
X11574D02*
D03*
X11474D02*
D03*
X11374D02*
D03*
X11274D02*
D03*
X11174D02*
D03*
X11274Y7011D02*
D03*
X11474D02*
D03*
X11574D02*
D03*
X11674D02*
D03*
X11774D02*
D03*
Y7311D02*
D03*
X11674D02*
D03*
X11574D02*
D03*
X11474D02*
D03*
X11374D02*
D03*
X11274D02*
D03*
X11174D02*
D03*
X11374Y7011D02*
D03*
X9124Y9311D02*
D03*
X9324D02*
D03*
X9424D02*
D03*
X9524D02*
D03*
X9624D02*
D03*
Y9611D02*
D03*
X9524D02*
D03*
X9424D02*
D03*
X9324D02*
D03*
X9224D02*
D03*
X9124D02*
D03*
X9024D02*
D03*
X9224Y9311D02*
D03*
X10224D02*
D03*
X10424D02*
D03*
X10524D02*
D03*
X10624D02*
D03*
X10724D02*
D03*
Y9611D02*
D03*
X10624D02*
D03*
X10524D02*
D03*
X10424D02*
D03*
X10324D02*
D03*
X10224D02*
D03*
X10124D02*
D03*
X10324Y9311D02*
D03*
X8774Y9611D02*
D03*
Y9311D02*
D03*
X9924Y9611D02*
D03*
Y9311D02*
D03*
X9124Y8511D02*
D03*
X9324D02*
D03*
X9424D02*
D03*
X9524D02*
D03*
X9624D02*
D03*
Y8811D02*
D03*
X9524D02*
D03*
X9424D02*
D03*
X9324D02*
D03*
X9224D02*
D03*
X9124D02*
D03*
X9024D02*
D03*
X9224Y8511D02*
D03*
X9124Y7761D02*
D03*
X9324D02*
D03*
X9424D02*
D03*
X9524D02*
D03*
X9624D02*
D03*
Y8061D02*
D03*
X9524D02*
D03*
X9424D02*
D03*
X9324D02*
D03*
X9224D02*
D03*
X9124D02*
D03*
X9024D02*
D03*
X9224Y7761D02*
D03*
X10224D02*
D03*
X10324D02*
D03*
X10424D02*
D03*
X10524D02*
D03*
X10624D02*
D03*
X10724D02*
D03*
X10824D02*
D03*
Y8061D02*
D03*
X10724D02*
D03*
X10624D02*
D03*
X10524D02*
D03*
X10424D02*
D03*
X10324D02*
D03*
X10224D02*
D03*
X10124D02*
D03*
X10224Y8511D02*
D03*
X10424D02*
D03*
X10524D02*
D03*
X10624D02*
D03*
X10724D02*
D03*
Y8811D02*
D03*
X10624D02*
D03*
X10524D02*
D03*
X10424D02*
D03*
X10324D02*
D03*
X10224D02*
D03*
X10124D02*
D03*
X10324Y8511D02*
D03*
X8774Y8061D02*
D03*
Y7761D02*
D03*
X9924Y8061D02*
D03*
Y7761D02*
D03*
Y8811D02*
D03*
Y8511D02*
D03*
X8774Y8811D02*
D03*
Y8511D02*
D03*
X9924Y6561D02*
D03*
Y6261D02*
D03*
X10224Y7011D02*
D03*
X10324D02*
D03*
X10424D02*
D03*
X10524D02*
D03*
X10624D02*
D03*
X10724D02*
D03*
X10824D02*
D03*
Y7311D02*
D03*
X10724D02*
D03*
X10624D02*
D03*
X10524D02*
D03*
X10424D02*
D03*
X10324D02*
D03*
X10224D02*
D03*
X10124D02*
D03*
X10224Y6261D02*
D03*
X10324D02*
D03*
X10424D02*
D03*
X10524D02*
D03*
X10624D02*
D03*
X10724D02*
D03*
X10824D02*
D03*
Y6561D02*
D03*
X10724D02*
D03*
X10624D02*
D03*
X10524D02*
D03*
X10424D02*
D03*
X10324D02*
D03*
X10224D02*
D03*
X10124D02*
D03*
X9124Y6261D02*
D03*
X9224D02*
D03*
X9324D02*
D03*
X9424D02*
D03*
X9524D02*
D03*
X9624D02*
D03*
X9724D02*
D03*
Y6561D02*
D03*
X9624D02*
D03*
X9524D02*
D03*
X9424D02*
D03*
X9324D02*
D03*
X9224D02*
D03*
X9124D02*
D03*
X9024D02*
D03*
X8774Y7311D02*
D03*
Y7011D02*
D03*
Y6561D02*
D03*
Y6261D02*
D03*
X9924Y7311D02*
D03*
Y7011D02*
D03*
X9124D02*
D03*
X9224D02*
D03*
X9324D02*
D03*
X9424D02*
D03*
X9524D02*
D03*
X9624D02*
D03*
X9724D02*
D03*
Y7311D02*
D03*
X9624D02*
D03*
X9524D02*
D03*
X9424D02*
D03*
X9324D02*
D03*
X9224D02*
D03*
X9124D02*
D03*
X9024D02*
D03*
X7724Y9611D02*
D03*
Y9311D02*
D03*
X8024D02*
D03*
X8224D02*
D03*
X8324D02*
D03*
X8424D02*
D03*
X8524D02*
D03*
Y9611D02*
D03*
X8424D02*
D03*
X8324D02*
D03*
X8224D02*
D03*
X8124D02*
D03*
X8024D02*
D03*
X7924D02*
D03*
X8124Y9311D02*
D03*
X8024Y7761D02*
D03*
X8224D02*
D03*
X8324D02*
D03*
X8424D02*
D03*
X8524D02*
D03*
Y8061D02*
D03*
X8424D02*
D03*
X8324D02*
D03*
X8224D02*
D03*
X8124D02*
D03*
X8024D02*
D03*
X7924D02*
D03*
X8124Y7761D02*
D03*
X8024Y8511D02*
D03*
X8224D02*
D03*
X8324D02*
D03*
X8424D02*
D03*
X8524D02*
D03*
Y8811D02*
D03*
X8424D02*
D03*
X8324D02*
D03*
X8224D02*
D03*
X8124D02*
D03*
X8024D02*
D03*
X7924D02*
D03*
X8124Y8511D02*
D03*
X7724Y8061D02*
D03*
Y7761D02*
D03*
Y8811D02*
D03*
Y8511D02*
D03*
Y6561D02*
D03*
Y6261D02*
D03*
X8024D02*
D03*
X8124D02*
D03*
X8224D02*
D03*
X8324D02*
D03*
X8424D02*
D03*
X8524D02*
D03*
X8624D02*
D03*
Y6561D02*
D03*
X8524D02*
D03*
X8424D02*
D03*
X8324D02*
D03*
X8224D02*
D03*
X8124D02*
D03*
X8024D02*
D03*
X7924D02*
D03*
X7724Y7311D02*
D03*
Y7011D02*
D03*
X8024D02*
D03*
X8224D02*
D03*
X8324D02*
D03*
X8424D02*
D03*
X8524D02*
D03*
Y7311D02*
D03*
X8424D02*
D03*
X8324D02*
D03*
X8224D02*
D03*
X8124D02*
D03*
X8024D02*
D03*
X7924D02*
D03*
X8124Y7011D02*
D03*
X7024Y8261D02*
D03*
X7124D02*
D03*
X7024Y8161D02*
D03*
X7124D02*
D03*
X7024Y8061D02*
D03*
X7124D02*
D03*
X7024Y7961D02*
D03*
X7124D02*
D03*
X7024Y7861D02*
D03*
X7124D02*
D03*
X7024Y7761D02*
D03*
X7124D02*
D03*
X7024Y7661D02*
D03*
X7124D02*
D03*
X7024Y7561D02*
D03*
Y7061D02*
D03*
X7124D02*
D03*
X7024Y6961D02*
D03*
X7124D02*
D03*
X7024Y6861D02*
D03*
X7124D02*
D03*
X7024Y6761D02*
D03*
X7124D02*
D03*
X7024Y6661D02*
D03*
X7124D02*
D03*
X7024Y6561D02*
D03*
X7124D02*
D03*
X7024Y6461D02*
D03*
X7124D02*
D03*
X7024Y6361D02*
D03*
X7124D02*
D03*
X7024Y6261D02*
D03*
X7124D02*
D03*
X7024Y6161D02*
D03*
D23*
X12424Y6233D02*
D03*
Y6545D02*
D03*
Y6077D02*
D03*
Y6389D02*
D03*
X7324Y9039D02*
D03*
Y8727D02*
D03*
Y9195D02*
D03*
Y8883D02*
D03*
D28*
X12624Y7711D02*
D03*
Y9161D02*
D03*
X11174Y9311D02*
D03*
Y7761D02*
D03*
Y8511D02*
D03*
Y6261D02*
D03*
Y7011D02*
D03*
X9024Y9311D02*
D03*
X10124D02*
D03*
X9024Y8511D02*
D03*
Y7761D02*
D03*
X10124D02*
D03*
Y8511D02*
D03*
Y7011D02*
D03*
Y6261D02*
D03*
X9024D02*
D03*
Y7011D02*
D03*
X7924Y9311D02*
D03*
Y7761D02*
D03*
Y8511D02*
D03*
Y6261D02*
D03*
Y7011D02*
D03*
X7124Y7561D02*
D03*
Y6161D02*
D03*
M02*
