G04 #@! TF.FileFunction,Legend,Top*
%FSLAX46Y46*%
G04 Gerber Fmt 4.6, Leading zero omitted, Abs format (unit mm)*
G04 Created by KiCad (PCBNEW (2016-03-22 BZR 6643, Git db8c72c)-product) date 4/2/2016 6:33:22 PM*
%MOMM*%
G01*
G04 APERTURE LIST*
%ADD10C,0.100000*%
%ADD11C,0.203200*%
%ADD12C,0.300000*%
%ADD13C,0.150000*%
%ADD14C,0.254000*%
G04 APERTURE END LIST*
D10*
D11*
X98648762Y-90817096D02*
X100680762Y-90817096D01*
X99229333Y-91494429D01*
X100680762Y-92171762D01*
X98648762Y-92171762D01*
X99713143Y-93139382D02*
X99713143Y-93816715D01*
X98648762Y-94107001D02*
X98648762Y-93139382D01*
X100680762Y-93139382D01*
X100680762Y-94107001D01*
X100680762Y-94687572D02*
X100680762Y-95848715D01*
X98648762Y-95268143D02*
X100680762Y-95268143D01*
X99713143Y-96526048D02*
X99713143Y-97203381D01*
X98648762Y-97493667D02*
X98648762Y-96526048D01*
X100680762Y-96526048D01*
X100680762Y-97493667D01*
X98648762Y-99525666D02*
X99616381Y-98848333D01*
X98648762Y-98364524D02*
X100680762Y-98364524D01*
X100680762Y-99138619D01*
X100584000Y-99332143D01*
X100487238Y-99428904D01*
X100293714Y-99525666D01*
X100003429Y-99525666D01*
X99809905Y-99428904D01*
X99713143Y-99332143D01*
X99616381Y-99138619D01*
X99616381Y-98364524D01*
D12*
X109514287Y-52738571D02*
X108657144Y-52738571D01*
X109085716Y-52738571D02*
X109085716Y-51238571D01*
X108942859Y-51452857D01*
X108800001Y-51595714D01*
X108657144Y-51667143D01*
X110442858Y-51238571D02*
X110585715Y-51238571D01*
X110728572Y-51310000D01*
X110800001Y-51381429D01*
X110871430Y-51524286D01*
X110942858Y-51810000D01*
X110942858Y-52167143D01*
X110871430Y-52452857D01*
X110800001Y-52595714D01*
X110728572Y-52667143D01*
X110585715Y-52738571D01*
X110442858Y-52738571D01*
X110300001Y-52667143D01*
X110228572Y-52595714D01*
X110157144Y-52452857D01*
X110085715Y-52167143D01*
X110085715Y-51810000D01*
X110157144Y-51524286D01*
X110228572Y-51381429D01*
X110300001Y-51310000D01*
X110442858Y-51238571D01*
X111871429Y-51238571D02*
X112014286Y-51238571D01*
X112157143Y-51310000D01*
X112228572Y-51381429D01*
X112300001Y-51524286D01*
X112371429Y-51810000D01*
X112371429Y-52167143D01*
X112300001Y-52452857D01*
X112228572Y-52595714D01*
X112157143Y-52667143D01*
X112014286Y-52738571D01*
X111871429Y-52738571D01*
X111728572Y-52667143D01*
X111657143Y-52595714D01*
X111585715Y-52452857D01*
X111514286Y-52167143D01*
X111514286Y-51810000D01*
X111585715Y-51524286D01*
X111657143Y-51381429D01*
X111728572Y-51310000D01*
X111871429Y-51238571D01*
X113014286Y-52167143D02*
X114157143Y-52167143D01*
X115657143Y-52738571D02*
X114800000Y-52738571D01*
X115228572Y-52738571D02*
X115228572Y-51238571D01*
X115085715Y-51452857D01*
X114942857Y-51595714D01*
X114800000Y-51667143D01*
X116585714Y-51238571D02*
X116728571Y-51238571D01*
X116871428Y-51310000D01*
X116942857Y-51381429D01*
X117014286Y-51524286D01*
X117085714Y-51810000D01*
X117085714Y-52167143D01*
X117014286Y-52452857D01*
X116942857Y-52595714D01*
X116871428Y-52667143D01*
X116728571Y-52738571D01*
X116585714Y-52738571D01*
X116442857Y-52667143D01*
X116371428Y-52595714D01*
X116300000Y-52452857D01*
X116228571Y-52167143D01*
X116228571Y-51810000D01*
X116300000Y-51524286D01*
X116371428Y-51381429D01*
X116442857Y-51310000D01*
X116585714Y-51238571D01*
X117942857Y-51881429D02*
X117799999Y-51810000D01*
X117728571Y-51738571D01*
X117657142Y-51595714D01*
X117657142Y-51524286D01*
X117728571Y-51381429D01*
X117799999Y-51310000D01*
X117942857Y-51238571D01*
X118228571Y-51238571D01*
X118371428Y-51310000D01*
X118442857Y-51381429D01*
X118514285Y-51524286D01*
X118514285Y-51595714D01*
X118442857Y-51738571D01*
X118371428Y-51810000D01*
X118228571Y-51881429D01*
X117942857Y-51881429D01*
X117799999Y-51952857D01*
X117728571Y-52024286D01*
X117657142Y-52167143D01*
X117657142Y-52452857D01*
X117728571Y-52595714D01*
X117799999Y-52667143D01*
X117942857Y-52738571D01*
X118228571Y-52738571D01*
X118371428Y-52667143D01*
X118442857Y-52595714D01*
X118514285Y-52452857D01*
X118514285Y-52167143D01*
X118442857Y-52024286D01*
X118371428Y-51952857D01*
X118228571Y-51881429D01*
X119014285Y-51238571D02*
X120014285Y-51238571D01*
X119371428Y-52738571D01*
X103942857Y-53788571D02*
X104800000Y-53788571D01*
X104371429Y-55288571D02*
X104371429Y-53788571D01*
X105300000Y-55288571D02*
X105300000Y-54288571D01*
X105300000Y-54574286D02*
X105371428Y-54431429D01*
X105442857Y-54360000D01*
X105585714Y-54288571D01*
X105728571Y-54288571D01*
X106871428Y-55288571D02*
X106871428Y-54502857D01*
X106799999Y-54360000D01*
X106657142Y-54288571D01*
X106371428Y-54288571D01*
X106228571Y-54360000D01*
X106871428Y-55217143D02*
X106728571Y-55288571D01*
X106371428Y-55288571D01*
X106228571Y-55217143D01*
X106157142Y-55074286D01*
X106157142Y-54931429D01*
X106228571Y-54788571D01*
X106371428Y-54717143D01*
X106728571Y-54717143D01*
X106871428Y-54645714D01*
X107585714Y-54288571D02*
X107585714Y-55288571D01*
X107585714Y-54431429D02*
X107657142Y-54360000D01*
X107800000Y-54288571D01*
X108014285Y-54288571D01*
X108157142Y-54360000D01*
X108228571Y-54502857D01*
X108228571Y-55288571D01*
X108871428Y-55217143D02*
X109014285Y-55288571D01*
X109300000Y-55288571D01*
X109442857Y-55217143D01*
X109514285Y-55074286D01*
X109514285Y-55002857D01*
X109442857Y-54860000D01*
X109300000Y-54788571D01*
X109085714Y-54788571D01*
X108942857Y-54717143D01*
X108871428Y-54574286D01*
X108871428Y-54502857D01*
X108942857Y-54360000D01*
X109085714Y-54288571D01*
X109300000Y-54288571D01*
X109442857Y-54360000D01*
X110157143Y-55288571D02*
X110157143Y-54288571D01*
X110157143Y-53788571D02*
X110085714Y-53860000D01*
X110157143Y-53931429D01*
X110228571Y-53860000D01*
X110157143Y-53788571D01*
X110157143Y-53931429D01*
X110800000Y-55217143D02*
X110942857Y-55288571D01*
X111228572Y-55288571D01*
X111371429Y-55217143D01*
X111442857Y-55074286D01*
X111442857Y-55002857D01*
X111371429Y-54860000D01*
X111228572Y-54788571D01*
X111014286Y-54788571D01*
X110871429Y-54717143D01*
X110800000Y-54574286D01*
X110800000Y-54502857D01*
X110871429Y-54360000D01*
X111014286Y-54288571D01*
X111228572Y-54288571D01*
X111371429Y-54360000D01*
X111871429Y-54288571D02*
X112442858Y-54288571D01*
X112085715Y-53788571D02*
X112085715Y-55074286D01*
X112157143Y-55217143D01*
X112300001Y-55288571D01*
X112442858Y-55288571D01*
X113157144Y-55288571D02*
X113014286Y-55217143D01*
X112942858Y-55145714D01*
X112871429Y-55002857D01*
X112871429Y-54574286D01*
X112942858Y-54431429D01*
X113014286Y-54360000D01*
X113157144Y-54288571D01*
X113371429Y-54288571D01*
X113514286Y-54360000D01*
X113585715Y-54431429D01*
X113657144Y-54574286D01*
X113657144Y-55002857D01*
X113585715Y-55145714D01*
X113514286Y-55217143D01*
X113371429Y-55288571D01*
X113157144Y-55288571D01*
X114300001Y-55288571D02*
X114300001Y-54288571D01*
X114300001Y-54574286D02*
X114371429Y-54431429D01*
X114442858Y-54360000D01*
X114585715Y-54288571D01*
X114728572Y-54288571D01*
X116371429Y-55288571D02*
X116371429Y-53788571D01*
X116871429Y-54860000D01*
X117371429Y-53788571D01*
X117371429Y-55288571D01*
X118728572Y-55288571D02*
X118728572Y-54502857D01*
X118657143Y-54360000D01*
X118514286Y-54288571D01*
X118228572Y-54288571D01*
X118085715Y-54360000D01*
X118728572Y-55217143D02*
X118585715Y-55288571D01*
X118228572Y-55288571D01*
X118085715Y-55217143D01*
X118014286Y-55074286D01*
X118014286Y-54931429D01*
X118085715Y-54788571D01*
X118228572Y-54717143D01*
X118585715Y-54717143D01*
X118728572Y-54645714D01*
X119228572Y-54288571D02*
X119800001Y-54288571D01*
X119442858Y-53788571D02*
X119442858Y-55074286D01*
X119514286Y-55217143D01*
X119657144Y-55288571D01*
X119800001Y-55288571D01*
X120942858Y-55217143D02*
X120800001Y-55288571D01*
X120514287Y-55288571D01*
X120371429Y-55217143D01*
X120300001Y-55145714D01*
X120228572Y-55002857D01*
X120228572Y-54574286D01*
X120300001Y-54431429D01*
X120371429Y-54360000D01*
X120514287Y-54288571D01*
X120800001Y-54288571D01*
X120942858Y-54360000D01*
X121585715Y-55288571D02*
X121585715Y-53788571D01*
X122228572Y-55288571D02*
X122228572Y-54502857D01*
X122157143Y-54360000D01*
X122014286Y-54288571D01*
X121800001Y-54288571D01*
X121657143Y-54360000D01*
X121585715Y-54431429D01*
X123514286Y-55217143D02*
X123371429Y-55288571D01*
X123085715Y-55288571D01*
X122942858Y-55217143D01*
X122871429Y-55074286D01*
X122871429Y-54502857D01*
X122942858Y-54360000D01*
X123085715Y-54288571D01*
X123371429Y-54288571D01*
X123514286Y-54360000D01*
X123585715Y-54502857D01*
X123585715Y-54645714D01*
X122871429Y-54788571D01*
X124228572Y-55288571D02*
X124228572Y-54288571D01*
X124228572Y-54574286D02*
X124300000Y-54431429D01*
X124371429Y-54360000D01*
X124514286Y-54288571D01*
X124657143Y-54288571D01*
X105728572Y-57838571D02*
X105728572Y-56338571D01*
X105728572Y-56910000D02*
X105871429Y-56838571D01*
X106157143Y-56838571D01*
X106300000Y-56910000D01*
X106371429Y-56981429D01*
X106442858Y-57124286D01*
X106442858Y-57552857D01*
X106371429Y-57695714D01*
X106300000Y-57767143D01*
X106157143Y-57838571D01*
X105871429Y-57838571D01*
X105728572Y-57767143D01*
X106942858Y-56838571D02*
X107300001Y-57838571D01*
X107657143Y-56838571D02*
X107300001Y-57838571D01*
X107157143Y-58195714D01*
X107085715Y-58267143D01*
X106942858Y-58338571D01*
X109800000Y-56338571D02*
X109800000Y-57410000D01*
X109728572Y-57624286D01*
X109585715Y-57767143D01*
X109371429Y-57838571D01*
X109228572Y-57838571D01*
X110514286Y-57838571D02*
X110514286Y-56838571D01*
X110514286Y-56338571D02*
X110442857Y-56410000D01*
X110514286Y-56481429D01*
X110585714Y-56410000D01*
X110514286Y-56338571D01*
X110514286Y-56481429D01*
X111228572Y-57838571D02*
X111228572Y-56838571D01*
X111228572Y-56981429D02*
X111300000Y-56910000D01*
X111442858Y-56838571D01*
X111657143Y-56838571D01*
X111800000Y-56910000D01*
X111871429Y-57052857D01*
X111871429Y-57838571D01*
X111871429Y-57052857D02*
X111942858Y-56910000D01*
X112085715Y-56838571D01*
X112300000Y-56838571D01*
X112442858Y-56910000D01*
X112514286Y-57052857D01*
X112514286Y-57838571D01*
X114371429Y-57838571D02*
X114371429Y-56338571D01*
X114942857Y-56338571D01*
X115085715Y-56410000D01*
X115157143Y-56481429D01*
X115228572Y-56624286D01*
X115228572Y-56838571D01*
X115157143Y-56981429D01*
X115085715Y-57052857D01*
X114942857Y-57124286D01*
X114371429Y-57124286D01*
X116514286Y-57838571D02*
X116514286Y-57052857D01*
X116442857Y-56910000D01*
X116300000Y-56838571D01*
X116014286Y-56838571D01*
X115871429Y-56910000D01*
X116514286Y-57767143D02*
X116371429Y-57838571D01*
X116014286Y-57838571D01*
X115871429Y-57767143D01*
X115800000Y-57624286D01*
X115800000Y-57481429D01*
X115871429Y-57338571D01*
X116014286Y-57267143D01*
X116371429Y-57267143D01*
X116514286Y-57195714D01*
X117014286Y-56838571D02*
X117585715Y-56838571D01*
X117228572Y-56338571D02*
X117228572Y-57624286D01*
X117300000Y-57767143D01*
X117442858Y-57838571D01*
X117585715Y-57838571D01*
X118728572Y-57767143D02*
X118585715Y-57838571D01*
X118300001Y-57838571D01*
X118157143Y-57767143D01*
X118085715Y-57695714D01*
X118014286Y-57552857D01*
X118014286Y-57124286D01*
X118085715Y-56981429D01*
X118157143Y-56910000D01*
X118300001Y-56838571D01*
X118585715Y-56838571D01*
X118728572Y-56910000D01*
X119371429Y-57838571D02*
X119371429Y-56338571D01*
X120014286Y-57838571D02*
X120014286Y-57052857D01*
X119942857Y-56910000D01*
X119800000Y-56838571D01*
X119585715Y-56838571D01*
X119442857Y-56910000D01*
X119371429Y-56981429D01*
X121300000Y-57767143D02*
X121157143Y-57838571D01*
X120871429Y-57838571D01*
X120728572Y-57767143D01*
X120657143Y-57624286D01*
X120657143Y-57052857D01*
X120728572Y-56910000D01*
X120871429Y-56838571D01*
X121157143Y-56838571D01*
X121300000Y-56910000D01*
X121371429Y-57052857D01*
X121371429Y-57195714D01*
X120657143Y-57338571D01*
X122228572Y-57838571D02*
X122085714Y-57767143D01*
X122014286Y-57624286D01*
X122014286Y-56338571D01*
X123014286Y-57838571D02*
X122871428Y-57767143D01*
X122800000Y-57624286D01*
X122800000Y-56338571D01*
X140692143Y-102842143D02*
X140549286Y-102913571D01*
X140263572Y-102913571D01*
X140120714Y-102842143D01*
X140049286Y-102770714D01*
X139977857Y-102627857D01*
X139977857Y-102199286D01*
X140049286Y-102056429D01*
X140120714Y-101985000D01*
X140263572Y-101913571D01*
X140549286Y-101913571D01*
X140692143Y-101985000D01*
X145137143Y-108557143D02*
X144994286Y-108628571D01*
X144708572Y-108628571D01*
X144565714Y-108557143D01*
X144494286Y-108485714D01*
X144422857Y-108342857D01*
X144422857Y-107914286D01*
X144494286Y-107771429D01*
X144565714Y-107700000D01*
X144708572Y-107628571D01*
X144994286Y-107628571D01*
X145137143Y-107700000D01*
X146490572Y-106088571D02*
X146490572Y-104588571D01*
X146490572Y-105160000D02*
X146633429Y-105088571D01*
X146919143Y-105088571D01*
X147062000Y-105160000D01*
X147133429Y-105231429D01*
X147204858Y-105374286D01*
X147204858Y-105802857D01*
X147133429Y-105945714D01*
X147062000Y-106017143D01*
X146919143Y-106088571D01*
X146633429Y-106088571D01*
X146490572Y-106017143D01*
X137346572Y-106088571D02*
X137346572Y-104588571D01*
X137346572Y-105160000D02*
X137489429Y-105088571D01*
X137775143Y-105088571D01*
X137918000Y-105160000D01*
X137989429Y-105231429D01*
X138060858Y-105374286D01*
X138060858Y-105802857D01*
X137989429Y-105945714D01*
X137918000Y-106017143D01*
X137775143Y-106088571D01*
X137489429Y-106088571D01*
X137346572Y-106017143D01*
X144811714Y-102842143D02*
X144668857Y-102913571D01*
X144383143Y-102913571D01*
X144240286Y-102842143D01*
X144168857Y-102699286D01*
X144168857Y-102127857D01*
X144240286Y-101985000D01*
X144383143Y-101913571D01*
X144668857Y-101913571D01*
X144811714Y-101985000D01*
X144883143Y-102127857D01*
X144883143Y-102270714D01*
X144168857Y-102413571D01*
X139941905Y-108464048D02*
X139820953Y-108524524D01*
X139579048Y-108524524D01*
X139458096Y-108464048D01*
X139397620Y-108343095D01*
X139397620Y-107859286D01*
X139458096Y-107738333D01*
X139579048Y-107677857D01*
X139820953Y-107677857D01*
X139941905Y-107738333D01*
X140002382Y-107859286D01*
X140002382Y-107980238D01*
X139397620Y-108101190D01*
D13*
X111125000Y-97155000D02*
G75*
G03X111760000Y-97790000I635000J0D01*
G01*
X111760000Y-97790000D02*
G75*
G03X112395000Y-97155000I0J635000D01*
G01*
X111760000Y-95250000D02*
G75*
G03X111125000Y-95885000I0J-635000D01*
G01*
X112395000Y-95885000D02*
G75*
G03X111760000Y-95250000I-635000J0D01*
G01*
X111125000Y-95885000D02*
X111125000Y-97155000D01*
X112395000Y-95885000D02*
X112395000Y-97155000D01*
X111760000Y-99060000D02*
X111760000Y-97790000D01*
X111760000Y-93980000D02*
X111760000Y-95250000D01*
X128905000Y-95885000D02*
G75*
G03X128270000Y-95250000I-635000J0D01*
G01*
X128270000Y-95250000D02*
G75*
G03X127635000Y-95885000I0J-635000D01*
G01*
X128270000Y-97790000D02*
G75*
G03X128905000Y-97155000I0J635000D01*
G01*
X127635000Y-97155000D02*
G75*
G03X128270000Y-97790000I635000J0D01*
G01*
X128905000Y-97155000D02*
X128905000Y-95885000D01*
X127635000Y-97155000D02*
X127635000Y-95885000D01*
X128270000Y-93980000D02*
X128270000Y-95250000D01*
X128270000Y-99060000D02*
X128270000Y-97790000D01*
X144835112Y-62484904D02*
G75*
G03X144820000Y-59460000I2484888J1524904D01*
G01*
X144820000Y-62460000D02*
X144820000Y-59460000D01*
X149837936Y-60960000D02*
G75*
G03X149837936Y-60960000I-2517936J0D01*
G01*
X135945112Y-62484904D02*
G75*
G03X135930000Y-59460000I2484888J1524904D01*
G01*
X135930000Y-62460000D02*
X135930000Y-59460000D01*
X140947936Y-60960000D02*
G75*
G03X140947936Y-60960000I-2517936J0D01*
G01*
X110413800Y-85090000D02*
X110413800Y-67310000D01*
X110413800Y-67310000D02*
X99618800Y-67310000D01*
X99618800Y-67310000D02*
X99618800Y-85090000D01*
X99618800Y-85090000D02*
X110413800Y-85090000D01*
X121920000Y-59944000D02*
X121920000Y-61976000D01*
X129540000Y-59944000D02*
X129540000Y-61976000D01*
X121920000Y-60960000D02*
X121412000Y-60960000D01*
X130175000Y-60960000D02*
X129540000Y-60960000D01*
X121920000Y-61976000D02*
X129540000Y-61976000D01*
X129540000Y-59944000D02*
X121920000Y-59944000D01*
X149606000Y-90148951D02*
X147574000Y-90148951D01*
X149606000Y-97768951D02*
X147574000Y-97768951D01*
X148590000Y-90148951D02*
X148590000Y-89640951D01*
X148590000Y-98403951D02*
X148590000Y-97768951D01*
X147574000Y-90148951D02*
X147574000Y-97768951D01*
X149606000Y-97768951D02*
X149606000Y-90148951D01*
X152146000Y-90170000D02*
X150114000Y-90170000D01*
X152146000Y-97790000D02*
X150114000Y-97790000D01*
X151130000Y-90170000D02*
X151130000Y-89662000D01*
X151130000Y-98425000D02*
X151130000Y-97790000D01*
X150114000Y-90170000D02*
X150114000Y-97790000D01*
X152146000Y-97790000D02*
X152146000Y-90170000D01*
X138176000Y-90170000D02*
X136144000Y-90170000D01*
X138176000Y-97790000D02*
X136144000Y-97790000D01*
X137160000Y-90170000D02*
X137160000Y-89662000D01*
X137160000Y-98425000D02*
X137160000Y-97790000D01*
X136144000Y-90170000D02*
X136144000Y-97790000D01*
X138176000Y-97790000D02*
X138176000Y-90170000D01*
X135636000Y-90170000D02*
X133604000Y-90170000D01*
X135636000Y-97790000D02*
X133604000Y-97790000D01*
X134620000Y-90170000D02*
X134620000Y-89662000D01*
X134620000Y-98425000D02*
X134620000Y-97790000D01*
X133604000Y-90170000D02*
X133604000Y-97790000D01*
X135636000Y-97790000D02*
X135636000Y-90170000D01*
X141986000Y-90170000D02*
X139954000Y-90170000D01*
X141986000Y-97790000D02*
X139954000Y-97790000D01*
X140970000Y-90170000D02*
X140970000Y-89662000D01*
X140970000Y-98425000D02*
X140970000Y-97790000D01*
X139954000Y-90170000D02*
X139954000Y-97790000D01*
X141986000Y-97790000D02*
X141986000Y-90170000D01*
X144526000Y-90170000D02*
X142494000Y-90170000D01*
X144526000Y-97790000D02*
X142494000Y-97790000D01*
X143510000Y-90170000D02*
X143510000Y-89662000D01*
X143510000Y-98425000D02*
X143510000Y-97790000D01*
X142494000Y-90170000D02*
X142494000Y-97790000D01*
X144526000Y-97790000D02*
X144526000Y-90170000D01*
X129794000Y-100330000D02*
X131826000Y-100330000D01*
X129794000Y-92710000D02*
X131826000Y-92710000D01*
X130810000Y-100330000D02*
X130810000Y-100838000D01*
X130810000Y-92075000D02*
X130810000Y-92710000D01*
X131826000Y-100330000D02*
X131826000Y-92710000D01*
X129794000Y-92710000D02*
X129794000Y-100330000D01*
X114300000Y-103124000D02*
X114300000Y-105156000D01*
X121920000Y-103124000D02*
X121920000Y-105156000D01*
X114300000Y-104140000D02*
X113792000Y-104140000D01*
X122555000Y-104140000D02*
X121920000Y-104140000D01*
X114300000Y-105156000D02*
X121920000Y-105156000D01*
X121920000Y-103124000D02*
X114300000Y-103124000D01*
X111760000Y-87884000D02*
X111760000Y-89916000D01*
X119380000Y-87884000D02*
X119380000Y-89916000D01*
X111760000Y-88900000D02*
X111252000Y-88900000D01*
X120015000Y-88900000D02*
X119380000Y-88900000D01*
X111760000Y-89916000D02*
X119380000Y-89916000D01*
X119380000Y-87884000D02*
X111760000Y-87884000D01*
X124180600Y-82550000D02*
X134340600Y-82550000D01*
X124180600Y-67310000D02*
X124180600Y-82550000D01*
X134340600Y-67310000D02*
X124180600Y-67310000D01*
X134340600Y-82550000D02*
X134340600Y-67310000D01*
X138430000Y-67691000D02*
X138430000Y-82931000D01*
X153670000Y-67691000D02*
X138430000Y-67691000D01*
X153670000Y-82931000D02*
X153670000Y-67691000D01*
X138430000Y-82931000D02*
X153670000Y-82931000D01*
X114300000Y-97790000D02*
G75*
G03X115570000Y-96520000I0J1270000D01*
G01*
X115570000Y-96520000D02*
G75*
G03X114300000Y-95250000I-1270000J0D01*
G01*
X114300000Y-93980000D02*
X114300000Y-95250000D01*
X114300000Y-93980000D02*
X124460000Y-93980000D01*
X124460000Y-93980000D02*
X124460000Y-99060000D01*
X124460000Y-99060000D02*
X114300000Y-99060000D01*
X114300000Y-99060000D02*
X114300000Y-97790000D01*
X142240000Y-106680000D02*
G75*
G03X144780000Y-106680000I1270000J1270000D01*
G01*
X144780000Y-106680000D02*
G75*
G03X144780000Y-104140000I-1270000J1270000D01*
G01*
X144780000Y-104140000D02*
G75*
G03X142240000Y-104140000I-1270000J-1270000D01*
G01*
X142240000Y-104140000D02*
G75*
G03X139700000Y-104140000I-1270000J-1270000D01*
G01*
X139700000Y-104140000D02*
G75*
G03X139700000Y-106680000I1270000J-1270000D01*
G01*
X139700000Y-106680000D02*
G75*
G03X142240000Y-106680000I1270000J1270000D01*
G01*
X142240000Y-106680000D02*
X142240000Y-104140000D01*
X110212143Y-96686666D02*
X110259762Y-96734285D01*
X110307381Y-96877142D01*
X110307381Y-96972380D01*
X110259762Y-97115238D01*
X110164524Y-97210476D01*
X110069286Y-97258095D01*
X109878810Y-97305714D01*
X109735952Y-97305714D01*
X109545476Y-97258095D01*
X109450238Y-97210476D01*
X109355000Y-97115238D01*
X109307381Y-96972380D01*
X109307381Y-96877142D01*
X109355000Y-96734285D01*
X109402619Y-96686666D01*
X110307381Y-95734285D02*
X110307381Y-96305714D01*
X110307381Y-96020000D02*
X109307381Y-96020000D01*
X109450238Y-96115238D01*
X109545476Y-96210476D01*
X109593095Y-96305714D01*
X108307143Y-97877143D02*
X108354762Y-97829524D01*
X108402381Y-97877143D01*
X108354762Y-97924762D01*
X108307143Y-97877143D01*
X108402381Y-97877143D01*
X108402381Y-96877143D02*
X108402381Y-97448572D01*
X108402381Y-97162858D02*
X107402381Y-97162858D01*
X107545238Y-97258096D01*
X107640476Y-97353334D01*
X107688095Y-97448572D01*
X107735714Y-96020000D02*
X108402381Y-96020000D01*
X107735714Y-96448572D02*
X108259524Y-96448572D01*
X108354762Y-96400953D01*
X108402381Y-96305715D01*
X108402381Y-96162857D01*
X108354762Y-96067619D01*
X108307143Y-96020000D01*
X107878571Y-95210476D02*
X107878571Y-95543810D01*
X108402381Y-95543810D02*
X107402381Y-95543810D01*
X107402381Y-95067619D01*
X126849143Y-100623666D02*
X126896762Y-100671285D01*
X126944381Y-100814142D01*
X126944381Y-100909380D01*
X126896762Y-101052238D01*
X126801524Y-101147476D01*
X126706286Y-101195095D01*
X126515810Y-101242714D01*
X126372952Y-101242714D01*
X126182476Y-101195095D01*
X126087238Y-101147476D01*
X125992000Y-101052238D01*
X125944381Y-100909380D01*
X125944381Y-100814142D01*
X125992000Y-100671285D01*
X126039619Y-100623666D01*
X126039619Y-100242714D02*
X125992000Y-100195095D01*
X125944381Y-100099857D01*
X125944381Y-99861761D01*
X125992000Y-99766523D01*
X126039619Y-99718904D01*
X126134857Y-99671285D01*
X126230095Y-99671285D01*
X126372952Y-99718904D01*
X126944381Y-100290333D01*
X126944381Y-99671285D01*
X126976143Y-98004143D02*
X127023762Y-97956524D01*
X127071381Y-98004143D01*
X127023762Y-98051762D01*
X126976143Y-98004143D01*
X127071381Y-98004143D01*
X127071381Y-97004143D02*
X127071381Y-97575572D01*
X127071381Y-97289858D02*
X126071381Y-97289858D01*
X126214238Y-97385096D01*
X126309476Y-97480334D01*
X126357095Y-97575572D01*
X126404714Y-96147000D02*
X127071381Y-96147000D01*
X126404714Y-96575572D02*
X126928524Y-96575572D01*
X127023762Y-96527953D01*
X127071381Y-96432715D01*
X127071381Y-96289857D01*
X127023762Y-96194619D01*
X126976143Y-96147000D01*
X126547571Y-95337476D02*
X126547571Y-95670810D01*
X127071381Y-95670810D02*
X126071381Y-95670810D01*
X126071381Y-95194619D01*
X146835905Y-65476381D02*
X146835905Y-64476381D01*
X147074000Y-64476381D01*
X147216858Y-64524000D01*
X147312096Y-64619238D01*
X147359715Y-64714476D01*
X147407334Y-64904952D01*
X147407334Y-65047810D01*
X147359715Y-65238286D01*
X147312096Y-65333524D01*
X147216858Y-65428762D01*
X147074000Y-65476381D01*
X146835905Y-65476381D01*
X148359715Y-65476381D02*
X147788286Y-65476381D01*
X148074000Y-65476381D02*
X148074000Y-64476381D01*
X147978762Y-64619238D01*
X147883524Y-64714476D01*
X147788286Y-64762095D01*
D14*
X144961429Y-56799238D02*
X144961429Y-54767238D01*
X145735524Y-54767238D01*
X145929048Y-54864000D01*
X146025809Y-54960762D01*
X146122571Y-55154286D01*
X146122571Y-55444571D01*
X146025809Y-55638095D01*
X145929048Y-55734857D01*
X145735524Y-55831619D01*
X144961429Y-55831619D01*
X146993429Y-56799238D02*
X146993429Y-54767238D01*
X148154571Y-56799238D01*
X148154571Y-54767238D01*
X149122191Y-56799238D02*
X149122191Y-54767238D01*
X149896286Y-54767238D01*
X150089810Y-54864000D01*
X150186571Y-54960762D01*
X150283333Y-55154286D01*
X150283333Y-55444571D01*
X150186571Y-55638095D01*
X150089810Y-55734857D01*
X149896286Y-55831619D01*
X149122191Y-55831619D01*
D13*
X143883095Y-63317381D02*
X143883095Y-62317381D01*
X144454524Y-63317381D02*
X144025952Y-62745952D01*
X144454524Y-62317381D02*
X143883095Y-62888810D01*
X137945905Y-65476381D02*
X137945905Y-64476381D01*
X138184000Y-64476381D01*
X138326858Y-64524000D01*
X138422096Y-64619238D01*
X138469715Y-64714476D01*
X138517334Y-64904952D01*
X138517334Y-65047810D01*
X138469715Y-65238286D01*
X138422096Y-65333524D01*
X138326858Y-65428762D01*
X138184000Y-65476381D01*
X137945905Y-65476381D01*
X138898286Y-64571619D02*
X138945905Y-64524000D01*
X139041143Y-64476381D01*
X139279239Y-64476381D01*
X139374477Y-64524000D01*
X139422096Y-64571619D01*
X139469715Y-64666857D01*
X139469715Y-64762095D01*
X139422096Y-64904952D01*
X138850667Y-65476381D01*
X139469715Y-65476381D01*
D14*
X135769048Y-56799238D02*
X135769048Y-54767238D01*
X136930190Y-56799238D01*
X136930190Y-54767238D01*
X137897810Y-56799238D02*
X137897810Y-54767238D01*
X138671905Y-54767238D01*
X138865429Y-54864000D01*
X138962190Y-54960762D01*
X139058952Y-55154286D01*
X139058952Y-55444571D01*
X138962190Y-55638095D01*
X138865429Y-55734857D01*
X138671905Y-55831619D01*
X137897810Y-55831619D01*
X139929810Y-56799238D02*
X139929810Y-54767238D01*
X141090952Y-56799238D01*
X141090952Y-54767238D01*
D13*
X134993095Y-63317381D02*
X134993095Y-62317381D01*
X135564524Y-63317381D02*
X135135952Y-62745952D01*
X135564524Y-62317381D02*
X134993095Y-62888810D01*
X112339381Y-86463095D02*
X111339381Y-86463095D01*
X111339381Y-86082142D01*
X111387000Y-85986904D01*
X111434619Y-85939285D01*
X111529857Y-85891666D01*
X111672714Y-85891666D01*
X111767952Y-85939285D01*
X111815571Y-85986904D01*
X111863190Y-86082142D01*
X111863190Y-86463095D01*
X112339381Y-84939285D02*
X112339381Y-85510714D01*
X112339381Y-85225000D02*
X111339381Y-85225000D01*
X111482238Y-85320238D01*
X111577476Y-85415476D01*
X111625095Y-85510714D01*
X117120943Y-82882618D02*
X117168562Y-82930237D01*
X117216181Y-83073094D01*
X117216181Y-83168332D01*
X117168562Y-83311190D01*
X117073324Y-83406428D01*
X116978086Y-83454047D01*
X116787610Y-83501666D01*
X116644752Y-83501666D01*
X116454276Y-83454047D01*
X116359038Y-83406428D01*
X116263800Y-83311190D01*
X116216181Y-83168332D01*
X116216181Y-83073094D01*
X116263800Y-82930237D01*
X116311419Y-82882618D01*
X116216181Y-82263571D02*
X116216181Y-82073094D01*
X116263800Y-81977856D01*
X116359038Y-81882618D01*
X116549514Y-81834999D01*
X116882848Y-81834999D01*
X117073324Y-81882618D01*
X117168562Y-81977856D01*
X117216181Y-82073094D01*
X117216181Y-82263571D01*
X117168562Y-82358809D01*
X117073324Y-82454047D01*
X116882848Y-82501666D01*
X116549514Y-82501666D01*
X116359038Y-82454047D01*
X116263800Y-82358809D01*
X116216181Y-82263571D01*
X117216181Y-81406428D02*
X116216181Y-81406428D01*
X117216181Y-80834999D01*
X116216181Y-80834999D01*
X117216181Y-80358809D02*
X116216181Y-80358809D01*
X117216181Y-79787380D01*
X116216181Y-79787380D01*
X116835229Y-79311190D02*
X116835229Y-78549285D01*
X116216181Y-77596904D02*
X116216181Y-78073095D01*
X116692371Y-78120714D01*
X116644752Y-78073095D01*
X116597133Y-77977857D01*
X116597133Y-77739761D01*
X116644752Y-77644523D01*
X116692371Y-77596904D01*
X116787610Y-77549285D01*
X117025705Y-77549285D01*
X117120943Y-77596904D01*
X117168562Y-77644523D01*
X117216181Y-77739761D01*
X117216181Y-77977857D01*
X117168562Y-78073095D01*
X117120943Y-78120714D01*
X116216181Y-77120714D02*
X117025705Y-77120714D01*
X117120943Y-77073095D01*
X117168562Y-77025476D01*
X117216181Y-76930238D01*
X117216181Y-76739761D01*
X117168562Y-76644523D01*
X117120943Y-76596904D01*
X117025705Y-76549285D01*
X116216181Y-76549285D01*
X116835229Y-76073095D02*
X116835229Y-75311190D01*
X117216181Y-74835000D02*
X116216181Y-74835000D01*
X116216181Y-74454047D01*
X116263800Y-74358809D01*
X116311419Y-74311190D01*
X116406657Y-74263571D01*
X116549514Y-74263571D01*
X116644752Y-74311190D01*
X116692371Y-74358809D01*
X116739990Y-74454047D01*
X116739990Y-74835000D01*
X116216181Y-73644524D02*
X116216181Y-73454047D01*
X116263800Y-73358809D01*
X116359038Y-73263571D01*
X116549514Y-73215952D01*
X116882848Y-73215952D01*
X117073324Y-73263571D01*
X117168562Y-73358809D01*
X117216181Y-73454047D01*
X117216181Y-73644524D01*
X117168562Y-73739762D01*
X117073324Y-73835000D01*
X116882848Y-73882619D01*
X116549514Y-73882619D01*
X116359038Y-73835000D01*
X116263800Y-73739762D01*
X116216181Y-73644524D01*
X116216181Y-72882619D02*
X117216181Y-72644524D01*
X116501895Y-72454047D01*
X117216181Y-72263571D01*
X116216181Y-72025476D01*
X116692371Y-71644524D02*
X116692371Y-71311190D01*
X117216181Y-71168333D02*
X117216181Y-71644524D01*
X116216181Y-71644524D01*
X116216181Y-71168333D01*
X117216181Y-70168333D02*
X116739990Y-70501667D01*
X117216181Y-70739762D02*
X116216181Y-70739762D01*
X116216181Y-70358809D01*
X116263800Y-70263571D01*
X116311419Y-70215952D01*
X116406657Y-70168333D01*
X116549514Y-70168333D01*
X116644752Y-70215952D01*
X116692371Y-70263571D01*
X116739990Y-70358809D01*
X116739990Y-70739762D01*
X114612800Y-77469904D02*
X114565181Y-77565142D01*
X114565181Y-77707999D01*
X114612800Y-77850857D01*
X114708038Y-77946095D01*
X114803276Y-77993714D01*
X114993752Y-78041333D01*
X115136610Y-78041333D01*
X115327086Y-77993714D01*
X115422324Y-77946095D01*
X115517562Y-77850857D01*
X115565181Y-77707999D01*
X115565181Y-77612761D01*
X115517562Y-77469904D01*
X115469943Y-77422285D01*
X115136610Y-77422285D01*
X115136610Y-77612761D01*
X115565181Y-76993714D02*
X114565181Y-76993714D01*
X115565181Y-76422285D01*
X114565181Y-76422285D01*
X115565181Y-75946095D02*
X114565181Y-75946095D01*
X114565181Y-75708000D01*
X114612800Y-75565142D01*
X114708038Y-75469904D01*
X114803276Y-75422285D01*
X114993752Y-75374666D01*
X115136610Y-75374666D01*
X115327086Y-75422285D01*
X115422324Y-75469904D01*
X115517562Y-75565142D01*
X115565181Y-75708000D01*
X115565181Y-75946095D01*
X115184229Y-72199333D02*
X115184229Y-71437428D01*
X115565181Y-70437428D02*
X115565181Y-71008857D01*
X115565181Y-70723143D02*
X114565181Y-70723143D01*
X114708038Y-70818381D01*
X114803276Y-70913619D01*
X114850895Y-71008857D01*
X114565181Y-69532666D02*
X114565181Y-70008857D01*
X115041371Y-70056476D01*
X114993752Y-70008857D01*
X114946133Y-69913619D01*
X114946133Y-69675523D01*
X114993752Y-69580285D01*
X115041371Y-69532666D01*
X115136610Y-69485047D01*
X115374705Y-69485047D01*
X115469943Y-69532666D01*
X115517562Y-69580285D01*
X115565181Y-69675523D01*
X115565181Y-69913619D01*
X115517562Y-70008857D01*
X115469943Y-70056476D01*
X115057229Y-84137333D02*
X115057229Y-83375428D01*
X115438181Y-83756380D02*
X114676276Y-83756380D01*
X115438181Y-82375428D02*
X115438181Y-82946857D01*
X115438181Y-82661143D02*
X114438181Y-82661143D01*
X114581038Y-82756381D01*
X114676276Y-82851619D01*
X114723895Y-82946857D01*
X114438181Y-81470666D02*
X114438181Y-81946857D01*
X114914371Y-81994476D01*
X114866752Y-81946857D01*
X114819133Y-81851619D01*
X114819133Y-81613523D01*
X114866752Y-81518285D01*
X114914371Y-81470666D01*
X115009610Y-81423047D01*
X115247705Y-81423047D01*
X115342943Y-81470666D01*
X115390562Y-81518285D01*
X115438181Y-81613523D01*
X115438181Y-81851619D01*
X115390562Y-81946857D01*
X115342943Y-81994476D01*
X117435334Y-61666381D02*
X117102000Y-61190190D01*
X116863905Y-61666381D02*
X116863905Y-60666381D01*
X117244858Y-60666381D01*
X117340096Y-60714000D01*
X117387715Y-60761619D01*
X117435334Y-60856857D01*
X117435334Y-60999714D01*
X117387715Y-61094952D01*
X117340096Y-61142571D01*
X117244858Y-61190190D01*
X116863905Y-61190190D01*
X118387715Y-61666381D02*
X117816286Y-61666381D01*
X118102000Y-61666381D02*
X118102000Y-60666381D01*
X118006762Y-60809238D01*
X117911524Y-60904476D01*
X117816286Y-60952095D01*
X123912476Y-60539381D02*
X124531524Y-60539381D01*
X124198190Y-60920333D01*
X124341048Y-60920333D01*
X124436286Y-60967952D01*
X124483905Y-61015571D01*
X124531524Y-61110810D01*
X124531524Y-61348905D01*
X124483905Y-61444143D01*
X124436286Y-61491762D01*
X124341048Y-61539381D01*
X124055333Y-61539381D01*
X123960095Y-61491762D01*
X123912476Y-61444143D01*
X124864857Y-60539381D02*
X125483905Y-60539381D01*
X125150571Y-60920333D01*
X125293429Y-60920333D01*
X125388667Y-60967952D01*
X125436286Y-61015571D01*
X125483905Y-61110810D01*
X125483905Y-61348905D01*
X125436286Y-61444143D01*
X125388667Y-61491762D01*
X125293429Y-61539381D01*
X125007714Y-61539381D01*
X124912476Y-61491762D01*
X124864857Y-61444143D01*
X125912476Y-61539381D02*
X125912476Y-60539381D01*
X126483905Y-61539381D02*
X126055333Y-60967952D01*
X126483905Y-60539381D02*
X125912476Y-61110810D01*
X148788381Y-101766666D02*
X148312190Y-102100000D01*
X148788381Y-102338095D02*
X147788381Y-102338095D01*
X147788381Y-101957142D01*
X147836000Y-101861904D01*
X147883619Y-101814285D01*
X147978857Y-101766666D01*
X148121714Y-101766666D01*
X148216952Y-101814285D01*
X148264571Y-101861904D01*
X148312190Y-101957142D01*
X148312190Y-102338095D01*
X147883619Y-101385714D02*
X147836000Y-101338095D01*
X147788381Y-101242857D01*
X147788381Y-101004761D01*
X147836000Y-100909523D01*
X147883619Y-100861904D01*
X147978857Y-100814285D01*
X148074095Y-100814285D01*
X148216952Y-100861904D01*
X148788381Y-101433333D01*
X148788381Y-100814285D01*
X148915381Y-95403331D02*
X148915381Y-95974760D01*
X148915381Y-95689046D02*
X147915381Y-95689046D01*
X148058238Y-95784284D01*
X148153476Y-95879522D01*
X148201095Y-95974760D01*
X147915381Y-94784284D02*
X147915381Y-94689045D01*
X147963000Y-94593807D01*
X148010619Y-94546188D01*
X148105857Y-94498569D01*
X148296333Y-94450950D01*
X148534429Y-94450950D01*
X148724905Y-94498569D01*
X148820143Y-94546188D01*
X148867762Y-94593807D01*
X148915381Y-94689045D01*
X148915381Y-94784284D01*
X148867762Y-94879522D01*
X148820143Y-94927141D01*
X148724905Y-94974760D01*
X148534429Y-95022379D01*
X148296333Y-95022379D01*
X148105857Y-94974760D01*
X148010619Y-94927141D01*
X147963000Y-94879522D01*
X147915381Y-94784284D01*
X148820143Y-94022379D02*
X148867762Y-93974760D01*
X148915381Y-94022379D01*
X148867762Y-94069998D01*
X148820143Y-94022379D01*
X148915381Y-94022379D01*
X147915381Y-93355713D02*
X147915381Y-93260474D01*
X147963000Y-93165236D01*
X148010619Y-93117617D01*
X148105857Y-93069998D01*
X148296333Y-93022379D01*
X148534429Y-93022379D01*
X148724905Y-93069998D01*
X148820143Y-93117617D01*
X148867762Y-93165236D01*
X148915381Y-93260474D01*
X148915381Y-93355713D01*
X148867762Y-93450951D01*
X148820143Y-93498570D01*
X148724905Y-93546189D01*
X148534429Y-93593808D01*
X148296333Y-93593808D01*
X148105857Y-93546189D01*
X148010619Y-93498570D01*
X147963000Y-93450951D01*
X147915381Y-93355713D01*
X147915381Y-92403332D02*
X147915381Y-92308093D01*
X147963000Y-92212855D01*
X148010619Y-92165236D01*
X148105857Y-92117617D01*
X148296333Y-92069998D01*
X148534429Y-92069998D01*
X148724905Y-92117617D01*
X148820143Y-92165236D01*
X148867762Y-92212855D01*
X148915381Y-92308093D01*
X148915381Y-92403332D01*
X148867762Y-92498570D01*
X148820143Y-92546189D01*
X148724905Y-92593808D01*
X148534429Y-92641427D01*
X148296333Y-92641427D01*
X148105857Y-92593808D01*
X148010619Y-92546189D01*
X147963000Y-92498570D01*
X147915381Y-92403332D01*
X148915381Y-91641427D02*
X147915381Y-91641427D01*
X148629667Y-91308093D01*
X147915381Y-90974760D01*
X148915381Y-90974760D01*
X151582381Y-101893666D02*
X151106190Y-102227000D01*
X151582381Y-102465095D02*
X150582381Y-102465095D01*
X150582381Y-102084142D01*
X150630000Y-101988904D01*
X150677619Y-101941285D01*
X150772857Y-101893666D01*
X150915714Y-101893666D01*
X151010952Y-101941285D01*
X151058571Y-101988904D01*
X151106190Y-102084142D01*
X151106190Y-102465095D01*
X150582381Y-101560333D02*
X150582381Y-100941285D01*
X150963333Y-101274619D01*
X150963333Y-101131761D01*
X151010952Y-101036523D01*
X151058571Y-100988904D01*
X151153810Y-100941285D01*
X151391905Y-100941285D01*
X151487143Y-100988904D01*
X151534762Y-101036523D01*
X151582381Y-101131761D01*
X151582381Y-101417476D01*
X151534762Y-101512714D01*
X151487143Y-101560333D01*
X151455381Y-95352952D02*
X151455381Y-95924381D01*
X151455381Y-95638667D02*
X150455381Y-95638667D01*
X150598238Y-95733905D01*
X150693476Y-95829143D01*
X150741095Y-95924381D01*
X150455381Y-94733905D02*
X150455381Y-94638666D01*
X150503000Y-94543428D01*
X150550619Y-94495809D01*
X150645857Y-94448190D01*
X150836333Y-94400571D01*
X151074429Y-94400571D01*
X151264905Y-94448190D01*
X151360143Y-94495809D01*
X151407762Y-94543428D01*
X151455381Y-94638666D01*
X151455381Y-94733905D01*
X151407762Y-94829143D01*
X151360143Y-94876762D01*
X151264905Y-94924381D01*
X151074429Y-94972000D01*
X150836333Y-94972000D01*
X150645857Y-94924381D01*
X150550619Y-94876762D01*
X150503000Y-94829143D01*
X150455381Y-94733905D01*
X151360143Y-93972000D02*
X151407762Y-93924381D01*
X151455381Y-93972000D01*
X151407762Y-94019619D01*
X151360143Y-93972000D01*
X151455381Y-93972000D01*
X150455381Y-93305334D02*
X150455381Y-93210095D01*
X150503000Y-93114857D01*
X150550619Y-93067238D01*
X150645857Y-93019619D01*
X150836333Y-92972000D01*
X151074429Y-92972000D01*
X151264905Y-93019619D01*
X151360143Y-93067238D01*
X151407762Y-93114857D01*
X151455381Y-93210095D01*
X151455381Y-93305334D01*
X151407762Y-93400572D01*
X151360143Y-93448191D01*
X151264905Y-93495810D01*
X151074429Y-93543429D01*
X150836333Y-93543429D01*
X150645857Y-93495810D01*
X150550619Y-93448191D01*
X150503000Y-93400572D01*
X150455381Y-93305334D01*
X150455381Y-92352953D02*
X150455381Y-92257714D01*
X150503000Y-92162476D01*
X150550619Y-92114857D01*
X150645857Y-92067238D01*
X150836333Y-92019619D01*
X151074429Y-92019619D01*
X151264905Y-92067238D01*
X151360143Y-92114857D01*
X151407762Y-92162476D01*
X151455381Y-92257714D01*
X151455381Y-92352953D01*
X151407762Y-92448191D01*
X151360143Y-92495810D01*
X151264905Y-92543429D01*
X151074429Y-92591048D01*
X150836333Y-92591048D01*
X150645857Y-92543429D01*
X150550619Y-92495810D01*
X150503000Y-92448191D01*
X150455381Y-92352953D01*
X151455381Y-91591048D02*
X150455381Y-91591048D01*
X151455381Y-91019619D02*
X150883952Y-91448191D01*
X150455381Y-91019619D02*
X151026810Y-91591048D01*
X137739381Y-101639666D02*
X137263190Y-101973000D01*
X137739381Y-102211095D02*
X136739381Y-102211095D01*
X136739381Y-101830142D01*
X136787000Y-101734904D01*
X136834619Y-101687285D01*
X136929857Y-101639666D01*
X137072714Y-101639666D01*
X137167952Y-101687285D01*
X137215571Y-101734904D01*
X137263190Y-101830142D01*
X137263190Y-102211095D01*
X137072714Y-100782523D02*
X137739381Y-100782523D01*
X136691762Y-101020619D02*
X137406048Y-101258714D01*
X137406048Y-100639666D01*
X137485381Y-94162476D02*
X137485381Y-94733905D01*
X137485381Y-94448191D02*
X136485381Y-94448191D01*
X136628238Y-94543429D01*
X136723476Y-94638667D01*
X136771095Y-94733905D01*
X136485381Y-93257714D02*
X136485381Y-93733905D01*
X136961571Y-93781524D01*
X136913952Y-93733905D01*
X136866333Y-93638667D01*
X136866333Y-93400571D01*
X136913952Y-93305333D01*
X136961571Y-93257714D01*
X137056810Y-93210095D01*
X137294905Y-93210095D01*
X137390143Y-93257714D01*
X137437762Y-93305333D01*
X137485381Y-93400571D01*
X137485381Y-93638667D01*
X137437762Y-93733905D01*
X137390143Y-93781524D01*
X137485381Y-92781524D02*
X136485381Y-92781524D01*
X137485381Y-92210095D02*
X136913952Y-92638667D01*
X136485381Y-92210095D02*
X137056810Y-92781524D01*
X134945381Y-101639666D02*
X134469190Y-101973000D01*
X134945381Y-102211095D02*
X133945381Y-102211095D01*
X133945381Y-101830142D01*
X133993000Y-101734904D01*
X134040619Y-101687285D01*
X134135857Y-101639666D01*
X134278714Y-101639666D01*
X134373952Y-101687285D01*
X134421571Y-101734904D01*
X134469190Y-101830142D01*
X134469190Y-102211095D01*
X133945381Y-100734904D02*
X133945381Y-101211095D01*
X134421571Y-101258714D01*
X134373952Y-101211095D01*
X134326333Y-101115857D01*
X134326333Y-100877761D01*
X134373952Y-100782523D01*
X134421571Y-100734904D01*
X134516810Y-100687285D01*
X134754905Y-100687285D01*
X134850143Y-100734904D01*
X134897762Y-100782523D01*
X134945381Y-100877761D01*
X134945381Y-101115857D01*
X134897762Y-101211095D01*
X134850143Y-101258714D01*
X134945381Y-94233904D02*
X134945381Y-94805333D01*
X134945381Y-94519619D02*
X133945381Y-94519619D01*
X134088238Y-94614857D01*
X134183476Y-94710095D01*
X134231095Y-94805333D01*
X133945381Y-93329142D02*
X133945381Y-93805333D01*
X134421571Y-93852952D01*
X134373952Y-93805333D01*
X134326333Y-93710095D01*
X134326333Y-93471999D01*
X134373952Y-93376761D01*
X134421571Y-93329142D01*
X134516810Y-93281523D01*
X134754905Y-93281523D01*
X134850143Y-93329142D01*
X134897762Y-93376761D01*
X134945381Y-93471999D01*
X134945381Y-93710095D01*
X134897762Y-93805333D01*
X134850143Y-93852952D01*
X134945381Y-92852952D02*
X133945381Y-92852952D01*
X134659667Y-92519618D01*
X133945381Y-92186285D01*
X134945381Y-92186285D01*
X139644381Y-100750666D02*
X139168190Y-101084000D01*
X139644381Y-101322095D02*
X138644381Y-101322095D01*
X138644381Y-100941142D01*
X138692000Y-100845904D01*
X138739619Y-100798285D01*
X138834857Y-100750666D01*
X138977714Y-100750666D01*
X139072952Y-100798285D01*
X139120571Y-100845904D01*
X139168190Y-100941142D01*
X139168190Y-101322095D01*
X138644381Y-99893523D02*
X138644381Y-100084000D01*
X138692000Y-100179238D01*
X138739619Y-100226857D01*
X138882476Y-100322095D01*
X139072952Y-100369714D01*
X139453905Y-100369714D01*
X139549143Y-100322095D01*
X139596762Y-100274476D01*
X139644381Y-100179238D01*
X139644381Y-99988761D01*
X139596762Y-99893523D01*
X139549143Y-99845904D01*
X139453905Y-99798285D01*
X139215810Y-99798285D01*
X139120571Y-99845904D01*
X139072952Y-99893523D01*
X139025333Y-99988761D01*
X139025333Y-100179238D01*
X139072952Y-100274476D01*
X139120571Y-100322095D01*
X139215810Y-100369714D01*
X141295381Y-95424380D02*
X141295381Y-95995809D01*
X141295381Y-95710095D02*
X140295381Y-95710095D01*
X140438238Y-95805333D01*
X140533476Y-95900571D01*
X140581095Y-95995809D01*
X140295381Y-94805333D02*
X140295381Y-94710094D01*
X140343000Y-94614856D01*
X140390619Y-94567237D01*
X140485857Y-94519618D01*
X140676333Y-94471999D01*
X140914429Y-94471999D01*
X141104905Y-94519618D01*
X141200143Y-94567237D01*
X141247762Y-94614856D01*
X141295381Y-94710094D01*
X141295381Y-94805333D01*
X141247762Y-94900571D01*
X141200143Y-94948190D01*
X141104905Y-94995809D01*
X140914429Y-95043428D01*
X140676333Y-95043428D01*
X140485857Y-94995809D01*
X140390619Y-94948190D01*
X140343000Y-94900571D01*
X140295381Y-94805333D01*
X141200143Y-94043428D02*
X141247762Y-93995809D01*
X141295381Y-94043428D01*
X141247762Y-94091047D01*
X141200143Y-94043428D01*
X141295381Y-94043428D01*
X140295381Y-93376762D02*
X140295381Y-93281523D01*
X140343000Y-93186285D01*
X140390619Y-93138666D01*
X140485857Y-93091047D01*
X140676333Y-93043428D01*
X140914429Y-93043428D01*
X141104905Y-93091047D01*
X141200143Y-93138666D01*
X141247762Y-93186285D01*
X141295381Y-93281523D01*
X141295381Y-93376762D01*
X141247762Y-93472000D01*
X141200143Y-93519619D01*
X141104905Y-93567238D01*
X140914429Y-93614857D01*
X140676333Y-93614857D01*
X140485857Y-93567238D01*
X140390619Y-93519619D01*
X140343000Y-93472000D01*
X140295381Y-93376762D01*
X140295381Y-92424381D02*
X140295381Y-92329142D01*
X140343000Y-92233904D01*
X140390619Y-92186285D01*
X140485857Y-92138666D01*
X140676333Y-92091047D01*
X140914429Y-92091047D01*
X141104905Y-92138666D01*
X141200143Y-92186285D01*
X141247762Y-92233904D01*
X141295381Y-92329142D01*
X141295381Y-92424381D01*
X141247762Y-92519619D01*
X141200143Y-92567238D01*
X141104905Y-92614857D01*
X140914429Y-92662476D01*
X140676333Y-92662476D01*
X140485857Y-92614857D01*
X140390619Y-92567238D01*
X140343000Y-92519619D01*
X140295381Y-92424381D01*
X141295381Y-91662476D02*
X140295381Y-91662476D01*
X141009667Y-91329142D01*
X140295381Y-90995809D01*
X141295381Y-90995809D01*
X146121381Y-99480666D02*
X145645190Y-99814000D01*
X146121381Y-100052095D02*
X145121381Y-100052095D01*
X145121381Y-99671142D01*
X145169000Y-99575904D01*
X145216619Y-99528285D01*
X145311857Y-99480666D01*
X145454714Y-99480666D01*
X145549952Y-99528285D01*
X145597571Y-99575904D01*
X145645190Y-99671142D01*
X145645190Y-100052095D01*
X145121381Y-99147333D02*
X145121381Y-98480666D01*
X146121381Y-98909238D01*
X143835381Y-95352952D02*
X143835381Y-95924381D01*
X143835381Y-95638667D02*
X142835381Y-95638667D01*
X142978238Y-95733905D01*
X143073476Y-95829143D01*
X143121095Y-95924381D01*
X142835381Y-94733905D02*
X142835381Y-94638666D01*
X142883000Y-94543428D01*
X142930619Y-94495809D01*
X143025857Y-94448190D01*
X143216333Y-94400571D01*
X143454429Y-94400571D01*
X143644905Y-94448190D01*
X143740143Y-94495809D01*
X143787762Y-94543428D01*
X143835381Y-94638666D01*
X143835381Y-94733905D01*
X143787762Y-94829143D01*
X143740143Y-94876762D01*
X143644905Y-94924381D01*
X143454429Y-94972000D01*
X143216333Y-94972000D01*
X143025857Y-94924381D01*
X142930619Y-94876762D01*
X142883000Y-94829143D01*
X142835381Y-94733905D01*
X143740143Y-93972000D02*
X143787762Y-93924381D01*
X143835381Y-93972000D01*
X143787762Y-94019619D01*
X143740143Y-93972000D01*
X143835381Y-93972000D01*
X142835381Y-93305334D02*
X142835381Y-93210095D01*
X142883000Y-93114857D01*
X142930619Y-93067238D01*
X143025857Y-93019619D01*
X143216333Y-92972000D01*
X143454429Y-92972000D01*
X143644905Y-93019619D01*
X143740143Y-93067238D01*
X143787762Y-93114857D01*
X143835381Y-93210095D01*
X143835381Y-93305334D01*
X143787762Y-93400572D01*
X143740143Y-93448191D01*
X143644905Y-93495810D01*
X143454429Y-93543429D01*
X143216333Y-93543429D01*
X143025857Y-93495810D01*
X142930619Y-93448191D01*
X142883000Y-93400572D01*
X142835381Y-93305334D01*
X142835381Y-92352953D02*
X142835381Y-92257714D01*
X142883000Y-92162476D01*
X142930619Y-92114857D01*
X143025857Y-92067238D01*
X143216333Y-92019619D01*
X143454429Y-92019619D01*
X143644905Y-92067238D01*
X143740143Y-92114857D01*
X143787762Y-92162476D01*
X143835381Y-92257714D01*
X143835381Y-92352953D01*
X143787762Y-92448191D01*
X143740143Y-92495810D01*
X143644905Y-92543429D01*
X143454429Y-92591048D01*
X143216333Y-92591048D01*
X143025857Y-92543429D01*
X142930619Y-92495810D01*
X142883000Y-92448191D01*
X142835381Y-92352953D01*
X143835381Y-91591048D02*
X142835381Y-91591048D01*
X143835381Y-91019619D02*
X143263952Y-91448191D01*
X142835381Y-91019619D02*
X143406810Y-91591048D01*
X131516381Y-104814666D02*
X131040190Y-105148000D01*
X131516381Y-105386095D02*
X130516381Y-105386095D01*
X130516381Y-105005142D01*
X130564000Y-104909904D01*
X130611619Y-104862285D01*
X130706857Y-104814666D01*
X130849714Y-104814666D01*
X130944952Y-104862285D01*
X130992571Y-104909904D01*
X131040190Y-105005142D01*
X131040190Y-105386095D01*
X130944952Y-104243238D02*
X130897333Y-104338476D01*
X130849714Y-104386095D01*
X130754476Y-104433714D01*
X130706857Y-104433714D01*
X130611619Y-104386095D01*
X130564000Y-104338476D01*
X130516381Y-104243238D01*
X130516381Y-104052761D01*
X130564000Y-103957523D01*
X130611619Y-103909904D01*
X130706857Y-103862285D01*
X130754476Y-103862285D01*
X130849714Y-103909904D01*
X130897333Y-103957523D01*
X130944952Y-104052761D01*
X130944952Y-104243238D01*
X130992571Y-104338476D01*
X131040190Y-104386095D01*
X131135429Y-104433714D01*
X131325905Y-104433714D01*
X131421143Y-104386095D01*
X131468762Y-104338476D01*
X131516381Y-104243238D01*
X131516381Y-104052761D01*
X131468762Y-103957523D01*
X131421143Y-103909904D01*
X131325905Y-103862285D01*
X131135429Y-103862285D01*
X131040190Y-103909904D01*
X130992571Y-103957523D01*
X130944952Y-104052761D01*
X130484619Y-98289905D02*
X130437000Y-98242286D01*
X130389381Y-98147048D01*
X130389381Y-97908952D01*
X130437000Y-97813714D01*
X130484619Y-97766095D01*
X130579857Y-97718476D01*
X130675095Y-97718476D01*
X130817952Y-97766095D01*
X131389381Y-98337524D01*
X131389381Y-97718476D01*
X130389381Y-97099429D02*
X130389381Y-97004190D01*
X130437000Y-96908952D01*
X130484619Y-96861333D01*
X130579857Y-96813714D01*
X130770333Y-96766095D01*
X131008429Y-96766095D01*
X131198905Y-96813714D01*
X131294143Y-96861333D01*
X131341762Y-96908952D01*
X131389381Y-97004190D01*
X131389381Y-97099429D01*
X131341762Y-97194667D01*
X131294143Y-97242286D01*
X131198905Y-97289905D01*
X131008429Y-97337524D01*
X130770333Y-97337524D01*
X130579857Y-97289905D01*
X130484619Y-97242286D01*
X130437000Y-97194667D01*
X130389381Y-97099429D01*
X131389381Y-96337524D02*
X130389381Y-96337524D01*
X131389381Y-95766095D02*
X130817952Y-96194667D01*
X130389381Y-95766095D02*
X130960810Y-96337524D01*
X109815334Y-104846381D02*
X109482000Y-104370190D01*
X109243905Y-104846381D02*
X109243905Y-103846381D01*
X109624858Y-103846381D01*
X109720096Y-103894000D01*
X109767715Y-103941619D01*
X109815334Y-104036857D01*
X109815334Y-104179714D01*
X109767715Y-104274952D01*
X109720096Y-104322571D01*
X109624858Y-104370190D01*
X109243905Y-104370190D01*
X110291524Y-104846381D02*
X110482000Y-104846381D01*
X110577239Y-104798762D01*
X110624858Y-104751143D01*
X110720096Y-104608286D01*
X110767715Y-104417810D01*
X110767715Y-104036857D01*
X110720096Y-103941619D01*
X110672477Y-103894000D01*
X110577239Y-103846381D01*
X110386762Y-103846381D01*
X110291524Y-103894000D01*
X110243905Y-103941619D01*
X110196286Y-104036857D01*
X110196286Y-104274952D01*
X110243905Y-104370190D01*
X110291524Y-104417810D01*
X110386762Y-104465429D01*
X110577239Y-104465429D01*
X110672477Y-104417810D01*
X110720096Y-104370190D01*
X110767715Y-104274952D01*
X115721048Y-104719381D02*
X115149619Y-104719381D01*
X115435333Y-104719381D02*
X115435333Y-103719381D01*
X115340095Y-103862238D01*
X115244857Y-103957476D01*
X115149619Y-104005095D01*
X116340095Y-103719381D02*
X116435334Y-103719381D01*
X116530572Y-103767000D01*
X116578191Y-103814619D01*
X116625810Y-103909857D01*
X116673429Y-104100333D01*
X116673429Y-104338429D01*
X116625810Y-104528905D01*
X116578191Y-104624143D01*
X116530572Y-104671762D01*
X116435334Y-104719381D01*
X116340095Y-104719381D01*
X116244857Y-104671762D01*
X116197238Y-104624143D01*
X116149619Y-104528905D01*
X116102000Y-104338429D01*
X116102000Y-104100333D01*
X116149619Y-103909857D01*
X116197238Y-103814619D01*
X116244857Y-103767000D01*
X116340095Y-103719381D01*
X117292476Y-103719381D02*
X117387715Y-103719381D01*
X117482953Y-103767000D01*
X117530572Y-103814619D01*
X117578191Y-103909857D01*
X117625810Y-104100333D01*
X117625810Y-104338429D01*
X117578191Y-104528905D01*
X117530572Y-104624143D01*
X117482953Y-104671762D01*
X117387715Y-104719381D01*
X117292476Y-104719381D01*
X117197238Y-104671762D01*
X117149619Y-104624143D01*
X117102000Y-104528905D01*
X117054381Y-104338429D01*
X117054381Y-104100333D01*
X117102000Y-103909857D01*
X117149619Y-103814619D01*
X117197238Y-103767000D01*
X117292476Y-103719381D01*
X118054381Y-104624143D02*
X118102000Y-104671762D01*
X118054381Y-104719381D01*
X118006762Y-104671762D01*
X118054381Y-104624143D01*
X118054381Y-104719381D01*
X118721047Y-103719381D02*
X118816286Y-103719381D01*
X118911524Y-103767000D01*
X118959143Y-103814619D01*
X119006762Y-103909857D01*
X119054381Y-104100333D01*
X119054381Y-104338429D01*
X119006762Y-104528905D01*
X118959143Y-104624143D01*
X118911524Y-104671762D01*
X118816286Y-104719381D01*
X118721047Y-104719381D01*
X118625809Y-104671762D01*
X118578190Y-104624143D01*
X118530571Y-104528905D01*
X118482952Y-104338429D01*
X118482952Y-104100333D01*
X118530571Y-103909857D01*
X118578190Y-103814619D01*
X118625809Y-103767000D01*
X118721047Y-103719381D01*
X119482952Y-104719381D02*
X119482952Y-103719381D01*
X120054381Y-104719381D02*
X119625809Y-104147952D01*
X120054381Y-103719381D02*
X119482952Y-104290810D01*
X106799143Y-89606381D02*
X106465809Y-89130190D01*
X106227714Y-89606381D02*
X106227714Y-88606381D01*
X106608667Y-88606381D01*
X106703905Y-88654000D01*
X106751524Y-88701619D01*
X106799143Y-88796857D01*
X106799143Y-88939714D01*
X106751524Y-89034952D01*
X106703905Y-89082571D01*
X106608667Y-89130190D01*
X106227714Y-89130190D01*
X107751524Y-89606381D02*
X107180095Y-89606381D01*
X107465809Y-89606381D02*
X107465809Y-88606381D01*
X107370571Y-88749238D01*
X107275333Y-88844476D01*
X107180095Y-88892095D01*
X108370571Y-88606381D02*
X108465810Y-88606381D01*
X108561048Y-88654000D01*
X108608667Y-88701619D01*
X108656286Y-88796857D01*
X108703905Y-88987333D01*
X108703905Y-89225429D01*
X108656286Y-89415905D01*
X108608667Y-89511143D01*
X108561048Y-89558762D01*
X108465810Y-89606381D01*
X108370571Y-89606381D01*
X108275333Y-89558762D01*
X108227714Y-89511143D01*
X108180095Y-89415905D01*
X108132476Y-89225429D01*
X108132476Y-88987333D01*
X108180095Y-88796857D01*
X108227714Y-88701619D01*
X108275333Y-88654000D01*
X108370571Y-88606381D01*
X113181048Y-89479381D02*
X112609619Y-89479381D01*
X112895333Y-89479381D02*
X112895333Y-88479381D01*
X112800095Y-88622238D01*
X112704857Y-88717476D01*
X112609619Y-88765095D01*
X113800095Y-88479381D02*
X113895334Y-88479381D01*
X113990572Y-88527000D01*
X114038191Y-88574619D01*
X114085810Y-88669857D01*
X114133429Y-88860333D01*
X114133429Y-89098429D01*
X114085810Y-89288905D01*
X114038191Y-89384143D01*
X113990572Y-89431762D01*
X113895334Y-89479381D01*
X113800095Y-89479381D01*
X113704857Y-89431762D01*
X113657238Y-89384143D01*
X113609619Y-89288905D01*
X113562000Y-89098429D01*
X113562000Y-88860333D01*
X113609619Y-88669857D01*
X113657238Y-88574619D01*
X113704857Y-88527000D01*
X113800095Y-88479381D01*
X114752476Y-88479381D02*
X114847715Y-88479381D01*
X114942953Y-88527000D01*
X114990572Y-88574619D01*
X115038191Y-88669857D01*
X115085810Y-88860333D01*
X115085810Y-89098429D01*
X115038191Y-89288905D01*
X114990572Y-89384143D01*
X114942953Y-89431762D01*
X114847715Y-89479381D01*
X114752476Y-89479381D01*
X114657238Y-89431762D01*
X114609619Y-89384143D01*
X114562000Y-89288905D01*
X114514381Y-89098429D01*
X114514381Y-88860333D01*
X114562000Y-88669857D01*
X114609619Y-88574619D01*
X114657238Y-88527000D01*
X114752476Y-88479381D01*
X115514381Y-89384143D02*
X115562000Y-89431762D01*
X115514381Y-89479381D01*
X115466762Y-89431762D01*
X115514381Y-89384143D01*
X115514381Y-89479381D01*
X116181047Y-88479381D02*
X116276286Y-88479381D01*
X116371524Y-88527000D01*
X116419143Y-88574619D01*
X116466762Y-88669857D01*
X116514381Y-88860333D01*
X116514381Y-89098429D01*
X116466762Y-89288905D01*
X116419143Y-89384143D01*
X116371524Y-89431762D01*
X116276286Y-89479381D01*
X116181047Y-89479381D01*
X116085809Y-89431762D01*
X116038190Y-89384143D01*
X115990571Y-89288905D01*
X115942952Y-89098429D01*
X115942952Y-88860333D01*
X115990571Y-88669857D01*
X116038190Y-88574619D01*
X116085809Y-88527000D01*
X116181047Y-88479381D01*
X116942952Y-89479381D02*
X116942952Y-88479381D01*
X117514381Y-89479381D02*
X117085809Y-88907952D01*
X117514381Y-88479381D02*
X116942952Y-89050810D01*
X136515362Y-76263333D02*
X136562981Y-76120476D01*
X136562981Y-75882380D01*
X136515362Y-75787142D01*
X136467743Y-75739523D01*
X136372505Y-75691904D01*
X136277267Y-75691904D01*
X136182029Y-75739523D01*
X136134410Y-75787142D01*
X136086790Y-75882380D01*
X136039171Y-76072857D01*
X135991552Y-76168095D01*
X135943933Y-76215714D01*
X135848695Y-76263333D01*
X135753457Y-76263333D01*
X135658219Y-76215714D01*
X135610600Y-76168095D01*
X135562981Y-76072857D01*
X135562981Y-75834761D01*
X135610600Y-75691904D01*
X135562981Y-75358571D02*
X136562981Y-75120476D01*
X135848695Y-74929999D01*
X136562981Y-74739523D01*
X135562981Y-74501428D01*
X136562981Y-73596666D02*
X136562981Y-74168095D01*
X136562981Y-73882381D02*
X135562981Y-73882381D01*
X135705838Y-73977619D01*
X135801076Y-74072857D01*
X135848695Y-74168095D01*
D14*
X124671667Y-82937048D02*
X126123095Y-82937048D01*
X125397381Y-85477048D02*
X125397381Y-82937048D01*
X127453571Y-84267524D02*
X127453571Y-85477048D01*
X126606905Y-82937048D02*
X127453571Y-84267524D01*
X128300238Y-82937048D01*
X129146905Y-85477048D02*
X129146905Y-82937048D01*
X130114524Y-82937048D01*
X130356429Y-83058000D01*
X130477381Y-83178952D01*
X130598333Y-83420857D01*
X130598333Y-83783714D01*
X130477381Y-84025619D01*
X130356429Y-84146571D01*
X130114524Y-84267524D01*
X129146905Y-84267524D01*
X131686905Y-84146571D02*
X132533572Y-84146571D01*
X132896429Y-85477048D02*
X131686905Y-85477048D01*
X131686905Y-82937048D01*
X132896429Y-82937048D01*
D13*
X156614762Y-77914333D02*
X156662381Y-77771476D01*
X156662381Y-77533380D01*
X156614762Y-77438142D01*
X156567143Y-77390523D01*
X156471905Y-77342904D01*
X156376667Y-77342904D01*
X156281429Y-77390523D01*
X156233810Y-77438142D01*
X156186190Y-77533380D01*
X156138571Y-77723857D01*
X156090952Y-77819095D01*
X156043333Y-77866714D01*
X155948095Y-77914333D01*
X155852857Y-77914333D01*
X155757619Y-77866714D01*
X155710000Y-77819095D01*
X155662381Y-77723857D01*
X155662381Y-77485761D01*
X155710000Y-77342904D01*
X155662381Y-77009571D02*
X156662381Y-76771476D01*
X155948095Y-76580999D01*
X156662381Y-76390523D01*
X155662381Y-76152428D01*
X155757619Y-75819095D02*
X155710000Y-75771476D01*
X155662381Y-75676238D01*
X155662381Y-75438142D01*
X155710000Y-75342904D01*
X155757619Y-75295285D01*
X155852857Y-75247666D01*
X155948095Y-75247666D01*
X156090952Y-75295285D01*
X156662381Y-75866714D01*
X156662381Y-75247666D01*
D14*
X140516428Y-85870143D02*
X140395476Y-85991095D01*
X140032619Y-86112048D01*
X139790714Y-86112048D01*
X139427857Y-85991095D01*
X139185952Y-85749190D01*
X139065000Y-85507286D01*
X138944048Y-85023476D01*
X138944048Y-84660619D01*
X139065000Y-84176810D01*
X139185952Y-83934905D01*
X139427857Y-83693000D01*
X139790714Y-83572048D01*
X140032619Y-83572048D01*
X140395476Y-83693000D01*
X140516428Y-83813952D01*
X142693571Y-84418714D02*
X142693571Y-86112048D01*
X141605000Y-84418714D02*
X141605000Y-85749190D01*
X141725952Y-85991095D01*
X141967857Y-86112048D01*
X142330714Y-86112048D01*
X142572619Y-85991095D01*
X142693571Y-85870143D01*
X143903095Y-86112048D02*
X143903095Y-84418714D01*
X143903095Y-84902524D02*
X144024047Y-84660619D01*
X144145000Y-84539667D01*
X144386904Y-84418714D01*
X144628809Y-84418714D01*
X145475476Y-86112048D02*
X145475476Y-84418714D01*
X145475476Y-84902524D02*
X145596428Y-84660619D01*
X145717381Y-84539667D01*
X145959285Y-84418714D01*
X146201190Y-84418714D01*
X148015476Y-85991095D02*
X147773571Y-86112048D01*
X147289762Y-86112048D01*
X147047857Y-85991095D01*
X146926905Y-85749190D01*
X146926905Y-84781571D01*
X147047857Y-84539667D01*
X147289762Y-84418714D01*
X147773571Y-84418714D01*
X148015476Y-84539667D01*
X148136428Y-84781571D01*
X148136428Y-85023476D01*
X146926905Y-85265381D01*
X149225000Y-84418714D02*
X149225000Y-86112048D01*
X149225000Y-84660619D02*
X149345952Y-84539667D01*
X149587857Y-84418714D01*
X149950714Y-84418714D01*
X150192619Y-84539667D01*
X150313571Y-84781571D01*
X150313571Y-86112048D01*
X151160238Y-84418714D02*
X152127857Y-84418714D01*
X151523095Y-83572048D02*
X151523095Y-85749190D01*
X151644047Y-85991095D01*
X151885952Y-86112048D01*
X152127857Y-86112048D01*
D13*
X116078095Y-101687381D02*
X116078095Y-102496905D01*
X116125714Y-102592143D01*
X116173333Y-102639762D01*
X116268571Y-102687381D01*
X116459048Y-102687381D01*
X116554286Y-102639762D01*
X116601905Y-102592143D01*
X116649524Y-102496905D01*
X116649524Y-101687381D01*
X117649524Y-102687381D02*
X117078095Y-102687381D01*
X117363809Y-102687381D02*
X117363809Y-101687381D01*
X117268571Y-101830238D01*
X117173333Y-101925476D01*
X117078095Y-101973095D01*
X117260952Y-95972381D02*
X117832381Y-95972381D01*
X117546666Y-96972381D02*
X117546666Y-95972381D01*
X118641905Y-96972381D02*
X118165714Y-96972381D01*
X118165714Y-95972381D01*
X119165714Y-95972381D02*
X119260953Y-95972381D01*
X119356191Y-96020000D01*
X119403810Y-96067619D01*
X119451429Y-96162857D01*
X119499048Y-96353333D01*
X119499048Y-96591429D01*
X119451429Y-96781905D01*
X119403810Y-96877143D01*
X119356191Y-96924762D01*
X119260953Y-96972381D01*
X119165714Y-96972381D01*
X119070476Y-96924762D01*
X119022857Y-96877143D01*
X118975238Y-96781905D01*
X118927619Y-96591429D01*
X118927619Y-96353333D01*
X118975238Y-96162857D01*
X119022857Y-96067619D01*
X119070476Y-96020000D01*
X119165714Y-95972381D01*
X120403810Y-95972381D02*
X119927619Y-95972381D01*
X119880000Y-96448571D01*
X119927619Y-96400952D01*
X120022857Y-96353333D01*
X120260953Y-96353333D01*
X120356191Y-96400952D01*
X120403810Y-96448571D01*
X120451429Y-96543810D01*
X120451429Y-96781905D01*
X120403810Y-96877143D01*
X120356191Y-96924762D01*
X120260953Y-96972381D01*
X120022857Y-96972381D01*
X119927619Y-96924762D01*
X119880000Y-96877143D01*
X120832381Y-96067619D02*
X120880000Y-96020000D01*
X120975238Y-95972381D01*
X121213334Y-95972381D01*
X121308572Y-96020000D01*
X121356191Y-96067619D01*
X121403810Y-96162857D01*
X121403810Y-96258095D01*
X121356191Y-96400952D01*
X120784762Y-96972381D01*
X121403810Y-96972381D01*
X99591905Y-102052381D02*
X99591905Y-101052381D01*
X99972858Y-101052381D01*
X100068096Y-101100000D01*
X100115715Y-101147619D01*
X100163334Y-101242857D01*
X100163334Y-101385714D01*
X100115715Y-101480952D01*
X100068096Y-101528571D01*
X99972858Y-101576190D01*
X99591905Y-101576190D01*
X100544286Y-101147619D02*
X100591905Y-101100000D01*
X100687143Y-101052381D01*
X100925239Y-101052381D01*
X101020477Y-101100000D01*
X101068096Y-101147619D01*
X101115715Y-101242857D01*
X101115715Y-101338095D01*
X101068096Y-101480952D01*
X100496667Y-102052381D01*
X101115715Y-102052381D01*
X102036667Y-101822381D02*
X102370000Y-102822381D01*
X102703334Y-101822381D01*
X103370001Y-102298571D02*
X103512858Y-102346190D01*
X103560477Y-102393810D01*
X103608096Y-102489048D01*
X103608096Y-102631905D01*
X103560477Y-102727143D01*
X103512858Y-102774762D01*
X103417620Y-102822381D01*
X103036667Y-102822381D01*
X103036667Y-101822381D01*
X103370001Y-101822381D01*
X103465239Y-101870000D01*
X103512858Y-101917619D01*
X103560477Y-102012857D01*
X103560477Y-102108095D01*
X103512858Y-102203333D01*
X103465239Y-102250952D01*
X103370001Y-102298571D01*
X103036667Y-102298571D01*
X99591905Y-88971381D02*
X99591905Y-87971381D01*
X99972858Y-87971381D01*
X100068096Y-88019000D01*
X100115715Y-88066619D01*
X100163334Y-88161857D01*
X100163334Y-88304714D01*
X100115715Y-88399952D01*
X100068096Y-88447571D01*
X99972858Y-88495190D01*
X99591905Y-88495190D01*
X100496667Y-87971381D02*
X101115715Y-87971381D01*
X100782381Y-88352333D01*
X100925239Y-88352333D01*
X101020477Y-88399952D01*
X101068096Y-88447571D01*
X101115715Y-88542810D01*
X101115715Y-88780905D01*
X101068096Y-88876143D01*
X101020477Y-88923762D01*
X100925239Y-88971381D01*
X100639524Y-88971381D01*
X100544286Y-88923762D01*
X100496667Y-88876143D01*
X102108095Y-91662381D02*
X102441428Y-92662381D01*
X102774762Y-91662381D01*
X103060476Y-92376667D02*
X103536667Y-92376667D01*
X102965238Y-92662381D02*
X103298571Y-91662381D01*
X103631905Y-92662381D01*
X142017762Y-109894619D02*
X141922524Y-109847000D01*
X141827286Y-109751762D01*
X141684429Y-109608905D01*
X141589190Y-109561286D01*
X141493952Y-109561286D01*
X141541571Y-109799381D02*
X141446333Y-109751762D01*
X141351095Y-109656524D01*
X141303476Y-109466048D01*
X141303476Y-109132714D01*
X141351095Y-108942238D01*
X141446333Y-108847000D01*
X141541571Y-108799381D01*
X141732048Y-108799381D01*
X141827286Y-108847000D01*
X141922524Y-108942238D01*
X141970143Y-109132714D01*
X141970143Y-109466048D01*
X141922524Y-109656524D01*
X141827286Y-109751762D01*
X141732048Y-109799381D01*
X141541571Y-109799381D01*
X142922524Y-109799381D02*
X142351095Y-109799381D01*
X142636809Y-109799381D02*
X142636809Y-108799381D01*
X142541571Y-108942238D01*
X142446333Y-109037476D01*
X142351095Y-109085095D01*
X140486048Y-111196381D02*
X140486048Y-110196381D01*
X140724143Y-110196381D01*
X140867001Y-110244000D01*
X140962239Y-110339238D01*
X141009858Y-110434476D01*
X141057477Y-110624952D01*
X141057477Y-110767810D01*
X141009858Y-110958286D01*
X140962239Y-111053524D01*
X140867001Y-111148762D01*
X140724143Y-111196381D01*
X140486048Y-111196381D01*
X141486048Y-111101143D02*
X141533667Y-111148762D01*
X141486048Y-111196381D01*
X141438429Y-111148762D01*
X141486048Y-111101143D01*
X141486048Y-111196381D01*
X141962238Y-110196381D02*
X141962238Y-111005905D01*
X142009857Y-111101143D01*
X142057476Y-111148762D01*
X142152714Y-111196381D01*
X142343191Y-111196381D01*
X142438429Y-111148762D01*
X142486048Y-111101143D01*
X142533667Y-111005905D01*
X142533667Y-110196381D01*
X143009857Y-111101143D02*
X143057476Y-111148762D01*
X143009857Y-111196381D01*
X142962238Y-111148762D01*
X143009857Y-111101143D01*
X143009857Y-111196381D01*
X143343190Y-110196381D02*
X143914619Y-110196381D01*
X143628904Y-111196381D02*
X143628904Y-110196381D01*
X144247952Y-111101143D02*
X144295571Y-111148762D01*
X144247952Y-111196381D01*
X144200333Y-111148762D01*
X144247952Y-111101143D01*
X144247952Y-111196381D01*
M02*
