G04 #@! TF.FileFunction,Copper,L2,Bot,Signal*
%FSLAX46Y46*%
G04 Gerber Fmt 4.6, Leading zero omitted, Abs format (unit mm)*
G04 Created by KiCad (PCBNEW (2016-03-22 BZR 6643, Git db8c72c)-product) date 4/2/2016 6:33:22 PM*
%MOMM*%
G01*
G04 APERTURE LIST*
%ADD10C,0.100000*%
%ADD11C,1.574800*%
%ADD12R,1.900000X2.000000*%
%ADD13C,1.900000*%
%ADD14C,3.175000*%
%ADD15R,3.175000X3.175000*%
%ADD16R,1.574800X1.574800*%
%ADD17C,2.540000*%
%ADD18C,6.350000*%
%ADD19C,1.524000*%
%ADD20C,1.270000*%
%ADD21C,0.304800*%
G04 APERTURE END LIST*
D10*
D11*
X111760000Y-92710000D03*
X111760000Y-100330000D03*
X128270000Y-100330000D03*
X128270000Y-92710000D03*
D12*
X146050000Y-60960000D03*
D13*
X148590000Y-60960000D03*
D12*
X137160000Y-60960000D03*
D13*
X139700000Y-60960000D03*
D14*
X112318800Y-82143600D03*
X112318800Y-78181200D03*
X112318800Y-74218800D03*
X112318800Y-70256400D03*
D11*
X120650000Y-60960000D03*
X130810000Y-60960000D03*
X148590000Y-88878951D03*
X148590000Y-99038951D03*
X151130000Y-88900000D03*
X151130000Y-99060000D03*
X137160000Y-88900000D03*
X137160000Y-99060000D03*
X134620000Y-88900000D03*
X134620000Y-99060000D03*
X140970000Y-88900000D03*
X140970000Y-99060000D03*
X143510000Y-88900000D03*
X143510000Y-99060000D03*
X130810000Y-101600000D03*
X130810000Y-91440000D03*
X113030000Y-104140000D03*
X123190000Y-104140000D03*
X110490000Y-88900000D03*
X120650000Y-88900000D03*
D15*
X131800600Y-79629000D03*
D14*
X131800600Y-74930000D03*
X131800600Y-70231000D03*
X127000000Y-79629000D03*
X127000000Y-74930000D03*
X127000000Y-70231000D03*
D15*
X150850600Y-80010000D03*
D14*
X150850600Y-75311000D03*
X150850600Y-70612000D03*
X146050000Y-80010000D03*
X146050000Y-75311000D03*
X146050000Y-70612000D03*
X141249400Y-80010000D03*
X141249400Y-75311000D03*
X141249400Y-70612000D03*
D16*
X115570000Y-100330000D03*
D11*
X118110000Y-100330000D03*
X120650000Y-100330000D03*
X123190000Y-100330000D03*
X123190000Y-92710000D03*
X120650000Y-92710000D03*
X118110000Y-92710000D03*
X115570000Y-92710000D03*
D17*
X102870000Y-100330000D03*
X102870000Y-90170000D03*
D18*
X100330000Y-107950000D03*
X153670000Y-107950000D03*
X100330000Y-54610000D03*
X153670000Y-54610000D03*
D19*
X144780000Y-105410000D03*
X143510000Y-106680000D03*
X143510000Y-104140000D03*
X140970000Y-104140000D03*
X140970000Y-106680000D03*
X139700000Y-105410000D03*
D20*
X112318800Y-82143600D02*
X112318800Y-92151200D01*
X112318800Y-92151200D02*
X111760000Y-92710000D01*
X112318800Y-78181200D02*
X107950000Y-82550000D01*
X107950000Y-96520000D02*
X110972601Y-99542601D01*
X107950000Y-82550000D02*
X107950000Y-96520000D01*
X110972601Y-99542601D02*
X111760000Y-100330000D01*
X128270000Y-92710000D02*
X128270000Y-95115890D01*
X128270000Y-95115890D02*
X138564110Y-105410000D01*
X138564110Y-105410000D02*
X138622370Y-105410000D01*
X138622370Y-105410000D02*
X139700000Y-105410000D01*
X114935000Y-96520000D02*
X124460000Y-96520000D01*
X112547399Y-99542601D02*
X112547399Y-98907601D01*
X111760000Y-100330000D02*
X112547399Y-99542601D01*
X112547399Y-98907601D02*
X114935000Y-96520000D01*
X124460000Y-96520000D02*
X128270000Y-92710000D01*
X112318800Y-74218800D02*
X112318800Y-78181200D01*
X128270000Y-100330000D02*
X128270000Y-107950000D01*
X116339110Y-109855000D02*
X106045000Y-99560890D01*
X109626400Y-70256400D02*
X112318800Y-70256400D01*
X128270000Y-107950000D02*
X126365000Y-109855000D01*
X126365000Y-109855000D02*
X116339110Y-109855000D01*
X106045000Y-99560890D02*
X106045000Y-72390000D01*
X108585000Y-69850000D02*
X109220000Y-69850000D01*
X109220000Y-69850000D02*
X109626400Y-70256400D01*
X106045000Y-72390000D02*
X108585000Y-69850000D01*
X134620000Y-81493362D02*
X134620000Y-73050400D01*
X134620000Y-73050400D02*
X131800600Y-70231000D01*
X127675936Y-82550000D02*
X133563362Y-82550000D01*
X133563362Y-82550000D02*
X134620000Y-81493362D01*
X127000000Y-79629000D02*
X127000000Y-81874064D01*
X127000000Y-81874064D02*
X127675936Y-82550000D01*
D21*
X130810000Y-60960000D02*
X132715000Y-62865000D01*
X132715000Y-62865000D02*
X137795000Y-62865000D01*
X137795000Y-62865000D02*
X138750001Y-61909999D01*
X138750001Y-61909999D02*
X139700000Y-60960000D01*
X146050000Y-60960000D02*
X139700000Y-60960000D01*
X143510000Y-106680000D02*
X145164050Y-106680000D01*
X145164050Y-106680000D02*
X148590000Y-103254050D01*
X148590000Y-103254050D02*
X148590000Y-100152502D01*
X148590000Y-100152502D02*
X148590000Y-99038951D01*
X143510000Y-104140000D02*
X142113001Y-102743001D01*
X142113001Y-102743001D02*
X142113001Y-96393001D01*
X142113001Y-96393001D02*
X135407399Y-89687399D01*
X135407399Y-89687399D02*
X134620000Y-88900000D01*
X140970000Y-106680000D02*
X141731999Y-105918001D01*
X141731999Y-105918001D02*
X143510000Y-104140000D01*
X141249400Y-70612000D02*
X135610610Y-76250790D01*
X135610610Y-76250790D02*
X135610610Y-87909390D01*
X135407399Y-88112601D02*
X134620000Y-88900000D01*
X135610610Y-87909390D02*
X135407399Y-88112601D01*
X140970000Y-104140000D02*
X140970000Y-99060000D01*
X150850600Y-75311000D02*
X152793701Y-77254101D01*
X152793701Y-77254101D02*
X152793701Y-87236299D01*
X151917399Y-88112601D02*
X151130000Y-88900000D01*
X152793701Y-87236299D02*
X151917399Y-88112601D01*
X141249400Y-75311000D02*
X139661901Y-76898499D01*
X139661901Y-76898499D02*
X139661901Y-78778099D01*
X139661901Y-78778099D02*
X137160000Y-81280000D01*
X137160000Y-81280000D02*
X137160000Y-87786449D01*
X137160000Y-87786449D02*
X137160000Y-88900000D01*
X146050000Y-75311000D02*
X143510000Y-77851000D01*
X143510000Y-77851000D02*
X143510000Y-88900000D01*
D20*
X127000000Y-74930000D02*
X123825000Y-78105000D01*
X123825000Y-78105000D02*
X123825000Y-82049110D01*
X123825000Y-82049110D02*
X134620000Y-92844110D01*
X134620000Y-92844110D02*
X134620000Y-97946449D01*
X134620000Y-97946449D02*
X134620000Y-99060000D01*
X118110000Y-60325000D02*
X119745000Y-58690000D01*
X119745000Y-58690000D02*
X137160000Y-58690000D01*
X118110000Y-68285064D02*
X118110000Y-60325000D01*
X127000000Y-74930000D02*
X124754936Y-74930000D01*
X124754936Y-74930000D02*
X118110000Y-68285064D01*
X148590000Y-60960000D02*
X148590000Y-58420000D01*
X147955000Y-57785000D02*
X138065000Y-57785000D01*
X148590000Y-58420000D02*
X147955000Y-57785000D01*
X138065000Y-57785000D02*
X137160000Y-58690000D01*
X137160000Y-58690000D02*
X137160000Y-60960000D01*
X146050000Y-70612000D02*
X144839438Y-70612000D01*
X144839438Y-70612000D02*
X139429228Y-65201790D01*
X139429228Y-65201790D02*
X124891790Y-65201790D01*
X124891790Y-65201790D02*
X121437399Y-61747399D01*
X121437399Y-61747399D02*
X120650000Y-60960000D01*
X150850600Y-70612000D02*
X146050000Y-70612000D01*
M02*
