M48
;DRILL file {KiCad (5.0.1)-3} date 12/6/2018 9:09:36 PM
;FORMAT={-:-/ absolute / metric / decimal}
FMAT,2
METRIC,TZ
T1C0.900
T2C0.914
T3C1.524
T4C2.413
%
G90
G05
M71
T1
X167.64Y-132.08
X170.18Y-132.08
X116.84Y-132.08
X119.38Y-132.08
X142.24Y-132.08
X144.78Y-132.08
T2
X125.73Y-107.95
X125.73Y-110.49
X128.27Y-107.95
X128.27Y-110.49
X130.81Y-107.95
X130.81Y-110.49
X133.35Y-107.95
X133.35Y-110.49
X135.89Y-107.95
X135.89Y-110.49
X138.43Y-107.95
X138.43Y-110.49
X140.97Y-107.95
X140.97Y-110.49
X143.51Y-107.95
X143.51Y-110.49
T3
X106.68Y-131.521
X110.49Y-123.901
X113.03Y-118.821
X157.48Y-131.521
X161.29Y-123.901
X163.83Y-118.821
X132.08Y-131.521
X135.89Y-123.901
X138.43Y-118.821
T4
X102.87Y-128.981
X106.68Y-116.281
X110.49Y-128.981
X153.67Y-128.981
X157.48Y-116.281
X161.29Y-128.981
X128.27Y-128.981
X132.08Y-116.281
X135.89Y-128.981
T0
M30
