G04 #@! TF.GenerationSoftware,KiCad,Pcbnew,(5.0.1)-3*
G04 #@! TF.CreationDate,2018-12-06T21:09:28-08:00*
G04 #@! TF.ProjectId,500-1033,3530302D313033332E6B696361645F70,A*
G04 #@! TF.SameCoordinates,Original*
G04 #@! TF.FileFunction,Copper,L2,Bot,Signal*
G04 #@! TF.FilePolarity,Positive*
%FSLAX46Y46*%
G04 Gerber Fmt 4.6, Leading zero omitted, Abs format (unit mm)*
G04 Created by KiCad (PCBNEW (5.0.1)-3) date 12/6/2018 9:09:28 PM*
%MOMM*%
%LPD*%
G01*
G04 APERTURE LIST*
G04 #@! TA.AperFunction,ComponentPad*
%ADD10R,1.800000X1.800000*%
G04 #@! TD*
G04 #@! TA.AperFunction,ComponentPad*
%ADD11C,1.800000*%
G04 #@! TD*
G04 #@! TA.AperFunction,ComponentPad*
%ADD12C,3.810000*%
G04 #@! TD*
G04 #@! TA.AperFunction,ComponentPad*
%ADD13C,3.048000*%
G04 #@! TD*
G04 #@! TA.AperFunction,ComponentPad*
%ADD14R,1.574800X1.574800*%
G04 #@! TD*
G04 #@! TA.AperFunction,ComponentPad*
%ADD15C,1.574800*%
G04 #@! TD*
G04 #@! TA.AperFunction,Conductor*
%ADD16C,0.304800*%
G04 #@! TD*
G04 APERTURE END LIST*
D10*
G04 #@! TO.P,D1,1*
G04 #@! TO.N,Net-(D1-Pad1)*
X116840000Y-132080000D03*
D11*
G04 #@! TO.P,D1,2*
G04 #@! TO.N,Net-(D1-Pad2)*
X119380000Y-132080000D03*
G04 #@! TD*
D10*
G04 #@! TO.P,D2,1*
G04 #@! TO.N,Net-(D2-Pad1)*
X142240000Y-132080000D03*
D11*
G04 #@! TO.P,D2,2*
G04 #@! TO.N,Net-(D2-Pad2)*
X144780000Y-132080000D03*
G04 #@! TD*
D10*
G04 #@! TO.P,D3,1*
G04 #@! TO.N,Net-(D3-Pad1)*
X167640000Y-132080000D03*
D11*
G04 #@! TO.P,D3,2*
G04 #@! TO.N,Net-(D3-Pad2)*
X170180000Y-132080000D03*
G04 #@! TD*
D12*
G04 #@! TO.P,J1,1*
G04 #@! TO.N,Net-(J1-Pad1)*
X106680000Y-131521200D03*
D13*
G04 #@! TO.P,J1,*
G04 #@! TO.N,*
X110490000Y-128981200D03*
D12*
G04 #@! TO.P,J1,2*
G04 #@! TO.N,Net-(J1-Pad2)*
X110490000Y-123901200D03*
G04 #@! TO.P,J1,3*
G04 #@! TO.N,Net-(J1-Pad3)*
X113030000Y-118821200D03*
D13*
G04 #@! TO.P,J1,*
G04 #@! TO.N,*
X106680000Y-116281200D03*
X102870000Y-128981200D03*
G04 #@! TD*
D12*
G04 #@! TO.P,J2,1*
G04 #@! TO.N,Net-(J2-Pad1)*
X132080000Y-131521200D03*
D13*
G04 #@! TO.P,J2,*
G04 #@! TO.N,*
X135890000Y-128981200D03*
D12*
G04 #@! TO.P,J2,2*
G04 #@! TO.N,Net-(J2-Pad2)*
X135890000Y-123901200D03*
G04 #@! TO.P,J2,3*
G04 #@! TO.N,Net-(J2-Pad3)*
X138430000Y-118821200D03*
D13*
G04 #@! TO.P,J2,*
G04 #@! TO.N,*
X132080000Y-116281200D03*
X128270000Y-128981200D03*
G04 #@! TD*
D12*
G04 #@! TO.P,J3,1*
G04 #@! TO.N,Net-(J3-Pad1)*
X157480000Y-131521200D03*
D13*
G04 #@! TO.P,J3,*
G04 #@! TO.N,*
X161290000Y-128981200D03*
D12*
G04 #@! TO.P,J3,2*
G04 #@! TO.N,Net-(J3-Pad2)*
X161290000Y-123901200D03*
G04 #@! TO.P,J3,3*
G04 #@! TO.N,Net-(J3-Pad3)*
X163830000Y-118821200D03*
D13*
G04 #@! TO.P,J3,*
G04 #@! TO.N,*
X157480000Y-116281200D03*
X153670000Y-128981200D03*
G04 #@! TD*
D14*
G04 #@! TO.P,P1,1*
G04 #@! TO.N,Net-(J1-Pad3)*
X125730000Y-110490000D03*
D15*
G04 #@! TO.P,P1,2*
G04 #@! TO.N,Net-(J2-Pad3)*
X125730000Y-107950000D03*
G04 #@! TO.P,P1,3*
G04 #@! TO.N,Net-(J1-Pad2)*
X128270000Y-110490000D03*
G04 #@! TO.P,P1,4*
G04 #@! TO.N,Net-(J2-Pad2)*
X128270000Y-107950000D03*
G04 #@! TO.P,P1,5*
G04 #@! TO.N,Net-(J1-Pad1)*
X130810000Y-110490000D03*
G04 #@! TO.P,P1,6*
G04 #@! TO.N,Net-(J2-Pad1)*
X130810000Y-107950000D03*
G04 #@! TO.P,P1,7*
G04 #@! TO.N,Net-(J3-Pad3)*
X133350000Y-110490000D03*
G04 #@! TO.P,P1,8*
G04 #@! TO.N,Net-(J3-Pad1)*
X133350000Y-107950000D03*
G04 #@! TO.P,P1,9*
G04 #@! TO.N,Net-(J3-Pad2)*
X135890000Y-110490000D03*
G04 #@! TO.P,P1,10*
G04 #@! TO.N,Net-(P1-Pad10)*
X135890000Y-107950000D03*
G04 #@! TO.P,P1,11*
G04 #@! TO.N,Net-(D1-Pad2)*
X138430000Y-110490000D03*
G04 #@! TO.P,P1,12*
G04 #@! TO.N,Net-(D1-Pad1)*
X138430000Y-107950000D03*
G04 #@! TO.P,P1,13*
G04 #@! TO.N,Net-(D2-Pad2)*
X140970000Y-110490000D03*
G04 #@! TO.P,P1,14*
G04 #@! TO.N,Net-(D2-Pad1)*
X140970000Y-107950000D03*
G04 #@! TO.P,P1,15*
G04 #@! TO.N,Net-(D3-Pad2)*
X143510000Y-110490000D03*
G04 #@! TO.P,P1,16*
G04 #@! TO.N,Net-(D3-Pad1)*
X143510000Y-107950000D03*
G04 #@! TD*
D16*
G04 #@! TO.N,Net-(D1-Pad1)*
X139217399Y-108737399D02*
X138430000Y-107950000D01*
X142925778Y-114985778D02*
X139700000Y-111760000D01*
X116840000Y-132080000D02*
X116840000Y-133284800D01*
X139700000Y-109220000D02*
X139217399Y-108737399D01*
X139700000Y-130810000D02*
X142925778Y-127584222D01*
X139700000Y-111760000D02*
X139700000Y-109220000D01*
X127000000Y-135890000D02*
X137160000Y-135890000D01*
X125730000Y-134620000D02*
X127000000Y-135890000D01*
X118175200Y-134620000D02*
X125730000Y-134620000D01*
X137160000Y-135890000D02*
X139700000Y-133350000D01*
X142925778Y-127584222D02*
X142925778Y-114985778D01*
X139700000Y-133350000D02*
X139700000Y-130810000D01*
X116840000Y-133284800D02*
X118175200Y-134620000D01*
G04 #@! TO.N,Net-(D1-Pad2)*
X138430000Y-111603551D02*
X138430000Y-110490000D01*
X127000000Y-134620000D02*
X133350000Y-134620000D01*
X124460000Y-132080000D02*
X127000000Y-134620000D01*
X119380000Y-132080000D02*
X124460000Y-132080000D01*
X142240000Y-115413551D02*
X138430000Y-111603551D01*
X142240000Y-125730000D02*
X142240000Y-115413551D01*
X133350000Y-134620000D02*
X142240000Y-125730000D01*
G04 #@! TO.N,Net-(D2-Pad1)*
X142240000Y-111125000D02*
X142240000Y-109220000D01*
X142240000Y-109220000D02*
X140970000Y-107950000D01*
X144145000Y-113030000D02*
X142240000Y-111125000D01*
X144145000Y-128270000D02*
X144145000Y-113030000D01*
X143575200Y-128839800D02*
X144145000Y-128270000D01*
X143575200Y-129540000D02*
X143575200Y-128839800D01*
X142240000Y-132080000D02*
X142240000Y-130875200D01*
X142240000Y-130875200D02*
X143575200Y-129540000D01*
G04 #@! TO.N,Net-(D2-Pad2)*
X140970000Y-111603551D02*
X140970000Y-110490000D01*
X143535389Y-114168940D02*
X140970000Y-111603551D01*
X140335000Y-131037118D02*
X143535389Y-127836729D01*
X140335000Y-133985000D02*
X140335000Y-131037118D01*
X140970000Y-134620000D02*
X140335000Y-133985000D01*
X142240000Y-134620000D02*
X140970000Y-134620000D01*
X143535389Y-127836729D02*
X143535389Y-114168940D01*
X144780000Y-132080000D02*
X142240000Y-134620000D01*
G04 #@! TO.N,Net-(D3-Pad1)*
X166370000Y-107950000D02*
X143510000Y-107950000D01*
X167640000Y-109220000D02*
X166370000Y-107950000D01*
X167640000Y-132080000D02*
X167640000Y-109220000D01*
G04 #@! TO.N,Net-(D3-Pad2)*
X170180000Y-132080000D02*
X170180000Y-133350000D01*
X166282799Y-111847201D02*
X164925598Y-110490000D01*
X170180000Y-133350000D02*
X169545000Y-133985000D01*
X169545000Y-133985000D02*
X166370000Y-133985000D01*
X166370000Y-133985000D02*
X166282799Y-133897799D01*
X164925598Y-110490000D02*
X143510000Y-110490000D01*
X166282799Y-133897799D02*
X166282799Y-111847201D01*
G04 #@! TO.N,Net-(J1-Pad1)*
X130810000Y-110490000D02*
X130810000Y-111760000D01*
X130810000Y-111760000D02*
X128270000Y-114300000D01*
X114300000Y-127000000D02*
X114300000Y-129540000D01*
X128270000Y-114300000D02*
X119380000Y-114300000D01*
X119380000Y-114300000D02*
X116001812Y-117678188D01*
X116001812Y-117678188D02*
X116001812Y-125298188D01*
X116001812Y-125298188D02*
X114300000Y-127000000D01*
X114300000Y-129540000D02*
X112318800Y-131521200D01*
X112318800Y-131521200D02*
X106680000Y-131521200D01*
G04 #@! TO.N,Net-(J1-Pad2)*
X113184076Y-123901200D02*
X110490000Y-123901200D01*
X115392201Y-121693075D02*
X113184076Y-123901200D01*
X115392201Y-117425679D02*
X115392201Y-121693075D01*
X119787880Y-113030000D02*
X115392201Y-117425679D01*
X125730000Y-113030000D02*
X119787880Y-113030000D01*
X128270000Y-110490000D02*
X125730000Y-113030000D01*
G04 #@! TO.N,Net-(J1-Pad3)*
X115570000Y-110490000D02*
X113030000Y-113030000D01*
X113030000Y-113030000D02*
X113030000Y-118821200D01*
X125730000Y-110490000D02*
X115570000Y-110490000D01*
G04 #@! TO.N,Net-(J2-Pad1)*
X130810000Y-107950000D02*
X132080000Y-109220000D01*
X129540000Y-124460000D02*
X132080000Y-127000000D01*
X132080000Y-109220000D02*
X132080000Y-111760000D01*
X132080000Y-111760000D02*
X129540000Y-114300000D01*
X129540000Y-114300000D02*
X129540000Y-124460000D01*
X132080000Y-127000000D02*
X132080000Y-131521200D01*
G04 #@! TD*
M02*
