M48
;DRILL file {KiCad (5.0.2)-1} date 1/1/2019 6:45:31 PM
;FORMAT={-:-/ absolute / metric / decimal}
FMAT,2
METRIC,TZ
T1C0.508
T2C0.813
T3C0.914
T4C1.524
T5C2.413
%
G90
G05
T1
X86.995Y-110.49
X87.63Y-69.85
X88.332Y-109.525
X89.535Y-118.745
X91.217Y-103.822
X93.98Y-103.505
X97.79Y-109.855
X107.95Y-65.405
X108.915Y-94.716
X111.125Y-64.135
X111.125Y-106.045
X113.03Y-107.95
X113.665Y-58.115
X114.3Y-117.475
X114.935Y-98.425
X115.9Y-95.952
X116.84Y-81.28
X116.84Y-86.665
X119.428Y-89.23
X121.92Y-79.375
X123.825Y-88.595
X125.095Y-87.63
X144.145Y-79.045
X144.78Y-90.17
X146.05Y-91.44
X146.05Y-103.505
X147.32Y-80.01
X153.67Y-68.58
X161.925Y-57.785
X162.56Y-96.52
X165.1Y-67.945
X165.167Y-79.682
X167.64Y-72.39
X175.895Y-91.44
X176.53Y-71.12
X179.07Y-87.63
X181.61Y-72.39
X181.61Y-79.68
X184.15Y-92.075
X189.23Y-79.68
X189.23Y-88.9
X191.77Y-87.63
X194.31Y-70.485
X194.31Y-80.645
X204.47Y-65.405
X204.47Y-94.615
X209.55Y-80.01
X210.185Y-93.65
X223.453Y-95.58
X246.38Y-95.25
X259.715Y-87.63
T2
X137.16Y-76.2
X138.43Y-74.93
X139.7Y-76.2
X143.51Y-67.31
X144.78Y-66.04
X144.78Y-68.58
T3
X201.93Y-76.2
X201.93Y-83.82
X204.47Y-76.2
X204.47Y-83.82
X207.01Y-76.2
X207.01Y-83.82
X209.55Y-76.2
X209.55Y-83.82
X237.49Y-87.63
X237.49Y-97.79
X102.87Y-96.52
X107.95Y-96.52
X76.2Y-59.69
X76.2Y-62.23
X78.74Y-59.69
X78.74Y-62.23
X81.28Y-59.69
X81.28Y-62.23
X83.82Y-59.69
X83.82Y-62.23
X86.36Y-59.69
X86.36Y-62.23
X171.45Y-76.2
X171.45Y-83.82
X173.99Y-76.2
X173.99Y-83.82
X227.33Y-76.2
X227.33Y-83.82
X147.32Y-62.23
X147.32Y-72.39
X242.57Y-95.25
X242.57Y-97.79
X152.4Y-62.23
X152.4Y-72.39
X227.33Y-87.63
X227.33Y-90.17
X132.08Y-113.03
X132.08Y-120.65
X242.57Y-76.2
X242.57Y-83.82
X255.27Y-62.23
X255.27Y-72.39
X219.71Y-62.23
X219.71Y-72.39
X199.39Y-76.2
X199.39Y-83.82
X176.53Y-76.2
X176.53Y-83.82
X179.07Y-76.2
X179.07Y-83.82
X181.61Y-76.2
X181.61Y-83.82
X184.15Y-76.2
X184.15Y-83.82
X186.69Y-76.2
X186.69Y-83.82
X189.23Y-76.2
X189.23Y-83.82
X191.77Y-76.2
X191.77Y-83.82
X194.31Y-76.2
X194.31Y-83.82
X96.52Y-59.69
X96.52Y-62.23
X99.06Y-59.69
X99.06Y-62.23
X101.6Y-59.69
X101.6Y-62.23
X104.14Y-59.69
X104.14Y-62.23
X106.68Y-59.69
X106.68Y-62.23
X92.71Y-72.39
X100.33Y-72.39
X154.94Y-76.2
X154.94Y-83.82
X212.09Y-76.2
X212.09Y-83.82
X110.49Y-113.03
X110.49Y-120.65
X154.94Y-62.23
X154.94Y-72.39
X245.11Y-87.63
X245.11Y-97.79
X245.11Y-58.42
X245.11Y-71.12
X247.65Y-63.5
X252.73Y-62.23
X252.73Y-72.39
X156.21Y-113.03
X156.21Y-120.65
X158.75Y-113.03
X158.75Y-120.65
X161.29Y-113.03
X161.29Y-120.65
X116.84Y-59.69
X116.84Y-62.23
X119.38Y-59.69
X119.38Y-62.23
X121.92Y-59.69
X121.92Y-62.23
X124.46Y-59.69
X124.46Y-62.23
X127.Y-59.69
X127.Y-62.23
X153.67Y-96.52
X153.67Y-106.68
X234.95Y-87.63
X234.95Y-97.79
X207.01Y-87.63
X207.01Y-100.33
X107.95Y-99.06
X110.49Y-99.06
X165.1Y-87.63
X165.1Y-100.33
X87.63Y-113.03
X87.63Y-120.65
X237.49Y-62.23
X237.49Y-72.39
X138.43Y-58.42
X138.43Y-71.12
X140.97Y-63.5
X232.41Y-87.63
X232.41Y-97.79
X247.65Y-76.2
X247.65Y-83.82
X250.19Y-76.2
X250.19Y-83.82
X252.73Y-76.2
X252.73Y-83.82
X255.27Y-76.2
X255.27Y-83.82
X137.16Y-97.79
X137.16Y-107.95
X127.Y-76.2
X127.Y-83.82
X129.54Y-76.2
X129.54Y-83.82
X132.08Y-76.2
X132.08Y-83.82
X134.62Y-76.2
X134.62Y-83.82
X219.71Y-87.63
X219.71Y-97.79
X212.09Y-87.63
X212.09Y-100.33
X260.35Y-76.2
X260.35Y-83.82
X234.95Y-62.23
X234.95Y-72.39
X196.85Y-76.2
X196.85Y-83.82
X214.63Y-76.2
X214.63Y-83.82
X170.18Y-87.63
X170.18Y-100.33
X113.03Y-113.03
X113.03Y-120.65
X115.57Y-113.03
X115.57Y-120.65
X118.11Y-113.03
X118.11Y-120.65
X120.65Y-113.03
X120.65Y-120.65
X123.19Y-113.03
X123.19Y-120.65
X125.73Y-113.03
X125.73Y-120.65
X128.27Y-113.03
X128.27Y-120.65
X240.03Y-58.42
X240.03Y-71.12
X242.57Y-63.5
X227.33Y-58.42
X227.33Y-71.12
X229.87Y-63.5
X229.87Y-76.2
X229.87Y-83.82
X156.21Y-96.52
X156.21Y-106.68
X134.62Y-113.03
X134.62Y-120.65
X137.16Y-113.03
X137.16Y-120.65
X139.7Y-113.03
X139.7Y-120.65
X142.24Y-113.03
X142.24Y-120.65
X144.78Y-113.03
X144.78Y-120.65
X147.32Y-113.03
X147.32Y-120.65
X149.86Y-113.03
X149.86Y-120.65
X133.35Y-97.79
X133.35Y-107.95
X252.73Y-87.63
X252.73Y-97.79
X127.Y-86.36
X134.62Y-86.36
X129.54Y-90.17
X132.08Y-90.17
X247.65Y-87.63
X247.65Y-97.79
X250.19Y-62.23
X250.19Y-72.39
X153.67Y-113.03
X153.67Y-120.65
X257.81Y-58.42
X257.81Y-71.12
X260.35Y-63.5
X232.41Y-76.2
X232.41Y-83.82
X234.95Y-76.2
X234.95Y-83.82
X237.49Y-76.2
X237.49Y-83.82
X240.03Y-76.2
X240.03Y-83.82
X250.19Y-87.63
X250.19Y-97.79
X217.17Y-76.2
X217.17Y-83.82
X219.71Y-76.2
X219.71Y-83.82
X222.25Y-76.2
X222.25Y-83.82
X224.79Y-76.2
X224.79Y-83.82
X142.24Y-97.79
X142.24Y-107.95
X90.17Y-96.52
X97.79Y-96.52
X142.24Y-76.2
X142.24Y-83.82
X91.44Y-113.03
X91.44Y-120.65
X93.98Y-113.03
X93.98Y-120.65
X96.52Y-113.03
X96.52Y-120.65
X99.06Y-113.03
X99.06Y-120.65
X101.6Y-113.03
X101.6Y-120.65
X104.14Y-113.03
X104.14Y-120.65
X106.68Y-113.03
X106.68Y-120.65
X229.87Y-87.63
X229.87Y-97.79
X149.86Y-62.23
X149.86Y-72.39
X240.03Y-87.63
X240.03Y-97.79
X232.41Y-62.23
X232.41Y-72.39
X144.78Y-76.2
X144.78Y-83.82
X147.32Y-76.2
X147.32Y-83.82
X149.86Y-76.2
X149.86Y-83.82
X152.4Y-76.2
X152.4Y-83.82
X222.25Y-58.42
X222.25Y-71.12
X224.79Y-63.5
X160.02Y-76.2
X160.02Y-83.82
X162.56Y-76.2
X162.56Y-83.82
X165.1Y-76.2
X165.1Y-83.82
X167.64Y-76.2
X167.64Y-83.82
X151.13Y-96.52
X151.13Y-106.68
X172.72Y-59.69
X172.72Y-62.23
X175.26Y-59.69
X175.26Y-62.23
X177.8Y-59.69
X177.8Y-62.23
X180.34Y-59.69
X180.34Y-62.23
X182.88Y-59.69
X182.88Y-62.23
X185.42Y-59.69
X185.42Y-62.23
X187.96Y-59.69
X187.96Y-62.23
X190.5Y-59.69
X190.5Y-62.23
X157.48Y-76.2
X157.48Y-83.82
X100.33Y-99.06
X102.87Y-99.06
X74.93Y-76.2
X74.93Y-91.44
X77.47Y-76.2
X77.47Y-91.44
X80.01Y-76.2
X80.01Y-91.44
X82.55Y-76.2
X82.55Y-91.44
X85.09Y-76.2
X85.09Y-91.44
X87.63Y-76.2
X87.63Y-91.44
X90.17Y-76.2
X90.17Y-91.44
X92.71Y-76.2
X92.71Y-91.44
X95.25Y-76.2
X95.25Y-91.44
X97.79Y-76.2
X97.79Y-91.44
X100.33Y-76.2
X100.33Y-91.44
X102.87Y-76.2
X102.87Y-91.44
X105.41Y-76.2
X105.41Y-91.44
X107.95Y-76.2
X107.95Y-91.44
X110.49Y-76.2
X110.49Y-91.44
X113.03Y-76.2
X113.03Y-91.44
X115.57Y-76.2
X115.57Y-91.44
X118.11Y-76.2
X118.11Y-91.44
X120.65Y-76.2
X120.65Y-91.44
X123.19Y-76.2
X123.19Y-91.44
X257.81Y-95.25
X257.81Y-97.79
X160.02Y-62.23
X160.02Y-72.39
X255.27Y-87.63
X255.27Y-97.79
X242.57Y-87.63
X242.57Y-90.17
X245.11Y-76.2
X245.11Y-83.82
T4
X254.Y-121.361
X257.81Y-113.741
X260.35Y-108.661
X203.2Y-121.361
X207.01Y-113.741
X209.55Y-108.661
X76.2Y-121.361
X80.01Y-113.741
X82.55Y-108.661
X177.8Y-121.361
X181.61Y-113.741
X184.15Y-108.661
X228.6Y-121.361
X232.41Y-113.741
X234.95Y-108.661
T5
X250.19Y-118.821
X254.Y-106.121
X257.81Y-118.821
X199.39Y-118.821
X203.2Y-106.121
X207.01Y-118.821
X72.39Y-118.821
X76.2Y-106.121
X80.01Y-118.821
X173.99Y-118.821
X177.8Y-106.121
X181.61Y-118.821
X224.79Y-118.821
X228.6Y-106.121
X232.41Y-118.821
T0
M30
