G04 #@! TF.GenerationSoftware,KiCad,Pcbnew,(5.0.2)-1*
G04 #@! TF.CreationDate,2019-01-01T18:45:18-08:00*
G04 #@! TF.ProjectId,500-1063C,3530302d-3130-4363-9343-2e6b69636164,rev?*
G04 #@! TF.SameCoordinates,Original*
G04 #@! TF.FileFunction,Copper,L2,Bot*
G04 #@! TF.FilePolarity,Positive*
%FSLAX46Y46*%
G04 Gerber Fmt 4.6, Leading zero omitted, Abs format (unit mm)*
G04 Created by KiCad (PCBNEW (5.0.2)-1) date 1/1/2019 6:45:18 PM*
%MOMM*%
%LPD*%
G01*
G04 APERTURE LIST*
G04 #@! TA.AperFunction,ComponentPad*
%ADD10R,1.574800X1.574800*%
G04 #@! TD*
G04 #@! TA.AperFunction,ComponentPad*
%ADD11C,1.574800*%
G04 #@! TD*
G04 #@! TA.AperFunction,ComponentPad*
%ADD12C,3.810000*%
G04 #@! TD*
G04 #@! TA.AperFunction,ComponentPad*
%ADD13C,3.048000*%
G04 #@! TD*
G04 #@! TA.AperFunction,ComponentPad*
%ADD14C,1.397000*%
G04 #@! TD*
G04 #@! TA.AperFunction,ViaPad*
%ADD15C,1.016000*%
G04 #@! TD*
G04 #@! TA.AperFunction,Conductor*
%ADD16C,1.270000*%
G04 #@! TD*
G04 #@! TA.AperFunction,Conductor*
%ADD17C,0.304800*%
G04 #@! TD*
G04 APERTURE END LIST*
D10*
G04 #@! TO.P,P3,1*
G04 #@! TO.N,-15V0*
X172720000Y-62230000D03*
D11*
G04 #@! TO.P,P3,2*
X172720000Y-59690000D03*
G04 #@! TO.P,P3,3*
G04 #@! TO.N,GND*
X175260000Y-62230000D03*
G04 #@! TO.P,P3,4*
X175260000Y-59690000D03*
G04 #@! TO.P,P3,5*
X177800000Y-62230000D03*
G04 #@! TO.P,P3,6*
X177800000Y-59690000D03*
G04 #@! TO.P,P3,7*
X180340000Y-62230000D03*
G04 #@! TO.P,P3,8*
X180340000Y-59690000D03*
G04 #@! TO.P,P3,9*
G04 #@! TO.N,+15V0*
X182880000Y-62230000D03*
G04 #@! TO.P,P3,10*
X182880000Y-59690000D03*
G04 #@! TO.P,P3,11*
G04 #@! TO.N,N/C*
X185420000Y-62230000D03*
G04 #@! TO.P,P3,12*
X185420000Y-59690000D03*
G04 #@! TO.P,P3,13*
X187960000Y-62230000D03*
G04 #@! TO.P,P3,14*
X187960000Y-59690000D03*
G04 #@! TO.P,P3,15*
X190500000Y-62230000D03*
G04 #@! TO.P,P3,16*
X190500000Y-59690000D03*
G04 #@! TD*
G04 #@! TO.P,C1,1*
G04 #@! TO.N,VCC*
X87630000Y-113030000D03*
G04 #@! TO.P,C1,2*
G04 #@! TO.N,GND*
X87630000Y-120650000D03*
G04 #@! TD*
G04 #@! TO.P,C2,1*
G04 #@! TO.N,VCC*
X110490000Y-113030000D03*
G04 #@! TO.P,C2,2*
G04 #@! TO.N,GND*
X110490000Y-120650000D03*
G04 #@! TD*
G04 #@! TO.P,C3,1*
G04 #@! TO.N,+15V0*
X214630000Y-76200000D03*
G04 #@! TO.P,C3,2*
G04 #@! TO.N,GND*
X214630000Y-83820000D03*
G04 #@! TD*
G04 #@! TO.P,C4,2*
G04 #@! TO.N,GND*
X227330000Y-76200000D03*
G04 #@! TO.P,C4,1*
G04 #@! TO.N,-15V0*
X227330000Y-83820000D03*
G04 #@! TD*
G04 #@! TO.P,C5,2*
G04 #@! TO.N,GND*
X110490000Y-99060000D03*
G04 #@! TO.P,C5,1*
G04 #@! TO.N,Net-(C5-Pad1)*
X107950000Y-99060000D03*
G04 #@! TD*
G04 #@! TO.P,C6,1*
G04 #@! TO.N,Net-(C6-Pad1)*
X102870000Y-99060000D03*
G04 #@! TO.P,C6,2*
G04 #@! TO.N,GND*
X100330000Y-99060000D03*
G04 #@! TD*
G04 #@! TO.P,C7,1*
G04 #@! TO.N,+15V0*
X142240000Y-76200000D03*
G04 #@! TO.P,C7,2*
G04 #@! TO.N,GND*
X142240000Y-83820000D03*
G04 #@! TD*
G04 #@! TO.P,C8,2*
G04 #@! TO.N,GND*
X154940000Y-76200000D03*
G04 #@! TO.P,C8,1*
G04 #@! TO.N,-15V0*
X154940000Y-83820000D03*
G04 #@! TD*
G04 #@! TO.P,C9,2*
G04 #@! TO.N,GND*
X127000000Y-86360000D03*
G04 #@! TO.P,C9,1*
G04 #@! TO.N,VCC*
X134620000Y-86360000D03*
G04 #@! TD*
G04 #@! TO.P,C10,1*
G04 #@! TO.N,-15V0*
X196850000Y-83820000D03*
G04 #@! TO.P,C10,2*
G04 #@! TO.N,GND*
X196850000Y-76200000D03*
G04 #@! TD*
G04 #@! TO.P,C11,2*
G04 #@! TO.N,GND*
X173990000Y-83820000D03*
G04 #@! TO.P,C11,1*
G04 #@! TO.N,+15V0*
X173990000Y-76200000D03*
G04 #@! TD*
G04 #@! TO.P,C12,1*
G04 #@! TO.N,Net-(C12-Pad1)*
X207010000Y-87630000D03*
G04 #@! TO.P,C12,2*
G04 #@! TO.N,GND*
X207010000Y-100330000D03*
G04 #@! TD*
G04 #@! TO.P,C13,2*
G04 #@! TO.N,GND*
X212090000Y-100330000D03*
G04 #@! TO.P,C13,1*
G04 #@! TO.N,Net-(C13-Pad1)*
X212090000Y-87630000D03*
G04 #@! TD*
G04 #@! TO.P,C14,1*
G04 #@! TO.N,Net-(C14-Pad1)*
X165100000Y-87630000D03*
G04 #@! TO.P,C14,2*
G04 #@! TO.N,GND*
X165100000Y-100330000D03*
G04 #@! TD*
G04 #@! TO.P,C15,2*
G04 #@! TO.N,GND*
X170180000Y-100330000D03*
G04 #@! TO.P,C15,1*
G04 #@! TO.N,Net-(C15-Pad1)*
X170180000Y-87630000D03*
G04 #@! TD*
G04 #@! TO.P,C16,2*
G04 #@! TO.N,GND*
X199390000Y-83820000D03*
G04 #@! TO.P,C16,1*
G04 #@! TO.N,+15V0*
X199390000Y-76200000D03*
G04 #@! TD*
G04 #@! TO.P,C17,2*
G04 #@! TO.N,GND*
X157480000Y-83820000D03*
G04 #@! TO.P,C17,1*
G04 #@! TO.N,+15V0*
X157480000Y-76200000D03*
G04 #@! TD*
G04 #@! TO.P,C18,1*
G04 #@! TO.N,-15V0*
X212090000Y-83820000D03*
G04 #@! TO.P,C18,2*
G04 #@! TO.N,GND*
X212090000Y-76200000D03*
G04 #@! TD*
G04 #@! TO.P,C19,1*
G04 #@! TO.N,-15V0*
X171450000Y-83820000D03*
G04 #@! TO.P,C19,2*
G04 #@! TO.N,GND*
X171450000Y-76200000D03*
G04 #@! TD*
G04 #@! TO.P,C20,1*
G04 #@! TO.N,VCC*
X97790000Y-96520000D03*
G04 #@! TO.P,C20,2*
G04 #@! TO.N,GND*
X90170000Y-96520000D03*
G04 #@! TD*
G04 #@! TO.P,C21,2*
G04 #@! TO.N,GND*
X92710000Y-72390000D03*
G04 #@! TO.P,C21,1*
G04 #@! TO.N,VCC*
X100330000Y-72390000D03*
G04 #@! TD*
G04 #@! TO.P,C22,2*
G04 #@! TO.N,GND*
X129540000Y-90170000D03*
D10*
G04 #@! TO.P,C22,1*
G04 #@! TO.N,VCC*
X132080000Y-90170000D03*
G04 #@! TD*
D11*
G04 #@! TO.P,D1,1*
G04 #@! TO.N,Net-(D1-Pad1)*
X153670000Y-106680000D03*
G04 #@! TO.P,D1,2*
G04 #@! TO.N,Net-(D1-Pad2)*
X153670000Y-96520000D03*
G04 #@! TD*
D12*
G04 #@! TO.P,J1,1*
G04 #@! TO.N,GND*
X76200000Y-121361200D03*
D13*
G04 #@! TO.P,J1,*
G04 #@! TO.N,*
X80010000Y-118821200D03*
D12*
G04 #@! TO.P,J1,2*
G04 #@! TO.N,GND*
X80010000Y-113741200D03*
G04 #@! TO.P,J1,3*
G04 #@! TO.N,Net-(J1-Pad3)*
X82550000Y-108661200D03*
D13*
G04 #@! TO.P,J1,*
G04 #@! TO.N,*
X76200000Y-106121200D03*
X72390000Y-118821200D03*
G04 #@! TD*
G04 #@! TO.P,J2,*
G04 #@! TO.N,*
X224790000Y-118821200D03*
X228600000Y-106121200D03*
D12*
G04 #@! TO.P,J2,3*
G04 #@! TO.N,Net-(J2-Pad3)*
X234950000Y-108661200D03*
G04 #@! TO.P,J2,2*
G04 #@! TO.N,N/C*
X232410000Y-113741200D03*
D13*
G04 #@! TO.P,J2,*
G04 #@! TO.N,*
X232410000Y-118821200D03*
D12*
G04 #@! TO.P,J2,1*
G04 #@! TO.N,GND*
X228600000Y-121361200D03*
G04 #@! TD*
G04 #@! TO.P,J4,1*
G04 #@! TO.N,GND*
X177800000Y-121361200D03*
D13*
G04 #@! TO.P,J4,*
G04 #@! TO.N,*
X181610000Y-118821200D03*
D12*
G04 #@! TO.P,J4,2*
G04 #@! TO.N,N/C*
X181610000Y-113741200D03*
G04 #@! TO.P,J4,3*
G04 #@! TO.N,Net-(J4-Pad3)*
X184150000Y-108661200D03*
D13*
G04 #@! TO.P,J4,*
G04 #@! TO.N,*
X177800000Y-106121200D03*
X173990000Y-118821200D03*
G04 #@! TD*
D12*
G04 #@! TO.P,J5,1*
G04 #@! TO.N,GND*
X203200000Y-121361200D03*
D13*
G04 #@! TO.P,J5,*
G04 #@! TO.N,*
X207010000Y-118821200D03*
D12*
G04 #@! TO.P,J5,2*
G04 #@! TO.N,N/C*
X207010000Y-113741200D03*
G04 #@! TO.P,J5,3*
G04 #@! TO.N,Net-(J5-Pad3)*
X209550000Y-108661200D03*
D13*
G04 #@! TO.P,J5,*
G04 #@! TO.N,*
X203200000Y-106121200D03*
X199390000Y-118821200D03*
G04 #@! TD*
D10*
G04 #@! TO.P,J6,1*
G04 #@! TO.N,Net-(J6-Pad1)*
X116840000Y-62230000D03*
D11*
G04 #@! TO.P,J6,2*
G04 #@! TO.N,N/C*
X116840000Y-59690000D03*
G04 #@! TO.P,J6,3*
G04 #@! TO.N,Net-(J6-Pad3)*
X119380000Y-62230000D03*
G04 #@! TO.P,J6,4*
G04 #@! TO.N,N/C*
X119380000Y-59690000D03*
G04 #@! TO.P,J6,5*
G04 #@! TO.N,Net-(J6-Pad5)*
X121920000Y-62230000D03*
G04 #@! TO.P,J6,6*
G04 #@! TO.N,Net-(J6-Pad6)*
X121920000Y-59690000D03*
G04 #@! TO.P,J6,7*
G04 #@! TO.N,N/C*
X124460000Y-62230000D03*
G04 #@! TO.P,J6,8*
X124460000Y-59690000D03*
G04 #@! TO.P,J6,9*
G04 #@! TO.N,Net-(J6-Pad9)*
X127000000Y-62230000D03*
G04 #@! TO.P,J6,10*
G04 #@! TO.N,N/C*
X127000000Y-59690000D03*
G04 #@! TD*
D10*
G04 #@! TO.P,P1,1*
G04 #@! TO.N,GND*
X76200000Y-62230000D03*
D11*
G04 #@! TO.P,P1,2*
G04 #@! TO.N,Net-(P1-Pad2)*
X76200000Y-59690000D03*
G04 #@! TO.P,P1,3*
G04 #@! TO.N,GND*
X78740000Y-62230000D03*
G04 #@! TO.P,P1,4*
G04 #@! TO.N,Net-(P1-Pad4)*
X78740000Y-59690000D03*
G04 #@! TO.P,P1,5*
G04 #@! TO.N,GND*
X81280000Y-62230000D03*
G04 #@! TO.P,P1,6*
G04 #@! TO.N,Net-(P1-Pad6)*
X81280000Y-59690000D03*
G04 #@! TO.P,P1,7*
G04 #@! TO.N,GND*
X83820000Y-62230000D03*
G04 #@! TO.P,P1,8*
G04 #@! TO.N,Net-(P1-Pad8)*
X83820000Y-59690000D03*
G04 #@! TO.P,P1,9*
G04 #@! TO.N,GND*
X86360000Y-62230000D03*
G04 #@! TO.P,P1,10*
G04 #@! TO.N,Net-(P1-Pad10)*
X86360000Y-59690000D03*
G04 #@! TD*
G04 #@! TO.P,P2,10*
G04 #@! TO.N,GND*
X106680000Y-59690000D03*
G04 #@! TO.P,P2,9*
X106680000Y-62230000D03*
G04 #@! TO.P,P2,8*
G04 #@! TO.N,Net-(P2-Pad8)*
X104140000Y-59690000D03*
G04 #@! TO.P,P2,7*
G04 #@! TO.N,Net-(P2-Pad7)*
X104140000Y-62230000D03*
G04 #@! TO.P,P2,6*
G04 #@! TO.N,GND*
X101600000Y-59690000D03*
G04 #@! TO.P,P2,5*
X101600000Y-62230000D03*
G04 #@! TO.P,P2,4*
G04 #@! TO.N,Net-(D1-Pad2)*
X99060000Y-59690000D03*
G04 #@! TO.P,P2,3*
G04 #@! TO.N,Net-(P2-Pad3)*
X99060000Y-62230000D03*
G04 #@! TO.P,P2,2*
G04 #@! TO.N,GND*
X96520000Y-59690000D03*
D10*
G04 #@! TO.P,P2,1*
X96520000Y-62230000D03*
G04 #@! TD*
D11*
G04 #@! TO.P,R1,1*
G04 #@! TO.N,Net-(P2-Pad8)*
X142240000Y-97790000D03*
G04 #@! TO.P,R1,2*
G04 #@! TO.N,Net-(R1-Pad2)*
X142240000Y-107950000D03*
G04 #@! TD*
G04 #@! TO.P,R2,2*
G04 #@! TO.N,Net-(D1-Pad1)*
X151130000Y-106680000D03*
G04 #@! TO.P,R2,1*
G04 #@! TO.N,Net-(P2-Pad3)*
X151130000Y-96520000D03*
G04 #@! TD*
G04 #@! TO.P,R3,2*
G04 #@! TO.N,VCC*
X133350000Y-97790000D03*
G04 #@! TO.P,R3,1*
G04 #@! TO.N,Net-(P2-Pad7)*
X133350000Y-107950000D03*
G04 #@! TD*
G04 #@! TO.P,R4,2*
G04 #@! TO.N,Net-(R4-Pad2)*
X137160000Y-107950000D03*
G04 #@! TO.P,R4,1*
G04 #@! TO.N,VCC*
X137160000Y-97790000D03*
G04 #@! TD*
G04 #@! TO.P,R5,1*
G04 #@! TO.N,Net-(J1-Pad3)*
X219710000Y-97790000D03*
G04 #@! TO.P,R5,2*
G04 #@! TO.N,Net-(R5-Pad2)*
X219710000Y-87630000D03*
G04 #@! TD*
G04 #@! TO.P,R6,2*
G04 #@! TO.N,/AVR/MIDI_IN*
X156210000Y-96520000D03*
G04 #@! TO.P,R6,1*
G04 #@! TO.N,VCC*
X156210000Y-106680000D03*
G04 #@! TD*
G04 #@! TO.P,R7,2*
G04 #@! TO.N,Net-(R7-Pad2)*
X219710000Y-62230000D03*
G04 #@! TO.P,R7,1*
G04 #@! TO.N,Net-(R5-Pad2)*
X219710000Y-72390000D03*
G04 #@! TD*
G04 #@! TO.P,R8,1*
G04 #@! TO.N,Net-(R10-Pad1)*
X222250000Y-58420000D03*
G04 #@! TO.P,R8,2*
G04 #@! TO.N,Net-(R7-Pad2)*
X224790000Y-63500000D03*
G04 #@! TO.P,R8,3*
X222250000Y-71120000D03*
G04 #@! TD*
G04 #@! TO.P,R9,2*
G04 #@! TO.N,Net-(C29-Pad1)*
X252730000Y-72390000D03*
G04 #@! TO.P,R9,1*
G04 #@! TO.N,/SampleHold/VB*
X252730000Y-62230000D03*
G04 #@! TD*
G04 #@! TO.P,R10,1*
G04 #@! TO.N,Net-(R10-Pad1)*
X255270000Y-62230000D03*
G04 #@! TO.P,R10,2*
G04 #@! TO.N,Net-(C29-Pad1)*
X255270000Y-72390000D03*
G04 #@! TD*
G04 #@! TO.P,R11,2*
G04 #@! TO.N,Net-(C31-Pad1)*
X234950000Y-87630000D03*
G04 #@! TO.P,R11,1*
G04 #@! TO.N,/SampleHold/VC*
X234950000Y-97790000D03*
G04 #@! TD*
G04 #@! TO.P,R12,1*
G04 #@! TO.N,Net-(R10-Pad1)*
X237490000Y-97790000D03*
G04 #@! TO.P,R12,2*
G04 #@! TO.N,Net-(C31-Pad1)*
X237490000Y-87630000D03*
G04 #@! TD*
G04 #@! TO.P,R13,1*
G04 #@! TO.N,/SampleHold/VA*
X250190000Y-97790000D03*
G04 #@! TO.P,R13,2*
G04 #@! TO.N,Net-(C30-Pad1)*
X250190000Y-87630000D03*
G04 #@! TD*
G04 #@! TO.P,R14,2*
G04 #@! TO.N,Net-(C30-Pad1)*
X252730000Y-87630000D03*
G04 #@! TO.P,R14,1*
G04 #@! TO.N,Net-(R10-Pad1)*
X252730000Y-97790000D03*
G04 #@! TD*
G04 #@! TO.P,R15,2*
G04 #@! TO.N,Net-(C32-Pad1)*
X234950000Y-72390000D03*
G04 #@! TO.P,R15,1*
G04 #@! TO.N,/SampleHold/VD*
X234950000Y-62230000D03*
G04 #@! TD*
G04 #@! TO.P,R16,1*
G04 #@! TO.N,Net-(R10-Pad1)*
X237490000Y-62230000D03*
G04 #@! TO.P,R16,2*
G04 #@! TO.N,Net-(C32-Pad1)*
X237490000Y-72390000D03*
G04 #@! TD*
G04 #@! TO.P,R17,1*
G04 #@! TO.N,Net-(C29-Pad1)*
X250190000Y-72390000D03*
G04 #@! TO.P,R17,2*
G04 #@! TO.N,Net-(R17-Pad2)*
X250190000Y-62230000D03*
G04 #@! TD*
G04 #@! TO.P,R18,2*
G04 #@! TO.N,Net-(R18-Pad2)*
X232410000Y-97790000D03*
G04 #@! TO.P,R18,1*
G04 #@! TO.N,Net-(C31-Pad1)*
X232410000Y-87630000D03*
G04 #@! TD*
G04 #@! TO.P,R19,2*
G04 #@! TO.N,Net-(R19-Pad2)*
X247650000Y-97790000D03*
G04 #@! TO.P,R19,1*
G04 #@! TO.N,Net-(C30-Pad1)*
X247650000Y-87630000D03*
G04 #@! TD*
G04 #@! TO.P,R20,1*
G04 #@! TO.N,Net-(C32-Pad1)*
X232410000Y-72390000D03*
G04 #@! TO.P,R20,2*
G04 #@! TO.N,Net-(R20-Pad2)*
X232410000Y-62230000D03*
G04 #@! TD*
G04 #@! TO.P,R21,3*
G04 #@! TO.N,Net-(R17-Pad2)*
X257810000Y-71120000D03*
G04 #@! TO.P,R21,2*
X260350000Y-63500000D03*
G04 #@! TO.P,R21,1*
G04 #@! TO.N,Net-(J5-Pad3)*
X257810000Y-58420000D03*
G04 #@! TD*
G04 #@! TO.P,R22,1*
G04 #@! TO.N,Net-(J2-Pad3)*
X227330000Y-58420000D03*
G04 #@! TO.P,R22,2*
G04 #@! TO.N,Net-(R18-Pad2)*
X229870000Y-63500000D03*
G04 #@! TO.P,R22,3*
X227330000Y-71120000D03*
G04 #@! TD*
G04 #@! TO.P,R23,1*
G04 #@! TO.N,Net-(J4-Pad3)*
X245110000Y-58420000D03*
G04 #@! TO.P,R23,2*
G04 #@! TO.N,Net-(R19-Pad2)*
X247650000Y-63500000D03*
G04 #@! TO.P,R23,3*
X245110000Y-71120000D03*
G04 #@! TD*
G04 #@! TO.P,R24,3*
G04 #@! TO.N,Net-(R20-Pad2)*
X240030000Y-71120000D03*
G04 #@! TO.P,R24,2*
X242570000Y-63500000D03*
G04 #@! TO.P,R24,1*
G04 #@! TO.N,Net-(J3-Pad3)*
X240030000Y-58420000D03*
G04 #@! TD*
G04 #@! TO.P,R25,1*
G04 #@! TO.N,Net-(R25-Pad1)*
X152400000Y-72390000D03*
G04 #@! TO.P,R25,2*
G04 #@! TO.N,Net-(R25-Pad2)*
X152400000Y-62230000D03*
G04 #@! TD*
G04 #@! TO.P,R26,3*
G04 #@! TO.N,Net-(R26-Pad3)*
X138430000Y-71120000D03*
G04 #@! TO.P,R26,2*
G04 #@! TO.N,Net-(R26-Pad2)*
X140970000Y-63500000D03*
G04 #@! TO.P,R26,1*
G04 #@! TO.N,Net-(R25-Pad2)*
X138430000Y-58420000D03*
G04 #@! TD*
G04 #@! TO.P,R27,1*
G04 #@! TO.N,Net-(R26-Pad3)*
X154940000Y-72390000D03*
G04 #@! TO.P,R27,2*
G04 #@! TO.N,GND*
X154940000Y-62230000D03*
G04 #@! TD*
G04 #@! TO.P,R28,1*
G04 #@! TO.N,+15V0*
X160020000Y-72390000D03*
G04 #@! TO.P,R28,2*
G04 #@! TO.N,Net-(R25-Pad1)*
X160020000Y-62230000D03*
G04 #@! TD*
G04 #@! TO.P,R29,1*
G04 #@! TO.N,Net-(R29-Pad1)*
X149860000Y-62230000D03*
G04 #@! TO.P,R29,2*
G04 #@! TO.N,GND*
X149860000Y-72390000D03*
G04 #@! TD*
G04 #@! TO.P,R30,2*
G04 #@! TO.N,Net-(R30-Pad2)*
X147320000Y-72390000D03*
G04 #@! TO.P,R30,1*
G04 #@! TO.N,Net-(R29-Pad1)*
X147320000Y-62230000D03*
G04 #@! TD*
G04 #@! TO.P,U1,40*
G04 #@! TO.N,/AVR/A*
X74930000Y-76200000D03*
D10*
G04 #@! TO.P,U1,1*
G04 #@! TO.N,Net-(U1-Pad1)*
X74930000Y-91440000D03*
D11*
G04 #@! TO.P,U1,39*
G04 #@! TO.N,/AVR/B*
X77470000Y-76200000D03*
G04 #@! TO.P,U1,2*
G04 #@! TO.N,N/C*
X77470000Y-91440000D03*
G04 #@! TO.P,U1,38*
G04 #@! TO.N,/AVR/C*
X80010000Y-76200000D03*
G04 #@! TO.P,U1,3*
G04 #@! TO.N,/AVR/GATE*
X80010000Y-91440000D03*
G04 #@! TO.P,U1,37*
G04 #@! TO.N,/AVR/D*
X82550000Y-76200000D03*
G04 #@! TO.P,U1,4*
G04 #@! TO.N,N/C*
X82550000Y-91440000D03*
G04 #@! TO.P,U1,36*
G04 #@! TO.N,/SampleHold/SA*
X85090000Y-76200000D03*
G04 #@! TO.P,U1,5*
G04 #@! TO.N,N/C*
X85090000Y-91440000D03*
G04 #@! TO.P,U1,35*
G04 #@! TO.N,/SampleHold/SB*
X87630000Y-76200000D03*
G04 #@! TO.P,U1,6*
G04 #@! TO.N,Net-(U1-Pad6)*
X87630000Y-91440000D03*
G04 #@! TO.P,U1,34*
G04 #@! TO.N,/SampleHold/SC*
X90170000Y-76200000D03*
G04 #@! TO.P,U1,7*
G04 #@! TO.N,N/C*
X90170000Y-91440000D03*
G04 #@! TO.P,U1,33*
G04 #@! TO.N,/SampleHold/SD*
X92710000Y-76200000D03*
G04 #@! TO.P,U1,8*
G04 #@! TO.N,Net-(U1-Pad8)*
X92710000Y-91440000D03*
G04 #@! TO.P,U1,32*
G04 #@! TO.N,N/C*
X95250000Y-76200000D03*
G04 #@! TO.P,U1,9*
G04 #@! TO.N,Net-(J6-Pad6)*
X95250000Y-91440000D03*
G04 #@! TO.P,U1,31*
G04 #@! TO.N,GND*
X97790000Y-76200000D03*
G04 #@! TO.P,U1,10*
G04 #@! TO.N,VCC*
X97790000Y-91440000D03*
G04 #@! TO.P,U1,30*
X100330000Y-76200000D03*
G04 #@! TO.P,U1,11*
G04 #@! TO.N,GND*
X100330000Y-91440000D03*
G04 #@! TO.P,U1,29*
G04 #@! TO.N,N/C*
X102870000Y-76200000D03*
G04 #@! TO.P,U1,12*
G04 #@! TO.N,Net-(C6-Pad1)*
X102870000Y-91440000D03*
G04 #@! TO.P,U1,28*
G04 #@! TO.N,N/C*
X105410000Y-76200000D03*
G04 #@! TO.P,U1,13*
G04 #@! TO.N,Net-(C5-Pad1)*
X105410000Y-91440000D03*
G04 #@! TO.P,U1,27*
G04 #@! TO.N,Net-(J6-Pad9)*
X107950000Y-76200000D03*
G04 #@! TO.P,U1,14*
G04 #@! TO.N,/AVR/MIDI_IN*
X107950000Y-91440000D03*
G04 #@! TO.P,U1,26*
G04 #@! TO.N,Net-(J6-Pad3)*
X110490000Y-76200000D03*
G04 #@! TO.P,U1,15*
G04 #@! TO.N,/AVR/MIDI_OUT*
X110490000Y-91440000D03*
G04 #@! TO.P,U1,25*
G04 #@! TO.N,Net-(J6-Pad5)*
X113030000Y-76200000D03*
G04 #@! TO.P,U1,16*
G04 #@! TO.N,N/C*
X113030000Y-91440000D03*
G04 #@! TO.P,U1,24*
G04 #@! TO.N,Net-(J6-Pad1)*
X115570000Y-76200000D03*
G04 #@! TO.P,U1,17*
G04 #@! TO.N,N/C*
X115570000Y-91440000D03*
G04 #@! TO.P,U1,23*
X118110000Y-76200000D03*
G04 #@! TO.P,U1,18*
X118110000Y-91440000D03*
G04 #@! TO.P,U1,22*
X120650000Y-76200000D03*
G04 #@! TO.P,U1,19*
X120650000Y-91440000D03*
G04 #@! TO.P,U1,21*
X123190000Y-76200000D03*
G04 #@! TO.P,U1,20*
X123190000Y-91440000D03*
G04 #@! TD*
G04 #@! TO.P,U2,14*
G04 #@! TO.N,VCC*
X91440000Y-113030000D03*
D10*
G04 #@! TO.P,U2,1*
G04 #@! TO.N,Net-(P1-Pad2)*
X91440000Y-120650000D03*
D11*
G04 #@! TO.P,U2,13*
G04 #@! TO.N,Net-(P1-Pad8)*
X93980000Y-113030000D03*
G04 #@! TO.P,U2,2*
G04 #@! TO.N,N/C*
X93980000Y-120650000D03*
G04 #@! TO.P,U2,12*
X96520000Y-113030000D03*
G04 #@! TO.P,U2,3*
G04 #@! TO.N,/AVR/A*
X96520000Y-120650000D03*
G04 #@! TO.P,U2,11*
G04 #@! TO.N,/AVR/D*
X99060000Y-113030000D03*
G04 #@! TO.P,U2,4*
G04 #@! TO.N,Net-(P1-Pad4)*
X99060000Y-120650000D03*
G04 #@! TO.P,U2,10*
G04 #@! TO.N,Net-(P1-Pad6)*
X101600000Y-113030000D03*
G04 #@! TO.P,U2,5*
G04 #@! TO.N,N/C*
X101600000Y-120650000D03*
G04 #@! TO.P,U2,9*
X104140000Y-113030000D03*
G04 #@! TO.P,U2,6*
G04 #@! TO.N,/AVR/B*
X104140000Y-120650000D03*
G04 #@! TO.P,U2,8*
G04 #@! TO.N,/AVR/C*
X106680000Y-113030000D03*
G04 #@! TO.P,U2,7*
G04 #@! TO.N,GND*
X106680000Y-120650000D03*
G04 #@! TD*
G04 #@! TO.P,U3,7*
G04 #@! TO.N,GND*
X128270000Y-120650000D03*
G04 #@! TO.P,U3,8*
G04 #@! TO.N,N/C*
X128270000Y-113030000D03*
G04 #@! TO.P,U3,6*
X125730000Y-120650000D03*
G04 #@! TO.P,U3,9*
X125730000Y-113030000D03*
G04 #@! TO.P,U3,5*
X123190000Y-120650000D03*
G04 #@! TO.P,U3,10*
X123190000Y-113030000D03*
G04 #@! TO.P,U3,4*
X120650000Y-120650000D03*
G04 #@! TO.P,U3,11*
X120650000Y-113030000D03*
G04 #@! TO.P,U3,3*
G04 #@! TO.N,/AVR/GATE*
X118110000Y-120650000D03*
G04 #@! TO.P,U3,12*
G04 #@! TO.N,N/C*
X118110000Y-113030000D03*
G04 #@! TO.P,U3,2*
X115570000Y-120650000D03*
G04 #@! TO.P,U3,13*
X115570000Y-113030000D03*
D10*
G04 #@! TO.P,U3,1*
G04 #@! TO.N,Net-(P1-Pad10)*
X113030000Y-120650000D03*
D11*
G04 #@! TO.P,U3,14*
G04 #@! TO.N,VCC*
X113030000Y-113030000D03*
G04 #@! TD*
G04 #@! TO.P,U4,14*
G04 #@! TO.N,VCC*
X134620000Y-113030000D03*
D10*
G04 #@! TO.P,U4,1*
G04 #@! TO.N,/AVR/MIDI_OUT*
X134620000Y-120650000D03*
D11*
G04 #@! TO.P,U4,13*
G04 #@! TO.N,N/C*
X137160000Y-113030000D03*
G04 #@! TO.P,U4,2*
G04 #@! TO.N,Net-(R4-Pad2)*
X137160000Y-120650000D03*
G04 #@! TO.P,U4,12*
G04 #@! TO.N,N/C*
X139700000Y-113030000D03*
G04 #@! TO.P,U4,3*
G04 #@! TO.N,Net-(R4-Pad2)*
X139700000Y-120650000D03*
G04 #@! TO.P,U4,11*
G04 #@! TO.N,N/C*
X142240000Y-113030000D03*
G04 #@! TO.P,U4,4*
G04 #@! TO.N,Net-(R1-Pad2)*
X142240000Y-120650000D03*
G04 #@! TO.P,U4,10*
G04 #@! TO.N,N/C*
X144780000Y-113030000D03*
G04 #@! TO.P,U4,5*
X144780000Y-120650000D03*
G04 #@! TO.P,U4,9*
X147320000Y-113030000D03*
G04 #@! TO.P,U4,6*
X147320000Y-120650000D03*
G04 #@! TO.P,U4,8*
X149860000Y-113030000D03*
G04 #@! TO.P,U4,7*
G04 #@! TO.N,GND*
X149860000Y-120650000D03*
G04 #@! TD*
G04 #@! TO.P,U5,6*
G04 #@! TO.N,VCC*
X156210000Y-113030000D03*
D10*
G04 #@! TO.P,U5,1*
G04 #@! TO.N,Net-(D1-Pad1)*
X156210000Y-120650000D03*
D11*
G04 #@! TO.P,U5,5*
G04 #@! TO.N,GND*
X158750000Y-113030000D03*
G04 #@! TO.P,U5,2*
G04 #@! TO.N,Net-(D1-Pad2)*
X158750000Y-120650000D03*
G04 #@! TO.P,U5,4*
G04 #@! TO.N,/AVR/MIDI_IN*
X161290000Y-113030000D03*
G04 #@! TO.P,U5,3*
G04 #@! TO.N,N/C*
X161290000Y-120650000D03*
G04 #@! TD*
G04 #@! TO.P,U7,8*
G04 #@! TO.N,N/C*
X217170000Y-76200000D03*
G04 #@! TO.P,U7,7*
G04 #@! TO.N,+15V0*
X219710000Y-76200000D03*
G04 #@! TO.P,U7,6*
G04 #@! TO.N,Net-(R10-Pad1)*
X222250000Y-76200000D03*
G04 #@! TO.P,U7,5*
G04 #@! TO.N,N/C*
X224790000Y-76200000D03*
G04 #@! TO.P,U7,4*
G04 #@! TO.N,-15V0*
X224790000Y-83820000D03*
G04 #@! TO.P,U7,3*
G04 #@! TO.N,GND*
X222250000Y-83820000D03*
G04 #@! TO.P,U7,2*
G04 #@! TO.N,Net-(R5-Pad2)*
X219710000Y-83820000D03*
D10*
G04 #@! TO.P,U7,1*
G04 #@! TO.N,N/C*
X217170000Y-83820000D03*
G04 #@! TD*
G04 #@! TO.P,U8,1*
G04 #@! TO.N,/SampleHold/VIN*
X144780000Y-83820000D03*
D11*
G04 #@! TO.P,U8,2*
G04 #@! TO.N,Net-(U13-Pad1)*
X147320000Y-83820000D03*
G04 #@! TO.P,U8,3*
G04 #@! TO.N,GND*
X149860000Y-83820000D03*
G04 #@! TO.P,U8,4*
G04 #@! TO.N,-15V0*
X152400000Y-83820000D03*
G04 #@! TO.P,U8,5*
G04 #@! TO.N,Net-(R25-Pad1)*
X152400000Y-76200000D03*
G04 #@! TO.P,U8,6*
G04 #@! TO.N,Net-(R29-Pad1)*
X149860000Y-76200000D03*
G04 #@! TO.P,U8,7*
G04 #@! TO.N,Net-(R30-Pad2)*
X147320000Y-76200000D03*
G04 #@! TO.P,U8,8*
G04 #@! TO.N,+15V0*
X144780000Y-76200000D03*
G04 #@! TD*
G04 #@! TO.P,U9,8*
G04 #@! TO.N,+15V0*
X232410000Y-76200000D03*
G04 #@! TO.P,U9,7*
G04 #@! TO.N,Net-(C32-Pad2)*
X234950000Y-76200000D03*
G04 #@! TO.P,U9,6*
G04 #@! TO.N,Net-(C32-Pad1)*
X237490000Y-76200000D03*
G04 #@! TO.P,U9,5*
G04 #@! TO.N,GND*
X240030000Y-76200000D03*
G04 #@! TO.P,U9,4*
G04 #@! TO.N,-15V0*
X240030000Y-83820000D03*
G04 #@! TO.P,U9,3*
G04 #@! TO.N,GND*
X237490000Y-83820000D03*
G04 #@! TO.P,U9,2*
G04 #@! TO.N,Net-(C31-Pad1)*
X234950000Y-83820000D03*
D10*
G04 #@! TO.P,U9,1*
G04 #@! TO.N,Net-(C31-Pad2)*
X232410000Y-83820000D03*
G04 #@! TD*
G04 #@! TO.P,U10,1*
G04 #@! TO.N,Net-(C30-Pad2)*
X247650000Y-83820000D03*
D11*
G04 #@! TO.P,U10,2*
G04 #@! TO.N,Net-(C30-Pad1)*
X250190000Y-83820000D03*
G04 #@! TO.P,U10,3*
G04 #@! TO.N,GND*
X252730000Y-83820000D03*
G04 #@! TO.P,U10,4*
G04 #@! TO.N,-15V0*
X255270000Y-83820000D03*
G04 #@! TO.P,U10,5*
G04 #@! TO.N,GND*
X255270000Y-76200000D03*
G04 #@! TO.P,U10,6*
G04 #@! TO.N,Net-(C29-Pad1)*
X252730000Y-76200000D03*
G04 #@! TO.P,U10,7*
G04 #@! TO.N,Net-(C29-Pad2)*
X250190000Y-76200000D03*
G04 #@! TO.P,U10,8*
G04 #@! TO.N,+15V0*
X247650000Y-76200000D03*
G04 #@! TD*
D14*
G04 #@! TO.P,U11,1*
G04 #@! TO.N,VCC*
X137160000Y-76200000D03*
G04 #@! TO.P,U11,2*
G04 #@! TO.N,GND*
X138430000Y-74930000D03*
G04 #@! TO.P,U11,3*
G04 #@! TO.N,+15V0*
X139700000Y-76200000D03*
G04 #@! TD*
G04 #@! TO.P,U12,3*
G04 #@! TO.N,GND*
X144780000Y-66040000D03*
G04 #@! TO.P,U12,2*
G04 #@! TO.N,Net-(R25-Pad1)*
X143510000Y-67310000D03*
G04 #@! TO.P,U12,1*
G04 #@! TO.N,Net-(R26-Pad2)*
X144780000Y-68580000D03*
G04 #@! TD*
D11*
G04 #@! TO.P,U13,8*
G04 #@! TO.N,/SampleHold/VIN*
X127000000Y-76200000D03*
G04 #@! TO.P,U13,7*
G04 #@! TO.N,Net-(R30-Pad2)*
X129540000Y-76200000D03*
G04 #@! TO.P,U13,6*
G04 #@! TO.N,Net-(U1-Pad8)*
X132080000Y-76200000D03*
G04 #@! TO.P,U13,5*
G04 #@! TO.N,Net-(U1-Pad6)*
X134620000Y-76200000D03*
G04 #@! TO.P,U13,4*
G04 #@! TO.N,Net-(U1-Pad1)*
X134620000Y-83820000D03*
G04 #@! TO.P,U13,3*
G04 #@! TO.N,VCC*
X132080000Y-83820000D03*
G04 #@! TO.P,U13,2*
G04 #@! TO.N,GND*
X129540000Y-83820000D03*
D10*
G04 #@! TO.P,U13,1*
G04 #@! TO.N,Net-(U13-Pad1)*
X127000000Y-83820000D03*
G04 #@! TD*
G04 #@! TO.P,U15,1*
G04 #@! TO.N,/SampleHold/SC*
X176530000Y-83820000D03*
D11*
G04 #@! TO.P,U15,2*
G04 #@! TO.N,/SampleHold/VIN*
X179070000Y-83820000D03*
G04 #@! TO.P,U15,3*
G04 #@! TO.N,Net-(C14-Pad1)*
X181610000Y-83820000D03*
G04 #@! TO.P,U15,4*
G04 #@! TO.N,-15V0*
X184150000Y-83820000D03*
G04 #@! TO.P,U15,5*
G04 #@! TO.N,GND*
X186690000Y-83820000D03*
G04 #@! TO.P,U15,6*
G04 #@! TO.N,Net-(C12-Pad1)*
X189230000Y-83820000D03*
G04 #@! TO.P,U15,7*
G04 #@! TO.N,/SampleHold/VIN*
X191770000Y-83820000D03*
G04 #@! TO.P,U15,8*
G04 #@! TO.N,/SampleHold/SA*
X194310000Y-83820000D03*
G04 #@! TO.P,U15,9*
G04 #@! TO.N,/SampleHold/SB*
X194310000Y-76200000D03*
G04 #@! TO.P,U15,10*
G04 #@! TO.N,/SampleHold/VIN*
X191770000Y-76200000D03*
G04 #@! TO.P,U15,11*
G04 #@! TO.N,Net-(C13-Pad1)*
X189230000Y-76200000D03*
G04 #@! TO.P,U15,12*
G04 #@! TO.N,N/C*
X186690000Y-76200000D03*
G04 #@! TO.P,U15,13*
G04 #@! TO.N,+15V0*
X184150000Y-76200000D03*
G04 #@! TO.P,U15,14*
G04 #@! TO.N,Net-(C15-Pad1)*
X181610000Y-76200000D03*
G04 #@! TO.P,U15,15*
G04 #@! TO.N,/SampleHold/VIN*
X179070000Y-76200000D03*
G04 #@! TO.P,U15,16*
G04 #@! TO.N,/SampleHold/SD*
X176530000Y-76200000D03*
G04 #@! TD*
D10*
G04 #@! TO.P,U16,1*
G04 #@! TO.N,/SampleHold/VA*
X201930000Y-83820000D03*
D11*
G04 #@! TO.P,U16,2*
X204470000Y-83820000D03*
G04 #@! TO.P,U16,3*
G04 #@! TO.N,Net-(C12-Pad1)*
X207010000Y-83820000D03*
G04 #@! TO.P,U16,4*
G04 #@! TO.N,-15V0*
X209550000Y-83820000D03*
G04 #@! TO.P,U16,5*
G04 #@! TO.N,Net-(C13-Pad1)*
X209550000Y-76200000D03*
G04 #@! TO.P,U16,6*
G04 #@! TO.N,/SampleHold/VB*
X207010000Y-76200000D03*
G04 #@! TO.P,U16,7*
X204470000Y-76200000D03*
G04 #@! TO.P,U16,8*
G04 #@! TO.N,+15V0*
X201930000Y-76200000D03*
G04 #@! TD*
D10*
G04 #@! TO.P,U17,1*
G04 #@! TO.N,/SampleHold/VC*
X160020000Y-83820000D03*
D11*
G04 #@! TO.P,U17,2*
X162560000Y-83820000D03*
G04 #@! TO.P,U17,3*
G04 #@! TO.N,Net-(C14-Pad1)*
X165100000Y-83820000D03*
G04 #@! TO.P,U17,4*
G04 #@! TO.N,-15V0*
X167640000Y-83820000D03*
G04 #@! TO.P,U17,5*
G04 #@! TO.N,Net-(C15-Pad1)*
X167640000Y-76200000D03*
G04 #@! TO.P,U17,6*
G04 #@! TO.N,/SampleHold/VD*
X165100000Y-76200000D03*
G04 #@! TO.P,U17,7*
X162560000Y-76200000D03*
G04 #@! TO.P,U17,8*
G04 #@! TO.N,+15V0*
X160020000Y-76200000D03*
G04 #@! TD*
G04 #@! TO.P,Y1,1*
G04 #@! TO.N,Net-(C5-Pad1)*
X107950000Y-96520000D03*
G04 #@! TO.P,Y1,2*
G04 #@! TO.N,Net-(C6-Pad1)*
X102870000Y-96520000D03*
G04 #@! TD*
G04 #@! TO.P,C23,1*
G04 #@! TO.N,+15V0*
X229870000Y-76200000D03*
G04 #@! TO.P,C23,2*
G04 #@! TO.N,GND*
X229870000Y-83820000D03*
G04 #@! TD*
G04 #@! TO.P,C24,2*
G04 #@! TO.N,GND*
X242570000Y-76200000D03*
G04 #@! TO.P,C24,1*
G04 #@! TO.N,-15V0*
X242570000Y-83820000D03*
G04 #@! TD*
G04 #@! TO.P,C25,2*
G04 #@! TO.N,GND*
X245110000Y-83820000D03*
G04 #@! TO.P,C25,1*
G04 #@! TO.N,+15V0*
X245110000Y-76200000D03*
G04 #@! TD*
G04 #@! TO.P,C26,1*
G04 #@! TO.N,-15V0*
X260350000Y-83820000D03*
G04 #@! TO.P,C26,2*
G04 #@! TO.N,GND*
X260350000Y-76200000D03*
G04 #@! TD*
D12*
G04 #@! TO.P,J3,1*
G04 #@! TO.N,GND*
X254000000Y-121361200D03*
D13*
G04 #@! TO.P,J3,*
G04 #@! TO.N,*
X257810000Y-118821200D03*
D12*
G04 #@! TO.P,J3,2*
G04 #@! TO.N,N/C*
X257810000Y-113741200D03*
G04 #@! TO.P,J3,3*
G04 #@! TO.N,Net-(J3-Pad3)*
X260350000Y-108661200D03*
D13*
G04 #@! TO.P,J3,*
G04 #@! TO.N,*
X254000000Y-106121200D03*
X250190000Y-118821200D03*
G04 #@! TD*
D11*
G04 #@! TO.P,C27,1*
G04 #@! TO.N,VCC*
X153670000Y-113030000D03*
G04 #@! TO.P,C27,2*
G04 #@! TO.N,GND*
X153670000Y-120650000D03*
G04 #@! TD*
G04 #@! TO.P,C28,2*
G04 #@! TO.N,GND*
X132080000Y-120650000D03*
G04 #@! TO.P,C28,1*
G04 #@! TO.N,VCC*
X132080000Y-113030000D03*
G04 #@! TD*
G04 #@! TO.P,C29,1*
G04 #@! TO.N,Net-(C29-Pad1)*
X257810000Y-95250000D03*
G04 #@! TO.P,C29,2*
G04 #@! TO.N,Net-(C29-Pad2)*
X257810000Y-97790000D03*
G04 #@! TD*
G04 #@! TO.P,C30,2*
G04 #@! TO.N,Net-(C30-Pad2)*
X242570000Y-97790000D03*
G04 #@! TO.P,C30,1*
G04 #@! TO.N,Net-(C30-Pad1)*
X242570000Y-95250000D03*
G04 #@! TD*
G04 #@! TO.P,C31,2*
G04 #@! TO.N,Net-(C31-Pad2)*
X227330000Y-87630000D03*
G04 #@! TO.P,C31,1*
G04 #@! TO.N,Net-(C31-Pad1)*
X227330000Y-90170000D03*
G04 #@! TD*
G04 #@! TO.P,C32,1*
G04 #@! TO.N,Net-(C32-Pad1)*
X242570000Y-87630000D03*
G04 #@! TO.P,C32,2*
G04 #@! TO.N,Net-(C32-Pad2)*
X242570000Y-90170000D03*
G04 #@! TD*
G04 #@! TO.P,R31,1*
G04 #@! TO.N,Net-(C30-Pad2)*
X245110000Y-97790000D03*
G04 #@! TO.P,R31,2*
G04 #@! TO.N,Net-(J4-Pad3)*
X245110000Y-87630000D03*
G04 #@! TD*
G04 #@! TO.P,R32,2*
G04 #@! TO.N,Net-(J5-Pad3)*
X255270000Y-87630000D03*
G04 #@! TO.P,R32,1*
G04 #@! TO.N,Net-(C29-Pad2)*
X255270000Y-97790000D03*
G04 #@! TD*
G04 #@! TO.P,R33,2*
G04 #@! TO.N,Net-(J3-Pad3)*
X240030000Y-97790000D03*
G04 #@! TO.P,R33,1*
G04 #@! TO.N,Net-(C32-Pad2)*
X240030000Y-87630000D03*
G04 #@! TD*
G04 #@! TO.P,R34,1*
G04 #@! TO.N,Net-(C31-Pad2)*
X229870000Y-87630000D03*
G04 #@! TO.P,R34,2*
G04 #@! TO.N,Net-(J2-Pad3)*
X229870000Y-97790000D03*
G04 #@! TD*
D15*
G04 #@! TO.N,Net-(C12-Pad1)*
X189230000Y-88900000D03*
G04 #@! TO.N,Net-(C13-Pad1)*
X209550000Y-80010000D03*
X189230000Y-79679790D03*
G04 #@! TO.N,Net-(C14-Pad1)*
X181610000Y-79679790D03*
X165167022Y-79682119D03*
G04 #@! TO.N,Net-(C15-Pad1)*
X181610000Y-72390000D03*
X167640000Y-72390000D03*
G04 #@! TO.N,Net-(D1-Pad2)*
X161925000Y-57785000D03*
G04 #@! TO.N,Net-(J4-Pad3)*
X184150000Y-92075000D03*
G04 #@! TO.N,Net-(J5-Pad3)*
X259715000Y-87630000D03*
X210185000Y-93649790D03*
G04 #@! TO.N,Net-(J6-Pad3)*
X116840000Y-81280000D03*
G04 #@! TO.N,Net-(J6-Pad5)*
X121920000Y-79375000D03*
G04 #@! TO.N,Net-(J6-Pad6)*
X119427507Y-89230210D03*
G04 #@! TO.N,Net-(J6-Pad9)*
X107950000Y-65405000D03*
G04 #@! TO.N,Net-(P1-Pad4)*
X89535000Y-118745000D03*
G04 #@! TO.N,Net-(P1-Pad6)*
X88332022Y-109524790D03*
G04 #@! TO.N,Net-(P1-Pad8)*
X86995000Y-110490000D03*
G04 #@! TO.N,Net-(P1-Pad10)*
X111125000Y-106045000D03*
X91216529Y-103821515D03*
G04 #@! TO.N,Net-(P2-Pad8)*
X113665000Y-58115210D03*
X115900210Y-95952022D03*
G04 #@! TO.N,Net-(P2-Pad7)*
X113030000Y-107950000D03*
G04 #@! TO.N,Net-(P2-Pad3)*
X111125000Y-64135000D03*
X114935000Y-98425000D03*
G04 #@! TO.N,/AVR/MIDI_IN*
X108915179Y-94716266D03*
G04 #@! TO.N,Net-(R10-Pad1)*
X223452978Y-95580210D03*
G04 #@! TO.N,/SampleHold/VB*
X204470000Y-65405000D03*
G04 #@! TO.N,/SampleHold/VC*
X162560000Y-96520000D03*
G04 #@! TO.N,/SampleHold/VA*
X204470000Y-94615000D03*
G04 #@! TO.N,/SampleHold/VD*
X165100000Y-67945000D03*
G04 #@! TO.N,Net-(R25-Pad1)*
X153670000Y-68580000D03*
G04 #@! TO.N,Net-(R30-Pad2)*
X147320000Y-80010000D03*
G04 #@! TO.N,/AVR/GATE*
X116840000Y-86664790D03*
G04 #@! TO.N,/AVR/D*
X97790000Y-109855000D03*
G04 #@! TO.N,/SampleHold/SA*
X194310000Y-80644989D03*
G04 #@! TO.N,/SampleHold/SB*
X194310000Y-70485000D03*
X87630000Y-69850000D03*
G04 #@! TO.N,Net-(U1-Pad6)*
X125095000Y-87630000D03*
G04 #@! TO.N,/SampleHold/SC*
X175895000Y-91440000D03*
X146050000Y-91440000D03*
X146050000Y-103505000D03*
X93980000Y-103505000D03*
G04 #@! TO.N,/SampleHold/SD*
X176530000Y-71120000D03*
G04 #@! TO.N,Net-(U1-Pad8)*
X123825000Y-88595210D03*
G04 #@! TO.N,/AVR/MIDI_OUT*
X114300000Y-117475000D03*
G04 #@! TO.N,/SampleHold/VIN*
X191770000Y-87630000D03*
X179070000Y-87630000D03*
X144780000Y-90170000D03*
X144145000Y-79044790D03*
G04 #@! TO.N,Net-(C30-Pad1)*
X246380000Y-95250000D03*
G04 #@! TD*
D16*
G04 #@! TO.N,VCC*
X100330000Y-72390000D02*
X100330000Y-76200000D01*
X134620000Y-87630000D02*
X132080000Y-90170000D01*
X134620000Y-86360000D02*
X134620000Y-87630000D01*
X132080000Y-83820000D02*
X134620000Y-86360000D01*
X132080000Y-81280000D02*
X132080000Y-83820000D01*
X137160000Y-76200000D02*
X132080000Y-81280000D01*
X97790000Y-96520000D02*
X97790000Y-91440000D01*
X132080000Y-96520000D02*
X133350000Y-97790000D01*
X132080000Y-90170000D02*
X132080000Y-96520000D01*
X133350000Y-97790000D02*
X133350000Y-99060000D01*
X135407399Y-112242601D02*
X134620000Y-113030000D01*
X135407399Y-101117399D02*
X135407399Y-112242601D01*
X133350000Y-99060000D02*
X135407399Y-101117399D01*
X156210000Y-113030000D02*
X156210000Y-106680000D01*
G04 #@! TO.N,GND*
X175260000Y-59690000D02*
X175260000Y-62230000D01*
X177800000Y-59690000D02*
X177800000Y-62230000D01*
X180340000Y-59690000D02*
X180340000Y-62230000D01*
X171450000Y-71120000D02*
X171450000Y-76200000D01*
X175260000Y-62230000D02*
X175260000Y-67310000D01*
X175260000Y-67310000D02*
X171450000Y-71120000D01*
X157480000Y-81280000D02*
X157480000Y-83820000D01*
X154940000Y-76200000D02*
X154940000Y-78740000D01*
X154940000Y-78740000D02*
X157480000Y-81280000D01*
X171450000Y-81280000D02*
X173990000Y-83820000D01*
X171450000Y-76200000D02*
X171450000Y-81280000D01*
X199390000Y-80645000D02*
X199390000Y-83820000D01*
X196850000Y-76200000D02*
X196850000Y-78105000D01*
X196850000Y-78105000D02*
X199390000Y-80645000D01*
X212090000Y-77313551D02*
X212725000Y-77948551D01*
X212090000Y-76200000D02*
X212090000Y-77313551D01*
X212725000Y-77948551D02*
X212725000Y-78740000D01*
X214630000Y-80645000D02*
X214630000Y-83820000D01*
X212725000Y-78740000D02*
X214630000Y-80645000D01*
X229870000Y-81280000D02*
X229870000Y-83820000D01*
X227330000Y-76200000D02*
X227330000Y-78740000D01*
X227330000Y-78740000D02*
X229870000Y-81280000D01*
X76200000Y-117551200D02*
X76200000Y-121361200D01*
X80010000Y-113741200D02*
X76200000Y-117551200D01*
X76200000Y-121361200D02*
X76200000Y-124460000D01*
X177800000Y-124460000D02*
X177800000Y-121361200D01*
X177800000Y-124460000D02*
X203200000Y-124460000D01*
X203200000Y-124460000D02*
X203200000Y-121361200D01*
X203200000Y-124460000D02*
X228600000Y-124460000D01*
X228600000Y-124460000D02*
X228600000Y-121361200D01*
X228600000Y-124460000D02*
X254000000Y-124460000D01*
X254000000Y-124460000D02*
X254000000Y-121361200D01*
X100330000Y-99060000D02*
X100330000Y-91440000D01*
X127787399Y-85572601D02*
X127000000Y-86360000D01*
X128513841Y-85572601D02*
X127787399Y-85572601D01*
X128752601Y-85333841D02*
X128513841Y-85572601D01*
X128752601Y-84607399D02*
X128752601Y-85333841D01*
X129540000Y-83820000D02*
X128752601Y-84607399D01*
X127000000Y-87630000D02*
X129540000Y-90170000D01*
X127000000Y-86360000D02*
X127000000Y-87630000D01*
X97790000Y-76200000D02*
X97790000Y-77470000D01*
X100330000Y-80010000D02*
X100330000Y-91440000D01*
X97790000Y-77470000D02*
X100330000Y-80010000D01*
X92710000Y-72390000D02*
X95885000Y-72390000D01*
X97790000Y-74295000D02*
X97790000Y-76200000D01*
X95885000Y-72390000D02*
X97790000Y-74295000D01*
X212090000Y-100330000D02*
X212090000Y-97790000D01*
X214630000Y-95250000D02*
X214630000Y-83820000D01*
X212090000Y-97790000D02*
X214630000Y-95250000D01*
X242570000Y-76200000D02*
X242570000Y-79037392D01*
X242570000Y-79037392D02*
X245110000Y-81577392D01*
X245110000Y-82706449D02*
X245110000Y-83820000D01*
X245110000Y-81577392D02*
X245110000Y-82706449D01*
X151130000Y-71120000D02*
X149860000Y-72390000D01*
X154940000Y-62230000D02*
X151130000Y-66040000D01*
X151130000Y-66040000D02*
X151130000Y-71120000D01*
X86360000Y-66040000D02*
X92710000Y-72390000D01*
X86360000Y-62230000D02*
X86360000Y-66040000D01*
X129540000Y-91283551D02*
X129540000Y-90170000D01*
X129997201Y-91740752D02*
X129540000Y-91283551D01*
X129997201Y-116027201D02*
X129997201Y-91740752D01*
X132080000Y-118110000D02*
X129997201Y-116027201D01*
X132080000Y-120650000D02*
X132080000Y-118110000D01*
X170180000Y-100330000D02*
X170180000Y-124460000D01*
X76200000Y-124460000D02*
X170180000Y-124460000D01*
X170180000Y-124460000D02*
X177800000Y-124460000D01*
X175260000Y-59690000D02*
X175260000Y-57785000D01*
X175260000Y-57785000D02*
X177800000Y-57785000D01*
X177800000Y-57785000D02*
X177800000Y-59690000D01*
X177800000Y-57785000D02*
X180340000Y-57785000D01*
X180340000Y-57785000D02*
X180340000Y-59690000D01*
X175260000Y-62230000D02*
X177800000Y-62230000D01*
X177800000Y-62230000D02*
X180340000Y-62230000D01*
X96520000Y-59690000D02*
X96520000Y-62230000D01*
X101600000Y-59690000D02*
X101600000Y-62230000D01*
X106680000Y-59690000D02*
X106680000Y-62230000D01*
X96520000Y-62230000D02*
X86360000Y-62230000D01*
X96520000Y-57785000D02*
X96520000Y-59690000D01*
X100965000Y-57785000D02*
X96520000Y-57785000D01*
X106680000Y-59690000D02*
X106680000Y-57785000D01*
X106680000Y-57785000D02*
X101600000Y-57785000D01*
X101600000Y-57785000D02*
X101600000Y-59690000D01*
X100965000Y-57785000D02*
X101600000Y-57785000D01*
G04 #@! TO.N,+15V0*
X182880000Y-59690000D02*
X182880000Y-62230000D01*
X182880000Y-62230000D02*
X182880000Y-67310000D01*
X182880000Y-67310000D02*
X184150000Y-68580000D01*
X184150000Y-68580000D02*
X184150000Y-76200000D01*
X160020000Y-72390000D02*
X160020000Y-76200000D01*
G04 #@! TO.N,-15V0*
X172720000Y-59690000D02*
X172720000Y-62230000D01*
X167640000Y-81280000D02*
X167640000Y-83820000D01*
X169367201Y-79552799D02*
X167640000Y-81280000D01*
X169367201Y-70662799D02*
X169367201Y-79552799D01*
X172720000Y-62230000D02*
X172720000Y-67310000D01*
X172720000Y-67310000D02*
X169367201Y-70662799D01*
D17*
G04 #@! TO.N,Net-(C5-Pad1)*
X107950000Y-99060000D02*
X107950000Y-96520000D01*
X105410000Y-93980000D02*
X107950000Y-96520000D01*
X105410000Y-91440000D02*
X105410000Y-93980000D01*
G04 #@! TO.N,Net-(C6-Pad1)*
X102870000Y-99060000D02*
X102870000Y-96520000D01*
X102870000Y-96520000D02*
X102870000Y-91440000D01*
G04 #@! TO.N,Net-(C12-Pad1)*
X207010000Y-87630000D02*
X207010000Y-83820000D01*
X189230000Y-83820000D02*
X189230000Y-88900000D01*
G04 #@! TO.N,Net-(C13-Pad1)*
X212090000Y-87630000D02*
X212090000Y-86360000D01*
X212090000Y-86360000D02*
X210820000Y-85090000D01*
X210820000Y-85090000D02*
X210820000Y-81280000D01*
X210820000Y-81280000D02*
X209550000Y-80010000D01*
X209550000Y-80010000D02*
X209550000Y-76200000D01*
X189230000Y-76200000D02*
X189230000Y-79679790D01*
G04 #@! TO.N,Net-(C14-Pad1)*
X165100000Y-87630000D02*
X165100000Y-83820000D01*
X181610000Y-83820000D02*
X181610000Y-79679790D01*
X165100000Y-83820000D02*
X165100000Y-80010000D01*
X165100000Y-80010000D02*
X165167022Y-79942978D01*
X165167022Y-79942978D02*
X165167022Y-79682119D01*
G04 #@! TO.N,Net-(C15-Pad1)*
X169066449Y-87630000D02*
X170180000Y-87630000D01*
X166344601Y-84908152D02*
X169066449Y-87630000D01*
X166344601Y-77495399D02*
X166344601Y-84908152D01*
X167640000Y-76200000D02*
X166344601Y-77495399D01*
X181610000Y-76200000D02*
X181610000Y-72390000D01*
X167640000Y-72390000D02*
X167640000Y-76200000D01*
G04 #@! TO.N,Net-(D1-Pad1)*
X153670000Y-109220000D02*
X153670000Y-106680000D01*
X154914601Y-110464601D02*
X153670000Y-109220000D01*
X154914601Y-114909601D02*
X154914601Y-110464601D01*
X156210000Y-120650000D02*
X156210000Y-116205000D01*
X156210000Y-116205000D02*
X154914601Y-114909601D01*
G04 #@! TO.N,Net-(D1-Pad2)*
X153670000Y-100330000D02*
X153670000Y-96520000D01*
X157480000Y-104140000D02*
X153670000Y-100330000D01*
X157480000Y-114935000D02*
X157480000Y-104140000D01*
X158750000Y-120650000D02*
X158750000Y-116205000D01*
X158750000Y-116205000D02*
X157480000Y-114935000D01*
X153670000Y-96520000D02*
X153670000Y-70485000D01*
X153670000Y-70485000D02*
X161925000Y-62230000D01*
X161925000Y-62230000D02*
X161925000Y-57785000D01*
G04 #@! TO.N,Net-(J2-Pad3)*
X229870000Y-95885000D02*
X229870000Y-97790000D01*
X227330000Y-66675000D02*
X225425000Y-68580000D01*
X227330000Y-58420000D02*
X227330000Y-66675000D01*
X225425000Y-68580000D02*
X225425000Y-73660000D01*
X225425000Y-73660000D02*
X226085399Y-74320399D01*
X226085399Y-74320399D02*
X226085399Y-92100399D01*
X226085399Y-92100399D02*
X229870000Y-95885000D01*
X234950000Y-104140000D02*
X234950000Y-108661200D01*
X230505000Y-99695000D02*
X234950000Y-104140000D01*
X230505000Y-99538551D02*
X230505000Y-99695000D01*
X229870000Y-97790000D02*
X229870000Y-98903551D01*
X229870000Y-98903551D02*
X230505000Y-99538551D01*
G04 #@! TO.N,Net-(J3-Pad3)*
X240030000Y-66040000D02*
X238760000Y-67310000D01*
X240030000Y-95250000D02*
X240030000Y-97790000D01*
X238760000Y-67310000D02*
X238760000Y-76772010D01*
X238760000Y-76772010D02*
X243814601Y-81826611D01*
X243814601Y-81826611D02*
X243814601Y-91465399D01*
X240030000Y-58420000D02*
X240030000Y-66040000D01*
X243814601Y-91465399D02*
X240030000Y-95250000D01*
X246456200Y-108661200D02*
X260350000Y-108661200D01*
X240030000Y-97790000D02*
X240030000Y-102235000D01*
X240030000Y-102235000D02*
X246456200Y-108661200D01*
G04 #@! TO.N,Net-(J4-Pad3)*
X245110000Y-58420000D02*
X245110000Y-67310000D01*
X245110000Y-67310000D02*
X243840000Y-68580000D01*
X243840000Y-68580000D02*
X243840000Y-77470000D01*
X243840000Y-77470000D02*
X246380000Y-80010000D01*
X246380000Y-80010000D02*
X246380000Y-85090000D01*
X245110000Y-86360000D02*
X245110000Y-87630000D01*
X246380000Y-85090000D02*
X245110000Y-86360000D01*
X184150000Y-92075000D02*
X184150000Y-108661200D01*
G04 #@! TO.N,Net-(J5-Pad3)*
X256565399Y-59664601D02*
X256565399Y-78130399D01*
X257810000Y-58420000D02*
X256565399Y-59664601D01*
X256565399Y-78130399D02*
X258445000Y-80010000D01*
X258445000Y-80010000D02*
X258445000Y-85090000D01*
X258445000Y-85090000D02*
X259715000Y-86360000D01*
X259715000Y-86360000D02*
X259715000Y-87630000D01*
X209550000Y-108661200D02*
X209550000Y-94284790D01*
X209550000Y-94284790D02*
X209677001Y-94157789D01*
X209677001Y-94157789D02*
X210185000Y-93649790D01*
G04 #@! TO.N,Net-(J6-Pad1)*
X115570000Y-69850000D02*
X115570000Y-76200000D01*
X116840000Y-62230000D02*
X116840000Y-68580000D01*
X116840000Y-68580000D02*
X115570000Y-69850000D01*
G04 #@! TO.N,Net-(J6-Pad3)*
X119380000Y-62230000D02*
X119380000Y-69215000D01*
X119380000Y-69215000D02*
X116840000Y-71755000D01*
X116840000Y-71755000D02*
X116840000Y-81280000D01*
G04 #@! TO.N,Net-(J6-Pad5)*
X121920000Y-62230000D02*
X121920000Y-79375000D01*
G04 #@! TO.N,Net-(J6-Pad6)*
X119380000Y-88464283D02*
X119427507Y-88511790D01*
X120650000Y-70485000D02*
X119380000Y-71755000D01*
X121920000Y-59690000D02*
X120650000Y-60960000D01*
X120650000Y-60960000D02*
X120650000Y-70485000D01*
X119380000Y-71755000D02*
X119380000Y-88464283D01*
X119427507Y-88511790D02*
X119427507Y-89230210D01*
G04 #@! TO.N,Net-(J6-Pad9)*
X107950000Y-65405000D02*
X107950000Y-76200000D01*
G04 #@! TO.N,Net-(P1-Pad2)*
X75086449Y-59690000D02*
X69850000Y-64926449D01*
X76200000Y-59690000D02*
X75086449Y-59690000D01*
X69850000Y-64926449D02*
X69850000Y-92075000D01*
X69850000Y-92075000D02*
X76835000Y-99060000D01*
X76835000Y-99060000D02*
X81280000Y-99060000D01*
X81280000Y-99060000D02*
X90170000Y-107950000D01*
X90170000Y-107950000D02*
X90170000Y-117475000D01*
X90170000Y-117475000D02*
X91440000Y-118745000D01*
X91440000Y-118745000D02*
X91440000Y-121920000D01*
X91440000Y-121920000D02*
X91440000Y-120650000D01*
G04 #@! TO.N,Net-(P1-Pad4)*
X78740000Y-59690000D02*
X77952601Y-58902601D01*
X77952601Y-58902601D02*
X77470000Y-58420000D01*
X77470000Y-58420000D02*
X74930000Y-58420000D01*
X69240391Y-92327509D02*
X70485000Y-93572118D01*
X74930000Y-58420000D02*
X69240390Y-64109611D01*
X69240390Y-64109611D02*
X69240391Y-92327509D01*
X70485000Y-93572118D02*
X70485000Y-93980000D01*
X70485000Y-93980000D02*
X76200000Y-99695000D01*
X76200000Y-99695000D02*
X81052882Y-99695000D01*
X81052882Y-99695000D02*
X89535000Y-108177118D01*
X89535000Y-108177118D02*
X89535000Y-118745000D01*
G04 #@! TO.N,Net-(P1-Pad6)*
X79375000Y-57785000D02*
X74295000Y-57785000D01*
X68630782Y-63449218D02*
X68630782Y-93168662D01*
X68630782Y-93168662D02*
X75792120Y-100330000D01*
X75792120Y-100330000D02*
X79137232Y-100330000D01*
X87824023Y-109016791D02*
X88332022Y-109524790D01*
X79137232Y-100330000D02*
X87824023Y-109016791D01*
X81280000Y-59690000D02*
X79375000Y-57785000D01*
X74295000Y-57785000D02*
X68630782Y-63449218D01*
G04 #@! TO.N,Net-(P1-Pad8)*
X86995000Y-109610142D02*
X86995000Y-110490000D01*
X75565000Y-100965000D02*
X78349858Y-100965000D01*
X81280000Y-57150000D02*
X73660000Y-57150000D01*
X83820000Y-59690000D02*
X81280000Y-57150000D01*
X73660000Y-57150000D02*
X67945000Y-62865000D01*
X78349858Y-100965000D02*
X86995000Y-109610142D01*
X67945000Y-62865000D02*
X68021171Y-64211171D01*
X68021171Y-64211171D02*
X68021171Y-93421171D01*
X68021171Y-93421171D02*
X75565000Y-100965000D01*
G04 #@! TO.N,Net-(P1-Pad10)*
X111734601Y-106654601D02*
X111734601Y-115544601D01*
X111125000Y-106045000D02*
X111734601Y-106654601D01*
X111734601Y-115544601D02*
X113030000Y-116840000D01*
X113030000Y-116840000D02*
X113030000Y-120650000D01*
X90708530Y-103313516D02*
X91216529Y-103821515D01*
X86385399Y-75590399D02*
X86385399Y-98990385D01*
X86385399Y-98990385D02*
X90708530Y-103313516D01*
X85090000Y-74295000D02*
X86385399Y-75590399D01*
X85090000Y-60960000D02*
X85090000Y-74295000D01*
X86360000Y-59690000D02*
X85090000Y-60960000D01*
G04 #@! TO.N,Net-(P2-Pad8)*
X114274601Y-58724811D02*
X114274601Y-94326413D01*
X113665000Y-58115210D02*
X114274601Y-58724811D01*
X115392211Y-95444023D02*
X115900210Y-95952022D01*
X114274601Y-94326413D02*
X115392211Y-95444023D01*
G04 #@! TO.N,Net-(P2-Pad7)*
X113030000Y-107950000D02*
X113030000Y-99060000D01*
X109245399Y-92037409D02*
X109245399Y-80619601D01*
X113030000Y-99060000D02*
X111734601Y-97764601D01*
X111734601Y-97764601D02*
X111734601Y-94526611D01*
X111734601Y-94526611D02*
X109245399Y-92037409D01*
X109245399Y-80619601D02*
X106680000Y-78054202D01*
X106680000Y-78054202D02*
X106680000Y-70485000D01*
X106680000Y-70485000D02*
X104140000Y-67945000D01*
X104140000Y-67945000D02*
X104140000Y-62230000D01*
G04 #@! TO.N,Net-(P2-Pad3)*
X111734601Y-64744601D02*
X111734601Y-92684601D01*
X111125000Y-64135000D02*
X111734601Y-64744601D01*
X114935000Y-95885000D02*
X114935000Y-98425000D01*
X111734601Y-92684601D02*
X114935000Y-95885000D01*
G04 #@! TO.N,Net-(R1-Pad2)*
X142240000Y-120650000D02*
X142240000Y-118110000D01*
X143535399Y-116814601D02*
X143535399Y-111150399D01*
X142240000Y-118110000D02*
X143535399Y-116814601D01*
X143535399Y-111150399D02*
X142240000Y-109855000D01*
X142240000Y-109855000D02*
X142240000Y-107950000D01*
G04 #@! TO.N,Net-(R4-Pad2)*
X139700000Y-120650000D02*
X137160000Y-120650000D01*
X137160000Y-120650000D02*
X137160000Y-118745000D01*
X137160000Y-118745000D02*
X138430000Y-117475000D01*
X138430000Y-117475000D02*
X138430000Y-111125000D01*
X138430000Y-111125000D02*
X137160000Y-109855000D01*
X137160000Y-109855000D02*
X137160000Y-107950000D01*
G04 #@! TO.N,Net-(R5-Pad2)*
X219710000Y-87630000D02*
X219710000Y-83820000D01*
X219710000Y-83820000D02*
X219710000Y-81280000D01*
X219710000Y-81280000D02*
X218440000Y-80010000D01*
X218440000Y-80010000D02*
X218440000Y-74930000D01*
X218440000Y-74930000D02*
X219710000Y-73660000D01*
X219710000Y-73660000D02*
X219710000Y-72390000D01*
G04 #@! TO.N,/AVR/MIDI_IN*
X156210000Y-99695000D02*
X156210000Y-96520000D01*
X161290000Y-113030000D02*
X161290000Y-104775000D01*
X161290000Y-104775000D02*
X156210000Y-99695000D01*
X107950000Y-93751087D02*
X108407180Y-94208267D01*
X108407180Y-94208267D02*
X108915179Y-94716266D01*
X107950000Y-91440000D02*
X107950000Y-93751087D01*
G04 #@! TO.N,Net-(R7-Pad2)*
X222250000Y-71120000D02*
X222250000Y-69215000D01*
X222250000Y-69215000D02*
X224790000Y-66675000D01*
X224790000Y-66675000D02*
X224790000Y-63500000D01*
G04 #@! TO.N,Net-(R10-Pad1)*
X222250000Y-64770000D02*
X222250000Y-58420000D01*
X220980000Y-66040000D02*
X222250000Y-64770000D01*
X220980000Y-71755000D02*
X220980000Y-66040000D01*
X222250000Y-76200000D02*
X222250000Y-73025000D01*
X222250000Y-73025000D02*
X220980000Y-71755000D01*
X222250000Y-76200000D02*
X223520000Y-77470000D01*
X223520000Y-77470000D02*
X223520000Y-94794768D01*
X223520000Y-94794768D02*
X223452978Y-94861790D01*
X223452978Y-94861790D02*
X223452978Y-95580210D01*
G04 #@! TO.N,/SampleHold/VB*
X204470000Y-65405000D02*
X204470000Y-76200000D01*
G04 #@! TO.N,/SampleHold/VC*
X162560000Y-96520000D02*
X162560000Y-83820000D01*
G04 #@! TO.N,/SampleHold/VA*
X204470000Y-94615000D02*
X204470000Y-83820000D01*
G04 #@! TO.N,/SampleHold/VD*
X165100000Y-67945000D02*
X165100000Y-76200000D01*
G04 #@! TO.N,Net-(R17-Pad2)*
X260350000Y-65405000D02*
X260350000Y-63500000D01*
X257810000Y-71120000D02*
X257810000Y-67945000D01*
X257810000Y-67945000D02*
X260350000Y-65405000D01*
G04 #@! TO.N,Net-(R18-Pad2)*
X229870000Y-63500000D02*
X229870000Y-66040000D01*
X229870000Y-66040000D02*
X227330000Y-68580000D01*
X227330000Y-68580000D02*
X227330000Y-71120000D01*
X232410000Y-95250000D02*
X232410000Y-97790000D01*
X228600000Y-91440000D02*
X232410000Y-95250000D01*
X228600000Y-86995000D02*
X228600000Y-91440000D01*
X227330000Y-73660000D02*
X228600000Y-74930000D01*
X227330000Y-71120000D02*
X227330000Y-73660000D01*
X228600000Y-74930000D02*
X228600000Y-77470000D01*
X228600000Y-77470000D02*
X231114601Y-79984601D01*
X231114601Y-79984601D02*
X231114601Y-84480399D01*
X231114601Y-84480399D02*
X228600000Y-86995000D01*
G04 #@! TO.N,Net-(R19-Pad2)*
X247650000Y-63500000D02*
X247650000Y-66675000D01*
X247650000Y-66675000D02*
X245110000Y-69215000D01*
X245110000Y-69215000D02*
X245110000Y-71120000D01*
X248920000Y-96520000D02*
X248437399Y-97002601D01*
X248920000Y-74930000D02*
X248920000Y-96520000D01*
X245110000Y-71120000D02*
X248920000Y-74930000D01*
X248437399Y-97002601D02*
X247650000Y-97790000D01*
G04 #@! TO.N,Net-(R20-Pad2)*
X240030000Y-71120000D02*
X240030000Y-67945000D01*
X240030000Y-67945000D02*
X242570000Y-65405000D01*
X242570000Y-65405000D02*
X242570000Y-63500000D01*
G04 #@! TO.N,Net-(R25-Pad1)*
X152400000Y-76200000D02*
X152400000Y-72390000D01*
X159232601Y-63017399D02*
X160020000Y-62230000D01*
X152400000Y-69850000D02*
X159232601Y-63017399D01*
X152400000Y-72390000D02*
X152400000Y-69850000D01*
G04 #@! TO.N,Net-(R29-Pad1)*
X149860000Y-69850000D02*
X149860000Y-62230000D01*
X148590000Y-71120000D02*
X149860000Y-69850000D01*
X148590000Y-73025000D02*
X148590000Y-71120000D01*
X149860000Y-76200000D02*
X149860000Y-74295000D01*
X149860000Y-74295000D02*
X148590000Y-73025000D01*
G04 #@! TO.N,Net-(R30-Pad2)*
X147320000Y-76200000D02*
X147320000Y-72390000D01*
X147320000Y-80010000D02*
X147320000Y-76200000D01*
G04 #@! TO.N,/AVR/A*
X74930000Y-76200000D02*
X76225399Y-77495399D01*
X76225399Y-77495399D02*
X76225399Y-93047707D01*
X92710000Y-109532308D02*
X92710000Y-116840000D01*
X95732601Y-119862601D02*
X96520000Y-120650000D01*
X92710000Y-116840000D02*
X95732601Y-119862601D01*
X76225399Y-93047707D02*
X92710000Y-109532308D01*
G04 #@! TO.N,/AVR/B*
X102235000Y-118745000D02*
X103352601Y-119862601D01*
X78740000Y-94700188D02*
X95275399Y-111235587D01*
X97155000Y-118745000D02*
X102235000Y-118745000D01*
X103352601Y-119862601D02*
X104140000Y-120650000D01*
X95275399Y-111235587D02*
X95275399Y-116865399D01*
X95275399Y-116865399D02*
X97155000Y-118745000D01*
X77470000Y-76200000D02*
X78740000Y-77470000D01*
X78740000Y-77470000D02*
X78740000Y-94700188D01*
G04 #@! TO.N,/AVR/C*
X104470202Y-110820202D02*
X105892601Y-112242601D01*
X105892601Y-112242601D02*
X106680000Y-113030000D01*
X81280000Y-96378070D02*
X95722132Y-110820202D01*
X95722132Y-110820202D02*
X104470202Y-110820202D01*
X81280000Y-77470000D02*
X81280000Y-96378070D01*
X80010000Y-76200000D02*
X81280000Y-77470000D01*
G04 #@! TO.N,/AVR/GATE*
X116863083Y-119403083D02*
X116863083Y-96417649D01*
X116865412Y-95488724D02*
X116840000Y-95463312D01*
X116863083Y-96417649D02*
X116865412Y-96415320D01*
X116865412Y-96415320D02*
X116865412Y-95488724D01*
X116840000Y-87383210D02*
X116840000Y-86664790D01*
X116840000Y-95463312D02*
X116840000Y-87383210D01*
X118110000Y-120650000D02*
X116863083Y-119403083D01*
G04 #@! TO.N,/AVR/D*
X82550000Y-76200000D02*
X82550000Y-77313551D01*
X82550000Y-77313551D02*
X82550000Y-85090000D01*
X82550000Y-85090000D02*
X83820000Y-86360000D01*
X83820000Y-86360000D02*
X83820000Y-92012010D01*
X83820000Y-92012010D02*
X83820000Y-98055952D01*
X83820000Y-98055952D02*
X84085952Y-98055952D01*
X84085952Y-98055952D02*
X95885000Y-109855000D01*
X95885000Y-109855000D02*
X97790000Y-109855000D01*
G04 #@! TO.N,/SampleHold/SA*
X194310000Y-80644989D02*
X194310000Y-83820000D01*
G04 #@! TO.N,/SampleHold/SB*
X194310000Y-76200000D02*
X194310000Y-70485000D01*
X87630000Y-69850000D02*
X87630000Y-76200000D01*
G04 #@! TO.N,Net-(U1-Pad6)*
X125095000Y-83327238D02*
X128905000Y-79517238D01*
X125095000Y-87630000D02*
X125095000Y-83327238D01*
X131302762Y-79517238D02*
X134620000Y-76200000D01*
X128905000Y-79517238D02*
X131302762Y-79517238D01*
G04 #@! TO.N,/SampleHold/SC*
X176530000Y-83820000D02*
X176530000Y-90805000D01*
X176530000Y-90805000D02*
X175895000Y-91440000D01*
X146050000Y-91440000D02*
X146050000Y-103505000D01*
X93980000Y-103505000D02*
X93980000Y-100330000D01*
X93980000Y-100330000D02*
X92075000Y-98425000D01*
X92075000Y-98425000D02*
X92075000Y-93980000D01*
X92075000Y-93980000D02*
X91440000Y-93345000D01*
X91440000Y-93345000D02*
X91440000Y-81280000D01*
X91440000Y-81280000D02*
X90170000Y-80010000D01*
X90170000Y-80010000D02*
X90170000Y-76200000D01*
G04 #@! TO.N,/SampleHold/SD*
X176530000Y-71120000D02*
X176530000Y-76200000D01*
G04 #@! TO.N,Net-(U1-Pad8)*
X123825000Y-83592880D02*
X123825000Y-87876790D01*
X123825000Y-87876790D02*
X123825000Y-88595210D01*
X128652491Y-78765389D02*
X123825000Y-83592880D01*
X129514611Y-78765389D02*
X128652491Y-78765389D01*
X132080000Y-76200000D02*
X129514611Y-78765389D01*
G04 #@! TO.N,/AVR/MIDI_OUT*
X114300000Y-99218500D02*
X114300000Y-116756580D01*
X114300000Y-116756580D02*
X114300000Y-117475000D01*
X113969798Y-98888298D02*
X114300000Y-99218500D01*
X110490000Y-92302120D02*
X113969798Y-95781918D01*
X113969798Y-95781918D02*
X113969798Y-98888298D01*
X110490000Y-91440000D02*
X110490000Y-92302120D01*
G04 #@! TO.N,/SampleHold/VIN*
X191770000Y-83820000D02*
X191770000Y-76200000D01*
X179070000Y-83820000D02*
X179070000Y-76200000D01*
X191770000Y-83820000D02*
X191770000Y-87630000D01*
X179070000Y-87630000D02*
X179070000Y-83820000D01*
X144780000Y-90170000D02*
X144780000Y-83820000D01*
X144780000Y-79679790D02*
X144652999Y-79552789D01*
X144652999Y-79552789D02*
X144145000Y-79044790D01*
X144780000Y-83820000D02*
X144780000Y-79679790D01*
G04 #@! TO.N,Net-(C29-Pad1)*
X252730000Y-72390000D02*
X252730000Y-76200000D01*
X252730000Y-76200000D02*
X252730000Y-77470000D01*
X252730000Y-77470000D02*
X257810000Y-82550000D01*
X257810000Y-82550000D02*
X257810000Y-95250000D01*
G04 #@! TO.N,Net-(C29-Pad2)*
X250190000Y-76200000D02*
X250190000Y-77470000D01*
X250190000Y-77470000D02*
X254000000Y-81280000D01*
X254000000Y-81280000D02*
X254000000Y-90170000D01*
X254000000Y-90170000D02*
X255270000Y-91440000D01*
X255270000Y-91440000D02*
X255270000Y-97790000D01*
G04 #@! TO.N,Net-(C30-Pad2)*
X247650000Y-83820000D02*
X247650000Y-85090000D01*
X247650000Y-85090000D02*
X246380000Y-86360000D01*
X246380000Y-86360000D02*
X246380000Y-91440000D01*
X246380000Y-91440000D02*
X245110000Y-92710000D01*
X245110000Y-92710000D02*
X245110000Y-97790000D01*
G04 #@! TO.N,Net-(C30-Pad1)*
X250190000Y-83820000D02*
X250190000Y-87630000D01*
X247650000Y-87630000D02*
X247650000Y-93980000D01*
X247650000Y-93980000D02*
X246380000Y-95250000D01*
G04 #@! TO.N,Net-(C31-Pad2)*
X232410000Y-83820000D02*
X232410000Y-85090000D01*
X232410000Y-85090000D02*
X229870000Y-87630000D01*
G04 #@! TO.N,Net-(C31-Pad1)*
X234950000Y-83820000D02*
X234950000Y-87630000D01*
G04 #@! TO.N,Net-(C32-Pad1)*
X237490000Y-76200000D02*
X237490000Y-72390000D01*
X237490000Y-76200000D02*
X237490000Y-77470000D01*
X237490000Y-77470000D02*
X241300000Y-81280000D01*
X241300000Y-81280000D02*
X241300000Y-85090000D01*
X241300000Y-85090000D02*
X242570000Y-86360000D01*
X242570000Y-86360000D02*
X242570000Y-87630000D01*
G04 #@! TO.N,Net-(C32-Pad2)*
X234950000Y-76200000D02*
X234950000Y-78105000D01*
X234950000Y-78105000D02*
X238760000Y-81915000D01*
X238760000Y-81915000D02*
X238760000Y-84455000D01*
X238760000Y-84455000D02*
X240030000Y-85725000D01*
X240030000Y-85725000D02*
X240030000Y-87630000D01*
G04 #@! TD*
M02*
