*%FSLAX23Y23*%
*%MOIN*%
G01*
%AMTHD33*
7,0,0,0.170,0.160,0.010,45*
%
%ADD11C,0.006*%
%ADD12C,0.007*%
%ADD13C,0.008*%
%ADD14C,0.010*%
%ADD15C,0.012*%
%ADD16C,0.020*%
%ADD17C,0.032*%
%ADD18C,0.036*%
%ADD19C,0.042*%
%ADD20C,0.050*%
%ADD21C,0.052*%
%ADD22C,0.055*%
%ADD23C,0.056*%
%ADD24C,0.059*%
%ADD25C,0.062*%
%ADD26C,0.066*%
%ADD27C,0.070*%
%ADD28C,0.075*%
%ADD29C,0.079*%
%ADD30C,0.090*%
%ADD31C,0.120*%
%ADD32C,0.125*%
%ADD33C,0.129*%
%ADD34C,0.140*%
%ADD35C,0.160*%
%ADD36C,0.250*%
%ADD37C,0.250*%
%ADD38R,0.062X0.062*%
%ADD39R,0.066X0.066*%
%ADD40R,0.075X0.075*%
%ADD41R,0.079X0.079*%
%ADD42R,0.250X0.250*%
%ADD43THD33*%
D14*
X10920Y7532D02*
X10953D01*
X10936D02*
X10920D01*
X10936D02*
Y7632D01*
X10937D01*
X10936D02*
X10953Y7615D01*
X10870D02*
X10853Y7632D01*
X10820D01*
X10803Y7615D01*
Y7549D01*
X10820Y7532D01*
X10853D01*
X10870Y7549D01*
Y7615D01*
X10770D02*
X10753Y7632D01*
X10720D01*
X10703Y7615D01*
Y7549D01*
X10720Y7532D01*
X10753D01*
X10770Y7549D01*
Y7615D01*
X10670Y7582D02*
X10603D01*
X10570Y7532D02*
X10536D01*
X10553D01*
Y7632D01*
X10554D01*
X10553D02*
X10570Y7615D01*
X10486D02*
X10470Y7632D01*
X10436D01*
X10420Y7615D01*
Y7549D01*
X10436Y7532D01*
X10470D01*
X10486Y7549D01*
Y7615D01*
X10387Y7532D02*
X10353D01*
X10370D01*
Y7632D01*
X10371D01*
X10370D02*
X10387Y7615D01*
X10253Y7632D02*
Y7532D01*
X10303Y7582D02*
X10253Y7632D01*
X10237Y7582D02*
X10303D01*
X10103Y7532D02*
Y7632D01*
X10053D01*
X10037Y7615D01*
Y7582D01*
X10053Y7565D01*
X10103D01*
X10070D02*
X10037Y7532D01*
X10003Y7632D02*
X9937D01*
X10003D02*
Y7532D01*
X9937D01*
X9970Y7582D02*
X10003D01*
X9903Y7565D02*
Y7632D01*
Y7565D02*
X9870Y7532D01*
X9837Y7565D01*
Y7632D01*
X9703Y7599D02*
Y7532D01*
Y7599D02*
X9670Y7632D01*
X9637Y7599D01*
Y7532D01*
Y7582D01*
X9703D01*
X7538Y10752D02*
X7505D01*
X7521D01*
Y10852D01*
X7522D01*
X7521D02*
X7538Y10835D01*
X7455D02*
X7438Y10852D01*
X7405D01*
X7388Y10835D01*
Y10769D01*
X7405Y10752D01*
X7438D01*
X7455Y10769D01*
Y10835D01*
X7355D02*
X7338Y10852D01*
X7305D01*
X7288Y10835D01*
Y10769D01*
X7305Y10752D01*
X7338D01*
X7355Y10769D01*
Y10835D01*
X7255Y10802D02*
X7188D01*
X7155Y10752D02*
X7121D01*
X7138D01*
Y10852D01*
X7139D01*
X7138D02*
X7155Y10835D01*
X7071D02*
X7055Y10852D01*
X7022D01*
X7005Y10835D01*
Y10769D01*
X7022Y10752D01*
X7055D01*
X7071Y10769D01*
Y10835D01*
X6972Y10752D02*
X6938D01*
X6955D01*
Y10852D01*
X6956D01*
X6955D02*
X6972Y10835D01*
X6838Y10852D02*
Y10752D01*
X6888Y10802D02*
X6838Y10852D01*
X6822Y10802D02*
X6888D01*
X6788D02*
X6722D01*
X6688Y10835D02*
X6672Y10852D01*
X6638D01*
X6622Y10835D01*
Y10769D01*
X6638Y10752D01*
X6672D01*
X6688Y10769D01*
Y10835D01*
X6588Y10752D02*
X6555D01*
X6572D01*
Y10852D01*
X6573D01*
X6572D02*
X6588Y10835D01*
X6405Y10852D02*
Y10752D01*
Y10852D02*
X6355D01*
X6338Y10835D01*
Y10802D01*
X6355Y10785D01*
X6405D01*
X6372D02*
X6338Y10752D01*
X6305Y10852D02*
X6238D01*
X6305D02*
Y10752D01*
X6238D01*
X6272Y10802D02*
X6305D01*
X6205Y10785D02*
Y10852D01*
Y10785D02*
X6172Y10752D01*
X6138Y10785D01*
Y10852D01*
X6005Y10819D02*
Y10752D01*
Y10819D02*
X5972Y10852D01*
X5939Y10819D01*
Y10752D01*
Y10802D01*
X6005D01*
X5755Y10852D02*
X5739Y10835D01*
X5755Y10852D02*
X5789D01*
X5805Y10835D01*
Y10769D01*
X5789Y10752D01*
X5755D01*
X5739Y10769D01*
X5705Y10852D02*
X5672D01*
X5689D01*
Y10752D01*
X5705D01*
X5672D01*
X5622D02*
Y10852D01*
X5572D01*
X5555Y10835D01*
Y10802D01*
X5572Y10785D01*
X5622D01*
X5589D02*
X5555Y10752D01*
X5455Y10835D02*
X5472Y10852D01*
X5505D01*
X5522Y10835D01*
Y10769D01*
X5505Y10752D01*
X5472D01*
X5455Y10769D01*
X5422D02*
Y10852D01*
Y10769D02*
X5405Y10752D01*
X5372D01*
X5355Y10769D01*
Y10852D01*
X5322D02*
X5289D01*
X5305D01*
Y10752D01*
X5322D01*
X5289D01*
X5239Y10852D02*
X5172D01*
X5205D01*
Y10752D01*
X4989Y10852D02*
X4972Y10835D01*
X4989Y10852D02*
X5022D01*
X5039Y10835D01*
Y10819D01*
X5022Y10802D01*
X4989D01*
X4972Y10785D01*
Y10769D01*
X4989Y10752D01*
X5022D01*
X5039Y10769D01*
X4939Y10852D02*
X4906D01*
X4922D01*
Y10752D01*
X4939D01*
X4906D01*
X4856D02*
Y10852D01*
Y10752D02*
X4806D01*
X4789Y10769D01*
Y10835D01*
X4806Y10852D01*
X4856D01*
X4756D02*
X4689D01*
X4756D02*
Y10752D01*
X4689D01*
X4722Y10802D02*
X4756D01*
X4503Y5407D02*
X14003D01*
Y10407D02*
X4503D01*
X14003D02*
Y5407D01*
X4503D02*
Y10407D01*
D15*
X8828Y8857D02*
X8953Y8732D01*
X6403Y9507D02*
X6178Y9732D01*
X5578Y9182D02*
X5728Y9032D01*
X6203Y8857D02*
X6353Y8707D01*
X6203Y9607D02*
X6003Y9807D01*
X11703Y9407D02*
X11853Y9257D01*
X11953D02*
X11803Y9407D01*
X8953Y7957D02*
X8803Y8107D01*
X8553Y7382D02*
X8703Y7232D01*
X9053Y7607D02*
X8903Y7757D01*
X8803Y7682D02*
X8953Y7532D01*
X7478Y5882D02*
X7603Y5757D01*
X7803Y6282D02*
X7678Y6407D01*
X6803Y5857D02*
X6653Y6007D01*
X6453D02*
X6228Y6232D01*
X6653Y5907D02*
X6803Y5757D01*
X6478Y5907D02*
X6203Y6182D01*
X6628Y5807D02*
X6778Y5657D01*
X6453Y5807D02*
X6128Y6132D01*
X6653Y5707D02*
X6803Y5557D01*
X6453Y5707D02*
X6278Y5882D01*
Y5932D02*
X6128Y6082D01*
X10053Y8382D02*
X10203Y8232D01*
X8953Y8807D02*
X8803Y8957D01*
X7828Y7807D02*
X7978Y7657D01*
X6303Y7557D02*
X6153Y7707D01*
X10353Y9582D02*
X10503Y9432D01*
X12003Y8282D02*
X12178Y8107D01*
X5978Y8882D02*
X5828Y8732D01*
X9303Y9532D02*
X9453Y9682D01*
X9703Y6132D02*
X9128Y5557D01*
X9603Y9007D02*
X9753Y9157D01*
X5103Y8282D02*
X4928Y8107D01*
X4853Y8082D02*
X5003Y8232D01*
X9753Y8482D02*
X9903Y8632D01*
X9753Y8282D02*
X9453Y7982D01*
X11853Y9557D02*
X12003Y9707D01*
X11853Y9557D02*
X11703Y9407D01*
X8553Y6532D02*
X8403Y6382D01*
X8553Y6232D02*
X8403Y6082D01*
X5353Y8632D02*
X5153Y8432D01*
X5303Y8307D02*
X5153Y8157D01*
X6353Y6707D02*
X6203Y6557D01*
X5528Y6232D02*
X5353Y6057D01*
Y6107D02*
X5553Y6307D01*
Y6182D02*
X5378Y6007D01*
X6253Y6282D02*
X6453Y6482D01*
X6753Y7907D02*
X6903Y8057D01*
X6403Y8007D02*
X6253Y7857D01*
X6803Y9407D02*
X7003Y9607D01*
X7478Y7982D02*
X7353Y7857D01*
X7903Y8782D02*
X8028Y8907D01*
X9403Y9457D02*
X9553Y9607D01*
X11553Y8682D02*
X11753Y8882D01*
X10453Y10057D02*
X10303Y9907D01*
X9128Y5557D02*
X8578D01*
X6903D02*
X6803D01*
X8903Y5757D02*
X8928D01*
X7953Y5707D02*
X7778D01*
X7703Y5757D02*
X7603D01*
X6903D02*
X6803D01*
X6778Y5657D02*
X6903D01*
X6653Y5707D02*
X6453D01*
X4853Y8007D02*
Y8082D01*
Y6657D02*
Y6532D01*
X4803Y6482D02*
X4878Y6407D01*
X4853Y6657D02*
X4903Y6707D01*
X7628Y5807D02*
X7728D01*
X6903Y5857D02*
X6803D01*
X6653Y5907D02*
X6478D01*
X6453Y5807D02*
X6628D01*
X5003Y9382D02*
Y9407D01*
X4928Y9307D02*
Y9182D01*
Y8107D02*
Y7957D01*
X5003Y8232D02*
Y8407D01*
Y9632D02*
Y9807D01*
X5053Y8807D02*
Y8557D01*
Y8182D02*
Y7957D01*
X5003Y7907D02*
Y7807D01*
Y7407D02*
Y7207D01*
Y6607D02*
Y6532D01*
X5053Y7457D02*
Y7657D01*
Y7407D02*
Y7157D01*
X4903Y7132D02*
Y7007D01*
Y7132D02*
Y7182D01*
Y7007D02*
X4953Y6957D01*
X4928Y9307D02*
X5003Y9382D01*
X4978Y9607D02*
X5003Y9632D01*
X5103Y8857D02*
X5053Y8807D01*
X5153Y8282D02*
X5053Y8182D01*
Y7957D02*
X5003Y7907D01*
X5103Y7457D02*
X5053Y7407D01*
X5003D02*
X5053Y7457D01*
X5103Y6707D02*
X5003Y6607D01*
X5053Y7657D02*
X5153Y7757D01*
X5053Y7157D02*
X5003Y7107D01*
X4903Y7182D02*
X4928Y7207D01*
X6453Y6007D02*
X6653D01*
X5353Y6107D02*
X5153D01*
X4953Y6057D02*
X5353D01*
X5378Y6007D02*
X5253D01*
X5578Y6132D02*
X6128D01*
Y6082D02*
X5703D01*
X5328Y6157D02*
X5203D01*
Y7457D02*
Y7507D01*
X5103Y7407D02*
Y7207D01*
X5203D02*
Y7407D01*
X5253Y7457D02*
Y7657D01*
X5153D02*
Y7457D01*
X5103Y8282D02*
Y8407D01*
Y9257D02*
Y9457D01*
X5203Y9257D02*
Y9132D01*
X5253Y9657D02*
Y9807D01*
X5153Y7407D02*
Y7357D01*
X5103Y8857D02*
Y8957D01*
X5153Y8432D02*
Y8282D01*
Y8157D02*
Y7957D01*
X5103Y7907D02*
Y7807D01*
X5153Y7407D02*
Y7157D01*
X5103Y7457D02*
Y7507D01*
X5203Y7957D02*
Y8107D01*
Y6707D02*
Y6657D01*
X5153Y6607D02*
Y6532D01*
Y8857D02*
Y9082D01*
X5253Y9407D02*
Y8632D01*
X5203Y7132D02*
Y7107D01*
X5253Y7182D02*
Y7407D01*
Y7132D02*
Y7057D01*
Y7757D02*
Y7907D01*
X5153D02*
Y7757D01*
X5203Y7457D02*
X5153Y7407D01*
X5103D02*
X5153Y7457D01*
X5203Y7407D02*
X5253Y7457D01*
X5103Y6482D02*
X5153Y6432D01*
X5278Y7032D02*
X5253Y7057D01*
X5153Y9082D02*
X5203Y9132D01*
Y9607D02*
X5253Y9657D01*
X5153Y7957D02*
X5103Y7907D01*
X5303Y7457D02*
X5253Y7407D01*
X5153Y7157D02*
X5103Y7107D01*
X5153Y7907D02*
X5203Y7957D01*
X5253Y7907D02*
X5303Y7957D01*
X5203Y6657D02*
X5153Y6607D01*
X5253Y7132D02*
X5303Y7182D01*
X5253D02*
X5203Y7132D01*
X5253Y7657D02*
X5353Y7757D01*
X5253D02*
X5153Y7657D01*
X5528Y6232D02*
X6228D01*
X6203Y6182D02*
X5553D01*
X6003Y6282D02*
X6253D01*
X5453Y9407D02*
Y9557D01*
X5353Y9657D02*
Y9807D01*
X5403Y8957D02*
Y8832D01*
X5453Y8782D02*
Y8607D01*
X5303Y8507D02*
Y8407D01*
Y8857D02*
Y8957D01*
X5353Y8807D02*
Y8632D01*
X5303Y8407D02*
Y8307D01*
X5453Y5957D02*
Y5857D01*
Y7157D02*
Y7407D01*
X5353D02*
Y7157D01*
X5403Y7457D02*
Y7507D01*
X5303D02*
Y7457D01*
Y7957D02*
Y8107D01*
X5403D02*
Y7957D01*
X5303Y7407D02*
Y7207D01*
X5453Y7907D02*
Y8232D01*
Y6607D02*
Y6532D01*
X5303Y7182D02*
Y7207D01*
X5353Y7757D02*
Y7907D01*
Y7657D02*
Y7457D01*
X5453Y7757D02*
Y7907D01*
X5478Y9182D02*
X5403Y9257D01*
X5453Y9557D02*
X5353Y9657D01*
X5403Y8832D02*
X5453Y8782D01*
Y8607D02*
X5503Y8557D01*
X5353Y8807D02*
X5303Y8857D01*
X5353Y8557D02*
X5303Y8507D01*
X5503Y7457D02*
X5453Y7407D01*
Y7157D02*
X5403Y7107D01*
X5353Y7157D02*
X5303Y7107D01*
X5353Y7407D02*
X5403Y7457D01*
X5353Y7907D02*
X5403Y7957D01*
X5353Y7457D02*
X5303Y7407D01*
X5453Y8232D02*
X5553Y8332D01*
X5503Y6657D02*
X5453Y6607D01*
X5353Y7657D02*
X5453Y7757D01*
X8253Y6557D02*
X8278D01*
X5703Y6407D02*
X4878D01*
X5603Y6457D02*
X5628D01*
X5578Y6432D02*
X5153D01*
X7353Y6482D02*
X7378D01*
X5503Y7207D02*
Y7407D01*
Y9257D02*
Y9282D01*
X5553Y9332D02*
Y9407D01*
X5603Y9757D02*
Y10007D01*
X5503Y9882D02*
Y9857D01*
Y9882D02*
Y10007D01*
Y8557D02*
Y8407D01*
X5553Y5957D02*
Y5857D01*
X5653D02*
Y5957D01*
Y7157D02*
Y7332D01*
X5603Y7457D02*
Y7507D01*
X5553Y7407D02*
Y7157D01*
X5503Y7457D02*
Y7507D01*
X5553Y8332D02*
Y8782D01*
X5503Y8832D02*
Y8957D01*
X5553Y7857D02*
Y7457D01*
X5503Y7907D02*
Y8107D01*
Y6707D02*
Y6657D01*
X5603Y6707D02*
Y6532D01*
X5553Y6357D02*
Y6307D01*
Y7457D02*
Y7682D01*
Y7457D02*
X5503Y7407D01*
X5753Y9407D02*
X5653Y9507D01*
Y9707D02*
X5603Y9757D01*
X5553Y9807D02*
X5503Y9857D01*
Y8832D02*
X5553Y8782D01*
X5503Y7907D02*
X5553Y7857D01*
X5503Y9282D02*
X5553Y9332D01*
X5603Y10007D02*
X5653Y10057D01*
X5553D02*
X5503Y10007D01*
X5703Y7382D02*
X5653Y7332D01*
Y7157D02*
X5603Y7107D01*
X5553Y7407D02*
X5603Y7457D01*
X5553Y7157D02*
X5503Y7107D01*
X5603Y6457D02*
X5578Y6432D01*
X6853Y6707D02*
X6928D01*
X5003D02*
X4903D01*
X5953D02*
X6153D01*
X6103Y6657D02*
X6203D01*
X5828Y8557D02*
Y8732D01*
X5728Y9032D02*
Y8332D01*
X5778Y7507D02*
Y7182D01*
X5753Y5957D02*
Y5857D01*
X5703Y7382D02*
Y7507D01*
X5753Y6657D02*
Y6532D01*
X5803Y9332D02*
Y10007D01*
X5703Y6707D02*
X5753Y6657D01*
X5703Y6407D02*
X5753Y6357D01*
X5803Y10007D02*
X5753Y10057D01*
X5778Y7182D02*
X5703Y7107D01*
X5978Y8882D02*
Y8982D01*
X6028Y9032D02*
Y9282D01*
X5978Y8207D02*
Y7457D01*
X5953Y7432D02*
Y7382D01*
X6003Y9807D02*
Y10007D01*
X5853Y9557D02*
Y9407D01*
X5953Y9657D02*
Y9807D01*
X5853Y5957D02*
Y5857D01*
X5953D02*
Y5957D01*
X5903Y6532D02*
Y6657D01*
X5953Y6357D02*
Y6332D01*
X6028Y8232D02*
Y8882D01*
X5953Y8632D02*
Y8307D01*
X5903Y8257D02*
Y8182D01*
X5853Y8132D02*
Y8032D01*
X5953Y6332D02*
X6003Y6282D01*
X6053Y8207D02*
X6028Y8232D01*
Y9282D02*
X6053Y9307D01*
X6028Y9032D02*
X5978Y8982D01*
Y7457D02*
X5953Y7432D01*
X6003Y10007D02*
X6053Y10057D01*
X5953Y9657D02*
X5853Y9557D01*
X5953Y6707D02*
X5903Y6657D01*
X6028Y8882D02*
X6078Y8932D01*
X5953Y8307D02*
X5903Y8257D01*
Y8182D02*
X5853Y8132D01*
X6053Y6982D02*
X6028Y6957D01*
X5753Y7032D02*
X5278D01*
X4953Y6957D02*
X6028D01*
X6203Y8307D02*
Y8557D01*
X6053Y5957D02*
Y5857D01*
Y6357D02*
Y6382D01*
Y9307D02*
Y9432D01*
X6078Y8882D02*
Y8282D01*
X6203Y8857D02*
Y9032D01*
X6053Y9832D02*
Y9957D01*
X6203Y9607D02*
Y9132D01*
X6153Y5957D02*
Y5857D01*
X6053Y6532D02*
Y6607D01*
X6203Y6557D02*
Y6532D01*
Y7157D02*
Y7407D01*
X6153Y7807D02*
Y7882D01*
X6078Y8932D02*
Y9057D01*
X6153Y9132D02*
Y9257D01*
X6203Y7857D02*
Y7782D01*
Y8282D02*
Y8307D01*
Y9907D02*
Y10007D01*
X6103D02*
Y9907D01*
X6153Y9582D02*
Y9457D01*
X6053Y8207D02*
Y8007D01*
Y7107D02*
Y6982D01*
X6153Y7707D02*
Y7732D01*
X6203Y8557D02*
X6253Y8607D01*
X6153Y9732D02*
X6053Y9832D01*
X6203Y9132D02*
X6253Y9082D01*
X6203Y7782D02*
X6253Y7732D01*
Y8232D02*
X6203Y8282D01*
X6253Y9857D02*
X6203Y9907D01*
X6153Y9857D02*
X6103Y9907D01*
Y9632D02*
X6153Y9582D01*
Y6482D02*
X6053Y6382D01*
X6078Y8882D02*
X6153Y8957D01*
X6203Y10007D02*
X6253Y10057D01*
X6153D02*
X6103Y10007D01*
X6253Y6707D02*
X6203Y6657D01*
X6103D02*
X6053Y6607D01*
X6153Y7107D02*
X6203Y7157D01*
Y7407D02*
X6253Y7457D01*
X6153Y7882D02*
X6253Y7982D01*
X6078Y9057D02*
X6153Y9132D01*
X6303Y7957D02*
X6203Y7857D01*
X6153Y7207D02*
X6053Y7107D01*
X12453Y7307D02*
X12628D01*
X5003Y7207D02*
X4928D01*
X6253Y8607D02*
Y8707D01*
X6278Y8557D02*
Y8532D01*
X6353Y8457D02*
Y8407D01*
X6403Y9382D02*
Y9507D01*
X6353Y9032D02*
Y8957D01*
Y9257D02*
Y9332D01*
Y9257D02*
Y8957D01*
X6253D02*
Y9082D01*
X6353Y7107D02*
Y7007D01*
X6253Y7107D02*
Y6882D01*
X6353Y6607D02*
Y6532D01*
X6278Y5932D02*
Y5882D01*
X6253Y7457D02*
Y7507D01*
X6303Y7407D02*
Y7157D01*
X6353Y7457D02*
Y7507D01*
X6403Y7407D02*
Y7157D01*
X6253Y7982D02*
Y8107D01*
X6403Y7907D02*
Y7782D01*
X6303Y7957D02*
Y8232D01*
X6353Y8282D02*
Y8407D01*
X6253Y8232D02*
Y8107D01*
Y7857D02*
Y7807D01*
X6403Y8007D02*
Y8482D01*
X6353Y8557D02*
Y8707D01*
X6403Y9907D02*
Y10007D01*
X6303D02*
Y9907D01*
X6253Y9557D02*
Y9457D01*
X6353Y7407D02*
Y7207D01*
X6403Y7457D02*
Y7657D01*
X6253Y7407D02*
Y7207D01*
X6303Y7457D02*
Y7557D01*
X6353Y8457D02*
X6278Y8532D01*
X6253Y6882D02*
X6303Y6832D01*
X6428Y7757D02*
X6403Y7782D01*
X6453Y9857D02*
X6403Y9907D01*
X6353Y9857D02*
X6303Y9907D01*
X6403Y9382D02*
X6353Y9332D01*
X6403Y10007D02*
X6453Y10057D01*
X6353D02*
X6303Y10007D01*
X6453Y6707D02*
X6353Y6607D01*
X6253Y7107D02*
X6303Y7157D01*
Y7407D02*
X6353Y7457D01*
X6403Y7407D02*
X6453Y7457D01*
X6403Y7157D02*
X6353Y7107D01*
X6403Y7907D02*
X6453Y7957D01*
X6303Y8232D02*
X6353Y8282D01*
X6403Y8482D02*
X6503Y8582D01*
X6403Y7457D02*
X6353Y7407D01*
X6303Y7457D02*
X6253Y7407D01*
X12228Y7357D02*
X12403D01*
X11403Y7407D02*
X11278D01*
X11603D02*
X11628D01*
X6503Y9407D02*
Y9932D01*
X6453Y9357D02*
Y9257D01*
X6553Y8707D02*
Y8582D01*
X6453Y8482D02*
Y8407D01*
X6553Y7107D02*
Y6982D01*
X6453Y6857D02*
Y7107D01*
X6503Y6657D02*
Y6532D01*
X6603Y6482D02*
Y6057D01*
X6453Y7457D02*
Y7507D01*
X6553D02*
Y7457D01*
X6503Y7407D02*
Y7157D01*
X6453Y7807D02*
Y7907D01*
X6553Y8007D02*
Y8107D01*
Y8207D01*
X6453Y8307D02*
Y8407D01*
Y8107D02*
Y7957D01*
X6503Y8582D02*
Y8732D01*
X6453Y9457D02*
Y9582D01*
Y7407D02*
Y7207D01*
X6503Y7457D02*
Y7657D01*
X6553Y7132D02*
Y7107D01*
X6603Y7182D02*
Y7407D01*
Y7132D02*
Y6582D01*
X6503Y9932D02*
X6478Y9957D01*
X6453Y8307D02*
X6553Y8207D01*
X6453Y9357D02*
X6503Y9407D01*
X6553Y8582D02*
X6453Y8482D01*
X6553Y6707D02*
X6503Y6657D01*
Y7407D02*
X6553Y7457D01*
X6503Y7157D02*
X6453Y7107D01*
X6603Y7407D02*
X6653Y7457D01*
X6453Y7907D02*
X6553Y8007D01*
X6653Y7807D02*
X6603Y7757D01*
X6503Y8732D02*
X6528Y8757D01*
X6503Y7457D02*
X6453Y7407D01*
X6603Y7182D02*
X6553Y7132D01*
X6603D02*
X6653Y7182D01*
Y7732D02*
X6253D01*
X6653Y8957D02*
Y9032D01*
X6753Y9057D02*
Y8957D01*
X6703Y8857D02*
Y9457D01*
X6753Y8807D02*
Y8707D01*
X6653Y8557D02*
Y8407D01*
Y8957D02*
Y9257D01*
X6703Y9582D02*
Y9857D01*
X6753Y7557D02*
Y7507D01*
X6703Y7607D02*
Y7657D01*
X6753Y7407D02*
Y7207D01*
X6803Y7457D02*
Y7657D01*
X6753Y7107D02*
Y6882D01*
X6653Y6707D02*
Y6532D01*
X6803D02*
Y6657D01*
X6653Y7457D02*
Y7507D01*
X6753D02*
Y7457D01*
X6703Y7407D02*
Y7182D01*
Y7157D01*
X6803D02*
Y7407D01*
X6753Y7807D02*
Y7907D01*
Y8057D02*
Y8107D01*
Y8057D02*
Y7982D01*
X6703Y7932D02*
Y7782D01*
X6753Y8707D02*
Y8757D01*
X6803Y9107D02*
Y9407D01*
Y9682D02*
Y9732D01*
X6753Y9482D02*
Y9257D01*
X6728Y9507D02*
Y9807D01*
X6753Y9832D02*
Y10182D01*
Y9632D02*
Y9557D01*
X6653Y7207D02*
Y7182D01*
X6753Y8807D02*
X6703Y8857D01*
Y7607D02*
X6753Y7557D01*
Y6707D02*
X6803Y6657D01*
X6753Y9482D02*
X6728Y9507D01*
X6753Y9557D02*
X6803Y9507D01*
Y9107D02*
X6753Y9057D01*
X6678Y9557D02*
X6703Y9582D01*
X6803Y7457D02*
X6753Y7407D01*
X6703D02*
X6753Y7457D01*
X6703Y7157D02*
X6653Y7107D01*
X6753D02*
X6803Y7157D01*
Y7407D02*
X6853Y7457D01*
X6703Y7932D02*
X6753Y7982D01*
X6703Y7782D02*
X6678Y7757D01*
X6653Y7732D01*
X6728Y9807D02*
X6753Y9832D01*
X6803Y9682D02*
X6753Y9632D01*
X9778Y7757D02*
X9853D01*
X12603Y7857D02*
X12703D01*
X6603Y7757D02*
X6428D01*
X6853Y8707D02*
Y8957D01*
Y9557D02*
Y9657D01*
X6953Y9757D02*
Y9857D01*
Y6682D02*
Y6532D01*
Y6432D02*
Y6007D01*
X6853Y7457D02*
Y7507D01*
X6903Y8057D02*
Y9082D01*
X6853Y9132D02*
Y9257D01*
X7003Y9607D02*
Y10132D01*
X6928Y6707D02*
X6953Y6682D01*
X6903Y6482D02*
X6953Y6432D01*
X6903Y9082D02*
X6853Y9132D01*
Y9657D02*
X6953Y9757D01*
Y6007D02*
X6903Y5957D01*
X10003Y8007D02*
X10103D01*
X10053Y8057D02*
X9878D01*
X9703D02*
X9628D01*
X10303D02*
X10403D01*
X11253Y8107D02*
X11353D01*
Y7957D02*
X11253D01*
X9028D02*
X8953D01*
X7153Y9457D02*
Y9607D01*
X7053Y9707D02*
Y9857D01*
X7153Y6107D02*
Y6032D01*
X7178Y8157D02*
Y8257D01*
X7203Y9257D02*
Y10107D01*
X7053Y9707D02*
X7153Y9607D01*
X7178Y8157D02*
X7228Y8107D01*
X7203Y6157D02*
X7153Y6107D01*
X9903Y8207D02*
X10028D01*
X7253Y5757D02*
Y5632D01*
X7353Y9457D02*
Y9632D01*
X7253Y9732D02*
Y9857D01*
X7403Y9907D02*
Y10007D01*
X7253Y6207D02*
Y6032D01*
X7378Y6757D02*
Y7032D01*
Y6707D02*
Y6532D01*
X7328Y9182D02*
Y9257D01*
X7253Y9107D02*
Y8332D01*
X7278Y8482D02*
Y9057D01*
X7378Y9157D02*
Y9307D01*
X7328Y8957D02*
Y8832D01*
X7303Y8807D02*
Y8607D01*
X7328Y8582D02*
Y8557D01*
X7353Y7857D02*
Y7532D01*
Y7482D01*
X7403Y7432D02*
Y7282D01*
X7378Y7257D02*
Y7082D01*
X7328Y6857D02*
Y7382D01*
Y6382D02*
Y5832D01*
X7278Y6357D02*
Y6382D01*
X7228Y6432D02*
Y8107D01*
X7253Y6782D02*
Y6457D01*
X7278Y6507D02*
Y6707D01*
X7353Y6782D02*
Y7057D01*
X7403Y6457D02*
Y5932D01*
X7328Y6507D02*
Y6707D01*
X7353Y9632D02*
X7253Y9732D01*
X7403Y9907D02*
X7453Y9857D01*
X7278Y8482D02*
X7353Y8407D01*
X7328Y8582D02*
X7303Y8607D01*
X7353Y7482D02*
X7403Y7432D01*
X7228Y6432D02*
X7278Y6382D01*
X7328D02*
X7253Y6457D01*
X7278Y6507D02*
X7353Y6432D01*
Y6482D02*
X7328Y6507D01*
X7378Y6482D02*
X7403Y6457D01*
X7328Y5832D02*
X7253Y5757D01*
X7403Y10007D02*
X7453Y10057D01*
X7428Y7082D02*
X7378Y7032D01*
Y6757D02*
X7328Y6707D01*
X7378D02*
X7453Y6782D01*
X7253Y9107D02*
X7328Y9182D01*
X7378Y9157D02*
X7278Y9057D01*
X7378Y9307D02*
X7453Y9382D01*
X7328Y8832D02*
X7303Y8807D01*
X7403Y7282D02*
X7378Y7257D01*
Y7082D02*
X7353Y7057D01*
X7328Y6857D02*
X7253Y6782D01*
X7278Y6707D02*
X7353Y6782D01*
X7603Y8357D02*
X7878D01*
X7503Y9382D02*
Y10007D01*
X7478Y9357D02*
Y9132D01*
X7428Y9082D02*
Y8957D01*
X7603Y9932D02*
Y10007D01*
X7553Y9657D02*
Y9457D01*
X7528Y6607D02*
Y5907D01*
X7478Y5882D02*
Y6682D01*
X7428Y7082D02*
Y7132D01*
X7478Y6807D02*
Y7632D01*
X7428Y7682D02*
Y7807D01*
X7578Y7632D02*
Y7357D01*
X7528Y7682D02*
Y7807D01*
Y7507D02*
Y7357D01*
X7578Y7307D02*
Y6407D01*
X7528Y6732D02*
Y6907D01*
X7453Y9382D02*
Y9457D01*
Y8707D02*
Y8507D01*
X7503Y8457D02*
Y8182D01*
X7478Y8157D02*
Y7982D01*
X7578Y7957D02*
Y7707D01*
X7628Y9907D02*
X7603Y9932D01*
X7528Y5907D02*
X7628Y5807D01*
X7478Y7632D02*
X7428Y7682D01*
X7578Y7357D02*
X7628Y7307D01*
X7578Y7632D02*
X7528Y7682D01*
Y7357D02*
X7578Y7307D01*
Y6407D02*
X7603Y6382D01*
X7703Y6282D01*
X7503Y8457D02*
X7453Y8507D01*
X7553Y8407D02*
X7603Y8357D01*
X7503Y10007D02*
X7553Y10057D01*
X7503Y9382D02*
X7478Y9357D01*
Y9132D02*
X7428Y9082D01*
X7603Y10007D02*
X7653Y10057D01*
Y9757D02*
X7553Y9657D01*
X7478Y6807D02*
X7453Y6782D01*
X7528Y6732D02*
X7478Y6682D01*
X7528Y8957D02*
X7578Y9007D01*
X7503Y8182D02*
X7478Y8157D01*
X7628Y8007D02*
X7578Y7957D01*
X11178Y8557D02*
X11253D01*
Y8657D02*
X11103D01*
X11653Y8607D02*
X11703D01*
X11653D02*
X11578D01*
X11603Y8657D02*
X11778D01*
X7703Y9932D02*
Y10007D01*
X7753Y9882D02*
Y9857D01*
X7703Y9832D02*
Y9882D01*
X7803Y9732D02*
Y9432D01*
X7653Y9757D02*
Y9857D01*
X7803Y9907D02*
Y10007D01*
X7753Y5782D02*
Y5732D01*
X7728Y7282D02*
Y7407D01*
X7628Y7307D02*
Y7207D01*
X7728Y7957D02*
Y8107D01*
X7778Y7907D02*
Y7157D01*
X7728Y7107D02*
Y6907D01*
X7678Y7357D02*
Y6407D01*
X7803Y6282D02*
Y5857D01*
X7778Y6357D02*
Y6707D01*
X7703Y6282D02*
Y5857D01*
X7753Y8407D02*
Y8507D01*
X7803Y8557D02*
Y8732D01*
X7653Y8557D02*
Y8407D01*
X7753Y8582D02*
Y8707D01*
X7728Y7707D02*
Y7507D01*
X7628Y8007D02*
Y8107D01*
X7678Y7757D02*
Y7457D01*
X7753Y9882D02*
X7703Y9932D01*
X7678Y9907D02*
X7703Y9882D01*
Y9832D02*
X7803Y9732D01*
Y9432D02*
X7878Y9357D01*
X7853Y9857D02*
X7803Y9907D01*
X7728Y5807D02*
X7753Y5782D01*
Y5732D02*
X7778Y5707D01*
X7728Y7407D02*
X7678Y7457D01*
X7778Y7907D02*
X7728Y7957D01*
X7778Y6357D02*
X7803Y6332D01*
X7853Y6282D01*
X7828Y8957D02*
X7778Y9007D01*
X7803Y10007D02*
X7853Y10057D01*
X7753D02*
X7703Y10007D01*
X7778Y7157D02*
X7728Y7107D01*
X7828Y6757D02*
X7778Y6707D01*
X7853Y5807D02*
X7803Y5757D01*
X7753Y8507D02*
X7803Y8557D01*
Y8732D02*
X7878Y8807D01*
X7753Y8582D02*
X7728Y8557D01*
Y7807D02*
X7678Y7757D01*
X9578Y8882D02*
X9628D01*
X8828Y8857D02*
X8803D01*
X12453Y8807D02*
X12503D01*
X6753Y8757D02*
X6528D01*
X8003Y9732D02*
Y9907D01*
X7878Y9357D02*
Y9157D01*
X7928Y9107D02*
Y8957D01*
X7953Y9457D02*
Y9607D01*
X7928Y9357D02*
Y9257D01*
X7903Y9382D02*
Y10007D01*
X7828Y6607D02*
Y6382D01*
X7903Y6307D02*
Y5857D01*
X7953Y5807D02*
Y6382D01*
X7878Y6457D02*
Y7032D01*
X7828Y7082D02*
Y7207D01*
X7878Y7132D02*
Y7282D01*
X7978Y7032D02*
Y6782D01*
X7928Y6732D02*
Y6607D01*
X7828Y7357D02*
Y7507D01*
Y6907D02*
Y6757D01*
X7853Y6282D02*
Y5807D01*
X7953Y8707D02*
Y8782D01*
X7853Y8707D02*
Y8407D01*
X7978Y8907D02*
Y9357D01*
X7953Y9382D02*
Y9457D01*
X7903Y8782D02*
Y8382D01*
X7928Y7407D02*
Y7207D01*
X7878Y7457D02*
Y7657D01*
X7928Y7757D02*
Y7807D01*
X7978Y7657D02*
Y7107D01*
X8003Y9907D02*
X7953Y9957D01*
X7878Y9157D02*
X7928Y9107D01*
Y9357D02*
X7903Y9382D01*
X7828Y6382D02*
X7903Y6307D01*
X7953Y6382D02*
X7928Y6407D01*
X7878Y6457D01*
Y7032D02*
X7828Y7082D01*
X7878Y7132D02*
X7978Y7032D01*
X8028Y7057D02*
X7978Y7107D01*
Y9357D02*
X7953Y9382D01*
X7878Y7457D02*
X7928Y7407D01*
X7878Y7657D02*
X7828Y7707D01*
X7928Y7757D02*
X8028Y7657D01*
X7978Y9707D02*
X8003Y9732D01*
X8053Y9707D02*
X7953Y9607D01*
X7903Y10007D02*
X7953Y10057D01*
X8003Y5757D02*
X7953Y5707D01*
X7903Y5757D02*
X7953Y5807D01*
X7928Y6732D02*
X7978Y6782D01*
X7953Y8782D02*
X8053Y8882D01*
X7978Y8907D02*
X7878Y8807D01*
X7903Y8382D02*
X7878Y8357D01*
X9678Y9007D02*
X9778D01*
X6653Y9032D02*
X6353D01*
X7578Y9007D02*
X7778D01*
X8103Y9932D02*
Y10007D01*
X8153Y9882D02*
Y9857D01*
X8128Y9757D02*
Y9707D01*
X8103Y9782D02*
Y9882D01*
X8078Y9907D02*
Y9932D01*
X8153Y9357D02*
Y9182D01*
X8028Y8107D02*
Y7882D01*
X8053Y9707D02*
Y9857D01*
X8153Y6457D02*
Y5807D01*
X8103Y5857D02*
Y7407D01*
X8028Y7057D02*
Y6907D01*
X8078Y8907D02*
Y9132D01*
X8028Y9182D02*
Y9257D01*
Y8957D02*
Y8907D01*
Y8957D02*
Y9107D01*
Y7657D02*
Y7507D01*
X8153Y9882D02*
X8103Y9932D01*
Y9782D02*
X8128Y9757D01*
X8103Y9882D02*
X8078Y9907D01*
Y9932D02*
X8053Y9957D01*
X8153D02*
X8203Y9907D01*
X8028Y9182D02*
X8078Y9132D01*
X8153Y9357D02*
X8203Y9407D01*
X8103Y10007D02*
X8153Y10057D01*
X8253Y6557D02*
X8153Y6457D01*
Y5807D02*
X8103Y5757D01*
X8053Y8882D02*
X8078Y8907D01*
X5578Y9182D02*
X5478D01*
X8203Y9407D02*
Y9907D01*
X8353Y6407D02*
Y6357D01*
X8303Y6407D02*
Y5857D01*
X8353Y6507D02*
Y6782D01*
X8253Y6407D02*
Y5807D01*
X8353D02*
Y6132D01*
X8253Y6707D02*
Y6832D01*
X8303Y6657D02*
Y6582D01*
X8203Y9107D02*
Y9307D01*
X8253Y9357D02*
Y9457D01*
X8353D02*
Y8332D01*
Y5807D02*
X8403Y5757D01*
X8303Y6657D02*
X8253Y6707D01*
X8453Y6507D02*
X8353Y6407D01*
X8303D02*
X8403Y6507D01*
X8353Y6782D02*
X8428Y6857D01*
X8353Y6507D02*
X8253Y6407D01*
Y5807D02*
X8203Y5757D01*
X8353Y6132D02*
X8403Y6182D01*
X8278Y6557D02*
X8303Y6582D01*
X8203Y9307D02*
X8253Y9357D01*
X8828Y9457D02*
X9003D01*
X8553Y5807D02*
Y5582D01*
X8428Y7107D02*
Y8807D01*
X8453Y6957D02*
Y6507D01*
X8478Y6982D02*
Y7057D01*
X8503Y5757D02*
Y5582D01*
X8403Y6507D02*
Y6732D01*
X8428Y6857D02*
Y7007D01*
X8403Y6382D02*
Y6182D01*
X8553Y6532D02*
Y7007D01*
X8403Y6082D02*
Y5857D01*
X8553Y6232D02*
Y6457D01*
Y7382D02*
Y7632D01*
X8503Y7682D02*
Y7807D01*
Y8407D02*
Y8607D01*
X8553Y8657D02*
Y8857D01*
Y5582D02*
X8578Y5557D01*
X8553Y5807D02*
X8503Y5857D01*
X8478Y7057D02*
X8428Y7107D01*
X8553Y7632D02*
X8503Y7682D01*
X8478Y6982D02*
X8453Y6957D01*
X8553Y7007D02*
X8603Y7057D01*
Y6507D02*
X8553Y6457D01*
X8503Y8607D02*
X8553Y8657D01*
Y8857D02*
X8603Y8907D01*
X6678Y9557D02*
X6603D01*
X11728Y9507D02*
X11753D01*
X4978Y9607D02*
X4903D01*
X5153D02*
X5203D01*
X8753Y9457D02*
Y9157D01*
X8703Y9107D02*
Y8957D01*
X8753Y5907D02*
Y5807D01*
X8603Y5757D02*
Y5632D01*
Y5957D02*
Y6132D01*
X8703Y6232D02*
Y6357D01*
X8603Y7057D02*
Y7207D01*
Y6607D02*
Y6507D01*
X8703Y7657D02*
Y7807D01*
X8753Y7607D02*
Y7407D01*
X8703Y6807D02*
Y6607D01*
X8753Y6857D02*
Y7282D01*
X8653Y7382D02*
Y7632D01*
X8603Y7682D02*
Y7807D01*
X8703Y7232D02*
Y7207D01*
X8753Y7657D02*
Y7907D01*
X8703Y7957D02*
Y8107D01*
X8753Y8907D02*
Y9107D01*
X8603Y8907D02*
Y9482D01*
X8753Y9707D02*
Y9807D01*
X8778Y9832D02*
Y9857D01*
X8703Y7657D02*
X8753Y7607D01*
X8728Y7307D02*
X8753Y7282D01*
X8728Y7307D02*
X8653Y7382D01*
Y7632D02*
X8603Y7682D01*
X8753Y7657D02*
X8803Y7607D01*
X8753Y7907D02*
X8703Y7957D01*
X8803Y8857D02*
X8753Y8907D01*
Y9457D02*
X8853Y9557D01*
X8753Y9157D02*
X8703Y9107D01*
X8753Y5807D02*
X8703Y5757D01*
X8753Y5907D02*
X8803Y5957D01*
X8603Y6132D02*
X8703Y6232D01*
Y6807D02*
X8753Y6857D01*
Y9107D02*
X8853Y9207D01*
X8753Y9807D02*
X8778Y9832D01*
X6178Y9732D02*
X6153D01*
X11953Y9857D02*
X12028D01*
X8953Y8732D02*
Y8607D01*
X8803Y8407D02*
Y8307D01*
X8853Y9557D02*
Y9807D01*
X8828Y9132D02*
Y9107D01*
X8903Y9207D02*
Y9257D01*
X8803D02*
Y9432D01*
X8903Y9107D02*
Y8957D01*
X8953Y9157D02*
Y9407D01*
X8853Y6207D02*
Y5807D01*
X8903Y6907D02*
Y7007D01*
X8953Y6307D02*
Y6082D01*
X8853Y6407D02*
Y7457D01*
X8803Y7507D02*
Y7607D01*
X8903Y7757D02*
Y7807D01*
X8803D02*
Y7682D01*
X8953Y7532D02*
Y6807D01*
X8903Y8407D02*
Y8557D01*
X8853Y9207D02*
Y9407D01*
X8953Y6082D02*
X9053Y5982D01*
X8953Y6307D02*
X8853Y6407D01*
X9003Y6757D02*
X8953Y6807D01*
X9003Y8557D02*
X8953Y8607D01*
X8828Y9132D02*
X8903Y9207D01*
X8803Y9432D02*
X8828Y9457D01*
X8953Y9157D02*
X8903Y9107D01*
X9003Y5832D02*
X8928Y5757D01*
X8853Y5807D02*
X8803Y5757D01*
X8853Y6207D02*
X8903Y6257D01*
X8853Y7457D02*
X8903Y7507D01*
X6478Y9957D02*
X6453D01*
X7628Y9907D02*
X7678D01*
X10453Y10057D02*
X10553D01*
X9153Y9807D02*
Y9682D01*
X9003Y5957D02*
Y5832D01*
X9153Y5707D02*
Y6007D01*
X9053Y6107D02*
Y7007D01*
X9003Y7057D02*
Y7107D01*
X9053Y5982D02*
Y5807D01*
X9153Y6832D02*
Y7657D01*
X9053Y7757D02*
Y7782D01*
Y7932D01*
X9003Y7407D02*
Y7207D01*
X9053Y7107D02*
Y7607D01*
X9103Y7057D02*
Y6907D01*
X9003Y7732D02*
Y7807D01*
X9103Y7632D02*
Y7507D01*
X9003Y6757D02*
Y6607D01*
X9053Y9557D02*
Y9807D01*
X9103Y9507D02*
Y8832D01*
X9153Y8782D02*
Y8332D01*
Y10057D02*
Y10232D01*
X9003Y9457D02*
X9053Y9407D01*
X9253Y9582D02*
X9153Y9682D01*
X9053Y6107D02*
X9153Y6007D01*
X9053Y7007D02*
X9003Y7057D01*
X9153Y7657D02*
X9053Y7757D01*
Y7932D02*
X9028Y7957D01*
X9053Y7107D02*
X9103Y7057D01*
Y7632D02*
X9003Y7732D01*
X9103Y9507D02*
X9053Y9557D01*
X9103Y8832D02*
X9153Y8782D01*
X10353Y10207D02*
X10403D01*
X10003D02*
X9953D01*
X9353Y9307D02*
Y9257D01*
X9303Y9357D02*
Y9532D01*
X9253Y9407D02*
Y9257D01*
Y9407D02*
Y9582D01*
X9303Y9857D02*
Y10007D01*
X9203Y6082D02*
Y5957D01*
X9303Y6182D02*
Y6357D01*
X9353Y8807D02*
Y8882D01*
X9303Y8932D02*
Y9007D01*
X9353Y9057D02*
Y9132D01*
Y9307D02*
X9303Y9357D01*
Y10007D02*
X9253Y10057D01*
X9303Y8932D02*
X9353Y8882D01*
X9253Y9807D02*
X9303Y9857D01*
Y6182D02*
X9203Y6082D01*
X9303Y9007D02*
X9353Y9057D01*
Y9132D02*
X9403Y9182D01*
X9453Y9682D02*
Y9807D01*
X9553Y9032D02*
Y8907D01*
X9453Y9157D02*
Y9407D01*
X9503Y8957D02*
Y8882D01*
X9453Y9082D02*
Y8657D01*
X9553Y8557D02*
Y8207D01*
Y9182D02*
Y9307D01*
Y7982D02*
Y7807D01*
X9453D02*
Y7982D01*
X9403Y9182D02*
Y9457D01*
X9553Y9607D02*
Y9807D01*
Y8907D02*
X9578Y8882D01*
X9503D02*
X9603Y8782D01*
X9453Y8657D02*
X9553Y8557D01*
X9603Y10007D02*
X9553Y10057D01*
X9653Y9132D02*
X9553Y9032D01*
X9453Y9157D02*
X9403Y9107D01*
X9453Y9082D02*
X9553Y9182D01*
X9628Y8057D02*
X9553Y7982D01*
Y9307D02*
X9603Y9357D01*
X9703Y6307D02*
Y6132D01*
X9653Y8907D02*
Y8982D01*
Y9132D02*
Y9407D01*
X9753Y9307D02*
Y9157D01*
X9603Y9007D02*
Y8957D01*
X9753Y9432D02*
Y10132D01*
X9603Y8707D02*
Y8632D01*
X9653Y8582D02*
Y8282D01*
X9703Y8807D02*
Y8957D01*
Y9357D02*
Y9882D01*
X9603Y8782D02*
Y8707D01*
X9753Y7982D02*
Y7782D01*
Y8282D02*
Y8482D01*
X9603Y9357D02*
Y10007D01*
Y8557D02*
Y8407D01*
X9753Y8557D02*
X9803Y8607D01*
X9753Y9307D02*
X9703Y9357D01*
X9753Y9432D02*
X9853Y9332D01*
X9603Y8632D02*
X9653Y8582D01*
X9753Y7782D02*
X9778Y7757D01*
X9628Y8882D02*
X9653Y8907D01*
Y8982D02*
X9678Y9007D01*
X9853Y8082D02*
X9753Y7982D01*
X9803Y8607D02*
Y8707D01*
Y8957D02*
Y8982D01*
X9853Y8832D02*
Y9332D01*
X9953Y8732D02*
Y8632D01*
X9853Y8532D02*
Y8507D01*
Y8357D01*
X9803Y8307D02*
Y8207D01*
X9953Y8382D02*
Y8557D01*
X9853Y8282D02*
Y8082D01*
X9803Y7982D02*
Y7807D01*
X9903Y8632D02*
Y8707D01*
X9953Y9532D02*
Y9807D01*
X9778Y9007D02*
X9803Y8982D01*
X9853Y8832D02*
X9953Y8732D01*
Y8632D02*
X9853Y8532D01*
Y8357D02*
X9803Y8307D01*
X9853Y8282D02*
X9953Y8382D01*
X9903Y7807D02*
X9853Y7757D01*
X9803Y7982D02*
X9878Y8057D01*
X10053Y8232D02*
Y8282D01*
X10003Y8957D02*
Y9257D01*
X10153Y8782D02*
Y8557D01*
Y8132D02*
Y7807D01*
X10128Y8032D02*
Y8107D01*
X10153Y8832D02*
Y9107D01*
X10053Y8732D02*
Y8382D01*
X10003Y8807D02*
Y8957D01*
X10103Y9257D02*
Y9407D01*
X10003Y8632D02*
Y8407D01*
X10053Y8232D02*
X10153Y8132D01*
X10128Y8107D02*
X10028Y8207D01*
X10153Y8782D02*
X10203Y8832D01*
X10128Y8032D02*
X10103Y8007D01*
X10003Y10207D02*
X10053Y10257D01*
X10203Y9157D02*
X10153Y9107D01*
Y8832D02*
X10053Y8732D01*
X10203Y8832D02*
Y8957D01*
Y9732D02*
Y10282D01*
X10253Y9682D02*
Y8207D01*
Y8007D02*
Y7807D01*
X10203Y9157D02*
Y9257D01*
Y8232D02*
Y7732D01*
X10303Y9407D02*
Y9907D01*
X10203Y9732D02*
X10253Y9682D01*
X10303Y8057D02*
X10253Y8007D01*
X10353Y9582D02*
Y9807D01*
X10503Y9432D02*
Y8807D01*
X10578Y8732D01*
X10403Y10207D02*
X10453Y10257D01*
X10653Y9732D02*
Y9607D01*
X10703Y9557D02*
Y9107D01*
X10653Y9057D02*
Y8957D01*
X10578Y8732D02*
Y7857D01*
X10703Y9557D02*
X10653Y9607D01*
X10703Y9107D02*
X10653Y9057D01*
X10753Y8957D02*
Y8807D01*
X10903Y9082D02*
Y10007D01*
Y10207D01*
Y9082D02*
X11003Y8982D01*
X11053Y8607D02*
Y8407D01*
X11003Y8857D02*
Y8982D01*
Y8857D02*
X11053Y8807D01*
X11103Y8657D02*
X11053Y8607D01*
X11153Y8532D02*
Y8407D01*
X11253Y9257D02*
Y9407D01*
Y9682D02*
Y9807D01*
X11203Y8057D02*
Y7907D01*
Y7807D02*
Y7707D01*
X11253Y7657D02*
Y7432D01*
Y8657D02*
Y8757D01*
Y8782D01*
X11153Y8882D02*
Y8957D01*
X11253D02*
Y8907D01*
Y9157D02*
Y9257D01*
X11303Y9107D02*
Y8932D01*
X11353Y9582D02*
X11253Y9682D01*
X11203Y7907D02*
X11253Y7857D01*
X11203Y7707D02*
X11253Y7657D01*
Y7432D02*
X11278Y7407D01*
X11253Y8782D02*
X11153Y8882D01*
X11253Y8907D02*
X11353Y8807D01*
X11303Y9107D02*
X11253Y9157D01*
X11303Y8932D02*
X11403Y8832D01*
X11353Y8657D02*
X11253Y8557D01*
X11178D02*
X11153Y8532D01*
X11253Y8107D02*
X11203Y8057D01*
X11253Y7857D02*
X11203Y7807D01*
X11353Y9807D02*
Y10157D01*
Y8807D02*
Y8657D01*
Y9257D02*
Y9407D01*
Y9582D01*
X11403Y7907D02*
Y7507D01*
Y8582D02*
Y8832D01*
X11353Y8532D02*
Y8407D01*
Y7957D02*
X11403Y7907D01*
X11353Y8532D02*
X11403Y8582D01*
X11703Y9157D02*
Y9307D01*
X11653Y9357D02*
Y9432D01*
Y7857D02*
Y7757D01*
Y7657D02*
Y7432D01*
X11553Y8632D02*
Y8682D01*
X11703Y8607D02*
X11803Y8507D01*
X11753Y9107D02*
X11703Y9157D01*
Y9307D02*
X11653Y9357D01*
X11553Y8632D02*
X11578Y8607D01*
X11653Y9432D02*
X11728Y9507D01*
X11653Y7432D02*
X11628Y7407D01*
X11903Y9407D02*
Y9532D01*
X11803Y8507D02*
Y8307D01*
X11853Y8957D02*
Y9107D01*
Y8957D02*
Y8907D01*
X11803Y8857D02*
Y8807D01*
X11753Y8957D02*
Y9107D01*
X11803Y9557D02*
Y9807D01*
X11753Y8957D02*
Y8882D01*
X11803Y8807D02*
Y8682D01*
X12003Y9307D02*
X11903Y9407D01*
Y9807D02*
X11953Y9857D01*
X11853Y8907D02*
X11803Y8857D01*
X11753Y9507D02*
X11803Y9557D01*
Y8682D02*
X11778Y8657D01*
X12053Y9257D02*
Y9832D01*
X12003Y9807D02*
Y9707D01*
X12103Y9557D02*
Y9407D01*
X12003Y9307D02*
Y8282D01*
X12053Y9832D02*
X12028Y9857D01*
X12203Y9657D02*
X12103Y9557D01*
X12303Y9482D02*
Y9757D01*
X12203Y9807D02*
Y9657D01*
X12303Y7557D02*
Y7457D01*
Y7657D02*
Y7757D01*
X12178Y7407D02*
Y8107D01*
Y7407D02*
X12228Y7357D01*
X12353Y9432D02*
X12303Y9482D01*
Y7457D02*
X12353Y7407D01*
Y8907D02*
Y9432D01*
X12403Y9807D02*
Y10057D01*
X12453Y9757D02*
Y9132D01*
X12503Y9082D02*
Y8957D01*
X12403D02*
Y9107D01*
X12353Y8907D02*
X12453Y8807D01*
Y9757D02*
X12403Y9807D01*
X12453Y9132D02*
X12503Y9082D01*
X12428Y7332D02*
X12453Y7307D01*
X12428Y7332D02*
X12403Y7357D01*
X12603Y8807D02*
Y8957D01*
X12553Y7807D02*
Y7407D01*
X12653Y9707D02*
Y9857D01*
Y9707D02*
X12753Y9607D01*
X12603Y7857D02*
X12553Y7807D01*
X12703Y7382D02*
X12628Y7307D01*
X12853Y8857D02*
Y9457D01*
X12828Y8832D02*
Y8757D01*
X12703Y7657D02*
Y7557D01*
X12753Y9457D02*
Y9607D01*
X12703Y7557D02*
Y7382D01*
X12803Y8957D02*
Y9107D01*
X12703Y8057D02*
Y7957D01*
X12828Y8832D02*
X12853Y8857D01*
Y9457D02*
X12953Y9557D01*
X13003Y9907D02*
Y10007D01*
X12903D02*
Y9857D01*
X12953Y9607D02*
Y9557D01*
X13078Y9107D02*
Y8757D01*
X13053Y9707D02*
Y9857D01*
X13028Y8707D02*
Y8557D01*
X13053Y9857D02*
X13003Y9907D01*
X12903Y9857D02*
X12953Y9807D01*
X13053Y9707D02*
X13103Y9657D01*
X13003Y10007D02*
X13053Y10057D01*
X12953D02*
X12903Y10007D01*
X13078Y8757D02*
X13028Y8707D01*
X13078Y9107D02*
X13103Y9132D01*
X13028Y8557D02*
X13003Y8532D01*
X13103Y9907D02*
Y10007D01*
X13253Y8532D02*
Y8407D01*
X13103Y9132D02*
Y9657D01*
X13153Y9857D02*
X13103Y9907D01*
Y10007D02*
X13153Y10057D01*
X13353Y8632D02*
X13253Y8532D01*
X13153Y9457D02*
X13253Y9557D01*
X13303Y8857D02*
X13253Y8807D01*
X13353Y9257D02*
Y9407D01*
X13378Y9432D02*
Y9707D01*
X13428Y9757D02*
Y9932D01*
X13403Y9607D02*
Y9457D01*
X13453Y9407D02*
Y9257D01*
X13353Y8957D02*
Y8807D01*
Y8632D01*
Y8532D02*
Y8407D01*
X13453Y8632D02*
Y8807D01*
Y8957D01*
Y9157D02*
Y9257D01*
X13403Y9107D02*
Y8632D01*
X13303Y8532D02*
Y8482D01*
X13453Y8532D02*
Y8407D01*
X13303Y8857D02*
Y9507D01*
X13353Y9557D02*
Y10007D01*
X13403Y9457D02*
X13453Y9407D01*
X13503Y10182D02*
X13478Y10207D01*
X13378Y9432D02*
X13353Y9407D01*
X13378Y9707D02*
X13428Y9757D01*
X13453Y9657D02*
X13403Y9607D01*
X13453Y8632D02*
X13353Y8532D01*
X13403Y9107D02*
X13453Y9157D01*
X13403Y8632D02*
X13303Y8532D01*
X13453D02*
X13503Y8582D01*
X13303Y9507D02*
X13353Y9557D01*
X13553Y9407D02*
Y9257D01*
Y8707D02*
Y8407D01*
X13603Y8757D02*
Y9082D01*
Y9982D01*
X13553Y10032D02*
Y10132D01*
X13503Y10182D02*
Y8582D01*
X13603Y9982D02*
X13553Y10032D01*
X13603Y8757D02*
X13553Y8707D01*
D20*
X12303Y6107D02*
X12305Y6106D01*
X12303Y6382D02*
X12253Y6432D01*
Y6582D02*
X12003Y6832D01*
X12603Y9082D02*
X12503Y9182D01*
X12653Y9457D02*
X12578Y9532D01*
X11503Y8607D02*
X11703Y8407D01*
Y8307D02*
X11903Y8107D01*
X9903Y9382D02*
X9853Y9432D01*
X13078Y8407D02*
X13103Y8382D01*
Y8107D02*
X13203Y8007D01*
X11578Y5782D02*
X11778Y5582D01*
X10628D02*
X10328Y5882D01*
X10203D02*
X10153Y5932D01*
X10703Y7057D02*
X10653Y7107D01*
X10478Y5863D02*
X10603Y5738D01*
X10553Y7107D02*
X10478Y7182D01*
X10253Y6532D02*
X10353Y6432D01*
X10403Y8832D02*
X10378Y8857D01*
X10953Y9132D02*
X11053Y9032D01*
X11804Y6607D02*
X12001Y6410D01*
X7203Y6382D02*
X7103Y6482D01*
X10653Y6157D02*
X10703Y6107D01*
X11053Y6357D02*
X11103Y6307D01*
X10691Y6107D02*
X10653Y6145D01*
X4678Y6207D02*
X4653Y6232D01*
X4578Y5957D02*
X4678Y5857D01*
X7128Y10232D02*
X7103Y10257D01*
X7128Y9957D02*
X7153Y9932D01*
X12578D02*
X12603Y9957D01*
X4803Y9707D02*
X4778Y9682D01*
X8053Y9557D02*
X8128Y9632D01*
X8303Y9707D02*
X8353Y9757D01*
X9878Y7257D02*
X9803Y7182D01*
X12003Y7932D02*
X12028Y7957D01*
X11503Y8807D02*
X11553Y8857D01*
X11903Y7582D02*
X11878Y7557D01*
X8728Y9957D02*
X8703Y9932D01*
X13128Y9082D02*
X13253Y9207D01*
X13128Y8732D02*
X13078Y8682D01*
X13003Y5957D02*
X12628Y5582D01*
X11253Y5782D02*
X11053Y5582D01*
X10478Y6757D02*
X10703Y6982D01*
X10847Y5782D02*
X10803Y5738D01*
X9903Y7107D02*
X9978Y7182D01*
X10253Y6707D02*
X10653Y7107D01*
X12803Y8057D02*
X12853Y8107D01*
X12828Y6132D02*
X12803Y6107D01*
X12828Y6132D02*
X13103Y6407D01*
X13003Y6728D02*
X13157Y6882D01*
X9728Y6407D02*
X9703Y6382D01*
X9728Y6407D02*
X9803Y6482D01*
X8803Y6232D02*
X8703Y6132D01*
X9428Y6607D02*
X9453Y6632D01*
X10903Y6107D02*
X10953Y6157D01*
X10803Y6307D02*
X10853Y6357D01*
X11103Y6157D02*
X11003Y6057D01*
X4603Y7207D02*
X4578Y7182D01*
X4678Y6582D02*
X4653Y6557D01*
X6553Y7882D02*
X6653Y7982D01*
X4778Y9907D02*
X4628Y9757D01*
X5453Y10082D02*
X5553Y10182D01*
X6628D02*
X6703Y10257D01*
X12303Y8457D02*
X12328Y8482D01*
X4628Y8707D02*
Y8107D01*
Y8707D02*
Y9257D01*
Y8107D02*
Y7507D01*
X4653Y6557D02*
Y6232D01*
X4578Y5957D02*
Y7182D01*
X4628Y9257D02*
Y9757D01*
X11778Y5582D02*
X12628D01*
X11053D02*
X10628D01*
X10603Y5738D02*
X10803D01*
X5353Y5757D02*
X5253D01*
X4853Y9657D02*
Y9707D01*
X4778Y9682D02*
Y8957D01*
Y7807D02*
Y7207D01*
Y7807D02*
Y8407D01*
Y8957D01*
X13003Y5957D02*
X13453D01*
X11578Y5782D02*
X11253D01*
X10328Y5882D02*
X10203D01*
X5253Y5857D02*
X4678D01*
X12303Y6107D02*
X12803D01*
X10903D02*
X10703D01*
X5253Y5857D02*
Y5757D01*
Y6582D02*
Y6632D01*
X10853Y6357D02*
X11053D01*
X5153Y6207D02*
X4678D01*
X5353Y5857D02*
Y5757D01*
X5403Y6582D02*
Y6632D01*
X5453Y9807D02*
Y9907D01*
Y10082D01*
X13103Y6407D02*
X13453D01*
X13703D01*
X5603Y7807D02*
Y8107D01*
X9303Y6607D02*
X9378D01*
X11103D02*
X11804D01*
X12623Y6728D02*
X13003D01*
X7178Y6607D02*
X7103D01*
X9378D02*
X9428D01*
X9453Y6632D02*
X9603D01*
X8253Y6607D02*
X8178D01*
X4803Y6582D02*
X4678D01*
X5253Y6632D02*
X5403D01*
X5753Y9807D02*
Y9957D01*
X13157Y6882D02*
X13453D01*
X7103Y6907D02*
X6978D01*
X8253D02*
X8328D01*
X9228D02*
X9303D01*
X10553Y7107D02*
X10653D01*
X13328Y7051D02*
X13453D01*
X6153Y8407D02*
Y8707D01*
X13453Y7207D02*
X13703D01*
X7178D02*
X7103D01*
X8178D02*
X8253D01*
X9303D02*
X9378D01*
X9878Y7257D02*
X12003D01*
X10478Y7182D02*
X9978D01*
X4778Y7207D02*
X4703D01*
X4603D01*
X9228Y7507D02*
X9303D01*
X7103D02*
X6978D01*
X8253D02*
X8328D01*
X4703D02*
X4628D01*
X6553Y9107D02*
Y9257D01*
Y7882D02*
Y7807D01*
X11803Y7557D02*
X11878D01*
X13328Y7682D02*
X13453D01*
X6653Y7982D02*
Y8107D01*
X4778Y7807D02*
X4703D01*
X12703Y7757D02*
X12803D01*
X11803D02*
X11728D01*
X7178Y7807D02*
X7103D01*
X7028D01*
X8178D02*
X8253D01*
X9303D02*
X9378D01*
X6978Y7507D02*
Y6907D01*
X8253Y8107D02*
X8328D01*
X12028Y7957D02*
X12103D01*
X10503D02*
X10403D01*
X13203Y8007D02*
X13453D01*
X11803Y8057D02*
X11728D01*
X13453Y8007D02*
X13703D01*
X9303Y8107D02*
X9228D01*
X4703D02*
X4628D01*
X7103Y6607D02*
Y6482D01*
X7203Y6382D02*
Y6257D01*
X7178Y6607D02*
Y7207D01*
Y7807D01*
X7028D02*
Y8407D01*
X7128Y9957D02*
Y10232D01*
X7153Y9932D02*
Y9857D01*
X4778Y8407D02*
X4703D01*
X8178D02*
X8253D01*
X7103D02*
X7028D01*
X12303D02*
X12503D01*
X10503Y8707D02*
X10403D01*
X4703D02*
X4628D01*
X7728Y9107D02*
Y9257D01*
X4778Y8957D02*
X4703D01*
X8178Y8407D02*
Y7782D01*
X8128Y9632D02*
Y9707D01*
X8053Y9557D02*
Y9457D01*
X8178Y7807D02*
Y7207D01*
Y6607D01*
X4703Y9257D02*
X4628D01*
X8328Y8107D02*
Y7507D01*
Y6907D01*
X8703Y9757D02*
Y9932D01*
Y6132D02*
Y5957D01*
Y5857D01*
X4853Y9707D02*
X4803D01*
X8353Y9757D02*
X8503D01*
X8803Y6357D02*
Y6232D01*
X12603Y9957D02*
X12753D01*
X8953D02*
X8728D01*
X5453Y9907D02*
X4778D01*
X9103Y6607D02*
Y6357D01*
X6628Y10182D02*
X5553D01*
X6703Y10257D02*
X7103D01*
X9228Y8107D02*
Y7507D01*
Y6907D01*
X9503Y6557D02*
Y6307D01*
X9378Y6607D02*
Y7207D01*
Y7807D01*
X9653Y9957D02*
Y10057D01*
X9703Y6382D02*
Y6307D01*
X9603D02*
Y6557D01*
Y6632D01*
X9803Y6557D02*
Y7182D01*
X9853Y9432D02*
Y9607D01*
X9903Y9382D02*
Y9257D01*
Y9107D01*
X9803Y6557D02*
Y6482D01*
X10153Y6557D02*
Y6307D01*
Y5932D01*
X10253Y6532D02*
Y6557D01*
Y6707D01*
X10503Y7957D02*
Y8707D01*
X10478Y6757D02*
Y5863D01*
X10353Y6307D02*
Y6432D01*
X10378Y8857D02*
Y9107D01*
X10403Y8832D02*
Y8707D01*
X10703Y7057D02*
Y6982D01*
X10653Y6207D02*
Y6157D01*
Y6145D02*
Y6207D01*
X10691Y6107D02*
Y5957D01*
X10847D02*
Y5782D01*
X10803Y6207D02*
Y6307D01*
X10953Y6607D02*
Y7107D01*
Y9132D02*
Y9257D01*
X11053Y9032D02*
Y8957D01*
X10953Y6207D02*
Y6157D01*
X11103Y6207D02*
Y6307D01*
Y6207D02*
Y6157D01*
X11003Y6057D02*
Y5957D01*
X11503Y8607D02*
Y8807D01*
X11553Y8857D02*
Y8957D01*
X11703Y8407D02*
Y8307D01*
X11903Y8107D02*
Y7582D01*
X11728Y7757D02*
Y8057D01*
X11803Y7657D02*
Y7557D01*
X12003Y7257D02*
Y6832D01*
Y7932D01*
X12103Y7957D02*
Y8057D01*
X12303Y6382D02*
Y6107D01*
X12253Y6432D02*
Y6582D01*
X12303Y8407D02*
Y8457D01*
Y8407D02*
Y8157D01*
X12503Y9182D02*
Y9257D01*
X12328Y8507D02*
Y8482D01*
X12603Y9032D02*
Y9082D01*
X12578Y9532D02*
Y9932D01*
X12853Y9957D02*
Y9857D01*
X12803Y8057D02*
Y7757D01*
X13078Y8407D02*
Y8682D01*
X13253Y9207D02*
Y9257D01*
X13128Y9082D02*
Y8732D01*
X13103Y8382D02*
Y8107D01*
X13453Y6895D02*
Y6882D01*
Y5957D02*
Y5939D01*
Y7682D02*
Y7695D01*
X13328Y7682D02*
Y7051D01*
X13453Y6107D02*
Y6095D01*
Y6107D02*
Y6251D01*
Y6895D02*
Y6907D01*
Y7051D01*
Y7851D02*
Y7857D01*
Y7695D01*
X13703Y7207D02*
Y6407D01*
Y7207D02*
Y8007D01*
X13628Y10157D02*
X13629D01*
X13628D02*
X13628Y10147D01*
X13630Y10137D01*
X13632Y10127D01*
X13634Y10117D01*
X13638Y10108D01*
X13642Y10099D01*
X13647Y10090D01*
X13653Y10082D01*
X13659Y10074D01*
X13666Y10067D01*
X13674Y10060D01*
X13682Y10054D01*
X13690Y10049D01*
X13699Y10044D01*
X13709Y10040D01*
X13718Y10037D01*
X13728Y10035D01*
X13738Y10033D01*
X13748Y10032D01*
X13758D01*
X13768Y10033D01*
X13778Y10035D01*
X13788Y10037D01*
X13797Y10040D01*
X13807Y10044D01*
X13816Y10049D01*
X13824Y10054D01*
X13832Y10060D01*
X13840Y10067D01*
X13847Y10074D01*
X13853Y10082D01*
X13859Y10090D01*
X13864Y10099D01*
X13868Y10108D01*
X13872Y10117D01*
X13874Y10127D01*
X13876Y10137D01*
X13878Y10147D01*
X13878Y10157D01*
X13879D01*
X13878D02*
X13878Y10167D01*
X13876Y10177D01*
X13874Y10187D01*
X13872Y10197D01*
X13868Y10206D01*
X13864Y10215D01*
X13859Y10224D01*
X13853Y10232D01*
X13847Y10240D01*
X13840Y10247D01*
X13832Y10254D01*
X13824Y10260D01*
X13816Y10265D01*
X13807Y10270D01*
X13797Y10274D01*
X13788Y10277D01*
X13778Y10279D01*
X13768Y10281D01*
X13758Y10282D01*
X13748D01*
X13738Y10281D01*
X13728Y10279D01*
X13718Y10277D01*
X13709Y10274D01*
X13699Y10270D01*
X13690Y10265D01*
X13682Y10260D01*
X13674Y10254D01*
X13666Y10247D01*
X13659Y10240D01*
X13653Y10232D01*
X13647Y10224D01*
X13642Y10215D01*
X13638Y10206D01*
X13634Y10197D01*
X13632Y10187D01*
X13630Y10177D01*
X13628Y10167D01*
X13628Y10157D01*
X13676D02*
X13677D01*
X13676D02*
X13677Y10148D01*
X13678Y10139D01*
X13681Y10131D01*
X13684Y10122D01*
X13689Y10115D01*
X13694Y10108D01*
X13700Y10101D01*
X13707Y10095D01*
X13714Y10090D01*
X13723Y10086D01*
X13731Y10083D01*
X13740Y10081D01*
X13749Y10080D01*
X13757D01*
X13766Y10081D01*
X13775Y10083D01*
X13783Y10086D01*
X13792Y10090D01*
X13799Y10095D01*
X13806Y10101D01*
X13812Y10108D01*
X13817Y10115D01*
X13822Y10122D01*
X13825Y10131D01*
X13828Y10139D01*
X13829Y10148D01*
X13830Y10157D01*
X13831D01*
X13830D02*
X13829Y10166D01*
X13828Y10175D01*
X13825Y10183D01*
X13822Y10192D01*
X13817Y10199D01*
X13812Y10206D01*
X13806Y10213D01*
X13799Y10219D01*
X13792Y10224D01*
X13783Y10228D01*
X13775Y10231D01*
X13766Y10233D01*
X13757Y10234D01*
X13749D01*
X13740Y10233D01*
X13731Y10231D01*
X13723Y10228D01*
X13714Y10224D01*
X13707Y10219D01*
X13700Y10213D01*
X13694Y10206D01*
X13689Y10199D01*
X13684Y10192D01*
X13681Y10183D01*
X13678Y10175D01*
X13677Y10166D01*
X13676Y10157D01*
X13724D02*
X13725D01*
X13724D02*
X13725Y10151D01*
X13727Y10145D01*
X13730Y10140D01*
X13734Y10135D01*
X13738Y10132D01*
X13744Y10129D01*
X13750Y10128D01*
X13756D01*
X13762Y10129D01*
X13768Y10132D01*
X13772Y10135D01*
X13776Y10140D01*
X13779Y10145D01*
X13781Y10151D01*
X13782Y10157D01*
X13783D01*
X13782D02*
X13781Y10163D01*
X13779Y10169D01*
X13776Y10174D01*
X13772Y10179D01*
X13768Y10182D01*
X13762Y10185D01*
X13756Y10186D01*
X13750D01*
X13744Y10185D01*
X13738Y10182D01*
X13734Y10179D01*
X13730Y10174D01*
X13727Y10169D01*
X13725Y10163D01*
X13724Y10157D01*
X13753D02*
D03*
X13628Y5657D02*
X13629D01*
X13628D02*
X13628Y5647D01*
X13630Y5637D01*
X13632Y5627D01*
X13634Y5617D01*
X13638Y5608D01*
X13642Y5599D01*
X13647Y5590D01*
X13653Y5582D01*
X13659Y5574D01*
X13666Y5567D01*
X13674Y5560D01*
X13682Y5554D01*
X13690Y5549D01*
X13699Y5544D01*
X13709Y5540D01*
X13718Y5537D01*
X13728Y5535D01*
X13738Y5533D01*
X13748Y5532D01*
X13758D01*
X13768Y5533D01*
X13778Y5535D01*
X13788Y5537D01*
X13797Y5540D01*
X13807Y5544D01*
X13816Y5549D01*
X13824Y5554D01*
X13832Y5560D01*
X13840Y5567D01*
X13847Y5574D01*
X13853Y5582D01*
X13859Y5590D01*
X13864Y5599D01*
X13868Y5608D01*
X13872Y5617D01*
X13874Y5627D01*
X13876Y5637D01*
X13878Y5647D01*
X13878Y5657D01*
X13879D01*
X13878D02*
X13878Y5667D01*
X13876Y5677D01*
X13874Y5687D01*
X13872Y5697D01*
X13868Y5706D01*
X13864Y5715D01*
X13859Y5724D01*
X13853Y5732D01*
X13847Y5740D01*
X13840Y5747D01*
X13832Y5754D01*
X13824Y5760D01*
X13816Y5765D01*
X13807Y5770D01*
X13797Y5774D01*
X13788Y5777D01*
X13778Y5779D01*
X13768Y5781D01*
X13758Y5782D01*
X13748D01*
X13738Y5781D01*
X13728Y5779D01*
X13718Y5777D01*
X13709Y5774D01*
X13699Y5770D01*
X13690Y5765D01*
X13682Y5760D01*
X13674Y5754D01*
X13666Y5747D01*
X13659Y5740D01*
X13653Y5732D01*
X13647Y5724D01*
X13642Y5715D01*
X13638Y5706D01*
X13634Y5697D01*
X13632Y5687D01*
X13630Y5677D01*
X13628Y5667D01*
X13628Y5657D01*
X13676D02*
X13677D01*
X13676D02*
X13677Y5648D01*
X13678Y5639D01*
X13681Y5631D01*
X13684Y5622D01*
X13689Y5615D01*
X13694Y5608D01*
X13700Y5601D01*
X13707Y5595D01*
X13714Y5590D01*
X13723Y5586D01*
X13731Y5583D01*
X13740Y5581D01*
X13749Y5580D01*
X13757D01*
X13766Y5581D01*
X13775Y5583D01*
X13783Y5586D01*
X13792Y5590D01*
X13799Y5595D01*
X13806Y5601D01*
X13812Y5608D01*
X13817Y5615D01*
X13822Y5622D01*
X13825Y5631D01*
X13828Y5639D01*
X13829Y5648D01*
X13830Y5657D01*
X13831D01*
X13830D02*
X13829Y5666D01*
X13828Y5675D01*
X13825Y5683D01*
X13822Y5692D01*
X13817Y5699D01*
X13812Y5706D01*
X13806Y5713D01*
X13799Y5719D01*
X13792Y5724D01*
X13783Y5728D01*
X13775Y5731D01*
X13766Y5733D01*
X13757Y5734D01*
X13749D01*
X13740Y5733D01*
X13731Y5731D01*
X13723Y5728D01*
X13714Y5724D01*
X13707Y5719D01*
X13700Y5713D01*
X13694Y5706D01*
X13689Y5699D01*
X13684Y5692D01*
X13681Y5683D01*
X13678Y5675D01*
X13677Y5666D01*
X13676Y5657D01*
X13724D02*
X13725D01*
X13724D02*
X13725Y5651D01*
X13727Y5645D01*
X13730Y5640D01*
X13734Y5635D01*
X13738Y5632D01*
X13744Y5629D01*
X13750Y5628D01*
X13756D01*
X13762Y5629D01*
X13768Y5632D01*
X13772Y5635D01*
X13776Y5640D01*
X13779Y5645D01*
X13781Y5651D01*
X13782Y5657D01*
X13783D01*
X13782D02*
X13781Y5663D01*
X13779Y5669D01*
X13776Y5674D01*
X13772Y5679D01*
X13768Y5682D01*
X13762Y5685D01*
X13756Y5686D01*
X13750D01*
X13744Y5685D01*
X13738Y5682D01*
X13734Y5679D01*
X13730Y5674D01*
X13727Y5669D01*
X13725Y5663D01*
X13724Y5657D01*
X13753D02*
D03*
X4628Y10157D02*
X4629D01*
X4628D02*
X4628Y10147D01*
X4630Y10137D01*
X4632Y10127D01*
X4634Y10117D01*
X4638Y10108D01*
X4642Y10099D01*
X4647Y10090D01*
X4653Y10082D01*
X4659Y10074D01*
X4666Y10067D01*
X4674Y10060D01*
X4682Y10054D01*
X4690Y10049D01*
X4699Y10044D01*
X4709Y10040D01*
X4718Y10037D01*
X4728Y10035D01*
X4738Y10033D01*
X4748Y10032D01*
X4758D01*
X4768Y10033D01*
X4778Y10035D01*
X4788Y10037D01*
X4797Y10040D01*
X4807Y10044D01*
X4816Y10049D01*
X4824Y10054D01*
X4832Y10060D01*
X4840Y10067D01*
X4847Y10074D01*
X4853Y10082D01*
X4859Y10090D01*
X4864Y10099D01*
X4868Y10108D01*
X4872Y10117D01*
X4874Y10127D01*
X4876Y10137D01*
X4878Y10147D01*
X4878Y10157D01*
X4879D01*
X4878D02*
X4878Y10167D01*
X4876Y10177D01*
X4874Y10187D01*
X4872Y10197D01*
X4868Y10206D01*
X4864Y10215D01*
X4859Y10224D01*
X4853Y10232D01*
X4847Y10240D01*
X4840Y10247D01*
X4832Y10254D01*
X4824Y10260D01*
X4816Y10265D01*
X4807Y10270D01*
X4797Y10274D01*
X4788Y10277D01*
X4778Y10279D01*
X4768Y10281D01*
X4758Y10282D01*
X4748D01*
X4738Y10281D01*
X4728Y10279D01*
X4718Y10277D01*
X4709Y10274D01*
X4699Y10270D01*
X4690Y10265D01*
X4682Y10260D01*
X4674Y10254D01*
X4666Y10247D01*
X4659Y10240D01*
X4653Y10232D01*
X4647Y10224D01*
X4642Y10215D01*
X4638Y10206D01*
X4634Y10197D01*
X4632Y10187D01*
X4630Y10177D01*
X4628Y10167D01*
X4628Y10157D01*
X4676D02*
X4677D01*
X4676D02*
X4677Y10148D01*
X4678Y10139D01*
X4681Y10131D01*
X4684Y10122D01*
X4689Y10115D01*
X4694Y10108D01*
X4700Y10101D01*
X4707Y10095D01*
X4714Y10090D01*
X4723Y10086D01*
X4731Y10083D01*
X4740Y10081D01*
X4749Y10080D01*
X4757D01*
X4766Y10081D01*
X4775Y10083D01*
X4783Y10086D01*
X4792Y10090D01*
X4799Y10095D01*
X4806Y10101D01*
X4812Y10108D01*
X4817Y10115D01*
X4822Y10122D01*
X4825Y10131D01*
X4828Y10139D01*
X4829Y10148D01*
X4830Y10157D01*
X4831D01*
X4830D02*
X4829Y10166D01*
X4828Y10175D01*
X4825Y10183D01*
X4822Y10192D01*
X4817Y10199D01*
X4812Y10206D01*
X4806Y10213D01*
X4799Y10219D01*
X4792Y10224D01*
X4783Y10228D01*
X4775Y10231D01*
X4766Y10233D01*
X4757Y10234D01*
X4749D01*
X4740Y10233D01*
X4731Y10231D01*
X4723Y10228D01*
X4714Y10224D01*
X4707Y10219D01*
X4700Y10213D01*
X4694Y10206D01*
X4689Y10199D01*
X4684Y10192D01*
X4681Y10183D01*
X4678Y10175D01*
X4677Y10166D01*
X4676Y10157D01*
X4724D02*
X4725D01*
X4724D02*
X4725Y10151D01*
X4727Y10145D01*
X4730Y10140D01*
X4734Y10135D01*
X4738Y10132D01*
X4744Y10129D01*
X4750Y10128D01*
X4756D01*
X4762Y10129D01*
X4768Y10132D01*
X4772Y10135D01*
X4776Y10140D01*
X4779Y10145D01*
X4781Y10151D01*
X4782Y10157D01*
X4783D01*
X4782D02*
X4781Y10163D01*
X4779Y10169D01*
X4776Y10174D01*
X4772Y10179D01*
X4768Y10182D01*
X4762Y10185D01*
X4756Y10186D01*
X4750D01*
X4744Y10185D01*
X4738Y10182D01*
X4734Y10179D01*
X4730Y10174D01*
X4727Y10169D01*
X4725Y10163D01*
X4724Y10157D01*
X4753D02*
D03*
X4628Y5657D02*
X4629D01*
X4628D02*
X4628Y5647D01*
X4630Y5637D01*
X4632Y5627D01*
X4634Y5617D01*
X4638Y5608D01*
X4642Y5599D01*
X4647Y5590D01*
X4653Y5582D01*
X4659Y5574D01*
X4666Y5567D01*
X4674Y5560D01*
X4682Y5554D01*
X4690Y5549D01*
X4699Y5544D01*
X4709Y5540D01*
X4718Y5537D01*
X4728Y5535D01*
X4738Y5533D01*
X4748Y5532D01*
X4758D01*
X4768Y5533D01*
X4778Y5535D01*
X4788Y5537D01*
X4797Y5540D01*
X4807Y5544D01*
X4816Y5549D01*
X4824Y5554D01*
X4832Y5560D01*
X4840Y5567D01*
X4847Y5574D01*
X4853Y5582D01*
X4859Y5590D01*
X4864Y5599D01*
X4868Y5608D01*
X4872Y5617D01*
X4874Y5627D01*
X4876Y5637D01*
X4878Y5647D01*
X4878Y5657D01*
X4879D01*
X4878D02*
X4878Y5667D01*
X4876Y5677D01*
X4874Y5687D01*
X4872Y5697D01*
X4868Y5706D01*
X4864Y5715D01*
X4859Y5724D01*
X4853Y5732D01*
X4847Y5740D01*
X4840Y5747D01*
X4832Y5754D01*
X4824Y5760D01*
X4816Y5765D01*
X4807Y5770D01*
X4797Y5774D01*
X4788Y5777D01*
X4778Y5779D01*
X4768Y5781D01*
X4758Y5782D01*
X4748D01*
X4738Y5781D01*
X4728Y5779D01*
X4718Y5777D01*
X4709Y5774D01*
X4699Y5770D01*
X4690Y5765D01*
X4682Y5760D01*
X4674Y5754D01*
X4666Y5747D01*
X4659Y5740D01*
X4653Y5732D01*
X4647Y5724D01*
X4642Y5715D01*
X4638Y5706D01*
X4634Y5697D01*
X4632Y5687D01*
X4630Y5677D01*
X4628Y5667D01*
X4628Y5657D01*
X4676D02*
X4677D01*
X4676D02*
X4677Y5648D01*
X4678Y5639D01*
X4681Y5631D01*
X4684Y5622D01*
X4689Y5615D01*
X4694Y5608D01*
X4700Y5601D01*
X4707Y5595D01*
X4714Y5590D01*
X4723Y5586D01*
X4731Y5583D01*
X4740Y5581D01*
X4749Y5580D01*
X4757D01*
X4766Y5581D01*
X4775Y5583D01*
X4783Y5586D01*
X4792Y5590D01*
X4799Y5595D01*
X4806Y5601D01*
X4812Y5608D01*
X4817Y5615D01*
X4822Y5622D01*
X4825Y5631D01*
X4828Y5639D01*
X4829Y5648D01*
X4830Y5657D01*
X4831D01*
X4830D02*
X4829Y5666D01*
X4828Y5675D01*
X4825Y5683D01*
X4822Y5692D01*
X4817Y5699D01*
X4812Y5706D01*
X4806Y5713D01*
X4799Y5719D01*
X4792Y5724D01*
X4783Y5728D01*
X4775Y5731D01*
X4766Y5733D01*
X4757Y5734D01*
X4749D01*
X4740Y5733D01*
X4731Y5731D01*
X4723Y5728D01*
X4714Y5724D01*
X4707Y5719D01*
X4700Y5713D01*
X4694Y5706D01*
X4689Y5699D01*
X4684Y5692D01*
X4681Y5683D01*
X4678Y5675D01*
X4677Y5666D01*
X4676Y5657D01*
X4724D02*
X4725D01*
X4724D02*
X4725Y5651D01*
X4727Y5645D01*
X4730Y5640D01*
X4734Y5635D01*
X4738Y5632D01*
X4744Y5629D01*
X4750Y5628D01*
X4756D01*
X4762Y5629D01*
X4768Y5632D01*
X4772Y5635D01*
X4776Y5640D01*
X4779Y5645D01*
X4781Y5651D01*
X4782Y5657D01*
X4783D01*
X4782D02*
X4781Y5663D01*
X4779Y5669D01*
X4776Y5674D01*
X4772Y5679D01*
X4768Y5682D01*
X4762Y5685D01*
X4756Y5686D01*
X4750D01*
X4744Y5685D01*
X4738Y5682D01*
X4734Y5679D01*
X4730Y5674D01*
X4727Y5669D01*
X4725Y5663D01*
X4724Y5657D01*
X4753D02*
D03*
X12828Y5557D02*
X12829D01*
X12828D02*
X12828Y5547D01*
X12830Y5537D01*
X12832Y5527D01*
X12834Y5517D01*
X12838Y5508D01*
X12842Y5499D01*
X12847Y5490D01*
X12853Y5482D01*
X12859Y5474D01*
X12866Y5467D01*
X12874Y5460D01*
X12882Y5454D01*
X12890Y5449D01*
X12899Y5444D01*
X12909Y5440D01*
X12918Y5437D01*
X12928Y5435D01*
X12938Y5433D01*
X12948Y5432D01*
X12958D01*
X12968Y5433D01*
X12978Y5435D01*
X12988Y5437D01*
X12997Y5440D01*
X13007Y5444D01*
X13016Y5449D01*
X13024Y5454D01*
X13032Y5460D01*
X13040Y5467D01*
X13047Y5474D01*
X13053Y5482D01*
X13059Y5490D01*
X13064Y5499D01*
X13068Y5508D01*
X13072Y5517D01*
X13074Y5527D01*
X13076Y5537D01*
X13078Y5547D01*
X13078Y5557D01*
X13079D01*
X13078D02*
X13078Y5567D01*
X13076Y5577D01*
X13074Y5587D01*
X13072Y5597D01*
X13068Y5606D01*
X13064Y5615D01*
X13059Y5624D01*
X13053Y5632D01*
X13047Y5640D01*
X13040Y5647D01*
X13032Y5654D01*
X13024Y5660D01*
X13016Y5665D01*
X13007Y5670D01*
X12997Y5674D01*
X12988Y5677D01*
X12978Y5679D01*
X12968Y5681D01*
X12958Y5682D01*
X12948D01*
X12938Y5681D01*
X12928Y5679D01*
X12918Y5677D01*
X12909Y5674D01*
X12899Y5670D01*
X12890Y5665D01*
X12882Y5660D01*
X12874Y5654D01*
X12866Y5647D01*
X12859Y5640D01*
X12853Y5632D01*
X12847Y5624D01*
X12842Y5615D01*
X12838Y5606D01*
X12834Y5597D01*
X12832Y5587D01*
X12830Y5577D01*
X12828Y5567D01*
X12828Y5557D01*
X12876D02*
X12877D01*
X12876D02*
X12877Y5548D01*
X12878Y5539D01*
X12881Y5531D01*
X12884Y5522D01*
X12889Y5515D01*
X12894Y5508D01*
X12900Y5501D01*
X12907Y5495D01*
X12914Y5490D01*
X12923Y5486D01*
X12931Y5483D01*
X12940Y5481D01*
X12949Y5480D01*
X12957D01*
X12966Y5481D01*
X12975Y5483D01*
X12983Y5486D01*
X12992Y5490D01*
X12999Y5495D01*
X13006Y5501D01*
X13012Y5508D01*
X13017Y5515D01*
X13022Y5522D01*
X13025Y5531D01*
X13028Y5539D01*
X13029Y5548D01*
X13030Y5557D01*
X13031D01*
X13030D02*
X13029Y5566D01*
X13028Y5575D01*
X13025Y5583D01*
X13022Y5592D01*
X13017Y5599D01*
X13012Y5606D01*
X13006Y5613D01*
X12999Y5619D01*
X12992Y5624D01*
X12983Y5628D01*
X12975Y5631D01*
X12966Y5633D01*
X12957Y5634D01*
X12949D01*
X12940Y5633D01*
X12931Y5631D01*
X12923Y5628D01*
X12914Y5624D01*
X12907Y5619D01*
X12900Y5613D01*
X12894Y5606D01*
X12889Y5599D01*
X12884Y5592D01*
X12881Y5583D01*
X12878Y5575D01*
X12877Y5566D01*
X12876Y5557D01*
X12924D02*
X12925D01*
X12924D02*
X12925Y5551D01*
X12927Y5545D01*
X12930Y5540D01*
X12934Y5535D01*
X12938Y5532D01*
X12944Y5529D01*
X12950Y5528D01*
X12956D01*
X12962Y5529D01*
X12968Y5532D01*
X12972Y5535D01*
X12976Y5540D01*
X12979Y5545D01*
X12981Y5551D01*
X12982Y5557D01*
X12983D01*
X12982D02*
X12981Y5563D01*
X12979Y5569D01*
X12976Y5574D01*
X12972Y5579D01*
X12968Y5582D01*
X12962Y5585D01*
X12956Y5586D01*
X12950D01*
X12944Y5585D01*
X12938Y5582D01*
X12934Y5579D01*
X12930Y5574D01*
X12927Y5569D01*
X12925Y5563D01*
X12924Y5557D01*
X12953D02*
D03*
X12828Y7057D02*
X12829D01*
X12828D02*
X12828Y7047D01*
X12830Y7037D01*
X12832Y7027D01*
X12834Y7017D01*
X12838Y7008D01*
X12842Y6999D01*
X12847Y6990D01*
X12853Y6982D01*
X12859Y6974D01*
X12866Y6967D01*
X12874Y6960D01*
X12882Y6954D01*
X12890Y6949D01*
X12899Y6944D01*
X12909Y6940D01*
X12918Y6937D01*
X12928Y6935D01*
X12938Y6933D01*
X12948Y6932D01*
X12958D01*
X12968Y6933D01*
X12978Y6935D01*
X12988Y6937D01*
X12997Y6940D01*
X13007Y6944D01*
X13016Y6949D01*
X13024Y6954D01*
X13032Y6960D01*
X13040Y6967D01*
X13047Y6974D01*
X13053Y6982D01*
X13059Y6990D01*
X13064Y6999D01*
X13068Y7008D01*
X13072Y7017D01*
X13074Y7027D01*
X13076Y7037D01*
X13078Y7047D01*
X13078Y7057D01*
X13079D01*
X13078D02*
X13078Y7067D01*
X13076Y7077D01*
X13074Y7087D01*
X13072Y7097D01*
X13068Y7106D01*
X13064Y7115D01*
X13059Y7124D01*
X13053Y7132D01*
X13047Y7140D01*
X13040Y7147D01*
X13032Y7154D01*
X13024Y7160D01*
X13016Y7165D01*
X13007Y7170D01*
X12997Y7174D01*
X12988Y7177D01*
X12978Y7179D01*
X12968Y7181D01*
X12958Y7182D01*
X12948D01*
X12938Y7181D01*
X12928Y7179D01*
X12918Y7177D01*
X12909Y7174D01*
X12899Y7170D01*
X12890Y7165D01*
X12882Y7160D01*
X12874Y7154D01*
X12866Y7147D01*
X12859Y7140D01*
X12853Y7132D01*
X12847Y7124D01*
X12842Y7115D01*
X12838Y7106D01*
X12834Y7097D01*
X12832Y7087D01*
X12830Y7077D01*
X12828Y7067D01*
X12828Y7057D01*
X12876D02*
X12877D01*
X12876D02*
X12877Y7048D01*
X12878Y7039D01*
X12881Y7031D01*
X12884Y7022D01*
X12889Y7015D01*
X12894Y7008D01*
X12900Y7001D01*
X12907Y6995D01*
X12914Y6990D01*
X12923Y6986D01*
X12931Y6983D01*
X12940Y6981D01*
X12949Y6980D01*
X12957D01*
X12966Y6981D01*
X12975Y6983D01*
X12983Y6986D01*
X12992Y6990D01*
X12999Y6995D01*
X13006Y7001D01*
X13012Y7008D01*
X13017Y7015D01*
X13022Y7022D01*
X13025Y7031D01*
X13028Y7039D01*
X13029Y7048D01*
X13030Y7057D01*
X13031D01*
X13030D02*
X13029Y7066D01*
X13028Y7075D01*
X13025Y7083D01*
X13022Y7092D01*
X13017Y7099D01*
X13012Y7106D01*
X13006Y7113D01*
X12999Y7119D01*
X12992Y7124D01*
X12983Y7128D01*
X12975Y7131D01*
X12966Y7133D01*
X12957Y7134D01*
X12949D01*
X12940Y7133D01*
X12931Y7131D01*
X12923Y7128D01*
X12914Y7124D01*
X12907Y7119D01*
X12900Y7113D01*
X12894Y7106D01*
X12889Y7099D01*
X12884Y7092D01*
X12881Y7083D01*
X12878Y7075D01*
X12877Y7066D01*
X12876Y7057D01*
X12924D02*
X12925D01*
X12924D02*
X12925Y7051D01*
X12927Y7045D01*
X12930Y7040D01*
X12934Y7035D01*
X12938Y7032D01*
X12944Y7029D01*
X12950Y7028D01*
X12956D01*
X12962Y7029D01*
X12968Y7032D01*
X12972Y7035D01*
X12976Y7040D01*
X12979Y7045D01*
X12981Y7051D01*
X12982Y7057D01*
X12983D01*
X12982D02*
X12981Y7063D01*
X12979Y7069D01*
X12976Y7074D01*
X12972Y7079D01*
X12968Y7082D01*
X12962Y7085D01*
X12956Y7086D01*
X12950D01*
X12944Y7085D01*
X12938Y7082D01*
X12934Y7079D01*
X12930Y7074D01*
X12927Y7069D01*
X12925Y7063D01*
X12924Y7057D01*
X12953D02*
D03*
X11328D02*
X11329D01*
X11328D02*
X11328Y7047D01*
X11330Y7037D01*
X11332Y7027D01*
X11334Y7017D01*
X11338Y7008D01*
X11342Y6999D01*
X11347Y6990D01*
X11353Y6982D01*
X11359Y6974D01*
X11366Y6967D01*
X11374Y6960D01*
X11382Y6954D01*
X11390Y6949D01*
X11399Y6944D01*
X11409Y6940D01*
X11418Y6937D01*
X11428Y6935D01*
X11438Y6933D01*
X11448Y6932D01*
X11458D01*
X11468Y6933D01*
X11478Y6935D01*
X11488Y6937D01*
X11497Y6940D01*
X11507Y6944D01*
X11516Y6949D01*
X11524Y6954D01*
X11532Y6960D01*
X11540Y6967D01*
X11547Y6974D01*
X11553Y6982D01*
X11559Y6990D01*
X11564Y6999D01*
X11568Y7008D01*
X11572Y7017D01*
X11574Y7027D01*
X11576Y7037D01*
X11578Y7047D01*
X11578Y7057D01*
X11579D01*
X11578D02*
X11578Y7067D01*
X11576Y7077D01*
X11574Y7087D01*
X11572Y7097D01*
X11568Y7106D01*
X11564Y7115D01*
X11559Y7124D01*
X11553Y7132D01*
X11547Y7140D01*
X11540Y7147D01*
X11532Y7154D01*
X11524Y7160D01*
X11516Y7165D01*
X11507Y7170D01*
X11497Y7174D01*
X11488Y7177D01*
X11478Y7179D01*
X11468Y7181D01*
X11458Y7182D01*
X11448D01*
X11438Y7181D01*
X11428Y7179D01*
X11418Y7177D01*
X11409Y7174D01*
X11399Y7170D01*
X11390Y7165D01*
X11382Y7160D01*
X11374Y7154D01*
X11366Y7147D01*
X11359Y7140D01*
X11353Y7132D01*
X11347Y7124D01*
X11342Y7115D01*
X11338Y7106D01*
X11334Y7097D01*
X11332Y7087D01*
X11330Y7077D01*
X11328Y7067D01*
X11328Y7057D01*
X11376D02*
X11377D01*
X11376D02*
X11377Y7048D01*
X11378Y7039D01*
X11381Y7031D01*
X11384Y7022D01*
X11389Y7015D01*
X11394Y7008D01*
X11400Y7001D01*
X11407Y6995D01*
X11414Y6990D01*
X11423Y6986D01*
X11431Y6983D01*
X11440Y6981D01*
X11449Y6980D01*
X11457D01*
X11466Y6981D01*
X11475Y6983D01*
X11483Y6986D01*
X11492Y6990D01*
X11499Y6995D01*
X11506Y7001D01*
X11512Y7008D01*
X11517Y7015D01*
X11522Y7022D01*
X11525Y7031D01*
X11528Y7039D01*
X11529Y7048D01*
X11530Y7057D01*
X11531D01*
X11530D02*
X11529Y7066D01*
X11528Y7075D01*
X11525Y7083D01*
X11522Y7092D01*
X11517Y7099D01*
X11512Y7106D01*
X11506Y7113D01*
X11499Y7119D01*
X11492Y7124D01*
X11483Y7128D01*
X11475Y7131D01*
X11466Y7133D01*
X11457Y7134D01*
X11449D01*
X11440Y7133D01*
X11431Y7131D01*
X11423Y7128D01*
X11414Y7124D01*
X11407Y7119D01*
X11400Y7113D01*
X11394Y7106D01*
X11389Y7099D01*
X11384Y7092D01*
X11381Y7083D01*
X11378Y7075D01*
X11377Y7066D01*
X11376Y7057D01*
X11424D02*
X11425D01*
X11424D02*
X11425Y7051D01*
X11427Y7045D01*
X11430Y7040D01*
X11434Y7035D01*
X11438Y7032D01*
X11444Y7029D01*
X11450Y7028D01*
X11456D01*
X11462Y7029D01*
X11468Y7032D01*
X11472Y7035D01*
X11476Y7040D01*
X11479Y7045D01*
X11481Y7051D01*
X11482Y7057D01*
X11483D01*
X11482D02*
X11481Y7063D01*
X11479Y7069D01*
X11476Y7074D01*
X11472Y7079D01*
X11468Y7082D01*
X11462Y7085D01*
X11456Y7086D01*
X11450D01*
X11444Y7085D01*
X11438Y7082D01*
X11434Y7079D01*
X11430Y7074D01*
X11427Y7069D01*
X11425Y7063D01*
X11424Y7057D01*
X11453D02*
D03*
X11328Y5557D02*
X11329D01*
X11328D02*
X11328Y5547D01*
X11330Y5537D01*
X11332Y5527D01*
X11334Y5517D01*
X11338Y5508D01*
X11342Y5499D01*
X11347Y5490D01*
X11353Y5482D01*
X11359Y5474D01*
X11366Y5467D01*
X11374Y5460D01*
X11382Y5454D01*
X11390Y5449D01*
X11399Y5444D01*
X11409Y5440D01*
X11418Y5437D01*
X11428Y5435D01*
X11438Y5433D01*
X11448Y5432D01*
X11458D01*
X11468Y5433D01*
X11478Y5435D01*
X11488Y5437D01*
X11497Y5440D01*
X11507Y5444D01*
X11516Y5449D01*
X11524Y5454D01*
X11532Y5460D01*
X11540Y5467D01*
X11547Y5474D01*
X11553Y5482D01*
X11559Y5490D01*
X11564Y5499D01*
X11568Y5508D01*
X11572Y5517D01*
X11574Y5527D01*
X11576Y5537D01*
X11578Y5547D01*
X11578Y5557D01*
X11579D01*
X11578D02*
X11578Y5567D01*
X11576Y5577D01*
X11574Y5587D01*
X11572Y5597D01*
X11568Y5606D01*
X11564Y5615D01*
X11559Y5624D01*
X11553Y5632D01*
X11547Y5640D01*
X11540Y5647D01*
X11532Y5654D01*
X11524Y5660D01*
X11516Y5665D01*
X11507Y5670D01*
X11497Y5674D01*
X11488Y5677D01*
X11478Y5679D01*
X11468Y5681D01*
X11458Y5682D01*
X11448D01*
X11438Y5681D01*
X11428Y5679D01*
X11418Y5677D01*
X11409Y5674D01*
X11399Y5670D01*
X11390Y5665D01*
X11382Y5660D01*
X11374Y5654D01*
X11366Y5647D01*
X11359Y5640D01*
X11353Y5632D01*
X11347Y5624D01*
X11342Y5615D01*
X11338Y5606D01*
X11334Y5597D01*
X11332Y5587D01*
X11330Y5577D01*
X11328Y5567D01*
X11328Y5557D01*
X11376D02*
X11377D01*
X11376D02*
X11377Y5548D01*
X11378Y5539D01*
X11381Y5531D01*
X11384Y5522D01*
X11389Y5515D01*
X11394Y5508D01*
X11400Y5501D01*
X11407Y5495D01*
X11414Y5490D01*
X11423Y5486D01*
X11431Y5483D01*
X11440Y5481D01*
X11449Y5480D01*
X11457D01*
X11466Y5481D01*
X11475Y5483D01*
X11483Y5486D01*
X11492Y5490D01*
X11499Y5495D01*
X11506Y5501D01*
X11512Y5508D01*
X11517Y5515D01*
X11522Y5522D01*
X11525Y5531D01*
X11528Y5539D01*
X11529Y5548D01*
X11530Y5557D01*
X11531D01*
X11530D02*
X11529Y5566D01*
X11528Y5575D01*
X11525Y5583D01*
X11522Y5592D01*
X11517Y5599D01*
X11512Y5606D01*
X11506Y5613D01*
X11499Y5619D01*
X11492Y5624D01*
X11483Y5628D01*
X11475Y5631D01*
X11466Y5633D01*
X11457Y5634D01*
X11449D01*
X11440Y5633D01*
X11431Y5631D01*
X11423Y5628D01*
X11414Y5624D01*
X11407Y5619D01*
X11400Y5613D01*
X11394Y5606D01*
X11389Y5599D01*
X11384Y5592D01*
X11381Y5583D01*
X11378Y5575D01*
X11377Y5566D01*
X11376Y5557D01*
X11424D02*
X11425D01*
X11424D02*
X11425Y5551D01*
X11427Y5545D01*
X11430Y5540D01*
X11434Y5535D01*
X11438Y5532D01*
X11444Y5529D01*
X11450Y5528D01*
X11456D01*
X11462Y5529D01*
X11468Y5532D01*
X11472Y5535D01*
X11476Y5540D01*
X11479Y5545D01*
X11481Y5551D01*
X11482Y5557D01*
X11483D01*
X11482D02*
X11481Y5563D01*
X11479Y5569D01*
X11476Y5574D01*
X11472Y5579D01*
X11468Y5582D01*
X11462Y5585D01*
X11456Y5586D01*
X11450D01*
X11444Y5585D01*
X11438Y5582D01*
X11434Y5579D01*
X11430Y5574D01*
X11427Y5569D01*
X11425Y5563D01*
X11424Y5557D01*
X11453D02*
D03*
X12498Y6728D02*
X12499D01*
X12498D02*
X12498Y6718D01*
X12500Y6708D01*
X12502Y6698D01*
X12504Y6688D01*
X12508Y6679D01*
X12512Y6670D01*
X12517Y6661D01*
X12523Y6653D01*
X12529Y6645D01*
X12536Y6638D01*
X12544Y6631D01*
X12552Y6625D01*
X12560Y6620D01*
X12569Y6615D01*
X12579Y6611D01*
X12588Y6608D01*
X12598Y6606D01*
X12608Y6604D01*
X12618Y6603D01*
X12628D01*
X12638Y6604D01*
X12648Y6606D01*
X12658Y6608D01*
X12667Y6611D01*
X12677Y6615D01*
X12686Y6620D01*
X12694Y6625D01*
X12702Y6631D01*
X12710Y6638D01*
X12717Y6645D01*
X12723Y6653D01*
X12729Y6661D01*
X12734Y6670D01*
X12738Y6679D01*
X12742Y6688D01*
X12744Y6698D01*
X12746Y6708D01*
X12748Y6718D01*
X12748Y6728D01*
X12749D01*
X12748D02*
X12748Y6738D01*
X12746Y6748D01*
X12744Y6758D01*
X12742Y6768D01*
X12738Y6777D01*
X12734Y6786D01*
X12729Y6795D01*
X12723Y6803D01*
X12717Y6811D01*
X12710Y6818D01*
X12702Y6825D01*
X12694Y6831D01*
X12686Y6836D01*
X12677Y6841D01*
X12667Y6845D01*
X12658Y6848D01*
X12648Y6850D01*
X12638Y6852D01*
X12628Y6853D01*
X12618D01*
X12608Y6852D01*
X12598Y6850D01*
X12588Y6848D01*
X12579Y6845D01*
X12569Y6841D01*
X12560Y6836D01*
X12552Y6831D01*
X12544Y6825D01*
X12536Y6818D01*
X12529Y6811D01*
X12523Y6803D01*
X12517Y6795D01*
X12512Y6786D01*
X12508Y6777D01*
X12504Y6768D01*
X12502Y6758D01*
X12500Y6748D01*
X12498Y6738D01*
X12498Y6728D01*
X12546D02*
X12547D01*
X12546D02*
X12547Y6719D01*
X12548Y6710D01*
X12551Y6702D01*
X12554Y6693D01*
X12559Y6686D01*
X12564Y6679D01*
X12570Y6672D01*
X12577Y6666D01*
X12584Y6661D01*
X12593Y6657D01*
X12601Y6654D01*
X12610Y6652D01*
X12619Y6651D01*
X12627D01*
X12636Y6652D01*
X12645Y6654D01*
X12653Y6657D01*
X12662Y6661D01*
X12669Y6666D01*
X12676Y6672D01*
X12682Y6679D01*
X12687Y6686D01*
X12692Y6693D01*
X12695Y6702D01*
X12698Y6710D01*
X12699Y6719D01*
X12700Y6728D01*
X12701D01*
X12700D02*
X12699Y6737D01*
X12698Y6746D01*
X12695Y6754D01*
X12692Y6763D01*
X12687Y6770D01*
X12682Y6777D01*
X12676Y6784D01*
X12669Y6790D01*
X12662Y6795D01*
X12653Y6799D01*
X12645Y6802D01*
X12636Y6804D01*
X12627Y6805D01*
X12619D01*
X12610Y6804D01*
X12601Y6802D01*
X12593Y6799D01*
X12584Y6795D01*
X12577Y6790D01*
X12570Y6784D01*
X12564Y6777D01*
X12559Y6770D01*
X12554Y6763D01*
X12551Y6754D01*
X12548Y6746D01*
X12547Y6737D01*
X12546Y6728D01*
X12594D02*
X12595D01*
X12594D02*
X12595Y6722D01*
X12597Y6716D01*
X12600Y6711D01*
X12604Y6706D01*
X12608Y6703D01*
X12614Y6700D01*
X12620Y6699D01*
X12626D01*
X12632Y6700D01*
X12638Y6703D01*
X12642Y6706D01*
X12646Y6711D01*
X12649Y6716D01*
X12651Y6722D01*
X12652Y6728D01*
X12653D01*
X12652D02*
X12651Y6734D01*
X12649Y6740D01*
X12646Y6745D01*
X12642Y6750D01*
X12638Y6753D01*
X12632Y6756D01*
X12626Y6757D01*
X12620D01*
X12614Y6756D01*
X12608Y6753D01*
X12604Y6750D01*
X12600Y6745D01*
X12597Y6740D01*
X12595Y6734D01*
X12594Y6728D01*
X12623D02*
D03*
X11657Y5886D02*
X11658D01*
X11657D02*
X11657Y5876D01*
X11659Y5866D01*
X11661Y5856D01*
X11663Y5846D01*
X11667Y5837D01*
X11671Y5828D01*
X11676Y5819D01*
X11682Y5811D01*
X11688Y5803D01*
X11695Y5796D01*
X11703Y5789D01*
X11711Y5783D01*
X11720Y5778D01*
X11728Y5773D01*
X11738Y5769D01*
X11747Y5766D01*
X11757Y5764D01*
X11767Y5762D01*
X11777Y5761D01*
X11787D01*
X11797Y5762D01*
X11807Y5764D01*
X11817Y5766D01*
X11826Y5769D01*
X11836Y5773D01*
X11844Y5778D01*
X11853Y5783D01*
X11861Y5789D01*
X11869Y5796D01*
X11876Y5803D01*
X11882Y5811D01*
X11888Y5819D01*
X11893Y5828D01*
X11897Y5837D01*
X11901Y5846D01*
X11903Y5856D01*
X11905Y5866D01*
X11907Y5876D01*
X11907Y5886D01*
X11908D01*
X11907D02*
X11907Y5896D01*
X11905Y5906D01*
X11903Y5916D01*
X11901Y5926D01*
X11897Y5935D01*
X11893Y5944D01*
X11888Y5953D01*
X11882Y5961D01*
X11876Y5969D01*
X11869Y5976D01*
X11861Y5983D01*
X11853Y5989D01*
X11844Y5994D01*
X11836Y5999D01*
X11826Y6003D01*
X11817Y6006D01*
X11807Y6008D01*
X11797Y6010D01*
X11787Y6011D01*
X11777D01*
X11767Y6010D01*
X11757Y6008D01*
X11747Y6006D01*
X11738Y6003D01*
X11728Y5999D01*
X11720Y5994D01*
X11711Y5989D01*
X11703Y5983D01*
X11695Y5976D01*
X11688Y5969D01*
X11682Y5961D01*
X11676Y5953D01*
X11671Y5944D01*
X11667Y5935D01*
X11663Y5926D01*
X11661Y5916D01*
X11659Y5906D01*
X11657Y5896D01*
X11657Y5886D01*
X11705D02*
X11706D01*
X11705D02*
X11706Y5877D01*
X11707Y5868D01*
X11710Y5860D01*
X11713Y5851D01*
X11718Y5844D01*
X11723Y5837D01*
X11729Y5830D01*
X11736Y5824D01*
X11744Y5819D01*
X11752Y5815D01*
X11760Y5812D01*
X11769Y5810D01*
X11778Y5809D01*
X11786D01*
X11795Y5810D01*
X11804Y5812D01*
X11812Y5815D01*
X11820Y5819D01*
X11828Y5824D01*
X11835Y5830D01*
X11841Y5837D01*
X11846Y5844D01*
X11851Y5851D01*
X11854Y5860D01*
X11857Y5868D01*
X11858Y5877D01*
X11859Y5886D01*
X11860D01*
X11859D02*
X11858Y5895D01*
X11857Y5904D01*
X11854Y5912D01*
X11851Y5921D01*
X11846Y5928D01*
X11841Y5935D01*
X11835Y5942D01*
X11828Y5948D01*
X11820Y5953D01*
X11812Y5957D01*
X11804Y5960D01*
X11795Y5962D01*
X11786Y5963D01*
X11778D01*
X11769Y5962D01*
X11760Y5960D01*
X11752Y5957D01*
X11744Y5953D01*
X11736Y5948D01*
X11729Y5942D01*
X11723Y5935D01*
X11718Y5928D01*
X11713Y5921D01*
X11710Y5912D01*
X11707Y5904D01*
X11706Y5895D01*
X11705Y5886D01*
X11753D02*
X11754D01*
X11753D02*
X11754Y5880D01*
X11756Y5874D01*
X11759Y5869D01*
X11763Y5864D01*
X11768Y5861D01*
X11773Y5858D01*
X11779Y5857D01*
X11785D01*
X11791Y5858D01*
X11796Y5861D01*
X11801Y5864D01*
X11805Y5869D01*
X11808Y5874D01*
X11810Y5880D01*
X11811Y5886D01*
X11812D01*
X11811D02*
X11810Y5892D01*
X11808Y5898D01*
X11805Y5903D01*
X11801Y5908D01*
X11796Y5911D01*
X11791Y5914D01*
X11785Y5915D01*
X11779D01*
X11773Y5914D01*
X11768Y5911D01*
X11763Y5908D01*
X11759Y5903D01*
X11756Y5898D01*
X11754Y5892D01*
X11753Y5886D01*
X11782D02*
D03*
D22*
X13253Y9557D02*
D03*
Y9657D02*
D03*
X13303Y9607D02*
D03*
X12953Y8107D02*
D03*
X12903Y8057D02*
D03*
X12853Y8107D02*
D03*
X12278Y8557D02*
D03*
X12378D02*
D03*
X12328Y8507D02*
D03*
X11653Y8707D02*
D03*
X11603Y8657D02*
D03*
X11653Y8607D02*
D03*
X11403Y7507D02*
D03*
Y7407D02*
D03*
X11353Y7457D02*
D03*
X11603Y7507D02*
D03*
Y7407D02*
D03*
X11553Y7457D02*
D03*
X12403D02*
D03*
Y7357D02*
D03*
X12353Y7407D02*
D03*
X12603Y7457D02*
D03*
Y7357D02*
D03*
X12553Y7407D02*
D03*
X10053Y8057D02*
D03*
Y7957D02*
D03*
X10003Y8007D02*
D03*
X10403Y8057D02*
D03*
Y7957D02*
D03*
X10353Y8007D02*
D03*
X8503Y9657D02*
D03*
Y9757D02*
D03*
X8553Y9707D02*
D03*
X8703Y9657D02*
D03*
Y9757D02*
D03*
X8753Y9707D02*
D03*
X9703Y8057D02*
D03*
Y7957D02*
D03*
X9653Y8007D02*
D03*
X6803Y9507D02*
D03*
Y9607D02*
D03*
X6853Y9557D02*
D03*
X7203Y6157D02*
D03*
Y6257D02*
D03*
X7253Y6207D02*
D03*
X6603Y6482D02*
D03*
Y6582D02*
D03*
X6653Y6532D02*
D03*
X6753Y6482D02*
D03*
Y6582D02*
D03*
X6803Y6532D02*
D03*
X6903Y6482D02*
D03*
Y6582D02*
D03*
X6953Y6532D02*
D03*
X6553Y9507D02*
D03*
Y9607D02*
D03*
X6603Y9557D02*
D03*
X5103D02*
D03*
Y9657D02*
D03*
X5153Y9607D02*
D03*
Y6107D02*
D03*
Y6207D02*
D03*
X5203Y6157D02*
D03*
X5103Y6482D02*
D03*
Y6582D02*
D03*
X5153Y6532D02*
D03*
X5253Y6482D02*
D03*
Y6582D02*
D03*
X5303Y6532D02*
D03*
X5403Y6482D02*
D03*
Y6582D02*
D03*
X5453Y6532D02*
D03*
X5553Y6482D02*
D03*
Y6582D02*
D03*
X5603Y6532D02*
D03*
X5703Y6482D02*
D03*
Y6582D02*
D03*
X5753Y6532D02*
D03*
X5853Y6482D02*
D03*
Y6582D02*
D03*
X5903Y6532D02*
D03*
X6003Y6482D02*
D03*
Y6582D02*
D03*
X6053Y6532D02*
D03*
X6153Y6482D02*
D03*
Y6582D02*
D03*
X6203Y6532D02*
D03*
X6303Y6482D02*
D03*
Y6582D02*
D03*
X6353Y6532D02*
D03*
X6453Y6482D02*
D03*
Y6582D02*
D03*
X6503Y6532D02*
D03*
X4853Y9557D02*
D03*
Y9657D02*
D03*
X4903Y9607D02*
D03*
X4803Y6482D02*
D03*
Y6582D02*
D03*
X4853Y6532D02*
D03*
X4953Y6482D02*
D03*
Y6582D02*
D03*
X5003Y6532D02*
D03*
D25*
X13553Y10132D02*
D03*
X13428Y9932D02*
D03*
X13478Y10207D02*
D03*
X13353Y10007D02*
D03*
X13303Y8482D02*
D03*
X13003Y8532D02*
D03*
X12803Y9107D02*
D03*
X12828Y8757D02*
D03*
X12603Y9032D02*
D03*
X12403Y9107D02*
D03*
X11853D02*
D03*
X11903Y9532D02*
D03*
X11353Y10157D02*
D03*
X10903Y10207D02*
D03*
X10753Y8807D02*
D03*
X10653Y9732D02*
D03*
X10578Y7857D02*
D03*
X10378Y9107D02*
D03*
X10203Y10282D02*
D03*
X10303Y9407D02*
D03*
X10203Y7732D02*
D03*
X10103Y9407D02*
D03*
X10053Y8282D02*
D03*
X10153Y8557D02*
D03*
X10003Y8807D02*
D03*
Y8632D02*
D03*
X9853Y9607D02*
D03*
X9903Y9107D02*
D03*
X9953Y9532D02*
D03*
Y8557D02*
D03*
X9753Y10132D02*
D03*
Y8557D02*
D03*
X9703Y9882D02*
D03*
Y8807D02*
D03*
X9653Y8282D02*
D03*
X9603Y8557D02*
D03*
X9403Y9107D02*
D03*
X9253Y9257D02*
D03*
X9353Y8807D02*
D03*
X9153Y10232D02*
D03*
X9003Y8557D02*
D03*
X9153Y8332D02*
D03*
X9003Y7107D02*
D03*
X9153Y6832D02*
D03*
X9003Y7407D02*
D03*
X9153Y5707D02*
D03*
X9053Y5807D02*
D03*
X8828Y9107D02*
D03*
X8803Y8307D02*
D03*
X8903Y8557D02*
D03*
X8953Y8807D02*
D03*
X8903Y7007D02*
D03*
X8603Y9482D02*
D03*
X8778Y9857D02*
D03*
X8753Y7407D02*
D03*
X8603Y5632D02*
D03*
X8428Y8807D02*
D03*
X8403Y6732D02*
D03*
X8428Y7007D02*
D03*
X8503Y5582D02*
D03*
X8303Y9707D02*
D03*
X8203Y9107D02*
D03*
X8353Y8332D02*
D03*
Y6357D02*
D03*
X8253Y6832D02*
D03*
X8128Y9707D02*
D03*
X8153Y9182D02*
D03*
X8028Y9107D02*
D03*
Y7882D02*
D03*
X8103Y7407D02*
D03*
X7978Y9707D02*
D03*
X7828Y7707D02*
D03*
X7878Y7282D02*
D03*
X7828Y7357D02*
D03*
X7728Y9107D02*
D03*
X7653Y8557D02*
D03*
X7728D02*
D03*
Y7707D02*
D03*
Y7282D02*
D03*
X7678Y7357D02*
D03*
X7578Y7707D02*
D03*
X7428Y7132D02*
D03*
X7253Y8332D02*
D03*
X7328Y8557D02*
D03*
Y7382D02*
D03*
X7378Y6532D02*
D03*
X7278Y6357D02*
D03*
X7353Y6432D02*
D03*
X7403Y5932D02*
D03*
X7203Y9257D02*
D03*
Y10107D02*
D03*
X7178Y8257D02*
D03*
X7003Y10132D02*
D03*
X6753Y10182D02*
D03*
X6803Y9732D02*
D03*
X6653Y8557D02*
D03*
X6703Y7657D02*
D03*
X6803D02*
D03*
X6753Y6882D02*
D03*
X6553Y9107D02*
D03*
X6453Y9582D02*
D03*
X6503Y7657D02*
D03*
X6553Y6982D02*
D03*
X6453Y6857D02*
D03*
X6603Y6057D02*
D03*
X6253Y9557D02*
D03*
X6278Y8557D02*
D03*
X6353D02*
D03*
X6403Y7657D02*
D03*
X6353Y7007D02*
D03*
X6303Y6832D02*
D03*
X6053Y9432D02*
D03*
X6103Y9632D02*
D03*
X6203Y8307D02*
D03*
X6078Y8282D02*
D03*
X6203Y9032D02*
D03*
X6053Y8007D02*
D03*
X6153Y7732D02*
D03*
X5978Y8207D02*
D03*
X5953Y8632D02*
D03*
X5853Y8032D02*
D03*
X5953Y7382D02*
D03*
X5803Y9332D02*
D03*
X5828Y8557D02*
D03*
X5728Y8332D02*
D03*
X5778Y7507D02*
D03*
X5703Y6082D02*
D03*
X5753Y7032D02*
D03*
X5553Y7682D02*
D03*
X5578Y6132D02*
D03*
X5628Y6457D02*
D03*
X5353Y8557D02*
D03*
X5328Y6157D02*
D03*
X5103Y9457D02*
D03*
X5153Y8857D02*
D03*
X5253Y8632D02*
D03*
Y7657D02*
D03*
X5153D02*
D03*
X5253Y6007D02*
D03*
X4928Y9182D02*
D03*
Y7957D02*
D03*
X5053Y8557D02*
D03*
X4953Y6057D02*
D03*
X4853Y8007D02*
D03*
X13253Y9257D02*
D03*
Y8957D02*
D03*
X12953Y9607D02*
D03*
Y9807D02*
D03*
X13553D02*
D03*
Y9407D02*
D03*
X13453Y9657D02*
D03*
Y9557D02*
D03*
X13153Y9457D02*
D03*
Y9857D02*
D03*
X13053D02*
D03*
Y9457D02*
D03*
X13453Y8407D02*
D03*
Y8807D02*
D03*
X13853Y8957D02*
D03*
Y9257D02*
D03*
X13653Y8207D02*
D03*
X13353Y8307D02*
D03*
X13853D02*
D03*
X13453Y8957D02*
D03*
X13553D02*
D03*
X13653D02*
D03*
Y9257D02*
D03*
X13553D02*
D03*
X13453D02*
D03*
X13353D02*
D03*
X13253Y8407D02*
D03*
Y8807D02*
D03*
X13353Y8407D02*
D03*
Y8807D02*
D03*
X13553Y8407D02*
D03*
Y8807D02*
D03*
X11903Y9407D02*
D03*
Y9807D02*
D03*
X11653Y9257D02*
D03*
Y8957D02*
D03*
X12753Y10057D02*
D03*
X12853Y9957D02*
D03*
Y10057D02*
D03*
X12953Y9957D02*
D03*
Y10057D02*
D03*
X13053Y9957D02*
D03*
Y10057D02*
D03*
X13153Y9957D02*
D03*
Y10057D02*
D03*
X12853Y9857D02*
D03*
Y9457D02*
D03*
X12753D02*
D03*
Y9857D02*
D03*
X12653Y9457D02*
D03*
Y9857D02*
D03*
X12003Y9807D02*
D03*
Y9407D02*
D03*
X12103D02*
D03*
Y9807D02*
D03*
X12203Y9407D02*
D03*
Y9807D02*
D03*
X11803D02*
D03*
Y9407D02*
D03*
X11703Y9807D02*
D03*
Y9407D02*
D03*
X12403Y10057D02*
D03*
X12303Y9757D02*
D03*
Y10257D02*
D03*
X11453Y9807D02*
D03*
Y9407D02*
D03*
X11353Y9807D02*
D03*
Y9407D02*
D03*
X11553Y9807D02*
D03*
Y9407D02*
D03*
X12053Y8357D02*
D03*
Y8757D02*
D03*
X12153Y8557D02*
D03*
Y8957D02*
D03*
X12853Y7557D02*
D03*
Y7657D02*
D03*
X11453Y8107D02*
D03*
X11353D02*
D03*
X11653Y7857D02*
D03*
X11253D02*
D03*
X11653Y7957D02*
D03*
X11253D02*
D03*
X12303Y7557D02*
D03*
X12703D02*
D03*
X12303Y7657D02*
D03*
X12703D02*
D03*
X12303Y7757D02*
D03*
X12703D02*
D03*
X12303Y7857D02*
D03*
X12703D02*
D03*
X12103Y8057D02*
D03*
X11803D02*
D03*
Y7557D02*
D03*
X12103D02*
D03*
X11553Y8957D02*
D03*
Y9257D02*
D03*
X11853Y8957D02*
D03*
X11953D02*
D03*
X12053D02*
D03*
Y9257D02*
D03*
X11953D02*
D03*
X11853D02*
D03*
X11753D02*
D03*
X12253Y8957D02*
D03*
Y9257D02*
D03*
X12303Y7957D02*
D03*
X12703D02*
D03*
X12503Y8957D02*
D03*
X12603D02*
D03*
X12703D02*
D03*
X12803D02*
D03*
X12903D02*
D03*
X13003D02*
D03*
Y9257D02*
D03*
X12903D02*
D03*
X12803D02*
D03*
X12703D02*
D03*
X12603D02*
D03*
X12503D02*
D03*
X12403D02*
D03*
X12603Y8807D02*
D03*
Y8407D02*
D03*
X12503D02*
D03*
Y8807D02*
D03*
X11803D02*
D03*
Y8307D02*
D03*
Y7857D02*
D03*
Y7757D02*
D03*
Y7657D02*
D03*
X12103D02*
D03*
Y7757D02*
D03*
Y7857D02*
D03*
Y7957D02*
D03*
X11353Y8407D02*
D03*
Y8807D02*
D03*
X12303Y8157D02*
D03*
X12703D02*
D03*
X12303Y8057D02*
D03*
X12703D02*
D03*
X10453Y9257D02*
D03*
Y8957D02*
D03*
X11053Y9257D02*
D03*
Y8957D02*
D03*
X9953Y9807D02*
D03*
Y10207D02*
D03*
X10153Y10057D02*
D03*
X10053Y9757D02*
D03*
Y10257D02*
D03*
X10253Y9807D02*
D03*
Y10207D02*
D03*
X10353Y9807D02*
D03*
Y10207D02*
D03*
X10553Y10057D02*
D03*
X10453Y9757D02*
D03*
Y10257D02*
D03*
X10653Y9807D02*
D03*
Y10207D02*
D03*
X11253Y9807D02*
D03*
Y9407D02*
D03*
Y7657D02*
D03*
X11653D02*
D03*
X11253Y7757D02*
D03*
X11653D02*
D03*
X10303Y8957D02*
D03*
Y9257D02*
D03*
X10953Y8957D02*
D03*
Y9257D02*
D03*
X11253Y8957D02*
D03*
X11353D02*
D03*
X11453D02*
D03*
Y9257D02*
D03*
X11353D02*
D03*
X11253D02*
D03*
X11153D02*
D03*
X10403Y8707D02*
D03*
Y8407D02*
D03*
X10653Y8957D02*
D03*
X10753D02*
D03*
X10853D02*
D03*
Y9257D02*
D03*
X10753D02*
D03*
X10653D02*
D03*
X10553D02*
D03*
X11153Y8407D02*
D03*
Y8807D02*
D03*
X11053Y8407D02*
D03*
Y8807D02*
D03*
X11253Y8657D02*
D03*
Y8557D02*
D03*
X9903Y7807D02*
D03*
Y8207D02*
D03*
X9803Y7807D02*
D03*
Y8207D02*
D03*
X10253Y7807D02*
D03*
Y8207D02*
D03*
X10153Y7807D02*
D03*
Y8207D02*
D03*
X9903Y7107D02*
D03*
X10203D02*
D03*
X10253Y6557D02*
D03*
X10153D02*
D03*
X9803D02*
D03*
X9703D02*
D03*
X10953Y7107D02*
D03*
X10653D02*
D03*
X9253Y9807D02*
D03*
Y9407D02*
D03*
X8853Y9807D02*
D03*
Y9407D02*
D03*
X8953D02*
D03*
Y9807D02*
D03*
X9053Y9407D02*
D03*
Y9807D02*
D03*
X9153D02*
D03*
Y9407D02*
D03*
X9353Y9807D02*
D03*
Y9407D02*
D03*
X9453Y9807D02*
D03*
Y9407D02*
D03*
X9553D02*
D03*
Y9807D02*
D03*
X9653D02*
D03*
Y9407D02*
D03*
X9353Y9257D02*
D03*
Y8957D02*
D03*
X8553Y9257D02*
D03*
Y8957D02*
D03*
X8253Y9457D02*
D03*
Y9857D02*
D03*
X8353Y9457D02*
D03*
Y9857D02*
D03*
X8953Y10057D02*
D03*
X9053Y9957D02*
D03*
Y10057D02*
D03*
X9153Y9957D02*
D03*
Y10057D02*
D03*
X9253Y9957D02*
D03*
Y10057D02*
D03*
X9353Y9957D02*
D03*
Y10057D02*
D03*
X9453Y9957D02*
D03*
Y10057D02*
D03*
X9553Y9957D02*
D03*
Y10057D02*
D03*
X9653Y9957D02*
D03*
Y10057D02*
D03*
X8603Y7807D02*
D03*
X8703D02*
D03*
X8803D02*
D03*
X8903D02*
D03*
X9003D02*
D03*
X9103D02*
D03*
Y8107D02*
D03*
X9003D02*
D03*
X8903D02*
D03*
X8803D02*
D03*
X8703D02*
D03*
X8603D02*
D03*
X8503D02*
D03*
X9153Y8957D02*
D03*
Y9257D02*
D03*
X9303Y8707D02*
D03*
Y8407D02*
D03*
Y8107D02*
D03*
Y7807D02*
D03*
X8603Y8407D02*
D03*
X8703D02*
D03*
X8803D02*
D03*
X8903D02*
D03*
X9003D02*
D03*
X9103D02*
D03*
Y8707D02*
D03*
X9003D02*
D03*
X8903D02*
D03*
X8803D02*
D03*
X8703D02*
D03*
X8603D02*
D03*
X8503D02*
D03*
X8803Y8957D02*
D03*
X8903D02*
D03*
X9003D02*
D03*
Y9257D02*
D03*
X8903D02*
D03*
X8803D02*
D03*
X8703D02*
D03*
X9603Y8407D02*
D03*
X9703D02*
D03*
X9803D02*
D03*
X9903D02*
D03*
X10003D02*
D03*
X10103D02*
D03*
X10203D02*
D03*
Y8707D02*
D03*
X10103D02*
D03*
X10003D02*
D03*
X9903D02*
D03*
X9803D02*
D03*
X9703D02*
D03*
X9603D02*
D03*
X9503D02*
D03*
X9603Y8957D02*
D03*
X9703D02*
D03*
X9803D02*
D03*
X9903D02*
D03*
X10003D02*
D03*
X10103D02*
D03*
X10203D02*
D03*
Y9257D02*
D03*
X10103D02*
D03*
X10003D02*
D03*
X9903D02*
D03*
X9803D02*
D03*
X9703D02*
D03*
X9603D02*
D03*
X9503D02*
D03*
X9453Y7807D02*
D03*
Y8207D02*
D03*
X9553Y7807D02*
D03*
Y8207D02*
D03*
X8253Y8107D02*
D03*
Y7807D02*
D03*
Y8707D02*
D03*
Y8407D02*
D03*
Y8957D02*
D03*
Y9257D02*
D03*
X8503Y5957D02*
D03*
Y6357D02*
D03*
X8603Y5957D02*
D03*
Y6357D02*
D03*
X8703D02*
D03*
Y5957D02*
D03*
X9103Y6357D02*
D03*
Y5957D02*
D03*
X9203D02*
D03*
Y6357D02*
D03*
X9303Y5957D02*
D03*
Y6357D02*
D03*
X8603Y7207D02*
D03*
X8703D02*
D03*
X8803D02*
D03*
X8903D02*
D03*
X9003D02*
D03*
X9103D02*
D03*
Y7507D02*
D03*
X9003D02*
D03*
X8903D02*
D03*
X8803D02*
D03*
X8703D02*
D03*
X8603D02*
D03*
X8503D02*
D03*
X9303D02*
D03*
Y7207D02*
D03*
Y6907D02*
D03*
Y6607D02*
D03*
X9503Y6557D02*
D03*
X9603D02*
D03*
X8603Y6607D02*
D03*
X8703D02*
D03*
X8803D02*
D03*
X8903D02*
D03*
X9003D02*
D03*
X9103D02*
D03*
Y6907D02*
D03*
X9003D02*
D03*
X8903D02*
D03*
X8803D02*
D03*
X8703D02*
D03*
X8603D02*
D03*
X8503D02*
D03*
X8253Y7507D02*
D03*
Y7207D02*
D03*
Y6907D02*
D03*
Y6607D02*
D03*
X8903Y6057D02*
D03*
Y6257D02*
D03*
X8803Y5957D02*
D03*
Y6357D02*
D03*
X9003Y5957D02*
D03*
Y6357D02*
D03*
X8903Y5757D02*
D03*
X8803Y5857D02*
D03*
Y5757D02*
D03*
X8703Y5857D02*
D03*
Y5757D02*
D03*
X8603Y5857D02*
D03*
Y5757D02*
D03*
X8503Y5857D02*
D03*
Y5757D02*
D03*
X8403Y5857D02*
D03*
Y5757D02*
D03*
X8303Y5857D02*
D03*
Y5757D02*
D03*
X8203Y5857D02*
D03*
Y5757D02*
D03*
X8103Y5857D02*
D03*
Y5757D02*
D03*
X8003Y5857D02*
D03*
Y5757D02*
D03*
X7903Y5857D02*
D03*
Y5757D02*
D03*
X7803Y5857D02*
D03*
Y5757D02*
D03*
X7703Y5857D02*
D03*
Y5757D02*
D03*
X7453Y9857D02*
D03*
Y9457D02*
D03*
X7853Y9857D02*
D03*
Y9457D02*
D03*
X7553D02*
D03*
Y9857D02*
D03*
X7653Y9457D02*
D03*
Y9857D02*
D03*
X7953Y9457D02*
D03*
Y9857D02*
D03*
X8053Y9457D02*
D03*
Y9857D02*
D03*
X7353Y9457D02*
D03*
Y9857D02*
D03*
X7253Y9457D02*
D03*
Y9857D02*
D03*
X7153Y9457D02*
D03*
Y9857D02*
D03*
X7053Y9457D02*
D03*
Y9857D02*
D03*
X7753Y9457D02*
D03*
Y9857D02*
D03*
X8153Y9457D02*
D03*
Y9857D02*
D03*
X6953Y9457D02*
D03*
Y9857D02*
D03*
X6703Y9457D02*
D03*
Y9857D02*
D03*
X7103Y9257D02*
D03*
Y8957D02*
D03*
X7453Y10057D02*
D03*
X7553Y9957D02*
D03*
Y10057D02*
D03*
X7653Y9957D02*
D03*
Y10057D02*
D03*
X7753Y9957D02*
D03*
Y10057D02*
D03*
X7853Y9957D02*
D03*
Y10057D02*
D03*
X7953Y9957D02*
D03*
Y10057D02*
D03*
X8053Y9957D02*
D03*
Y10057D02*
D03*
X8153Y9957D02*
D03*
Y10057D02*
D03*
X7103Y8707D02*
D03*
Y8407D02*
D03*
Y8107D02*
D03*
Y7807D02*
D03*
X7528D02*
D03*
X7628D02*
D03*
X7728D02*
D03*
X7828D02*
D03*
X7928D02*
D03*
X8028D02*
D03*
Y8107D02*
D03*
X7928D02*
D03*
X7828D02*
D03*
X7728D02*
D03*
X7628D02*
D03*
X7528D02*
D03*
X7428D02*
D03*
Y8957D02*
D03*
X7528D02*
D03*
X7628D02*
D03*
X7728D02*
D03*
X7828D02*
D03*
X7928D02*
D03*
X8028D02*
D03*
Y9257D02*
D03*
X7928D02*
D03*
X7828D02*
D03*
X7728D02*
D03*
X7628D02*
D03*
X7528D02*
D03*
X7428D02*
D03*
X7328D02*
D03*
X7003Y8957D02*
D03*
Y9257D02*
D03*
X7453Y8407D02*
D03*
X7553D02*
D03*
X7653D02*
D03*
X7753D02*
D03*
X7853D02*
D03*
X7953D02*
D03*
Y8707D02*
D03*
X7853D02*
D03*
X7753D02*
D03*
X7653D02*
D03*
X7553D02*
D03*
X7453D02*
D03*
X7353D02*
D03*
X7153Y6032D02*
D03*
Y5632D02*
D03*
X7103Y7507D02*
D03*
Y7207D02*
D03*
Y6907D02*
D03*
Y6607D02*
D03*
X7528D02*
D03*
X7628D02*
D03*
X7728D02*
D03*
X7828D02*
D03*
X7928D02*
D03*
X8028D02*
D03*
Y6907D02*
D03*
X7928D02*
D03*
X7828D02*
D03*
X7728D02*
D03*
X7628D02*
D03*
X7528D02*
D03*
X7428D02*
D03*
X7528Y7207D02*
D03*
X7628D02*
D03*
X7728D02*
D03*
X7828D02*
D03*
X7928D02*
D03*
X8028D02*
D03*
Y7507D02*
D03*
X7928D02*
D03*
X7828D02*
D03*
X7728D02*
D03*
X7628D02*
D03*
X7528D02*
D03*
X7428D02*
D03*
X6853Y7107D02*
D03*
Y6707D02*
D03*
X6753Y7107D02*
D03*
Y6707D02*
D03*
X6653Y7107D02*
D03*
Y6707D02*
D03*
X6903Y6057D02*
D03*
X6503D02*
D03*
X6903Y6157D02*
D03*
X6503D02*
D03*
X6903Y6257D02*
D03*
X6503D02*
D03*
X7253Y5632D02*
D03*
Y6032D02*
D03*
X6903Y5557D02*
D03*
X6503D02*
D03*
X6903Y5657D02*
D03*
X6503D02*
D03*
X6903Y5757D02*
D03*
X6503D02*
D03*
X6903Y5857D02*
D03*
X6503D02*
D03*
X6903Y5957D02*
D03*
X6503D02*
D03*
X5553Y9807D02*
D03*
Y9407D02*
D03*
X5753Y9807D02*
D03*
Y9407D02*
D03*
X5653Y9507D02*
D03*
Y9707D02*
D03*
X5453Y9407D02*
D03*
Y9807D02*
D03*
X5353Y9407D02*
D03*
Y9807D02*
D03*
X5853Y9407D02*
D03*
Y9807D02*
D03*
X5953Y9407D02*
D03*
Y9807D02*
D03*
X5253Y9407D02*
D03*
Y9807D02*
D03*
X5903Y9257D02*
D03*
Y8957D02*
D03*
X6453Y9457D02*
D03*
Y9857D02*
D03*
X6353Y9457D02*
D03*
Y9857D02*
D03*
X6253Y9457D02*
D03*
Y9857D02*
D03*
X6153Y9457D02*
D03*
Y9857D02*
D03*
X5553Y10057D02*
D03*
X5653Y9957D02*
D03*
Y10057D02*
D03*
X5753Y9957D02*
D03*
Y10057D02*
D03*
X5853Y9957D02*
D03*
Y10057D02*
D03*
X5953Y9957D02*
D03*
Y10057D02*
D03*
X6053Y9957D02*
D03*
Y10057D02*
D03*
X6153Y9957D02*
D03*
Y10057D02*
D03*
X6253Y9957D02*
D03*
Y10057D02*
D03*
X6353Y9957D02*
D03*
Y10057D02*
D03*
X6453Y9957D02*
D03*
Y10057D02*
D03*
X5903Y8707D02*
D03*
Y8407D02*
D03*
Y8107D02*
D03*
Y7807D02*
D03*
X6253Y8407D02*
D03*
X6353D02*
D03*
X6453D02*
D03*
X6553D02*
D03*
X6653D02*
D03*
X6753D02*
D03*
X6853D02*
D03*
Y8707D02*
D03*
X6753D02*
D03*
X6653D02*
D03*
X6553D02*
D03*
X6453D02*
D03*
X6353D02*
D03*
X6253D02*
D03*
X6153D02*
D03*
X6253Y8957D02*
D03*
X6353D02*
D03*
X6453D02*
D03*
X6553D02*
D03*
X6653D02*
D03*
X6753D02*
D03*
X6853D02*
D03*
Y9257D02*
D03*
X6753D02*
D03*
X6653D02*
D03*
X6553D02*
D03*
X6453D02*
D03*
X6353D02*
D03*
X6253D02*
D03*
X6153D02*
D03*
X6253Y7807D02*
D03*
X6353D02*
D03*
X6453D02*
D03*
X6553D02*
D03*
X6653D02*
D03*
X6753D02*
D03*
X6853D02*
D03*
Y8107D02*
D03*
X6753D02*
D03*
X6653D02*
D03*
X6553D02*
D03*
X6453D02*
D03*
X6353D02*
D03*
X6253D02*
D03*
X6153D02*
D03*
X5453Y6357D02*
D03*
Y5957D02*
D03*
X5553Y6357D02*
D03*
Y5957D02*
D03*
X5753Y6357D02*
D03*
Y5957D02*
D03*
X5853Y6357D02*
D03*
Y5957D02*
D03*
X5953Y6357D02*
D03*
Y5957D02*
D03*
X6153Y6357D02*
D03*
Y5957D02*
D03*
X5903Y7507D02*
D03*
Y7207D02*
D03*
X6253D02*
D03*
X6353D02*
D03*
X6453D02*
D03*
X6553D02*
D03*
X6653D02*
D03*
X6753D02*
D03*
X6853D02*
D03*
Y7507D02*
D03*
X6753D02*
D03*
X6653D02*
D03*
X6553D02*
D03*
X6453D02*
D03*
X6353D02*
D03*
X6253D02*
D03*
X6153D02*
D03*
X5103Y7107D02*
D03*
Y6707D02*
D03*
X5203Y7107D02*
D03*
Y6707D02*
D03*
X5303Y7107D02*
D03*
Y6707D02*
D03*
X5503Y7107D02*
D03*
Y6707D02*
D03*
X5603Y7107D02*
D03*
Y6707D02*
D03*
X5703Y7107D02*
D03*
Y6707D02*
D03*
X6553Y7107D02*
D03*
Y6707D02*
D03*
X6453Y7107D02*
D03*
Y6707D02*
D03*
X6253Y7107D02*
D03*
Y6707D02*
D03*
X6153Y7107D02*
D03*
Y6707D02*
D03*
X6053Y6357D02*
D03*
Y5957D02*
D03*
X5653Y6357D02*
D03*
Y5957D02*
D03*
X5403Y7107D02*
D03*
Y6707D02*
D03*
X6353Y7107D02*
D03*
Y6707D02*
D03*
X6153Y5757D02*
D03*
X6053Y5857D02*
D03*
Y5757D02*
D03*
X5953Y5857D02*
D03*
Y5757D02*
D03*
X5853Y5857D02*
D03*
Y5757D02*
D03*
X5753Y5857D02*
D03*
Y5757D02*
D03*
X5653Y5857D02*
D03*
Y5757D02*
D03*
X5553Y5857D02*
D03*
Y5757D02*
D03*
X5453Y5857D02*
D03*
Y5757D02*
D03*
X5353Y5857D02*
D03*
Y5757D02*
D03*
X5253Y5857D02*
D03*
Y5757D02*
D03*
X4703Y9257D02*
D03*
Y8957D02*
D03*
X5003Y9407D02*
D03*
Y9807D02*
D03*
X4703Y8707D02*
D03*
Y8407D02*
D03*
Y8107D02*
D03*
Y7807D02*
D03*
X5103D02*
D03*
X5203D02*
D03*
X5303D02*
D03*
X5403D02*
D03*
X5503D02*
D03*
X5603D02*
D03*
X5703D02*
D03*
Y8107D02*
D03*
X5603D02*
D03*
X5503D02*
D03*
X5403D02*
D03*
X5303D02*
D03*
X5203D02*
D03*
X5103D02*
D03*
X5003D02*
D03*
X5103Y8957D02*
D03*
X5203D02*
D03*
X5303D02*
D03*
X5403D02*
D03*
X5503D02*
D03*
X5603D02*
D03*
Y9257D02*
D03*
X5503D02*
D03*
X5403D02*
D03*
X5303D02*
D03*
X5203D02*
D03*
X5103D02*
D03*
X5003D02*
D03*
X5103Y8407D02*
D03*
X5203D02*
D03*
X5303D02*
D03*
X5403D02*
D03*
X5503D02*
D03*
X5603D02*
D03*
Y8707D02*
D03*
X5503D02*
D03*
X5403D02*
D03*
X5303D02*
D03*
X5203D02*
D03*
X5103D02*
D03*
X5003D02*
D03*
X4703Y7507D02*
D03*
Y7207D02*
D03*
X5103D02*
D03*
X5203D02*
D03*
X5303D02*
D03*
X5403D02*
D03*
X5503D02*
D03*
X5603D02*
D03*
X5703D02*
D03*
Y7507D02*
D03*
X5603D02*
D03*
X5503D02*
D03*
X5403D02*
D03*
X5303D02*
D03*
X5203D02*
D03*
X5103D02*
D03*
X5003D02*
D03*
Y7107D02*
D03*
Y6707D02*
D03*
D28*
X10953Y6207D02*
D03*
Y6607D02*
D03*
X10803D02*
D03*
Y6207D02*
D03*
X10653Y6607D02*
D03*
Y6207D02*
D03*
X11103D02*
D03*
Y6607D02*
D03*
D32*
X13453Y7851D02*
D03*
Y7695D02*
D03*
Y7539D02*
D03*
Y8007D02*
D03*
Y7051D02*
D03*
Y6895D02*
D03*
Y6739D02*
D03*
Y7207D02*
D03*
Y6251D02*
D03*
Y6095D02*
D03*
Y5939D02*
D03*
Y6407D02*
D03*
X12001Y6410D02*
D03*
X12305Y6106D02*
D03*
X10847Y5957D02*
D03*
X10691D02*
D03*
X11003D02*
D03*
D36*
X10253Y5607D02*
D03*
X9603D02*
D03*
D38*
X13353Y8957D02*
D03*
X12753Y9957D02*
D03*
X11753Y8957D02*
D03*
X12403D02*
D03*
X11803Y7957D02*
D03*
X11153Y8957D02*
D03*
X10553D02*
D03*
X8953Y9957D02*
D03*
X8503Y7807D02*
D03*
Y8407D02*
D03*
X8703Y8957D02*
D03*
X9503Y8407D02*
D03*
Y8957D02*
D03*
X8503Y7207D02*
D03*
Y6607D02*
D03*
X8903Y5857D02*
D03*
X7453Y9957D02*
D03*
X7428Y7807D02*
D03*
X7328Y8957D02*
D03*
X7353Y8407D02*
D03*
X7428Y6607D02*
D03*
Y7207D02*
D03*
X5553Y9957D02*
D03*
X6153Y8407D02*
D03*
Y8957D02*
D03*
Y7807D02*
D03*
Y7207D02*
D03*
Y5857D02*
D03*
X5003Y7807D02*
D03*
Y8957D02*
D03*
Y8407D02*
D03*
Y7207D02*
D03*
D40*
X10153Y6307D02*
D03*
X10353D02*
D03*
X10253D02*
D03*
X9703D02*
D03*
X9603D02*
D03*
X9503D02*
D03*
M02*
