M48
;DRILL file {KiCad (5.0.1)-3} date 11/5/2018 11:48:03 AM
;FORMAT={-:-/ absolute / metric / decimal}
FMAT,2
METRIC,TZ
T1C0.508
T2C0.711
T3C0.813
T4C0.914
T5C1.270
T6C1.524
T7C2.413
T8C3.556
%
G90
G05
M71
T1
X91.44Y-230.505
X97.155Y-252.095
X99.06Y-228.6
X99.517Y-142.24
X99.695Y-177.8
X100.33Y-134.62
X100.33Y-175.26
X100.33Y-184.15
X100.33Y-204.47
X101.6Y-85.09
X101.6Y-146.05
X101.6Y-166.37
X101.6Y-196.85
X101.6Y-207.01
X101.6Y-216.535
X101.6Y-240.03
X108.407Y-199.39
X109.042Y-129.54
X109.042Y-134.62
X109.22Y-204.47
X109.22Y-209.55
X109.703Y-147.955
X109.703Y-193.675
X109.703Y-196.215
X109.855Y-128.27
X109.855Y-211.455
X110.49Y-138.43
X115.57Y-87.63
X116.84Y-93.345
X116.84Y-240.03
X118.745Y-128.27
X119.38Y-125.73
X120.015Y-84.277
X120.015Y-217.17
X121.285Y-76.935
X121.285Y-240.665
X121.285Y-253.365
X121.92Y-186.69
X121.92Y-195.58
X122.377Y-226.06
X122.555Y-85.09
X123.368Y-143.51
X123.825Y-115.57
X123.825Y-142.24
X124.282Y-182.88
X124.46Y-144.78
X124.46Y-163.83
X124.46Y-180.975
X124.46Y-231.775
X124.638Y-124.46
X124.917Y-184.15
X125.73Y-82.093
X127.Y-143.51
X129.54Y-110.49
X130.175Y-217.17
X131.445Y-102.87
X134.62Y-89.535
X134.899Y-122.898
X135.89Y-81.458
X136.347Y-86.36
X136.677Y-128.27
X136.677Y-151.13
X136.703Y-95.431
X136.83Y-162.56
X136.83Y-165.1
X137.16Y-80.645
X137.16Y-133.35
X137.49Y-153.035
X137.795Y-78.74
X137.795Y-113.03
X137.795Y-114.3
X137.795Y-121.92
X137.795Y-132.08
X140.335Y-180.34
X142.449Y-177.8
X144.602Y-189.23
X144.78Y-93.345
X146.05Y-119.38
X146.228Y-236.855
X146.685Y-109.22
X146.685Y-128.27
X146.685Y-147.32
X146.685Y-247.015
X147.32Y-105.41
X148.133Y-85.725
X149.86Y-83.82
X149.86Y-119.38
X149.86Y-133.35
X151.13Y-81.28
X151.587Y-115.57
X151.587Y-192.405
X151.765Y-135.89
X153.035Y-231.14
X153.035Y-246.38
X153.213Y-120.65
X154.762Y-200.025
X154.94Y-181.61
X154.94Y-205.105
X154.94Y-219.71
X155.575Y-184.15
X161.29Y-189.23
X162.382Y-147.32
X162.382Y-166.424
X162.56Y-196.85
X162.56Y-205.74
X162.56Y-231.14
X162.56Y-240.03
X162.738Y-198.12
X162.738Y-204.47
X163.017Y-186.795
X163.195Y-146.05
X163.373Y-181.698
X163.579Y-193.108
X168.275Y-168.91
X168.275Y-208.915
X170.18Y-240.03
X172.085Y-125.73
X172.085Y-173.99
X172.085Y-209.55
X173.177Y-123.19
X173.355Y-107.95
X173.99Y-101.6
X173.99Y-222.25
X174.625Y-115.57
X175.095Y-194.552
X175.895Y-167.005
X176.53Y-184.15
X176.987Y-235.128
X177.038Y-219.202
X177.165Y-196.85
X177.8Y-102.87
X177.8Y-140.97
X177.8Y-163.83
X177.8Y-226.06
X177.8Y-255.27
X178.613Y-227.33
X179.07Y-192.913
X180.34Y-87.63
X180.34Y-103.505
X180.594Y-201.803
X180.873Y-143.51
X180.975Y-248.564
X181.508Y-153.035
X181.788Y-198.974
X181.991Y-215.646
X182.245Y-236.22
X182.245Y-247.015
X182.245Y-251.282
X182.88Y-98.425
X182.88Y-120.65
X182.88Y-227.33
X184.785Y-154.305
X186.69Y-254.
X187.325Y-86.36
X189.23Y-107.315
X189.763Y-217.17
X189.865Y-135.255
X189.865Y-147.32
X189.865Y-224.79
X190.188Y-204.564
X190.5Y-133.985
X190.5Y-137.16
X190.5Y-146.05
X190.5Y-149.86
X190.5Y-157.48
X190.5Y-172.72
X190.5Y-199.39
X191.135Y-178.435
X191.262Y-181.61
X191.44Y-186.733
X191.516Y-195.58
X192.405Y-111.76
X194.31Y-86.36
X199.288Y-146.507
X199.39Y-219.71
X199.39Y-261.798
X199.492Y-197.383
X200.482Y-241.3
X200.659Y-213.36
X200.659Y-214.63
X200.66Y-127.
X200.66Y-135.89
X200.66Y-189.357
X200.66Y-236.22
X200.762Y-147.32
X200.762Y-171.45
X201.117Y-268.605
X201.752Y-191.77
X201.908Y-227.231
X201.93Y-128.27
X201.93Y-139.7
X201.93Y-198.12
X201.93Y-207.01
X201.93Y-274.32
X202.565Y-91.44
X202.565Y-260.35
X202.717Y-190.5
X203.2Y-278.13
X203.524Y-214.127
X203.835Y-102.87
X203.835Y-203.2
X204.135Y-111.76
X204.47Y-200.66
X204.47Y-245.11
X205.105Y-163.83
X205.74Y-129.54
X205.74Y-175.26
X206.121Y-153.035
X206.248Y-135.636
X207.065Y-85.319
X207.645Y-196.215
X207.661Y-93.447
X208.178Y-217.17
X208.28Y-218.44
X208.28Y-234.95
X208.28Y-247.015
X209.55Y-270.51
X210.185Y-132.182
X210.185Y-186.69
X210.82Y-259.715
X213.36Y-229.87
X213.995Y-123.19
X213.995Y-146.05
X214.63Y-260.985
X214.884Y-138.557
X214.96Y-189.858
X214.96Y-216.484
X214.96Y-213.955
X214.96Y-205.697
X215.163Y-245.11
X215.265Y-120.65
X215.558Y-176.249
X215.621Y-150.844
X215.621Y-156.477
X215.798Y-178.435
X215.798Y-188.057
X215.9Y-131.978
X215.9Y-170.18
X215.9Y-235.585
X216.142Y-94.082
X216.535Y-113.665
X216.535Y-174.625
X216.535Y-191.135
X216.558Y-213.354
X216.586Y-205.74
X217.17Y-260.248
X217.475Y-232.715
X217.83Y-204.47
X221.615Y-182.88
X221.615Y-187.96
X222.25Y-100.33
X222.25Y-233.045
X223.317Y-185.217
X223.52Y-193.04
X224.104Y-220.312
X225.425Y-153.67
X225.425Y-200.66
X225.425Y-241.3
X225.958Y-119.38
X225.958Y-167.64
X225.958Y-196.85
X226.695Y-124.46
X226.695Y-132.08
X227.33Y-101.422
X227.33Y-152.4
X227.33Y-186.69
X227.33Y-269.24
X227.432Y-116.84
X227.446Y-111.862
X227.863Y-165.1
X227.965Y-114.3
X227.965Y-118.11
X228.079Y-184.119
X228.498Y-162.56
X228.6Y-240.665
X228.6Y-189.865
X228.702Y-222.12
X228.702Y-238.125
X229.235Y-116.84
X229.238Y-261.112
X229.768Y-170.18
X229.87Y-94.615
X229.87Y-267.97
X229.921Y-217.163
X230.403Y-198.12
X230.505Y-148.59
X230.505Y-163.83
X230.505Y-180.34
X230.505Y-200.66
X230.861Y-226.06
X231.14Y-123.19
X231.14Y-213.36
X231.14Y-239.395
X231.14Y-253.365
X231.775Y-166.37
X231.775Y-218.44
X232.41Y-266.598
X233.68Y-92.71
X233.68Y-235.585
X235.574Y-261.112
X235.585Y-208.28
X235.585Y-210.82
X235.585Y-234.95
X236.55Y-83.922
X236.855Y-77.47
X236.855Y-262.89
X237.795Y-182.88
X238.125Y-139.7
X238.664Y-266.827
X238.76Y-99.695
X239.395Y-213.36
X239.457Y-268.155
X239.928Y-100.432
X240.03Y-264.16
X240.36Y-205.819
X240.665Y-104.14
X241.198Y-155.056
X241.198Y-165.758
X241.3Y-85.496
X241.3Y-119.38
X241.3Y-261.62
X241.3Y-269.24
X241.935Y-189.23
X242.138Y-203.2
X242.57Y-77.47
X242.57Y-87.63
X242.57Y-240.132
X242.612Y-237.329
X243.205Y-147.32
X243.205Y-242.57
X243.205Y-245.11
X244.475Y-84.455
X244.475Y-177.8
X246.38Y-85.192
X246.38Y-254.
X246.761Y-258.978
X247.015Y-205.74
X248.183Y-137.792
X248.92Y-160.02
X248.92Y-222.885
X248.92Y-263.017
X249.109Y-86.873
X249.364Y-259.319
X249.791Y-261.129
X249.89Y-86.004
X250.19Y-77.47
X250.479Y-103.038
X250.698Y-197.644
X250.825Y-184.15
X251.358Y-208.28
X251.46Y-127.
X251.46Y-168.91
X251.46Y-270.51
X251.562Y-200.66
X251.587Y-232.41
X252.095Y-154.305
X252.095Y-203.2
X252.095Y-260.985
X252.4Y-149.947
X252.45Y-240.05
X252.562Y-215.158
X252.603Y-247.015
X252.628Y-135.255
X252.628Y-141.707
X252.719Y-176.451
X252.73Y-77.47
X252.73Y-86.995
X252.832Y-113.665
X252.959Y-167.64
X253.263Y-171.323
X253.365Y-104.14
X253.365Y-182.245
X253.365Y-201.295
X253.365Y-238.76
X253.412Y-112.037
X253.492Y-198.47
X253.561Y-190.421
X254.533Y-234.95
X254.635Y-151.765
X254.635Y-242.57
X254.737Y-176.901
X254.856Y-216.948
X254.864Y-114.364
X254.864Y-116.166
X254.864Y-130.345
X255.168Y-117.641
X255.168Y-124.707
X255.27Y-173.99
X255.27Y-247.015
X255.372Y-240.665
X255.728Y-134.671
X255.905Y-162.56
X255.905Y-170.18
X256.261Y-221.067
X256.54Y-144.78
X256.54Y-152.4
X256.54Y-180.34
X256.54Y-187.96
X256.54Y-208.28
X256.595Y-85.496
X257.175Y-123.19
X257.175Y-190.5
X257.81Y-219.71
X257.81Y-227.33
X258.293Y-96.762
X259.08Y-93.98
X259.08Y-205.74
X259.715Y-85.192
X260.35Y-96.52
X260.985Y-109.22
X260.985Y-132.08
X260.985Y-193.04
X262.89Y-85.09
X264.16Y-93.98
X264.634Y-226.018
X265.506Y-100.33
X265.532Y-95.885
X265.847Y-237.277
X265.904Y-233.722
X266.065Y-116.84
X266.691Y-120.438
X266.802Y-178.258
X267.045Y-229.703
X267.046Y-227.448
X267.149Y-224.832
X267.335Y-104.14
X267.335Y-180.34
X267.335Y-187.96
X267.335Y-241.3
X267.437Y-193.167
X267.97Y-240.03
X267.97Y-261.62
X268.503Y-241.935
X268.605Y-233.045
X270.51Y-85.09
X272.415Y-208.28
X273.685Y-106.68
X274.32Y-112.395
X274.32Y-247.65
X274.955Y-105.41
X274.955Y-177.165
X274.955Y-207.645
X274.955Y-254.
X274.955Y-259.08
X275.59Y-133.985
X275.59Y-185.42
X276.225Y-97.79
X276.225Y-119.38
X276.225Y-193.675
X276.225Y-200.66
X276.758Y-236.22
X276.86Y-122.555
X276.86Y-132.08
X276.86Y-142.24
X276.86Y-166.37
X276.86Y-180.34
X276.86Y-206.357
X276.86Y-243.84
X276.962Y-115.57
X277.498Y-146.456
X277.811Y-191.564
X278.003Y-135.89
X278.13Y-84.239
X278.13Y-120.65
X278.13Y-183.515
X278.13Y-254.635
X278.765Y-124.46
X278.765Y-195.58
X279.247Y-237.871
X279.4Y-174.752
X279.4Y-180.34
X279.4Y-193.04
X279.4Y-233.68
X279.4Y-241.935
X280.035Y-132.817
X280.035Y-245.11
X280.67Y-117.475
X280.67Y-161.29
X280.721Y-223.419
X280.797Y-200.66
X281.051Y-206.528
X281.305Y-107.315
X281.305Y-215.9
X281.305Y-231.14
X281.559Y-199.39
X281.838Y-160.02
X281.94Y-120.65
X281.94Y-239.395
X282.042Y-164.465
X282.052Y-131.978
X282.089Y-196.723
X282.371Y-130.683
X282.575Y-93.345
X282.575Y-146.685
X282.575Y-236.855
X282.677Y-124.204
X283.21Y-163.83
X284.48Y-248.92
X284.636Y-106.68
X285.013Y-173.99
X285.115Y-134.087
X285.258Y-178.349
X285.547Y-139.686
X287.02Y-86.995
X287.655Y-77.47
X289.56Y-100.965
X291.363Y-128.27
X291.465Y-169.443
X291.567Y-119.38
X291.617Y-139.7
X291.897Y-222.591
X292.1Y-85.09
X292.1Y-167.742
X292.1Y-175.895
X292.1Y-246.38
X292.735Y-168.91
X292.735Y-231.14
X292.837Y-235.469
X292.837Y-237.49
X292.837Y-243.84
X293.37Y-186.055
X293.37Y-207.01
X293.37Y-220.878
X293.37Y-233.68
X293.37Y-246.38
X294.005Y-236.855
X294.64Y-86.995
X295.91Y-94.615
X297.815Y-215.9
X298.433Y-253.86
X299.085Y-255.27
X299.72Y-100.33
X299.72Y-180.34
X301.625Y-146.685
X301.625Y-166.37
X301.625Y-212.192
X301.625Y-236.22
X301.625Y-237.49
X302.26Y-89.535
X302.26Y-200.66
X302.26Y-233.68
X302.622Y-210.461
X302.793Y-198.12
X302.895Y-187.96
X302.895Y-229.235
X302.895Y-231.775
X303.53Y-144.78
X303.53Y-152.4
X303.53Y-162.56
X303.53Y-195.58
X303.53Y-224.155
X303.657Y-238.125
X303.911Y-211.302
X304.165Y-104.775
X304.165Y-109.22
X304.165Y-201.93
X304.8Y-183.515
X304.8Y-213.36
X304.8Y-243.84
X304.902Y-204.47
X305.333Y-165.1
X305.333Y-167.538
X305.435Y-205.74
X305.435Y-211.455
X306.07Y-103.505
X306.07Y-146.05
X306.07Y-147.955
X306.07Y-190.5
X306.07Y-197.485
X306.172Y-208.915
X306.717Y-186.715
X307.265Y-193.042
X307.34Y-121.92
X307.34Y-137.16
X307.34Y-160.02
X307.34Y-187.96
X307.34Y-213.538
X307.34Y-237.49
X307.508Y-171.104
X307.873Y-198.857
X307.975Y-144.043
X307.975Y-182.88
X308.049Y-191.895
X308.61Y-203.2
X308.61Y-253.263
X309.88Y-116.84
X309.88Y-121.92
X309.88Y-203.2
X309.88Y-253.365
X310.688Y-218.44
X311.785Y-127.
X311.785Y-177.8
X311.785Y-220.98
X315.595Y-190.5
X315.595Y-205.74
X316.56Y-198.309
X316.736Y-226.769
X316.749Y-119.472
X316.865Y-83.82
X316.865Y-229.235
X316.865Y-231.14
X317.5Y-140.97
X317.602Y-127.116
X317.906Y-101.655
X317.954Y-225.029
X317.983Y-227.654
X318.135Y-82.55
X318.135Y-144.78
X318.135Y-200.025
X318.135Y-242.57
X318.237Y-138.43
X318.237Y-203.302
X318.296Y-129.582
X318.338Y-169.647
X318.451Y-189.239
X323.215Y-210.82
X324.409Y-170.18
X324.485Y-217.17
X324.485Y-228.6
X324.485Y-229.87
X324.611Y-225.957
X324.739Y-213.36
X324.739Y-215.9
X325.018Y-156.877
X325.018Y-158.437
X325.018Y-207.188
X325.12Y-106.68
X325.12Y-107.95
X325.12Y-147.32
X325.349Y-219.075
X325.349Y-221.615
X325.692Y-197.885
X325.706Y-114.038
X325.984Y-162.663
X325.984Y-163.936
X326.274Y-119.482
X326.288Y-115.051
X326.39Y-226.06
X326.39Y-231.775
X326.472Y-233.248
X326.873Y-185.502
X326.923Y-151.238
X327.025Y-227.157
X327.025Y-93.98
X327.025Y-241.3
X327.127Y-213.207
X327.431Y-212.051
X327.66Y-86.36
X327.708Y-170.185
X327.758Y-174.554
X327.863Y-199.39
X328.651Y-132.08
X328.676Y-209.168
X329.337Y-175.537
X329.689Y-207.828
X330.835Y-111.76
X330.835Y-154.305
X330.835Y-222.25
X331.47Y-114.3
X331.876Y-158.75
X332.003Y-109.22
X332.003Y-177.165
X332.105Y-90.17
X332.74Y-101.6
X332.74Y-220.98
X333.375Y-231.775
X333.375Y-233.68
X333.477Y-114.3
X333.477Y-184.15
X334.01Y-181.61
X334.01Y-207.747
X334.112Y-116.84
X334.442Y-171.45
X334.645Y-106.68
X334.645Y-201.93
X334.772Y-192.913
X334.772Y-168.91
X335.28Y-187.96
X335.28Y-204.47
X338.455Y-222.25
X339.09Y-160.02
X339.09Y-213.995
X339.623Y-223.52
X340.36Y-103.607
X340.36Y-118.796
X340.36Y-244.475
X341.63Y-255.27
X343.256Y-180.34
X343.306Y-204.47
X343.535Y-102.87
X344.068Y-145.868
X344.805Y-100.33
X344.805Y-200.66
X344.805Y-207.01
X344.907Y-199.39
X345.44Y-120.015
X345.778Y-182.143
X345.923Y-148.344
X345.946Y-158.414
X346.075Y-189.23
X346.608Y-224.79
X346.71Y-227.33
X346.812Y-190.47
X346.812Y-191.77
X347.345Y-101.6
X347.345Y-228.6
X348.216Y-175.235
X348.615Y-271.145
X349.25Y-264.795
X350.622Y-257.175
X352.654Y-196.85
X352.958Y-202.681
X352.958Y-199.39
X352.958Y-207.01
X353.06Y-256.54
X354.33Y-118.11
X354.965Y-115.57
X355.702Y-140.97
X356.337Y-135.913
X356.87Y-138.43
X357.403Y-122.036
X358.14Y-110.49
X358.673Y-113.03
X359.308Y-133.35
X359.41Y-199.39
X360.045Y-105.41
X360.045Y-156.21
X360.045Y-171.45
X360.045Y-181.61
X360.045Y-201.93
X360.592Y-206.908
X361.315Y-180.34
X361.518Y-208.915
X362.585Y-160.655
X362.585Y-184.15
X365.76Y-93.98
X366.395Y-111.76
X366.395Y-114.3
X366.395Y-270.51
X367.132Y-269.24
T2
X200.7Y-186.69
X201.95Y-186.69
X203.2Y-186.69
X204.45Y-186.69
X205.7Y-186.69
X200.7Y-132.08
X201.95Y-132.08
X203.2Y-132.08
X204.45Y-132.08
X205.7Y-132.08
T3
X176.53Y-153.67
X177.8Y-154.94
X179.07Y-153.67
X170.18Y-153.67
X171.45Y-154.94
X172.72Y-153.67
X231.14Y-186.69
X232.41Y-185.42
X232.41Y-187.96
X280.67Y-209.55
X280.67Y-212.09
X281.94Y-208.28
X281.94Y-213.36
X283.21Y-209.55
X283.21Y-212.09
X231.14Y-181.61
X232.41Y-180.34
X232.41Y-182.88
X280.67Y-176.53
X281.94Y-175.26
X283.21Y-176.53
X224.79Y-181.61
X226.06Y-180.34
X226.06Y-182.88
X304.8Y-173.99
X304.8Y-176.53
X306.07Y-172.72
X306.07Y-177.8
X307.34Y-173.99
X307.34Y-176.53
X280.67Y-137.16
X280.67Y-139.7
X281.94Y-135.89
X281.94Y-140.97
X283.21Y-137.16
X283.21Y-139.7
X199.39Y-113.03
X200.66Y-111.76
X200.66Y-114.3
X224.79Y-186.69
X226.06Y-185.42
X226.06Y-187.96
X306.07Y-128.27
X306.07Y-130.81
X307.34Y-127.
X307.34Y-132.08
X308.61Y-128.27
X308.61Y-130.81
X274.32Y-137.16
X274.32Y-139.7
X275.59Y-135.89
X275.59Y-140.97
X276.86Y-137.16
X276.86Y-139.7
X278.13Y-102.87
X279.4Y-101.6
X279.4Y-104.14
X342.265Y-114.935
X342.265Y-117.475
X343.535Y-116.205
X278.13Y-113.03
X279.4Y-111.76
X279.4Y-114.3
X124.46Y-156.21
X125.73Y-154.94
X127.Y-156.21
X299.72Y-173.99
X299.72Y-176.53
X300.99Y-172.72
X300.99Y-177.8
X302.26Y-173.99
X302.26Y-176.53
X121.92Y-237.49
X123.19Y-238.76
X124.46Y-237.49
X326.39Y-80.645
X327.66Y-81.915
X328.93Y-80.645
X275.59Y-209.55
X275.59Y-212.09
X276.86Y-208.28
X276.86Y-213.36
X278.13Y-209.55
X278.13Y-212.09
X118.11Y-156.21
X119.38Y-154.94
X120.65Y-156.21
X306.07Y-217.17
X306.07Y-219.71
X307.34Y-215.9
X307.34Y-220.98
X308.61Y-217.17
X308.61Y-219.71
X300.99Y-128.27
X300.99Y-130.81
X302.26Y-127.
X302.26Y-132.08
X303.53Y-128.27
X303.53Y-130.81
X231.14Y-139.7
X231.14Y-142.24
X232.41Y-140.97
X173.99Y-237.49
X175.26Y-238.76
X176.53Y-237.49
X300.99Y-217.17
X300.99Y-219.71
X302.26Y-215.9
X302.26Y-220.98
X303.53Y-217.17
X303.53Y-219.71
X226.06Y-107.95
X227.33Y-106.68
X227.33Y-109.22
X280.67Y-185.42
X281.94Y-184.15
X283.21Y-185.42
X205.74Y-113.03
X207.01Y-111.76
X207.01Y-114.3
X224.79Y-139.7
X224.79Y-142.24
X226.06Y-140.97
X280.67Y-181.61
X281.94Y-180.34
X283.21Y-181.61
X278.13Y-107.95
X279.4Y-106.68
X279.4Y-109.22
X303.53Y-99.695
X304.8Y-98.425
X306.07Y-99.695
T4
X90.805Y-221.615
X99.06Y-241.3
X99.06Y-245.745
X103.505Y-222.25
X110.49Y-226.06
X111.125Y-247.015
X131.445Y-123.19
X132.715Y-186.69
X168.275Y-137.795
X193.04Y-77.47
X207.093Y-249.003
X217.653Y-102.87
X251.46Y-94.158
X254.Y-94.158
X272.415Y-174.854
X297.815Y-107.95
X304.8Y-94.615
X306.705Y-96.368
X335.28Y-96.52
X336.55Y-238.76
X338.404Y-120.65
X350.52Y-96.52
X351.13Y-204.47
X351.155Y-179.07
X352.044Y-137.16
X358.775Y-245.11
X237.49Y-116.84
X237.49Y-119.38
X237.49Y-121.92
X237.49Y-124.46
X245.11Y-116.84
X245.11Y-119.38
X245.11Y-121.92
X245.11Y-124.46
X170.18Y-189.23
X180.34Y-189.23
X274.32Y-152.4
X284.48Y-152.4
X248.92Y-175.26
X259.08Y-175.26
X313.69Y-152.4
X321.31Y-152.4
X341.63Y-194.31
X349.25Y-194.31
X274.32Y-220.98
X279.4Y-220.98
X186.69Y-129.54
X194.31Y-129.54
X288.29Y-185.42
X288.29Y-187.96
X288.29Y-190.5
X288.29Y-193.04
X295.91Y-185.42
X295.91Y-187.96
X295.91Y-190.5
X295.91Y-193.04
X248.92Y-129.54
X259.08Y-129.54
X288.29Y-142.24
X295.91Y-142.24
X226.06Y-208.28
X231.14Y-208.28
X186.69Y-194.31
X194.31Y-194.31
X133.35Y-99.06
X140.97Y-99.06
X248.92Y-180.34
X259.08Y-180.34
X262.89Y-160.02
X262.89Y-162.56
X262.89Y-165.1
X262.89Y-167.64
X270.51Y-160.02
X270.51Y-162.56
X270.51Y-165.1
X270.51Y-167.64
X248.92Y-134.62
X259.08Y-134.62
X274.32Y-236.22
X284.48Y-236.22
X201.93Y-194.31
X204.47Y-194.31
X133.35Y-146.05
X140.97Y-146.05
X158.75Y-181.61
X158.75Y-184.15
X158.75Y-186.69
X158.75Y-189.23
X166.37Y-181.61
X166.37Y-184.15
X166.37Y-186.69
X166.37Y-189.23
X144.78Y-128.27
X154.94Y-128.27
X198.12Y-119.38
X208.28Y-119.38
X251.46Y-119.38
X256.54Y-119.38
X212.09Y-198.12
X219.71Y-198.12
X105.41Y-156.21
X105.41Y-158.75
X105.41Y-161.29
X105.41Y-163.83
X105.41Y-166.37
X105.41Y-168.91
X105.41Y-171.45
X105.41Y-173.99
X113.03Y-156.21
X113.03Y-158.75
X113.03Y-161.29
X113.03Y-163.83
X113.03Y-166.37
X113.03Y-168.91
X113.03Y-171.45
X113.03Y-173.99
X144.78Y-123.19
X154.94Y-123.19
X284.48Y-102.87
X284.48Y-113.03
X144.78Y-242.57
X154.94Y-242.57
X251.46Y-132.08
X256.54Y-132.08
X280.67Y-255.27
X280.67Y-257.81
X283.21Y-255.27
X283.21Y-257.81
X285.75Y-255.27
X285.75Y-257.81
X288.29Y-255.27
X288.29Y-257.81
X290.83Y-255.27
X290.83Y-257.81
X186.69Y-196.85
X186.69Y-199.39
X186.69Y-201.93
X186.69Y-204.47
X194.31Y-196.85
X194.31Y-199.39
X194.31Y-201.93
X194.31Y-204.47
X144.78Y-133.35
X154.94Y-133.35
X175.26Y-78.74
X175.26Y-91.44
X177.8Y-83.82
X116.84Y-231.14
X127.Y-231.14
X251.46Y-139.7
X256.54Y-139.7
X356.87Y-152.4
X364.49Y-152.4
X170.18Y-115.57
X180.34Y-115.57
X149.86Y-78.74
X149.86Y-91.44
X152.4Y-83.82
X299.72Y-119.38
X309.88Y-119.38
X137.16Y-261.62
X137.16Y-271.78
X238.76Y-80.01
X238.76Y-82.55
X241.3Y-80.01
X241.3Y-82.55
X243.84Y-80.01
X243.84Y-82.55
X246.38Y-80.01
X246.38Y-82.55
X248.92Y-80.01
X248.92Y-82.55
X251.46Y-80.01
X251.46Y-82.55
X254.Y-80.01
X254.Y-82.55
X256.54Y-80.01
X256.54Y-82.55
X259.08Y-80.01
X259.08Y-82.55
X261.62Y-80.01
X261.62Y-82.55
X264.16Y-80.01
X264.16Y-82.55
X266.7Y-80.01
X266.7Y-82.55
X269.24Y-80.01
X269.24Y-82.55
X132.08Y-170.18
X142.24Y-170.18
X287.02Y-241.3
X297.18Y-241.3
X299.72Y-170.18
X309.88Y-170.18
X223.52Y-154.94
X233.68Y-154.94
X265.43Y-265.43
X265.43Y-275.59
X250.19Y-228.6
X255.27Y-228.6
X170.18Y-217.17
X180.34Y-217.17
X274.32Y-241.3
X284.48Y-241.3
X299.72Y-162.56
X309.88Y-162.56
X223.52Y-147.32
X233.68Y-147.32
X289.56Y-80.01
X289.56Y-82.55
X292.1Y-80.01
X292.1Y-82.55
X294.64Y-80.01
X294.64Y-82.55
X297.18Y-80.01
X297.18Y-82.55
X299.72Y-80.01
X299.72Y-82.55
X116.84Y-176.53
X127.Y-176.53
X186.69Y-232.41
X194.31Y-232.41
X170.18Y-110.49
X180.34Y-110.49
X299.72Y-231.14
X309.88Y-231.14
X223.52Y-129.54
X233.68Y-129.54
X144.78Y-245.11
X154.94Y-245.11
X262.89Y-124.46
X270.51Y-124.46
X170.18Y-234.95
X180.34Y-234.95
X274.32Y-215.9
X284.48Y-215.9
X223.52Y-203.2
X233.68Y-203.2
X189.23Y-88.9
X189.23Y-91.44
X191.77Y-88.9
X191.77Y-91.44
X194.31Y-88.9
X194.31Y-91.44
X196.85Y-88.9
X196.85Y-91.44
X199.39Y-88.9
X199.39Y-91.44
X262.89Y-154.94
X270.51Y-154.94
X158.75Y-176.53
X166.37Y-176.53
X170.18Y-176.53
X180.34Y-176.53
X274.32Y-154.94
X284.48Y-154.94
X223.52Y-218.44
X233.68Y-218.44
X313.69Y-99.06
X321.31Y-99.06
X248.92Y-220.98
X259.08Y-220.98
X105.41Y-97.79
X113.03Y-97.79
X212.09Y-114.3
X212.09Y-116.84
X212.09Y-119.38
X212.09Y-121.92
X219.71Y-114.3
X219.71Y-116.84
X219.71Y-119.38
X219.71Y-121.92
X157.48Y-228.6
X167.64Y-228.6
X275.59Y-81.28
X275.59Y-91.44
X223.52Y-205.74
X233.68Y-205.74
X325.12Y-149.86
X337.82Y-149.86
X147.32Y-166.37
X147.32Y-168.91
X147.32Y-171.45
X147.32Y-173.99
X147.32Y-176.53
X147.32Y-179.07
X147.32Y-181.61
X147.32Y-184.15
X149.86Y-166.37
X149.86Y-168.91
X149.86Y-171.45
X149.86Y-173.99
X149.86Y-176.53
X149.86Y-179.07
X149.86Y-181.61
X149.86Y-184.15
X212.09Y-195.58
X219.71Y-195.58
X313.69Y-83.82
X313.69Y-86.36
X313.69Y-88.9
X313.69Y-91.44
X321.31Y-83.82
X321.31Y-86.36
X321.31Y-88.9
X321.31Y-91.44
X116.84Y-219.71
X127.Y-219.71
X198.12Y-242.57
X208.28Y-242.57
X313.69Y-139.7
X321.31Y-139.7
X248.92Y-187.96
X259.08Y-187.96
X251.46Y-193.04
X256.54Y-193.04
X341.63Y-173.99
X349.25Y-173.99
X313.69Y-182.88
X313.69Y-185.42
X313.69Y-187.96
X313.69Y-190.5
X321.31Y-182.88
X321.31Y-185.42
X321.31Y-187.96
X321.31Y-190.5
X116.84Y-135.89
X127.Y-135.89
X185.42Y-175.26
X195.58Y-175.26
X248.92Y-195.58
X259.08Y-195.58
X274.32Y-231.14
X284.48Y-231.14
X248.92Y-185.42
X259.08Y-185.42
X212.09Y-200.66
X212.09Y-203.2
X212.09Y-205.74
X212.09Y-208.28
X212.09Y-210.82
X212.09Y-213.36
X212.09Y-215.9
X212.09Y-218.44
X219.71Y-200.66
X219.71Y-203.2
X219.71Y-205.74
X219.71Y-208.28
X219.71Y-210.82
X219.71Y-213.36
X219.71Y-215.9
X219.71Y-218.44
X116.84Y-209.55
X127.Y-209.55
X198.12Y-184.15
X208.28Y-184.15
X248.92Y-167.64
X259.08Y-167.64
X299.72Y-121.92
X302.26Y-121.92
X238.76Y-88.9
X238.76Y-91.44
X241.3Y-88.9
X241.3Y-91.44
X243.84Y-88.9
X243.84Y-91.44
X246.38Y-88.9
X246.38Y-91.44
X248.92Y-88.9
X248.92Y-91.44
X251.46Y-88.9
X251.46Y-91.44
X254.Y-88.9
X254.Y-91.44
X256.54Y-88.9
X256.54Y-91.44
X259.08Y-88.9
X259.08Y-91.44
X261.62Y-88.9
X261.62Y-91.44
X264.16Y-88.9
X264.16Y-91.44
X266.7Y-88.9
X266.7Y-91.44
X269.24Y-88.9
X269.24Y-91.44
X212.09Y-167.64
X219.71Y-167.64
X133.35Y-110.49
X133.35Y-113.03
X133.35Y-115.57
X133.35Y-118.11
X140.97Y-110.49
X140.97Y-113.03
X140.97Y-115.57
X140.97Y-118.11
X116.84Y-125.73
X127.Y-125.73
X198.12Y-229.87
X208.28Y-229.87
X248.92Y-170.18
X259.08Y-170.18
X274.32Y-162.56
X284.48Y-162.56
X226.06Y-210.82
X231.14Y-210.82
X158.75Y-135.89
X166.37Y-135.89
X262.89Y-228.6
X270.51Y-228.6
X212.09Y-124.46
X219.71Y-124.46
X288.29Y-160.02
X288.29Y-162.56
X288.29Y-165.1
X288.29Y-167.64
X295.91Y-160.02
X295.91Y-162.56
X295.91Y-165.1
X295.91Y-167.64
X236.22Y-179.07
X246.38Y-179.07
X242.57Y-265.43
X242.57Y-275.59
X313.69Y-233.68
X321.31Y-233.68
X186.69Y-234.95
X194.31Y-234.95
X299.72Y-160.02
X302.26Y-160.02
X105.41Y-191.77
X113.03Y-191.77
X262.89Y-127.
X262.89Y-129.54
X262.89Y-132.08
X262.89Y-134.62
X270.51Y-127.
X270.51Y-129.54
X270.51Y-132.08
X270.51Y-134.62
X248.92Y-127.
X259.08Y-127.
X326.39Y-138.43
X336.55Y-138.43
X158.75Y-151.13
X166.37Y-151.13
X105.41Y-179.07
X113.03Y-179.07
X288.29Y-208.28
X288.29Y-210.82
X288.29Y-213.36
X288.29Y-215.9
X295.91Y-208.28
X295.91Y-210.82
X295.91Y-213.36
X295.91Y-215.9
X124.46Y-78.74
X124.46Y-91.44
X127.Y-83.82
X198.12Y-116.84
X208.28Y-116.84
X133.35Y-125.73
X140.97Y-125.73
X92.71Y-217.17
X92.71Y-219.71
X92.71Y-222.25
X92.71Y-224.79
X92.71Y-227.33
X95.25Y-217.17
X95.25Y-219.71
X95.25Y-222.25
X95.25Y-224.79
X95.25Y-227.33
X212.09Y-144.78
X212.09Y-147.32
X212.09Y-149.86
X212.09Y-152.4
X212.09Y-154.94
X212.09Y-157.48
X212.09Y-160.02
X212.09Y-162.56
X219.71Y-144.78
X219.71Y-147.32
X219.71Y-149.86
X219.71Y-152.4
X219.71Y-154.94
X219.71Y-157.48
X219.71Y-160.02
X219.71Y-162.56
X198.12Y-154.94
X208.28Y-154.94
X223.52Y-116.84
X233.68Y-116.84
X251.46Y-165.1
X256.54Y-165.1
X133.35Y-158.75
X140.97Y-158.75
X237.49Y-101.6
X237.49Y-104.14
X237.49Y-106.68
X237.49Y-109.22
X245.11Y-101.6
X245.11Y-104.14
X245.11Y-106.68
X245.11Y-109.22
X198.12Y-129.54
X208.28Y-129.54
X210.82Y-105.41
X220.98Y-105.41
X116.84Y-102.87
X127.Y-102.87
X186.69Y-98.425
X194.31Y-98.425
X144.78Y-156.21
X154.94Y-156.21
X299.72Y-243.84
X309.88Y-243.84
X198.12Y-137.16
X208.28Y-137.16
X287.02Y-135.89
X297.18Y-135.89
X158.75Y-194.31
X158.75Y-196.85
X158.75Y-199.39
X158.75Y-201.93
X158.75Y-204.47
X158.75Y-207.01
X158.75Y-209.55
X166.37Y-194.31
X166.37Y-196.85
X166.37Y-199.39
X166.37Y-201.93
X166.37Y-204.47
X166.37Y-207.01
X166.37Y-209.55
X116.84Y-179.07
X127.Y-179.07
X165.1Y-78.74
X165.1Y-91.44
X167.64Y-83.82
X287.02Y-236.22
X297.18Y-236.22
X299.72Y-187.96
X309.88Y-187.96
X223.52Y-190.5
X233.68Y-190.5
X204.47Y-255.27
X204.47Y-257.81
X207.01Y-255.27
X207.01Y-257.81
X209.55Y-255.27
X209.55Y-257.81
X212.09Y-255.27
X212.09Y-257.81
X214.63Y-255.27
X214.63Y-257.81
X341.63Y-246.38
X351.79Y-246.38
X223.52Y-177.8
X233.68Y-177.8
X170.18Y-130.81
X180.34Y-130.81
X299.72Y-223.52
X309.88Y-223.52
X198.12Y-144.78
X208.28Y-144.78
X223.52Y-165.1
X233.68Y-165.1
X129.54Y-78.74
X129.54Y-91.44
X132.08Y-83.82
X186.69Y-248.92
X194.31Y-248.92
X170.18Y-151.13
X180.34Y-151.13
X299.72Y-226.06
X309.88Y-226.06
X248.92Y-245.11
X259.08Y-245.11
X186.69Y-207.01
X194.31Y-207.01
X133.35Y-233.68
X140.97Y-233.68
X170.18Y-163.83
X180.34Y-163.83
X274.32Y-198.12
X284.48Y-198.12
X198.12Y-265.43
X198.12Y-275.59
X248.92Y-101.6
X259.08Y-101.6
X186.69Y-191.77
X194.31Y-191.77
X120.65Y-204.47
X123.19Y-204.47
X288.29Y-104.14
X288.29Y-106.68
X288.29Y-109.22
X288.29Y-111.76
X295.91Y-104.14
X295.91Y-106.68
X295.91Y-109.22
X295.91Y-111.76
X116.84Y-138.43
X127.Y-138.43
X274.32Y-165.1
X284.48Y-165.1
X223.52Y-237.49
X233.68Y-237.49
X325.12Y-144.78
X337.82Y-144.78
X198.12Y-160.02
X208.28Y-160.02
X116.84Y-214.63
X119.38Y-214.63
X170.18Y-231.14
X180.34Y-231.14
X274.32Y-129.54
X284.48Y-129.54
X223.52Y-152.4
X233.68Y-152.4
X313.69Y-193.04
X321.31Y-193.04
X92.71Y-92.71
X92.71Y-95.25
X92.71Y-97.79
X92.71Y-100.33
X92.71Y-102.87
X92.71Y-105.41
X92.71Y-107.95
X92.71Y-110.49
X95.25Y-92.71
X95.25Y-95.25
X95.25Y-97.79
X95.25Y-100.33
X95.25Y-102.87
X95.25Y-105.41
X95.25Y-107.95
X95.25Y-110.49
X212.09Y-182.88
X219.71Y-182.88
X313.69Y-157.48
X313.69Y-160.02
X313.69Y-162.56
X313.69Y-165.1
X313.69Y-167.64
X313.69Y-170.18
X313.69Y-172.72
X313.69Y-175.26
X321.31Y-157.48
X321.31Y-160.02
X321.31Y-162.56
X321.31Y-165.1
X321.31Y-167.64
X321.31Y-170.18
X321.31Y-172.72
X321.31Y-175.26
X116.84Y-133.35
X127.Y-133.35
X198.12Y-181.61
X208.28Y-181.61
X313.69Y-121.92
X321.31Y-121.92
X248.92Y-142.24
X259.08Y-142.24
X237.49Y-157.48
X245.11Y-157.48
X313.69Y-198.12
X313.69Y-200.66
X313.69Y-203.2
X313.69Y-205.74
X321.31Y-198.12
X321.31Y-200.66
X321.31Y-203.2
X321.31Y-205.74
X116.84Y-194.31
X127.Y-194.31
X198.12Y-172.72
X208.28Y-172.72
X236.22Y-222.25
X246.38Y-222.25
X325.12Y-129.54
X337.82Y-129.54
X135.89Y-182.88
X135.89Y-185.42
X135.89Y-187.96
X135.89Y-190.5
X135.89Y-193.04
X138.43Y-182.88
X138.43Y-185.42
X138.43Y-187.96
X138.43Y-190.5
X138.43Y-193.04
X237.49Y-162.56
X237.49Y-165.1
X237.49Y-167.64
X237.49Y-170.18
X245.11Y-162.56
X245.11Y-165.1
X245.11Y-167.64
X245.11Y-170.18
X170.18Y-148.59
X180.34Y-148.59
X198.12Y-199.39
X208.28Y-199.39
X248.92Y-162.56
X259.08Y-162.56
X313.69Y-137.16
X321.31Y-137.16
X212.09Y-180.34
X219.71Y-180.34
X288.29Y-170.18
X295.91Y-170.18
X186.69Y-154.94
X186.69Y-157.48
X186.69Y-160.02
X186.69Y-162.56
X194.31Y-154.94
X194.31Y-157.48
X194.31Y-160.02
X194.31Y-162.56
X116.84Y-207.01
X127.Y-207.01
X274.32Y-144.78
X284.48Y-144.78
X248.92Y-104.14
X259.08Y-104.14
X185.42Y-110.49
X195.58Y-110.49
X328.93Y-210.82
X336.55Y-210.82
X158.75Y-138.43
X166.37Y-138.43
X299.72Y-203.2
X302.26Y-203.2
X212.09Y-96.52
X219.71Y-96.52
X262.89Y-233.68
X262.89Y-236.22
X262.89Y-238.76
X262.89Y-241.3
X270.51Y-233.68
X270.51Y-236.22
X270.51Y-238.76
X270.51Y-241.3
X248.92Y-147.32
X259.08Y-147.32
X344.17Y-123.19
X344.17Y-125.73
X313.69Y-236.22
X321.31Y-236.22
X186.69Y-209.55
X194.31Y-209.55
X262.89Y-231.14
X270.51Y-231.14
X288.29Y-250.19
X295.91Y-250.19
X186.69Y-212.09
X186.69Y-214.63
X186.69Y-217.17
X186.69Y-219.71
X186.69Y-222.25
X186.69Y-224.79
X186.69Y-227.33
X186.69Y-229.87
X194.31Y-212.09
X194.31Y-214.63
X194.31Y-217.17
X194.31Y-219.71
X194.31Y-222.25
X194.31Y-224.79
X194.31Y-227.33
X194.31Y-229.87
X223.52Y-124.46
X233.68Y-124.46
X341.63Y-219.71
X341.63Y-222.25
X341.63Y-224.79
X341.63Y-227.33
X341.63Y-229.87
X341.63Y-232.41
X341.63Y-234.95
X349.25Y-219.71
X349.25Y-222.25
X349.25Y-224.79
X349.25Y-227.33
X349.25Y-229.87
X349.25Y-232.41
X349.25Y-234.95
X288.29Y-154.94
X295.91Y-154.94
X173.99Y-191.77
X176.53Y-191.77
X186.69Y-119.38
X186.69Y-121.92
X186.69Y-124.46
X186.69Y-127.
X194.31Y-119.38
X194.31Y-121.92
X194.31Y-124.46
X194.31Y-127.
X133.35Y-128.27
X133.35Y-130.81
X133.35Y-133.35
X133.35Y-135.89
X140.97Y-128.27
X140.97Y-130.81
X140.97Y-133.35
X140.97Y-135.89
X144.78Y-138.43
X154.94Y-138.43
X356.87Y-242.57
X356.87Y-245.11
X356.87Y-247.65
X364.49Y-242.57
X364.49Y-245.11
X364.49Y-247.65
X237.49Y-160.02
X245.11Y-160.02
X105.41Y-224.79
X113.03Y-224.79
X212.09Y-237.49
X212.09Y-240.03
X212.09Y-242.57
X212.09Y-245.11
X219.71Y-237.49
X219.71Y-240.03
X219.71Y-242.57
X219.71Y-245.11
X287.02Y-176.53
X297.18Y-176.53
X210.82Y-102.87
X220.98Y-102.87
X116.84Y-163.83
X127.Y-163.83
X250.19Y-149.86
X255.27Y-149.86
X341.63Y-152.4
X349.25Y-152.4
X262.89Y-218.44
X262.89Y-220.98
X262.89Y-223.52
X262.89Y-226.06
X270.51Y-218.44
X270.51Y-220.98
X270.51Y-223.52
X270.51Y-226.06
X198.12Y-162.56
X208.28Y-162.56
X299.72Y-134.62
X309.88Y-134.62
X223.52Y-175.26
X233.68Y-175.26
X134.62Y-78.74
X134.62Y-91.44
X137.16Y-83.82
X132.08Y-175.26
X142.24Y-175.26
X287.02Y-238.76
X297.18Y-238.76
X144.78Y-115.57
X154.94Y-115.57
X287.02Y-138.43
X297.18Y-138.43
X105.41Y-176.53
X113.03Y-176.53
X170.18Y-219.71
X180.34Y-219.71
X299.72Y-195.58
X309.88Y-195.58
X198.12Y-142.24
X208.28Y-142.24
X248.92Y-234.95
X259.08Y-234.95
X224.79Y-255.27
X224.79Y-257.81
X227.33Y-255.27
X227.33Y-257.81
X229.87Y-255.27
X229.87Y-257.81
X232.41Y-255.27
X232.41Y-257.81
X234.95Y-255.27
X234.95Y-257.81
X237.49Y-255.27
X237.49Y-257.81
X240.03Y-255.27
X240.03Y-257.81
X242.57Y-255.27
X242.57Y-257.81
X236.22Y-176.53
X246.38Y-176.53
X170.18Y-120.65
X180.34Y-120.65
X274.32Y-223.52
X284.48Y-223.52
X144.78Y-143.51
X154.94Y-143.51
X223.52Y-215.9
X233.68Y-215.9
X186.69Y-134.62
X186.69Y-137.16
X186.69Y-139.7
X186.69Y-142.24
X186.69Y-144.78
X186.69Y-147.32
X186.69Y-149.86
X194.31Y-134.62
X194.31Y-137.16
X194.31Y-139.7
X194.31Y-142.24
X194.31Y-144.78
X194.31Y-147.32
X194.31Y-149.86
X340.36Y-262.89
X340.36Y-273.05
X262.89Y-96.52
X270.51Y-96.52
X170.18Y-207.01
X180.34Y-207.01
X274.32Y-233.68
X284.48Y-233.68
X223.52Y-167.64
X233.68Y-167.64
X274.32Y-149.86
X276.86Y-149.86
X105.41Y-250.19
X113.03Y-250.19
X170.18Y-166.37
X180.34Y-166.37
X274.32Y-203.2
X284.48Y-203.2
X248.92Y-215.9
X259.08Y-215.9
X209.55Y-88.9
X209.55Y-91.44
X212.09Y-88.9
X212.09Y-91.44
X214.63Y-88.9
X214.63Y-91.44
X217.17Y-88.9
X217.17Y-91.44
X219.71Y-88.9
X219.71Y-91.44
X222.25Y-88.9
X222.25Y-91.44
X224.79Y-88.9
X224.79Y-91.44
X227.33Y-88.9
X227.33Y-91.44
X262.89Y-137.16
X270.51Y-137.16
X158.75Y-153.67
X166.37Y-153.67
X356.87Y-156.21
X356.87Y-158.75
X356.87Y-161.29
X356.87Y-163.83
X356.87Y-166.37
X356.87Y-168.91
X356.87Y-171.45
X364.49Y-156.21
X364.49Y-158.75
X364.49Y-161.29
X364.49Y-163.83
X364.49Y-166.37
X364.49Y-168.91
X364.49Y-171.45
X139.7Y-78.74
X139.7Y-91.44
X142.24Y-83.82
X274.32Y-160.02
X284.48Y-160.02
X210.82Y-228.6
X220.98Y-228.6
X325.12Y-190.5
X337.82Y-190.5
X105.41Y-80.01
X105.41Y-82.55
X107.95Y-80.01
X107.95Y-82.55
X110.49Y-80.01
X110.49Y-82.55
X113.03Y-80.01
X113.03Y-82.55
X115.57Y-80.01
X115.57Y-82.55
X226.06Y-232.41
X231.14Y-232.41
X105.41Y-135.89
X113.03Y-135.89
X356.87Y-219.71
X356.87Y-222.25
X356.87Y-224.79
X356.87Y-227.33
X356.87Y-229.87
X356.87Y-232.41
X356.87Y-234.95
X356.87Y-237.49
X364.49Y-219.71
X364.49Y-222.25
X364.49Y-224.79
X364.49Y-227.33
X364.49Y-229.87
X364.49Y-232.41
X364.49Y-234.95
X364.49Y-237.49
X154.94Y-78.74
X154.94Y-91.44
X157.48Y-83.82
X198.12Y-179.07
X208.28Y-179.07
X223.52Y-198.12
X233.68Y-198.12
X313.69Y-210.82
X321.31Y-210.82
X248.92Y-237.49
X259.08Y-237.49
X237.49Y-251.46
X245.11Y-251.46
X328.93Y-214.63
X328.93Y-217.17
X328.93Y-219.71
X328.93Y-222.25
X328.93Y-224.79
X328.93Y-227.33
X328.93Y-229.87
X336.55Y-214.63
X336.55Y-217.17
X336.55Y-219.71
X336.55Y-222.25
X336.55Y-224.79
X336.55Y-227.33
X336.55Y-229.87
X144.78Y-78.74
X144.78Y-91.44
X147.32Y-83.82
X198.12Y-245.11
X208.28Y-245.11
X299.72Y-238.76
X309.88Y-238.76
X198.12Y-157.48
X208.28Y-157.48
X237.49Y-172.72
X245.11Y-172.72
X313.69Y-238.76
X313.69Y-241.3
X313.69Y-243.84
X313.69Y-246.38
X321.31Y-238.76
X321.31Y-241.3
X321.31Y-243.84
X321.31Y-246.38
X116.84Y-107.95
X127.Y-107.95
X185.42Y-172.72
X195.58Y-172.72
X236.22Y-219.71
X246.38Y-219.71
X288.29Y-114.3
X295.91Y-114.3
X248.92Y-111.76
X259.08Y-111.76
X237.49Y-147.32
X237.49Y-149.86
X237.49Y-152.4
X237.49Y-154.94
X245.11Y-147.32
X245.11Y-149.86
X245.11Y-152.4
X245.11Y-154.94
X170.18Y-173.99
X180.34Y-173.99
X198.12Y-209.55
X208.28Y-209.55
X180.34Y-80.01
X180.34Y-90.17
X313.69Y-81.28
X321.31Y-81.28
X341.63Y-238.76
X349.25Y-238.76
X262.89Y-215.9
X270.51Y-215.9
X158.75Y-237.49
X158.75Y-240.03
X158.75Y-242.57
X158.75Y-245.11
X166.37Y-237.49
X166.37Y-240.03
X166.37Y-242.57
X166.37Y-245.11
X274.32Y-132.08
X284.48Y-132.08
X236.22Y-181.61
X246.38Y-181.61
X354.33Y-96.52
X361.95Y-96.52
X226.06Y-229.87
X231.14Y-229.87
X170.18Y-242.57
X182.88Y-242.57
X288.29Y-157.48
X295.91Y-157.48
X158.75Y-191.77
X166.37Y-191.77
X186.69Y-237.49
X186.69Y-240.03
X186.69Y-242.57
X186.69Y-245.11
X194.31Y-237.49
X194.31Y-240.03
X194.31Y-242.57
X194.31Y-245.11
X248.92Y-152.4
X259.08Y-152.4
X313.69Y-124.46
X321.31Y-124.46
X356.87Y-251.46
X364.49Y-251.46
X158.75Y-123.19
X166.37Y-123.19
X186.69Y-152.4
X194.31Y-152.4
X332.74Y-179.07
X337.82Y-179.07
X105.41Y-214.63
X105.41Y-217.17
X105.41Y-219.71
X105.41Y-222.25
X113.03Y-214.63
X113.03Y-217.17
X113.03Y-219.71
X113.03Y-222.25
X236.22Y-133.35
X246.38Y-133.35
X198.12Y-124.46
X208.28Y-124.46
X116.84Y-123.19
X127.Y-123.19
X170.18Y-214.63
X172.72Y-214.63
X203.2Y-147.32
X203.2Y-152.4
X205.74Y-149.86
X133.35Y-148.59
X133.35Y-151.13
X133.35Y-153.67
X133.35Y-156.21
X140.97Y-148.59
X140.97Y-151.13
X140.97Y-153.67
X140.97Y-156.21
X299.72Y-193.04
X309.88Y-193.04
X223.52Y-111.76
X233.68Y-111.76
X251.46Y-157.48
X256.54Y-157.48
X288.29Y-205.74
X295.91Y-205.74
X288.29Y-223.52
X288.29Y-226.06
X288.29Y-228.6
X288.29Y-231.14
X295.91Y-223.52
X295.91Y-226.06
X295.91Y-228.6
X295.91Y-231.14
X198.12Y-165.1
X208.28Y-165.1
X299.72Y-139.7
X309.88Y-139.7
X116.84Y-168.91
X127.Y-168.91
X237.49Y-111.76
X245.11Y-111.76
X356.87Y-173.99
X364.49Y-173.99
X158.75Y-125.73
X158.75Y-128.27
X158.75Y-130.81
X158.75Y-133.35
X166.37Y-125.73
X166.37Y-128.27
X166.37Y-130.81
X166.37Y-133.35
X144.78Y-135.89
X154.94Y-135.89
X210.82Y-107.95
X220.98Y-107.95
X116.84Y-228.6
X127.Y-228.6
X144.78Y-153.67
X154.94Y-153.67
X299.72Y-233.68
X309.88Y-233.68
X144.78Y-120.65
X154.94Y-120.65
X326.39Y-234.95
X336.55Y-234.95
X345.44Y-262.89
X345.44Y-273.05
X105.41Y-153.67
X113.03Y-153.67
X170.18Y-135.89
X180.34Y-135.89
X274.32Y-228.6
X284.48Y-228.6
X299.72Y-190.5
X309.88Y-190.5
X223.52Y-213.36
X233.68Y-213.36
X104.14Y-231.14
X114.3Y-231.14
X170.18Y-204.47
X180.34Y-204.47
X274.32Y-200.66
X284.48Y-200.66
X144.78Y-125.73
X154.94Y-125.73
X223.52Y-170.18
X233.68Y-170.18
X162.56Y-261.62
X162.56Y-271.78
X262.89Y-121.92
X270.51Y-121.92
X170.18Y-78.74
X170.18Y-91.44
X172.72Y-83.82
X299.72Y-200.66
X309.88Y-200.66
X248.92Y-208.28
X259.08Y-208.28
X262.89Y-157.48
X270.51Y-157.48
X105.41Y-234.95
X113.03Y-234.95
X170.18Y-140.97
X180.34Y-140.97
X274.32Y-205.74
X284.48Y-205.74
X210.82Y-226.06
X220.98Y-226.06
X287.02Y-201.93
X297.18Y-201.93
X275.59Y-147.32
X280.67Y-147.32
X120.65Y-199.39
X123.19Y-199.39
X300.99Y-105.41
X300.99Y-107.95
X300.99Y-110.49
X300.99Y-113.03
X308.61Y-105.41
X308.61Y-107.95
X308.61Y-110.49
X308.61Y-113.03
X116.84Y-115.57
X127.Y-115.57
X274.32Y-124.46
X284.48Y-124.46
X327.66Y-176.53
X337.82Y-176.53
X325.12Y-185.42
X337.82Y-185.42
X248.92Y-226.06
X259.08Y-226.06
X226.06Y-247.65
X231.14Y-247.65
X105.41Y-123.19
X113.03Y-123.19
X349.25Y-100.33
X349.25Y-102.87
X349.25Y-105.41
X349.25Y-107.95
X349.25Y-110.49
X349.25Y-113.03
X349.25Y-115.57
X349.25Y-118.11
X349.25Y-120.65
X349.25Y-123.19
X349.25Y-125.73
X349.25Y-128.27
X349.25Y-130.81
X349.25Y-133.35
X349.25Y-135.89
X349.25Y-138.43
X349.25Y-140.97
X349.25Y-143.51
X349.25Y-146.05
X349.25Y-148.59
X364.49Y-100.33
X364.49Y-102.87
X364.49Y-105.41
X364.49Y-107.95
X364.49Y-110.49
X364.49Y-113.03
X364.49Y-115.57
X364.49Y-118.11
X364.49Y-120.65
X364.49Y-123.19
X364.49Y-125.73
X364.49Y-128.27
X364.49Y-130.81
X364.49Y-133.35
X364.49Y-135.89
X364.49Y-138.43
X364.49Y-140.97
X364.49Y-143.51
X364.49Y-146.05
X364.49Y-148.59
X116.84Y-113.03
X127.Y-113.03
X198.12Y-232.41
X208.28Y-232.41
X248.92Y-213.36
X259.08Y-213.36
X313.69Y-177.8
X321.31Y-177.8
X223.52Y-227.33
X233.68Y-227.33
X237.49Y-203.2
X245.11Y-203.2
X313.69Y-127.
X313.69Y-129.54
X313.69Y-132.08
X313.69Y-134.62
X321.31Y-127.
X321.31Y-129.54
X321.31Y-132.08
X321.31Y-134.62
X116.84Y-161.29
X127.Y-161.29
X198.12Y-191.77
X208.28Y-191.77
X327.66Y-100.33
X337.82Y-100.33
X147.32Y-195.58
X147.32Y-198.12
X147.32Y-200.66
X147.32Y-203.2
X147.32Y-205.74
X147.32Y-208.28
X147.32Y-210.82
X147.32Y-213.36
X149.86Y-195.58
X149.86Y-198.12
X149.86Y-200.66
X149.86Y-203.2
X149.86Y-205.74
X149.86Y-208.28
X149.86Y-210.82
X149.86Y-213.36
X237.49Y-187.96
X245.11Y-187.96
X341.63Y-156.21
X341.63Y-158.75
X341.63Y-161.29
X341.63Y-163.83
X341.63Y-166.37
X341.63Y-168.91
X341.63Y-171.45
X349.25Y-156.21
X349.25Y-158.75
X349.25Y-161.29
X349.25Y-163.83
X349.25Y-166.37
X349.25Y-168.91
X349.25Y-171.45
X116.84Y-226.06
X127.Y-226.06
X144.78Y-158.75
X154.94Y-158.75
X236.22Y-184.15
X246.38Y-184.15
X326.39Y-140.97
X336.55Y-140.97
X189.23Y-80.01
X189.23Y-82.55
X191.77Y-80.01
X191.77Y-82.55
X194.31Y-80.01
X194.31Y-82.55
X196.85Y-80.01
X196.85Y-82.55
X199.39Y-80.01
X199.39Y-82.55
X201.93Y-80.01
X201.93Y-82.55
X204.47Y-80.01
X204.47Y-82.55
X207.01Y-80.01
X207.01Y-82.55
X345.44Y-107.95
X345.44Y-118.11
X237.49Y-205.74
X237.49Y-208.28
X237.49Y-210.82
X237.49Y-213.36
X245.11Y-205.74
X245.11Y-208.28
X245.11Y-210.82
X245.11Y-213.36
X116.84Y-196.85
X127.Y-196.85
X198.12Y-201.93
X208.28Y-201.93
X182.88Y-80.01
X182.88Y-90.17
X288.29Y-116.84
X295.91Y-116.84
X212.09Y-165.1
X219.71Y-165.1
X300.99Y-185.42
X306.07Y-185.42
X105.41Y-125.73
X105.41Y-128.27
X105.41Y-130.81
X105.41Y-133.35
X113.03Y-125.73
X113.03Y-128.27
X113.03Y-130.81
X113.03Y-133.35
X144.78Y-151.13
X154.94Y-151.13
X248.92Y-121.92
X259.08Y-121.92
X325.12Y-134.62
X337.82Y-134.62
X328.93Y-232.41
X336.55Y-232.41
X158.75Y-234.95
X166.37Y-234.95
X186.69Y-165.1
X194.31Y-165.1
X158.75Y-179.07
X166.37Y-179.07
X262.89Y-200.66
X262.89Y-203.2
X262.89Y-205.74
X262.89Y-208.28
X270.51Y-200.66
X270.51Y-203.2
X270.51Y-205.74
X270.51Y-208.28
X236.22Y-135.89
X246.38Y-135.89
X325.12Y-93.98
X337.82Y-93.98
X199.39Y-212.09
X199.39Y-224.79
X300.99Y-228.6
X306.07Y-228.6
X158.75Y-212.09
X166.37Y-212.09
X158.75Y-140.97
X158.75Y-143.51
X158.75Y-146.05
X158.75Y-148.59
X166.37Y-140.97
X166.37Y-143.51
X166.37Y-146.05
X166.37Y-148.59
X236.22Y-130.81
X246.38Y-130.81
X223.52Y-114.3
X233.68Y-114.3
X133.35Y-120.65
X140.97Y-120.65
X158.75Y-99.06
X166.37Y-99.06
X274.32Y-101.6
X274.32Y-114.3
X158.75Y-110.49
X158.75Y-113.03
X158.75Y-115.57
X158.75Y-118.11
X166.37Y-110.49
X166.37Y-113.03
X166.37Y-115.57
X166.37Y-118.11
X198.12Y-167.64
X208.28Y-167.64
X281.94Y-102.87
X281.94Y-113.03
X251.46Y-177.8
X256.54Y-177.8
X212.09Y-220.98
X219.71Y-220.98
X262.89Y-101.6
X262.89Y-104.14
X262.89Y-106.68
X262.89Y-109.22
X262.89Y-111.76
X262.89Y-114.3
X262.89Y-116.84
X262.89Y-119.38
X270.51Y-101.6
X270.51Y-104.14
X270.51Y-106.68
X270.51Y-109.22
X270.51Y-111.76
X270.51Y-114.3
X270.51Y-116.84
X270.51Y-119.38
X287.02Y-179.07
X297.18Y-179.07
X299.72Y-152.4
X309.88Y-152.4
X116.84Y-140.97
X127.Y-140.97
X237.49Y-127.
X245.11Y-127.
X92.71Y-133.35
X92.71Y-135.89
X92.71Y-138.43
X92.71Y-140.97
X92.71Y-143.51
X95.25Y-133.35
X95.25Y-135.89
X95.25Y-138.43
X95.25Y-140.97
X95.25Y-143.51
X105.41Y-181.61
X105.41Y-184.15
X105.41Y-186.69
X105.41Y-189.23
X113.03Y-181.61
X113.03Y-184.15
X113.03Y-186.69
X113.03Y-189.23
X144.78Y-113.03
X154.94Y-113.03
X341.63Y-87.63
X341.63Y-97.79
X104.14Y-228.6
X114.3Y-228.6
X132.08Y-165.1
X142.24Y-165.1
X299.72Y-236.22
X309.88Y-236.22
X144.78Y-118.11
X154.94Y-118.11
X223.52Y-172.72
X233.68Y-172.72
X116.84Y-186.69
X127.Y-186.69
X170.18Y-196.85
X180.34Y-196.85
X299.72Y-205.74
X309.88Y-205.74
X198.12Y-127.
X208.28Y-127.
X223.52Y-137.16
X233.68Y-137.16
X252.73Y-255.27
X252.73Y-257.81
X255.27Y-255.27
X255.27Y-257.81
X257.81Y-255.27
X257.81Y-257.81
X260.35Y-255.27
X260.35Y-257.81
X262.89Y-255.27
X262.89Y-257.81
X265.43Y-255.27
X265.43Y-257.81
X267.97Y-255.27
X267.97Y-257.81
X270.51Y-255.27
X270.51Y-257.81
X290.83Y-265.43
X290.83Y-275.59
X170.18Y-113.03
X180.34Y-113.03
X274.32Y-195.58
X284.48Y-195.58
X223.52Y-200.66
X233.68Y-200.66
X267.97Y-265.43
X267.97Y-275.59
X274.32Y-218.44
X276.86Y-218.44
X170.18Y-125.73
X180.34Y-125.73
X299.72Y-213.36
X309.88Y-213.36
X223.52Y-162.56
X233.68Y-162.56
X262.89Y-142.24
X270.51Y-142.24
X133.35Y-250.19
X140.97Y-250.19
X144.78Y-107.95
X154.94Y-107.95
X287.02Y-243.84
X297.18Y-243.84
X210.82Y-231.14
X220.98Y-231.14
X177.8Y-264.16
X177.8Y-266.7
X180.34Y-264.16
X180.34Y-266.7
X182.88Y-264.16
X182.88Y-266.7
X185.42Y-264.16
X185.42Y-266.7
X187.96Y-264.16
X187.96Y-266.7
X116.84Y-242.57
X129.54Y-242.57
X341.63Y-196.85
X341.63Y-199.39
X341.63Y-201.93
X341.63Y-204.47
X341.63Y-207.01
X341.63Y-209.55
X341.63Y-212.09
X341.63Y-214.63
X349.25Y-196.85
X349.25Y-199.39
X349.25Y-201.93
X349.25Y-204.47
X349.25Y-207.01
X349.25Y-209.55
X349.25Y-212.09
X349.25Y-214.63
X170.18Y-186.69
X180.34Y-186.69
X280.67Y-81.28
X280.67Y-91.44
X270.51Y-265.43
X270.51Y-275.59
X313.69Y-154.94
X321.31Y-154.94
X248.92Y-198.12
X259.08Y-198.12
X212.09Y-248.92
X219.71Y-248.92
X105.41Y-138.43
X113.03Y-138.43
X288.29Y-144.78
X288.29Y-147.32
X288.29Y-149.86
X288.29Y-152.4
X295.91Y-144.78
X295.91Y-147.32
X295.91Y-149.86
X295.91Y-152.4
X116.84Y-110.49
X127.Y-110.49
X198.12Y-207.01
X208.28Y-207.01
X248.92Y-203.2
X259.08Y-203.2
X313.69Y-195.58
X321.31Y-195.58
X248.92Y-154.94
X259.08Y-154.94
X251.46Y-205.74
X256.54Y-205.74
X328.93Y-156.21
X328.93Y-158.75
X328.93Y-161.29
X328.93Y-163.83
X328.93Y-166.37
X328.93Y-168.91
X328.93Y-171.45
X336.55Y-156.21
X336.55Y-158.75
X336.55Y-161.29
X336.55Y-163.83
X336.55Y-166.37
X336.55Y-168.91
X336.55Y-171.45
X157.48Y-231.14
X167.64Y-231.14
X198.12Y-237.49
X208.28Y-237.49
X325.12Y-88.9
X337.82Y-88.9
X299.72Y-154.94
X309.88Y-154.94
X226.06Y-234.95
X231.14Y-234.95
X237.49Y-228.6
X245.11Y-228.6
X341.63Y-176.53
X341.63Y-179.07
X341.63Y-181.61
X341.63Y-184.15
X341.63Y-186.69
X341.63Y-189.23
X341.63Y-191.77
X349.25Y-176.53
X349.25Y-179.07
X349.25Y-181.61
X349.25Y-184.15
X349.25Y-186.69
X349.25Y-189.23
X349.25Y-191.77
X116.84Y-234.95
X127.Y-234.95
X274.32Y-121.92
X284.48Y-121.92
X236.22Y-217.17
X246.38Y-217.17
X274.32Y-157.48
X284.48Y-157.48
X217.17Y-80.01
X217.17Y-82.55
X219.71Y-80.01
X219.71Y-82.55
X222.25Y-80.01
X222.25Y-82.55
X224.79Y-80.01
X224.79Y-82.55
X227.33Y-80.01
X227.33Y-82.55
X212.09Y-185.42
X212.09Y-187.96
X212.09Y-190.5
X212.09Y-193.04
X219.71Y-185.42
X219.71Y-187.96
X219.71Y-190.5
X219.71Y-193.04
X170.18Y-184.15
X180.34Y-184.15
X198.12Y-240.03
X208.28Y-240.03
X248.92Y-172.72
X259.08Y-172.72
X313.69Y-95.25
X321.31Y-95.25
X212.09Y-142.24
X219.71Y-142.24
X288.29Y-195.58
X295.91Y-195.58
X248.92Y-240.03
X259.08Y-240.03
X133.35Y-237.49
X133.35Y-240.03
X133.35Y-242.57
X133.35Y-245.11
X140.97Y-237.49
X140.97Y-240.03
X140.97Y-242.57
X140.97Y-245.11
X248.92Y-116.84
X259.08Y-116.84
X116.84Y-120.65
X127.Y-120.65
X212.09Y-127.
X219.71Y-127.
X186.69Y-179.07
X194.31Y-179.07
X262.89Y-250.19
X270.51Y-250.19
X92.71Y-238.76
X92.71Y-241.3
X92.71Y-243.84
X92.71Y-246.38
X92.71Y-248.92
X95.25Y-238.76
X95.25Y-241.3
X95.25Y-243.84
X95.25Y-246.38
X95.25Y-248.92
X105.41Y-140.97
X105.41Y-143.51
X105.41Y-146.05
X105.41Y-148.59
X113.03Y-140.97
X113.03Y-143.51
X113.03Y-146.05
X113.03Y-148.59
X223.52Y-121.92
X233.68Y-121.92
X299.72Y-241.3
X309.88Y-241.3
X158.75Y-250.19
X166.37Y-250.19
X262.89Y-195.58
X270.51Y-195.58
X92.71Y-173.99
X92.71Y-176.53
X92.71Y-179.07
X92.71Y-181.61
X92.71Y-184.15
X95.25Y-173.99
X95.25Y-176.53
X95.25Y-179.07
X95.25Y-181.61
X95.25Y-184.15
X105.41Y-110.49
X105.41Y-113.03
X105.41Y-115.57
X105.41Y-118.11
X113.03Y-110.49
X113.03Y-113.03
X113.03Y-115.57
X113.03Y-118.11
X248.92Y-114.3
X259.08Y-114.3
X198.12Y-121.92
X208.28Y-121.92
X251.46Y-109.22
X256.54Y-109.22
X158.75Y-224.79
X166.37Y-224.79
X186.69Y-181.61
X186.69Y-184.15
X186.69Y-186.69
X186.69Y-189.23
X194.31Y-181.61
X194.31Y-184.15
X194.31Y-186.69
X194.31Y-189.23
X198.12Y-139.7
X208.28Y-139.7
X299.72Y-147.32
X309.88Y-147.32
X251.46Y-160.02
X256.54Y-160.02
X275.59Y-175.26
X275.59Y-187.96
X262.89Y-175.26
X262.89Y-177.8
X262.89Y-180.34
X262.89Y-182.88
X262.89Y-185.42
X262.89Y-187.96
X262.89Y-190.5
X262.89Y-193.04
X270.51Y-175.26
X270.51Y-177.8
X270.51Y-180.34
X270.51Y-182.88
X270.51Y-185.42
X270.51Y-187.96
X270.51Y-190.5
X270.51Y-193.04
X198.12Y-134.62
X208.28Y-134.62
X299.72Y-149.86
X309.88Y-149.86
X116.84Y-184.15
X127.Y-184.15
X237.49Y-96.52
X245.11Y-96.52
X288.29Y-220.98
X295.91Y-220.98
X299.72Y-198.12
X309.88Y-198.12
X299.72Y-144.78
X309.88Y-144.78
X314.96Y-261.62
X314.96Y-271.78
X237.49Y-232.41
X237.49Y-234.95
X237.49Y-237.49
X237.49Y-240.03
X237.49Y-242.57
X237.49Y-245.11
X237.49Y-247.65
X245.11Y-232.41
X245.11Y-234.95
X245.11Y-237.49
X245.11Y-240.03
X245.11Y-242.57
X245.11Y-245.11
X245.11Y-247.65
X132.08Y-167.64
X142.24Y-167.64
X299.72Y-167.64
X309.88Y-167.64
X185.42Y-170.18
X195.58Y-170.18
X223.52Y-134.62
X233.68Y-134.62
X105.41Y-194.31
X105.41Y-196.85
X105.41Y-199.39
X105.41Y-201.93
X105.41Y-204.47
X105.41Y-207.01
X105.41Y-209.55
X113.03Y-194.31
X113.03Y-196.85
X113.03Y-199.39
X113.03Y-201.93
X113.03Y-204.47
X113.03Y-207.01
X113.03Y-209.55
X116.84Y-181.61
X127.Y-181.61
X170.18Y-118.11
X180.34Y-118.11
X274.32Y-190.5
X284.48Y-190.5
X248.92Y-106.68
X259.08Y-106.68
X223.52Y-144.78
X233.68Y-144.78
X204.47Y-264.16
X204.47Y-266.7
X207.01Y-264.16
X207.01Y-266.7
X209.55Y-264.16
X209.55Y-266.7
X212.09Y-264.16
X212.09Y-266.7
X214.63Y-264.16
X214.63Y-266.7
X217.17Y-264.16
X217.17Y-266.7
X219.71Y-264.16
X219.71Y-266.7
X222.25Y-264.16
X222.25Y-266.7
X170.18Y-123.19
X180.34Y-123.19
X274.32Y-238.76
X284.48Y-238.76
X223.52Y-242.57
X233.68Y-242.57
X262.89Y-198.12
X270.51Y-198.12
X170.18Y-133.35
X180.34Y-133.35
X299.72Y-208.28
X309.88Y-208.28
X223.52Y-222.25
X233.68Y-222.25
X204.47Y-212.09
X204.47Y-224.79
X105.41Y-151.13
X113.03Y-151.13
X160.02Y-78.74
X160.02Y-91.44
X162.56Y-83.82
X274.32Y-116.84
X284.48Y-116.84
X223.52Y-245.11
X233.68Y-245.11
X325.12Y-200.66
X337.82Y-200.66
X351.79Y-88.9
X351.79Y-91.44
X354.33Y-88.9
X354.33Y-91.44
X356.87Y-88.9
X356.87Y-91.44
X359.41Y-88.9
X359.41Y-91.44
X361.95Y-88.9
X361.95Y-91.44
X116.84Y-171.45
X121.92Y-171.45
X356.87Y-196.85
X356.87Y-199.39
X356.87Y-201.93
X356.87Y-204.47
X356.87Y-207.01
X356.87Y-209.55
X356.87Y-212.09
X356.87Y-214.63
X364.49Y-196.85
X364.49Y-199.39
X364.49Y-201.93
X364.49Y-204.47
X364.49Y-207.01
X364.49Y-209.55
X364.49Y-212.09
X364.49Y-214.63
X116.84Y-105.41
X127.Y-105.41
X274.32Y-127.
X284.48Y-127.
X223.52Y-132.08
X233.68Y-132.08
X325.12Y-205.74
X337.82Y-205.74
X287.02Y-199.39
X297.18Y-199.39
X251.46Y-223.52
X256.54Y-223.52
X313.69Y-142.24
X313.69Y-144.78
X313.69Y-147.32
X313.69Y-149.86
X321.31Y-142.24
X321.31Y-144.78
X321.31Y-147.32
X321.31Y-149.86
X116.84Y-128.27
X127.Y-128.27
X198.12Y-189.23
X208.28Y-189.23
X313.69Y-180.34
X321.31Y-180.34
X299.72Y-157.48
X309.88Y-157.48
X237.49Y-200.66
X245.11Y-200.66
X333.375Y-80.645
X333.375Y-83.185
X313.69Y-101.6
X313.69Y-104.14
X313.69Y-106.68
X313.69Y-109.22
X313.69Y-111.76
X313.69Y-114.3
X313.69Y-116.84
X313.69Y-119.38
X321.31Y-101.6
X321.31Y-104.14
X321.31Y-106.68
X321.31Y-109.22
X321.31Y-111.76
X321.31Y-114.3
X321.31Y-116.84
X321.31Y-119.38
X116.84Y-201.93
X127.Y-201.93
X198.12Y-175.26
X208.28Y-175.26
X327.66Y-97.79
X337.82Y-97.79
X223.52Y-224.79
X233.68Y-224.79
X212.09Y-234.95
X219.71Y-234.95
X212.09Y-129.54
X212.09Y-132.08
X212.09Y-134.62
X212.09Y-137.16
X219.71Y-129.54
X219.71Y-132.08
X219.71Y-134.62
X219.71Y-137.16
X170.18Y-128.27
X180.34Y-128.27
X274.32Y-167.64
X284.48Y-167.64
X185.42Y-107.95
X195.58Y-107.95
X185.42Y-113.03
X195.58Y-113.03
X177.8Y-273.05
X177.8Y-275.59
X180.34Y-273.05
X180.34Y-275.59
X182.88Y-273.05
X182.88Y-275.59
X185.42Y-273.05
X185.42Y-275.59
X187.96Y-273.05
X187.96Y-275.59
X237.49Y-190.5
X237.49Y-193.04
X237.49Y-195.58
X237.49Y-198.12
X245.11Y-190.5
X245.11Y-193.04
X245.11Y-195.58
X245.11Y-198.12
X116.84Y-130.81
X127.Y-130.81
X274.32Y-243.84
X284.48Y-243.84
X236.22Y-140.97
X246.38Y-140.97
X288.29Y-96.52
X295.91Y-96.52
X341.63Y-217.17
X349.25Y-217.17
X262.89Y-172.72
X270.51Y-172.72
X356.87Y-194.31
X364.49Y-194.31
X158.75Y-156.21
X158.75Y-158.75
X158.75Y-161.29
X158.75Y-163.83
X158.75Y-166.37
X158.75Y-168.91
X158.75Y-171.45
X158.75Y-173.99
X166.37Y-156.21
X166.37Y-158.75
X166.37Y-161.29
X166.37Y-163.83
X166.37Y-166.37
X166.37Y-168.91
X166.37Y-171.45
X166.37Y-173.99
X248.92Y-124.46
X259.08Y-124.46
X344.17Y-135.89
X344.17Y-138.43
X212.09Y-139.7
X219.71Y-139.7
X158.75Y-120.65
X166.37Y-120.65
X288.29Y-182.88
X295.91Y-182.88
X300.99Y-101.6
X308.61Y-101.6
X158.75Y-214.63
X158.75Y-217.17
X158.75Y-219.71
X158.75Y-222.25
X166.37Y-214.63
X166.37Y-217.17
X166.37Y-219.71
X166.37Y-222.25
X198.12Y-102.87
X208.28Y-102.87
X288.29Y-129.54
X295.91Y-129.54
X173.99Y-201.93
X176.53Y-201.93
X105.41Y-212.09
X113.03Y-212.09
X105.41Y-237.49
X105.41Y-240.03
X105.41Y-242.57
X105.41Y-245.11
X113.03Y-237.49
X113.03Y-240.03
X113.03Y-242.57
X113.03Y-245.11
X144.78Y-130.81
X154.94Y-130.81
X223.52Y-119.38
X233.68Y-119.38
X133.35Y-138.43
X140.97Y-138.43
X288.29Y-218.44
X295.91Y-218.44
X328.93Y-104.14
X328.93Y-106.68
X328.93Y-109.22
X328.93Y-111.76
X328.93Y-114.3
X328.93Y-116.84
X328.93Y-119.38
X336.55Y-104.14
X336.55Y-106.68
X336.55Y-109.22
X336.55Y-111.76
X336.55Y-114.3
X336.55Y-116.84
X336.55Y-119.38
X198.12Y-170.18
X208.28Y-170.18
X344.17Y-87.63
X344.17Y-97.79
X251.46Y-137.16
X256.54Y-137.16
X344.17Y-128.27
X344.17Y-133.35
X262.89Y-144.78
X262.89Y-147.32
X262.89Y-149.86
X262.89Y-152.4
X270.51Y-144.78
X270.51Y-147.32
X270.51Y-149.86
X270.51Y-152.4
X299.72Y-165.1
X309.88Y-165.1
X287.02Y-133.35
X297.18Y-133.35
X116.84Y-166.37
X127.Y-166.37
X237.49Y-114.3
X245.11Y-114.3
X224.79Y-273.05
X224.79Y-275.59
X227.33Y-273.05
X227.33Y-275.59
X229.87Y-273.05
X229.87Y-275.59
X232.41Y-273.05
X232.41Y-275.59
X234.95Y-273.05
X234.95Y-275.59
X356.87Y-217.17
X364.49Y-217.17
X170.18Y-194.31
X180.34Y-194.31
X144.78Y-110.49
X154.94Y-110.49
X299.72Y-137.16
X309.88Y-137.16
X204.47Y-273.05
X204.47Y-275.59
X207.01Y-273.05
X207.01Y-275.59
X209.55Y-273.05
X209.55Y-275.59
X212.09Y-273.05
X212.09Y-275.59
X214.63Y-273.05
X214.63Y-275.59
X341.63Y-242.57
X351.79Y-242.57
X248.92Y-232.41
X259.08Y-232.41
X132.08Y-172.72
X142.24Y-172.72
X287.02Y-246.38
X297.18Y-246.38
X287.02Y-173.99
X297.18Y-173.99
X223.52Y-157.48
X233.68Y-157.48
X144.78Y-240.03
X154.94Y-240.03
X170.18Y-107.95
X180.34Y-107.95
X274.32Y-226.06
X284.48Y-226.06
X144.78Y-140.97
X154.94Y-140.97
X236.22Y-224.79
X246.38Y-224.79
X116.84Y-189.23
X127.Y-189.23
X170.18Y-199.39
X180.34Y-199.39
X299.72Y-210.82
X309.88Y-210.82
X248.92Y-200.66
X259.08Y-200.66
X341.63Y-80.01
X341.63Y-82.55
X344.17Y-80.01
X344.17Y-82.55
X346.71Y-80.01
X346.71Y-82.55
X349.25Y-80.01
X349.25Y-82.55
X351.79Y-80.01
X351.79Y-82.55
X116.84Y-191.77
X127.Y-191.77
X262.89Y-210.82
X270.51Y-210.82
X170.18Y-222.25
X180.34Y-222.25
X274.32Y-193.04
X284.48Y-193.04
X248.92Y-210.82
X259.08Y-210.82
X262.89Y-170.18
X270.51Y-170.18
X172.72Y-168.91
X177.8Y-168.91
X170.18Y-179.07
X180.34Y-179.07
X274.32Y-119.38
X284.48Y-119.38
X223.52Y-240.03
X233.68Y-240.03
X325.12Y-241.3
X337.82Y-241.3
X248.92Y-144.78
X259.08Y-144.78
X105.41Y-120.65
X113.03Y-120.65
X356.87Y-176.53
X356.87Y-179.07
X356.87Y-181.61
X356.87Y-184.15
X356.87Y-186.69
X356.87Y-189.23
X356.87Y-191.77
X364.49Y-176.53
X364.49Y-179.07
X364.49Y-181.61
X364.49Y-184.15
X364.49Y-186.69
X364.49Y-189.23
X364.49Y-191.77
X170.18Y-181.61
X180.34Y-181.61
X278.13Y-81.28
X278.13Y-91.44
X223.52Y-149.86
X233.68Y-149.86
X313.69Y-208.28
X321.31Y-208.28
X289.56Y-88.9
X289.56Y-91.44
X292.1Y-88.9
X292.1Y-91.44
X294.64Y-88.9
X294.64Y-91.44
X297.18Y-88.9
X297.18Y-91.44
X299.72Y-88.9
X299.72Y-91.44
X237.49Y-144.78
X245.11Y-144.78
X288.29Y-119.38
X288.29Y-121.92
X288.29Y-124.46
X288.29Y-127.
X295.91Y-119.38
X295.91Y-121.92
X295.91Y-124.46
X295.91Y-127.
X116.84Y-217.17
X127.Y-217.17
X198.12Y-204.47
X208.28Y-204.47
X325.12Y-246.38
X337.82Y-246.38
X248.92Y-242.57
X259.08Y-242.57
X251.46Y-218.44
X256.54Y-218.44
X313.69Y-213.36
X313.69Y-215.9
X313.69Y-218.44
X313.69Y-220.98
X313.69Y-223.52
X313.69Y-226.06
X313.69Y-228.6
X313.69Y-231.14
X321.31Y-213.36
X321.31Y-215.9
X321.31Y-218.44
X321.31Y-220.98
X321.31Y-223.52
X321.31Y-226.06
X321.31Y-228.6
X321.31Y-231.14
X116.84Y-118.11
X127.Y-118.11
X132.08Y-162.56
X142.24Y-162.56
X203.2Y-105.41
X203.2Y-107.95
X236.22Y-138.43
X246.38Y-138.43
X212.09Y-170.18
X212.09Y-172.72
X212.09Y-175.26
X212.09Y-177.8
X219.71Y-170.18
X219.71Y-172.72
X219.71Y-175.26
X219.71Y-177.8
X170.18Y-228.6
X180.34Y-228.6
X198.12Y-227.33
X208.28Y-227.33
X248.92Y-190.5
X259.08Y-190.5
X300.99Y-142.24
X306.07Y-142.24
X248.92Y-182.88
X259.08Y-182.88
X313.69Y-250.19
X321.31Y-250.19
T5
X246.38Y-267.97
X248.92Y-265.43
X248.92Y-278.13
X251.46Y-278.13
X254.Y-267.97
X254.Y-278.13
X256.54Y-278.13
X259.08Y-265.43
X259.08Y-278.13
X261.62Y-267.97
X273.05Y-267.97
X275.59Y-265.43
X275.59Y-278.13
X278.13Y-278.13
X280.67Y-267.97
X280.67Y-278.13
X283.21Y-278.13
X285.75Y-265.43
X285.75Y-278.13
X288.29Y-267.97
T6
X152.4Y-273.761
X156.21Y-266.141
X158.75Y-261.061
X355.6Y-273.761
X359.41Y-266.141
X361.95Y-261.061
X127.Y-273.761
X130.81Y-266.141
X133.35Y-261.061
X330.2Y-273.761
X334.01Y-266.141
X336.55Y-261.061
X304.8Y-273.761
X308.61Y-266.141
X311.15Y-261.061
T7
X148.59Y-271.221
X152.4Y-258.521
X156.21Y-271.221
X351.79Y-271.221
X355.6Y-258.521
X359.41Y-271.221
X123.19Y-271.221
X127.Y-258.521
X130.81Y-271.221
X326.39Y-271.221
X330.2Y-258.521
X334.01Y-271.221
X300.99Y-271.221
X304.8Y-258.521
X308.61Y-271.221
T8
X361.95Y-82.55
X95.25Y-82.55
T0
M30
