M48
;DRILL file {KiCad 4.0.5} date 03/10/17 20:53:35
;FORMAT={-:-/ absolute / inch / decimal}
FMAT,2
INCH,TZ
T1C0.018
T2C0.028
T3C0.032
T4C0.036
T5C0.070
T6C0.140
%
G90
G05
M72
T1
X2.55Y-4.625
X2.63Y-1.575
X2.724Y-1.5652
X2.75Y-4.64
X2.755Y-4.07
X2.825Y-1.5205
X2.95Y-5.
X3.005Y-5.085
X3.15Y-5.025
X3.2Y-1.95
X3.2585Y-1.6305
X3.295Y-5.305
X3.3305Y-5.05
X3.35Y-4.75
X3.4Y-1.7
X3.525Y-5.0395
X3.55Y-2.125
X3.55Y-2.875
X3.75Y-3.7
X3.825Y-2.15
X3.85Y-2.4945
X3.85Y-5.05
X3.875Y-3.15
X3.95Y-2.5195
X4.05Y-3.7
X4.1226Y-2.6085
X4.2Y-2.55
X4.295Y-4.205
X4.295Y-4.605
X4.295Y-4.71
X4.3184Y-2.5695
X4.365Y-4.965
X4.45Y-4.225
X4.475Y-3.75
X4.495Y-4.1745
X4.53Y-3.765
X4.55Y-4.825
X4.5918Y-2.9668
X4.6Y-3.025
X4.6386Y-4.9105
X4.65Y-3.77
X4.665Y-4.965
X4.7195Y-3.75
X4.75Y-3.3
X4.795Y-4.245
X4.8Y-3.7
X4.82Y-3.77
X4.865Y-4.2
X4.9659Y-2.2091
X5.Y-2.125
X5.Y-3.7395
X5.0185Y-4.179
X5.05Y-3.3
X5.05Y-3.725
X5.1Y-2.
X5.1Y-2.9
X5.115Y-5.26
X5.1443Y-3.7389
X5.195Y-3.725
X5.2Y-2.9305
X5.2251Y-4.235
X5.25Y-2.1555
X5.25Y-2.9
X5.3Y-2.
X5.3Y-2.125
X5.3Y-4.95
X5.35Y-4.75
X5.375Y-2.1195
X5.401Y-4.235
X5.45Y-4.675
X5.478Y-4.193
X5.5Y-3.028
X5.5816Y-2.9695
X5.65Y-3.3
X5.65Y-4.75
X5.65Y-5.075
X5.6898Y-3.7445
X5.719Y-3.275
X5.7501Y-3.725
X5.7745Y-2.55
X5.8Y-3.3
X5.8257Y-3.025
X5.85Y-4.8
X5.85Y-4.1745
X5.8739Y-2.5058
X5.8942Y-2.0363
X5.9Y-2.9555
X5.9Y-3.7445
X5.95Y-2.525
X5.95Y-4.19
X6.Y-2.9695
X6.035Y-4.205
X6.05Y-2.5555
X6.05Y-3.2695
X6.05Y-3.725
X6.1Y-3.3
X6.1371Y-4.2205
X6.15Y-5.075
X6.175Y-3.3
X6.198Y-2.9247
X6.2339Y-4.2343
X6.2445Y-2.9316
X6.3404Y-2.8911
X6.35Y-2.6555
X6.3778Y-2.9195
X6.408Y-3.011
X6.475Y-1.525
X6.5Y-3.028
X6.5Y-4.9825
X6.5504Y-2.6615
X6.5535Y-2.9805
X6.6Y-3.7555
X6.6Y-4.7455
X6.625Y-1.4945
X6.7Y-2.025
X6.7486Y-3.715
X6.75Y-5.0425
X6.751Y-4.182
X6.775Y-1.4695
X6.7979Y-4.1783
X6.85Y-3.759
X6.8511Y-2.6448
X6.8949Y-2.5805
X6.9Y-2.3
X6.95Y-2.15
X6.95Y-4.75
X6.9851Y-3.7419
X7.Y-1.7
X7.0405Y-4.22
X7.0461Y-3.7159
X7.05Y-2.225
X7.05Y-2.55
X7.0724Y-2.5913
X7.08Y-4.98
X7.125Y-2.125
X7.1316Y-3.7616
X7.15Y-3.
X7.175Y-2.525
X7.1929Y-3.7195
X7.2Y-2.1
X7.2155Y-4.1895
X7.25Y-2.55
X7.25Y-2.6
X7.2945Y-4.825
X7.3Y-2.03
X7.3Y-5.04
X7.35Y-2.2
X7.35Y-4.6
X7.405Y-1.985
X7.5Y-2.95
X7.505Y-1.9595
X7.575Y-3.025
X7.6Y-1.7
X7.6Y-2.675
X7.625Y-3.3
X7.65Y-4.1555
X7.675Y-3.325
X7.7Y-1.75
X7.7Y-2.675
X7.735Y-4.215
X7.75Y-3.75
X8.Y-3.8075
X8.05Y-3.75
X8.0525Y-4.955
X8.15Y-3.3
X8.15Y-3.8075
X8.2Y-2.95
X8.225Y-5.025
X8.25Y-2.9
X8.3472Y-3.3722
T2
X2.885Y-4.2355
X3.075Y-1.78
X3.25Y-4.19
X3.325Y-4.17
X3.735Y-4.15
X3.745Y-4.6
X4.095Y-5.15
X4.1Y-2.375
X4.12Y-4.97
X4.195Y-4.21
X5.4025Y-5.0365
X6.31Y-2.375
X6.425Y-5.075
X6.45Y-5.275
T3
X2.7Y-4.3
X2.75Y-4.35
X2.8Y-4.3
X3.Y-2.95
X3.Y-3.05
X3.05Y-3.
X3.55Y-4.85
X3.55Y-4.95
X3.6Y-4.8
X3.6Y-5.
X3.65Y-4.85
X3.65Y-4.95
X3.75Y-4.85
X3.75Y-4.95
X3.8Y-4.8
X3.8Y-5.
X3.85Y-4.55
X3.85Y-4.65
X3.85Y-4.85
X3.85Y-4.95
X3.9Y-4.6
X3.95Y-4.85
X3.95Y-4.95
X4.Y-4.55
X4.Y-4.65
X4.Y-4.8
X4.Y-5.
X4.05Y-4.6
X4.05Y-4.85
X4.05Y-4.95
X4.65Y-4.6
X4.65Y-4.8
X4.7Y-4.55
X4.7Y-4.65
X4.7Y-4.75
X4.7Y-4.85
X4.8Y-4.55
X4.8Y-4.65
X4.8Y-4.75
X4.8Y-4.85
X4.85Y-4.6
X4.85Y-4.8
X5.675Y-1.725
X5.725Y-1.675
X5.725Y-1.775
X5.825Y-1.725
X5.875Y-1.675
X5.875Y-1.775
X5.975Y-1.725
X6.025Y-1.675
X6.025Y-1.775
X6.05Y-4.5
X6.05Y-4.6
X6.1Y-4.55
X6.125Y-1.725
X6.175Y-1.675
X6.175Y-1.775
X6.275Y-1.725
X6.325Y-1.675
X6.325Y-1.775
X6.425Y-1.725
X6.45Y-4.55
X6.45Y-4.85
X6.475Y-1.675
X6.475Y-1.775
X6.5Y-4.5
X6.5Y-4.6
X6.5Y-4.8
X6.5Y-4.9
X6.575Y-1.725
X6.6Y-4.5
X6.6Y-4.6
X6.6Y-4.8
X6.6Y-4.9
X6.625Y-1.675
X6.625Y-1.775
X6.65Y-4.55
X6.65Y-4.85
X6.725Y-1.725
X6.775Y-1.675
X6.775Y-1.775
T4
X2.35Y-4.975
X2.375Y-2.65
X2.375Y-3.05
X2.45Y-4.675
X2.45Y-5.175
X2.475Y-2.65
X2.475Y-3.05
X2.5Y-1.3
X2.5Y-1.4
X2.5Y-1.7
X2.5Y-1.8
X2.5Y-2.1
X2.5Y-2.2
X2.55Y-4.5
X2.55Y-4.9
X2.575Y-2.65
X2.575Y-3.05
X2.6Y-1.3
X2.6Y-1.4
X2.6Y-1.7
X2.6Y-1.8
X2.6Y-2.1
X2.6Y-2.2
X2.65Y-4.5
X2.65Y-4.9
X2.675Y-2.65
X2.675Y-3.05
X2.7Y-1.3
X2.7Y-1.4
X2.7Y-1.7
X2.7Y-1.8
X2.7Y-2.1
X2.7Y-2.2
X2.7Y-3.3
X2.7Y-3.4
X2.7Y-3.5
X2.7Y-3.6
X2.7Y-3.7
X2.7Y-3.8
X2.7Y-3.9
X2.7Y-4.
X2.7Y-5.15
X2.7Y-5.25
X2.75Y-4.5
X2.75Y-4.9
X2.775Y-2.5
X2.775Y-2.6
X2.775Y-2.7
X2.8Y-1.3
X2.8Y-1.4
X2.8Y-1.7
X2.8Y-1.8
X2.8Y-2.1
X2.8Y-2.2
X2.8Y-3.3
X2.8Y-3.4
X2.8Y-3.5
X2.8Y-3.6
X2.8Y-3.7
X2.8Y-3.8
X2.8Y-3.9
X2.8Y-4.
X2.85Y-4.5
X2.85Y-4.9
X2.875Y-2.5
X2.875Y-2.6
X2.875Y-2.7
X2.9Y-1.3
X2.9Y-1.4
X2.9Y-1.7
X2.9Y-1.8
X2.9Y-2.1
X2.9Y-2.2
X2.95Y-4.5
X2.95Y-4.9
X3.Y-3.15
X3.Y-4.05
X3.Y-4.35
X3.05Y-2.45
X3.05Y-2.75
X3.05Y-4.5
X3.05Y-4.9
X3.1Y-5.15
X3.1Y-5.25
X3.15Y-4.05
X3.15Y-4.35
X3.15Y-4.5
X3.15Y-4.9
X3.2Y-2.45
X3.2Y-2.75
X3.2Y-2.95
X3.25Y-3.5
X3.25Y-3.9
X3.25Y-4.05
X3.25Y-4.35
X3.25Y-4.5
X3.25Y-4.9
X3.3Y-1.9
X3.3Y-2.3
X3.3Y-2.45
X3.3Y-2.75
X3.3Y-2.95
X3.3Y-3.15
X3.35Y-3.5
X3.35Y-3.9
X3.35Y-4.05
X3.35Y-4.35
X3.35Y-4.5
X3.35Y-4.9
X3.4Y-1.9
X3.4Y-2.3
X3.4Y-2.45
X3.4Y-2.75
X3.4Y-5.15
X3.4Y-5.25
X3.45Y-4.05
X3.45Y-4.35
X3.45Y-4.5
X3.45Y-4.9
X3.475Y-1.65
X3.475Y-1.75
X3.5Y-1.9
X3.5Y-2.3
X3.5Y-2.45
X3.5Y-2.75
X3.5Y-5.15
X3.5Y-5.25
X3.55Y-3.5
X3.55Y-3.9
X3.55Y-4.05
X3.55Y-4.35
X3.575Y-1.65
X3.575Y-1.75
X3.6Y-1.9
X3.6Y-2.3
X3.6Y-2.45
X3.6Y-2.75
X3.6Y-5.15
X3.6Y-5.25
X3.65Y-3.5
X3.65Y-3.9
X3.65Y-4.05
X3.65Y-4.35
X3.675Y-1.65
X3.675Y-1.75
X3.7Y-1.9
X3.7Y-2.3
X3.7Y-2.45
X3.7Y-2.75
X3.7Y-5.15
X3.7Y-5.25
X3.75Y-3.5
X3.75Y-3.9
X3.75Y-4.05
X3.75Y-4.35
X3.75Y-4.5
X3.75Y-4.7
X3.775Y-1.65
X3.775Y-1.75
X3.8Y-1.9
X3.8Y-2.3
X3.8Y-2.45
X3.8Y-2.75
X3.8Y-5.15
X3.8Y-5.25
X3.85Y-3.
X3.85Y-3.5
X3.85Y-3.9
X3.85Y-4.05
X3.85Y-4.35
X3.875Y-1.65
X3.875Y-1.75
X3.9Y-1.9
X3.9Y-2.3
X3.9Y-2.45
X3.9Y-2.75
X3.95Y-2.9
X3.95Y-3.
X3.95Y-3.5
X3.95Y-3.9
X3.95Y-4.05
X3.95Y-4.35
X4.Y-1.9
X4.Y-2.3
X4.Y-2.45
X4.Y-2.75
X4.05Y-3.5
X4.05Y-3.9
X4.05Y-4.05
X4.05Y-4.35
X4.1Y-2.45
X4.1Y-2.75
X4.15Y-2.9
X4.15Y-3.
X4.15Y-4.05
X4.15Y-4.35
X4.15Y-4.5
X4.15Y-4.9
X4.2Y-2.45
X4.2Y-2.75
X4.25Y-3.
X4.25Y-4.5
X4.25Y-4.9
X4.25Y-5.15
X4.25Y-5.25
X4.3Y-2.45
X4.3Y-2.75
X4.3Y-4.05
X4.3Y-4.35
X4.35Y-3.15
X4.35Y-3.45
X4.35Y-3.6
X4.35Y-3.9
X4.35Y-4.5
X4.35Y-4.9
X4.35Y-5.15
X4.35Y-5.25
X4.4Y-2.45
X4.4Y-2.75
X4.45Y-4.05
X4.45Y-4.35
X4.45Y-4.5
X4.45Y-4.7
X4.45Y-4.8
X4.45Y-4.9
X4.45Y-5.15
X4.45Y-5.25
X4.5Y-2.45
X4.5Y-2.75
X4.55Y-3.15
X4.55Y-3.45
X4.55Y-3.6
X4.55Y-3.9
X4.55Y-4.05
X4.55Y-4.35
X4.55Y-4.5
X4.55Y-4.9
X4.55Y-5.15
X4.55Y-5.25
X4.65Y-2.45
X4.65Y-2.75
X4.65Y-3.15
X4.65Y-3.45
X4.65Y-3.6
X4.65Y-3.9
X4.65Y-4.05
X4.65Y-4.35
X4.65Y-5.15
X4.65Y-5.25
X4.75Y-3.15
X4.75Y-3.45
X4.75Y-3.6
X4.75Y-3.9
X4.75Y-4.05
X4.75Y-4.35
X4.75Y-5.15
X4.75Y-5.25
X4.8Y-1.9
X4.8Y-2.3
X4.8Y-2.45
X4.8Y-2.75
X4.85Y-3.15
X4.85Y-3.45
X4.85Y-3.6
X4.85Y-3.9
X4.85Y-4.05
X4.85Y-4.35
X4.85Y-5.15
X4.85Y-5.25
X4.9Y-1.9
X4.9Y-2.3
X4.9Y-2.45
X4.9Y-2.75
X4.95Y-3.15
X4.95Y-3.45
X4.95Y-3.6
X4.95Y-3.9
X4.95Y-4.05
X4.95Y-4.35
X4.95Y-4.5
X4.95Y-4.9
X4.95Y-5.15
X4.95Y-5.25
X5.Y-1.65
X5.Y-1.75
X5.Y-1.9
X5.Y-2.3
X5.Y-2.45
X5.Y-2.75
X5.05Y-3.15
X5.05Y-3.45
X5.05Y-3.6
X5.05Y-3.9
X5.05Y-4.05
X5.05Y-4.35
X5.05Y-4.5
X5.05Y-4.9
X5.1Y-1.65
X5.1Y-1.75
X5.1Y-1.9
X5.1Y-2.3
X5.1Y-2.45
X5.1Y-2.75
X5.15Y-3.15
X5.15Y-3.45
X5.15Y-3.6
X5.15Y-3.9
X5.15Y-4.05
X5.15Y-4.35
X5.15Y-4.5
X5.15Y-4.9
X5.2Y-1.65
X5.2Y-1.75
X5.2Y-1.9
X5.2Y-2.3
X5.2Y-2.45
X5.2Y-2.75
X5.25Y-3.15
X5.25Y-3.45
X5.25Y-3.6
X5.25Y-3.9
X5.25Y-4.05
X5.25Y-4.35
X5.25Y-4.5
X5.25Y-4.9
X5.3Y-1.65
X5.3Y-1.75
X5.3Y-1.9
X5.3Y-2.3
X5.3Y-2.45
X5.3Y-2.75
X5.35Y-3.15
X5.35Y-3.45
X5.35Y-3.6
X5.35Y-3.9
X5.35Y-4.05
X5.35Y-4.35
X5.35Y-4.5
X5.35Y-4.9
X5.4Y-1.65
X5.4Y-1.75
X5.4Y-1.9
X5.4Y-2.3
X5.4Y-2.45
X5.4Y-2.75
X5.4Y-5.15
X5.4Y-5.25
X5.45Y-3.15
X5.45Y-3.45
X5.45Y-3.6
X5.45Y-3.9
X5.45Y-4.05
X5.45Y-4.35
X5.45Y-4.5
X5.45Y-4.9
X5.5Y-1.9
X5.5Y-2.3
X5.5Y-5.15
X5.5Y-5.25
X5.55Y-3.15
X5.55Y-3.45
X5.55Y-3.6
X5.55Y-3.9
X5.55Y-4.05
X5.55Y-4.35
X5.55Y-4.5
X5.55Y-4.9
X5.6Y-1.9
X5.6Y-2.3
X5.6Y-2.45
X5.6Y-2.75
X5.6Y-5.15
X5.6Y-5.25
X5.65Y-3.15
X5.65Y-3.45
X5.65Y-3.6
X5.65Y-3.9
X5.65Y-4.05
X5.65Y-4.35
X5.65Y-4.5
X5.65Y-4.9
X5.7Y-1.9
X5.7Y-2.3
X5.7Y-5.15
X5.7Y-5.25
X5.75Y-2.45
X5.75Y-2.75
X5.75Y-3.15
X5.75Y-3.45
X5.75Y-3.6
X5.75Y-3.9
X5.75Y-4.05
X5.75Y-4.35
X5.75Y-4.5
X5.75Y-4.9
X5.8Y-1.9
X5.8Y-2.3
X5.8Y-5.15
X5.8Y-5.25
X5.85Y-2.45
X5.85Y-2.75
X5.85Y-3.15
X5.85Y-3.45
X5.85Y-3.6
X5.85Y-3.9
X5.85Y-4.05
X5.85Y-4.35
X5.85Y-4.5
X5.85Y-4.9
X5.9Y-1.9
X5.9Y-2.3
X5.9Y-5.15
X5.9Y-5.25
X5.95Y-2.45
X5.95Y-2.75
X5.95Y-3.15
X5.95Y-3.45
X5.95Y-3.6
X5.95Y-3.9
X5.95Y-4.05
X5.95Y-4.35
X5.95Y-4.5
X5.95Y-4.9
X6.Y-1.9
X6.Y-2.3
X6.Y-5.15
X6.Y-5.25
X6.05Y-2.45
X6.05Y-2.75
X6.05Y-3.15
X6.05Y-3.45
X6.05Y-3.6
X6.05Y-3.9
X6.05Y-4.05
X6.05Y-4.35
X6.1Y-1.9
X6.1Y-2.3
X6.1Y-5.15
X6.1Y-5.25
X6.15Y-2.45
X6.15Y-2.75
X6.15Y-3.15
X6.15Y-3.45
X6.15Y-3.6
X6.15Y-3.9
X6.15Y-4.05
X6.15Y-4.35
X6.2Y-1.9
X6.2Y-2.3
X6.25Y-2.45
X6.25Y-2.75
X6.25Y-3.15
X6.25Y-3.45
X6.25Y-3.6
X6.25Y-3.9
X6.25Y-4.05
X6.25Y-4.35
X6.25Y-4.5
X6.25Y-4.9
X6.3Y-1.9
X6.3Y-2.3
X6.35Y-2.45
X6.35Y-2.75
X6.35Y-3.15
X6.35Y-3.45
X6.35Y-3.6
X6.35Y-3.9
X6.35Y-4.05
X6.35Y-4.35
X6.35Y-4.5
X6.35Y-4.7
X6.35Y-4.8
X6.35Y-4.9
X6.4Y-1.9
X6.4Y-2.3
X6.45Y-2.45
X6.45Y-2.75
X6.45Y-3.15
X6.45Y-3.45
X6.45Y-3.6
X6.45Y-3.9
X6.45Y-4.05
X6.45Y-4.35
X6.5Y-1.9
X6.5Y-2.3
X6.55Y-3.15
X6.55Y-3.45
X6.55Y-3.6
X6.55Y-3.9
X6.55Y-4.05
X6.55Y-4.35
X6.55Y-5.15
X6.55Y-5.25
X6.6Y-1.9
X6.6Y-2.3
X6.6Y-2.45
X6.6Y-2.75
X6.65Y-3.15
X6.65Y-3.45
X6.65Y-3.6
X6.65Y-3.9
X6.65Y-4.05
X6.65Y-4.35
X6.65Y-5.15
X6.65Y-5.25
X6.75Y-2.45
X6.75Y-2.75
X6.75Y-3.15
X6.75Y-3.45
X6.75Y-3.6
X6.75Y-3.9
X6.75Y-4.05
X6.75Y-4.35
X6.75Y-4.5
X6.75Y-4.9
X6.75Y-5.15
X6.75Y-5.25
X6.85Y-2.45
X6.85Y-2.75
X6.85Y-3.15
X6.85Y-3.45
X6.85Y-3.6
X6.85Y-3.9
X6.85Y-4.05
X6.85Y-4.35
X6.85Y-4.5
X6.85Y-4.9
X6.85Y-5.15
X6.85Y-5.25
X6.95Y-2.45
X6.95Y-2.75
X6.95Y-3.15
X6.95Y-3.45
X6.95Y-3.6
X6.95Y-3.9
X6.95Y-4.05
X6.95Y-4.35
X6.95Y-4.5
X6.95Y-4.9
X6.95Y-5.15
X6.95Y-5.25
X7.Y-1.9
X7.Y-2.3
X7.05Y-2.45
X7.05Y-2.75
X7.05Y-3.15
X7.05Y-3.45
X7.05Y-3.6
X7.05Y-3.9
X7.05Y-4.05
X7.05Y-4.35
X7.05Y-4.5
X7.05Y-4.9
X7.05Y-5.15
X7.05Y-5.25
X7.1Y-1.65
X7.1Y-1.75
X7.1Y-1.9
X7.1Y-2.3
X7.15Y-2.45
X7.15Y-2.75
X7.15Y-3.15
X7.15Y-3.45
X7.15Y-3.6
X7.15Y-3.9
X7.15Y-4.05
X7.15Y-4.35
X7.15Y-4.5
X7.15Y-4.9
X7.15Y-5.15
X7.15Y-5.25
X7.2Y-1.65
X7.2Y-1.75
X7.2Y-1.9
X7.2Y-2.3
X7.25Y-2.45
X7.25Y-2.75
X7.25Y-3.15
X7.25Y-3.45
X7.25Y-3.6
X7.25Y-3.9
X7.25Y-4.05
X7.25Y-4.35
X7.25Y-4.5
X7.25Y-4.9
X7.25Y-5.15
X7.25Y-5.25
X7.3Y-1.65
X7.3Y-1.75
X7.3Y-1.9
X7.3Y-2.3
X7.35Y-2.45
X7.35Y-2.75
X7.35Y-3.15
X7.35Y-3.45
X7.35Y-3.6
X7.35Y-3.9
X7.35Y-4.05
X7.35Y-4.35
X7.35Y-4.5
X7.35Y-4.9
X7.4Y-1.65
X7.4Y-1.75
X7.4Y-1.9
X7.4Y-2.3
X7.45Y-3.15
X7.45Y-3.45
X7.45Y-3.6
X7.45Y-3.9
X7.45Y-4.05
X7.45Y-4.35
X7.45Y-4.5
X7.45Y-4.9
X7.5Y-1.65
X7.5Y-1.75
X7.5Y-1.9
X7.5Y-2.3
X7.55Y-3.15
X7.55Y-3.45
X7.55Y-3.6
X7.55Y-3.9
X7.55Y-4.05
X7.55Y-4.35
X7.55Y-4.5
X7.55Y-4.9
X7.6Y-1.9
X7.6Y-2.3
X7.65Y-3.15
X7.65Y-3.45
X7.65Y-3.6
X7.65Y-3.9
X7.65Y-4.05
X7.65Y-4.35
X7.65Y-4.5
X7.65Y-4.9
X7.7Y-1.9
X7.7Y-2.3
X7.7Y-5.15
X7.7Y-5.25
X7.75Y-3.15
X7.75Y-3.45
X7.75Y-3.6
X7.75Y-3.9
X7.75Y-4.05
X7.75Y-4.35
X7.8Y-5.15
X7.8Y-5.25
X7.85Y-3.15
X7.85Y-3.45
X7.85Y-3.6
X7.85Y-3.9
X7.9Y-2.4
X7.9Y-2.8
X7.9Y-4.05
X7.9Y-4.35
X7.9Y-5.15
X7.9Y-5.25
X7.95Y-3.15
X7.95Y-3.45
X7.95Y-3.6
X7.95Y-3.9
X8.Y-1.3
X8.Y-1.4
X8.Y-1.7
X8.Y-1.8
X8.Y-2.1
X8.Y-2.2
X8.Y-5.15
X8.Y-5.25
X8.05Y-3.15
X8.05Y-3.45
X8.05Y-3.6
X8.05Y-3.9
X8.1Y-1.3
X8.1Y-1.4
X8.1Y-1.7
X8.1Y-1.8
X8.1Y-2.1
X8.1Y-2.2
X8.1Y-5.15
X8.1Y-5.25
X8.15Y-3.15
X8.15Y-3.45
X8.15Y-3.6
X8.15Y-3.9
X8.2Y-1.3
X8.2Y-1.4
X8.2Y-1.7
X8.2Y-1.8
X8.2Y-2.1
X8.2Y-2.2
X8.2Y-5.15
X8.2Y-5.25
X8.25Y-3.15
X8.25Y-3.45
X8.25Y-3.6
X8.25Y-3.9
X8.3Y-1.3
X8.3Y-1.4
X8.3Y-1.7
X8.3Y-1.8
X8.3Y-2.1
X8.3Y-2.2
X8.3Y-2.4
X8.3Y-2.8
X8.3Y-5.15
X8.3Y-5.25
X8.4Y-1.3
X8.4Y-1.4
X8.4Y-1.7
X8.4Y-1.8
X8.4Y-2.1
X8.4Y-2.2
X8.4Y-2.4
X8.4Y-2.8
X8.4Y-4.15
X8.4Y-4.25
X8.4Y-4.35
X8.4Y-4.45
X8.4Y-4.55
X8.4Y-4.65
X8.4Y-4.75
X8.4Y-4.85
X8.4Y-5.15
X8.4Y-5.25
X8.45Y-3.15
X8.45Y-3.45
X8.45Y-3.6
X8.45Y-3.9
X8.5Y-2.4
X8.5Y-2.8
X8.5Y-4.15
X8.5Y-4.25
X8.5Y-4.35
X8.5Y-4.45
X8.5Y-4.55
X8.5Y-4.65
X8.5Y-4.75
X8.5Y-4.85
T5
X2.5Y-3.316
X2.5Y-3.472
X2.5Y-3.628
X2.5Y-3.784
T6
X2.4505Y-2.4375
X2.4505Y-4.3125
X8.1Y-2.4375
X8.1Y-4.3125
T0
M30
