G04 #@! TF.FileFunction,Copper,L1,Top,Signal*
%FSLAX46Y46*%
G04 Gerber Fmt 4.6, Leading zero omitted, Abs format (unit mm)*
G04 Created by KiCad (PCBNEW 4.0.5) date 03/10/17 20:55:59*
%MOMM*%
%LPD*%
G01*
G04 APERTURE LIST*
%ADD10C,0.100000*%
%ADD11C,0.300000*%
%ADD12C,6.350000*%
%ADD13C,1.574800*%
%ADD14R,1.574800X1.574800*%
%ADD15C,1.397000*%
%ADD16C,3.175000*%
%ADD17C,1.270000*%
%ADD18C,1.016000*%
%ADD19C,1.270000*%
%ADD20C,0.635000*%
%ADD21C,0.381000*%
%ADD22C,0.177800*%
%ADD23C,0.304800*%
G04 APERTURE END LIST*
D10*
D11*
X145002859Y-29150571D02*
X144288573Y-29150571D01*
X144217144Y-29864857D01*
X144288573Y-29793429D01*
X144431430Y-29722000D01*
X144788573Y-29722000D01*
X144931430Y-29793429D01*
X145002859Y-29864857D01*
X145074287Y-30007714D01*
X145074287Y-30364857D01*
X145002859Y-30507714D01*
X144931430Y-30579143D01*
X144788573Y-30650571D01*
X144431430Y-30650571D01*
X144288573Y-30579143D01*
X144217144Y-30507714D01*
X146002858Y-29150571D02*
X146145715Y-29150571D01*
X146288572Y-29222000D01*
X146360001Y-29293429D01*
X146431430Y-29436286D01*
X146502858Y-29722000D01*
X146502858Y-30079143D01*
X146431430Y-30364857D01*
X146360001Y-30507714D01*
X146288572Y-30579143D01*
X146145715Y-30650571D01*
X146002858Y-30650571D01*
X145860001Y-30579143D01*
X145788572Y-30507714D01*
X145717144Y-30364857D01*
X145645715Y-30079143D01*
X145645715Y-29722000D01*
X145717144Y-29436286D01*
X145788572Y-29293429D01*
X145860001Y-29222000D01*
X146002858Y-29150571D01*
X147431429Y-29150571D02*
X147574286Y-29150571D01*
X147717143Y-29222000D01*
X147788572Y-29293429D01*
X147860001Y-29436286D01*
X147931429Y-29722000D01*
X147931429Y-30079143D01*
X147860001Y-30364857D01*
X147788572Y-30507714D01*
X147717143Y-30579143D01*
X147574286Y-30650571D01*
X147431429Y-30650571D01*
X147288572Y-30579143D01*
X147217143Y-30507714D01*
X147145715Y-30364857D01*
X147074286Y-30079143D01*
X147074286Y-29722000D01*
X147145715Y-29436286D01*
X147217143Y-29293429D01*
X147288572Y-29222000D01*
X147431429Y-29150571D01*
X148574286Y-30079143D02*
X149717143Y-30079143D01*
X151217143Y-30650571D02*
X150360000Y-30650571D01*
X150788572Y-30650571D02*
X150788572Y-29150571D01*
X150645715Y-29364857D01*
X150502857Y-29507714D01*
X150360000Y-29579143D01*
X152645714Y-30650571D02*
X151788571Y-30650571D01*
X152217143Y-30650571D02*
X152217143Y-29150571D01*
X152074286Y-29364857D01*
X151931428Y-29507714D01*
X151788571Y-29579143D01*
X154074285Y-30650571D02*
X153217142Y-30650571D01*
X153645714Y-30650571D02*
X153645714Y-29150571D01*
X153502857Y-29364857D01*
X153359999Y-29507714D01*
X153217142Y-29579143D01*
X155002856Y-29150571D02*
X155145713Y-29150571D01*
X155288570Y-29222000D01*
X155359999Y-29293429D01*
X155431428Y-29436286D01*
X155502856Y-29722000D01*
X155502856Y-30079143D01*
X155431428Y-30364857D01*
X155359999Y-30507714D01*
X155288570Y-30579143D01*
X155145713Y-30650571D01*
X155002856Y-30650571D01*
X154859999Y-30579143D01*
X154788570Y-30507714D01*
X154717142Y-30364857D01*
X154645713Y-30079143D01*
X154645713Y-29722000D01*
X154717142Y-29436286D01*
X154788570Y-29293429D01*
X154859999Y-29222000D01*
X155002856Y-29150571D01*
X104304144Y-28510571D02*
X105161287Y-28510571D01*
X104732716Y-30010571D02*
X104732716Y-28510571D01*
X105661287Y-30010571D02*
X105661287Y-29010571D01*
X105661287Y-29296286D02*
X105732715Y-29153429D01*
X105804144Y-29082000D01*
X105947001Y-29010571D01*
X106089858Y-29010571D01*
X106589858Y-30010571D02*
X106589858Y-29010571D01*
X106589858Y-28510571D02*
X106518429Y-28582000D01*
X106589858Y-28653429D01*
X106661286Y-28582000D01*
X106589858Y-28510571D01*
X106589858Y-28653429D01*
X107947001Y-29010571D02*
X107947001Y-30224857D01*
X107875572Y-30367714D01*
X107804144Y-30439143D01*
X107661287Y-30510571D01*
X107447001Y-30510571D01*
X107304144Y-30439143D01*
X107947001Y-29939143D02*
X107804144Y-30010571D01*
X107518430Y-30010571D01*
X107375572Y-29939143D01*
X107304144Y-29867714D01*
X107232715Y-29724857D01*
X107232715Y-29296286D01*
X107304144Y-29153429D01*
X107375572Y-29082000D01*
X107518430Y-29010571D01*
X107804144Y-29010571D01*
X107947001Y-29082000D01*
X109304144Y-29010571D02*
X109304144Y-30224857D01*
X109232715Y-30367714D01*
X109161287Y-30439143D01*
X109018430Y-30510571D01*
X108804144Y-30510571D01*
X108661287Y-30439143D01*
X109304144Y-29939143D02*
X109161287Y-30010571D01*
X108875573Y-30010571D01*
X108732715Y-29939143D01*
X108661287Y-29867714D01*
X108589858Y-29724857D01*
X108589858Y-29296286D01*
X108661287Y-29153429D01*
X108732715Y-29082000D01*
X108875573Y-29010571D01*
X109161287Y-29010571D01*
X109304144Y-29082000D01*
X110589858Y-29939143D02*
X110447001Y-30010571D01*
X110161287Y-30010571D01*
X110018430Y-29939143D01*
X109947001Y-29796286D01*
X109947001Y-29224857D01*
X110018430Y-29082000D01*
X110161287Y-29010571D01*
X110447001Y-29010571D01*
X110589858Y-29082000D01*
X110661287Y-29224857D01*
X110661287Y-29367714D01*
X109947001Y-29510571D01*
X111304144Y-30010571D02*
X111304144Y-29010571D01*
X111304144Y-29296286D02*
X111375572Y-29153429D01*
X111447001Y-29082000D01*
X111589858Y-29010571D01*
X111732715Y-29010571D01*
X112804143Y-29939143D02*
X112661286Y-30010571D01*
X112375572Y-30010571D01*
X112232715Y-29939143D01*
X112161286Y-29796286D01*
X112161286Y-29224857D01*
X112232715Y-29082000D01*
X112375572Y-29010571D01*
X112661286Y-29010571D01*
X112804143Y-29082000D01*
X112875572Y-29224857D01*
X112875572Y-29367714D01*
X112161286Y-29510571D01*
X114161286Y-30010571D02*
X114161286Y-28510571D01*
X114161286Y-29939143D02*
X114018429Y-30010571D01*
X113732715Y-30010571D01*
X113589857Y-29939143D01*
X113518429Y-29867714D01*
X113447000Y-29724857D01*
X113447000Y-29296286D01*
X113518429Y-29153429D01*
X113589857Y-29082000D01*
X113732715Y-29010571D01*
X114018429Y-29010571D01*
X114161286Y-29082000D01*
X115947000Y-29939143D02*
X116161286Y-30010571D01*
X116518429Y-30010571D01*
X116661286Y-29939143D01*
X116732715Y-29867714D01*
X116804143Y-29724857D01*
X116804143Y-29582000D01*
X116732715Y-29439143D01*
X116661286Y-29367714D01*
X116518429Y-29296286D01*
X116232715Y-29224857D01*
X116089857Y-29153429D01*
X116018429Y-29082000D01*
X115947000Y-28939143D01*
X115947000Y-28796286D01*
X116018429Y-28653429D01*
X116089857Y-28582000D01*
X116232715Y-28510571D01*
X116589857Y-28510571D01*
X116804143Y-28582000D01*
X118018428Y-29939143D02*
X117875571Y-30010571D01*
X117589857Y-30010571D01*
X117447000Y-29939143D01*
X117375571Y-29796286D01*
X117375571Y-29224857D01*
X117447000Y-29082000D01*
X117589857Y-29010571D01*
X117875571Y-29010571D01*
X118018428Y-29082000D01*
X118089857Y-29224857D01*
X118089857Y-29367714D01*
X117375571Y-29510571D01*
X119375571Y-29010571D02*
X119375571Y-30510571D01*
X119375571Y-29939143D02*
X119232714Y-30010571D01*
X118947000Y-30010571D01*
X118804142Y-29939143D01*
X118732714Y-29867714D01*
X118661285Y-29724857D01*
X118661285Y-29296286D01*
X118732714Y-29153429D01*
X118804142Y-29082000D01*
X118947000Y-29010571D01*
X119232714Y-29010571D01*
X119375571Y-29082000D01*
X120732714Y-29010571D02*
X120732714Y-30010571D01*
X120089857Y-29010571D02*
X120089857Y-29796286D01*
X120161285Y-29939143D01*
X120304143Y-30010571D01*
X120518428Y-30010571D01*
X120661285Y-29939143D01*
X120732714Y-29867714D01*
X122018428Y-29939143D02*
X121875571Y-30010571D01*
X121589857Y-30010571D01*
X121447000Y-29939143D01*
X121375571Y-29796286D01*
X121375571Y-29224857D01*
X121447000Y-29082000D01*
X121589857Y-29010571D01*
X121875571Y-29010571D01*
X122018428Y-29082000D01*
X122089857Y-29224857D01*
X122089857Y-29367714D01*
X121375571Y-29510571D01*
X122732714Y-29010571D02*
X122732714Y-30010571D01*
X122732714Y-29153429D02*
X122804142Y-29082000D01*
X122947000Y-29010571D01*
X123161285Y-29010571D01*
X123304142Y-29082000D01*
X123375571Y-29224857D01*
X123375571Y-30010571D01*
X124732714Y-29939143D02*
X124589857Y-30010571D01*
X124304143Y-30010571D01*
X124161285Y-29939143D01*
X124089857Y-29867714D01*
X124018428Y-29724857D01*
X124018428Y-29296286D01*
X124089857Y-29153429D01*
X124161285Y-29082000D01*
X124304143Y-29010571D01*
X124589857Y-29010571D01*
X124732714Y-29082000D01*
X125946999Y-29939143D02*
X125804142Y-30010571D01*
X125518428Y-30010571D01*
X125375571Y-29939143D01*
X125304142Y-29796286D01*
X125304142Y-29224857D01*
X125375571Y-29082000D01*
X125518428Y-29010571D01*
X125804142Y-29010571D01*
X125946999Y-29082000D01*
X126018428Y-29224857D01*
X126018428Y-29367714D01*
X125304142Y-29510571D01*
X126661285Y-30010571D02*
X126661285Y-29010571D01*
X126661285Y-29296286D02*
X126732713Y-29153429D01*
X126804142Y-29082000D01*
X126946999Y-29010571D01*
X127089856Y-29010571D01*
X96482716Y-32417714D02*
X96411287Y-32489143D01*
X96197001Y-32560571D01*
X96054144Y-32560571D01*
X95839859Y-32489143D01*
X95697001Y-32346286D01*
X95625573Y-32203429D01*
X95554144Y-31917714D01*
X95554144Y-31703429D01*
X95625573Y-31417714D01*
X95697001Y-31274857D01*
X95839859Y-31132000D01*
X96054144Y-31060571D01*
X96197001Y-31060571D01*
X96411287Y-31132000D01*
X96482716Y-31203429D01*
X97339859Y-32560571D02*
X97197001Y-32489143D01*
X97125573Y-32417714D01*
X97054144Y-32274857D01*
X97054144Y-31846286D01*
X97125573Y-31703429D01*
X97197001Y-31632000D01*
X97339859Y-31560571D01*
X97554144Y-31560571D01*
X97697001Y-31632000D01*
X97768430Y-31703429D01*
X97839859Y-31846286D01*
X97839859Y-32274857D01*
X97768430Y-32417714D01*
X97697001Y-32489143D01*
X97554144Y-32560571D01*
X97339859Y-32560571D01*
X98482716Y-31560571D02*
X98482716Y-33060571D01*
X98482716Y-31632000D02*
X98625573Y-31560571D01*
X98911287Y-31560571D01*
X99054144Y-31632000D01*
X99125573Y-31703429D01*
X99197002Y-31846286D01*
X99197002Y-32274857D01*
X99125573Y-32417714D01*
X99054144Y-32489143D01*
X98911287Y-32560571D01*
X98625573Y-32560571D01*
X98482716Y-32489143D01*
X99697002Y-31560571D02*
X100054145Y-32560571D01*
X100411287Y-31560571D02*
X100054145Y-32560571D01*
X99911287Y-32917714D01*
X99839859Y-32989143D01*
X99697002Y-33060571D01*
X100982716Y-32560571D02*
X100982716Y-31560571D01*
X100982716Y-31846286D02*
X101054144Y-31703429D01*
X101125573Y-31632000D01*
X101268430Y-31560571D01*
X101411287Y-31560571D01*
X101911287Y-32560571D02*
X101911287Y-31560571D01*
X101911287Y-31060571D02*
X101839858Y-31132000D01*
X101911287Y-31203429D01*
X101982715Y-31132000D01*
X101911287Y-31060571D01*
X101911287Y-31203429D01*
X103268430Y-31560571D02*
X103268430Y-32774857D01*
X103197001Y-32917714D01*
X103125573Y-32989143D01*
X102982716Y-33060571D01*
X102768430Y-33060571D01*
X102625573Y-32989143D01*
X103268430Y-32489143D02*
X103125573Y-32560571D01*
X102839859Y-32560571D01*
X102697001Y-32489143D01*
X102625573Y-32417714D01*
X102554144Y-32274857D01*
X102554144Y-31846286D01*
X102625573Y-31703429D01*
X102697001Y-31632000D01*
X102839859Y-31560571D01*
X103125573Y-31560571D01*
X103268430Y-31632000D01*
X103982716Y-32560571D02*
X103982716Y-31060571D01*
X104625573Y-32560571D02*
X104625573Y-31774857D01*
X104554144Y-31632000D01*
X104411287Y-31560571D01*
X104197002Y-31560571D01*
X104054144Y-31632000D01*
X103982716Y-31703429D01*
X105125573Y-31560571D02*
X105697002Y-31560571D01*
X105339859Y-31060571D02*
X105339859Y-32346286D01*
X105411287Y-32489143D01*
X105554145Y-32560571D01*
X105697002Y-32560571D01*
X107768430Y-33132000D02*
X107697002Y-33060571D01*
X107554145Y-32846286D01*
X107482716Y-32703429D01*
X107411287Y-32489143D01*
X107339859Y-32132000D01*
X107339859Y-31846286D01*
X107411287Y-31489143D01*
X107482716Y-31274857D01*
X107554145Y-31132000D01*
X107697002Y-30917714D01*
X107768430Y-30846286D01*
X108982716Y-32489143D02*
X108839859Y-32560571D01*
X108554145Y-32560571D01*
X108411287Y-32489143D01*
X108339859Y-32417714D01*
X108268430Y-32274857D01*
X108268430Y-31846286D01*
X108339859Y-31703429D01*
X108411287Y-31632000D01*
X108554145Y-31560571D01*
X108839859Y-31560571D01*
X108982716Y-31632000D01*
X109482716Y-33132000D02*
X109554144Y-33060571D01*
X109697001Y-32846286D01*
X109768430Y-32703429D01*
X109839859Y-32489143D01*
X109911287Y-32132000D01*
X109911287Y-31846286D01*
X109839859Y-31489143D01*
X109768430Y-31274857D01*
X109697001Y-31132000D01*
X109554144Y-30917714D01*
X109482716Y-30846286D01*
X111697001Y-31203429D02*
X111768430Y-31132000D01*
X111911287Y-31060571D01*
X112268430Y-31060571D01*
X112411287Y-31132000D01*
X112482716Y-31203429D01*
X112554144Y-31346286D01*
X112554144Y-31489143D01*
X112482716Y-31703429D01*
X111625573Y-32560571D01*
X112554144Y-32560571D01*
X113482715Y-31060571D02*
X113625572Y-31060571D01*
X113768429Y-31132000D01*
X113839858Y-31203429D01*
X113911287Y-31346286D01*
X113982715Y-31632000D01*
X113982715Y-31989143D01*
X113911287Y-32274857D01*
X113839858Y-32417714D01*
X113768429Y-32489143D01*
X113625572Y-32560571D01*
X113482715Y-32560571D01*
X113339858Y-32489143D01*
X113268429Y-32417714D01*
X113197001Y-32274857D01*
X113125572Y-31989143D01*
X113125572Y-31632000D01*
X113197001Y-31346286D01*
X113268429Y-31203429D01*
X113339858Y-31132000D01*
X113482715Y-31060571D01*
X115411286Y-32560571D02*
X114554143Y-32560571D01*
X114982715Y-32560571D02*
X114982715Y-31060571D01*
X114839858Y-31274857D01*
X114697000Y-31417714D01*
X114554143Y-31489143D01*
X115911286Y-31060571D02*
X116911286Y-31060571D01*
X116268429Y-32560571D01*
X118625571Y-32560571D02*
X118625571Y-31060571D01*
X118625571Y-31632000D02*
X118768428Y-31560571D01*
X119054142Y-31560571D01*
X119196999Y-31632000D01*
X119268428Y-31703429D01*
X119339857Y-31846286D01*
X119339857Y-32274857D01*
X119268428Y-32417714D01*
X119196999Y-32489143D01*
X119054142Y-32560571D01*
X118768428Y-32560571D01*
X118625571Y-32489143D01*
X119839857Y-31560571D02*
X120197000Y-32560571D01*
X120554142Y-31560571D02*
X120197000Y-32560571D01*
X120054142Y-32917714D01*
X119982714Y-32989143D01*
X119839857Y-33060571D01*
X122696999Y-31060571D02*
X122696999Y-32132000D01*
X122625571Y-32346286D01*
X122482714Y-32489143D01*
X122268428Y-32560571D01*
X122125571Y-32560571D01*
X123411285Y-32560571D02*
X123411285Y-31560571D01*
X123411285Y-31060571D02*
X123339856Y-31132000D01*
X123411285Y-31203429D01*
X123482713Y-31132000D01*
X123411285Y-31060571D01*
X123411285Y-31203429D01*
X124125571Y-32560571D02*
X124125571Y-31560571D01*
X124125571Y-31703429D02*
X124196999Y-31632000D01*
X124339857Y-31560571D01*
X124554142Y-31560571D01*
X124696999Y-31632000D01*
X124768428Y-31774857D01*
X124768428Y-32560571D01*
X124768428Y-31774857D02*
X124839857Y-31632000D01*
X124982714Y-31560571D01*
X125196999Y-31560571D01*
X125339857Y-31632000D01*
X125411285Y-31774857D01*
X125411285Y-32560571D01*
X127268428Y-32560571D02*
X127268428Y-31060571D01*
X127839856Y-31060571D01*
X127982714Y-31132000D01*
X128054142Y-31203429D01*
X128125571Y-31346286D01*
X128125571Y-31560571D01*
X128054142Y-31703429D01*
X127982714Y-31774857D01*
X127839856Y-31846286D01*
X127268428Y-31846286D01*
X129411285Y-32560571D02*
X129411285Y-31774857D01*
X129339856Y-31632000D01*
X129196999Y-31560571D01*
X128911285Y-31560571D01*
X128768428Y-31632000D01*
X129411285Y-32489143D02*
X129268428Y-32560571D01*
X128911285Y-32560571D01*
X128768428Y-32489143D01*
X128696999Y-32346286D01*
X128696999Y-32203429D01*
X128768428Y-32060571D01*
X128911285Y-31989143D01*
X129268428Y-31989143D01*
X129411285Y-31917714D01*
X129911285Y-31560571D02*
X130482714Y-31560571D01*
X130125571Y-31060571D02*
X130125571Y-32346286D01*
X130196999Y-32489143D01*
X130339857Y-32560571D01*
X130482714Y-32560571D01*
X131625571Y-32489143D02*
X131482714Y-32560571D01*
X131197000Y-32560571D01*
X131054142Y-32489143D01*
X130982714Y-32417714D01*
X130911285Y-32274857D01*
X130911285Y-31846286D01*
X130982714Y-31703429D01*
X131054142Y-31632000D01*
X131197000Y-31560571D01*
X131482714Y-31560571D01*
X131625571Y-31632000D01*
X132268428Y-32560571D02*
X132268428Y-31060571D01*
X132911285Y-32560571D02*
X132911285Y-31774857D01*
X132839856Y-31632000D01*
X132696999Y-31560571D01*
X132482714Y-31560571D01*
X132339856Y-31632000D01*
X132268428Y-31703429D01*
X134196999Y-32489143D02*
X134054142Y-32560571D01*
X133768428Y-32560571D01*
X133625571Y-32489143D01*
X133554142Y-32346286D01*
X133554142Y-31774857D01*
X133625571Y-31632000D01*
X133768428Y-31560571D01*
X134054142Y-31560571D01*
X134196999Y-31632000D01*
X134268428Y-31774857D01*
X134268428Y-31917714D01*
X133554142Y-32060571D01*
X135125571Y-32560571D02*
X134982713Y-32489143D01*
X134911285Y-32346286D01*
X134911285Y-31060571D01*
X135911285Y-32560571D02*
X135768427Y-32489143D01*
X135696999Y-32346286D01*
X135696999Y-31060571D01*
D12*
X205740000Y-61912500D03*
X205740000Y-109537500D03*
X62242700Y-109537500D03*
D13*
X77470000Y-62230000D03*
X77470000Y-69850000D03*
X105410000Y-76200000D03*
X107950000Y-76200000D03*
X118110000Y-62230000D03*
X118110000Y-69850000D03*
X142240000Y-62230000D03*
X142240000Y-69850000D03*
X76200000Y-80010000D03*
X83820000Y-80010000D03*
X113030000Y-121920000D03*
X113030000Y-124460000D03*
X113030000Y-119380000D03*
X113030000Y-114300000D03*
X140970000Y-102870000D03*
X140970000Y-110490000D03*
X125730000Y-102870000D03*
X125730000Y-110490000D03*
X109220000Y-102870000D03*
X109220000Y-110490000D03*
X153670000Y-110490000D03*
X153670000Y-102870000D03*
X138430000Y-110490000D03*
X138430000Y-102870000D03*
X123190000Y-110490000D03*
X123190000Y-102870000D03*
X161290000Y-121920000D03*
X161290000Y-124460000D03*
X161290000Y-119380000D03*
X161290000Y-114300000D03*
X186690000Y-102870000D03*
X186690000Y-110490000D03*
X171450000Y-102870000D03*
X171450000Y-110490000D03*
X156210000Y-102870000D03*
X156210000Y-110490000D03*
X200660000Y-110490000D03*
X200660000Y-102870000D03*
X184150000Y-110490000D03*
X184150000Y-102870000D03*
X168910000Y-110490000D03*
X168910000Y-102870000D03*
X95250000Y-119380000D03*
X95250000Y-114300000D03*
X92710000Y-102870000D03*
X92710000Y-110490000D03*
X105410000Y-110490000D03*
X105410000Y-102870000D03*
X76200000Y-102870000D03*
X76200000Y-110490000D03*
X90170000Y-110490000D03*
X90170000Y-102870000D03*
X167640000Y-62230000D03*
X167640000Y-69850000D03*
X137160000Y-58420000D03*
X137160000Y-48260000D03*
X129540000Y-58420000D03*
X129540000Y-48260000D03*
X144780000Y-58420000D03*
X144780000Y-48260000D03*
X139700000Y-58420000D03*
X139700000Y-48260000D03*
X124460000Y-58420000D03*
X124460000Y-48260000D03*
X127000000Y-58420000D03*
X127000000Y-48260000D03*
X92710000Y-88900000D03*
X92710000Y-99060000D03*
X90170000Y-88900000D03*
X90170000Y-99060000D03*
X73025000Y-63500000D03*
D14*
X70485000Y-63500000D03*
D13*
X73025000Y-66040000D03*
X70485000Y-66040000D03*
X73025000Y-68580000D03*
X70485000Y-68580000D03*
D15*
X145415000Y-45085000D03*
X144145000Y-43815000D03*
X145415000Y-42545000D03*
X149225000Y-45085000D03*
X147955000Y-43815000D03*
X149225000Y-42545000D03*
X153035000Y-45085000D03*
X151765000Y-43815000D03*
X153035000Y-42545000D03*
X156845000Y-45085000D03*
X155575000Y-43815000D03*
X156845000Y-42545000D03*
X160655000Y-45085000D03*
X159385000Y-43815000D03*
X160655000Y-42545000D03*
X164465000Y-45085000D03*
X163195000Y-43815000D03*
X164465000Y-42545000D03*
X168275000Y-45085000D03*
X167005000Y-43815000D03*
X168275000Y-42545000D03*
X172085000Y-45085000D03*
X170815000Y-43815000D03*
X172085000Y-42545000D03*
X123190000Y-116840000D03*
X121920000Y-118110000D03*
X121920000Y-115570000D03*
X119380000Y-115570000D03*
X119380000Y-118110000D03*
X118110000Y-116840000D03*
X118110000Y-121920000D03*
X119380000Y-120650000D03*
X119380000Y-123190000D03*
X121920000Y-123190000D03*
X121920000Y-120650000D03*
X123190000Y-121920000D03*
X163830000Y-123190000D03*
X165100000Y-121920000D03*
X165100000Y-124460000D03*
X167640000Y-124460000D03*
X167640000Y-121920000D03*
X168910000Y-123190000D03*
X168910000Y-115570000D03*
X167640000Y-116840000D03*
X167640000Y-114300000D03*
X165100000Y-114300000D03*
X165100000Y-116840000D03*
X163830000Y-115570000D03*
D13*
X132080000Y-48260000D03*
X132080000Y-58420000D03*
X147320000Y-48260000D03*
X147320000Y-58420000D03*
X83820000Y-58420000D03*
X83820000Y-48260000D03*
X86360000Y-58420000D03*
X86360000Y-48260000D03*
X88900000Y-58420000D03*
X88900000Y-48260000D03*
X91440000Y-58420000D03*
X91440000Y-48260000D03*
X182880000Y-58420000D03*
X182880000Y-48260000D03*
X185420000Y-58420000D03*
X185420000Y-48260000D03*
X187960000Y-58420000D03*
X187960000Y-48260000D03*
X190500000Y-58420000D03*
X190500000Y-48260000D03*
X60325000Y-67310000D03*
X60325000Y-77470000D03*
X62865000Y-67310000D03*
X62865000Y-77470000D03*
X65405000Y-67310000D03*
X65405000Y-77470000D03*
X67945000Y-67310000D03*
X67945000Y-77470000D03*
X200660000Y-60960000D03*
X200660000Y-71120000D03*
X210820000Y-60960000D03*
X210820000Y-71120000D03*
X213360000Y-60960000D03*
X213360000Y-71120000D03*
X215900000Y-60960000D03*
X215900000Y-71120000D03*
X134620000Y-58420000D03*
X134620000Y-48260000D03*
X142240000Y-48260000D03*
X142240000Y-58420000D03*
X121920000Y-58420000D03*
X121920000Y-48260000D03*
X96520000Y-58420000D03*
X96520000Y-48260000D03*
X93980000Y-58420000D03*
X93980000Y-48260000D03*
X99060000Y-58420000D03*
X99060000Y-48260000D03*
X101600000Y-58420000D03*
X101600000Y-48260000D03*
X180340000Y-48260000D03*
X180340000Y-58420000D03*
X177800000Y-48260000D03*
X177800000Y-58420000D03*
X193040000Y-48260000D03*
X193040000Y-58420000D03*
X195580000Y-48260000D03*
X195580000Y-58420000D03*
X149860000Y-58420000D03*
X149860000Y-48260000D03*
X152400000Y-58420000D03*
X152400000Y-48260000D03*
X154940000Y-58420000D03*
X154940000Y-48260000D03*
X157480000Y-58420000D03*
X157480000Y-48260000D03*
X160020000Y-58420000D03*
X160020000Y-48260000D03*
X162560000Y-58420000D03*
X162560000Y-48260000D03*
X165100000Y-58420000D03*
X165100000Y-48260000D03*
X167640000Y-58420000D03*
X167640000Y-48260000D03*
X146050000Y-124460000D03*
X146050000Y-114300000D03*
X148590000Y-114300000D03*
X148590000Y-124460000D03*
X143510000Y-114300000D03*
X143510000Y-124460000D03*
X135890000Y-114300000D03*
X135890000Y-124460000D03*
X133350000Y-114300000D03*
X133350000Y-124460000D03*
X130810000Y-124460000D03*
X130810000Y-114300000D03*
X128270000Y-114300000D03*
X128270000Y-124460000D03*
X138430000Y-124460000D03*
X138430000Y-114300000D03*
X115570000Y-124460000D03*
X115570000Y-114300000D03*
X125730000Y-124460000D03*
X125730000Y-114300000D03*
X110490000Y-124460000D03*
X110490000Y-114300000D03*
X191770000Y-124460000D03*
X191770000Y-114300000D03*
X194310000Y-124460000D03*
X194310000Y-114300000D03*
X189230000Y-114300000D03*
X189230000Y-124460000D03*
X186690000Y-124460000D03*
X186690000Y-114300000D03*
X184150000Y-124460000D03*
X184150000Y-114300000D03*
X181610000Y-124460000D03*
X181610000Y-114300000D03*
X179070000Y-124460000D03*
X179070000Y-114300000D03*
X176530000Y-124460000D03*
X176530000Y-114300000D03*
X158750000Y-124460000D03*
X158750000Y-114300000D03*
X173990000Y-124460000D03*
X173990000Y-114300000D03*
X171450000Y-124460000D03*
X171450000Y-114300000D03*
X64770000Y-114300000D03*
X64770000Y-124460000D03*
X67310000Y-124460000D03*
X67310000Y-114300000D03*
X69850000Y-114300000D03*
X69850000Y-124460000D03*
X74930000Y-124460000D03*
X74930000Y-114300000D03*
X72390000Y-114300000D03*
X72390000Y-124460000D03*
X78740000Y-130810000D03*
X68580000Y-130810000D03*
X78740000Y-133350000D03*
X68580000Y-133350000D03*
X151130000Y-114300000D03*
X151130000Y-124460000D03*
X77470000Y-124460000D03*
X77470000Y-114300000D03*
X85090000Y-99060000D03*
X85090000Y-88900000D03*
X80010000Y-124460000D03*
X80010000Y-114300000D03*
X140970000Y-124460000D03*
X140970000Y-114300000D03*
X82550000Y-88900000D03*
X82550000Y-99060000D03*
X82550000Y-124460000D03*
X82550000Y-114300000D03*
X105410000Y-124460000D03*
X105410000Y-114300000D03*
X87630000Y-124460000D03*
X87630000Y-114300000D03*
X85090000Y-124460000D03*
X85090000Y-114300000D03*
X100330000Y-99060000D03*
X100330000Y-88900000D03*
X95250000Y-88900000D03*
X95250000Y-99060000D03*
X107950000Y-124460000D03*
X107950000Y-114300000D03*
X102870000Y-99060000D03*
X102870000Y-88900000D03*
X97790000Y-88900000D03*
X97790000Y-99060000D03*
X81280000Y-62230000D03*
X81280000Y-69850000D03*
X83820000Y-62230000D03*
X83820000Y-69850000D03*
X86360000Y-62230000D03*
X86360000Y-69850000D03*
X88900000Y-62230000D03*
X88900000Y-69850000D03*
X91440000Y-62230000D03*
X91440000Y-69850000D03*
X93980000Y-62230000D03*
X93980000Y-69850000D03*
X96520000Y-62230000D03*
X96520000Y-69850000D03*
X99060000Y-62230000D03*
X99060000Y-69850000D03*
X101600000Y-62230000D03*
X101600000Y-69850000D03*
X104140000Y-62230000D03*
X104140000Y-69850000D03*
X106680000Y-62230000D03*
X106680000Y-69850000D03*
X109220000Y-62230000D03*
X109220000Y-69850000D03*
X111760000Y-62230000D03*
X111760000Y-69850000D03*
X114300000Y-62230000D03*
X114300000Y-69850000D03*
D15*
X76200000Y-74930000D03*
X77470000Y-76200000D03*
X76200000Y-77470000D03*
D14*
X143510000Y-110490000D03*
D13*
X146050000Y-110490000D03*
X148590000Y-110490000D03*
X151130000Y-110490000D03*
X151130000Y-102870000D03*
X148590000Y-102870000D03*
X146050000Y-102870000D03*
X143510000Y-102870000D03*
D14*
X128270000Y-110490000D03*
D13*
X130810000Y-110490000D03*
X133350000Y-110490000D03*
X135890000Y-110490000D03*
X135890000Y-102870000D03*
X133350000Y-102870000D03*
X130810000Y-102870000D03*
X128270000Y-102870000D03*
D14*
X113030000Y-110490000D03*
D13*
X115570000Y-110490000D03*
X118110000Y-110490000D03*
X120650000Y-110490000D03*
X120650000Y-102870000D03*
X118110000Y-102870000D03*
X115570000Y-102870000D03*
X113030000Y-102870000D03*
D14*
X189230000Y-110490000D03*
D13*
X191770000Y-110490000D03*
X194310000Y-110490000D03*
X196850000Y-110490000D03*
X196850000Y-102870000D03*
X194310000Y-102870000D03*
X191770000Y-102870000D03*
X189230000Y-102870000D03*
D14*
X173990000Y-110490000D03*
D13*
X176530000Y-110490000D03*
X179070000Y-110490000D03*
X181610000Y-110490000D03*
X181610000Y-102870000D03*
X179070000Y-102870000D03*
X176530000Y-102870000D03*
X173990000Y-102870000D03*
D14*
X158750000Y-110490000D03*
D13*
X161290000Y-110490000D03*
X163830000Y-110490000D03*
X166370000Y-110490000D03*
X166370000Y-102870000D03*
X163830000Y-102870000D03*
X161290000Y-102870000D03*
X158750000Y-102870000D03*
D15*
X71120000Y-109220000D03*
X69850000Y-110490000D03*
X68580000Y-109220000D03*
D13*
X100330000Y-73660000D03*
X105410000Y-73660000D03*
D12*
X62242700Y-61912500D03*
D16*
X63500000Y-96113600D03*
X63500000Y-92151200D03*
X63500000Y-88188800D03*
X63500000Y-84226400D03*
D14*
X68580000Y-83820000D03*
D13*
X71120000Y-83820000D03*
X68580000Y-86360000D03*
X71120000Y-86360000D03*
X68580000Y-88900000D03*
X71120000Y-88900000D03*
X68580000Y-91440000D03*
X71120000Y-91440000D03*
X68580000Y-93980000D03*
X71120000Y-93980000D03*
X68580000Y-96520000D03*
X71120000Y-96520000D03*
X68580000Y-99060000D03*
X71120000Y-99060000D03*
X68580000Y-101600000D03*
X71120000Y-101600000D03*
X100330000Y-76200000D03*
X97790000Y-76200000D03*
X138430000Y-99060000D03*
X138430000Y-91440000D03*
X110490000Y-99060000D03*
X110490000Y-91440000D03*
X161290000Y-91440000D03*
X161290000Y-99060000D03*
X135890000Y-91440000D03*
X135890000Y-99060000D03*
X189230000Y-99060000D03*
X189230000Y-91440000D03*
X163830000Y-99060000D03*
X163830000Y-91440000D03*
X214630000Y-91440000D03*
X214630000Y-99060000D03*
X186690000Y-91440000D03*
X186690000Y-99060000D03*
X189230000Y-87630000D03*
X189230000Y-80010000D03*
X163830000Y-87630000D03*
X163830000Y-80010000D03*
X214630000Y-80010000D03*
X214630000Y-87630000D03*
X186690000Y-80010000D03*
X186690000Y-87630000D03*
X138430000Y-87630000D03*
X138430000Y-80010000D03*
X110490000Y-87630000D03*
X110490000Y-80010000D03*
X161290000Y-80010000D03*
X161290000Y-87630000D03*
X135890000Y-80010000D03*
X135890000Y-87630000D03*
D14*
X213360000Y-105410000D03*
D13*
X215900000Y-105410000D03*
X213360000Y-107950000D03*
X215900000Y-107950000D03*
X213360000Y-110490000D03*
X215900000Y-110490000D03*
X213360000Y-113030000D03*
X215900000Y-113030000D03*
X213360000Y-115570000D03*
X215900000Y-115570000D03*
X213360000Y-118110000D03*
X215900000Y-118110000D03*
X213360000Y-120650000D03*
X215900000Y-120650000D03*
X213360000Y-123190000D03*
X215900000Y-123190000D03*
D14*
X154940000Y-130810000D03*
D13*
X154940000Y-133350000D03*
X152400000Y-130810000D03*
X152400000Y-133350000D03*
X149860000Y-130810000D03*
X149860000Y-133350000D03*
X147320000Y-130810000D03*
X147320000Y-133350000D03*
X144780000Y-130810000D03*
X144780000Y-133350000D03*
X142240000Y-130810000D03*
X142240000Y-133350000D03*
X139700000Y-130810000D03*
X139700000Y-133350000D03*
X137160000Y-130810000D03*
X137160000Y-133350000D03*
D14*
X213360000Y-130810000D03*
D13*
X213360000Y-133350000D03*
X210820000Y-130810000D03*
X210820000Y-133350000D03*
X208280000Y-130810000D03*
X208280000Y-133350000D03*
X205740000Y-130810000D03*
X205740000Y-133350000D03*
X203200000Y-130810000D03*
X203200000Y-133350000D03*
X200660000Y-130810000D03*
X200660000Y-133350000D03*
X198120000Y-130810000D03*
X198120000Y-133350000D03*
X195580000Y-130810000D03*
X195580000Y-133350000D03*
D14*
X184150000Y-130810000D03*
D13*
X184150000Y-133350000D03*
X181610000Y-130810000D03*
X181610000Y-133350000D03*
X179070000Y-130810000D03*
X179070000Y-133350000D03*
X176530000Y-130810000D03*
X176530000Y-133350000D03*
X173990000Y-130810000D03*
X173990000Y-133350000D03*
X171450000Y-130810000D03*
X171450000Y-133350000D03*
X168910000Y-130810000D03*
X168910000Y-133350000D03*
X166370000Y-130810000D03*
X166370000Y-133350000D03*
D14*
X125730000Y-130810000D03*
D13*
X125730000Y-133350000D03*
X123190000Y-130810000D03*
X123190000Y-133350000D03*
X120650000Y-130810000D03*
X120650000Y-133350000D03*
X118110000Y-130810000D03*
X118110000Y-133350000D03*
X115570000Y-130810000D03*
X115570000Y-133350000D03*
X113030000Y-130810000D03*
X113030000Y-133350000D03*
X110490000Y-130810000D03*
X110490000Y-133350000D03*
X107950000Y-130810000D03*
X107950000Y-133350000D03*
D15*
X91440000Y-127000000D03*
X90170000Y-125730000D03*
X92710000Y-125730000D03*
X92710000Y-123190000D03*
X90170000Y-123190000D03*
X91440000Y-121920000D03*
X101600000Y-127000000D03*
X100330000Y-125730000D03*
X102870000Y-125730000D03*
X102870000Y-123190000D03*
X100330000Y-123190000D03*
X101600000Y-121920000D03*
X96520000Y-127000000D03*
X95250000Y-125730000D03*
X97790000Y-125730000D03*
X97790000Y-123190000D03*
X95250000Y-123190000D03*
X96520000Y-121920000D03*
D14*
X80010000Y-110490000D03*
D13*
X82550000Y-110490000D03*
X85090000Y-110490000D03*
X87630000Y-110490000D03*
X87630000Y-102870000D03*
X85090000Y-102870000D03*
X82550000Y-102870000D03*
X80010000Y-102870000D03*
D14*
X95250000Y-110490000D03*
D13*
X97790000Y-110490000D03*
X100330000Y-110490000D03*
X102870000Y-110490000D03*
X102870000Y-102870000D03*
X100330000Y-102870000D03*
X97790000Y-102870000D03*
X95250000Y-102870000D03*
D15*
X153670000Y-114300000D03*
X154940000Y-115570000D03*
X153670000Y-116840000D03*
X97790000Y-115570000D03*
X99060000Y-116840000D03*
X97790000Y-118110000D03*
X101600000Y-115570000D03*
X102870000Y-116840000D03*
X101600000Y-118110000D03*
D13*
X83820000Y-74930000D03*
D14*
X81280000Y-74930000D03*
D13*
X140970000Y-80010000D03*
D14*
X140970000Y-87630000D03*
D13*
X143510000Y-80010000D03*
X143510000Y-87630000D03*
X146050000Y-80010000D03*
X146050000Y-87630000D03*
X148590000Y-80010000D03*
X148590000Y-87630000D03*
X151130000Y-80010000D03*
X151130000Y-87630000D03*
X153670000Y-80010000D03*
X153670000Y-87630000D03*
X156210000Y-80010000D03*
X156210000Y-87630000D03*
X158750000Y-80010000D03*
X158750000Y-87630000D03*
X146050000Y-62230000D03*
D14*
X146050000Y-69850000D03*
D13*
X148590000Y-62230000D03*
X148590000Y-69850000D03*
X151130000Y-62230000D03*
X151130000Y-69850000D03*
X153670000Y-62230000D03*
X153670000Y-69850000D03*
X156210000Y-62230000D03*
X156210000Y-69850000D03*
X158750000Y-62230000D03*
X158750000Y-69850000D03*
X161290000Y-62230000D03*
X161290000Y-69850000D03*
X163830000Y-62230000D03*
X163830000Y-69850000D03*
X115570000Y-91440000D03*
D14*
X115570000Y-99060000D03*
D13*
X118110000Y-91440000D03*
X118110000Y-99060000D03*
X120650000Y-91440000D03*
X120650000Y-99060000D03*
X123190000Y-91440000D03*
X123190000Y-99060000D03*
X125730000Y-91440000D03*
X125730000Y-99060000D03*
X128270000Y-91440000D03*
X128270000Y-99060000D03*
X130810000Y-91440000D03*
X130810000Y-99060000D03*
X133350000Y-91440000D03*
X133350000Y-99060000D03*
X191770000Y-80010000D03*
D14*
X191770000Y-87630000D03*
D13*
X194310000Y-80010000D03*
X194310000Y-87630000D03*
X196850000Y-80010000D03*
X196850000Y-87630000D03*
X199390000Y-80010000D03*
X199390000Y-87630000D03*
X201930000Y-80010000D03*
X201930000Y-87630000D03*
X204470000Y-80010000D03*
X204470000Y-87630000D03*
X207010000Y-80010000D03*
X207010000Y-87630000D03*
X209550000Y-80010000D03*
X209550000Y-87630000D03*
X166370000Y-80010000D03*
D14*
X166370000Y-87630000D03*
D13*
X168910000Y-80010000D03*
X168910000Y-87630000D03*
X171450000Y-80010000D03*
X171450000Y-87630000D03*
X173990000Y-80010000D03*
X173990000Y-87630000D03*
X176530000Y-80010000D03*
X176530000Y-87630000D03*
X179070000Y-80010000D03*
X179070000Y-87630000D03*
X181610000Y-80010000D03*
X181610000Y-87630000D03*
X184150000Y-80010000D03*
X184150000Y-87630000D03*
X115570000Y-80010000D03*
D14*
X115570000Y-87630000D03*
D13*
X118110000Y-80010000D03*
X118110000Y-87630000D03*
X120650000Y-80010000D03*
X120650000Y-87630000D03*
X123190000Y-80010000D03*
X123190000Y-87630000D03*
X125730000Y-80010000D03*
X125730000Y-87630000D03*
X128270000Y-80010000D03*
X128270000Y-87630000D03*
X130810000Y-80010000D03*
X130810000Y-87630000D03*
X133350000Y-80010000D03*
X133350000Y-87630000D03*
X166370000Y-91440000D03*
D14*
X166370000Y-99060000D03*
D13*
X168910000Y-91440000D03*
X168910000Y-99060000D03*
X171450000Y-91440000D03*
X171450000Y-99060000D03*
X173990000Y-91440000D03*
X173990000Y-99060000D03*
X176530000Y-91440000D03*
X176530000Y-99060000D03*
X179070000Y-91440000D03*
X179070000Y-99060000D03*
X181610000Y-91440000D03*
X181610000Y-99060000D03*
X184150000Y-91440000D03*
X184150000Y-99060000D03*
X140970000Y-91440000D03*
D14*
X140970000Y-99060000D03*
D13*
X143510000Y-91440000D03*
X143510000Y-99060000D03*
X146050000Y-91440000D03*
X146050000Y-99060000D03*
X148590000Y-91440000D03*
X148590000Y-99060000D03*
X151130000Y-91440000D03*
X151130000Y-99060000D03*
X153670000Y-91440000D03*
X153670000Y-99060000D03*
X156210000Y-91440000D03*
X156210000Y-99060000D03*
X158750000Y-91440000D03*
X158750000Y-99060000D03*
X191770000Y-91440000D03*
D14*
X191770000Y-99060000D03*
D13*
X194310000Y-91440000D03*
X194310000Y-99060000D03*
X196850000Y-91440000D03*
X196850000Y-99060000D03*
X199390000Y-91440000D03*
X199390000Y-99060000D03*
X201930000Y-91440000D03*
X201930000Y-99060000D03*
X204470000Y-91440000D03*
X204470000Y-99060000D03*
X207010000Y-91440000D03*
X207010000Y-99060000D03*
X209550000Y-91440000D03*
X209550000Y-99060000D03*
X121920000Y-62230000D03*
D14*
X121920000Y-69850000D03*
D13*
X124460000Y-62230000D03*
X124460000Y-69850000D03*
X127000000Y-62230000D03*
X127000000Y-69850000D03*
X129540000Y-62230000D03*
X129540000Y-69850000D03*
X132080000Y-62230000D03*
X132080000Y-69850000D03*
X134620000Y-62230000D03*
X134620000Y-69850000D03*
X137160000Y-62230000D03*
X137160000Y-69850000D03*
X171450000Y-62230000D03*
D14*
X171450000Y-69850000D03*
D13*
X173990000Y-62230000D03*
X173990000Y-69850000D03*
X176530000Y-62230000D03*
X176530000Y-69850000D03*
X179070000Y-62230000D03*
X179070000Y-69850000D03*
X181610000Y-62230000D03*
X181610000Y-69850000D03*
X184150000Y-62230000D03*
X184150000Y-69850000D03*
X186690000Y-62230000D03*
X186690000Y-69850000D03*
D14*
X96520000Y-130810000D03*
D13*
X96520000Y-133350000D03*
X93980000Y-130810000D03*
X93980000Y-133350000D03*
X91440000Y-130810000D03*
X91440000Y-133350000D03*
X88900000Y-130810000D03*
X88900000Y-133350000D03*
X86360000Y-130810000D03*
X86360000Y-133350000D03*
D14*
X127000000Y-44450000D03*
D13*
X127000000Y-41910000D03*
X129540000Y-44450000D03*
X129540000Y-41910000D03*
X132080000Y-44450000D03*
X132080000Y-41910000D03*
X134620000Y-44450000D03*
X134620000Y-41910000D03*
X137160000Y-44450000D03*
X137160000Y-41910000D03*
D14*
X180340000Y-44450000D03*
D13*
X180340000Y-41910000D03*
X182880000Y-44450000D03*
X182880000Y-41910000D03*
X185420000Y-44450000D03*
X185420000Y-41910000D03*
X187960000Y-44450000D03*
X187960000Y-41910000D03*
X190500000Y-44450000D03*
X190500000Y-41910000D03*
D14*
X88265000Y-44450000D03*
D13*
X88265000Y-41910000D03*
X90805000Y-44450000D03*
X90805000Y-41910000D03*
X93345000Y-44450000D03*
X93345000Y-41910000D03*
X95885000Y-44450000D03*
X95885000Y-41910000D03*
X98425000Y-44450000D03*
X98425000Y-41910000D03*
D14*
X203200000Y-35560000D03*
D13*
X203200000Y-33020000D03*
X205740000Y-35560000D03*
X205740000Y-33020000D03*
X208280000Y-35560000D03*
X208280000Y-33020000D03*
X210820000Y-35560000D03*
X210820000Y-33020000D03*
X213360000Y-35560000D03*
X213360000Y-33020000D03*
D14*
X63500000Y-35560000D03*
D13*
X63500000Y-33020000D03*
X66040000Y-35560000D03*
X66040000Y-33020000D03*
X68580000Y-35560000D03*
X68580000Y-33020000D03*
X71120000Y-35560000D03*
X71120000Y-33020000D03*
X73660000Y-35560000D03*
X73660000Y-33020000D03*
D14*
X203200000Y-55880000D03*
D13*
X203200000Y-53340000D03*
X205740000Y-55880000D03*
X205740000Y-53340000D03*
X208280000Y-55880000D03*
X208280000Y-53340000D03*
X210820000Y-55880000D03*
X210820000Y-53340000D03*
X213360000Y-55880000D03*
X213360000Y-53340000D03*
D14*
X63500000Y-55880000D03*
D13*
X63500000Y-53340000D03*
X66040000Y-55880000D03*
X66040000Y-53340000D03*
X68580000Y-55880000D03*
X68580000Y-53340000D03*
X71120000Y-55880000D03*
X71120000Y-53340000D03*
X73660000Y-55880000D03*
X73660000Y-53340000D03*
D14*
X203200000Y-45720000D03*
D13*
X203200000Y-43180000D03*
X205740000Y-45720000D03*
X205740000Y-43180000D03*
X208280000Y-45720000D03*
X208280000Y-43180000D03*
X210820000Y-45720000D03*
X210820000Y-43180000D03*
X213360000Y-45720000D03*
X213360000Y-43180000D03*
D14*
X63500000Y-45720000D03*
D13*
X63500000Y-43180000D03*
X66040000Y-45720000D03*
X66040000Y-43180000D03*
X68580000Y-45720000D03*
X68580000Y-43180000D03*
X71120000Y-45720000D03*
X71120000Y-43180000D03*
X73660000Y-45720000D03*
X73660000Y-43180000D03*
X62230000Y-131445000D03*
X59690000Y-126365000D03*
X62230000Y-118745000D03*
D17*
X104140000Y-60325000D03*
X160274000Y-60325000D03*
D18*
X90170000Y-73025000D03*
D17*
X78105000Y-45212000D03*
X163195000Y-128905000D03*
D18*
X138430000Y-118745000D03*
X115570000Y-122555000D03*
X113030000Y-107315000D03*
X148590363Y-106032290D03*
D17*
X73279000Y-107581699D03*
D18*
X176530000Y-120650000D03*
X167640000Y-120535697D03*
X158340932Y-107552089D03*
X194310000Y-105549710D03*
X170180000Y-51435000D03*
X129540000Y-50800000D03*
X134620000Y-50800000D03*
X175260000Y-58420000D03*
X179070000Y-56515000D03*
X129540000Y-73660000D03*
X98425000Y-80010000D03*
X66802000Y-40005000D03*
X69189633Y-39756648D03*
X71755000Y-38620679D03*
X164465000Y-38735000D03*
X168275000Y-37960290D03*
X172085000Y-37325290D03*
X182880000Y-53340000D03*
X185420000Y-51562000D03*
X188087000Y-50419000D03*
X190627000Y-49771290D03*
X106680000Y-64770000D03*
X109686280Y-65265290D03*
X104714547Y-66255932D03*
X117821366Y-124726759D03*
X82765845Y-41414710D03*
X86360000Y-43180000D03*
X134620000Y-53975000D03*
X127000000Y-53975000D03*
X97155000Y-54610000D03*
X90170000Y-53975000D03*
X97790000Y-63360290D03*
X100330000Y-63995290D03*
X149712604Y-51723034D03*
X146672291Y-64770000D03*
X81280000Y-49530000D03*
X177800000Y-43180000D03*
X193040000Y-67945000D03*
X193040000Y-43180000D03*
X195580000Y-67945000D03*
X195580000Y-44450000D03*
X148590000Y-121920000D03*
X135890000Y-120650000D03*
X143510000Y-120650000D03*
X137184814Y-107568997D03*
X132717103Y-107568997D03*
X134620000Y-125730000D03*
X185280320Y-122555000D03*
X186690000Y-116840000D03*
X69977000Y-103378000D03*
X69850000Y-117856000D03*
X64770000Y-117475000D03*
X74930000Y-127000000D03*
X76327000Y-129159000D03*
X84594710Y-128270000D03*
X89535000Y-128003289D03*
X97790000Y-128270000D03*
X80010000Y-127635000D03*
D17*
X104013000Y-130810000D03*
X104648000Y-126238000D03*
X95123000Y-116840000D03*
X94869000Y-105410000D03*
X84455000Y-105918011D03*
D18*
X85090000Y-120650000D03*
X102870000Y-93980000D03*
X95250000Y-93980000D03*
X121920000Y-93980000D03*
X113665000Y-95250000D03*
X174018159Y-67178334D03*
X175129610Y-65544710D03*
X133350000Y-54749710D03*
X176530000Y-54610000D03*
X179070000Y-64770000D03*
X153670000Y-64909712D03*
X179639026Y-65819475D03*
X136525000Y-53835290D03*
X180975000Y-53975000D03*
X184150000Y-64770000D03*
X184150000Y-66040000D03*
X126134697Y-56110303D03*
X186690000Y-55880000D03*
X151130000Y-64135000D03*
X149198036Y-63647429D03*
X165100000Y-76910846D03*
X147973402Y-76834989D03*
X139700000Y-76910846D03*
X181610000Y-76200000D03*
X158610290Y-74461467D03*
X149860000Y-75069679D03*
X166458448Y-75704710D03*
X152400000Y-75425290D03*
X141771467Y-75425290D03*
X182245000Y-64135000D03*
X157429218Y-74287521D03*
X190500000Y-74930000D03*
X116630848Y-75355848D03*
X161996808Y-74155290D03*
X132080000Y-74434679D03*
X208280000Y-74930000D03*
X166381067Y-67602152D03*
X161046149Y-73433186D03*
X133350000Y-73659969D03*
X209550000Y-73660000D03*
X161290000Y-67449710D03*
X162763664Y-76479387D03*
X192405000Y-76835000D03*
X116840000Y-76835000D03*
X171475421Y-106221714D03*
X127469472Y-106146622D03*
X151130000Y-106426000D03*
X128270000Y-94615000D03*
X171414157Y-94361003D03*
X178971965Y-94384521D03*
X130664773Y-94966833D03*
X128270000Y-83820000D03*
X120650000Y-83820000D03*
X173990000Y-95478580D03*
X146052894Y-94614356D03*
X153670000Y-94615000D03*
X204470000Y-95250000D03*
X196850000Y-95250000D03*
X178828710Y-107188365D03*
X196469000Y-107061000D03*
X153289000Y-106807000D03*
X153670000Y-83045290D03*
X145262601Y-83185000D03*
X139141189Y-106502233D03*
X155882477Y-107200710D03*
X156210000Y-128905000D03*
X143510000Y-128905000D03*
X207010000Y-96710500D03*
X203200000Y-96710500D03*
X204533500Y-125857000D03*
X208915000Y-127635000D03*
X177420698Y-95045092D03*
X182698431Y-94475290D03*
X179832000Y-126492000D03*
X165100000Y-126555500D03*
X185420000Y-128016000D03*
X171450000Y-128079500D03*
X110871000Y-126111000D03*
X118491000Y-126111000D03*
X118110000Y-95758000D03*
X115062000Y-95631000D03*
X109093000Y-119634000D03*
X109093000Y-116967000D03*
X109093000Y-106807000D03*
X121793000Y-107823000D03*
X122428000Y-95758000D03*
X131953000Y-94615000D03*
X129921000Y-133604000D03*
X149860000Y-95110290D03*
X144521985Y-95110290D03*
X143510000Y-83820000D03*
X156845000Y-83820000D03*
X154940000Y-83820000D03*
X147320000Y-83820000D03*
X193675000Y-83820000D03*
X207010000Y-83820000D03*
X194945000Y-84454987D03*
X212018743Y-85653743D03*
X167640000Y-95389710D03*
X181141803Y-95543803D03*
X172665641Y-106129177D03*
X183273710Y-106413290D03*
X127000000Y-94983290D03*
X119875290Y-95250000D03*
X114173000Y-106032290D03*
X123571000Y-106680000D03*
D17*
X82550000Y-106426000D03*
X106553000Y-106934000D03*
X163830000Y-133985000D03*
X137223500Y-127927110D03*
D18*
X83693000Y-134747000D03*
D19*
X99060000Y-60325000D02*
X104140000Y-60325000D01*
X104140000Y-60325000D02*
X115570000Y-60325000D01*
X90170000Y-73025000D02*
X94615000Y-73025000D01*
X147955000Y-60325000D02*
X160274000Y-60325000D01*
X160274000Y-60325000D02*
X165735000Y-60325000D01*
X141452601Y-61442601D02*
X142240000Y-62230000D01*
X140335000Y-60325000D02*
X141452601Y-61442601D01*
X137160000Y-60325000D02*
X140335000Y-60325000D01*
X96520000Y-48260000D02*
X93980000Y-48260000D01*
X99060000Y-48260000D02*
X96520000Y-48260000D01*
X101600000Y-48260000D02*
X99060000Y-48260000D01*
X168275000Y-45085000D02*
X168973499Y-45783499D01*
X168973499Y-45783499D02*
X171386501Y-45783499D01*
X171386501Y-45783499D02*
X172085000Y-45085000D01*
X164465000Y-45085000D02*
X165163499Y-45783499D01*
X165163499Y-45783499D02*
X167576501Y-45783499D01*
X167576501Y-45783499D02*
X168275000Y-45085000D01*
X160655000Y-45085000D02*
X161353499Y-45783499D01*
X161353499Y-45783499D02*
X163766501Y-45783499D01*
X163766501Y-45783499D02*
X164465000Y-45085000D01*
X156845000Y-45085000D02*
X157543499Y-45783499D01*
X157543499Y-45783499D02*
X159956501Y-45783499D01*
X159956501Y-45783499D02*
X160655000Y-45085000D01*
X153035000Y-45085000D02*
X153733499Y-45783499D01*
X153733499Y-45783499D02*
X156146501Y-45783499D01*
X156146501Y-45783499D02*
X156845000Y-45085000D01*
X149225000Y-45085000D02*
X149923499Y-45783499D01*
X149923499Y-45783499D02*
X152336501Y-45783499D01*
X152336501Y-45783499D02*
X153035000Y-45085000D01*
X148526501Y-45783499D02*
X149225000Y-45085000D01*
X145415000Y-45085000D02*
X146113499Y-45783499D01*
X146113499Y-45783499D02*
X148526501Y-45783499D01*
X96520000Y-69850000D02*
X96520000Y-71120000D01*
X96520000Y-71120000D02*
X94615000Y-73025000D01*
X94615000Y-73025000D02*
X83168742Y-73025000D01*
X83168742Y-73025000D02*
X82092799Y-74100943D01*
X82092799Y-74100943D02*
X82092799Y-74930000D01*
X82092799Y-74930000D02*
X81280000Y-74930000D01*
X193040000Y-58420000D02*
X191135000Y-60325000D01*
X191135000Y-60325000D02*
X182245000Y-60325000D01*
X182245000Y-60325000D02*
X180340000Y-58420000D01*
X195580000Y-58420000D02*
X193040000Y-58420000D01*
X177800000Y-58420000D02*
X180340000Y-58420000D01*
X177800000Y-60325000D02*
X177800000Y-58420000D01*
X173355000Y-60325000D02*
X177800000Y-60325000D01*
X171450000Y-62230000D02*
X173355000Y-60325000D01*
X167640000Y-62230000D02*
X171450000Y-62230000D01*
X146050000Y-62230000D02*
X147955000Y-60325000D01*
X165735000Y-60325000D02*
X167640000Y-62230000D01*
X142240000Y-62230000D02*
X146050000Y-62230000D01*
X137160000Y-60325000D02*
X137160000Y-58420000D01*
X123825000Y-60325000D02*
X122707399Y-61442601D01*
X124460000Y-59690000D02*
X123825000Y-60325000D01*
X123825000Y-60325000D02*
X137160000Y-60325000D01*
X124460000Y-58420000D02*
X124460000Y-59690000D01*
X122707399Y-61442601D02*
X121920000Y-62230000D01*
X118110000Y-62230000D02*
X121920000Y-62230000D01*
X116840000Y-61595000D02*
X116992399Y-61442601D01*
X116992399Y-61442601D02*
X117322601Y-61442601D01*
X117322601Y-61442601D02*
X118110000Y-62230000D01*
X115570000Y-60325000D02*
X116840000Y-61595000D01*
X99060000Y-60325000D02*
X99060000Y-62230000D01*
X79375000Y-60325000D02*
X99060000Y-60325000D01*
X77470000Y-62230000D02*
X79375000Y-60325000D01*
X76200000Y-74930000D02*
X76898499Y-74231501D01*
X76898499Y-74231501D02*
X78524101Y-74231501D01*
X78524101Y-74231501D02*
X79222600Y-74930000D01*
X79222600Y-74930000D02*
X81280000Y-74930000D01*
X73025000Y-63500000D02*
X74295000Y-62230000D01*
X74295000Y-62230000D02*
X77470000Y-62230000D01*
D20*
X178054000Y-44323000D02*
X178181000Y-44450000D01*
X178181000Y-44450000D02*
X180340000Y-44450000D01*
X177546000Y-44323000D02*
X178054000Y-44323000D01*
X172212000Y-49657000D02*
X177546000Y-44323000D01*
X141738602Y-49657000D02*
X172212000Y-49657000D01*
X139700000Y-48260000D02*
X140341602Y-48260000D01*
X140341602Y-48260000D02*
X141738602Y-49657000D01*
X78486000Y-44958000D02*
X78359000Y-44958000D01*
X78359000Y-44958000D02*
X78105000Y-45212000D01*
X86334600Y-44958000D02*
X78486000Y-44958000D01*
X88265000Y-44450000D02*
X86842600Y-44450000D01*
X86842600Y-44450000D02*
X86334600Y-44958000D01*
D21*
X100711000Y-116840000D02*
X100330000Y-116459000D01*
X100330000Y-116459000D02*
X100330000Y-112395000D01*
X102870000Y-116840000D02*
X100711000Y-116840000D01*
D20*
X142240000Y-130810000D02*
X140957299Y-129527299D01*
X121932701Y-129527299D02*
X120650000Y-130810000D01*
X140957299Y-129527299D02*
X121932701Y-129527299D01*
D19*
X163195000Y-128905000D02*
X169545000Y-128905000D01*
X169545000Y-128905000D02*
X171450000Y-130810000D01*
X123190000Y-121920000D02*
X128270000Y-121920000D01*
X128270000Y-121920000D02*
X130810000Y-124460000D01*
X188442601Y-79222601D02*
X189230000Y-80010000D01*
X172786523Y-78003389D02*
X187223389Y-78003389D01*
X172723023Y-77939889D02*
X172786523Y-78003389D01*
X171700979Y-77939889D02*
X172723023Y-77939889D01*
X171348389Y-78292479D02*
X171700979Y-77939889D01*
X187223389Y-78003389D02*
X188442601Y-79222601D01*
X163830000Y-78105000D02*
X164017479Y-78292479D01*
X164017479Y-78292479D02*
X171348389Y-78292479D01*
X186690000Y-89535000D02*
X176530000Y-89535000D01*
X118110000Y-130810000D02*
X120650000Y-130810000D01*
X115570000Y-130810000D02*
X118110000Y-130810000D01*
X113030000Y-130810000D02*
X115570000Y-130810000D01*
X144780000Y-130810000D02*
X142240000Y-130810000D01*
X147320000Y-130810000D02*
X144780000Y-130810000D01*
X149860000Y-130810000D02*
X147320000Y-130810000D01*
X203200000Y-130810000D02*
X200660000Y-130810000D01*
X205740000Y-130810000D02*
X203200000Y-130810000D01*
X208280000Y-130810000D02*
X205740000Y-130810000D01*
X173990000Y-130810000D02*
X171450000Y-130810000D01*
X176530000Y-130810000D02*
X173990000Y-130810000D01*
X179070000Y-130810000D02*
X176530000Y-130810000D01*
X215900000Y-110490000D02*
X213360000Y-110490000D01*
X140394946Y-78358648D02*
X140470795Y-78282799D01*
X163652201Y-78282799D02*
X163830000Y-78105000D01*
X138430000Y-78105000D02*
X138683648Y-78358648D01*
X140470795Y-78282799D02*
X163652201Y-78282799D01*
X138683648Y-78358648D02*
X140394946Y-78358648D01*
X117534945Y-78282801D02*
X117712746Y-78105000D01*
X117712746Y-78105000D02*
X138430000Y-78105000D01*
X112217201Y-78282799D02*
X116145053Y-78282799D01*
X110490000Y-80010000D02*
X112217201Y-78282799D01*
X116145055Y-78282801D02*
X117534945Y-78282801D01*
X116145053Y-78282799D02*
X116145055Y-78282801D01*
X133776106Y-72148710D02*
X120408710Y-72148710D01*
X135255000Y-71755000D02*
X134169816Y-71755000D01*
X134169816Y-71755000D02*
X133776106Y-72148710D01*
X137160000Y-69850000D02*
X135255000Y-71755000D01*
X120408710Y-72148710D02*
X118897399Y-70637399D01*
X118897399Y-70637399D02*
X118110000Y-69850000D01*
X131445000Y-46355000D02*
X137795000Y-46355000D01*
X137795000Y-46355000D02*
X139700000Y-48260000D01*
X129540000Y-48260000D02*
X131445000Y-46355000D01*
X127000000Y-48260000D02*
X129540000Y-48260000D01*
X186690000Y-112395000D02*
X186690000Y-110490000D01*
X171450000Y-112395000D02*
X186690000Y-112395000D01*
X171450000Y-112395000D02*
X171450000Y-110490000D01*
X171450000Y-112395000D02*
X171450000Y-114300000D01*
X163830000Y-112395000D02*
X171450000Y-112395000D01*
X163830000Y-115570000D02*
X163131501Y-114871501D01*
X163131501Y-114871501D02*
X163131501Y-113093499D01*
X163131501Y-113093499D02*
X163830000Y-112395000D01*
X163830000Y-112395000D02*
X163830000Y-110490000D01*
X156210000Y-112395000D02*
X163830000Y-112395000D01*
X156210000Y-112395000D02*
X156210000Y-110490000D01*
X156032201Y-112572799D02*
X156210000Y-112395000D01*
X153492201Y-112572799D02*
X156032201Y-112572799D01*
X153492201Y-112572799D02*
X153670000Y-112750598D01*
X153670000Y-112750598D02*
X153670000Y-114300000D01*
X140792201Y-112572799D02*
X153492201Y-112572799D01*
X140792201Y-112572799D02*
X140970000Y-112395000D01*
X140970000Y-112395000D02*
X140970000Y-111603551D01*
X140970000Y-111603551D02*
X140970000Y-110490000D01*
X125552201Y-112572799D02*
X140792201Y-112572799D01*
X125552201Y-112572799D02*
X125730000Y-112395000D01*
X125730000Y-112395000D02*
X125730000Y-110490000D01*
X117932201Y-112572799D02*
X125552201Y-112572799D01*
X117932201Y-112572799D02*
X118110000Y-112395000D01*
X118110000Y-112395000D02*
X118110000Y-110490000D01*
X110032799Y-112572799D02*
X117932201Y-112572799D01*
X110032799Y-112572799D02*
X110490000Y-113030000D01*
X110490000Y-113030000D02*
X110490000Y-114300000D01*
X109042201Y-112572799D02*
X110032799Y-112572799D01*
X109042201Y-112572799D02*
X109220000Y-112395000D01*
X109220000Y-112395000D02*
X109220000Y-110490000D01*
X100152201Y-112572799D02*
X109042201Y-112572799D01*
X100152201Y-112572799D02*
X100330000Y-112395000D01*
X100330000Y-112395000D02*
X100330000Y-110490000D01*
X92532201Y-112572799D02*
X100152201Y-112572799D01*
X92532201Y-112572799D02*
X92710000Y-112395000D01*
X92710000Y-112395000D02*
X92710000Y-110490000D01*
X76022201Y-112572799D02*
X92532201Y-112572799D01*
X76022201Y-112572799D02*
X76200000Y-112395000D01*
X76200000Y-112395000D02*
X76200000Y-110490000D01*
X72212201Y-112572799D02*
X76022201Y-112572799D01*
X71120000Y-109220000D02*
X71818499Y-109918499D01*
X71818499Y-109918499D02*
X71818499Y-112179097D01*
X71818499Y-112179097D02*
X72212201Y-112572799D01*
X72212201Y-112572799D02*
X72390000Y-112750598D01*
X72390000Y-112750598D02*
X72390000Y-114300000D01*
X67310000Y-113186449D02*
X67923650Y-112572799D01*
X67923650Y-112572799D02*
X72212201Y-112572799D01*
X67310000Y-114300000D02*
X67310000Y-113186449D01*
X93345000Y-76200000D02*
X97790000Y-76200000D01*
X92075000Y-74930000D02*
X93345000Y-76200000D01*
X83820000Y-74930000D02*
X92075000Y-74930000D01*
X99060000Y-71755000D02*
X116205000Y-71755000D01*
X116205000Y-71755000D02*
X118110000Y-69850000D01*
X99060000Y-71755000D02*
X99060000Y-69850000D01*
X142240000Y-69850000D02*
X137160000Y-69850000D01*
X156210000Y-71755000D02*
X144145000Y-71755000D01*
X144145000Y-71755000D02*
X142240000Y-69850000D01*
X156210000Y-71755000D02*
X156210000Y-69850000D01*
X161925000Y-71755000D02*
X156210000Y-71755000D01*
X163830000Y-69850000D02*
X161925000Y-71755000D01*
X167640000Y-69850000D02*
X163830000Y-69850000D01*
X169545000Y-71755000D02*
X167640000Y-69850000D01*
X186055000Y-71755000D02*
X169545000Y-71755000D01*
X186690000Y-71120000D02*
X186055000Y-71755000D01*
X186690000Y-69850000D02*
X186690000Y-71120000D01*
X163830000Y-78105000D02*
X163830000Y-80010000D01*
X138430000Y-78105000D02*
X138430000Y-80010000D01*
X98581449Y-78105000D02*
X106045000Y-78105000D01*
X106045000Y-78105000D02*
X107950000Y-76200000D01*
X97790000Y-76200000D02*
X97790000Y-77313551D01*
X97790000Y-77313551D02*
X98581449Y-78105000D01*
X77470000Y-76200000D02*
X78168499Y-76898499D01*
X78168499Y-76898499D02*
X82965052Y-76898499D01*
X82965052Y-76898499D02*
X83820000Y-76043551D01*
X83820000Y-76043551D02*
X83820000Y-74930000D01*
X74295000Y-69850000D02*
X77470000Y-69850000D01*
X73025000Y-68580000D02*
X74295000Y-69850000D01*
X74930000Y-91440000D02*
X71120000Y-91440000D01*
X75565000Y-90805000D02*
X74930000Y-91440000D01*
X85090000Y-90805000D02*
X75565000Y-90805000D01*
X85090000Y-90805000D02*
X85090000Y-88900000D01*
X100965000Y-90805000D02*
X85090000Y-90805000D01*
X102870000Y-88900000D02*
X100965000Y-90805000D01*
X68580000Y-91440000D02*
X71120000Y-91440000D01*
X68580000Y-86360000D02*
X71120000Y-86360000D01*
X68580000Y-88900000D02*
X71120000Y-88900000D01*
X63500000Y-88188800D02*
X67868800Y-88188800D01*
X67868800Y-88188800D02*
X68580000Y-88900000D01*
X110490000Y-89535000D02*
X110337601Y-89687399D01*
X110337601Y-89687399D02*
X103657399Y-89687399D01*
X103657399Y-89687399D02*
X102870000Y-88900000D01*
X110490000Y-89535000D02*
X110490000Y-91440000D01*
X125730000Y-89535000D02*
X110490000Y-89535000D01*
X125730000Y-89535000D02*
X125730000Y-87630000D01*
X135890000Y-89535000D02*
X125730000Y-89535000D01*
X135890000Y-89535000D02*
X135890000Y-87630000D01*
X138430000Y-89535000D02*
X135890000Y-89535000D01*
X138430000Y-89535000D02*
X138430000Y-91440000D01*
X151130000Y-89535000D02*
X138430000Y-89535000D01*
X151130000Y-89535000D02*
X151130000Y-87630000D01*
X161290000Y-89535000D02*
X151130000Y-89535000D01*
X161290000Y-89535000D02*
X161290000Y-87630000D01*
X163830000Y-89535000D02*
X161290000Y-89535000D01*
X163830000Y-89535000D02*
X163830000Y-91440000D01*
X176530000Y-89535000D02*
X163830000Y-89535000D01*
X176530000Y-89535000D02*
X176530000Y-87630000D01*
X186690000Y-89535000D02*
X186690000Y-87630000D01*
X189230000Y-89535000D02*
X186690000Y-89535000D01*
X189230000Y-89535000D02*
X189230000Y-91440000D01*
X201930000Y-89535000D02*
X189230000Y-89535000D01*
X214630000Y-87630000D02*
X213516449Y-87630000D01*
X201930000Y-89535000D02*
X201930000Y-87630000D01*
X213516449Y-87630000D02*
X211611449Y-89535000D01*
X211611449Y-89535000D02*
X201930000Y-89535000D01*
X90170000Y-100965000D02*
X90170000Y-102870000D01*
X92710000Y-100965000D02*
X90170000Y-100965000D01*
X92710000Y-100965000D02*
X92710000Y-99060000D01*
X105410000Y-100965000D02*
X92710000Y-100965000D01*
X105410000Y-100965000D02*
X105410000Y-102870000D01*
X120650000Y-100965000D02*
X105410000Y-100965000D01*
X120650000Y-100965000D02*
X120650000Y-102870000D01*
X123190000Y-100965000D02*
X120650000Y-100965000D01*
X123190000Y-100965000D02*
X123190000Y-102870000D01*
X125730000Y-100965000D02*
X123190000Y-100965000D01*
X125730000Y-100965000D02*
X125730000Y-99060000D01*
X135890000Y-100965000D02*
X125730000Y-100965000D01*
X135890000Y-100965000D02*
X135890000Y-99060000D01*
X138430000Y-100965000D02*
X135890000Y-100965000D01*
X138430000Y-100965000D02*
X138430000Y-102870000D01*
X151130000Y-100965000D02*
X138430000Y-100965000D01*
X151130000Y-100965000D02*
X151130000Y-99060000D01*
X153670000Y-100965000D02*
X151130000Y-100965000D01*
X153670000Y-100965000D02*
X153670000Y-102870000D01*
X161290000Y-100965000D02*
X153670000Y-100965000D01*
X161290000Y-100965000D02*
X161290000Y-99060000D01*
X166370000Y-100965000D02*
X161290000Y-100965000D01*
X166370000Y-100965000D02*
X166370000Y-102870000D01*
X168910000Y-100965000D02*
X166370000Y-100965000D01*
X168910000Y-100965000D02*
X168910000Y-102870000D01*
X176530000Y-100965000D02*
X168910000Y-100965000D01*
X176530000Y-100965000D02*
X176530000Y-99060000D01*
X184150000Y-100965000D02*
X176530000Y-100965000D01*
X184150000Y-100965000D02*
X184150000Y-102870000D01*
X186690000Y-100965000D02*
X184150000Y-100965000D01*
X186690000Y-100965000D02*
X186690000Y-99060000D01*
X200660000Y-100965000D02*
X186690000Y-100965000D01*
X200660000Y-100965000D02*
X200660000Y-102870000D01*
X201930000Y-100965000D02*
X200660000Y-100965000D01*
X201930000Y-100965000D02*
X201930000Y-99060000D01*
X211611449Y-100965000D02*
X201930000Y-100965000D01*
X214630000Y-99060000D02*
X213516449Y-99060000D01*
X213516449Y-99060000D02*
X211611449Y-100965000D01*
X140182601Y-103657399D02*
X140970000Y-102870000D01*
X128270000Y-102870000D02*
X129870201Y-104470201D01*
X139369799Y-104470201D02*
X140182601Y-103657399D01*
X129870201Y-104470201D02*
X139369799Y-104470201D01*
X154609799Y-104470201D02*
X155422601Y-103657399D01*
X145110201Y-104470201D02*
X154609799Y-104470201D01*
X155422601Y-103657399D02*
X156210000Y-102870000D01*
X143510000Y-102870000D02*
X145110201Y-104470201D01*
X185902601Y-103657399D02*
X186690000Y-102870000D01*
X184823122Y-104736878D02*
X185902601Y-103657399D01*
X175856878Y-104736878D02*
X184823122Y-104736878D01*
X173990000Y-102870000D02*
X175856878Y-104736878D01*
X123139199Y-97205801D02*
X123190000Y-97155000D01*
X112344199Y-97205801D02*
X123139199Y-97205801D01*
X110490000Y-99060000D02*
X112344199Y-97205801D01*
X91922601Y-103657399D02*
X92710000Y-102870000D01*
X91109799Y-104470201D02*
X91922601Y-103657399D01*
X81610201Y-104470201D02*
X91109799Y-104470201D01*
X80010000Y-102870000D02*
X81610201Y-104470201D01*
D21*
X85246449Y-130810000D02*
X86360000Y-130810000D01*
X82804000Y-130810000D02*
X85246449Y-130810000D01*
X81648299Y-129654299D02*
X82804000Y-130810000D01*
X78117701Y-129654299D02*
X81648299Y-129654299D01*
X76962000Y-130810000D02*
X78117701Y-129654299D01*
X68580000Y-130810000D02*
X76962000Y-130810000D01*
D19*
X76682601Y-115468399D02*
X76250799Y-115900201D01*
X76250799Y-115900201D02*
X71450201Y-115900201D01*
X71450201Y-115900201D02*
X70637399Y-115087399D01*
X70637399Y-115087399D02*
X69850000Y-114300000D01*
X77470000Y-114300000D02*
X76682601Y-115087399D01*
X76682601Y-115087399D02*
X76682601Y-115468399D01*
X80010000Y-114300000D02*
X77470000Y-114300000D01*
X82550000Y-114300000D02*
X80010000Y-114300000D01*
X85090000Y-114300000D02*
X82550000Y-114300000D01*
X189230000Y-85725000D02*
X189407799Y-85902799D01*
X197662799Y-85902799D02*
X198602601Y-86842601D01*
X189407799Y-85902799D02*
X197662799Y-85902799D01*
X198602601Y-86842601D02*
X199390000Y-87630000D01*
X68580000Y-93980000D02*
X71120000Y-93980000D01*
X63500000Y-96113600D02*
X66446400Y-96113600D01*
X66446400Y-96113600D02*
X68580000Y-93980000D01*
X189230000Y-85725000D02*
X189230000Y-87630000D01*
X173990000Y-85725000D02*
X189230000Y-85725000D01*
X173990000Y-85725000D02*
X173990000Y-87630000D01*
X163830000Y-85725000D02*
X173990000Y-85725000D01*
X163830000Y-85725000D02*
X163830000Y-87630000D01*
X148590000Y-85725000D02*
X163830000Y-85725000D01*
X148590000Y-85725000D02*
X148590000Y-87630000D01*
X138430000Y-85725000D02*
X148590000Y-85725000D01*
X138430000Y-85725000D02*
X138430000Y-87630000D01*
X123190000Y-85725000D02*
X138430000Y-85725000D01*
X123190000Y-85725000D02*
X123190000Y-87630000D01*
X113665000Y-85725000D02*
X123190000Y-85725000D01*
X112547399Y-86842601D02*
X113665000Y-85725000D01*
X110490000Y-87630000D02*
X111277399Y-86842601D01*
X111277399Y-86842601D02*
X112547399Y-86842601D01*
X199390000Y-97155000D02*
X199390000Y-99060000D01*
X189230000Y-97155000D02*
X199390000Y-97155000D01*
X189230000Y-97155000D02*
X189230000Y-99060000D01*
X173990000Y-97155000D02*
X189230000Y-97155000D01*
X173990000Y-97155000D02*
X173990000Y-99060000D01*
X163830000Y-97155000D02*
X173990000Y-97155000D01*
X163830000Y-97155000D02*
X163830000Y-99060000D01*
X148590000Y-97155000D02*
X163830000Y-97155000D01*
X148590000Y-97155000D02*
X148590000Y-99060000D01*
X138430000Y-97155000D02*
X148590000Y-97155000D01*
X138430000Y-97155000D02*
X138430000Y-99060000D01*
X123190000Y-97155000D02*
X138430000Y-97155000D01*
X123190000Y-97155000D02*
X123190000Y-99060000D01*
X186690000Y-102870000D02*
X189230000Y-102870000D01*
X169545000Y-104775000D02*
X170815000Y-103505000D01*
X170815000Y-103505000D02*
X171450000Y-102870000D01*
X171450000Y-102870000D02*
X173990000Y-102870000D01*
X158750000Y-102870000D02*
X160655000Y-104775000D01*
X160655000Y-104775000D02*
X169545000Y-104775000D01*
X156210000Y-102870000D02*
X158750000Y-102870000D01*
X140970000Y-102870000D02*
X143510000Y-102870000D01*
X125730000Y-102870000D02*
X128270000Y-102870000D01*
X114935000Y-104775000D02*
X123825000Y-104775000D01*
X123825000Y-104775000D02*
X125730000Y-102870000D01*
X113030000Y-102870000D02*
X114935000Y-104775000D01*
X109220000Y-102870000D02*
X113030000Y-102870000D01*
X97155000Y-104775000D02*
X107315000Y-104775000D01*
X107315000Y-104775000D02*
X109220000Y-102870000D01*
X95250000Y-102870000D02*
X97155000Y-104775000D01*
X92710000Y-102870000D02*
X95250000Y-102870000D01*
X76200000Y-102870000D02*
X80010000Y-102870000D01*
D22*
X121920000Y-118110000D02*
X137795000Y-118110000D01*
X137795000Y-118110000D02*
X138430000Y-118745000D01*
X119380000Y-120650000D02*
X120078499Y-119951501D01*
X120078499Y-119951501D02*
X121920000Y-118110000D01*
X113030000Y-121920000D02*
X114300000Y-120650000D01*
X114300000Y-120650000D02*
X119380000Y-120650000D01*
X113030000Y-124460000D02*
X114935000Y-122555000D01*
X114935000Y-122555000D02*
X115570000Y-122555000D01*
X119380000Y-115570000D02*
X116840000Y-115570000D01*
X116840000Y-115570000D02*
X113030000Y-119380000D01*
X147929985Y-105371912D02*
X126784088Y-105371912D01*
X148590363Y-106032290D02*
X147929985Y-105371912D01*
X119253000Y-107315000D02*
X113748420Y-107315000D01*
X113748420Y-107315000D02*
X113030000Y-107315000D01*
X123063000Y-109093000D02*
X121031000Y-109093000D01*
X121031000Y-109093000D02*
X119253000Y-107315000D01*
X126784088Y-105371912D02*
X123063000Y-109093000D01*
X208436449Y-103661449D02*
X207322898Y-104775000D01*
X170644837Y-105354476D02*
X170233725Y-105765588D01*
X214151449Y-103661449D02*
X208436449Y-103661449D01*
X207322898Y-104775000D02*
X186690000Y-104775000D01*
X186690000Y-104775000D02*
X185826411Y-105638589D01*
X173037498Y-105354476D02*
X170644837Y-105354476D01*
X173321611Y-105638589D02*
X173037498Y-105354476D01*
X170233725Y-105765588D02*
X159095405Y-105765588D01*
X159095405Y-105765588D02*
X158854108Y-105524291D01*
X158854108Y-105524291D02*
X149098362Y-105524291D01*
X185826411Y-105638589D02*
X173321611Y-105638589D01*
X215900000Y-105410000D02*
X214151449Y-103661449D01*
X149098362Y-105524291D02*
X148590363Y-106032290D01*
D19*
X124790201Y-108889799D02*
X123977399Y-109702601D01*
X135890000Y-110490000D02*
X134289799Y-108889799D01*
X123977399Y-109702601D02*
X123190000Y-110490000D01*
X134289799Y-108889799D02*
X124790201Y-108889799D01*
X116338097Y-108889799D02*
X107010201Y-108889799D01*
X117341903Y-108889799D02*
X116840000Y-109391702D01*
X116840000Y-109391702D02*
X116338097Y-108889799D01*
X118878097Y-108889799D02*
X117341903Y-108889799D01*
X120650000Y-110490000D02*
X120478298Y-110490000D01*
X107010201Y-108889799D02*
X105410000Y-110490000D01*
X120478298Y-110490000D02*
X118878097Y-108889799D01*
X154457399Y-109702601D02*
X153670000Y-110490000D01*
X164752891Y-108872891D02*
X155287109Y-108872891D01*
X155287109Y-108872891D02*
X154457399Y-109702601D01*
X166370000Y-110490000D02*
X164752891Y-108872891D01*
X180009799Y-108889799D02*
X170681903Y-108889799D01*
X169697399Y-109702601D02*
X168910000Y-110490000D01*
X169869101Y-109702601D02*
X169697399Y-109702601D01*
X170681903Y-108889799D02*
X169869101Y-109702601D01*
X181610000Y-110490000D02*
X180009799Y-108889799D01*
X74494537Y-107899211D02*
X74177025Y-107581699D01*
X85039211Y-107899211D02*
X74494537Y-107899211D01*
X74177025Y-107581699D02*
X73279000Y-107581699D01*
X87630000Y-110490000D02*
X85039211Y-107899211D01*
X73279000Y-107581699D02*
X67576699Y-107581699D01*
X123977399Y-92227399D02*
X123190000Y-91440000D01*
X136067799Y-93167201D02*
X124917201Y-93167201D01*
X124917201Y-93167201D02*
X123977399Y-92227399D01*
X174040799Y-93040201D02*
X161594799Y-93040201D01*
X174167799Y-93167201D02*
X174040799Y-93040201D01*
X161594799Y-93040201D02*
X161467799Y-93167201D01*
X186764318Y-93063720D02*
X174271280Y-93063720D01*
X186867799Y-93167201D02*
X186764318Y-93063720D01*
X174271280Y-93063720D02*
X174167799Y-93167201D01*
X148780512Y-81724488D02*
X148590000Y-81915000D01*
X161099488Y-81724488D02*
X148780512Y-81724488D01*
X161290000Y-81915000D02*
X161099488Y-81724488D01*
X135966202Y-81838798D02*
X135890000Y-81915000D01*
X148513798Y-81838798D02*
X135966202Y-81838798D01*
X148590000Y-81915000D02*
X148513798Y-81838798D01*
X67576699Y-107581699D02*
X59690000Y-99695000D01*
X59690000Y-99695000D02*
X59690000Y-85725000D01*
X59690000Y-85725000D02*
X61188600Y-84226400D01*
X61188600Y-84226400D02*
X63500000Y-84226400D01*
X90170000Y-110490000D02*
X87630000Y-110490000D01*
X92075000Y-108585000D02*
X90170000Y-110490000D01*
X100965000Y-108585000D02*
X92075000Y-108585000D01*
X102870000Y-110490000D02*
X100965000Y-108585000D01*
X105410000Y-110490000D02*
X102870000Y-110490000D01*
X123190000Y-110490000D02*
X120650000Y-110490000D01*
X138430000Y-110490000D02*
X135890000Y-110490000D01*
X140335000Y-108585000D02*
X138430000Y-110490000D01*
X149225000Y-108585000D02*
X140335000Y-108585000D01*
X151130000Y-110490000D02*
X149225000Y-108585000D01*
X153670000Y-110490000D02*
X151130000Y-110490000D01*
X168910000Y-110490000D02*
X166370000Y-110490000D01*
X184150000Y-110490000D02*
X181610000Y-110490000D01*
X196850000Y-110490000D02*
X194945000Y-108585000D01*
X194945000Y-108585000D02*
X186055000Y-108585000D01*
X186055000Y-108585000D02*
X184150000Y-110490000D01*
X200660000Y-110490000D02*
X196850000Y-110490000D01*
X213360000Y-71120000D02*
X215900000Y-71120000D01*
X210820000Y-71120000D02*
X213360000Y-71120000D01*
X200660000Y-71120000D02*
X210820000Y-71120000D01*
X65405000Y-77470000D02*
X67945000Y-77470000D01*
X62865000Y-77470000D02*
X65405000Y-77470000D01*
X60325000Y-77470000D02*
X62865000Y-77470000D01*
X68580000Y-83820000D02*
X63906400Y-83820000D01*
X63906400Y-83820000D02*
X63500000Y-84226400D01*
X71120000Y-83820000D02*
X68580000Y-83820000D01*
X123190000Y-81915000D02*
X78105000Y-81915000D01*
X78105000Y-81915000D02*
X76200000Y-83820000D01*
X76200000Y-83820000D02*
X71120000Y-83820000D01*
X123190000Y-81915000D02*
X123190000Y-80010000D01*
X135890000Y-81915000D02*
X123190000Y-81915000D01*
X135890000Y-81915000D02*
X135890000Y-80010000D01*
X148590000Y-81915000D02*
X148590000Y-80010000D01*
X161290000Y-81915000D02*
X161290000Y-80010000D01*
X173990000Y-81915000D02*
X161290000Y-81915000D01*
X173990000Y-81915000D02*
X173990000Y-80010000D01*
X186690000Y-81915000D02*
X173990000Y-81915000D01*
X186690000Y-81915000D02*
X186690000Y-80010000D01*
X199390000Y-81915000D02*
X186690000Y-81915000D01*
X214630000Y-80010000D02*
X213516449Y-80010000D01*
X212725000Y-80645000D02*
X211455000Y-81915000D01*
X213516449Y-80010000D02*
X212881449Y-80645000D01*
X212881449Y-80645000D02*
X212725000Y-80645000D01*
X211455000Y-81915000D02*
X199390000Y-81915000D01*
X199390000Y-81915000D02*
X199390000Y-80010000D01*
X136067799Y-93167201D02*
X135890000Y-92989402D01*
X135890000Y-92989402D02*
X135890000Y-91440000D01*
X148767799Y-93167201D02*
X136067799Y-93167201D01*
X148767799Y-93167201D02*
X148590000Y-92989402D01*
X148590000Y-92989402D02*
X148590000Y-91440000D01*
X161467799Y-93167201D02*
X148767799Y-93167201D01*
X161467799Y-93167201D02*
X161290000Y-92989402D01*
X161290000Y-92989402D02*
X161290000Y-91440000D01*
X174167799Y-93167201D02*
X173990000Y-92989402D01*
X173990000Y-92989402D02*
X173990000Y-91440000D01*
X186867799Y-93167201D02*
X186690000Y-92989402D01*
X186690000Y-92989402D02*
X186690000Y-91440000D01*
X199390000Y-92989402D02*
X199212201Y-93167201D01*
X199212201Y-93167201D02*
X186867799Y-93167201D01*
X214630000Y-91440000D02*
X212902799Y-93167201D01*
X199390000Y-92989402D02*
X199390000Y-91440000D01*
X212902799Y-93167201D02*
X199567799Y-93167201D01*
X199567799Y-93167201D02*
X199390000Y-92989402D01*
D22*
X175133000Y-120650000D02*
X176530000Y-120650000D01*
X175018697Y-120535697D02*
X175133000Y-120650000D01*
X167640000Y-120535697D02*
X175018697Y-120535697D01*
X167640000Y-120535697D02*
X166921580Y-120535697D01*
X166921580Y-120535697D02*
X166807277Y-120650000D01*
X166807277Y-120650000D02*
X166370000Y-120650000D01*
X165100000Y-121920000D02*
X166370000Y-120650000D01*
X161290000Y-121920000D02*
X165100000Y-121920000D01*
X165778179Y-107988088D02*
X165342180Y-107552089D01*
X179162470Y-107988088D02*
X165778179Y-107988088D01*
X165342180Y-107552089D02*
X159059352Y-107552089D01*
X159059352Y-107552089D02*
X158340932Y-107552089D01*
X195889352Y-107627912D02*
X179522646Y-107627912D01*
X179522646Y-107627912D02*
X179162470Y-107988088D01*
X196097142Y-107835702D02*
X195889352Y-107627912D01*
X196840858Y-107835702D02*
X196097142Y-107835702D01*
X197243702Y-107432858D02*
X196840858Y-107835702D01*
X197243702Y-106689142D02*
X197243702Y-107432858D01*
X196104270Y-105549710D02*
X197243702Y-106689142D01*
X194310000Y-105549710D02*
X196104270Y-105549710D01*
X213360000Y-105410000D02*
X194449710Y-105410000D01*
X194449710Y-105410000D02*
X194310000Y-105549710D01*
X95250000Y-114300000D02*
X96520000Y-115570000D01*
X96520000Y-115570000D02*
X97790000Y-115570000D01*
X136317736Y-52497736D02*
X169117264Y-52497736D01*
X169117264Y-52497736D02*
X169672001Y-51942999D01*
X169672001Y-51942999D02*
X170180000Y-51435000D01*
X134620000Y-50800000D02*
X136317736Y-52497736D01*
X134620000Y-50800000D02*
X129540000Y-50800000D01*
X134620000Y-48260000D02*
X135407399Y-49047399D01*
X135407399Y-49047399D02*
X136372601Y-49047399D01*
X136372601Y-49047399D02*
X137160000Y-48260000D01*
X167930070Y-57150000D02*
X143510000Y-57150000D01*
X143510000Y-57150000D02*
X142240000Y-58420000D01*
X169200070Y-58420000D02*
X167930070Y-57150000D01*
X175260000Y-58420000D02*
X169200070Y-58420000D01*
X139700000Y-58420000D02*
X140487399Y-59207399D01*
X140487399Y-59207399D02*
X141452601Y-59207399D01*
X141452601Y-59207399D02*
X142240000Y-58420000D01*
X178562001Y-57022999D02*
X179070000Y-56515000D01*
X178435000Y-57150000D02*
X178562001Y-57022999D01*
X168432979Y-57150000D02*
X178435000Y-57150000D01*
X128625611Y-56794389D02*
X168077368Y-56794389D01*
X127000000Y-58420000D02*
X128625611Y-56794389D01*
X168077368Y-56794389D02*
X168432979Y-57150000D01*
X121920000Y-48260000D02*
X124460000Y-48260000D01*
X115242338Y-73660000D02*
X129540000Y-73660000D01*
X98425000Y-80010000D02*
X108892338Y-80010000D01*
X108892338Y-80010000D02*
X115242338Y-73660000D01*
X96735899Y-87845899D02*
X97790000Y-88900000D01*
X92710000Y-88900000D02*
X93764101Y-87845899D01*
X93764101Y-87845899D02*
X96735899Y-87845899D01*
X145415000Y-42545000D02*
X145415000Y-37211000D01*
X145415000Y-37211000D02*
X143891000Y-35687000D01*
X143891000Y-35687000D02*
X84709000Y-35687000D01*
X64465200Y-45720000D02*
X63500000Y-45720000D01*
X84709000Y-35687000D02*
X75730101Y-44665899D01*
X75730101Y-44665899D02*
X65519301Y-44665899D01*
X65519301Y-44665899D02*
X64465200Y-45720000D01*
X72644000Y-40894000D02*
X67691000Y-40894000D01*
X78359000Y-35179000D02*
X72644000Y-40894000D01*
X67691000Y-40894000D02*
X66802000Y-40005000D01*
X145161000Y-35179000D02*
X78359000Y-35179000D01*
X148526501Y-38544501D02*
X145161000Y-35179000D01*
X149225000Y-42545000D02*
X148526501Y-41846501D01*
X148526501Y-41846501D02*
X148526501Y-38544501D01*
X153035000Y-42545000D02*
X144780000Y-34290000D01*
X72765352Y-39756648D02*
X69908053Y-39756648D01*
X144780000Y-34290000D02*
X78232000Y-34290000D01*
X78232000Y-34290000D02*
X72765352Y-39756648D01*
X69908053Y-39756648D02*
X69189633Y-39756648D01*
X77439099Y-33655000D02*
X72473420Y-38620679D01*
X147955000Y-33655000D02*
X77439099Y-33655000D01*
X156845000Y-42545000D02*
X147955000Y-33655000D01*
X72473420Y-38620679D02*
X71755000Y-38620679D01*
X203200000Y-45720000D02*
X202234800Y-45720000D01*
X202234800Y-45720000D02*
X197370699Y-40855899D01*
X197370699Y-40855899D02*
X161455101Y-40855899D01*
X161455101Y-40855899D02*
X160528000Y-41783000D01*
X160528000Y-41783000D02*
X160655000Y-41910000D01*
X160655000Y-41910000D02*
X160655000Y-42545000D01*
X202184000Y-38735000D02*
X164465000Y-38735000D01*
X204470000Y-41021000D02*
X202184000Y-38735000D01*
X204470000Y-44450000D02*
X204470000Y-41021000D01*
X205740000Y-45720000D02*
X204470000Y-44450000D01*
X169133130Y-38100000D02*
X168993420Y-37960290D01*
X168993420Y-37960290D02*
X168275000Y-37960290D01*
X204343000Y-38100000D02*
X169133130Y-38100000D01*
X207010000Y-40767000D02*
X204343000Y-38100000D01*
X207010000Y-44450000D02*
X207010000Y-40767000D01*
X208280000Y-45720000D02*
X207010000Y-44450000D01*
X172803420Y-37325290D02*
X172085000Y-37325290D01*
X207759290Y-37325290D02*
X172803420Y-37325290D01*
X209765899Y-39331899D02*
X207759290Y-37325290D01*
X209765899Y-44665899D02*
X209765899Y-39331899D01*
X210820000Y-45720000D02*
X209765899Y-44665899D01*
X83820000Y-58420000D02*
X83032601Y-59207399D01*
X83032601Y-59207399D02*
X78257399Y-59207399D01*
X78257399Y-59207399D02*
X76631798Y-60833000D01*
X64897000Y-59331862D02*
X64897000Y-54737000D01*
X76631798Y-60833000D02*
X66398138Y-60833000D01*
X66398138Y-60833000D02*
X64897000Y-59331862D01*
X64897000Y-54737000D02*
X63500000Y-53340000D01*
X80899000Y-56515000D02*
X84455000Y-56515000D01*
X84455000Y-56515000D02*
X86360000Y-58420000D01*
X78867000Y-58547000D02*
X80899000Y-56515000D01*
X77343000Y-58547000D02*
X78867000Y-58547000D01*
X75819000Y-60071000D02*
X77343000Y-58547000D01*
X68199000Y-60071000D02*
X75819000Y-60071000D01*
X67094101Y-58966101D02*
X68199000Y-60071000D01*
X66040000Y-53340000D02*
X67094101Y-54394101D01*
X67094101Y-54394101D02*
X67094101Y-58966101D01*
X87503000Y-54864000D02*
X88900000Y-56261000D01*
X88900000Y-56261000D02*
X88900000Y-58420000D01*
X86614000Y-54864000D02*
X87503000Y-54864000D01*
X86575899Y-54825899D02*
X86614000Y-54864000D01*
X70002399Y-54127399D02*
X70700899Y-54825899D01*
X70700899Y-54825899D02*
X86575899Y-54825899D01*
X68580000Y-53340000D02*
X69367399Y-54127399D01*
X69367399Y-54127399D02*
X70002399Y-54127399D01*
X71120000Y-53340000D02*
X71907399Y-52552601D01*
X71907399Y-52552601D02*
X71907399Y-52425601D01*
X71907399Y-52425601D02*
X72390000Y-51943000D01*
X72390000Y-51943000D02*
X86487000Y-51943000D01*
X86487000Y-51943000D02*
X91440000Y-56896000D01*
X91440000Y-56896000D02*
X91440000Y-58420000D01*
X203200000Y-53340000D02*
X182880000Y-53340000D01*
X205740000Y-51689000D02*
X205613000Y-51562000D01*
X205613000Y-51562000D02*
X185420000Y-51562000D01*
X205740000Y-51943000D02*
X205740000Y-51689000D01*
X205740000Y-53340000D02*
X205740000Y-51943000D01*
X188214000Y-50546000D02*
X188087000Y-50419000D01*
X205816202Y-50546000D02*
X188214000Y-50546000D01*
X207492601Y-52222399D02*
X205816202Y-50546000D01*
X208280000Y-53340000D02*
X207492601Y-52552601D01*
X207492601Y-52552601D02*
X207492601Y-52222399D01*
X210820000Y-53340000D02*
X207251290Y-49771290D01*
X191345420Y-49771290D02*
X190627000Y-49771290D01*
X207251290Y-49771290D02*
X191345420Y-49771290D01*
X88397092Y-64770000D02*
X88752702Y-65125611D01*
X105961580Y-64770000D02*
X106680000Y-64770000D01*
X105605969Y-65125611D02*
X105961580Y-64770000D01*
X70789800Y-64770000D02*
X88397092Y-64770000D01*
X70485000Y-64465200D02*
X70789800Y-64770000D01*
X70485000Y-63500000D02*
X70485000Y-64465200D01*
X88752702Y-65125611D02*
X105605969Y-65125611D01*
X108548759Y-65684391D02*
X108967860Y-65265290D01*
X105527667Y-65684391D02*
X108548759Y-65684391D01*
X105324498Y-65481222D02*
X105527667Y-65684391D01*
X108967860Y-65265290D02*
X109686280Y-65265290D01*
X103310736Y-66040000D02*
X103869514Y-65481222D01*
X103869514Y-65481222D02*
X105324498Y-65481222D01*
X73025000Y-66040000D02*
X103310736Y-66040000D01*
X93088005Y-67170290D02*
X93494364Y-66763931D01*
X104206548Y-66763931D02*
X104714547Y-66255932D01*
X71615290Y-67170290D02*
X93088005Y-67170290D01*
X70485000Y-66040000D02*
X71615290Y-67170290D01*
X93494364Y-66763931D02*
X104206548Y-66763931D01*
X73025000Y-71120000D02*
X80010000Y-71120000D01*
X80010000Y-71120000D02*
X81280000Y-69850000D01*
X70485000Y-68580000D02*
X73025000Y-71120000D01*
X116357399Y-123672601D02*
X115570000Y-124460000D01*
X119380000Y-123190000D02*
X116840000Y-123190000D01*
X116840000Y-123190000D02*
X116357399Y-123672601D01*
X121920000Y-120650000D02*
X121221501Y-121348499D01*
X121221501Y-121348499D02*
X119380000Y-123190000D01*
X121920000Y-115570000D02*
X119380000Y-118110000D01*
X112649000Y-125857000D02*
X116691125Y-125857000D01*
X116691125Y-125857000D02*
X117821366Y-124726759D01*
X112039399Y-125247399D02*
X112649000Y-125857000D01*
X110490000Y-124460000D02*
X111277399Y-125247399D01*
X111277399Y-125247399D02*
X112039399Y-125247399D01*
X125730000Y-124460000D02*
X118088125Y-124460000D01*
X118088125Y-124460000D02*
X117821366Y-124726759D01*
X162775899Y-125514101D02*
X163830000Y-124460000D01*
X163830000Y-124460000D02*
X165100000Y-124460000D01*
X158750000Y-124460000D02*
X159804101Y-125514101D01*
X159804101Y-125514101D02*
X162775899Y-125514101D01*
X167640000Y-114300000D02*
X165100000Y-116840000D01*
X167640000Y-121920000D02*
X166941501Y-122618499D01*
X166941501Y-122618499D02*
X165100000Y-124460000D01*
X171450000Y-124460000D02*
X173990000Y-124460000D01*
X168910000Y-123190000D02*
X170180000Y-124460000D01*
X170180000Y-124460000D02*
X171450000Y-124460000D01*
X135407399Y-43662601D02*
X134620000Y-44450000D01*
X137878807Y-43395899D02*
X135674101Y-43395899D01*
X141688807Y-47205899D02*
X137878807Y-43395899D01*
X146265899Y-47205899D02*
X141688807Y-47205899D01*
X135674101Y-43395899D02*
X135407399Y-43662601D01*
X147320000Y-48260000D02*
X146265899Y-47205899D01*
X87012260Y-41414710D02*
X83484265Y-41414710D01*
X89225631Y-41122601D02*
X88831929Y-40728899D01*
X90017601Y-41122601D02*
X89225631Y-41122601D01*
X90805000Y-41910000D02*
X90017601Y-41122601D01*
X87698071Y-40728899D02*
X87012260Y-41414710D01*
X83484265Y-41414710D02*
X82765845Y-41414710D01*
X88831929Y-40728899D02*
X87698071Y-40728899D01*
X93345000Y-41910000D02*
X92075000Y-43180000D01*
X92075000Y-43180000D02*
X86360000Y-43180000D01*
X94615000Y-43180000D02*
X93054930Y-43180000D01*
X93054930Y-43180000D02*
X91859101Y-44375829D01*
X91859101Y-44375829D02*
X91859101Y-45300899D01*
X91859101Y-45300899D02*
X89687399Y-47472601D01*
X89687399Y-47472601D02*
X88900000Y-48260000D01*
X95885000Y-41910000D02*
X94615000Y-43180000D01*
X91440000Y-48260000D02*
X93345000Y-46355000D01*
X93345000Y-46355000D02*
X96520000Y-46355000D01*
X96520000Y-46355000D02*
X97155000Y-45720000D01*
X97155000Y-45720000D02*
X97155000Y-43180000D01*
X97155000Y-43180000D02*
X98425000Y-41910000D01*
X127000000Y-53975000D02*
X134620000Y-53975000D01*
X139217399Y-45237399D02*
X141452601Y-47472601D01*
X137947399Y-45237399D02*
X139217399Y-45237399D01*
X141452601Y-47472601D02*
X142240000Y-48260000D01*
X137160000Y-44450000D02*
X137947399Y-45237399D01*
X96520000Y-53975000D02*
X97155000Y-54610000D01*
X90170000Y-53975000D02*
X96520000Y-53975000D01*
X90449389Y-63779389D02*
X96652481Y-63779389D01*
X96652481Y-63779389D02*
X97071580Y-63360290D01*
X97071580Y-63360290D02*
X97790000Y-63360290D01*
X88900000Y-62230000D02*
X90449389Y-63779389D01*
X86360000Y-62230000D02*
X87147399Y-63017399D01*
X99611580Y-63995290D02*
X100330000Y-63995290D01*
X89047298Y-64414389D02*
X99192481Y-64414389D01*
X87147399Y-63017399D02*
X87650308Y-63017399D01*
X99192481Y-64414389D02*
X99611580Y-63995290D01*
X87650308Y-63017399D02*
X89047298Y-64414389D01*
X150220603Y-51215035D02*
X149712604Y-51723034D01*
X150838816Y-50596822D02*
X150220603Y-51215035D01*
X180340000Y-48260000D02*
X178003178Y-50596822D01*
X178003178Y-50596822D02*
X150838816Y-50596822D01*
X145318871Y-64135000D02*
X145953871Y-64770000D01*
X83820000Y-62230000D02*
X85725000Y-64135000D01*
X85725000Y-64135000D02*
X88265001Y-64135000D01*
X101476549Y-63995299D02*
X107051857Y-63995299D01*
X100701857Y-64769991D02*
X101476549Y-63995299D01*
X107051857Y-63995299D02*
X107191558Y-64135000D01*
X88265001Y-64135000D02*
X88899992Y-64769991D01*
X107191558Y-64135000D02*
X145318871Y-64135000D01*
X88899992Y-64769991D02*
X100701857Y-64769991D01*
X145953871Y-64770000D02*
X146672291Y-64770000D01*
X81998420Y-49530000D02*
X81280000Y-49530000D01*
X140785403Y-49530000D02*
X81998420Y-49530000D01*
X141496614Y-50241211D02*
X140785403Y-49530000D01*
X175818789Y-50241211D02*
X141496614Y-50241211D01*
X177800000Y-48260000D02*
X175818789Y-50241211D01*
X185420000Y-44450000D02*
X184150000Y-43180000D01*
X184150000Y-43180000D02*
X177800000Y-43180000D01*
X130653717Y-66789267D02*
X131822127Y-67957677D01*
X174390017Y-67953036D02*
X174398053Y-67945000D01*
X109220000Y-69850000D02*
X110896334Y-68173666D01*
X173646301Y-67953036D02*
X174390017Y-67953036D01*
X167182687Y-67945000D02*
X173638265Y-67945000D01*
X166009210Y-68376853D02*
X166750834Y-68376853D01*
X165856769Y-68224412D02*
X166009210Y-68376853D01*
X143418595Y-68224412D02*
X165856769Y-68224412D01*
X131822127Y-67957677D02*
X143151860Y-67957677D01*
X115933187Y-66789267D02*
X130653717Y-66789267D01*
X114548787Y-68173666D02*
X115933187Y-66789267D01*
X173638265Y-67945000D02*
X173646301Y-67953036D01*
X110896334Y-68173666D02*
X114548787Y-68173666D01*
X143151860Y-67957677D02*
X143418595Y-68224412D01*
X166750834Y-68376853D02*
X167182687Y-67945000D01*
X174398053Y-67945000D02*
X192321580Y-67945000D01*
X192321580Y-67945000D02*
X193040000Y-67945000D01*
X187960000Y-44450000D02*
X189230000Y-43180000D01*
X189230000Y-43180000D02*
X190209930Y-43180000D01*
X190209930Y-43180000D02*
X193040000Y-43180000D01*
X111760000Y-69850000D02*
X113080723Y-68529277D01*
X113080723Y-68529277D02*
X114696086Y-68529277D01*
X165709471Y-68580023D02*
X165861912Y-68732464D01*
X192668142Y-68719702D02*
X194805298Y-68719702D01*
X195072001Y-68452999D02*
X195580000Y-67945000D01*
X167052663Y-68580023D02*
X192528463Y-68580023D01*
X131141419Y-67779878D02*
X131674829Y-68313288D01*
X114696086Y-68529277D02*
X115445485Y-67779878D01*
X166900222Y-68732464D02*
X167052663Y-68580023D01*
X165861912Y-68732464D02*
X166900222Y-68732464D01*
X115445485Y-67779878D02*
X131141419Y-67779878D01*
X192528463Y-68580023D02*
X192668142Y-68719702D01*
X131674829Y-68313288D02*
X143004562Y-68313288D01*
X194805298Y-68719702D02*
X195072001Y-68452999D01*
X143271297Y-68580023D02*
X165709471Y-68580023D01*
X143004562Y-68313288D02*
X143271297Y-68580023D01*
X190500000Y-44450000D02*
X195580000Y-44450000D01*
X146050000Y-124460000D02*
X146837399Y-125247399D01*
X147802601Y-125247399D02*
X148590000Y-124460000D01*
X146837399Y-125247399D02*
X147802601Y-125247399D01*
X134137399Y-123672601D02*
X135890000Y-121920000D01*
X135890000Y-121920000D02*
X148590000Y-121920000D01*
X133350000Y-124460000D02*
X134137399Y-123672601D01*
X143510000Y-120650000D02*
X135890000Y-120650000D01*
X132717103Y-107568997D02*
X137184814Y-107568997D01*
X134620000Y-125730000D02*
X129540000Y-125730000D01*
X129540000Y-125730000D02*
X128270000Y-124460000D01*
X130810000Y-114300000D02*
X133350000Y-114300000D01*
X137160000Y-115570000D02*
X138430000Y-114300000D01*
X129540000Y-115570000D02*
X137160000Y-115570000D01*
X128270000Y-114300000D02*
X129540000Y-115570000D01*
X128270000Y-110490000D02*
X129235200Y-110490000D01*
X129235200Y-110490000D02*
X130810000Y-110490000D01*
X185998740Y-122555000D02*
X185280320Y-122555000D01*
X192405000Y-122555000D02*
X185998740Y-122555000D01*
X194310000Y-124460000D02*
X192405000Y-122555000D01*
X186690000Y-114300000D02*
X187477399Y-115087399D01*
X187477399Y-115087399D02*
X188442601Y-115087399D01*
X188442601Y-115087399D02*
X189230000Y-114300000D01*
X186690000Y-116840000D02*
X181610000Y-116840000D01*
X181610000Y-116840000D02*
X179070000Y-114300000D01*
X176530000Y-110490000D02*
X173990000Y-110490000D01*
D21*
X72898000Y-103378000D02*
X69977000Y-103378000D01*
X75184000Y-101092000D02*
X72898000Y-103378000D01*
X85598000Y-101092000D02*
X75184000Y-101092000D01*
X87376000Y-102870000D02*
X85598000Y-101092000D01*
X87630000Y-102870000D02*
X87376000Y-102870000D01*
D22*
X65869420Y-117856000D02*
X69850000Y-117856000D01*
X64770000Y-117475000D02*
X65488420Y-117475000D01*
X65488420Y-117475000D02*
X65869420Y-117856000D01*
X75788122Y-126860298D02*
X75648420Y-127000000D01*
X90312470Y-126860298D02*
X75788122Y-126860298D01*
X90452172Y-127000000D02*
X90312470Y-126860298D01*
X75648420Y-127000000D02*
X74930000Y-127000000D01*
X91440000Y-127000000D02*
X90452172Y-127000000D01*
X74930000Y-124460000D02*
X73816449Y-124460000D01*
X73816449Y-124460000D02*
X72390000Y-124460000D01*
X82677000Y-129159000D02*
X76327000Y-129159000D01*
X82931000Y-129413000D02*
X82677000Y-129159000D01*
X88900000Y-129413000D02*
X82931000Y-129413000D01*
X89242899Y-129755899D02*
X88900000Y-129413000D01*
X91440000Y-130810000D02*
X90385899Y-129755899D01*
X90385899Y-129755899D02*
X89242899Y-129755899D01*
X78740000Y-130810000D02*
X80225899Y-132295899D01*
X80225899Y-132295899D02*
X92925899Y-132295899D01*
X92925899Y-132295899D02*
X93192601Y-132562601D01*
X93192601Y-132562601D02*
X93980000Y-133350000D01*
X90652601Y-134137399D02*
X91440000Y-133350000D01*
X90385899Y-134404101D02*
X90652601Y-134137399D01*
X84467701Y-134404101D02*
X90385899Y-134404101D01*
X83413600Y-133350000D02*
X84467701Y-134404101D01*
X78740000Y-133350000D02*
X83413600Y-133350000D01*
X148590000Y-127000000D02*
X106045000Y-127000000D01*
X88259908Y-128270000D02*
X85313130Y-128270000D01*
X85313130Y-128270000D02*
X84594710Y-128270000D01*
X89250517Y-129260609D02*
X88259908Y-128270000D01*
X103784391Y-129260609D02*
X89250517Y-129260609D01*
X151130000Y-124460000D02*
X148590000Y-127000000D01*
X106045000Y-127000000D02*
X103784391Y-129260609D01*
X90042999Y-128511288D02*
X89535000Y-128003289D01*
X96402154Y-128511288D02*
X90042999Y-128511288D01*
X97913442Y-127000000D02*
X96402154Y-128511288D01*
X101600000Y-127000000D02*
X97913442Y-127000000D01*
X78257399Y-125247399D02*
X77470000Y-124460000D01*
X79438499Y-126428499D02*
X78257399Y-125247399D01*
X90170000Y-125730000D02*
X89471501Y-126428499D01*
X89471501Y-126428499D02*
X79438499Y-126428499D01*
X101758498Y-128270000D02*
X97790000Y-128270000D01*
X95554799Y-127965201D02*
X90643472Y-127965201D01*
X96520000Y-127000000D02*
X95554799Y-127965201D01*
X81134833Y-127228587D02*
X80728420Y-127635000D01*
X90643472Y-127965201D02*
X89906858Y-127228587D01*
X89906858Y-127228587D02*
X81134833Y-127228587D01*
X80728420Y-127635000D02*
X80010000Y-127635000D01*
X102870000Y-126717828D02*
X102870000Y-127158498D01*
X102870000Y-127158498D02*
X101758498Y-128270000D01*
X102870000Y-125730000D02*
X102870000Y-126717828D01*
X130937000Y-68707000D02*
X132080000Y-69850000D01*
X128143000Y-68707000D02*
X130937000Y-68707000D01*
X127000000Y-69850000D02*
X128143000Y-68707000D01*
X140970000Y-124460000D02*
X141757399Y-123672601D01*
X141757399Y-123672601D02*
X142138399Y-123672601D01*
X156502101Y-120865899D02*
X162979101Y-120865899D01*
X142138399Y-123672601D02*
X142405101Y-123405899D01*
X142405101Y-123405899D02*
X153962101Y-123405899D01*
X153962101Y-123405899D02*
X156502101Y-120865899D01*
X162979101Y-120865899D02*
X164846000Y-118999000D01*
X204343000Y-118999000D02*
X210312000Y-113030000D01*
X164846000Y-118999000D02*
X204343000Y-118999000D01*
X210312000Y-113030000D02*
X213360000Y-113030000D01*
X140970000Y-114300000D02*
X142240000Y-115570000D01*
X142240000Y-115570000D02*
X154940000Y-115570000D01*
D21*
X102997000Y-120142000D02*
X104254299Y-121399299D01*
X104254299Y-121399299D02*
X104254299Y-125844299D01*
X104254299Y-125844299D02*
X104648000Y-126238000D01*
X98243134Y-120142000D02*
X102997000Y-120142000D01*
X95123000Y-116840000D02*
X96405701Y-118122701D01*
X96405701Y-118122701D02*
X96405701Y-118304567D01*
X96405701Y-118304567D02*
X98243134Y-120142000D01*
X85353036Y-105918000D02*
X94361000Y-105918000D01*
X94361000Y-105918000D02*
X94869000Y-105410000D01*
X84455000Y-105918011D02*
X85353025Y-105918011D01*
X85353025Y-105918011D02*
X85353036Y-105918000D01*
D23*
X210820000Y-130810000D02*
X210820000Y-127635000D01*
X210820000Y-127635000D02*
X207645000Y-124460000D01*
X196850000Y-124460000D02*
X191135000Y-130175000D01*
X207645000Y-124460000D02*
X196850000Y-124460000D01*
X191135000Y-130175000D02*
X187960000Y-130175000D01*
X187325000Y-130810000D02*
X185242200Y-130810000D01*
X187960000Y-130175000D02*
X187325000Y-130810000D01*
X185242200Y-130810000D02*
X184150000Y-130810000D01*
X213360000Y-130810000D02*
X210820000Y-130810000D01*
X181610000Y-130810000D02*
X184150000Y-130810000D01*
X180340000Y-132080000D02*
X181610000Y-130810000D01*
X157302200Y-132080000D02*
X180340000Y-132080000D01*
X154940000Y-130810000D02*
X156032200Y-130810000D01*
X156032200Y-130810000D02*
X157302200Y-132080000D01*
X152400000Y-130810000D02*
X154940000Y-130810000D01*
X151130000Y-132080000D02*
X152400000Y-130810000D01*
X128092200Y-132080000D02*
X151130000Y-132080000D01*
X125730000Y-130810000D02*
X126822200Y-130810000D01*
X126822200Y-130810000D02*
X128092200Y-132080000D01*
X123190000Y-130810000D02*
X125730000Y-130810000D01*
X96520000Y-130810000D02*
X104140000Y-130810000D01*
X104140000Y-130810000D02*
X105410000Y-132080000D01*
X105410000Y-132080000D02*
X121920000Y-132080000D01*
X121920000Y-132080000D02*
X123190000Y-130810000D01*
D22*
X82550000Y-124460000D02*
X83820000Y-125730000D01*
X83820000Y-125730000D02*
X88265000Y-125730000D01*
X93980000Y-124460000D02*
X95250000Y-123190000D01*
X88265000Y-125730000D02*
X89535000Y-124460000D01*
X89535000Y-124460000D02*
X93980000Y-124460000D01*
X101600000Y-118110000D02*
X97790000Y-118110000D01*
X95250000Y-125730000D02*
X92710000Y-125730000D01*
X100330000Y-125730000D02*
X99060000Y-124460000D01*
X99060000Y-124460000D02*
X96520000Y-124460000D01*
X96520000Y-124460000D02*
X95250000Y-125730000D01*
X92710000Y-120650000D02*
X85090000Y-120650000D01*
X93980000Y-121920000D02*
X92710000Y-120650000D01*
X96520000Y-121920000D02*
X93980000Y-121920000D01*
X96520000Y-121920000D02*
X99060000Y-121920000D01*
X99060000Y-121920000D02*
X100330000Y-123190000D01*
X95250000Y-93980000D02*
X102870000Y-93980000D01*
X113665000Y-95250000D02*
X114935000Y-93980000D01*
X114935000Y-93980000D02*
X121920000Y-93980000D01*
X134620000Y-69850000D02*
X133350000Y-71120000D01*
X123190000Y-71120000D02*
X121920000Y-69850000D01*
X133350000Y-71120000D02*
X123190000Y-71120000D01*
X101600000Y-115570000D02*
X106680000Y-115570000D01*
X106680000Y-115570000D02*
X107950000Y-114300000D01*
X164510808Y-66827442D02*
X166959193Y-66827442D01*
X167310085Y-67178334D02*
X173299739Y-67178334D01*
X109691876Y-67818055D02*
X114401489Y-67818055D01*
X164358365Y-66675000D02*
X164510808Y-66827442D01*
X166959193Y-66827442D02*
X167310085Y-67178334D01*
X173299739Y-67178334D02*
X174018159Y-67178334D01*
X130801015Y-66433656D02*
X131906023Y-67538664D01*
X108447330Y-69062601D02*
X109691876Y-67818055D01*
X131906023Y-67538664D02*
X153696335Y-67538664D01*
X114401489Y-67818055D02*
X115785889Y-66433656D01*
X107467399Y-69062601D02*
X108447330Y-69062601D01*
X106680000Y-69850000D02*
X107467399Y-69062601D01*
X154559999Y-66675000D02*
X164358365Y-66675000D01*
X153696335Y-67538664D02*
X154559999Y-66675000D01*
X115785889Y-66433656D02*
X130801015Y-66433656D01*
X174411190Y-65544710D02*
X175129610Y-65544710D01*
X132347917Y-66471831D02*
X153254441Y-66471831D01*
X93110800Y-68656222D02*
X93745800Y-68021222D01*
X174131803Y-65265323D02*
X174411190Y-65544710D01*
X154460949Y-65265323D02*
X174131803Y-65265323D01*
X115343995Y-65366823D02*
X131242909Y-65366823D01*
X153254441Y-66471831D02*
X154460949Y-65265323D01*
X109249981Y-66751222D02*
X113959595Y-66751222D01*
X95658475Y-67957677D02*
X108043527Y-67957677D01*
X90093778Y-68656222D02*
X93110800Y-68656222D01*
X95594930Y-68021222D02*
X95658475Y-67957677D01*
X113959595Y-66751222D02*
X115343995Y-65366823D01*
X93745800Y-68021222D02*
X95594930Y-68021222D01*
X88900000Y-69850000D02*
X90093778Y-68656222D01*
X131242909Y-65366823D02*
X132347917Y-66471831D01*
X108043527Y-67957677D02*
X109249981Y-66751222D01*
X175671870Y-54749710D02*
X133350000Y-54749710D01*
X175811580Y-54610000D02*
X175671870Y-54749710D01*
X176530000Y-54610000D02*
X175811580Y-54610000D01*
X177165000Y-64770000D02*
X179070000Y-64770000D01*
X176530000Y-64135000D02*
X177165000Y-64770000D01*
X173355000Y-64135000D02*
X176530000Y-64135000D01*
X172580288Y-64909712D02*
X173355000Y-64135000D01*
X153670000Y-64909712D02*
X172580288Y-64909712D01*
X95511177Y-67602066D02*
X107896228Y-67602066D01*
X107896228Y-67602066D02*
X109102683Y-66395611D01*
X92963502Y-68300611D02*
X93598502Y-67665611D01*
X153162001Y-65417711D02*
X153670000Y-64909712D01*
X113812297Y-66395611D02*
X115196697Y-65011212D01*
X152463492Y-66116220D02*
X153162001Y-65417711D01*
X109102683Y-66395611D02*
X113812297Y-66395611D01*
X95447632Y-67665611D02*
X95511177Y-67602066D01*
X86360000Y-69850000D02*
X87909389Y-68300611D01*
X87909389Y-68300611D02*
X92963502Y-68300611D01*
X93598502Y-67665611D02*
X95447632Y-67665611D01*
X132495215Y-66116220D02*
X152463492Y-66116220D01*
X115196697Y-65011212D02*
X131390207Y-65011212D01*
X131390207Y-65011212D02*
X132495215Y-66116220D01*
X175501468Y-66319412D02*
X176001405Y-65819475D01*
X164508659Y-65819475D02*
X164805404Y-66116220D01*
X108190825Y-68313288D02*
X109397280Y-67106833D01*
X174187666Y-65900321D02*
X174338661Y-65900321D01*
X174106820Y-65819475D02*
X174187666Y-65900321D01*
X178920606Y-65819475D02*
X179639026Y-65819475D01*
X153401739Y-66827442D02*
X154409706Y-65819475D01*
X115491293Y-65722434D02*
X131095611Y-65722434D01*
X109397280Y-67106833D02*
X114106893Y-67106833D01*
X166961342Y-65819475D02*
X174106820Y-65819475D01*
X176001405Y-65819475D02*
X178920606Y-65819475D01*
X131095611Y-65722434D02*
X132200619Y-66827442D01*
X93893098Y-68376833D02*
X95742228Y-68376833D01*
X174338661Y-65900321D02*
X174757752Y-66319412D01*
X166664597Y-66116220D02*
X166961342Y-65819475D01*
X91440000Y-69850000D02*
X92227399Y-69062601D01*
X92227399Y-69062601D02*
X93207330Y-69062601D01*
X95742228Y-68376833D02*
X95805773Y-68313288D01*
X114106893Y-67106833D02*
X115491293Y-65722434D01*
X132200619Y-66827442D02*
X153401739Y-66827442D01*
X154409706Y-65819475D02*
X164508659Y-65819475D01*
X95805773Y-68313288D02*
X108190825Y-68313288D01*
X164805404Y-66116220D02*
X166664597Y-66116220D01*
X174757752Y-66319412D02*
X175501468Y-66319412D01*
X93207330Y-69062601D02*
X93893098Y-68376833D01*
X180116870Y-53835290D02*
X137243420Y-53835290D01*
X180256580Y-53975000D02*
X180116870Y-53835290D01*
X137243420Y-53835290D02*
X136525000Y-53835290D01*
X180975000Y-53975000D02*
X180256580Y-53975000D01*
X136105899Y-42964101D02*
X137160000Y-41910000D01*
X129540000Y-41910000D02*
X130594101Y-42964101D01*
X130594101Y-42964101D02*
X136105899Y-42964101D01*
X108585000Y-66040000D02*
X113664999Y-66040000D01*
X181615091Y-65277999D02*
X183642001Y-65277999D01*
X107378545Y-67246455D02*
X108585000Y-66040000D01*
X183642001Y-65277999D02*
X184150000Y-64770000D01*
X176677300Y-63779391D02*
X176893208Y-63995299D01*
X152632169Y-63779391D02*
X176677300Y-63779391D01*
X180332391Y-63995299D02*
X181615091Y-65277999D01*
X176893208Y-63995299D02*
X180332391Y-63995299D01*
X83820000Y-69850000D02*
X85725000Y-67945000D01*
X92816204Y-67945000D02*
X93514749Y-67246455D01*
X113664999Y-66040000D02*
X115049399Y-64655601D01*
X93514749Y-67246455D02*
X107378545Y-67246455D01*
X132642513Y-65760609D02*
X150650951Y-65760609D01*
X85725000Y-67945000D02*
X92816204Y-67945000D01*
X115049399Y-64655601D02*
X131537505Y-64655601D01*
X150650951Y-65760609D02*
X152632169Y-63779391D01*
X131537505Y-64655601D02*
X132642513Y-65760609D01*
X166811895Y-66471831D02*
X167091281Y-66192444D01*
X164658106Y-66471831D02*
X166811895Y-66471831D01*
X167091281Y-66192444D02*
X173976880Y-66192444D01*
X153549037Y-67183053D02*
X154539646Y-66192444D01*
X164449792Y-66263518D02*
X164658106Y-66471831D01*
X114254191Y-67462444D02*
X115638591Y-66078045D01*
X179267169Y-66594176D02*
X183595824Y-66594176D01*
X183642001Y-66547999D02*
X184150000Y-66040000D01*
X178865437Y-66192444D02*
X179267169Y-66594176D01*
X174610454Y-66675023D02*
X175648766Y-66675023D01*
X93980000Y-69850000D02*
X94767399Y-69062601D01*
X132053321Y-67183053D02*
X153549037Y-67183053D01*
X174191363Y-66255932D02*
X174610454Y-66675023D01*
X173976880Y-66192444D02*
X174040368Y-66255932D01*
X164378719Y-66192444D02*
X164449792Y-66263518D01*
X154539646Y-66192444D02*
X164378719Y-66192444D01*
X130948313Y-66078045D02*
X132053321Y-67183053D01*
X115638591Y-66078045D02*
X130948313Y-66078045D01*
X109544577Y-67462444D02*
X114254191Y-67462444D01*
X108338123Y-68668899D02*
X109544577Y-67462444D01*
X95953071Y-68668899D02*
X108338123Y-68668899D01*
X95559369Y-69062601D02*
X95953071Y-68668899D01*
X175648766Y-66675023D02*
X176131345Y-66192444D01*
X183595824Y-66594176D02*
X183642001Y-66547999D01*
X176131345Y-66192444D02*
X178865437Y-66192444D01*
X94767399Y-69062601D02*
X95559369Y-69062601D01*
X174040368Y-66255932D02*
X174191363Y-66255932D01*
X126853117Y-56110303D02*
X126134697Y-56110303D01*
X179066439Y-55372001D02*
X178328137Y-56110303D01*
X186182001Y-55372001D02*
X179066439Y-55372001D01*
X186690000Y-55880000D02*
X186182001Y-55372001D01*
X178328137Y-56110303D02*
X126853117Y-56110303D01*
X150622001Y-64642999D02*
X151130000Y-64135000D01*
X148399347Y-63995298D02*
X149047048Y-64642999D01*
X146084524Y-63779389D02*
X146300433Y-63995298D01*
X111760000Y-62230000D02*
X113309389Y-63779389D01*
X149047048Y-64642999D02*
X150622001Y-64642999D01*
X113309389Y-63779389D02*
X146084524Y-63779389D01*
X146300433Y-63995298D02*
X148399347Y-63995298D01*
X114300000Y-62230000D02*
X115493778Y-63423778D01*
X115493778Y-63423778D02*
X148255965Y-63423778D01*
X148255965Y-63423778D02*
X148479616Y-63647429D01*
X148479616Y-63647429D02*
X149198036Y-63647429D01*
X145084800Y-69850000D02*
X146050000Y-69850000D01*
X144038365Y-69850000D02*
X145084800Y-69850000D01*
X142857264Y-68668899D02*
X144038365Y-69850000D01*
X131019522Y-68160890D02*
X131527531Y-68668899D01*
X115989110Y-68160890D02*
X131019522Y-68160890D01*
X131527531Y-68668899D02*
X142857264Y-68668899D01*
X114300000Y-69850000D02*
X115989110Y-68160890D01*
X164381580Y-76910846D02*
X165100000Y-76910846D01*
X163478765Y-76910846D02*
X164381580Y-76910846D01*
X163135522Y-77254089D02*
X163478765Y-76910846D01*
X162391806Y-77254089D02*
X163135522Y-77254089D01*
X161972706Y-76834989D02*
X162391806Y-77254089D01*
X147973402Y-76834989D02*
X161972706Y-76834989D01*
X147897545Y-76910846D02*
X147973402Y-76834989D01*
X139700000Y-76910846D02*
X147897545Y-76910846D01*
X159497889Y-75349066D02*
X159118289Y-74969466D01*
X163194999Y-74930000D02*
X162775932Y-75349066D01*
X162775932Y-75349066D02*
X159497889Y-75349066D01*
X159118289Y-74969466D02*
X158610290Y-74461467D01*
X168275000Y-74930000D02*
X163194999Y-74930000D01*
X168910000Y-75565000D02*
X168275000Y-74930000D01*
X180975000Y-75565000D02*
X168910000Y-75565000D01*
X181610000Y-76200000D02*
X180975000Y-75565000D01*
X150997511Y-74650588D02*
X152771858Y-74650588D01*
X152771858Y-74650588D02*
X153190971Y-75069701D01*
X158102291Y-74969466D02*
X158610290Y-74461467D01*
X150578420Y-75069679D02*
X150997511Y-74650588D01*
X149860000Y-75069679D02*
X150578420Y-75069679D01*
X158002056Y-75069701D02*
X158102291Y-74969466D01*
X153190971Y-75069701D02*
X158002056Y-75069701D01*
X153397807Y-75704677D02*
X162923231Y-75704676D01*
X152400000Y-75425290D02*
X153118420Y-75425290D01*
X162923231Y-75704676D02*
X163266482Y-75361426D01*
X153118420Y-75425290D02*
X153397807Y-75704677D01*
X166115164Y-75361426D02*
X166458448Y-75704710D01*
X163266482Y-75361426D02*
X166115164Y-75361426D01*
X149069020Y-75425290D02*
X149488119Y-75844389D01*
X151681580Y-75425290D02*
X152400000Y-75425290D01*
X141771467Y-75425290D02*
X149069020Y-75425290D01*
X149488119Y-75844389D02*
X151262481Y-75844389D01*
X151262481Y-75844389D02*
X151681580Y-75425290D01*
X176900818Y-63500000D02*
X181610000Y-63500000D01*
X176824598Y-63423780D02*
X176900818Y-63500000D01*
X157403780Y-63423780D02*
X176824598Y-63423780D01*
X156210000Y-62230000D02*
X157403780Y-63423780D01*
X181610000Y-63500000D02*
X181737001Y-63627001D01*
X181737001Y-63627001D02*
X182245000Y-64135000D01*
X189425969Y-74574389D02*
X189781580Y-74930000D01*
X158056739Y-73660000D02*
X159385000Y-73660000D01*
X157429218Y-74287521D02*
X158056739Y-73660000D01*
X189781580Y-74930000D02*
X190500000Y-74930000D01*
X162692091Y-74930000D02*
X163047702Y-74574389D01*
X163047702Y-74574389D02*
X189425969Y-74574389D01*
X160655000Y-74930000D02*
X162692091Y-74930000D01*
X159385000Y-73660000D02*
X160655000Y-74930000D01*
X136532479Y-74287521D02*
X156710798Y-74287521D01*
X156710798Y-74287521D02*
X157429218Y-74287521D01*
X135464152Y-75355848D02*
X136532479Y-74287521D01*
X116630848Y-75355848D02*
X135464152Y-75355848D01*
X157701011Y-73512819D02*
X157909441Y-73304389D01*
X161610896Y-74541202D02*
X161996808Y-74155290D01*
X159804099Y-73304389D02*
X161040912Y-74541202D01*
X156910179Y-73660000D02*
X157057360Y-73512819D01*
X208280000Y-74930000D02*
X207505290Y-74155290D01*
X134480321Y-74434679D02*
X135255000Y-73660000D01*
X207505290Y-74155290D02*
X162715228Y-74155290D01*
X135255000Y-73660000D02*
X156910179Y-73660000D01*
X132080000Y-74434679D02*
X134480321Y-74434679D01*
X157909441Y-73304389D02*
X159804099Y-73304389D01*
X161040912Y-74541202D02*
X161610896Y-74541202D01*
X157057360Y-73512819D02*
X157701011Y-73512819D01*
X162715228Y-74155290D02*
X161996808Y-74155290D01*
X166228625Y-67449710D02*
X166381067Y-67602152D01*
X161290000Y-67449710D02*
X166228625Y-67449710D01*
X209042001Y-73152001D02*
X161327334Y-73152001D01*
X209550000Y-73660000D02*
X209042001Y-73152001D01*
X157558920Y-73152001D02*
X157785734Y-72925187D01*
X134576388Y-73152001D02*
X157558920Y-73152001D01*
X157785734Y-72925187D02*
X160538150Y-72925187D01*
X134068420Y-73659969D02*
X134576388Y-73152001D01*
X161327334Y-73152001D02*
X161098746Y-73380589D01*
X161098746Y-73380589D02*
X161046149Y-73433186D01*
X160538150Y-72925187D02*
X161046149Y-73433186D01*
X133350000Y-73659969D02*
X134068420Y-73659969D01*
X163271663Y-75971388D02*
X162763664Y-76479387D01*
X181238143Y-76974701D02*
X181085720Y-76822278D01*
X192405000Y-76835000D02*
X191686580Y-76835000D01*
X165583631Y-75971388D02*
X163271663Y-75971388D01*
X181085720Y-76822278D02*
X166434521Y-76822278D01*
X166434521Y-76822278D02*
X165583631Y-75971388D01*
X191546879Y-76974701D02*
X181238143Y-76974701D01*
X191686580Y-76835000D02*
X191546879Y-76974701D01*
X147461831Y-76200000D02*
X147601544Y-76060287D01*
X148764360Y-76479387D02*
X162045244Y-76479387D01*
X116840000Y-76835000D02*
X117538864Y-76136136D01*
X148345260Y-76060287D02*
X148764360Y-76479387D01*
X140114195Y-76200000D02*
X147461831Y-76200000D01*
X140050331Y-76136136D02*
X140114195Y-76200000D01*
X117538864Y-76136136D02*
X140050331Y-76136136D01*
X147601544Y-76060287D02*
X148345260Y-76060287D01*
X162045244Y-76479387D02*
X162763664Y-76479387D01*
X141033385Y-106933999D02*
X139826909Y-105727523D01*
X151130000Y-106426000D02*
X150622001Y-106933999D01*
X128187892Y-106146622D02*
X127469472Y-106146622D01*
X150622001Y-106933999D02*
X141033385Y-106933999D01*
X128606991Y-105727523D02*
X128187892Y-106146622D01*
X139826909Y-105727523D02*
X128606991Y-105727523D01*
X151130000Y-106426000D02*
X151637999Y-105918001D01*
X158744909Y-105918001D02*
X159048622Y-106221714D01*
X159048622Y-106221714D02*
X170757001Y-106221714D01*
X151637999Y-105918001D02*
X158744909Y-105918001D01*
X170757001Y-106221714D02*
X171475421Y-106221714D01*
X121437399Y-92227399D02*
X120650000Y-91440000D01*
X123317001Y-94107001D02*
X121437399Y-92227399D01*
X127762001Y-94107001D02*
X123317001Y-94107001D01*
X128270000Y-94615000D02*
X127762001Y-94107001D01*
X172132577Y-94361003D02*
X171414157Y-94361003D01*
X172223189Y-94270391D02*
X172132577Y-94361003D01*
X178139415Y-94270391D02*
X172223189Y-94270391D01*
X178253545Y-94384521D02*
X178139415Y-94270391D01*
X178971965Y-94384521D02*
X178253545Y-94384521D01*
X167005000Y-94615000D02*
X165735000Y-95885000D01*
X131582940Y-95885000D02*
X131172772Y-95474832D01*
X168275000Y-94615000D02*
X167005000Y-94615000D01*
X165735000Y-95885000D02*
X131582940Y-95885000D01*
X173990000Y-95478580D02*
X173271580Y-95478580D01*
X173271580Y-95478580D02*
X173258836Y-95491324D01*
X169151324Y-95491324D02*
X168275000Y-94615000D01*
X131172772Y-95474832D02*
X130664773Y-94966833D01*
X173258836Y-95491324D02*
X169151324Y-95491324D01*
X120650000Y-83820000D02*
X128270000Y-83820000D01*
X171767500Y-79184500D02*
X171767500Y-79692500D01*
X171767500Y-79692500D02*
X171450000Y-80010000D01*
X172085000Y-78867000D02*
X171767500Y-79184500D01*
X172339002Y-78867000D02*
X172085000Y-78867000D01*
X172402501Y-78930499D02*
X172339002Y-78867000D01*
X178244499Y-78930499D02*
X172402501Y-78930499D01*
X178282601Y-78968601D02*
X178244499Y-78930499D01*
X178282601Y-79222601D02*
X178282601Y-78968601D01*
X179070000Y-80010000D02*
X178282601Y-79222601D01*
X153670000Y-94615000D02*
X153162001Y-94107001D01*
X153162001Y-94107001D02*
X146560249Y-94107001D01*
X146560249Y-94107001D02*
X146052894Y-94614356D01*
X154388420Y-94615000D02*
X153670000Y-94615000D01*
X175983879Y-94703879D02*
X172253691Y-94703879D01*
X181691583Y-94615000D02*
X180975000Y-94615000D01*
X166370000Y-94615000D02*
X154388420Y-94615000D01*
X180975000Y-94615000D02*
X179705000Y-95885000D01*
X168910000Y-93980000D02*
X167005000Y-93980000D01*
X167005000Y-93980000D02*
X166370000Y-94615000D01*
X172253691Y-94703879D02*
X171821857Y-95135713D01*
X171821857Y-95135713D02*
X170065713Y-95135713D01*
X177165000Y-95885000D02*
X175983879Y-94703879D01*
X182326583Y-95250000D02*
X181691583Y-94615000D01*
X196850000Y-95250000D02*
X182326583Y-95250000D01*
X179705000Y-95885000D02*
X177165000Y-95885000D01*
X170065713Y-95135713D02*
X168910000Y-93980000D01*
X196850000Y-95250000D02*
X204470000Y-95250000D01*
X195750580Y-107061000D02*
X195623215Y-107188365D01*
X196469000Y-107061000D02*
X195750580Y-107061000D01*
X158183450Y-106299001D02*
X159072814Y-107188365D01*
X153796999Y-106299001D02*
X158183450Y-106299001D01*
X153289000Y-106807000D02*
X153796999Y-106299001D01*
X178110290Y-107188365D02*
X178828710Y-107188365D01*
X159072814Y-107188365D02*
X178110290Y-107188365D01*
X195623215Y-107188365D02*
X178828710Y-107188365D01*
X145981021Y-83185000D02*
X146120731Y-83045290D01*
X145262601Y-83185000D02*
X145981021Y-83185000D01*
X146120731Y-83045290D02*
X153670000Y-83045290D01*
X198120000Y-78740000D02*
X203200000Y-78740000D01*
X203200000Y-78740000D02*
X204470000Y-80010000D01*
X196850000Y-80010000D02*
X198120000Y-78740000D01*
X139649188Y-107010232D02*
X139141189Y-106502233D01*
X154783065Y-107581702D02*
X140220658Y-107581702D01*
X155882477Y-107200710D02*
X155164057Y-107200710D01*
X140220658Y-107581702D02*
X139649188Y-107010232D01*
X155164057Y-107200710D02*
X154783065Y-107581702D01*
X143510000Y-128905000D02*
X156210000Y-128905000D01*
X203200000Y-96710500D02*
X207010000Y-96710500D01*
X199453500Y-127508000D02*
X201104500Y-125857000D01*
X201104500Y-125857000D02*
X204533500Y-125857000D01*
X199453500Y-131635500D02*
X199453500Y-127508000D01*
X199009000Y-132080000D02*
X199453500Y-131635500D01*
X196850000Y-132080000D02*
X199009000Y-132080000D01*
X195580000Y-133350000D02*
X196850000Y-132080000D01*
X209550000Y-128270000D02*
X208915000Y-127635000D01*
X209550000Y-131445000D02*
X209550000Y-128270000D01*
X208915000Y-132080000D02*
X209550000Y-131445000D01*
X201930000Y-132080000D02*
X208915000Y-132080000D01*
X200660000Y-133350000D02*
X201930000Y-132080000D01*
X180484800Y-93967291D02*
X178922702Y-95529389D01*
X178139118Y-95045092D02*
X177420698Y-95045092D01*
X178922702Y-95529389D02*
X178623415Y-95529389D01*
X182190432Y-93967291D02*
X180484800Y-93967291D01*
X182698431Y-94475290D02*
X182190432Y-93967291D01*
X178623415Y-95529389D02*
X178139118Y-95045092D01*
X179768500Y-126555500D02*
X179832000Y-126492000D01*
X165100000Y-126555500D02*
X179768500Y-126555500D01*
X171450000Y-128079500D02*
X185356500Y-128079500D01*
X185356500Y-128079500D02*
X185420000Y-128016000D01*
X111378999Y-126618999D02*
X110871000Y-126111000D01*
X117983001Y-126618999D02*
X111378999Y-126618999D01*
X118491000Y-126111000D02*
X117983001Y-126618999D01*
X115062000Y-95631000D02*
X117983000Y-95631000D01*
X117983000Y-95631000D02*
X118110000Y-95758000D01*
X113160559Y-106299001D02*
X109600999Y-106299001D01*
X121793000Y-107823000D02*
X120777000Y-106807000D01*
X109600999Y-106299001D02*
X109093000Y-106807000D01*
X120777000Y-106807000D02*
X113668558Y-106807000D01*
X113668558Y-106807000D02*
X113160559Y-106299001D01*
X109093000Y-116967000D02*
X109093000Y-119634000D01*
X128778000Y-95758000D02*
X122428000Y-95758000D01*
X130428999Y-94107001D02*
X128778000Y-95758000D01*
X131953000Y-94615000D02*
X131445001Y-94107001D01*
X131445001Y-94107001D02*
X130428999Y-94107001D01*
X128524000Y-135001000D02*
X129921000Y-133604000D01*
X114808000Y-135001000D02*
X128524000Y-135001000D01*
X113944399Y-134137399D02*
X114808000Y-135001000D01*
X113030000Y-133350000D02*
X113817399Y-134137399D01*
X113817399Y-134137399D02*
X113944399Y-134137399D01*
X145240405Y-95110290D02*
X144521985Y-95110290D01*
X145659504Y-95529389D02*
X145240405Y-95110290D01*
X149141580Y-95110290D02*
X148722481Y-95529389D01*
X149860000Y-95110290D02*
X149141580Y-95110290D01*
X148722481Y-95529389D02*
X145659504Y-95529389D01*
X144284701Y-84594701D02*
X144017999Y-84327999D01*
X156070299Y-84594701D02*
X144284701Y-84594701D01*
X156845000Y-83820000D02*
X156070299Y-84594701D01*
X144017999Y-84327999D02*
X143510000Y-83820000D01*
X147320000Y-83820000D02*
X154940000Y-83820000D01*
X196215000Y-83820000D02*
X195456573Y-83820000D01*
X194573142Y-83680285D02*
X194433427Y-83820000D01*
X195456573Y-83820000D02*
X195316858Y-83680285D01*
X195316858Y-83680285D02*
X194573142Y-83680285D01*
X194433427Y-83820000D02*
X193675000Y-83820000D01*
X207010000Y-83820000D02*
X196215000Y-83820000D01*
X210959701Y-84594701D02*
X195803134Y-84594701D01*
X212018743Y-85653743D02*
X210959701Y-84594701D01*
X195803134Y-84594701D02*
X195663420Y-84454987D01*
X195663420Y-84454987D02*
X194945000Y-84454987D01*
X168147999Y-95897709D02*
X167640000Y-95389710D01*
X168503580Y-96253290D02*
X168147999Y-95897709D01*
X180432316Y-96253290D02*
X168503580Y-96253290D01*
X181141803Y-95543803D02*
X180432316Y-96253290D01*
X183273710Y-106413290D02*
X172949754Y-106413290D01*
X172949754Y-106413290D02*
X172665641Y-106129177D01*
X120860420Y-94983290D02*
X127000000Y-94983290D01*
X119875290Y-95250000D02*
X120593710Y-95250000D01*
X120593710Y-95250000D02*
X120860420Y-94983290D01*
X123571000Y-106680000D02*
X122923290Y-106032290D01*
X122923290Y-106032290D02*
X114891420Y-106032290D01*
X114891420Y-106032290D02*
X114173000Y-106032290D01*
D23*
X106553000Y-106934000D02*
X83058000Y-106934000D01*
X83058000Y-106934000D02*
X82550000Y-106426000D01*
X80010000Y-110490000D02*
X82550000Y-110490000D01*
X167483551Y-130810000D02*
X168910000Y-130810000D01*
X166370000Y-130810000D02*
X167483551Y-130810000D01*
X190500000Y-130810000D02*
X186816999Y-134493001D01*
X186816999Y-134493001D02*
X164338001Y-134493001D01*
X164338001Y-134493001D02*
X163830000Y-133985000D01*
X195580000Y-130810000D02*
X190500000Y-130810000D01*
X160020000Y-130810000D02*
X157137110Y-127927110D01*
X157137110Y-127927110D02*
X137223500Y-127927110D01*
X166370000Y-130810000D02*
X160020000Y-130810000D01*
X110490000Y-130810000D02*
X113372890Y-127927110D01*
X136325475Y-127927110D02*
X137223500Y-127927110D01*
X113372890Y-127927110D02*
X136325475Y-127927110D01*
X195580000Y-130810000D02*
X198120000Y-130810000D01*
X107950000Y-130810000D02*
X110490000Y-130810000D01*
X137160000Y-130810000D02*
X139700000Y-130810000D01*
D22*
X83693000Y-134747000D02*
X84200999Y-135254999D01*
X84200999Y-135254999D02*
X94615001Y-135254999D01*
X94615001Y-135254999D02*
X95732601Y-134137399D01*
X95732601Y-134137399D02*
X96520000Y-133350000D01*
M02*
