*%FSLAX23Y23*%
*%MOIN*%
G01*
%ADD11C,0.006*%
%ADD12C,0.007*%
%ADD13C,0.008*%
%ADD14C,0.010*%
%ADD15C,0.012*%
%ADD16C,0.020*%
%ADD17C,0.024*%
%ADD18C,0.032*%
%ADD19C,0.036*%
%ADD20C,0.040*%
%ADD21C,0.050*%
%ADD22C,0.052*%
%ADD23C,0.055*%
%ADD24C,0.056*%
%ADD25C,0.059*%
%ADD26C,0.060*%
%ADD27C,0.062*%
%ADD28C,0.066*%
%ADD29C,0.070*%
%ADD30C,0.082*%
%ADD31C,0.090*%
%ADD32C,0.095*%
%ADD33O,0.100X0.080*%
%ADD34C,0.100*%
%ADD35O,0.104X0.084*%
%ADD36C,0.104*%
%ADD37C,0.115*%
%ADD38C,0.120*%
%ADD39C,0.124*%
%ADD40C,0.125*%
%ADD41C,0.128*%
%ADD42C,0.129*%
%ADD43C,0.140*%
%ADD44C,0.144*%
%ADD45C,0.148*%
%ADD46C,0.150*%
%ADD47C,0.154*%
%ADD48C,0.250*%
%ADD49C,0.250*%
%ADD50R,0.062X0.062*%
%ADD51R,0.066X0.066*%
%ADD52R,0.075X0.075*%
%ADD53R,0.079X0.079*%
%ADD54R,0.250X0.250*%
D14*
X15580Y8888D02*
X15590Y8878D01*
X15580Y8888D02*
X15560D01*
X15550Y8878D01*
Y8838D01*
X15560Y8828D01*
X15580D01*
X15590Y8838D01*
X15620Y8888D02*
X15640D01*
X15620D02*
X15610Y8878D01*
Y8838D01*
X15620Y8828D01*
X15640D01*
X15650Y8838D01*
Y8878D01*
X15640Y8888D01*
X15670D02*
Y8828D01*
Y8888D02*
X15700D01*
X15710Y8878D01*
Y8858D01*
X15700Y8848D01*
X15670D01*
X15730Y8878D02*
Y8888D01*
Y8878D02*
X15750Y8858D01*
X15770Y8878D01*
Y8888D01*
X15750Y8858D02*
Y8828D01*
X15790D02*
Y8888D01*
X15820D01*
X15830Y8878D01*
Y8858D01*
X15820Y8848D01*
X15790D01*
X15810D02*
X15830Y8828D01*
X15850Y8888D02*
X15870D01*
X15860D01*
Y8828D01*
X15850D01*
X15870D01*
X15930Y8888D02*
X15940Y8878D01*
X15930Y8888D02*
X15910D01*
X15900Y8878D01*
Y8838D01*
X15910Y8828D01*
X15930D01*
X15940Y8838D01*
Y8858D01*
X15920D01*
X15960Y8888D02*
Y8828D01*
Y8858D01*
X16000D01*
Y8888D01*
Y8828D01*
X16020Y8888D02*
X16060D01*
X16040D01*
Y8828D01*
X16140Y8848D02*
X16160Y8828D01*
X16140Y8848D02*
Y8868D01*
X16160Y8888D01*
X16220D02*
X16230Y8878D01*
X16220Y8888D02*
X16200D01*
X16190Y8878D01*
Y8838D01*
X16200Y8828D01*
X16220D01*
X16230Y8838D01*
X16250Y8828D02*
X16270Y8848D01*
Y8868D01*
X16250Y8888D01*
X16360Y8828D02*
X16400D01*
X16360D02*
X16400Y8868D01*
Y8878D01*
X16390Y8888D01*
X16370D01*
X16360Y8878D01*
X16420D02*
X16430Y8888D01*
X16450D01*
X16460Y8878D01*
Y8838D01*
X16450Y8828D01*
X16430D01*
X16420Y8838D01*
Y8878D01*
X16480D02*
X16490Y8888D01*
X16510D01*
X16520Y8878D01*
Y8838D01*
X16510Y8828D01*
X16490D01*
X16480Y8838D01*
Y8878D01*
X16540D02*
X16550Y8888D01*
X16570D01*
X16580Y8878D01*
Y8868D01*
X16581D01*
X16580D02*
X16581D01*
X16580D02*
X16581D01*
X16580D02*
X16570Y8858D01*
X16560D01*
X16570D01*
X16580Y8848D01*
Y8838D01*
X16570Y8828D01*
X16550D01*
X16540Y8838D01*
X16550Y7253D02*
Y7213D01*
Y7253D02*
X16590Y7213D01*
X16600D01*
X16610Y7223D01*
Y7243D01*
X16600Y7253D01*
Y7193D02*
X16610Y7183D01*
Y7163D01*
X16600Y7153D01*
X16560D01*
X16550Y7163D01*
Y7183D01*
X16560Y7193D01*
X16600D01*
Y7133D02*
X16610Y7123D01*
Y7103D01*
X16600Y7093D01*
X16560D01*
X16550Y7103D01*
Y7123D01*
X16560Y7133D01*
X16600D01*
X16580Y7073D02*
Y7033D01*
X16550Y7013D02*
Y6993D01*
Y7003D01*
X16610D01*
X16611D01*
X16610D02*
X16600Y7013D01*
Y6963D02*
X16610Y6953D01*
Y6933D01*
X16600Y6923D01*
X16560D01*
X16550Y6933D01*
Y6953D01*
X16560Y6963D01*
X16600D01*
X16550Y6903D02*
Y6883D01*
Y6893D01*
X16610D01*
X16611D01*
X16610D02*
X16600Y6903D01*
X16610Y6853D02*
Y6813D01*
X16600D01*
X16560Y6853D01*
X16550D01*
Y6733D02*
X16610D01*
Y6703D01*
X16600Y6693D01*
X16580D01*
X16570Y6703D01*
Y6733D01*
Y6713D02*
X16550Y6693D01*
X16610Y6673D02*
Y6633D01*
Y6673D02*
X16550D01*
Y6633D01*
X16580Y6653D02*
Y6673D01*
X16570Y6613D02*
X16610D01*
X16570D02*
X16550Y6593D01*
X16570Y6573D01*
X16610D01*
Y6493D02*
X16550D01*
Y6453D02*
X16610Y6493D01*
Y6453D02*
X16550D01*
X16600Y6393D02*
X16610Y6403D01*
Y6423D01*
X16600Y6433D01*
X16560D01*
X16550Y6423D01*
Y6403D01*
X16560Y6393D01*
X5152Y9288D02*
X5085D01*
X5152Y9355D01*
Y9371D01*
X5135Y9388D01*
X5102D01*
X5085Y9371D01*
X5185D02*
X5202Y9388D01*
X5235D01*
X5252Y9371D01*
Y9305D01*
X5235Y9288D01*
X5202D01*
X5185Y9305D01*
Y9371D01*
X5285D02*
X5302Y9388D01*
X5335D01*
X5352Y9371D01*
Y9305D01*
X5335Y9288D01*
X5302D01*
X5285Y9305D01*
Y9371D01*
X5385Y9338D02*
X5452D01*
X5485Y9288D02*
X5518D01*
X5502D01*
Y9388D01*
X5503D01*
X5502D02*
X5485Y9371D01*
X5568D02*
X5585Y9388D01*
X5618D01*
X5635Y9371D01*
Y9305D01*
X5618Y9288D01*
X5585D01*
X5568Y9305D01*
Y9371D01*
X5668Y9288D02*
X5701D01*
X5685D01*
Y9388D01*
X5686D01*
X5685D02*
X5668Y9371D01*
X5751Y9388D02*
X5818D01*
Y9371D01*
X5751Y9305D01*
Y9288D01*
X5851Y9338D02*
X5918D01*
X5951Y9371D02*
X5968Y9388D01*
X6001D01*
X6018Y9371D01*
Y9305D01*
X6001Y9288D01*
X5968D01*
X5951Y9305D01*
Y9371D01*
X6051Y9288D02*
X6118D01*
X6051D02*
X6118Y9355D01*
Y9371D01*
X6101Y9388D01*
X6068D01*
X6051Y9371D01*
X6251Y9388D02*
Y9288D01*
Y9388D02*
X6301D01*
X6318Y9371D01*
Y9338D01*
X6301Y9321D01*
X6251D01*
X6285D02*
X6318Y9288D01*
X6351Y9388D02*
X6418D01*
X6351D02*
Y9288D01*
X6418D01*
X6385Y9338D02*
X6351D01*
X6451Y9321D02*
Y9388D01*
Y9321D02*
X6485Y9288D01*
X6518Y9321D01*
Y9388D01*
X6651D02*
Y9288D01*
X6718D02*
X6651Y9388D01*
X6718D02*
Y9288D01*
X6818Y9371D02*
X6801Y9388D01*
X6768D01*
X6751Y9371D01*
Y9305D01*
X6768Y9288D01*
X6801D01*
X6818Y9305D01*
X7001Y9388D02*
X7018Y9371D01*
X7001Y9388D02*
X6968D01*
X6951Y9371D01*
Y9305D01*
X6968Y9288D01*
X7001D01*
X7018Y9305D01*
X7068Y9388D02*
X7101D01*
X7068D02*
X7051Y9371D01*
Y9305D01*
X7068Y9288D01*
X7101D01*
X7118Y9305D01*
Y9371D01*
X7101Y9388D01*
X7151D02*
Y9288D01*
X7184Y9355D02*
X7151Y9388D01*
X7184Y9355D02*
X7218Y9388D01*
Y9288D01*
X7251D02*
Y9388D01*
X7301D01*
X7318Y9371D01*
Y9338D01*
X7301Y9321D01*
X7251D01*
X7368Y9388D02*
X7401D01*
X7368D02*
X7351Y9371D01*
Y9305D01*
X7368Y9288D01*
X7401D01*
X7418Y9305D01*
Y9371D01*
X7401Y9388D01*
X7451D02*
Y9288D01*
X7518D02*
X7451Y9388D01*
X7518D02*
Y9288D01*
X7551Y9388D02*
X7618D01*
X7551D02*
Y9288D01*
X7618D01*
X7584Y9338D02*
X7551D01*
X7651Y9288D02*
Y9388D01*
X7717Y9288D01*
Y9388D01*
X7751D02*
X7817D01*
X7784D01*
Y9288D01*
X8001Y9388D02*
X8017Y9371D01*
X8001Y9388D02*
X7967D01*
X7951Y9371D01*
Y9355D01*
X7967Y9338D01*
X8001D01*
X8017Y9321D01*
Y9305D01*
X8001Y9288D01*
X7967D01*
X7951Y9305D01*
X8051Y9388D02*
X8084D01*
X8067D01*
Y9288D01*
X8051D01*
X8084D01*
X8134D02*
Y9388D01*
Y9288D02*
X8184D01*
X8201Y9305D01*
Y9371D01*
X8184Y9388D01*
X8134D01*
X8234D02*
X8301D01*
X8234D02*
Y9288D01*
X8301D01*
X8267Y9338D02*
X8234D01*
X15650Y8813D02*
Y8753D01*
X15680D01*
X15690Y8763D01*
Y8773D01*
X15680Y8783D01*
X15650D01*
X15651D01*
X15650D02*
X15651D01*
X15650D02*
X15651D01*
X15650D02*
X15680D01*
X15690Y8793D01*
Y8803D01*
X15680Y8813D01*
X15650D01*
X15710D02*
Y8803D01*
X15730Y8783D01*
X15750Y8803D01*
Y8813D01*
X15730Y8783D02*
Y8753D01*
X15850Y8813D02*
X15870D01*
X15860D02*
X15850D01*
X15860D02*
Y8763D01*
X15850Y8753D01*
X15840D01*
X15830Y8763D01*
X15890Y8813D02*
X15910D01*
X15900D01*
Y8753D01*
X15890D01*
X15910D01*
X15940D02*
Y8813D01*
X15960Y8793D01*
X15980Y8813D01*
Y8753D01*
X16060D02*
Y8813D01*
X16090D01*
X16100Y8803D01*
Y8783D01*
X16090Y8773D01*
X16060D01*
X16120Y8753D02*
Y8793D01*
X16140Y8813D01*
X16160Y8793D01*
Y8753D01*
Y8783D01*
X16120D01*
X16180Y8813D02*
X16220D01*
X16200D01*
Y8753D01*
X16270Y8813D02*
X16280Y8803D01*
X16270Y8813D02*
X16250D01*
X16240Y8803D01*
Y8763D01*
X16250Y8753D01*
X16270D01*
X16280Y8763D01*
X16300Y8753D02*
Y8813D01*
Y8783D02*
Y8753D01*
Y8783D02*
X16340D01*
Y8813D01*
Y8753D01*
X16360Y8813D02*
X16400D01*
X16360D02*
Y8753D01*
X16400D01*
X16380Y8783D02*
X16360D01*
X16420Y8813D02*
Y8753D01*
X16460D01*
X16480D02*
Y8813D01*
Y8753D02*
X16520D01*
X16650Y9078D02*
X3650D01*
Y6328D02*
X16650D01*
X3650D02*
Y9078D01*
X16650D02*
Y6328D01*
D15*
X4950Y7728D02*
X4800Y7578D01*
X4850D02*
X5000Y7728D01*
Y7878D02*
X5300Y8178D01*
X5100Y7778D02*
X4975Y7653D01*
X4900Y7978D02*
X5125Y8203D01*
X5200Y8328D02*
X4750Y7878D01*
X5100Y7928D02*
X5325Y8153D01*
X3950Y7503D02*
X3800Y7353D01*
X4450Y7303D02*
X4575Y7428D01*
X5000Y7028D02*
X5150Y7178D01*
X7725Y6928D02*
X8050Y7253D01*
X6400Y8103D02*
X6250Y7953D01*
X4650Y7553D02*
X4400Y7303D01*
X4350Y7828D02*
X4800Y8278D01*
X4250Y7553D02*
X4000Y7303D01*
X5525Y8153D02*
X5750Y8378D01*
X4975Y7528D02*
X4850Y7403D01*
X4650Y7828D02*
X5100Y8278D01*
X4550Y7553D02*
X4300Y7303D01*
X4450Y7828D02*
X4900Y8278D01*
X4350Y7553D02*
X4100Y7303D01*
X5400Y8203D02*
X5550Y8353D01*
X5650Y8378D02*
X5450Y8178D01*
X5000Y8278D02*
X4550Y7828D01*
X4450Y7553D02*
X4200Y7303D01*
X4050Y8453D02*
X4175Y8578D01*
X11475Y7678D02*
X11675Y7878D01*
X12975Y7653D02*
X13175Y7853D01*
X12775Y7928D02*
X12650Y7803D01*
X13575Y7628D02*
X13775Y7828D01*
X14175Y7628D02*
X14375Y7828D01*
X8300Y7253D02*
X8150Y7403D01*
X5975Y6753D02*
X5850Y6878D01*
X7150Y8378D02*
X7000Y8528D01*
X5600Y7003D02*
X5400Y7203D01*
Y6978D02*
X5525Y6853D01*
X7050Y8403D02*
X6900Y8553D01*
X6300Y7528D02*
X6550Y7278D01*
X5325Y6753D02*
X5200Y6878D01*
X5500Y7153D02*
X5650Y7003D01*
X10225Y7578D02*
X10525Y7278D01*
X11825Y8478D02*
X11575Y8728D01*
Y8628D02*
X11725Y8478D01*
X13800D02*
X13925Y8353D01*
X13325Y7553D02*
X13650Y7228D01*
X13325Y8728D02*
X13175Y8878D01*
X13000Y8728D02*
X13175Y8553D01*
X14275Y8728D02*
X14475Y8528D01*
X6575Y7353D02*
X6400Y7528D01*
X12025Y7478D02*
X12275Y7228D01*
X12025Y8728D02*
X11875Y8878D01*
X3800Y7353D02*
Y7128D01*
X3900Y7778D02*
Y7928D01*
X3950Y8053D02*
Y7503D01*
X4000Y7303D02*
Y7278D01*
Y7578D02*
Y7628D01*
Y7778D02*
Y7928D01*
Y8228D02*
Y8378D01*
X4050Y8153D02*
X3950Y8053D01*
X4100Y7728D02*
X4000Y7628D01*
X4100D02*
Y7578D01*
Y7728D02*
Y7778D01*
Y7303D02*
Y7278D01*
Y8228D02*
Y8378D01*
X4050Y8453D02*
Y8153D01*
X4075Y8653D02*
Y8803D01*
X4200Y7778D02*
Y7728D01*
Y7303D02*
Y7278D01*
Y8228D02*
Y8378D01*
Y7628D02*
Y7578D01*
X4175Y8578D02*
Y8653D01*
X4200Y7728D02*
X4100Y7628D01*
X4200D02*
X4300Y7728D01*
X4900Y7028D02*
X5000D01*
X4350Y7728D02*
Y7828D01*
X4250Y7628D02*
Y7553D01*
X4300Y7303D02*
Y7278D01*
X4350Y7553D02*
Y7628D01*
X4300Y7728D02*
Y7778D01*
Y7628D02*
Y7578D01*
Y8228D02*
Y8378D01*
X4275Y8453D02*
Y8653D01*
X4225Y8578D02*
Y8803D01*
X4275Y8853D02*
Y8953D01*
X4400Y7128D02*
Y7028D01*
Y7278D02*
Y7303D01*
Y7578D02*
Y7628D01*
Y7728D02*
Y7778D01*
X4350Y6953D02*
Y6878D01*
X4300Y7003D02*
Y7128D01*
X4250Y7628D02*
X4350Y7728D01*
Y7628D02*
X4450Y7728D01*
X4400D02*
X4300Y7628D01*
X4225Y8803D02*
X4275Y8853D01*
X4450Y7178D02*
X4400Y7128D01*
Y7628D02*
X4500Y7728D01*
X4300Y7003D02*
X4350Y6953D01*
X4575Y7203D02*
X4800D01*
X4725Y7228D02*
X4650D01*
X5950Y7128D02*
X5975D01*
X13650Y7228D02*
X14300D01*
X4450Y7178D02*
Y7303D01*
X4550Y7553D02*
Y7628D01*
X4450Y7728D02*
Y7828D01*
X4550D02*
Y7728D01*
X4450Y7628D02*
Y7553D01*
X4500Y7578D02*
Y7628D01*
Y7728D02*
Y7778D01*
Y8228D02*
Y8378D01*
X4600Y7628D02*
Y7578D01*
Y7728D02*
Y7778D01*
X4650Y7728D02*
X4550Y7628D01*
X4450D02*
X4550Y7728D01*
X4600D02*
X4500Y7628D01*
X4575Y8953D02*
X4650Y9028D01*
X4700Y7728D02*
X4600Y7628D01*
X4500Y7278D02*
X4575Y7203D01*
X4600Y7278D02*
X4650Y7228D01*
X5550Y7378D02*
X5650D01*
X14175Y7478D02*
X14275D01*
X13675D02*
X13600D01*
X4600Y7428D02*
X4575D01*
X5525Y7328D02*
X5675D01*
X5550Y7378D02*
X5525D01*
X6575Y7353D02*
X6675D01*
X4750Y7728D02*
Y7878D01*
X4650Y7628D02*
Y7553D01*
X4700Y7728D02*
Y7778D01*
X4650Y7728D02*
Y7828D01*
X4700Y7428D02*
Y7278D01*
X4750Y7478D02*
Y7628D01*
Y7428D02*
Y7253D01*
X4700Y7578D02*
Y7628D01*
X4675Y8803D02*
Y8953D01*
X4800Y8378D02*
Y8278D01*
Y7778D02*
Y7728D01*
X4750D02*
X4650Y7628D01*
X4750Y7478D02*
X4700Y7428D01*
X4750Y7628D02*
X4825Y7703D01*
X4850Y7528D02*
X4750Y7428D01*
Y7253D02*
X4725Y7228D01*
X4700Y7628D02*
X4800Y7728D01*
X4675Y8953D02*
X4725Y9003D01*
X4850Y7253D02*
X4800Y7203D01*
X6150Y7528D02*
X6300D01*
X6225Y7653D02*
X6075D01*
X6800D02*
X6875D01*
X4950Y7728D02*
Y7903D01*
X4900Y7778D02*
Y7753D01*
X4850Y7578D02*
Y7528D01*
X4975D02*
Y7653D01*
X4900Y7778D02*
Y7978D01*
X4850Y7403D02*
Y7253D01*
X4900Y8278D02*
Y8378D01*
X5025Y7978D02*
X4950Y7903D01*
X4900Y7753D02*
X4850Y7703D01*
X4825D01*
X5950Y7728D02*
X6175D01*
X6800D02*
X7075D01*
X5000D02*
Y7778D01*
Y7878D01*
X5100Y7928D02*
Y7778D01*
Y8278D02*
Y8378D01*
X5000D02*
Y8278D01*
X5150Y7278D02*
Y7178D01*
Y7403D02*
Y7578D01*
Y7403D02*
X5200Y7353D01*
Y8328D02*
Y8378D01*
X5250Y7578D02*
Y7403D01*
X5300Y7353D02*
Y7228D01*
X5325Y6753D02*
Y6453D01*
X5200Y6878D02*
Y7353D01*
X5350Y7278D02*
Y7428D01*
Y7078D02*
Y6878D01*
X5400Y7128D02*
X5300Y7228D01*
Y7353D02*
X5250Y7403D01*
X5300Y7128D02*
X5350Y7078D01*
X5250Y8953D02*
X5200Y9003D01*
X5350Y7578D02*
X5425Y7503D01*
X5450Y8178D02*
X5300D01*
X5325Y8203D02*
X5125D01*
X5325Y8153D02*
X5525D01*
X5400Y8203D02*
X5325D01*
X5450Y7578D02*
Y7503D01*
X5400Y7303D02*
Y7203D01*
X5500Y7403D02*
Y7453D01*
X5425Y7428D02*
Y7503D01*
X5400Y7128D02*
Y6978D01*
X5525Y6853D02*
Y6503D01*
X5500Y7153D02*
Y7303D01*
X5450D02*
Y7278D01*
Y8828D02*
Y8953D01*
X5550Y8378D02*
Y8353D01*
X5500Y7403D02*
X5400Y7303D01*
X5500D02*
X5525Y7328D01*
Y7378D02*
X5450Y7303D01*
X5500Y7453D02*
X5450Y7503D01*
X9050Y8278D02*
X9125D01*
X9250Y8428D02*
X9450D01*
X5775Y6853D02*
Y6828D01*
Y6703D01*
X5725Y6678D02*
Y7653D01*
X5700Y7528D02*
Y7353D01*
X5600Y7003D02*
Y6553D01*
X5650Y6628D02*
Y7003D01*
X5775Y6853D02*
X5825Y6903D01*
X5725Y7653D02*
X5800Y7728D01*
X5700Y7353D02*
X5675Y7328D01*
X5775Y6703D02*
X5825Y6653D01*
X5700Y7528D02*
X5650Y7578D01*
Y6628D02*
X5675Y6603D01*
X7075Y8603D02*
X7150D01*
X8350Y8478D02*
X8425D01*
X5850Y7628D02*
Y6878D01*
X5825Y6903D02*
Y7703D01*
X5850Y7728D02*
Y7778D01*
X5800Y7728D02*
Y7903D01*
X5900Y7278D02*
Y7078D01*
Y8003D02*
Y8478D01*
X5950Y8053D02*
Y7778D01*
Y7178D02*
Y7128D01*
Y8528D02*
Y8653D01*
X5975Y6753D02*
Y6628D01*
X5850Y7628D02*
X5950Y7728D01*
X5850D02*
X5825Y7703D01*
X5900Y8478D02*
X5950Y8528D01*
X5900Y8003D02*
X5800Y7903D01*
X5950Y8053D02*
X6000Y8103D01*
X6025Y6953D02*
X5950Y6878D01*
Y7178D02*
X6000Y7228D01*
X5900Y7078D02*
X5950Y7028D01*
X6025Y7078D02*
X5975Y7128D01*
X13625Y8703D02*
X13975D01*
X7325D02*
X7150D01*
X7025D02*
X6850D01*
X12975Y8728D02*
X13000D01*
X9200D02*
X8825D01*
X9000Y8678D02*
X9175D01*
X6050Y7628D02*
Y7253D01*
X6100Y8903D02*
Y8978D01*
X6000Y8803D02*
Y8103D01*
X6050Y8853D02*
Y8953D01*
Y8053D02*
Y7778D01*
X6100Y8103D02*
Y8828D01*
X6075D02*
Y8878D01*
X6050Y8803D02*
Y8653D01*
X6025Y7078D02*
Y6953D01*
X6000Y7228D02*
Y7278D01*
X6150Y7778D02*
Y8053D01*
Y8878D02*
Y8953D01*
X6075Y7653D02*
X6050Y7628D01*
X6100Y9028D02*
X6125Y9053D01*
X6150Y9028D02*
X6100Y8978D01*
X6050Y8853D02*
X6000Y8803D01*
X6100Y8103D02*
X6050Y8053D01*
X6100Y8828D02*
X6150Y8878D01*
X6075Y8828D02*
X6050Y8803D01*
X6075Y8878D02*
X6100Y8903D01*
X6200Y8103D02*
X6150Y8053D01*
X6100Y7578D02*
X6150Y7528D01*
X6050Y7253D02*
X6100Y7203D01*
Y9028D02*
X4650D01*
X6150D02*
X7975D01*
X7700Y9003D02*
X6425D01*
X6625Y8903D02*
X7250D01*
X7750Y8953D02*
X7800D01*
X5200Y9003D02*
X4725D01*
X11325Y8928D02*
X11625D01*
X11825Y8878D02*
X11875D01*
X6250Y7778D02*
Y7678D01*
X6200Y7753D02*
Y8028D01*
X6300Y8128D02*
Y8778D01*
X6250Y7953D02*
Y7778D01*
X6200Y8103D02*
Y8453D01*
X6250Y8503D02*
Y8653D01*
Y8828D02*
Y8953D01*
X6300Y7728D02*
Y7528D01*
X6350Y7278D02*
Y7228D01*
Y8653D02*
Y8803D01*
Y7028D02*
Y6878D01*
X6225Y7653D02*
X6250Y7678D01*
X6175Y7728D02*
X6200Y7753D01*
Y8028D02*
X6300Y8128D01*
X6275Y7978D02*
X6250Y7953D01*
X6200Y8453D02*
X6250Y8503D01*
X6350Y7778D02*
X6300Y7728D01*
X6350Y8803D02*
X6400Y8853D01*
X6300Y8778D02*
X6250Y8828D01*
X6350Y7228D02*
X6425Y7153D01*
X6125Y9053D02*
X8075D01*
X6400Y8978D02*
Y8853D01*
X6500Y8703D02*
Y8303D01*
X6450Y8828D02*
Y8953D01*
X6425Y7153D02*
Y7103D01*
X6450Y7153D02*
Y7278D01*
X6400Y8103D02*
Y8778D01*
Y7653D02*
Y7528D01*
X6450Y7703D02*
Y7778D01*
Y7978D02*
Y8378D01*
X6550Y8253D02*
Y7778D01*
X6525Y7078D02*
Y7053D01*
X6550Y7128D02*
Y7278D01*
Y7578D02*
Y7603D01*
Y8378D02*
Y8453D01*
X6400Y8978D02*
X6425Y9003D01*
X6550Y8753D02*
X6500Y8703D01*
X6525Y7053D02*
X6475Y7003D01*
X6400Y8778D02*
X6450Y8828D01*
Y7703D02*
X6400Y7653D01*
X6550Y7603D02*
X6650Y7703D01*
X6550Y8453D02*
X6600Y8503D01*
X6500Y8303D02*
X6550Y8253D01*
X6425Y7103D02*
X6450Y7078D01*
X6500Y7103D02*
X6450Y7153D01*
X6500Y7103D02*
X6525Y7078D01*
X6600Y8503D02*
Y8778D01*
Y6553D02*
Y6453D01*
X6650Y7703D02*
Y7778D01*
X6750Y7978D02*
Y8378D01*
X6725Y6778D02*
Y6553D01*
X6700Y7753D02*
Y8553D01*
X6575Y8853D02*
X6625Y8903D01*
X6650Y8828D02*
X6600Y8778D01*
X6800Y6853D02*
X6725Y6778D01*
X6800Y7728D02*
X6750Y7778D01*
X6675Y7353D02*
X6750Y7278D01*
X6800Y7653D02*
X6700Y7753D01*
X6850Y8378D02*
Y8453D01*
X6825Y8478D02*
Y8503D01*
Y8678D01*
X6900Y8653D02*
Y8553D01*
X6850Y8378D02*
Y8028D01*
X6950Y7578D02*
Y7428D01*
Y8128D02*
Y8378D01*
Y7853D02*
Y7778D01*
X6925Y7878D02*
Y8028D01*
X6900Y7628D02*
Y7303D01*
X6850Y7378D02*
Y7578D01*
X6800Y7328D02*
Y6853D01*
X6900Y7103D02*
Y7303D01*
X6825Y8678D02*
X6850Y8703D01*
Y7378D02*
X6800Y7328D01*
X6850Y8453D02*
X6825Y8478D01*
X6950Y8128D02*
X7000Y8078D01*
X6925Y7878D02*
X6950Y7853D01*
X6875Y7653D02*
X6900Y7628D01*
Y7103D02*
X6975Y7028D01*
X7000Y8528D02*
Y8653D01*
X7050Y8103D02*
Y7778D01*
Y8628D02*
Y8678D01*
Y8403D02*
Y8378D01*
X7100Y7878D02*
Y7753D01*
X7000Y7953D02*
Y8078D01*
X7100Y7953D02*
Y7878D01*
X7150Y7778D02*
Y7678D01*
X6975Y7028D02*
Y6878D01*
X7100Y8653D02*
X7150Y8703D01*
X7100Y7753D02*
X7075Y7728D01*
X7150Y8603D02*
X7200Y8653D01*
X7050Y8678D02*
X7025Y8703D01*
X7050Y8628D02*
X7075Y8603D01*
X7250Y8453D02*
Y8378D01*
X7225Y8503D02*
Y8578D01*
X7250Y8378D02*
Y8103D01*
Y8903D02*
X7300Y8953D01*
X7350Y8553D02*
X7250Y8453D01*
X7225Y8578D02*
X7300Y8653D01*
X7250Y7778D02*
X7350Y7678D01*
Y8678D02*
X7325Y8703D01*
X7350Y8678D02*
Y8553D01*
Y8378D02*
Y8103D01*
X7625Y6703D02*
Y6528D01*
X7725D02*
Y6928D01*
X7750Y8953D02*
X7700Y9003D01*
X8050Y7953D02*
Y7253D01*
Y8578D02*
Y8953D01*
X8100Y8528D02*
Y8003D01*
X8050Y7953D01*
X8000Y8528D02*
X8050Y8578D01*
X8150Y8978D02*
X8075Y9053D01*
X7975Y9028D02*
X8050Y8953D01*
X8300Y7253D02*
Y6828D01*
X8250Y7628D02*
Y7878D01*
X8150Y7978D02*
Y8978D01*
X8200Y8528D02*
Y8053D01*
X8250Y8578D02*
Y8803D01*
X8150Y7853D02*
Y7403D01*
X8300Y7478D02*
Y7578D01*
X8200Y8528D02*
X8250Y8578D01*
Y7628D02*
X8300Y7578D01*
X8250Y7878D02*
X8150Y7978D01*
X8350Y8478D02*
X8300Y8528D01*
X8350Y8578D02*
Y8653D01*
Y8728D01*
X8500Y8553D02*
Y8953D01*
Y8553D02*
X8425Y8478D01*
X8400Y8528D02*
X8350Y8578D01*
X8650Y6828D02*
Y6653D01*
Y6828D02*
X8750Y6928D01*
X8775Y7803D02*
Y8028D01*
X8800Y7778D02*
Y6403D01*
X8750Y6928D02*
Y7053D01*
Y7278D01*
X8875Y8203D02*
Y8328D01*
Y8028D02*
Y7703D01*
X8825Y7878D02*
Y8153D01*
X8775Y8328D02*
Y8678D01*
X8875Y8203D02*
X8825Y8153D01*
X8775Y8678D02*
X8825Y8728D01*
X8775Y7803D02*
X8800Y7778D01*
X8975Y7703D02*
Y8028D01*
Y8153D02*
Y8328D01*
X9075Y8028D02*
Y7303D01*
X9100Y8428D02*
Y8553D01*
Y8578D01*
X9075Y8403D02*
Y8328D01*
X9025Y8303D02*
Y8403D01*
X9000Y8428D02*
Y8578D01*
X8925Y8103D02*
Y7828D01*
Y8103D02*
X8975Y8153D01*
X9075Y8403D02*
X9100Y8428D01*
Y8578D02*
X9150Y8628D01*
X9050D02*
X9000Y8578D01*
X8950Y8628D02*
X9000Y8678D01*
X9025Y8303D02*
X9050Y8278D01*
X9025Y8403D02*
X9000Y8428D01*
X9275Y8328D02*
Y8278D01*
Y8028D02*
Y7753D01*
X9175Y8028D02*
Y7253D01*
X9250Y8628D02*
Y8678D01*
X9200Y8653D02*
Y8478D01*
X9275Y7753D02*
X9225Y7703D01*
X9125Y8278D02*
X9175Y8328D01*
X9275Y8278D02*
X9325Y8228D01*
X9250Y8678D02*
X9200Y8728D01*
Y8478D02*
X9250Y8428D01*
X9200Y8653D02*
X9175Y8678D01*
X9400Y7378D02*
Y7028D01*
X9475Y7453D02*
Y8028D01*
X9375Y8278D02*
Y8328D01*
X9325Y8228D02*
Y7828D01*
X9425Y7778D02*
Y8228D01*
X9375Y8028D02*
Y7778D01*
X9475Y8328D02*
Y8403D01*
Y7453D02*
X9400Y7378D01*
X9350Y7753D02*
X9375Y7778D01*
X9425Y8228D02*
X9375Y8278D01*
X9475Y8403D02*
X9450Y8428D01*
X9575Y8328D02*
Y8578D01*
X9625Y8153D02*
Y7578D01*
X9850Y8153D02*
Y8228D01*
X9775Y8078D02*
Y8028D01*
Y8178D02*
Y8328D01*
X9850Y8153D02*
X9775Y8078D01*
X10075Y8028D02*
Y8128D01*
X10125Y8178D01*
X10200Y8003D02*
Y7228D01*
X10225Y7578D02*
Y8153D01*
X10125Y8178D02*
Y8453D01*
X10175D02*
Y8328D01*
X10275D02*
Y8203D01*
Y8328D02*
Y8528D01*
Y8203D02*
X10225Y8153D01*
X10175Y8453D02*
X10200Y8478D01*
X10175Y8028D02*
X10200Y8003D01*
X10425Y8178D02*
Y7653D01*
X10475Y8228D02*
Y8328D01*
X10375D02*
Y8228D01*
X10325Y8178D02*
Y7603D01*
X10425Y8178D02*
X10475Y8228D01*
X10375D02*
X10325Y8178D01*
X10625D02*
Y7753D01*
X10575Y8228D02*
Y8328D01*
X10525Y8178D02*
Y7703D01*
Y7278D02*
Y6903D01*
X10625Y8178D02*
X10675Y8228D01*
X10575D02*
X10525Y8178D01*
X10675Y8228D02*
Y8328D01*
X10975Y8028D02*
Y7878D01*
X10875D02*
Y8028D01*
X11225Y8078D02*
Y8403D01*
Y8078D02*
X11175Y8028D01*
X11225Y8403D02*
X11275Y8428D01*
X11400Y7303D02*
Y7028D01*
X11375Y8478D02*
Y8778D01*
X11275Y8478D02*
Y8428D01*
Y8878D02*
X11325Y8928D01*
X11275Y8878D02*
X11375Y8778D01*
X11475Y8028D02*
Y7978D01*
X11575D02*
Y8028D01*
Y8328D02*
X11675Y8428D01*
X11575Y7878D02*
X11475Y7778D01*
X11575Y7878D02*
X11475Y7978D01*
X11575D02*
X11675Y7878D01*
X11775D02*
Y7928D01*
X11675Y8428D02*
X11725Y8478D01*
X11750Y8403D02*
X11825Y8478D01*
X11750Y8403D02*
X11675Y8328D01*
X11775D02*
X11875Y8428D01*
X11675Y8028D02*
X11775Y7928D01*
X11875Y8428D02*
Y8553D01*
X12025Y8728D02*
Y7478D01*
X12175Y8028D02*
Y8178D01*
X12075Y8028D02*
Y7578D01*
X12125Y7703D02*
Y8103D01*
X12075Y8153D02*
Y8328D01*
X12175D02*
Y8028D01*
X12125Y8103D02*
X12075Y8153D01*
X12275Y8028D02*
Y7878D01*
Y8328D02*
Y8478D01*
Y7228D02*
Y7153D01*
X12425Y8178D02*
Y8478D01*
X12575D02*
Y8328D01*
Y8028D02*
Y7878D01*
X12675Y8028D02*
Y8328D01*
Y8178D02*
Y8028D01*
X12775Y8278D02*
Y8328D01*
X12825Y8228D02*
Y7928D01*
X12775D02*
Y8028D01*
X12650Y7803D02*
Y7578D01*
X12750D02*
Y7853D01*
X12825Y7928D01*
Y8228D02*
X12775Y8278D01*
X13075Y7853D02*
X12975Y7753D01*
X13075Y8528D02*
X12975Y8628D01*
X13075Y8028D02*
Y7928D01*
X13175D02*
Y8028D01*
Y8328D02*
Y8378D01*
Y8478D02*
Y8553D01*
X13075Y8528D02*
Y8478D01*
Y7928D02*
Y7853D01*
X13175D02*
Y7928D01*
X13275Y8378D02*
X13175Y8478D01*
X13075D02*
X13175Y8378D01*
X13275Y8028D02*
Y7803D01*
X13375Y8328D02*
Y8553D01*
X13275Y8378D02*
Y8328D01*
X13325Y8728D02*
Y7553D01*
X13525D02*
Y7853D01*
Y8228D02*
Y8378D01*
X13500Y8403D02*
Y8578D01*
X13550Y8628D02*
X13625Y8703D01*
Y7953D02*
X13525Y7853D01*
X13575Y7728D02*
X13675Y7828D01*
X13500Y8578D02*
X13450Y8628D01*
X13525Y7553D02*
X13600Y7478D01*
X13625Y8128D02*
X13525Y8228D01*
Y8378D02*
X13500Y8403D01*
X13625Y8128D02*
Y7953D01*
X13800Y8478D02*
Y8553D01*
Y8578D01*
X13775Y8028D02*
Y7878D01*
X13675D02*
Y8028D01*
X13775Y8178D02*
Y8328D01*
Y7878D02*
Y7828D01*
X13675D02*
Y7878D01*
X13800Y8578D02*
X13750Y8628D01*
X13775Y8178D02*
X13825Y8128D01*
X13975Y7803D02*
Y7478D01*
X13825Y7928D02*
Y8128D01*
X13925Y8178D02*
Y8353D01*
X13875Y8328D02*
Y8178D01*
X13975Y8328D02*
Y8503D01*
X13925Y7903D02*
Y7778D01*
X13875Y7953D02*
Y8028D01*
X13975Y7928D02*
Y7878D01*
X13925Y7978D02*
Y8128D01*
X14025Y7853D02*
X13975Y7803D01*
X14025Y8653D02*
X13975Y8703D01*
X13925Y8178D02*
X14025Y8078D01*
X13825Y7928D02*
X13875Y7878D01*
X13925Y8128D02*
X13875Y8178D01*
Y7953D02*
X13925Y7903D01*
X13975Y7928D02*
X13925Y7978D01*
X14125Y8053D02*
Y7528D01*
X14025Y8153D02*
Y8653D01*
Y8078D02*
Y7853D01*
X14175Y7728D02*
X14275Y7828D01*
X14125Y7528D02*
X14175Y7478D01*
X14125Y8053D02*
X14025Y8153D01*
X14375Y8028D02*
Y7878D01*
X14275D02*
Y8028D01*
X14375Y8328D02*
Y8478D01*
X14275Y7878D02*
Y7828D01*
X14375D02*
Y7878D01*
X14275Y8578D02*
Y8628D01*
X14300Y7228D02*
X14400Y7128D01*
X14375Y8478D02*
X14275Y8578D01*
X14400Y7128D02*
Y7028D01*
X14475Y8328D02*
Y8478D01*
X14575Y8553D02*
Y8328D01*
X14475Y8028D02*
Y7778D01*
Y8478D02*
Y8528D01*
X15400Y7428D02*
Y7028D01*
X15725Y7528D02*
Y8028D01*
Y7428D02*
Y7278D01*
X15675Y7478D02*
Y8078D01*
X15725Y8128D02*
Y8328D01*
Y8128D02*
X15675Y8078D01*
Y7478D02*
X15725Y7428D01*
X15825Y8178D02*
Y8328D01*
Y8178D02*
Y8028D01*
X15925Y8328D02*
Y8478D01*
Y8028D02*
Y7878D01*
X16325Y8178D02*
Y8328D01*
Y8178D02*
Y8028D01*
X16225D02*
Y7878D01*
Y8328D02*
Y8478D01*
X16425Y8028D02*
Y7578D01*
X16500Y7628D02*
Y7778D01*
X16475Y7803D02*
Y8128D01*
X16425Y8178D02*
Y8328D01*
X16475Y7803D02*
X16500Y7778D01*
X16475Y8128D02*
X16425Y8178D01*
D17*
X4985Y7213D02*
X4900Y7128D01*
X4985Y7413D02*
X5050Y7478D01*
X4985Y7413D02*
Y7213D01*
X5050Y7478D02*
Y7578D01*
D21*
X8675Y8728D02*
X8775Y8828D01*
X15200Y8303D02*
X15225Y8328D01*
X15475Y8178D02*
X15500Y8203D01*
X12850Y8978D02*
X12675Y8803D01*
X11250Y9003D02*
X11050Y8803D01*
X10050Y8528D02*
X9975Y8453D01*
X3900Y7228D02*
X3875Y7203D01*
X7875Y8528D02*
X7975Y8628D01*
X7875Y7978D02*
X7800Y7903D01*
X4000Y8603D02*
X3900Y8503D01*
Y8253D02*
X3825Y8178D01*
X5200Y7953D02*
X5325Y8078D01*
X3825Y7478D02*
X3750Y7403D01*
X3825Y8553D02*
X3925Y8653D01*
X3825Y8303D02*
X3750Y8228D01*
X4375Y8778D02*
X4475Y8878D01*
X7625Y7178D02*
X7725Y7278D01*
Y7678D02*
X7775Y7728D01*
X7800Y7753D01*
X8500Y7478D02*
X8575Y7553D01*
X14975Y7803D02*
X15075Y7903D01*
X14775Y8178D02*
X14725Y8128D01*
X14775Y8178D02*
X14800Y8203D01*
Y8403D02*
X14850Y8453D01*
X15925Y7253D02*
X15825Y7153D01*
X8425Y8653D02*
X8400Y8628D01*
X8425Y8978D02*
X8475Y9028D01*
X7400Y6928D02*
X7350Y6878D01*
X7300Y6803D02*
X7250Y6753D01*
X6875D02*
X6800Y6678D01*
Y6728D02*
X6825Y6753D01*
X5150Y6728D02*
X4825Y6403D01*
X9675Y8828D02*
X9800Y8703D01*
X15200Y8003D02*
X15550Y7653D01*
X15275Y8303D02*
X15250Y8328D01*
X15275Y8253D02*
X15350Y8178D01*
X15500Y8753D02*
X15275Y8978D01*
X12225Y8803D02*
X12025Y9003D01*
X3900Y7128D02*
X3875Y7153D01*
X3900Y7128D02*
X3925Y7103D01*
X4000Y8753D02*
X3925Y8828D01*
X3825Y7728D02*
X3900Y7653D01*
X3825Y7628D02*
X3750Y7703D01*
X7475Y7778D02*
X7550Y7703D01*
Y7678D02*
X7650Y7578D01*
X7075Y7553D02*
X6950Y7678D01*
X12875Y8228D02*
X12975Y8128D01*
X13475Y8203D02*
X13575Y8103D01*
X14075Y8203D02*
X14175Y8103D01*
X14975Y6953D02*
X15150Y6778D01*
X15400Y8403D02*
X15350Y8453D01*
X15550Y7228D02*
X15625Y7153D01*
X10250Y8978D02*
X10200Y9028D01*
X7075Y6928D02*
X7025Y6978D01*
X7350Y6878D02*
X7450Y6778D01*
Y6753D02*
X7400Y6803D01*
X4150Y7028D02*
X4075Y7103D01*
X4150Y6728D02*
X4475Y6403D01*
X11875Y8303D02*
X11975Y8203D01*
X7650Y7403D02*
X7625Y7353D01*
X6800Y6453D02*
X6700D01*
X4825Y6403D02*
X4475D01*
X3750Y7278D02*
Y7403D01*
Y7703D02*
Y8078D01*
Y8228D01*
X15150Y6528D02*
X16150D01*
X15150D02*
X14150D01*
X13150D01*
X12150D01*
X11150D01*
X10150D01*
X9150D01*
X3900Y7228D02*
Y7278D01*
X3875Y7203D02*
Y7153D01*
X3900Y8378D02*
Y8503D01*
Y8378D02*
Y8253D01*
X3925Y8828D02*
Y8953D01*
X3900Y7653D02*
Y7578D01*
X3825Y7728D02*
Y8178D01*
Y7628D02*
Y7478D01*
Y8303D02*
Y8553D01*
X4000Y8603D02*
Y8753D01*
X7275Y6828D02*
X7375D01*
X7350Y6878D02*
X7275D01*
Y6853D02*
X7350D01*
X7300Y6803D02*
X7400D01*
X7250Y6753D02*
X6850D01*
X6800Y6778D02*
X7275D01*
X4150D02*
Y7028D01*
Y6778D02*
Y6728D01*
X4375Y8653D02*
Y8778D01*
X4075Y7103D02*
X3925D01*
X15625Y7153D02*
X15825D01*
X4475Y8878D02*
Y8953D01*
X7475Y7353D02*
X7625D01*
X7475Y7778D02*
X7350D01*
X5150Y6778D02*
Y6728D01*
X5200Y7778D02*
Y7953D01*
X15350Y8178D02*
X15475D01*
X15225Y8328D02*
X15075D01*
X9975Y8403D02*
X9675D01*
X14850Y8453D02*
X15350D01*
X8000Y8628D02*
X7975D01*
X9800Y8703D02*
X9975D01*
X9675Y8828D02*
X8775D01*
X12225Y8803D02*
X12675D01*
X11050D02*
X10875D01*
X10350D02*
X10150D01*
X6000Y7578D02*
Y7353D01*
X12850Y8978D02*
X15275D01*
X12025Y9003D02*
X11250D01*
X10150Y8903D02*
X10050D01*
X10200Y9028D02*
X8475D01*
X6800Y6778D02*
Y6453D01*
X7075Y6878D02*
Y6928D01*
X7275Y6878D02*
Y6778D01*
X7450D02*
Y6753D01*
X7400Y6928D02*
Y7128D01*
X7550Y7678D02*
Y7703D01*
X7625Y7178D02*
Y7103D01*
X7650Y7403D02*
Y7478D01*
Y7578D01*
X7725Y7678D02*
Y7278D01*
X7800Y7778D02*
Y7903D01*
X7875Y7978D02*
Y8528D01*
X7800Y7778D02*
Y7753D01*
X8425Y8653D02*
Y8978D01*
X8675Y8728D02*
Y8328D01*
X8575Y8028D02*
Y7553D01*
X9675Y8328D02*
Y8403D01*
X10050Y8528D02*
Y8903D01*
X9975Y8453D02*
Y8403D01*
Y8328D01*
X10250Y8803D02*
Y8978D01*
X11975Y8203D02*
Y8028D01*
X11875Y8303D02*
Y8328D01*
X12875D02*
Y8228D01*
X12975Y8128D02*
Y8028D01*
X13475Y8203D02*
Y8328D01*
X13575Y8103D02*
Y8028D01*
X14075Y8203D02*
Y8328D01*
X14175Y8103D02*
Y8028D01*
X14725D02*
Y8128D01*
X14975Y7803D02*
Y6953D01*
X14800Y8203D02*
Y8403D01*
X15150Y6778D02*
Y6528D01*
X15075Y7903D02*
Y8328D01*
X15200Y8303D02*
Y8003D01*
X15275Y8253D02*
Y8303D01*
X15500Y8203D02*
Y8753D01*
X15400Y8403D02*
Y8328D01*
X15550Y7653D02*
Y7228D01*
X15925Y7253D02*
Y7378D01*
D23*
X11625Y8828D02*
D03*
X11575Y8878D02*
D03*
X11625Y8928D02*
D03*
D27*
X16425Y7578D02*
D03*
X16500Y7628D02*
D03*
X16325Y8178D02*
D03*
X15825D02*
D03*
X15725Y7528D02*
D03*
Y7278D02*
D03*
X15400Y7428D02*
D03*
X14575Y8553D02*
D03*
X14475Y7778D02*
D03*
X13975Y8503D02*
D03*
X13925Y7778D02*
D03*
X13375Y8553D02*
D03*
X13275Y7803D02*
D03*
X12675Y8178D02*
D03*
X12650Y7578D02*
D03*
X12750D02*
D03*
X12275Y7153D02*
D03*
X12425Y8178D02*
D03*
X12175D02*
D03*
X12075Y7578D02*
D03*
X12125Y7703D02*
D03*
X11875Y8553D02*
D03*
X11775Y7878D02*
D03*
X11400Y7303D02*
D03*
X10525Y6903D02*
D03*
X10625Y7753D02*
D03*
X10525Y7703D02*
D03*
X10425Y7653D02*
D03*
X10325Y7603D02*
D03*
X10125Y8453D02*
D03*
X10200Y8478D02*
D03*
X10275Y8528D02*
D03*
X10200Y7228D02*
D03*
X9850Y8228D02*
D03*
X9775Y8178D02*
D03*
X9575Y8578D02*
D03*
X9625Y8153D02*
D03*
Y7578D02*
D03*
X9325Y7828D02*
D03*
X9425Y7778D02*
D03*
X9350Y7753D02*
D03*
X9225Y7703D02*
D03*
X9175Y7253D02*
D03*
X8975Y7703D02*
D03*
X9075Y7303D02*
D03*
X8925Y7828D02*
D03*
X8750Y7278D02*
D03*
X8875Y7703D02*
D03*
X8825Y7878D02*
D03*
X8800Y6403D02*
D03*
X8350Y8728D02*
D03*
X8500Y8953D02*
D03*
X8250Y8803D02*
D03*
X8150Y7853D02*
D03*
X8200Y8053D02*
D03*
X7800Y8953D02*
D03*
X7350Y8103D02*
D03*
X7225Y8503D02*
D03*
X7250Y8103D02*
D03*
X7100Y7953D02*
D03*
X7000D02*
D03*
X7050Y8103D02*
D03*
X6850Y8028D02*
D03*
X6925D02*
D03*
X6950Y7428D02*
D03*
X6700Y8553D02*
D03*
X6650Y8828D02*
D03*
X6575Y8853D02*
D03*
X6750Y7978D02*
D03*
X6550Y8753D02*
D03*
X6450Y7978D02*
D03*
X6475Y7003D02*
D03*
X6450Y7078D02*
D03*
X6100Y7203D02*
D03*
X6000Y7353D02*
D03*
X5825Y6653D02*
D03*
X5975Y6628D02*
D03*
X5650Y7378D02*
D03*
X5725Y6678D02*
D03*
X5600Y6553D02*
D03*
X5675Y6603D02*
D03*
X5450Y8828D02*
D03*
X5425Y7428D02*
D03*
X5525Y6503D02*
D03*
X5350Y7428D02*
D03*
X5325Y6453D02*
D03*
X5025Y7978D02*
D03*
X4675Y8803D02*
D03*
X4500Y8228D02*
D03*
X4600Y7428D02*
D03*
X4225Y8578D02*
D03*
X4275Y8453D02*
D03*
X4300Y8228D02*
D03*
X4075Y8803D02*
D03*
X4100Y8228D02*
D03*
X4200D02*
D03*
X3900Y7928D02*
D03*
X4000Y8228D02*
D03*
Y7928D02*
D03*
X3800Y7128D02*
D03*
X15925Y8478D02*
D03*
Y8978D02*
D03*
X16225Y8478D02*
D03*
Y8978D02*
D03*
X15575Y8328D02*
D03*
Y8028D02*
D03*
X15825D02*
D03*
X16125D02*
D03*
X16225D02*
D03*
X16325D02*
D03*
X16425D02*
D03*
Y8328D02*
D03*
X16325D02*
D03*
X16225D02*
D03*
X16125D02*
D03*
X16025D02*
D03*
X15925D02*
D03*
X15825D02*
D03*
X15725D02*
D03*
X15925Y8028D02*
D03*
X16025D02*
D03*
X16225Y7878D02*
D03*
Y7378D02*
D03*
X15925Y7878D02*
D03*
Y7378D02*
D03*
X16525Y8028D02*
D03*
Y8328D02*
D03*
X14475Y8478D02*
D03*
Y8878D02*
D03*
X14375Y8478D02*
D03*
Y8878D02*
D03*
X14275Y8728D02*
D03*
Y8628D02*
D03*
X14725Y8028D02*
D03*
Y8328D02*
D03*
X14375Y8028D02*
D03*
X14475D02*
D03*
X14575D02*
D03*
Y8328D02*
D03*
X14475D02*
D03*
X14375D02*
D03*
X14275D02*
D03*
X14375Y7878D02*
D03*
Y7478D02*
D03*
X14275Y7878D02*
D03*
Y7478D02*
D03*
X14175Y7628D02*
D03*
Y7728D02*
D03*
Y8328D02*
D03*
Y8028D02*
D03*
X14075D02*
D03*
Y8328D02*
D03*
X13775Y8028D02*
D03*
X13875D02*
D03*
X13975D02*
D03*
Y8328D02*
D03*
X13875D02*
D03*
X13775D02*
D03*
X13675D02*
D03*
X14075Y7728D02*
D03*
Y7628D02*
D03*
X13975Y7878D02*
D03*
Y7478D02*
D03*
X13875Y7878D02*
D03*
Y7478D02*
D03*
X13775Y7878D02*
D03*
Y7478D02*
D03*
X13675Y7878D02*
D03*
Y7478D02*
D03*
X12275Y8478D02*
D03*
Y8978D02*
D03*
X12575Y8478D02*
D03*
Y8978D02*
D03*
X12425Y8478D02*
D03*
Y8878D02*
D03*
X13175Y8478D02*
D03*
Y8878D02*
D03*
X13075Y8478D02*
D03*
Y8878D02*
D03*
X12975Y8728D02*
D03*
Y8628D02*
D03*
X13850D02*
D03*
Y8528D02*
D03*
X13750Y8628D02*
D03*
Y8528D02*
D03*
X13650Y8628D02*
D03*
Y8528D02*
D03*
X13550Y8628D02*
D03*
Y8528D02*
D03*
X13450Y8628D02*
D03*
X12175Y8028D02*
D03*
X12475D02*
D03*
X12575D02*
D03*
X12675D02*
D03*
X12775D02*
D03*
Y8328D02*
D03*
X12675D02*
D03*
X12575D02*
D03*
X12475D02*
D03*
X12375D02*
D03*
X12275D02*
D03*
X12175D02*
D03*
X12075D02*
D03*
X12275Y8028D02*
D03*
X12375D02*
D03*
X12275Y7878D02*
D03*
Y7378D02*
D03*
X12575Y7878D02*
D03*
Y7378D02*
D03*
X12875Y8028D02*
D03*
Y8328D02*
D03*
X13075Y7878D02*
D03*
Y7478D02*
D03*
X13175Y7878D02*
D03*
Y7478D02*
D03*
X13575Y7628D02*
D03*
Y7728D02*
D03*
Y8328D02*
D03*
Y8028D02*
D03*
X13475D02*
D03*
Y8328D02*
D03*
X13175Y8028D02*
D03*
X13275D02*
D03*
X13375D02*
D03*
Y8328D02*
D03*
X13275D02*
D03*
X13175D02*
D03*
X13075D02*
D03*
X12975Y7653D02*
D03*
Y7753D02*
D03*
Y8328D02*
D03*
Y8028D02*
D03*
X11075Y8978D02*
D03*
Y8478D02*
D03*
X11175Y8778D02*
D03*
X11275Y8878D02*
D03*
Y8478D02*
D03*
X11375D02*
D03*
Y8878D02*
D03*
X11475Y8478D02*
D03*
Y8878D02*
D03*
X11575Y8728D02*
D03*
Y8628D02*
D03*
X11725Y8478D02*
D03*
Y8878D02*
D03*
X11825Y8478D02*
D03*
Y8878D02*
D03*
X10700Y7178D02*
D03*
Y6778D02*
D03*
X11700Y7178D02*
D03*
Y6778D02*
D03*
X10775Y8328D02*
D03*
Y8028D02*
D03*
X11075D02*
D03*
X11175D02*
D03*
Y8328D02*
D03*
X11075D02*
D03*
X10975D02*
D03*
X10875D02*
D03*
X10975Y8028D02*
D03*
Y7878D02*
D03*
X10875D02*
D03*
X11275Y8028D02*
D03*
Y8328D02*
D03*
X11375D02*
D03*
Y8028D02*
D03*
X11575D02*
D03*
X11675D02*
D03*
X11775D02*
D03*
Y8328D02*
D03*
X11675D02*
D03*
X11575D02*
D03*
X11475D02*
D03*
Y7678D02*
D03*
Y7778D02*
D03*
X11575Y7878D02*
D03*
Y7478D02*
D03*
X11675Y7878D02*
D03*
Y7478D02*
D03*
X11875Y8028D02*
D03*
Y8328D02*
D03*
X11975D02*
D03*
Y8028D02*
D03*
X10700Y6453D02*
D03*
X10600D02*
D03*
X11700D02*
D03*
X11600D02*
D03*
X9750Y8903D02*
D03*
X10050D02*
D03*
X9975Y8803D02*
D03*
Y8703D02*
D03*
X9350Y8628D02*
D03*
Y8528D02*
D03*
X9250Y8628D02*
D03*
Y8528D02*
D03*
X9150Y8628D02*
D03*
Y8528D02*
D03*
X9050Y8628D02*
D03*
Y8528D02*
D03*
X8950Y8628D02*
D03*
X9700Y7178D02*
D03*
Y6778D02*
D03*
X9675Y8328D02*
D03*
Y8028D02*
D03*
X9875D02*
D03*
X9975D02*
D03*
X10075D02*
D03*
X10175D02*
D03*
X10275D02*
D03*
X10375D02*
D03*
X10475D02*
D03*
X10575D02*
D03*
X10675D02*
D03*
Y8328D02*
D03*
X10575D02*
D03*
X10475D02*
D03*
X10375D02*
D03*
X10275D02*
D03*
X10175D02*
D03*
X10075D02*
D03*
X9975D02*
D03*
X9875D02*
D03*
X9775D02*
D03*
X9700Y6453D02*
D03*
X9600D02*
D03*
X8400Y8628D02*
D03*
Y8528D02*
D03*
X8300Y8628D02*
D03*
Y8528D02*
D03*
X8200Y8628D02*
D03*
Y8528D02*
D03*
X8100Y8628D02*
D03*
Y8528D02*
D03*
X8000Y8628D02*
D03*
X7650Y7778D02*
D03*
Y7478D02*
D03*
X7550Y7678D02*
D03*
X7450D02*
D03*
X7350D02*
D03*
X7150D02*
D03*
X7475Y7353D02*
D03*
X7025D02*
D03*
X7900Y7478D02*
D03*
X8000D02*
D03*
X8100D02*
D03*
X8200D02*
D03*
X8300D02*
D03*
X8400D02*
D03*
X8500D02*
D03*
Y7778D02*
D03*
X8400D02*
D03*
X8300D02*
D03*
X8200D02*
D03*
X8100D02*
D03*
X8000D02*
D03*
X7900D02*
D03*
X7800D02*
D03*
X7625Y6703D02*
D03*
Y7103D02*
D03*
X8575Y8328D02*
D03*
Y8028D02*
D03*
X8775D02*
D03*
X8875D02*
D03*
X8975D02*
D03*
X9075D02*
D03*
X9175D02*
D03*
X9275D02*
D03*
X9375D02*
D03*
X9475D02*
D03*
X9575D02*
D03*
Y8328D02*
D03*
X9475D02*
D03*
X9375D02*
D03*
X9275D02*
D03*
X9175D02*
D03*
X9075D02*
D03*
X8975D02*
D03*
X8875D02*
D03*
X8775D02*
D03*
X8675D02*
D03*
X8650Y6653D02*
D03*
Y7053D02*
D03*
X8750Y6653D02*
D03*
Y7053D02*
D03*
X7725Y6528D02*
D03*
X7625D02*
D03*
X8550Y7053D02*
D03*
Y6653D02*
D03*
X6050Y8653D02*
D03*
X6350D02*
D03*
X6450D02*
D03*
X6550D02*
D03*
X6650D02*
D03*
Y8953D02*
D03*
X6550D02*
D03*
X6450D02*
D03*
X6350D02*
D03*
X6250D02*
D03*
X6150D02*
D03*
X6050D02*
D03*
X5950D02*
D03*
X6150Y8653D02*
D03*
X6250D02*
D03*
X7000D02*
D03*
X7100D02*
D03*
X7200D02*
D03*
X7300D02*
D03*
X7400D02*
D03*
X7500D02*
D03*
X7600D02*
D03*
Y8953D02*
D03*
X7500D02*
D03*
X7400D02*
D03*
X7300D02*
D03*
X7200D02*
D03*
X7100D02*
D03*
X7000D02*
D03*
X6900D02*
D03*
X6775D02*
D03*
Y8653D02*
D03*
X6725Y6553D02*
D03*
Y6953D02*
D03*
X6600Y6553D02*
D03*
Y6953D02*
D03*
X6950Y7678D02*
D03*
X7050D02*
D03*
X6450Y7278D02*
D03*
X6550D02*
D03*
X6650D02*
D03*
X6750D02*
D03*
X6850D02*
D03*
X6950D02*
D03*
Y7578D02*
D03*
X6850D02*
D03*
X6750D02*
D03*
X6650D02*
D03*
X6550D02*
D03*
X6450D02*
D03*
X6350D02*
D03*
X6225D02*
D03*
Y7278D02*
D03*
X6100D02*
D03*
Y7578D02*
D03*
X6000D02*
D03*
X5900D02*
D03*
X6000Y7278D02*
D03*
X5775Y7578D02*
D03*
Y7278D02*
D03*
X5950Y7128D02*
D03*
X6350D02*
D03*
Y7028D02*
D03*
X5950D02*
D03*
X6950Y7128D02*
D03*
X6550D02*
D03*
X6600Y6453D02*
D03*
X6700D02*
D03*
X7275Y6878D02*
D03*
X7325Y6978D02*
D03*
X7225D02*
D03*
X7075Y6878D02*
D03*
X6975D02*
D03*
X7025Y6978D02*
D03*
X7175Y6878D02*
D03*
X7125Y6978D02*
D03*
X5750Y8953D02*
D03*
Y8653D02*
D03*
X5050D02*
D03*
X4950Y8953D02*
D03*
X5050D02*
D03*
X5150D02*
D03*
X5250D02*
D03*
X5350D02*
D03*
X5450D02*
D03*
X5550D02*
D03*
Y8653D02*
D03*
X5450D02*
D03*
X5350D02*
D03*
X5250D02*
D03*
X5150D02*
D03*
X4825Y8953D02*
D03*
Y8653D02*
D03*
X5150Y7278D02*
D03*
X5250D02*
D03*
X5350D02*
D03*
X5450D02*
D03*
X5550D02*
D03*
X5650D02*
D03*
Y7578D02*
D03*
X5550D02*
D03*
X5450D02*
D03*
X5350D02*
D03*
X5250D02*
D03*
X5150D02*
D03*
X5050D02*
D03*
X4925D02*
D03*
Y7278D02*
D03*
X5550Y7778D02*
D03*
X5650D02*
D03*
X5750D02*
D03*
X5850D02*
D03*
X5950D02*
D03*
X6050D02*
D03*
X6150D02*
D03*
X6250D02*
D03*
X6350D02*
D03*
X6450D02*
D03*
X6550D02*
D03*
X6650D02*
D03*
X6750D02*
D03*
X6850D02*
D03*
X6950D02*
D03*
X7050D02*
D03*
X7150D02*
D03*
X7250D02*
D03*
X7350D02*
D03*
Y8378D02*
D03*
X7250D02*
D03*
X7150D02*
D03*
X7050D02*
D03*
X6950D02*
D03*
X6850D02*
D03*
X6750D02*
D03*
X6650D02*
D03*
X6550D02*
D03*
X6450D02*
D03*
X6350D02*
D03*
X6250D02*
D03*
X6150D02*
D03*
X6050D02*
D03*
X5950D02*
D03*
X5850D02*
D03*
X5750D02*
D03*
X5650D02*
D03*
X5550D02*
D03*
X5450D02*
D03*
X5300Y7128D02*
D03*
X4900D02*
D03*
X5300Y7028D02*
D03*
X4900D02*
D03*
X5325Y8378D02*
D03*
Y8078D02*
D03*
X4300Y7128D02*
D03*
X4700D02*
D03*
X4175Y8653D02*
D03*
X4275D02*
D03*
X4375D02*
D03*
X4475D02*
D03*
X4575D02*
D03*
X4675D02*
D03*
Y8953D02*
D03*
X4575D02*
D03*
X4475D02*
D03*
X4375D02*
D03*
X4275D02*
D03*
X4175D02*
D03*
X4075D02*
D03*
X3925D02*
D03*
Y8653D02*
D03*
X4000Y7778D02*
D03*
X4100D02*
D03*
X4200D02*
D03*
X4300D02*
D03*
X4400D02*
D03*
X4500D02*
D03*
X4600D02*
D03*
X4700D02*
D03*
X4800D02*
D03*
X4900D02*
D03*
X5000D02*
D03*
X5100D02*
D03*
X5200D02*
D03*
Y8378D02*
D03*
X5100D02*
D03*
X5000D02*
D03*
X4900D02*
D03*
X4800D02*
D03*
X4700D02*
D03*
X4600D02*
D03*
X4500D02*
D03*
X4400D02*
D03*
X4300D02*
D03*
X4200D02*
D03*
X4100D02*
D03*
X4000D02*
D03*
X3900D02*
D03*
X4000Y7278D02*
D03*
X4100D02*
D03*
X4200D02*
D03*
X4300D02*
D03*
X4400D02*
D03*
X4500D02*
D03*
X4600D02*
D03*
X4700D02*
D03*
X4800D02*
D03*
Y7578D02*
D03*
X4700D02*
D03*
X4600D02*
D03*
X4500D02*
D03*
X4400D02*
D03*
X4300D02*
D03*
X4200D02*
D03*
X4100D02*
D03*
X4000D02*
D03*
X3900D02*
D03*
X3750D02*
D03*
Y7278D02*
D03*
X4000Y7028D02*
D03*
X4400D02*
D03*
X3750Y8378D02*
D03*
Y8078D02*
D03*
D29*
X4535Y6628D02*
X4536D01*
X4535D02*
X4536Y6615D01*
X4538Y6601D01*
X4542Y6589D01*
X4547Y6576D01*
X4554Y6565D01*
X4562Y6554D01*
X4571Y6544D01*
X4581Y6536D01*
X4592Y6528D01*
X4604Y6522D01*
X4617Y6518D01*
X4630Y6515D01*
X4643Y6513D01*
X4657D01*
X4670Y6515D01*
X4683Y6518D01*
X4696Y6522D01*
X4708Y6528D01*
X4719Y6536D01*
X4729Y6544D01*
X4738Y6554D01*
X4746Y6565D01*
X4753Y6576D01*
X4758Y6589D01*
X4762Y6601D01*
X4764Y6615D01*
X4765Y6628D01*
X4766D01*
X4765D02*
X4764Y6641D01*
X4762Y6655D01*
X4758Y6667D01*
X4753Y6680D01*
X4746Y6691D01*
X4738Y6702D01*
X4729Y6712D01*
X4719Y6720D01*
X4708Y6728D01*
X4696Y6734D01*
X4683Y6738D01*
X4670Y6741D01*
X4657Y6743D01*
X4643D01*
X4630Y6741D01*
X4617Y6738D01*
X4604Y6734D01*
X4592Y6728D01*
X4581Y6720D01*
X4571Y6712D01*
X4562Y6702D01*
X4554Y6691D01*
X4547Y6680D01*
X4542Y6667D01*
X4538Y6655D01*
X4536Y6641D01*
X4535Y6628D01*
X4603D02*
X4604D01*
X4603D02*
X4604Y6618D01*
X4607Y6609D01*
X4612Y6600D01*
X4619Y6593D01*
X4626Y6587D01*
X4635Y6583D01*
X4645Y6581D01*
X4655D01*
X4665Y6583D01*
X4674Y6587D01*
X4681Y6593D01*
X4688Y6600D01*
X4693Y6609D01*
X4696Y6618D01*
X4697Y6628D01*
X4698D01*
X4697D02*
X4696Y6638D01*
X4693Y6647D01*
X4688Y6656D01*
X4681Y6663D01*
X4674Y6669D01*
X4665Y6673D01*
X4655Y6675D01*
X4645D01*
X4635Y6673D01*
X4626Y6669D01*
X4619Y6663D01*
X4612Y6656D01*
X4607Y6647D01*
X4604Y6638D01*
X4603Y6628D01*
X4650D02*
D03*
D33*
X6250Y6378D02*
D03*
X6050D02*
D03*
X5250D02*
D03*
X5050D02*
D03*
X4250D02*
D03*
X4050D02*
D03*
D34*
X6150Y6778D02*
D03*
X5950Y6878D02*
D03*
X6350D02*
D03*
X6450Y6778D02*
D03*
X5850D02*
D03*
X7455Y6748D02*
D03*
X6845D02*
D03*
X5150Y6778D02*
D03*
X4950Y6878D02*
D03*
X5350D02*
D03*
X5450Y6778D02*
D03*
X4850D02*
D03*
X4150D02*
D03*
X3950Y6878D02*
D03*
X4350D02*
D03*
X4450Y6778D02*
D03*
X3850D02*
D03*
D38*
X16000Y6628D02*
D03*
X16300D02*
D03*
X16150Y7128D02*
D03*
X15000Y6628D02*
D03*
X15300D02*
D03*
X15150Y7128D02*
D03*
X14000Y6628D02*
D03*
X14300D02*
D03*
X14150Y7128D02*
D03*
X13000Y6628D02*
D03*
X13300D02*
D03*
X13150Y7128D02*
D03*
X12000Y6628D02*
D03*
X12300D02*
D03*
X12150Y7128D02*
D03*
X11000Y6628D02*
D03*
X11300D02*
D03*
X11150Y7128D02*
D03*
X10000Y6628D02*
D03*
X10300D02*
D03*
X10150Y7128D02*
D03*
X9000Y6628D02*
D03*
X9300D02*
D03*
X9150Y7128D02*
D03*
X8000Y6628D02*
D03*
X8300D02*
D03*
X8150Y7128D02*
D03*
D40*
X15072Y8328D02*
D03*
X15384D02*
D03*
X14916D02*
D03*
X15228D02*
D03*
D43*
X7375Y6628D02*
D03*
X6925D02*
D03*
D46*
X16400Y7028D02*
D03*
X16300Y6828D02*
D03*
X16150Y6528D02*
D03*
X15400Y7028D02*
D03*
X15300Y6828D02*
D03*
X15150Y6528D02*
D03*
X14400Y7028D02*
D03*
X14300Y6828D02*
D03*
X14150Y6528D02*
D03*
X13400Y7028D02*
D03*
X13300Y6828D02*
D03*
X13150Y6528D02*
D03*
X12400Y7028D02*
D03*
X12300Y6828D02*
D03*
X12150Y6528D02*
D03*
X11400Y7028D02*
D03*
X11300Y6828D02*
D03*
X11150Y6528D02*
D03*
X10400Y7028D02*
D03*
X10300Y6828D02*
D03*
X10150Y6528D02*
D03*
X9400Y7028D02*
D03*
X9300Y6828D02*
D03*
X9150Y6528D02*
D03*
X8400Y7028D02*
D03*
X8300Y6828D02*
D03*
X8150Y6528D02*
D03*
D48*
X10850Y8803D02*
D03*
D50*
X15725Y8028D02*
D03*
X14275D02*
D03*
X13675D02*
D03*
X13450Y8528D02*
D03*
X12075Y8028D02*
D03*
X13075D02*
D03*
X10875D02*
D03*
X11475D02*
D03*
X8950Y8528D02*
D03*
X9775Y8028D02*
D03*
X8000Y8528D02*
D03*
X7800Y7478D02*
D03*
X8675Y8028D02*
D03*
X5950Y8653D02*
D03*
X6900D02*
D03*
X6350Y7278D02*
D03*
X5900D02*
D03*
X4950Y8653D02*
D03*
X5050Y7278D02*
D03*
X5450Y7778D02*
D03*
X4075Y8653D02*
D03*
X3900Y7778D02*
D03*
Y7278D02*
D03*
D52*
X10150Y8703D02*
D03*
Y8803D02*
D03*
Y8903D02*
D03*
D54*
X10435Y8708D02*
X10865D01*
Y8898D01*
X10435D01*
Y8708D01*
X7158Y7188D02*
X7342D01*
Y7468D01*
X7158D01*
Y7188D01*
D02*
M02*
