*%FSLAX23Y23*%
*%MOIN*%
G01*
%ADD11C,0.006*%
%ADD12C,0.007*%
%ADD13C,0.008*%
%ADD14C,0.010*%
%ADD15C,0.012*%
%ADD16C,0.020*%
%ADD17C,0.024*%
%ADD18C,0.032*%
%ADD19C,0.036*%
%ADD20C,0.040*%
%ADD21C,0.050*%
%ADD22C,0.052*%
%ADD23C,0.055*%
%ADD24C,0.056*%
%ADD25C,0.059*%
%ADD26C,0.060*%
%ADD27C,0.062*%
%ADD28C,0.066*%
%ADD29C,0.070*%
%ADD30C,0.082*%
%ADD31C,0.090*%
%ADD32C,0.095*%
%ADD33O,0.100X0.080*%
%ADD34C,0.100*%
%ADD35O,0.104X0.084*%
%ADD36C,0.104*%
%ADD37C,0.115*%
%ADD38C,0.120*%
%ADD39C,0.124*%
%ADD40C,0.125*%
%ADD41C,0.128*%
%ADD42C,0.129*%
%ADD43C,0.140*%
%ADD44C,0.144*%
%ADD45C,0.148*%
%ADD46C,0.150*%
%ADD47C,0.154*%
%ADD48C,0.250*%
%ADD49C,0.250*%
%ADD50R,0.062X0.062*%
%ADD51R,0.066X0.066*%
%ADD52R,0.075X0.075*%
%ADD53R,0.079X0.079*%
%ADD54R,0.250X0.250*%
D14*
X4695Y9428D02*
X4762D01*
X4695D02*
X4762Y9495D01*
Y9511D01*
X4745Y9528D01*
X4712D01*
X4695Y9511D01*
X4795D02*
X4812Y9528D01*
X4845D01*
X4862Y9511D01*
Y9445D01*
X4845Y9428D01*
X4812D01*
X4795Y9445D01*
Y9511D01*
X4895D02*
X4912Y9528D01*
X4945D01*
X4962Y9511D01*
Y9445D01*
X4945Y9428D01*
X4912D01*
X4895Y9445D01*
Y9511D01*
X4995Y9478D02*
X5062D01*
X5095Y9428D02*
X5128D01*
X5112D01*
Y9528D01*
X5113D01*
X5112D02*
X5095Y9511D01*
X5178D02*
X5195Y9528D01*
X5228D01*
X5245Y9511D01*
Y9445D01*
X5228Y9428D01*
X5195D01*
X5178Y9445D01*
Y9511D01*
X5278Y9428D02*
X5311D01*
X5295D01*
Y9528D01*
X5296D01*
X5295D02*
X5278Y9511D01*
X5361Y9528D02*
X5428D01*
Y9511D01*
X5361Y9445D01*
Y9428D01*
X5461Y9478D02*
X5528D01*
X5561Y9511D02*
X5578Y9528D01*
X5611D01*
X5628Y9511D01*
Y9445D01*
X5611Y9428D01*
X5578D01*
X5561Y9445D01*
Y9511D01*
X5661D02*
X5678Y9528D01*
X5711D01*
X5728Y9511D01*
Y9495D01*
X5729D01*
X5728D02*
X5729D01*
X5728D02*
X5729D01*
X5728D02*
X5711Y9478D01*
X5695D01*
X5711D01*
X5728Y9461D01*
Y9445D01*
X5711Y9428D01*
X5678D01*
X5661Y9445D01*
X5861Y9428D02*
Y9528D01*
X5911D01*
X5928Y9511D01*
Y9478D01*
X5911Y9461D01*
X5861D01*
X5895D02*
X5928Y9428D01*
X5961Y9528D02*
X6028D01*
X5961D02*
Y9428D01*
X6028D01*
X5995Y9478D02*
X5961D01*
X6061Y9461D02*
Y9528D01*
Y9461D02*
X6095Y9428D01*
X6128Y9461D01*
Y9528D01*
X6261D02*
Y9428D01*
X6328D02*
X6261Y9528D01*
X6328D02*
Y9428D01*
X6428Y9511D02*
X6411Y9528D01*
X6378D01*
X6361Y9511D01*
Y9445D01*
X6378Y9428D01*
X6411D01*
X6428Y9445D01*
X6611Y9528D02*
X6628Y9511D01*
X6611Y9528D02*
X6578D01*
X6561Y9511D01*
Y9445D01*
X6578Y9428D01*
X6611D01*
X6628Y9445D01*
X6661Y9528D02*
X6694D01*
X6678D01*
Y9428D01*
X6661D01*
X6694D01*
X6744D02*
Y9528D01*
X6794D01*
X6811Y9511D01*
Y9478D01*
X6794Y9461D01*
X6744D01*
X6778D02*
X6811Y9428D01*
X6911Y9511D02*
X6894Y9528D01*
X6861D01*
X6844Y9511D01*
Y9445D01*
X6861Y9428D01*
X6894D01*
X6911Y9445D01*
X6944D02*
Y9528D01*
Y9445D02*
X6961Y9428D01*
X6994D01*
X7011Y9445D01*
Y9528D01*
X7044D02*
X7078D01*
X7061D01*
Y9428D01*
X7044D01*
X7078D01*
X7128Y9528D02*
X7194D01*
X7161D01*
Y9428D01*
X7377Y9528D02*
X7394Y9511D01*
X7377Y9528D02*
X7344D01*
X7327Y9511D01*
Y9495D01*
X7344Y9478D01*
X7377D01*
X7394Y9461D01*
Y9445D01*
X7377Y9428D01*
X7344D01*
X7327Y9445D01*
X7427Y9528D02*
X7461D01*
X7444D01*
Y9428D01*
X7427D01*
X7461D01*
X7511D02*
Y9528D01*
Y9428D02*
X7561D01*
X7577Y9445D01*
Y9511D01*
X7561Y9528D01*
X7511D01*
X7611D02*
X7677D01*
X7611D02*
Y9428D01*
X7677D01*
X7644Y9478D02*
X7611D01*
X7861Y9528D02*
X7877Y9511D01*
X7861Y9528D02*
X7827D01*
X7811Y9511D01*
Y9495D01*
X7827Y9478D01*
X7861D01*
X7877Y9461D01*
Y9445D01*
X7861Y9428D01*
X7827D01*
X7811Y9445D01*
X7927Y9528D02*
X7961D01*
X7927D02*
X7911Y9511D01*
Y9445D01*
X7927Y9428D01*
X7961D01*
X7977Y9445D01*
Y9511D01*
X7961Y9528D01*
X8011D02*
Y9428D01*
X8077D01*
X8111D02*
Y9528D01*
Y9428D02*
X8161D01*
X8177Y9445D01*
Y9511D01*
X8161Y9528D01*
X8111D01*
X8211D02*
X8277D01*
X8211D02*
Y9428D01*
X8277D01*
X8244Y9478D02*
X8211D01*
X8310Y9428D02*
Y9528D01*
X8360D01*
X8377Y9511D01*
Y9478D01*
X8360Y9461D01*
X8310D01*
X8344D02*
X8377Y9428D01*
X8510D02*
Y9528D01*
X8544Y9495D01*
X8577Y9528D01*
Y9428D01*
X8610D02*
Y9495D01*
X8644Y9528D01*
X8677Y9495D01*
Y9428D01*
Y9478D01*
X8610D01*
X8760Y9528D02*
X8777Y9511D01*
X8760Y9528D02*
X8727D01*
X8710Y9511D01*
Y9495D01*
X8727Y9478D01*
X8760D01*
X8777Y9461D01*
Y9445D01*
X8760Y9428D01*
X8727D01*
X8710Y9445D01*
X8810Y9428D02*
Y9528D01*
Y9461D02*
Y9428D01*
Y9461D02*
X8877Y9528D01*
X8827Y9478D01*
X8877Y9428D01*
X3650Y9078D02*
X16650D01*
Y6328D02*
X3650D01*
Y9078D01*
X16650D02*
Y6328D01*
D25*
X11625Y8828D02*
D03*
X11575Y8878D02*
D03*
X11625Y8928D02*
D03*
D28*
X16425Y7578D02*
D03*
X16500Y7628D02*
D03*
X16325Y8178D02*
D03*
X15825D02*
D03*
X15725Y7528D02*
D03*
Y7278D02*
D03*
X15400Y7428D02*
D03*
X14575Y8553D02*
D03*
X14475Y7778D02*
D03*
X13975Y8503D02*
D03*
X13925Y7778D02*
D03*
X13375Y8553D02*
D03*
X13275Y7803D02*
D03*
X12675Y8178D02*
D03*
X12650Y7578D02*
D03*
X12750D02*
D03*
X12275Y7153D02*
D03*
X12425Y8178D02*
D03*
X12175D02*
D03*
X12075Y7578D02*
D03*
X12125Y7703D02*
D03*
X11875Y8553D02*
D03*
X11775Y7878D02*
D03*
X11400Y7303D02*
D03*
X10525Y6903D02*
D03*
X10625Y7753D02*
D03*
X10525Y7703D02*
D03*
X10425Y7653D02*
D03*
X10325Y7603D02*
D03*
X10125Y8453D02*
D03*
X10200Y8478D02*
D03*
X10275Y8528D02*
D03*
X10200Y7228D02*
D03*
X9850Y8228D02*
D03*
X9775Y8178D02*
D03*
X9575Y8578D02*
D03*
X9625Y8153D02*
D03*
Y7578D02*
D03*
X9325Y7828D02*
D03*
X9425Y7778D02*
D03*
X9350Y7753D02*
D03*
X9225Y7703D02*
D03*
X9175Y7253D02*
D03*
X8975Y7703D02*
D03*
X9075Y7303D02*
D03*
X8925Y7828D02*
D03*
X8750Y7278D02*
D03*
X8875Y7703D02*
D03*
X8825Y7878D02*
D03*
X8800Y6403D02*
D03*
X8350Y8728D02*
D03*
X8500Y8953D02*
D03*
X8250Y8803D02*
D03*
X8150Y7853D02*
D03*
X8200Y8053D02*
D03*
X7800Y8953D02*
D03*
X7350Y8103D02*
D03*
X7225Y8503D02*
D03*
X7250Y8103D02*
D03*
X7100Y7953D02*
D03*
X7000D02*
D03*
X7050Y8103D02*
D03*
X6850Y8028D02*
D03*
X6925D02*
D03*
X6950Y7428D02*
D03*
X6700Y8553D02*
D03*
X6650Y8828D02*
D03*
X6575Y8853D02*
D03*
X6750Y7978D02*
D03*
X6550Y8753D02*
D03*
X6450Y7978D02*
D03*
X6475Y7003D02*
D03*
X6450Y7078D02*
D03*
X6100Y7203D02*
D03*
X6000Y7353D02*
D03*
X5825Y6653D02*
D03*
X5975Y6628D02*
D03*
X5650Y7378D02*
D03*
X5725Y6678D02*
D03*
X5600Y6553D02*
D03*
X5675Y6603D02*
D03*
X5450Y8828D02*
D03*
X5425Y7428D02*
D03*
X5525Y6503D02*
D03*
X5350Y7428D02*
D03*
X5325Y6453D02*
D03*
X5025Y7978D02*
D03*
X4675Y8803D02*
D03*
X4500Y8228D02*
D03*
X4600Y7428D02*
D03*
X4225Y8578D02*
D03*
X4275Y8453D02*
D03*
X4300Y8228D02*
D03*
X4075Y8803D02*
D03*
X4100Y8228D02*
D03*
X4200D02*
D03*
X3900Y7928D02*
D03*
X4000Y8228D02*
D03*
Y7928D02*
D03*
X3800Y7128D02*
D03*
X15925Y8478D02*
D03*
Y8978D02*
D03*
X16225Y8478D02*
D03*
Y8978D02*
D03*
X15575Y8328D02*
D03*
Y8028D02*
D03*
X15825D02*
D03*
X16125D02*
D03*
X16225D02*
D03*
X16325D02*
D03*
X16425D02*
D03*
Y8328D02*
D03*
X16325D02*
D03*
X16225D02*
D03*
X16125D02*
D03*
X16025D02*
D03*
X15925D02*
D03*
X15825D02*
D03*
X15725D02*
D03*
X15925Y8028D02*
D03*
X16025D02*
D03*
X16225Y7878D02*
D03*
Y7378D02*
D03*
X15925Y7878D02*
D03*
Y7378D02*
D03*
X16525Y8028D02*
D03*
Y8328D02*
D03*
X14475Y8478D02*
D03*
Y8878D02*
D03*
X14375Y8478D02*
D03*
Y8878D02*
D03*
X14275Y8728D02*
D03*
Y8628D02*
D03*
X14725Y8028D02*
D03*
Y8328D02*
D03*
X14375Y8028D02*
D03*
X14475D02*
D03*
X14575D02*
D03*
Y8328D02*
D03*
X14475D02*
D03*
X14375D02*
D03*
X14275D02*
D03*
X14375Y7878D02*
D03*
Y7478D02*
D03*
X14275Y7878D02*
D03*
Y7478D02*
D03*
X14175Y7628D02*
D03*
Y7728D02*
D03*
Y8328D02*
D03*
Y8028D02*
D03*
X14075D02*
D03*
Y8328D02*
D03*
X13775Y8028D02*
D03*
X13875D02*
D03*
X13975D02*
D03*
Y8328D02*
D03*
X13875D02*
D03*
X13775D02*
D03*
X13675D02*
D03*
X14075Y7728D02*
D03*
Y7628D02*
D03*
X13975Y7878D02*
D03*
Y7478D02*
D03*
X13875Y7878D02*
D03*
Y7478D02*
D03*
X13775Y7878D02*
D03*
Y7478D02*
D03*
X13675Y7878D02*
D03*
Y7478D02*
D03*
X12275Y8478D02*
D03*
Y8978D02*
D03*
X12575Y8478D02*
D03*
Y8978D02*
D03*
X12425Y8478D02*
D03*
Y8878D02*
D03*
X13175Y8478D02*
D03*
Y8878D02*
D03*
X13075Y8478D02*
D03*
Y8878D02*
D03*
X12975Y8728D02*
D03*
Y8628D02*
D03*
X13850D02*
D03*
Y8528D02*
D03*
X13750Y8628D02*
D03*
Y8528D02*
D03*
X13650Y8628D02*
D03*
Y8528D02*
D03*
X13550Y8628D02*
D03*
Y8528D02*
D03*
X13450Y8628D02*
D03*
X12175Y8028D02*
D03*
X12475D02*
D03*
X12575D02*
D03*
X12675D02*
D03*
X12775D02*
D03*
Y8328D02*
D03*
X12675D02*
D03*
X12575D02*
D03*
X12475D02*
D03*
X12375D02*
D03*
X12275D02*
D03*
X12175D02*
D03*
X12075D02*
D03*
X12275Y8028D02*
D03*
X12375D02*
D03*
X12275Y7878D02*
D03*
Y7378D02*
D03*
X12575Y7878D02*
D03*
Y7378D02*
D03*
X12875Y8028D02*
D03*
Y8328D02*
D03*
X13075Y7878D02*
D03*
Y7478D02*
D03*
X13175Y7878D02*
D03*
Y7478D02*
D03*
X13575Y7628D02*
D03*
Y7728D02*
D03*
Y8328D02*
D03*
Y8028D02*
D03*
X13475D02*
D03*
Y8328D02*
D03*
X13175Y8028D02*
D03*
X13275D02*
D03*
X13375D02*
D03*
Y8328D02*
D03*
X13275D02*
D03*
X13175D02*
D03*
X13075D02*
D03*
X12975Y7653D02*
D03*
Y7753D02*
D03*
Y8328D02*
D03*
Y8028D02*
D03*
X11075Y8978D02*
D03*
Y8478D02*
D03*
X11175Y8778D02*
D03*
X11275Y8878D02*
D03*
Y8478D02*
D03*
X11375D02*
D03*
Y8878D02*
D03*
X11475Y8478D02*
D03*
Y8878D02*
D03*
X11575Y8728D02*
D03*
Y8628D02*
D03*
X11725Y8478D02*
D03*
Y8878D02*
D03*
X11825Y8478D02*
D03*
Y8878D02*
D03*
X10700Y7178D02*
D03*
Y6778D02*
D03*
X11700Y7178D02*
D03*
Y6778D02*
D03*
X10775Y8328D02*
D03*
Y8028D02*
D03*
X11075D02*
D03*
X11175D02*
D03*
Y8328D02*
D03*
X11075D02*
D03*
X10975D02*
D03*
X10875D02*
D03*
X10975Y8028D02*
D03*
Y7878D02*
D03*
X10875D02*
D03*
X11275Y8028D02*
D03*
Y8328D02*
D03*
X11375D02*
D03*
Y8028D02*
D03*
X11575D02*
D03*
X11675D02*
D03*
X11775D02*
D03*
Y8328D02*
D03*
X11675D02*
D03*
X11575D02*
D03*
X11475D02*
D03*
Y7678D02*
D03*
Y7778D02*
D03*
X11575Y7878D02*
D03*
Y7478D02*
D03*
X11675Y7878D02*
D03*
Y7478D02*
D03*
X11875Y8028D02*
D03*
Y8328D02*
D03*
X11975D02*
D03*
Y8028D02*
D03*
X10700Y6453D02*
D03*
X10600D02*
D03*
X11700D02*
D03*
X11600D02*
D03*
X9750Y8903D02*
D03*
X10050D02*
D03*
X9975Y8803D02*
D03*
Y8703D02*
D03*
X9350Y8628D02*
D03*
Y8528D02*
D03*
X9250Y8628D02*
D03*
Y8528D02*
D03*
X9150Y8628D02*
D03*
Y8528D02*
D03*
X9050Y8628D02*
D03*
Y8528D02*
D03*
X8950Y8628D02*
D03*
X9700Y7178D02*
D03*
Y6778D02*
D03*
X9675Y8328D02*
D03*
Y8028D02*
D03*
X9875D02*
D03*
X9975D02*
D03*
X10075D02*
D03*
X10175D02*
D03*
X10275D02*
D03*
X10375D02*
D03*
X10475D02*
D03*
X10575D02*
D03*
X10675D02*
D03*
Y8328D02*
D03*
X10575D02*
D03*
X10475D02*
D03*
X10375D02*
D03*
X10275D02*
D03*
X10175D02*
D03*
X10075D02*
D03*
X9975D02*
D03*
X9875D02*
D03*
X9775D02*
D03*
X9700Y6453D02*
D03*
X9600D02*
D03*
X8400Y8628D02*
D03*
Y8528D02*
D03*
X8300Y8628D02*
D03*
Y8528D02*
D03*
X8200Y8628D02*
D03*
Y8528D02*
D03*
X8100Y8628D02*
D03*
Y8528D02*
D03*
X8000Y8628D02*
D03*
X7650Y7778D02*
D03*
Y7478D02*
D03*
X7550Y7678D02*
D03*
X7450D02*
D03*
X7350D02*
D03*
X7150D02*
D03*
X7475Y7353D02*
D03*
X7025D02*
D03*
X7900Y7478D02*
D03*
X8000D02*
D03*
X8100D02*
D03*
X8200D02*
D03*
X8300D02*
D03*
X8400D02*
D03*
X8500D02*
D03*
Y7778D02*
D03*
X8400D02*
D03*
X8300D02*
D03*
X8200D02*
D03*
X8100D02*
D03*
X8000D02*
D03*
X7900D02*
D03*
X7800D02*
D03*
X7625Y6703D02*
D03*
Y7103D02*
D03*
X8575Y8328D02*
D03*
Y8028D02*
D03*
X8775D02*
D03*
X8875D02*
D03*
X8975D02*
D03*
X9075D02*
D03*
X9175D02*
D03*
X9275D02*
D03*
X9375D02*
D03*
X9475D02*
D03*
X9575D02*
D03*
Y8328D02*
D03*
X9475D02*
D03*
X9375D02*
D03*
X9275D02*
D03*
X9175D02*
D03*
X9075D02*
D03*
X8975D02*
D03*
X8875D02*
D03*
X8775D02*
D03*
X8675D02*
D03*
X8650Y6653D02*
D03*
Y7053D02*
D03*
X8750Y6653D02*
D03*
Y7053D02*
D03*
X7725Y6528D02*
D03*
X7625D02*
D03*
X8550Y7053D02*
D03*
Y6653D02*
D03*
X6050Y8653D02*
D03*
X6350D02*
D03*
X6450D02*
D03*
X6550D02*
D03*
X6650D02*
D03*
Y8953D02*
D03*
X6550D02*
D03*
X6450D02*
D03*
X6350D02*
D03*
X6250D02*
D03*
X6150D02*
D03*
X6050D02*
D03*
X5950D02*
D03*
X6150Y8653D02*
D03*
X6250D02*
D03*
X7000D02*
D03*
X7100D02*
D03*
X7200D02*
D03*
X7300D02*
D03*
X7400D02*
D03*
X7500D02*
D03*
X7600D02*
D03*
Y8953D02*
D03*
X7500D02*
D03*
X7400D02*
D03*
X7300D02*
D03*
X7200D02*
D03*
X7100D02*
D03*
X7000D02*
D03*
X6900D02*
D03*
X6775D02*
D03*
Y8653D02*
D03*
X6725Y6553D02*
D03*
Y6953D02*
D03*
X6600Y6553D02*
D03*
Y6953D02*
D03*
X6950Y7678D02*
D03*
X7050D02*
D03*
X6450Y7278D02*
D03*
X6550D02*
D03*
X6650D02*
D03*
X6750D02*
D03*
X6850D02*
D03*
X6950D02*
D03*
Y7578D02*
D03*
X6850D02*
D03*
X6750D02*
D03*
X6650D02*
D03*
X6550D02*
D03*
X6450D02*
D03*
X6350D02*
D03*
X6225D02*
D03*
Y7278D02*
D03*
X6100D02*
D03*
Y7578D02*
D03*
X6000D02*
D03*
X5900D02*
D03*
X6000Y7278D02*
D03*
X5775Y7578D02*
D03*
Y7278D02*
D03*
X5950Y7128D02*
D03*
X6350D02*
D03*
Y7028D02*
D03*
X5950D02*
D03*
X6950Y7128D02*
D03*
X6550D02*
D03*
X6600Y6453D02*
D03*
X6700D02*
D03*
X7275Y6878D02*
D03*
X7325Y6978D02*
D03*
X7225D02*
D03*
X7075Y6878D02*
D03*
X6975D02*
D03*
X7025Y6978D02*
D03*
X7175Y6878D02*
D03*
X7125Y6978D02*
D03*
X5750Y8953D02*
D03*
Y8653D02*
D03*
X5050D02*
D03*
X4950Y8953D02*
D03*
X5050D02*
D03*
X5150D02*
D03*
X5250D02*
D03*
X5350D02*
D03*
X5450D02*
D03*
X5550D02*
D03*
Y8653D02*
D03*
X5450D02*
D03*
X5350D02*
D03*
X5250D02*
D03*
X5150D02*
D03*
X4825Y8953D02*
D03*
Y8653D02*
D03*
X5150Y7278D02*
D03*
X5250D02*
D03*
X5350D02*
D03*
X5450D02*
D03*
X5550D02*
D03*
X5650D02*
D03*
Y7578D02*
D03*
X5550D02*
D03*
X5450D02*
D03*
X5350D02*
D03*
X5250D02*
D03*
X5150D02*
D03*
X5050D02*
D03*
X4925D02*
D03*
Y7278D02*
D03*
X5550Y7778D02*
D03*
X5650D02*
D03*
X5750D02*
D03*
X5850D02*
D03*
X5950D02*
D03*
X6050D02*
D03*
X6150D02*
D03*
X6250D02*
D03*
X6350D02*
D03*
X6450D02*
D03*
X6550D02*
D03*
X6650D02*
D03*
X6750D02*
D03*
X6850D02*
D03*
X6950D02*
D03*
X7050D02*
D03*
X7150D02*
D03*
X7250D02*
D03*
X7350D02*
D03*
Y8378D02*
D03*
X7250D02*
D03*
X7150D02*
D03*
X7050D02*
D03*
X6950D02*
D03*
X6850D02*
D03*
X6750D02*
D03*
X6650D02*
D03*
X6550D02*
D03*
X6450D02*
D03*
X6350D02*
D03*
X6250D02*
D03*
X6150D02*
D03*
X6050D02*
D03*
X5950D02*
D03*
X5850D02*
D03*
X5750D02*
D03*
X5650D02*
D03*
X5550D02*
D03*
X5450D02*
D03*
X5300Y7128D02*
D03*
X4900D02*
D03*
X5300Y7028D02*
D03*
X4900D02*
D03*
X5325Y8378D02*
D03*
Y8078D02*
D03*
X4300Y7128D02*
D03*
X4700D02*
D03*
X4175Y8653D02*
D03*
X4275D02*
D03*
X4375D02*
D03*
X4475D02*
D03*
X4575D02*
D03*
X4675D02*
D03*
Y8953D02*
D03*
X4575D02*
D03*
X4475D02*
D03*
X4375D02*
D03*
X4275D02*
D03*
X4175D02*
D03*
X4075D02*
D03*
X3925D02*
D03*
Y8653D02*
D03*
X4000Y7778D02*
D03*
X4100D02*
D03*
X4200D02*
D03*
X4300D02*
D03*
X4400D02*
D03*
X4500D02*
D03*
X4600D02*
D03*
X4700D02*
D03*
X4800D02*
D03*
X4900D02*
D03*
X5000D02*
D03*
X5100D02*
D03*
X5200D02*
D03*
Y8378D02*
D03*
X5100D02*
D03*
X5000D02*
D03*
X4900D02*
D03*
X4800D02*
D03*
X4700D02*
D03*
X4600D02*
D03*
X4500D02*
D03*
X4400D02*
D03*
X4300D02*
D03*
X4200D02*
D03*
X4100D02*
D03*
X4000D02*
D03*
X3900D02*
D03*
X4000Y7278D02*
D03*
X4100D02*
D03*
X4200D02*
D03*
X4300D02*
D03*
X4400D02*
D03*
X4500D02*
D03*
X4600D02*
D03*
X4700D02*
D03*
X4800D02*
D03*
Y7578D02*
D03*
X4700D02*
D03*
X4600D02*
D03*
X4500D02*
D03*
X4400D02*
D03*
X4300D02*
D03*
X4200D02*
D03*
X4100D02*
D03*
X4000D02*
D03*
X3900D02*
D03*
X3750D02*
D03*
Y7278D02*
D03*
X4000Y7028D02*
D03*
X4400D02*
D03*
X3750Y8378D02*
D03*
Y8078D02*
D03*
D29*
X4533Y6628D02*
X4534D01*
X4533D02*
X4534Y6614D01*
X4536Y6601D01*
X4540Y6588D01*
X4545Y6575D01*
X4552Y6564D01*
X4560Y6553D01*
X4570Y6543D01*
X4580Y6534D01*
X4592Y6527D01*
X4604Y6521D01*
X4616Y6516D01*
X4630Y6513D01*
X4643Y6511D01*
X4657D01*
X4670Y6513D01*
X4684Y6516D01*
X4696Y6521D01*
X4708Y6527D01*
X4720Y6534D01*
X4730Y6543D01*
X4740Y6553D01*
X4748Y6564D01*
X4755Y6575D01*
X4760Y6588D01*
X4764Y6601D01*
X4766Y6614D01*
X4767Y6628D01*
X4768D01*
X4767D02*
X4766Y6642D01*
X4764Y6655D01*
X4760Y6668D01*
X4755Y6681D01*
X4748Y6692D01*
X4740Y6703D01*
X4730Y6713D01*
X4720Y6722D01*
X4708Y6729D01*
X4696Y6735D01*
X4684Y6740D01*
X4670Y6743D01*
X4657Y6745D01*
X4643D01*
X4630Y6743D01*
X4616Y6740D01*
X4604Y6735D01*
X4592Y6729D01*
X4580Y6722D01*
X4570Y6713D01*
X4560Y6703D01*
X4552Y6692D01*
X4545Y6681D01*
X4540Y6668D01*
X4536Y6655D01*
X4534Y6642D01*
X4533Y6628D01*
X4601D02*
X4602D01*
X4601D02*
X4602Y6618D01*
X4605Y6608D01*
X4610Y6599D01*
X4617Y6592D01*
X4626Y6586D01*
X4635Y6581D01*
X4645Y6579D01*
X4655D01*
X4665Y6581D01*
X4674Y6586D01*
X4683Y6592D01*
X4690Y6599D01*
X4695Y6608D01*
X4698Y6618D01*
X4699Y6628D01*
X4700D01*
X4699D02*
X4698Y6638D01*
X4695Y6648D01*
X4690Y6657D01*
X4683Y6664D01*
X4674Y6670D01*
X4665Y6675D01*
X4655Y6677D01*
X4645D01*
X4635Y6675D01*
X4626Y6670D01*
X4617Y6664D01*
X4610Y6657D01*
X4605Y6648D01*
X4602Y6638D01*
X4601Y6628D01*
X4650D02*
D03*
X10758Y8803D02*
X10759D01*
X10758D02*
X10759Y8789D01*
X10762Y8776D01*
X10767Y8763D01*
X10774Y8751D01*
X10783Y8740D01*
X10793Y8731D01*
X10804Y8723D01*
X10816Y8717D01*
X10830Y8713D01*
X10843Y8711D01*
X10857D01*
X10870Y8713D01*
X10884Y8717D01*
X10896Y8723D01*
X10907Y8731D01*
X10917Y8740D01*
X10926Y8751D01*
X10933Y8763D01*
X10938Y8776D01*
X10941Y8789D01*
X10942Y8803D01*
X10943D01*
X10942D02*
X10941Y8817D01*
X10938Y8830D01*
X10933Y8843D01*
X10926Y8855D01*
X10917Y8866D01*
X10907Y8875D01*
X10896Y8883D01*
X10884Y8889D01*
X10870Y8893D01*
X10857Y8895D01*
X10843D01*
X10830Y8893D01*
X10816Y8889D01*
X10804Y8883D01*
X10793Y8875D01*
X10783Y8866D01*
X10774Y8855D01*
X10767Y8843D01*
X10762Y8830D01*
X10759Y8817D01*
X10758Y8803D01*
X10826D02*
X10827D01*
X10826D02*
X10827Y8795D01*
X10832Y8788D01*
X10838Y8782D01*
X10846Y8779D01*
X10854D01*
X10862Y8782D01*
X10868Y8788D01*
X10873Y8795D01*
X10874Y8803D01*
X10875D01*
X10874D02*
X10873Y8811D01*
X10868Y8818D01*
X10862Y8824D01*
X10854Y8827D01*
X10846D01*
X10838Y8824D01*
X10832Y8818D01*
X10827Y8811D01*
X10826Y8803D01*
D35*
X6250Y6378D02*
D03*
X6050D02*
D03*
X5250D02*
D03*
X5050D02*
D03*
X4250D02*
D03*
X4050D02*
D03*
D36*
X6150Y6778D02*
D03*
X5950Y6878D02*
D03*
X6350D02*
D03*
X6450Y6778D02*
D03*
X5850D02*
D03*
X7455Y6748D02*
D03*
X6845D02*
D03*
X5150Y6778D02*
D03*
X4950Y6878D02*
D03*
X5350D02*
D03*
X5450Y6778D02*
D03*
X4850D02*
D03*
X4150D02*
D03*
X3950Y6878D02*
D03*
X4350D02*
D03*
X4450Y6778D02*
D03*
X3850D02*
D03*
D39*
X16000Y6628D02*
D03*
X16300D02*
D03*
X16150Y7128D02*
D03*
X15000Y6628D02*
D03*
X15300D02*
D03*
X15150Y7128D02*
D03*
X14000Y6628D02*
D03*
X14300D02*
D03*
X14150Y7128D02*
D03*
X13000Y6628D02*
D03*
X13300D02*
D03*
X13150Y7128D02*
D03*
X12000Y6628D02*
D03*
X12300D02*
D03*
X12150Y7128D02*
D03*
X11000Y6628D02*
D03*
X11300D02*
D03*
X11150Y7128D02*
D03*
X10000Y6628D02*
D03*
X10300D02*
D03*
X10150Y7128D02*
D03*
X9000Y6628D02*
D03*
X9300D02*
D03*
X9150Y7128D02*
D03*
X8000Y6628D02*
D03*
X8300D02*
D03*
X8150Y7128D02*
D03*
D42*
X15072Y8328D02*
D03*
X15384D02*
D03*
X14916D02*
D03*
X15228D02*
D03*
D44*
X7375Y6628D02*
D03*
X6925D02*
D03*
D47*
X16400Y7028D02*
D03*
X16300Y6828D02*
D03*
X16150Y6528D02*
D03*
X15400Y7028D02*
D03*
X15300Y6828D02*
D03*
X15150Y6528D02*
D03*
X14400Y7028D02*
D03*
X14300Y6828D02*
D03*
X14150Y6528D02*
D03*
X13400Y7028D02*
D03*
X13300Y6828D02*
D03*
X13150Y6528D02*
D03*
X12400Y7028D02*
D03*
X12300Y6828D02*
D03*
X12150Y6528D02*
D03*
X11400Y7028D02*
D03*
X11300Y6828D02*
D03*
X11150Y6528D02*
D03*
X10400Y7028D02*
D03*
X10300Y6828D02*
D03*
X10150Y6528D02*
D03*
X9400Y7028D02*
D03*
X9300Y6828D02*
D03*
X9150Y6528D02*
D03*
X8400Y7028D02*
D03*
X8300Y6828D02*
D03*
X8150Y6528D02*
D03*
D51*
X15725Y8028D02*
D03*
X14275D02*
D03*
X13675D02*
D03*
X13450Y8528D02*
D03*
X12075Y8028D02*
D03*
X13075D02*
D03*
X10875D02*
D03*
X11475D02*
D03*
X8950Y8528D02*
D03*
X9775Y8028D02*
D03*
X8000Y8528D02*
D03*
X7800Y7478D02*
D03*
X8675Y8028D02*
D03*
X5950Y8653D02*
D03*
X6900D02*
D03*
X6350Y7278D02*
D03*
X5900D02*
D03*
X4950Y8653D02*
D03*
X5050Y7278D02*
D03*
X5450Y7778D02*
D03*
X4075Y8653D02*
D03*
X3900Y7778D02*
D03*
Y7278D02*
D03*
D53*
X10150Y8703D02*
D03*
Y8803D02*
D03*
Y8903D02*
D03*
M02*
