*%FSLAX23Y23*%
*%MOIN*%
G01*
%ADD11C,0.006*%
%ADD12C,0.007*%
%ADD13C,0.008*%
%ADD14C,0.010*%
%ADD15C,0.012*%
%ADD16C,0.020*%
%ADD17C,0.024*%
%ADD18C,0.032*%
%ADD19C,0.036*%
%ADD20C,0.040*%
%ADD21C,0.050*%
%ADD22C,0.052*%
%ADD23C,0.055*%
%ADD24C,0.056*%
%ADD25C,0.059*%
%ADD26C,0.060*%
%ADD27C,0.062*%
%ADD28C,0.066*%
%ADD29C,0.070*%
%ADD30C,0.082*%
%ADD31C,0.090*%
%ADD32C,0.095*%
%ADD33O,0.100X0.080*%
%ADD34C,0.100*%
%ADD35O,0.104X0.084*%
%ADD36C,0.104*%
%ADD37C,0.115*%
%ADD38C,0.120*%
%ADD39C,0.124*%
%ADD40C,0.125*%
%ADD41C,0.128*%
%ADD42C,0.129*%
%ADD43C,0.140*%
%ADD44C,0.144*%
%ADD45C,0.148*%
%ADD46C,0.150*%
%ADD47C,0.154*%
%ADD48C,0.250*%
%ADD49C,0.250*%
%ADD50R,0.062X0.062*%
%ADD51R,0.066X0.066*%
%ADD52R,0.075X0.075*%
%ADD53R,0.079X0.079*%
%ADD54R,0.250X0.250*%
D11*
X15895Y8803D02*
X15903D01*
Y8795D01*
X15895D01*
Y8803D01*
X15937Y8761D02*
X15945Y8753D01*
Y8736D01*
X15937Y8728D01*
X15903D01*
X15895Y8736D01*
Y8753D01*
X15903Y8761D01*
X15937D01*
X15895Y8711D02*
Y8695D01*
Y8703D01*
X15945D01*
X15946D01*
X15945D02*
X15937Y8711D01*
X15928Y8670D02*
X15903D01*
X15895Y8661D01*
Y8636D01*
X15928D01*
X15945Y8620D02*
Y8586D01*
Y8620D02*
X15920D01*
Y8603D01*
Y8620D01*
X15895D01*
X15797Y9020D02*
X15805Y9028D01*
Y9045D01*
X15797Y9053D01*
X15763D01*
X15755Y9045D01*
Y9028D01*
X15763Y9020D01*
X15755Y9003D02*
Y8986D01*
Y8995D01*
X15805D01*
X15806D01*
X15805D02*
X15797Y9003D01*
X15805Y8961D02*
Y8928D01*
X15797D01*
X15763Y8961D01*
X15755D01*
X16210Y8848D02*
X16218D01*
Y8840D01*
X16210D01*
Y8848D01*
X16252Y8806D02*
X16260Y8798D01*
Y8781D01*
X16252Y8773D01*
X16218D01*
X16210Y8781D01*
Y8798D01*
X16218Y8806D01*
X16252D01*
X16210Y8756D02*
Y8740D01*
Y8748D01*
X16260D01*
X16261D01*
X16260D02*
X16252Y8756D01*
X16243Y8715D02*
X16218D01*
X16210Y8706D01*
Y8681D01*
X16243D01*
X16260Y8665D02*
Y8631D01*
Y8665D02*
X16235D01*
Y8648D01*
Y8665D01*
X16210D01*
X16117Y9025D02*
X16125Y9033D01*
Y9050D01*
X16117Y9058D01*
X16083D01*
X16075Y9050D01*
Y9033D01*
X16083Y9025D01*
X16075Y9008D02*
Y8991D01*
Y9000D01*
X16125D01*
X16126D01*
X16125D02*
X16117Y9008D01*
X16125Y8941D02*
X16075D01*
X16100Y8966D02*
X16125Y8941D01*
X16100Y8933D02*
Y8966D01*
X15605Y8488D02*
X15597Y8480D01*
X15605Y8488D02*
Y8505D01*
X15597Y8513D01*
X15563D01*
X15555Y8505D01*
Y8488D01*
X15563Y8480D01*
X15597Y8463D02*
X15605Y8455D01*
Y8438D01*
X15597Y8430D01*
X15588D01*
X15589D01*
X15588D02*
X15589D01*
X15588D02*
X15589D01*
X15588D02*
X15580Y8438D01*
Y8446D01*
Y8438D01*
X15572Y8430D01*
X15563D01*
X15555Y8438D01*
Y8455D01*
X15563Y8463D01*
X15555Y8388D02*
X15605D01*
X15580Y8413D01*
Y8380D01*
X15940Y8203D02*
Y8153D01*
X15965D01*
X15973Y8161D01*
Y8195D01*
X15965Y8203D01*
X15940D01*
X16015D02*
X16023Y8195D01*
X16015Y8203D02*
X15998D01*
X15990Y8195D01*
Y8161D01*
X15998Y8153D01*
X16015D01*
X16023Y8161D01*
Y8178D01*
X16007D01*
X16040Y8153D02*
X16073D01*
X16040D02*
X16073Y8186D01*
Y8195D01*
X16065Y8203D01*
X16048D01*
X16040Y8195D01*
X16090D02*
X16098Y8203D01*
X16115D01*
X16123Y8195D01*
Y8161D01*
X16115Y8153D01*
X16098D01*
X16090Y8161D01*
Y8195D01*
X16140Y8153D02*
X16157D01*
X16148D01*
Y8203D01*
X16149D01*
X16148D02*
X16140Y8195D01*
X16182Y8186D02*
Y8153D01*
Y8186D02*
X16198Y8203D01*
X16215Y8186D01*
Y8153D01*
Y8178D01*
X16182D01*
X15675Y7978D02*
Y7936D01*
X15683Y7928D01*
X15700D01*
X15708Y7936D01*
Y7978D01*
X15725Y7928D02*
X15742D01*
X15733D01*
Y7978D01*
X15734D01*
X15733D02*
X15725Y7970D01*
X15767Y7978D02*
X15800D01*
X15767D02*
Y7953D01*
X15783Y7961D01*
X15792D01*
X15800Y7953D01*
Y7936D01*
X15792Y7928D01*
X15775D01*
X15767Y7936D01*
X16210Y7718D02*
X16218D01*
Y7710D01*
X16210D01*
Y7718D01*
X16252Y7676D02*
X16260Y7668D01*
Y7651D01*
X16252Y7643D01*
X16218D01*
X16210Y7651D01*
Y7668D01*
X16218Y7676D01*
X16252D01*
X16210Y7626D02*
Y7610D01*
Y7618D01*
X16260D01*
X16261D01*
X16260D02*
X16252Y7626D01*
X16243Y7585D02*
X16218D01*
X16210Y7576D01*
Y7551D01*
X16243D01*
X16260Y7535D02*
Y7501D01*
Y7535D02*
X16235D01*
Y7518D01*
Y7535D01*
X16210D01*
X16397Y7395D02*
X16405Y7403D01*
Y7420D01*
X16397Y7428D01*
X16363D01*
X16355Y7420D01*
Y7403D01*
X16363Y7395D01*
X16355Y7378D02*
Y7361D01*
Y7370D01*
X16405D01*
X16406D01*
X16405D02*
X16397Y7378D01*
Y7320D02*
X16405Y7303D01*
X16397Y7320D02*
X16380Y7336D01*
X16363D01*
X16355Y7328D01*
Y7311D01*
X16363Y7303D01*
X16372D01*
X16380Y7311D01*
Y7336D01*
X15933Y7763D02*
X15925D01*
X15933D02*
Y7755D01*
X15925D01*
Y7763D01*
X15967Y7721D02*
X15975Y7713D01*
Y7696D01*
X15967Y7688D01*
X15933D01*
X15925Y7696D01*
Y7713D01*
X15933Y7721D01*
X15967D01*
X15925Y7671D02*
Y7655D01*
Y7663D01*
X15975D01*
X15976D01*
X15975D02*
X15967Y7671D01*
X15958Y7630D02*
X15933D01*
X15925Y7621D01*
Y7596D01*
X15958D01*
X15975Y7580D02*
Y7546D01*
Y7580D02*
X15950D01*
Y7563D01*
Y7580D01*
X15925D01*
X15865Y7368D02*
X15857Y7360D01*
X15865Y7368D02*
Y7385D01*
X15857Y7393D01*
X15823D01*
X15815Y7385D01*
Y7368D01*
X15823Y7360D01*
X15815Y7343D02*
Y7326D01*
Y7335D01*
X15865D01*
X15866D01*
X15865D02*
X15857Y7343D01*
X15815Y7301D02*
Y7268D01*
Y7301D02*
X15848Y7268D01*
X15857D01*
X15865Y7276D01*
Y7293D01*
X15857Y7301D01*
X16537Y8480D02*
X16545Y8488D01*
Y8505D01*
X16537Y8513D01*
X16503D01*
X16495Y8505D01*
Y8488D01*
X16503Y8480D01*
X16495Y8438D02*
X16545D01*
X16520Y8463D01*
Y8430D01*
X16495Y8413D02*
Y8380D01*
Y8413D02*
X16528Y8380D01*
X16537D01*
X16545Y8388D01*
Y8405D01*
X16537Y8413D01*
X15095Y8108D02*
Y8058D01*
Y8108D02*
X15120D01*
X15128Y8100D01*
Y8083D01*
X15120Y8075D01*
X15095D01*
X15145Y8058D02*
X15162D01*
X15153D01*
Y8108D01*
X15154D01*
X15153D02*
X15145Y8100D01*
X16422Y7273D02*
X16438D01*
X16430D02*
X16422D01*
X16430D02*
Y7231D01*
X16422Y7223D01*
X16413D01*
X16405Y7231D01*
X16480Y7223D02*
Y7273D01*
X16455Y7248D01*
X16488D01*
X15443Y7248D02*
X15427D01*
X15435D01*
Y7206D01*
X15427Y7198D01*
X15418D01*
X15410Y7206D01*
X15460Y7248D02*
X15493D01*
X15460D02*
Y7223D01*
X15477Y7231D01*
X15485D01*
X15493Y7223D01*
Y7206D01*
X15485Y7198D01*
X15468D01*
X15460Y7206D01*
X14500Y8758D02*
X14450D01*
X14475Y8783D02*
X14500Y8758D01*
X14475Y8750D02*
Y8783D01*
X14458Y8733D02*
X14450D01*
X14458D02*
Y8725D01*
X14450D01*
Y8733D01*
X14458Y8691D02*
X14450Y8683D01*
Y8666D01*
X14458Y8658D01*
X14492D01*
X14500Y8666D01*
Y8683D01*
X14492Y8691D01*
X14483D01*
X14475Y8683D01*
Y8658D01*
X14458Y8641D02*
X14450Y8633D01*
Y8616D01*
X14458Y8608D01*
X14492D01*
X14500Y8616D01*
Y8633D01*
X14492Y8641D01*
X14483D01*
X14475Y8633D01*
Y8608D01*
X14500Y8591D02*
X14450D01*
X14467D01*
X14500Y8558D01*
X14475Y8583D01*
X14450Y8558D01*
X14445Y9058D02*
X14495D01*
Y9033D01*
X14487Y9025D01*
X14470D01*
X14462Y9033D01*
Y9058D01*
Y9041D02*
X14445Y9025D01*
Y9008D02*
Y8991D01*
Y9000D01*
X14495D01*
X14496D01*
X14495D02*
X14487Y9008D01*
X14453Y8966D02*
X14445Y8958D01*
Y8941D01*
X14453Y8933D01*
X14487D01*
X14495Y8941D01*
Y8958D01*
X14487Y8966D01*
X14478D01*
X14470Y8958D01*
Y8933D01*
X14350Y8758D02*
Y8741D01*
Y8750D01*
X14400D01*
X14401D01*
X14400D02*
X14392Y8758D01*
Y8716D02*
X14400Y8708D01*
Y8691D01*
X14392Y8683D01*
X14358D01*
X14350Y8691D01*
Y8708D01*
X14358Y8716D01*
X14392D01*
Y8666D02*
X14400Y8658D01*
Y8641D01*
X14392Y8633D01*
X14358D01*
X14350Y8641D01*
Y8658D01*
X14358Y8666D01*
X14392D01*
X14395Y9048D02*
X14345D01*
X14395D02*
Y9023D01*
X14387Y9015D01*
X14370D01*
X14362Y9023D01*
Y9048D01*
Y9031D02*
X14345Y9015D01*
Y8998D02*
Y8981D01*
Y8990D01*
X14395D01*
X14396D01*
X14395D02*
X14387Y8998D01*
X14395Y8956D02*
Y8923D01*
X14387D01*
X14353Y8956D01*
X14345D01*
X14150Y8788D02*
Y8771D01*
Y8780D01*
X14200D01*
X14201D01*
X14200D02*
X14192Y8788D01*
Y8746D02*
X14200Y8738D01*
Y8721D01*
X14192Y8713D01*
X14183D01*
X14175Y8721D01*
X14167Y8713D01*
X14158D01*
X14150Y8721D01*
Y8738D01*
X14158Y8746D01*
X14167D01*
X14175Y8738D01*
X14183Y8746D01*
X14192D01*
X14175Y8738D02*
Y8721D01*
X14192Y8696D02*
X14200Y8688D01*
Y8671D01*
X14192Y8663D01*
X14158D01*
X14150Y8671D01*
Y8688D01*
X14158Y8696D01*
X14192D01*
X14183Y8646D02*
X14133D01*
X14183D02*
Y8621D01*
X14175Y8613D01*
X14158D01*
X14150Y8621D01*
Y8646D01*
X14200Y8596D02*
Y8563D01*
Y8596D02*
X14175D01*
Y8580D01*
Y8596D01*
X14150D01*
X14292Y8915D02*
X14300Y8923D01*
Y8940D01*
X14292Y8948D01*
X14258D01*
X14250Y8940D01*
Y8923D01*
X14258Y8915D01*
X14250Y8898D02*
Y8881D01*
Y8890D01*
X14300D01*
X14301D01*
X14300D02*
X14292Y8898D01*
X14300Y8856D02*
Y8823D01*
Y8856D02*
X14275D01*
X14283Y8840D01*
Y8831D01*
X14275Y8823D01*
X14258D01*
X14250Y8831D01*
Y8848D01*
X14258Y8856D01*
X14750Y7963D02*
X14742Y7955D01*
X14750Y7963D02*
Y7980D01*
X14742Y7988D01*
X14708D01*
X14700Y7980D01*
Y7963D01*
X14708Y7955D01*
X14700Y7913D02*
X14750D01*
X14725Y7938D01*
Y7905D01*
X14742Y7888D02*
X14750Y7880D01*
Y7863D01*
X14742Y7855D01*
X14733D01*
X14734D01*
X14733D02*
X14734D01*
X14733D02*
X14734D01*
X14733D02*
X14725Y7863D01*
Y7871D01*
Y7863D01*
X14717Y7855D01*
X14708D01*
X14700Y7863D01*
Y7880D01*
X14708Y7888D01*
X14308Y8228D02*
X14275D01*
X14292D02*
X14308D01*
X14292D02*
Y8178D01*
X14325D02*
Y8228D01*
Y8178D02*
X14358D01*
X14375Y8220D02*
X14383Y8228D01*
X14400D01*
X14408Y8220D01*
Y8186D01*
X14400Y8178D01*
X14383D01*
X14375Y8186D01*
Y8220D01*
X14425Y8228D02*
X14458D01*
X14425D02*
Y8203D01*
X14442Y8211D01*
X14450D01*
X14458Y8203D01*
Y8186D01*
X14450Y8178D01*
X14433D01*
X14425Y8186D01*
X14475Y8178D02*
X14508D01*
X14475D02*
X14508Y8211D01*
Y8220D01*
X14500Y8228D01*
X14483D01*
X14475Y8220D01*
X14225Y7978D02*
Y7936D01*
X14233Y7928D01*
X14250D01*
X14258Y7936D01*
Y7978D01*
X14275Y7928D02*
X14292D01*
X14283D01*
Y7978D01*
X14284D01*
X14283D02*
X14275Y7970D01*
X14317Y7978D02*
X14350D01*
Y7970D01*
X14317Y7936D01*
Y7928D01*
X14350Y7773D02*
X14400D01*
X14375Y7798D01*
Y7765D01*
X14358Y7748D02*
X14350D01*
X14358D02*
Y7740D01*
X14350D01*
Y7748D01*
X14358Y7706D02*
X14350Y7698D01*
Y7681D01*
X14358Y7673D01*
X14392D01*
X14400Y7681D01*
Y7698D01*
X14392Y7706D01*
X14383D01*
X14375Y7698D01*
Y7673D01*
X14358Y7656D02*
X14350Y7648D01*
Y7631D01*
X14358Y7623D01*
X14392D01*
X14400Y7631D01*
Y7648D01*
X14392Y7656D01*
X14383D01*
X14375Y7648D01*
Y7623D01*
X14400Y7606D02*
X14350D01*
X14367D01*
X14400Y7573D01*
X14375Y7598D01*
X14350Y7573D01*
X14340Y7433D02*
X14390D01*
Y7408D01*
X14382Y7400D01*
X14365D01*
X14357Y7408D01*
Y7433D01*
Y7416D02*
X14340Y7400D01*
Y7383D02*
Y7350D01*
Y7383D02*
X14373Y7350D01*
X14382D01*
X14390Y7358D01*
Y7375D01*
X14382Y7383D01*
X14340Y7333D02*
Y7300D01*
Y7333D02*
X14373Y7300D01*
X14382D01*
X14390Y7308D01*
Y7325D01*
X14382Y7333D01*
X14250Y7746D02*
Y7763D01*
Y7755D02*
Y7746D01*
Y7755D02*
X14300D01*
X14301D01*
X14300D02*
X14292Y7763D01*
Y7721D02*
X14300Y7713D01*
Y7696D01*
X14292Y7688D01*
X14258D01*
X14250Y7696D01*
Y7713D01*
X14258Y7721D01*
X14292D01*
Y7671D02*
X14300Y7663D01*
Y7646D01*
X14292Y7638D01*
X14258D01*
X14250Y7646D01*
Y7663D01*
X14258Y7671D01*
X14292D01*
X14300Y7428D02*
X14250D01*
X14300D02*
Y7403D01*
X14292Y7395D01*
X14275D01*
X14267Y7403D01*
Y7428D01*
Y7411D02*
X14250Y7395D01*
Y7378D02*
Y7345D01*
Y7378D02*
X14283Y7345D01*
X14292D01*
X14300Y7353D01*
Y7370D01*
X14292Y7378D01*
Y7328D02*
X14300Y7320D01*
Y7303D01*
X14292Y7295D01*
X14258D01*
X14250Y7303D01*
Y7320D01*
X14258Y7328D01*
X14292D01*
X14150Y7531D02*
Y7548D01*
Y7540D02*
Y7531D01*
Y7540D02*
X14200D01*
X14201D01*
X14200D02*
X14192Y7548D01*
Y7506D02*
X14200Y7498D01*
Y7481D01*
X14192Y7473D01*
X14183D01*
X14175Y7481D01*
X14167Y7473D01*
X14158D01*
X14150Y7481D01*
Y7498D01*
X14158Y7506D01*
X14167D01*
X14175Y7498D01*
X14183Y7506D01*
X14192D01*
X14175Y7498D02*
Y7481D01*
X14192Y7456D02*
X14200Y7448D01*
Y7431D01*
X14192Y7423D01*
X14158D01*
X14150Y7431D01*
Y7448D01*
X14158Y7456D01*
X14192D01*
X14183Y7406D02*
X14133D01*
X14183D02*
Y7381D01*
X14175Y7373D01*
X14158D01*
X14150Y7381D01*
Y7406D01*
X14200Y7356D02*
Y7323D01*
Y7356D02*
X14175D01*
Y7340D01*
Y7356D01*
X14150D01*
X14197Y7890D02*
X14205Y7898D01*
Y7915D01*
X14197Y7923D01*
X14163D01*
X14155Y7915D01*
Y7898D01*
X14163Y7890D01*
X14155Y7873D02*
Y7856D01*
Y7865D01*
X14205D01*
X14206D01*
X14205D02*
X14197Y7873D01*
Y7831D02*
X14205Y7823D01*
Y7806D01*
X14197Y7798D01*
X14188D01*
X14180Y7806D01*
X14172Y7798D01*
X14163D01*
X14155Y7806D01*
Y7823D01*
X14163Y7831D01*
X14172D01*
X14180Y7823D01*
X14188Y7831D01*
X14197D01*
X14180Y7823D02*
Y7806D01*
X14197Y8475D02*
X14205Y8483D01*
Y8500D01*
X14197Y8508D01*
X14163D01*
X14155Y8500D01*
Y8483D01*
X14163Y8475D01*
X14197Y8458D02*
X14205Y8450D01*
Y8433D01*
X14197Y8425D01*
X14188D01*
X14189D01*
X14188D02*
X14189D01*
X14188D02*
X14189D01*
X14188D02*
X14180Y8433D01*
Y8441D01*
Y8433D01*
X14172Y8425D01*
X14163D01*
X14155Y8433D01*
Y8450D01*
X14163Y8458D01*
X14197Y8391D02*
X14205Y8375D01*
X14197Y8391D02*
X14180Y8408D01*
X14163D01*
X14155Y8400D01*
Y8383D01*
X14163Y8375D01*
X14172D01*
X14180Y8383D01*
Y8408D01*
X14100Y8483D02*
X14092Y8475D01*
X14100Y8483D02*
Y8500D01*
X14092Y8508D01*
X14058D01*
X14050Y8500D01*
Y8483D01*
X14058Y8475D01*
X14050Y8433D02*
X14100D01*
X14075Y8458D01*
Y8425D01*
X14092Y8408D02*
X14100Y8400D01*
Y8383D01*
X14092Y8375D01*
X14058D01*
X14050Y8383D01*
Y8400D01*
X14058Y8408D01*
X14092D01*
X13758Y8178D02*
X13725D01*
X13742D02*
X13758D01*
X13742D02*
Y8128D01*
X13775D02*
Y8178D01*
Y8128D02*
X13808D01*
X13825Y8170D02*
X13833Y8178D01*
X13850D01*
X13858Y8170D01*
Y8136D01*
X13850Y8128D01*
X13833D01*
X13825Y8136D01*
Y8170D01*
X13875Y8178D02*
X13908D01*
X13875D02*
Y8153D01*
X13892Y8161D01*
X13900D01*
X13908Y8153D01*
Y8136D01*
X13900Y8128D01*
X13883D01*
X13875Y8136D01*
X13925Y8128D02*
X13958D01*
X13925D02*
X13958Y8161D01*
Y8170D01*
X13950Y8178D01*
X13933D01*
X13925Y8170D01*
X13625Y7978D02*
Y7936D01*
X13633Y7928D01*
X13650D01*
X13658Y7936D01*
Y7978D01*
X13675Y7928D02*
X13692D01*
X13683D01*
Y7978D01*
X13684D01*
X13683D02*
X13675Y7970D01*
X13733D02*
X13750Y7978D01*
X13733Y7970D02*
X13717Y7953D01*
Y7936D01*
X13725Y7928D01*
X13742D01*
X13750Y7936D01*
Y7945D01*
X13742Y7953D01*
X13717D01*
X14060Y7553D02*
Y7536D01*
Y7545D01*
X14110D01*
X14111D01*
X14110D02*
X14102Y7553D01*
Y7511D02*
X14110Y7503D01*
Y7486D01*
X14102Y7478D01*
X14093D01*
X14085Y7486D01*
X14077Y7478D01*
X14068D01*
X14060Y7486D01*
Y7503D01*
X14068Y7511D01*
X14077D01*
X14085Y7503D01*
X14093Y7511D01*
X14102D01*
X14085Y7503D02*
Y7486D01*
X14102Y7461D02*
X14110Y7453D01*
Y7436D01*
X14102Y7428D01*
X14068D01*
X14060Y7436D01*
Y7453D01*
X14068Y7461D01*
X14102D01*
X14093Y7411D02*
X14043D01*
X14093D02*
Y7386D01*
X14085Y7378D01*
X14068D01*
X14060Y7386D01*
Y7411D01*
X14110Y7361D02*
Y7328D01*
Y7361D02*
X14085D01*
Y7345D01*
Y7361D01*
X14060D01*
X14087Y7890D02*
X14095Y7898D01*
Y7915D01*
X14087Y7923D01*
X14053D01*
X14045Y7915D01*
Y7898D01*
X14053Y7890D01*
X14045Y7873D02*
Y7856D01*
Y7865D01*
X14095D01*
X14096D01*
X14095D02*
X14087Y7873D01*
X14053Y7831D02*
X14045Y7823D01*
Y7806D01*
X14053Y7798D01*
X14087D01*
X14095Y7806D01*
Y7823D01*
X14087Y7831D01*
X14078D01*
X14070Y7823D01*
Y7798D01*
X13995Y7763D02*
X13945D01*
X13970Y7788D02*
X13995Y7763D01*
X13970Y7755D02*
Y7788D01*
X13953Y7738D02*
X13945D01*
X13953D02*
Y7730D01*
X13945D01*
Y7738D01*
X13953Y7696D02*
X13945Y7688D01*
Y7671D01*
X13953Y7663D01*
X13987D01*
X13995Y7671D01*
Y7688D01*
X13987Y7696D01*
X13978D01*
X13970Y7688D01*
Y7663D01*
X13953Y7646D02*
X13945Y7638D01*
Y7621D01*
X13953Y7613D01*
X13987D01*
X13995Y7621D01*
Y7638D01*
X13987Y7646D01*
X13978D01*
X13970Y7638D01*
Y7613D01*
X13995Y7596D02*
X13945D01*
X13962D01*
X13995Y7563D01*
X13970Y7588D01*
X13945Y7563D01*
X13950Y7433D02*
X14000D01*
Y7408D01*
X13992Y7400D01*
X13975D01*
X13967Y7408D01*
Y7433D01*
Y7416D02*
X13950Y7400D01*
Y7383D02*
Y7350D01*
Y7383D02*
X13983Y7350D01*
X13992D01*
X14000Y7358D01*
Y7375D01*
X13992Y7383D01*
Y7333D02*
X14000Y7325D01*
Y7308D01*
X13992Y7300D01*
X13983D01*
X13984D01*
X13983D02*
X13984D01*
X13983D02*
X13984D01*
X13983D02*
X13975Y7308D01*
Y7316D01*
Y7308D01*
X13967Y7300D01*
X13958D01*
X13950Y7308D01*
Y7325D01*
X13958Y7333D01*
X13850Y7736D02*
Y7753D01*
Y7745D02*
Y7736D01*
Y7745D02*
X13900D01*
X13901D01*
X13900D02*
X13892Y7753D01*
Y7711D02*
X13900Y7703D01*
Y7686D01*
X13892Y7678D01*
X13858D01*
X13850Y7686D01*
Y7703D01*
X13858Y7711D01*
X13892D01*
Y7661D02*
X13900Y7653D01*
Y7636D01*
X13892Y7628D01*
X13858D01*
X13850Y7636D01*
Y7653D01*
X13858Y7661D01*
X13892D01*
X13895Y7428D02*
X13845D01*
X13895D02*
Y7403D01*
X13887Y7395D01*
X13870D01*
X13862Y7403D01*
Y7428D01*
Y7411D02*
X13845Y7395D01*
Y7378D02*
Y7345D01*
Y7378D02*
X13878Y7345D01*
X13887D01*
X13895Y7353D01*
Y7370D01*
X13887Y7378D01*
X13845Y7328D02*
Y7311D01*
Y7320D01*
X13895D01*
X13896D01*
X13895D02*
X13887Y7328D01*
X13800Y7763D02*
X13750D01*
X13775Y7788D02*
X13800Y7763D01*
X13775Y7755D02*
Y7788D01*
X13758Y7738D02*
X13750D01*
X13758D02*
Y7730D01*
X13750D01*
Y7738D01*
X13758Y7696D02*
X13750Y7688D01*
Y7671D01*
X13758Y7663D01*
X13792D01*
X13800Y7671D01*
Y7688D01*
X13792Y7696D01*
X13783D01*
X13775Y7688D01*
Y7663D01*
X13758Y7646D02*
X13750Y7638D01*
Y7621D01*
X13758Y7613D01*
X13792D01*
X13800Y7621D01*
Y7638D01*
X13792Y7646D01*
X13783D01*
X13775Y7638D01*
Y7613D01*
X13800Y7596D02*
X13750D01*
X13767D01*
X13800Y7563D01*
X13775Y7588D01*
X13750Y7563D01*
Y7433D02*
X13800D01*
Y7408D01*
X13792Y7400D01*
X13775D01*
X13767Y7408D01*
Y7433D01*
Y7416D02*
X13750Y7400D01*
Y7383D02*
Y7366D01*
Y7375D01*
X13800D01*
X13801D01*
X13800D02*
X13792Y7383D01*
Y7341D02*
X13800Y7333D01*
Y7316D01*
X13792Y7308D01*
X13783D01*
X13775Y7316D01*
X13767Y7308D01*
X13758D01*
X13750Y7316D01*
Y7333D01*
X13758Y7341D01*
X13767D01*
X13775Y7333D01*
X13783Y7341D01*
X13792D01*
X13775Y7333D02*
Y7316D01*
X13655Y7751D02*
Y7768D01*
Y7760D02*
Y7751D01*
Y7760D02*
X13705D01*
X13706D01*
X13705D02*
X13697Y7768D01*
Y7726D02*
X13705Y7718D01*
Y7701D01*
X13697Y7693D01*
X13663D01*
X13655Y7701D01*
Y7718D01*
X13663Y7726D01*
X13697D01*
Y7676D02*
X13705Y7668D01*
Y7651D01*
X13697Y7643D01*
X13663D01*
X13655Y7651D01*
Y7668D01*
X13663Y7676D01*
X13697D01*
X13700Y7438D02*
X13650D01*
X13700D02*
Y7413D01*
X13692Y7405D01*
X13675D01*
X13667Y7413D01*
Y7438D01*
Y7421D02*
X13650Y7405D01*
Y7388D02*
Y7371D01*
Y7380D01*
X13700D01*
X13701D01*
X13700D02*
X13692Y7388D01*
Y7330D02*
X13700Y7313D01*
X13692Y7330D02*
X13675Y7346D01*
X13658D01*
X13650Y7338D01*
Y7321D01*
X13658Y7313D01*
X13667D01*
X13675Y7321D01*
Y7346D01*
X14412Y7278D02*
X14428D01*
X14420D02*
X14412D01*
X14420D02*
Y7236D01*
X14412Y7228D01*
X14403D01*
X14395Y7236D01*
X14462Y7270D02*
X14478Y7278D01*
X14462Y7270D02*
X14445Y7253D01*
Y7236D01*
X14453Y7228D01*
X14470D01*
X14478Y7236D01*
Y7245D01*
X14470Y7253D01*
X14445D01*
X12273Y8818D02*
X12265D01*
X12273D02*
Y8810D01*
X12265D01*
Y8818D01*
X12307Y8776D02*
X12315Y8768D01*
Y8751D01*
X12307Y8743D01*
X12273D01*
X12265Y8751D01*
Y8768D01*
X12273Y8776D01*
X12307D01*
X12265Y8726D02*
Y8710D01*
Y8718D01*
X12315D01*
X12316D01*
X12315D02*
X12307Y8726D01*
X12298Y8685D02*
X12273D01*
X12265Y8676D01*
Y8651D01*
X12298D01*
X12315Y8635D02*
Y8601D01*
Y8635D02*
X12290D01*
Y8618D01*
Y8635D01*
X12265D01*
X12157Y9025D02*
X12165Y9033D01*
Y9050D01*
X12157Y9058D01*
X12123D01*
X12115Y9050D01*
Y9033D01*
X12123Y9025D01*
X12115Y9008D02*
Y8991D01*
Y9000D01*
X12165D01*
X12166D01*
X12165D02*
X12157Y9008D01*
Y8966D02*
X12165Y8958D01*
Y8941D01*
X12157Y8933D01*
X12123D01*
X12115Y8941D01*
Y8958D01*
X12123Y8966D01*
X12157D01*
X12550Y8828D02*
X12558D01*
Y8820D01*
X12550D01*
Y8828D01*
X12592Y8786D02*
X12600Y8778D01*
Y8761D01*
X12592Y8753D01*
X12558D01*
X12550Y8761D01*
Y8778D01*
X12558Y8786D01*
X12592D01*
X12550Y8736D02*
Y8720D01*
Y8728D01*
X12600D01*
X12601D01*
X12600D02*
X12592Y8736D01*
X12583Y8695D02*
X12558D01*
X12550Y8686D01*
Y8661D01*
X12583D01*
X12600Y8645D02*
Y8611D01*
Y8645D02*
X12575D01*
Y8628D01*
Y8645D01*
X12550D01*
X12672Y9025D02*
X12680Y9033D01*
Y9050D01*
X12672Y9058D01*
X12638D01*
X12630Y9050D01*
Y9033D01*
X12638Y9025D01*
X12672Y9008D02*
X12680Y9000D01*
Y8983D01*
X12672Y8975D01*
X12663D01*
X12655Y8983D01*
X12647Y8975D01*
X12638D01*
X12630Y8983D01*
Y9000D01*
X12638Y9008D01*
X12647D01*
X12655Y9000D01*
X12663Y9008D01*
X12672D01*
X12655Y9000D02*
Y8983D01*
X12405Y8753D02*
Y8736D01*
Y8745D01*
X12455D01*
X12456D01*
X12455D02*
X12447Y8753D01*
Y8711D02*
X12455Y8703D01*
Y8686D01*
X12447Y8678D01*
X12413D01*
X12405Y8686D01*
Y8703D01*
X12413Y8711D01*
X12447D01*
Y8661D02*
X12455Y8653D01*
Y8636D01*
X12447Y8628D01*
X12413D01*
X12405Y8636D01*
Y8653D01*
X12413Y8661D01*
X12447D01*
X12445Y9018D02*
X12395D01*
X12445D02*
Y8993D01*
X12437Y8985D01*
X12420D01*
X12412Y8993D01*
Y9018D01*
Y9001D02*
X12395Y8985D01*
X12403Y8968D02*
X12395Y8960D01*
Y8943D01*
X12403Y8935D01*
X12437D01*
X12445Y8943D01*
Y8960D01*
X12437Y8968D01*
X12428D01*
X12420Y8960D01*
Y8935D01*
X13145Y8768D02*
X13195D01*
X13170Y8793D01*
Y8760D01*
X13153Y8743D02*
X13145D01*
X13153D02*
Y8735D01*
X13145D01*
Y8743D01*
X13153Y8701D02*
X13145Y8693D01*
Y8676D01*
X13153Y8668D01*
X13187D01*
X13195Y8676D01*
Y8693D01*
X13187Y8701D01*
X13178D01*
X13170Y8693D01*
Y8668D01*
X13153Y8651D02*
X13145Y8643D01*
Y8626D01*
X13153Y8618D01*
X13187D01*
X13195Y8626D01*
Y8643D01*
X13187Y8651D01*
X13178D01*
X13170Y8643D01*
Y8618D01*
X13195Y8601D02*
X13145D01*
X13162D01*
X13195Y8568D01*
X13170Y8593D01*
X13145Y8568D01*
X13150Y9048D02*
X13200D01*
Y9023D01*
X13192Y9015D01*
X13175D01*
X13167Y9023D01*
Y9048D01*
Y9031D02*
X13150Y9015D01*
Y8998D02*
Y8981D01*
Y8990D01*
X13200D01*
X13201D01*
X13200D02*
X13192Y8998D01*
Y8956D02*
X13200Y8948D01*
Y8931D01*
X13192Y8923D01*
X13183D01*
X13184D01*
X13183D02*
X13184D01*
X13183D02*
X13184D01*
X13183D02*
X13175Y8931D01*
Y8940D01*
Y8931D01*
X13167Y8923D01*
X13158D01*
X13150Y8931D01*
Y8948D01*
X13158Y8956D01*
X13055Y8753D02*
Y8736D01*
Y8745D01*
X13105D01*
X13106D01*
X13105D02*
X13097Y8753D01*
Y8711D02*
X13105Y8703D01*
Y8686D01*
X13097Y8678D01*
X13063D01*
X13055Y8686D01*
Y8703D01*
X13063Y8711D01*
X13097D01*
Y8661D02*
X13105Y8653D01*
Y8636D01*
X13097Y8628D01*
X13063D01*
X13055Y8636D01*
Y8653D01*
X13063Y8661D01*
X13097D01*
X13095Y9058D02*
X13045D01*
X13095D02*
Y9033D01*
X13087Y9025D01*
X13070D01*
X13062Y9033D01*
Y9058D01*
Y9041D02*
X13045Y9025D01*
Y9008D02*
Y8991D01*
Y9000D01*
X13095D01*
X13096D01*
X13095D02*
X13087Y9008D01*
X13045Y8966D02*
Y8933D01*
Y8966D02*
X13078Y8933D01*
X13087D01*
X13095Y8941D01*
Y8958D01*
X13087Y8966D01*
X12855Y8778D02*
Y8761D01*
Y8770D01*
X12905D01*
X12906D01*
X12905D02*
X12897Y8778D01*
Y8736D02*
X12905Y8728D01*
Y8711D01*
X12897Y8703D01*
X12888D01*
X12880Y8711D01*
X12872Y8703D01*
X12863D01*
X12855Y8711D01*
Y8728D01*
X12863Y8736D01*
X12872D01*
X12880Y8728D01*
X12888Y8736D01*
X12897D01*
X12880Y8728D02*
Y8711D01*
X12897Y8686D02*
X12905Y8678D01*
Y8661D01*
X12897Y8653D01*
X12863D01*
X12855Y8661D01*
Y8678D01*
X12863Y8686D01*
X12897D01*
X12888Y8636D02*
X12838D01*
X12888D02*
Y8611D01*
X12880Y8603D01*
X12863D01*
X12855Y8611D01*
Y8636D01*
X12905Y8586D02*
Y8553D01*
Y8586D02*
X12880D01*
Y8570D01*
Y8586D01*
X12855D01*
X12997Y8875D02*
X13005Y8883D01*
Y8900D01*
X12997Y8908D01*
X12963D01*
X12955Y8900D01*
Y8883D01*
X12963Y8875D01*
Y8858D02*
X12955Y8850D01*
Y8833D01*
X12963Y8825D01*
X12997D01*
X13005Y8833D01*
Y8850D01*
X12997Y8858D01*
X12988D01*
X12980Y8850D01*
Y8825D01*
X13935Y8648D02*
X13955D01*
X13945D02*
X13935D01*
X13945D02*
Y8598D01*
X13935Y8588D01*
X13925D01*
X13915Y8598D01*
X13975Y8588D02*
Y8648D01*
X14005D01*
X14015Y8638D01*
Y8618D01*
X14005Y8608D01*
X13975D01*
X14035Y8648D02*
X14075D01*
X14035D02*
Y8618D01*
X14055Y8628D01*
X14065D01*
X14075Y8618D01*
Y8598D01*
X14065Y8588D01*
X14045D01*
X14035Y8598D01*
X12285Y8138D02*
Y8088D01*
X12310D01*
X12318Y8096D01*
Y8130D01*
X12310Y8138D01*
X12285D01*
X12360D02*
X12368Y8130D01*
X12360Y8138D02*
X12343D01*
X12335Y8130D01*
Y8096D01*
X12343Y8088D01*
X12360D01*
X12368Y8096D01*
Y8113D01*
X12352D01*
X12385Y8088D02*
X12418D01*
X12385D02*
X12418Y8121D01*
Y8130D01*
X12410Y8138D01*
X12393D01*
X12385Y8130D01*
X12435D02*
X12443Y8138D01*
X12460D01*
X12468Y8130D01*
Y8096D01*
X12460Y8088D01*
X12443D01*
X12435Y8096D01*
Y8130D01*
X12485Y8088D02*
X12502D01*
X12493D01*
Y8138D01*
X12494D01*
X12493D02*
X12485Y8130D01*
X12527Y8121D02*
Y8088D01*
Y8121D02*
X12543Y8138D01*
X12560Y8121D01*
Y8088D01*
Y8113D01*
X12527D01*
X12075Y7978D02*
Y7936D01*
X12083Y7928D01*
X12100D01*
X12108Y7936D01*
Y7978D01*
X12125Y7928D02*
X12142D01*
X12133D01*
Y7978D01*
X12134D01*
X12133D02*
X12125Y7970D01*
X12167D02*
X12175Y7978D01*
X12192D01*
X12200Y7970D01*
Y7961D01*
X12201D01*
X12200D02*
X12201D01*
X12200D02*
X12201D01*
X12200D02*
X12192Y7953D01*
X12183D01*
X12192D01*
X12200Y7945D01*
Y7936D01*
X12192Y7928D01*
X12175D01*
X12167Y7936D01*
X12235Y7758D02*
X12243D01*
Y7750D01*
X12235D01*
Y7758D01*
X12277Y7716D02*
X12285Y7708D01*
Y7691D01*
X12277Y7683D01*
X12243D01*
X12235Y7691D01*
Y7708D01*
X12243Y7716D01*
X12277D01*
X12235Y7666D02*
Y7650D01*
Y7658D01*
X12285D01*
X12286D01*
X12285D02*
X12277Y7666D01*
X12268Y7625D02*
X12243D01*
X12235Y7616D01*
Y7591D01*
X12268D01*
X12285Y7575D02*
Y7541D01*
Y7575D02*
X12260D01*
Y7558D01*
Y7575D01*
X12235D01*
X12390Y7368D02*
X12382Y7360D01*
X12390Y7368D02*
Y7385D01*
X12382Y7393D01*
X12348D01*
X12340Y7385D01*
Y7368D01*
X12348Y7360D01*
X12382Y7343D02*
X12390Y7335D01*
Y7318D01*
X12382Y7310D01*
X12373D01*
X12374D01*
X12373D02*
X12374D01*
X12373D02*
X12374D01*
X12373D02*
X12365Y7318D01*
Y7326D01*
Y7318D01*
X12357Y7310D01*
X12348D01*
X12340Y7318D01*
Y7335D01*
X12348Y7343D01*
X12520Y7743D02*
X12528D01*
Y7735D01*
X12520D01*
Y7743D01*
X12562Y7701D02*
X12570Y7693D01*
Y7676D01*
X12562Y7668D01*
X12528D01*
X12520Y7676D01*
Y7693D01*
X12528Y7701D01*
X12562D01*
X12520Y7651D02*
Y7635D01*
Y7643D01*
X12570D01*
X12571D01*
X12570D02*
X12562Y7651D01*
X12553Y7610D02*
X12528D01*
X12520Y7601D01*
Y7576D01*
X12553D01*
X12570Y7560D02*
Y7526D01*
Y7560D02*
X12545D01*
Y7543D01*
Y7560D01*
X12520D01*
X12690Y7368D02*
X12682Y7360D01*
X12690Y7368D02*
Y7385D01*
X12682Y7393D01*
X12648D01*
X12640Y7385D01*
Y7368D01*
X12648Y7360D01*
X12682Y7326D02*
X12690Y7310D01*
X12682Y7326D02*
X12665Y7343D01*
X12648D01*
X12640Y7335D01*
Y7318D01*
X12648Y7310D01*
X12657D01*
X12665Y7318D01*
Y7343D01*
X12897Y7940D02*
X12905Y7948D01*
Y7965D01*
X12897Y7973D01*
X12863D01*
X12855Y7965D01*
Y7948D01*
X12863Y7940D01*
X12897Y7923D02*
X12905Y7915D01*
Y7898D01*
X12897Y7890D01*
X12888D01*
X12889D01*
X12888D02*
X12889D01*
X12888D02*
X12889D01*
X12888D02*
X12880Y7898D01*
Y7906D01*
Y7898D01*
X12872Y7890D01*
X12863D01*
X12855Y7898D01*
Y7915D01*
X12863Y7923D01*
X12897Y7873D02*
X12905Y7865D01*
Y7848D01*
X12897Y7840D01*
X12888D01*
X12880Y7848D01*
X12872Y7840D01*
X12863D01*
X12855Y7848D01*
Y7865D01*
X12863Y7873D01*
X12872D01*
X12880Y7865D01*
X12888Y7873D01*
X12897D01*
X12880Y7865D02*
Y7848D01*
X13050Y7753D02*
Y7736D01*
Y7745D01*
X13100D01*
X13101D01*
X13100D02*
X13092Y7753D01*
Y7711D02*
X13100Y7703D01*
Y7686D01*
X13092Y7678D01*
X13058D01*
X13050Y7686D01*
Y7703D01*
X13058Y7711D01*
X13092D01*
Y7661D02*
X13100Y7653D01*
Y7636D01*
X13092Y7628D01*
X13058D01*
X13050Y7636D01*
Y7653D01*
X13058Y7661D01*
X13092D01*
X13100Y7438D02*
X13050D01*
X13100D02*
Y7413D01*
X13092Y7405D01*
X13075D01*
X13067Y7413D01*
Y7438D01*
Y7421D02*
X13050Y7405D01*
Y7388D02*
Y7371D01*
Y7380D01*
X13100D01*
X13101D01*
X13100D02*
X13092Y7388D01*
Y7346D02*
X13100Y7338D01*
Y7321D01*
X13092Y7313D01*
X13058D01*
X13050Y7321D01*
Y7338D01*
X13058Y7346D01*
X13092D01*
X13150Y7763D02*
X13200D01*
X13175Y7788D01*
Y7755D01*
X13158Y7738D02*
X13150D01*
X13158D02*
Y7730D01*
X13150D01*
Y7738D01*
X13158Y7696D02*
X13150Y7688D01*
Y7671D01*
X13158Y7663D01*
X13192D01*
X13200Y7671D01*
Y7688D01*
X13192Y7696D01*
X13183D01*
X13175Y7688D01*
Y7663D01*
X13158Y7646D02*
X13150Y7638D01*
Y7621D01*
X13158Y7613D01*
X13192D01*
X13200Y7621D01*
Y7638D01*
X13192Y7646D01*
X13183D01*
X13175Y7638D01*
Y7613D01*
X13200Y7596D02*
X13150D01*
X13167D01*
X13200Y7563D01*
X13175Y7588D01*
X13150Y7563D01*
X13145Y7418D02*
X13195D01*
Y7393D01*
X13187Y7385D01*
X13170D01*
X13162Y7393D01*
Y7418D01*
Y7401D02*
X13145Y7385D01*
Y7368D02*
Y7351D01*
Y7360D01*
X13195D01*
X13196D01*
X13195D02*
X13187Y7368D01*
X13145Y7326D02*
Y7310D01*
Y7318D01*
X13195D01*
X13196D01*
X13195D02*
X13187Y7326D01*
X13445Y7766D02*
Y7783D01*
Y7775D02*
Y7766D01*
Y7775D02*
X13495D01*
X13496D01*
X13495D02*
X13487Y7783D01*
Y7741D02*
X13495Y7733D01*
Y7716D01*
X13487Y7708D01*
X13478D01*
X13470Y7716D01*
X13462Y7708D01*
X13453D01*
X13445Y7716D01*
Y7733D01*
X13453Y7741D01*
X13462D01*
X13470Y7733D01*
X13478Y7741D01*
X13487D01*
X13470Y7733D02*
Y7716D01*
X13487Y7691D02*
X13495Y7683D01*
Y7666D01*
X13487Y7658D01*
X13453D01*
X13445Y7666D01*
Y7683D01*
X13453Y7691D01*
X13487D01*
X13478Y7641D02*
X13428D01*
X13478D02*
Y7616D01*
X13470Y7608D01*
X13453D01*
X13445Y7616D01*
Y7641D01*
X13495Y7591D02*
Y7558D01*
Y7591D02*
X13470D01*
Y7575D01*
Y7591D01*
X13445D01*
X13587Y7520D02*
X13595Y7528D01*
Y7545D01*
X13587Y7553D01*
X13553D01*
X13545Y7545D01*
Y7528D01*
X13553Y7520D01*
X13545Y7503D02*
Y7486D01*
Y7495D01*
X13595D01*
X13596D01*
X13595D02*
X13587Y7503D01*
Y7461D02*
X13595Y7453D01*
Y7436D01*
X13587Y7428D01*
X13578D01*
X13579D01*
X13578D02*
X13579D01*
X13578D02*
X13579D01*
X13578D02*
X13570Y7436D01*
Y7445D01*
Y7436D01*
X13562Y7428D01*
X13553D01*
X13545Y7436D01*
Y7453D01*
X13553Y7461D01*
X13597Y7950D02*
X13605Y7958D01*
Y7975D01*
X13597Y7983D01*
X13563D01*
X13555Y7975D01*
Y7958D01*
X13563Y7950D01*
X13597Y7933D02*
X13605Y7925D01*
Y7908D01*
X13597Y7900D01*
X13588D01*
X13589D01*
X13588D02*
X13589D01*
X13588D02*
X13589D01*
X13588D02*
X13580Y7908D01*
Y7916D01*
Y7908D01*
X13572Y7900D01*
X13563D01*
X13555Y7908D01*
Y7925D01*
X13563Y7933D01*
X13605Y7883D02*
Y7850D01*
X13597D01*
X13563Y7883D01*
X13555D01*
X13492Y7940D02*
X13500Y7948D01*
Y7965D01*
X13492Y7973D01*
X13458D01*
X13450Y7965D01*
Y7948D01*
X13458Y7940D01*
X13450Y7898D02*
X13500D01*
X13475Y7923D01*
Y7890D01*
X13458Y7873D02*
X13450Y7865D01*
Y7848D01*
X13458Y7840D01*
X13492D01*
X13500Y7848D01*
Y7865D01*
X13492Y7873D01*
X13483D01*
X13475Y7865D01*
Y7840D01*
X13103Y8208D02*
X13070D01*
X13087D02*
X13103D01*
X13087D02*
Y8158D01*
X13120D02*
Y8208D01*
Y8158D02*
X13153D01*
X13170Y8200D02*
X13178Y8208D01*
X13195D01*
X13203Y8200D01*
Y8166D01*
X13195Y8158D01*
X13178D01*
X13170Y8166D01*
Y8200D01*
X13220Y8208D02*
X13253D01*
X13220D02*
Y8183D01*
X13237Y8191D01*
X13245D01*
X13253Y8183D01*
Y8166D01*
X13245Y8158D01*
X13228D01*
X13220Y8166D01*
X13270Y8158D02*
X13303D01*
X13270D02*
X13303Y8191D01*
Y8200D01*
X13295Y8208D01*
X13278D01*
X13270Y8200D01*
X13025Y7978D02*
Y7936D01*
X13033Y7928D01*
X13050D01*
X13058Y7936D01*
Y7978D01*
X13075Y7928D02*
X13092D01*
X13083D01*
Y7978D01*
X13084D01*
X13083D02*
X13075Y7970D01*
X13142Y7978D02*
Y7928D01*
X13117Y7953D02*
X13142Y7978D01*
X13150Y7953D02*
X13117D01*
X12845Y7758D02*
Y7741D01*
Y7750D01*
X12895D01*
X12896D01*
X12895D02*
X12887Y7758D01*
Y7716D02*
X12895Y7708D01*
Y7691D01*
X12887Y7683D01*
X12878D01*
X12870Y7691D01*
X12862Y7683D01*
X12853D01*
X12845Y7691D01*
Y7708D01*
X12853Y7716D01*
X12862D01*
X12870Y7708D01*
X12878Y7716D01*
X12887D01*
X12870Y7708D02*
Y7691D01*
X12887Y7666D02*
X12895Y7658D01*
Y7641D01*
X12887Y7633D01*
X12853D01*
X12845Y7641D01*
Y7658D01*
X12853Y7666D01*
X12887D01*
X12878Y7616D02*
X12828D01*
X12878D02*
Y7591D01*
X12870Y7583D01*
X12853D01*
X12845Y7591D01*
Y7616D01*
X12895Y7566D02*
Y7533D01*
Y7566D02*
X12870D01*
Y7550D01*
Y7566D01*
X12845D01*
X12987Y7540D02*
X12995Y7548D01*
Y7565D01*
X12987Y7573D01*
X12953D01*
X12945Y7565D01*
Y7548D01*
X12953Y7540D01*
X12995Y7523D02*
Y7490D01*
X12987D01*
X12953Y7523D01*
X12945D01*
X12987Y7940D02*
X12995Y7948D01*
Y7965D01*
X12987Y7973D01*
X12953D01*
X12945Y7965D01*
Y7948D01*
X12953Y7940D01*
X12987Y7923D02*
X12995Y7915D01*
Y7898D01*
X12987Y7890D01*
X12978D01*
X12979D01*
X12978D02*
X12979D01*
X12978D02*
X12979D01*
X12978D02*
X12970Y7898D01*
Y7906D01*
Y7898D01*
X12962Y7890D01*
X12953D01*
X12945Y7898D01*
Y7915D01*
X12953Y7923D01*
X12995Y7873D02*
Y7840D01*
Y7873D02*
X12970D01*
X12978Y7856D01*
Y7848D01*
X12970Y7840D01*
X12953D01*
X12945Y7848D01*
Y7865D01*
X12953Y7873D01*
X13312Y7343D02*
X13328D01*
X13320D02*
X13312D01*
X13320D02*
Y7301D01*
X13312Y7293D01*
X13303D01*
X13295Y7301D01*
X13345Y7343D02*
X13378D01*
Y7335D01*
X13345Y7301D01*
Y7293D01*
X12018Y7353D02*
X12002D01*
X12010D01*
Y7311D01*
X12002Y7303D01*
X11993D01*
X11985Y7311D01*
X12035Y7345D02*
X12043Y7353D01*
X12060D01*
X12068Y7345D01*
Y7336D01*
X12060Y7328D01*
X12068Y7320D01*
Y7311D01*
X12060Y7303D01*
X12043D01*
X12035Y7311D01*
Y7320D01*
X12043Y7328D01*
X12035Y7336D01*
Y7345D01*
X12043Y7328D02*
X12060D01*
X11055Y8860D02*
Y8893D01*
X11088Y8860D01*
X11097D01*
X11105Y8868D01*
Y8885D01*
X11097Y8893D01*
Y8843D02*
X11105Y8835D01*
Y8818D01*
X11097Y8810D01*
X11063D01*
X11055Y8818D01*
Y8835D01*
X11063Y8843D01*
X11097D01*
X11105Y8793D02*
X11055D01*
X11072D01*
X11105Y8760D01*
X11080Y8785D01*
X11055Y8760D01*
X11010Y8538D02*
X10960D01*
X11010D02*
Y8513D01*
X11002Y8505D01*
X10985D01*
X10977Y8513D01*
Y8538D01*
Y8521D02*
X10960Y8505D01*
Y8488D02*
Y8455D01*
Y8488D02*
X10993Y8455D01*
X11002D01*
X11010Y8463D01*
Y8480D01*
X11002Y8488D01*
Y8421D02*
X11010Y8405D01*
X11002Y8421D02*
X10985Y8438D01*
X10968D01*
X10960Y8430D01*
Y8413D01*
X10968Y8405D01*
X10977D01*
X10985Y8413D01*
Y8438D01*
X11245Y8761D02*
Y8778D01*
Y8770D02*
Y8761D01*
Y8770D02*
X11295D01*
X11296D01*
X11295D02*
X11287Y8778D01*
Y8736D02*
X11295Y8728D01*
Y8711D01*
X11287Y8703D01*
X11253D01*
X11245Y8711D01*
Y8728D01*
X11253Y8736D01*
X11287D01*
X11295Y8686D02*
X11245D01*
X11262D01*
X11295Y8653D01*
X11270Y8678D01*
X11245Y8653D01*
X11250Y9063D02*
X11300D01*
Y9038D01*
X11292Y9030D01*
X11275D01*
X11267Y9038D01*
Y9063D01*
Y9046D02*
X11250Y9030D01*
Y9013D02*
Y8980D01*
Y9013D02*
X11283Y8980D01*
X11292D01*
X11300Y8988D01*
Y9005D01*
X11292Y9013D01*
X11300Y8938D02*
X11250D01*
X11275Y8963D02*
X11300Y8938D01*
X11275Y8930D02*
Y8963D01*
X11350Y8778D02*
Y8761D01*
Y8770D01*
X11400D01*
X11401D01*
X11400D02*
X11392Y8778D01*
Y8736D02*
X11400Y8728D01*
Y8711D01*
X11392Y8703D01*
X11358D01*
X11350Y8711D01*
Y8728D01*
X11358Y8736D01*
X11392D01*
Y8686D02*
X11400Y8678D01*
Y8661D01*
X11392Y8653D01*
X11358D01*
X11350Y8661D01*
Y8678D01*
X11358Y8686D01*
X11392D01*
X11400Y8636D02*
X11350D01*
X11367D01*
X11400Y8603D01*
X11375Y8628D01*
X11350Y8603D01*
X11330Y9058D02*
X11380D01*
Y9033D01*
X11372Y9025D01*
X11355D01*
X11347Y9033D01*
Y9058D01*
Y9041D02*
X11330Y9025D01*
Y9008D02*
Y8975D01*
Y9008D02*
X11363Y8975D01*
X11372D01*
X11380Y8983D01*
Y9000D01*
X11372Y9008D01*
X11380Y8958D02*
Y8925D01*
X11372D01*
X11338Y8958D01*
X11330D01*
X11450Y8778D02*
Y8761D01*
Y8770D01*
X11500D01*
X11501D01*
X11500D02*
X11492Y8778D01*
Y8736D02*
X11500Y8728D01*
Y8711D01*
X11492Y8703D01*
X11458D01*
X11450Y8711D01*
Y8728D01*
X11458Y8736D01*
X11492D01*
Y8686D02*
X11500Y8678D01*
Y8661D01*
X11492Y8653D01*
X11458D01*
X11450Y8661D01*
Y8678D01*
X11458Y8686D01*
X11492D01*
X11500Y8636D02*
X11450D01*
X11467D01*
X11500Y8603D01*
X11475Y8628D01*
X11450Y8603D01*
Y9053D02*
X11500D01*
Y9028D01*
X11492Y9020D01*
X11475D01*
X11467Y9028D01*
Y9053D01*
Y9036D02*
X11450Y9020D01*
Y9003D02*
Y8970D01*
Y9003D02*
X11483Y8970D01*
X11492D01*
X11500Y8978D01*
Y8995D01*
X11492Y9003D01*
X11500Y8953D02*
Y8920D01*
Y8953D02*
X11475D01*
X11483Y8936D01*
Y8928D01*
X11475Y8920D01*
X11458D01*
X11450Y8928D01*
Y8945D01*
X11458Y8953D01*
X11550Y9011D02*
Y9053D01*
Y9011D02*
X11558Y9003D01*
X11575D01*
X11583Y9011D01*
Y9053D01*
X11600Y9003D02*
X11617D01*
X11608D01*
Y9053D01*
X11609D01*
X11608D02*
X11600Y9045D01*
X11642D02*
X11650Y9053D01*
X11667D01*
X11675Y9045D01*
Y9036D01*
X11667Y9028D01*
X11675Y9020D01*
Y9011D01*
X11667Y9003D01*
X11650D01*
X11642Y9011D01*
Y9020D01*
X11650Y9028D01*
X11642Y9036D01*
Y9045D01*
X11650Y9028D02*
X11667D01*
X11610Y8533D02*
X11602Y8525D01*
X11610Y8533D02*
Y8550D01*
X11602Y8558D01*
X11568D01*
X11560Y8550D01*
Y8533D01*
X11568Y8525D01*
X11560Y8508D02*
Y8491D01*
Y8500D01*
X11610D01*
X11611D01*
X11610D02*
X11602Y8508D01*
X11560Y8466D02*
Y8450D01*
Y8458D01*
X11610D01*
X11611D01*
X11610D02*
X11602Y8466D01*
X11700Y8741D02*
Y8758D01*
Y8750D02*
Y8741D01*
Y8750D02*
X11750D01*
X11751D01*
X11750D02*
X11742Y8758D01*
Y8716D02*
X11750Y8708D01*
Y8691D01*
X11742Y8683D01*
X11708D01*
X11700Y8691D01*
Y8708D01*
X11708Y8716D01*
X11742D01*
Y8666D02*
X11750Y8658D01*
Y8641D01*
X11742Y8633D01*
X11708D01*
X11700Y8641D01*
Y8658D01*
X11708Y8666D01*
X11742D01*
X11750Y9053D02*
X11800D01*
Y9028D01*
X11792Y9020D01*
X11775D01*
X11767Y9028D01*
Y9053D01*
Y9036D02*
X11750Y9020D01*
Y9003D02*
Y8986D01*
Y8995D01*
X11800D01*
X11801D01*
X11800D02*
X11792Y9003D01*
X11800Y8936D02*
X11750D01*
X11775Y8961D02*
X11800Y8936D01*
X11775Y8928D02*
Y8961D01*
X11800Y8758D02*
X11850D01*
X11825Y8783D01*
Y8750D01*
X11808Y8733D02*
X11800D01*
X11808D02*
Y8725D01*
X11800D01*
Y8733D01*
X11808Y8691D02*
X11800Y8683D01*
Y8666D01*
X11808Y8658D01*
X11842D01*
X11850Y8666D01*
Y8683D01*
X11842Y8691D01*
X11833D01*
X11825Y8683D01*
Y8658D01*
X11808Y8641D02*
X11800Y8633D01*
Y8616D01*
X11808Y8608D01*
X11842D01*
X11850Y8616D01*
Y8633D01*
X11842Y8641D01*
X11833D01*
X11825Y8633D01*
Y8608D01*
X11850Y8591D02*
X11800D01*
X11817D01*
X11850Y8558D01*
X11825Y8583D01*
X11800Y8558D01*
X11845Y9053D02*
X11895D01*
Y9028D01*
X11887Y9020D01*
X11870D01*
X11862Y9028D01*
Y9053D01*
Y9036D02*
X11845Y9020D01*
Y9003D02*
Y8986D01*
Y8995D01*
X11895D01*
X11896D01*
X11895D02*
X11887Y9003D01*
X11895Y8961D02*
Y8928D01*
Y8961D02*
X11870D01*
X11878Y8945D01*
Y8936D01*
X11870Y8928D01*
X11853D01*
X11845Y8936D01*
Y8953D01*
X11853Y8961D01*
X10730Y7048D02*
X10680D01*
X10705Y7073D02*
X10730Y7048D01*
X10705Y7040D02*
Y7073D01*
X10730Y7023D02*
Y6990D01*
X10722D01*
X10688Y7023D01*
X10680D01*
X10722Y6973D02*
X10730Y6965D01*
Y6948D01*
X10722Y6940D01*
X10688D01*
X10680Y6948D01*
Y6965D01*
X10688Y6973D01*
X10722D01*
X10705Y7358D02*
X10655D01*
X10705D02*
Y7333D01*
X10697Y7325D01*
X10680D01*
X10672Y7333D01*
Y7358D01*
Y7341D02*
X10655Y7325D01*
X10697Y7308D02*
X10705Y7300D01*
Y7283D01*
X10697Y7275D01*
X10688D01*
X10689D01*
X10688D02*
X10689D01*
X10688D02*
X10689D01*
X10688D02*
X10680Y7283D01*
Y7291D01*
Y7283D01*
X10672Y7275D01*
X10663D01*
X10655Y7283D01*
Y7300D01*
X10663Y7308D01*
X10655Y7258D02*
Y7225D01*
Y7258D02*
X10688Y7225D01*
X10697D01*
X10705Y7233D01*
Y7250D01*
X10697Y7258D01*
X11680Y7028D02*
X11730D01*
X11705Y7053D01*
Y7020D01*
X11730Y7003D02*
Y6970D01*
X11722D01*
X11688Y7003D01*
X11680D01*
X11722Y6953D02*
X11730Y6945D01*
Y6928D01*
X11722Y6920D01*
X11688D01*
X11680Y6928D01*
Y6945D01*
X11688Y6953D01*
X11722D01*
X11650Y7193D02*
X11600D01*
X11650D02*
Y7168D01*
X11642Y7160D01*
X11625D01*
X11617Y7168D01*
Y7193D01*
Y7176D02*
X11600Y7160D01*
X11642Y7143D02*
X11650Y7135D01*
Y7118D01*
X11642Y7110D01*
X11633D01*
X11634D01*
X11633D02*
X11634D01*
X11633D02*
X11634D01*
X11633D02*
X11625Y7118D01*
Y7126D01*
Y7118D01*
X11617Y7110D01*
X11608D01*
X11600Y7118D01*
Y7135D01*
X11608Y7143D01*
X11600Y7093D02*
Y7076D01*
Y7085D01*
X11650D01*
X11651D01*
X11650D02*
X11642Y7093D01*
X10797Y7935D02*
X10805Y7943D01*
Y7960D01*
X10797Y7968D01*
X10763D01*
X10755Y7960D01*
Y7943D01*
X10763Y7935D01*
X10755Y7893D02*
X10805D01*
X10780Y7918D01*
Y7885D01*
X10805Y7868D02*
Y7835D01*
X10797D01*
X10763Y7868D01*
X10755D01*
X10930Y8198D02*
X10963D01*
X10947D01*
Y8148D01*
X10980D02*
Y8198D01*
Y8148D02*
X11013D01*
X11030Y8190D02*
X11038Y8198D01*
X11055D01*
X11063Y8190D01*
Y8156D01*
X11055Y8148D01*
X11038D01*
X11030Y8156D01*
Y8190D01*
X11080Y8198D02*
X11113D01*
X11080D02*
Y8173D01*
X11097Y8181D01*
X11105D01*
X11113Y8173D01*
Y8156D01*
X11105Y8148D01*
X11088D01*
X11080Y8156D01*
X11130Y8148D02*
X11163D01*
X11130D02*
X11163Y8181D01*
Y8190D01*
X11155Y8198D01*
X11138D01*
X11130Y8190D01*
X10880Y7993D02*
Y7951D01*
X10888Y7943D01*
X10905D01*
X10913Y7951D01*
Y7993D01*
X10930Y7943D02*
X10947D01*
X10938D01*
Y7993D01*
X10939D01*
X10938D02*
X10930Y7985D01*
X10972Y7943D02*
X11005D01*
X10972D02*
X11005Y7976D01*
Y7985D01*
X10997Y7993D01*
X10980D01*
X10972Y7985D01*
X11075Y7883D02*
Y7833D01*
X11050Y7858D02*
X11075Y7883D01*
X11083Y7858D02*
X11050D01*
X11100Y7883D02*
X11133D01*
Y7875D01*
X11100Y7841D01*
Y7833D01*
X11150Y7816D02*
Y7866D01*
X11175D01*
X11183Y7858D01*
Y7841D01*
X11175Y7833D01*
X11150D01*
X11200Y7883D02*
X11233D01*
X11200D02*
Y7858D01*
X11217D01*
X11200D01*
Y7833D01*
X11078Y7945D02*
X11070Y7953D01*
X11053D01*
X11045Y7945D01*
Y7911D01*
X11053Y7903D01*
X11070D01*
X11078Y7911D01*
X11095Y7953D02*
X11128D01*
X11095D02*
Y7928D01*
X11112Y7936D01*
X11120D01*
X11128Y7928D01*
Y7911D01*
X11120Y7903D01*
X11103D01*
X11095Y7911D01*
X11297Y7950D02*
X11305Y7958D01*
Y7975D01*
X11297Y7983D01*
X11263D01*
X11255Y7975D01*
Y7958D01*
X11263Y7950D01*
X11255Y7908D02*
X11305D01*
X11280Y7933D01*
Y7900D01*
X11297Y7883D02*
X11305Y7875D01*
Y7858D01*
X11297Y7850D01*
X11288D01*
X11280Y7858D01*
X11272Y7850D01*
X11263D01*
X11255Y7858D01*
Y7875D01*
X11263Y7883D01*
X11272D01*
X11280Y7875D01*
X11288Y7883D01*
X11297D01*
X11280Y7875D02*
Y7858D01*
X11392Y7955D02*
X11400Y7963D01*
Y7980D01*
X11392Y7988D01*
X11358D01*
X11350Y7980D01*
Y7963D01*
X11358Y7955D01*
X11392Y7938D02*
X11400Y7930D01*
Y7913D01*
X11392Y7905D01*
X11383D01*
X11384D01*
X11383D02*
X11384D01*
X11383D02*
X11384D01*
X11383D02*
X11375Y7913D01*
Y7921D01*
Y7913D01*
X11367Y7905D01*
X11358D01*
X11350Y7913D01*
Y7930D01*
X11358Y7938D01*
X11350Y7888D02*
Y7855D01*
Y7888D02*
X11383Y7855D01*
X11392D01*
X11400Y7863D01*
Y7880D01*
X11392Y7888D01*
X11505Y8203D02*
X11538D01*
X11522D01*
Y8153D01*
X11555D02*
Y8203D01*
Y8153D02*
X11588D01*
X11605Y8195D02*
X11613Y8203D01*
X11630D01*
X11638Y8195D01*
Y8161D01*
X11630Y8153D01*
X11613D01*
X11605Y8161D01*
Y8195D01*
X11655Y8203D02*
X11688D01*
X11655D02*
Y8178D01*
X11672Y8186D01*
X11680D01*
X11688Y8178D01*
Y8161D01*
X11680Y8153D01*
X11663D01*
X11655Y8161D01*
X11705Y8153D02*
X11738D01*
X11705D02*
X11738Y8186D01*
Y8195D01*
X11730Y8203D01*
X11713D01*
X11705Y8195D01*
X11425Y7978D02*
Y7936D01*
X11433Y7928D01*
X11450D01*
X11458Y7936D01*
Y7978D01*
X11475Y7928D02*
X11492D01*
X11483D01*
Y7978D01*
X11484D01*
X11483D02*
X11475Y7970D01*
X11517D02*
X11525Y7978D01*
X11542D01*
X11550Y7970D01*
Y7936D01*
X11542Y7928D01*
X11525D01*
X11517Y7936D01*
Y7970D01*
X11360Y7678D02*
Y7661D01*
Y7670D01*
X11410D01*
X11411D01*
X11410D02*
X11402Y7678D01*
Y7636D02*
X11410Y7628D01*
Y7611D01*
X11402Y7603D01*
X11393D01*
X11385Y7611D01*
X11377Y7603D01*
X11368D01*
X11360Y7611D01*
Y7628D01*
X11368Y7636D01*
X11377D01*
X11385Y7628D01*
X11393Y7636D01*
X11402D01*
X11385Y7628D02*
Y7611D01*
X11402Y7586D02*
X11410Y7578D01*
Y7561D01*
X11402Y7553D01*
X11368D01*
X11360Y7561D01*
Y7578D01*
X11368Y7586D01*
X11402D01*
X11393Y7536D02*
X11343D01*
X11393D02*
Y7511D01*
X11385Y7503D01*
X11368D01*
X11360Y7511D01*
Y7536D01*
X11410Y7486D02*
Y7453D01*
Y7486D02*
X11385D01*
Y7470D01*
Y7486D01*
X11360D01*
X11482Y7565D02*
X11490Y7573D01*
Y7590D01*
X11482Y7598D01*
X11448D01*
X11440Y7590D01*
Y7573D01*
X11448Y7565D01*
X11440Y7523D02*
X11490D01*
X11465Y7548D01*
Y7515D01*
X11545Y7756D02*
Y7773D01*
Y7765D02*
Y7756D01*
Y7765D02*
X11595D01*
X11596D01*
X11595D02*
X11587Y7773D01*
Y7731D02*
X11595Y7723D01*
Y7706D01*
X11587Y7698D01*
X11553D01*
X11545Y7706D01*
Y7723D01*
X11553Y7731D01*
X11587D01*
Y7681D02*
X11595Y7673D01*
Y7656D01*
X11587Y7648D01*
X11553D01*
X11545Y7656D01*
Y7673D01*
X11553Y7681D01*
X11587D01*
X11595Y7433D02*
X11545D01*
X11595D02*
Y7408D01*
X11587Y7400D01*
X11570D01*
X11562Y7408D01*
Y7433D01*
Y7416D02*
X11545Y7400D01*
X11595Y7383D02*
Y7350D01*
X11587D01*
X11553Y7383D01*
X11545D01*
X11650Y7763D02*
X11700D01*
X11675Y7788D01*
Y7755D01*
X11658Y7738D02*
X11650D01*
X11658D02*
Y7730D01*
X11650D01*
Y7738D01*
X11658Y7696D02*
X11650Y7688D01*
Y7671D01*
X11658Y7663D01*
X11692D01*
X11700Y7671D01*
Y7688D01*
X11692Y7696D01*
X11683D01*
X11675Y7688D01*
Y7663D01*
X11658Y7646D02*
X11650Y7638D01*
Y7621D01*
X11658Y7613D01*
X11692D01*
X11700Y7621D01*
Y7638D01*
X11692Y7646D01*
X11683D01*
X11675Y7638D01*
Y7613D01*
X11700Y7596D02*
X11650D01*
X11667D01*
X11700Y7563D01*
X11675Y7588D01*
X11650Y7563D01*
X11655Y7428D02*
X11705D01*
Y7403D01*
X11697Y7395D01*
X11680D01*
X11672Y7403D01*
Y7428D01*
Y7411D02*
X11655Y7395D01*
X11697Y7378D02*
X11705Y7370D01*
Y7353D01*
X11697Y7345D01*
X11688D01*
X11680Y7353D01*
X11672Y7345D01*
X11663D01*
X11655Y7353D01*
Y7370D01*
X11663Y7378D01*
X11672D01*
X11680Y7370D01*
X11688Y7378D01*
X11697D01*
X11680Y7370D02*
Y7353D01*
X11897Y7940D02*
X11905Y7948D01*
Y7965D01*
X11897Y7973D01*
X11863D01*
X11855Y7965D01*
Y7948D01*
X11863Y7940D01*
X11897Y7923D02*
X11905Y7915D01*
Y7898D01*
X11897Y7890D01*
X11888D01*
X11889D01*
X11888D02*
X11889D01*
X11888D02*
X11889D01*
X11888D02*
X11880Y7898D01*
Y7906D01*
Y7898D01*
X11872Y7890D01*
X11863D01*
X11855Y7898D01*
Y7915D01*
X11863Y7923D01*
Y7873D02*
X11855Y7865D01*
Y7848D01*
X11863Y7840D01*
X11897D01*
X11905Y7848D01*
Y7865D01*
X11897Y7873D01*
X11888D01*
X11880Y7865D01*
Y7840D01*
X11992Y7945D02*
X12000Y7953D01*
Y7970D01*
X11992Y7978D01*
X11958D01*
X11950Y7970D01*
Y7953D01*
X11958Y7945D01*
X11992Y7928D02*
X12000Y7920D01*
Y7903D01*
X11992Y7895D01*
X11983D01*
X11984D01*
X11983D02*
X11984D01*
X11983D02*
X11984D01*
X11983D02*
X11975Y7903D01*
Y7911D01*
Y7903D01*
X11967Y7895D01*
X11958D01*
X11950Y7903D01*
Y7920D01*
X11958Y7928D01*
X11992Y7878D02*
X12000Y7870D01*
Y7853D01*
X11992Y7845D01*
X11983D01*
X11984D01*
X11983D02*
X11984D01*
X11983D02*
X11984D01*
X11983D02*
X11975Y7853D01*
Y7861D01*
Y7853D01*
X11967Y7845D01*
X11958D01*
X11950Y7853D01*
Y7870D01*
X11958Y7878D01*
X11343Y7343D02*
X11327D01*
X11335D01*
Y7301D01*
X11327Y7293D01*
X11318D01*
X11310Y7301D01*
X11360D02*
X11368Y7293D01*
X11385D01*
X11393Y7301D01*
Y7335D01*
X11385Y7343D01*
X11368D01*
X11360Y7335D01*
Y7326D01*
X11368Y7318D01*
X11393D01*
X10545Y6707D02*
Y6657D01*
X10570D01*
X10578Y6666D01*
Y6699D01*
X10570Y6707D01*
X10545D01*
X10595Y6699D02*
X10603Y6707D01*
X10620D01*
X10628Y6699D01*
Y6691D01*
X10620Y6682D01*
X10628Y6674D01*
Y6666D01*
X10620Y6657D01*
X10603D01*
X10595Y6666D01*
Y6674D01*
X10603Y6682D01*
X10595Y6691D01*
Y6699D01*
X10603Y6682D02*
X10620D01*
X10670Y6657D02*
Y6707D01*
X10645Y6682D01*
X10678D01*
X11545Y6707D02*
Y6657D01*
X11570D01*
X11578Y6666D01*
Y6699D01*
X11570Y6707D01*
X11545D01*
X11595Y6699D02*
X11603Y6707D01*
X11620D01*
X11628Y6699D01*
Y6691D01*
X11620Y6682D01*
X11628Y6674D01*
Y6666D01*
X11620Y6657D01*
X11603D01*
X11595Y6666D01*
Y6674D01*
X11603Y6682D01*
X11595Y6691D01*
Y6699D01*
X11603Y6682D02*
X11620D01*
X11645Y6699D02*
X11653Y6707D01*
X11670D01*
X11678Y6699D01*
Y6691D01*
X11679D01*
X11678D02*
X11679D01*
X11678D02*
X11679D01*
X11678D02*
X11670Y6682D01*
X11662D01*
X11670D01*
X11678Y6674D01*
Y6666D01*
X11670Y6657D01*
X11653D01*
X11645Y6666D01*
X10578Y8548D02*
X10545D01*
X10578D02*
Y8540D01*
X10545Y8506D01*
Y8498D01*
X10595Y8540D02*
X10603Y8548D01*
X10620D01*
X10628Y8540D01*
Y8531D01*
X10620Y8523D01*
X10628Y8515D01*
Y8506D01*
X10620Y8498D01*
X10603D01*
X10595Y8506D01*
Y8515D01*
X10603Y8523D01*
X10595Y8531D01*
Y8540D01*
X10603Y8523D02*
X10620D01*
X10645Y8540D02*
X10653Y8548D01*
X10670D01*
X10678Y8540D01*
Y8506D01*
X10670Y8498D01*
X10653D01*
X10645Y8506D01*
Y8540D01*
X10695Y8548D02*
X10728D01*
X10695D02*
Y8523D01*
X10712Y8531D01*
X10720D01*
X10728Y8523D01*
Y8506D01*
X10720Y8498D01*
X10703D01*
X10695Y8506D01*
X10795Y8511D02*
Y8553D01*
Y8511D02*
X10803Y8503D01*
X10820D01*
X10828Y8511D01*
Y8553D01*
X10845Y8503D02*
X10862D01*
X10853D01*
Y8553D01*
X10854D01*
X10853D02*
X10845Y8545D01*
X10887Y8511D02*
X10895Y8503D01*
X10912D01*
X10920Y8511D01*
Y8545D01*
X10912Y8553D01*
X10895D01*
X10887Y8545D01*
Y8536D01*
X10895Y8528D01*
X10920D01*
X9873Y9000D02*
X9865Y9008D01*
X9848D01*
X9840Y9000D01*
Y8966D01*
X9848Y8958D01*
X9865D01*
X9873Y8966D01*
X9915Y8958D02*
Y9008D01*
X9890Y8983D01*
X9923D01*
X9965Y8958D02*
Y9008D01*
X9940Y8983D01*
X9973D01*
X9857Y8588D02*
X9840D01*
X9848D02*
X9857D01*
X9848D02*
Y8638D01*
X9849D01*
X9848D02*
X9840Y8630D01*
X9882D02*
X9890Y8638D01*
X9907D01*
X9915Y8630D01*
Y8596D01*
X9907Y8588D01*
X9890D01*
X9882Y8596D01*
Y8630D01*
X9932Y8621D02*
Y8596D01*
X9940Y8588D01*
X9965D01*
Y8621D01*
X9982Y8638D02*
X10015D01*
X9982D02*
Y8613D01*
X9998D01*
X9982D01*
Y8588D01*
X9743Y8765D02*
X9735Y8773D01*
X9718D01*
X9710Y8765D01*
Y8731D01*
X9718Y8723D01*
X9735D01*
X9743Y8731D01*
X9785Y8723D02*
Y8773D01*
X9760Y8748D01*
X9793D01*
X9810Y8773D02*
X9843D01*
X9810D02*
Y8748D01*
X9827Y8756D01*
X9835D01*
X9843Y8748D01*
Y8731D01*
X9835Y8723D01*
X9818D01*
X9810Y8731D01*
X8735Y8638D02*
X8715D01*
X8725D01*
Y8588D01*
X8715Y8578D01*
X8705D01*
X8695Y8588D01*
X8755Y8578D02*
Y8638D01*
X8785D01*
X8795Y8628D01*
Y8608D01*
X8785Y8598D01*
X8755D01*
X8845Y8578D02*
Y8638D01*
X8815Y8608D01*
X8855D01*
X9675Y7048D02*
X9725D01*
X9700Y7073D01*
Y7040D01*
X9725Y7023D02*
Y6990D01*
X9717D01*
X9683Y7023D01*
X9675D01*
X9717Y6973D02*
X9725Y6965D01*
Y6948D01*
X9717Y6940D01*
X9683D01*
X9675Y6948D01*
Y6965D01*
X9683Y6973D01*
X9717D01*
X9720Y7373D02*
X9670D01*
X9720D02*
Y7348D01*
X9712Y7340D01*
X9695D01*
X9687Y7348D01*
Y7373D01*
Y7356D02*
X9670Y7340D01*
X9712Y7323D02*
X9720Y7315D01*
Y7298D01*
X9712Y7290D01*
X9703D01*
X9704D01*
X9703D02*
X9704D01*
X9703D02*
X9704D01*
X9703D02*
X9695Y7298D01*
Y7306D01*
Y7298D01*
X9687Y7290D01*
X9678D01*
X9670Y7298D01*
Y7315D01*
X9678Y7323D01*
X9712Y7273D02*
X9720Y7265D01*
Y7248D01*
X9712Y7240D01*
X9678D01*
X9670Y7248D01*
Y7265D01*
X9678Y7273D01*
X9712D01*
X9697Y7950D02*
X9705Y7958D01*
Y7975D01*
X9697Y7983D01*
X9663D01*
X9655Y7975D01*
Y7958D01*
X9663Y7950D01*
X9655Y7908D02*
X9705D01*
X9680Y7933D01*
Y7900D01*
X9697Y7866D02*
X9705Y7850D01*
X9697Y7866D02*
X9680Y7883D01*
X9663D01*
X9655Y7875D01*
Y7858D01*
X9663Y7850D01*
X9672D01*
X9680Y7858D01*
Y7883D01*
X9975Y8128D02*
Y8178D01*
X9992Y8161D01*
X10008Y8178D01*
Y8128D01*
X10058D02*
X10025Y8178D01*
X10058D02*
X10025Y8128D01*
X10075Y8178D02*
X10108D01*
Y8170D01*
X10075Y8136D01*
Y8128D01*
X10125Y8178D02*
X10158D01*
X10125D02*
Y8153D01*
X10142Y8161D01*
X10150D01*
X10158Y8153D01*
Y8136D01*
X10150Y8128D01*
X10133D01*
X10125Y8136D01*
X10200Y8128D02*
Y8178D01*
X10175Y8153D01*
X10208D01*
X10225Y8170D02*
X10233Y8178D01*
X10250D01*
X10258Y8170D01*
Y8161D01*
X10250Y8153D01*
X10258Y8145D01*
Y8136D01*
X10250Y8128D01*
X10233D01*
X10225Y8136D01*
Y8145D01*
X10233Y8153D01*
X10225Y8161D01*
Y8170D01*
X10233Y8153D02*
X10250D01*
X9740Y7978D02*
Y7936D01*
X9748Y7928D01*
X9765D01*
X9773Y7936D01*
Y7978D01*
X9790Y7928D02*
X9807D01*
X9798D01*
Y7978D01*
X9799D01*
X9798D02*
X9790Y7970D01*
X9832Y7928D02*
X9848D01*
X9840D01*
Y7978D01*
X9841D01*
X9840D02*
X9832Y7970D01*
X10312Y7363D02*
X10328D01*
X10320D02*
X10312D01*
X10320D02*
Y7321D01*
X10312Y7313D01*
X10303D01*
X10295Y7321D01*
X10345Y7313D02*
X10362D01*
X10353D01*
Y7363D01*
X10354D01*
X10353D02*
X10345Y7355D01*
X10387D02*
X10395Y7363D01*
X10412D01*
X10420Y7355D01*
Y7321D01*
X10412Y7313D01*
X10395D01*
X10387Y7321D01*
Y7355D01*
X9193Y7353D02*
X9177D01*
X9185D01*
Y7311D01*
X9177Y7303D01*
X9168D01*
X9160Y7311D01*
X9210Y7303D02*
X9227D01*
X9218D01*
Y7353D01*
X9219D01*
X9218D02*
X9210Y7345D01*
X9252Y7303D02*
X9268D01*
X9260D01*
Y7353D01*
X9261D01*
X9260D02*
X9252Y7345D01*
X9545Y6707D02*
Y6657D01*
X9570D01*
X9578Y6666D01*
Y6699D01*
X9570Y6707D01*
X9545D01*
X9595Y6699D02*
X9603Y6707D01*
X9620D01*
X9628Y6699D01*
Y6691D01*
X9620Y6682D01*
X9628Y6674D01*
Y6666D01*
X9620Y6657D01*
X9603D01*
X9595Y6666D01*
Y6674D01*
X9603Y6682D01*
X9595Y6691D01*
Y6699D01*
X9603Y6682D02*
X9620D01*
X9645Y6657D02*
X9678D01*
X9645D02*
X9678Y6691D01*
Y6699D01*
X9670Y6707D01*
X9653D01*
X9645Y6699D01*
X7838Y8613D02*
X7822D01*
X7830D01*
Y8571D01*
X7822Y8563D01*
X7813D01*
X7805Y8571D01*
X7855Y8563D02*
Y8613D01*
X7880D01*
X7888Y8605D01*
Y8588D01*
X7880Y8580D01*
X7855D01*
X7905Y8563D02*
X7938D01*
X7905D02*
X7938Y8596D01*
Y8605D01*
X7930Y8613D01*
X7913D01*
X7905Y8605D01*
X7675Y7403D02*
X7667Y7395D01*
X7675Y7403D02*
Y7420D01*
X7667Y7428D01*
X7633D01*
X7625Y7420D01*
Y7403D01*
X7633Y7395D01*
X7625Y7378D02*
Y7345D01*
Y7378D02*
X7658Y7345D01*
X7667D01*
X7675Y7353D01*
Y7370D01*
X7667Y7378D01*
X7675Y7328D02*
Y7295D01*
X7667D01*
X7633Y7328D01*
X7625D01*
X7473Y7818D02*
X7440D01*
X7473Y7851D01*
Y7860D01*
X7465Y7868D01*
X7448D01*
X7440Y7860D01*
X7490Y7868D02*
X7523D01*
Y7860D01*
X7490Y7826D01*
Y7818D01*
X7540Y7801D02*
Y7851D01*
X7565D01*
X7573Y7843D01*
Y7826D01*
X7565Y7818D01*
X7540D01*
X7590Y7868D02*
X7623D01*
X7590D02*
Y7843D01*
X7607D01*
X7590D01*
Y7818D01*
X7533Y7790D02*
X7525Y7798D01*
X7508D01*
X7500Y7790D01*
Y7756D01*
X7508Y7748D01*
X7525D01*
X7533Y7756D01*
X7550Y7748D02*
X7567D01*
X7558D01*
Y7798D01*
X7559D01*
X7558D02*
X7550Y7790D01*
X7490Y7173D02*
Y7165D01*
X7507Y7148D01*
X7523Y7165D01*
Y7173D01*
X7507Y7148D02*
Y7123D01*
X7540D02*
X7557D01*
X7548D01*
Y7173D01*
X7549D01*
X7548D02*
X7540Y7165D01*
X7900Y7628D02*
X7933D01*
Y7620D01*
X7900Y7586D01*
Y7578D01*
X7975D02*
Y7628D01*
X7950Y7603D01*
X7983D01*
X8000Y7628D02*
Y7578D01*
Y7603D01*
X8033D01*
Y7628D01*
Y7578D01*
X8075Y7628D02*
X8083Y7620D01*
X8075Y7628D02*
X8058D01*
X8050Y7620D01*
Y7586D01*
X8058Y7578D01*
X8075D01*
X8083Y7586D01*
X8100Y7578D02*
X8117D01*
X8108D01*
Y7628D01*
X8109D01*
X8108D02*
X8100Y7620D01*
X8142D02*
X8150Y7628D01*
X8167D01*
X8175Y7620D01*
Y7611D01*
X8176D01*
X8175D02*
X8176D01*
X8175D02*
X8176D01*
X8175D02*
X8167Y7603D01*
X8158D01*
X8167D01*
X8175Y7595D01*
Y7586D01*
X8167Y7578D01*
X8150D01*
X8142Y7586D01*
X8192Y7620D02*
X8200Y7628D01*
X8217D01*
X8225Y7620D01*
Y7611D01*
X8217Y7603D01*
X8225Y7595D01*
Y7586D01*
X8217Y7578D01*
X8200D01*
X8192Y7586D01*
Y7595D01*
X8200Y7603D01*
X8192Y7611D01*
Y7620D01*
X8200Y7603D02*
X8217D01*
X7770Y7428D02*
Y7386D01*
X7778Y7378D01*
X7795D01*
X7803Y7386D01*
Y7428D01*
X7820D02*
X7853D01*
X7820D02*
Y7403D01*
X7837Y7411D01*
X7845D01*
X7853Y7403D01*
Y7386D01*
X7845Y7378D01*
X7828D01*
X7820Y7386D01*
X7645Y6948D02*
X7595D01*
X7620Y6973D02*
X7645Y6948D01*
X7620Y6940D02*
Y6973D01*
X7645Y6923D02*
Y6890D01*
X7637D01*
X7603Y6923D01*
X7595D01*
X7637Y6873D02*
X7645Y6865D01*
Y6848D01*
X7637Y6840D01*
X7603D01*
X7595Y6848D01*
Y6865D01*
X7603Y6873D01*
X7637D01*
X7645Y7288D02*
X7595D01*
X7645D02*
Y7263D01*
X7637Y7255D01*
X7620D01*
X7612Y7263D01*
Y7288D01*
Y7271D02*
X7595Y7255D01*
Y7238D02*
Y7205D01*
Y7238D02*
X7628Y7205D01*
X7637D01*
X7645Y7213D01*
Y7230D01*
X7637Y7238D01*
X7603Y7188D02*
X7595Y7180D01*
Y7163D01*
X7603Y7155D01*
X7637D01*
X7645Y7163D01*
Y7180D01*
X7637Y7188D01*
X7628D01*
X7620Y7180D01*
Y7155D01*
X8507Y8265D02*
X8515Y8273D01*
Y8290D01*
X8507Y8298D01*
X8473D01*
X8465Y8290D01*
Y8273D01*
X8473Y8265D01*
X8465Y8248D02*
Y8215D01*
Y8248D02*
X8498Y8215D01*
X8507D01*
X8515Y8223D01*
Y8240D01*
X8507Y8248D01*
X8465Y8198D02*
Y8165D01*
Y8198D02*
X8498Y8165D01*
X8507D01*
X8515Y8173D01*
Y8190D01*
X8507Y8198D01*
X8875Y8188D02*
X8915D01*
Y8178D01*
X8875Y8138D01*
Y8128D01*
X8965D02*
Y8188D01*
X8935Y8158D01*
X8975D01*
X8995Y8188D02*
Y8128D01*
Y8158D01*
X9035D01*
Y8188D01*
Y8128D01*
X9095Y8178D02*
X9085Y8188D01*
X9065D01*
X9055Y8178D01*
Y8138D01*
X9065Y8128D01*
X9085D01*
X9095Y8138D01*
X9115Y8128D02*
X9155D01*
X9115D02*
X9155Y8168D01*
Y8178D01*
X9145Y8188D01*
X9125D01*
X9115Y8178D01*
X9175Y8188D02*
X9215D01*
Y8178D01*
X9175Y8138D01*
Y8128D01*
X9235Y8178D02*
X9245Y8188D01*
X9265D01*
X9275Y8178D01*
Y8168D01*
X9276D01*
X9275D02*
X9276D01*
X9275D02*
X9276D01*
X9275D02*
X9265Y8158D01*
X9255D01*
X9265D01*
X9275Y8148D01*
Y8138D01*
X9265Y8128D01*
X9245D01*
X9235Y8138D01*
X8625Y7988D02*
Y7938D01*
X8635Y7928D01*
X8655D01*
X8665Y7938D01*
Y7988D01*
X8685Y7928D02*
X8725D01*
X8685D02*
X8725Y7968D01*
Y7978D01*
X8715Y7988D01*
X8695D01*
X8685Y7978D01*
X8745Y7928D02*
X8785D01*
X8745D02*
X8785Y7968D01*
Y7978D01*
X8775Y7988D01*
X8755D01*
X8745Y7978D01*
X8630Y6958D02*
Y6941D01*
Y6950D01*
X8680D01*
X8681D01*
X8680D02*
X8672Y6958D01*
X8680Y6916D02*
X8630D01*
Y6883D02*
X8680Y6916D01*
Y6883D02*
X8630D01*
X8638Y6866D02*
X8630Y6858D01*
Y6841D01*
X8638Y6833D01*
X8672D01*
X8680Y6841D01*
Y6858D01*
X8672Y6866D01*
X8663D01*
X8655Y6858D01*
Y6833D01*
X8630Y6816D02*
Y6800D01*
Y6808D01*
X8680D01*
X8681D01*
X8680D02*
X8672Y6816D01*
X8680Y6750D02*
X8630D01*
X8655Y6775D02*
X8680Y6750D01*
X8655Y6741D02*
Y6775D01*
X8670Y6613D02*
X8620D01*
Y6588D01*
X8628Y6580D01*
X8662D01*
X8670Y6588D01*
Y6613D01*
X8662Y6563D02*
X8670Y6555D01*
Y6538D01*
X8662Y6530D01*
X8653D01*
X8645Y6538D01*
X8637Y6530D01*
X8628D01*
X8620Y6538D01*
Y6555D01*
X8628Y6563D01*
X8637D01*
X8645Y6555D01*
X8653Y6563D01*
X8662D01*
X8645Y6555D02*
Y6538D01*
X8670Y6513D02*
Y6480D01*
Y6513D02*
X8645D01*
X8653Y6496D01*
Y6488D01*
X8645Y6480D01*
X8628D01*
X8620Y6488D01*
Y6505D01*
X8628Y6513D01*
X8725Y6941D02*
Y6958D01*
Y6950D02*
Y6941D01*
Y6950D02*
X8775D01*
X8776D01*
X8775D02*
X8767Y6958D01*
X8775Y6916D02*
X8725D01*
Y6883D02*
X8775Y6916D01*
Y6883D02*
X8725D01*
X8733Y6866D02*
X8725Y6858D01*
Y6841D01*
X8733Y6833D01*
X8767D01*
X8775Y6841D01*
Y6858D01*
X8767Y6866D01*
X8758D01*
X8750Y6858D01*
Y6833D01*
X8725Y6816D02*
Y6800D01*
Y6808D01*
X8775D01*
X8776D01*
X8775D02*
X8767Y6816D01*
X8775Y6750D02*
X8725D01*
X8750Y6775D02*
X8775Y6750D01*
X8750Y6741D02*
Y6775D01*
X8730Y6608D02*
X8780D01*
X8730D02*
Y6583D01*
X8738Y6575D01*
X8772D01*
X8780Y6583D01*
Y6608D01*
X8772Y6558D02*
X8780Y6550D01*
Y6533D01*
X8772Y6525D01*
X8763D01*
X8755Y6533D01*
X8747Y6525D01*
X8738D01*
X8730Y6533D01*
Y6550D01*
X8738Y6558D01*
X8747D01*
X8755Y6550D01*
X8763Y6558D01*
X8772D01*
X8755Y6550D02*
Y6533D01*
X8772Y6491D02*
X8780Y6475D01*
X8772Y6491D02*
X8755Y6508D01*
X8738D01*
X8730Y6500D01*
Y6483D01*
X8738Y6475D01*
X8747D01*
X8755Y6483D01*
Y6508D01*
X8213Y7363D02*
X8197D01*
X8205D01*
Y7321D01*
X8197Y7313D01*
X8188D01*
X8180Y7321D01*
X8230Y7313D02*
X8247D01*
X8238D01*
Y7363D01*
X8239D01*
X8238D02*
X8230Y7355D01*
X8272Y7313D02*
X8305D01*
X8272D02*
X8305Y7346D01*
Y7355D01*
X8297Y7363D01*
X8280D01*
X8272Y7355D01*
X7650Y6413D02*
Y6363D01*
X7675D01*
X7683Y6371D01*
Y6405D01*
X7675Y6413D01*
X7650D01*
X7700Y6405D02*
X7708Y6413D01*
X7725D01*
X7733Y6405D01*
Y6396D01*
X7725Y6388D01*
X7733Y6380D01*
Y6371D01*
X7725Y6363D01*
X7708D01*
X7700Y6371D01*
Y6380D01*
X7708Y6388D01*
X7700Y6396D01*
Y6405D01*
X7708Y6388D02*
X7725D01*
X7750Y6363D02*
X7767D01*
X7758D01*
Y6413D01*
X7759D01*
X7758D02*
X7750Y6405D01*
X8530Y6931D02*
Y6948D01*
Y6940D02*
Y6931D01*
Y6940D02*
X8580D01*
X8581D01*
X8580D02*
X8572Y6948D01*
X8580Y6906D02*
X8530D01*
X8547D01*
X8580Y6873D01*
X8555Y6898D01*
X8530Y6873D01*
X8515Y6598D02*
X8565D01*
Y6573D01*
X8557Y6565D01*
X8540D01*
X8532Y6573D01*
Y6598D01*
Y6581D02*
X8515Y6565D01*
X8557Y6548D02*
X8565Y6540D01*
Y6523D01*
X8557Y6515D01*
X8548D01*
X8549D01*
X8548D02*
X8549D01*
X8548D02*
X8549D01*
X8548D02*
X8540Y6523D01*
Y6531D01*
Y6523D01*
X8532Y6515D01*
X8523D01*
X8515Y6523D01*
Y6540D01*
X8523Y6548D01*
X8557Y6498D02*
X8565Y6490D01*
Y6473D01*
X8557Y6465D01*
X8548D01*
X8549D01*
X8548D02*
X8549D01*
X8548D02*
X8549D01*
X8548D02*
X8540Y6473D01*
Y6481D01*
Y6473D01*
X8532Y6465D01*
X8523D01*
X8515Y6473D01*
Y6490D01*
X8523Y6498D01*
X6033Y8803D02*
X6000D01*
X6033D02*
Y8795D01*
X6000Y8761D01*
Y8753D01*
X6075D02*
Y8803D01*
X6050Y8778D01*
X6083D01*
X6100Y8803D02*
Y8753D01*
Y8778D01*
X6133D01*
Y8803D01*
Y8753D01*
X6175Y8803D02*
X6183Y8795D01*
X6175Y8803D02*
X6158D01*
X6150Y8795D01*
Y8761D01*
X6158Y8753D01*
X6175D01*
X6183Y8761D01*
X6225Y8753D02*
Y8803D01*
X6200Y8778D01*
X6233D01*
X6250Y8795D02*
X6258Y8803D01*
X6275D01*
X6283Y8795D01*
Y8761D01*
X6275Y8753D01*
X6258D01*
X6250Y8761D01*
Y8795D01*
X6300Y8803D02*
X6333D01*
X6300D02*
Y8778D01*
X6317Y8786D01*
X6325D01*
X6333Y8778D01*
Y8761D01*
X6325Y8753D01*
X6308D01*
X6300Y8761D01*
X6350Y8795D02*
X6358Y8803D01*
X6375D01*
X6383Y8795D01*
Y8786D01*
X6384D01*
X6383D02*
X6384D01*
X6383D02*
X6384D01*
X6383D02*
X6375Y8778D01*
X6367D01*
X6375D01*
X6383Y8770D01*
Y8761D01*
X6375Y8753D01*
X6358D01*
X6350Y8761D01*
X5945Y8588D02*
Y8546D01*
X5953Y8538D01*
X5970D01*
X5978Y8546D01*
Y8588D01*
X5995Y8538D02*
X6028D01*
X5995D02*
X6028Y8571D01*
Y8580D01*
X6020Y8588D01*
X6003D01*
X5995Y8580D01*
X6045Y8538D02*
X6062D01*
X6053D01*
Y8588D01*
X6054D01*
X6053D02*
X6045Y8580D01*
X7280Y8833D02*
X7313D01*
Y8825D01*
X7280Y8791D01*
Y8783D01*
X7355D02*
Y8833D01*
X7330Y8808D01*
X7363D01*
X7380Y8833D02*
Y8783D01*
Y8808D01*
X7413D01*
Y8833D01*
Y8783D01*
X7455Y8833D02*
X7463Y8825D01*
X7455Y8833D02*
X7438D01*
X7430Y8825D01*
Y8791D01*
X7438Y8783D01*
X7455D01*
X7463Y8791D01*
X7480Y8783D02*
X7497D01*
X7488D01*
Y8833D01*
X7489D01*
X7488D02*
X7480Y8825D01*
X7522D02*
X7530Y8833D01*
X7547D01*
X7555Y8825D01*
Y8816D01*
X7556D01*
X7555D02*
X7556D01*
X7555D02*
X7556D01*
X7555D02*
X7547Y8808D01*
X7538D01*
X7547D01*
X7555Y8800D01*
Y8791D01*
X7547Y8783D01*
X7530D01*
X7522Y8791D01*
X7572Y8825D02*
X7580Y8833D01*
X7597D01*
X7605Y8825D01*
Y8816D01*
X7597Y8808D01*
X7605Y8800D01*
Y8791D01*
X7597Y8783D01*
X7580D01*
X7572Y8791D01*
Y8800D01*
X7580Y8808D01*
X7572Y8816D01*
Y8825D01*
X7580Y8808D02*
X7597D01*
X6860Y8618D02*
Y8576D01*
X6868Y8568D01*
X6885D01*
X6893Y8576D01*
Y8618D01*
X6935D02*
Y8568D01*
X6910Y8593D02*
X6935Y8618D01*
X6943Y8593D02*
X6910D01*
X6810Y8578D02*
X6800Y8568D01*
X6810Y8578D02*
Y8598D01*
X6800Y8608D01*
X6760D01*
X6750Y8598D01*
Y8578D01*
X6760Y8568D01*
X6810Y8548D02*
Y8508D01*
Y8548D02*
X6780D01*
X6790Y8528D01*
Y8518D01*
X6780Y8508D01*
X6760D01*
X6750Y8518D01*
Y8538D01*
X6760Y8548D01*
X6750Y8488D02*
Y8468D01*
Y8478D01*
X6810D01*
X6811D01*
X6810D02*
X6800Y8488D01*
X6750Y6665D02*
Y6648D01*
Y6656D02*
Y6665D01*
Y6656D02*
X6700D01*
X6701D01*
X6700D02*
X6708Y6648D01*
Y6690D02*
X6700Y6698D01*
Y6715D01*
X6708Y6723D01*
X6742D01*
X6750Y6715D01*
Y6698D01*
X6742Y6690D01*
X6708D01*
X6742Y6740D02*
X6750D01*
X6742D02*
Y6748D01*
X6750D01*
Y6740D01*
X6708Y6781D02*
X6700Y6790D01*
Y6806D01*
X6708Y6815D01*
X6742D01*
X6750Y6806D01*
Y6790D01*
X6742Y6781D01*
X6708D01*
X6700Y6831D02*
X6750D01*
X6733D01*
X6700Y6865D01*
X6725Y6840D01*
X6750Y6865D01*
Y7043D02*
X6800D01*
Y7018D01*
X6792Y7010D01*
X6775D01*
X6767Y7018D01*
Y7043D01*
Y7026D02*
X6750Y7010D01*
Y6993D02*
Y6960D01*
Y6993D02*
X6783Y6960D01*
X6792D01*
X6800Y6968D01*
Y6985D01*
X6792Y6993D01*
Y6943D02*
X6800Y6935D01*
Y6918D01*
X6792Y6910D01*
X6783D01*
X6775Y6918D01*
X6767Y6910D01*
X6758D01*
X6750Y6918D01*
Y6935D01*
X6758Y6943D01*
X6767D01*
X6775Y6935D01*
X6783Y6943D01*
X6792D01*
X6775Y6935D02*
Y6918D01*
X6575Y6858D02*
Y6841D01*
Y6850D01*
X6625D01*
X6626D01*
X6625D02*
X6617Y6858D01*
X6625Y6816D02*
X6575D01*
Y6783D02*
X6625Y6816D01*
Y6783D02*
X6575D01*
X6583Y6766D02*
X6575Y6758D01*
Y6741D01*
X6583Y6733D01*
X6617D01*
X6625Y6741D01*
Y6758D01*
X6617Y6766D01*
X6608D01*
X6600Y6758D01*
Y6733D01*
X6575Y6716D02*
Y6700D01*
Y6708D01*
X6625D01*
X6626D01*
X6625D02*
X6617Y6716D01*
X6625Y6650D02*
X6575D01*
X6600Y6675D02*
X6625Y6650D01*
X6600Y6641D02*
Y6675D01*
X6545Y6988D02*
Y7038D01*
Y6988D02*
X6570D01*
X6578Y6996D01*
Y7030D01*
X6570Y7038D01*
X6545D01*
X6595Y7030D02*
X6603Y7038D01*
X6620D01*
X6628Y7030D01*
Y7021D01*
X6620Y7013D01*
X6628Y7005D01*
Y6996D01*
X6620Y6988D01*
X6603D01*
X6595Y6996D01*
Y7005D01*
X6603Y7013D01*
X6595Y7021D01*
Y7030D01*
X6603Y7013D02*
X6620D01*
X6645Y7030D02*
X6653Y7038D01*
X6670D01*
X6678Y7030D01*
Y6996D01*
X6670Y6988D01*
X6653D01*
X6645Y6996D01*
Y7030D01*
X6573Y7678D02*
X6540D01*
X6573Y7711D01*
Y7720D01*
X6565Y7728D01*
X6548D01*
X6540Y7720D01*
X6590Y7728D02*
X6623D01*
Y7720D01*
X6590Y7686D01*
Y7678D01*
X6640Y7661D02*
Y7711D01*
X6665D01*
X6673Y7703D01*
Y7686D01*
X6665Y7678D01*
X6640D01*
X6690Y7728D02*
X6723D01*
X6690D02*
Y7703D01*
X6707D01*
X6690D01*
Y7678D01*
X6770Y7723D02*
X6778Y7715D01*
X6770Y7723D02*
X6753D01*
X6745Y7715D01*
Y7681D01*
X6753Y7673D01*
X6770D01*
X6778Y7681D01*
X6795Y7673D02*
X6828D01*
X6795D02*
X6828Y7706D01*
Y7715D01*
X6820Y7723D01*
X6803D01*
X6795Y7715D01*
X6483Y7428D02*
X6450D01*
X6483D02*
Y7420D01*
X6450Y7386D01*
Y7378D01*
X6525D02*
Y7428D01*
X6500Y7403D01*
X6533D01*
X6550Y7428D02*
Y7378D01*
Y7403D01*
X6583D01*
Y7428D01*
Y7378D01*
X6625Y7428D02*
X6633Y7420D01*
X6625Y7428D02*
X6608D01*
X6600Y7420D01*
Y7386D01*
X6608Y7378D01*
X6625D01*
X6633Y7386D01*
X6650Y7378D02*
X6667D01*
X6658D01*
Y7428D01*
X6659D01*
X6658D02*
X6650Y7420D01*
X6717Y7428D02*
Y7378D01*
X6692Y7403D02*
X6717Y7428D01*
X6725Y7403D02*
X6692D01*
X6325Y7238D02*
Y7196D01*
X6333Y7188D01*
X6350D01*
X6358Y7196D01*
Y7238D01*
X6392Y7230D02*
X6408Y7238D01*
X6392Y7230D02*
X6375Y7213D01*
Y7196D01*
X6383Y7188D01*
X6400D01*
X6408Y7196D01*
Y7205D01*
X6400Y7213D01*
X6375D01*
X6203Y7685D02*
X6195Y7693D01*
X6178D01*
X6170Y7685D01*
Y7651D01*
X6178Y7643D01*
X6195D01*
X6203Y7651D01*
X6220Y7643D02*
X6253D01*
X6220D02*
X6253Y7676D01*
Y7685D01*
X6245Y7693D01*
X6228D01*
X6220Y7685D01*
X6270D02*
X6278Y7693D01*
X6295D01*
X6303Y7685D01*
Y7651D01*
X6295Y7643D01*
X6278D01*
X6270Y7651D01*
Y7685D01*
X5910Y7478D02*
Y7428D01*
Y7478D02*
X5935D01*
X5943Y7470D01*
Y7453D01*
X5935Y7445D01*
X5910D01*
X5985Y7478D02*
X5993Y7470D01*
X5985Y7478D02*
X5968D01*
X5960Y7470D01*
Y7436D01*
X5968Y7428D01*
X5985D01*
X5993Y7436D01*
X6010D02*
X6018Y7428D01*
X6035D01*
X6043Y7436D01*
Y7470D01*
X6035Y7478D01*
X6018D01*
X6010Y7470D01*
Y7461D01*
X6018Y7453D01*
X6043D01*
X6060Y7470D02*
X6068Y7478D01*
X6085D01*
X6093Y7470D01*
Y7436D01*
X6085Y7428D01*
X6068D01*
X6060Y7436D01*
Y7470D01*
X6110D02*
X6118Y7478D01*
X6135D01*
X6143Y7470D01*
Y7436D01*
X6135Y7428D01*
X6118D01*
X6110Y7436D01*
Y7470D01*
X5870Y7233D02*
Y7191D01*
X5878Y7183D01*
X5895D01*
X5903Y7191D01*
Y7233D01*
X5920Y7225D02*
X5928Y7233D01*
X5945D01*
X5953Y7225D01*
Y7216D01*
X5945Y7208D01*
X5953Y7200D01*
Y7191D01*
X5945Y7183D01*
X5928D01*
X5920Y7191D01*
Y7200D01*
X5928Y7208D01*
X5920Y7216D01*
Y7225D01*
X5928Y7208D02*
X5945D01*
X5787Y7700D02*
X5795Y7708D01*
Y7725D01*
X5787Y7733D01*
X5753D01*
X5745Y7725D01*
Y7708D01*
X5753Y7700D01*
X5745Y7683D02*
Y7650D01*
Y7683D02*
X5778Y7650D01*
X5787D01*
X5795Y7658D01*
Y7675D01*
X5787Y7683D01*
X5745Y7633D02*
Y7616D01*
Y7625D01*
X5795D01*
X5796D01*
X5795D02*
X5787Y7633D01*
X6238Y7148D02*
X6255D01*
X6247D02*
X6238D01*
X6247D02*
Y7098D01*
X6248D01*
X6247D02*
X6255Y7106D01*
X6213Y7098D02*
Y7148D01*
X6180D02*
X6213Y7098D01*
X6180D02*
Y7148D01*
X6163Y7140D02*
X6155Y7148D01*
X6138D01*
X6130Y7140D01*
Y7106D01*
X6138Y7098D01*
X6155D01*
X6163Y7106D01*
Y7115D01*
X6155Y7123D01*
X6130D01*
X6113Y7148D02*
X6097D01*
X6105D01*
Y7098D01*
X6106D01*
X6105D02*
X6113Y7106D01*
X6047Y7098D02*
Y7148D01*
X6072Y7123D02*
X6047Y7098D01*
X6038Y7123D02*
X6072D01*
X5840Y7103D02*
Y7153D01*
Y7103D02*
X5865D01*
X5873Y7111D01*
Y7145D01*
X5865Y7153D01*
X5840D01*
X5890Y7103D02*
X5907D01*
X5898D01*
Y7153D01*
X5899D01*
X5898D02*
X5890Y7145D01*
X6075Y7003D02*
X6108D01*
X6075D02*
X6108Y7036D01*
Y7045D01*
X6100Y7053D01*
X6083D01*
X6075Y7045D01*
X6125Y7003D02*
X6158D01*
X6125D02*
X6158Y7036D01*
Y7045D01*
X6150Y7053D01*
X6133D01*
X6125Y7045D01*
X6175D02*
X6183Y7053D01*
X6200D01*
X6208Y7045D01*
Y7011D01*
X6200Y7003D01*
X6183D01*
X6175Y7011D01*
Y7045D01*
X5845Y7058D02*
Y7008D01*
Y7058D02*
X5870D01*
X5878Y7050D01*
Y7033D01*
X5870Y7025D01*
X5845D01*
X5862D02*
X5878Y7008D01*
X5895D02*
X5912D01*
X5903D01*
Y7058D01*
X5904D01*
X5903D02*
X5895Y7050D01*
X6685Y7103D02*
X6718D01*
X6685D02*
X6718Y7136D01*
Y7145D01*
X6710Y7153D01*
X6693D01*
X6685Y7145D01*
X6735Y7153D02*
X6768D01*
Y7145D01*
X6735Y7111D01*
Y7103D01*
X6785Y7145D02*
X6793Y7153D01*
X6810D01*
X6818Y7145D01*
Y7111D01*
X6810Y7103D01*
X6793D01*
X6785Y7111D01*
Y7145D01*
X6995Y7163D02*
Y7113D01*
Y7163D02*
X7020D01*
X7028Y7155D01*
Y7138D01*
X7020Y7130D01*
X6995D01*
X7012D02*
X7028Y7113D01*
X7045D02*
X7078D01*
X7045D02*
X7078Y7146D01*
Y7155D01*
X7070Y7163D01*
X7053D01*
X7045Y7155D01*
X6510Y6613D02*
Y6596D01*
Y6605D01*
X6560D01*
X6561D01*
X6560D02*
X6552Y6613D01*
X6543Y6571D02*
X6518D01*
X6510Y6563D01*
Y6538D01*
X6543D01*
X6560Y6521D02*
Y6488D01*
Y6521D02*
X6535D01*
Y6505D01*
Y6521D01*
X6510D01*
X6812Y6555D02*
X6820Y6563D01*
Y6580D01*
X6812Y6588D01*
X6778D01*
X6770Y6580D01*
Y6563D01*
X6778Y6555D01*
X6820Y6538D02*
Y6505D01*
Y6538D02*
X6795D01*
X6803Y6521D01*
Y6513D01*
X6795Y6505D01*
X6778D01*
X6770Y6513D01*
Y6530D01*
X6778Y6538D01*
X6812Y6488D02*
X6820Y6480D01*
Y6463D01*
X6812Y6455D01*
X6778D01*
X6770Y6463D01*
Y6480D01*
X6778Y6488D01*
X6812D01*
X5743Y6968D02*
X5727D01*
X5735D01*
Y6926D01*
X5727Y6918D01*
X5718D01*
X5710Y6926D01*
X5760Y6918D02*
X5777D01*
X5768D01*
Y6968D01*
X5769D01*
X5768D02*
X5760Y6960D01*
X7335Y7118D02*
X7355D01*
X7345D02*
X7335D01*
X7345D02*
Y7068D01*
X7335Y7058D01*
X7325D01*
X7315Y7068D01*
X7375Y7058D02*
X7395D01*
X7385D01*
Y7118D01*
X7386D01*
X7385D02*
X7375Y7108D01*
X7425D02*
X7435Y7118D01*
X7455D01*
X7465Y7108D01*
Y7098D01*
X7466D01*
X7465D02*
X7466D01*
X7465D02*
X7466D01*
X7465D02*
X7455Y7088D01*
X7445D01*
X7455D01*
X7465Y7078D01*
Y7068D01*
X7455Y7058D01*
X7435D01*
X7425Y7068D01*
X5687Y8815D02*
X5695Y8823D01*
Y8840D01*
X5687Y8848D01*
X5653D01*
X5645Y8840D01*
Y8823D01*
X5653Y8815D01*
X5645Y8798D02*
Y8765D01*
Y8798D02*
X5678Y8765D01*
X5687D01*
X5695Y8773D01*
Y8790D01*
X5687Y8798D01*
Y8748D02*
X5695Y8740D01*
Y8723D01*
X5687Y8715D01*
X5678D01*
X5670Y8723D01*
X5662Y8715D01*
X5653D01*
X5645Y8723D01*
Y8740D01*
X5653Y8748D01*
X5662D01*
X5670Y8740D01*
X5678Y8748D01*
X5687D01*
X5670Y8740D02*
Y8723D01*
X5083Y8803D02*
X5050D01*
X5083D02*
Y8795D01*
X5050Y8761D01*
Y8753D01*
X5125D02*
Y8803D01*
X5100Y8778D01*
X5133D01*
X5150Y8803D02*
Y8753D01*
Y8778D01*
X5183D01*
Y8803D01*
Y8753D01*
X5225Y8803D02*
X5233Y8795D01*
X5225Y8803D02*
X5208D01*
X5200Y8795D01*
Y8761D01*
X5208Y8753D01*
X5225D01*
X5233Y8761D01*
X5250Y8803D02*
X5283D01*
Y8795D01*
X5250Y8761D01*
Y8753D01*
X5325D02*
Y8803D01*
X5300Y8778D01*
X5333D01*
X4910Y8598D02*
Y8556D01*
X4918Y8548D01*
X4935D01*
X4943Y8556D01*
Y8598D01*
X4960Y8548D02*
X4993D01*
X4960D02*
X4993Y8581D01*
Y8590D01*
X4985Y8598D01*
X4968D01*
X4960Y8590D01*
X5010D02*
X5018Y8598D01*
X5035D01*
X5043Y8590D01*
Y8556D01*
X5035Y8548D01*
X5018D01*
X5010Y8556D01*
Y8590D01*
X4840Y8573D02*
X4832Y8565D01*
X4840Y8573D02*
Y8590D01*
X4832Y8598D01*
X4798D01*
X4790Y8590D01*
Y8573D01*
X4798Y8565D01*
X4832Y8548D02*
X4840Y8540D01*
Y8523D01*
X4832Y8515D01*
X4823D01*
X4824D01*
X4823D02*
X4824D01*
X4823D02*
X4824D01*
X4823D02*
X4815Y8523D01*
Y8531D01*
Y8523D01*
X4807Y8515D01*
X4798D01*
X4790Y8523D01*
Y8540D01*
X4798Y8548D01*
X4790Y8498D02*
Y8481D01*
Y8490D01*
X4840D01*
X4841D01*
X4840D02*
X4832Y8498D01*
X5030Y7398D02*
X5063D01*
Y7390D01*
X5030Y7356D01*
Y7348D01*
X5105D02*
Y7398D01*
X5080Y7373D01*
X5113D01*
X5130Y7398D02*
Y7348D01*
Y7373D01*
X5163D01*
Y7398D01*
Y7348D01*
X5205Y7398D02*
X5213Y7390D01*
X5205Y7398D02*
X5188D01*
X5180Y7390D01*
Y7356D01*
X5188Y7348D01*
X5205D01*
X5213Y7356D01*
X5230Y7390D02*
X5238Y7398D01*
X5255D01*
X5263Y7390D01*
Y7356D01*
X5255Y7348D01*
X5238D01*
X5230Y7356D01*
Y7390D01*
X5280Y7398D02*
X5313D01*
X5280D02*
Y7373D01*
X5297Y7381D01*
X5305D01*
X5313Y7373D01*
Y7356D01*
X5305Y7348D01*
X5288D01*
X5280Y7356D01*
X5020Y7223D02*
Y7181D01*
X5028Y7173D01*
X5045D01*
X5053Y7181D01*
Y7223D01*
X5070Y7181D02*
X5078Y7173D01*
X5095D01*
X5103Y7181D01*
Y7215D01*
X5095Y7223D01*
X5078D01*
X5070Y7215D01*
Y7206D01*
X5078Y7198D01*
X5103D01*
X4888Y7680D02*
X4880Y7688D01*
X4863D01*
X4855Y7680D01*
Y7646D01*
X4863Y7638D01*
X4880D01*
X4888Y7646D01*
X4905Y7638D02*
X4938D01*
X4905D02*
X4938Y7671D01*
Y7680D01*
X4930Y7688D01*
X4913D01*
X4905Y7680D01*
X4955D02*
X4963Y7688D01*
X4980D01*
X4988Y7680D01*
Y7671D01*
X4989D01*
X4988D02*
X4989D01*
X4988D02*
X4989D01*
X4988D02*
X4980Y7663D01*
X4972D01*
X4980D01*
X4988Y7655D01*
Y7646D01*
X4980Y7638D01*
X4963D01*
X4955Y7646D01*
X5960Y7943D02*
Y7976D01*
X5977Y7993D01*
X5993Y7976D01*
Y7943D01*
Y7968D01*
X5960D01*
X6010Y7993D02*
X6043D01*
X6027D01*
Y7943D01*
X6060Y7951D02*
X6068Y7943D01*
X6085D01*
X6093Y7951D01*
Y7985D01*
X6085Y7993D01*
X6068D01*
X6060Y7985D01*
Y7976D01*
X6068Y7968D01*
X6093D01*
X6110Y7985D02*
X6118Y7993D01*
X6135D01*
X6143Y7985D01*
Y7951D01*
X6135Y7943D01*
X6118D01*
X6110Y7951D01*
Y7985D01*
X6185Y7993D02*
X6193Y7985D01*
X6185Y7993D02*
X6168D01*
X6160Y7985D01*
Y7976D01*
X6168Y7968D01*
X6185D01*
X6193Y7960D01*
Y7951D01*
X6185Y7943D01*
X6168D01*
X6160Y7951D01*
X6210Y7985D02*
X6218Y7993D01*
X6235D01*
X6243Y7985D01*
Y7976D01*
X6235Y7968D01*
X6243Y7960D01*
Y7951D01*
X6235Y7943D01*
X6218D01*
X6210Y7951D01*
Y7960D01*
X6218Y7968D01*
X6210Y7976D01*
Y7985D01*
X6218Y7968D02*
X6235D01*
X6260Y7993D02*
X6293D01*
X6260D02*
Y7968D01*
X6277Y7976D01*
X6285D01*
X6293Y7968D01*
Y7951D01*
X6285Y7943D01*
X6268D01*
X6260Y7951D01*
X6310Y7943D02*
X6327D01*
X6318D01*
Y7993D01*
X6319D01*
X6318D02*
X6310Y7985D01*
X6352Y7993D02*
X6385D01*
X6352D02*
Y7968D01*
X6368Y7976D01*
X6377D01*
X6385Y7968D01*
Y7951D01*
X6377Y7943D01*
X6360D01*
X6352Y7951D01*
X5440Y7723D02*
Y7681D01*
X5448Y7673D01*
X5465D01*
X5473Y7681D01*
Y7723D01*
X5490Y7715D02*
X5498Y7723D01*
X5515D01*
X5523Y7715D01*
Y7706D01*
X5524D01*
X5523D02*
X5524D01*
X5523D02*
X5524D01*
X5523D02*
X5515Y7698D01*
X5507D01*
X5515D01*
X5523Y7690D01*
Y7681D01*
X5515Y7673D01*
X5498D01*
X5490Y7681D01*
X5073Y7103D02*
X5040D01*
X5073Y7136D01*
Y7145D01*
X5065Y7153D01*
X5048D01*
X5040Y7145D01*
X5090Y7103D02*
X5123D01*
X5090D02*
X5123Y7136D01*
Y7145D01*
X5115Y7153D01*
X5098D01*
X5090Y7145D01*
X5140D02*
X5148Y7153D01*
X5165D01*
X5173Y7145D01*
Y7111D01*
X5165Y7103D01*
X5148D01*
X5140Y7111D01*
Y7145D01*
X5355Y7163D02*
Y7113D01*
Y7163D02*
X5380D01*
X5388Y7155D01*
Y7138D01*
X5380Y7130D01*
X5355D01*
X5372D02*
X5388Y7113D01*
X5430D02*
Y7163D01*
X5405Y7138D01*
X5438D01*
X5073Y7003D02*
X5040D01*
X5073Y7036D01*
Y7045D01*
X5065Y7053D01*
X5048D01*
X5040Y7045D01*
X5090Y7003D02*
X5123D01*
X5090D02*
X5123Y7036D01*
Y7045D01*
X5115Y7053D01*
X5098D01*
X5090Y7045D01*
X5140D02*
X5148Y7053D01*
X5165D01*
X5173Y7045D01*
Y7011D01*
X5165Y7003D01*
X5148D01*
X5140Y7011D01*
Y7045D01*
X5345Y7058D02*
Y7008D01*
Y7058D02*
X5370D01*
X5378Y7050D01*
Y7033D01*
X5370Y7025D01*
X5345D01*
X5362D02*
X5378Y7008D01*
X5395Y7050D02*
X5403Y7058D01*
X5420D01*
X5428Y7050D01*
Y7041D01*
X5429D01*
X5428D02*
X5429D01*
X5428D02*
X5429D01*
X5428D02*
X5420Y7033D01*
X5412D01*
X5420D01*
X5428Y7025D01*
Y7016D01*
X5420Y7008D01*
X5403D01*
X5395Y7016D01*
X5332Y7985D02*
X5340Y7993D01*
Y8010D01*
X5332Y8018D01*
X5298D01*
X5290Y8010D01*
Y7993D01*
X5298Y7985D01*
X5290Y7968D02*
Y7935D01*
Y7968D02*
X5323Y7935D01*
X5332D01*
X5340Y7943D01*
Y7960D01*
X5332Y7968D01*
X5340Y7918D02*
Y7885D01*
Y7918D02*
X5315D01*
X5323Y7901D01*
Y7893D01*
X5315Y7885D01*
X5298D01*
X5290Y7893D01*
Y7910D01*
X5298Y7918D01*
X4458Y7108D02*
X4425D01*
X4458Y7141D01*
Y7150D01*
X4450Y7158D01*
X4433D01*
X4425Y7150D01*
X4475Y7108D02*
X4508D01*
X4475D02*
X4508Y7141D01*
Y7150D01*
X4500Y7158D01*
X4483D01*
X4475Y7150D01*
X4525D02*
X4533Y7158D01*
X4550D01*
X4558Y7150D01*
Y7116D01*
X4550Y7108D01*
X4533D01*
X4525Y7116D01*
Y7150D01*
X4750Y7158D02*
Y7108D01*
Y7158D02*
X4775D01*
X4783Y7150D01*
Y7133D01*
X4775Y7125D01*
X4750D01*
X4767D02*
X4783Y7108D01*
X4817Y7150D02*
X4833Y7158D01*
X4817Y7150D02*
X4800Y7133D01*
Y7116D01*
X4808Y7108D01*
X4825D01*
X4833Y7116D01*
Y7125D01*
X4825Y7133D01*
X4800D01*
X5462Y6998D02*
X5478D01*
X5470D02*
X5462D01*
X5470D02*
Y6956D01*
X5462Y6948D01*
X5453D01*
X5445Y6956D01*
X5495Y6948D02*
X5528D01*
X5495D02*
X5528Y6981D01*
Y6990D01*
X5520Y6998D01*
X5503D01*
X5495Y6990D01*
X4208Y8828D02*
X4175D01*
X4208D02*
Y8820D01*
X4175Y8786D01*
Y8778D01*
X4250D02*
Y8828D01*
X4225Y8803D01*
X4258D01*
X4275Y8828D02*
Y8778D01*
Y8803D01*
X4308D01*
Y8828D01*
Y8778D01*
X4350Y8828D02*
X4358Y8820D01*
X4350Y8828D02*
X4333D01*
X4325Y8820D01*
Y8786D01*
X4333Y8778D01*
X4350D01*
X4358Y8786D01*
X4375Y8828D02*
X4408D01*
Y8820D01*
X4375Y8786D01*
Y8778D01*
X4450D02*
Y8828D01*
X4425Y8803D01*
X4458D01*
X4060Y8593D02*
Y8551D01*
X4068Y8543D01*
X4085D01*
X4093Y8551D01*
Y8593D01*
X4110D02*
X4143D01*
Y8585D01*
X4110Y8551D01*
Y8543D01*
X3950Y8588D02*
X3942Y8580D01*
X3950Y8588D02*
Y8605D01*
X3942Y8613D01*
X3908D01*
X3900Y8605D01*
Y8588D01*
X3908Y8580D01*
X3942Y8563D02*
X3950Y8555D01*
Y8538D01*
X3942Y8530D01*
X3933D01*
X3934D01*
X3933D02*
X3934D01*
X3933D02*
X3934D01*
X3933D02*
X3925Y8538D01*
Y8546D01*
Y8538D01*
X3917Y8530D01*
X3908D01*
X3900Y8538D01*
Y8555D01*
X3908Y8563D01*
X3942Y8513D02*
X3950Y8505D01*
Y8488D01*
X3942Y8480D01*
X3908D01*
X3900Y8488D01*
Y8505D01*
X3908Y8513D01*
X3942D01*
X4185Y8093D02*
X4193Y8085D01*
X4185Y8093D02*
X4168D01*
X4160Y8085D01*
Y8051D01*
X4168Y8043D01*
X4185D01*
X4193Y8051D01*
Y8068D01*
X4177D01*
X4210Y8093D02*
X4243D01*
X4210D02*
Y8043D01*
X4243D01*
X4227Y8068D02*
X4210D01*
X4260Y8043D02*
Y8093D01*
X4293Y8043D01*
Y8093D01*
X4310D02*
X4343D01*
X4310D02*
Y8043D01*
X4343D01*
X4327Y8068D02*
X4310D01*
X4360Y8043D02*
Y8093D01*
X4385D01*
X4393Y8085D01*
Y8068D01*
X4385Y8060D01*
X4360D01*
X4377D02*
X4393Y8043D01*
X4410Y8093D02*
X4427D01*
X4418D01*
Y8043D01*
X4410D01*
X4427D01*
X4477Y8093D02*
X4485Y8085D01*
X4477Y8093D02*
X4460D01*
X4452Y8085D01*
Y8051D01*
X4460Y8043D01*
X4477D01*
X4485Y8051D01*
X4552Y8043D02*
Y8093D01*
X4577D01*
X4585Y8085D01*
Y8068D01*
X4577Y8060D01*
X4552D01*
X4568D02*
X4585Y8043D01*
X4602D02*
Y8076D01*
X4618Y8093D01*
X4635Y8076D01*
Y8043D01*
Y8068D01*
X4602D01*
X4652Y8043D02*
Y8093D01*
X4668Y8076D01*
X4685Y8093D01*
Y8043D01*
X4751Y8093D02*
X4785Y8043D01*
X4751D02*
X4785Y8093D01*
X4801Y8085D02*
X4810Y8093D01*
X4826D01*
X4835Y8085D01*
Y8076D01*
X4826Y8068D01*
X4835Y8060D01*
Y8051D01*
X4826Y8043D01*
X4810D01*
X4801Y8051D01*
Y8060D01*
X4810Y8068D01*
X4801Y8076D01*
Y8085D01*
X4810Y8068D02*
X4826D01*
X3875Y7713D02*
Y7671D01*
X3883Y7663D01*
X3900D01*
X3908Y7671D01*
Y7713D01*
X3925Y7663D02*
X3958D01*
X3925D02*
X3958Y7696D01*
Y7705D01*
X3950Y7713D01*
X3933D01*
X3925Y7705D01*
X4035Y7448D02*
X4068D01*
Y7440D01*
X4035Y7406D01*
Y7398D01*
X4110D02*
Y7448D01*
X4085Y7423D01*
X4118D01*
X4135Y7448D02*
Y7398D01*
Y7423D01*
X4168D01*
Y7448D01*
Y7398D01*
X4210Y7448D02*
X4218Y7440D01*
X4210Y7448D02*
X4193D01*
X4185Y7440D01*
Y7406D01*
X4193Y7398D01*
X4210D01*
X4218Y7406D01*
X4235Y7448D02*
X4268D01*
X4235D02*
Y7423D01*
X4252Y7431D01*
X4260D01*
X4268Y7423D01*
Y7406D01*
X4260Y7398D01*
X4243D01*
X4235Y7406D01*
X4285Y7448D02*
X4318D01*
Y7440D01*
X4285Y7406D01*
Y7398D01*
X4335Y7440D02*
X4343Y7448D01*
X4360D01*
X4368Y7440D01*
Y7431D01*
X4369D01*
X4368D02*
X4369D01*
X4368D02*
X4369D01*
X4368D02*
X4360Y7423D01*
X4352D01*
X4360D01*
X4368Y7415D01*
Y7406D01*
X4360Y7398D01*
X4343D01*
X4335Y7406D01*
X3885Y7228D02*
Y7186D01*
X3893Y7178D01*
X3910D01*
X3918Y7186D01*
Y7228D01*
X3935Y7178D02*
X3952D01*
X3943D01*
Y7228D01*
X3944D01*
X3943D02*
X3935Y7220D01*
X3767Y7740D02*
X3775Y7748D01*
Y7765D01*
X3767Y7773D01*
X3733D01*
X3725Y7765D01*
Y7748D01*
X3733Y7740D01*
X3725Y7723D02*
Y7690D01*
Y7723D02*
X3758Y7690D01*
X3767D01*
X3775Y7698D01*
Y7715D01*
X3767Y7723D01*
X3775Y7648D02*
X3725D01*
X3750Y7673D02*
X3775Y7648D01*
X3750Y7640D02*
Y7673D01*
X4120Y7003D02*
X4153D01*
X4120D02*
X4153Y7036D01*
Y7045D01*
X4145Y7053D01*
X4128D01*
X4120Y7045D01*
X4170Y7003D02*
X4203D01*
X4170D02*
X4203Y7036D01*
Y7045D01*
X4195Y7053D01*
X4178D01*
X4170Y7045D01*
X4220D02*
X4228Y7053D01*
X4245D01*
X4253Y7045D01*
Y7011D01*
X4245Y7003D01*
X4228D01*
X4220Y7011D01*
Y7045D01*
X4450Y7053D02*
Y7003D01*
Y7053D02*
X4475D01*
X4483Y7045D01*
Y7028D01*
X4475Y7020D01*
X4450D01*
X4467D02*
X4483Y7003D01*
X4500Y7053D02*
X4533D01*
X4500D02*
Y7028D01*
X4517Y7036D01*
X4525D01*
X4533Y7028D01*
Y7011D01*
X4525Y7003D01*
X4508D01*
X4500Y7011D01*
X3747Y8545D02*
X3755Y8553D01*
Y8570D01*
X3747Y8578D01*
X3713D01*
X3705Y8570D01*
Y8553D01*
X3713Y8545D01*
X3705Y8528D02*
Y8495D01*
Y8528D02*
X3738Y8495D01*
X3747D01*
X3755Y8503D01*
Y8520D01*
X3747Y8528D01*
Y8461D02*
X3755Y8445D01*
X3747Y8461D02*
X3730Y8478D01*
X3713D01*
X3705Y8470D01*
Y8453D01*
X3713Y8445D01*
X3722D01*
X3730Y8453D01*
Y8478D01*
X3812Y6998D02*
X3828D01*
X3820D02*
X3812D01*
X3820D02*
Y6956D01*
X3812Y6948D01*
X3803D01*
X3795Y6956D01*
X3845Y6990D02*
X3853Y6998D01*
X3870D01*
X3878Y6990D01*
Y6981D01*
X3879D01*
X3878D02*
X3879D01*
X3878D02*
X3879D01*
X3878D02*
X3870Y6973D01*
X3862D01*
X3870D01*
X3878Y6965D01*
Y6956D01*
X3870Y6948D01*
X3853D01*
X3845Y6956D01*
D13*
X9745Y6398D02*
X9753Y6406D01*
X9745Y6398D02*
Y6381D01*
X9753Y6373D01*
X9762D01*
X9770Y6381D01*
Y6398D01*
X9778Y6406D01*
X9787D01*
X9795Y6398D01*
Y6381D01*
X9787Y6373D01*
X9745Y6423D02*
Y6456D01*
Y6440D01*
X9795D01*
Y6473D02*
X9762D01*
X9745Y6490D01*
X9762Y6506D01*
X9795D01*
X9770D01*
Y6473D01*
X9795Y6523D02*
X9745D01*
Y6548D01*
X9753Y6556D01*
X9770D01*
X9778Y6548D01*
Y6523D01*
Y6540D02*
X9795Y6556D01*
X9745Y6573D02*
Y6606D01*
Y6590D01*
X9795D01*
Y6623D02*
X9762Y6656D01*
X9745Y6698D02*
X9753Y6706D01*
X9745Y6698D02*
Y6681D01*
X9753Y6673D01*
X9762D01*
X9770Y6681D01*
Y6698D01*
X9778Y6706D01*
X9787D01*
X9795Y6698D01*
Y6681D01*
X9787Y6673D01*
X9745Y6723D02*
Y6756D01*
Y6740D01*
X9795D01*
X9745Y6781D02*
Y6798D01*
Y6781D02*
X9753Y6773D01*
X9787D01*
X9795Y6781D01*
Y6798D01*
X9787Y6806D01*
X9753D01*
X9745Y6798D01*
Y6823D02*
X9795D01*
X9745D02*
Y6848D01*
X9753Y6856D01*
X9770D01*
X9778Y6848D01*
Y6823D01*
X10750Y6583D02*
X10758Y6591D01*
X10750Y6583D02*
Y6566D01*
X10758Y6558D01*
X10792D01*
X10800Y6566D01*
Y6583D01*
X10792Y6591D01*
X10800Y6608D02*
X10750D01*
X10800D02*
Y6641D01*
X10750Y6666D02*
Y6683D01*
Y6666D02*
X10758Y6658D01*
X10792D01*
X10800Y6666D01*
Y6683D01*
X10792Y6691D01*
X10758D01*
X10750Y6683D01*
Y6733D02*
X10758Y6741D01*
X10750Y6733D02*
Y6716D01*
X10758Y6708D01*
X10792D01*
X10800Y6716D01*
Y6733D01*
X10792Y6741D01*
X10800Y6758D02*
X10750D01*
X10783D02*
X10800D01*
X10783D02*
X10750Y6791D01*
X10775Y6766D01*
X10800Y6791D01*
X11750Y6633D02*
X11758Y6641D01*
X11750Y6633D02*
Y6616D01*
X11758Y6608D01*
X11792D01*
X11800Y6616D01*
Y6633D01*
X11792Y6641D01*
X11775D01*
Y6625D01*
X11767Y6658D02*
X11800D01*
X11767D02*
X11750Y6675D01*
X11767Y6691D01*
X11800D01*
X11775D01*
Y6658D01*
X11750Y6708D02*
Y6741D01*
Y6725D01*
X11800D01*
X11750Y6758D02*
Y6791D01*
Y6758D02*
X11800D01*
Y6791D01*
X11775Y6775D02*
Y6758D01*
X8528Y7303D02*
X8495D01*
X8528D02*
X8545Y7286D01*
X8528Y7270D01*
X8495D01*
X8520D01*
Y7303D01*
X8503Y7253D02*
X8545D01*
X8503D02*
X8495Y7245D01*
Y7228D01*
X8503Y7220D01*
X8545D01*
Y7203D02*
X8495Y7170D01*
Y7203D02*
X8545Y7170D01*
X15675Y8153D02*
X15678Y8153D01*
X15681Y8154D01*
X15685Y8155D01*
X15688Y8156D01*
X15690Y8158D01*
X15693Y8160D01*
X15695Y8163D01*
X15697Y8166D01*
X15698Y8168D01*
X15699Y8172D01*
X15700Y8175D01*
X15700Y8178D01*
X15700Y8181D01*
X15699Y8184D01*
X15698Y8188D01*
X15697Y8190D01*
X15695Y8193D01*
X15693Y8196D01*
X15690Y8198D01*
X15688Y8200D01*
X15685Y8201D01*
X15681Y8202D01*
X15678Y8203D01*
X15675Y8203D01*
Y8153D02*
Y8078D01*
Y8203D02*
Y8278D01*
X16475D02*
Y8078D01*
Y8278D02*
X15675D01*
Y8078D02*
X16475D01*
X14225Y8153D02*
X14228Y8153D01*
X14231Y8154D01*
X14235Y8155D01*
X14238Y8156D01*
X14240Y8158D01*
X14243Y8160D01*
X14245Y8163D01*
X14247Y8166D01*
X14248Y8168D01*
X14249Y8172D01*
X14250Y8175D01*
X14250Y8178D01*
X14250Y8181D01*
X14249Y8184D01*
X14248Y8188D01*
X14247Y8190D01*
X14245Y8193D01*
X14243Y8196D01*
X14240Y8198D01*
X14238Y8200D01*
X14235Y8201D01*
X14231Y8202D01*
X14228Y8203D01*
X14225Y8203D01*
Y8153D02*
Y8078D01*
Y8203D02*
Y8278D01*
X14625D02*
Y8078D01*
Y8278D02*
X14225D01*
Y8078D02*
X14625D01*
X13625Y8153D02*
X13628Y8153D01*
X13631Y8154D01*
X13635Y8155D01*
X13638Y8156D01*
X13640Y8158D01*
X13643Y8160D01*
X13645Y8163D01*
X13647Y8166D01*
X13648Y8168D01*
X13649Y8172D01*
X13650Y8175D01*
X13650Y8178D01*
X13650Y8181D01*
X13649Y8184D01*
X13648Y8188D01*
X13647Y8190D01*
X13645Y8193D01*
X13643Y8196D01*
X13640Y8198D01*
X13638Y8200D01*
X13635Y8201D01*
X13631Y8202D01*
X13628Y8203D01*
X13625Y8203D01*
Y8153D02*
Y8078D01*
Y8203D02*
Y8278D01*
X14025D02*
Y8078D01*
Y8278D02*
X13625D01*
Y8078D02*
X14025D01*
X12025Y8153D02*
X12028Y8153D01*
X12031Y8154D01*
X12035Y8155D01*
X12038Y8156D01*
X12040Y8158D01*
X12043Y8160D01*
X12045Y8163D01*
X12047Y8166D01*
X12048Y8168D01*
X12049Y8172D01*
X12050Y8175D01*
X12050Y8178D01*
X12050Y8181D01*
X12049Y8184D01*
X12048Y8188D01*
X12047Y8190D01*
X12045Y8193D01*
X12043Y8196D01*
X12040Y8198D01*
X12038Y8200D01*
X12035Y8201D01*
X12031Y8202D01*
X12028Y8203D01*
X12025Y8203D01*
Y8153D02*
Y8078D01*
Y8203D02*
Y8278D01*
X12825D02*
Y8078D01*
Y8278D02*
X12025D01*
Y8078D02*
X12825D01*
X13025Y8153D02*
X13028Y8153D01*
X13031Y8154D01*
X13035Y8155D01*
X13038Y8156D01*
X13040Y8158D01*
X13043Y8160D01*
X13045Y8163D01*
X13047Y8166D01*
X13048Y8168D01*
X13049Y8172D01*
X13050Y8175D01*
X13050Y8178D01*
X13050Y8181D01*
X13049Y8184D01*
X13048Y8188D01*
X13047Y8190D01*
X13045Y8193D01*
X13043Y8196D01*
X13040Y8198D01*
X13038Y8200D01*
X13035Y8201D01*
X13031Y8202D01*
X13028Y8203D01*
X13025Y8203D01*
Y8153D02*
Y8078D01*
Y8203D02*
Y8278D01*
X13425D02*
Y8078D01*
Y8278D02*
X13025D01*
Y8078D02*
X13425D01*
X10825Y8153D02*
X10828Y8153D01*
X10831Y8154D01*
X10835Y8155D01*
X10838Y8156D01*
X10840Y8158D01*
X10843Y8160D01*
X10845Y8163D01*
X10847Y8166D01*
X10848Y8168D01*
X10849Y8172D01*
X10850Y8175D01*
X10850Y8178D01*
X10850Y8181D01*
X10849Y8184D01*
X10848Y8188D01*
X10847Y8190D01*
X10845Y8193D01*
X10843Y8196D01*
X10840Y8198D01*
X10838Y8200D01*
X10835Y8201D01*
X10831Y8202D01*
X10828Y8203D01*
X10825Y8203D01*
Y8153D02*
Y8078D01*
Y8203D02*
Y8278D01*
X11225D02*
Y8078D01*
Y8278D02*
X10825D01*
Y8078D02*
X11225D01*
X11425Y8153D02*
X11428Y8153D01*
X11431Y8154D01*
X11435Y8155D01*
X11438Y8156D01*
X11440Y8158D01*
X11443Y8160D01*
X11445Y8163D01*
X11447Y8166D01*
X11448Y8168D01*
X11449Y8172D01*
X11450Y8175D01*
X11450Y8178D01*
X11450Y8181D01*
X11449Y8184D01*
X11448Y8188D01*
X11447Y8190D01*
X11445Y8193D01*
X11443Y8196D01*
X11440Y8198D01*
X11438Y8200D01*
X11435Y8201D01*
X11431Y8202D01*
X11428Y8203D01*
X11425Y8203D01*
Y8153D02*
Y8078D01*
Y8203D02*
Y8278D01*
X11825D02*
Y8078D01*
Y8278D02*
X11425D01*
Y8078D02*
X11825D01*
X9725Y8153D02*
X9728Y8153D01*
X9731Y8154D01*
X9735Y8155D01*
X9738Y8156D01*
X9740Y8158D01*
X9743Y8160D01*
X9745Y8163D01*
X9747Y8166D01*
X9748Y8168D01*
X9749Y8172D01*
X9750Y8175D01*
X9750Y8178D01*
X9750Y8181D01*
X9749Y8184D01*
X9748Y8188D01*
X9747Y8190D01*
X9745Y8193D01*
X9743Y8196D01*
X9740Y8198D01*
X9738Y8200D01*
X9735Y8201D01*
X9731Y8202D01*
X9728Y8203D01*
X9725Y8203D01*
Y8153D02*
Y8078D01*
Y8203D02*
Y8278D01*
X10725D02*
Y8078D01*
Y8278D02*
X9725D01*
Y8078D02*
X10725D01*
X7750Y7653D02*
X7753Y7653D01*
X7756Y7652D01*
X7760Y7651D01*
X7762Y7650D01*
X7765Y7648D01*
X7768Y7646D01*
X7770Y7643D01*
X7772Y7640D01*
X7773Y7638D01*
X7774Y7634D01*
X7775Y7631D01*
X7775Y7628D01*
X7775Y7625D01*
X7774Y7622D01*
X7773Y7618D01*
X7772Y7616D01*
X7770Y7613D01*
X7768Y7610D01*
X7765Y7608D01*
X7762Y7606D01*
X7760Y7605D01*
X7756Y7604D01*
X7753Y7603D01*
X7750Y7603D01*
Y7528D01*
Y7653D02*
Y7728D01*
X8550D02*
Y7528D01*
Y7728D02*
X7750D01*
Y7528D02*
X8550D01*
X8625Y8153D02*
X8628Y8153D01*
X8631Y8154D01*
X8635Y8155D01*
X8638Y8156D01*
X8640Y8158D01*
X8643Y8160D01*
X8645Y8163D01*
X8647Y8166D01*
X8648Y8168D01*
X8649Y8172D01*
X8650Y8175D01*
X8650Y8178D01*
X8650Y8181D01*
X8649Y8184D01*
X8648Y8188D01*
X8647Y8190D01*
X8645Y8193D01*
X8643Y8196D01*
X8640Y8198D01*
X8638Y8200D01*
X8635Y8201D01*
X8631Y8202D01*
X8628Y8203D01*
X8625Y8203D01*
Y8153D02*
Y8078D01*
Y8203D02*
Y8278D01*
X9625D02*
Y8078D01*
Y8278D02*
X8625D01*
Y8078D02*
X9625D01*
X5900Y8778D02*
X5903Y8778D01*
X5906Y8779D01*
X5910Y8780D01*
X5912Y8781D01*
X5915Y8783D01*
X5918Y8785D01*
X5920Y8788D01*
X5922Y8790D01*
X5923Y8793D01*
X5924Y8797D01*
X5925Y8800D01*
X5925Y8803D01*
X5925Y8806D01*
X5924Y8809D01*
X5923Y8813D01*
X5922Y8816D01*
X5920Y8818D01*
X5918Y8821D01*
X5915Y8823D01*
X5912Y8825D01*
X5910Y8826D01*
X5906Y8827D01*
X5903Y8828D01*
X5900Y8828D01*
Y8778D02*
Y8703D01*
Y8828D02*
Y8903D01*
X6700D02*
Y8703D01*
Y8903D02*
X5900D01*
Y8703D02*
X6700D01*
X6850Y8778D02*
X6853Y8778D01*
X6856Y8779D01*
X6860Y8780D01*
X6862Y8781D01*
X6865Y8783D01*
X6868Y8785D01*
X6870Y8788D01*
X6872Y8790D01*
X6873Y8793D01*
X6874Y8797D01*
X6875Y8800D01*
X6875Y8803D01*
X6875Y8806D01*
X6874Y8809D01*
X6873Y8813D01*
X6872Y8816D01*
X6870Y8818D01*
X6868Y8821D01*
X6865Y8823D01*
X6862Y8825D01*
X6860Y8826D01*
X6856Y8827D01*
X6853Y8828D01*
X6850Y8828D01*
Y8778D02*
Y8703D01*
Y8828D02*
Y8903D01*
X7650D02*
Y8703D01*
Y8903D02*
X6850D01*
Y8703D02*
X7650D01*
X6300Y7453D02*
X6303Y7453D01*
X6306Y7452D01*
X6310Y7451D01*
X6312Y7450D01*
X6315Y7448D01*
X6318Y7446D01*
X6320Y7443D01*
X6322Y7440D01*
X6323Y7438D01*
X6324Y7434D01*
X6325Y7431D01*
X6325Y7428D01*
X6325Y7425D01*
X6324Y7422D01*
X6323Y7418D01*
X6322Y7416D01*
X6320Y7413D01*
X6318Y7410D01*
X6315Y7408D01*
X6312Y7406D01*
X6310Y7405D01*
X6306Y7404D01*
X6303Y7403D01*
X6300Y7403D01*
Y7328D01*
Y7453D02*
Y7528D01*
X7000D02*
Y7328D01*
Y7528D02*
X6300D01*
Y7328D02*
X7000D01*
X4900Y8778D02*
X4903Y8778D01*
X4906Y8779D01*
X4910Y8780D01*
X4912Y8781D01*
X4915Y8783D01*
X4918Y8785D01*
X4920Y8788D01*
X4922Y8790D01*
X4923Y8793D01*
X4924Y8797D01*
X4925Y8800D01*
X4925Y8803D01*
X4925Y8806D01*
X4924Y8809D01*
X4923Y8813D01*
X4922Y8816D01*
X4920Y8818D01*
X4918Y8821D01*
X4915Y8823D01*
X4912Y8825D01*
X4910Y8826D01*
X4906Y8827D01*
X4903Y8828D01*
X4900Y8828D01*
X5600Y8903D02*
Y8703D01*
X4900Y8828D02*
Y8903D01*
Y8778D02*
Y8703D01*
X5600D01*
Y8903D02*
X4900D01*
X5000Y7453D02*
X5003Y7453D01*
X5006Y7452D01*
X5010Y7451D01*
X5012Y7450D01*
X5015Y7448D01*
X5018Y7446D01*
X5020Y7443D01*
X5022Y7440D01*
X5023Y7438D01*
X5024Y7434D01*
X5025Y7431D01*
X5025Y7428D01*
X5025Y7425D01*
X5024Y7422D01*
X5023Y7418D01*
X5022Y7416D01*
X5020Y7413D01*
X5018Y7410D01*
X5015Y7408D01*
X5012Y7406D01*
X5010Y7405D01*
X5006Y7404D01*
X5003Y7403D01*
X5000Y7403D01*
Y7328D01*
Y7453D02*
Y7528D01*
X5700D02*
Y7328D01*
Y7528D02*
X5000D01*
Y7328D02*
X5700D01*
X5400Y8053D02*
X5403Y8053D01*
X5406Y8054D01*
X5410Y8055D01*
X5412Y8056D01*
X5415Y8058D01*
X5418Y8060D01*
X5420Y8063D01*
X5422Y8066D01*
X5423Y8068D01*
X5424Y8072D01*
X5425Y8075D01*
X5425Y8078D01*
X5425Y8081D01*
X5424Y8084D01*
X5423Y8088D01*
X5422Y8090D01*
X5420Y8093D01*
X5418Y8096D01*
X5415Y8098D01*
X5412Y8100D01*
X5410Y8101D01*
X5406Y8102D01*
X5403Y8103D01*
X5400Y8103D01*
Y8053D02*
Y7828D01*
Y8103D02*
Y8328D01*
X7400D02*
Y7828D01*
Y8328D02*
X5400D01*
Y7828D02*
X7400D01*
X4025Y8778D02*
X4028Y8778D01*
X4031Y8779D01*
X4035Y8780D01*
X4038Y8781D01*
X4040Y8783D01*
X4043Y8785D01*
X4045Y8788D01*
X4047Y8790D01*
X4048Y8793D01*
X4049Y8797D01*
X4050Y8800D01*
X4050Y8803D01*
X4050Y8806D01*
X4049Y8809D01*
X4048Y8813D01*
X4047Y8816D01*
X4045Y8818D01*
X4043Y8821D01*
X4040Y8823D01*
X4038Y8825D01*
X4035Y8826D01*
X4031Y8827D01*
X4028Y8828D01*
X4025Y8828D01*
Y8778D02*
Y8703D01*
Y8828D02*
Y8903D01*
X4725D02*
Y8703D01*
Y8903D02*
X4025D01*
Y8703D02*
X4725D01*
X3850Y8103D02*
X3853Y8103D01*
X3856Y8102D01*
X3860Y8101D01*
X3862Y8100D01*
X3865Y8098D01*
X3868Y8096D01*
X3870Y8093D01*
X3872Y8090D01*
X3873Y8088D01*
X3874Y8084D01*
X3875Y8081D01*
X3875Y8078D01*
X3875Y8075D01*
X3874Y8072D01*
X3873Y8068D01*
X3872Y8066D01*
X3870Y8063D01*
X3868Y8060D01*
X3865Y8058D01*
X3862Y8056D01*
X3860Y8055D01*
X3856Y8054D01*
X3853Y8053D01*
X3850Y8053D01*
Y7828D01*
Y8103D02*
Y8328D01*
X5250D02*
Y7828D01*
Y8328D02*
X3850D01*
Y7828D02*
X5250D01*
X3850Y7453D02*
X3853Y7453D01*
X3856Y7452D01*
X3860Y7451D01*
X3862Y7450D01*
X3865Y7448D01*
X3868Y7446D01*
X3870Y7443D01*
X3872Y7440D01*
X3873Y7438D01*
X3874Y7434D01*
X3875Y7431D01*
X3875Y7428D01*
X3875Y7425D01*
X3874Y7422D01*
X3873Y7418D01*
X3872Y7416D01*
X3870Y7413D01*
X3868Y7410D01*
X3865Y7408D01*
X3862Y7406D01*
X3860Y7405D01*
X3856Y7404D01*
X3853Y7403D01*
X3850Y7403D01*
Y7328D01*
Y7453D02*
Y7528D01*
X4850D02*
Y7328D01*
Y7528D02*
X3850D01*
Y7328D02*
X4850D01*
D14*
X13685Y6628D02*
X13702Y6645D01*
X13685Y6628D02*
Y6595D01*
X13702Y6578D01*
X13768D01*
X13785Y6595D01*
Y6628D01*
X13768Y6645D01*
X13685Y6678D02*
Y6745D01*
Y6711D01*
X13785D01*
Y6778D02*
X13685D01*
X13785D02*
Y6845D01*
Y6978D02*
Y7011D01*
Y6995D01*
X13685D01*
X13686D01*
X13685D02*
X13702Y6978D01*
X12717Y6590D02*
X12700Y6573D01*
Y6540D01*
X12717Y6523D01*
X12783D01*
X12800Y6540D01*
Y6573D01*
X12783Y6590D01*
X12700Y6623D02*
Y6690D01*
Y6656D01*
X12800D01*
Y6723D02*
X12700D01*
X12800D02*
Y6790D01*
Y6923D02*
Y6990D01*
Y6923D02*
X12733Y6990D01*
X12717D01*
X12700Y6973D01*
Y6940D01*
X12717Y6923D01*
X14690Y6413D02*
X14757D01*
X14790Y6446D01*
X14757Y6480D01*
X14690D01*
Y6513D02*
Y6580D01*
Y6513D02*
X14790D01*
Y6580D01*
X14740Y6546D02*
Y6513D01*
X14790Y6613D02*
X14690D01*
X14790D02*
Y6680D01*
X14690Y6730D02*
Y6763D01*
Y6730D02*
X14707Y6713D01*
X14773D01*
X14790Y6730D01*
Y6763D01*
X14773Y6780D01*
X14707D01*
X14690Y6763D01*
Y6863D02*
X14707Y6880D01*
X14690Y6863D02*
Y6830D01*
X14707Y6813D01*
X14773D01*
X14790Y6830D01*
Y6863D01*
X14773Y6880D01*
X14690Y6913D02*
Y6946D01*
Y6930D01*
X14790D01*
Y6913D01*
Y6946D01*
X14690Y6996D02*
Y7063D01*
Y7029D01*
X14790D01*
X14707Y7096D02*
X14690D01*
X14707D02*
X14740Y7129D01*
X14707Y7163D01*
X14690D01*
X14740Y7129D02*
X14790D01*
X5277Y9578D02*
X5210D01*
X5277Y9645D01*
Y9661D01*
X5260Y9678D01*
X5227D01*
X5210Y9661D01*
X5310D02*
X5327Y9678D01*
X5360D01*
X5377Y9661D01*
Y9595D01*
X5360Y9578D01*
X5327D01*
X5310Y9595D01*
Y9661D01*
X5410D02*
X5427Y9678D01*
X5460D01*
X5477Y9661D01*
Y9595D01*
X5460Y9578D01*
X5427D01*
X5410Y9595D01*
Y9661D01*
X5510Y9628D02*
X5577D01*
X5610Y9578D02*
X5643D01*
X5627D01*
Y9678D01*
X5628D01*
X5627D02*
X5610Y9661D01*
X5693D02*
X5710Y9678D01*
X5743D01*
X5760Y9661D01*
Y9595D01*
X5743Y9578D01*
X5710D01*
X5693Y9595D01*
Y9661D01*
X5793Y9578D02*
X5826D01*
X5810D01*
Y9678D01*
X5811D01*
X5810D02*
X5793Y9661D01*
X5876Y9678D02*
X5943D01*
Y9661D01*
X5876Y9595D01*
Y9578D01*
X5976Y9628D02*
X6043D01*
X6076Y9661D02*
X6093Y9678D01*
X6126D01*
X6143Y9661D01*
Y9595D01*
X6126Y9578D01*
X6093D01*
X6076Y9595D01*
Y9661D01*
X6176Y9678D02*
X6243D01*
X6176D02*
Y9628D01*
X6210Y9645D01*
X6226D01*
X6243Y9628D01*
Y9595D01*
X6226Y9578D01*
X6193D01*
X6176Y9595D01*
X6376Y9578D02*
Y9678D01*
X6426D01*
X6443Y9661D01*
Y9628D01*
X6426Y9611D01*
X6376D01*
X6410D02*
X6443Y9578D01*
X6476Y9678D02*
X6543D01*
X6476D02*
Y9578D01*
X6543D01*
X6510Y9628D02*
X6476D01*
X6576Y9611D02*
Y9678D01*
Y9611D02*
X6610Y9578D01*
X6643Y9611D01*
Y9678D01*
X6776D02*
Y9578D01*
X6843D02*
X6776Y9678D01*
X6843D02*
Y9578D01*
X6943Y9661D02*
X6926Y9678D01*
X6893D01*
X6876Y9661D01*
Y9595D01*
X6893Y9578D01*
X6926D01*
X6943Y9595D01*
X7126Y9678D02*
X7143Y9661D01*
X7126Y9678D02*
X7093D01*
X7076Y9661D01*
Y9595D01*
X7093Y9578D01*
X7126D01*
X7143Y9595D01*
X7193Y9678D02*
X7226D01*
X7193D02*
X7176Y9661D01*
Y9595D01*
X7193Y9578D01*
X7226D01*
X7243Y9595D01*
Y9661D01*
X7226Y9678D01*
X7276D02*
Y9578D01*
X7309Y9645D02*
X7276Y9678D01*
X7309Y9645D02*
X7343Y9678D01*
Y9578D01*
X7376D02*
Y9678D01*
X7426D01*
X7443Y9661D01*
Y9628D01*
X7426Y9611D01*
X7376D01*
X7493Y9678D02*
X7526D01*
X7493D02*
X7476Y9661D01*
Y9595D01*
X7493Y9578D01*
X7526D01*
X7543Y9595D01*
Y9661D01*
X7526Y9678D01*
X7576D02*
Y9578D01*
X7643D02*
X7576Y9678D01*
X7643D02*
Y9578D01*
X7676Y9678D02*
X7743D01*
X7676D02*
Y9578D01*
X7743D01*
X7709Y9628D02*
X7676D01*
X7776Y9578D02*
Y9678D01*
X7842Y9578D01*
Y9678D01*
X7876D02*
X7942D01*
X7909D01*
Y9578D01*
X8126Y9678D02*
X8142Y9661D01*
X8126Y9678D02*
X8092D01*
X8076Y9661D01*
Y9645D01*
X8092Y9628D01*
X8126D01*
X8142Y9611D01*
Y9595D01*
X8126Y9578D01*
X8092D01*
X8076Y9595D01*
X8176Y9678D02*
X8209D01*
X8192D01*
Y9578D01*
X8176D01*
X8209D01*
X8259D02*
Y9678D01*
Y9578D02*
X8309D01*
X8326Y9595D01*
Y9661D01*
X8309Y9678D01*
X8259D01*
X8359D02*
X8426D01*
X8359D02*
Y9578D01*
X8426D01*
X8392Y9628D02*
X8359D01*
X8559Y9578D02*
Y9678D01*
Y9578D02*
X8626D01*
X8659Y9678D02*
X8726D01*
X8659D02*
Y9578D01*
X8726D01*
X8692Y9628D02*
X8659D01*
X8809Y9678D02*
X8825Y9661D01*
X8809Y9678D02*
X8776D01*
X8759Y9661D01*
Y9595D01*
X8776Y9578D01*
X8809D01*
X8825Y9595D01*
Y9628D01*
X8792D01*
X8859Y9678D02*
X8925D01*
X8859D02*
Y9578D01*
X8925D01*
X8892Y9628D02*
X8859D01*
X8959Y9578D02*
Y9678D01*
X9025Y9578D01*
Y9678D01*
X9059D02*
Y9578D01*
X9109D01*
X9125Y9595D01*
Y9661D01*
X9109Y9678D01*
X9059D01*
X15740Y6428D02*
X15800D01*
X15740D02*
Y6458D01*
X15750Y6468D01*
X15770D01*
X15780Y6458D01*
Y6428D01*
X15740Y6488D02*
Y6508D01*
Y6498D01*
X15800D01*
Y6488D01*
Y6508D01*
X15740Y6538D02*
Y6578D01*
Y6558D01*
X15800D01*
X15740Y6628D02*
X15750Y6638D01*
X15740Y6628D02*
Y6608D01*
X15750Y6598D01*
X15790D01*
X15800Y6608D01*
Y6628D01*
X15790Y6638D01*
X15800Y6658D02*
X15740D01*
X15770D02*
X15800D01*
X15770D02*
Y6698D01*
X15740D01*
X15800D01*
X14925Y8193D02*
Y8233D01*
X14945Y8213D02*
X14905D01*
X14895Y8173D02*
Y8153D01*
Y8163D01*
X14955D01*
X14956D01*
X14955D02*
X14945Y8173D01*
X14955Y8123D02*
Y8083D01*
Y8123D02*
X14925D01*
X14935Y8103D01*
Y8093D01*
X14925Y8083D01*
X14905D01*
X14895Y8093D01*
Y8113D01*
X14905Y8123D01*
X15100Y8233D02*
X15110Y8223D01*
X15100Y8233D02*
X15080D01*
X15070Y8223D01*
Y8183D01*
X15080Y8173D01*
X15100D01*
X15110Y8183D01*
Y8203D01*
X15090D01*
X15130Y8173D02*
Y8233D01*
X15170Y8173D01*
Y8233D01*
X15190D02*
Y8173D01*
X15220D01*
X15230Y8183D01*
Y8223D01*
X15220Y8233D01*
X15190D01*
X15395Y8223D02*
Y8183D01*
X15365Y8163D02*
Y8143D01*
Y8153D01*
X15425D01*
X15426D01*
X15425D02*
X15415Y8163D01*
X15425Y8113D02*
Y8073D01*
Y8113D02*
X15395D01*
X15405Y8093D01*
Y8083D01*
X15395Y8073D01*
X15375D01*
X15365Y8083D01*
Y8103D01*
X15375Y8113D01*
X14595Y7783D02*
Y7723D01*
X14615Y7763D02*
X14595Y7783D01*
X14615Y7763D02*
X14635Y7783D01*
Y7723D01*
X14655Y7783D02*
X14675D01*
X14665D01*
Y7723D01*
X14655D01*
X14675D01*
X14705D02*
Y7783D01*
Y7723D02*
X14735D01*
X14745Y7733D01*
Y7773D01*
X14735Y7783D01*
X14705D01*
X14765D02*
X14785D01*
X14775D01*
Y7723D01*
X14765D01*
X14785D01*
X14815Y7753D02*
X14855D01*
X14875Y7723D02*
X14905Y7753D01*
X14875Y7783D01*
X14955D02*
X14965Y7773D01*
X14955Y7783D02*
X14935D01*
X14925Y7773D01*
Y7733D01*
X14935Y7723D01*
X14955D01*
X14965Y7733D01*
X14985Y7743D02*
Y7783D01*
Y7743D02*
X15005Y7723D01*
X15025Y7743D01*
Y7783D01*
X15135D02*
X15145Y7773D01*
X15135Y7783D02*
X15115D01*
X15105Y7773D01*
Y7733D01*
X15115Y7723D01*
X15135D01*
X15145Y7733D01*
X15175Y7783D02*
X15195D01*
X15175D02*
X15165Y7773D01*
Y7733D01*
X15175Y7723D01*
X15195D01*
X15205Y7733D01*
Y7773D01*
X15195Y7783D01*
X15225D02*
Y7723D01*
X15265D02*
X15225Y7783D01*
X15265D02*
Y7723D01*
X15285Y7743D02*
Y7783D01*
Y7743D02*
X15305Y7723D01*
X15325Y7743D01*
Y7783D01*
X15345D02*
X15385D01*
X15345D02*
Y7723D01*
X15385D01*
X15365Y7753D02*
X15345D01*
X15405Y7723D02*
Y7783D01*
X15435D01*
X15445Y7773D01*
Y7753D01*
X15435Y7743D01*
X15405D01*
X15425D02*
X15445Y7723D01*
X15465Y7783D02*
X15505D01*
X15485D01*
Y7723D01*
X15525Y7783D02*
X15565D01*
X15525D02*
Y7723D01*
X15565D01*
X15545Y7753D02*
X15525D01*
X15585Y7723D02*
Y7783D01*
X15615D01*
X15625Y7773D01*
Y7753D01*
X15615Y7743D01*
X15585D01*
X15605D02*
X15625Y7723D01*
X14640Y7638D02*
X14600D01*
X14640Y7678D01*
Y7688D01*
X14630Y7698D01*
X14610D01*
X14600Y7688D01*
X14660D02*
X14670Y7698D01*
X14690D01*
X14700Y7688D01*
Y7648D01*
X14690Y7638D01*
X14670D01*
X14660Y7648D01*
Y7688D01*
X14720D02*
X14730Y7698D01*
X14750D01*
X14760Y7688D01*
Y7648D01*
X14750Y7638D01*
X14730D01*
X14720Y7648D01*
Y7688D01*
X14780Y7668D02*
X14820D01*
X14840Y7638D02*
X14860D01*
X14850D01*
Y7698D01*
X14851D01*
X14850D02*
X14840Y7688D01*
X14890D02*
X14900Y7698D01*
X14920D01*
X14930Y7688D01*
Y7648D01*
X14920Y7638D01*
X14900D01*
X14890Y7648D01*
Y7688D01*
X14950Y7638D02*
X14970D01*
X14960D01*
Y7698D01*
X14961D01*
X14960D02*
X14950Y7688D01*
X15000Y7698D02*
X15040D01*
Y7688D01*
X15000Y7648D01*
Y7638D01*
X15120D02*
Y7698D01*
X15150D01*
X15160Y7688D01*
Y7668D01*
X15150Y7658D01*
X15120D01*
X15140D02*
X15160Y7638D01*
X15180Y7698D02*
X15220D01*
X15180D02*
Y7638D01*
X15220D01*
X15200Y7668D02*
X15180D01*
X15240Y7658D02*
Y7698D01*
Y7658D02*
X15260Y7638D01*
X15280Y7658D01*
Y7698D01*
X15360D02*
Y7638D01*
X15400D02*
X15360Y7698D01*
X15400D02*
Y7638D01*
X15420D02*
Y7648D01*
X15430D01*
Y7638D01*
X15420D01*
X15500Y7698D02*
X15510Y7688D01*
X15500Y7698D02*
X15480D01*
X15470Y7688D01*
Y7648D01*
X15480Y7638D01*
X15500D01*
X15510Y7648D01*
X15530D02*
Y7638D01*
Y7648D02*
X15540D01*
Y7638D01*
X15530D01*
X14620Y7588D02*
Y7548D01*
Y7588D02*
X14640Y7608D01*
X14660Y7588D01*
Y7548D01*
Y7578D01*
X14620D01*
X14740Y7548D02*
Y7608D01*
X14780Y7548D01*
Y7608D01*
X14810D02*
X14830D01*
X14810D02*
X14800Y7598D01*
Y7558D01*
X14810Y7548D01*
X14830D01*
X14840Y7558D01*
Y7598D01*
X14830Y7608D01*
X14920D02*
Y7548D01*
X14940Y7568D01*
X14960Y7548D01*
Y7608D01*
X14980D02*
X15000D01*
X14990D01*
Y7548D01*
X14980D01*
X15000D01*
X15030D02*
Y7608D01*
X15060D01*
X15070Y7598D01*
Y7578D01*
X15060Y7568D01*
X15030D01*
X15050D02*
X15070Y7548D01*
X15090Y7608D02*
X15130D01*
X15090D02*
Y7548D01*
X15130D01*
X15110Y7578D02*
X15090D01*
X15210Y7548D02*
Y7608D01*
X15230Y7588D01*
X15250Y7608D01*
Y7548D01*
X15280Y7608D02*
X15300D01*
X15280D02*
X15270Y7598D01*
Y7558D01*
X15280Y7548D01*
X15300D01*
X15310Y7558D01*
Y7598D01*
X15300Y7608D01*
X15330D02*
Y7548D01*
X15360D01*
X15370Y7558D01*
Y7598D01*
X15360Y7608D01*
X15330D01*
X15390D02*
Y7558D01*
X15400Y7548D01*
X15420D01*
X15430Y7558D01*
Y7608D01*
X15450D02*
Y7548D01*
X15490D01*
X15510Y7608D02*
X15550D01*
X15510D02*
Y7548D01*
X15550D01*
X15530Y7578D02*
X15510D01*
X9590Y6813D02*
X9490D01*
Y6863D01*
X9507Y6880D01*
X9540D01*
X9557Y6863D01*
Y6813D01*
Y6846D02*
X9590Y6880D01*
X9490Y6913D02*
Y6980D01*
Y6913D02*
X9590D01*
Y6980D01*
X9540Y6946D02*
Y6913D01*
X9490Y7063D02*
X9507Y7080D01*
X9490Y7063D02*
Y7030D01*
X9507Y7013D01*
X9523D01*
X9540Y7030D01*
Y7063D01*
X9557Y7080D01*
X9573D01*
X9590Y7063D01*
Y7030D01*
X9573Y7013D01*
X9490Y7113D02*
Y7180D01*
Y7113D02*
X9590D01*
Y7180D01*
X9540Y7146D02*
Y7113D01*
X9490Y7213D02*
Y7280D01*
Y7246D01*
X9590D01*
X7890Y8453D02*
X7870D01*
X7880D02*
X7890D01*
X7880D02*
Y8393D01*
X7870D01*
X7890D01*
X7920D02*
Y8453D01*
X7960Y8393D01*
Y8453D01*
X8070D02*
X8080Y8443D01*
X8070Y8453D02*
X8050D01*
X8040Y8443D01*
Y8403D01*
X8050Y8393D01*
X8070D01*
X8080Y8403D01*
X8100Y8453D02*
X8120D01*
X8110D01*
Y8393D01*
X8100D01*
X8120D01*
X8150D02*
Y8453D01*
X8180D01*
X8190Y8443D01*
Y8423D01*
X8180Y8413D01*
X8150D01*
X8170D02*
X8190Y8393D01*
X8250Y8443D02*
X8240Y8453D01*
X8220D01*
X8210Y8443D01*
Y8403D01*
X8220Y8393D01*
X8240D01*
X8250Y8403D01*
X8270D02*
Y8453D01*
Y8403D02*
X8280Y8393D01*
X8300D01*
X8310Y8403D01*
Y8453D01*
X8330D02*
X8350D01*
X8340D01*
Y8393D01*
X8330D01*
X8350D01*
X8380Y8453D02*
X8420D01*
X8400D01*
Y8393D01*
X7820Y8358D02*
Y8298D01*
Y8358D02*
X7850D01*
X7860Y8348D01*
Y8328D01*
X7850Y8318D01*
X7820D01*
X7880Y8298D02*
Y8358D01*
X7910D01*
X7920Y8348D01*
Y8328D01*
X7910Y8318D01*
X7880D01*
X7900D02*
X7920Y8298D01*
X7950Y8358D02*
X7970D01*
X7950D02*
X7940Y8348D01*
Y8308D01*
X7950Y8298D01*
X7970D01*
X7980Y8308D01*
Y8348D01*
X7970Y8358D01*
X8030D02*
X8040Y8348D01*
X8030Y8358D02*
X8010D01*
X8000Y8348D01*
Y8308D01*
X8010Y8298D01*
X8030D01*
X8040Y8308D01*
Y8328D01*
X8020D01*
X8060Y8298D02*
Y8358D01*
X8090D01*
X8100Y8348D01*
Y8328D01*
X8090Y8318D01*
X8060D01*
X8080D02*
X8100Y8298D01*
X8120D02*
Y8338D01*
X8140Y8358D01*
X8160Y8338D01*
Y8298D01*
Y8328D01*
X8120D01*
X8180Y8298D02*
Y8358D01*
X8200Y8338D01*
X8220Y8358D01*
Y8298D01*
X8240D02*
Y8358D01*
X8260Y8338D01*
X8280Y8358D01*
Y8298D01*
X8300Y8358D02*
X8320D01*
X8310D01*
Y8298D01*
X8300D01*
X8320D01*
X8350D02*
Y8358D01*
X8390Y8298D01*
Y8358D01*
X8440D02*
X8450Y8348D01*
X8440Y8358D02*
X8420D01*
X8410Y8348D01*
Y8308D01*
X8420Y8298D01*
X8440D01*
X8450Y8308D01*
Y8328D01*
X8430D01*
X9060Y8468D02*
X9070Y8458D01*
X9060Y8468D02*
X9040D01*
X9030Y8458D01*
Y8418D01*
X9040Y8408D01*
X9060D01*
X9070Y8418D01*
Y8438D01*
X9050D01*
X9090Y8448D02*
Y8408D01*
Y8448D02*
X9110Y8468D01*
X9130Y8448D01*
Y8408D01*
Y8438D01*
X9090D01*
X9150Y8468D02*
X9190D01*
X9170D01*
Y8408D01*
X9210Y8468D02*
X9250D01*
X9210D02*
Y8408D01*
X9250D01*
X9230Y8438D02*
X9210D01*
X9300Y8468D02*
X9310Y8458D01*
X9300Y8468D02*
X9280D01*
X9270Y8458D01*
Y8448D01*
X9280Y8438D01*
X9300D01*
X9310Y8428D01*
Y8418D01*
X9300Y8408D01*
X9280D01*
X9270Y8418D01*
X13620Y8463D02*
X13630Y8453D01*
X13620Y8463D02*
X13600D01*
X13590Y8453D01*
Y8413D01*
X13600Y8403D01*
X13620D01*
X13630Y8413D01*
X13650Y8423D02*
Y8463D01*
Y8423D02*
X13670Y8403D01*
X13690Y8423D01*
Y8463D01*
X15825Y8528D02*
Y8928D01*
X16025D02*
Y8528D01*
X15925D02*
Y8508D01*
Y8928D02*
Y8948D01*
X15825Y8528D02*
X16025D01*
Y8928D02*
X15825D01*
X16125D02*
Y8528D01*
X16325D02*
Y8928D01*
X16225Y8528D02*
Y8508D01*
Y8928D02*
Y8948D01*
X16125Y8528D02*
X16325D01*
Y8928D02*
X16125D01*
X16325Y7828D02*
Y7428D01*
X16125D02*
Y7828D01*
X16225D02*
Y7848D01*
Y7428D02*
Y7408D01*
X16125Y7828D02*
X16325D01*
Y7428D02*
X16125D01*
X16025D02*
Y7828D01*
X15825D02*
Y7428D01*
X15925Y7828D02*
Y7848D01*
Y7428D02*
Y7408D01*
X15825Y7828D02*
X16025D01*
Y7428D02*
X15825D01*
X16325Y7278D02*
X16475Y7128D01*
X15975Y7278D02*
X15825Y7128D01*
Y6306D01*
X16475D02*
Y7128D01*
X16335Y6303D02*
Y6023D01*
X15965D02*
Y6303D01*
X15975Y7278D02*
X16325D01*
X16475Y6306D02*
X15825D01*
X15965Y6023D02*
X16335D01*
X15475Y7128D02*
X15325Y7278D01*
X14975D02*
X14825Y7128D01*
Y6306D01*
X15475D02*
Y7128D01*
X15335Y6303D02*
Y6023D01*
X14965D02*
Y6303D01*
X14975Y7278D02*
X15325D01*
X15475Y6306D02*
X14825D01*
X14965Y6023D02*
X15335D01*
X14475Y7128D02*
X14325Y7278D01*
X13975D02*
X13825Y7128D01*
Y6306D01*
X14475D02*
Y7128D01*
X14335Y6303D02*
Y6023D01*
X13965D02*
Y6303D01*
X13975Y7278D02*
X14325D01*
X14475Y6306D02*
X13825D01*
X13965Y6023D02*
X14335D01*
X12175Y8528D02*
Y8928D01*
X12375D02*
Y8528D01*
X12275D02*
Y8508D01*
Y8928D02*
Y8948D01*
X12175Y8528D02*
X12375D01*
Y8928D02*
X12175D01*
X12475D02*
Y8528D01*
X12675D02*
Y8928D01*
X12575Y8528D02*
Y8508D01*
Y8928D02*
Y8948D01*
X12475Y8528D02*
X12675D01*
Y8928D02*
X12475D01*
X12375Y7828D02*
Y7428D01*
X12175D02*
Y7828D01*
X12275D02*
Y7848D01*
Y7428D02*
Y7408D01*
X12175Y7828D02*
X12375D01*
Y7428D02*
X12175D01*
X12675D02*
Y7828D01*
X12475D02*
Y7428D01*
X12575Y7828D02*
Y7848D01*
Y7428D02*
Y7408D01*
X12475Y7828D02*
X12675D01*
Y7428D02*
X12475D01*
X13325Y7278D02*
X13475Y7128D01*
X12975Y7278D02*
X12825Y7128D01*
Y6306D01*
X13475D02*
Y7128D01*
X13335Y6303D02*
Y6023D01*
X12965D02*
Y6303D01*
X12975Y7278D02*
X13325D01*
X13475Y6306D02*
X12825D01*
X12965Y6023D02*
X13335D01*
X12475Y7128D02*
X12325Y7278D01*
X11975D02*
X11825Y7128D01*
Y6306D01*
X12475D02*
Y7128D01*
X12335Y6303D02*
Y6023D01*
X11965D02*
Y6303D01*
X11975Y7278D02*
X12325D01*
X12475Y6306D02*
X11825D01*
X11965Y6023D02*
X12335D01*
X11025Y8378D02*
Y9078D01*
X11225D02*
Y8378D01*
X11075Y9078D02*
Y9128D01*
X11175D02*
Y9078D01*
X11225Y8378D02*
X11025D01*
Y9078D02*
X11225D01*
X11175Y9128D02*
X11075D01*
X11525Y8828D02*
X11575Y8778D01*
X11525Y8928D02*
X11575Y8978D01*
X11675D02*
Y8778D01*
X11525Y8828D02*
Y8928D01*
X11575Y8778D02*
X11675D01*
Y8978D02*
X11575D01*
X11325Y7278D02*
X11475Y7128D01*
X10975Y7278D02*
X10825Y7128D01*
Y6306D01*
X11475D02*
Y7128D01*
X11335Y6303D02*
Y6023D01*
X10965D02*
Y6303D01*
X10975Y7278D02*
X11325D01*
X11475Y6306D02*
X10825D01*
X10965Y6023D02*
X11335D01*
X10750Y6453D02*
X10750Y6450D01*
X10750Y6446D01*
X10750Y6443D01*
X10749Y6440D01*
X10749Y6436D01*
X10748Y6433D01*
X10747Y6430D01*
X10746Y6427D01*
X10746Y6424D01*
X10745Y6420D01*
X10743Y6417D01*
X10742Y6414D01*
X10741Y6411D01*
X10739Y6408D01*
X10738Y6405D01*
X10736Y6402D01*
X10734Y6399D01*
X10733Y6397D01*
X10731Y6394D01*
X10729Y6391D01*
X10727Y6389D01*
X10724Y6386D01*
X10722Y6384D01*
X10720Y6381D01*
X10717Y6379D01*
X10715Y6377D01*
X10712Y6375D01*
X10710Y6373D01*
X10707Y6371D01*
X10704Y6369D01*
X10701Y6367D01*
X10699Y6366D01*
X10696Y6364D01*
X10693Y6363D01*
X10690Y6361D01*
X10687Y6360D01*
X10683Y6359D01*
X10680Y6358D01*
X10677Y6357D01*
X10674Y6356D01*
X10671Y6355D01*
X10667Y6355D01*
X10664Y6354D01*
X10661Y6354D01*
X10657Y6353D01*
X10654Y6353D01*
X10651Y6353D01*
X10648Y6353D01*
X10644Y6353D01*
X10641Y6353D01*
X10638Y6354D01*
X10634Y6354D01*
X10631Y6355D01*
X10628Y6356D01*
X10625Y6356D01*
X10621Y6357D01*
X10618Y6358D01*
X10615Y6359D01*
X10612Y6361D01*
X10609Y6362D01*
X10606Y6363D01*
X10603Y6365D01*
X10600Y6366D01*
X10597Y6368D01*
X10594Y6370D01*
X10592Y6372D01*
X10589Y6374D01*
X10586Y6376D01*
X10584Y6378D01*
X10581Y6380D01*
X10579Y6383D01*
X10577Y6385D01*
X10574Y6387D01*
X10572Y6390D01*
X10570Y6393D01*
X10568Y6395D01*
X10566Y6398D01*
X10565Y6401D01*
X10563Y6404D01*
X10561Y6407D01*
X10560Y6410D01*
X10559Y6413D01*
X10557Y6416D01*
X10556Y6419D01*
X10555Y6422D01*
X10554Y6425D01*
X10553Y6428D01*
X10552Y6432D01*
X10552Y6435D01*
X10551Y6438D01*
X10551Y6441D01*
X10550Y6445D01*
X10550Y6448D01*
X10550Y6451D01*
Y6455D01*
X10550Y6458D01*
X10550Y6461D01*
X10551Y6465D01*
X10551Y6468D01*
X10552Y6471D01*
X10552Y6474D01*
X10553Y6478D01*
X10554Y6481D01*
X10555Y6484D01*
X10556Y6487D01*
X10557Y6490D01*
X10559Y6493D01*
X10560Y6496D01*
X10561Y6499D01*
X10563Y6502D01*
X10565Y6505D01*
X10566Y6508D01*
X10568Y6511D01*
X10570Y6513D01*
X10572Y6516D01*
X10574Y6519D01*
X10577Y6521D01*
X10579Y6523D01*
X10581Y6526D01*
X10584Y6528D01*
X10586Y6530D01*
X10589Y6532D01*
X10592Y6534D01*
X10594Y6536D01*
X10597Y6538D01*
X10600Y6540D01*
X10603Y6541D01*
X10606Y6543D01*
X10609Y6544D01*
X10612Y6545D01*
X10615Y6547D01*
X10618Y6548D01*
X10621Y6549D01*
X10625Y6550D01*
X10628Y6550D01*
X10631Y6551D01*
X10634Y6552D01*
X10638Y6552D01*
X10641Y6553D01*
X10644Y6553D01*
X10648Y6553D01*
X10651Y6553D01*
X10654Y6553D01*
X10657Y6553D01*
X10661Y6552D01*
X10664Y6552D01*
X10667Y6551D01*
X10671Y6551D01*
X10674Y6550D01*
X10677Y6549D01*
X10680Y6548D01*
X10683Y6547D01*
X10687Y6546D01*
X10690Y6545D01*
X10693Y6543D01*
X10696Y6542D01*
X10699Y6540D01*
X10701Y6539D01*
X10704Y6537D01*
X10707Y6535D01*
X10710Y6533D01*
X10712Y6531D01*
X10715Y6529D01*
X10717Y6527D01*
X10720Y6525D01*
X10722Y6522D01*
X10724Y6520D01*
X10727Y6517D01*
X10729Y6515D01*
X10731Y6512D01*
X10733Y6509D01*
X10734Y6507D01*
X10736Y6504D01*
X10738Y6501D01*
X10739Y6498D01*
X10741Y6495D01*
X10742Y6492D01*
X10743Y6489D01*
X10745Y6486D01*
X10746Y6482D01*
X10746Y6479D01*
X10747Y6476D01*
X10748Y6473D01*
X10749Y6470D01*
X10749Y6466D01*
X10750Y6463D01*
X10750Y6460D01*
X10750Y6456D01*
X10750Y6453D01*
X10550Y6378D02*
Y6528D01*
X11750Y6453D02*
X11750Y6450D01*
X11750Y6446D01*
X11750Y6443D01*
X11749Y6440D01*
X11749Y6436D01*
X11748Y6433D01*
X11747Y6430D01*
X11746Y6427D01*
X11746Y6424D01*
X11745Y6420D01*
X11743Y6417D01*
X11742Y6414D01*
X11741Y6411D01*
X11739Y6408D01*
X11738Y6405D01*
X11736Y6402D01*
X11734Y6399D01*
X11733Y6397D01*
X11731Y6394D01*
X11729Y6391D01*
X11727Y6389D01*
X11724Y6386D01*
X11722Y6384D01*
X11720Y6381D01*
X11717Y6379D01*
X11715Y6377D01*
X11712Y6375D01*
X11710Y6373D01*
X11707Y6371D01*
X11704Y6369D01*
X11701Y6367D01*
X11699Y6366D01*
X11696Y6364D01*
X11693Y6363D01*
X11690Y6361D01*
X11687Y6360D01*
X11683Y6359D01*
X11680Y6358D01*
X11677Y6357D01*
X11674Y6356D01*
X11671Y6355D01*
X11667Y6355D01*
X11664Y6354D01*
X11661Y6354D01*
X11657Y6353D01*
X11654Y6353D01*
X11651Y6353D01*
X11648Y6353D01*
X11644Y6353D01*
X11641Y6353D01*
X11638Y6354D01*
X11634Y6354D01*
X11631Y6355D01*
X11628Y6356D01*
X11625Y6356D01*
X11621Y6357D01*
X11618Y6358D01*
X11615Y6359D01*
X11612Y6361D01*
X11609Y6362D01*
X11606Y6363D01*
X11603Y6365D01*
X11600Y6366D01*
X11597Y6368D01*
X11594Y6370D01*
X11592Y6372D01*
X11589Y6374D01*
X11586Y6376D01*
X11584Y6378D01*
X11581Y6380D01*
X11579Y6383D01*
X11577Y6385D01*
X11574Y6387D01*
X11572Y6390D01*
X11570Y6393D01*
X11568Y6395D01*
X11566Y6398D01*
X11565Y6401D01*
X11563Y6404D01*
X11561Y6407D01*
X11560Y6410D01*
X11559Y6413D01*
X11557Y6416D01*
X11556Y6419D01*
X11555Y6422D01*
X11554Y6425D01*
X11553Y6428D01*
X11552Y6432D01*
X11552Y6435D01*
X11551Y6438D01*
X11551Y6441D01*
X11550Y6445D01*
X11550Y6448D01*
X11550Y6451D01*
Y6455D01*
X11550Y6458D01*
X11550Y6461D01*
X11551Y6465D01*
X11551Y6468D01*
X11552Y6471D01*
X11552Y6474D01*
X11553Y6478D01*
X11554Y6481D01*
X11555Y6484D01*
X11556Y6487D01*
X11557Y6490D01*
X11559Y6493D01*
X11560Y6496D01*
X11561Y6499D01*
X11563Y6502D01*
X11565Y6505D01*
X11566Y6508D01*
X11568Y6511D01*
X11570Y6513D01*
X11572Y6516D01*
X11574Y6519D01*
X11577Y6521D01*
X11579Y6523D01*
X11581Y6526D01*
X11584Y6528D01*
X11586Y6530D01*
X11589Y6532D01*
X11592Y6534D01*
X11594Y6536D01*
X11597Y6538D01*
X11600Y6540D01*
X11603Y6541D01*
X11606Y6543D01*
X11609Y6544D01*
X11612Y6545D01*
X11615Y6547D01*
X11618Y6548D01*
X11621Y6549D01*
X11625Y6550D01*
X11628Y6550D01*
X11631Y6551D01*
X11634Y6552D01*
X11638Y6552D01*
X11641Y6553D01*
X11644Y6553D01*
X11648Y6553D01*
X11651Y6553D01*
X11654Y6553D01*
X11657Y6553D01*
X11661Y6552D01*
X11664Y6552D01*
X11667Y6551D01*
X11671Y6551D01*
X11674Y6550D01*
X11677Y6549D01*
X11680Y6548D01*
X11683Y6547D01*
X11687Y6546D01*
X11690Y6545D01*
X11693Y6543D01*
X11696Y6542D01*
X11699Y6540D01*
X11701Y6539D01*
X11704Y6537D01*
X11707Y6535D01*
X11710Y6533D01*
X11712Y6531D01*
X11715Y6529D01*
X11717Y6527D01*
X11720Y6525D01*
X11722Y6522D01*
X11724Y6520D01*
X11727Y6517D01*
X11729Y6515D01*
X11731Y6512D01*
X11733Y6509D01*
X11734Y6507D01*
X11736Y6504D01*
X11738Y6501D01*
X11739Y6498D01*
X11741Y6495D01*
X11742Y6492D01*
X11743Y6489D01*
X11745Y6486D01*
X11746Y6482D01*
X11746Y6479D01*
X11747Y6476D01*
X11748Y6473D01*
X11749Y6470D01*
X11749Y6466D01*
X11750Y6463D01*
X11750Y6460D01*
X11750Y6456D01*
X11750Y6453D01*
X11550Y6378D02*
Y6528D01*
X10930Y8803D02*
X10930Y8800D01*
X10930Y8796D01*
X10929Y8793D01*
X10929Y8790D01*
X10928Y8786D01*
X10927Y8783D01*
X10927Y8780D01*
X10926Y8777D01*
X10924Y8774D01*
X10923Y8770D01*
X10922Y8767D01*
X10920Y8764D01*
X10918Y8762D01*
X10917Y8759D01*
X10915Y8756D01*
X10913Y8753D01*
X10911Y8751D01*
X10908Y8748D01*
X10906Y8746D01*
X10904Y8744D01*
X10901Y8741D01*
X10898Y8739D01*
X10896Y8737D01*
X10893Y8735D01*
X10890Y8734D01*
X10887Y8732D01*
X10884Y8731D01*
X10881Y8729D01*
X10878Y8728D01*
X10875Y8727D01*
X10872Y8726D01*
X10868Y8725D01*
X10865Y8724D01*
X10862Y8724D01*
X10858Y8723D01*
X10855Y8723D01*
X10852Y8723D01*
X10848D01*
X10845Y8723D01*
X10842Y8723D01*
X10838Y8724D01*
X10835Y8724D01*
X10832Y8725D01*
X10828Y8726D01*
X10825Y8727D01*
X10822Y8728D01*
X10819Y8729D01*
X10816Y8731D01*
X10813Y8732D01*
X10810Y8734D01*
X10807Y8735D01*
X10804Y8737D01*
X10802Y8739D01*
X10799Y8741D01*
X10796Y8744D01*
X10794Y8746D01*
X10792Y8748D01*
X10789Y8751D01*
X10787Y8753D01*
X10785Y8756D01*
X10783Y8759D01*
X10782Y8762D01*
X10780Y8764D01*
X10778Y8767D01*
X10777Y8770D01*
X10776Y8774D01*
X10774Y8777D01*
X10773Y8780D01*
X10773Y8783D01*
X10772Y8786D01*
X10771Y8790D01*
X10771Y8793D01*
X10770Y8796D01*
X10770Y8800D01*
X10770Y8803D01*
X10770Y8806D01*
X10770Y8810D01*
X10771Y8813D01*
X10771Y8816D01*
X10772Y8820D01*
X10773Y8823D01*
X10773Y8826D01*
X10774Y8829D01*
X10776Y8832D01*
X10777Y8836D01*
X10778Y8839D01*
X10780Y8842D01*
X10782Y8844D01*
X10783Y8847D01*
X10785Y8850D01*
X10787Y8853D01*
X10789Y8855D01*
X10792Y8858D01*
X10794Y8860D01*
X10796Y8862D01*
X10799Y8865D01*
X10802Y8867D01*
X10804Y8869D01*
X10807Y8871D01*
X10810Y8872D01*
X10813Y8874D01*
X10816Y8875D01*
X10819Y8877D01*
X10822Y8878D01*
X10825Y8879D01*
X10828Y8880D01*
X10832Y8881D01*
X10835Y8882D01*
X10838Y8882D01*
X10842Y8883D01*
X10845Y8883D01*
X10848Y8883D01*
X10852D01*
X10855Y8883D01*
X10858Y8883D01*
X10862Y8882D01*
X10865Y8882D01*
X10868Y8881D01*
X10872Y8880D01*
X10875Y8879D01*
X10878Y8878D01*
X10881Y8877D01*
X10884Y8875D01*
X10887Y8874D01*
X10890Y8872D01*
X10893Y8871D01*
X10896Y8869D01*
X10898Y8867D01*
X10901Y8865D01*
X10904Y8862D01*
X10906Y8860D01*
X10908Y8858D01*
X10911Y8855D01*
X10913Y8853D01*
X10915Y8850D01*
X10917Y8847D01*
X10918Y8844D01*
X10920Y8842D01*
X10922Y8839D01*
X10923Y8836D01*
X10924Y8832D01*
X10926Y8829D01*
X10927Y8826D01*
X10927Y8823D01*
X10928Y8820D01*
X10929Y8816D01*
X10929Y8813D01*
X10930Y8810D01*
X10930Y8806D01*
X10930Y8803D01*
X10075Y8753D02*
X10075Y8750D01*
X10075Y8746D01*
X10075Y8743D01*
X10074Y8740D01*
X10074Y8736D01*
X10073Y8733D01*
X10072Y8730D01*
X10071Y8727D01*
X10071Y8724D01*
X10070Y8720D01*
X10068Y8717D01*
X10067Y8714D01*
X10066Y8711D01*
X10064Y8708D01*
X10063Y8705D01*
X10061Y8702D01*
X10059Y8699D01*
X10058Y8697D01*
X10056Y8694D01*
X10054Y8691D01*
X10052Y8689D01*
X10049Y8686D01*
X10047Y8684D01*
X10045Y8681D01*
X10042Y8679D01*
X10040Y8677D01*
X10037Y8675D01*
X10035Y8673D01*
X10032Y8671D01*
X10029Y8669D01*
X10026Y8667D01*
X10024Y8666D01*
X10021Y8664D01*
X10018Y8663D01*
X10015Y8661D01*
X10012Y8660D01*
X10008Y8659D01*
X10005Y8658D01*
X10002Y8657D01*
X9999Y8656D01*
X9996Y8655D01*
X9992Y8655D01*
X9989Y8654D01*
X9986Y8654D01*
X9982Y8653D01*
X9979Y8653D01*
X9976Y8653D01*
X9973Y8653D01*
X9969Y8653D01*
X9966Y8653D01*
X9963Y8654D01*
X9959Y8654D01*
X9956Y8655D01*
X9953Y8656D01*
X9950Y8656D01*
X9946Y8657D01*
X9943Y8658D01*
X9940Y8659D01*
X9937Y8661D01*
X9934Y8662D01*
X9931Y8663D01*
X9928Y8665D01*
X9925Y8666D01*
X9922Y8668D01*
X9919Y8670D01*
X9917Y8672D01*
X9914Y8674D01*
X9911Y8676D01*
X9909Y8678D01*
X9906Y8680D01*
X9904Y8683D01*
X9902Y8685D01*
X9899Y8687D01*
X9897Y8690D01*
X9895Y8693D01*
X9893Y8695D01*
X9891Y8698D01*
X9890Y8701D01*
X9888Y8704D01*
X9886Y8707D01*
X9885Y8710D01*
X9884Y8713D01*
X9882Y8716D01*
X9881Y8719D01*
X9880Y8722D01*
X9879Y8725D01*
X9878Y8728D01*
X9877Y8732D01*
X9877Y8735D01*
X9876Y8738D01*
X9876Y8741D01*
X9875Y8745D01*
X9875Y8748D01*
X9875Y8751D01*
Y8755D01*
X9875Y8758D01*
X9875Y8761D01*
X9876Y8765D01*
X9876Y8768D01*
X9877Y8771D01*
X9877Y8774D01*
X9878Y8778D01*
X9879Y8781D01*
X9880Y8784D01*
X9881Y8787D01*
X9882Y8790D01*
X9884Y8793D01*
X9885Y8796D01*
X9886Y8799D01*
X9888Y8802D01*
X9890Y8805D01*
X9891Y8808D01*
X9893Y8811D01*
X9895Y8813D01*
X9897Y8816D01*
X9899Y8819D01*
X9902Y8821D01*
X9904Y8823D01*
X9906Y8826D01*
X9909Y8828D01*
X9911Y8830D01*
X9914Y8832D01*
X9917Y8834D01*
X9919Y8836D01*
X9922Y8838D01*
X9925Y8840D01*
X9928Y8841D01*
X9931Y8843D01*
X9934Y8844D01*
X9937Y8845D01*
X9940Y8847D01*
X9943Y8848D01*
X9946Y8849D01*
X9950Y8850D01*
X9953Y8850D01*
X9956Y8851D01*
X9959Y8852D01*
X9963Y8852D01*
X9966Y8853D01*
X9969Y8853D01*
X9973Y8853D01*
X9976Y8853D01*
X9979Y8853D01*
X9982Y8853D01*
X9986Y8852D01*
X9989Y8852D01*
X9992Y8851D01*
X9996Y8851D01*
X9999Y8850D01*
X10002Y8849D01*
X10005Y8848D01*
X10008Y8847D01*
X10012Y8846D01*
X10015Y8845D01*
X10018Y8843D01*
X10021Y8842D01*
X10024Y8840D01*
X10026Y8839D01*
X10029Y8837D01*
X10032Y8835D01*
X10035Y8833D01*
X10037Y8831D01*
X10040Y8829D01*
X10042Y8827D01*
X10045Y8825D01*
X10047Y8822D01*
X10049Y8820D01*
X10052Y8817D01*
X10054Y8815D01*
X10056Y8812D01*
X10058Y8809D01*
X10059Y8807D01*
X10061Y8804D01*
X10063Y8801D01*
X10064Y8798D01*
X10066Y8795D01*
X10067Y8792D01*
X10068Y8789D01*
X10070Y8786D01*
X10071Y8782D01*
X10071Y8779D01*
X10072Y8776D01*
X10073Y8773D01*
X10074Y8770D01*
X10074Y8766D01*
X10075Y8763D01*
X10075Y8760D01*
X10075Y8756D01*
X10075Y8753D01*
X10050Y8668D02*
Y8618D01*
X10025Y8643D02*
X10075D01*
X10325Y7278D02*
X10475Y7128D01*
X9975Y7278D02*
X9825Y7128D01*
Y6306D01*
X10475D02*
Y7128D01*
X10335Y6303D02*
Y6023D01*
X9965D02*
Y6303D01*
X9975Y7278D02*
X10325D01*
X10475Y6306D02*
X9825D01*
X9965Y6023D02*
X10335D01*
X9475Y7128D02*
X9325Y7278D01*
X8975D02*
X8825Y7128D01*
Y6306D01*
X9475D02*
Y7128D01*
X9335Y6303D02*
Y6023D01*
X8965D02*
Y6303D01*
X8975Y7278D02*
X9325D01*
X9475Y6306D02*
X8825D01*
X8965Y6023D02*
X9335D01*
X9750Y6453D02*
X9750Y6450D01*
X9750Y6446D01*
X9750Y6443D01*
X9749Y6440D01*
X9749Y6436D01*
X9748Y6433D01*
X9747Y6430D01*
X9746Y6427D01*
X9746Y6424D01*
X9745Y6420D01*
X9743Y6417D01*
X9742Y6414D01*
X9741Y6411D01*
X9739Y6408D01*
X9738Y6405D01*
X9736Y6402D01*
X9734Y6399D01*
X9733Y6397D01*
X9731Y6394D01*
X9729Y6391D01*
X9727Y6389D01*
X9724Y6386D01*
X9722Y6384D01*
X9720Y6381D01*
X9717Y6379D01*
X9715Y6377D01*
X9712Y6375D01*
X9710Y6373D01*
X9707Y6371D01*
X9704Y6369D01*
X9701Y6367D01*
X9699Y6366D01*
X9696Y6364D01*
X9693Y6363D01*
X9690Y6361D01*
X9687Y6360D01*
X9683Y6359D01*
X9680Y6358D01*
X9677Y6357D01*
X9674Y6356D01*
X9671Y6355D01*
X9667Y6355D01*
X9664Y6354D01*
X9661Y6354D01*
X9657Y6353D01*
X9654Y6353D01*
X9651Y6353D01*
X9648Y6353D01*
X9644Y6353D01*
X9641Y6353D01*
X9638Y6354D01*
X9634Y6354D01*
X9631Y6355D01*
X9628Y6356D01*
X9625Y6356D01*
X9621Y6357D01*
X9618Y6358D01*
X9615Y6359D01*
X9612Y6361D01*
X9609Y6362D01*
X9606Y6363D01*
X9603Y6365D01*
X9600Y6366D01*
X9597Y6368D01*
X9594Y6370D01*
X9592Y6372D01*
X9589Y6374D01*
X9586Y6376D01*
X9584Y6378D01*
X9581Y6380D01*
X9579Y6383D01*
X9577Y6385D01*
X9574Y6387D01*
X9572Y6390D01*
X9570Y6393D01*
X9568Y6395D01*
X9566Y6398D01*
X9565Y6401D01*
X9563Y6404D01*
X9561Y6407D01*
X9560Y6410D01*
X9559Y6413D01*
X9557Y6416D01*
X9556Y6419D01*
X9555Y6422D01*
X9554Y6425D01*
X9553Y6428D01*
X9552Y6432D01*
X9552Y6435D01*
X9551Y6438D01*
X9551Y6441D01*
X9550Y6445D01*
X9550Y6448D01*
X9550Y6451D01*
Y6455D01*
X9550Y6458D01*
X9550Y6461D01*
X9551Y6465D01*
X9551Y6468D01*
X9552Y6471D01*
X9552Y6474D01*
X9553Y6478D01*
X9554Y6481D01*
X9555Y6484D01*
X9556Y6487D01*
X9557Y6490D01*
X9559Y6493D01*
X9560Y6496D01*
X9561Y6499D01*
X9563Y6502D01*
X9565Y6505D01*
X9566Y6508D01*
X9568Y6511D01*
X9570Y6513D01*
X9572Y6516D01*
X9574Y6519D01*
X9577Y6521D01*
X9579Y6523D01*
X9581Y6526D01*
X9584Y6528D01*
X9586Y6530D01*
X9589Y6532D01*
X9592Y6534D01*
X9594Y6536D01*
X9597Y6538D01*
X9600Y6540D01*
X9603Y6541D01*
X9606Y6543D01*
X9609Y6544D01*
X9612Y6545D01*
X9615Y6547D01*
X9618Y6548D01*
X9621Y6549D01*
X9625Y6550D01*
X9628Y6550D01*
X9631Y6551D01*
X9634Y6552D01*
X9638Y6552D01*
X9641Y6553D01*
X9644Y6553D01*
X9648Y6553D01*
X9651Y6553D01*
X9654Y6553D01*
X9657Y6553D01*
X9661Y6552D01*
X9664Y6552D01*
X9667Y6551D01*
X9671Y6551D01*
X9674Y6550D01*
X9677Y6549D01*
X9680Y6548D01*
X9683Y6547D01*
X9687Y6546D01*
X9690Y6545D01*
X9693Y6543D01*
X9696Y6542D01*
X9699Y6540D01*
X9701Y6539D01*
X9704Y6537D01*
X9707Y6535D01*
X9710Y6533D01*
X9712Y6531D01*
X9715Y6529D01*
X9717Y6527D01*
X9720Y6525D01*
X9722Y6522D01*
X9724Y6520D01*
X9727Y6517D01*
X9729Y6515D01*
X9731Y6512D01*
X9733Y6509D01*
X9734Y6507D01*
X9736Y6504D01*
X9738Y6501D01*
X9739Y6498D01*
X9741Y6495D01*
X9742Y6492D01*
X9743Y6489D01*
X9745Y6486D01*
X9746Y6482D01*
X9746Y6479D01*
X9747Y6476D01*
X9748Y6473D01*
X9749Y6470D01*
X9749Y6466D01*
X9750Y6463D01*
X9750Y6460D01*
X9750Y6456D01*
X9750Y6453D01*
X9550Y6378D02*
Y6528D01*
X8475Y7128D02*
X8325Y7278D01*
X7975D02*
X7825Y7128D01*
Y6306D01*
X8475D02*
Y7128D01*
X8335Y6303D02*
Y6023D01*
X7965D02*
Y6303D01*
X7975Y7278D02*
X8325D01*
X8475Y6306D02*
X7825D01*
X7965Y6023D02*
X8335D01*
X7775Y6528D02*
X7775Y6525D01*
X7775Y6521D01*
X7775Y6518D01*
X7774Y6515D01*
X7774Y6511D01*
X7773Y6508D01*
X7772Y6505D01*
X7771Y6502D01*
X7771Y6499D01*
X7770Y6495D01*
X7768Y6492D01*
X7767Y6489D01*
X7766Y6486D01*
X7764Y6483D01*
X7763Y6480D01*
X7761Y6477D01*
X7759Y6474D01*
X7758Y6472D01*
X7756Y6469D01*
X7754Y6466D01*
X7752Y6464D01*
X7749Y6461D01*
X7747Y6459D01*
X7745Y6456D01*
X7742Y6454D01*
X7740Y6452D01*
X7737Y6450D01*
X7735Y6448D01*
X7732Y6446D01*
X7729Y6444D01*
X7726Y6442D01*
X7724Y6441D01*
X7721Y6439D01*
X7718Y6438D01*
X7715Y6436D01*
X7712Y6435D01*
X7708Y6434D01*
X7705Y6433D01*
X7702Y6432D01*
X7699Y6431D01*
X7696Y6430D01*
X7692Y6430D01*
X7689Y6429D01*
X7686Y6429D01*
X7682Y6428D01*
X7679Y6428D01*
X7676Y6428D01*
X7673Y6428D01*
X7669Y6428D01*
X7666Y6428D01*
X7663Y6429D01*
X7659Y6429D01*
X7656Y6430D01*
X7653Y6431D01*
X7650Y6431D01*
X7646Y6432D01*
X7643Y6433D01*
X7640Y6434D01*
X7637Y6436D01*
X7634Y6437D01*
X7631Y6438D01*
X7628Y6440D01*
X7625Y6441D01*
X7622Y6443D01*
X7619Y6445D01*
X7617Y6447D01*
X7614Y6449D01*
X7611Y6451D01*
X7609Y6453D01*
X7606Y6455D01*
X7604Y6458D01*
X7602Y6460D01*
X7599Y6462D01*
X7597Y6465D01*
X7595Y6468D01*
X7593Y6470D01*
X7591Y6473D01*
X7590Y6476D01*
X7588Y6479D01*
X7586Y6482D01*
X7585Y6485D01*
X7584Y6488D01*
X7582Y6491D01*
X7581Y6494D01*
X7580Y6497D01*
X7579Y6500D01*
X7578Y6503D01*
X7577Y6507D01*
X7577Y6510D01*
X7576Y6513D01*
X7576Y6516D01*
X7575Y6520D01*
X7575Y6523D01*
X7575Y6526D01*
Y6530D01*
X7575Y6533D01*
X7575Y6536D01*
X7576Y6540D01*
X7576Y6543D01*
X7577Y6546D01*
X7577Y6549D01*
X7578Y6553D01*
X7579Y6556D01*
X7580Y6559D01*
X7581Y6562D01*
X7582Y6565D01*
X7584Y6568D01*
X7585Y6571D01*
X7586Y6574D01*
X7588Y6577D01*
X7590Y6580D01*
X7591Y6583D01*
X7593Y6586D01*
X7595Y6588D01*
X7597Y6591D01*
X7599Y6594D01*
X7602Y6596D01*
X7604Y6598D01*
X7606Y6601D01*
X7609Y6603D01*
X7611Y6605D01*
X7614Y6607D01*
X7617Y6609D01*
X7619Y6611D01*
X7622Y6613D01*
X7625Y6615D01*
X7628Y6616D01*
X7631Y6618D01*
X7634Y6619D01*
X7637Y6620D01*
X7640Y6622D01*
X7643Y6623D01*
X7646Y6624D01*
X7650Y6625D01*
X7653Y6625D01*
X7656Y6626D01*
X7659Y6627D01*
X7663Y6627D01*
X7666Y6628D01*
X7669Y6628D01*
X7673Y6628D01*
X7676Y6628D01*
X7679Y6628D01*
X7682Y6628D01*
X7686Y6627D01*
X7689Y6627D01*
X7692Y6626D01*
X7696Y6626D01*
X7699Y6625D01*
X7702Y6624D01*
X7705Y6623D01*
X7708Y6622D01*
X7712Y6621D01*
X7715Y6620D01*
X7718Y6618D01*
X7721Y6617D01*
X7724Y6615D01*
X7726Y6614D01*
X7729Y6612D01*
X7732Y6610D01*
X7735Y6608D01*
X7737Y6606D01*
X7740Y6604D01*
X7742Y6602D01*
X7745Y6600D01*
X7747Y6597D01*
X7749Y6595D01*
X7752Y6592D01*
X7754Y6590D01*
X7756Y6587D01*
X7758Y6584D01*
X7759Y6582D01*
X7761Y6579D01*
X7763Y6576D01*
X7764Y6573D01*
X7766Y6570D01*
X7767Y6567D01*
X7768Y6564D01*
X7770Y6561D01*
X7771Y6557D01*
X7771Y6554D01*
X7772Y6551D01*
X7773Y6548D01*
X7774Y6545D01*
X7774Y6541D01*
X7775Y6538D01*
X7775Y6535D01*
X7775Y6531D01*
X7775Y6528D01*
Y6453D02*
Y6603D01*
X5850Y7378D02*
X5853Y7378D01*
X5857Y7378D01*
X5860Y7379D01*
X5863Y7380D01*
X5866Y7381D01*
X5869Y7382D01*
X5872Y7383D01*
X5875Y7385D01*
X5878Y7386D01*
X5880Y7388D01*
X5883Y7390D01*
X5885Y7393D01*
X5888Y7395D01*
X5890Y7398D01*
X5892Y7400D01*
X5893Y7403D01*
X5895Y7406D01*
X5896Y7409D01*
X5897Y7412D01*
X5898Y7415D01*
X5899Y7418D01*
X5900Y7421D01*
X5900Y7425D01*
X5900Y7428D01*
X5900Y7431D01*
X5900Y7435D01*
X5899Y7438D01*
X5898Y7441D01*
X5897Y7444D01*
X5896Y7447D01*
X5895Y7450D01*
X5893Y7453D01*
X5892Y7456D01*
X5890Y7458D01*
X5888Y7461D01*
X5885Y7463D01*
X5883Y7466D01*
X5880Y7468D01*
X5878Y7470D01*
X5875Y7471D01*
X5872Y7473D01*
X5869Y7474D01*
X5866Y7475D01*
X5863Y7476D01*
X5860Y7477D01*
X5857Y7478D01*
X5853Y7478D01*
X5850Y7478D01*
Y7528D01*
Y7378D02*
Y7328D01*
X6150D02*
Y7528D01*
X5850D01*
Y7328D02*
X6150D01*
X6750Y6453D02*
X6750Y6450D01*
X6750Y6446D01*
X6750Y6443D01*
X6749Y6440D01*
X6749Y6436D01*
X6748Y6433D01*
X6747Y6430D01*
X6746Y6427D01*
X6746Y6424D01*
X6745Y6420D01*
X6743Y6417D01*
X6742Y6414D01*
X6741Y6411D01*
X6739Y6408D01*
X6738Y6405D01*
X6736Y6402D01*
X6734Y6399D01*
X6733Y6397D01*
X6731Y6394D01*
X6729Y6391D01*
X6727Y6389D01*
X6724Y6386D01*
X6722Y6384D01*
X6720Y6381D01*
X6717Y6379D01*
X6715Y6377D01*
X6712Y6375D01*
X6710Y6373D01*
X6707Y6371D01*
X6704Y6369D01*
X6701Y6367D01*
X6699Y6366D01*
X6696Y6364D01*
X6693Y6363D01*
X6690Y6361D01*
X6687Y6360D01*
X6683Y6359D01*
X6680Y6358D01*
X6677Y6357D01*
X6674Y6356D01*
X6671Y6355D01*
X6667Y6355D01*
X6664Y6354D01*
X6661Y6354D01*
X6657Y6353D01*
X6654Y6353D01*
X6651Y6353D01*
X6648Y6353D01*
X6644Y6353D01*
X6641Y6353D01*
X6638Y6354D01*
X6634Y6354D01*
X6631Y6355D01*
X6628Y6356D01*
X6625Y6356D01*
X6621Y6357D01*
X6618Y6358D01*
X6615Y6359D01*
X6612Y6361D01*
X6609Y6362D01*
X6606Y6363D01*
X6603Y6365D01*
X6600Y6366D01*
X6597Y6368D01*
X6594Y6370D01*
X6592Y6372D01*
X6589Y6374D01*
X6586Y6376D01*
X6584Y6378D01*
X6581Y6380D01*
X6579Y6383D01*
X6577Y6385D01*
X6574Y6387D01*
X6572Y6390D01*
X6570Y6393D01*
X6568Y6395D01*
X6566Y6398D01*
X6565Y6401D01*
X6563Y6404D01*
X6561Y6407D01*
X6560Y6410D01*
X6559Y6413D01*
X6557Y6416D01*
X6556Y6419D01*
X6555Y6422D01*
X6554Y6425D01*
X6553Y6428D01*
X6552Y6432D01*
X6552Y6435D01*
X6551Y6438D01*
X6551Y6441D01*
X6550Y6445D01*
X6550Y6448D01*
X6550Y6451D01*
Y6455D01*
X6550Y6458D01*
X6550Y6461D01*
X6551Y6465D01*
X6551Y6468D01*
X6552Y6471D01*
X6552Y6474D01*
X6553Y6478D01*
X6554Y6481D01*
X6555Y6484D01*
X6556Y6487D01*
X6557Y6490D01*
X6559Y6493D01*
X6560Y6496D01*
X6561Y6499D01*
X6563Y6502D01*
X6565Y6505D01*
X6566Y6508D01*
X6568Y6511D01*
X6570Y6513D01*
X6572Y6516D01*
X6574Y6519D01*
X6577Y6521D01*
X6579Y6523D01*
X6581Y6526D01*
X6584Y6528D01*
X6586Y6530D01*
X6589Y6532D01*
X6592Y6534D01*
X6594Y6536D01*
X6597Y6538D01*
X6600Y6540D01*
X6603Y6541D01*
X6606Y6543D01*
X6609Y6544D01*
X6612Y6545D01*
X6615Y6547D01*
X6618Y6548D01*
X6621Y6549D01*
X6625Y6550D01*
X6628Y6550D01*
X6631Y6551D01*
X6634Y6552D01*
X6638Y6552D01*
X6641Y6553D01*
X6644Y6553D01*
X6648Y6553D01*
X6651Y6553D01*
X6654Y6553D01*
X6657Y6553D01*
X6661Y6552D01*
X6664Y6552D01*
X6667Y6551D01*
X6671Y6551D01*
X6674Y6550D01*
X6677Y6549D01*
X6680Y6548D01*
X6683Y6547D01*
X6687Y6546D01*
X6690Y6545D01*
X6693Y6543D01*
X6696Y6542D01*
X6699Y6540D01*
X6701Y6539D01*
X6704Y6537D01*
X6707Y6535D01*
X6710Y6533D01*
X6712Y6531D01*
X6715Y6529D01*
X6717Y6527D01*
X6720Y6525D01*
X6722Y6522D01*
X6724Y6520D01*
X6727Y6517D01*
X6729Y6515D01*
X6731Y6512D01*
X6733Y6509D01*
X6734Y6507D01*
X6736Y6504D01*
X6738Y6501D01*
X6739Y6498D01*
X6741Y6495D01*
X6742Y6492D01*
X6743Y6489D01*
X6745Y6486D01*
X6746Y6482D01*
X6746Y6479D01*
X6747Y6476D01*
X6748Y6473D01*
X6749Y6470D01*
X6749Y6466D01*
X6750Y6463D01*
X6750Y6460D01*
X6750Y6456D01*
X6750Y6453D01*
X6540Y6403D02*
Y6353D01*
X6515Y6378D02*
X6565D01*
X6500Y6328D02*
Y6928D01*
X5800D02*
Y6328D01*
X6500D01*
Y6928D02*
X5800D01*
X6835Y7043D02*
Y6203D01*
X7465D02*
Y7043D01*
X6835D01*
Y6203D02*
X7465D01*
X5500Y6328D02*
Y6928D01*
X4800D02*
Y6328D01*
X5500D01*
Y6928D02*
X4800D01*
X4500D02*
Y6328D01*
X3800D02*
Y6928D01*
Y6328D02*
X4500D01*
Y6928D02*
X3800D01*
X3650Y9078D02*
X16650D01*
Y6328D02*
X3650D01*
Y9078D01*
X16650D02*
Y6328D01*
D15*
X15615Y8148D02*
X15615Y8145D01*
X15614Y8142D01*
X15614Y8138D01*
X15613Y8135D01*
X15612Y8132D01*
X15610Y8129D01*
X15609Y8127D01*
X15607Y8124D01*
X15605Y8121D01*
X15603Y8119D01*
X15600Y8117D01*
X15598Y8115D01*
X15595Y8113D01*
X15592Y8112D01*
X15589Y8111D01*
X15586Y8110D01*
X15583Y8109D01*
X15580Y8108D01*
X15577Y8108D01*
X15573D01*
X15570Y8108D01*
X15567Y8109D01*
X15564Y8110D01*
X15561Y8111D01*
X15558Y8112D01*
X15555Y8113D01*
X15552Y8115D01*
X15550Y8117D01*
X15547Y8119D01*
X15545Y8121D01*
X15543Y8124D01*
X15541Y8127D01*
X15540Y8129D01*
X15538Y8132D01*
X15537Y8135D01*
X15536Y8138D01*
X15536Y8142D01*
X15535Y8145D01*
X15535Y8148D01*
Y8208D02*
X15535Y8211D01*
X15536Y8214D01*
X15536Y8218D01*
X15537Y8221D01*
X15538Y8224D01*
X15540Y8227D01*
X15541Y8229D01*
X15543Y8232D01*
X15545Y8235D01*
X15547Y8237D01*
X15550Y8239D01*
X15552Y8241D01*
X15555Y8243D01*
X15558Y8244D01*
X15561Y8245D01*
X15564Y8246D01*
X15567Y8247D01*
X15570Y8248D01*
X15573Y8248D01*
X15577D01*
X15580Y8248D01*
X15583Y8247D01*
X15586Y8246D01*
X15589Y8245D01*
X15592Y8244D01*
X15595Y8243D01*
X15598Y8241D01*
X15600Y8239D01*
X15603Y8237D01*
X15605Y8235D01*
X15607Y8232D01*
X15609Y8229D01*
X15610Y8227D01*
X15612Y8224D01*
X15613Y8221D01*
X15614Y8218D01*
X15614Y8214D01*
X15615Y8211D01*
X15615Y8208D01*
X15575Y8108D02*
Y8068D01*
Y8248D02*
Y8288D01*
X15615Y8208D02*
Y8148D01*
X15535D02*
Y8208D01*
X16485D02*
X16485Y8211D01*
X16486Y8214D01*
X16486Y8218D01*
X16487Y8221D01*
X16488Y8224D01*
X16490Y8227D01*
X16491Y8229D01*
X16493Y8232D01*
X16495Y8235D01*
X16497Y8237D01*
X16500Y8239D01*
X16502Y8241D01*
X16505Y8243D01*
X16508Y8244D01*
X16511Y8245D01*
X16514Y8246D01*
X16517Y8247D01*
X16520Y8248D01*
X16523Y8248D01*
X16527D01*
X16530Y8248D01*
X16533Y8247D01*
X16536Y8246D01*
X16539Y8245D01*
X16542Y8244D01*
X16545Y8243D01*
X16548Y8241D01*
X16550Y8239D01*
X16553Y8237D01*
X16555Y8235D01*
X16557Y8232D01*
X16559Y8229D01*
X16560Y8227D01*
X16562Y8224D01*
X16563Y8221D01*
X16564Y8218D01*
X16564Y8214D01*
X16565Y8211D01*
X16565Y8208D01*
Y8148D02*
X16565Y8145D01*
X16564Y8142D01*
X16564Y8138D01*
X16563Y8135D01*
X16562Y8132D01*
X16560Y8129D01*
X16559Y8127D01*
X16557Y8124D01*
X16555Y8121D01*
X16553Y8119D01*
X16550Y8117D01*
X16548Y8115D01*
X16545Y8113D01*
X16542Y8112D01*
X16539Y8111D01*
X16536Y8110D01*
X16533Y8109D01*
X16530Y8108D01*
X16527Y8108D01*
X16523D01*
X16520Y8108D01*
X16517Y8109D01*
X16514Y8110D01*
X16511Y8111D01*
X16508Y8112D01*
X16505Y8113D01*
X16502Y8115D01*
X16500Y8117D01*
X16497Y8119D01*
X16495Y8121D01*
X16493Y8124D01*
X16491Y8127D01*
X16490Y8129D01*
X16488Y8132D01*
X16487Y8135D01*
X16486Y8138D01*
X16486Y8142D01*
X16485Y8145D01*
X16485Y8148D01*
X16525Y8248D02*
Y8288D01*
Y8108D02*
Y8068D01*
X16485Y8148D02*
Y8208D01*
X16565D02*
Y8148D01*
X14791Y8403D02*
Y8903D01*
X15516D02*
Y8403D01*
X14791D01*
Y8903D02*
X15516D01*
X14435Y8798D02*
Y8558D01*
X14515D02*
Y8798D01*
X14475Y8558D02*
Y8478D01*
Y8798D02*
Y8878D01*
X14435Y8558D02*
X14515D01*
Y8798D02*
X14435D01*
X14335D02*
Y8558D01*
X14415D02*
Y8798D01*
X14375Y8558D02*
Y8478D01*
Y8798D02*
Y8878D01*
X14335Y8558D02*
X14415D01*
Y8798D02*
X14335D01*
X14325Y8778D02*
Y8578D01*
X14225D02*
Y8778D01*
X14325D01*
Y8578D02*
X14225D01*
X14685Y8208D02*
X14685Y8211D01*
X14686Y8214D01*
X14686Y8218D01*
X14687Y8221D01*
X14688Y8224D01*
X14690Y8227D01*
X14691Y8229D01*
X14693Y8232D01*
X14695Y8235D01*
X14697Y8237D01*
X14700Y8239D01*
X14702Y8241D01*
X14705Y8243D01*
X14708Y8244D01*
X14711Y8245D01*
X14714Y8246D01*
X14717Y8247D01*
X14720Y8248D01*
X14723Y8248D01*
X14727D01*
X14730Y8248D01*
X14733Y8247D01*
X14736Y8246D01*
X14739Y8245D01*
X14742Y8244D01*
X14745Y8243D01*
X14748Y8241D01*
X14750Y8239D01*
X14753Y8237D01*
X14755Y8235D01*
X14757Y8232D01*
X14759Y8229D01*
X14760Y8227D01*
X14762Y8224D01*
X14763Y8221D01*
X14764Y8218D01*
X14764Y8214D01*
X14765Y8211D01*
X14765Y8208D01*
Y8148D02*
X14765Y8145D01*
X14764Y8142D01*
X14764Y8138D01*
X14763Y8135D01*
X14762Y8132D01*
X14760Y8129D01*
X14759Y8127D01*
X14757Y8124D01*
X14755Y8121D01*
X14753Y8119D01*
X14750Y8117D01*
X14748Y8115D01*
X14745Y8113D01*
X14742Y8112D01*
X14739Y8111D01*
X14736Y8110D01*
X14733Y8109D01*
X14730Y8108D01*
X14727Y8108D01*
X14723D01*
X14720Y8108D01*
X14717Y8109D01*
X14714Y8110D01*
X14711Y8111D01*
X14708Y8112D01*
X14705Y8113D01*
X14702Y8115D01*
X14700Y8117D01*
X14697Y8119D01*
X14695Y8121D01*
X14693Y8124D01*
X14691Y8127D01*
X14690Y8129D01*
X14688Y8132D01*
X14687Y8135D01*
X14686Y8138D01*
X14686Y8142D01*
X14685Y8145D01*
X14685Y8148D01*
X14725Y8248D02*
Y8288D01*
Y8108D02*
Y8068D01*
X14685Y8148D02*
Y8208D01*
X14765D02*
Y8148D01*
X14415Y7798D02*
Y7558D01*
X14335D02*
Y7798D01*
X14375D02*
Y7878D01*
Y7558D02*
Y7478D01*
X14335Y7798D02*
X14415D01*
Y7558D02*
X14335D01*
X14275D02*
Y7478D01*
X14315Y7558D02*
Y7798D01*
X14235D02*
Y7558D01*
X14275Y7798D02*
Y7878D01*
X14235Y7798D02*
X14315D01*
Y7558D02*
X14235D01*
X14125Y7578D02*
Y7778D01*
X14225D02*
Y7578D01*
X14125D01*
Y7778D02*
X14225D01*
X14215Y8148D02*
X14215Y8145D01*
X14214Y8142D01*
X14214Y8138D01*
X14213Y8135D01*
X14212Y8132D01*
X14210Y8129D01*
X14209Y8127D01*
X14207Y8124D01*
X14205Y8121D01*
X14203Y8119D01*
X14200Y8117D01*
X14198Y8115D01*
X14195Y8113D01*
X14192Y8112D01*
X14189Y8111D01*
X14186Y8110D01*
X14183Y8109D01*
X14180Y8108D01*
X14177Y8108D01*
X14173D01*
X14170Y8108D01*
X14167Y8109D01*
X14164Y8110D01*
X14161Y8111D01*
X14158Y8112D01*
X14155Y8113D01*
X14152Y8115D01*
X14150Y8117D01*
X14147Y8119D01*
X14145Y8121D01*
X14143Y8124D01*
X14141Y8127D01*
X14140Y8129D01*
X14138Y8132D01*
X14137Y8135D01*
X14136Y8138D01*
X14136Y8142D01*
X14135Y8145D01*
X14135Y8148D01*
Y8208D02*
X14135Y8211D01*
X14136Y8214D01*
X14136Y8218D01*
X14137Y8221D01*
X14138Y8224D01*
X14140Y8227D01*
X14141Y8229D01*
X14143Y8232D01*
X14145Y8235D01*
X14147Y8237D01*
X14150Y8239D01*
X14152Y8241D01*
X14155Y8243D01*
X14158Y8244D01*
X14161Y8245D01*
X14164Y8246D01*
X14167Y8247D01*
X14170Y8248D01*
X14173Y8248D01*
X14177D01*
X14180Y8248D01*
X14183Y8247D01*
X14186Y8246D01*
X14189Y8245D01*
X14192Y8244D01*
X14195Y8243D01*
X14198Y8241D01*
X14200Y8239D01*
X14203Y8237D01*
X14205Y8235D01*
X14207Y8232D01*
X14209Y8229D01*
X14210Y8227D01*
X14212Y8224D01*
X14213Y8221D01*
X14214Y8218D01*
X14214Y8214D01*
X14215Y8211D01*
X14215Y8208D01*
X14175Y8108D02*
Y8068D01*
Y8248D02*
Y8288D01*
X14215Y8208D02*
Y8148D01*
X14135D02*
Y8208D01*
X14115D02*
X14115Y8211D01*
X14114Y8214D01*
X14114Y8218D01*
X14113Y8221D01*
X14112Y8224D01*
X14110Y8227D01*
X14109Y8229D01*
X14107Y8232D01*
X14105Y8235D01*
X14103Y8237D01*
X14100Y8239D01*
X14098Y8241D01*
X14095Y8243D01*
X14092Y8244D01*
X14089Y8245D01*
X14086Y8246D01*
X14083Y8247D01*
X14080Y8248D01*
X14077Y8248D01*
X14073D01*
X14070Y8248D01*
X14067Y8247D01*
X14064Y8246D01*
X14061Y8245D01*
X14058Y8244D01*
X14055Y8243D01*
X14052Y8241D01*
X14050Y8239D01*
X14047Y8237D01*
X14045Y8235D01*
X14043Y8232D01*
X14041Y8229D01*
X14040Y8227D01*
X14038Y8224D01*
X14037Y8221D01*
X14036Y8218D01*
X14036Y8214D01*
X14035Y8211D01*
X14035Y8208D01*
Y8148D02*
X14035Y8145D01*
X14036Y8142D01*
X14036Y8138D01*
X14037Y8135D01*
X14038Y8132D01*
X14040Y8129D01*
X14041Y8127D01*
X14043Y8124D01*
X14045Y8121D01*
X14047Y8119D01*
X14050Y8117D01*
X14052Y8115D01*
X14055Y8113D01*
X14058Y8112D01*
X14061Y8111D01*
X14064Y8110D01*
X14067Y8109D01*
X14070Y8108D01*
X14073Y8108D01*
X14077D01*
X14080Y8108D01*
X14083Y8109D01*
X14086Y8110D01*
X14089Y8111D01*
X14092Y8112D01*
X14095Y8113D01*
X14098Y8115D01*
X14100Y8117D01*
X14103Y8119D01*
X14105Y8121D01*
X14107Y8124D01*
X14109Y8127D01*
X14110Y8129D01*
X14112Y8132D01*
X14113Y8135D01*
X14114Y8138D01*
X14114Y8142D01*
X14115Y8145D01*
X14115Y8148D01*
X14075Y8248D02*
Y8288D01*
Y8108D02*
Y8068D01*
X14035Y8148D02*
Y8208D01*
X14115D02*
Y8148D01*
X14125Y7778D02*
Y7578D01*
X14025D02*
Y7778D01*
X14125D01*
Y7578D02*
X14025D01*
X14015Y7558D02*
Y7798D01*
X13935D02*
Y7558D01*
X13975Y7798D02*
Y7878D01*
Y7558D02*
Y7478D01*
X13935Y7798D02*
X14015D01*
Y7558D02*
X13935D01*
X13915D02*
Y7798D01*
X13835D02*
Y7558D01*
X13875Y7798D02*
Y7878D01*
Y7558D02*
Y7478D01*
X13835Y7798D02*
X13915D01*
Y7558D02*
X13835D01*
X13815D02*
Y7798D01*
X13735D02*
Y7558D01*
X13775Y7798D02*
Y7878D01*
Y7558D02*
Y7478D01*
X13735Y7798D02*
X13815D01*
Y7558D02*
X13735D01*
X13715D02*
Y7798D01*
X13635D02*
Y7558D01*
X13675Y7798D02*
Y7878D01*
Y7558D02*
Y7478D01*
X13635Y7798D02*
X13715D01*
Y7558D02*
X13635D01*
X12465Y8558D02*
Y8798D01*
X12385D02*
Y8558D01*
X12425Y8798D02*
Y8878D01*
Y8558D02*
Y8478D01*
X12385Y8798D02*
X12465D01*
Y8558D02*
X12385D01*
X13135D02*
Y8798D01*
X13215D02*
Y8558D01*
X13175D02*
Y8478D01*
Y8798D02*
Y8878D01*
X13135Y8558D02*
X13215D01*
Y8798D02*
X13135D01*
X13035D02*
Y8558D01*
X13115D02*
Y8798D01*
X13075Y8558D02*
Y8478D01*
Y8798D02*
Y8878D01*
X13035Y8558D02*
X13115D01*
Y8798D02*
X13035D01*
X13025Y8778D02*
Y8578D01*
X12925D02*
Y8778D01*
X13025D01*
Y8578D02*
X12925D01*
X13250Y8678D02*
Y8988D01*
X14050D02*
Y8678D01*
Y8988D02*
X13250D01*
Y8678D02*
X14050D01*
X12915Y8208D02*
X12915Y8211D01*
X12914Y8214D01*
X12914Y8218D01*
X12913Y8221D01*
X12912Y8224D01*
X12910Y8227D01*
X12909Y8229D01*
X12907Y8232D01*
X12905Y8235D01*
X12903Y8237D01*
X12900Y8239D01*
X12898Y8241D01*
X12895Y8243D01*
X12892Y8244D01*
X12889Y8245D01*
X12886Y8246D01*
X12883Y8247D01*
X12880Y8248D01*
X12877Y8248D01*
X12873D01*
X12870Y8248D01*
X12867Y8247D01*
X12864Y8246D01*
X12861Y8245D01*
X12858Y8244D01*
X12855Y8243D01*
X12852Y8241D01*
X12850Y8239D01*
X12847Y8237D01*
X12845Y8235D01*
X12843Y8232D01*
X12841Y8229D01*
X12840Y8227D01*
X12838Y8224D01*
X12837Y8221D01*
X12836Y8218D01*
X12836Y8214D01*
X12835Y8211D01*
X12835Y8208D01*
Y8148D02*
X12835Y8145D01*
X12836Y8142D01*
X12836Y8138D01*
X12837Y8135D01*
X12838Y8132D01*
X12840Y8129D01*
X12841Y8127D01*
X12843Y8124D01*
X12845Y8121D01*
X12847Y8119D01*
X12850Y8117D01*
X12852Y8115D01*
X12855Y8113D01*
X12858Y8112D01*
X12861Y8111D01*
X12864Y8110D01*
X12867Y8109D01*
X12870Y8108D01*
X12873Y8108D01*
X12877D01*
X12880Y8108D01*
X12883Y8109D01*
X12886Y8110D01*
X12889Y8111D01*
X12892Y8112D01*
X12895Y8113D01*
X12898Y8115D01*
X12900Y8117D01*
X12903Y8119D01*
X12905Y8121D01*
X12907Y8124D01*
X12909Y8127D01*
X12910Y8129D01*
X12912Y8132D01*
X12913Y8135D01*
X12914Y8138D01*
X12914Y8142D01*
X12915Y8145D01*
X12915Y8148D01*
X12875Y8248D02*
Y8288D01*
Y8108D02*
Y8068D01*
X12835Y8148D02*
Y8208D01*
X12915D02*
Y8148D01*
X13115Y7798D02*
Y7558D01*
X13035D02*
Y7798D01*
X13075D02*
Y7878D01*
Y7558D02*
Y7478D01*
X13035Y7798D02*
X13115D01*
Y7558D02*
X13035D01*
X13215D02*
Y7798D01*
X13135D02*
Y7558D01*
X13175Y7798D02*
Y7878D01*
Y7558D02*
Y7478D01*
X13135Y7798D02*
X13215D01*
Y7558D02*
X13135D01*
X13525Y7578D02*
Y7778D01*
X13625D02*
Y7578D01*
X13525D01*
Y7778D02*
X13625D01*
X13615Y8148D02*
X13615Y8145D01*
X13614Y8142D01*
X13614Y8138D01*
X13613Y8135D01*
X13612Y8132D01*
X13610Y8129D01*
X13609Y8127D01*
X13607Y8124D01*
X13605Y8121D01*
X13603Y8119D01*
X13600Y8117D01*
X13598Y8115D01*
X13595Y8113D01*
X13592Y8112D01*
X13589Y8111D01*
X13586Y8110D01*
X13583Y8109D01*
X13580Y8108D01*
X13577Y8108D01*
X13573D01*
X13570Y8108D01*
X13567Y8109D01*
X13564Y8110D01*
X13561Y8111D01*
X13558Y8112D01*
X13555Y8113D01*
X13552Y8115D01*
X13550Y8117D01*
X13547Y8119D01*
X13545Y8121D01*
X13543Y8124D01*
X13541Y8127D01*
X13540Y8129D01*
X13538Y8132D01*
X13537Y8135D01*
X13536Y8138D01*
X13536Y8142D01*
X13535Y8145D01*
X13535Y8148D01*
Y8208D02*
X13535Y8211D01*
X13536Y8214D01*
X13536Y8218D01*
X13537Y8221D01*
X13538Y8224D01*
X13540Y8227D01*
X13541Y8229D01*
X13543Y8232D01*
X13545Y8235D01*
X13547Y8237D01*
X13550Y8239D01*
X13552Y8241D01*
X13555Y8243D01*
X13558Y8244D01*
X13561Y8245D01*
X13564Y8246D01*
X13567Y8247D01*
X13570Y8248D01*
X13573Y8248D01*
X13577D01*
X13580Y8248D01*
X13583Y8247D01*
X13586Y8246D01*
X13589Y8245D01*
X13592Y8244D01*
X13595Y8243D01*
X13598Y8241D01*
X13600Y8239D01*
X13603Y8237D01*
X13605Y8235D01*
X13607Y8232D01*
X13609Y8229D01*
X13610Y8227D01*
X13612Y8224D01*
X13613Y8221D01*
X13614Y8218D01*
X13614Y8214D01*
X13615Y8211D01*
X13615Y8208D01*
X13575Y8108D02*
Y8068D01*
Y8248D02*
Y8288D01*
X13615Y8208D02*
Y8148D01*
X13535D02*
Y8208D01*
X13515D02*
X13515Y8211D01*
X13514Y8214D01*
X13514Y8218D01*
X13513Y8221D01*
X13512Y8224D01*
X13510Y8227D01*
X13509Y8229D01*
X13507Y8232D01*
X13505Y8235D01*
X13503Y8237D01*
X13500Y8239D01*
X13498Y8241D01*
X13495Y8243D01*
X13492Y8244D01*
X13489Y8245D01*
X13486Y8246D01*
X13483Y8247D01*
X13480Y8248D01*
X13477Y8248D01*
X13473D01*
X13470Y8248D01*
X13467Y8247D01*
X13464Y8246D01*
X13461Y8245D01*
X13458Y8244D01*
X13455Y8243D01*
X13452Y8241D01*
X13450Y8239D01*
X13447Y8237D01*
X13445Y8235D01*
X13443Y8232D01*
X13441Y8229D01*
X13440Y8227D01*
X13438Y8224D01*
X13437Y8221D01*
X13436Y8218D01*
X13436Y8214D01*
X13435Y8211D01*
X13435Y8208D01*
Y8148D02*
X13435Y8145D01*
X13436Y8142D01*
X13436Y8138D01*
X13437Y8135D01*
X13438Y8132D01*
X13440Y8129D01*
X13441Y8127D01*
X13443Y8124D01*
X13445Y8121D01*
X13447Y8119D01*
X13450Y8117D01*
X13452Y8115D01*
X13455Y8113D01*
X13458Y8112D01*
X13461Y8111D01*
X13464Y8110D01*
X13467Y8109D01*
X13470Y8108D01*
X13473Y8108D01*
X13477D01*
X13480Y8108D01*
X13483Y8109D01*
X13486Y8110D01*
X13489Y8111D01*
X13492Y8112D01*
X13495Y8113D01*
X13498Y8115D01*
X13500Y8117D01*
X13503Y8119D01*
X13505Y8121D01*
X13507Y8124D01*
X13509Y8127D01*
X13510Y8129D01*
X13512Y8132D01*
X13513Y8135D01*
X13514Y8138D01*
X13514Y8142D01*
X13515Y8145D01*
X13515Y8148D01*
X13475Y8248D02*
Y8288D01*
Y8108D02*
Y8068D01*
X13435Y8148D02*
Y8208D01*
X13515D02*
Y8148D01*
X12925Y7803D02*
Y7603D01*
X13025D02*
Y7803D01*
Y7603D02*
X12925D01*
Y7803D02*
X13025D01*
X13015Y8148D02*
X13015Y8145D01*
X13014Y8142D01*
X13014Y8138D01*
X13013Y8135D01*
X13012Y8132D01*
X13010Y8129D01*
X13009Y8127D01*
X13007Y8124D01*
X13005Y8121D01*
X13003Y8119D01*
X13000Y8117D01*
X12998Y8115D01*
X12995Y8113D01*
X12992Y8112D01*
X12989Y8111D01*
X12986Y8110D01*
X12983Y8109D01*
X12980Y8108D01*
X12977Y8108D01*
X12973D01*
X12970Y8108D01*
X12967Y8109D01*
X12964Y8110D01*
X12961Y8111D01*
X12958Y8112D01*
X12955Y8113D01*
X12952Y8115D01*
X12950Y8117D01*
X12947Y8119D01*
X12945Y8121D01*
X12943Y8124D01*
X12941Y8127D01*
X12940Y8129D01*
X12938Y8132D01*
X12937Y8135D01*
X12936Y8138D01*
X12936Y8142D01*
X12935Y8145D01*
X12935Y8148D01*
Y8208D02*
X12935Y8211D01*
X12936Y8214D01*
X12936Y8218D01*
X12937Y8221D01*
X12938Y8224D01*
X12940Y8227D01*
X12941Y8229D01*
X12943Y8232D01*
X12945Y8235D01*
X12947Y8237D01*
X12950Y8239D01*
X12952Y8241D01*
X12955Y8243D01*
X12958Y8244D01*
X12961Y8245D01*
X12964Y8246D01*
X12967Y8247D01*
X12970Y8248D01*
X12973Y8248D01*
X12977D01*
X12980Y8248D01*
X12983Y8247D01*
X12986Y8246D01*
X12989Y8245D01*
X12992Y8244D01*
X12995Y8243D01*
X12998Y8241D01*
X13000Y8239D01*
X13003Y8237D01*
X13005Y8235D01*
X13007Y8232D01*
X13009Y8229D01*
X13010Y8227D01*
X13012Y8224D01*
X13013Y8221D01*
X13014Y8218D01*
X13014Y8214D01*
X13015Y8211D01*
X13015Y8208D01*
X12975Y8108D02*
Y8068D01*
Y8248D02*
Y8288D01*
X13015Y8208D02*
Y8148D01*
X12935D02*
Y8208D01*
X11235Y8558D02*
Y8798D01*
X11315D02*
Y8558D01*
X11275Y8798D02*
Y8878D01*
Y8558D02*
Y8478D01*
X11235Y8558D02*
X11315D01*
Y8798D02*
X11235D01*
X11415D02*
Y8558D01*
X11335D02*
Y8798D01*
X11375D02*
Y8878D01*
Y8558D02*
Y8478D01*
X11335Y8798D02*
X11415D01*
Y8558D02*
X11335D01*
X11515D02*
Y8798D01*
X11435D02*
Y8558D01*
X11475Y8798D02*
Y8878D01*
Y8558D02*
Y8478D01*
X11435Y8798D02*
X11515D01*
Y8558D02*
X11435D01*
X11625Y8578D02*
Y8778D01*
X11525D02*
Y8578D01*
Y8778D02*
X11625D01*
Y8578D02*
X11525D01*
X11685Y8558D02*
Y8798D01*
X11765D02*
Y8558D01*
X11725D02*
Y8478D01*
Y8798D02*
Y8878D01*
X11685Y8558D02*
X11765D01*
Y8798D02*
X11685D01*
X11785D02*
Y8558D01*
X11865D02*
Y8798D01*
X11825Y8558D02*
Y8478D01*
Y8798D02*
Y8878D01*
X11785Y8558D02*
X11865D01*
Y8798D02*
X11785D01*
X10700Y6858D02*
Y6778D01*
Y7098D02*
Y7178D01*
X10660Y7098D02*
Y6858D01*
X10740D02*
Y7098D01*
Y6858D02*
X10660D01*
Y7098D02*
X10740D01*
X11700Y6858D02*
Y6778D01*
Y7098D02*
Y7178D01*
X11660Y7098D02*
Y6858D01*
X11740D02*
Y7098D01*
Y6858D02*
X11660D01*
Y7098D02*
X11740D01*
X10815Y8148D02*
X10815Y8145D01*
X10814Y8142D01*
X10814Y8138D01*
X10813Y8135D01*
X10812Y8132D01*
X10810Y8129D01*
X10809Y8127D01*
X10807Y8124D01*
X10805Y8121D01*
X10803Y8119D01*
X10800Y8117D01*
X10798Y8115D01*
X10795Y8113D01*
X10792Y8112D01*
X10789Y8111D01*
X10786Y8110D01*
X10783Y8109D01*
X10780Y8108D01*
X10777Y8108D01*
X10773D01*
X10770Y8108D01*
X10767Y8109D01*
X10764Y8110D01*
X10761Y8111D01*
X10758Y8112D01*
X10755Y8113D01*
X10752Y8115D01*
X10750Y8117D01*
X10747Y8119D01*
X10745Y8121D01*
X10743Y8124D01*
X10741Y8127D01*
X10740Y8129D01*
X10738Y8132D01*
X10737Y8135D01*
X10736Y8138D01*
X10736Y8142D01*
X10735Y8145D01*
X10735Y8148D01*
Y8208D02*
X10735Y8211D01*
X10736Y8214D01*
X10736Y8218D01*
X10737Y8221D01*
X10738Y8224D01*
X10740Y8227D01*
X10741Y8229D01*
X10743Y8232D01*
X10745Y8235D01*
X10747Y8237D01*
X10750Y8239D01*
X10752Y8241D01*
X10755Y8243D01*
X10758Y8244D01*
X10761Y8245D01*
X10764Y8246D01*
X10767Y8247D01*
X10770Y8248D01*
X10773Y8248D01*
X10777D01*
X10780Y8248D01*
X10783Y8247D01*
X10786Y8246D01*
X10789Y8245D01*
X10792Y8244D01*
X10795Y8243D01*
X10798Y8241D01*
X10800Y8239D01*
X10803Y8237D01*
X10805Y8235D01*
X10807Y8232D01*
X10809Y8229D01*
X10810Y8227D01*
X10812Y8224D01*
X10813Y8221D01*
X10814Y8218D01*
X10814Y8214D01*
X10815Y8211D01*
X10815Y8208D01*
X10775Y8108D02*
Y8068D01*
Y8248D02*
Y8288D01*
X10815Y8208D02*
Y8148D01*
X10735D02*
Y8208D01*
X11025Y7928D02*
Y7828D01*
X10825D02*
Y7928D01*
Y7828D02*
X11025D01*
Y7928D02*
X10825D01*
X11235Y8208D02*
X11235Y8211D01*
X11236Y8214D01*
X11236Y8218D01*
X11237Y8221D01*
X11238Y8224D01*
X11240Y8227D01*
X11241Y8229D01*
X11243Y8232D01*
X11245Y8235D01*
X11247Y8237D01*
X11250Y8239D01*
X11252Y8241D01*
X11255Y8243D01*
X11258Y8244D01*
X11261Y8245D01*
X11264Y8246D01*
X11267Y8247D01*
X11270Y8248D01*
X11273Y8248D01*
X11277D01*
X11280Y8248D01*
X11283Y8247D01*
X11286Y8246D01*
X11289Y8245D01*
X11292Y8244D01*
X11295Y8243D01*
X11298Y8241D01*
X11300Y8239D01*
X11303Y8237D01*
X11305Y8235D01*
X11307Y8232D01*
X11309Y8229D01*
X11310Y8227D01*
X11312Y8224D01*
X11313Y8221D01*
X11314Y8218D01*
X11314Y8214D01*
X11315Y8211D01*
X11315Y8208D01*
Y8148D02*
X11315Y8145D01*
X11314Y8142D01*
X11314Y8138D01*
X11313Y8135D01*
X11312Y8132D01*
X11310Y8129D01*
X11309Y8127D01*
X11307Y8124D01*
X11305Y8121D01*
X11303Y8119D01*
X11300Y8117D01*
X11298Y8115D01*
X11295Y8113D01*
X11292Y8112D01*
X11289Y8111D01*
X11286Y8110D01*
X11283Y8109D01*
X11280Y8108D01*
X11277Y8108D01*
X11273D01*
X11270Y8108D01*
X11267Y8109D01*
X11264Y8110D01*
X11261Y8111D01*
X11258Y8112D01*
X11255Y8113D01*
X11252Y8115D01*
X11250Y8117D01*
X11247Y8119D01*
X11245Y8121D01*
X11243Y8124D01*
X11241Y8127D01*
X11240Y8129D01*
X11238Y8132D01*
X11237Y8135D01*
X11236Y8138D01*
X11236Y8142D01*
X11235Y8145D01*
X11235Y8148D01*
X11275Y8248D02*
Y8288D01*
Y8108D02*
Y8068D01*
X11235Y8148D02*
Y8208D01*
X11315D02*
Y8148D01*
X11335D02*
X11335Y8145D01*
X11336Y8142D01*
X11336Y8138D01*
X11337Y8135D01*
X11338Y8132D01*
X11340Y8129D01*
X11341Y8127D01*
X11343Y8124D01*
X11345Y8121D01*
X11347Y8119D01*
X11350Y8117D01*
X11352Y8115D01*
X11355Y8113D01*
X11358Y8112D01*
X11361Y8111D01*
X11364Y8110D01*
X11367Y8109D01*
X11370Y8108D01*
X11373Y8108D01*
X11377D01*
X11380Y8108D01*
X11383Y8109D01*
X11386Y8110D01*
X11389Y8111D01*
X11392Y8112D01*
X11395Y8113D01*
X11398Y8115D01*
X11400Y8117D01*
X11403Y8119D01*
X11405Y8121D01*
X11407Y8124D01*
X11409Y8127D01*
X11410Y8129D01*
X11412Y8132D01*
X11413Y8135D01*
X11414Y8138D01*
X11414Y8142D01*
X11415Y8145D01*
X11415Y8148D01*
Y8208D02*
X11415Y8211D01*
X11414Y8214D01*
X11414Y8218D01*
X11413Y8221D01*
X11412Y8224D01*
X11410Y8227D01*
X11409Y8229D01*
X11407Y8232D01*
X11405Y8235D01*
X11403Y8237D01*
X11400Y8239D01*
X11398Y8241D01*
X11395Y8243D01*
X11392Y8244D01*
X11389Y8245D01*
X11386Y8246D01*
X11383Y8247D01*
X11380Y8248D01*
X11377Y8248D01*
X11373D01*
X11370Y8248D01*
X11367Y8247D01*
X11364Y8246D01*
X11361Y8245D01*
X11358Y8244D01*
X11355Y8243D01*
X11352Y8241D01*
X11350Y8239D01*
X11347Y8237D01*
X11345Y8235D01*
X11343Y8232D01*
X11341Y8229D01*
X11340Y8227D01*
X11338Y8224D01*
X11337Y8221D01*
X11336Y8218D01*
X11336Y8214D01*
X11335Y8211D01*
X11335Y8208D01*
X11375Y8108D02*
Y8068D01*
Y8248D02*
Y8288D01*
X11415Y8208D02*
Y8148D01*
X11335D02*
Y8208D01*
X11425Y7828D02*
Y7628D01*
X11525D02*
Y7828D01*
Y7628D02*
X11425D01*
Y7828D02*
X11525D01*
X11615Y7798D02*
Y7558D01*
X11535D02*
Y7798D01*
X11575D02*
Y7878D01*
Y7558D02*
Y7478D01*
X11535Y7798D02*
X11615D01*
Y7558D02*
X11535D01*
X11715D02*
Y7798D01*
X11635D02*
Y7558D01*
X11675Y7798D02*
Y7878D01*
Y7558D02*
Y7478D01*
X11635Y7798D02*
X11715D01*
Y7558D02*
X11635D01*
X11835Y8208D02*
X11835Y8211D01*
X11836Y8214D01*
X11836Y8218D01*
X11837Y8221D01*
X11838Y8224D01*
X11840Y8227D01*
X11841Y8229D01*
X11843Y8232D01*
X11845Y8235D01*
X11847Y8237D01*
X11850Y8239D01*
X11852Y8241D01*
X11855Y8243D01*
X11858Y8244D01*
X11861Y8245D01*
X11864Y8246D01*
X11867Y8247D01*
X11870Y8248D01*
X11873Y8248D01*
X11877D01*
X11880Y8248D01*
X11883Y8247D01*
X11886Y8246D01*
X11889Y8245D01*
X11892Y8244D01*
X11895Y8243D01*
X11898Y8241D01*
X11900Y8239D01*
X11903Y8237D01*
X11905Y8235D01*
X11907Y8232D01*
X11909Y8229D01*
X11910Y8227D01*
X11912Y8224D01*
X11913Y8221D01*
X11914Y8218D01*
X11914Y8214D01*
X11915Y8211D01*
X11915Y8208D01*
Y8148D02*
X11915Y8145D01*
X11914Y8142D01*
X11914Y8138D01*
X11913Y8135D01*
X11912Y8132D01*
X11910Y8129D01*
X11909Y8127D01*
X11907Y8124D01*
X11905Y8121D01*
X11903Y8119D01*
X11900Y8117D01*
X11898Y8115D01*
X11895Y8113D01*
X11892Y8112D01*
X11889Y8111D01*
X11886Y8110D01*
X11883Y8109D01*
X11880Y8108D01*
X11877Y8108D01*
X11873D01*
X11870Y8108D01*
X11867Y8109D01*
X11864Y8110D01*
X11861Y8111D01*
X11858Y8112D01*
X11855Y8113D01*
X11852Y8115D01*
X11850Y8117D01*
X11847Y8119D01*
X11845Y8121D01*
X11843Y8124D01*
X11841Y8127D01*
X11840Y8129D01*
X11838Y8132D01*
X11837Y8135D01*
X11836Y8138D01*
X11836Y8142D01*
X11835Y8145D01*
X11835Y8148D01*
X11875Y8248D02*
Y8288D01*
Y8108D02*
Y8068D01*
X11835Y8148D02*
Y8208D01*
X11915D02*
Y8148D01*
X11935D02*
X11935Y8145D01*
X11936Y8142D01*
X11936Y8138D01*
X11937Y8135D01*
X11938Y8132D01*
X11940Y8129D01*
X11941Y8127D01*
X11943Y8124D01*
X11945Y8121D01*
X11947Y8119D01*
X11950Y8117D01*
X11952Y8115D01*
X11955Y8113D01*
X11958Y8112D01*
X11961Y8111D01*
X11964Y8110D01*
X11967Y8109D01*
X11970Y8108D01*
X11973Y8108D01*
X11977D01*
X11980Y8108D01*
X11983Y8109D01*
X11986Y8110D01*
X11989Y8111D01*
X11992Y8112D01*
X11995Y8113D01*
X11998Y8115D01*
X12000Y8117D01*
X12003Y8119D01*
X12005Y8121D01*
X12007Y8124D01*
X12009Y8127D01*
X12010Y8129D01*
X12012Y8132D01*
X12013Y8135D01*
X12014Y8138D01*
X12014Y8142D01*
X12015Y8145D01*
X12015Y8148D01*
Y8208D02*
X12015Y8211D01*
X12014Y8214D01*
X12014Y8218D01*
X12013Y8221D01*
X12012Y8224D01*
X12010Y8227D01*
X12009Y8229D01*
X12007Y8232D01*
X12005Y8235D01*
X12003Y8237D01*
X12000Y8239D01*
X11998Y8241D01*
X11995Y8243D01*
X11992Y8244D01*
X11989Y8245D01*
X11986Y8246D01*
X11983Y8247D01*
X11980Y8248D01*
X11977Y8248D01*
X11973D01*
X11970Y8248D01*
X11967Y8247D01*
X11964Y8246D01*
X11961Y8245D01*
X11958Y8244D01*
X11955Y8243D01*
X11952Y8241D01*
X11950Y8239D01*
X11947Y8237D01*
X11945Y8235D01*
X11943Y8232D01*
X11941Y8229D01*
X11940Y8227D01*
X11938Y8224D01*
X11937Y8221D01*
X11936Y8218D01*
X11936Y8214D01*
X11935Y8211D01*
X11935Y8208D01*
X11975Y8108D02*
Y8068D01*
Y8248D02*
Y8288D01*
X12015Y8208D02*
Y8148D01*
X11935D02*
Y8208D01*
X10900Y8953D02*
Y9003D01*
X10800D02*
Y8953D01*
X10350Y9003D02*
Y8603D01*
X10800D02*
Y8653D01*
X10900D02*
Y8603D01*
X10950D02*
Y9003D01*
X10900D01*
Y8953D02*
X10800D01*
Y9003D02*
X10350D01*
Y8603D02*
X10800D01*
Y8653D02*
X10900D01*
Y8603D02*
X10950D01*
X10350Y8903D02*
X10150D01*
Y8703D02*
X10350D01*
Y8803D02*
X10150D01*
X9930Y8863D02*
X9933Y8863D01*
X9936Y8864D01*
X9940Y8864D01*
X9943Y8865D01*
X9946Y8866D01*
X9949Y8868D01*
X9951Y8869D01*
X9954Y8871D01*
X9957Y8873D01*
X9959Y8875D01*
X9961Y8878D01*
X9963Y8880D01*
X9965Y8883D01*
X9966Y8886D01*
X9967Y8889D01*
X9968Y8892D01*
X9969Y8895D01*
X9970Y8898D01*
X9970Y8901D01*
Y8905D01*
X9970Y8908D01*
X9969Y8911D01*
X9968Y8914D01*
X9967Y8917D01*
X9966Y8920D01*
X9965Y8923D01*
X9963Y8926D01*
X9961Y8928D01*
X9959Y8931D01*
X9957Y8933D01*
X9954Y8935D01*
X9951Y8937D01*
X9949Y8938D01*
X9946Y8940D01*
X9943Y8941D01*
X9940Y8942D01*
X9936Y8942D01*
X9933Y8943D01*
X9930Y8943D01*
X9870D02*
X9867Y8943D01*
X9864Y8942D01*
X9860Y8942D01*
X9857Y8941D01*
X9854Y8940D01*
X9851Y8938D01*
X9849Y8937D01*
X9846Y8935D01*
X9843Y8933D01*
X9841Y8931D01*
X9839Y8928D01*
X9837Y8926D01*
X9835Y8923D01*
X9834Y8920D01*
X9833Y8917D01*
X9832Y8914D01*
X9831Y8911D01*
X9830Y8908D01*
X9830Y8905D01*
Y8901D01*
X9830Y8898D01*
X9831Y8895D01*
X9832Y8892D01*
X9833Y8889D01*
X9834Y8886D01*
X9835Y8883D01*
X9837Y8880D01*
X9839Y8878D01*
X9841Y8875D01*
X9843Y8873D01*
X9846Y8871D01*
X9849Y8869D01*
X9851Y8868D01*
X9854Y8866D01*
X9857Y8865D01*
X9860Y8864D01*
X9864Y8864D01*
X9867Y8863D01*
X9870Y8863D01*
Y8943D02*
X9930D01*
Y8863D02*
X9870D01*
X9970Y8903D02*
X10010D01*
X9830D02*
X9790D01*
X8750Y8988D02*
Y8678D01*
X9550D02*
Y8988D01*
X8750D01*
Y8678D02*
X9550D01*
X9700Y6858D02*
Y6778D01*
Y7098D02*
Y7178D01*
X9660Y7098D02*
Y6858D01*
X9740D02*
Y7098D01*
Y6858D02*
X9660D01*
Y7098D02*
X9740D01*
X9715Y8148D02*
X9715Y8145D01*
X9714Y8142D01*
X9714Y8138D01*
X9713Y8135D01*
X9712Y8132D01*
X9710Y8129D01*
X9709Y8127D01*
X9707Y8124D01*
X9705Y8121D01*
X9703Y8119D01*
X9700Y8117D01*
X9698Y8115D01*
X9695Y8113D01*
X9692Y8112D01*
X9689Y8111D01*
X9686Y8110D01*
X9683Y8109D01*
X9680Y8108D01*
X9677Y8108D01*
X9673D01*
X9670Y8108D01*
X9667Y8109D01*
X9664Y8110D01*
X9661Y8111D01*
X9658Y8112D01*
X9655Y8113D01*
X9652Y8115D01*
X9650Y8117D01*
X9647Y8119D01*
X9645Y8121D01*
X9643Y8124D01*
X9641Y8127D01*
X9640Y8129D01*
X9638Y8132D01*
X9637Y8135D01*
X9636Y8138D01*
X9636Y8142D01*
X9635Y8145D01*
X9635Y8148D01*
Y8208D02*
X9635Y8211D01*
X9636Y8214D01*
X9636Y8218D01*
X9637Y8221D01*
X9638Y8224D01*
X9640Y8227D01*
X9641Y8229D01*
X9643Y8232D01*
X9645Y8235D01*
X9647Y8237D01*
X9650Y8239D01*
X9652Y8241D01*
X9655Y8243D01*
X9658Y8244D01*
X9661Y8245D01*
X9664Y8246D01*
X9667Y8247D01*
X9670Y8248D01*
X9673Y8248D01*
X9677D01*
X9680Y8248D01*
X9683Y8247D01*
X9686Y8246D01*
X9689Y8245D01*
X9692Y8244D01*
X9695Y8243D01*
X9698Y8241D01*
X9700Y8239D01*
X9703Y8237D01*
X9705Y8235D01*
X9707Y8232D01*
X9709Y8229D01*
X9710Y8227D01*
X9712Y8224D01*
X9713Y8221D01*
X9714Y8218D01*
X9714Y8214D01*
X9715Y8211D01*
X9715Y8208D01*
X9675Y8108D02*
Y8068D01*
Y8248D02*
Y8288D01*
X9715Y8208D02*
Y8148D01*
X9635D02*
Y8208D01*
X7800Y8678D02*
Y8988D01*
X8600D02*
Y8678D01*
Y8988D02*
X7800D01*
Y8678D02*
X8600D01*
X7690Y7598D02*
X7690Y7595D01*
X7689Y7592D01*
X7689Y7588D01*
X7688Y7585D01*
X7687Y7582D01*
X7685Y7579D01*
X7684Y7577D01*
X7682Y7574D01*
X7680Y7571D01*
X7678Y7569D01*
X7675Y7567D01*
X7673Y7565D01*
X7670Y7563D01*
X7667Y7562D01*
X7664Y7561D01*
X7661Y7560D01*
X7658Y7559D01*
X7655Y7558D01*
X7652Y7558D01*
X7648D01*
X7645Y7558D01*
X7642Y7559D01*
X7639Y7560D01*
X7636Y7561D01*
X7633Y7562D01*
X7630Y7563D01*
X7627Y7565D01*
X7625Y7567D01*
X7622Y7569D01*
X7620Y7571D01*
X7618Y7574D01*
X7616Y7577D01*
X7615Y7579D01*
X7613Y7582D01*
X7612Y7585D01*
X7611Y7588D01*
X7611Y7592D01*
X7610Y7595D01*
X7610Y7598D01*
Y7658D02*
X7610Y7661D01*
X7611Y7664D01*
X7611Y7668D01*
X7612Y7671D01*
X7613Y7674D01*
X7615Y7677D01*
X7616Y7679D01*
X7618Y7682D01*
X7620Y7685D01*
X7622Y7687D01*
X7625Y7689D01*
X7627Y7691D01*
X7630Y7693D01*
X7633Y7694D01*
X7636Y7695D01*
X7639Y7696D01*
X7642Y7697D01*
X7645Y7698D01*
X7648Y7698D01*
X7652D01*
X7655Y7698D01*
X7658Y7697D01*
X7661Y7696D01*
X7664Y7695D01*
X7667Y7694D01*
X7670Y7693D01*
X7673Y7691D01*
X7675Y7689D01*
X7678Y7687D01*
X7680Y7685D01*
X7682Y7682D01*
X7684Y7679D01*
X7685Y7677D01*
X7687Y7674D01*
X7688Y7671D01*
X7689Y7668D01*
X7689Y7664D01*
X7690Y7661D01*
X7690Y7658D01*
X7650Y7558D02*
Y7518D01*
Y7698D02*
Y7738D01*
X7690Y7658D02*
Y7598D01*
X7610D02*
Y7658D01*
X7600Y7628D02*
Y7728D01*
X7400D02*
Y7628D01*
X7600D01*
Y7728D02*
X7400D01*
X7665Y7023D02*
Y6783D01*
X7585D02*
Y7023D01*
X7625D02*
Y7103D01*
Y6783D02*
Y6703D01*
X7585Y7023D02*
X7665D01*
Y6783D02*
X7585D01*
X8535Y8148D02*
X8535Y8145D01*
X8536Y8142D01*
X8536Y8138D01*
X8537Y8135D01*
X8538Y8132D01*
X8540Y8129D01*
X8541Y8127D01*
X8543Y8124D01*
X8545Y8121D01*
X8547Y8119D01*
X8550Y8117D01*
X8552Y8115D01*
X8555Y8113D01*
X8558Y8112D01*
X8561Y8111D01*
X8564Y8110D01*
X8567Y8109D01*
X8570Y8108D01*
X8573Y8108D01*
X8577D01*
X8580Y8108D01*
X8583Y8109D01*
X8586Y8110D01*
X8589Y8111D01*
X8592Y8112D01*
X8595Y8113D01*
X8598Y8115D01*
X8600Y8117D01*
X8603Y8119D01*
X8605Y8121D01*
X8607Y8124D01*
X8609Y8127D01*
X8610Y8129D01*
X8612Y8132D01*
X8613Y8135D01*
X8614Y8138D01*
X8614Y8142D01*
X8615Y8145D01*
X8615Y8148D01*
Y8208D02*
X8615Y8211D01*
X8614Y8214D01*
X8614Y8218D01*
X8613Y8221D01*
X8612Y8224D01*
X8610Y8227D01*
X8609Y8229D01*
X8607Y8232D01*
X8605Y8235D01*
X8603Y8237D01*
X8600Y8239D01*
X8598Y8241D01*
X8595Y8243D01*
X8592Y8244D01*
X8589Y8245D01*
X8586Y8246D01*
X8583Y8247D01*
X8580Y8248D01*
X8577Y8248D01*
X8573D01*
X8570Y8248D01*
X8567Y8247D01*
X8564Y8246D01*
X8561Y8245D01*
X8558Y8244D01*
X8555Y8243D01*
X8552Y8241D01*
X8550Y8239D01*
X8547Y8237D01*
X8545Y8235D01*
X8543Y8232D01*
X8541Y8229D01*
X8540Y8227D01*
X8538Y8224D01*
X8537Y8221D01*
X8536Y8218D01*
X8536Y8214D01*
X8535Y8211D01*
X8535Y8208D01*
X8575Y8108D02*
Y8068D01*
Y8248D02*
Y8288D01*
X8615Y8208D02*
Y8148D01*
X8535D02*
Y8208D01*
X8650Y7053D02*
Y6983D01*
Y6723D02*
Y6653D01*
X8700Y6723D02*
Y6983D01*
X8600D02*
Y6723D01*
X8700D01*
Y6983D02*
X8600D01*
Y6933D02*
X8700D01*
X8750Y6983D02*
Y7053D01*
Y6723D02*
Y6653D01*
X8800Y6723D02*
Y6983D01*
X8700D02*
Y6723D01*
X8800D01*
Y6983D02*
X8700D01*
Y6933D02*
X8800D01*
X8510Y6973D02*
Y6733D01*
X8590D02*
Y6973D01*
X8550Y6733D02*
Y6653D01*
Y6973D02*
Y7053D01*
X8510Y6733D02*
X8590D01*
Y6973D02*
X8510D01*
X6815Y8773D02*
X6815Y8770D01*
X6814Y8767D01*
X6814Y8763D01*
X6813Y8760D01*
X6812Y8757D01*
X6810Y8754D01*
X6809Y8752D01*
X6807Y8749D01*
X6805Y8746D01*
X6803Y8744D01*
X6800Y8742D01*
X6798Y8740D01*
X6795Y8738D01*
X6792Y8737D01*
X6789Y8736D01*
X6786Y8735D01*
X6783Y8734D01*
X6780Y8733D01*
X6777Y8733D01*
X6773D01*
X6770Y8733D01*
X6767Y8734D01*
X6764Y8735D01*
X6761Y8736D01*
X6758Y8737D01*
X6755Y8738D01*
X6752Y8740D01*
X6750Y8742D01*
X6747Y8744D01*
X6745Y8746D01*
X6743Y8749D01*
X6741Y8752D01*
X6740Y8754D01*
X6738Y8757D01*
X6737Y8760D01*
X6736Y8763D01*
X6736Y8767D01*
X6735Y8770D01*
X6735Y8773D01*
Y8833D02*
X6735Y8836D01*
X6736Y8839D01*
X6736Y8843D01*
X6737Y8846D01*
X6738Y8849D01*
X6740Y8852D01*
X6741Y8854D01*
X6743Y8857D01*
X6745Y8860D01*
X6747Y8862D01*
X6750Y8864D01*
X6752Y8866D01*
X6755Y8868D01*
X6758Y8869D01*
X6761Y8870D01*
X6764Y8871D01*
X6767Y8872D01*
X6770Y8873D01*
X6773Y8873D01*
X6777D01*
X6780Y8873D01*
X6783Y8872D01*
X6786Y8871D01*
X6789Y8870D01*
X6792Y8869D01*
X6795Y8868D01*
X6798Y8866D01*
X6800Y8864D01*
X6803Y8862D01*
X6805Y8860D01*
X6807Y8857D01*
X6809Y8854D01*
X6810Y8852D01*
X6812Y8849D01*
X6813Y8846D01*
X6814Y8843D01*
X6814Y8839D01*
X6815Y8836D01*
X6815Y8833D01*
X6775Y8733D02*
Y8693D01*
Y8873D02*
Y8913D01*
X6815Y8833D02*
Y8773D01*
X6735D02*
Y8833D01*
X6765Y6873D02*
Y6633D01*
X6685D02*
Y6873D01*
X6725D02*
Y6953D01*
Y6633D02*
Y6553D01*
X6685Y6873D02*
X6765D01*
Y6633D02*
X6685D01*
X6600Y6883D02*
Y6953D01*
Y6623D02*
Y6553D01*
X6650Y6623D02*
Y6883D01*
X6550D02*
Y6623D01*
X6650D01*
Y6883D02*
X6550D01*
Y6833D02*
X6650D01*
X6900Y7628D02*
Y7728D01*
X7100D02*
Y7628D01*
Y7728D02*
X6900D01*
Y7628D02*
X7100D01*
X6265Y7398D02*
X6265Y7395D01*
X6264Y7392D01*
X6264Y7388D01*
X6263Y7385D01*
X6262Y7382D01*
X6260Y7379D01*
X6259Y7377D01*
X6257Y7374D01*
X6255Y7371D01*
X6253Y7369D01*
X6250Y7367D01*
X6248Y7365D01*
X6245Y7363D01*
X6242Y7362D01*
X6239Y7361D01*
X6236Y7360D01*
X6233Y7359D01*
X6230Y7358D01*
X6227Y7358D01*
X6223D01*
X6220Y7358D01*
X6217Y7359D01*
X6214Y7360D01*
X6211Y7361D01*
X6208Y7362D01*
X6205Y7363D01*
X6202Y7365D01*
X6200Y7367D01*
X6197Y7369D01*
X6195Y7371D01*
X6193Y7374D01*
X6191Y7377D01*
X6190Y7379D01*
X6188Y7382D01*
X6187Y7385D01*
X6186Y7388D01*
X6186Y7392D01*
X6185Y7395D01*
X6185Y7398D01*
Y7458D02*
X6185Y7461D01*
X6186Y7464D01*
X6186Y7468D01*
X6187Y7471D01*
X6188Y7474D01*
X6190Y7477D01*
X6191Y7479D01*
X6193Y7482D01*
X6195Y7485D01*
X6197Y7487D01*
X6200Y7489D01*
X6202Y7491D01*
X6205Y7493D01*
X6208Y7494D01*
X6211Y7495D01*
X6214Y7496D01*
X6217Y7497D01*
X6220Y7498D01*
X6223Y7498D01*
X6227D01*
X6230Y7498D01*
X6233Y7497D01*
X6236Y7496D01*
X6239Y7495D01*
X6242Y7494D01*
X6245Y7493D01*
X6248Y7491D01*
X6250Y7489D01*
X6253Y7487D01*
X6255Y7485D01*
X6257Y7482D01*
X6259Y7479D01*
X6260Y7477D01*
X6262Y7474D01*
X6263Y7471D01*
X6264Y7468D01*
X6264Y7464D01*
X6265Y7461D01*
X6265Y7458D01*
X6225Y7358D02*
Y7318D01*
Y7498D02*
Y7538D01*
X6265Y7458D02*
Y7398D01*
X6185D02*
Y7458D01*
X5815Y7398D02*
X5815Y7395D01*
X5814Y7392D01*
X5814Y7388D01*
X5813Y7385D01*
X5812Y7382D01*
X5810Y7379D01*
X5809Y7377D01*
X5807Y7374D01*
X5805Y7371D01*
X5803Y7369D01*
X5800Y7367D01*
X5798Y7365D01*
X5795Y7363D01*
X5792Y7362D01*
X5789Y7361D01*
X5786Y7360D01*
X5783Y7359D01*
X5780Y7358D01*
X5777Y7358D01*
X5773D01*
X5770Y7358D01*
X5767Y7359D01*
X5764Y7360D01*
X5761Y7361D01*
X5758Y7362D01*
X5755Y7363D01*
X5752Y7365D01*
X5750Y7367D01*
X5747Y7369D01*
X5745Y7371D01*
X5743Y7374D01*
X5741Y7377D01*
X5740Y7379D01*
X5738Y7382D01*
X5737Y7385D01*
X5736Y7388D01*
X5736Y7392D01*
X5735Y7395D01*
X5735Y7398D01*
Y7458D02*
X5735Y7461D01*
X5736Y7464D01*
X5736Y7468D01*
X5737Y7471D01*
X5738Y7474D01*
X5740Y7477D01*
X5741Y7479D01*
X5743Y7482D01*
X5745Y7485D01*
X5747Y7487D01*
X5750Y7489D01*
X5752Y7491D01*
X5755Y7493D01*
X5758Y7494D01*
X5761Y7495D01*
X5764Y7496D01*
X5767Y7497D01*
X5770Y7498D01*
X5773Y7498D01*
X5777D01*
X5780Y7498D01*
X5783Y7497D01*
X5786Y7496D01*
X5789Y7495D01*
X5792Y7494D01*
X5795Y7493D01*
X5798Y7491D01*
X5800Y7489D01*
X5803Y7487D01*
X5805Y7485D01*
X5807Y7482D01*
X5809Y7479D01*
X5810Y7477D01*
X5812Y7474D01*
X5813Y7471D01*
X5814Y7468D01*
X5814Y7464D01*
X5815Y7461D01*
X5815Y7458D01*
X5775Y7358D02*
Y7318D01*
Y7498D02*
Y7538D01*
X5815Y7458D02*
Y7398D01*
X5735D02*
Y7458D01*
X6020Y7178D02*
Y7078D01*
X6280D02*
Y7178D01*
X6230D02*
Y7078D01*
X6280Y7128D02*
X6350D01*
X6020D02*
X5950D01*
X6020Y7078D02*
X6280D01*
Y7178D02*
X6020D01*
X6270Y7068D02*
Y6988D01*
X6030D02*
Y7068D01*
Y6988D02*
X6270D01*
Y7068D02*
X6030D01*
X6270Y7028D02*
X6350D01*
X6030D02*
X5950D01*
X6870Y7088D02*
Y7168D01*
X6630D02*
Y7088D01*
X6870D01*
Y7168D02*
X6630D01*
X6870Y7128D02*
X6950D01*
X6630D02*
X6550D01*
X5790Y8773D02*
X5790Y8770D01*
X5789Y8767D01*
X5789Y8763D01*
X5788Y8760D01*
X5787Y8757D01*
X5785Y8754D01*
X5784Y8752D01*
X5782Y8749D01*
X5780Y8746D01*
X5778Y8744D01*
X5775Y8742D01*
X5773Y8740D01*
X5770Y8738D01*
X5767Y8737D01*
X5764Y8736D01*
X5761Y8735D01*
X5758Y8734D01*
X5755Y8733D01*
X5752Y8733D01*
X5748D01*
X5745Y8733D01*
X5742Y8734D01*
X5739Y8735D01*
X5736Y8736D01*
X5733Y8737D01*
X5730Y8738D01*
X5727Y8740D01*
X5725Y8742D01*
X5722Y8744D01*
X5720Y8746D01*
X5718Y8749D01*
X5716Y8752D01*
X5715Y8754D01*
X5713Y8757D01*
X5712Y8760D01*
X5711Y8763D01*
X5711Y8767D01*
X5710Y8770D01*
X5710Y8773D01*
Y8833D02*
X5710Y8836D01*
X5711Y8839D01*
X5711Y8843D01*
X5712Y8846D01*
X5713Y8849D01*
X5715Y8852D01*
X5716Y8854D01*
X5718Y8857D01*
X5720Y8860D01*
X5722Y8862D01*
X5725Y8864D01*
X5727Y8866D01*
X5730Y8868D01*
X5733Y8869D01*
X5736Y8870D01*
X5739Y8871D01*
X5742Y8872D01*
X5745Y8873D01*
X5748Y8873D01*
X5752D01*
X5755Y8873D01*
X5758Y8872D01*
X5761Y8871D01*
X5764Y8870D01*
X5767Y8869D01*
X5770Y8868D01*
X5773Y8866D01*
X5775Y8864D01*
X5778Y8862D01*
X5780Y8860D01*
X5782Y8857D01*
X5784Y8854D01*
X5785Y8852D01*
X5787Y8849D01*
X5788Y8846D01*
X5789Y8843D01*
X5789Y8839D01*
X5790Y8836D01*
X5790Y8833D01*
X5750Y8733D02*
Y8693D01*
Y8873D02*
Y8913D01*
X5790Y8833D02*
Y8773D01*
X5710D02*
Y8833D01*
X4865Y8773D02*
X4865Y8770D01*
X4864Y8767D01*
X4864Y8763D01*
X4863Y8760D01*
X4862Y8757D01*
X4860Y8754D01*
X4859Y8752D01*
X4857Y8749D01*
X4855Y8746D01*
X4853Y8744D01*
X4850Y8742D01*
X4848Y8740D01*
X4845Y8738D01*
X4842Y8737D01*
X4839Y8736D01*
X4836Y8735D01*
X4833Y8734D01*
X4830Y8733D01*
X4827Y8733D01*
X4823D01*
X4820Y8733D01*
X4817Y8734D01*
X4814Y8735D01*
X4811Y8736D01*
X4808Y8737D01*
X4805Y8738D01*
X4802Y8740D01*
X4800Y8742D01*
X4797Y8744D01*
X4795Y8746D01*
X4793Y8749D01*
X4791Y8752D01*
X4790Y8754D01*
X4788Y8757D01*
X4787Y8760D01*
X4786Y8763D01*
X4786Y8767D01*
X4785Y8770D01*
X4785Y8773D01*
Y8833D02*
X4785Y8836D01*
X4786Y8839D01*
X4786Y8843D01*
X4787Y8846D01*
X4788Y8849D01*
X4790Y8852D01*
X4791Y8854D01*
X4793Y8857D01*
X4795Y8860D01*
X4797Y8862D01*
X4800Y8864D01*
X4802Y8866D01*
X4805Y8868D01*
X4808Y8869D01*
X4811Y8870D01*
X4814Y8871D01*
X4817Y8872D01*
X4820Y8873D01*
X4823Y8873D01*
X4827D01*
X4830Y8873D01*
X4833Y8872D01*
X4836Y8871D01*
X4839Y8870D01*
X4842Y8869D01*
X4845Y8868D01*
X4848Y8866D01*
X4850Y8864D01*
X4853Y8862D01*
X4855Y8860D01*
X4857Y8857D01*
X4859Y8854D01*
X4860Y8852D01*
X4862Y8849D01*
X4863Y8846D01*
X4864Y8843D01*
X4864Y8839D01*
X4865Y8836D01*
X4865Y8833D01*
X4825Y8733D02*
Y8693D01*
Y8873D02*
Y8913D01*
X4865Y8833D02*
Y8773D01*
X4785D02*
Y8833D01*
X4885Y7398D02*
X4885Y7395D01*
X4886Y7392D01*
X4886Y7388D01*
X4887Y7385D01*
X4888Y7382D01*
X4890Y7379D01*
X4891Y7377D01*
X4893Y7374D01*
X4895Y7371D01*
X4897Y7369D01*
X4900Y7367D01*
X4902Y7365D01*
X4905Y7363D01*
X4908Y7362D01*
X4911Y7361D01*
X4914Y7360D01*
X4917Y7359D01*
X4920Y7358D01*
X4923Y7358D01*
X4927D01*
X4930Y7358D01*
X4933Y7359D01*
X4936Y7360D01*
X4939Y7361D01*
X4942Y7362D01*
X4945Y7363D01*
X4948Y7365D01*
X4950Y7367D01*
X4953Y7369D01*
X4955Y7371D01*
X4957Y7374D01*
X4959Y7377D01*
X4960Y7379D01*
X4962Y7382D01*
X4963Y7385D01*
X4964Y7388D01*
X4964Y7392D01*
X4965Y7395D01*
X4965Y7398D01*
Y7458D02*
X4965Y7461D01*
X4964Y7464D01*
X4964Y7468D01*
X4963Y7471D01*
X4962Y7474D01*
X4960Y7477D01*
X4959Y7479D01*
X4957Y7482D01*
X4955Y7485D01*
X4953Y7487D01*
X4950Y7489D01*
X4948Y7491D01*
X4945Y7493D01*
X4942Y7494D01*
X4939Y7495D01*
X4936Y7496D01*
X4933Y7497D01*
X4930Y7498D01*
X4927Y7498D01*
X4923D01*
X4920Y7498D01*
X4917Y7497D01*
X4914Y7496D01*
X4911Y7495D01*
X4908Y7494D01*
X4905Y7493D01*
X4902Y7491D01*
X4900Y7489D01*
X4897Y7487D01*
X4895Y7485D01*
X4893Y7482D01*
X4891Y7479D01*
X4890Y7477D01*
X4888Y7474D01*
X4887Y7471D01*
X4886Y7468D01*
X4886Y7464D01*
X4885Y7461D01*
X4885Y7458D01*
X4925Y7358D02*
Y7318D01*
Y7498D02*
Y7538D01*
X4965Y7458D02*
Y7398D01*
X4885D02*
Y7458D01*
X5220Y7168D02*
Y7088D01*
X4980D02*
Y7168D01*
Y7088D02*
X5220D01*
Y7168D02*
X4980D01*
X5220Y7128D02*
X5300D01*
X4980D02*
X4900D01*
X5220Y7068D02*
Y6988D01*
X4980D02*
Y7068D01*
Y6988D02*
X5220D01*
Y7068D02*
X4980D01*
X5220Y7028D02*
X5300D01*
X4980D02*
X4900D01*
X5285Y8198D02*
X5285Y8195D01*
X5286Y8192D01*
X5286Y8188D01*
X5287Y8185D01*
X5288Y8182D01*
X5290Y8179D01*
X5291Y8177D01*
X5293Y8174D01*
X5295Y8171D01*
X5297Y8169D01*
X5300Y8167D01*
X5302Y8165D01*
X5305Y8163D01*
X5308Y8162D01*
X5311Y8161D01*
X5314Y8160D01*
X5317Y8159D01*
X5320Y8158D01*
X5323Y8158D01*
X5327D01*
X5330Y8158D01*
X5333Y8159D01*
X5336Y8160D01*
X5339Y8161D01*
X5342Y8162D01*
X5345Y8163D01*
X5348Y8165D01*
X5350Y8167D01*
X5353Y8169D01*
X5355Y8171D01*
X5357Y8174D01*
X5359Y8177D01*
X5360Y8179D01*
X5362Y8182D01*
X5363Y8185D01*
X5364Y8188D01*
X5364Y8192D01*
X5365Y8195D01*
X5365Y8198D01*
Y8258D02*
X5365Y8261D01*
X5364Y8264D01*
X5364Y8268D01*
X5363Y8271D01*
X5362Y8274D01*
X5360Y8277D01*
X5359Y8279D01*
X5357Y8282D01*
X5355Y8285D01*
X5353Y8287D01*
X5350Y8289D01*
X5348Y8291D01*
X5345Y8293D01*
X5342Y8294D01*
X5339Y8295D01*
X5336Y8296D01*
X5333Y8297D01*
X5330Y8298D01*
X5327Y8298D01*
X5323D01*
X5320Y8298D01*
X5317Y8297D01*
X5314Y8296D01*
X5311Y8295D01*
X5308Y8294D01*
X5305Y8293D01*
X5302Y8291D01*
X5300Y8289D01*
X5297Y8287D01*
X5295Y8285D01*
X5293Y8282D01*
X5291Y8279D01*
X5290Y8277D01*
X5288Y8274D01*
X5287Y8271D01*
X5286Y8268D01*
X5286Y8264D01*
X5285Y8261D01*
X5285Y8258D01*
X5325Y8158D02*
Y8118D01*
Y8298D02*
Y8338D01*
X5365Y8258D02*
Y8198D01*
X5285D02*
Y8258D01*
X4380Y7168D02*
Y7088D01*
X4620D02*
Y7168D01*
X4380D01*
Y7088D02*
X4620D01*
X4380Y7128D02*
X4300D01*
X4620D02*
X4700D01*
X3965Y8773D02*
X3965Y8770D01*
X3964Y8767D01*
X3964Y8763D01*
X3963Y8760D01*
X3962Y8757D01*
X3960Y8754D01*
X3959Y8752D01*
X3957Y8749D01*
X3955Y8746D01*
X3953Y8744D01*
X3950Y8742D01*
X3948Y8740D01*
X3945Y8738D01*
X3942Y8737D01*
X3939Y8736D01*
X3936Y8735D01*
X3933Y8734D01*
X3930Y8733D01*
X3927Y8733D01*
X3923D01*
X3920Y8733D01*
X3917Y8734D01*
X3914Y8735D01*
X3911Y8736D01*
X3908Y8737D01*
X3905Y8738D01*
X3902Y8740D01*
X3900Y8742D01*
X3897Y8744D01*
X3895Y8746D01*
X3893Y8749D01*
X3891Y8752D01*
X3890Y8754D01*
X3888Y8757D01*
X3887Y8760D01*
X3886Y8763D01*
X3886Y8767D01*
X3885Y8770D01*
X3885Y8773D01*
Y8833D02*
X3885Y8836D01*
X3886Y8839D01*
X3886Y8843D01*
X3887Y8846D01*
X3888Y8849D01*
X3890Y8852D01*
X3891Y8854D01*
X3893Y8857D01*
X3895Y8860D01*
X3897Y8862D01*
X3900Y8864D01*
X3902Y8866D01*
X3905Y8868D01*
X3908Y8869D01*
X3911Y8870D01*
X3914Y8871D01*
X3917Y8872D01*
X3920Y8873D01*
X3923Y8873D01*
X3927D01*
X3930Y8873D01*
X3933Y8872D01*
X3936Y8871D01*
X3939Y8870D01*
X3942Y8869D01*
X3945Y8868D01*
X3948Y8866D01*
X3950Y8864D01*
X3953Y8862D01*
X3955Y8860D01*
X3957Y8857D01*
X3959Y8854D01*
X3960Y8852D01*
X3962Y8849D01*
X3963Y8846D01*
X3964Y8843D01*
X3964Y8839D01*
X3965Y8836D01*
X3965Y8833D01*
X3925Y8733D02*
Y8693D01*
Y8873D02*
Y8913D01*
X3965Y8833D02*
Y8773D01*
X3885D02*
Y8833D01*
X3790Y7398D02*
X3790Y7395D01*
X3789Y7392D01*
X3789Y7388D01*
X3788Y7385D01*
X3787Y7382D01*
X3785Y7379D01*
X3784Y7377D01*
X3782Y7374D01*
X3780Y7371D01*
X3778Y7369D01*
X3775Y7367D01*
X3773Y7365D01*
X3770Y7363D01*
X3767Y7362D01*
X3764Y7361D01*
X3761Y7360D01*
X3758Y7359D01*
X3755Y7358D01*
X3752Y7358D01*
X3748D01*
X3745Y7358D01*
X3742Y7359D01*
X3739Y7360D01*
X3736Y7361D01*
X3733Y7362D01*
X3730Y7363D01*
X3727Y7365D01*
X3725Y7367D01*
X3722Y7369D01*
X3720Y7371D01*
X3718Y7374D01*
X3716Y7377D01*
X3715Y7379D01*
X3713Y7382D01*
X3712Y7385D01*
X3711Y7388D01*
X3711Y7392D01*
X3710Y7395D01*
X3710Y7398D01*
Y7458D02*
X3710Y7461D01*
X3711Y7464D01*
X3711Y7468D01*
X3712Y7471D01*
X3713Y7474D01*
X3715Y7477D01*
X3716Y7479D01*
X3718Y7482D01*
X3720Y7485D01*
X3722Y7487D01*
X3725Y7489D01*
X3727Y7491D01*
X3730Y7493D01*
X3733Y7494D01*
X3736Y7495D01*
X3739Y7496D01*
X3742Y7497D01*
X3745Y7498D01*
X3748Y7498D01*
X3752D01*
X3755Y7498D01*
X3758Y7497D01*
X3761Y7496D01*
X3764Y7495D01*
X3767Y7494D01*
X3770Y7493D01*
X3773Y7491D01*
X3775Y7489D01*
X3778Y7487D01*
X3780Y7485D01*
X3782Y7482D01*
X3784Y7479D01*
X3785Y7477D01*
X3787Y7474D01*
X3788Y7471D01*
X3789Y7468D01*
X3789Y7464D01*
X3790Y7461D01*
X3790Y7458D01*
X3750Y7358D02*
Y7318D01*
Y7498D02*
Y7538D01*
X3790Y7458D02*
Y7398D01*
X3710D02*
Y7458D01*
X4080Y7068D02*
Y6988D01*
X4320D02*
Y7068D01*
X4080D01*
Y6988D02*
X4320D01*
X4080Y7028D02*
X4000D01*
X4320D02*
X4400D01*
X3790Y8198D02*
X3790Y8195D01*
X3789Y8192D01*
X3789Y8188D01*
X3788Y8185D01*
X3787Y8182D01*
X3785Y8179D01*
X3784Y8177D01*
X3782Y8174D01*
X3780Y8171D01*
X3778Y8169D01*
X3775Y8167D01*
X3773Y8165D01*
X3770Y8163D01*
X3767Y8162D01*
X3764Y8161D01*
X3761Y8160D01*
X3758Y8159D01*
X3755Y8158D01*
X3752Y8158D01*
X3748D01*
X3745Y8158D01*
X3742Y8159D01*
X3739Y8160D01*
X3736Y8161D01*
X3733Y8162D01*
X3730Y8163D01*
X3727Y8165D01*
X3725Y8167D01*
X3722Y8169D01*
X3720Y8171D01*
X3718Y8174D01*
X3716Y8177D01*
X3715Y8179D01*
X3713Y8182D01*
X3712Y8185D01*
X3711Y8188D01*
X3711Y8192D01*
X3710Y8195D01*
X3710Y8198D01*
Y8258D02*
X3710Y8261D01*
X3711Y8264D01*
X3711Y8268D01*
X3712Y8271D01*
X3713Y8274D01*
X3715Y8277D01*
X3716Y8279D01*
X3718Y8282D01*
X3720Y8285D01*
X3722Y8287D01*
X3725Y8289D01*
X3727Y8291D01*
X3730Y8293D01*
X3733Y8294D01*
X3736Y8295D01*
X3739Y8296D01*
X3742Y8297D01*
X3745Y8298D01*
X3748Y8298D01*
X3752D01*
X3755Y8298D01*
X3758Y8297D01*
X3761Y8296D01*
X3764Y8295D01*
X3767Y8294D01*
X3770Y8293D01*
X3773Y8291D01*
X3775Y8289D01*
X3778Y8287D01*
X3780Y8285D01*
X3782Y8282D01*
X3784Y8279D01*
X3785Y8277D01*
X3787Y8274D01*
X3788Y8271D01*
X3789Y8268D01*
X3789Y8264D01*
X3790Y8261D01*
X3790Y8258D01*
X3750Y8158D02*
Y8118D01*
Y8298D02*
Y8338D01*
X3790Y8258D02*
Y8198D01*
X3710D02*
Y8258D01*
D16*
X8975Y7528D02*
X9042D01*
Y7511D01*
X8975Y7445D01*
Y7428D01*
X9042D01*
X9075D02*
Y7495D01*
X9108Y7528D01*
X9142Y7495D01*
Y7428D01*
Y7478D01*
X9075D01*
X9225Y7528D02*
X9242Y7511D01*
X9225Y7528D02*
X9192D01*
X9175Y7511D01*
Y7445D01*
X9192Y7428D01*
X9225D01*
X9242Y7445D01*
X9275Y7428D02*
Y7495D01*
X9308Y7528D01*
X9342Y7495D01*
Y7428D01*
Y7478D01*
X9275D01*
X9475Y7428D02*
Y7528D01*
Y7428D02*
X9525D01*
X9541Y7445D01*
Y7511D01*
X9525Y7528D01*
X9475D01*
X9575D02*
X9641D01*
X9575D02*
Y7428D01*
X9641D01*
X9608Y7478D02*
X9575D01*
X9725Y7528D02*
X9741Y7511D01*
X9725Y7528D02*
X9691D01*
X9675Y7511D01*
Y7495D01*
X9691Y7478D01*
X9725D01*
X9741Y7461D01*
Y7445D01*
X9725Y7428D01*
X9691D01*
X9675Y7445D01*
X9775Y7528D02*
X9808D01*
X9791D01*
Y7428D01*
X9775D01*
X9808D01*
X9908Y7528D02*
X9925Y7511D01*
X9908Y7528D02*
X9875D01*
X9858Y7511D01*
Y7445D01*
X9875Y7428D01*
X9908D01*
X9925Y7445D01*
Y7478D01*
X9891D01*
X9958Y7428D02*
Y7528D01*
X10025Y7428D01*
Y7528D01*
X10158D02*
X10191D01*
X10175D01*
Y7428D01*
X10158D01*
X10191D01*
X10241D02*
Y7528D01*
X10308Y7428D01*
Y7528D01*
X10391D02*
X10408Y7511D01*
X10391Y7528D02*
X10358D01*
X10341Y7511D01*
Y7445D01*
X10358Y7428D01*
X10391D01*
X10408Y7445D01*
D02*
M02*
