*%FSLAX23Y23*%
*%MOIN*%
G01*
%ADD11C,0.006*%
%ADD12C,0.007*%
%ADD13C,0.008*%
%ADD14C,0.010*%
%ADD15C,0.012*%
%ADD16C,0.020*%
%ADD17C,0.024*%
%ADD18C,0.032*%
%ADD19C,0.036*%
%ADD20C,0.040*%
%ADD21C,0.050*%
%ADD22C,0.052*%
%ADD23C,0.055*%
%ADD24C,0.056*%
%ADD25C,0.059*%
%ADD26C,0.060*%
%ADD27C,0.062*%
%ADD28C,0.066*%
%ADD29C,0.070*%
%ADD30C,0.082*%
%ADD31C,0.090*%
%ADD32C,0.095*%
%ADD33O,0.100X0.080*%
%ADD34C,0.100*%
%ADD35O,0.104X0.084*%
%ADD36C,0.104*%
%ADD37C,0.115*%
%ADD38C,0.120*%
%ADD39C,0.124*%
%ADD40C,0.125*%
%ADD41C,0.128*%
%ADD42C,0.129*%
%ADD43C,0.140*%
%ADD44C,0.144*%
%ADD45C,0.148*%
%ADD46C,0.150*%
%ADD47C,0.154*%
%ADD48C,0.250*%
%ADD49C,0.250*%
%ADD50R,0.062X0.062*%
%ADD51R,0.066X0.066*%
%ADD52R,0.075X0.075*%
%ADD53R,0.079X0.079*%
%ADD54R,0.250X0.250*%
D11*
X4630Y6608D02*
Y6648D01*
X4670D01*
Y6608D01*
X4630D01*
X16520Y7628D02*
X16518Y7620D01*
X16513Y7613D01*
X16506Y7609D01*
X16498Y7608D01*
X16490Y7611D01*
X16484Y7616D01*
X16480Y7624D01*
Y7632D01*
X16484Y7640D01*
X16490Y7645D01*
X16498Y7648D01*
X16506Y7647D01*
X16513Y7643D01*
X16518Y7636D01*
X16520Y7628D01*
X16445Y7578D02*
X16443Y7570D01*
X16438Y7563D01*
X16431Y7559D01*
X16423Y7558D01*
X16415Y7561D01*
X16409Y7566D01*
X16405Y7574D01*
Y7582D01*
X16409Y7590D01*
X16415Y7595D01*
X16423Y7598D01*
X16431Y7597D01*
X16438Y7593D01*
X16443Y7586D01*
X16445Y7578D01*
X16345Y8178D02*
X16343Y8170D01*
X16338Y8163D01*
X16331Y8159D01*
X16323Y8158D01*
X16315Y8161D01*
X16309Y8166D01*
X16305Y8174D01*
Y8182D01*
X16309Y8190D01*
X16315Y8195D01*
X16323Y8198D01*
X16331Y8197D01*
X16338Y8193D01*
X16343Y8186D01*
X16345Y8178D01*
X15845D02*
X15843Y8170D01*
X15838Y8163D01*
X15831Y8159D01*
X15823Y8158D01*
X15815Y8161D01*
X15809Y8166D01*
X15805Y8174D01*
Y8182D01*
X15809Y8190D01*
X15815Y8195D01*
X15823Y8198D01*
X15831Y8197D01*
X15838Y8193D01*
X15843Y8186D01*
X15845Y8178D01*
X15745Y7278D02*
X15743Y7270D01*
X15738Y7263D01*
X15731Y7259D01*
X15723Y7258D01*
X15715Y7261D01*
X15709Y7266D01*
X15705Y7274D01*
Y7282D01*
X15709Y7290D01*
X15715Y7295D01*
X15723Y7298D01*
X15731Y7297D01*
X15738Y7293D01*
X15743Y7286D01*
X15745Y7278D01*
Y7528D02*
X15743Y7520D01*
X15738Y7513D01*
X15731Y7509D01*
X15723Y7508D01*
X15715Y7511D01*
X15709Y7516D01*
X15705Y7524D01*
Y7532D01*
X15709Y7540D01*
X15715Y7545D01*
X15723Y7548D01*
X15731Y7547D01*
X15738Y7543D01*
X15743Y7536D01*
X15745Y7528D01*
X15420Y7428D02*
X15418Y7420D01*
X15413Y7413D01*
X15406Y7409D01*
X15398Y7408D01*
X15390Y7411D01*
X15384Y7416D01*
X15380Y7424D01*
Y7432D01*
X15384Y7440D01*
X15390Y7445D01*
X15398Y7448D01*
X15406Y7447D01*
X15413Y7443D01*
X15418Y7436D01*
X15420Y7428D01*
X14495Y7778D02*
X14493Y7770D01*
X14488Y7763D01*
X14481Y7759D01*
X14473Y7758D01*
X14465Y7761D01*
X14459Y7766D01*
X14455Y7774D01*
Y7782D01*
X14459Y7790D01*
X14465Y7795D01*
X14473Y7798D01*
X14481Y7797D01*
X14488Y7793D01*
X14493Y7786D01*
X14495Y7778D01*
X14595Y8553D02*
X14593Y8545D01*
X14588Y8538D01*
X14581Y8534D01*
X14573Y8533D01*
X14565Y8536D01*
X14559Y8541D01*
X14555Y8549D01*
Y8557D01*
X14559Y8565D01*
X14565Y8570D01*
X14573Y8573D01*
X14581Y8572D01*
X14588Y8568D01*
X14593Y8561D01*
X14595Y8553D01*
X13945Y7778D02*
X13943Y7770D01*
X13938Y7763D01*
X13931Y7759D01*
X13923Y7758D01*
X13915Y7761D01*
X13909Y7766D01*
X13905Y7774D01*
Y7782D01*
X13909Y7790D01*
X13915Y7795D01*
X13923Y7798D01*
X13931Y7797D01*
X13938Y7793D01*
X13943Y7786D01*
X13945Y7778D01*
X13995Y8503D02*
X13993Y8495D01*
X13988Y8488D01*
X13981Y8484D01*
X13973Y8483D01*
X13965Y8486D01*
X13959Y8491D01*
X13955Y8499D01*
Y8507D01*
X13959Y8515D01*
X13965Y8520D01*
X13973Y8523D01*
X13981Y8522D01*
X13988Y8518D01*
X13993Y8511D01*
X13995Y8503D01*
X13295Y7803D02*
X13293Y7795D01*
X13288Y7788D01*
X13281Y7784D01*
X13273Y7783D01*
X13265Y7786D01*
X13259Y7791D01*
X13255Y7799D01*
Y7807D01*
X13259Y7815D01*
X13265Y7820D01*
X13273Y7823D01*
X13281Y7822D01*
X13288Y7818D01*
X13293Y7811D01*
X13295Y7803D01*
X13395Y8553D02*
X13393Y8545D01*
X13388Y8538D01*
X13381Y8534D01*
X13373Y8533D01*
X13365Y8536D01*
X13359Y8541D01*
X13355Y8549D01*
Y8557D01*
X13359Y8565D01*
X13365Y8570D01*
X13373Y8573D01*
X13381Y8572D01*
X13388Y8568D01*
X13393Y8561D01*
X13395Y8553D01*
X12770Y7578D02*
X12768Y7570D01*
X12763Y7563D01*
X12756Y7559D01*
X12748Y7558D01*
X12740Y7561D01*
X12734Y7566D01*
X12730Y7574D01*
Y7582D01*
X12734Y7590D01*
X12740Y7595D01*
X12748Y7598D01*
X12756Y7597D01*
X12763Y7593D01*
X12768Y7586D01*
X12770Y7578D01*
X12670D02*
X12668Y7570D01*
X12663Y7563D01*
X12656Y7559D01*
X12648Y7558D01*
X12640Y7561D01*
X12634Y7566D01*
X12630Y7574D01*
Y7582D01*
X12634Y7590D01*
X12640Y7595D01*
X12648Y7598D01*
X12656Y7597D01*
X12663Y7593D01*
X12668Y7586D01*
X12670Y7578D01*
X12695Y8178D02*
X12693Y8170D01*
X12688Y8163D01*
X12681Y8159D01*
X12673Y8158D01*
X12665Y8161D01*
X12659Y8166D01*
X12655Y8174D01*
Y8182D01*
X12659Y8190D01*
X12665Y8195D01*
X12673Y8198D01*
X12681Y8197D01*
X12688Y8193D01*
X12693Y8186D01*
X12695Y8178D01*
X12445D02*
X12443Y8170D01*
X12438Y8163D01*
X12431Y8159D01*
X12423Y8158D01*
X12415Y8161D01*
X12409Y8166D01*
X12405Y8174D01*
Y8182D01*
X12409Y8190D01*
X12415Y8195D01*
X12423Y8198D01*
X12431Y8197D01*
X12438Y8193D01*
X12443Y8186D01*
X12445Y8178D01*
X12295Y7153D02*
X12293Y7145D01*
X12288Y7138D01*
X12281Y7134D01*
X12273Y7133D01*
X12265Y7136D01*
X12259Y7141D01*
X12255Y7149D01*
Y7157D01*
X12259Y7165D01*
X12265Y7170D01*
X12273Y7173D01*
X12281Y7172D01*
X12288Y7168D01*
X12293Y7161D01*
X12295Y7153D01*
X12145Y7703D02*
X12143Y7695D01*
X12138Y7688D01*
X12131Y7684D01*
X12123Y7683D01*
X12115Y7686D01*
X12109Y7691D01*
X12105Y7699D01*
Y7707D01*
X12109Y7715D01*
X12115Y7720D01*
X12123Y7723D01*
X12131Y7722D01*
X12138Y7718D01*
X12143Y7711D01*
X12145Y7703D01*
X12095Y7578D02*
X12093Y7570D01*
X12088Y7563D01*
X12081Y7559D01*
X12073Y7558D01*
X12065Y7561D01*
X12059Y7566D01*
X12055Y7574D01*
Y7582D01*
X12059Y7590D01*
X12065Y7595D01*
X12073Y7598D01*
X12081Y7597D01*
X12088Y7593D01*
X12093Y7586D01*
X12095Y7578D01*
X12195Y8178D02*
X12193Y8170D01*
X12188Y8163D01*
X12181Y8159D01*
X12173Y8158D01*
X12165Y8161D01*
X12159Y8166D01*
X12155Y8174D01*
Y8182D01*
X12159Y8190D01*
X12165Y8195D01*
X12173Y8198D01*
X12181Y8197D01*
X12188Y8193D01*
X12193Y8186D01*
X12195Y8178D01*
X11895Y8553D02*
X11893Y8545D01*
X11888Y8538D01*
X11881Y8534D01*
X11873Y8533D01*
X11865Y8536D01*
X11859Y8541D01*
X11855Y8549D01*
Y8557D01*
X11859Y8565D01*
X11865Y8570D01*
X11873Y8573D01*
X11881Y8572D01*
X11888Y8568D01*
X11893Y8561D01*
X11895Y8553D01*
X11795Y7878D02*
X11793Y7870D01*
X11788Y7863D01*
X11781Y7859D01*
X11773Y7858D01*
X11765Y7861D01*
X11759Y7866D01*
X11755Y7874D01*
Y7882D01*
X11759Y7890D01*
X11765Y7895D01*
X11773Y7898D01*
X11781Y7897D01*
X11788Y7893D01*
X11793Y7886D01*
X11795Y7878D01*
X11420Y7303D02*
X11418Y7295D01*
X11413Y7288D01*
X11406Y7284D01*
X11398Y7283D01*
X11390Y7286D01*
X11384Y7291D01*
X11380Y7299D01*
Y7307D01*
X11384Y7315D01*
X11390Y7320D01*
X11398Y7323D01*
X11406Y7322D01*
X11413Y7318D01*
X11418Y7311D01*
X11420Y7303D01*
X10545Y7703D02*
X10543Y7695D01*
X10538Y7688D01*
X10531Y7684D01*
X10523Y7683D01*
X10515Y7686D01*
X10509Y7691D01*
X10505Y7699D01*
Y7707D01*
X10509Y7715D01*
X10515Y7720D01*
X10523Y7723D01*
X10531Y7722D01*
X10538Y7718D01*
X10543Y7711D01*
X10545Y7703D01*
X10645Y7753D02*
X10643Y7745D01*
X10638Y7738D01*
X10631Y7734D01*
X10623Y7733D01*
X10615Y7736D01*
X10609Y7741D01*
X10605Y7749D01*
Y7757D01*
X10609Y7765D01*
X10615Y7770D01*
X10623Y7773D01*
X10631Y7772D01*
X10638Y7768D01*
X10643Y7761D01*
X10645Y7753D01*
X10545Y6903D02*
X10543Y6895D01*
X10538Y6888D01*
X10531Y6884D01*
X10523Y6883D01*
X10515Y6886D01*
X10509Y6891D01*
X10505Y6899D01*
Y6907D01*
X10509Y6915D01*
X10515Y6920D01*
X10523Y6923D01*
X10531Y6922D01*
X10538Y6918D01*
X10543Y6911D01*
X10545Y6903D01*
X10345Y7603D02*
X10343Y7595D01*
X10338Y7588D01*
X10331Y7584D01*
X10323Y7583D01*
X10315Y7586D01*
X10309Y7591D01*
X10305Y7599D01*
Y7607D01*
X10309Y7615D01*
X10315Y7620D01*
X10323Y7623D01*
X10331Y7622D01*
X10338Y7618D01*
X10343Y7611D01*
X10345Y7603D01*
X10445Y7653D02*
X10443Y7645D01*
X10438Y7638D01*
X10431Y7634D01*
X10423Y7633D01*
X10415Y7636D01*
X10409Y7641D01*
X10405Y7649D01*
Y7657D01*
X10409Y7665D01*
X10415Y7670D01*
X10423Y7673D01*
X10431Y7672D01*
X10438Y7668D01*
X10443Y7661D01*
X10445Y7653D01*
X10220Y7228D02*
X10218Y7220D01*
X10213Y7213D01*
X10206Y7209D01*
X10198Y7208D01*
X10190Y7211D01*
X10184Y7216D01*
X10180Y7224D01*
Y7232D01*
X10184Y7240D01*
X10190Y7245D01*
X10198Y7248D01*
X10206Y7247D01*
X10213Y7243D01*
X10218Y7236D01*
X10220Y7228D01*
X10295Y8528D02*
X10293Y8520D01*
X10288Y8513D01*
X10281Y8509D01*
X10273Y8508D01*
X10265Y8511D01*
X10259Y8516D01*
X10255Y8524D01*
Y8532D01*
X10259Y8540D01*
X10265Y8545D01*
X10273Y8548D01*
X10281Y8547D01*
X10288Y8543D01*
X10293Y8536D01*
X10295Y8528D01*
X10220Y8478D02*
X10218Y8470D01*
X10213Y8463D01*
X10206Y8459D01*
X10198Y8458D01*
X10190Y8461D01*
X10184Y8466D01*
X10180Y8474D01*
Y8482D01*
X10184Y8490D01*
X10190Y8495D01*
X10198Y8498D01*
X10206Y8497D01*
X10213Y8493D01*
X10218Y8486D01*
X10220Y8478D01*
X10145Y8453D02*
X10143Y8445D01*
X10138Y8438D01*
X10131Y8434D01*
X10123Y8433D01*
X10115Y8436D01*
X10109Y8441D01*
X10105Y8449D01*
Y8457D01*
X10109Y8465D01*
X10115Y8470D01*
X10123Y8473D01*
X10131Y8472D01*
X10138Y8468D01*
X10143Y8461D01*
X10145Y8453D01*
X9795Y8178D02*
X9793Y8170D01*
X9788Y8163D01*
X9781Y8159D01*
X9773Y8158D01*
X9765Y8161D01*
X9759Y8166D01*
X9755Y8174D01*
Y8182D01*
X9759Y8190D01*
X9765Y8195D01*
X9773Y8198D01*
X9781Y8197D01*
X9788Y8193D01*
X9793Y8186D01*
X9795Y8178D01*
X9870Y8228D02*
X9868Y8220D01*
X9863Y8213D01*
X9856Y8209D01*
X9848Y8208D01*
X9840Y8211D01*
X9834Y8216D01*
X9830Y8224D01*
Y8232D01*
X9834Y8240D01*
X9840Y8245D01*
X9848Y8248D01*
X9856Y8247D01*
X9863Y8243D01*
X9868Y8236D01*
X9870Y8228D01*
X9645Y7578D02*
X9643Y7570D01*
X9638Y7563D01*
X9631Y7559D01*
X9623Y7558D01*
X9615Y7561D01*
X9609Y7566D01*
X9605Y7574D01*
Y7582D01*
X9609Y7590D01*
X9615Y7595D01*
X9623Y7598D01*
X9631Y7597D01*
X9638Y7593D01*
X9643Y7586D01*
X9645Y7578D01*
Y8153D02*
X9643Y8145D01*
X9638Y8138D01*
X9631Y8134D01*
X9623Y8133D01*
X9615Y8136D01*
X9609Y8141D01*
X9605Y8149D01*
Y8157D01*
X9609Y8165D01*
X9615Y8170D01*
X9623Y8173D01*
X9631Y8172D01*
X9638Y8168D01*
X9643Y8161D01*
X9645Y8153D01*
X9595Y8578D02*
X9593Y8570D01*
X9588Y8563D01*
X9581Y8559D01*
X9573Y8558D01*
X9565Y8561D01*
X9559Y8566D01*
X9555Y8574D01*
Y8582D01*
X9559Y8590D01*
X9565Y8595D01*
X9573Y8598D01*
X9581Y8597D01*
X9588Y8593D01*
X9593Y8586D01*
X9595Y8578D01*
X9370Y7753D02*
X9368Y7745D01*
X9363Y7738D01*
X9356Y7734D01*
X9348Y7733D01*
X9340Y7736D01*
X9334Y7741D01*
X9330Y7749D01*
Y7757D01*
X9334Y7765D01*
X9340Y7770D01*
X9348Y7773D01*
X9356Y7772D01*
X9363Y7768D01*
X9368Y7761D01*
X9370Y7753D01*
X9445Y7778D02*
X9443Y7770D01*
X9438Y7763D01*
X9431Y7759D01*
X9423Y7758D01*
X9415Y7761D01*
X9409Y7766D01*
X9405Y7774D01*
Y7782D01*
X9409Y7790D01*
X9415Y7795D01*
X9423Y7798D01*
X9431Y7797D01*
X9438Y7793D01*
X9443Y7786D01*
X9445Y7778D01*
X9345Y7828D02*
X9343Y7820D01*
X9338Y7813D01*
X9331Y7809D01*
X9323Y7808D01*
X9315Y7811D01*
X9309Y7816D01*
X9305Y7824D01*
Y7832D01*
X9309Y7840D01*
X9315Y7845D01*
X9323Y7848D01*
X9331Y7847D01*
X9338Y7843D01*
X9343Y7836D01*
X9345Y7828D01*
X9195Y7253D02*
X9193Y7245D01*
X9188Y7238D01*
X9181Y7234D01*
X9173Y7233D01*
X9165Y7236D01*
X9159Y7241D01*
X9155Y7249D01*
Y7257D01*
X9159Y7265D01*
X9165Y7270D01*
X9173Y7273D01*
X9181Y7272D01*
X9188Y7268D01*
X9193Y7261D01*
X9195Y7253D01*
X9245Y7703D02*
X9243Y7695D01*
X9238Y7688D01*
X9231Y7684D01*
X9223Y7683D01*
X9215Y7686D01*
X9209Y7691D01*
X9205Y7699D01*
Y7707D01*
X9209Y7715D01*
X9215Y7720D01*
X9223Y7723D01*
X9231Y7722D01*
X9238Y7718D01*
X9243Y7711D01*
X9245Y7703D01*
X8945Y7828D02*
X8943Y7820D01*
X8938Y7813D01*
X8931Y7809D01*
X8923Y7808D01*
X8915Y7811D01*
X8909Y7816D01*
X8905Y7824D01*
Y7832D01*
X8909Y7840D01*
X8915Y7845D01*
X8923Y7848D01*
X8931Y7847D01*
X8938Y7843D01*
X8943Y7836D01*
X8945Y7828D01*
X9095Y7303D02*
X9093Y7295D01*
X9088Y7288D01*
X9081Y7284D01*
X9073Y7283D01*
X9065Y7286D01*
X9059Y7291D01*
X9055Y7299D01*
Y7307D01*
X9059Y7315D01*
X9065Y7320D01*
X9073Y7323D01*
X9081Y7322D01*
X9088Y7318D01*
X9093Y7311D01*
X9095Y7303D01*
X8995Y7703D02*
X8993Y7695D01*
X8988Y7688D01*
X8981Y7684D01*
X8973Y7683D01*
X8965Y7686D01*
X8959Y7691D01*
X8955Y7699D01*
Y7707D01*
X8959Y7715D01*
X8965Y7720D01*
X8973Y7723D01*
X8981Y7722D01*
X8988Y7718D01*
X8993Y7711D01*
X8995Y7703D01*
X8820Y6403D02*
X8818Y6395D01*
X8813Y6388D01*
X8806Y6384D01*
X8798Y6383D01*
X8790Y6386D01*
X8784Y6391D01*
X8780Y6399D01*
Y6407D01*
X8784Y6415D01*
X8790Y6420D01*
X8798Y6423D01*
X8806Y6422D01*
X8813Y6418D01*
X8818Y6411D01*
X8820Y6403D01*
X8845Y7878D02*
X8843Y7870D01*
X8838Y7863D01*
X8831Y7859D01*
X8823Y7858D01*
X8815Y7861D01*
X8809Y7866D01*
X8805Y7874D01*
Y7882D01*
X8809Y7890D01*
X8815Y7895D01*
X8823Y7898D01*
X8831Y7897D01*
X8838Y7893D01*
X8843Y7886D01*
X8845Y7878D01*
X8895Y7703D02*
X8893Y7695D01*
X8888Y7688D01*
X8881Y7684D01*
X8873Y7683D01*
X8865Y7686D01*
X8859Y7691D01*
X8855Y7699D01*
Y7707D01*
X8859Y7715D01*
X8865Y7720D01*
X8873Y7723D01*
X8881Y7722D01*
X8888Y7718D01*
X8893Y7711D01*
X8895Y7703D01*
X8770Y7278D02*
X8768Y7270D01*
X8763Y7263D01*
X8756Y7259D01*
X8748Y7258D01*
X8740Y7261D01*
X8734Y7266D01*
X8730Y7274D01*
Y7282D01*
X8734Y7290D01*
X8740Y7295D01*
X8748Y7298D01*
X8756Y7297D01*
X8763Y7293D01*
X8768Y7286D01*
X8770Y7278D01*
X8520Y8953D02*
X8518Y8945D01*
X8513Y8938D01*
X8506Y8934D01*
X8498Y8933D01*
X8490Y8936D01*
X8484Y8941D01*
X8480Y8949D01*
Y8957D01*
X8484Y8965D01*
X8490Y8970D01*
X8498Y8973D01*
X8506Y8972D01*
X8513Y8968D01*
X8518Y8961D01*
X8520Y8953D01*
X8370Y8728D02*
X8368Y8720D01*
X8363Y8713D01*
X8356Y8709D01*
X8348Y8708D01*
X8340Y8711D01*
X8334Y8716D01*
X8330Y8724D01*
Y8732D01*
X8334Y8740D01*
X8340Y8745D01*
X8348Y8748D01*
X8356Y8747D01*
X8363Y8743D01*
X8368Y8736D01*
X8370Y8728D01*
X8220Y8053D02*
X8218Y8045D01*
X8213Y8038D01*
X8206Y8034D01*
X8198Y8033D01*
X8190Y8036D01*
X8184Y8041D01*
X8180Y8049D01*
Y8057D01*
X8184Y8065D01*
X8190Y8070D01*
X8198Y8073D01*
X8206Y8072D01*
X8213Y8068D01*
X8218Y8061D01*
X8220Y8053D01*
X8170Y7853D02*
X8168Y7845D01*
X8163Y7838D01*
X8156Y7834D01*
X8148Y7833D01*
X8140Y7836D01*
X8134Y7841D01*
X8130Y7849D01*
Y7857D01*
X8134Y7865D01*
X8140Y7870D01*
X8148Y7873D01*
X8156Y7872D01*
X8163Y7868D01*
X8168Y7861D01*
X8170Y7853D01*
X8270Y8803D02*
X8268Y8795D01*
X8263Y8788D01*
X8256Y8784D01*
X8248Y8783D01*
X8240Y8786D01*
X8234Y8791D01*
X8230Y8799D01*
Y8807D01*
X8234Y8815D01*
X8240Y8820D01*
X8248Y8823D01*
X8256Y8822D01*
X8263Y8818D01*
X8268Y8811D01*
X8270Y8803D01*
X7820Y8953D02*
X7818Y8945D01*
X7813Y8938D01*
X7806Y8934D01*
X7798Y8933D01*
X7790Y8936D01*
X7784Y8941D01*
X7780Y8949D01*
Y8957D01*
X7784Y8965D01*
X7790Y8970D01*
X7798Y8973D01*
X7806Y8972D01*
X7813Y8968D01*
X7818Y8961D01*
X7820Y8953D01*
X7370Y8103D02*
X7368Y8095D01*
X7363Y8088D01*
X7356Y8084D01*
X7348Y8083D01*
X7340Y8086D01*
X7334Y8091D01*
X7330Y8099D01*
Y8107D01*
X7334Y8115D01*
X7340Y8120D01*
X7348Y8123D01*
X7356Y8122D01*
X7363Y8118D01*
X7368Y8111D01*
X7370Y8103D01*
X7270D02*
X7268Y8095D01*
X7263Y8088D01*
X7256Y8084D01*
X7248Y8083D01*
X7240Y8086D01*
X7234Y8091D01*
X7230Y8099D01*
Y8107D01*
X7234Y8115D01*
X7240Y8120D01*
X7248Y8123D01*
X7256Y8122D01*
X7263Y8118D01*
X7268Y8111D01*
X7270Y8103D01*
X7245Y8503D02*
X7243Y8495D01*
X7238Y8488D01*
X7231Y8484D01*
X7223Y8483D01*
X7215Y8486D01*
X7209Y8491D01*
X7205Y8499D01*
Y8507D01*
X7209Y8515D01*
X7215Y8520D01*
X7223Y8523D01*
X7231Y8522D01*
X7238Y8518D01*
X7243Y8511D01*
X7245Y8503D01*
X7070Y8103D02*
X7068Y8095D01*
X7063Y8088D01*
X7056Y8084D01*
X7048Y8083D01*
X7040Y8086D01*
X7034Y8091D01*
X7030Y8099D01*
Y8107D01*
X7034Y8115D01*
X7040Y8120D01*
X7048Y8123D01*
X7056Y8122D01*
X7063Y8118D01*
X7068Y8111D01*
X7070Y8103D01*
X7020Y7953D02*
X7018Y7945D01*
X7013Y7938D01*
X7006Y7934D01*
X6998Y7933D01*
X6990Y7936D01*
X6984Y7941D01*
X6980Y7949D01*
Y7957D01*
X6984Y7965D01*
X6990Y7970D01*
X6998Y7973D01*
X7006Y7972D01*
X7013Y7968D01*
X7018Y7961D01*
X7020Y7953D01*
X7120D02*
X7118Y7945D01*
X7113Y7938D01*
X7106Y7934D01*
X7098Y7933D01*
X7090Y7936D01*
X7084Y7941D01*
X7080Y7949D01*
Y7957D01*
X7084Y7965D01*
X7090Y7970D01*
X7098Y7973D01*
X7106Y7972D01*
X7113Y7968D01*
X7118Y7961D01*
X7120Y7953D01*
X6970Y7428D02*
X6968Y7420D01*
X6963Y7413D01*
X6956Y7409D01*
X6948Y7408D01*
X6940Y7411D01*
X6934Y7416D01*
X6930Y7424D01*
Y7432D01*
X6934Y7440D01*
X6940Y7445D01*
X6948Y7448D01*
X6956Y7447D01*
X6963Y7443D01*
X6968Y7436D01*
X6970Y7428D01*
X6945Y8028D02*
X6943Y8020D01*
X6938Y8013D01*
X6931Y8009D01*
X6923Y8008D01*
X6915Y8011D01*
X6909Y8016D01*
X6905Y8024D01*
Y8032D01*
X6909Y8040D01*
X6915Y8045D01*
X6923Y8048D01*
X6931Y8047D01*
X6938Y8043D01*
X6943Y8036D01*
X6945Y8028D01*
X6870D02*
X6868Y8020D01*
X6863Y8013D01*
X6856Y8009D01*
X6848Y8008D01*
X6840Y8011D01*
X6834Y8016D01*
X6830Y8024D01*
Y8032D01*
X6834Y8040D01*
X6840Y8045D01*
X6848Y8048D01*
X6856Y8047D01*
X6863Y8043D01*
X6868Y8036D01*
X6870Y8028D01*
X6770Y7978D02*
X6768Y7970D01*
X6763Y7963D01*
X6756Y7959D01*
X6748Y7958D01*
X6740Y7961D01*
X6734Y7966D01*
X6730Y7974D01*
Y7982D01*
X6734Y7990D01*
X6740Y7995D01*
X6748Y7998D01*
X6756Y7997D01*
X6763Y7993D01*
X6768Y7986D01*
X6770Y7978D01*
X6595Y8853D02*
X6593Y8845D01*
X6588Y8838D01*
X6581Y8834D01*
X6573Y8833D01*
X6565Y8836D01*
X6559Y8841D01*
X6555Y8849D01*
Y8857D01*
X6559Y8865D01*
X6565Y8870D01*
X6573Y8873D01*
X6581Y8872D01*
X6588Y8868D01*
X6593Y8861D01*
X6595Y8853D01*
X6670Y8828D02*
X6668Y8820D01*
X6663Y8813D01*
X6656Y8809D01*
X6648Y8808D01*
X6640Y8811D01*
X6634Y8816D01*
X6630Y8824D01*
Y8832D01*
X6634Y8840D01*
X6640Y8845D01*
X6648Y8848D01*
X6656Y8847D01*
X6663Y8843D01*
X6668Y8836D01*
X6670Y8828D01*
X6720Y8553D02*
X6718Y8545D01*
X6713Y8538D01*
X6706Y8534D01*
X6698Y8533D01*
X6690Y8536D01*
X6684Y8541D01*
X6680Y8549D01*
Y8557D01*
X6684Y8565D01*
X6690Y8570D01*
X6698Y8573D01*
X6706Y8572D01*
X6713Y8568D01*
X6718Y8561D01*
X6720Y8553D01*
X6470Y7078D02*
X6468Y7070D01*
X6463Y7063D01*
X6456Y7059D01*
X6448Y7058D01*
X6440Y7061D01*
X6434Y7066D01*
X6430Y7074D01*
Y7082D01*
X6434Y7090D01*
X6440Y7095D01*
X6448Y7098D01*
X6456Y7097D01*
X6463Y7093D01*
X6468Y7086D01*
X6470Y7078D01*
X6495Y7003D02*
X6493Y6995D01*
X6488Y6988D01*
X6481Y6984D01*
X6473Y6983D01*
X6465Y6986D01*
X6459Y6991D01*
X6455Y6999D01*
Y7007D01*
X6459Y7015D01*
X6465Y7020D01*
X6473Y7023D01*
X6481Y7022D01*
X6488Y7018D01*
X6493Y7011D01*
X6495Y7003D01*
X6470Y7978D02*
X6468Y7970D01*
X6463Y7963D01*
X6456Y7959D01*
X6448Y7958D01*
X6440Y7961D01*
X6434Y7966D01*
X6430Y7974D01*
Y7982D01*
X6434Y7990D01*
X6440Y7995D01*
X6448Y7998D01*
X6456Y7997D01*
X6463Y7993D01*
X6468Y7986D01*
X6470Y7978D01*
X6570Y8753D02*
X6568Y8745D01*
X6563Y8738D01*
X6556Y8734D01*
X6548Y8733D01*
X6540Y8736D01*
X6534Y8741D01*
X6530Y8749D01*
Y8757D01*
X6534Y8765D01*
X6540Y8770D01*
X6548Y8773D01*
X6556Y8772D01*
X6563Y8768D01*
X6568Y8761D01*
X6570Y8753D01*
X6020Y7353D02*
X6018Y7345D01*
X6013Y7338D01*
X6006Y7334D01*
X5998Y7333D01*
X5990Y7336D01*
X5984Y7341D01*
X5980Y7349D01*
Y7357D01*
X5984Y7365D01*
X5990Y7370D01*
X5998Y7373D01*
X6006Y7372D01*
X6013Y7368D01*
X6018Y7361D01*
X6020Y7353D01*
X6120Y7203D02*
X6118Y7195D01*
X6113Y7188D01*
X6106Y7184D01*
X6098Y7183D01*
X6090Y7186D01*
X6084Y7191D01*
X6080Y7199D01*
Y7207D01*
X6084Y7215D01*
X6090Y7220D01*
X6098Y7223D01*
X6106Y7222D01*
X6113Y7218D01*
X6118Y7211D01*
X6120Y7203D01*
X5995Y6628D02*
X5993Y6620D01*
X5988Y6613D01*
X5981Y6609D01*
X5973Y6608D01*
X5965Y6611D01*
X5959Y6616D01*
X5955Y6624D01*
Y6632D01*
X5959Y6640D01*
X5965Y6645D01*
X5973Y6648D01*
X5981Y6647D01*
X5988Y6643D01*
X5993Y6636D01*
X5995Y6628D01*
X5845Y6653D02*
X5843Y6645D01*
X5838Y6638D01*
X5831Y6634D01*
X5823Y6633D01*
X5815Y6636D01*
X5809Y6641D01*
X5805Y6649D01*
Y6657D01*
X5809Y6665D01*
X5815Y6670D01*
X5823Y6673D01*
X5831Y6672D01*
X5838Y6668D01*
X5843Y6661D01*
X5845Y6653D01*
X5695Y6603D02*
X5693Y6595D01*
X5688Y6588D01*
X5681Y6584D01*
X5673Y6583D01*
X5665Y6586D01*
X5659Y6591D01*
X5655Y6599D01*
Y6607D01*
X5659Y6615D01*
X5665Y6620D01*
X5673Y6623D01*
X5681Y6622D01*
X5688Y6618D01*
X5693Y6611D01*
X5695Y6603D01*
X5620Y6553D02*
X5618Y6545D01*
X5613Y6538D01*
X5606Y6534D01*
X5598Y6533D01*
X5590Y6536D01*
X5584Y6541D01*
X5580Y6549D01*
Y6557D01*
X5584Y6565D01*
X5590Y6570D01*
X5598Y6573D01*
X5606Y6572D01*
X5613Y6568D01*
X5618Y6561D01*
X5620Y6553D01*
X5745Y6678D02*
X5743Y6670D01*
X5738Y6663D01*
X5731Y6659D01*
X5723Y6658D01*
X5715Y6661D01*
X5709Y6666D01*
X5705Y6674D01*
Y6682D01*
X5709Y6690D01*
X5715Y6695D01*
X5723Y6698D01*
X5731Y6697D01*
X5738Y6693D01*
X5743Y6686D01*
X5745Y6678D01*
X5670Y7378D02*
X5668Y7370D01*
X5663Y7363D01*
X5656Y7359D01*
X5648Y7358D01*
X5640Y7361D01*
X5634Y7366D01*
X5630Y7374D01*
Y7382D01*
X5634Y7390D01*
X5640Y7395D01*
X5648Y7398D01*
X5656Y7397D01*
X5663Y7393D01*
X5668Y7386D01*
X5670Y7378D01*
X5545Y6503D02*
X5543Y6495D01*
X5538Y6488D01*
X5531Y6484D01*
X5523Y6483D01*
X5515Y6486D01*
X5509Y6491D01*
X5505Y6499D01*
Y6507D01*
X5509Y6515D01*
X5515Y6520D01*
X5523Y6523D01*
X5531Y6522D01*
X5538Y6518D01*
X5543Y6511D01*
X5545Y6503D01*
X5445Y7428D02*
X5443Y7420D01*
X5438Y7413D01*
X5431Y7409D01*
X5423Y7408D01*
X5415Y7411D01*
X5409Y7416D01*
X5405Y7424D01*
Y7432D01*
X5409Y7440D01*
X5415Y7445D01*
X5423Y7448D01*
X5431Y7447D01*
X5438Y7443D01*
X5443Y7436D01*
X5445Y7428D01*
X5470Y8828D02*
X5468Y8820D01*
X5463Y8813D01*
X5456Y8809D01*
X5448Y8808D01*
X5440Y8811D01*
X5434Y8816D01*
X5430Y8824D01*
Y8832D01*
X5434Y8840D01*
X5440Y8845D01*
X5448Y8848D01*
X5456Y8847D01*
X5463Y8843D01*
X5468Y8836D01*
X5470Y8828D01*
X5345Y6453D02*
X5343Y6445D01*
X5338Y6438D01*
X5331Y6434D01*
X5323Y6433D01*
X5315Y6436D01*
X5309Y6441D01*
X5305Y6449D01*
Y6457D01*
X5309Y6465D01*
X5315Y6470D01*
X5323Y6473D01*
X5331Y6472D01*
X5338Y6468D01*
X5343Y6461D01*
X5345Y6453D01*
X5370Y7428D02*
X5368Y7420D01*
X5363Y7413D01*
X5356Y7409D01*
X5348Y7408D01*
X5340Y7411D01*
X5334Y7416D01*
X5330Y7424D01*
Y7432D01*
X5334Y7440D01*
X5340Y7445D01*
X5348Y7448D01*
X5356Y7447D01*
X5363Y7443D01*
X5368Y7436D01*
X5370Y7428D01*
X5045Y7978D02*
X5043Y7970D01*
X5038Y7963D01*
X5031Y7959D01*
X5023Y7958D01*
X5015Y7961D01*
X5009Y7966D01*
X5005Y7974D01*
Y7982D01*
X5009Y7990D01*
X5015Y7995D01*
X5023Y7998D01*
X5031Y7997D01*
X5038Y7993D01*
X5043Y7986D01*
X5045Y7978D01*
X4695Y8803D02*
X4693Y8795D01*
X4688Y8788D01*
X4681Y8784D01*
X4673Y8783D01*
X4665Y8786D01*
X4659Y8791D01*
X4655Y8799D01*
Y8807D01*
X4659Y8815D01*
X4665Y8820D01*
X4673Y8823D01*
X4681Y8822D01*
X4688Y8818D01*
X4693Y8811D01*
X4695Y8803D01*
X4620Y7428D02*
X4618Y7420D01*
X4613Y7413D01*
X4606Y7409D01*
X4598Y7408D01*
X4590Y7411D01*
X4584Y7416D01*
X4580Y7424D01*
Y7432D01*
X4584Y7440D01*
X4590Y7445D01*
X4598Y7448D01*
X4606Y7447D01*
X4613Y7443D01*
X4618Y7436D01*
X4620Y7428D01*
X4520Y8228D02*
X4518Y8220D01*
X4513Y8213D01*
X4506Y8209D01*
X4498Y8208D01*
X4490Y8211D01*
X4484Y8216D01*
X4480Y8224D01*
Y8232D01*
X4484Y8240D01*
X4490Y8245D01*
X4498Y8248D01*
X4506Y8247D01*
X4513Y8243D01*
X4518Y8236D01*
X4520Y8228D01*
X4320D02*
X4318Y8220D01*
X4313Y8213D01*
X4306Y8209D01*
X4298Y8208D01*
X4290Y8211D01*
X4284Y8216D01*
X4280Y8224D01*
Y8232D01*
X4284Y8240D01*
X4290Y8245D01*
X4298Y8248D01*
X4306Y8247D01*
X4313Y8243D01*
X4318Y8236D01*
X4320Y8228D01*
X4295Y8453D02*
X4293Y8445D01*
X4288Y8438D01*
X4281Y8434D01*
X4273Y8433D01*
X4265Y8436D01*
X4259Y8441D01*
X4255Y8449D01*
Y8457D01*
X4259Y8465D01*
X4265Y8470D01*
X4273Y8473D01*
X4281Y8472D01*
X4288Y8468D01*
X4293Y8461D01*
X4295Y8453D01*
X4245Y8578D02*
X4243Y8570D01*
X4238Y8563D01*
X4231Y8559D01*
X4223Y8558D01*
X4215Y8561D01*
X4209Y8566D01*
X4205Y8574D01*
Y8582D01*
X4209Y8590D01*
X4215Y8595D01*
X4223Y8598D01*
X4231Y8597D01*
X4238Y8593D01*
X4243Y8586D01*
X4245Y8578D01*
X4220Y8228D02*
X4218Y8220D01*
X4213Y8213D01*
X4206Y8209D01*
X4198Y8208D01*
X4190Y8211D01*
X4184Y8216D01*
X4180Y8224D01*
Y8232D01*
X4184Y8240D01*
X4190Y8245D01*
X4198Y8248D01*
X4206Y8247D01*
X4213Y8243D01*
X4218Y8236D01*
X4220Y8228D01*
X4120D02*
X4118Y8220D01*
X4113Y8213D01*
X4106Y8209D01*
X4098Y8208D01*
X4090Y8211D01*
X4084Y8216D01*
X4080Y8224D01*
Y8232D01*
X4084Y8240D01*
X4090Y8245D01*
X4098Y8248D01*
X4106Y8247D01*
X4113Y8243D01*
X4118Y8236D01*
X4120Y8228D01*
X4095Y8803D02*
X4093Y8795D01*
X4088Y8788D01*
X4081Y8784D01*
X4073Y8783D01*
X4065Y8786D01*
X4059Y8791D01*
X4055Y8799D01*
Y8807D01*
X4059Y8815D01*
X4065Y8820D01*
X4073Y8823D01*
X4081Y8822D01*
X4088Y8818D01*
X4093Y8811D01*
X4095Y8803D01*
X4020Y7928D02*
X4018Y7920D01*
X4013Y7913D01*
X4006Y7909D01*
X3998Y7908D01*
X3990Y7911D01*
X3984Y7916D01*
X3980Y7924D01*
Y7932D01*
X3984Y7940D01*
X3990Y7945D01*
X3998Y7948D01*
X4006Y7947D01*
X4013Y7943D01*
X4018Y7936D01*
X4020Y7928D01*
Y8228D02*
X4018Y8220D01*
X4013Y8213D01*
X4006Y8209D01*
X3998Y8208D01*
X3990Y8211D01*
X3984Y8216D01*
X3980Y8224D01*
Y8232D01*
X3984Y8240D01*
X3990Y8245D01*
X3998Y8248D01*
X4006Y8247D01*
X4013Y8243D01*
X4018Y8236D01*
X4020Y8228D01*
X3920Y7928D02*
X3918Y7920D01*
X3913Y7913D01*
X3906Y7909D01*
X3898Y7908D01*
X3890Y7911D01*
X3884Y7916D01*
X3880Y7924D01*
Y7932D01*
X3884Y7940D01*
X3890Y7945D01*
X3898Y7948D01*
X3906Y7947D01*
X3913Y7943D01*
X3918Y7936D01*
X3920Y7928D01*
X3820Y7128D02*
X3818Y7120D01*
X3813Y7113D01*
X3806Y7109D01*
X3798Y7108D01*
X3790Y7111D01*
X3784Y7116D01*
X3780Y7124D01*
Y7132D01*
X3784Y7140D01*
X3790Y7145D01*
X3798Y7148D01*
X3806Y7147D01*
X3813Y7143D01*
X3818Y7136D01*
X3820Y7128D01*
X4130Y6798D02*
X4150Y6758D01*
X4130Y6798D02*
X4170D01*
X4150Y6758D01*
X3950Y6858D02*
X3930Y6898D01*
X3970D01*
X3950Y6858D01*
X4330Y6898D02*
X4350Y6858D01*
X4330Y6898D02*
X4370D01*
X4350Y6858D01*
X4430Y6798D02*
X4450Y6758D01*
X4430Y6798D02*
X4470D01*
X4450Y6758D01*
X3850D02*
X3830Y6798D01*
X3870D01*
X3850Y6758D01*
X4230Y6398D02*
X4250Y6358D01*
X4230Y6398D02*
X4270D01*
X4250Y6358D01*
X4050D02*
X4030Y6398D01*
X4070D01*
X4050Y6358D01*
X3770Y8378D02*
X3768Y8370D01*
X3763Y8363D01*
X3756Y8359D01*
X3748Y8358D01*
X3740Y8361D01*
X3734Y8366D01*
X3730Y8374D01*
Y8382D01*
X3734Y8390D01*
X3740Y8395D01*
X3748Y8398D01*
X3756Y8397D01*
X3763Y8393D01*
X3768Y8386D01*
X3770Y8378D01*
Y8078D02*
X3768Y8070D01*
X3763Y8063D01*
X3756Y8059D01*
X3748Y8058D01*
X3740Y8061D01*
X3734Y8066D01*
X3730Y8074D01*
Y8082D01*
X3734Y8090D01*
X3740Y8095D01*
X3748Y8098D01*
X3756Y8097D01*
X3763Y8093D01*
X3768Y8086D01*
X3770Y8078D01*
X4020Y7028D02*
X4018Y7020D01*
X4013Y7013D01*
X4006Y7009D01*
X3998Y7008D01*
X3990Y7011D01*
X3984Y7016D01*
X3980Y7024D01*
Y7032D01*
X3984Y7040D01*
X3990Y7045D01*
X3998Y7048D01*
X4006Y7047D01*
X4013Y7043D01*
X4018Y7036D01*
X4020Y7028D01*
X4420D02*
X4418Y7020D01*
X4413Y7013D01*
X4406Y7009D01*
X4398Y7008D01*
X4390Y7011D01*
X4384Y7016D01*
X4380Y7024D01*
Y7032D01*
X4384Y7040D01*
X4390Y7045D01*
X4398Y7048D01*
X4406Y7047D01*
X4413Y7043D01*
X4418Y7036D01*
X4420Y7028D01*
X3770Y7578D02*
X3768Y7570D01*
X3763Y7563D01*
X3756Y7559D01*
X3748Y7558D01*
X3740Y7561D01*
X3734Y7566D01*
X3730Y7574D01*
Y7582D01*
X3734Y7590D01*
X3740Y7595D01*
X3748Y7598D01*
X3756Y7597D01*
X3763Y7593D01*
X3768Y7586D01*
X3770Y7578D01*
Y7278D02*
X3768Y7270D01*
X3763Y7263D01*
X3756Y7259D01*
X3748Y7258D01*
X3740Y7261D01*
X3734Y7266D01*
X3730Y7274D01*
Y7282D01*
X3734Y7290D01*
X3740Y7295D01*
X3748Y7298D01*
X3756Y7297D01*
X3763Y7293D01*
X3768Y7286D01*
X3770Y7278D01*
X3920D02*
X3918Y7270D01*
X3913Y7263D01*
X3906Y7259D01*
X3898Y7258D01*
X3890Y7261D01*
X3884Y7266D01*
X3880Y7274D01*
Y7282D01*
X3884Y7290D01*
X3890Y7295D01*
X3898Y7298D01*
X3906Y7297D01*
X3913Y7293D01*
X3918Y7286D01*
X3920Y7278D01*
X4020D02*
X4018Y7270D01*
X4013Y7263D01*
X4006Y7259D01*
X3998Y7258D01*
X3990Y7261D01*
X3984Y7266D01*
X3980Y7274D01*
Y7282D01*
X3984Y7290D01*
X3990Y7295D01*
X3998Y7298D01*
X4006Y7297D01*
X4013Y7293D01*
X4018Y7286D01*
X4020Y7278D01*
X4120D02*
X4118Y7270D01*
X4113Y7263D01*
X4106Y7259D01*
X4098Y7258D01*
X4090Y7261D01*
X4084Y7266D01*
X4080Y7274D01*
Y7282D01*
X4084Y7290D01*
X4090Y7295D01*
X4098Y7298D01*
X4106Y7297D01*
X4113Y7293D01*
X4118Y7286D01*
X4120Y7278D01*
X4220D02*
X4218Y7270D01*
X4213Y7263D01*
X4206Y7259D01*
X4198Y7258D01*
X4190Y7261D01*
X4184Y7266D01*
X4180Y7274D01*
Y7282D01*
X4184Y7290D01*
X4190Y7295D01*
X4198Y7298D01*
X4206Y7297D01*
X4213Y7293D01*
X4218Y7286D01*
X4220Y7278D01*
X4320D02*
X4318Y7270D01*
X4313Y7263D01*
X4306Y7259D01*
X4298Y7258D01*
X4290Y7261D01*
X4284Y7266D01*
X4280Y7274D01*
Y7282D01*
X4284Y7290D01*
X4290Y7295D01*
X4298Y7298D01*
X4306Y7297D01*
X4313Y7293D01*
X4318Y7286D01*
X4320Y7278D01*
X4420D02*
X4418Y7270D01*
X4413Y7263D01*
X4406Y7259D01*
X4398Y7258D01*
X4390Y7261D01*
X4384Y7266D01*
X4380Y7274D01*
Y7282D01*
X4384Y7290D01*
X4390Y7295D01*
X4398Y7298D01*
X4406Y7297D01*
X4413Y7293D01*
X4418Y7286D01*
X4420Y7278D01*
X4520D02*
X4518Y7270D01*
X4513Y7263D01*
X4506Y7259D01*
X4498Y7258D01*
X4490Y7261D01*
X4484Y7266D01*
X4480Y7274D01*
Y7282D01*
X4484Y7290D01*
X4490Y7295D01*
X4498Y7298D01*
X4506Y7297D01*
X4513Y7293D01*
X4518Y7286D01*
X4520Y7278D01*
X4620D02*
X4618Y7270D01*
X4613Y7263D01*
X4606Y7259D01*
X4598Y7258D01*
X4590Y7261D01*
X4584Y7266D01*
X4580Y7274D01*
Y7282D01*
X4584Y7290D01*
X4590Y7295D01*
X4598Y7298D01*
X4606Y7297D01*
X4613Y7293D01*
X4618Y7286D01*
X4620Y7278D01*
X4720D02*
X4718Y7270D01*
X4713Y7263D01*
X4706Y7259D01*
X4698Y7258D01*
X4690Y7261D01*
X4684Y7266D01*
X4680Y7274D01*
Y7282D01*
X4684Y7290D01*
X4690Y7295D01*
X4698Y7298D01*
X4706Y7297D01*
X4713Y7293D01*
X4718Y7286D01*
X4720Y7278D01*
X4820D02*
X4818Y7270D01*
X4813Y7263D01*
X4806Y7259D01*
X4798Y7258D01*
X4790Y7261D01*
X4784Y7266D01*
X4780Y7274D01*
Y7282D01*
X4784Y7290D01*
X4790Y7295D01*
X4798Y7298D01*
X4806Y7297D01*
X4813Y7293D01*
X4818Y7286D01*
X4820Y7278D01*
Y7578D02*
X4818Y7570D01*
X4813Y7563D01*
X4806Y7559D01*
X4798Y7558D01*
X4790Y7561D01*
X4784Y7566D01*
X4780Y7574D01*
Y7582D01*
X4784Y7590D01*
X4790Y7595D01*
X4798Y7598D01*
X4806Y7597D01*
X4813Y7593D01*
X4818Y7586D01*
X4820Y7578D01*
X4720D02*
X4718Y7570D01*
X4713Y7563D01*
X4706Y7559D01*
X4698Y7558D01*
X4690Y7561D01*
X4684Y7566D01*
X4680Y7574D01*
Y7582D01*
X4684Y7590D01*
X4690Y7595D01*
X4698Y7598D01*
X4706Y7597D01*
X4713Y7593D01*
X4718Y7586D01*
X4720Y7578D01*
X4620D02*
X4618Y7570D01*
X4613Y7563D01*
X4606Y7559D01*
X4598Y7558D01*
X4590Y7561D01*
X4584Y7566D01*
X4580Y7574D01*
Y7582D01*
X4584Y7590D01*
X4590Y7595D01*
X4598Y7598D01*
X4606Y7597D01*
X4613Y7593D01*
X4618Y7586D01*
X4620Y7578D01*
X4520D02*
X4518Y7570D01*
X4513Y7563D01*
X4506Y7559D01*
X4498Y7558D01*
X4490Y7561D01*
X4484Y7566D01*
X4480Y7574D01*
Y7582D01*
X4484Y7590D01*
X4490Y7595D01*
X4498Y7598D01*
X4506Y7597D01*
X4513Y7593D01*
X4518Y7586D01*
X4520Y7578D01*
X4420D02*
X4418Y7570D01*
X4413Y7563D01*
X4406Y7559D01*
X4398Y7558D01*
X4390Y7561D01*
X4384Y7566D01*
X4380Y7574D01*
Y7582D01*
X4384Y7590D01*
X4390Y7595D01*
X4398Y7598D01*
X4406Y7597D01*
X4413Y7593D01*
X4418Y7586D01*
X4420Y7578D01*
X4320D02*
X4318Y7570D01*
X4313Y7563D01*
X4306Y7559D01*
X4298Y7558D01*
X4290Y7561D01*
X4284Y7566D01*
X4280Y7574D01*
Y7582D01*
X4284Y7590D01*
X4290Y7595D01*
X4298Y7598D01*
X4306Y7597D01*
X4313Y7593D01*
X4318Y7586D01*
X4320Y7578D01*
X4220D02*
X4218Y7570D01*
X4213Y7563D01*
X4206Y7559D01*
X4198Y7558D01*
X4190Y7561D01*
X4184Y7566D01*
X4180Y7574D01*
Y7582D01*
X4184Y7590D01*
X4190Y7595D01*
X4198Y7598D01*
X4206Y7597D01*
X4213Y7593D01*
X4218Y7586D01*
X4220Y7578D01*
X4120D02*
X4118Y7570D01*
X4113Y7563D01*
X4106Y7559D01*
X4098Y7558D01*
X4090Y7561D01*
X4084Y7566D01*
X4080Y7574D01*
Y7582D01*
X4084Y7590D01*
X4090Y7595D01*
X4098Y7598D01*
X4106Y7597D01*
X4113Y7593D01*
X4118Y7586D01*
X4120Y7578D01*
X4020D02*
X4018Y7570D01*
X4013Y7563D01*
X4006Y7559D01*
X3998Y7558D01*
X3990Y7561D01*
X3984Y7566D01*
X3980Y7574D01*
Y7582D01*
X3984Y7590D01*
X3990Y7595D01*
X3998Y7598D01*
X4006Y7597D01*
X4013Y7593D01*
X4018Y7586D01*
X4020Y7578D01*
X3920D02*
X3918Y7570D01*
X3913Y7563D01*
X3906Y7559D01*
X3898Y7558D01*
X3890Y7561D01*
X3884Y7566D01*
X3880Y7574D01*
Y7582D01*
X3884Y7590D01*
X3890Y7595D01*
X3898Y7598D01*
X3906Y7597D01*
X3913Y7593D01*
X3918Y7586D01*
X3920Y7578D01*
Y7778D02*
X3918Y7770D01*
X3913Y7763D01*
X3906Y7759D01*
X3898Y7758D01*
X3890Y7761D01*
X3884Y7766D01*
X3880Y7774D01*
Y7782D01*
X3884Y7790D01*
X3890Y7795D01*
X3898Y7798D01*
X3906Y7797D01*
X3913Y7793D01*
X3918Y7786D01*
X3920Y7778D01*
X4020D02*
X4018Y7770D01*
X4013Y7763D01*
X4006Y7759D01*
X3998Y7758D01*
X3990Y7761D01*
X3984Y7766D01*
X3980Y7774D01*
Y7782D01*
X3984Y7790D01*
X3990Y7795D01*
X3998Y7798D01*
X4006Y7797D01*
X4013Y7793D01*
X4018Y7786D01*
X4020Y7778D01*
X4120D02*
X4118Y7770D01*
X4113Y7763D01*
X4106Y7759D01*
X4098Y7758D01*
X4090Y7761D01*
X4084Y7766D01*
X4080Y7774D01*
Y7782D01*
X4084Y7790D01*
X4090Y7795D01*
X4098Y7798D01*
X4106Y7797D01*
X4113Y7793D01*
X4118Y7786D01*
X4120Y7778D01*
X4220D02*
X4218Y7770D01*
X4213Y7763D01*
X4206Y7759D01*
X4198Y7758D01*
X4190Y7761D01*
X4184Y7766D01*
X4180Y7774D01*
Y7782D01*
X4184Y7790D01*
X4190Y7795D01*
X4198Y7798D01*
X4206Y7797D01*
X4213Y7793D01*
X4218Y7786D01*
X4220Y7778D01*
X4320D02*
X4318Y7770D01*
X4313Y7763D01*
X4306Y7759D01*
X4298Y7758D01*
X4290Y7761D01*
X4284Y7766D01*
X4280Y7774D01*
Y7782D01*
X4284Y7790D01*
X4290Y7795D01*
X4298Y7798D01*
X4306Y7797D01*
X4313Y7793D01*
X4318Y7786D01*
X4320Y7778D01*
X4420D02*
X4418Y7770D01*
X4413Y7763D01*
X4406Y7759D01*
X4398Y7758D01*
X4390Y7761D01*
X4384Y7766D01*
X4380Y7774D01*
Y7782D01*
X4384Y7790D01*
X4390Y7795D01*
X4398Y7798D01*
X4406Y7797D01*
X4413Y7793D01*
X4418Y7786D01*
X4420Y7778D01*
X4520D02*
X4518Y7770D01*
X4513Y7763D01*
X4506Y7759D01*
X4498Y7758D01*
X4490Y7761D01*
X4484Y7766D01*
X4480Y7774D01*
Y7782D01*
X4484Y7790D01*
X4490Y7795D01*
X4498Y7798D01*
X4506Y7797D01*
X4513Y7793D01*
X4518Y7786D01*
X4520Y7778D01*
X4620D02*
X4618Y7770D01*
X4613Y7763D01*
X4606Y7759D01*
X4598Y7758D01*
X4590Y7761D01*
X4584Y7766D01*
X4580Y7774D01*
Y7782D01*
X4584Y7790D01*
X4590Y7795D01*
X4598Y7798D01*
X4606Y7797D01*
X4613Y7793D01*
X4618Y7786D01*
X4620Y7778D01*
X4720D02*
X4718Y7770D01*
X4713Y7763D01*
X4706Y7759D01*
X4698Y7758D01*
X4690Y7761D01*
X4684Y7766D01*
X4680Y7774D01*
Y7782D01*
X4684Y7790D01*
X4690Y7795D01*
X4698Y7798D01*
X4706Y7797D01*
X4713Y7793D01*
X4718Y7786D01*
X4720Y7778D01*
X4820D02*
X4818Y7770D01*
X4813Y7763D01*
X4806Y7759D01*
X4798Y7758D01*
X4790Y7761D01*
X4784Y7766D01*
X4780Y7774D01*
Y7782D01*
X4784Y7790D01*
X4790Y7795D01*
X4798Y7798D01*
X4806Y7797D01*
X4813Y7793D01*
X4818Y7786D01*
X4820Y7778D01*
X4920D02*
X4918Y7770D01*
X4913Y7763D01*
X4906Y7759D01*
X4898Y7758D01*
X4890Y7761D01*
X4884Y7766D01*
X4880Y7774D01*
Y7782D01*
X4884Y7790D01*
X4890Y7795D01*
X4898Y7798D01*
X4906Y7797D01*
X4913Y7793D01*
X4918Y7786D01*
X4920Y7778D01*
X5020D02*
X5018Y7770D01*
X5013Y7763D01*
X5006Y7759D01*
X4998Y7758D01*
X4990Y7761D01*
X4984Y7766D01*
X4980Y7774D01*
Y7782D01*
X4984Y7790D01*
X4990Y7795D01*
X4998Y7798D01*
X5006Y7797D01*
X5013Y7793D01*
X5018Y7786D01*
X5020Y7778D01*
X5120D02*
X5118Y7770D01*
X5113Y7763D01*
X5106Y7759D01*
X5098Y7758D01*
X5090Y7761D01*
X5084Y7766D01*
X5080Y7774D01*
Y7782D01*
X5084Y7790D01*
X5090Y7795D01*
X5098Y7798D01*
X5106Y7797D01*
X5113Y7793D01*
X5118Y7786D01*
X5120Y7778D01*
X5220D02*
X5218Y7770D01*
X5213Y7763D01*
X5206Y7759D01*
X5198Y7758D01*
X5190Y7761D01*
X5184Y7766D01*
X5180Y7774D01*
Y7782D01*
X5184Y7790D01*
X5190Y7795D01*
X5198Y7798D01*
X5206Y7797D01*
X5213Y7793D01*
X5218Y7786D01*
X5220Y7778D01*
Y8378D02*
X5218Y8370D01*
X5213Y8363D01*
X5206Y8359D01*
X5198Y8358D01*
X5190Y8361D01*
X5184Y8366D01*
X5180Y8374D01*
Y8382D01*
X5184Y8390D01*
X5190Y8395D01*
X5198Y8398D01*
X5206Y8397D01*
X5213Y8393D01*
X5218Y8386D01*
X5220Y8378D01*
X5120D02*
X5118Y8370D01*
X5113Y8363D01*
X5106Y8359D01*
X5098Y8358D01*
X5090Y8361D01*
X5084Y8366D01*
X5080Y8374D01*
Y8382D01*
X5084Y8390D01*
X5090Y8395D01*
X5098Y8398D01*
X5106Y8397D01*
X5113Y8393D01*
X5118Y8386D01*
X5120Y8378D01*
X5020D02*
X5018Y8370D01*
X5013Y8363D01*
X5006Y8359D01*
X4998Y8358D01*
X4990Y8361D01*
X4984Y8366D01*
X4980Y8374D01*
Y8382D01*
X4984Y8390D01*
X4990Y8395D01*
X4998Y8398D01*
X5006Y8397D01*
X5013Y8393D01*
X5018Y8386D01*
X5020Y8378D01*
X4920D02*
X4918Y8370D01*
X4913Y8363D01*
X4906Y8359D01*
X4898Y8358D01*
X4890Y8361D01*
X4884Y8366D01*
X4880Y8374D01*
Y8382D01*
X4884Y8390D01*
X4890Y8395D01*
X4898Y8398D01*
X4906Y8397D01*
X4913Y8393D01*
X4918Y8386D01*
X4920Y8378D01*
X4820D02*
X4818Y8370D01*
X4813Y8363D01*
X4806Y8359D01*
X4798Y8358D01*
X4790Y8361D01*
X4784Y8366D01*
X4780Y8374D01*
Y8382D01*
X4784Y8390D01*
X4790Y8395D01*
X4798Y8398D01*
X4806Y8397D01*
X4813Y8393D01*
X4818Y8386D01*
X4820Y8378D01*
X4720D02*
X4718Y8370D01*
X4713Y8363D01*
X4706Y8359D01*
X4698Y8358D01*
X4690Y8361D01*
X4684Y8366D01*
X4680Y8374D01*
Y8382D01*
X4684Y8390D01*
X4690Y8395D01*
X4698Y8398D01*
X4706Y8397D01*
X4713Y8393D01*
X4718Y8386D01*
X4720Y8378D01*
X4620D02*
X4618Y8370D01*
X4613Y8363D01*
X4606Y8359D01*
X4598Y8358D01*
X4590Y8361D01*
X4584Y8366D01*
X4580Y8374D01*
Y8382D01*
X4584Y8390D01*
X4590Y8395D01*
X4598Y8398D01*
X4606Y8397D01*
X4613Y8393D01*
X4618Y8386D01*
X4620Y8378D01*
X4520D02*
X4518Y8370D01*
X4513Y8363D01*
X4506Y8359D01*
X4498Y8358D01*
X4490Y8361D01*
X4484Y8366D01*
X4480Y8374D01*
Y8382D01*
X4484Y8390D01*
X4490Y8395D01*
X4498Y8398D01*
X4506Y8397D01*
X4513Y8393D01*
X4518Y8386D01*
X4520Y8378D01*
X4420D02*
X4418Y8370D01*
X4413Y8363D01*
X4406Y8359D01*
X4398Y8358D01*
X4390Y8361D01*
X4384Y8366D01*
X4380Y8374D01*
Y8382D01*
X4384Y8390D01*
X4390Y8395D01*
X4398Y8398D01*
X4406Y8397D01*
X4413Y8393D01*
X4418Y8386D01*
X4420Y8378D01*
X4320D02*
X4318Y8370D01*
X4313Y8363D01*
X4306Y8359D01*
X4298Y8358D01*
X4290Y8361D01*
X4284Y8366D01*
X4280Y8374D01*
Y8382D01*
X4284Y8390D01*
X4290Y8395D01*
X4298Y8398D01*
X4306Y8397D01*
X4313Y8393D01*
X4318Y8386D01*
X4320Y8378D01*
X4220D02*
X4218Y8370D01*
X4213Y8363D01*
X4206Y8359D01*
X4198Y8358D01*
X4190Y8361D01*
X4184Y8366D01*
X4180Y8374D01*
Y8382D01*
X4184Y8390D01*
X4190Y8395D01*
X4198Y8398D01*
X4206Y8397D01*
X4213Y8393D01*
X4218Y8386D01*
X4220Y8378D01*
X4120D02*
X4118Y8370D01*
X4113Y8363D01*
X4106Y8359D01*
X4098Y8358D01*
X4090Y8361D01*
X4084Y8366D01*
X4080Y8374D01*
Y8382D01*
X4084Y8390D01*
X4090Y8395D01*
X4098Y8398D01*
X4106Y8397D01*
X4113Y8393D01*
X4118Y8386D01*
X4120Y8378D01*
X4020D02*
X4018Y8370D01*
X4013Y8363D01*
X4006Y8359D01*
X3998Y8358D01*
X3990Y8361D01*
X3984Y8366D01*
X3980Y8374D01*
Y8382D01*
X3984Y8390D01*
X3990Y8395D01*
X3998Y8398D01*
X4006Y8397D01*
X4013Y8393D01*
X4018Y8386D01*
X4020Y8378D01*
X3920D02*
X3918Y8370D01*
X3913Y8363D01*
X3906Y8359D01*
X3898Y8358D01*
X3890Y8361D01*
X3884Y8366D01*
X3880Y8374D01*
Y8382D01*
X3884Y8390D01*
X3890Y8395D01*
X3898Y8398D01*
X3906Y8397D01*
X3913Y8393D01*
X3918Y8386D01*
X3920Y8378D01*
X3945Y8953D02*
X3943Y8945D01*
X3938Y8938D01*
X3931Y8934D01*
X3923Y8933D01*
X3915Y8936D01*
X3909Y8941D01*
X3905Y8949D01*
Y8957D01*
X3909Y8965D01*
X3915Y8970D01*
X3923Y8973D01*
X3931Y8972D01*
X3938Y8968D01*
X3943Y8961D01*
X3945Y8953D01*
Y8653D02*
X3943Y8645D01*
X3938Y8638D01*
X3931Y8634D01*
X3923Y8633D01*
X3915Y8636D01*
X3909Y8641D01*
X3905Y8649D01*
Y8657D01*
X3909Y8665D01*
X3915Y8670D01*
X3923Y8673D01*
X3931Y8672D01*
X3938Y8668D01*
X3943Y8661D01*
X3945Y8653D01*
X4095D02*
X4093Y8645D01*
X4088Y8638D01*
X4081Y8634D01*
X4073Y8633D01*
X4065Y8636D01*
X4059Y8641D01*
X4055Y8649D01*
Y8657D01*
X4059Y8665D01*
X4065Y8670D01*
X4073Y8673D01*
X4081Y8672D01*
X4088Y8668D01*
X4093Y8661D01*
X4095Y8653D01*
X4195D02*
X4193Y8645D01*
X4188Y8638D01*
X4181Y8634D01*
X4173Y8633D01*
X4165Y8636D01*
X4159Y8641D01*
X4155Y8649D01*
Y8657D01*
X4159Y8665D01*
X4165Y8670D01*
X4173Y8673D01*
X4181Y8672D01*
X4188Y8668D01*
X4193Y8661D01*
X4195Y8653D01*
X4295D02*
X4293Y8645D01*
X4288Y8638D01*
X4281Y8634D01*
X4273Y8633D01*
X4265Y8636D01*
X4259Y8641D01*
X4255Y8649D01*
Y8657D01*
X4259Y8665D01*
X4265Y8670D01*
X4273Y8673D01*
X4281Y8672D01*
X4288Y8668D01*
X4293Y8661D01*
X4295Y8653D01*
X4395D02*
X4393Y8645D01*
X4388Y8638D01*
X4381Y8634D01*
X4373Y8633D01*
X4365Y8636D01*
X4359Y8641D01*
X4355Y8649D01*
Y8657D01*
X4359Y8665D01*
X4365Y8670D01*
X4373Y8673D01*
X4381Y8672D01*
X4388Y8668D01*
X4393Y8661D01*
X4395Y8653D01*
X4495D02*
X4493Y8645D01*
X4488Y8638D01*
X4481Y8634D01*
X4473Y8633D01*
X4465Y8636D01*
X4459Y8641D01*
X4455Y8649D01*
Y8657D01*
X4459Y8665D01*
X4465Y8670D01*
X4473Y8673D01*
X4481Y8672D01*
X4488Y8668D01*
X4493Y8661D01*
X4495Y8653D01*
X4595D02*
X4593Y8645D01*
X4588Y8638D01*
X4581Y8634D01*
X4573Y8633D01*
X4565Y8636D01*
X4559Y8641D01*
X4555Y8649D01*
Y8657D01*
X4559Y8665D01*
X4565Y8670D01*
X4573Y8673D01*
X4581Y8672D01*
X4588Y8668D01*
X4593Y8661D01*
X4595Y8653D01*
X4695D02*
X4693Y8645D01*
X4688Y8638D01*
X4681Y8634D01*
X4673Y8633D01*
X4665Y8636D01*
X4659Y8641D01*
X4655Y8649D01*
Y8657D01*
X4659Y8665D01*
X4665Y8670D01*
X4673Y8673D01*
X4681Y8672D01*
X4688Y8668D01*
X4693Y8661D01*
X4695Y8653D01*
Y8953D02*
X4693Y8945D01*
X4688Y8938D01*
X4681Y8934D01*
X4673Y8933D01*
X4665Y8936D01*
X4659Y8941D01*
X4655Y8949D01*
Y8957D01*
X4659Y8965D01*
X4665Y8970D01*
X4673Y8973D01*
X4681Y8972D01*
X4688Y8968D01*
X4693Y8961D01*
X4695Y8953D01*
X4595D02*
X4593Y8945D01*
X4588Y8938D01*
X4581Y8934D01*
X4573Y8933D01*
X4565Y8936D01*
X4559Y8941D01*
X4555Y8949D01*
Y8957D01*
X4559Y8965D01*
X4565Y8970D01*
X4573Y8973D01*
X4581Y8972D01*
X4588Y8968D01*
X4593Y8961D01*
X4595Y8953D01*
X4495D02*
X4493Y8945D01*
X4488Y8938D01*
X4481Y8934D01*
X4473Y8933D01*
X4465Y8936D01*
X4459Y8941D01*
X4455Y8949D01*
Y8957D01*
X4459Y8965D01*
X4465Y8970D01*
X4473Y8973D01*
X4481Y8972D01*
X4488Y8968D01*
X4493Y8961D01*
X4495Y8953D01*
X4395D02*
X4393Y8945D01*
X4388Y8938D01*
X4381Y8934D01*
X4373Y8933D01*
X4365Y8936D01*
X4359Y8941D01*
X4355Y8949D01*
Y8957D01*
X4359Y8965D01*
X4365Y8970D01*
X4373Y8973D01*
X4381Y8972D01*
X4388Y8968D01*
X4393Y8961D01*
X4395Y8953D01*
X4295D02*
X4293Y8945D01*
X4288Y8938D01*
X4281Y8934D01*
X4273Y8933D01*
X4265Y8936D01*
X4259Y8941D01*
X4255Y8949D01*
Y8957D01*
X4259Y8965D01*
X4265Y8970D01*
X4273Y8973D01*
X4281Y8972D01*
X4288Y8968D01*
X4293Y8961D01*
X4295Y8953D01*
X4195D02*
X4193Y8945D01*
X4188Y8938D01*
X4181Y8934D01*
X4173Y8933D01*
X4165Y8936D01*
X4159Y8941D01*
X4155Y8949D01*
Y8957D01*
X4159Y8965D01*
X4165Y8970D01*
X4173Y8973D01*
X4181Y8972D01*
X4188Y8968D01*
X4193Y8961D01*
X4195Y8953D01*
X4095D02*
X4093Y8945D01*
X4088Y8938D01*
X4081Y8934D01*
X4073Y8933D01*
X4065Y8936D01*
X4059Y8941D01*
X4055Y8949D01*
Y8957D01*
X4059Y8965D01*
X4065Y8970D01*
X4073Y8973D01*
X4081Y8972D01*
X4088Y8968D01*
X4093Y8961D01*
X4095Y8953D01*
X5130Y6798D02*
X5150Y6758D01*
X5130Y6798D02*
X5170D01*
X5150Y6758D01*
X4950Y6858D02*
X4930Y6898D01*
X4970D01*
X4950Y6858D01*
X5330Y6898D02*
X5350Y6858D01*
X5330Y6898D02*
X5370D01*
X5350Y6858D01*
X5430Y6798D02*
X5450Y6758D01*
X5430Y6798D02*
X5470D01*
X5450Y6758D01*
X4850D02*
X4830Y6798D01*
X4870D01*
X4850Y6758D01*
X5230Y6398D02*
X5250Y6358D01*
X5230Y6398D02*
X5270D01*
X5250Y6358D01*
X5050D02*
X5030Y6398D01*
X5070D01*
X5050Y6358D01*
X4320Y7128D02*
X4318Y7120D01*
X4313Y7113D01*
X4306Y7109D01*
X4298Y7108D01*
X4290Y7111D01*
X4284Y7116D01*
X4280Y7124D01*
Y7132D01*
X4284Y7140D01*
X4290Y7145D01*
X4298Y7148D01*
X4306Y7147D01*
X4313Y7143D01*
X4318Y7136D01*
X4320Y7128D01*
X4720D02*
X4718Y7120D01*
X4713Y7113D01*
X4706Y7109D01*
X4698Y7108D01*
X4690Y7111D01*
X4684Y7116D01*
X4680Y7124D01*
Y7132D01*
X4684Y7140D01*
X4690Y7145D01*
X4698Y7148D01*
X4706Y7147D01*
X4713Y7143D01*
X4718Y7136D01*
X4720Y7128D01*
X5345Y8378D02*
X5343Y8370D01*
X5338Y8363D01*
X5331Y8359D01*
X5323Y8358D01*
X5315Y8361D01*
X5309Y8366D01*
X5305Y8374D01*
Y8382D01*
X5309Y8390D01*
X5315Y8395D01*
X5323Y8398D01*
X5331Y8397D01*
X5338Y8393D01*
X5343Y8386D01*
X5345Y8378D01*
Y8078D02*
X5343Y8070D01*
X5338Y8063D01*
X5331Y8059D01*
X5323Y8058D01*
X5315Y8061D01*
X5309Y8066D01*
X5305Y8074D01*
Y8082D01*
X5309Y8090D01*
X5315Y8095D01*
X5323Y8098D01*
X5331Y8097D01*
X5338Y8093D01*
X5343Y8086D01*
X5345Y8078D01*
X5320Y7028D02*
X5318Y7020D01*
X5313Y7013D01*
X5306Y7009D01*
X5298Y7008D01*
X5290Y7011D01*
X5284Y7016D01*
X5280Y7024D01*
Y7032D01*
X5284Y7040D01*
X5290Y7045D01*
X5298Y7048D01*
X5306Y7047D01*
X5313Y7043D01*
X5318Y7036D01*
X5320Y7028D01*
X4920D02*
X4918Y7020D01*
X4913Y7013D01*
X4906Y7009D01*
X4898Y7008D01*
X4890Y7011D01*
X4884Y7016D01*
X4880Y7024D01*
Y7032D01*
X4884Y7040D01*
X4890Y7045D01*
X4898Y7048D01*
X4906Y7047D01*
X4913Y7043D01*
X4918Y7036D01*
X4920Y7028D01*
X5320Y7128D02*
X5318Y7120D01*
X5313Y7113D01*
X5306Y7109D01*
X5298Y7108D01*
X5290Y7111D01*
X5284Y7116D01*
X5280Y7124D01*
Y7132D01*
X5284Y7140D01*
X5290Y7145D01*
X5298Y7148D01*
X5306Y7147D01*
X5313Y7143D01*
X5318Y7136D01*
X5320Y7128D01*
X4920D02*
X4918Y7120D01*
X4913Y7113D01*
X4906Y7109D01*
X4898Y7108D01*
X4890Y7111D01*
X4884Y7116D01*
X4880Y7124D01*
Y7132D01*
X4884Y7140D01*
X4890Y7145D01*
X4898Y7148D01*
X4906Y7147D01*
X4913Y7143D01*
X4918Y7136D01*
X4920Y7128D01*
X5470Y7778D02*
X5468Y7770D01*
X5463Y7763D01*
X5456Y7759D01*
X5448Y7758D01*
X5440Y7761D01*
X5434Y7766D01*
X5430Y7774D01*
Y7782D01*
X5434Y7790D01*
X5440Y7795D01*
X5448Y7798D01*
X5456Y7797D01*
X5463Y7793D01*
X5468Y7786D01*
X5470Y7778D01*
X5570D02*
X5568Y7770D01*
X5563Y7763D01*
X5556Y7759D01*
X5548Y7758D01*
X5540Y7761D01*
X5534Y7766D01*
X5530Y7774D01*
Y7782D01*
X5534Y7790D01*
X5540Y7795D01*
X5548Y7798D01*
X5556Y7797D01*
X5563Y7793D01*
X5568Y7786D01*
X5570Y7778D01*
X5670D02*
X5668Y7770D01*
X5663Y7763D01*
X5656Y7759D01*
X5648Y7758D01*
X5640Y7761D01*
X5634Y7766D01*
X5630Y7774D01*
Y7782D01*
X5634Y7790D01*
X5640Y7795D01*
X5648Y7798D01*
X5656Y7797D01*
X5663Y7793D01*
X5668Y7786D01*
X5670Y7778D01*
X5770D02*
X5768Y7770D01*
X5763Y7763D01*
X5756Y7759D01*
X5748Y7758D01*
X5740Y7761D01*
X5734Y7766D01*
X5730Y7774D01*
Y7782D01*
X5734Y7790D01*
X5740Y7795D01*
X5748Y7798D01*
X5756Y7797D01*
X5763Y7793D01*
X5768Y7786D01*
X5770Y7778D01*
X5870D02*
X5868Y7770D01*
X5863Y7763D01*
X5856Y7759D01*
X5848Y7758D01*
X5840Y7761D01*
X5834Y7766D01*
X5830Y7774D01*
Y7782D01*
X5834Y7790D01*
X5840Y7795D01*
X5848Y7798D01*
X5856Y7797D01*
X5863Y7793D01*
X5868Y7786D01*
X5870Y7778D01*
X5970D02*
X5968Y7770D01*
X5963Y7763D01*
X5956Y7759D01*
X5948Y7758D01*
X5940Y7761D01*
X5934Y7766D01*
X5930Y7774D01*
Y7782D01*
X5934Y7790D01*
X5940Y7795D01*
X5948Y7798D01*
X5956Y7797D01*
X5963Y7793D01*
X5968Y7786D01*
X5970Y7778D01*
X6070D02*
X6068Y7770D01*
X6063Y7763D01*
X6056Y7759D01*
X6048Y7758D01*
X6040Y7761D01*
X6034Y7766D01*
X6030Y7774D01*
Y7782D01*
X6034Y7790D01*
X6040Y7795D01*
X6048Y7798D01*
X6056Y7797D01*
X6063Y7793D01*
X6068Y7786D01*
X6070Y7778D01*
X6170D02*
X6168Y7770D01*
X6163Y7763D01*
X6156Y7759D01*
X6148Y7758D01*
X6140Y7761D01*
X6134Y7766D01*
X6130Y7774D01*
Y7782D01*
X6134Y7790D01*
X6140Y7795D01*
X6148Y7798D01*
X6156Y7797D01*
X6163Y7793D01*
X6168Y7786D01*
X6170Y7778D01*
X6270D02*
X6268Y7770D01*
X6263Y7763D01*
X6256Y7759D01*
X6248Y7758D01*
X6240Y7761D01*
X6234Y7766D01*
X6230Y7774D01*
Y7782D01*
X6234Y7790D01*
X6240Y7795D01*
X6248Y7798D01*
X6256Y7797D01*
X6263Y7793D01*
X6268Y7786D01*
X6270Y7778D01*
X6370D02*
X6368Y7770D01*
X6363Y7763D01*
X6356Y7759D01*
X6348Y7758D01*
X6340Y7761D01*
X6334Y7766D01*
X6330Y7774D01*
Y7782D01*
X6334Y7790D01*
X6340Y7795D01*
X6348Y7798D01*
X6356Y7797D01*
X6363Y7793D01*
X6368Y7786D01*
X6370Y7778D01*
X6470D02*
X6468Y7770D01*
X6463Y7763D01*
X6456Y7759D01*
X6448Y7758D01*
X6440Y7761D01*
X6434Y7766D01*
X6430Y7774D01*
Y7782D01*
X6434Y7790D01*
X6440Y7795D01*
X6448Y7798D01*
X6456Y7797D01*
X6463Y7793D01*
X6468Y7786D01*
X6470Y7778D01*
X6570D02*
X6568Y7770D01*
X6563Y7763D01*
X6556Y7759D01*
X6548Y7758D01*
X6540Y7761D01*
X6534Y7766D01*
X6530Y7774D01*
Y7782D01*
X6534Y7790D01*
X6540Y7795D01*
X6548Y7798D01*
X6556Y7797D01*
X6563Y7793D01*
X6568Y7786D01*
X6570Y7778D01*
X6670D02*
X6668Y7770D01*
X6663Y7763D01*
X6656Y7759D01*
X6648Y7758D01*
X6640Y7761D01*
X6634Y7766D01*
X6630Y7774D01*
Y7782D01*
X6634Y7790D01*
X6640Y7795D01*
X6648Y7798D01*
X6656Y7797D01*
X6663Y7793D01*
X6668Y7786D01*
X6670Y7778D01*
X6770D02*
X6768Y7770D01*
X6763Y7763D01*
X6756Y7759D01*
X6748Y7758D01*
X6740Y7761D01*
X6734Y7766D01*
X6730Y7774D01*
Y7782D01*
X6734Y7790D01*
X6740Y7795D01*
X6748Y7798D01*
X6756Y7797D01*
X6763Y7793D01*
X6768Y7786D01*
X6770Y7778D01*
X6870D02*
X6868Y7770D01*
X6863Y7763D01*
X6856Y7759D01*
X6848Y7758D01*
X6840Y7761D01*
X6834Y7766D01*
X6830Y7774D01*
Y7782D01*
X6834Y7790D01*
X6840Y7795D01*
X6848Y7798D01*
X6856Y7797D01*
X6863Y7793D01*
X6868Y7786D01*
X6870Y7778D01*
X6970D02*
X6968Y7770D01*
X6963Y7763D01*
X6956Y7759D01*
X6948Y7758D01*
X6940Y7761D01*
X6934Y7766D01*
X6930Y7774D01*
Y7782D01*
X6934Y7790D01*
X6940Y7795D01*
X6948Y7798D01*
X6956Y7797D01*
X6963Y7793D01*
X6968Y7786D01*
X6970Y7778D01*
X7070D02*
X7068Y7770D01*
X7063Y7763D01*
X7056Y7759D01*
X7048Y7758D01*
X7040Y7761D01*
X7034Y7766D01*
X7030Y7774D01*
Y7782D01*
X7034Y7790D01*
X7040Y7795D01*
X7048Y7798D01*
X7056Y7797D01*
X7063Y7793D01*
X7068Y7786D01*
X7070Y7778D01*
X7170D02*
X7168Y7770D01*
X7163Y7763D01*
X7156Y7759D01*
X7148Y7758D01*
X7140Y7761D01*
X7134Y7766D01*
X7130Y7774D01*
Y7782D01*
X7134Y7790D01*
X7140Y7795D01*
X7148Y7798D01*
X7156Y7797D01*
X7163Y7793D01*
X7168Y7786D01*
X7170Y7778D01*
X7270D02*
X7268Y7770D01*
X7263Y7763D01*
X7256Y7759D01*
X7248Y7758D01*
X7240Y7761D01*
X7234Y7766D01*
X7230Y7774D01*
Y7782D01*
X7234Y7790D01*
X7240Y7795D01*
X7248Y7798D01*
X7256Y7797D01*
X7263Y7793D01*
X7268Y7786D01*
X7270Y7778D01*
X7370D02*
X7368Y7770D01*
X7363Y7763D01*
X7356Y7759D01*
X7348Y7758D01*
X7340Y7761D01*
X7334Y7766D01*
X7330Y7774D01*
Y7782D01*
X7334Y7790D01*
X7340Y7795D01*
X7348Y7798D01*
X7356Y7797D01*
X7363Y7793D01*
X7368Y7786D01*
X7370Y7778D01*
Y8378D02*
X7368Y8370D01*
X7363Y8363D01*
X7356Y8359D01*
X7348Y8358D01*
X7340Y8361D01*
X7334Y8366D01*
X7330Y8374D01*
Y8382D01*
X7334Y8390D01*
X7340Y8395D01*
X7348Y8398D01*
X7356Y8397D01*
X7363Y8393D01*
X7368Y8386D01*
X7370Y8378D01*
X7270D02*
X7268Y8370D01*
X7263Y8363D01*
X7256Y8359D01*
X7248Y8358D01*
X7240Y8361D01*
X7234Y8366D01*
X7230Y8374D01*
Y8382D01*
X7234Y8390D01*
X7240Y8395D01*
X7248Y8398D01*
X7256Y8397D01*
X7263Y8393D01*
X7268Y8386D01*
X7270Y8378D01*
X7170D02*
X7168Y8370D01*
X7163Y8363D01*
X7156Y8359D01*
X7148Y8358D01*
X7140Y8361D01*
X7134Y8366D01*
X7130Y8374D01*
Y8382D01*
X7134Y8390D01*
X7140Y8395D01*
X7148Y8398D01*
X7156Y8397D01*
X7163Y8393D01*
X7168Y8386D01*
X7170Y8378D01*
X7070D02*
X7068Y8370D01*
X7063Y8363D01*
X7056Y8359D01*
X7048Y8358D01*
X7040Y8361D01*
X7034Y8366D01*
X7030Y8374D01*
Y8382D01*
X7034Y8390D01*
X7040Y8395D01*
X7048Y8398D01*
X7056Y8397D01*
X7063Y8393D01*
X7068Y8386D01*
X7070Y8378D01*
X6970D02*
X6968Y8370D01*
X6963Y8363D01*
X6956Y8359D01*
X6948Y8358D01*
X6940Y8361D01*
X6934Y8366D01*
X6930Y8374D01*
Y8382D01*
X6934Y8390D01*
X6940Y8395D01*
X6948Y8398D01*
X6956Y8397D01*
X6963Y8393D01*
X6968Y8386D01*
X6970Y8378D01*
X6870D02*
X6868Y8370D01*
X6863Y8363D01*
X6856Y8359D01*
X6848Y8358D01*
X6840Y8361D01*
X6834Y8366D01*
X6830Y8374D01*
Y8382D01*
X6834Y8390D01*
X6840Y8395D01*
X6848Y8398D01*
X6856Y8397D01*
X6863Y8393D01*
X6868Y8386D01*
X6870Y8378D01*
X6770D02*
X6768Y8370D01*
X6763Y8363D01*
X6756Y8359D01*
X6748Y8358D01*
X6740Y8361D01*
X6734Y8366D01*
X6730Y8374D01*
Y8382D01*
X6734Y8390D01*
X6740Y8395D01*
X6748Y8398D01*
X6756Y8397D01*
X6763Y8393D01*
X6768Y8386D01*
X6770Y8378D01*
X6670D02*
X6668Y8370D01*
X6663Y8363D01*
X6656Y8359D01*
X6648Y8358D01*
X6640Y8361D01*
X6634Y8366D01*
X6630Y8374D01*
Y8382D01*
X6634Y8390D01*
X6640Y8395D01*
X6648Y8398D01*
X6656Y8397D01*
X6663Y8393D01*
X6668Y8386D01*
X6670Y8378D01*
X6570D02*
X6568Y8370D01*
X6563Y8363D01*
X6556Y8359D01*
X6548Y8358D01*
X6540Y8361D01*
X6534Y8366D01*
X6530Y8374D01*
Y8382D01*
X6534Y8390D01*
X6540Y8395D01*
X6548Y8398D01*
X6556Y8397D01*
X6563Y8393D01*
X6568Y8386D01*
X6570Y8378D01*
X6470D02*
X6468Y8370D01*
X6463Y8363D01*
X6456Y8359D01*
X6448Y8358D01*
X6440Y8361D01*
X6434Y8366D01*
X6430Y8374D01*
Y8382D01*
X6434Y8390D01*
X6440Y8395D01*
X6448Y8398D01*
X6456Y8397D01*
X6463Y8393D01*
X6468Y8386D01*
X6470Y8378D01*
X6370D02*
X6368Y8370D01*
X6363Y8363D01*
X6356Y8359D01*
X6348Y8358D01*
X6340Y8361D01*
X6334Y8366D01*
X6330Y8374D01*
Y8382D01*
X6334Y8390D01*
X6340Y8395D01*
X6348Y8398D01*
X6356Y8397D01*
X6363Y8393D01*
X6368Y8386D01*
X6370Y8378D01*
X6270D02*
X6268Y8370D01*
X6263Y8363D01*
X6256Y8359D01*
X6248Y8358D01*
X6240Y8361D01*
X6234Y8366D01*
X6230Y8374D01*
Y8382D01*
X6234Y8390D01*
X6240Y8395D01*
X6248Y8398D01*
X6256Y8397D01*
X6263Y8393D01*
X6268Y8386D01*
X6270Y8378D01*
X6170D02*
X6168Y8370D01*
X6163Y8363D01*
X6156Y8359D01*
X6148Y8358D01*
X6140Y8361D01*
X6134Y8366D01*
X6130Y8374D01*
Y8382D01*
X6134Y8390D01*
X6140Y8395D01*
X6148Y8398D01*
X6156Y8397D01*
X6163Y8393D01*
X6168Y8386D01*
X6170Y8378D01*
X6070D02*
X6068Y8370D01*
X6063Y8363D01*
X6056Y8359D01*
X6048Y8358D01*
X6040Y8361D01*
X6034Y8366D01*
X6030Y8374D01*
Y8382D01*
X6034Y8390D01*
X6040Y8395D01*
X6048Y8398D01*
X6056Y8397D01*
X6063Y8393D01*
X6068Y8386D01*
X6070Y8378D01*
X5970D02*
X5968Y8370D01*
X5963Y8363D01*
X5956Y8359D01*
X5948Y8358D01*
X5940Y8361D01*
X5934Y8366D01*
X5930Y8374D01*
Y8382D01*
X5934Y8390D01*
X5940Y8395D01*
X5948Y8398D01*
X5956Y8397D01*
X5963Y8393D01*
X5968Y8386D01*
X5970Y8378D01*
X5870D02*
X5868Y8370D01*
X5863Y8363D01*
X5856Y8359D01*
X5848Y8358D01*
X5840Y8361D01*
X5834Y8366D01*
X5830Y8374D01*
Y8382D01*
X5834Y8390D01*
X5840Y8395D01*
X5848Y8398D01*
X5856Y8397D01*
X5863Y8393D01*
X5868Y8386D01*
X5870Y8378D01*
X5770D02*
X5768Y8370D01*
X5763Y8363D01*
X5756Y8359D01*
X5748Y8358D01*
X5740Y8361D01*
X5734Y8366D01*
X5730Y8374D01*
Y8382D01*
X5734Y8390D01*
X5740Y8395D01*
X5748Y8398D01*
X5756Y8397D01*
X5763Y8393D01*
X5768Y8386D01*
X5770Y8378D01*
X5670D02*
X5668Y8370D01*
X5663Y8363D01*
X5656Y8359D01*
X5648Y8358D01*
X5640Y8361D01*
X5634Y8366D01*
X5630Y8374D01*
Y8382D01*
X5634Y8390D01*
X5640Y8395D01*
X5648Y8398D01*
X5656Y8397D01*
X5663Y8393D01*
X5668Y8386D01*
X5670Y8378D01*
X5570D02*
X5568Y8370D01*
X5563Y8363D01*
X5556Y8359D01*
X5548Y8358D01*
X5540Y8361D01*
X5534Y8366D01*
X5530Y8374D01*
Y8382D01*
X5534Y8390D01*
X5540Y8395D01*
X5548Y8398D01*
X5556Y8397D01*
X5563Y8393D01*
X5568Y8386D01*
X5570Y8378D01*
X5470D02*
X5468Y8370D01*
X5463Y8363D01*
X5456Y8359D01*
X5448Y8358D01*
X5440Y8361D01*
X5434Y8366D01*
X5430Y8374D01*
Y8382D01*
X5434Y8390D01*
X5440Y8395D01*
X5448Y8398D01*
X5456Y8397D01*
X5463Y8393D01*
X5468Y8386D01*
X5470Y8378D01*
X4945Y7578D02*
X4943Y7570D01*
X4938Y7563D01*
X4931Y7559D01*
X4923Y7558D01*
X4915Y7561D01*
X4909Y7566D01*
X4905Y7574D01*
Y7582D01*
X4909Y7590D01*
X4915Y7595D01*
X4923Y7598D01*
X4931Y7597D01*
X4938Y7593D01*
X4943Y7586D01*
X4945Y7578D01*
Y7278D02*
X4943Y7270D01*
X4938Y7263D01*
X4931Y7259D01*
X4923Y7258D01*
X4915Y7261D01*
X4909Y7266D01*
X4905Y7274D01*
Y7282D01*
X4909Y7290D01*
X4915Y7295D01*
X4923Y7298D01*
X4931Y7297D01*
X4938Y7293D01*
X4943Y7286D01*
X4945Y7278D01*
X5070D02*
X5068Y7270D01*
X5063Y7263D01*
X5056Y7259D01*
X5048Y7258D01*
X5040Y7261D01*
X5034Y7266D01*
X5030Y7274D01*
Y7282D01*
X5034Y7290D01*
X5040Y7295D01*
X5048Y7298D01*
X5056Y7297D01*
X5063Y7293D01*
X5068Y7286D01*
X5070Y7278D01*
X5170D02*
X5168Y7270D01*
X5163Y7263D01*
X5156Y7259D01*
X5148Y7258D01*
X5140Y7261D01*
X5134Y7266D01*
X5130Y7274D01*
Y7282D01*
X5134Y7290D01*
X5140Y7295D01*
X5148Y7298D01*
X5156Y7297D01*
X5163Y7293D01*
X5168Y7286D01*
X5170Y7278D01*
X5270D02*
X5268Y7270D01*
X5263Y7263D01*
X5256Y7259D01*
X5248Y7258D01*
X5240Y7261D01*
X5234Y7266D01*
X5230Y7274D01*
Y7282D01*
X5234Y7290D01*
X5240Y7295D01*
X5248Y7298D01*
X5256Y7297D01*
X5263Y7293D01*
X5268Y7286D01*
X5270Y7278D01*
X5370D02*
X5368Y7270D01*
X5363Y7263D01*
X5356Y7259D01*
X5348Y7258D01*
X5340Y7261D01*
X5334Y7266D01*
X5330Y7274D01*
Y7282D01*
X5334Y7290D01*
X5340Y7295D01*
X5348Y7298D01*
X5356Y7297D01*
X5363Y7293D01*
X5368Y7286D01*
X5370Y7278D01*
X5470D02*
X5468Y7270D01*
X5463Y7263D01*
X5456Y7259D01*
X5448Y7258D01*
X5440Y7261D01*
X5434Y7266D01*
X5430Y7274D01*
Y7282D01*
X5434Y7290D01*
X5440Y7295D01*
X5448Y7298D01*
X5456Y7297D01*
X5463Y7293D01*
X5468Y7286D01*
X5470Y7278D01*
X5570D02*
X5568Y7270D01*
X5563Y7263D01*
X5556Y7259D01*
X5548Y7258D01*
X5540Y7261D01*
X5534Y7266D01*
X5530Y7274D01*
Y7282D01*
X5534Y7290D01*
X5540Y7295D01*
X5548Y7298D01*
X5556Y7297D01*
X5563Y7293D01*
X5568Y7286D01*
X5570Y7278D01*
X5670D02*
X5668Y7270D01*
X5663Y7263D01*
X5656Y7259D01*
X5648Y7258D01*
X5640Y7261D01*
X5634Y7266D01*
X5630Y7274D01*
Y7282D01*
X5634Y7290D01*
X5640Y7295D01*
X5648Y7298D01*
X5656Y7297D01*
X5663Y7293D01*
X5668Y7286D01*
X5670Y7278D01*
Y7578D02*
X5668Y7570D01*
X5663Y7563D01*
X5656Y7559D01*
X5648Y7558D01*
X5640Y7561D01*
X5634Y7566D01*
X5630Y7574D01*
Y7582D01*
X5634Y7590D01*
X5640Y7595D01*
X5648Y7598D01*
X5656Y7597D01*
X5663Y7593D01*
X5668Y7586D01*
X5670Y7578D01*
X5570D02*
X5568Y7570D01*
X5563Y7563D01*
X5556Y7559D01*
X5548Y7558D01*
X5540Y7561D01*
X5534Y7566D01*
X5530Y7574D01*
Y7582D01*
X5534Y7590D01*
X5540Y7595D01*
X5548Y7598D01*
X5556Y7597D01*
X5563Y7593D01*
X5568Y7586D01*
X5570Y7578D01*
X5470D02*
X5468Y7570D01*
X5463Y7563D01*
X5456Y7559D01*
X5448Y7558D01*
X5440Y7561D01*
X5434Y7566D01*
X5430Y7574D01*
Y7582D01*
X5434Y7590D01*
X5440Y7595D01*
X5448Y7598D01*
X5456Y7597D01*
X5463Y7593D01*
X5468Y7586D01*
X5470Y7578D01*
X5370D02*
X5368Y7570D01*
X5363Y7563D01*
X5356Y7559D01*
X5348Y7558D01*
X5340Y7561D01*
X5334Y7566D01*
X5330Y7574D01*
Y7582D01*
X5334Y7590D01*
X5340Y7595D01*
X5348Y7598D01*
X5356Y7597D01*
X5363Y7593D01*
X5368Y7586D01*
X5370Y7578D01*
X5270D02*
X5268Y7570D01*
X5263Y7563D01*
X5256Y7559D01*
X5248Y7558D01*
X5240Y7561D01*
X5234Y7566D01*
X5230Y7574D01*
Y7582D01*
X5234Y7590D01*
X5240Y7595D01*
X5248Y7598D01*
X5256Y7597D01*
X5263Y7593D01*
X5268Y7586D01*
X5270Y7578D01*
X5170D02*
X5168Y7570D01*
X5163Y7563D01*
X5156Y7559D01*
X5148Y7558D01*
X5140Y7561D01*
X5134Y7566D01*
X5130Y7574D01*
Y7582D01*
X5134Y7590D01*
X5140Y7595D01*
X5148Y7598D01*
X5156Y7597D01*
X5163Y7593D01*
X5168Y7586D01*
X5170Y7578D01*
X5070D02*
X5068Y7570D01*
X5063Y7563D01*
X5056Y7559D01*
X5048Y7558D01*
X5040Y7561D01*
X5034Y7566D01*
X5030Y7574D01*
Y7582D01*
X5034Y7590D01*
X5040Y7595D01*
X5048Y7598D01*
X5056Y7597D01*
X5063Y7593D01*
X5068Y7586D01*
X5070Y7578D01*
X4845Y8953D02*
X4843Y8945D01*
X4838Y8938D01*
X4831Y8934D01*
X4823Y8933D01*
X4815Y8936D01*
X4809Y8941D01*
X4805Y8949D01*
Y8957D01*
X4809Y8965D01*
X4815Y8970D01*
X4823Y8973D01*
X4831Y8972D01*
X4838Y8968D01*
X4843Y8961D01*
X4845Y8953D01*
Y8653D02*
X4843Y8645D01*
X4838Y8638D01*
X4831Y8634D01*
X4823Y8633D01*
X4815Y8636D01*
X4809Y8641D01*
X4805Y8649D01*
Y8657D01*
X4809Y8665D01*
X4815Y8670D01*
X4823Y8673D01*
X4831Y8672D01*
X4838Y8668D01*
X4843Y8661D01*
X4845Y8653D01*
X5070D02*
X5068Y8645D01*
X5063Y8638D01*
X5056Y8634D01*
X5048Y8633D01*
X5040Y8636D01*
X5034Y8641D01*
X5030Y8649D01*
Y8657D01*
X5034Y8665D01*
X5040Y8670D01*
X5048Y8673D01*
X5056Y8672D01*
X5063Y8668D01*
X5068Y8661D01*
X5070Y8653D01*
X4970Y8953D02*
X4968Y8945D01*
X4963Y8938D01*
X4956Y8934D01*
X4948Y8933D01*
X4940Y8936D01*
X4934Y8941D01*
X4930Y8949D01*
Y8957D01*
X4934Y8965D01*
X4940Y8970D01*
X4948Y8973D01*
X4956Y8972D01*
X4963Y8968D01*
X4968Y8961D01*
X4970Y8953D01*
X5070D02*
X5068Y8945D01*
X5063Y8938D01*
X5056Y8934D01*
X5048Y8933D01*
X5040Y8936D01*
X5034Y8941D01*
X5030Y8949D01*
Y8957D01*
X5034Y8965D01*
X5040Y8970D01*
X5048Y8973D01*
X5056Y8972D01*
X5063Y8968D01*
X5068Y8961D01*
X5070Y8953D01*
X5170D02*
X5168Y8945D01*
X5163Y8938D01*
X5156Y8934D01*
X5148Y8933D01*
X5140Y8936D01*
X5134Y8941D01*
X5130Y8949D01*
Y8957D01*
X5134Y8965D01*
X5140Y8970D01*
X5148Y8973D01*
X5156Y8972D01*
X5163Y8968D01*
X5168Y8961D01*
X5170Y8953D01*
X5270D02*
X5268Y8945D01*
X5263Y8938D01*
X5256Y8934D01*
X5248Y8933D01*
X5240Y8936D01*
X5234Y8941D01*
X5230Y8949D01*
Y8957D01*
X5234Y8965D01*
X5240Y8970D01*
X5248Y8973D01*
X5256Y8972D01*
X5263Y8968D01*
X5268Y8961D01*
X5270Y8953D01*
X5370D02*
X5368Y8945D01*
X5363Y8938D01*
X5356Y8934D01*
X5348Y8933D01*
X5340Y8936D01*
X5334Y8941D01*
X5330Y8949D01*
Y8957D01*
X5334Y8965D01*
X5340Y8970D01*
X5348Y8973D01*
X5356Y8972D01*
X5363Y8968D01*
X5368Y8961D01*
X5370Y8953D01*
X5470D02*
X5468Y8945D01*
X5463Y8938D01*
X5456Y8934D01*
X5448Y8933D01*
X5440Y8936D01*
X5434Y8941D01*
X5430Y8949D01*
Y8957D01*
X5434Y8965D01*
X5440Y8970D01*
X5448Y8973D01*
X5456Y8972D01*
X5463Y8968D01*
X5468Y8961D01*
X5470Y8953D01*
X5570D02*
X5568Y8945D01*
X5563Y8938D01*
X5556Y8934D01*
X5548Y8933D01*
X5540Y8936D01*
X5534Y8941D01*
X5530Y8949D01*
Y8957D01*
X5534Y8965D01*
X5540Y8970D01*
X5548Y8973D01*
X5556Y8972D01*
X5563Y8968D01*
X5568Y8961D01*
X5570Y8953D01*
Y8653D02*
X5568Y8645D01*
X5563Y8638D01*
X5556Y8634D01*
X5548Y8633D01*
X5540Y8636D01*
X5534Y8641D01*
X5530Y8649D01*
Y8657D01*
X5534Y8665D01*
X5540Y8670D01*
X5548Y8673D01*
X5556Y8672D01*
X5563Y8668D01*
X5568Y8661D01*
X5570Y8653D01*
X5470D02*
X5468Y8645D01*
X5463Y8638D01*
X5456Y8634D01*
X5448Y8633D01*
X5440Y8636D01*
X5434Y8641D01*
X5430Y8649D01*
Y8657D01*
X5434Y8665D01*
X5440Y8670D01*
X5448Y8673D01*
X5456Y8672D01*
X5463Y8668D01*
X5468Y8661D01*
X5470Y8653D01*
X5370D02*
X5368Y8645D01*
X5363Y8638D01*
X5356Y8634D01*
X5348Y8633D01*
X5340Y8636D01*
X5334Y8641D01*
X5330Y8649D01*
Y8657D01*
X5334Y8665D01*
X5340Y8670D01*
X5348Y8673D01*
X5356Y8672D01*
X5363Y8668D01*
X5368Y8661D01*
X5370Y8653D01*
X5270D02*
X5268Y8645D01*
X5263Y8638D01*
X5256Y8634D01*
X5248Y8633D01*
X5240Y8636D01*
X5234Y8641D01*
X5230Y8649D01*
Y8657D01*
X5234Y8665D01*
X5240Y8670D01*
X5248Y8673D01*
X5256Y8672D01*
X5263Y8668D01*
X5268Y8661D01*
X5270Y8653D01*
X5170D02*
X5168Y8645D01*
X5163Y8638D01*
X5156Y8634D01*
X5148Y8633D01*
X5140Y8636D01*
X5134Y8641D01*
X5130Y8649D01*
Y8657D01*
X5134Y8665D01*
X5140Y8670D01*
X5148Y8673D01*
X5156Y8672D01*
X5163Y8668D01*
X5168Y8661D01*
X5170Y8653D01*
X4970D02*
X4968Y8645D01*
X4963Y8638D01*
X4956Y8634D01*
X4948Y8633D01*
X4940Y8636D01*
X4934Y8641D01*
X4930Y8649D01*
Y8657D01*
X4934Y8665D01*
X4940Y8670D01*
X4948Y8673D01*
X4956Y8672D01*
X4963Y8668D01*
X4968Y8661D01*
X4970Y8653D01*
X5770Y8953D02*
X5768Y8945D01*
X5763Y8938D01*
X5756Y8934D01*
X5748Y8933D01*
X5740Y8936D01*
X5734Y8941D01*
X5730Y8949D01*
Y8957D01*
X5734Y8965D01*
X5740Y8970D01*
X5748Y8973D01*
X5756Y8972D01*
X5763Y8968D01*
X5768Y8961D01*
X5770Y8953D01*
Y8653D02*
X5768Y8645D01*
X5763Y8638D01*
X5756Y8634D01*
X5748Y8633D01*
X5740Y8636D01*
X5734Y8641D01*
X5730Y8649D01*
Y8657D01*
X5734Y8665D01*
X5740Y8670D01*
X5748Y8673D01*
X5756Y8672D01*
X5763Y8668D01*
X5768Y8661D01*
X5770Y8653D01*
X7465Y6738D02*
X7455Y6728D01*
X7465Y6738D02*
X7475D01*
X7465Y6748D01*
X7475Y6758D01*
X7465D01*
X7455Y6768D01*
X7445Y6758D01*
X7435D01*
X7445Y6748D01*
X7435Y6738D01*
X7445D01*
X7455Y6728D01*
X7355Y6648D02*
Y6608D01*
Y6648D02*
X7395D01*
Y6608D01*
X7355D01*
X6855Y6738D02*
X6845Y6728D01*
X6855Y6738D02*
X6865D01*
X6855Y6748D01*
X6865Y6758D01*
X6855D01*
X6845Y6768D01*
X6835Y6758D01*
X6825D01*
X6835Y6748D01*
X6825Y6738D01*
X6835D01*
X6845Y6728D01*
X6905Y6648D02*
Y6608D01*
Y6648D02*
X6945D01*
Y6608D01*
X6905D01*
X7295Y6878D02*
X7293Y6870D01*
X7288Y6863D01*
X7281Y6859D01*
X7273Y6858D01*
X7265Y6861D01*
X7259Y6866D01*
X7255Y6874D01*
Y6882D01*
X7259Y6890D01*
X7265Y6895D01*
X7273Y6898D01*
X7281Y6897D01*
X7288Y6893D01*
X7293Y6886D01*
X7295Y6878D01*
X7345Y6978D02*
X7343Y6970D01*
X7338Y6963D01*
X7331Y6959D01*
X7323Y6958D01*
X7315Y6961D01*
X7309Y6966D01*
X7305Y6974D01*
Y6982D01*
X7309Y6990D01*
X7315Y6995D01*
X7323Y6998D01*
X7331Y6997D01*
X7338Y6993D01*
X7343Y6986D01*
X7345Y6978D01*
X7245D02*
X7243Y6970D01*
X7238Y6963D01*
X7231Y6959D01*
X7223Y6958D01*
X7215Y6961D01*
X7209Y6966D01*
X7205Y6974D01*
Y6982D01*
X7209Y6990D01*
X7215Y6995D01*
X7223Y6998D01*
X7231Y6997D01*
X7238Y6993D01*
X7243Y6986D01*
X7245Y6978D01*
X7095Y6878D02*
X7093Y6870D01*
X7088Y6863D01*
X7081Y6859D01*
X7073Y6858D01*
X7065Y6861D01*
X7059Y6866D01*
X7055Y6874D01*
Y6882D01*
X7059Y6890D01*
X7065Y6895D01*
X7073Y6898D01*
X7081Y6897D01*
X7088Y6893D01*
X7093Y6886D01*
X7095Y6878D01*
X6995D02*
X6993Y6870D01*
X6988Y6863D01*
X6981Y6859D01*
X6973Y6858D01*
X6965Y6861D01*
X6959Y6866D01*
X6955Y6874D01*
Y6882D01*
X6959Y6890D01*
X6965Y6895D01*
X6973Y6898D01*
X6981Y6897D01*
X6988Y6893D01*
X6993Y6886D01*
X6995Y6878D01*
X7045Y6978D02*
X7043Y6970D01*
X7038Y6963D01*
X7031Y6959D01*
X7023Y6958D01*
X7015Y6961D01*
X7009Y6966D01*
X7005Y6974D01*
Y6982D01*
X7009Y6990D01*
X7015Y6995D01*
X7023Y6998D01*
X7031Y6997D01*
X7038Y6993D01*
X7043Y6986D01*
X7045Y6978D01*
X7195Y6878D02*
X7193Y6870D01*
X7188Y6863D01*
X7181Y6859D01*
X7173Y6858D01*
X7165Y6861D01*
X7159Y6866D01*
X7155Y6874D01*
Y6882D01*
X7159Y6890D01*
X7165Y6895D01*
X7173Y6898D01*
X7181Y6897D01*
X7188Y6893D01*
X7193Y6886D01*
X7195Y6878D01*
X7145Y6978D02*
X7143Y6970D01*
X7138Y6963D01*
X7131Y6959D01*
X7123Y6958D01*
X7115Y6961D01*
X7109Y6966D01*
X7105Y6974D01*
Y6982D01*
X7109Y6990D01*
X7115Y6995D01*
X7123Y6998D01*
X7131Y6997D01*
X7138Y6993D01*
X7143Y6986D01*
X7145Y6978D01*
X6150Y6758D02*
X6130Y6798D01*
X6170D01*
X6150Y6758D01*
X5950Y6858D02*
X5930Y6898D01*
X5970D01*
X5950Y6858D01*
X6330Y6898D02*
X6350Y6858D01*
X6330Y6898D02*
X6370D01*
X6350Y6858D01*
X6430Y6798D02*
X6450Y6758D01*
X6430Y6798D02*
X6470D01*
X6450Y6758D01*
X5850D02*
X5830Y6798D01*
X5870D01*
X5850Y6758D01*
X6230Y6398D02*
X6250Y6358D01*
X6230Y6398D02*
X6270D01*
X6250Y6358D01*
X6050D02*
X6030Y6398D01*
X6070D01*
X6050Y6358D01*
X6620Y6453D02*
X6618Y6445D01*
X6613Y6438D01*
X6606Y6434D01*
X6598Y6433D01*
X6590Y6436D01*
X6584Y6441D01*
X6580Y6449D01*
Y6457D01*
X6584Y6465D01*
X6590Y6470D01*
X6598Y6473D01*
X6606Y6472D01*
X6613Y6468D01*
X6618Y6461D01*
X6620Y6453D01*
X6720D02*
X6718Y6445D01*
X6713Y6438D01*
X6706Y6434D01*
X6698Y6433D01*
X6690Y6436D01*
X6684Y6441D01*
X6680Y6449D01*
Y6457D01*
X6684Y6465D01*
X6690Y6470D01*
X6698Y6473D01*
X6706Y6472D01*
X6713Y6468D01*
X6718Y6461D01*
X6720Y6453D01*
X6970Y7128D02*
X6968Y7120D01*
X6963Y7113D01*
X6956Y7109D01*
X6948Y7108D01*
X6940Y7111D01*
X6934Y7116D01*
X6930Y7124D01*
Y7132D01*
X6934Y7140D01*
X6940Y7145D01*
X6948Y7148D01*
X6956Y7147D01*
X6963Y7143D01*
X6968Y7136D01*
X6970Y7128D01*
X6570D02*
X6568Y7120D01*
X6563Y7113D01*
X6556Y7109D01*
X6548Y7108D01*
X6540Y7111D01*
X6534Y7116D01*
X6530Y7124D01*
Y7132D01*
X6534Y7140D01*
X6540Y7145D01*
X6548Y7148D01*
X6556Y7147D01*
X6563Y7143D01*
X6568Y7136D01*
X6570Y7128D01*
X6370Y7028D02*
X6368Y7020D01*
X6363Y7013D01*
X6356Y7009D01*
X6348Y7008D01*
X6340Y7011D01*
X6334Y7016D01*
X6330Y7024D01*
Y7032D01*
X6334Y7040D01*
X6340Y7045D01*
X6348Y7048D01*
X6356Y7047D01*
X6363Y7043D01*
X6368Y7036D01*
X6370Y7028D01*
X5970D02*
X5968Y7020D01*
X5963Y7013D01*
X5956Y7009D01*
X5948Y7008D01*
X5940Y7011D01*
X5934Y7016D01*
X5930Y7024D01*
Y7032D01*
X5934Y7040D01*
X5940Y7045D01*
X5948Y7048D01*
X5956Y7047D01*
X5963Y7043D01*
X5968Y7036D01*
X5970Y7028D01*
Y7128D02*
X5968Y7120D01*
X5963Y7113D01*
X5956Y7109D01*
X5948Y7108D01*
X5940Y7111D01*
X5934Y7116D01*
X5930Y7124D01*
Y7132D01*
X5934Y7140D01*
X5940Y7145D01*
X5948Y7148D01*
X5956Y7147D01*
X5963Y7143D01*
X5968Y7136D01*
X5970Y7128D01*
X6370D02*
X6368Y7120D01*
X6363Y7113D01*
X6356Y7109D01*
X6348Y7108D01*
X6340Y7111D01*
X6334Y7116D01*
X6330Y7124D01*
Y7132D01*
X6334Y7140D01*
X6340Y7145D01*
X6348Y7148D01*
X6356Y7147D01*
X6363Y7143D01*
X6368Y7136D01*
X6370Y7128D01*
X5795Y7578D02*
X5793Y7570D01*
X5788Y7563D01*
X5781Y7559D01*
X5773Y7558D01*
X5765Y7561D01*
X5759Y7566D01*
X5755Y7574D01*
Y7582D01*
X5759Y7590D01*
X5765Y7595D01*
X5773Y7598D01*
X5781Y7597D01*
X5788Y7593D01*
X5793Y7586D01*
X5795Y7578D01*
Y7278D02*
X5793Y7270D01*
X5788Y7263D01*
X5781Y7259D01*
X5773Y7258D01*
X5765Y7261D01*
X5759Y7266D01*
X5755Y7274D01*
Y7282D01*
X5759Y7290D01*
X5765Y7295D01*
X5773Y7298D01*
X5781Y7297D01*
X5788Y7293D01*
X5793Y7286D01*
X5795Y7278D01*
X5920D02*
X5918Y7270D01*
X5913Y7263D01*
X5906Y7259D01*
X5898Y7258D01*
X5890Y7261D01*
X5884Y7266D01*
X5880Y7274D01*
Y7282D01*
X5884Y7290D01*
X5890Y7295D01*
X5898Y7298D01*
X5906Y7297D01*
X5913Y7293D01*
X5918Y7286D01*
X5920Y7278D01*
X6120D02*
X6118Y7270D01*
X6113Y7263D01*
X6106Y7259D01*
X6098Y7258D01*
X6090Y7261D01*
X6084Y7266D01*
X6080Y7274D01*
Y7282D01*
X6084Y7290D01*
X6090Y7295D01*
X6098Y7298D01*
X6106Y7297D01*
X6113Y7293D01*
X6118Y7286D01*
X6120Y7278D01*
Y7578D02*
X6118Y7570D01*
X6113Y7563D01*
X6106Y7559D01*
X6098Y7558D01*
X6090Y7561D01*
X6084Y7566D01*
X6080Y7574D01*
Y7582D01*
X6084Y7590D01*
X6090Y7595D01*
X6098Y7598D01*
X6106Y7597D01*
X6113Y7593D01*
X6118Y7586D01*
X6120Y7578D01*
X6020D02*
X6018Y7570D01*
X6013Y7563D01*
X6006Y7559D01*
X5998Y7558D01*
X5990Y7561D01*
X5984Y7566D01*
X5980Y7574D01*
Y7582D01*
X5984Y7590D01*
X5990Y7595D01*
X5998Y7598D01*
X6006Y7597D01*
X6013Y7593D01*
X6018Y7586D01*
X6020Y7578D01*
X5920D02*
X5918Y7570D01*
X5913Y7563D01*
X5906Y7559D01*
X5898Y7558D01*
X5890Y7561D01*
X5884Y7566D01*
X5880Y7574D01*
Y7582D01*
X5884Y7590D01*
X5890Y7595D01*
X5898Y7598D01*
X5906Y7597D01*
X5913Y7593D01*
X5918Y7586D01*
X5920Y7578D01*
X6020Y7278D02*
X6018Y7270D01*
X6013Y7263D01*
X6006Y7259D01*
X5998Y7258D01*
X5990Y7261D01*
X5984Y7266D01*
X5980Y7274D01*
Y7282D01*
X5984Y7290D01*
X5990Y7295D01*
X5998Y7298D01*
X6006Y7297D01*
X6013Y7293D01*
X6018Y7286D01*
X6020Y7278D01*
X6245Y7578D02*
X6243Y7570D01*
X6238Y7563D01*
X6231Y7559D01*
X6223Y7558D01*
X6215Y7561D01*
X6209Y7566D01*
X6205Y7574D01*
Y7582D01*
X6209Y7590D01*
X6215Y7595D01*
X6223Y7598D01*
X6231Y7597D01*
X6238Y7593D01*
X6243Y7586D01*
X6245Y7578D01*
Y7278D02*
X6243Y7270D01*
X6238Y7263D01*
X6231Y7259D01*
X6223Y7258D01*
X6215Y7261D01*
X6209Y7266D01*
X6205Y7274D01*
Y7282D01*
X6209Y7290D01*
X6215Y7295D01*
X6223Y7298D01*
X6231Y7297D01*
X6238Y7293D01*
X6243Y7286D01*
X6245Y7278D01*
X6370D02*
X6368Y7270D01*
X6363Y7263D01*
X6356Y7259D01*
X6348Y7258D01*
X6340Y7261D01*
X6334Y7266D01*
X6330Y7274D01*
Y7282D01*
X6334Y7290D01*
X6340Y7295D01*
X6348Y7298D01*
X6356Y7297D01*
X6363Y7293D01*
X6368Y7286D01*
X6370Y7278D01*
X6470D02*
X6468Y7270D01*
X6463Y7263D01*
X6456Y7259D01*
X6448Y7258D01*
X6440Y7261D01*
X6434Y7266D01*
X6430Y7274D01*
Y7282D01*
X6434Y7290D01*
X6440Y7295D01*
X6448Y7298D01*
X6456Y7297D01*
X6463Y7293D01*
X6468Y7286D01*
X6470Y7278D01*
X6570D02*
X6568Y7270D01*
X6563Y7263D01*
X6556Y7259D01*
X6548Y7258D01*
X6540Y7261D01*
X6534Y7266D01*
X6530Y7274D01*
Y7282D01*
X6534Y7290D01*
X6540Y7295D01*
X6548Y7298D01*
X6556Y7297D01*
X6563Y7293D01*
X6568Y7286D01*
X6570Y7278D01*
X6670D02*
X6668Y7270D01*
X6663Y7263D01*
X6656Y7259D01*
X6648Y7258D01*
X6640Y7261D01*
X6634Y7266D01*
X6630Y7274D01*
Y7282D01*
X6634Y7290D01*
X6640Y7295D01*
X6648Y7298D01*
X6656Y7297D01*
X6663Y7293D01*
X6668Y7286D01*
X6670Y7278D01*
X6770D02*
X6768Y7270D01*
X6763Y7263D01*
X6756Y7259D01*
X6748Y7258D01*
X6740Y7261D01*
X6734Y7266D01*
X6730Y7274D01*
Y7282D01*
X6734Y7290D01*
X6740Y7295D01*
X6748Y7298D01*
X6756Y7297D01*
X6763Y7293D01*
X6768Y7286D01*
X6770Y7278D01*
X6870D02*
X6868Y7270D01*
X6863Y7263D01*
X6856Y7259D01*
X6848Y7258D01*
X6840Y7261D01*
X6834Y7266D01*
X6830Y7274D01*
Y7282D01*
X6834Y7290D01*
X6840Y7295D01*
X6848Y7298D01*
X6856Y7297D01*
X6863Y7293D01*
X6868Y7286D01*
X6870Y7278D01*
X6970D02*
X6968Y7270D01*
X6963Y7263D01*
X6956Y7259D01*
X6948Y7258D01*
X6940Y7261D01*
X6934Y7266D01*
X6930Y7274D01*
Y7282D01*
X6934Y7290D01*
X6940Y7295D01*
X6948Y7298D01*
X6956Y7297D01*
X6963Y7293D01*
X6968Y7286D01*
X6970Y7278D01*
Y7578D02*
X6968Y7570D01*
X6963Y7563D01*
X6956Y7559D01*
X6948Y7558D01*
X6940Y7561D01*
X6934Y7566D01*
X6930Y7574D01*
Y7582D01*
X6934Y7590D01*
X6940Y7595D01*
X6948Y7598D01*
X6956Y7597D01*
X6963Y7593D01*
X6968Y7586D01*
X6970Y7578D01*
X6870D02*
X6868Y7570D01*
X6863Y7563D01*
X6856Y7559D01*
X6848Y7558D01*
X6840Y7561D01*
X6834Y7566D01*
X6830Y7574D01*
Y7582D01*
X6834Y7590D01*
X6840Y7595D01*
X6848Y7598D01*
X6856Y7597D01*
X6863Y7593D01*
X6868Y7586D01*
X6870Y7578D01*
X6770D02*
X6768Y7570D01*
X6763Y7563D01*
X6756Y7559D01*
X6748Y7558D01*
X6740Y7561D01*
X6734Y7566D01*
X6730Y7574D01*
Y7582D01*
X6734Y7590D01*
X6740Y7595D01*
X6748Y7598D01*
X6756Y7597D01*
X6763Y7593D01*
X6768Y7586D01*
X6770Y7578D01*
X6670D02*
X6668Y7570D01*
X6663Y7563D01*
X6656Y7559D01*
X6648Y7558D01*
X6640Y7561D01*
X6634Y7566D01*
X6630Y7574D01*
Y7582D01*
X6634Y7590D01*
X6640Y7595D01*
X6648Y7598D01*
X6656Y7597D01*
X6663Y7593D01*
X6668Y7586D01*
X6670Y7578D01*
X6570D02*
X6568Y7570D01*
X6563Y7563D01*
X6556Y7559D01*
X6548Y7558D01*
X6540Y7561D01*
X6534Y7566D01*
X6530Y7574D01*
Y7582D01*
X6534Y7590D01*
X6540Y7595D01*
X6548Y7598D01*
X6556Y7597D01*
X6563Y7593D01*
X6568Y7586D01*
X6570Y7578D01*
X6470D02*
X6468Y7570D01*
X6463Y7563D01*
X6456Y7559D01*
X6448Y7558D01*
X6440Y7561D01*
X6434Y7566D01*
X6430Y7574D01*
Y7582D01*
X6434Y7590D01*
X6440Y7595D01*
X6448Y7598D01*
X6456Y7597D01*
X6463Y7593D01*
X6468Y7586D01*
X6470Y7578D01*
X6370D02*
X6368Y7570D01*
X6363Y7563D01*
X6356Y7559D01*
X6348Y7558D01*
X6340Y7561D01*
X6334Y7566D01*
X6330Y7574D01*
Y7582D01*
X6334Y7590D01*
X6340Y7595D01*
X6348Y7598D01*
X6356Y7597D01*
X6363Y7593D01*
X6368Y7586D01*
X6370Y7578D01*
X6970Y7678D02*
X6968Y7670D01*
X6963Y7663D01*
X6956Y7659D01*
X6948Y7658D01*
X6940Y7661D01*
X6934Y7666D01*
X6930Y7674D01*
Y7682D01*
X6934Y7690D01*
X6940Y7695D01*
X6948Y7698D01*
X6956Y7697D01*
X6963Y7693D01*
X6968Y7686D01*
X6970Y7678D01*
X7070D02*
X7068Y7670D01*
X7063Y7663D01*
X7056Y7659D01*
X7048Y7658D01*
X7040Y7661D01*
X7034Y7666D01*
X7030Y7674D01*
Y7682D01*
X7034Y7690D01*
X7040Y7695D01*
X7048Y7698D01*
X7056Y7697D01*
X7063Y7693D01*
X7068Y7686D01*
X7070Y7678D01*
X6620Y6553D02*
X6618Y6545D01*
X6613Y6538D01*
X6606Y6534D01*
X6598Y6533D01*
X6590Y6536D01*
X6584Y6541D01*
X6580Y6549D01*
Y6557D01*
X6584Y6565D01*
X6590Y6570D01*
X6598Y6573D01*
X6606Y6572D01*
X6613Y6568D01*
X6618Y6561D01*
X6620Y6553D01*
Y6953D02*
X6618Y6945D01*
X6613Y6938D01*
X6606Y6934D01*
X6598Y6933D01*
X6590Y6936D01*
X6584Y6941D01*
X6580Y6949D01*
Y6957D01*
X6584Y6965D01*
X6590Y6970D01*
X6598Y6973D01*
X6606Y6972D01*
X6613Y6968D01*
X6618Y6961D01*
X6620Y6953D01*
X6745Y6553D02*
X6743Y6545D01*
X6738Y6538D01*
X6731Y6534D01*
X6723Y6533D01*
X6715Y6536D01*
X6709Y6541D01*
X6705Y6549D01*
Y6557D01*
X6709Y6565D01*
X6715Y6570D01*
X6723Y6573D01*
X6731Y6572D01*
X6738Y6568D01*
X6743Y6561D01*
X6745Y6553D01*
Y6953D02*
X6743Y6945D01*
X6738Y6938D01*
X6731Y6934D01*
X6723Y6933D01*
X6715Y6936D01*
X6709Y6941D01*
X6705Y6949D01*
Y6957D01*
X6709Y6965D01*
X6715Y6970D01*
X6723Y6973D01*
X6731Y6972D01*
X6738Y6968D01*
X6743Y6961D01*
X6745Y6953D01*
X6795Y8953D02*
X6793Y8945D01*
X6788Y8938D01*
X6781Y8934D01*
X6773Y8933D01*
X6765Y8936D01*
X6759Y8941D01*
X6755Y8949D01*
Y8957D01*
X6759Y8965D01*
X6765Y8970D01*
X6773Y8973D01*
X6781Y8972D01*
X6788Y8968D01*
X6793Y8961D01*
X6795Y8953D01*
Y8653D02*
X6793Y8645D01*
X6788Y8638D01*
X6781Y8634D01*
X6773Y8633D01*
X6765Y8636D01*
X6759Y8641D01*
X6755Y8649D01*
Y8657D01*
X6759Y8665D01*
X6765Y8670D01*
X6773Y8673D01*
X6781Y8672D01*
X6788Y8668D01*
X6793Y8661D01*
X6795Y8653D01*
X6920D02*
X6918Y8645D01*
X6913Y8638D01*
X6906Y8634D01*
X6898Y8633D01*
X6890Y8636D01*
X6884Y8641D01*
X6880Y8649D01*
Y8657D01*
X6884Y8665D01*
X6890Y8670D01*
X6898Y8673D01*
X6906Y8672D01*
X6913Y8668D01*
X6918Y8661D01*
X6920Y8653D01*
X7020D02*
X7018Y8645D01*
X7013Y8638D01*
X7006Y8634D01*
X6998Y8633D01*
X6990Y8636D01*
X6984Y8641D01*
X6980Y8649D01*
Y8657D01*
X6984Y8665D01*
X6990Y8670D01*
X6998Y8673D01*
X7006Y8672D01*
X7013Y8668D01*
X7018Y8661D01*
X7020Y8653D01*
X7120D02*
X7118Y8645D01*
X7113Y8638D01*
X7106Y8634D01*
X7098Y8633D01*
X7090Y8636D01*
X7084Y8641D01*
X7080Y8649D01*
Y8657D01*
X7084Y8665D01*
X7090Y8670D01*
X7098Y8673D01*
X7106Y8672D01*
X7113Y8668D01*
X7118Y8661D01*
X7120Y8653D01*
X7220D02*
X7218Y8645D01*
X7213Y8638D01*
X7206Y8634D01*
X7198Y8633D01*
X7190Y8636D01*
X7184Y8641D01*
X7180Y8649D01*
Y8657D01*
X7184Y8665D01*
X7190Y8670D01*
X7198Y8673D01*
X7206Y8672D01*
X7213Y8668D01*
X7218Y8661D01*
X7220Y8653D01*
X7320D02*
X7318Y8645D01*
X7313Y8638D01*
X7306Y8634D01*
X7298Y8633D01*
X7290Y8636D01*
X7284Y8641D01*
X7280Y8649D01*
Y8657D01*
X7284Y8665D01*
X7290Y8670D01*
X7298Y8673D01*
X7306Y8672D01*
X7313Y8668D01*
X7318Y8661D01*
X7320Y8653D01*
X7420D02*
X7418Y8645D01*
X7413Y8638D01*
X7406Y8634D01*
X7398Y8633D01*
X7390Y8636D01*
X7384Y8641D01*
X7380Y8649D01*
Y8657D01*
X7384Y8665D01*
X7390Y8670D01*
X7398Y8673D01*
X7406Y8672D01*
X7413Y8668D01*
X7418Y8661D01*
X7420Y8653D01*
X7520D02*
X7518Y8645D01*
X7513Y8638D01*
X7506Y8634D01*
X7498Y8633D01*
X7490Y8636D01*
X7484Y8641D01*
X7480Y8649D01*
Y8657D01*
X7484Y8665D01*
X7490Y8670D01*
X7498Y8673D01*
X7506Y8672D01*
X7513Y8668D01*
X7518Y8661D01*
X7520Y8653D01*
X7620D02*
X7618Y8645D01*
X7613Y8638D01*
X7606Y8634D01*
X7598Y8633D01*
X7590Y8636D01*
X7584Y8641D01*
X7580Y8649D01*
Y8657D01*
X7584Y8665D01*
X7590Y8670D01*
X7598Y8673D01*
X7606Y8672D01*
X7613Y8668D01*
X7618Y8661D01*
X7620Y8653D01*
Y8953D02*
X7618Y8945D01*
X7613Y8938D01*
X7606Y8934D01*
X7598Y8933D01*
X7590Y8936D01*
X7584Y8941D01*
X7580Y8949D01*
Y8957D01*
X7584Y8965D01*
X7590Y8970D01*
X7598Y8973D01*
X7606Y8972D01*
X7613Y8968D01*
X7618Y8961D01*
X7620Y8953D01*
X7520D02*
X7518Y8945D01*
X7513Y8938D01*
X7506Y8934D01*
X7498Y8933D01*
X7490Y8936D01*
X7484Y8941D01*
X7480Y8949D01*
Y8957D01*
X7484Y8965D01*
X7490Y8970D01*
X7498Y8973D01*
X7506Y8972D01*
X7513Y8968D01*
X7518Y8961D01*
X7520Y8953D01*
X7420D02*
X7418Y8945D01*
X7413Y8938D01*
X7406Y8934D01*
X7398Y8933D01*
X7390Y8936D01*
X7384Y8941D01*
X7380Y8949D01*
Y8957D01*
X7384Y8965D01*
X7390Y8970D01*
X7398Y8973D01*
X7406Y8972D01*
X7413Y8968D01*
X7418Y8961D01*
X7420Y8953D01*
X7320D02*
X7318Y8945D01*
X7313Y8938D01*
X7306Y8934D01*
X7298Y8933D01*
X7290Y8936D01*
X7284Y8941D01*
X7280Y8949D01*
Y8957D01*
X7284Y8965D01*
X7290Y8970D01*
X7298Y8973D01*
X7306Y8972D01*
X7313Y8968D01*
X7318Y8961D01*
X7320Y8953D01*
X7220D02*
X7218Y8945D01*
X7213Y8938D01*
X7206Y8934D01*
X7198Y8933D01*
X7190Y8936D01*
X7184Y8941D01*
X7180Y8949D01*
Y8957D01*
X7184Y8965D01*
X7190Y8970D01*
X7198Y8973D01*
X7206Y8972D01*
X7213Y8968D01*
X7218Y8961D01*
X7220Y8953D01*
X7120D02*
X7118Y8945D01*
X7113Y8938D01*
X7106Y8934D01*
X7098Y8933D01*
X7090Y8936D01*
X7084Y8941D01*
X7080Y8949D01*
Y8957D01*
X7084Y8965D01*
X7090Y8970D01*
X7098Y8973D01*
X7106Y8972D01*
X7113Y8968D01*
X7118Y8961D01*
X7120Y8953D01*
X7020D02*
X7018Y8945D01*
X7013Y8938D01*
X7006Y8934D01*
X6998Y8933D01*
X6990Y8936D01*
X6984Y8941D01*
X6980Y8949D01*
Y8957D01*
X6984Y8965D01*
X6990Y8970D01*
X6998Y8973D01*
X7006Y8972D01*
X7013Y8968D01*
X7018Y8961D01*
X7020Y8953D01*
X6920D02*
X6918Y8945D01*
X6913Y8938D01*
X6906Y8934D01*
X6898Y8933D01*
X6890Y8936D01*
X6884Y8941D01*
X6880Y8949D01*
Y8957D01*
X6884Y8965D01*
X6890Y8970D01*
X6898Y8973D01*
X6906Y8972D01*
X6913Y8968D01*
X6918Y8961D01*
X6920Y8953D01*
X5970Y8653D02*
X5968Y8645D01*
X5963Y8638D01*
X5956Y8634D01*
X5948Y8633D01*
X5940Y8636D01*
X5934Y8641D01*
X5930Y8649D01*
Y8657D01*
X5934Y8665D01*
X5940Y8670D01*
X5948Y8673D01*
X5956Y8672D01*
X5963Y8668D01*
X5968Y8661D01*
X5970Y8653D01*
X6070D02*
X6068Y8645D01*
X6063Y8638D01*
X6056Y8634D01*
X6048Y8633D01*
X6040Y8636D01*
X6034Y8641D01*
X6030Y8649D01*
Y8657D01*
X6034Y8665D01*
X6040Y8670D01*
X6048Y8673D01*
X6056Y8672D01*
X6063Y8668D01*
X6068Y8661D01*
X6070Y8653D01*
X6370D02*
X6368Y8645D01*
X6363Y8638D01*
X6356Y8634D01*
X6348Y8633D01*
X6340Y8636D01*
X6334Y8641D01*
X6330Y8649D01*
Y8657D01*
X6334Y8665D01*
X6340Y8670D01*
X6348Y8673D01*
X6356Y8672D01*
X6363Y8668D01*
X6368Y8661D01*
X6370Y8653D01*
X6470D02*
X6468Y8645D01*
X6463Y8638D01*
X6456Y8634D01*
X6448Y8633D01*
X6440Y8636D01*
X6434Y8641D01*
X6430Y8649D01*
Y8657D01*
X6434Y8665D01*
X6440Y8670D01*
X6448Y8673D01*
X6456Y8672D01*
X6463Y8668D01*
X6468Y8661D01*
X6470Y8653D01*
X6570D02*
X6568Y8645D01*
X6563Y8638D01*
X6556Y8634D01*
X6548Y8633D01*
X6540Y8636D01*
X6534Y8641D01*
X6530Y8649D01*
Y8657D01*
X6534Y8665D01*
X6540Y8670D01*
X6548Y8673D01*
X6556Y8672D01*
X6563Y8668D01*
X6568Y8661D01*
X6570Y8653D01*
X6670D02*
X6668Y8645D01*
X6663Y8638D01*
X6656Y8634D01*
X6648Y8633D01*
X6640Y8636D01*
X6634Y8641D01*
X6630Y8649D01*
Y8657D01*
X6634Y8665D01*
X6640Y8670D01*
X6648Y8673D01*
X6656Y8672D01*
X6663Y8668D01*
X6668Y8661D01*
X6670Y8653D01*
Y8953D02*
X6668Y8945D01*
X6663Y8938D01*
X6656Y8934D01*
X6648Y8933D01*
X6640Y8936D01*
X6634Y8941D01*
X6630Y8949D01*
Y8957D01*
X6634Y8965D01*
X6640Y8970D01*
X6648Y8973D01*
X6656Y8972D01*
X6663Y8968D01*
X6668Y8961D01*
X6670Y8953D01*
X6570D02*
X6568Y8945D01*
X6563Y8938D01*
X6556Y8934D01*
X6548Y8933D01*
X6540Y8936D01*
X6534Y8941D01*
X6530Y8949D01*
Y8957D01*
X6534Y8965D01*
X6540Y8970D01*
X6548Y8973D01*
X6556Y8972D01*
X6563Y8968D01*
X6568Y8961D01*
X6570Y8953D01*
X6470D02*
X6468Y8945D01*
X6463Y8938D01*
X6456Y8934D01*
X6448Y8933D01*
X6440Y8936D01*
X6434Y8941D01*
X6430Y8949D01*
Y8957D01*
X6434Y8965D01*
X6440Y8970D01*
X6448Y8973D01*
X6456Y8972D01*
X6463Y8968D01*
X6468Y8961D01*
X6470Y8953D01*
X6370D02*
X6368Y8945D01*
X6363Y8938D01*
X6356Y8934D01*
X6348Y8933D01*
X6340Y8936D01*
X6334Y8941D01*
X6330Y8949D01*
Y8957D01*
X6334Y8965D01*
X6340Y8970D01*
X6348Y8973D01*
X6356Y8972D01*
X6363Y8968D01*
X6368Y8961D01*
X6370Y8953D01*
X6270D02*
X6268Y8945D01*
X6263Y8938D01*
X6256Y8934D01*
X6248Y8933D01*
X6240Y8936D01*
X6234Y8941D01*
X6230Y8949D01*
Y8957D01*
X6234Y8965D01*
X6240Y8970D01*
X6248Y8973D01*
X6256Y8972D01*
X6263Y8968D01*
X6268Y8961D01*
X6270Y8953D01*
X6170D02*
X6168Y8945D01*
X6163Y8938D01*
X6156Y8934D01*
X6148Y8933D01*
X6140Y8936D01*
X6134Y8941D01*
X6130Y8949D01*
Y8957D01*
X6134Y8965D01*
X6140Y8970D01*
X6148Y8973D01*
X6156Y8972D01*
X6163Y8968D01*
X6168Y8961D01*
X6170Y8953D01*
X6070D02*
X6068Y8945D01*
X6063Y8938D01*
X6056Y8934D01*
X6048Y8933D01*
X6040Y8936D01*
X6034Y8941D01*
X6030Y8949D01*
Y8957D01*
X6034Y8965D01*
X6040Y8970D01*
X6048Y8973D01*
X6056Y8972D01*
X6063Y8968D01*
X6068Y8961D01*
X6070Y8953D01*
X5970D02*
X5968Y8945D01*
X5963Y8938D01*
X5956Y8934D01*
X5948Y8933D01*
X5940Y8936D01*
X5934Y8941D01*
X5930Y8949D01*
Y8957D01*
X5934Y8965D01*
X5940Y8970D01*
X5948Y8973D01*
X5956Y8972D01*
X5963Y8968D01*
X5968Y8961D01*
X5970Y8953D01*
X6170Y8653D02*
X6168Y8645D01*
X6163Y8638D01*
X6156Y8634D01*
X6148Y8633D01*
X6140Y8636D01*
X6134Y8641D01*
X6130Y8649D01*
Y8657D01*
X6134Y8665D01*
X6140Y8670D01*
X6148Y8673D01*
X6156Y8672D01*
X6163Y8668D01*
X6168Y8661D01*
X6170Y8653D01*
X6270D02*
X6268Y8645D01*
X6263Y8638D01*
X6256Y8634D01*
X6248Y8633D01*
X6240Y8636D01*
X6234Y8641D01*
X6230Y8649D01*
Y8657D01*
X6234Y8665D01*
X6240Y8670D01*
X6248Y8673D01*
X6256Y8672D01*
X6263Y8668D01*
X6268Y8661D01*
X6270Y8653D01*
X8570Y7053D02*
X8568Y7045D01*
X8563Y7038D01*
X8556Y7034D01*
X8548Y7033D01*
X8540Y7036D01*
X8534Y7041D01*
X8530Y7049D01*
Y7057D01*
X8534Y7065D01*
X8540Y7070D01*
X8548Y7073D01*
X8556Y7072D01*
X8563Y7068D01*
X8568Y7061D01*
X8570Y7053D01*
Y6653D02*
X8568Y6645D01*
X8563Y6638D01*
X8556Y6634D01*
X8548Y6633D01*
X8540Y6636D01*
X8534Y6641D01*
X8530Y6649D01*
Y6657D01*
X8534Y6665D01*
X8540Y6670D01*
X8548Y6673D01*
X8556Y6672D01*
X8563Y6668D01*
X8568Y6661D01*
X8570Y6653D01*
X7745Y6528D02*
X7743Y6520D01*
X7738Y6513D01*
X7731Y6509D01*
X7723Y6508D01*
X7715Y6511D01*
X7709Y6516D01*
X7705Y6524D01*
Y6532D01*
X7709Y6540D01*
X7715Y6545D01*
X7723Y6548D01*
X7731Y6547D01*
X7738Y6543D01*
X7743Y6536D01*
X7745Y6528D01*
X7645D02*
X7643Y6520D01*
X7638Y6513D01*
X7631Y6509D01*
X7623Y6508D01*
X7615Y6511D01*
X7609Y6516D01*
X7605Y6524D01*
Y6532D01*
X7609Y6540D01*
X7615Y6545D01*
X7623Y6548D01*
X7631Y6547D01*
X7638Y6543D01*
X7643Y6536D01*
X7645Y6528D01*
X7980Y6608D02*
X7990Y6628D01*
X7980Y6648D01*
X8000Y6638D01*
X8020Y6648D01*
X8010Y6628D01*
X8020Y6608D01*
X8000Y6618D01*
X7980Y6608D01*
X8280D02*
X8290Y6628D01*
X8280Y6648D01*
X8300Y6638D01*
X8320Y6648D01*
X8310Y6628D01*
X8320Y6608D01*
X8300Y6618D01*
X8280Y6608D01*
X8400Y7008D02*
X8410Y7018D01*
X8420D01*
X8410Y7028D01*
X8420Y7038D01*
X8410D01*
X8400Y7048D01*
X8390Y7038D01*
X8380D01*
X8390Y7028D01*
X8380Y7018D01*
X8390D01*
X8400Y7008D01*
X8310Y6818D02*
X8300Y6808D01*
X8310Y6818D02*
X8320D01*
X8310Y6828D01*
X8320Y6838D01*
X8310D01*
X8300Y6848D01*
X8290Y6838D01*
X8280D01*
X8290Y6828D01*
X8280Y6818D01*
X8290D01*
X8300Y6808D01*
X8130Y7108D02*
X8140Y7128D01*
X8130Y7148D01*
X8150Y7138D01*
X8170Y7148D01*
X8160Y7128D01*
X8170Y7108D01*
X8150Y7118D01*
X8130Y7108D01*
X8160Y6518D02*
X8150Y6508D01*
X8160Y6518D02*
X8170D01*
X8160Y6528D01*
X8170Y6538D01*
X8160D01*
X8150Y6548D01*
X8140Y6538D01*
X8130D01*
X8140Y6528D01*
X8130Y6518D01*
X8140D01*
X8150Y6508D01*
X8770Y6653D02*
X8768Y6645D01*
X8763Y6638D01*
X8756Y6634D01*
X8748Y6633D01*
X8740Y6636D01*
X8734Y6641D01*
X8730Y6649D01*
Y6657D01*
X8734Y6665D01*
X8740Y6670D01*
X8748Y6673D01*
X8756Y6672D01*
X8763Y6668D01*
X8768Y6661D01*
X8770Y6653D01*
Y7053D02*
X8768Y7045D01*
X8763Y7038D01*
X8756Y7034D01*
X8748Y7033D01*
X8740Y7036D01*
X8734Y7041D01*
X8730Y7049D01*
Y7057D01*
X8734Y7065D01*
X8740Y7070D01*
X8748Y7073D01*
X8756Y7072D01*
X8763Y7068D01*
X8768Y7061D01*
X8770Y7053D01*
X8670Y6653D02*
X8668Y6645D01*
X8663Y6638D01*
X8656Y6634D01*
X8648Y6633D01*
X8640Y6636D01*
X8634Y6641D01*
X8630Y6649D01*
Y6657D01*
X8634Y6665D01*
X8640Y6670D01*
X8648Y6673D01*
X8656Y6672D01*
X8663Y6668D01*
X8668Y6661D01*
X8670Y6653D01*
Y7053D02*
X8668Y7045D01*
X8663Y7038D01*
X8656Y7034D01*
X8648Y7033D01*
X8640Y7036D01*
X8634Y7041D01*
X8630Y7049D01*
Y7057D01*
X8634Y7065D01*
X8640Y7070D01*
X8648Y7073D01*
X8656Y7072D01*
X8663Y7068D01*
X8668Y7061D01*
X8670Y7053D01*
X8695Y8028D02*
X8693Y8020D01*
X8688Y8013D01*
X8681Y8009D01*
X8673Y8008D01*
X8665Y8011D01*
X8659Y8016D01*
X8655Y8024D01*
Y8032D01*
X8659Y8040D01*
X8665Y8045D01*
X8673Y8048D01*
X8681Y8047D01*
X8688Y8043D01*
X8693Y8036D01*
X8695Y8028D01*
X8795D02*
X8793Y8020D01*
X8788Y8013D01*
X8781Y8009D01*
X8773Y8008D01*
X8765Y8011D01*
X8759Y8016D01*
X8755Y8024D01*
Y8032D01*
X8759Y8040D01*
X8765Y8045D01*
X8773Y8048D01*
X8781Y8047D01*
X8788Y8043D01*
X8793Y8036D01*
X8795Y8028D01*
X8895D02*
X8893Y8020D01*
X8888Y8013D01*
X8881Y8009D01*
X8873Y8008D01*
X8865Y8011D01*
X8859Y8016D01*
X8855Y8024D01*
Y8032D01*
X8859Y8040D01*
X8865Y8045D01*
X8873Y8048D01*
X8881Y8047D01*
X8888Y8043D01*
X8893Y8036D01*
X8895Y8028D01*
X8995D02*
X8993Y8020D01*
X8988Y8013D01*
X8981Y8009D01*
X8973Y8008D01*
X8965Y8011D01*
X8959Y8016D01*
X8955Y8024D01*
Y8032D01*
X8959Y8040D01*
X8965Y8045D01*
X8973Y8048D01*
X8981Y8047D01*
X8988Y8043D01*
X8993Y8036D01*
X8995Y8028D01*
X9095D02*
X9093Y8020D01*
X9088Y8013D01*
X9081Y8009D01*
X9073Y8008D01*
X9065Y8011D01*
X9059Y8016D01*
X9055Y8024D01*
Y8032D01*
X9059Y8040D01*
X9065Y8045D01*
X9073Y8048D01*
X9081Y8047D01*
X9088Y8043D01*
X9093Y8036D01*
X9095Y8028D01*
X9195D02*
X9193Y8020D01*
X9188Y8013D01*
X9181Y8009D01*
X9173Y8008D01*
X9165Y8011D01*
X9159Y8016D01*
X9155Y8024D01*
Y8032D01*
X9159Y8040D01*
X9165Y8045D01*
X9173Y8048D01*
X9181Y8047D01*
X9188Y8043D01*
X9193Y8036D01*
X9195Y8028D01*
X9295D02*
X9293Y8020D01*
X9288Y8013D01*
X9281Y8009D01*
X9273Y8008D01*
X9265Y8011D01*
X9259Y8016D01*
X9255Y8024D01*
Y8032D01*
X9259Y8040D01*
X9265Y8045D01*
X9273Y8048D01*
X9281Y8047D01*
X9288Y8043D01*
X9293Y8036D01*
X9295Y8028D01*
X9395D02*
X9393Y8020D01*
X9388Y8013D01*
X9381Y8009D01*
X9373Y8008D01*
X9365Y8011D01*
X9359Y8016D01*
X9355Y8024D01*
Y8032D01*
X9359Y8040D01*
X9365Y8045D01*
X9373Y8048D01*
X9381Y8047D01*
X9388Y8043D01*
X9393Y8036D01*
X9395Y8028D01*
X9495D02*
X9493Y8020D01*
X9488Y8013D01*
X9481Y8009D01*
X9473Y8008D01*
X9465Y8011D01*
X9459Y8016D01*
X9455Y8024D01*
Y8032D01*
X9459Y8040D01*
X9465Y8045D01*
X9473Y8048D01*
X9481Y8047D01*
X9488Y8043D01*
X9493Y8036D01*
X9495Y8028D01*
X9595D02*
X9593Y8020D01*
X9588Y8013D01*
X9581Y8009D01*
X9573Y8008D01*
X9565Y8011D01*
X9559Y8016D01*
X9555Y8024D01*
Y8032D01*
X9559Y8040D01*
X9565Y8045D01*
X9573Y8048D01*
X9581Y8047D01*
X9588Y8043D01*
X9593Y8036D01*
X9595Y8028D01*
Y8328D02*
X9593Y8320D01*
X9588Y8313D01*
X9581Y8309D01*
X9573Y8308D01*
X9565Y8311D01*
X9559Y8316D01*
X9555Y8324D01*
Y8332D01*
X9559Y8340D01*
X9565Y8345D01*
X9573Y8348D01*
X9581Y8347D01*
X9588Y8343D01*
X9593Y8336D01*
X9595Y8328D01*
X9495D02*
X9493Y8320D01*
X9488Y8313D01*
X9481Y8309D01*
X9473Y8308D01*
X9465Y8311D01*
X9459Y8316D01*
X9455Y8324D01*
Y8332D01*
X9459Y8340D01*
X9465Y8345D01*
X9473Y8348D01*
X9481Y8347D01*
X9488Y8343D01*
X9493Y8336D01*
X9495Y8328D01*
X9395D02*
X9393Y8320D01*
X9388Y8313D01*
X9381Y8309D01*
X9373Y8308D01*
X9365Y8311D01*
X9359Y8316D01*
X9355Y8324D01*
Y8332D01*
X9359Y8340D01*
X9365Y8345D01*
X9373Y8348D01*
X9381Y8347D01*
X9388Y8343D01*
X9393Y8336D01*
X9395Y8328D01*
X9295D02*
X9293Y8320D01*
X9288Y8313D01*
X9281Y8309D01*
X9273Y8308D01*
X9265Y8311D01*
X9259Y8316D01*
X9255Y8324D01*
Y8332D01*
X9259Y8340D01*
X9265Y8345D01*
X9273Y8348D01*
X9281Y8347D01*
X9288Y8343D01*
X9293Y8336D01*
X9295Y8328D01*
X9195D02*
X9193Y8320D01*
X9188Y8313D01*
X9181Y8309D01*
X9173Y8308D01*
X9165Y8311D01*
X9159Y8316D01*
X9155Y8324D01*
Y8332D01*
X9159Y8340D01*
X9165Y8345D01*
X9173Y8348D01*
X9181Y8347D01*
X9188Y8343D01*
X9193Y8336D01*
X9195Y8328D01*
X9095D02*
X9093Y8320D01*
X9088Y8313D01*
X9081Y8309D01*
X9073Y8308D01*
X9065Y8311D01*
X9059Y8316D01*
X9055Y8324D01*
Y8332D01*
X9059Y8340D01*
X9065Y8345D01*
X9073Y8348D01*
X9081Y8347D01*
X9088Y8343D01*
X9093Y8336D01*
X9095Y8328D01*
X8995D02*
X8993Y8320D01*
X8988Y8313D01*
X8981Y8309D01*
X8973Y8308D01*
X8965Y8311D01*
X8959Y8316D01*
X8955Y8324D01*
Y8332D01*
X8959Y8340D01*
X8965Y8345D01*
X8973Y8348D01*
X8981Y8347D01*
X8988Y8343D01*
X8993Y8336D01*
X8995Y8328D01*
X8895D02*
X8893Y8320D01*
X8888Y8313D01*
X8881Y8309D01*
X8873Y8308D01*
X8865Y8311D01*
X8859Y8316D01*
X8855Y8324D01*
Y8332D01*
X8859Y8340D01*
X8865Y8345D01*
X8873Y8348D01*
X8881Y8347D01*
X8888Y8343D01*
X8893Y8336D01*
X8895Y8328D01*
X8795D02*
X8793Y8320D01*
X8788Y8313D01*
X8781Y8309D01*
X8773Y8308D01*
X8765Y8311D01*
X8759Y8316D01*
X8755Y8324D01*
Y8332D01*
X8759Y8340D01*
X8765Y8345D01*
X8773Y8348D01*
X8781Y8347D01*
X8788Y8343D01*
X8793Y8336D01*
X8795Y8328D01*
X8695D02*
X8693Y8320D01*
X8688Y8313D01*
X8681Y8309D01*
X8673Y8308D01*
X8665Y8311D01*
X8659Y8316D01*
X8655Y8324D01*
Y8332D01*
X8659Y8340D01*
X8665Y8345D01*
X8673Y8348D01*
X8681Y8347D01*
X8688Y8343D01*
X8693Y8336D01*
X8695Y8328D01*
X8595D02*
X8593Y8320D01*
X8588Y8313D01*
X8581Y8309D01*
X8573Y8308D01*
X8565Y8311D01*
X8559Y8316D01*
X8555Y8324D01*
Y8332D01*
X8559Y8340D01*
X8565Y8345D01*
X8573Y8348D01*
X8581Y8347D01*
X8588Y8343D01*
X8593Y8336D01*
X8595Y8328D01*
Y8028D02*
X8593Y8020D01*
X8588Y8013D01*
X8581Y8009D01*
X8573Y8008D01*
X8565Y8011D01*
X8559Y8016D01*
X8555Y8024D01*
Y8032D01*
X8559Y8040D01*
X8565Y8045D01*
X8573Y8048D01*
X8581Y8047D01*
X8588Y8043D01*
X8593Y8036D01*
X8595Y8028D01*
X7645Y6703D02*
X7643Y6695D01*
X7638Y6688D01*
X7631Y6684D01*
X7623Y6683D01*
X7615Y6686D01*
X7609Y6691D01*
X7605Y6699D01*
Y6707D01*
X7609Y6715D01*
X7615Y6720D01*
X7623Y6723D01*
X7631Y6722D01*
X7638Y6718D01*
X7643Y6711D01*
X7645Y6703D01*
Y7103D02*
X7643Y7095D01*
X7638Y7088D01*
X7631Y7084D01*
X7623Y7083D01*
X7615Y7086D01*
X7609Y7091D01*
X7605Y7099D01*
Y7107D01*
X7609Y7115D01*
X7615Y7120D01*
X7623Y7123D01*
X7631Y7122D01*
X7638Y7118D01*
X7643Y7111D01*
X7645Y7103D01*
X7820Y7478D02*
X7818Y7470D01*
X7813Y7463D01*
X7806Y7459D01*
X7798Y7458D01*
X7790Y7461D01*
X7784Y7466D01*
X7780Y7474D01*
Y7482D01*
X7784Y7490D01*
X7790Y7495D01*
X7798Y7498D01*
X7806Y7497D01*
X7813Y7493D01*
X7818Y7486D01*
X7820Y7478D01*
X7920D02*
X7918Y7470D01*
X7913Y7463D01*
X7906Y7459D01*
X7898Y7458D01*
X7890Y7461D01*
X7884Y7466D01*
X7880Y7474D01*
Y7482D01*
X7884Y7490D01*
X7890Y7495D01*
X7898Y7498D01*
X7906Y7497D01*
X7913Y7493D01*
X7918Y7486D01*
X7920Y7478D01*
X8020D02*
X8018Y7470D01*
X8013Y7463D01*
X8006Y7459D01*
X7998Y7458D01*
X7990Y7461D01*
X7984Y7466D01*
X7980Y7474D01*
Y7482D01*
X7984Y7490D01*
X7990Y7495D01*
X7998Y7498D01*
X8006Y7497D01*
X8013Y7493D01*
X8018Y7486D01*
X8020Y7478D01*
X8120D02*
X8118Y7470D01*
X8113Y7463D01*
X8106Y7459D01*
X8098Y7458D01*
X8090Y7461D01*
X8084Y7466D01*
X8080Y7474D01*
Y7482D01*
X8084Y7490D01*
X8090Y7495D01*
X8098Y7498D01*
X8106Y7497D01*
X8113Y7493D01*
X8118Y7486D01*
X8120Y7478D01*
X8220D02*
X8218Y7470D01*
X8213Y7463D01*
X8206Y7459D01*
X8198Y7458D01*
X8190Y7461D01*
X8184Y7466D01*
X8180Y7474D01*
Y7482D01*
X8184Y7490D01*
X8190Y7495D01*
X8198Y7498D01*
X8206Y7497D01*
X8213Y7493D01*
X8218Y7486D01*
X8220Y7478D01*
X8320D02*
X8318Y7470D01*
X8313Y7463D01*
X8306Y7459D01*
X8298Y7458D01*
X8290Y7461D01*
X8284Y7466D01*
X8280Y7474D01*
Y7482D01*
X8284Y7490D01*
X8290Y7495D01*
X8298Y7498D01*
X8306Y7497D01*
X8313Y7493D01*
X8318Y7486D01*
X8320Y7478D01*
X8420D02*
X8418Y7470D01*
X8413Y7463D01*
X8406Y7459D01*
X8398Y7458D01*
X8390Y7461D01*
X8384Y7466D01*
X8380Y7474D01*
Y7482D01*
X8384Y7490D01*
X8390Y7495D01*
X8398Y7498D01*
X8406Y7497D01*
X8413Y7493D01*
X8418Y7486D01*
X8420Y7478D01*
X8520D02*
X8518Y7470D01*
X8513Y7463D01*
X8506Y7459D01*
X8498Y7458D01*
X8490Y7461D01*
X8484Y7466D01*
X8480Y7474D01*
Y7482D01*
X8484Y7490D01*
X8490Y7495D01*
X8498Y7498D01*
X8506Y7497D01*
X8513Y7493D01*
X8518Y7486D01*
X8520Y7478D01*
Y7778D02*
X8518Y7770D01*
X8513Y7763D01*
X8506Y7759D01*
X8498Y7758D01*
X8490Y7761D01*
X8484Y7766D01*
X8480Y7774D01*
Y7782D01*
X8484Y7790D01*
X8490Y7795D01*
X8498Y7798D01*
X8506Y7797D01*
X8513Y7793D01*
X8518Y7786D01*
X8520Y7778D01*
X8420D02*
X8418Y7770D01*
X8413Y7763D01*
X8406Y7759D01*
X8398Y7758D01*
X8390Y7761D01*
X8384Y7766D01*
X8380Y7774D01*
Y7782D01*
X8384Y7790D01*
X8390Y7795D01*
X8398Y7798D01*
X8406Y7797D01*
X8413Y7793D01*
X8418Y7786D01*
X8420Y7778D01*
X8320D02*
X8318Y7770D01*
X8313Y7763D01*
X8306Y7759D01*
X8298Y7758D01*
X8290Y7761D01*
X8284Y7766D01*
X8280Y7774D01*
Y7782D01*
X8284Y7790D01*
X8290Y7795D01*
X8298Y7798D01*
X8306Y7797D01*
X8313Y7793D01*
X8318Y7786D01*
X8320Y7778D01*
X8220D02*
X8218Y7770D01*
X8213Y7763D01*
X8206Y7759D01*
X8198Y7758D01*
X8190Y7761D01*
X8184Y7766D01*
X8180Y7774D01*
Y7782D01*
X8184Y7790D01*
X8190Y7795D01*
X8198Y7798D01*
X8206Y7797D01*
X8213Y7793D01*
X8218Y7786D01*
X8220Y7778D01*
X8120D02*
X8118Y7770D01*
X8113Y7763D01*
X8106Y7759D01*
X8098Y7758D01*
X8090Y7761D01*
X8084Y7766D01*
X8080Y7774D01*
Y7782D01*
X8084Y7790D01*
X8090Y7795D01*
X8098Y7798D01*
X8106Y7797D01*
X8113Y7793D01*
X8118Y7786D01*
X8120Y7778D01*
X8020D02*
X8018Y7770D01*
X8013Y7763D01*
X8006Y7759D01*
X7998Y7758D01*
X7990Y7761D01*
X7984Y7766D01*
X7980Y7774D01*
Y7782D01*
X7984Y7790D01*
X7990Y7795D01*
X7998Y7798D01*
X8006Y7797D01*
X8013Y7793D01*
X8018Y7786D01*
X8020Y7778D01*
X7920D02*
X7918Y7770D01*
X7913Y7763D01*
X7906Y7759D01*
X7898Y7758D01*
X7890Y7761D01*
X7884Y7766D01*
X7880Y7774D01*
Y7782D01*
X7884Y7790D01*
X7890Y7795D01*
X7898Y7798D01*
X7906Y7797D01*
X7913Y7793D01*
X7918Y7786D01*
X7920Y7778D01*
X7820D02*
X7818Y7770D01*
X7813Y7763D01*
X7806Y7759D01*
X7798Y7758D01*
X7790Y7761D01*
X7784Y7766D01*
X7780Y7774D01*
Y7782D01*
X7784Y7790D01*
X7790Y7795D01*
X7798Y7798D01*
X7806Y7797D01*
X7813Y7793D01*
X7818Y7786D01*
X7820Y7778D01*
X7370Y7678D02*
X7368Y7670D01*
X7363Y7663D01*
X7356Y7659D01*
X7348Y7658D01*
X7340Y7661D01*
X7334Y7666D01*
X7330Y7674D01*
Y7682D01*
X7334Y7690D01*
X7340Y7695D01*
X7348Y7698D01*
X7356Y7697D01*
X7363Y7693D01*
X7368Y7686D01*
X7370Y7678D01*
X7170D02*
X7168Y7670D01*
X7163Y7663D01*
X7156Y7659D01*
X7148Y7658D01*
X7140Y7661D01*
X7134Y7666D01*
X7130Y7674D01*
Y7682D01*
X7134Y7690D01*
X7140Y7695D01*
X7148Y7698D01*
X7156Y7697D01*
X7163Y7693D01*
X7168Y7686D01*
X7170Y7678D01*
X7495Y7353D02*
X7493Y7345D01*
X7488Y7338D01*
X7481Y7334D01*
X7473Y7333D01*
X7465Y7336D01*
X7459Y7341D01*
X7455Y7349D01*
Y7357D01*
X7459Y7365D01*
X7465Y7370D01*
X7473Y7373D01*
X7481Y7372D01*
X7488Y7368D01*
X7493Y7361D01*
X7495Y7353D01*
X7045D02*
X7043Y7345D01*
X7038Y7338D01*
X7031Y7334D01*
X7023Y7333D01*
X7015Y7336D01*
X7009Y7341D01*
X7005Y7349D01*
Y7357D01*
X7009Y7365D01*
X7015Y7370D01*
X7023Y7373D01*
X7031Y7372D01*
X7038Y7368D01*
X7043Y7361D01*
X7045Y7353D01*
X7570Y7678D02*
X7568Y7670D01*
X7563Y7663D01*
X7556Y7659D01*
X7548Y7658D01*
X7540Y7661D01*
X7534Y7666D01*
X7530Y7674D01*
Y7682D01*
X7534Y7690D01*
X7540Y7695D01*
X7548Y7698D01*
X7556Y7697D01*
X7563Y7693D01*
X7568Y7686D01*
X7570Y7678D01*
X7470D02*
X7468Y7670D01*
X7463Y7663D01*
X7456Y7659D01*
X7448Y7658D01*
X7440Y7661D01*
X7434Y7666D01*
X7430Y7674D01*
Y7682D01*
X7434Y7690D01*
X7440Y7695D01*
X7448Y7698D01*
X7456Y7697D01*
X7463Y7693D01*
X7468Y7686D01*
X7470Y7678D01*
X7670Y7778D02*
X7668Y7770D01*
X7663Y7763D01*
X7656Y7759D01*
X7648Y7758D01*
X7640Y7761D01*
X7634Y7766D01*
X7630Y7774D01*
Y7782D01*
X7634Y7790D01*
X7640Y7795D01*
X7648Y7798D01*
X7656Y7797D01*
X7663Y7793D01*
X7668Y7786D01*
X7670Y7778D01*
Y7478D02*
X7668Y7470D01*
X7663Y7463D01*
X7656Y7459D01*
X7648Y7458D01*
X7640Y7461D01*
X7634Y7466D01*
X7630Y7474D01*
Y7482D01*
X7634Y7490D01*
X7640Y7495D01*
X7648Y7498D01*
X7656Y7497D01*
X7663Y7493D01*
X7668Y7486D01*
X7670Y7478D01*
X8420Y8628D02*
X8418Y8620D01*
X8413Y8613D01*
X8406Y8609D01*
X8398Y8608D01*
X8390Y8611D01*
X8384Y8616D01*
X8380Y8624D01*
Y8632D01*
X8384Y8640D01*
X8390Y8645D01*
X8398Y8648D01*
X8406Y8647D01*
X8413Y8643D01*
X8418Y8636D01*
X8420Y8628D01*
Y8528D02*
X8418Y8520D01*
X8413Y8513D01*
X8406Y8509D01*
X8398Y8508D01*
X8390Y8511D01*
X8384Y8516D01*
X8380Y8524D01*
Y8532D01*
X8384Y8540D01*
X8390Y8545D01*
X8398Y8548D01*
X8406Y8547D01*
X8413Y8543D01*
X8418Y8536D01*
X8420Y8528D01*
X8320Y8628D02*
X8318Y8620D01*
X8313Y8613D01*
X8306Y8609D01*
X8298Y8608D01*
X8290Y8611D01*
X8284Y8616D01*
X8280Y8624D01*
Y8632D01*
X8284Y8640D01*
X8290Y8645D01*
X8298Y8648D01*
X8306Y8647D01*
X8313Y8643D01*
X8318Y8636D01*
X8320Y8628D01*
Y8528D02*
X8318Y8520D01*
X8313Y8513D01*
X8306Y8509D01*
X8298Y8508D01*
X8290Y8511D01*
X8284Y8516D01*
X8280Y8524D01*
Y8532D01*
X8284Y8540D01*
X8290Y8545D01*
X8298Y8548D01*
X8306Y8547D01*
X8313Y8543D01*
X8318Y8536D01*
X8320Y8528D01*
X8220Y8628D02*
X8218Y8620D01*
X8213Y8613D01*
X8206Y8609D01*
X8198Y8608D01*
X8190Y8611D01*
X8184Y8616D01*
X8180Y8624D01*
Y8632D01*
X8184Y8640D01*
X8190Y8645D01*
X8198Y8648D01*
X8206Y8647D01*
X8213Y8643D01*
X8218Y8636D01*
X8220Y8628D01*
Y8528D02*
X8218Y8520D01*
X8213Y8513D01*
X8206Y8509D01*
X8198Y8508D01*
X8190Y8511D01*
X8184Y8516D01*
X8180Y8524D01*
Y8532D01*
X8184Y8540D01*
X8190Y8545D01*
X8198Y8548D01*
X8206Y8547D01*
X8213Y8543D01*
X8218Y8536D01*
X8220Y8528D01*
X8120Y8628D02*
X8118Y8620D01*
X8113Y8613D01*
X8106Y8609D01*
X8098Y8608D01*
X8090Y8611D01*
X8084Y8616D01*
X8080Y8624D01*
Y8632D01*
X8084Y8640D01*
X8090Y8645D01*
X8098Y8648D01*
X8106Y8647D01*
X8113Y8643D01*
X8118Y8636D01*
X8120Y8628D01*
Y8528D02*
X8118Y8520D01*
X8113Y8513D01*
X8106Y8509D01*
X8098Y8508D01*
X8090Y8511D01*
X8084Y8516D01*
X8080Y8524D01*
Y8532D01*
X8084Y8540D01*
X8090Y8545D01*
X8098Y8548D01*
X8106Y8547D01*
X8113Y8543D01*
X8118Y8536D01*
X8120Y8528D01*
X8020Y8628D02*
X8018Y8620D01*
X8013Y8613D01*
X8006Y8609D01*
X7998Y8608D01*
X7990Y8611D01*
X7984Y8616D01*
X7980Y8624D01*
Y8632D01*
X7984Y8640D01*
X7990Y8645D01*
X7998Y8648D01*
X8006Y8647D01*
X8013Y8643D01*
X8018Y8636D01*
X8020Y8628D01*
Y8528D02*
X8018Y8520D01*
X8013Y8513D01*
X8006Y8509D01*
X7998Y8508D01*
X7990Y8511D01*
X7984Y8516D01*
X7980Y8524D01*
Y8532D01*
X7984Y8540D01*
X7990Y8545D01*
X7998Y8548D01*
X8006Y8547D01*
X8013Y8543D01*
X8018Y8536D01*
X8020Y8528D01*
X9720Y6453D02*
X9718Y6445D01*
X9713Y6438D01*
X9706Y6434D01*
X9698Y6433D01*
X9690Y6436D01*
X9684Y6441D01*
X9680Y6449D01*
Y6457D01*
X9684Y6465D01*
X9690Y6470D01*
X9698Y6473D01*
X9706Y6472D01*
X9713Y6468D01*
X9718Y6461D01*
X9720Y6453D01*
X9620D02*
X9618Y6445D01*
X9613Y6438D01*
X9606Y6434D01*
X9598Y6433D01*
X9590Y6436D01*
X9584Y6441D01*
X9580Y6449D01*
Y6457D01*
X9584Y6465D01*
X9590Y6470D01*
X9598Y6473D01*
X9606Y6472D01*
X9613Y6468D01*
X9618Y6461D01*
X9620Y6453D01*
X8990Y6628D02*
X8980Y6608D01*
X8990Y6628D02*
X8980Y6648D01*
X9000Y6638D01*
X9020Y6648D01*
X9010Y6628D01*
X9020Y6608D01*
X9000Y6618D01*
X8980Y6608D01*
X9280D02*
X9290Y6628D01*
X9280Y6648D01*
X9300Y6638D01*
X9320Y6648D01*
X9310Y6628D01*
X9320Y6608D01*
X9300Y6618D01*
X9280Y6608D01*
X9400Y7008D02*
X9410Y7018D01*
X9420D01*
X9410Y7028D01*
X9420Y7038D01*
X9410D01*
X9400Y7048D01*
X9390Y7038D01*
X9380D01*
X9390Y7028D01*
X9380Y7018D01*
X9390D01*
X9400Y7008D01*
X9310Y6818D02*
X9300Y6808D01*
X9310Y6818D02*
X9320D01*
X9310Y6828D01*
X9320Y6838D01*
X9310D01*
X9300Y6848D01*
X9290Y6838D01*
X9280D01*
X9290Y6828D01*
X9280Y6818D01*
X9290D01*
X9300Y6808D01*
X9130Y7108D02*
X9140Y7128D01*
X9130Y7148D01*
X9150Y7138D01*
X9170Y7148D01*
X9160Y7128D01*
X9170Y7108D01*
X9150Y7118D01*
X9130Y7108D01*
X9160Y6518D02*
X9150Y6508D01*
X9160Y6518D02*
X9170D01*
X9160Y6528D01*
X9170Y6538D01*
X9160D01*
X9150Y6548D01*
X9140Y6538D01*
X9130D01*
X9140Y6528D01*
X9130Y6518D01*
X9140D01*
X9150Y6508D01*
X9980Y6608D02*
X9990Y6628D01*
X9980Y6648D01*
X10000Y6638D01*
X10020Y6648D01*
X10010Y6628D01*
X10020Y6608D01*
X10000Y6618D01*
X9980Y6608D01*
X10280D02*
X10290Y6628D01*
X10280Y6648D01*
X10300Y6638D01*
X10320Y6648D01*
X10310Y6628D01*
X10320Y6608D01*
X10300Y6618D01*
X10280Y6608D01*
X10400Y7008D02*
X10410Y7018D01*
X10420D01*
X10410Y7028D01*
X10420Y7038D01*
X10410D01*
X10400Y7048D01*
X10390Y7038D01*
X10380D01*
X10390Y7028D01*
X10380Y7018D01*
X10390D01*
X10400Y7008D01*
X10310Y6818D02*
X10300Y6808D01*
X10310Y6818D02*
X10320D01*
X10310Y6828D01*
X10320Y6838D01*
X10310D01*
X10300Y6848D01*
X10290Y6838D01*
X10280D01*
X10290Y6828D01*
X10280Y6818D01*
X10290D01*
X10300Y6808D01*
X10130Y7108D02*
X10140Y7128D01*
X10130Y7148D01*
X10150Y7138D01*
X10170Y7148D01*
X10160Y7128D01*
X10170Y7108D01*
X10150Y7118D01*
X10130Y7108D01*
X10160Y6518D02*
X10150Y6508D01*
X10160Y6518D02*
X10170D01*
X10160Y6528D01*
X10170Y6538D01*
X10160D01*
X10150Y6548D01*
X10140Y6538D01*
X10130D01*
X10140Y6528D01*
X10130Y6518D01*
X10140D01*
X10150Y6508D01*
X9795Y8028D02*
X9793Y8020D01*
X9788Y8013D01*
X9781Y8009D01*
X9773Y8008D01*
X9765Y8011D01*
X9759Y8016D01*
X9755Y8024D01*
Y8032D01*
X9759Y8040D01*
X9765Y8045D01*
X9773Y8048D01*
X9781Y8047D01*
X9788Y8043D01*
X9793Y8036D01*
X9795Y8028D01*
X9895D02*
X9893Y8020D01*
X9888Y8013D01*
X9881Y8009D01*
X9873Y8008D01*
X9865Y8011D01*
X9859Y8016D01*
X9855Y8024D01*
Y8032D01*
X9859Y8040D01*
X9865Y8045D01*
X9873Y8048D01*
X9881Y8047D01*
X9888Y8043D01*
X9893Y8036D01*
X9895Y8028D01*
X9995D02*
X9993Y8020D01*
X9988Y8013D01*
X9981Y8009D01*
X9973Y8008D01*
X9965Y8011D01*
X9959Y8016D01*
X9955Y8024D01*
Y8032D01*
X9959Y8040D01*
X9965Y8045D01*
X9973Y8048D01*
X9981Y8047D01*
X9988Y8043D01*
X9993Y8036D01*
X9995Y8028D01*
X10095D02*
X10093Y8020D01*
X10088Y8013D01*
X10081Y8009D01*
X10073Y8008D01*
X10065Y8011D01*
X10059Y8016D01*
X10055Y8024D01*
Y8032D01*
X10059Y8040D01*
X10065Y8045D01*
X10073Y8048D01*
X10081Y8047D01*
X10088Y8043D01*
X10093Y8036D01*
X10095Y8028D01*
X10195D02*
X10193Y8020D01*
X10188Y8013D01*
X10181Y8009D01*
X10173Y8008D01*
X10165Y8011D01*
X10159Y8016D01*
X10155Y8024D01*
Y8032D01*
X10159Y8040D01*
X10165Y8045D01*
X10173Y8048D01*
X10181Y8047D01*
X10188Y8043D01*
X10193Y8036D01*
X10195Y8028D01*
X10295D02*
X10293Y8020D01*
X10288Y8013D01*
X10281Y8009D01*
X10273Y8008D01*
X10265Y8011D01*
X10259Y8016D01*
X10255Y8024D01*
Y8032D01*
X10259Y8040D01*
X10265Y8045D01*
X10273Y8048D01*
X10281Y8047D01*
X10288Y8043D01*
X10293Y8036D01*
X10295Y8028D01*
X10395D02*
X10393Y8020D01*
X10388Y8013D01*
X10381Y8009D01*
X10373Y8008D01*
X10365Y8011D01*
X10359Y8016D01*
X10355Y8024D01*
Y8032D01*
X10359Y8040D01*
X10365Y8045D01*
X10373Y8048D01*
X10381Y8047D01*
X10388Y8043D01*
X10393Y8036D01*
X10395Y8028D01*
X10495D02*
X10493Y8020D01*
X10488Y8013D01*
X10481Y8009D01*
X10473Y8008D01*
X10465Y8011D01*
X10459Y8016D01*
X10455Y8024D01*
Y8032D01*
X10459Y8040D01*
X10465Y8045D01*
X10473Y8048D01*
X10481Y8047D01*
X10488Y8043D01*
X10493Y8036D01*
X10495Y8028D01*
X10595D02*
X10593Y8020D01*
X10588Y8013D01*
X10581Y8009D01*
X10573Y8008D01*
X10565Y8011D01*
X10559Y8016D01*
X10555Y8024D01*
Y8032D01*
X10559Y8040D01*
X10565Y8045D01*
X10573Y8048D01*
X10581Y8047D01*
X10588Y8043D01*
X10593Y8036D01*
X10595Y8028D01*
X10695D02*
X10693Y8020D01*
X10688Y8013D01*
X10681Y8009D01*
X10673Y8008D01*
X10665Y8011D01*
X10659Y8016D01*
X10655Y8024D01*
Y8032D01*
X10659Y8040D01*
X10665Y8045D01*
X10673Y8048D01*
X10681Y8047D01*
X10688Y8043D01*
X10693Y8036D01*
X10695Y8028D01*
Y8328D02*
X10693Y8320D01*
X10688Y8313D01*
X10681Y8309D01*
X10673Y8308D01*
X10665Y8311D01*
X10659Y8316D01*
X10655Y8324D01*
Y8332D01*
X10659Y8340D01*
X10665Y8345D01*
X10673Y8348D01*
X10681Y8347D01*
X10688Y8343D01*
X10693Y8336D01*
X10695Y8328D01*
X10595D02*
X10593Y8320D01*
X10588Y8313D01*
X10581Y8309D01*
X10573Y8308D01*
X10565Y8311D01*
X10559Y8316D01*
X10555Y8324D01*
Y8332D01*
X10559Y8340D01*
X10565Y8345D01*
X10573Y8348D01*
X10581Y8347D01*
X10588Y8343D01*
X10593Y8336D01*
X10595Y8328D01*
X10495D02*
X10493Y8320D01*
X10488Y8313D01*
X10481Y8309D01*
X10473Y8308D01*
X10465Y8311D01*
X10459Y8316D01*
X10455Y8324D01*
Y8332D01*
X10459Y8340D01*
X10465Y8345D01*
X10473Y8348D01*
X10481Y8347D01*
X10488Y8343D01*
X10493Y8336D01*
X10495Y8328D01*
X10395D02*
X10393Y8320D01*
X10388Y8313D01*
X10381Y8309D01*
X10373Y8308D01*
X10365Y8311D01*
X10359Y8316D01*
X10355Y8324D01*
Y8332D01*
X10359Y8340D01*
X10365Y8345D01*
X10373Y8348D01*
X10381Y8347D01*
X10388Y8343D01*
X10393Y8336D01*
X10395Y8328D01*
X10295D02*
X10293Y8320D01*
X10288Y8313D01*
X10281Y8309D01*
X10273Y8308D01*
X10265Y8311D01*
X10259Y8316D01*
X10255Y8324D01*
Y8332D01*
X10259Y8340D01*
X10265Y8345D01*
X10273Y8348D01*
X10281Y8347D01*
X10288Y8343D01*
X10293Y8336D01*
X10295Y8328D01*
X10195D02*
X10193Y8320D01*
X10188Y8313D01*
X10181Y8309D01*
X10173Y8308D01*
X10165Y8311D01*
X10159Y8316D01*
X10155Y8324D01*
Y8332D01*
X10159Y8340D01*
X10165Y8345D01*
X10173Y8348D01*
X10181Y8347D01*
X10188Y8343D01*
X10193Y8336D01*
X10195Y8328D01*
X10095D02*
X10093Y8320D01*
X10088Y8313D01*
X10081Y8309D01*
X10073Y8308D01*
X10065Y8311D01*
X10059Y8316D01*
X10055Y8324D01*
Y8332D01*
X10059Y8340D01*
X10065Y8345D01*
X10073Y8348D01*
X10081Y8347D01*
X10088Y8343D01*
X10093Y8336D01*
X10095Y8328D01*
X9995D02*
X9993Y8320D01*
X9988Y8313D01*
X9981Y8309D01*
X9973Y8308D01*
X9965Y8311D01*
X9959Y8316D01*
X9955Y8324D01*
Y8332D01*
X9959Y8340D01*
X9965Y8345D01*
X9973Y8348D01*
X9981Y8347D01*
X9988Y8343D01*
X9993Y8336D01*
X9995Y8328D01*
X9895D02*
X9893Y8320D01*
X9888Y8313D01*
X9881Y8309D01*
X9873Y8308D01*
X9865Y8311D01*
X9859Y8316D01*
X9855Y8324D01*
Y8332D01*
X9859Y8340D01*
X9865Y8345D01*
X9873Y8348D01*
X9881Y8347D01*
X9888Y8343D01*
X9893Y8336D01*
X9895Y8328D01*
X9795D02*
X9793Y8320D01*
X9788Y8313D01*
X9781Y8309D01*
X9773Y8308D01*
X9765Y8311D01*
X9759Y8316D01*
X9755Y8324D01*
Y8332D01*
X9759Y8340D01*
X9765Y8345D01*
X9773Y8348D01*
X9781Y8347D01*
X9788Y8343D01*
X9793Y8336D01*
X9795Y8328D01*
X9695D02*
X9693Y8320D01*
X9688Y8313D01*
X9681Y8309D01*
X9673Y8308D01*
X9665Y8311D01*
X9659Y8316D01*
X9655Y8324D01*
Y8332D01*
X9659Y8340D01*
X9665Y8345D01*
X9673Y8348D01*
X9681Y8347D01*
X9688Y8343D01*
X9693Y8336D01*
X9695Y8328D01*
Y8028D02*
X9693Y8020D01*
X9688Y8013D01*
X9681Y8009D01*
X9673Y8008D01*
X9665Y8011D01*
X9659Y8016D01*
X9655Y8024D01*
Y8032D01*
X9659Y8040D01*
X9665Y8045D01*
X9673Y8048D01*
X9681Y8047D01*
X9688Y8043D01*
X9693Y8036D01*
X9695Y8028D01*
X9720Y7178D02*
X9718Y7170D01*
X9713Y7163D01*
X9706Y7159D01*
X9698Y7158D01*
X9690Y7161D01*
X9684Y7166D01*
X9680Y7174D01*
Y7182D01*
X9684Y7190D01*
X9690Y7195D01*
X9698Y7198D01*
X9706Y7197D01*
X9713Y7193D01*
X9718Y7186D01*
X9720Y7178D01*
Y6778D02*
X9718Y6770D01*
X9713Y6763D01*
X9706Y6759D01*
X9698Y6758D01*
X9690Y6761D01*
X9684Y6766D01*
X9680Y6774D01*
Y6782D01*
X9684Y6790D01*
X9690Y6795D01*
X9698Y6798D01*
X9706Y6797D01*
X9713Y6793D01*
X9718Y6786D01*
X9720Y6778D01*
X9370Y8628D02*
X9368Y8620D01*
X9363Y8613D01*
X9356Y8609D01*
X9348Y8608D01*
X9340Y8611D01*
X9334Y8616D01*
X9330Y8624D01*
Y8632D01*
X9334Y8640D01*
X9340Y8645D01*
X9348Y8648D01*
X9356Y8647D01*
X9363Y8643D01*
X9368Y8636D01*
X9370Y8628D01*
Y8528D02*
X9368Y8520D01*
X9363Y8513D01*
X9356Y8509D01*
X9348Y8508D01*
X9340Y8511D01*
X9334Y8516D01*
X9330Y8524D01*
Y8532D01*
X9334Y8540D01*
X9340Y8545D01*
X9348Y8548D01*
X9356Y8547D01*
X9363Y8543D01*
X9368Y8536D01*
X9370Y8528D01*
X9270Y8628D02*
X9268Y8620D01*
X9263Y8613D01*
X9256Y8609D01*
X9248Y8608D01*
X9240Y8611D01*
X9234Y8616D01*
X9230Y8624D01*
Y8632D01*
X9234Y8640D01*
X9240Y8645D01*
X9248Y8648D01*
X9256Y8647D01*
X9263Y8643D01*
X9268Y8636D01*
X9270Y8628D01*
Y8528D02*
X9268Y8520D01*
X9263Y8513D01*
X9256Y8509D01*
X9248Y8508D01*
X9240Y8511D01*
X9234Y8516D01*
X9230Y8524D01*
Y8532D01*
X9234Y8540D01*
X9240Y8545D01*
X9248Y8548D01*
X9256Y8547D01*
X9263Y8543D01*
X9268Y8536D01*
X9270Y8528D01*
X9170Y8628D02*
X9168Y8620D01*
X9163Y8613D01*
X9156Y8609D01*
X9148Y8608D01*
X9140Y8611D01*
X9134Y8616D01*
X9130Y8624D01*
Y8632D01*
X9134Y8640D01*
X9140Y8645D01*
X9148Y8648D01*
X9156Y8647D01*
X9163Y8643D01*
X9168Y8636D01*
X9170Y8628D01*
Y8528D02*
X9168Y8520D01*
X9163Y8513D01*
X9156Y8509D01*
X9148Y8508D01*
X9140Y8511D01*
X9134Y8516D01*
X9130Y8524D01*
Y8532D01*
X9134Y8540D01*
X9140Y8545D01*
X9148Y8548D01*
X9156Y8547D01*
X9163Y8543D01*
X9168Y8536D01*
X9170Y8528D01*
X9070Y8628D02*
X9068Y8620D01*
X9063Y8613D01*
X9056Y8609D01*
X9048Y8608D01*
X9040Y8611D01*
X9034Y8616D01*
X9030Y8624D01*
Y8632D01*
X9034Y8640D01*
X9040Y8645D01*
X9048Y8648D01*
X9056Y8647D01*
X9063Y8643D01*
X9068Y8636D01*
X9070Y8628D01*
Y8528D02*
X9068Y8520D01*
X9063Y8513D01*
X9056Y8509D01*
X9048Y8508D01*
X9040Y8511D01*
X9034Y8516D01*
X9030Y8524D01*
Y8532D01*
X9034Y8540D01*
X9040Y8545D01*
X9048Y8548D01*
X9056Y8547D01*
X9063Y8543D01*
X9068Y8536D01*
X9070Y8528D01*
X8970Y8628D02*
X8968Y8620D01*
X8963Y8613D01*
X8956Y8609D01*
X8948Y8608D01*
X8940Y8611D01*
X8934Y8616D01*
X8930Y8624D01*
Y8632D01*
X8934Y8640D01*
X8940Y8645D01*
X8948Y8648D01*
X8956Y8647D01*
X8963Y8643D01*
X8968Y8636D01*
X8970Y8628D01*
Y8528D02*
X8968Y8520D01*
X8963Y8513D01*
X8956Y8509D01*
X8948Y8508D01*
X8940Y8511D01*
X8934Y8516D01*
X8930Y8524D01*
Y8532D01*
X8934Y8540D01*
X8940Y8545D01*
X8948Y8548D01*
X8956Y8547D01*
X8963Y8543D01*
X8968Y8536D01*
X8970Y8528D01*
X9995Y8803D02*
X9993Y8795D01*
X9988Y8788D01*
X9981Y8784D01*
X9973Y8783D01*
X9965Y8786D01*
X9959Y8791D01*
X9955Y8799D01*
Y8807D01*
X9959Y8815D01*
X9965Y8820D01*
X9973Y8823D01*
X9981Y8822D01*
X9988Y8818D01*
X9993Y8811D01*
X9995Y8803D01*
Y8703D02*
X9993Y8695D01*
X9988Y8688D01*
X9981Y8684D01*
X9973Y8683D01*
X9965Y8686D01*
X9959Y8691D01*
X9955Y8699D01*
Y8707D01*
X9959Y8715D01*
X9965Y8720D01*
X9973Y8723D01*
X9981Y8722D01*
X9988Y8718D01*
X9993Y8711D01*
X9995Y8703D01*
X9770Y8903D02*
X9768Y8895D01*
X9763Y8888D01*
X9756Y8884D01*
X9748Y8883D01*
X9740Y8886D01*
X9734Y8891D01*
X9730Y8899D01*
Y8907D01*
X9734Y8915D01*
X9740Y8920D01*
X9748Y8923D01*
X9756Y8922D01*
X9763Y8918D01*
X9768Y8911D01*
X9770Y8903D01*
X10070D02*
X10068Y8895D01*
X10063Y8888D01*
X10056Y8884D01*
X10048Y8883D01*
X10040Y8886D01*
X10034Y8891D01*
X10030Y8899D01*
Y8907D01*
X10034Y8915D01*
X10040Y8920D01*
X10048Y8923D01*
X10056Y8922D01*
X10063Y8918D01*
X10068Y8911D01*
X10070Y8903D01*
X10830Y8823D02*
Y8783D01*
Y8823D02*
X10870D01*
Y8783D01*
X10830D01*
X10170Y8703D02*
X10168Y8695D01*
X10163Y8688D01*
X10156Y8684D01*
X10148Y8683D01*
X10140Y8686D01*
X10134Y8691D01*
X10130Y8699D01*
Y8707D01*
X10134Y8715D01*
X10140Y8720D01*
X10148Y8723D01*
X10156Y8722D01*
X10163Y8718D01*
X10168Y8711D01*
X10170Y8703D01*
Y8803D02*
X10168Y8795D01*
X10163Y8788D01*
X10156Y8784D01*
X10148Y8783D01*
X10140Y8786D01*
X10134Y8791D01*
X10130Y8799D01*
Y8807D01*
X10134Y8815D01*
X10140Y8820D01*
X10148Y8823D01*
X10156Y8822D01*
X10163Y8818D01*
X10168Y8811D01*
X10170Y8803D01*
Y8903D02*
X10168Y8895D01*
X10163Y8888D01*
X10156Y8884D01*
X10148Y8883D01*
X10140Y8886D01*
X10134Y8891D01*
X10130Y8899D01*
Y8907D01*
X10134Y8915D01*
X10140Y8920D01*
X10148Y8923D01*
X10156Y8922D01*
X10163Y8918D01*
X10168Y8911D01*
X10170Y8903D01*
X11720Y6453D02*
X11718Y6445D01*
X11713Y6438D01*
X11706Y6434D01*
X11698Y6433D01*
X11690Y6436D01*
X11684Y6441D01*
X11680Y6449D01*
Y6457D01*
X11684Y6465D01*
X11690Y6470D01*
X11698Y6473D01*
X11706Y6472D01*
X11713Y6468D01*
X11718Y6461D01*
X11720Y6453D01*
X11620D02*
X11618Y6445D01*
X11613Y6438D01*
X11606Y6434D01*
X11598Y6433D01*
X11590Y6436D01*
X11584Y6441D01*
X11580Y6449D01*
Y6457D01*
X11584Y6465D01*
X11590Y6470D01*
X11598Y6473D01*
X11606Y6472D01*
X11613Y6468D01*
X11618Y6461D01*
X11620Y6453D01*
X10720D02*
X10718Y6445D01*
X10713Y6438D01*
X10706Y6434D01*
X10698Y6433D01*
X10690Y6436D01*
X10684Y6441D01*
X10680Y6449D01*
Y6457D01*
X10684Y6465D01*
X10690Y6470D01*
X10698Y6473D01*
X10706Y6472D01*
X10713Y6468D01*
X10718Y6461D01*
X10720Y6453D01*
X10620D02*
X10618Y6445D01*
X10613Y6438D01*
X10606Y6434D01*
X10598Y6433D01*
X10590Y6436D01*
X10584Y6441D01*
X10580Y6449D01*
Y6457D01*
X10584Y6465D01*
X10590Y6470D01*
X10598Y6473D01*
X10606Y6472D01*
X10613Y6468D01*
X10618Y6461D01*
X10620Y6453D01*
X10980Y6608D02*
X10990Y6628D01*
X10980Y6648D01*
X11000Y6638D01*
X11020Y6648D01*
X11010Y6628D01*
X11020Y6608D01*
X11000Y6618D01*
X10980Y6608D01*
X11280D02*
X11290Y6628D01*
X11280Y6648D01*
X11300Y6638D01*
X11320Y6648D01*
X11310Y6628D01*
X11320Y6608D01*
X11300Y6618D01*
X11280Y6608D01*
X11400Y7008D02*
X11410Y7018D01*
X11420D01*
X11410Y7028D01*
X11420Y7038D01*
X11410D01*
X11400Y7048D01*
X11390Y7038D01*
X11380D01*
X11390Y7028D01*
X11380Y7018D01*
X11390D01*
X11400Y7008D01*
X11310Y6818D02*
X11300Y6808D01*
X11310Y6818D02*
X11320D01*
X11310Y6828D01*
X11320Y6838D01*
X11310D01*
X11300Y6848D01*
X11290Y6838D01*
X11280D01*
X11290Y6828D01*
X11280Y6818D01*
X11290D01*
X11300Y6808D01*
X11130Y7108D02*
X11140Y7128D01*
X11130Y7148D01*
X11150Y7138D01*
X11170Y7148D01*
X11160Y7128D01*
X11170Y7108D01*
X11150Y7118D01*
X11130Y7108D01*
X11160Y6518D02*
X11150Y6508D01*
X11160Y6518D02*
X11170D01*
X11160Y6528D01*
X11170Y6538D01*
X11160D01*
X11150Y6548D01*
X11140Y6538D01*
X11130D01*
X11140Y6528D01*
X11130Y6518D01*
X11140D01*
X11150Y6508D01*
X11995Y8328D02*
X11993Y8320D01*
X11988Y8313D01*
X11981Y8309D01*
X11973Y8308D01*
X11965Y8311D01*
X11959Y8316D01*
X11955Y8324D01*
Y8332D01*
X11959Y8340D01*
X11965Y8345D01*
X11973Y8348D01*
X11981Y8347D01*
X11988Y8343D01*
X11993Y8336D01*
X11995Y8328D01*
Y8028D02*
X11993Y8020D01*
X11988Y8013D01*
X11981Y8009D01*
X11973Y8008D01*
X11965Y8011D01*
X11959Y8016D01*
X11955Y8024D01*
Y8032D01*
X11959Y8040D01*
X11965Y8045D01*
X11973Y8048D01*
X11981Y8047D01*
X11988Y8043D01*
X11993Y8036D01*
X11995Y8028D01*
X11895D02*
X11893Y8020D01*
X11888Y8013D01*
X11881Y8009D01*
X11873Y8008D01*
X11865Y8011D01*
X11859Y8016D01*
X11855Y8024D01*
Y8032D01*
X11859Y8040D01*
X11865Y8045D01*
X11873Y8048D01*
X11881Y8047D01*
X11888Y8043D01*
X11893Y8036D01*
X11895Y8028D01*
Y8328D02*
X11893Y8320D01*
X11888Y8313D01*
X11881Y8309D01*
X11873Y8308D01*
X11865Y8311D01*
X11859Y8316D01*
X11855Y8324D01*
Y8332D01*
X11859Y8340D01*
X11865Y8345D01*
X11873Y8348D01*
X11881Y8347D01*
X11888Y8343D01*
X11893Y8336D01*
X11895Y8328D01*
X11695Y7878D02*
X11693Y7870D01*
X11688Y7863D01*
X11681Y7859D01*
X11673Y7858D01*
X11665Y7861D01*
X11659Y7866D01*
X11655Y7874D01*
Y7882D01*
X11659Y7890D01*
X11665Y7895D01*
X11673Y7898D01*
X11681Y7897D01*
X11688Y7893D01*
X11693Y7886D01*
X11695Y7878D01*
Y7478D02*
X11693Y7470D01*
X11688Y7463D01*
X11681Y7459D01*
X11673Y7458D01*
X11665Y7461D01*
X11659Y7466D01*
X11655Y7474D01*
Y7482D01*
X11659Y7490D01*
X11665Y7495D01*
X11673Y7498D01*
X11681Y7497D01*
X11688Y7493D01*
X11693Y7486D01*
X11695Y7478D01*
X11595Y7878D02*
X11593Y7870D01*
X11588Y7863D01*
X11581Y7859D01*
X11573Y7858D01*
X11565Y7861D01*
X11559Y7866D01*
X11555Y7874D01*
Y7882D01*
X11559Y7890D01*
X11565Y7895D01*
X11573Y7898D01*
X11581Y7897D01*
X11588Y7893D01*
X11593Y7886D01*
X11595Y7878D01*
Y7478D02*
X11593Y7470D01*
X11588Y7463D01*
X11581Y7459D01*
X11573Y7458D01*
X11565Y7461D01*
X11559Y7466D01*
X11555Y7474D01*
Y7482D01*
X11559Y7490D01*
X11565Y7495D01*
X11573Y7498D01*
X11581Y7497D01*
X11588Y7493D01*
X11593Y7486D01*
X11595Y7478D01*
X11495Y7678D02*
X11493Y7670D01*
X11488Y7663D01*
X11481Y7659D01*
X11473Y7658D01*
X11465Y7661D01*
X11459Y7666D01*
X11455Y7674D01*
Y7682D01*
X11459Y7690D01*
X11465Y7695D01*
X11473Y7698D01*
X11481Y7697D01*
X11488Y7693D01*
X11493Y7686D01*
X11495Y7678D01*
Y7778D02*
X11493Y7770D01*
X11488Y7763D01*
X11481Y7759D01*
X11473Y7758D01*
X11465Y7761D01*
X11459Y7766D01*
X11455Y7774D01*
Y7782D01*
X11459Y7790D01*
X11465Y7795D01*
X11473Y7798D01*
X11481Y7797D01*
X11488Y7793D01*
X11493Y7786D01*
X11495Y7778D01*
Y8028D02*
X11493Y8020D01*
X11488Y8013D01*
X11481Y8009D01*
X11473Y8008D01*
X11465Y8011D01*
X11459Y8016D01*
X11455Y8024D01*
Y8032D01*
X11459Y8040D01*
X11465Y8045D01*
X11473Y8048D01*
X11481Y8047D01*
X11488Y8043D01*
X11493Y8036D01*
X11495Y8028D01*
X11595D02*
X11593Y8020D01*
X11588Y8013D01*
X11581Y8009D01*
X11573Y8008D01*
X11565Y8011D01*
X11559Y8016D01*
X11555Y8024D01*
Y8032D01*
X11559Y8040D01*
X11565Y8045D01*
X11573Y8048D01*
X11581Y8047D01*
X11588Y8043D01*
X11593Y8036D01*
X11595Y8028D01*
X11695D02*
X11693Y8020D01*
X11688Y8013D01*
X11681Y8009D01*
X11673Y8008D01*
X11665Y8011D01*
X11659Y8016D01*
X11655Y8024D01*
Y8032D01*
X11659Y8040D01*
X11665Y8045D01*
X11673Y8048D01*
X11681Y8047D01*
X11688Y8043D01*
X11693Y8036D01*
X11695Y8028D01*
X11795D02*
X11793Y8020D01*
X11788Y8013D01*
X11781Y8009D01*
X11773Y8008D01*
X11765Y8011D01*
X11759Y8016D01*
X11755Y8024D01*
Y8032D01*
X11759Y8040D01*
X11765Y8045D01*
X11773Y8048D01*
X11781Y8047D01*
X11788Y8043D01*
X11793Y8036D01*
X11795Y8028D01*
Y8328D02*
X11793Y8320D01*
X11788Y8313D01*
X11781Y8309D01*
X11773Y8308D01*
X11765Y8311D01*
X11759Y8316D01*
X11755Y8324D01*
Y8332D01*
X11759Y8340D01*
X11765Y8345D01*
X11773Y8348D01*
X11781Y8347D01*
X11788Y8343D01*
X11793Y8336D01*
X11795Y8328D01*
X11695D02*
X11693Y8320D01*
X11688Y8313D01*
X11681Y8309D01*
X11673Y8308D01*
X11665Y8311D01*
X11659Y8316D01*
X11655Y8324D01*
Y8332D01*
X11659Y8340D01*
X11665Y8345D01*
X11673Y8348D01*
X11681Y8347D01*
X11688Y8343D01*
X11693Y8336D01*
X11695Y8328D01*
X11595D02*
X11593Y8320D01*
X11588Y8313D01*
X11581Y8309D01*
X11573Y8308D01*
X11565Y8311D01*
X11559Y8316D01*
X11555Y8324D01*
Y8332D01*
X11559Y8340D01*
X11565Y8345D01*
X11573Y8348D01*
X11581Y8347D01*
X11588Y8343D01*
X11593Y8336D01*
X11595Y8328D01*
X11495D02*
X11493Y8320D01*
X11488Y8313D01*
X11481Y8309D01*
X11473Y8308D01*
X11465Y8311D01*
X11459Y8316D01*
X11455Y8324D01*
Y8332D01*
X11459Y8340D01*
X11465Y8345D01*
X11473Y8348D01*
X11481Y8347D01*
X11488Y8343D01*
X11493Y8336D01*
X11495Y8328D01*
X11395D02*
X11393Y8320D01*
X11388Y8313D01*
X11381Y8309D01*
X11373Y8308D01*
X11365Y8311D01*
X11359Y8316D01*
X11355Y8324D01*
Y8332D01*
X11359Y8340D01*
X11365Y8345D01*
X11373Y8348D01*
X11381Y8347D01*
X11388Y8343D01*
X11393Y8336D01*
X11395Y8328D01*
Y8028D02*
X11393Y8020D01*
X11388Y8013D01*
X11381Y8009D01*
X11373Y8008D01*
X11365Y8011D01*
X11359Y8016D01*
X11355Y8024D01*
Y8032D01*
X11359Y8040D01*
X11365Y8045D01*
X11373Y8048D01*
X11381Y8047D01*
X11388Y8043D01*
X11393Y8036D01*
X11395Y8028D01*
X11295D02*
X11293Y8020D01*
X11288Y8013D01*
X11281Y8009D01*
X11273Y8008D01*
X11265Y8011D01*
X11259Y8016D01*
X11255Y8024D01*
Y8032D01*
X11259Y8040D01*
X11265Y8045D01*
X11273Y8048D01*
X11281Y8047D01*
X11288Y8043D01*
X11293Y8036D01*
X11295Y8028D01*
Y8328D02*
X11293Y8320D01*
X11288Y8313D01*
X11281Y8309D01*
X11273Y8308D01*
X11265Y8311D01*
X11259Y8316D01*
X11255Y8324D01*
Y8332D01*
X11259Y8340D01*
X11265Y8345D01*
X11273Y8348D01*
X11281Y8347D01*
X11288Y8343D01*
X11293Y8336D01*
X11295Y8328D01*
X10995Y7878D02*
X10993Y7870D01*
X10988Y7863D01*
X10981Y7859D01*
X10973Y7858D01*
X10965Y7861D01*
X10959Y7866D01*
X10955Y7874D01*
Y7882D01*
X10959Y7890D01*
X10965Y7895D01*
X10973Y7898D01*
X10981Y7897D01*
X10988Y7893D01*
X10993Y7886D01*
X10995Y7878D01*
X10895D02*
X10893Y7870D01*
X10888Y7863D01*
X10881Y7859D01*
X10873Y7858D01*
X10865Y7861D01*
X10859Y7866D01*
X10855Y7874D01*
Y7882D01*
X10859Y7890D01*
X10865Y7895D01*
X10873Y7898D01*
X10881Y7897D01*
X10888Y7893D01*
X10893Y7886D01*
X10895Y7878D01*
Y8028D02*
X10893Y8020D01*
X10888Y8013D01*
X10881Y8009D01*
X10873Y8008D01*
X10865Y8011D01*
X10859Y8016D01*
X10855Y8024D01*
Y8032D01*
X10859Y8040D01*
X10865Y8045D01*
X10873Y8048D01*
X10881Y8047D01*
X10888Y8043D01*
X10893Y8036D01*
X10895Y8028D01*
X11095D02*
X11093Y8020D01*
X11088Y8013D01*
X11081Y8009D01*
X11073Y8008D01*
X11065Y8011D01*
X11059Y8016D01*
X11055Y8024D01*
Y8032D01*
X11059Y8040D01*
X11065Y8045D01*
X11073Y8048D01*
X11081Y8047D01*
X11088Y8043D01*
X11093Y8036D01*
X11095Y8028D01*
X11195D02*
X11193Y8020D01*
X11188Y8013D01*
X11181Y8009D01*
X11173Y8008D01*
X11165Y8011D01*
X11159Y8016D01*
X11155Y8024D01*
Y8032D01*
X11159Y8040D01*
X11165Y8045D01*
X11173Y8048D01*
X11181Y8047D01*
X11188Y8043D01*
X11193Y8036D01*
X11195Y8028D01*
Y8328D02*
X11193Y8320D01*
X11188Y8313D01*
X11181Y8309D01*
X11173Y8308D01*
X11165Y8311D01*
X11159Y8316D01*
X11155Y8324D01*
Y8332D01*
X11159Y8340D01*
X11165Y8345D01*
X11173Y8348D01*
X11181Y8347D01*
X11188Y8343D01*
X11193Y8336D01*
X11195Y8328D01*
X11095D02*
X11093Y8320D01*
X11088Y8313D01*
X11081Y8309D01*
X11073Y8308D01*
X11065Y8311D01*
X11059Y8316D01*
X11055Y8324D01*
Y8332D01*
X11059Y8340D01*
X11065Y8345D01*
X11073Y8348D01*
X11081Y8347D01*
X11088Y8343D01*
X11093Y8336D01*
X11095Y8328D01*
X10995D02*
X10993Y8320D01*
X10988Y8313D01*
X10981Y8309D01*
X10973Y8308D01*
X10965Y8311D01*
X10959Y8316D01*
X10955Y8324D01*
Y8332D01*
X10959Y8340D01*
X10965Y8345D01*
X10973Y8348D01*
X10981Y8347D01*
X10988Y8343D01*
X10993Y8336D01*
X10995Y8328D01*
X10895D02*
X10893Y8320D01*
X10888Y8313D01*
X10881Y8309D01*
X10873Y8308D01*
X10865Y8311D01*
X10859Y8316D01*
X10855Y8324D01*
Y8332D01*
X10859Y8340D01*
X10865Y8345D01*
X10873Y8348D01*
X10881Y8347D01*
X10888Y8343D01*
X10893Y8336D01*
X10895Y8328D01*
X10995Y8028D02*
X10993Y8020D01*
X10988Y8013D01*
X10981Y8009D01*
X10973Y8008D01*
X10965Y8011D01*
X10959Y8016D01*
X10955Y8024D01*
Y8032D01*
X10959Y8040D01*
X10965Y8045D01*
X10973Y8048D01*
X10981Y8047D01*
X10988Y8043D01*
X10993Y8036D01*
X10995Y8028D01*
X10795Y8328D02*
X10793Y8320D01*
X10788Y8313D01*
X10781Y8309D01*
X10773Y8308D01*
X10765Y8311D01*
X10759Y8316D01*
X10755Y8324D01*
Y8332D01*
X10759Y8340D01*
X10765Y8345D01*
X10773Y8348D01*
X10781Y8347D01*
X10788Y8343D01*
X10793Y8336D01*
X10795Y8328D01*
Y8028D02*
X10793Y8020D01*
X10788Y8013D01*
X10781Y8009D01*
X10773Y8008D01*
X10765Y8011D01*
X10759Y8016D01*
X10755Y8024D01*
Y8032D01*
X10759Y8040D01*
X10765Y8045D01*
X10773Y8048D01*
X10781Y8047D01*
X10788Y8043D01*
X10793Y8036D01*
X10795Y8028D01*
X11720Y7178D02*
X11718Y7170D01*
X11713Y7163D01*
X11706Y7159D01*
X11698Y7158D01*
X11690Y7161D01*
X11684Y7166D01*
X11680Y7174D01*
Y7182D01*
X11684Y7190D01*
X11690Y7195D01*
X11698Y7198D01*
X11706Y7197D01*
X11713Y7193D01*
X11718Y7186D01*
X11720Y7178D01*
Y6778D02*
X11718Y6770D01*
X11713Y6763D01*
X11706Y6759D01*
X11698Y6758D01*
X11690Y6761D01*
X11684Y6766D01*
X11680Y6774D01*
Y6782D01*
X11684Y6790D01*
X11690Y6795D01*
X11698Y6798D01*
X11706Y6797D01*
X11713Y6793D01*
X11718Y6786D01*
X11720Y6778D01*
X10720Y7178D02*
X10718Y7170D01*
X10713Y7163D01*
X10706Y7159D01*
X10698Y7158D01*
X10690Y7161D01*
X10684Y7166D01*
X10680Y7174D01*
Y7182D01*
X10684Y7190D01*
X10690Y7195D01*
X10698Y7198D01*
X10706Y7197D01*
X10713Y7193D01*
X10718Y7186D01*
X10720Y7178D01*
Y6778D02*
X10718Y6770D01*
X10713Y6763D01*
X10706Y6759D01*
X10698Y6758D01*
X10690Y6761D01*
X10684Y6766D01*
X10680Y6774D01*
Y6782D01*
X10684Y6790D01*
X10690Y6795D01*
X10698Y6798D01*
X10706Y6797D01*
X10713Y6793D01*
X10718Y6786D01*
X10720Y6778D01*
X11845Y8478D02*
X11843Y8470D01*
X11838Y8463D01*
X11831Y8459D01*
X11823Y8458D01*
X11815Y8461D01*
X11809Y8466D01*
X11805Y8474D01*
Y8482D01*
X11809Y8490D01*
X11815Y8495D01*
X11823Y8498D01*
X11831Y8497D01*
X11838Y8493D01*
X11843Y8486D01*
X11845Y8478D01*
Y8878D02*
X11843Y8870D01*
X11838Y8863D01*
X11831Y8859D01*
X11823Y8858D01*
X11815Y8861D01*
X11809Y8866D01*
X11805Y8874D01*
Y8882D01*
X11809Y8890D01*
X11815Y8895D01*
X11823Y8898D01*
X11831Y8897D01*
X11838Y8893D01*
X11843Y8886D01*
X11845Y8878D01*
X11745Y8478D02*
X11743Y8470D01*
X11738Y8463D01*
X11731Y8459D01*
X11723Y8458D01*
X11715Y8461D01*
X11709Y8466D01*
X11705Y8474D01*
Y8482D01*
X11709Y8490D01*
X11715Y8495D01*
X11723Y8498D01*
X11731Y8497D01*
X11738Y8493D01*
X11743Y8486D01*
X11745Y8478D01*
Y8878D02*
X11743Y8870D01*
X11738Y8863D01*
X11731Y8859D01*
X11723Y8858D01*
X11715Y8861D01*
X11709Y8866D01*
X11705Y8874D01*
Y8882D01*
X11709Y8890D01*
X11715Y8895D01*
X11723Y8898D01*
X11731Y8897D01*
X11738Y8893D01*
X11743Y8886D01*
X11745Y8878D01*
X11595Y8728D02*
X11593Y8720D01*
X11588Y8713D01*
X11581Y8709D01*
X11573Y8708D01*
X11565Y8711D01*
X11559Y8716D01*
X11555Y8724D01*
Y8732D01*
X11559Y8740D01*
X11565Y8745D01*
X11573Y8748D01*
X11581Y8747D01*
X11588Y8743D01*
X11593Y8736D01*
X11595Y8728D01*
Y8628D02*
X11593Y8620D01*
X11588Y8613D01*
X11581Y8609D01*
X11573Y8608D01*
X11565Y8611D01*
X11559Y8616D01*
X11555Y8624D01*
Y8632D01*
X11559Y8640D01*
X11565Y8645D01*
X11573Y8648D01*
X11581Y8647D01*
X11588Y8643D01*
X11593Y8636D01*
X11595Y8628D01*
X11615Y8808D02*
Y8818D01*
Y8808D02*
X11635D01*
Y8818D01*
X11645D01*
Y8838D01*
X11635D01*
Y8848D01*
X11615D01*
Y8838D01*
X11605D01*
Y8818D01*
X11615D01*
X11565Y8858D02*
Y8868D01*
Y8858D02*
X11585D01*
Y8868D01*
X11595D01*
Y8888D01*
X11585D01*
Y8898D01*
X11565D01*
Y8888D01*
X11555D01*
Y8868D01*
X11565D01*
X11615Y8908D02*
Y8918D01*
Y8908D02*
X11635D01*
Y8918D01*
X11645D01*
Y8938D01*
X11635D01*
Y8948D01*
X11615D01*
Y8938D01*
X11605D01*
Y8918D01*
X11615D01*
X11495Y8478D02*
X11493Y8470D01*
X11488Y8463D01*
X11481Y8459D01*
X11473Y8458D01*
X11465Y8461D01*
X11459Y8466D01*
X11455Y8474D01*
Y8482D01*
X11459Y8490D01*
X11465Y8495D01*
X11473Y8498D01*
X11481Y8497D01*
X11488Y8493D01*
X11493Y8486D01*
X11495Y8478D01*
Y8878D02*
X11493Y8870D01*
X11488Y8863D01*
X11481Y8859D01*
X11473Y8858D01*
X11465Y8861D01*
X11459Y8866D01*
X11455Y8874D01*
Y8882D01*
X11459Y8890D01*
X11465Y8895D01*
X11473Y8898D01*
X11481Y8897D01*
X11488Y8893D01*
X11493Y8886D01*
X11495Y8878D01*
X11395Y8478D02*
X11393Y8470D01*
X11388Y8463D01*
X11381Y8459D01*
X11373Y8458D01*
X11365Y8461D01*
X11359Y8466D01*
X11355Y8474D01*
Y8482D01*
X11359Y8490D01*
X11365Y8495D01*
X11373Y8498D01*
X11381Y8497D01*
X11388Y8493D01*
X11393Y8486D01*
X11395Y8478D01*
Y8878D02*
X11393Y8870D01*
X11388Y8863D01*
X11381Y8859D01*
X11373Y8858D01*
X11365Y8861D01*
X11359Y8866D01*
X11355Y8874D01*
Y8882D01*
X11359Y8890D01*
X11365Y8895D01*
X11373Y8898D01*
X11381Y8897D01*
X11388Y8893D01*
X11393Y8886D01*
X11395Y8878D01*
X11295D02*
X11293Y8870D01*
X11288Y8863D01*
X11281Y8859D01*
X11273Y8858D01*
X11265Y8861D01*
X11259Y8866D01*
X11255Y8874D01*
Y8882D01*
X11259Y8890D01*
X11265Y8895D01*
X11273Y8898D01*
X11281Y8897D01*
X11288Y8893D01*
X11293Y8886D01*
X11295Y8878D01*
Y8478D02*
X11293Y8470D01*
X11288Y8463D01*
X11281Y8459D01*
X11273Y8458D01*
X11265Y8461D01*
X11259Y8466D01*
X11255Y8474D01*
Y8482D01*
X11259Y8490D01*
X11265Y8495D01*
X11273Y8498D01*
X11281Y8497D01*
X11288Y8493D01*
X11293Y8486D01*
X11295Y8478D01*
X11095Y8978D02*
X11093Y8970D01*
X11088Y8963D01*
X11081Y8959D01*
X11073Y8958D01*
X11065Y8961D01*
X11059Y8966D01*
X11055Y8974D01*
Y8982D01*
X11059Y8990D01*
X11065Y8995D01*
X11073Y8998D01*
X11081Y8997D01*
X11088Y8993D01*
X11093Y8986D01*
X11095Y8978D01*
Y8478D02*
X11093Y8470D01*
X11088Y8463D01*
X11081Y8459D01*
X11073Y8458D01*
X11065Y8461D01*
X11059Y8466D01*
X11055Y8474D01*
Y8482D01*
X11059Y8490D01*
X11065Y8495D01*
X11073Y8498D01*
X11081Y8497D01*
X11088Y8493D01*
X11093Y8486D01*
X11095Y8478D01*
X11195Y8778D02*
X11193Y8770D01*
X11188Y8763D01*
X11181Y8759D01*
X11173Y8758D01*
X11165Y8761D01*
X11159Y8766D01*
X11155Y8774D01*
Y8782D01*
X11159Y8790D01*
X11165Y8795D01*
X11173Y8798D01*
X11181Y8797D01*
X11188Y8793D01*
X11193Y8786D01*
X11195Y8778D01*
X11990Y6628D02*
X11980Y6608D01*
X11990Y6628D02*
X11980Y6648D01*
X12000Y6638D01*
X12020Y6648D01*
X12010Y6628D01*
X12020Y6608D01*
X12000Y6618D01*
X11980Y6608D01*
X12280D02*
X12290Y6628D01*
X12280Y6648D01*
X12300Y6638D01*
X12320Y6648D01*
X12310Y6628D01*
X12320Y6608D01*
X12300Y6618D01*
X12280Y6608D01*
X12400Y7008D02*
X12410Y7018D01*
X12420D01*
X12410Y7028D01*
X12420Y7038D01*
X12410D01*
X12400Y7048D01*
X12390Y7038D01*
X12380D01*
X12390Y7028D01*
X12380Y7018D01*
X12390D01*
X12400Y7008D01*
X12310Y6818D02*
X12300Y6808D01*
X12310Y6818D02*
X12320D01*
X12310Y6828D01*
X12320Y6838D01*
X12310D01*
X12300Y6848D01*
X12290Y6838D01*
X12280D01*
X12290Y6828D01*
X12280Y6818D01*
X12290D01*
X12300Y6808D01*
X12130Y7108D02*
X12140Y7128D01*
X12130Y7148D01*
X12150Y7138D01*
X12170Y7148D01*
X12160Y7128D01*
X12170Y7108D01*
X12150Y7118D01*
X12130Y7108D01*
X12160Y6518D02*
X12150Y6508D01*
X12160Y6518D02*
X12170D01*
X12160Y6528D01*
X12170Y6538D01*
X12160D01*
X12150Y6548D01*
X12140Y6538D01*
X12130D01*
X12140Y6528D01*
X12130Y6518D01*
X12140D01*
X12150Y6508D01*
X12980Y6608D02*
X12990Y6628D01*
X12980Y6648D01*
X13000Y6638D01*
X13020Y6648D01*
X13010Y6628D01*
X13020Y6608D01*
X13000Y6618D01*
X12980Y6608D01*
X13280D02*
X13290Y6628D01*
X13280Y6648D01*
X13300Y6638D01*
X13320Y6648D01*
X13310Y6628D01*
X13320Y6608D01*
X13300Y6618D01*
X13280Y6608D01*
X13400Y7008D02*
X13410Y7018D01*
X13420D01*
X13410Y7028D01*
X13420Y7038D01*
X13410D01*
X13400Y7048D01*
X13390Y7038D01*
X13380D01*
X13390Y7028D01*
X13380Y7018D01*
X13390D01*
X13400Y7008D01*
X13310Y6818D02*
X13300Y6808D01*
X13310Y6818D02*
X13320D01*
X13310Y6828D01*
X13320Y6838D01*
X13310D01*
X13300Y6848D01*
X13290Y6838D01*
X13280D01*
X13290Y6828D01*
X13280Y6818D01*
X13290D01*
X13300Y6808D01*
X13130Y7108D02*
X13140Y7128D01*
X13130Y7148D01*
X13150Y7138D01*
X13170Y7148D01*
X13160Y7128D01*
X13170Y7108D01*
X13150Y7118D01*
X13130Y7108D01*
X13160Y6518D02*
X13150Y6508D01*
X13160Y6518D02*
X13170D01*
X13160Y6528D01*
X13170Y6538D01*
X13160D01*
X13150Y6548D01*
X13140Y6538D01*
X13130D01*
X13140Y6528D01*
X13130Y6518D01*
X13140D01*
X13150Y6508D01*
X12995Y8328D02*
X12993Y8320D01*
X12988Y8313D01*
X12981Y8309D01*
X12973Y8308D01*
X12965Y8311D01*
X12959Y8316D01*
X12955Y8324D01*
Y8332D01*
X12959Y8340D01*
X12965Y8345D01*
X12973Y8348D01*
X12981Y8347D01*
X12988Y8343D01*
X12993Y8336D01*
X12995Y8328D01*
Y8028D02*
X12993Y8020D01*
X12988Y8013D01*
X12981Y8009D01*
X12973Y8008D01*
X12965Y8011D01*
X12959Y8016D01*
X12955Y8024D01*
Y8032D01*
X12959Y8040D01*
X12965Y8045D01*
X12973Y8048D01*
X12981Y8047D01*
X12988Y8043D01*
X12993Y8036D01*
X12995Y8028D01*
Y7653D02*
X12993Y7645D01*
X12988Y7638D01*
X12981Y7634D01*
X12973Y7633D01*
X12965Y7636D01*
X12959Y7641D01*
X12955Y7649D01*
Y7657D01*
X12959Y7665D01*
X12965Y7670D01*
X12973Y7673D01*
X12981Y7672D01*
X12988Y7668D01*
X12993Y7661D01*
X12995Y7653D01*
Y7753D02*
X12993Y7745D01*
X12988Y7738D01*
X12981Y7734D01*
X12973Y7733D01*
X12965Y7736D01*
X12959Y7741D01*
X12955Y7749D01*
Y7757D01*
X12959Y7765D01*
X12965Y7770D01*
X12973Y7773D01*
X12981Y7772D01*
X12988Y7768D01*
X12993Y7761D01*
X12995Y7753D01*
X13095Y8028D02*
X13093Y8020D01*
X13088Y8013D01*
X13081Y8009D01*
X13073Y8008D01*
X13065Y8011D01*
X13059Y8016D01*
X13055Y8024D01*
Y8032D01*
X13059Y8040D01*
X13065Y8045D01*
X13073Y8048D01*
X13081Y8047D01*
X13088Y8043D01*
X13093Y8036D01*
X13095Y8028D01*
X13195D02*
X13193Y8020D01*
X13188Y8013D01*
X13181Y8009D01*
X13173Y8008D01*
X13165Y8011D01*
X13159Y8016D01*
X13155Y8024D01*
Y8032D01*
X13159Y8040D01*
X13165Y8045D01*
X13173Y8048D01*
X13181Y8047D01*
X13188Y8043D01*
X13193Y8036D01*
X13195Y8028D01*
X13295D02*
X13293Y8020D01*
X13288Y8013D01*
X13281Y8009D01*
X13273Y8008D01*
X13265Y8011D01*
X13259Y8016D01*
X13255Y8024D01*
Y8032D01*
X13259Y8040D01*
X13265Y8045D01*
X13273Y8048D01*
X13281Y8047D01*
X13288Y8043D01*
X13293Y8036D01*
X13295Y8028D01*
X13395D02*
X13393Y8020D01*
X13388Y8013D01*
X13381Y8009D01*
X13373Y8008D01*
X13365Y8011D01*
X13359Y8016D01*
X13355Y8024D01*
Y8032D01*
X13359Y8040D01*
X13365Y8045D01*
X13373Y8048D01*
X13381Y8047D01*
X13388Y8043D01*
X13393Y8036D01*
X13395Y8028D01*
Y8328D02*
X13393Y8320D01*
X13388Y8313D01*
X13381Y8309D01*
X13373Y8308D01*
X13365Y8311D01*
X13359Y8316D01*
X13355Y8324D01*
Y8332D01*
X13359Y8340D01*
X13365Y8345D01*
X13373Y8348D01*
X13381Y8347D01*
X13388Y8343D01*
X13393Y8336D01*
X13395Y8328D01*
X13295D02*
X13293Y8320D01*
X13288Y8313D01*
X13281Y8309D01*
X13273Y8308D01*
X13265Y8311D01*
X13259Y8316D01*
X13255Y8324D01*
Y8332D01*
X13259Y8340D01*
X13265Y8345D01*
X13273Y8348D01*
X13281Y8347D01*
X13288Y8343D01*
X13293Y8336D01*
X13295Y8328D01*
X13195D02*
X13193Y8320D01*
X13188Y8313D01*
X13181Y8309D01*
X13173Y8308D01*
X13165Y8311D01*
X13159Y8316D01*
X13155Y8324D01*
Y8332D01*
X13159Y8340D01*
X13165Y8345D01*
X13173Y8348D01*
X13181Y8347D01*
X13188Y8343D01*
X13193Y8336D01*
X13195Y8328D01*
X13095D02*
X13093Y8320D01*
X13088Y8313D01*
X13081Y8309D01*
X13073Y8308D01*
X13065Y8311D01*
X13059Y8316D01*
X13055Y8324D01*
Y8332D01*
X13059Y8340D01*
X13065Y8345D01*
X13073Y8348D01*
X13081Y8347D01*
X13088Y8343D01*
X13093Y8336D01*
X13095Y8328D01*
X13495Y8028D02*
X13493Y8020D01*
X13488Y8013D01*
X13481Y8009D01*
X13473Y8008D01*
X13465Y8011D01*
X13459Y8016D01*
X13455Y8024D01*
Y8032D01*
X13459Y8040D01*
X13465Y8045D01*
X13473Y8048D01*
X13481Y8047D01*
X13488Y8043D01*
X13493Y8036D01*
X13495Y8028D01*
Y8328D02*
X13493Y8320D01*
X13488Y8313D01*
X13481Y8309D01*
X13473Y8308D01*
X13465Y8311D01*
X13459Y8316D01*
X13455Y8324D01*
Y8332D01*
X13459Y8340D01*
X13465Y8345D01*
X13473Y8348D01*
X13481Y8347D01*
X13488Y8343D01*
X13493Y8336D01*
X13495Y8328D01*
X13595D02*
X13593Y8320D01*
X13588Y8313D01*
X13581Y8309D01*
X13573Y8308D01*
X13565Y8311D01*
X13559Y8316D01*
X13555Y8324D01*
Y8332D01*
X13559Y8340D01*
X13565Y8345D01*
X13573Y8348D01*
X13581Y8347D01*
X13588Y8343D01*
X13593Y8336D01*
X13595Y8328D01*
Y8028D02*
X13593Y8020D01*
X13588Y8013D01*
X13581Y8009D01*
X13573Y8008D01*
X13565Y8011D01*
X13559Y8016D01*
X13555Y8024D01*
Y8032D01*
X13559Y8040D01*
X13565Y8045D01*
X13573Y8048D01*
X13581Y8047D01*
X13588Y8043D01*
X13593Y8036D01*
X13595Y8028D01*
Y7628D02*
X13593Y7620D01*
X13588Y7613D01*
X13581Y7609D01*
X13573Y7608D01*
X13565Y7611D01*
X13559Y7616D01*
X13555Y7624D01*
Y7632D01*
X13559Y7640D01*
X13565Y7645D01*
X13573Y7648D01*
X13581Y7647D01*
X13588Y7643D01*
X13593Y7636D01*
X13595Y7628D01*
Y7728D02*
X13593Y7720D01*
X13588Y7713D01*
X13581Y7709D01*
X13573Y7708D01*
X13565Y7711D01*
X13559Y7716D01*
X13555Y7724D01*
Y7732D01*
X13559Y7740D01*
X13565Y7745D01*
X13573Y7748D01*
X13581Y7747D01*
X13588Y7743D01*
X13593Y7736D01*
X13595Y7728D01*
X13195Y7878D02*
X13193Y7870D01*
X13188Y7863D01*
X13181Y7859D01*
X13173Y7858D01*
X13165Y7861D01*
X13159Y7866D01*
X13155Y7874D01*
Y7882D01*
X13159Y7890D01*
X13165Y7895D01*
X13173Y7898D01*
X13181Y7897D01*
X13188Y7893D01*
X13193Y7886D01*
X13195Y7878D01*
Y7478D02*
X13193Y7470D01*
X13188Y7463D01*
X13181Y7459D01*
X13173Y7458D01*
X13165Y7461D01*
X13159Y7466D01*
X13155Y7474D01*
Y7482D01*
X13159Y7490D01*
X13165Y7495D01*
X13173Y7498D01*
X13181Y7497D01*
X13188Y7493D01*
X13193Y7486D01*
X13195Y7478D01*
X13095Y7878D02*
X13093Y7870D01*
X13088Y7863D01*
X13081Y7859D01*
X13073Y7858D01*
X13065Y7861D01*
X13059Y7866D01*
X13055Y7874D01*
Y7882D01*
X13059Y7890D01*
X13065Y7895D01*
X13073Y7898D01*
X13081Y7897D01*
X13088Y7893D01*
X13093Y7886D01*
X13095Y7878D01*
Y7478D02*
X13093Y7470D01*
X13088Y7463D01*
X13081Y7459D01*
X13073Y7458D01*
X13065Y7461D01*
X13059Y7466D01*
X13055Y7474D01*
Y7482D01*
X13059Y7490D01*
X13065Y7495D01*
X13073Y7498D01*
X13081Y7497D01*
X13088Y7493D01*
X13093Y7486D01*
X13095Y7478D01*
X12895Y8028D02*
X12893Y8020D01*
X12888Y8013D01*
X12881Y8009D01*
X12873Y8008D01*
X12865Y8011D01*
X12859Y8016D01*
X12855Y8024D01*
Y8032D01*
X12859Y8040D01*
X12865Y8045D01*
X12873Y8048D01*
X12881Y8047D01*
X12888Y8043D01*
X12893Y8036D01*
X12895Y8028D01*
Y8328D02*
X12893Y8320D01*
X12888Y8313D01*
X12881Y8309D01*
X12873Y8308D01*
X12865Y8311D01*
X12859Y8316D01*
X12855Y8324D01*
Y8332D01*
X12859Y8340D01*
X12865Y8345D01*
X12873Y8348D01*
X12881Y8347D01*
X12888Y8343D01*
X12893Y8336D01*
X12895Y8328D01*
X12595Y7878D02*
X12593Y7870D01*
X12588Y7863D01*
X12581Y7859D01*
X12573Y7858D01*
X12565Y7861D01*
X12559Y7866D01*
X12555Y7874D01*
Y7882D01*
X12559Y7890D01*
X12565Y7895D01*
X12573Y7898D01*
X12581Y7897D01*
X12588Y7893D01*
X12593Y7886D01*
X12595Y7878D01*
Y7378D02*
X12593Y7370D01*
X12588Y7363D01*
X12581Y7359D01*
X12573Y7358D01*
X12565Y7361D01*
X12559Y7366D01*
X12555Y7374D01*
Y7382D01*
X12559Y7390D01*
X12565Y7395D01*
X12573Y7398D01*
X12581Y7397D01*
X12588Y7393D01*
X12593Y7386D01*
X12595Y7378D01*
X12295Y7878D02*
X12293Y7870D01*
X12288Y7863D01*
X12281Y7859D01*
X12273Y7858D01*
X12265Y7861D01*
X12259Y7866D01*
X12255Y7874D01*
Y7882D01*
X12259Y7890D01*
X12265Y7895D01*
X12273Y7898D01*
X12281Y7897D01*
X12288Y7893D01*
X12293Y7886D01*
X12295Y7878D01*
Y7378D02*
X12293Y7370D01*
X12288Y7363D01*
X12281Y7359D01*
X12273Y7358D01*
X12265Y7361D01*
X12259Y7366D01*
X12255Y7374D01*
Y7382D01*
X12259Y7390D01*
X12265Y7395D01*
X12273Y7398D01*
X12281Y7397D01*
X12288Y7393D01*
X12293Y7386D01*
X12295Y7378D01*
X12095Y8028D02*
X12093Y8020D01*
X12088Y8013D01*
X12081Y8009D01*
X12073Y8008D01*
X12065Y8011D01*
X12059Y8016D01*
X12055Y8024D01*
Y8032D01*
X12059Y8040D01*
X12065Y8045D01*
X12073Y8048D01*
X12081Y8047D01*
X12088Y8043D01*
X12093Y8036D01*
X12095Y8028D01*
X12195D02*
X12193Y8020D01*
X12188Y8013D01*
X12181Y8009D01*
X12173Y8008D01*
X12165Y8011D01*
X12159Y8016D01*
X12155Y8024D01*
Y8032D01*
X12159Y8040D01*
X12165Y8045D01*
X12173Y8048D01*
X12181Y8047D01*
X12188Y8043D01*
X12193Y8036D01*
X12195Y8028D01*
X12495D02*
X12493Y8020D01*
X12488Y8013D01*
X12481Y8009D01*
X12473Y8008D01*
X12465Y8011D01*
X12459Y8016D01*
X12455Y8024D01*
Y8032D01*
X12459Y8040D01*
X12465Y8045D01*
X12473Y8048D01*
X12481Y8047D01*
X12488Y8043D01*
X12493Y8036D01*
X12495Y8028D01*
X12595D02*
X12593Y8020D01*
X12588Y8013D01*
X12581Y8009D01*
X12573Y8008D01*
X12565Y8011D01*
X12559Y8016D01*
X12555Y8024D01*
Y8032D01*
X12559Y8040D01*
X12565Y8045D01*
X12573Y8048D01*
X12581Y8047D01*
X12588Y8043D01*
X12593Y8036D01*
X12595Y8028D01*
X12695D02*
X12693Y8020D01*
X12688Y8013D01*
X12681Y8009D01*
X12673Y8008D01*
X12665Y8011D01*
X12659Y8016D01*
X12655Y8024D01*
Y8032D01*
X12659Y8040D01*
X12665Y8045D01*
X12673Y8048D01*
X12681Y8047D01*
X12688Y8043D01*
X12693Y8036D01*
X12695Y8028D01*
X12795D02*
X12793Y8020D01*
X12788Y8013D01*
X12781Y8009D01*
X12773Y8008D01*
X12765Y8011D01*
X12759Y8016D01*
X12755Y8024D01*
Y8032D01*
X12759Y8040D01*
X12765Y8045D01*
X12773Y8048D01*
X12781Y8047D01*
X12788Y8043D01*
X12793Y8036D01*
X12795Y8028D01*
Y8328D02*
X12793Y8320D01*
X12788Y8313D01*
X12781Y8309D01*
X12773Y8308D01*
X12765Y8311D01*
X12759Y8316D01*
X12755Y8324D01*
Y8332D01*
X12759Y8340D01*
X12765Y8345D01*
X12773Y8348D01*
X12781Y8347D01*
X12788Y8343D01*
X12793Y8336D01*
X12795Y8328D01*
X12695D02*
X12693Y8320D01*
X12688Y8313D01*
X12681Y8309D01*
X12673Y8308D01*
X12665Y8311D01*
X12659Y8316D01*
X12655Y8324D01*
Y8332D01*
X12659Y8340D01*
X12665Y8345D01*
X12673Y8348D01*
X12681Y8347D01*
X12688Y8343D01*
X12693Y8336D01*
X12695Y8328D01*
X12595D02*
X12593Y8320D01*
X12588Y8313D01*
X12581Y8309D01*
X12573Y8308D01*
X12565Y8311D01*
X12559Y8316D01*
X12555Y8324D01*
Y8332D01*
X12559Y8340D01*
X12565Y8345D01*
X12573Y8348D01*
X12581Y8347D01*
X12588Y8343D01*
X12593Y8336D01*
X12595Y8328D01*
X12495D02*
X12493Y8320D01*
X12488Y8313D01*
X12481Y8309D01*
X12473Y8308D01*
X12465Y8311D01*
X12459Y8316D01*
X12455Y8324D01*
Y8332D01*
X12459Y8340D01*
X12465Y8345D01*
X12473Y8348D01*
X12481Y8347D01*
X12488Y8343D01*
X12493Y8336D01*
X12495Y8328D01*
X12395D02*
X12393Y8320D01*
X12388Y8313D01*
X12381Y8309D01*
X12373Y8308D01*
X12365Y8311D01*
X12359Y8316D01*
X12355Y8324D01*
Y8332D01*
X12359Y8340D01*
X12365Y8345D01*
X12373Y8348D01*
X12381Y8347D01*
X12388Y8343D01*
X12393Y8336D01*
X12395Y8328D01*
X12295D02*
X12293Y8320D01*
X12288Y8313D01*
X12281Y8309D01*
X12273Y8308D01*
X12265Y8311D01*
X12259Y8316D01*
X12255Y8324D01*
Y8332D01*
X12259Y8340D01*
X12265Y8345D01*
X12273Y8348D01*
X12281Y8347D01*
X12288Y8343D01*
X12293Y8336D01*
X12295Y8328D01*
X12195D02*
X12193Y8320D01*
X12188Y8313D01*
X12181Y8309D01*
X12173Y8308D01*
X12165Y8311D01*
X12159Y8316D01*
X12155Y8324D01*
Y8332D01*
X12159Y8340D01*
X12165Y8345D01*
X12173Y8348D01*
X12181Y8347D01*
X12188Y8343D01*
X12193Y8336D01*
X12195Y8328D01*
X12095D02*
X12093Y8320D01*
X12088Y8313D01*
X12081Y8309D01*
X12073Y8308D01*
X12065Y8311D01*
X12059Y8316D01*
X12055Y8324D01*
Y8332D01*
X12059Y8340D01*
X12065Y8345D01*
X12073Y8348D01*
X12081Y8347D01*
X12088Y8343D01*
X12093Y8336D01*
X12095Y8328D01*
X12295Y8028D02*
X12293Y8020D01*
X12288Y8013D01*
X12281Y8009D01*
X12273Y8008D01*
X12265Y8011D01*
X12259Y8016D01*
X12255Y8024D01*
Y8032D01*
X12259Y8040D01*
X12265Y8045D01*
X12273Y8048D01*
X12281Y8047D01*
X12288Y8043D01*
X12293Y8036D01*
X12295Y8028D01*
X12395D02*
X12393Y8020D01*
X12388Y8013D01*
X12381Y8009D01*
X12373Y8008D01*
X12365Y8011D01*
X12359Y8016D01*
X12355Y8024D01*
Y8032D01*
X12359Y8040D01*
X12365Y8045D01*
X12373Y8048D01*
X12381Y8047D01*
X12388Y8043D01*
X12393Y8036D01*
X12395Y8028D01*
X13870Y8628D02*
X13868Y8620D01*
X13863Y8613D01*
X13856Y8609D01*
X13848Y8608D01*
X13840Y8611D01*
X13834Y8616D01*
X13830Y8624D01*
Y8632D01*
X13834Y8640D01*
X13840Y8645D01*
X13848Y8648D01*
X13856Y8647D01*
X13863Y8643D01*
X13868Y8636D01*
X13870Y8628D01*
Y8528D02*
X13868Y8520D01*
X13863Y8513D01*
X13856Y8509D01*
X13848Y8508D01*
X13840Y8511D01*
X13834Y8516D01*
X13830Y8524D01*
Y8532D01*
X13834Y8540D01*
X13840Y8545D01*
X13848Y8548D01*
X13856Y8547D01*
X13863Y8543D01*
X13868Y8536D01*
X13870Y8528D01*
X13770Y8628D02*
X13768Y8620D01*
X13763Y8613D01*
X13756Y8609D01*
X13748Y8608D01*
X13740Y8611D01*
X13734Y8616D01*
X13730Y8624D01*
Y8632D01*
X13734Y8640D01*
X13740Y8645D01*
X13748Y8648D01*
X13756Y8647D01*
X13763Y8643D01*
X13768Y8636D01*
X13770Y8628D01*
Y8528D02*
X13768Y8520D01*
X13763Y8513D01*
X13756Y8509D01*
X13748Y8508D01*
X13740Y8511D01*
X13734Y8516D01*
X13730Y8524D01*
Y8532D01*
X13734Y8540D01*
X13740Y8545D01*
X13748Y8548D01*
X13756Y8547D01*
X13763Y8543D01*
X13768Y8536D01*
X13770Y8528D01*
X13670Y8628D02*
X13668Y8620D01*
X13663Y8613D01*
X13656Y8609D01*
X13648Y8608D01*
X13640Y8611D01*
X13634Y8616D01*
X13630Y8624D01*
Y8632D01*
X13634Y8640D01*
X13640Y8645D01*
X13648Y8648D01*
X13656Y8647D01*
X13663Y8643D01*
X13668Y8636D01*
X13670Y8628D01*
Y8528D02*
X13668Y8520D01*
X13663Y8513D01*
X13656Y8509D01*
X13648Y8508D01*
X13640Y8511D01*
X13634Y8516D01*
X13630Y8524D01*
Y8532D01*
X13634Y8540D01*
X13640Y8545D01*
X13648Y8548D01*
X13656Y8547D01*
X13663Y8543D01*
X13668Y8536D01*
X13670Y8528D01*
X13570Y8628D02*
X13568Y8620D01*
X13563Y8613D01*
X13556Y8609D01*
X13548Y8608D01*
X13540Y8611D01*
X13534Y8616D01*
X13530Y8624D01*
Y8632D01*
X13534Y8640D01*
X13540Y8645D01*
X13548Y8648D01*
X13556Y8647D01*
X13563Y8643D01*
X13568Y8636D01*
X13570Y8628D01*
Y8528D02*
X13568Y8520D01*
X13563Y8513D01*
X13556Y8509D01*
X13548Y8508D01*
X13540Y8511D01*
X13534Y8516D01*
X13530Y8524D01*
Y8532D01*
X13534Y8540D01*
X13540Y8545D01*
X13548Y8548D01*
X13556Y8547D01*
X13563Y8543D01*
X13568Y8536D01*
X13570Y8528D01*
X13470Y8628D02*
X13468Y8620D01*
X13463Y8613D01*
X13456Y8609D01*
X13448Y8608D01*
X13440Y8611D01*
X13434Y8616D01*
X13430Y8624D01*
Y8632D01*
X13434Y8640D01*
X13440Y8645D01*
X13448Y8648D01*
X13456Y8647D01*
X13463Y8643D01*
X13468Y8636D01*
X13470Y8628D01*
Y8528D02*
X13468Y8520D01*
X13463Y8513D01*
X13456Y8509D01*
X13448Y8508D01*
X13440Y8511D01*
X13434Y8516D01*
X13430Y8524D01*
Y8532D01*
X13434Y8540D01*
X13440Y8545D01*
X13448Y8548D01*
X13456Y8547D01*
X13463Y8543D01*
X13468Y8536D01*
X13470Y8528D01*
X12995Y8728D02*
X12993Y8720D01*
X12988Y8713D01*
X12981Y8709D01*
X12973Y8708D01*
X12965Y8711D01*
X12959Y8716D01*
X12955Y8724D01*
Y8732D01*
X12959Y8740D01*
X12965Y8745D01*
X12973Y8748D01*
X12981Y8747D01*
X12988Y8743D01*
X12993Y8736D01*
X12995Y8728D01*
Y8628D02*
X12993Y8620D01*
X12988Y8613D01*
X12981Y8609D01*
X12973Y8608D01*
X12965Y8611D01*
X12959Y8616D01*
X12955Y8624D01*
Y8632D01*
X12959Y8640D01*
X12965Y8645D01*
X12973Y8648D01*
X12981Y8647D01*
X12988Y8643D01*
X12993Y8636D01*
X12995Y8628D01*
X13095Y8478D02*
X13093Y8470D01*
X13088Y8463D01*
X13081Y8459D01*
X13073Y8458D01*
X13065Y8461D01*
X13059Y8466D01*
X13055Y8474D01*
Y8482D01*
X13059Y8490D01*
X13065Y8495D01*
X13073Y8498D01*
X13081Y8497D01*
X13088Y8493D01*
X13093Y8486D01*
X13095Y8478D01*
Y8878D02*
X13093Y8870D01*
X13088Y8863D01*
X13081Y8859D01*
X13073Y8858D01*
X13065Y8861D01*
X13059Y8866D01*
X13055Y8874D01*
Y8882D01*
X13059Y8890D01*
X13065Y8895D01*
X13073Y8898D01*
X13081Y8897D01*
X13088Y8893D01*
X13093Y8886D01*
X13095Y8878D01*
X13195Y8478D02*
X13193Y8470D01*
X13188Y8463D01*
X13181Y8459D01*
X13173Y8458D01*
X13165Y8461D01*
X13159Y8466D01*
X13155Y8474D01*
Y8482D01*
X13159Y8490D01*
X13165Y8495D01*
X13173Y8498D01*
X13181Y8497D01*
X13188Y8493D01*
X13193Y8486D01*
X13195Y8478D01*
Y8878D02*
X13193Y8870D01*
X13188Y8863D01*
X13181Y8859D01*
X13173Y8858D01*
X13165Y8861D01*
X13159Y8866D01*
X13155Y8874D01*
Y8882D01*
X13159Y8890D01*
X13165Y8895D01*
X13173Y8898D01*
X13181Y8897D01*
X13188Y8893D01*
X13193Y8886D01*
X13195Y8878D01*
X12445Y8478D02*
X12443Y8470D01*
X12438Y8463D01*
X12431Y8459D01*
X12423Y8458D01*
X12415Y8461D01*
X12409Y8466D01*
X12405Y8474D01*
Y8482D01*
X12409Y8490D01*
X12415Y8495D01*
X12423Y8498D01*
X12431Y8497D01*
X12438Y8493D01*
X12443Y8486D01*
X12445Y8478D01*
Y8878D02*
X12443Y8870D01*
X12438Y8863D01*
X12431Y8859D01*
X12423Y8858D01*
X12415Y8861D01*
X12409Y8866D01*
X12405Y8874D01*
Y8882D01*
X12409Y8890D01*
X12415Y8895D01*
X12423Y8898D01*
X12431Y8897D01*
X12438Y8893D01*
X12443Y8886D01*
X12445Y8878D01*
X12595Y8478D02*
X12593Y8470D01*
X12588Y8463D01*
X12581Y8459D01*
X12573Y8458D01*
X12565Y8461D01*
X12559Y8466D01*
X12555Y8474D01*
Y8482D01*
X12559Y8490D01*
X12565Y8495D01*
X12573Y8498D01*
X12581Y8497D01*
X12588Y8493D01*
X12593Y8486D01*
X12595Y8478D01*
Y8978D02*
X12593Y8970D01*
X12588Y8963D01*
X12581Y8959D01*
X12573Y8958D01*
X12565Y8961D01*
X12559Y8966D01*
X12555Y8974D01*
Y8982D01*
X12559Y8990D01*
X12565Y8995D01*
X12573Y8998D01*
X12581Y8997D01*
X12588Y8993D01*
X12593Y8986D01*
X12595Y8978D01*
X12295Y8478D02*
X12293Y8470D01*
X12288Y8463D01*
X12281Y8459D01*
X12273Y8458D01*
X12265Y8461D01*
X12259Y8466D01*
X12255Y8474D01*
Y8482D01*
X12259Y8490D01*
X12265Y8495D01*
X12273Y8498D01*
X12281Y8497D01*
X12288Y8493D01*
X12293Y8486D01*
X12295Y8478D01*
Y8978D02*
X12293Y8970D01*
X12288Y8963D01*
X12281Y8959D01*
X12273Y8958D01*
X12265Y8961D01*
X12259Y8966D01*
X12255Y8974D01*
Y8982D01*
X12259Y8990D01*
X12265Y8995D01*
X12273Y8998D01*
X12281Y8997D01*
X12288Y8993D01*
X12293Y8986D01*
X12295Y8978D01*
X13990Y6628D02*
X13980Y6608D01*
X13990Y6628D02*
X13980Y6648D01*
X14000Y6638D01*
X14020Y6648D01*
X14010Y6628D01*
X14020Y6608D01*
X14000Y6618D01*
X13980Y6608D01*
X14280D02*
X14290Y6628D01*
X14280Y6648D01*
X14300Y6638D01*
X14320Y6648D01*
X14310Y6628D01*
X14320Y6608D01*
X14300Y6618D01*
X14280Y6608D01*
X14400Y7008D02*
X14410Y7018D01*
X14420D01*
X14410Y7028D01*
X14420Y7038D01*
X14410D01*
X14400Y7048D01*
X14390Y7038D01*
X14380D01*
X14390Y7028D01*
X14380Y7018D01*
X14390D01*
X14400Y7008D01*
X14310Y6818D02*
X14300Y6808D01*
X14310Y6818D02*
X14320D01*
X14310Y6828D01*
X14320Y6838D01*
X14310D01*
X14300Y6848D01*
X14290Y6838D01*
X14280D01*
X14290Y6828D01*
X14280Y6818D01*
X14290D01*
X14300Y6808D01*
X14130Y7108D02*
X14140Y7128D01*
X14130Y7148D01*
X14150Y7138D01*
X14170Y7148D01*
X14160Y7128D01*
X14170Y7108D01*
X14150Y7118D01*
X14130Y7108D01*
X14160Y6518D02*
X14150Y6508D01*
X14160Y6518D02*
X14170D01*
X14160Y6528D01*
X14170Y6538D01*
X14160D01*
X14150Y6548D01*
X14140Y6538D01*
X14130D01*
X14140Y6528D01*
X14130Y6518D01*
X14140D01*
X14150Y6508D01*
X13695Y7878D02*
X13693Y7870D01*
X13688Y7863D01*
X13681Y7859D01*
X13673Y7858D01*
X13665Y7861D01*
X13659Y7866D01*
X13655Y7874D01*
Y7882D01*
X13659Y7890D01*
X13665Y7895D01*
X13673Y7898D01*
X13681Y7897D01*
X13688Y7893D01*
X13693Y7886D01*
X13695Y7878D01*
Y7478D02*
X13693Y7470D01*
X13688Y7463D01*
X13681Y7459D01*
X13673Y7458D01*
X13665Y7461D01*
X13659Y7466D01*
X13655Y7474D01*
Y7482D01*
X13659Y7490D01*
X13665Y7495D01*
X13673Y7498D01*
X13681Y7497D01*
X13688Y7493D01*
X13693Y7486D01*
X13695Y7478D01*
X13795Y7878D02*
X13793Y7870D01*
X13788Y7863D01*
X13781Y7859D01*
X13773Y7858D01*
X13765Y7861D01*
X13759Y7866D01*
X13755Y7874D01*
Y7882D01*
X13759Y7890D01*
X13765Y7895D01*
X13773Y7898D01*
X13781Y7897D01*
X13788Y7893D01*
X13793Y7886D01*
X13795Y7878D01*
Y7478D02*
X13793Y7470D01*
X13788Y7463D01*
X13781Y7459D01*
X13773Y7458D01*
X13765Y7461D01*
X13759Y7466D01*
X13755Y7474D01*
Y7482D01*
X13759Y7490D01*
X13765Y7495D01*
X13773Y7498D01*
X13781Y7497D01*
X13788Y7493D01*
X13793Y7486D01*
X13795Y7478D01*
X13895Y7878D02*
X13893Y7870D01*
X13888Y7863D01*
X13881Y7859D01*
X13873Y7858D01*
X13865Y7861D01*
X13859Y7866D01*
X13855Y7874D01*
Y7882D01*
X13859Y7890D01*
X13865Y7895D01*
X13873Y7898D01*
X13881Y7897D01*
X13888Y7893D01*
X13893Y7886D01*
X13895Y7878D01*
Y7478D02*
X13893Y7470D01*
X13888Y7463D01*
X13881Y7459D01*
X13873Y7458D01*
X13865Y7461D01*
X13859Y7466D01*
X13855Y7474D01*
Y7482D01*
X13859Y7490D01*
X13865Y7495D01*
X13873Y7498D01*
X13881Y7497D01*
X13888Y7493D01*
X13893Y7486D01*
X13895Y7478D01*
X13995Y7878D02*
X13993Y7870D01*
X13988Y7863D01*
X13981Y7859D01*
X13973Y7858D01*
X13965Y7861D01*
X13959Y7866D01*
X13955Y7874D01*
Y7882D01*
X13959Y7890D01*
X13965Y7895D01*
X13973Y7898D01*
X13981Y7897D01*
X13988Y7893D01*
X13993Y7886D01*
X13995Y7878D01*
Y7478D02*
X13993Y7470D01*
X13988Y7463D01*
X13981Y7459D01*
X13973Y7458D01*
X13965Y7461D01*
X13959Y7466D01*
X13955Y7474D01*
Y7482D01*
X13959Y7490D01*
X13965Y7495D01*
X13973Y7498D01*
X13981Y7497D01*
X13988Y7493D01*
X13993Y7486D01*
X13995Y7478D01*
X14095Y7728D02*
X14093Y7720D01*
X14088Y7713D01*
X14081Y7709D01*
X14073Y7708D01*
X14065Y7711D01*
X14059Y7716D01*
X14055Y7724D01*
Y7732D01*
X14059Y7740D01*
X14065Y7745D01*
X14073Y7748D01*
X14081Y7747D01*
X14088Y7743D01*
X14093Y7736D01*
X14095Y7728D01*
Y7628D02*
X14093Y7620D01*
X14088Y7613D01*
X14081Y7609D01*
X14073Y7608D01*
X14065Y7611D01*
X14059Y7616D01*
X14055Y7624D01*
Y7632D01*
X14059Y7640D01*
X14065Y7645D01*
X14073Y7648D01*
X14081Y7647D01*
X14088Y7643D01*
X14093Y7636D01*
X14095Y7628D01*
X13695Y8028D02*
X13693Y8020D01*
X13688Y8013D01*
X13681Y8009D01*
X13673Y8008D01*
X13665Y8011D01*
X13659Y8016D01*
X13655Y8024D01*
Y8032D01*
X13659Y8040D01*
X13665Y8045D01*
X13673Y8048D01*
X13681Y8047D01*
X13688Y8043D01*
X13693Y8036D01*
X13695Y8028D01*
X13795D02*
X13793Y8020D01*
X13788Y8013D01*
X13781Y8009D01*
X13773Y8008D01*
X13765Y8011D01*
X13759Y8016D01*
X13755Y8024D01*
Y8032D01*
X13759Y8040D01*
X13765Y8045D01*
X13773Y8048D01*
X13781Y8047D01*
X13788Y8043D01*
X13793Y8036D01*
X13795Y8028D01*
X13895D02*
X13893Y8020D01*
X13888Y8013D01*
X13881Y8009D01*
X13873Y8008D01*
X13865Y8011D01*
X13859Y8016D01*
X13855Y8024D01*
Y8032D01*
X13859Y8040D01*
X13865Y8045D01*
X13873Y8048D01*
X13881Y8047D01*
X13888Y8043D01*
X13893Y8036D01*
X13895Y8028D01*
X13995D02*
X13993Y8020D01*
X13988Y8013D01*
X13981Y8009D01*
X13973Y8008D01*
X13965Y8011D01*
X13959Y8016D01*
X13955Y8024D01*
Y8032D01*
X13959Y8040D01*
X13965Y8045D01*
X13973Y8048D01*
X13981Y8047D01*
X13988Y8043D01*
X13993Y8036D01*
X13995Y8028D01*
Y8328D02*
X13993Y8320D01*
X13988Y8313D01*
X13981Y8309D01*
X13973Y8308D01*
X13965Y8311D01*
X13959Y8316D01*
X13955Y8324D01*
Y8332D01*
X13959Y8340D01*
X13965Y8345D01*
X13973Y8348D01*
X13981Y8347D01*
X13988Y8343D01*
X13993Y8336D01*
X13995Y8328D01*
X13895D02*
X13893Y8320D01*
X13888Y8313D01*
X13881Y8309D01*
X13873Y8308D01*
X13865Y8311D01*
X13859Y8316D01*
X13855Y8324D01*
Y8332D01*
X13859Y8340D01*
X13865Y8345D01*
X13873Y8348D01*
X13881Y8347D01*
X13888Y8343D01*
X13893Y8336D01*
X13895Y8328D01*
X13795D02*
X13793Y8320D01*
X13788Y8313D01*
X13781Y8309D01*
X13773Y8308D01*
X13765Y8311D01*
X13759Y8316D01*
X13755Y8324D01*
Y8332D01*
X13759Y8340D01*
X13765Y8345D01*
X13773Y8348D01*
X13781Y8347D01*
X13788Y8343D01*
X13793Y8336D01*
X13795Y8328D01*
X13695D02*
X13693Y8320D01*
X13688Y8313D01*
X13681Y8309D01*
X13673Y8308D01*
X13665Y8311D01*
X13659Y8316D01*
X13655Y8324D01*
Y8332D01*
X13659Y8340D01*
X13665Y8345D01*
X13673Y8348D01*
X13681Y8347D01*
X13688Y8343D01*
X13693Y8336D01*
X13695Y8328D01*
X14095Y8028D02*
X14093Y8020D01*
X14088Y8013D01*
X14081Y8009D01*
X14073Y8008D01*
X14065Y8011D01*
X14059Y8016D01*
X14055Y8024D01*
Y8032D01*
X14059Y8040D01*
X14065Y8045D01*
X14073Y8048D01*
X14081Y8047D01*
X14088Y8043D01*
X14093Y8036D01*
X14095Y8028D01*
Y8328D02*
X14093Y8320D01*
X14088Y8313D01*
X14081Y8309D01*
X14073Y8308D01*
X14065Y8311D01*
X14059Y8316D01*
X14055Y8324D01*
Y8332D01*
X14059Y8340D01*
X14065Y8345D01*
X14073Y8348D01*
X14081Y8347D01*
X14088Y8343D01*
X14093Y8336D01*
X14095Y8328D01*
X14195D02*
X14193Y8320D01*
X14188Y8313D01*
X14181Y8309D01*
X14173Y8308D01*
X14165Y8311D01*
X14159Y8316D01*
X14155Y8324D01*
Y8332D01*
X14159Y8340D01*
X14165Y8345D01*
X14173Y8348D01*
X14181Y8347D01*
X14188Y8343D01*
X14193Y8336D01*
X14195Y8328D01*
Y8028D02*
X14193Y8020D01*
X14188Y8013D01*
X14181Y8009D01*
X14173Y8008D01*
X14165Y8011D01*
X14159Y8016D01*
X14155Y8024D01*
Y8032D01*
X14159Y8040D01*
X14165Y8045D01*
X14173Y8048D01*
X14181Y8047D01*
X14188Y8043D01*
X14193Y8036D01*
X14195Y8028D01*
Y7628D02*
X14193Y7620D01*
X14188Y7613D01*
X14181Y7609D01*
X14173Y7608D01*
X14165Y7611D01*
X14159Y7616D01*
X14155Y7624D01*
Y7632D01*
X14159Y7640D01*
X14165Y7645D01*
X14173Y7648D01*
X14181Y7647D01*
X14188Y7643D01*
X14193Y7636D01*
X14195Y7628D01*
Y7728D02*
X14193Y7720D01*
X14188Y7713D01*
X14181Y7709D01*
X14173Y7708D01*
X14165Y7711D01*
X14159Y7716D01*
X14155Y7724D01*
Y7732D01*
X14159Y7740D01*
X14165Y7745D01*
X14173Y7748D01*
X14181Y7747D01*
X14188Y7743D01*
X14193Y7736D01*
X14195Y7728D01*
X14295Y7878D02*
X14293Y7870D01*
X14288Y7863D01*
X14281Y7859D01*
X14273Y7858D01*
X14265Y7861D01*
X14259Y7866D01*
X14255Y7874D01*
Y7882D01*
X14259Y7890D01*
X14265Y7895D01*
X14273Y7898D01*
X14281Y7897D01*
X14288Y7893D01*
X14293Y7886D01*
X14295Y7878D01*
Y7478D02*
X14293Y7470D01*
X14288Y7463D01*
X14281Y7459D01*
X14273Y7458D01*
X14265Y7461D01*
X14259Y7466D01*
X14255Y7474D01*
Y7482D01*
X14259Y7490D01*
X14265Y7495D01*
X14273Y7498D01*
X14281Y7497D01*
X14288Y7493D01*
X14293Y7486D01*
X14295Y7478D01*
X14395Y7878D02*
X14393Y7870D01*
X14388Y7863D01*
X14381Y7859D01*
X14373Y7858D01*
X14365Y7861D01*
X14359Y7866D01*
X14355Y7874D01*
Y7882D01*
X14359Y7890D01*
X14365Y7895D01*
X14373Y7898D01*
X14381Y7897D01*
X14388Y7893D01*
X14393Y7886D01*
X14395Y7878D01*
Y7478D02*
X14393Y7470D01*
X14388Y7463D01*
X14381Y7459D01*
X14373Y7458D01*
X14365Y7461D01*
X14359Y7466D01*
X14355Y7474D01*
Y7482D01*
X14359Y7490D01*
X14365Y7495D01*
X14373Y7498D01*
X14381Y7497D01*
X14388Y7493D01*
X14393Y7486D01*
X14395Y7478D01*
X14295Y8028D02*
X14293Y8020D01*
X14288Y8013D01*
X14281Y8009D01*
X14273Y8008D01*
X14265Y8011D01*
X14259Y8016D01*
X14255Y8024D01*
Y8032D01*
X14259Y8040D01*
X14265Y8045D01*
X14273Y8048D01*
X14281Y8047D01*
X14288Y8043D01*
X14293Y8036D01*
X14295Y8028D01*
X14395D02*
X14393Y8020D01*
X14388Y8013D01*
X14381Y8009D01*
X14373Y8008D01*
X14365Y8011D01*
X14359Y8016D01*
X14355Y8024D01*
Y8032D01*
X14359Y8040D01*
X14365Y8045D01*
X14373Y8048D01*
X14381Y8047D01*
X14388Y8043D01*
X14393Y8036D01*
X14395Y8028D01*
X14495D02*
X14493Y8020D01*
X14488Y8013D01*
X14481Y8009D01*
X14473Y8008D01*
X14465Y8011D01*
X14459Y8016D01*
X14455Y8024D01*
Y8032D01*
X14459Y8040D01*
X14465Y8045D01*
X14473Y8048D01*
X14481Y8047D01*
X14488Y8043D01*
X14493Y8036D01*
X14495Y8028D01*
X14595D02*
X14593Y8020D01*
X14588Y8013D01*
X14581Y8009D01*
X14573Y8008D01*
X14565Y8011D01*
X14559Y8016D01*
X14555Y8024D01*
Y8032D01*
X14559Y8040D01*
X14565Y8045D01*
X14573Y8048D01*
X14581Y8047D01*
X14588Y8043D01*
X14593Y8036D01*
X14595Y8028D01*
Y8328D02*
X14593Y8320D01*
X14588Y8313D01*
X14581Y8309D01*
X14573Y8308D01*
X14565Y8311D01*
X14559Y8316D01*
X14555Y8324D01*
Y8332D01*
X14559Y8340D01*
X14565Y8345D01*
X14573Y8348D01*
X14581Y8347D01*
X14588Y8343D01*
X14593Y8336D01*
X14595Y8328D01*
X14495D02*
X14493Y8320D01*
X14488Y8313D01*
X14481Y8309D01*
X14473Y8308D01*
X14465Y8311D01*
X14459Y8316D01*
X14455Y8324D01*
Y8332D01*
X14459Y8340D01*
X14465Y8345D01*
X14473Y8348D01*
X14481Y8347D01*
X14488Y8343D01*
X14493Y8336D01*
X14495Y8328D01*
X14395D02*
X14393Y8320D01*
X14388Y8313D01*
X14381Y8309D01*
X14373Y8308D01*
X14365Y8311D01*
X14359Y8316D01*
X14355Y8324D01*
Y8332D01*
X14359Y8340D01*
X14365Y8345D01*
X14373Y8348D01*
X14381Y8347D01*
X14388Y8343D01*
X14393Y8336D01*
X14395Y8328D01*
X14295D02*
X14293Y8320D01*
X14288Y8313D01*
X14281Y8309D01*
X14273Y8308D01*
X14265Y8311D01*
X14259Y8316D01*
X14255Y8324D01*
Y8332D01*
X14259Y8340D01*
X14265Y8345D01*
X14273Y8348D01*
X14281Y8347D01*
X14288Y8343D01*
X14293Y8336D01*
X14295Y8328D01*
X14745Y8028D02*
X14743Y8020D01*
X14738Y8013D01*
X14731Y8009D01*
X14723Y8008D01*
X14715Y8011D01*
X14709Y8016D01*
X14705Y8024D01*
Y8032D01*
X14709Y8040D01*
X14715Y8045D01*
X14723Y8048D01*
X14731Y8047D01*
X14738Y8043D01*
X14743Y8036D01*
X14745Y8028D01*
Y8328D02*
X14743Y8320D01*
X14738Y8313D01*
X14731Y8309D01*
X14723Y8308D01*
X14715Y8311D01*
X14709Y8316D01*
X14705Y8324D01*
Y8332D01*
X14709Y8340D01*
X14715Y8345D01*
X14723Y8348D01*
X14731Y8347D01*
X14738Y8343D01*
X14743Y8336D01*
X14745Y8328D01*
X14295Y8728D02*
X14293Y8720D01*
X14288Y8713D01*
X14281Y8709D01*
X14273Y8708D01*
X14265Y8711D01*
X14259Y8716D01*
X14255Y8724D01*
Y8732D01*
X14259Y8740D01*
X14265Y8745D01*
X14273Y8748D01*
X14281Y8747D01*
X14288Y8743D01*
X14293Y8736D01*
X14295Y8728D01*
Y8628D02*
X14293Y8620D01*
X14288Y8613D01*
X14281Y8609D01*
X14273Y8608D01*
X14265Y8611D01*
X14259Y8616D01*
X14255Y8624D01*
Y8632D01*
X14259Y8640D01*
X14265Y8645D01*
X14273Y8648D01*
X14281Y8647D01*
X14288Y8643D01*
X14293Y8636D01*
X14295Y8628D01*
X14395Y8478D02*
X14393Y8470D01*
X14388Y8463D01*
X14381Y8459D01*
X14373Y8458D01*
X14365Y8461D01*
X14359Y8466D01*
X14355Y8474D01*
Y8482D01*
X14359Y8490D01*
X14365Y8495D01*
X14373Y8498D01*
X14381Y8497D01*
X14388Y8493D01*
X14393Y8486D01*
X14395Y8478D01*
Y8878D02*
X14393Y8870D01*
X14388Y8863D01*
X14381Y8859D01*
X14373Y8858D01*
X14365Y8861D01*
X14359Y8866D01*
X14355Y8874D01*
Y8882D01*
X14359Y8890D01*
X14365Y8895D01*
X14373Y8898D01*
X14381Y8897D01*
X14388Y8893D01*
X14393Y8886D01*
X14395Y8878D01*
X14495Y8478D02*
X14493Y8470D01*
X14488Y8463D01*
X14481Y8459D01*
X14473Y8458D01*
X14465Y8461D01*
X14459Y8466D01*
X14455Y8474D01*
Y8482D01*
X14459Y8490D01*
X14465Y8495D01*
X14473Y8498D01*
X14481Y8497D01*
X14488Y8493D01*
X14493Y8486D01*
X14495Y8478D01*
Y8878D02*
X14493Y8870D01*
X14488Y8863D01*
X14481Y8859D01*
X14473Y8858D01*
X14465Y8861D01*
X14459Y8866D01*
X14455Y8874D01*
Y8882D01*
X14459Y8890D01*
X14465Y8895D01*
X14473Y8898D01*
X14481Y8897D01*
X14488Y8893D01*
X14493Y8886D01*
X14495Y8878D01*
X14990Y6628D02*
X14980Y6608D01*
X14990Y6628D02*
X14980Y6648D01*
X15000Y6638D01*
X15020Y6648D01*
X15010Y6628D01*
X15020Y6608D01*
X15000Y6618D01*
X14980Y6608D01*
X15280D02*
X15290Y6628D01*
X15280Y6648D01*
X15300Y6638D01*
X15320Y6648D01*
X15310Y6628D01*
X15320Y6608D01*
X15300Y6618D01*
X15280Y6608D01*
X15400Y7008D02*
X15410Y7018D01*
X15420D01*
X15410Y7028D01*
X15420Y7038D01*
X15410D01*
X15400Y7048D01*
X15390Y7038D01*
X15380D01*
X15390Y7028D01*
X15380Y7018D01*
X15390D01*
X15400Y7008D01*
X15310Y6818D02*
X15300Y6808D01*
X15310Y6818D02*
X15320D01*
X15310Y6828D01*
X15320Y6838D01*
X15310D01*
X15300Y6848D01*
X15290Y6838D01*
X15280D01*
X15290Y6828D01*
X15280Y6818D01*
X15290D01*
X15300Y6808D01*
X15130Y7108D02*
X15140Y7128D01*
X15130Y7148D01*
X15150Y7138D01*
X15170Y7148D01*
X15160Y7128D01*
X15170Y7108D01*
X15150Y7118D01*
X15130Y7108D01*
X15160Y6518D02*
X15150Y6508D01*
X15160Y6518D02*
X15170D01*
X15160Y6528D01*
X15170Y6538D01*
X15160D01*
X15150Y6548D01*
X15140Y6538D01*
X15130D01*
X15140Y6528D01*
X15130Y6518D01*
X15140D01*
X15150Y6508D01*
X15980Y6608D02*
X15990Y6628D01*
X15980Y6648D01*
X16000Y6638D01*
X16020Y6648D01*
X16010Y6628D01*
X16020Y6608D01*
X16000Y6618D01*
X15980Y6608D01*
X16280D02*
X16290Y6628D01*
X16280Y6648D01*
X16300Y6638D01*
X16320Y6648D01*
X16310Y6628D01*
X16320Y6608D01*
X16300Y6618D01*
X16280Y6608D01*
X16400Y7008D02*
X16410Y7018D01*
X16420D01*
X16410Y7028D01*
X16420Y7038D01*
X16410D01*
X16400Y7048D01*
X16390Y7038D01*
X16380D01*
X16390Y7028D01*
X16380Y7018D01*
X16390D01*
X16400Y7008D01*
X16310Y6818D02*
X16300Y6808D01*
X16310Y6818D02*
X16320D01*
X16310Y6828D01*
X16320Y6838D01*
X16310D01*
X16300Y6848D01*
X16290Y6838D01*
X16280D01*
X16290Y6828D01*
X16280Y6818D01*
X16290D01*
X16300Y6808D01*
X16130Y7108D02*
X16140Y7128D01*
X16130Y7148D01*
X16150Y7138D01*
X16170Y7148D01*
X16160Y7128D01*
X16170Y7108D01*
X16150Y7118D01*
X16130Y7108D01*
X16160Y6518D02*
X16150Y6508D01*
X16160Y6518D02*
X16170D01*
X16160Y6528D01*
X16170Y6538D01*
X16160D01*
X16150Y6548D01*
X16140Y6538D01*
X16130D01*
X16140Y6528D01*
X16130Y6518D01*
X16140D01*
X16150Y6508D01*
X15062Y8308D02*
X15052D01*
X15062D02*
X15072Y8318D01*
X15082Y8308D01*
X15092D01*
Y8318D01*
X15082Y8328D01*
X15092Y8338D01*
Y8348D01*
X15082D01*
X15072Y8338D01*
X15062Y8348D01*
X15052D01*
Y8338D01*
X15062Y8328D01*
X15052Y8318D01*
Y8308D01*
X15364D02*
X15374D01*
X15384Y8318D01*
X15394Y8308D01*
X15404D01*
Y8318D01*
X15394Y8328D01*
X15404Y8338D01*
Y8348D01*
X15394D01*
X15384Y8338D01*
X15374Y8348D01*
X15364D01*
Y8338D01*
X15374Y8328D01*
X15364Y8318D01*
Y8308D01*
X14906D02*
X14896D01*
X14906D02*
X14916Y8318D01*
X14926Y8308D01*
X14936D01*
Y8318D01*
X14926Y8328D01*
X14936Y8338D01*
Y8348D01*
X14926D01*
X14916Y8338D01*
X14906Y8348D01*
X14896D01*
Y8338D01*
X14906Y8328D01*
X14896Y8318D01*
Y8308D01*
X15208D02*
X15218D01*
X15228Y8318D01*
X15238Y8308D01*
X15248D01*
Y8318D01*
X15238Y8328D01*
X15248Y8338D01*
Y8348D01*
X15238D01*
X15228Y8338D01*
X15218Y8348D01*
X15208D01*
Y8338D01*
X15218Y8328D01*
X15208Y8318D01*
Y8308D01*
X16545Y8028D02*
X16543Y8020D01*
X16538Y8013D01*
X16531Y8009D01*
X16523Y8008D01*
X16515Y8011D01*
X16509Y8016D01*
X16505Y8024D01*
Y8032D01*
X16509Y8040D01*
X16515Y8045D01*
X16523Y8048D01*
X16531Y8047D01*
X16538Y8043D01*
X16543Y8036D01*
X16545Y8028D01*
Y8328D02*
X16543Y8320D01*
X16538Y8313D01*
X16531Y8309D01*
X16523Y8308D01*
X16515Y8311D01*
X16509Y8316D01*
X16505Y8324D01*
Y8332D01*
X16509Y8340D01*
X16515Y8345D01*
X16523Y8348D01*
X16531Y8347D01*
X16538Y8343D01*
X16543Y8336D01*
X16545Y8328D01*
X15945Y7878D02*
X15943Y7870D01*
X15938Y7863D01*
X15931Y7859D01*
X15923Y7858D01*
X15915Y7861D01*
X15909Y7866D01*
X15905Y7874D01*
Y7882D01*
X15909Y7890D01*
X15915Y7895D01*
X15923Y7898D01*
X15931Y7897D01*
X15938Y7893D01*
X15943Y7886D01*
X15945Y7878D01*
Y7378D02*
X15943Y7370D01*
X15938Y7363D01*
X15931Y7359D01*
X15923Y7358D01*
X15915Y7361D01*
X15909Y7366D01*
X15905Y7374D01*
Y7382D01*
X15909Y7390D01*
X15915Y7395D01*
X15923Y7398D01*
X15931Y7397D01*
X15938Y7393D01*
X15943Y7386D01*
X15945Y7378D01*
X16245Y7878D02*
X16243Y7870D01*
X16238Y7863D01*
X16231Y7859D01*
X16223Y7858D01*
X16215Y7861D01*
X16209Y7866D01*
X16205Y7874D01*
Y7882D01*
X16209Y7890D01*
X16215Y7895D01*
X16223Y7898D01*
X16231Y7897D01*
X16238Y7893D01*
X16243Y7886D01*
X16245Y7878D01*
Y7378D02*
X16243Y7370D01*
X16238Y7363D01*
X16231Y7359D01*
X16223Y7358D01*
X16215Y7361D01*
X16209Y7366D01*
X16205Y7374D01*
Y7382D01*
X16209Y7390D01*
X16215Y7395D01*
X16223Y7398D01*
X16231Y7397D01*
X16238Y7393D01*
X16243Y7386D01*
X16245Y7378D01*
X15745Y8028D02*
X15743Y8020D01*
X15738Y8013D01*
X15731Y8009D01*
X15723Y8008D01*
X15715Y8011D01*
X15709Y8016D01*
X15705Y8024D01*
Y8032D01*
X15709Y8040D01*
X15715Y8045D01*
X15723Y8048D01*
X15731Y8047D01*
X15738Y8043D01*
X15743Y8036D01*
X15745Y8028D01*
X15845D02*
X15843Y8020D01*
X15838Y8013D01*
X15831Y8009D01*
X15823Y8008D01*
X15815Y8011D01*
X15809Y8016D01*
X15805Y8024D01*
Y8032D01*
X15809Y8040D01*
X15815Y8045D01*
X15823Y8048D01*
X15831Y8047D01*
X15838Y8043D01*
X15843Y8036D01*
X15845Y8028D01*
X16145D02*
X16143Y8020D01*
X16138Y8013D01*
X16131Y8009D01*
X16123Y8008D01*
X16115Y8011D01*
X16109Y8016D01*
X16105Y8024D01*
Y8032D01*
X16109Y8040D01*
X16115Y8045D01*
X16123Y8048D01*
X16131Y8047D01*
X16138Y8043D01*
X16143Y8036D01*
X16145Y8028D01*
X16245D02*
X16243Y8020D01*
X16238Y8013D01*
X16231Y8009D01*
X16223Y8008D01*
X16215Y8011D01*
X16209Y8016D01*
X16205Y8024D01*
Y8032D01*
X16209Y8040D01*
X16215Y8045D01*
X16223Y8048D01*
X16231Y8047D01*
X16238Y8043D01*
X16243Y8036D01*
X16245Y8028D01*
X16345D02*
X16343Y8020D01*
X16338Y8013D01*
X16331Y8009D01*
X16323Y8008D01*
X16315Y8011D01*
X16309Y8016D01*
X16305Y8024D01*
Y8032D01*
X16309Y8040D01*
X16315Y8045D01*
X16323Y8048D01*
X16331Y8047D01*
X16338Y8043D01*
X16343Y8036D01*
X16345Y8028D01*
X16445D02*
X16443Y8020D01*
X16438Y8013D01*
X16431Y8009D01*
X16423Y8008D01*
X16415Y8011D01*
X16409Y8016D01*
X16405Y8024D01*
Y8032D01*
X16409Y8040D01*
X16415Y8045D01*
X16423Y8048D01*
X16431Y8047D01*
X16438Y8043D01*
X16443Y8036D01*
X16445Y8028D01*
Y8328D02*
X16443Y8320D01*
X16438Y8313D01*
X16431Y8309D01*
X16423Y8308D01*
X16415Y8311D01*
X16409Y8316D01*
X16405Y8324D01*
Y8332D01*
X16409Y8340D01*
X16415Y8345D01*
X16423Y8348D01*
X16431Y8347D01*
X16438Y8343D01*
X16443Y8336D01*
X16445Y8328D01*
X16345D02*
X16343Y8320D01*
X16338Y8313D01*
X16331Y8309D01*
X16323Y8308D01*
X16315Y8311D01*
X16309Y8316D01*
X16305Y8324D01*
Y8332D01*
X16309Y8340D01*
X16315Y8345D01*
X16323Y8348D01*
X16331Y8347D01*
X16338Y8343D01*
X16343Y8336D01*
X16345Y8328D01*
X16245D02*
X16243Y8320D01*
X16238Y8313D01*
X16231Y8309D01*
X16223Y8308D01*
X16215Y8311D01*
X16209Y8316D01*
X16205Y8324D01*
Y8332D01*
X16209Y8340D01*
X16215Y8345D01*
X16223Y8348D01*
X16231Y8347D01*
X16238Y8343D01*
X16243Y8336D01*
X16245Y8328D01*
X16145D02*
X16143Y8320D01*
X16138Y8313D01*
X16131Y8309D01*
X16123Y8308D01*
X16115Y8311D01*
X16109Y8316D01*
X16105Y8324D01*
Y8332D01*
X16109Y8340D01*
X16115Y8345D01*
X16123Y8348D01*
X16131Y8347D01*
X16138Y8343D01*
X16143Y8336D01*
X16145Y8328D01*
X16045D02*
X16043Y8320D01*
X16038Y8313D01*
X16031Y8309D01*
X16023Y8308D01*
X16015Y8311D01*
X16009Y8316D01*
X16005Y8324D01*
Y8332D01*
X16009Y8340D01*
X16015Y8345D01*
X16023Y8348D01*
X16031Y8347D01*
X16038Y8343D01*
X16043Y8336D01*
X16045Y8328D01*
X15945D02*
X15943Y8320D01*
X15938Y8313D01*
X15931Y8309D01*
X15923Y8308D01*
X15915Y8311D01*
X15909Y8316D01*
X15905Y8324D01*
Y8332D01*
X15909Y8340D01*
X15915Y8345D01*
X15923Y8348D01*
X15931Y8347D01*
X15938Y8343D01*
X15943Y8336D01*
X15945Y8328D01*
X15845D02*
X15843Y8320D01*
X15838Y8313D01*
X15831Y8309D01*
X15823Y8308D01*
X15815Y8311D01*
X15809Y8316D01*
X15805Y8324D01*
Y8332D01*
X15809Y8340D01*
X15815Y8345D01*
X15823Y8348D01*
X15831Y8347D01*
X15838Y8343D01*
X15843Y8336D01*
X15845Y8328D01*
X15745D02*
X15743Y8320D01*
X15738Y8313D01*
X15731Y8309D01*
X15723Y8308D01*
X15715Y8311D01*
X15709Y8316D01*
X15705Y8324D01*
Y8332D01*
X15709Y8340D01*
X15715Y8345D01*
X15723Y8348D01*
X15731Y8347D01*
X15738Y8343D01*
X15743Y8336D01*
X15745Y8328D01*
X15945Y8028D02*
X15943Y8020D01*
X15938Y8013D01*
X15931Y8009D01*
X15923Y8008D01*
X15915Y8011D01*
X15909Y8016D01*
X15905Y8024D01*
Y8032D01*
X15909Y8040D01*
X15915Y8045D01*
X15923Y8048D01*
X15931Y8047D01*
X15938Y8043D01*
X15943Y8036D01*
X15945Y8028D01*
X16045D02*
X16043Y8020D01*
X16038Y8013D01*
X16031Y8009D01*
X16023Y8008D01*
X16015Y8011D01*
X16009Y8016D01*
X16005Y8024D01*
Y8032D01*
X16009Y8040D01*
X16015Y8045D01*
X16023Y8048D01*
X16031Y8047D01*
X16038Y8043D01*
X16043Y8036D01*
X16045Y8028D01*
X15595Y8328D02*
X15593Y8320D01*
X15588Y8313D01*
X15581Y8309D01*
X15573Y8308D01*
X15565Y8311D01*
X15559Y8316D01*
X15555Y8324D01*
Y8332D01*
X15559Y8340D01*
X15565Y8345D01*
X15573Y8348D01*
X15581Y8347D01*
X15588Y8343D01*
X15593Y8336D01*
X15595Y8328D01*
Y8028D02*
X15593Y8020D01*
X15588Y8013D01*
X15581Y8009D01*
X15573Y8008D01*
X15565Y8011D01*
X15559Y8016D01*
X15555Y8024D01*
Y8032D01*
X15559Y8040D01*
X15565Y8045D01*
X15573Y8048D01*
X15581Y8047D01*
X15588Y8043D01*
X15593Y8036D01*
X15595Y8028D01*
X16245Y8478D02*
X16243Y8470D01*
X16238Y8463D01*
X16231Y8459D01*
X16223Y8458D01*
X16215Y8461D01*
X16209Y8466D01*
X16205Y8474D01*
Y8482D01*
X16209Y8490D01*
X16215Y8495D01*
X16223Y8498D01*
X16231Y8497D01*
X16238Y8493D01*
X16243Y8486D01*
X16245Y8478D01*
Y8978D02*
X16243Y8970D01*
X16238Y8963D01*
X16231Y8959D01*
X16223Y8958D01*
X16215Y8961D01*
X16209Y8966D01*
X16205Y8974D01*
Y8982D01*
X16209Y8990D01*
X16215Y8995D01*
X16223Y8998D01*
X16231Y8997D01*
X16238Y8993D01*
X16243Y8986D01*
X16245Y8978D01*
X15945Y8478D02*
X15943Y8470D01*
X15938Y8463D01*
X15931Y8459D01*
X15923Y8458D01*
X15915Y8461D01*
X15909Y8466D01*
X15905Y8474D01*
Y8482D01*
X15909Y8490D01*
X15915Y8495D01*
X15923Y8498D01*
X15931Y8497D01*
X15938Y8493D01*
X15943Y8486D01*
X15945Y8478D01*
Y8978D02*
X15943Y8970D01*
X15938Y8963D01*
X15931Y8959D01*
X15923Y8958D01*
X15915Y8961D01*
X15909Y8966D01*
X15905Y8974D01*
Y8982D01*
X15909Y8990D01*
X15915Y8995D01*
X15923Y8998D01*
X15931Y8997D01*
X15938Y8993D01*
X15943Y8986D01*
X15945Y8978D01*
X11440Y9358D02*
Y9368D01*
Y9358D02*
X11460D01*
Y9368D01*
X11470D01*
Y9388D01*
X11460D01*
Y9398D01*
X11440D01*
Y9388D01*
X11430D01*
Y9368D01*
X11440D01*
X11470Y9578D02*
X11468Y9570D01*
X11463Y9563D01*
X11456Y9559D01*
X11448Y9558D01*
X11440Y9561D01*
X11434Y9566D01*
X11430Y9574D01*
Y9582D01*
X11434Y9590D01*
X11440Y9595D01*
X11448Y9598D01*
X11456Y9597D01*
X11463Y9593D01*
X11468Y9586D01*
X11470Y9578D01*
X11450Y9758D02*
X11430Y9798D01*
X11470D01*
X11450Y9758D01*
Y9958D02*
X11460Y9968D01*
X11470D01*
X11460Y9978D01*
X11470Y9988D01*
X11460D01*
X11450Y9998D01*
X11440Y9988D01*
X11430D01*
X11440Y9978D01*
X11430Y9968D01*
X11440D01*
X11450Y9958D01*
X11440Y10158D02*
X11430D01*
X11440D02*
X11450Y10168D01*
X11460Y10158D01*
X11470D01*
Y10168D01*
X11460Y10178D01*
X11470Y10188D01*
Y10198D01*
X11460D01*
X11450Y10188D01*
X11440Y10198D01*
X11430D01*
Y10188D01*
X11440Y10178D01*
X11430Y10168D01*
Y10158D01*
Y10358D02*
X11440Y10378D01*
X11430Y10398D01*
X11450Y10388D01*
X11470Y10398D01*
X11460Y10378D01*
X11470Y10358D01*
X11450Y10368D01*
X11430Y10358D01*
Y10558D02*
Y10598D01*
X11470D01*
Y10558D01*
X11430D01*
D14*
X10513Y6128D02*
X16650D01*
X9787D02*
X3650D01*
X3450Y9078D02*
X3350D01*
Y6328D02*
X3450D01*
X16650Y6178D02*
Y6078D01*
X3650D02*
Y6178D01*
X3400Y8025D02*
Y9078D01*
Y7381D02*
Y6328D01*
X16543Y6092D02*
X16650Y6128D01*
X16543Y6164D01*
X3757Y6092D02*
X3650Y6128D01*
X3757Y6164D01*
X3436Y8971D02*
X3400Y9078D01*
X3364Y8971D01*
X3436Y6435D02*
X3400Y6328D01*
X3364Y6435D01*
X9800Y6078D02*
X9833D01*
X9817D01*
Y6178D01*
X9818D01*
X9817D02*
X9800Y6161D01*
X9883D02*
X9900Y6178D01*
X9933D01*
X9950Y6161D01*
Y6145D01*
X9951D01*
X9950D02*
X9951D01*
X9950D02*
X9951D01*
X9950D02*
X9933Y6128D01*
X9917D01*
X9933D01*
X9950Y6111D01*
Y6095D01*
X9933Y6078D01*
X9900D01*
X9883Y6095D01*
X9983Y6161D02*
X10000Y6178D01*
X10033D01*
X10050Y6161D01*
Y6095D01*
X10033Y6078D01*
X10000D01*
X9983Y6095D01*
Y6161D01*
X10083D02*
X10100Y6178D01*
X10133D01*
X10150Y6161D01*
Y6095D01*
X10133Y6078D01*
X10100D01*
X10083Y6095D01*
Y6161D01*
X10183D02*
X10200Y6178D01*
X10233D01*
X10250Y6161D01*
Y6095D01*
X10233Y6078D01*
X10200D01*
X10183Y6095D01*
Y6161D01*
X10283Y6145D02*
Y6078D01*
Y6145D02*
X10300D01*
X10316Y6128D01*
Y6078D01*
Y6128D01*
X10333Y6145D01*
X10350Y6128D01*
Y6078D01*
X10383D02*
X10416D01*
X10400D01*
Y6145D01*
X10383D01*
X10400Y6178D02*
X10401D01*
X10466Y6078D02*
X10500D01*
X10483D01*
Y6178D01*
X10466D01*
X5337Y9733D02*
X5270D01*
X5337Y9800D01*
Y9816D01*
X5320Y9833D01*
X5287D01*
X5270Y9816D01*
X5370D02*
X5387Y9833D01*
X5420D01*
X5437Y9816D01*
Y9750D01*
X5420Y9733D01*
X5387D01*
X5370Y9750D01*
Y9816D01*
X5470D02*
X5487Y9833D01*
X5520D01*
X5537Y9816D01*
Y9750D01*
X5520Y9733D01*
X5487D01*
X5470Y9750D01*
Y9816D01*
X5570Y9783D02*
X5637D01*
X5670Y9733D02*
X5703D01*
X5687D01*
Y9833D01*
X5688D01*
X5687D02*
X5670Y9816D01*
X5753D02*
X5770Y9833D01*
X5803D01*
X5820Y9816D01*
Y9750D01*
X5803Y9733D01*
X5770D01*
X5753Y9750D01*
Y9816D01*
X5853Y9733D02*
X5886D01*
X5870D01*
Y9833D01*
X5871D01*
X5870D02*
X5853Y9816D01*
X5936Y9833D02*
X6003D01*
Y9816D01*
X5936Y9750D01*
Y9733D01*
X6036Y9783D02*
X6103D01*
X6136Y9816D02*
X6153Y9833D01*
X6186D01*
X6203Y9816D01*
Y9750D01*
X6186Y9733D01*
X6153D01*
X6136Y9750D01*
Y9816D01*
X6270D02*
X6303Y9833D01*
X6270Y9816D02*
X6236Y9783D01*
Y9750D01*
X6253Y9733D01*
X6286D01*
X6303Y9750D01*
Y9766D01*
X6286Y9783D01*
X6236D01*
X6436Y9733D02*
Y9833D01*
X6486D01*
X6503Y9816D01*
Y9783D01*
X6486Y9766D01*
X6436D01*
X6470D02*
X6503Y9733D01*
X6536Y9833D02*
X6603D01*
X6536D02*
Y9733D01*
X6603D01*
X6570Y9783D02*
X6536D01*
X6636Y9766D02*
Y9833D01*
Y9766D02*
X6670Y9733D01*
X6703Y9766D01*
Y9833D01*
X6836D02*
Y9733D01*
X6903D02*
X6836Y9833D01*
X6903D02*
Y9733D01*
X7003Y9816D02*
X6986Y9833D01*
X6953D01*
X6936Y9816D01*
Y9750D01*
X6953Y9733D01*
X6986D01*
X7003Y9750D01*
X7136Y9833D02*
X7203D01*
X7136D02*
Y9783D01*
X7169D01*
X7136D01*
Y9733D01*
X7236D02*
Y9800D01*
X7269Y9833D01*
X7303Y9800D01*
Y9733D01*
Y9783D01*
X7236D01*
X7336Y9733D02*
Y9833D01*
Y9733D02*
X7386D01*
X7403Y9750D01*
Y9766D01*
X7386Y9783D01*
X7336D01*
X7337D01*
X7336D02*
X7337D01*
X7336D02*
X7337D01*
X7336D02*
X7386D01*
X7403Y9800D01*
Y9816D01*
X7386Y9833D01*
X7336D01*
X7436Y9733D02*
X7503Y9800D01*
X7536Y9833D02*
Y9733D01*
X7586D01*
X7603Y9750D01*
Y9816D01*
X7586Y9833D01*
X7536D01*
X7636D02*
Y9733D01*
Y9833D02*
X7686D01*
X7703Y9816D01*
Y9783D01*
X7686Y9766D01*
X7636D01*
X7669D02*
X7703Y9733D01*
X7736Y9833D02*
X7769D01*
X7753D01*
Y9733D01*
X7736D01*
X7769D01*
X7819D02*
Y9833D01*
Y9733D02*
X7886D01*
X7919D02*
Y9833D01*
Y9733D02*
X7986D01*
X8119D02*
Y9833D01*
Y9733D02*
X8169D01*
X8186Y9750D01*
Y9816D01*
X8169Y9833D01*
X8119D01*
X8219D02*
Y9733D01*
Y9833D02*
X8269D01*
X8286Y9816D01*
Y9783D01*
X8269Y9766D01*
X8219D01*
X8252D02*
X8286Y9733D01*
X8319D02*
Y9800D01*
X8352Y9833D01*
X8386Y9800D01*
Y9733D01*
Y9783D01*
X8319D01*
X8419Y9733D02*
Y9833D01*
X8452Y9766D02*
X8419Y9733D01*
X8452Y9766D02*
X8486Y9733D01*
Y9833D01*
X8519D02*
X8552D01*
X8536D01*
Y9733D01*
X8519D01*
X8552D01*
X8602D02*
Y9833D01*
X8669Y9733D01*
Y9833D01*
X8752D02*
X8769Y9816D01*
X8752Y9833D02*
X8719D01*
X8702Y9816D01*
Y9750D01*
X8719Y9733D01*
X8752D01*
X8769Y9750D01*
Y9783D01*
X8736D01*
X3453Y7458D02*
Y7391D01*
X3387Y7458D01*
X3370D01*
X3353Y7441D01*
Y7408D01*
X3370Y7391D01*
X3353Y7491D02*
Y7558D01*
X3370D01*
X3437Y7491D01*
X3453D01*
X3353Y7591D02*
Y7658D01*
Y7591D02*
X3403D01*
X3387Y7625D01*
Y7641D01*
X3403Y7658D01*
X3437D01*
X3453Y7641D01*
Y7608D01*
X3437Y7591D01*
X3370Y7691D02*
X3353Y7708D01*
Y7741D01*
X3370Y7758D01*
X3437D01*
X3453Y7741D01*
Y7708D01*
X3437Y7691D01*
X3370D01*
X3387Y7791D02*
X3453D01*
X3387D02*
Y7808D01*
X3403Y7825D01*
X3453D01*
X3403D01*
X3387Y7841D01*
X3403Y7858D01*
X3453D01*
Y7891D02*
Y7924D01*
Y7908D01*
X3387D01*
Y7891D01*
X3353Y7908D02*
X3354D01*
X3453Y7974D02*
Y8008D01*
Y7991D01*
X3353D01*
Y7974D01*
X3650Y9078D02*
X16650D01*
Y6328D02*
X3650D01*
Y9078D01*
X16650D02*
Y6328D01*
X11824Y9428D02*
X11772D01*
X11796Y9390D02*
X11824Y9428D01*
X11810Y9390D02*
X11796D01*
X11810D02*
X11820Y9385D01*
X11824Y9380D01*
X11829Y9366D01*
Y9357D01*
X11824Y9342D01*
X11815Y9333D01*
X11801Y9328D01*
X11786D01*
X11772Y9333D01*
X11767Y9338D01*
X11762Y9347D01*
X12553Y9428D02*
X12606D01*
X12577Y9390D01*
X12591D01*
X12601Y9385D01*
X12606Y9380D01*
X12610Y9366D01*
Y9357D01*
X12606Y9342D01*
X12596Y9333D01*
X12582Y9328D01*
X12568D01*
X12553Y9333D01*
X12549Y9338D01*
X12544Y9347D01*
X12638Y9404D02*
Y9409D01*
X12642Y9418D01*
X12647Y9423D01*
X12657Y9428D01*
X12676D01*
X12685Y9423D01*
X12690Y9418D01*
X12695Y9409D01*
Y9399D01*
X12690Y9390D01*
X12680Y9376D01*
X12633Y9328D01*
X12699D01*
X12722D02*
Y9395D01*
X12736Y9390D02*
X12722Y9376D01*
X12736Y9390D02*
X12746Y9395D01*
X12760D01*
X12769Y9390D01*
X12774Y9376D01*
Y9328D01*
Y9376D02*
X12788Y9390D01*
X12798Y9395D01*
X12812D01*
X12822Y9390D01*
X12827Y9376D01*
Y9328D01*
X12872Y9423D02*
X12867Y9428D01*
X12872Y9423D02*
X12877Y9428D01*
X12872Y9433D01*
X12867Y9428D01*
X12872Y9395D02*
Y9328D01*
X12895D02*
Y9428D01*
X13652Y9423D02*
X13666Y9428D01*
X13652Y9423D02*
X13642Y9409D01*
X13638Y9385D01*
Y9371D01*
X13642Y9347D01*
X13652Y9333D01*
X13666Y9328D01*
X13676D01*
X13690Y9333D01*
X13699Y9347D01*
X13704Y9371D01*
Y9385D01*
X13699Y9409D01*
X13690Y9423D01*
X13676Y9428D01*
X13666D01*
X13731Y9338D02*
X13727Y9333D01*
X13731Y9328D01*
X13736Y9333D01*
X13731Y9338D01*
X13767Y9423D02*
X13782Y9428D01*
X13767Y9423D02*
X13763Y9414D01*
Y9404D01*
X13767Y9395D01*
X13777Y9390D01*
X13796Y9385D01*
X13810Y9380D01*
X13820Y9371D01*
X13825Y9361D01*
Y9347D01*
X13820Y9338D01*
X13815Y9333D01*
X13801Y9328D01*
X13782D01*
X13767Y9333D01*
X13763Y9338D01*
X13758Y9347D01*
Y9361D01*
X13763Y9371D01*
X13772Y9380D01*
X13787Y9385D01*
X13806Y9390D01*
X13815Y9395D01*
X13820Y9404D01*
Y9414D01*
X13815Y9423D01*
X13801Y9428D01*
X13782D01*
X13847Y9409D02*
X13857Y9414D01*
X13871Y9428D01*
Y9328D01*
X13925Y9404D02*
Y9409D01*
X13930Y9418D01*
X13935Y9423D01*
X13944Y9428D01*
X13963D01*
X13973Y9423D01*
X13977Y9418D01*
X13982Y9409D01*
Y9399D01*
X13977Y9390D01*
X13968Y9376D01*
X13920Y9328D01*
X13987D01*
X14019Y9423D02*
X14033Y9428D01*
X14019Y9423D02*
X14014Y9414D01*
Y9404D01*
X14019Y9395D01*
X14028Y9390D01*
X14047Y9385D01*
X14062Y9380D01*
X14071Y9371D01*
X14076Y9361D01*
Y9347D01*
X14071Y9338D01*
X14066Y9333D01*
X14052Y9328D01*
X14033D01*
X14019Y9333D01*
X14014Y9338D01*
X14009Y9347D01*
Y9361D01*
X14014Y9371D01*
X14024Y9380D01*
X14038Y9385D01*
X14057Y9390D01*
X14066Y9395D01*
X14071Y9404D01*
Y9414D01*
X14066Y9423D01*
X14052Y9428D01*
X14033D01*
X14098Y9395D02*
Y9328D01*
Y9376D02*
X14113Y9390D01*
X14122Y9395D01*
X14136D01*
X14146Y9390D01*
X14151Y9376D01*
Y9328D01*
Y9376D02*
X14165Y9390D01*
X14175Y9395D01*
X14189D01*
X14198Y9390D01*
X14203Y9376D01*
Y9328D01*
X14235D02*
Y9395D01*
X14249Y9390D02*
X14235Y9376D01*
X14249Y9390D02*
X14258Y9395D01*
X14273D01*
X14282Y9390D01*
X14287Y9376D01*
Y9328D01*
Y9376D02*
X14301Y9390D01*
X14311Y9395D01*
X14325D01*
X14334Y9390D01*
X14339Y9376D01*
Y9328D01*
X11820Y9614D02*
X11815Y9623D01*
X11801Y9628D01*
X11791D01*
X11777Y9623D01*
X11767Y9609D01*
X11762Y9585D01*
Y9561D01*
X11767Y9542D01*
X11777Y9533D01*
X11791Y9528D01*
X11796D01*
X11810Y9533D01*
X11820Y9542D01*
X11824Y9557D01*
Y9561D01*
X11820Y9576D01*
X11810Y9585D01*
X11796Y9590D01*
X11791D01*
X11777Y9585D01*
X11767Y9576D01*
X11762Y9561D01*
X11856Y9628D02*
X11908D01*
X11880Y9590D01*
X11894D01*
X11903Y9585D01*
X11908Y9580D01*
X11913Y9566D01*
Y9557D01*
X11908Y9542D01*
X11899Y9533D01*
X11884Y9528D01*
X11870D01*
X11856Y9533D01*
X11851Y9538D01*
X11846Y9547D01*
X11988Y9623D02*
X11992Y9614D01*
X11988Y9623D02*
X11973Y9628D01*
X11964D01*
X11950Y9623D01*
X11940Y9609D01*
X11935Y9585D01*
Y9561D01*
X11940Y9542D01*
X11950Y9533D01*
X11964Y9528D01*
X11969D01*
X11983Y9533D01*
X11992Y9542D01*
X11997Y9557D01*
Y9561D01*
X11992Y9576D01*
X11983Y9585D01*
X11969Y9590D01*
X11964D01*
X11950Y9585D01*
X11940Y9576D01*
X11935Y9561D01*
X12553Y9628D02*
X12606D01*
X12577Y9590D01*
X12591D01*
X12601Y9585D01*
X12606Y9580D01*
X12610Y9566D01*
Y9557D01*
X12606Y9542D01*
X12596Y9533D01*
X12582Y9528D01*
X12568D01*
X12553Y9533D01*
X12549Y9538D01*
X12544Y9547D01*
X12685Y9623D02*
X12690Y9614D01*
X12685Y9623D02*
X12671Y9628D01*
X12661D01*
X12647Y9623D01*
X12638Y9609D01*
X12633Y9585D01*
Y9561D01*
X12638Y9542D01*
X12647Y9533D01*
X12661Y9528D01*
X12666D01*
X12680Y9533D01*
X12690Y9542D01*
X12695Y9557D01*
Y9561D01*
X12690Y9576D01*
X12680Y9585D01*
X12666Y9590D01*
X12661D01*
X12647Y9585D01*
X12638Y9576D01*
X12633Y9561D01*
X12717Y9595D02*
Y9528D01*
Y9576D02*
X12731Y9590D01*
X12740Y9595D01*
X12755D01*
X12764Y9590D01*
X12769Y9576D01*
Y9528D01*
Y9576D02*
X12783Y9590D01*
X12793Y9595D01*
X12807D01*
X12817Y9590D01*
X12821Y9576D01*
Y9528D01*
X12867Y9623D02*
X12862Y9628D01*
X12867Y9623D02*
X12872Y9628D01*
X12867Y9633D01*
X12862Y9628D01*
X12867Y9595D02*
Y9528D01*
X12889D02*
Y9628D01*
X13652Y9623D02*
X13666Y9628D01*
X13652Y9623D02*
X13642Y9609D01*
X13638Y9585D01*
Y9571D01*
X13642Y9547D01*
X13652Y9533D01*
X13666Y9528D01*
X13676D01*
X13690Y9533D01*
X13699Y9547D01*
X13704Y9571D01*
Y9585D01*
X13699Y9609D01*
X13690Y9623D01*
X13676Y9628D01*
X13666D01*
X13731Y9538D02*
X13727Y9533D01*
X13731Y9528D01*
X13736Y9533D01*
X13731Y9538D01*
X13815Y9580D02*
X13820Y9595D01*
X13815Y9580D02*
X13806Y9571D01*
X13791Y9566D01*
X13787D01*
X13772Y9571D01*
X13763Y9580D01*
X13758Y9595D01*
Y9599D01*
X13763Y9614D01*
X13772Y9623D01*
X13787Y9628D01*
X13791D01*
X13806Y9623D01*
X13815Y9614D01*
X13820Y9595D01*
Y9571D01*
X13815Y9547D01*
X13806Y9533D01*
X13791Y9528D01*
X13782D01*
X13767Y9533D01*
X13763Y9542D01*
X13847Y9609D02*
X13857Y9614D01*
X13871Y9628D01*
Y9528D01*
X13920Y9561D02*
X13968Y9628D01*
X13992Y9561D02*
X13920D01*
X13968Y9528D02*
Y9628D01*
X14009Y9561D02*
X14057Y9628D01*
X14081Y9561D02*
X14009D01*
X14057Y9528D02*
Y9628D01*
X14098Y9595D02*
Y9528D01*
Y9576D02*
X14113Y9590D01*
X14122Y9595D01*
X14136D01*
X14146Y9590D01*
X14151Y9576D01*
Y9528D01*
Y9576D02*
X14165Y9590D01*
X14175Y9595D01*
X14189D01*
X14198Y9590D01*
X14203Y9576D01*
Y9528D01*
X14235D02*
Y9595D01*
X14249Y9590D02*
X14235Y9576D01*
X14249Y9590D02*
X14258Y9595D01*
X14273D01*
X14282Y9590D01*
X14287Y9576D01*
Y9528D01*
Y9576D02*
X14301Y9590D01*
X14311Y9595D01*
X14325D01*
X14334Y9590D01*
X14339Y9576D01*
Y9528D01*
X11767Y9804D02*
Y9809D01*
X11772Y9818D01*
X11777Y9823D01*
X11786Y9828D01*
X11805D01*
X11815Y9823D01*
X11820Y9818D01*
X11824Y9809D01*
Y9799D01*
X11820Y9790D01*
X11810Y9776D01*
X11762Y9728D01*
X11829D01*
X11852Y9809D02*
X11861Y9814D01*
X11875Y9828D01*
Y9728D01*
X12544Y9761D02*
X12591Y9828D01*
X12615Y9761D02*
X12544D01*
X12591Y9728D02*
Y9828D01*
X12647Y9823D02*
X12661Y9828D01*
X12647Y9823D02*
X12638Y9809D01*
X12633Y9785D01*
Y9771D01*
X12638Y9747D01*
X12647Y9733D01*
X12661Y9728D01*
X12671D01*
X12685Y9733D01*
X12695Y9747D01*
X12699Y9771D01*
Y9785D01*
X12695Y9809D01*
X12685Y9823D01*
X12671Y9828D01*
X12661D01*
X12722Y9795D02*
Y9728D01*
Y9776D02*
X12736Y9790D01*
X12746Y9795D01*
X12760D01*
X12769Y9790D01*
X12774Y9776D01*
Y9728D01*
Y9776D02*
X12788Y9790D01*
X12798Y9795D01*
X12812D01*
X12822Y9790D01*
X12827Y9776D01*
Y9728D01*
X12872Y9823D02*
X12867Y9828D01*
X12872Y9823D02*
X12877Y9828D01*
X12872Y9833D01*
X12867Y9828D01*
X12872Y9795D02*
Y9728D01*
X12895D02*
Y9828D01*
X13638Y9809D02*
X13647Y9814D01*
X13661Y9828D01*
Y9728D01*
X13711Y9733D02*
X13716Y9738D01*
X13711Y9733D02*
X13716Y9728D01*
X13720Y9733D01*
X13716Y9738D01*
X13757Y9823D02*
X13771Y9828D01*
X13757Y9823D02*
X13747Y9809D01*
X13742Y9785D01*
Y9771D01*
X13747Y9747D01*
X13757Y9733D01*
X13771Y9728D01*
X13780D01*
X13795Y9733D01*
X13804Y9747D01*
X13809Y9771D01*
Y9785D01*
X13804Y9809D01*
X13795Y9823D01*
X13780Y9828D01*
X13771D01*
X13831Y9809D02*
X13841Y9814D01*
X13855Y9828D01*
Y9728D01*
X13962Y9814D02*
X13957Y9823D01*
X13943Y9828D01*
X13933D01*
X13919Y9823D01*
X13909Y9809D01*
X13905Y9785D01*
Y9761D01*
X13909Y9742D01*
X13919Y9733D01*
X13933Y9728D01*
X13938D01*
X13952Y9733D01*
X13962Y9742D01*
X13966Y9757D01*
Y9761D01*
X13962Y9776D01*
X13952Y9785D01*
X13938Y9790D01*
X13933D01*
X13919Y9785D01*
X13909Y9776D01*
X13905Y9761D01*
X13988Y9795D02*
Y9728D01*
Y9776D02*
X14003Y9790D01*
X14012Y9795D01*
X14026D01*
X14036Y9790D01*
X14041Y9776D01*
Y9728D01*
Y9776D02*
X14055Y9790D01*
X14065Y9795D01*
X14079D01*
X14088Y9790D01*
X14093Y9776D01*
Y9728D01*
X14125D02*
Y9795D01*
X14139Y9790D02*
X14125Y9776D01*
X14139Y9790D02*
X14148Y9795D01*
X14163D01*
X14172Y9790D01*
X14177Y9776D01*
Y9728D01*
Y9776D02*
X14191Y9790D01*
X14201Y9795D01*
X14215D01*
X14225Y9790D01*
X14229Y9776D01*
Y9728D01*
X11767Y10004D02*
Y10009D01*
X11772Y10018D01*
X11777Y10023D01*
X11786Y10028D01*
X11805D01*
X11815Y10023D01*
X11820Y10018D01*
X11824Y10009D01*
Y9999D01*
X11820Y9990D01*
X11810Y9976D01*
X11762Y9928D01*
X11829D01*
X11909Y9980D02*
X11913Y9995D01*
X11909Y9980D02*
X11899Y9971D01*
X11885Y9966D01*
X11880D01*
X11866Y9971D01*
X11856Y9980D01*
X11852Y9995D01*
Y9999D01*
X11856Y10014D01*
X11866Y10023D01*
X11880Y10028D01*
X11885D01*
X11899Y10023D01*
X11909Y10014D01*
X11913Y9995D01*
Y9971D01*
X11909Y9947D01*
X11899Y9933D01*
X11885Y9928D01*
X11875D01*
X11861Y9933D01*
X11856Y9942D01*
X12596Y10023D02*
X12601Y10014D01*
X12596Y10023D02*
X12582Y10028D01*
X12572D01*
X12558Y10023D01*
X12549Y10009D01*
X12544Y9985D01*
Y9961D01*
X12549Y9942D01*
X12558Y9933D01*
X12572Y9928D01*
X12577D01*
X12591Y9933D01*
X12601Y9942D01*
X12606Y9957D01*
Y9961D01*
X12601Y9976D01*
X12591Y9985D01*
X12577Y9990D01*
X12572D01*
X12558Y9985D01*
X12549Y9976D01*
X12544Y9961D01*
X12632Y10004D02*
Y10009D01*
X12637Y10018D01*
X12642Y10023D01*
X12651Y10028D01*
X12670D01*
X12680Y10023D01*
X12685Y10018D01*
X12689Y10009D01*
Y9999D01*
X12685Y9990D01*
X12675Y9976D01*
X12628Y9928D01*
X12694D01*
X12717D02*
Y9995D01*
X12731Y9990D02*
X12717Y9976D01*
X12731Y9990D02*
X12740Y9995D01*
X12755D01*
X12764Y9990D01*
X12769Y9976D01*
Y9928D01*
Y9976D02*
X12783Y9990D01*
X12793Y9995D01*
X12807D01*
X12817Y9990D01*
X12821Y9976D01*
Y9928D01*
X12867Y10023D02*
X12862Y10028D01*
X12867Y10023D02*
X12872Y10028D01*
X12867Y10033D01*
X12862Y10028D01*
X12867Y9995D02*
Y9928D01*
X12889D02*
Y10028D01*
X13638Y10009D02*
X13647Y10014D01*
X13661Y10028D01*
Y9928D01*
X13711Y9933D02*
X13716Y9938D01*
X13711Y9933D02*
X13716Y9928D01*
X13720Y9933D01*
X13716Y9938D01*
X13752Y10028D02*
X13799D01*
X13752D02*
X13747Y9985D01*
X13752Y9990D01*
X13766Y9995D01*
X13780D01*
X13795Y9990D01*
X13804Y9980D01*
X13809Y9966D01*
Y9957D01*
X13804Y9942D01*
X13795Y9933D01*
X13780Y9928D01*
X13766D01*
X13752Y9933D01*
X13747Y9938D01*
X13742Y9947D01*
X13850Y9928D02*
X13898Y10028D01*
X13831D01*
X13920Y9961D02*
X13968Y10028D01*
X13992Y9961D02*
X13920D01*
X13968Y9928D02*
Y10028D01*
X14019Y10023D02*
X14033Y10028D01*
X14019Y10023D02*
X14014Y10014D01*
Y10004D01*
X14019Y9995D01*
X14028Y9990D01*
X14047Y9985D01*
X14062Y9980D01*
X14071Y9971D01*
X14076Y9961D01*
Y9947D01*
X14071Y9938D01*
X14066Y9933D01*
X14052Y9928D01*
X14033D01*
X14019Y9933D01*
X14014Y9938D01*
X14009Y9947D01*
Y9961D01*
X14014Y9971D01*
X14024Y9980D01*
X14038Y9985D01*
X14057Y9990D01*
X14066Y9995D01*
X14071Y10004D01*
Y10014D01*
X14066Y10023D01*
X14052Y10028D01*
X14033D01*
X14098Y9995D02*
Y9928D01*
Y9976D02*
X14113Y9990D01*
X14122Y9995D01*
X14136D01*
X14146Y9990D01*
X14151Y9976D01*
Y9928D01*
Y9976D02*
X14165Y9990D01*
X14175Y9995D01*
X14189D01*
X14198Y9990D01*
X14203Y9976D01*
Y9928D01*
X14235D02*
Y9995D01*
X14249Y9990D02*
X14235Y9976D01*
X14249Y9990D02*
X14258Y9995D01*
X14273D01*
X14282Y9990D01*
X14287Y9976D01*
Y9928D01*
Y9976D02*
X14301Y9990D01*
X14311Y9995D01*
X14325D01*
X14334Y9990D01*
X14339Y9976D01*
Y9928D01*
X11810Y10228D02*
X11762Y10161D01*
X11834D01*
X11810Y10128D02*
Y10228D01*
X12563Y10128D02*
X12610Y10228D01*
X12544D01*
X12647Y10223D02*
X12661Y10228D01*
X12647Y10223D02*
X12638Y10209D01*
X12633Y10185D01*
Y10171D01*
X12638Y10147D01*
X12647Y10133D01*
X12661Y10128D01*
X12671D01*
X12685Y10133D01*
X12695Y10147D01*
X12699Y10171D01*
Y10185D01*
X12695Y10209D01*
X12685Y10223D01*
X12671Y10228D01*
X12661D01*
X12722Y10195D02*
Y10128D01*
Y10176D02*
X12736Y10190D01*
X12746Y10195D01*
X12760D01*
X12769Y10190D01*
X12774Y10176D01*
Y10128D01*
Y10176D02*
X12788Y10190D01*
X12798Y10195D01*
X12812D01*
X12822Y10190D01*
X12827Y10176D01*
Y10128D01*
X12872Y10223D02*
X12867Y10228D01*
X12872Y10223D02*
X12877Y10228D01*
X12872Y10233D01*
X12867Y10228D01*
X12872Y10195D02*
Y10128D01*
X12895D02*
Y10228D01*
X13638Y10209D02*
X13647Y10214D01*
X13661Y10228D01*
Y10128D01*
X13711Y10133D02*
X13716Y10138D01*
X13711Y10133D02*
X13716Y10128D01*
X13720Y10133D01*
X13716Y10138D01*
X13761Y10128D02*
X13809Y10228D01*
X13742D01*
X13850Y10128D02*
X13898Y10228D01*
X13831D01*
X13930Y10223D02*
X13944Y10228D01*
X13930Y10223D02*
X13925Y10214D01*
Y10204D01*
X13930Y10195D01*
X13939Y10190D01*
X13958Y10185D01*
X13973Y10180D01*
X13982Y10171D01*
X13987Y10161D01*
Y10147D01*
X13982Y10138D01*
X13977Y10133D01*
X13963Y10128D01*
X13944D01*
X13930Y10133D01*
X13925Y10138D01*
X13920Y10147D01*
Y10161D01*
X13925Y10171D01*
X13935Y10180D01*
X13949Y10185D01*
X13968Y10190D01*
X13977Y10195D01*
X13982Y10204D01*
Y10214D01*
X13977Y10223D01*
X13963Y10228D01*
X13944D01*
X14009Y10195D02*
Y10128D01*
Y10176D02*
X14024Y10190D01*
X14033Y10195D01*
X14047D01*
X14057Y10190D01*
X14062Y10176D01*
Y10128D01*
Y10176D02*
X14076Y10190D01*
X14085Y10195D01*
X14100D01*
X14109Y10190D01*
X14114Y10176D01*
Y10128D01*
X14145D02*
Y10195D01*
X14160Y10190D02*
X14145Y10176D01*
X14160Y10190D02*
X14169Y10195D01*
X14184D01*
X14193Y10190D01*
X14198Y10176D01*
Y10128D01*
Y10176D02*
X14212Y10190D01*
X14222Y10195D01*
X14236D01*
X14245Y10190D01*
X14250Y10176D01*
Y10128D01*
X11767Y10404D02*
Y10409D01*
X11772Y10418D01*
X11777Y10423D01*
X11786Y10428D01*
X11805D01*
X11815Y10423D01*
X11820Y10418D01*
X11824Y10409D01*
Y10399D01*
X11820Y10390D01*
X11810Y10376D01*
X11762Y10328D01*
X11829D01*
X11871D02*
X11918Y10428D01*
X11852D01*
X12601Y10380D02*
X12606Y10395D01*
X12601Y10380D02*
X12591Y10371D01*
X12577Y10366D01*
X12572D01*
X12558Y10371D01*
X12549Y10380D01*
X12544Y10395D01*
Y10399D01*
X12549Y10414D01*
X12558Y10423D01*
X12572Y10428D01*
X12577D01*
X12591Y10423D01*
X12601Y10414D01*
X12606Y10395D01*
Y10371D01*
X12601Y10347D01*
X12591Y10333D01*
X12577Y10328D01*
X12568D01*
X12553Y10333D01*
X12549Y10342D01*
X12642Y10428D02*
X12690D01*
X12642D02*
X12638Y10385D01*
X12642Y10390D01*
X12657Y10395D01*
X12671D01*
X12685Y10390D01*
X12695Y10380D01*
X12699Y10366D01*
Y10357D01*
X12695Y10342D01*
X12685Y10333D01*
X12671Y10328D01*
X12657D01*
X12642Y10333D01*
X12638Y10338D01*
X12633Y10347D01*
X12722Y10328D02*
Y10395D01*
X12736Y10390D02*
X12722Y10376D01*
X12736Y10390D02*
X12746Y10395D01*
X12760D01*
X12769Y10390D01*
X12774Y10376D01*
Y10328D01*
Y10376D02*
X12788Y10390D01*
X12798Y10395D01*
X12812D01*
X12822Y10390D01*
X12827Y10376D01*
Y10328D01*
X12872Y10423D02*
X12867Y10428D01*
X12872Y10423D02*
X12877Y10428D01*
X12872Y10433D01*
X12867Y10428D01*
X12872Y10395D02*
Y10328D01*
X12895D02*
Y10428D01*
X13642Y10409D02*
Y10404D01*
Y10409D02*
X13647Y10418D01*
X13652Y10423D01*
X13661Y10428D01*
X13680D01*
X13690Y10423D01*
X13695Y10418D01*
X13699Y10409D01*
Y10399D01*
X13695Y10390D01*
X13685Y10376D01*
X13638Y10328D01*
X13704D01*
X13727Y10333D02*
X13731Y10338D01*
X13727Y10333D02*
X13731Y10328D01*
X13736Y10333D01*
X13731Y10338D01*
X13758Y10361D02*
X13806Y10428D01*
X13829Y10361D02*
X13758D01*
X13806Y10328D02*
Y10428D01*
X13847Y10409D02*
X13857Y10414D01*
X13871Y10428D01*
Y10328D01*
X13930Y10428D02*
X13982D01*
X13954Y10390D01*
X13968D01*
X13977Y10385D01*
X13982Y10380D01*
X13987Y10366D01*
Y10357D01*
X13982Y10342D01*
X13973Y10333D01*
X13958Y10328D01*
X13944D01*
X13930Y10333D01*
X13925Y10338D01*
X13920Y10347D01*
X14009Y10328D02*
Y10395D01*
X14024Y10390D02*
X14009Y10376D01*
X14024Y10390D02*
X14033Y10395D01*
X14047D01*
X14057Y10390D01*
X14062Y10376D01*
Y10328D01*
Y10376D02*
X14076Y10390D01*
X14085Y10395D01*
X14100D01*
X14109Y10390D01*
X14114Y10376D01*
Y10328D01*
X14145D02*
Y10395D01*
X14160Y10390D02*
X14145Y10376D01*
X14160Y10390D02*
X14169Y10395D01*
X14184D01*
X14193Y10390D01*
X14198Y10376D01*
Y10328D01*
Y10376D02*
X14212Y10390D01*
X14222Y10395D01*
X14236D01*
X14245Y10390D01*
X14250Y10376D01*
Y10328D01*
X11810Y10628D02*
X11762Y10561D01*
X11834D01*
X11810Y10528D02*
Y10628D01*
X12544Y10609D02*
X12553Y10614D01*
X12568Y10628D01*
Y10528D01*
X12622Y10604D02*
Y10609D01*
X12627Y10618D01*
X12631Y10623D01*
X12641Y10628D01*
X12660D01*
X12669Y10623D01*
X12674Y10618D01*
X12679Y10609D01*
Y10599D01*
X12674Y10590D01*
X12665Y10576D01*
X12617Y10528D01*
X12684D01*
X12716Y10623D02*
X12730Y10628D01*
X12716Y10623D02*
X12711Y10614D01*
Y10604D01*
X12716Y10595D01*
X12725Y10590D01*
X12744Y10585D01*
X12758Y10580D01*
X12768Y10571D01*
X12773Y10561D01*
Y10547D01*
X12768Y10538D01*
X12763Y10533D01*
X12749Y10528D01*
X12730D01*
X12716Y10533D01*
X12711Y10538D01*
X12706Y10547D01*
Y10561D01*
X12711Y10571D01*
X12720Y10580D01*
X12735Y10585D01*
X12754Y10590D01*
X12763Y10595D01*
X12768Y10604D01*
Y10614D01*
X12763Y10623D01*
X12749Y10628D01*
X12730D01*
X12795Y10595D02*
Y10528D01*
Y10576D02*
X12809Y10590D01*
X12819Y10595D01*
X12833D01*
X12843Y10590D01*
X12847Y10576D01*
Y10528D01*
Y10576D02*
X12862Y10590D01*
X12871Y10595D01*
X12886D01*
X12895Y10590D01*
X12900Y10576D01*
Y10528D01*
X12946Y10623D02*
X12941Y10628D01*
X12946Y10623D02*
X12950Y10628D01*
X12946Y10633D01*
X12941Y10628D01*
X12946Y10595D02*
Y10528D01*
X12968D02*
Y10628D01*
X13647D02*
X13699D01*
X13671Y10590D01*
X13685D01*
X13695Y10585D01*
X13699Y10580D01*
X13704Y10566D01*
Y10557D01*
X13699Y10542D01*
X13690Y10533D01*
X13676Y10528D01*
X13661D01*
X13647Y10533D01*
X13642Y10538D01*
X13638Y10547D01*
X13727Y10533D02*
X13731Y10538D01*
X13727Y10533D02*
X13731Y10528D01*
X13736Y10533D01*
X13731Y10538D01*
X13763Y10604D02*
Y10609D01*
X13767Y10618D01*
X13772Y10623D01*
X13782Y10628D01*
X13801D01*
X13810Y10623D01*
X13815Y10618D01*
X13820Y10609D01*
Y10599D01*
X13815Y10590D01*
X13806Y10576D01*
X13758Y10528D01*
X13825D01*
X13857Y10628D02*
X13904D01*
X13857D02*
X13852Y10585D01*
X13857Y10590D01*
X13871Y10595D01*
X13885D01*
X13899Y10590D01*
X13909Y10580D01*
X13914Y10566D01*
Y10557D01*
X13909Y10542D01*
X13899Y10533D01*
X13885Y10528D01*
X13871D01*
X13857Y10533D01*
X13852Y10538D01*
X13847Y10547D01*
X13936Y10609D02*
X13946Y10614D01*
X13960Y10628D01*
Y10528D01*
X14014Y10604D02*
Y10609D01*
X14019Y10618D01*
X14024Y10623D01*
X14033Y10628D01*
X14052D01*
X14062Y10623D01*
X14066Y10618D01*
X14071Y10609D01*
Y10599D01*
X14066Y10590D01*
X14057Y10576D01*
X14009Y10528D01*
X14076D01*
X14098D02*
Y10595D01*
X14113Y10590D02*
X14098Y10576D01*
X14113Y10590D02*
X14122Y10595D01*
X14136D01*
X14146Y10590D01*
X14151Y10576D01*
Y10528D01*
Y10576D02*
X14165Y10590D01*
X14175Y10595D01*
X14189D01*
X14198Y10590D01*
X14203Y10576D01*
Y10528D01*
X14235D02*
Y10595D01*
X14249Y10590D02*
X14235Y10576D01*
X14249Y10590D02*
X14258Y10595D01*
X14273D01*
X14282Y10590D01*
X14287Y10576D01*
Y10528D01*
Y10576D02*
X14301Y10590D01*
X14311Y10595D01*
X14325D01*
X14334Y10590D01*
X14339Y10576D01*
Y10528D01*
X11829Y9228D02*
X11782Y9128D01*
X11762Y9228D02*
X11829D01*
X11856Y9209D02*
Y9204D01*
Y9209D02*
X11861Y9218D01*
X11866Y9223D01*
X11875Y9228D01*
X11894D01*
X11904Y9223D01*
X11909Y9218D01*
X11913Y9209D01*
Y9199D01*
X11909Y9190D01*
X11899Y9176D01*
X11852Y9128D01*
X11918D01*
X11941Y9161D02*
X11988Y9228D01*
X12012Y9161D02*
X11941D01*
X11988Y9128D02*
Y9228D01*
X12577D02*
Y9128D01*
X12544Y9228D02*
X12610D01*
X12637Y9190D02*
X12646Y9195D01*
X12637Y9190D02*
X12627Y9180D01*
X12622Y9166D01*
Y9157D01*
X12627Y9142D01*
X12637Y9133D01*
X12646Y9128D01*
X12660D01*
X12670Y9133D01*
X12679Y9142D01*
X12684Y9157D01*
Y9166D01*
X12679Y9180D01*
X12670Y9190D01*
X12660Y9195D01*
X12646D01*
X12720Y9228D02*
Y9147D01*
X12725Y9133D01*
X12735Y9128D01*
X12744D01*
X12739Y9195D02*
X12706D01*
X12816D02*
Y9128D01*
Y9180D02*
X12806Y9190D01*
X12797Y9195D01*
X12782D01*
X12773Y9190D01*
X12763Y9180D01*
X12758Y9166D01*
Y9157D01*
X12763Y9142D01*
X12773Y9133D01*
X12782Y9128D01*
X12797D01*
X12806Y9133D01*
X12816Y9142D01*
X12842Y9128D02*
Y9228D01*
D02*
M02*
