G04 #@! TF.GenerationSoftware,KiCad,Pcbnew,(5.1.0-1546-g4fcfd266e)*
G04 #@! TF.CreationDate,2019-09-02T12:51:06-07:00*
G04 #@! TF.ProjectId,300-1005,3330302d-3130-4303-952e-6b696361645f,rev?*
G04 #@! TF.SameCoordinates,Original*
G04 #@! TF.FileFunction,Copper,L1,Top*
G04 #@! TF.FilePolarity,Positive*
%FSLAX46Y46*%
G04 Gerber Fmt 4.6, Leading zero omitted, Abs format (unit mm)*
G04 Created by KiCad (PCBNEW (5.1.0-1546-g4fcfd266e)) date 2019-09-02 12:51:06*
%MOMM*%
%LPD*%
G04 APERTURE LIST*
%ADD10C,1.574800*%
%ADD11R,1.574800X1.574800*%
%ADD12O,2.286000X2.000000*%
%ADD13O,1.574800X1.200000*%
%ADD14R,1.574800X1.200000*%
%ADD15C,6.350000*%
%ADD16C,1.524000*%
%ADD17C,4.000000*%
%ADD18C,1.800000*%
%ADD19R,1.800000X1.800000*%
%ADD20C,3.810000*%
%ADD21C,1.016000*%
%ADD22C,0.304800*%
%ADD23C,1.270000*%
G04 APERTURE END LIST*
D10*
X156210000Y-62230000D03*
X148590000Y-62230000D03*
X156210000Y-64770000D03*
X148590000Y-64770000D03*
X156210000Y-67310000D03*
X148590000Y-67310000D03*
X156210000Y-69850000D03*
X148590000Y-69850000D03*
X156210000Y-72390000D03*
X148590000Y-72390000D03*
X156210000Y-74930000D03*
X148590000Y-74930000D03*
X156210000Y-77470000D03*
X148590000Y-77470000D03*
D11*
X156210000Y-80010000D03*
D10*
X148590000Y-80010000D03*
X171450000Y-62230000D03*
X163830000Y-62230000D03*
X171450000Y-64770000D03*
X163830000Y-64770000D03*
X171450000Y-67310000D03*
X163830000Y-67310000D03*
X171450000Y-69850000D03*
X163830000Y-69850000D03*
X171450000Y-72390000D03*
X163830000Y-72390000D03*
X171450000Y-74930000D03*
X163830000Y-74930000D03*
X171450000Y-77470000D03*
X163830000Y-77470000D03*
D11*
X171450000Y-80010000D03*
D10*
X163830000Y-80010000D03*
D12*
X168910000Y-26365200D03*
X168910000Y-34594800D03*
D13*
X168910000Y-28473400D03*
D10*
X168910000Y-30480000D03*
D14*
X168910000Y-32486600D03*
D12*
X162560000Y-26365200D03*
X162560000Y-34594800D03*
D13*
X162560000Y-28473400D03*
D10*
X162560000Y-30480000D03*
D14*
X162560000Y-32486600D03*
D12*
X156210000Y-26365200D03*
X156210000Y-34594800D03*
D13*
X156210000Y-28473400D03*
D10*
X156210000Y-30480000D03*
D14*
X156210000Y-32486600D03*
D12*
X149860000Y-26365200D03*
X149860000Y-34594800D03*
D13*
X149860000Y-28473400D03*
D10*
X149860000Y-30480000D03*
D14*
X149860000Y-32486600D03*
D12*
X143510000Y-26365200D03*
X143510000Y-34594800D03*
D13*
X143510000Y-28473400D03*
D10*
X143510000Y-30480000D03*
D14*
X143510000Y-32486600D03*
D12*
X137160000Y-26365200D03*
X137160000Y-34594800D03*
D13*
X137160000Y-28473400D03*
D10*
X137160000Y-30480000D03*
D14*
X137160000Y-32486600D03*
D12*
X130810000Y-26365200D03*
X130810000Y-34594800D03*
D13*
X130810000Y-28473400D03*
D10*
X130810000Y-30480000D03*
D14*
X130810000Y-32486600D03*
D12*
X124460000Y-26365200D03*
X124460000Y-34594800D03*
D13*
X124460000Y-28473400D03*
D10*
X124460000Y-30480000D03*
D14*
X124460000Y-32486600D03*
D10*
X166370000Y-55880000D03*
X166370000Y-45720000D03*
X160020000Y-55880000D03*
X160020000Y-45720000D03*
X153670000Y-55880000D03*
X153670000Y-45720000D03*
X147320000Y-55880000D03*
X147320000Y-45720000D03*
X140970000Y-55880000D03*
X140970000Y-45720000D03*
X134620000Y-55880000D03*
X134620000Y-45720000D03*
X128270000Y-55880000D03*
X128270000Y-45720000D03*
X121920000Y-55880000D03*
X121920000Y-45720000D03*
X168910000Y-55880000D03*
X168910000Y-45720000D03*
X162560000Y-55880000D03*
X162560000Y-45720000D03*
X156210000Y-55880000D03*
X156210000Y-45720000D03*
X149860000Y-55880000D03*
X149860000Y-45720000D03*
X143510000Y-55880000D03*
X143510000Y-45720000D03*
X137160000Y-55880000D03*
X137160000Y-45720000D03*
X130810000Y-55880000D03*
X130810000Y-45720000D03*
X124460000Y-55880000D03*
X124460000Y-45720000D03*
D15*
X113030000Y-95250000D03*
X186690000Y-26670000D03*
X186690000Y-95250000D03*
X113030000Y-26670000D03*
D10*
X187960000Y-66040000D03*
X185420000Y-66040000D03*
X187960000Y-63500000D03*
X185420000Y-63500000D03*
X187960000Y-60960000D03*
X185420000Y-60960000D03*
X187960000Y-58420000D03*
X185420000Y-58420000D03*
X187960000Y-55880000D03*
D11*
X185420000Y-55880000D03*
D10*
X187960000Y-44450000D03*
X185420000Y-44450000D03*
X187960000Y-41910000D03*
X185420000Y-41910000D03*
X187960000Y-39370000D03*
X185420000Y-39370000D03*
X187960000Y-36830000D03*
X185420000Y-36830000D03*
X187960000Y-34290000D03*
D11*
X185420000Y-34290000D03*
D16*
X179070000Y-80645000D03*
X176530000Y-79375000D03*
X179070000Y-78105000D03*
X176530000Y-76835000D03*
D17*
X185420000Y-74930000D03*
X185420000Y-82550000D03*
D18*
X168910000Y-39370000D03*
D19*
X168910000Y-41910000D03*
D18*
X162560000Y-39370000D03*
D19*
X162560000Y-41910000D03*
D18*
X156210000Y-39370000D03*
D19*
X156210000Y-41910000D03*
D18*
X149860000Y-39370000D03*
D19*
X149860000Y-41910000D03*
D18*
X143510000Y-39370000D03*
D19*
X143510000Y-41910000D03*
D18*
X137160000Y-39370000D03*
D19*
X137160000Y-41910000D03*
D18*
X130810000Y-39370000D03*
D19*
X130810000Y-41910000D03*
D18*
X124460000Y-39370000D03*
D19*
X124460000Y-41910000D03*
D10*
X156210000Y-83820000D03*
X148590000Y-83820000D03*
X171450000Y-83820000D03*
X163830000Y-83820000D03*
D11*
X127635000Y-83820000D03*
D10*
X125095000Y-83820000D03*
X134620000Y-62230000D03*
X127000000Y-62230000D03*
X134620000Y-64770000D03*
X127000000Y-64770000D03*
X134620000Y-67310000D03*
X127000000Y-67310000D03*
X134620000Y-69850000D03*
X127000000Y-69850000D03*
X134620000Y-72390000D03*
X127000000Y-72390000D03*
X134620000Y-74930000D03*
X127000000Y-74930000D03*
X134620000Y-77470000D03*
X127000000Y-77470000D03*
D11*
X134620000Y-80010000D03*
D10*
X127000000Y-80010000D03*
X113030000Y-66040000D03*
X115570000Y-66040000D03*
X113030000Y-68580000D03*
X115570000Y-68580000D03*
X113030000Y-71120000D03*
X115570000Y-71120000D03*
X113030000Y-73660000D03*
X115570000Y-73660000D03*
X113030000Y-76200000D03*
D11*
X115570000Y-76200000D03*
D10*
X113030000Y-44450000D03*
X115570000Y-44450000D03*
X113030000Y-46990000D03*
X115570000Y-46990000D03*
X113030000Y-49530000D03*
X115570000Y-49530000D03*
X113030000Y-52070000D03*
X115570000Y-52070000D03*
X113030000Y-54610000D03*
D11*
X115570000Y-54610000D03*
D20*
X152600000Y-89930000D03*
X177600000Y-89930000D03*
D16*
X160990000Y-91200000D03*
X163730000Y-91200000D03*
X166470000Y-91200000D03*
X169210000Y-91200000D03*
X159620000Y-88660000D03*
X162360000Y-88660000D03*
X165100000Y-88660000D03*
X167840000Y-88660000D03*
X170580000Y-88660000D03*
D20*
X119580000Y-89930000D03*
X144580000Y-89930000D03*
D16*
X127970000Y-91200000D03*
X130710000Y-91200000D03*
X133450000Y-91200000D03*
X136190000Y-91200000D03*
X126600000Y-88660000D03*
X129340000Y-88660000D03*
X132080000Y-88660000D03*
X134820000Y-88660000D03*
X137560000Y-88660000D03*
D11*
X138430000Y-77470000D03*
D10*
X138430000Y-80010000D03*
X138430000Y-70485000D03*
X138430000Y-73025000D03*
D11*
X138430000Y-64770000D03*
D10*
X138430000Y-67310000D03*
X139700000Y-83185000D03*
X137160000Y-83185000D03*
D21*
X129318655Y-73964790D03*
X132715000Y-77470000D03*
D10*
X164033941Y-58008217D03*
X174625000Y-80645000D03*
D21*
X175260000Y-35890179D03*
X162940968Y-50634113D03*
X164465000Y-38735000D03*
X148590000Y-44450000D03*
X191135000Y-67310000D03*
X150861602Y-50610313D03*
X152400000Y-38100000D03*
X166674820Y-64871267D03*
X165100000Y-35560000D03*
X168376024Y-63409575D03*
X167640000Y-62230000D03*
X166370000Y-73660000D03*
X158750000Y-71120000D03*
X152400000Y-67310000D03*
X123190000Y-75565000D03*
X132080000Y-74295000D03*
X142240000Y-67945000D03*
X174294790Y-52515313D03*
X176225210Y-50867022D03*
X182245000Y-45085000D03*
X158142475Y-49784043D03*
X139560437Y-51034577D03*
X133350000Y-50800000D03*
X179686944Y-47123912D03*
X180975000Y-46355000D03*
X178523684Y-48539422D03*
X145415000Y-50165000D03*
X177165000Y-49225210D03*
X173355000Y-49860210D03*
D10*
X169569545Y-72389991D03*
D21*
X175260000Y-73025000D03*
X175260000Y-55880000D03*
X180975000Y-75920589D03*
X182245000Y-77470000D03*
X182244987Y-57150000D03*
X180975000Y-58420000D03*
X179705000Y-74930000D03*
X179705000Y-59690000D03*
X178435000Y-72390000D03*
X178435000Y-60960000D03*
X177165000Y-69850000D03*
X177165000Y-62230000D03*
X173355000Y-63500000D03*
D10*
X119202210Y-74599720D03*
X109855000Y-84455000D03*
X118110000Y-62230000D03*
D22*
X156210000Y-74930000D02*
X154940000Y-76200000D01*
X154940000Y-78740000D02*
X155422601Y-78257399D01*
X128652481Y-76174601D02*
X131217880Y-78740000D01*
X154940000Y-76200000D02*
X132307120Y-76200000D01*
X131217880Y-78740000D02*
X154940000Y-78740000D01*
X155422601Y-78257399D02*
X156210000Y-77470000D01*
X123190000Y-75565000D02*
X123799601Y-76174601D01*
X130037075Y-73964790D02*
X129318655Y-73964790D01*
X123799601Y-76174601D02*
X128652481Y-76174601D01*
X132307120Y-76200000D02*
X130071910Y-73964790D01*
X130071910Y-73964790D02*
X130037075Y-73964790D01*
X132715000Y-77470000D02*
X130175000Y-74930000D01*
X130175000Y-74930000D02*
X127000000Y-74930000D01*
X179044601Y-35585399D02*
X177774611Y-36855389D01*
X177774611Y-36855389D02*
X171658089Y-36855389D01*
X187960000Y-34290000D02*
X186664601Y-35585399D01*
X186664601Y-35585399D02*
X179044601Y-35585399D01*
X171362799Y-38012799D02*
X171910598Y-37465000D01*
X184873389Y-38125399D02*
X186715399Y-38125399D01*
X171658089Y-36855389D02*
X171110290Y-37403188D01*
X171110290Y-37403188D02*
X153096812Y-37403188D01*
X170857781Y-36793577D02*
X171761179Y-35890179D01*
X127036423Y-36793577D02*
X170857781Y-36793577D01*
X184212990Y-37465000D02*
X184873389Y-38125399D01*
X171761179Y-35890179D02*
X174541580Y-35890179D01*
X124460000Y-39370000D02*
X127036423Y-36793577D01*
X152907999Y-37592001D02*
X152400000Y-38100000D01*
X174541580Y-35890179D02*
X175260000Y-35890179D01*
X153096812Y-37403188D02*
X152907999Y-37592001D01*
X171910598Y-37465000D02*
X184212990Y-37465000D01*
X186715399Y-38125399D02*
X187172601Y-38582601D01*
X187172601Y-38582601D02*
X187960000Y-39370000D01*
X164465000Y-38735000D02*
X165187201Y-38012799D01*
X165187201Y-38012799D02*
X171362799Y-38012799D01*
X173355000Y-49860210D02*
X172636580Y-49860210D01*
X172636580Y-49860210D02*
X172370676Y-50126114D01*
X172370676Y-50126114D02*
X163448967Y-50126114D01*
X163448967Y-50126114D02*
X162940968Y-50634113D01*
X170180000Y-44450000D02*
X148590000Y-44450000D01*
X172720000Y-41910000D02*
X170180000Y-44450000D01*
X185420000Y-41910000D02*
X172720000Y-41910000D01*
X160176449Y-64770000D02*
X156210000Y-64770000D01*
X163830000Y-67310000D02*
X162716449Y-67310000D01*
X162716449Y-67310000D02*
X160176449Y-64770000D01*
X166370000Y-67310000D02*
X163830000Y-67310000D01*
X167614601Y-68554601D02*
X166370000Y-67310000D01*
X191135000Y-67310000D02*
X189890399Y-68554601D01*
X189890399Y-68554601D02*
X167614601Y-68554601D01*
X151369601Y-50102314D02*
X150861602Y-50610313D01*
X178523684Y-48539422D02*
X178015685Y-48031423D01*
X170264937Y-48793433D02*
X152678482Y-48793433D01*
X171026947Y-48031423D02*
X170264937Y-48793433D01*
X152678482Y-48793433D02*
X151369601Y-50102314D01*
X178015685Y-48031423D02*
X171026947Y-48031423D01*
X171450000Y-64770000D02*
X166776087Y-64770000D01*
X166776087Y-64770000D02*
X166674820Y-64871267D01*
X171418606Y-34290000D02*
X169656596Y-36052010D01*
X185420000Y-34290000D02*
X171418606Y-34290000D01*
X169656596Y-36052010D02*
X165592010Y-36052010D01*
X165592010Y-36052010D02*
X165100000Y-35560000D01*
X166370000Y-60960000D02*
X135890000Y-60960000D01*
X135890000Y-60960000D02*
X134620000Y-62230000D01*
X167640000Y-62230000D02*
X166370000Y-60960000D01*
X135890000Y-63500000D02*
X167567179Y-63500000D01*
X134620000Y-64770000D02*
X135890000Y-63500000D01*
X167657604Y-63409575D02*
X168376024Y-63409575D01*
X167567179Y-63500000D02*
X167657604Y-63409575D01*
X149703551Y-74930000D02*
X148590000Y-74930000D01*
X155637990Y-73660000D02*
X154367990Y-74930000D01*
X166370000Y-73660000D02*
X155637990Y-73660000D01*
X154367990Y-74930000D02*
X149703551Y-74930000D01*
X175260000Y-73025000D02*
X174650399Y-73634601D01*
X174650399Y-73634601D02*
X168778950Y-73634601D01*
X164943551Y-77470000D02*
X163830000Y-77470000D01*
X168778950Y-73634601D02*
X164943551Y-77470000D01*
X150495000Y-69850000D02*
X148590000Y-69850000D01*
X151765000Y-71120000D02*
X150495000Y-69850000D01*
X158750000Y-71120000D02*
X151765000Y-71120000D01*
X152400000Y-67310000D02*
X148590000Y-67310000D01*
X147992591Y-73685399D02*
X151739601Y-73685399D01*
X147408389Y-74269601D02*
X147992591Y-73685399D01*
X137832591Y-74269601D02*
X147408389Y-74269601D01*
X137248389Y-73685399D02*
X137832591Y-74269601D01*
X132080000Y-74295000D02*
X132689601Y-73685399D01*
X132689601Y-73685399D02*
X137248389Y-73685399D01*
X151739601Y-73685399D02*
X153035000Y-72390000D01*
X153035000Y-72390000D02*
X156210000Y-72390000D01*
X152400000Y-69850000D02*
X156210000Y-69850000D01*
X151104601Y-68554601D02*
X152400000Y-69850000D01*
X142240000Y-67945000D02*
X142849601Y-68554601D01*
X142849601Y-68554601D02*
X151104601Y-68554601D01*
X173482295Y-52609388D02*
X173576370Y-52515313D01*
X114300000Y-53340000D02*
X118110000Y-53340000D01*
X113030000Y-54610000D02*
X114300000Y-53340000D01*
X175506790Y-50867022D02*
X176225210Y-50867022D01*
X119450222Y-51999778D02*
X164491315Y-51999778D01*
X118745000Y-54610000D02*
X120745612Y-52609388D01*
X120745612Y-52609388D02*
X173482295Y-52609388D01*
X173576370Y-52515313D02*
X174294790Y-52515313D01*
X115570000Y-54610000D02*
X118745000Y-54610000D01*
X118110000Y-53340000D02*
X119450222Y-51999778D01*
X164491315Y-51999778D02*
X165624071Y-50867022D01*
X165624071Y-50867022D02*
X175506790Y-50867022D01*
X171387010Y-45085000D02*
X182245000Y-45085000D01*
X143020802Y-47574212D02*
X140068436Y-50526578D01*
X145415000Y-50165000D02*
X147396177Y-48183823D01*
X170012427Y-48183823D02*
X171072338Y-47123912D01*
X171072338Y-47123912D02*
X178968524Y-47123912D01*
X178968524Y-47123912D02*
X179686944Y-47123912D01*
X169759918Y-47574212D02*
X143020802Y-47574212D01*
X159241895Y-49403043D02*
X158860895Y-49784043D01*
X140068436Y-50526578D02*
X139560437Y-51034577D01*
X171203279Y-48717211D02*
X170517447Y-49403043D01*
X170517447Y-49403043D02*
X159241895Y-49403043D01*
X177165000Y-49225210D02*
X176657001Y-48717211D01*
X147396177Y-48183823D02*
X170012427Y-48183823D01*
X180467001Y-45847001D02*
X171487129Y-45847001D01*
X176657001Y-48717211D02*
X171203279Y-48717211D01*
X180975000Y-46355000D02*
X180467001Y-45847001D01*
X158860895Y-49784043D02*
X158142475Y-49784043D01*
X171487129Y-45847001D02*
X169759918Y-47574212D01*
X167614601Y-46964601D02*
X169507409Y-46964601D01*
X169507409Y-46964601D02*
X171387010Y-45085000D01*
X142265399Y-46964601D02*
X167614601Y-46964601D01*
X138430000Y-50800000D02*
X142265399Y-46964601D01*
X137795000Y-50800000D02*
X138430000Y-50800000D01*
X133350000Y-50800000D02*
X137795000Y-50800000D01*
X172563551Y-74930000D02*
X171450000Y-74930000D01*
X179019212Y-74244212D02*
X173249339Y-74244212D01*
X179705000Y-74930000D02*
X179019212Y-74244212D01*
X169569536Y-72390000D02*
X169569545Y-72389991D01*
X163830000Y-72390000D02*
X169569536Y-72390000D01*
X173249339Y-74244212D02*
X172563551Y-74930000D01*
X178435000Y-72390000D02*
X177927001Y-71882001D01*
X177927001Y-71882001D02*
X171957999Y-71882001D01*
X171957999Y-71882001D02*
X171450000Y-72390000D01*
X185420000Y-55880000D02*
X175260000Y-55880000D01*
X172185582Y-79375000D02*
X172085000Y-79375000D01*
X172085000Y-79375000D02*
X171450000Y-80010000D01*
D23*
X176530000Y-76835000D02*
X174625000Y-78740000D01*
X174625000Y-78740000D02*
X174625000Y-80645000D01*
X174625000Y-80645000D02*
X173177201Y-82092799D01*
X173177201Y-82092799D02*
X165557201Y-82092799D01*
X164617399Y-83032601D02*
X163830000Y-83820000D01*
X165557201Y-82092799D02*
X164617399Y-83032601D01*
D22*
X177064418Y-75565000D02*
X175995582Y-75565000D01*
X175995582Y-75565000D02*
X172185582Y-79375000D01*
X177316927Y-74955389D02*
X178282127Y-75920589D01*
X178282127Y-75920589D02*
X180256580Y-75920589D01*
X180256580Y-75920589D02*
X180975000Y-75920589D01*
X171450000Y-77470000D02*
X173964611Y-74955389D01*
X173964611Y-74955389D02*
X177316927Y-74955389D01*
X177850799Y-76885799D02*
X177749201Y-76784201D01*
X177749201Y-76784201D02*
X177749201Y-76249783D01*
X177749201Y-76249783D02*
X177064418Y-75565000D01*
X182245000Y-77470000D02*
X181660799Y-76885799D01*
X181660799Y-76885799D02*
X177850799Y-76885799D01*
X186690000Y-57150000D02*
X182244987Y-57150000D01*
X187172601Y-56667399D02*
X186690000Y-57150000D01*
X187960000Y-55880000D02*
X187172601Y-56667399D01*
X185420000Y-58420000D02*
X180975000Y-58420000D01*
X186690000Y-59690000D02*
X179705000Y-59690000D01*
X187960000Y-58420000D02*
X186690000Y-59690000D01*
X185420000Y-60960000D02*
X178435000Y-60960000D01*
X177165000Y-69850000D02*
X171450000Y-69850000D01*
X186664601Y-62255399D02*
X177190399Y-62255399D01*
X187172601Y-61747399D02*
X186664601Y-62255399D01*
X177190399Y-62255399D02*
X177165000Y-62230000D01*
X187960000Y-60960000D02*
X187172601Y-61747399D01*
X185420000Y-63500000D02*
X173355000Y-63500000D01*
X171450000Y-64770000D02*
X186690000Y-64770000D01*
X186690000Y-64770000D02*
X187960000Y-63500000D01*
D23*
X113665000Y-57785000D02*
X111760000Y-57785000D01*
X121920000Y-57785000D02*
X113665000Y-57785000D01*
X113665000Y-57785000D02*
X113030000Y-58420000D01*
X113030000Y-58420000D02*
X113030000Y-66040000D01*
X111302799Y-45542201D02*
X111937799Y-45542201D01*
X111937799Y-45542201D02*
X113030000Y-44450000D01*
X111760000Y-57785000D02*
X111302799Y-57327799D01*
X111302799Y-57327799D02*
X111302799Y-45542201D01*
X171450000Y-83820000D02*
X175895000Y-83820000D01*
X175895000Y-83820000D02*
X179070000Y-80645000D01*
X133985000Y-85725000D02*
X132080000Y-83820000D01*
X132080000Y-83820000D02*
X127635000Y-83820000D01*
X145571449Y-85725000D02*
X133985000Y-85725000D01*
X148590000Y-83820000D02*
X147476449Y-83820000D01*
X147476449Y-83820000D02*
X145571449Y-85725000D01*
X162560000Y-83820000D02*
X160477201Y-81737201D01*
X163830000Y-83820000D02*
X162560000Y-83820000D01*
X160477201Y-81737201D02*
X155117799Y-81737201D01*
X155117799Y-81737201D02*
X153035000Y-83820000D01*
X153035000Y-83820000D02*
X148590000Y-83820000D01*
D22*
X115570000Y-76200000D02*
X116662200Y-76200000D01*
X115570000Y-73660000D02*
X118262490Y-73660000D01*
X126212601Y-70637399D02*
X127000000Y-69850000D01*
X118262490Y-73660000D02*
X118414811Y-73812321D01*
X120446811Y-73863189D02*
X126212601Y-68097399D01*
X126212601Y-68097399D02*
X127000000Y-67310000D01*
X119799619Y-75844321D02*
X120446811Y-75197129D01*
X118414811Y-73812321D02*
X119202210Y-74599720D01*
X118577709Y-75844321D02*
X119799619Y-75844321D01*
X114290881Y-74939119D02*
X117672507Y-74939119D01*
X120446811Y-75197129D02*
X120446811Y-73863189D01*
X113030000Y-76200000D02*
X114290881Y-74939119D01*
X116662200Y-76200000D02*
X116916131Y-76453931D01*
X120396069Y-76453931D02*
X126212601Y-70637399D01*
X117672507Y-74939119D02*
X118577709Y-75844321D01*
X116916131Y-76453931D02*
X120396069Y-76453931D01*
D23*
X109855000Y-84455000D02*
X114300000Y-80010000D01*
X114300000Y-80010000D02*
X127000000Y-80010000D01*
D22*
X134620000Y-77470000D02*
X138430000Y-77470000D01*
X134620000Y-67310000D02*
X138430000Y-67310000D01*
X134620000Y-69850000D02*
X137795000Y-69850000D01*
X137795000Y-69850000D02*
X138430000Y-70485000D01*
X134620000Y-72390000D02*
X137795000Y-72390000D01*
X137795000Y-72390000D02*
X138430000Y-73025000D01*
D23*
X132715000Y-81915000D02*
X135981442Y-81915000D01*
X135981442Y-81915000D02*
X137099043Y-80797399D01*
X137099043Y-80797399D02*
X137642601Y-80797399D01*
X137642601Y-80797399D02*
X138430000Y-80010000D01*
X128270000Y-77470000D02*
X132715000Y-81915000D01*
X127000000Y-77470000D02*
X128270000Y-77470000D01*
D22*
X116840000Y-72390000D02*
X124460000Y-64770000D01*
X124460000Y-64770000D02*
X127000000Y-64770000D01*
X114300000Y-72390000D02*
X116840000Y-72390000D01*
X113030000Y-73660000D02*
X114300000Y-72390000D01*
X118110000Y-62230000D02*
X127000000Y-62230000D01*
D23*
X130810000Y-28473400D02*
X124460000Y-28473400D01*
X137160000Y-28473400D02*
X130810000Y-28473400D01*
X143510000Y-28473400D02*
X137160000Y-28473400D01*
X149860000Y-28473400D02*
X143510000Y-28473400D01*
X156210000Y-28473400D02*
X149860000Y-28473400D01*
X162560000Y-28473400D02*
X156210000Y-28473400D01*
X168910000Y-28473400D02*
X162560000Y-28473400D01*
X121920000Y-57785000D02*
X121920000Y-55880000D01*
X128270000Y-57785000D02*
X121920000Y-57785000D01*
X128270000Y-57785000D02*
X128270000Y-55880000D01*
X134620000Y-57785000D02*
X128270000Y-57785000D01*
X134620000Y-57785000D02*
X134620000Y-55880000D01*
X140970000Y-57785000D02*
X134620000Y-57785000D01*
X140970000Y-57785000D02*
X140970000Y-55880000D01*
X147320000Y-57785000D02*
X140970000Y-57785000D01*
X147320000Y-57785000D02*
X147320000Y-55880000D01*
X153670000Y-57785000D02*
X147320000Y-57785000D01*
X153670000Y-57785000D02*
X153670000Y-55880000D01*
X160020000Y-57785000D02*
X153670000Y-57785000D01*
X160020000Y-57785000D02*
X160020000Y-55880000D01*
X166370000Y-57785000D02*
X160020000Y-57785000D01*
X166370000Y-55880000D02*
X166370000Y-57785000D01*
X168910000Y-53975000D02*
X168910000Y-55880000D01*
X162560000Y-53975000D02*
X168910000Y-53975000D01*
X162560000Y-53975000D02*
X162560000Y-55880000D01*
X156210000Y-53975000D02*
X162560000Y-53975000D01*
X156210000Y-53975000D02*
X156210000Y-55880000D01*
X149860000Y-53975000D02*
X156210000Y-53975000D01*
X149860000Y-53975000D02*
X149860000Y-55880000D01*
X143510000Y-53975000D02*
X149860000Y-53975000D01*
X143510000Y-53975000D02*
X143510000Y-55880000D01*
X137160000Y-53975000D02*
X143510000Y-53975000D01*
X137160000Y-53975000D02*
X137160000Y-55880000D01*
X130810000Y-53975000D02*
X137160000Y-53975000D01*
X124460000Y-53975000D02*
X130810000Y-53975000D01*
X124460000Y-55880000D02*
X124460000Y-53975000D01*
X130810000Y-53975000D02*
X130810000Y-55880000D01*
M02*
