M48
;DRILL file {KiCad (5.0.1)-3} date 11/5/2018 9:03:20 PM
;FORMAT={-:-/ absolute / metric / decimal}
FMAT,2
METRIC,TZ
T1C0.914
T2C2.032
%
G90
G05
M71
T1
X76.2Y-74.93
X76.2Y-77.47
X87.2Y-72.2
X87.2Y-76.2
X87.2Y-80.2
X101.6Y-74.93
X101.6Y-77.47
X112.6Y-72.2
X112.6Y-76.2
X112.6Y-80.2
X90.17Y-86.995
X90.17Y-89.535
X92.71Y-86.995
X92.71Y-89.535
X95.25Y-86.995
X95.25Y-89.535
X97.79Y-86.995
X97.79Y-89.535
X100.33Y-86.995
X100.33Y-89.535
X102.87Y-86.995
X102.87Y-89.535
X105.41Y-86.995
X105.41Y-89.535
X107.95Y-86.995
X107.95Y-89.535
X127.Y-74.93
X127.Y-77.47
X138.Y-72.2
X138.Y-76.2
X138.Y-80.2
T2
X127.Y-69.5
X127.Y-82.9
X76.2Y-69.5
X76.2Y-82.9
X101.6Y-69.5
X101.6Y-82.9
T0
M30
