*%FSLAX23Y23*%
*%MOIN*%
G01*
%ADD11C,0.006*%
%ADD12C,0.007*%
%ADD13C,0.008*%
%ADD14C,0.010*%
%ADD15C,0.012*%
%ADD16C,0.015*%
%ADD17C,0.020*%
%ADD18C,0.032*%
%ADD19C,0.036*%
%ADD20C,0.042*%
%ADD21C,0.050*%
%ADD22C,0.052*%
%ADD23C,0.055*%
%ADD24C,0.056*%
%ADD25C,0.060*%
%ADD26C,0.061*%
%ADD27C,0.062*%
%ADD28C,0.068*%
%ADD29C,0.070*%
%ADD30C,0.070*%
%ADD31C,0.075*%
%ADD32C,0.075*%
%ADD33C,0.080*%
%ADD34C,0.080*%
%ADD35C,0.081*%
%ADD36C,0.090*%
%ADD37C,0.095*%
%ADD38C,0.100*%
%ADD39C,0.115*%
%ADD40C,0.120*%
%ADD41C,0.125*%
%ADD42C,0.126*%
%ADD43C,0.131*%
%ADD44C,0.140*%
%ADD45C,0.150*%
%ADD46C,0.156*%
%ADD47C,0.160*%
%ADD48C,0.180*%
%ADD49C,0.186*%
%ADD50C,0.250*%
%ADD51R,0.062X0.062*%
%ADD52R,0.068X0.068*%
D11*
X14506Y8492D02*
Y8532D01*
X14546D01*
Y8492D01*
X14506D01*
X13381Y7407D02*
Y7367D01*
Y7407D02*
X13421D01*
Y7367D01*
X13381D01*
X13206Y7817D02*
Y7857D01*
X13246D01*
Y7817D01*
X13206D01*
X12956Y7557D02*
Y7517D01*
Y7557D02*
X12996D01*
Y7517D01*
X12956D01*
X13056Y8117D02*
Y8157D01*
X13096D01*
Y8117D01*
X13056D01*
X12756D02*
Y8157D01*
X12796D01*
Y8117D01*
X12756D01*
X12106Y7532D02*
Y7492D01*
Y7532D02*
X12146D01*
Y7492D01*
X12106D01*
X12156Y8117D02*
Y8157D01*
X12196D01*
Y8117D01*
X12156D01*
X11856Y7332D02*
Y7292D01*
Y7332D02*
X11896D01*
Y7292D01*
X11856D01*
X5006Y8117D02*
Y8157D01*
X5046D01*
Y8117D01*
X5006D01*
Y8417D02*
Y8457D01*
X5046D01*
Y8417D01*
X5006D01*
X5218Y8587D02*
X5217Y8580D01*
X5213Y8574D01*
X5208Y8570D01*
X5201Y8567D01*
X5195D01*
X5188Y8570D01*
X5183Y8574D01*
X5179Y8580D01*
X5178Y8587D01*
X5179Y8594D01*
X5183Y8600D01*
X5188Y8604D01*
X5195Y8607D01*
X5201D01*
X5208Y8604D01*
X5213Y8600D01*
X5217Y8594D01*
X5218Y8587D01*
X5530D02*
X5529Y8580D01*
X5525Y8574D01*
X5520Y8570D01*
X5513Y8567D01*
X5507D01*
X5500Y8570D01*
X5495Y8574D01*
X5491Y8580D01*
X5490Y8587D01*
X5491Y8594D01*
X5495Y8600D01*
X5500Y8604D01*
X5507Y8607D01*
X5513D01*
X5520Y8604D01*
X5525Y8600D01*
X5529Y8594D01*
X5530Y8587D01*
X5062D02*
X5061Y8580D01*
X5057Y8574D01*
X5052Y8570D01*
X5045Y8567D01*
X5039D01*
X5032Y8570D01*
X5027Y8574D01*
X5023Y8580D01*
X5022Y8587D01*
X5023Y8594D01*
X5027Y8600D01*
X5032Y8604D01*
X5039Y8607D01*
X5045D01*
X5052Y8604D01*
X5057Y8600D01*
X5061Y8594D01*
X5062Y8587D01*
X5374D02*
X5373Y8580D01*
X5369Y8574D01*
X5364Y8570D01*
X5357Y8567D01*
X5351D01*
X5344Y8570D01*
X5339Y8574D01*
X5335Y8580D01*
X5334Y8587D01*
X5335Y8594D01*
X5339Y8600D01*
X5344Y8604D01*
X5351Y8607D01*
X5357D01*
X5364Y8604D01*
X5369Y8600D01*
X5373Y8594D01*
X5374Y8587D01*
X5181Y8482D02*
Y8442D01*
Y8482D02*
X5221D01*
Y8442D01*
X5181D01*
X5481D02*
Y8482D01*
X5521D01*
Y8442D01*
X5481D01*
X6406Y8107D02*
X6426Y8067D01*
X6406Y8107D02*
X6446D01*
X6426Y8067D01*
X6706Y8107D02*
X6726Y8067D01*
X6706Y8107D02*
X6746D01*
X6726Y8067D01*
X5676D02*
X5656Y8107D01*
X5696D01*
X5676Y8067D01*
X5956Y8107D02*
X5976Y8067D01*
X5956Y8107D02*
X5996D01*
X5976Y8067D01*
X5396Y7109D02*
X5395Y7102D01*
X5391Y7096D01*
X5386Y7092D01*
X5379Y7089D01*
X5373D01*
X5366Y7092D01*
X5361Y7096D01*
X5357Y7102D01*
X5356Y7109D01*
X5357Y7116D01*
X5361Y7122D01*
X5366Y7126D01*
X5373Y7129D01*
X5379D01*
X5386Y7126D01*
X5391Y7122D01*
X5395Y7116D01*
X5396Y7109D01*
Y7421D02*
X5395Y7414D01*
X5391Y7408D01*
X5386Y7404D01*
X5379Y7401D01*
X5373D01*
X5366Y7404D01*
X5361Y7408D01*
X5357Y7414D01*
X5356Y7421D01*
X5357Y7428D01*
X5361Y7434D01*
X5366Y7438D01*
X5373Y7441D01*
X5379D01*
X5386Y7438D01*
X5391Y7434D01*
X5395Y7428D01*
X5396Y7421D01*
Y6953D02*
X5395Y6946D01*
X5391Y6940D01*
X5386Y6936D01*
X5379Y6933D01*
X5373D01*
X5366Y6936D01*
X5361Y6940D01*
X5357Y6946D01*
X5356Y6953D01*
X5357Y6960D01*
X5361Y6966D01*
X5366Y6970D01*
X5373Y6973D01*
X5379D01*
X5386Y6970D01*
X5391Y6966D01*
X5395Y6960D01*
X5396Y6953D01*
Y7265D02*
X5395Y7258D01*
X5391Y7252D01*
X5386Y7248D01*
X5379Y7245D01*
X5373D01*
X5366Y7248D01*
X5361Y7252D01*
X5357Y7258D01*
X5356Y7265D01*
X5357Y7272D01*
X5361Y7278D01*
X5366Y7282D01*
X5373Y7285D01*
X5379D01*
X5386Y7282D01*
X5391Y7278D01*
X5395Y7272D01*
X5396Y7265D01*
X6026Y8667D02*
X6036Y8677D01*
X6046D01*
X6036Y8687D01*
X6046Y8697D01*
X6036D01*
X6026Y8707D01*
X6016Y8697D01*
X6006D01*
X6016Y8687D01*
X6006Y8677D01*
X6016D01*
X6026Y8667D01*
X6036Y8277D02*
X6026Y8267D01*
X6036Y8277D02*
X6046D01*
X6036Y8287D01*
X6046Y8297D01*
X6036D01*
X6026Y8307D01*
X6016Y8297D01*
X6006D01*
X6016Y8287D01*
X6006Y8277D01*
X6016D01*
X6026Y8267D01*
X5876Y8667D02*
X5886Y8677D01*
X5896D01*
X5886Y8687D01*
X5896Y8697D01*
X5886D01*
X5876Y8707D01*
X5866Y8697D01*
X5856D01*
X5866Y8687D01*
X5856Y8677D01*
X5866D01*
X5876Y8667D01*
X5886Y8277D02*
X5876Y8267D01*
X5886Y8277D02*
X5896D01*
X5886Y8287D01*
X5896Y8297D01*
X5886D01*
X5876Y8307D01*
X5866Y8297D01*
X5856D01*
X5866Y8287D01*
X5856Y8277D01*
X5866D01*
X5876Y8267D01*
X6426D02*
X6436Y8277D01*
X6446D01*
X6436Y8287D01*
X6446Y8297D01*
X6436D01*
X6426Y8307D01*
X6416Y8297D01*
X6406D01*
X6416Y8287D01*
X6406Y8277D01*
X6416D01*
X6426Y8267D01*
Y8667D02*
X6436Y8677D01*
X6446D01*
X6436Y8687D01*
X6446Y8697D01*
X6436D01*
X6426Y8707D01*
X6416Y8697D01*
X6406D01*
X6416Y8687D01*
X6406Y8677D01*
X6416D01*
X6426Y8667D01*
X6586Y8277D02*
X6576Y8267D01*
X6586Y8277D02*
X6596D01*
X6586Y8287D01*
X6596Y8297D01*
X6586D01*
X6576Y8307D01*
X6566Y8297D01*
X6556D01*
X6566Y8287D01*
X6556Y8277D01*
X6566D01*
X6576Y8267D01*
Y8667D02*
X6586Y8677D01*
X6596D01*
X6586Y8687D01*
X6596Y8697D01*
X6586D01*
X6576Y8707D01*
X6566Y8697D01*
X6556D01*
X6566Y8687D01*
X6556Y8677D01*
X6566D01*
X6576Y8667D01*
X7256Y6657D02*
X7276Y6617D01*
X7256Y6657D02*
X7296D01*
X7276Y6617D01*
X7256Y7217D02*
X7266Y7237D01*
X7256Y7257D01*
X7276Y7247D01*
X7296Y7257D01*
X7286Y7237D01*
X7296Y7217D01*
X7276Y7227D01*
X7256Y7217D01*
X7506Y7157D02*
X7526Y7117D01*
X7506Y7157D02*
X7546D01*
X7526Y7117D01*
X7116Y6737D02*
X7106Y6717D01*
X7116Y6737D02*
X7106Y6757D01*
X7126Y6747D01*
X7146Y6757D01*
X7136Y6737D01*
X7146Y6717D01*
X7126Y6727D01*
X7106Y6717D01*
X7406D02*
X7416Y6737D01*
X7406Y6757D01*
X7426Y6747D01*
X7446Y6757D01*
X7436Y6737D01*
X7446Y6717D01*
X7426Y6727D01*
X7406Y6717D01*
X7426Y6917D02*
X7406Y6957D01*
X7446D01*
X7426Y6917D01*
X8256Y6657D02*
X8276Y6617D01*
X8256Y6657D02*
X8296D01*
X8276Y6617D01*
X8256Y7217D02*
X8266Y7237D01*
X8256Y7257D01*
X8276Y7247D01*
X8296Y7257D01*
X8286Y7237D01*
X8296Y7217D01*
X8276Y7227D01*
X8256Y7217D01*
X8506Y7157D02*
X8526Y7117D01*
X8506Y7157D02*
X8546D01*
X8526Y7117D01*
X8116Y6737D02*
X8106Y6717D01*
X8116Y6737D02*
X8106Y6757D01*
X8126Y6747D01*
X8146Y6757D01*
X8136Y6737D01*
X8146Y6717D01*
X8126Y6727D01*
X8106Y6717D01*
X8406D02*
X8416Y6737D01*
X8406Y6757D01*
X8426Y6747D01*
X8446Y6757D01*
X8436Y6737D01*
X8446Y6717D01*
X8426Y6727D01*
X8406Y6717D01*
X8426Y6917D02*
X8406Y6957D01*
X8446D01*
X8426Y6917D01*
X7561Y8147D02*
X7541Y8187D01*
X7581D01*
X7561Y8147D01*
X7971Y8187D02*
X7991Y8147D01*
X7971Y8187D02*
X8011D01*
X7991Y8147D01*
X7766Y8812D02*
Y8822D01*
Y8812D02*
X7786D01*
Y8822D01*
X7796D01*
Y8842D01*
X7786D01*
Y8852D01*
X7766D01*
Y8842D01*
X7756D01*
Y8822D01*
X7766D01*
Y7632D02*
Y7622D01*
X7786D01*
Y7632D01*
X7796D01*
Y7652D01*
X7786D01*
Y7662D01*
X7766D01*
Y7652D01*
X7756D01*
Y7632D01*
X7766D01*
X9256Y6657D02*
X9276Y6617D01*
X9256Y6657D02*
X9296D01*
X9276Y6617D01*
X9256Y7217D02*
X9266Y7237D01*
X9256Y7257D01*
X9276Y7247D01*
X9296Y7257D01*
X9286Y7237D01*
X9296Y7217D01*
X9276Y7227D01*
X9256Y7217D01*
X9506Y7157D02*
X9526Y7117D01*
X9506Y7157D02*
X9546D01*
X9526Y7117D01*
X9116Y6737D02*
X9106Y6717D01*
X9116Y6737D02*
X9106Y6757D01*
X9126Y6747D01*
X9146Y6757D01*
X9136Y6737D01*
X9146Y6717D01*
X9126Y6727D01*
X9106Y6717D01*
X9406D02*
X9416Y6737D01*
X9406Y6757D01*
X9426Y6747D01*
X9446Y6757D01*
X9436Y6737D01*
X9446Y6717D01*
X9426Y6727D01*
X9406Y6717D01*
X9426Y6917D02*
X9406Y6957D01*
X9446D01*
X9426Y6917D01*
X9876Y7617D02*
X9886Y7627D01*
X9896D01*
X9886Y7637D01*
X9896Y7647D01*
X9886D01*
X9876Y7657D01*
X9866Y7647D01*
X9856D01*
X9866Y7637D01*
X9856Y7627D01*
X9866D01*
X9876Y7617D01*
Y8017D02*
X9886Y8027D01*
X9896D01*
X9886Y8037D01*
X9896Y8047D01*
X9886D01*
X9876Y8057D01*
X9866Y8047D01*
X9856D01*
X9866Y8037D01*
X9856Y8027D01*
X9866D01*
X9876Y8017D01*
X8736Y7677D02*
X8726Y7667D01*
X8736Y7677D02*
X8746D01*
X8736Y7687D01*
X8746Y7697D01*
X8736D01*
X8726Y7707D01*
X8716Y7697D01*
X8706D01*
X8716Y7687D01*
X8706Y7677D01*
X8716D01*
X8726Y7667D01*
Y8067D02*
X8736Y8077D01*
X8746D01*
X8736Y8087D01*
X8746Y8097D01*
X8736D01*
X8726Y8107D01*
X8716Y8097D01*
X8706D01*
X8716Y8087D01*
X8706Y8077D01*
X8716D01*
X8726Y8067D01*
X9218Y8587D02*
X9217Y8580D01*
X9213Y8574D01*
X9208Y8570D01*
X9201Y8567D01*
X9195D01*
X9188Y8570D01*
X9183Y8574D01*
X9179Y8580D01*
X9178Y8587D01*
X9179Y8594D01*
X9183Y8600D01*
X9188Y8604D01*
X9195Y8607D01*
X9201D01*
X9208Y8604D01*
X9213Y8600D01*
X9217Y8594D01*
X9218Y8587D01*
X9530D02*
X9529Y8580D01*
X9525Y8574D01*
X9520Y8570D01*
X9513Y8567D01*
X9507D01*
X9500Y8570D01*
X9495Y8574D01*
X9491Y8580D01*
X9490Y8587D01*
X9491Y8594D01*
X9495Y8600D01*
X9500Y8604D01*
X9507Y8607D01*
X9513D01*
X9520Y8604D01*
X9525Y8600D01*
X9529Y8594D01*
X9530Y8587D01*
X9062D02*
X9061Y8580D01*
X9057Y8574D01*
X9052Y8570D01*
X9045Y8567D01*
X9039D01*
X9032Y8570D01*
X9027Y8574D01*
X9023Y8580D01*
X9022Y8587D01*
X9023Y8594D01*
X9027Y8600D01*
X9032Y8604D01*
X9039Y8607D01*
X9045D01*
X9052Y8604D01*
X9057Y8600D01*
X9061Y8594D01*
X9062Y8587D01*
X9374D02*
X9373Y8580D01*
X9369Y8574D01*
X9364Y8570D01*
X9357Y8567D01*
X9351D01*
X9344Y8570D01*
X9339Y8574D01*
X9335Y8580D01*
X9334Y8587D01*
X9335Y8594D01*
X9339Y8600D01*
X9344Y8604D01*
X9351Y8607D01*
X9357D01*
X9364Y8604D01*
X9369Y8600D01*
X9373Y8594D01*
X9374Y8587D01*
X8736Y8177D02*
X8726Y8167D01*
X8736Y8177D02*
X8746D01*
X8736Y8187D01*
X8746Y8197D01*
X8736D01*
X8726Y8207D01*
X8716Y8197D01*
X8706D01*
X8716Y8187D01*
X8706Y8177D01*
X8716D01*
X8726Y8167D01*
Y8567D02*
X8736Y8577D01*
X8746D01*
X8736Y8587D01*
X8746Y8597D01*
X8736D01*
X8726Y8607D01*
X8716Y8597D01*
X8706D01*
X8716Y8587D01*
X8706Y8577D01*
X8716D01*
X8726Y8567D01*
X8531Y8507D02*
Y8467D01*
Y8507D02*
X8571D01*
Y8467D01*
X8531D01*
Y8567D02*
Y8607D01*
X8571D01*
Y8567D01*
X8531D01*
X11256Y6657D02*
X11276Y6617D01*
X11256Y6657D02*
X11296D01*
X11276Y6617D01*
X11256Y7217D02*
X11266Y7237D01*
X11256Y7257D01*
X11276Y7247D01*
X11296Y7257D01*
X11286Y7237D01*
X11296Y7217D01*
X11276Y7227D01*
X11256Y7217D01*
X11506Y7157D02*
X11526Y7117D01*
X11506Y7157D02*
X11546D01*
X11526Y7117D01*
X11116Y6737D02*
X11106Y6717D01*
X11116Y6737D02*
X11106Y6757D01*
X11126Y6747D01*
X11146Y6757D01*
X11136Y6737D01*
X11146Y6717D01*
X11126Y6727D01*
X11106Y6717D01*
X11406D02*
X11416Y6737D01*
X11406Y6757D01*
X11426Y6747D01*
X11446Y6757D01*
X11436Y6737D01*
X11446Y6717D01*
X11426Y6727D01*
X11406Y6717D01*
X11426Y6917D02*
X11406Y6957D01*
X11446D01*
X11426Y6917D01*
X10276Y6617D02*
X10256Y6657D01*
X10296D01*
X10276Y6617D01*
X10256Y7217D02*
X10266Y7237D01*
X10256Y7257D01*
X10276Y7247D01*
X10296Y7257D01*
X10286Y7237D01*
X10296Y7217D01*
X10276Y7227D01*
X10256Y7217D01*
X10506Y7157D02*
X10526Y7117D01*
X10506Y7157D02*
X10546D01*
X10526Y7117D01*
X10116Y6737D02*
X10106Y6717D01*
X10116Y6737D02*
X10106Y6757D01*
X10126Y6747D01*
X10146Y6757D01*
X10136Y6737D01*
X10146Y6717D01*
X10126Y6727D01*
X10106Y6717D01*
X10406D02*
X10416Y6737D01*
X10406Y6757D01*
X10426Y6747D01*
X10446Y6757D01*
X10436Y6737D01*
X10446Y6717D01*
X10426Y6727D01*
X10406Y6717D01*
X10426Y6917D02*
X10406Y6957D01*
X10446D01*
X10426Y6917D01*
X11556Y8617D02*
Y8657D01*
X11596D01*
Y8617D01*
X11556D01*
Y8557D02*
Y8517D01*
Y8557D02*
X11596D01*
Y8517D01*
X11556D01*
Y8007D02*
Y7967D01*
Y8007D02*
X11596D01*
Y7967D01*
X11556D01*
Y8267D02*
Y8307D01*
X11596D01*
Y8267D01*
X11556D01*
X10561Y8147D02*
X10541Y8187D01*
X10581D01*
X10561Y8147D01*
X10971Y8187D02*
X10991Y8147D01*
X10971Y8187D02*
X11011D01*
X10991Y8147D01*
X10766Y8812D02*
Y8822D01*
Y8812D02*
X10786D01*
Y8822D01*
X10796D01*
Y8842D01*
X10786D01*
Y8852D01*
X10766D01*
Y8842D01*
X10756D01*
Y8822D01*
X10766D01*
Y7632D02*
Y7622D01*
X10786D01*
Y7632D01*
X10796D01*
Y7652D01*
X10786D01*
Y7662D01*
X10766D01*
Y7652D01*
X10756D01*
Y7632D01*
X10766D01*
X10036Y8027D02*
X10026Y8017D01*
X10036Y8027D02*
X10046D01*
X10036Y8037D01*
X10046Y8047D01*
X10036D01*
X10026Y8057D01*
X10016Y8047D01*
X10006D01*
X10016Y8037D01*
X10006Y8027D01*
X10016D01*
X10026Y8017D01*
X10036Y7627D02*
X10026Y7617D01*
X10036Y7627D02*
X10046D01*
X10036Y7637D01*
X10046Y7647D01*
X10036D01*
X10026Y7657D01*
X10016Y7647D01*
X10006D01*
X10016Y7637D01*
X10006Y7627D01*
X10016D01*
X10026Y7617D01*
X12256Y6657D02*
X12276Y6617D01*
X12256Y6657D02*
X12296D01*
X12276Y6617D01*
X12256Y7217D02*
X12266Y7237D01*
X12256Y7257D01*
X12276Y7247D01*
X12296Y7257D01*
X12286Y7237D01*
X12296Y7217D01*
X12276Y7227D01*
X12256Y7217D01*
X12506Y7157D02*
X12526Y7117D01*
X12506Y7157D02*
X12546D01*
X12526Y7117D01*
X12116Y6737D02*
X12106Y6717D01*
X12116Y6737D02*
X12106Y6757D01*
X12126Y6747D01*
X12146Y6757D01*
X12136Y6737D01*
X12146Y6717D01*
X12126Y6727D01*
X12106Y6717D01*
X12406D02*
X12416Y6737D01*
X12406Y6757D01*
X12426Y6747D01*
X12446Y6757D01*
X12436Y6737D01*
X12446Y6717D01*
X12426Y6727D01*
X12406Y6717D01*
X12426Y6917D02*
X12406Y6957D01*
X12446D01*
X12426Y6917D01*
X12756Y7817D02*
Y7857D01*
X12796D01*
Y7817D01*
X12756D01*
Y7757D02*
Y7717D01*
Y7757D02*
X12796D01*
Y7717D01*
X12756D01*
X12656Y7457D02*
Y7417D01*
Y7457D02*
X12696D01*
Y7417D01*
X12656D01*
Y7817D02*
Y7857D01*
X12696D01*
Y7817D01*
X12656D01*
X12556D02*
Y7857D01*
X12596D01*
Y7817D01*
X12556D01*
Y7457D02*
Y7417D01*
Y7457D02*
X12596D01*
Y7417D01*
X12556D01*
X12456D02*
Y7457D01*
X12496D01*
Y7417D01*
X12456D01*
Y7817D02*
Y7857D01*
X12496D01*
Y7817D01*
X12456D01*
X12156D02*
Y7857D01*
X12196D01*
Y7817D01*
X12156D01*
Y7457D02*
Y7417D01*
Y7457D02*
X12196D01*
Y7417D01*
X12156D01*
X11756D02*
Y7457D01*
X11796D01*
Y7417D01*
X11756D01*
Y7817D02*
Y7857D01*
X11796D01*
Y7817D01*
X11756D01*
X11656Y7457D02*
Y7417D01*
Y7457D02*
X11696D01*
Y7417D01*
X11656D01*
Y7817D02*
Y7857D01*
X11696D01*
Y7817D01*
X11656D01*
X12156Y8967D02*
Y9007D01*
X12196D01*
Y8967D01*
X12156D01*
Y8507D02*
Y8467D01*
Y8507D02*
X12196D01*
Y8467D01*
X12156D01*
X12356D02*
Y8507D01*
X12396D01*
Y8467D01*
X12356D01*
Y8867D02*
Y8907D01*
X12396D01*
Y8867D01*
X12356D01*
X13056Y8007D02*
Y7967D01*
Y8007D02*
X13096D01*
Y7967D01*
X13056D01*
X12956Y8267D02*
Y8307D01*
X12996D01*
Y8267D01*
X12956D01*
X13056D02*
Y8307D01*
X13096D01*
Y8267D01*
X13056D01*
X13156D02*
Y8307D01*
X13196D01*
Y8267D01*
X13156D01*
X13256D02*
Y8307D01*
X13296D01*
Y8267D01*
X13256D01*
Y8007D02*
Y7967D01*
Y8007D02*
X13296D01*
Y7967D01*
X13256D01*
X13156D02*
Y8007D01*
X13196D01*
Y7967D01*
X13156D01*
X12956D02*
Y8007D01*
X12996D01*
Y7967D01*
X12956D01*
X12856D02*
Y8007D01*
X12896D01*
Y7967D01*
X12856D01*
Y8267D02*
Y8307D01*
X12896D01*
Y8267D01*
X12856D01*
X12156Y8007D02*
Y7967D01*
Y8007D02*
X12196D01*
Y7967D01*
X12156D01*
X12356D02*
Y8007D01*
X12396D01*
Y7967D01*
X12356D01*
X12156Y8267D02*
Y8307D01*
X12196D01*
Y8267D01*
X12156D01*
X12256D02*
Y8307D01*
X12296D01*
Y8267D01*
X12256D01*
X12356D02*
Y8307D01*
X12396D01*
Y8267D01*
X12356D01*
X12456D02*
Y8307D01*
X12496D01*
Y8267D01*
X12456D01*
X12556D02*
Y8307D01*
X12596D01*
Y8267D01*
X12556D01*
X12656D02*
Y8307D01*
X12696D01*
Y8267D01*
X12656D01*
X12756D02*
Y8307D01*
X12796D01*
Y8267D01*
X12756D01*
Y8007D02*
Y7967D01*
Y8007D02*
X12796D01*
Y7967D01*
X12756D01*
X12656D02*
Y8007D01*
X12696D01*
Y7967D01*
X12656D01*
X12556D02*
Y8007D01*
X12596D01*
Y7967D01*
X12556D01*
X12456D02*
Y8007D01*
X12496D01*
Y7967D01*
X12456D01*
X12256D02*
Y8007D01*
X12296D01*
Y7967D01*
X12256D01*
X12056Y8267D02*
Y8307D01*
X12096D01*
Y8267D01*
X12056D01*
Y8007D02*
Y7967D01*
Y8007D02*
X12096D01*
Y7967D01*
X12056D01*
X11756D02*
Y8007D01*
X11796D01*
Y7967D01*
X11756D01*
X11656Y8267D02*
Y8307D01*
X11696D01*
Y8267D01*
X11656D01*
X11756D02*
Y8307D01*
X11796D01*
Y8267D01*
X11756D01*
X11856D02*
Y8307D01*
X11896D01*
Y8267D01*
X11856D01*
X11956D02*
Y8307D01*
X11996D01*
Y8267D01*
X11956D01*
Y8007D02*
Y7967D01*
Y8007D02*
X11996D01*
Y7967D01*
X11956D01*
X11856D02*
Y8007D01*
X11896D01*
Y7967D01*
X11856D01*
X11656D02*
Y8007D01*
X11696D01*
Y7967D01*
X11656D01*
X12706Y7157D02*
Y7117D01*
Y7157D02*
X12746D01*
Y7117D01*
X12706D01*
Y6757D02*
Y6717D01*
Y6757D02*
X12746D01*
Y6717D01*
X12706D01*
X11956Y8967D02*
Y9007D01*
X11996D01*
Y8967D01*
X11956D01*
Y8607D02*
Y8567D01*
Y8607D02*
X11996D01*
Y8567D01*
X11956D01*
X14256Y6657D02*
Y6617D01*
Y6657D02*
X14296D01*
Y6617D01*
X14256D01*
X14356D02*
Y6657D01*
X14396D01*
Y6617D01*
X14356D01*
X14156D02*
Y6657D01*
X14196D01*
Y6617D01*
X14156D01*
X13276D02*
X13256Y6657D01*
X13296D01*
X13276Y6617D01*
X13256Y7217D02*
X13266Y7237D01*
X13256Y7257D01*
X13276Y7247D01*
X13296Y7257D01*
X13286Y7237D01*
X13296Y7217D01*
X13276Y7227D01*
X13256Y7217D01*
X13506Y7157D02*
X13526Y7117D01*
X13506Y7157D02*
X13546D01*
X13526Y7117D01*
X13116Y6737D02*
X13106Y6717D01*
X13116Y6737D02*
X13106Y6757D01*
X13126Y6747D01*
X13146Y6757D01*
X13136Y6737D01*
X13146Y6717D01*
X13126Y6727D01*
X13106Y6717D01*
X13406D02*
X13416Y6737D01*
X13406Y6757D01*
X13426Y6747D01*
X13446Y6757D01*
X13436Y6737D01*
X13446Y6717D01*
X13426Y6727D01*
X13406Y6717D01*
X13426Y6917D02*
X13406Y6957D01*
X13446D01*
X13426Y6917D01*
X14006Y8417D02*
Y8457D01*
X14046D01*
Y8417D01*
X14006D01*
Y8817D02*
Y8857D01*
X14046D01*
Y8817D01*
X14006D01*
X14106Y8457D02*
Y8417D01*
Y8457D02*
X14146D01*
Y8417D01*
X14106D01*
Y8817D02*
Y8857D01*
X14146D01*
Y8817D01*
X14106D01*
X14206Y8457D02*
Y8417D01*
Y8457D02*
X14246D01*
Y8417D01*
X14206D01*
Y8817D02*
Y8857D01*
X14246D01*
Y8817D01*
X14206D01*
Y7457D02*
Y7417D01*
Y7457D02*
X14246D01*
Y7417D01*
X14206D01*
Y7817D02*
Y7857D01*
X14246D01*
Y7817D01*
X14206D01*
X14306Y7457D02*
Y7417D01*
Y7457D02*
X14346D01*
Y7417D01*
X14306D01*
Y7817D02*
Y7857D01*
X14346D01*
Y7817D01*
X14306D01*
X13356Y8267D02*
Y8307D01*
X13396D01*
Y8267D01*
X13356D01*
Y8007D02*
Y7967D01*
Y8007D02*
X13396D01*
Y7967D01*
X13356D01*
X13506D02*
Y8007D01*
X13546D01*
Y7967D01*
X13506D01*
Y8267D02*
Y8307D01*
X13546D01*
Y8267D01*
X13506D01*
X13706Y8007D02*
Y7967D01*
Y8007D02*
X13746D01*
Y7967D01*
X13706D01*
X13606Y8267D02*
Y8307D01*
X13646D01*
Y8267D01*
X13606D01*
X13706D02*
Y8307D01*
X13746D01*
Y8267D01*
X13706D01*
X13806D02*
Y8307D01*
X13846D01*
Y8267D01*
X13806D01*
X13906D02*
Y8307D01*
X13946D01*
Y8267D01*
X13906D01*
Y8007D02*
Y7967D01*
Y8007D02*
X13946D01*
Y7967D01*
X13906D01*
X13806D02*
Y8007D01*
X13846D01*
Y7967D01*
X13806D01*
X13606D02*
Y8007D01*
X13646D01*
Y7967D01*
X13606D01*
X14006Y8267D02*
Y8307D01*
X14046D01*
Y8267D01*
X14006D01*
Y8007D02*
Y7967D01*
Y8007D02*
X14046D01*
Y7967D01*
X14006D01*
X14306D02*
Y8007D01*
X14346D01*
Y7967D01*
X14306D01*
X14206Y8267D02*
Y8307D01*
X14246D01*
Y8267D01*
X14206D01*
X14306D02*
Y8307D01*
X14346D01*
Y8267D01*
X14306D01*
X14406D02*
Y8307D01*
X14446D01*
Y8267D01*
X14406D01*
X14506D02*
Y8307D01*
X14546D01*
Y8267D01*
X14506D01*
Y8007D02*
Y7967D01*
Y8007D02*
X14546D01*
Y7967D01*
X14506D01*
X14406D02*
Y8007D01*
X14446D01*
Y7967D01*
X14406D01*
X14206D02*
Y8007D01*
X14246D01*
Y7967D01*
X14206D01*
X14631Y8267D02*
Y8307D01*
X14671D01*
Y8267D01*
X14631D01*
Y8007D02*
Y7967D01*
Y8007D02*
X14671D01*
Y7967D01*
X14631D01*
X14106D02*
Y8007D01*
X14146D01*
Y7967D01*
X14106D01*
Y8267D02*
Y8307D01*
X14146D01*
Y8267D01*
X14106D01*
X14041Y8992D02*
X14031D01*
X14041D02*
X14051Y9002D01*
X14061Y8992D01*
X14071D01*
Y9002D01*
X14061Y9012D01*
X14071Y9022D01*
Y9032D01*
X14061D01*
X14051Y9022D01*
X14041Y9032D01*
X14031D01*
Y9022D01*
X14041Y9012D01*
X14031Y9002D01*
Y8992D01*
X14081Y8942D02*
X14091D01*
X14101Y8952D01*
X14111Y8942D01*
X14121D01*
Y8952D01*
X14111Y8962D01*
X14121Y8972D01*
Y8982D01*
X14111D01*
X14101Y8972D01*
X14091Y8982D01*
X14081D01*
Y8972D01*
X14091Y8962D01*
X14081Y8952D01*
Y8942D01*
X14131Y8992D02*
X14141D01*
X14151Y9002D01*
X14161Y8992D01*
X14171D01*
Y9002D01*
X14161Y9012D01*
X14171Y9022D01*
Y9032D01*
X14161D01*
X14151Y9022D01*
X14141Y9032D01*
X14131D01*
Y9022D01*
X14141Y9012D01*
X14131Y9002D01*
Y8992D01*
X13706Y8857D02*
Y8817D01*
Y8857D02*
X13746D01*
Y8817D01*
X13706D01*
Y8457D02*
Y8417D01*
Y8457D02*
X13746D01*
Y8417D01*
X13706D01*
X13806Y8817D02*
Y8857D01*
X13846D01*
Y8817D01*
X13806D01*
Y8457D02*
Y8417D01*
Y8457D02*
X13846D01*
Y8417D01*
X13806D01*
X13906Y8817D02*
Y8857D01*
X13946D01*
Y8817D01*
X13906D01*
Y8457D02*
Y8417D01*
Y8457D02*
X13946D01*
Y8417D01*
X13906D01*
X14306Y8817D02*
Y8857D01*
X14346D01*
Y8817D01*
X14306D01*
Y8457D02*
Y8417D01*
Y8457D02*
X14346D01*
Y8417D01*
X14306D01*
X14406Y8817D02*
Y8857D01*
X14446D01*
Y8817D01*
X14406D01*
Y8457D02*
Y8417D01*
Y8457D02*
X14446D01*
Y8417D01*
X14406D01*
X13218Y8587D02*
X13217Y8580D01*
X13213Y8574D01*
X13208Y8570D01*
X13201Y8567D01*
X13195D01*
X13188Y8570D01*
X13183Y8574D01*
X13179Y8580D01*
X13178Y8587D01*
X13179Y8594D01*
X13183Y8600D01*
X13188Y8604D01*
X13195Y8607D01*
X13201D01*
X13208Y8604D01*
X13213Y8600D01*
X13217Y8594D01*
X13218Y8587D01*
X13530D02*
X13529Y8580D01*
X13525Y8574D01*
X13520Y8570D01*
X13513Y8567D01*
X13507D01*
X13500Y8570D01*
X13495Y8574D01*
X13491Y8580D01*
X13490Y8587D01*
X13491Y8594D01*
X13495Y8600D01*
X13500Y8604D01*
X13507Y8607D01*
X13513D01*
X13520Y8604D01*
X13525Y8600D01*
X13529Y8594D01*
X13530Y8587D01*
X13062D02*
X13061Y8580D01*
X13057Y8574D01*
X13052Y8570D01*
X13045Y8567D01*
X13039D01*
X13032Y8570D01*
X13027Y8574D01*
X13023Y8580D01*
X13022Y8587D01*
X13023Y8594D01*
X13027Y8600D01*
X13032Y8604D01*
X13039Y8607D01*
X13045D01*
X13052Y8604D01*
X13057Y8600D01*
X13061Y8594D01*
X13062Y8587D01*
X13374D02*
X13373Y8580D01*
X13369Y8574D01*
X13364Y8570D01*
X13357Y8567D01*
X13351D01*
X13344Y8570D01*
X13339Y8574D01*
X13335Y8580D01*
X13334Y8587D01*
X13335Y8594D01*
X13339Y8600D01*
X13344Y8604D01*
X13351Y8607D01*
X13357D01*
X13364Y8604D01*
X13369Y8600D01*
X13373Y8594D01*
X13374Y8587D01*
X12521Y9552D02*
X12511D01*
X12521D02*
X12531Y9562D01*
X12541Y9552D01*
X12551D01*
Y9562D01*
X12541Y9572D01*
X12551Y9582D01*
Y9592D01*
X12541D01*
X12531Y9582D01*
X12521Y9592D01*
X12511D01*
Y9582D01*
X12521Y9572D01*
X12511Y9562D01*
Y9552D01*
Y9752D02*
Y9792D01*
X12551D01*
Y9752D01*
X12511D01*
X12531Y9952D02*
X12541Y9962D01*
X12551D01*
X12541Y9972D01*
X12551Y9982D01*
X12541D01*
X12531Y9992D01*
X12521Y9982D01*
X12511D01*
X12521Y9972D01*
X12511Y9962D01*
X12521D01*
X12531Y9952D01*
Y10152D02*
X12511Y10192D01*
X12551D01*
X12531Y10152D01*
X12551Y10372D02*
X12550Y10365D01*
X12546Y10359D01*
X12541Y10355D01*
X12534Y10352D01*
X12528D01*
X12521Y10355D01*
X12516Y10359D01*
X12512Y10365D01*
X12511Y10372D01*
X12512Y10379D01*
X12516Y10385D01*
X12521Y10389D01*
X12528Y10392D01*
X12534D01*
X12541Y10389D01*
X12546Y10385D01*
X12550Y10379D01*
X12551Y10372D01*
X12511Y10552D02*
X12521Y10572D01*
X12511Y10592D01*
X12531Y10582D01*
X12551Y10592D01*
X12541Y10572D01*
X12551Y10552D01*
X12531Y10562D01*
X12511Y10552D01*
X12521Y10752D02*
Y10762D01*
Y10752D02*
X12541D01*
Y10762D01*
X12551D01*
Y10782D01*
X12541D01*
Y10792D01*
X12521D01*
Y10782D01*
X12511D01*
Y10762D01*
X12521D01*
D14*
X15176Y6437D02*
X15276D01*
Y9187D02*
X15176D01*
X15190Y6544D02*
X15226Y6437D01*
X15262Y6544D01*
X15190Y9080D02*
X15226Y9187D01*
X15262Y9080D01*
X15226Y7490D02*
Y6437D01*
Y8134D02*
Y9187D01*
X14776Y6137D02*
Y6037D01*
X4776D02*
Y6137D01*
X14669Y6051D02*
X14776Y6087D01*
X14669Y6123D01*
X4883Y6051D02*
X4776Y6087D01*
X4883Y6123D01*
X10139Y6087D02*
X14776D01*
X9413D02*
X4776D01*
X5761Y9867D02*
X5828D01*
X5761D02*
X5828Y9934D01*
Y9950D01*
X5811Y9967D01*
X5778D01*
X5761Y9950D01*
X5861D02*
X5878Y9967D01*
X5911D01*
X5928Y9950D01*
Y9884D01*
X5911Y9867D01*
X5878D01*
X5861Y9884D01*
Y9950D01*
X5961D02*
X5978Y9967D01*
X6011D01*
X6028Y9950D01*
Y9884D01*
X6011Y9867D01*
X5978D01*
X5961Y9884D01*
Y9950D01*
X6061Y9917D02*
X6128D01*
X6161Y9867D02*
X6194D01*
X6178D01*
Y9967D01*
X6179D01*
X6178D02*
X6161Y9950D01*
X6244D02*
X6261Y9967D01*
X6294D01*
X6311Y9950D01*
Y9884D01*
X6294Y9867D01*
X6261D01*
X6244Y9884D01*
Y9950D01*
X6344D02*
X6361Y9967D01*
X6394D01*
X6411Y9950D01*
Y9934D01*
X6412D01*
X6411D02*
X6412D01*
X6411D02*
X6412D01*
X6411D02*
X6394Y9917D01*
X6377D01*
X6394D01*
X6411Y9900D01*
Y9884D01*
X6394Y9867D01*
X6361D01*
X6344Y9884D01*
X6444Y9867D02*
X6477D01*
X6461D01*
Y9967D01*
X6462D01*
X6461D02*
X6444Y9950D01*
X6527Y9917D02*
X6594D01*
X6627Y9950D02*
X6644Y9967D01*
X6677D01*
X6694Y9950D01*
Y9884D01*
X6677Y9867D01*
X6644D01*
X6627Y9884D01*
Y9950D01*
X6761D02*
X6794Y9967D01*
X6761Y9950D02*
X6727Y9917D01*
Y9884D01*
X6744Y9867D01*
X6777D01*
X6794Y9884D01*
Y9900D01*
X6777Y9917D01*
X6727D01*
X6927Y9867D02*
Y9967D01*
X6977D01*
X6994Y9950D01*
Y9917D01*
X6977Y9900D01*
X6927D01*
X6961D02*
X6994Y9867D01*
X7027Y9967D02*
X7094D01*
X7027D02*
Y9867D01*
X7094D01*
X7061Y9917D02*
X7027D01*
X7127Y9900D02*
Y9967D01*
Y9900D02*
X7161Y9867D01*
X7194Y9900D01*
Y9967D01*
X7327D02*
Y9867D01*
X7394D02*
X7327Y9967D01*
X7394D02*
Y9867D01*
X7494Y9950D02*
X7477Y9967D01*
X7444D01*
X7427Y9950D01*
Y9884D01*
X7444Y9867D01*
X7477D01*
X7494Y9884D01*
X7627Y9967D02*
X7694D01*
X7627D02*
Y9917D01*
X7660D01*
X7627D01*
Y9867D01*
X7727D02*
Y9934D01*
X7760Y9967D01*
X7794Y9934D01*
Y9867D01*
Y9917D01*
X7727D01*
X7827Y9867D02*
Y9967D01*
Y9867D02*
X7877D01*
X7894Y9884D01*
Y9900D01*
X7877Y9917D01*
X7827D01*
X7828D01*
X7827D02*
X7828D01*
X7827D02*
X7828D01*
X7827D02*
X7877D01*
X7894Y9934D01*
Y9950D01*
X7877Y9967D01*
X7827D01*
X8027D02*
Y9867D01*
X8077D01*
X8094Y9884D01*
Y9950D01*
X8077Y9967D01*
X8027D01*
X8127D02*
Y9867D01*
Y9967D02*
X8177D01*
X8194Y9950D01*
Y9917D01*
X8177Y9900D01*
X8127D01*
X8160D02*
X8194Y9867D01*
X8227D02*
Y9934D01*
X8260Y9967D01*
X8294Y9934D01*
Y9867D01*
Y9917D01*
X8227D01*
X8327Y9867D02*
Y9967D01*
X8360Y9900D02*
X8327Y9867D01*
X8360Y9900D02*
X8393Y9867D01*
Y9967D01*
X8427D02*
X8460D01*
X8443D01*
Y9867D01*
X8427D01*
X8460D01*
X8510D02*
Y9967D01*
X8577Y9867D01*
Y9967D01*
X8660D02*
X8677Y9950D01*
X8660Y9967D02*
X8627D01*
X8610Y9950D01*
Y9884D01*
X8627Y9867D01*
X8660D01*
X8677Y9884D01*
Y9917D01*
X8643D01*
X9423Y6034D02*
X9456D01*
X9439D01*
Y6134D01*
X9440D01*
X9439D02*
X9423Y6117D01*
X9506D02*
X9523Y6134D01*
X9556D01*
X9573Y6117D01*
Y6050D01*
X9556Y6034D01*
X9523D01*
X9506Y6050D01*
Y6117D01*
X9606D02*
X9623Y6134D01*
X9656D01*
X9673Y6117D01*
Y6050D01*
X9656Y6034D01*
X9623D01*
X9606Y6050D01*
Y6117D01*
X9706D02*
X9723Y6134D01*
X9756D01*
X9773Y6117D01*
Y6050D01*
X9756Y6034D01*
X9723D01*
X9706Y6050D01*
Y6117D01*
X9806D02*
X9823Y6134D01*
X9856D01*
X9873Y6117D01*
Y6050D01*
X9856Y6034D01*
X9823D01*
X9806Y6050D01*
Y6117D01*
X9906Y6100D02*
Y6034D01*
Y6100D02*
X9923D01*
X9939Y6084D01*
Y6034D01*
Y6084D01*
X9956Y6100D01*
X9972Y6084D01*
Y6034D01*
X10006D02*
X10039D01*
X10022D01*
Y6100D01*
X10006D01*
X10022Y6134D02*
X10023D01*
X10089Y6034D02*
X10122D01*
X10106D01*
Y6134D01*
X10089D01*
X15173Y8057D02*
Y8124D01*
X15239Y8057D01*
X15256D01*
X15273Y8074D01*
Y8107D01*
X15256Y8124D01*
X15273Y8024D02*
Y7957D01*
X15256D01*
X15189Y8024D01*
X15173D01*
X15273Y7924D02*
Y7857D01*
Y7924D02*
X15223D01*
X15239Y7890D01*
Y7874D01*
X15223Y7857D01*
X15189D01*
X15173Y7874D01*
Y7907D01*
X15189Y7924D01*
X15256Y7824D02*
X15273Y7807D01*
Y7774D01*
X15256Y7757D01*
X15189D01*
X15173Y7774D01*
Y7807D01*
X15189Y7824D01*
X15256D01*
X15239Y7724D02*
X15173D01*
X15239D02*
Y7707D01*
X15223Y7690D01*
X15173D01*
X15223D01*
X15239Y7674D01*
X15223Y7657D01*
X15173D01*
Y7624D02*
Y7591D01*
Y7607D01*
X15239D01*
Y7624D01*
X15273Y7607D02*
X15274D01*
X15173Y7541D02*
Y7507D01*
Y7524D01*
X15273D01*
Y7541D01*
X14776Y6437D02*
Y9187D01*
X4776D02*
Y6437D01*
X14776D01*
Y9187D02*
X4776D01*
X12853Y9622D02*
X12905D01*
X12877Y9584D01*
X12891D01*
X12901Y9579D01*
X12905Y9574D01*
X12910Y9560D01*
Y9551D01*
X12905Y9536D01*
X12896Y9527D01*
X12882Y9522D01*
X12867D01*
X12853Y9527D01*
X12848Y9532D01*
X12844Y9541D01*
X13634Y9622D02*
X13687D01*
X13658Y9584D01*
X13672D01*
X13682Y9579D01*
X13687Y9574D01*
X13691Y9560D01*
Y9551D01*
X13687Y9536D01*
X13677Y9527D01*
X13663Y9522D01*
X13649D01*
X13634Y9527D01*
X13630Y9532D01*
X13625Y9541D01*
X13719Y9598D02*
Y9603D01*
X13723Y9612D01*
X13728Y9617D01*
X13738Y9622D01*
X13757D01*
X13766Y9617D01*
X13771Y9612D01*
X13776Y9603D01*
Y9593D01*
X13771Y9584D01*
X13761Y9570D01*
X13714Y9522D01*
X13780D01*
X13803D02*
Y9589D01*
X13817Y9584D02*
X13803Y9570D01*
X13817Y9584D02*
X13827Y9589D01*
X13841D01*
X13850Y9584D01*
X13855Y9570D01*
Y9522D01*
Y9570D02*
X13869Y9584D01*
X13879Y9589D01*
X13893D01*
X13903Y9584D01*
X13908Y9570D01*
Y9522D01*
X13953Y9617D02*
X13948Y9622D01*
X13953Y9617D02*
X13958Y9622D01*
X13953Y9627D01*
X13948Y9622D01*
X13953Y9589D02*
Y9522D01*
X13976D02*
Y9622D01*
X14733Y9617D02*
X14747Y9622D01*
X14733Y9617D02*
X14723Y9603D01*
X14718Y9579D01*
Y9565D01*
X14723Y9541D01*
X14733Y9527D01*
X14747Y9522D01*
X14757D01*
X14771Y9527D01*
X14780Y9541D01*
X14785Y9565D01*
Y9579D01*
X14780Y9603D01*
X14771Y9617D01*
X14757Y9622D01*
X14747D01*
X14812Y9532D02*
X14808Y9527D01*
X14812Y9522D01*
X14817Y9527D01*
X14812Y9532D01*
X14848Y9617D02*
X14863Y9622D01*
X14848Y9617D02*
X14844Y9608D01*
Y9598D01*
X14848Y9589D01*
X14858Y9584D01*
X14877Y9579D01*
X14891Y9574D01*
X14901Y9565D01*
X14906Y9555D01*
Y9541D01*
X14901Y9532D01*
X14896Y9527D01*
X14882Y9522D01*
X14863D01*
X14848Y9527D01*
X14844Y9532D01*
X14839Y9541D01*
Y9555D01*
X14844Y9565D01*
X14853Y9574D01*
X14868Y9579D01*
X14887Y9584D01*
X14896Y9589D01*
X14901Y9598D01*
Y9608D01*
X14896Y9617D01*
X14882Y9622D01*
X14863D01*
X14928Y9603D02*
X14938Y9608D01*
X14952Y9622D01*
Y9522D01*
X15006Y9598D02*
Y9603D01*
X15011Y9612D01*
X15016Y9617D01*
X15025Y9622D01*
X15044D01*
X15054Y9617D01*
X15058Y9612D01*
X15063Y9603D01*
Y9593D01*
X15058Y9584D01*
X15049Y9570D01*
X15001Y9522D01*
X15068D01*
X15100Y9617D02*
X15114Y9622D01*
X15100Y9617D02*
X15095Y9608D01*
Y9598D01*
X15100Y9589D01*
X15109Y9584D01*
X15128Y9579D01*
X15143Y9574D01*
X15152Y9565D01*
X15157Y9555D01*
Y9541D01*
X15152Y9532D01*
X15147Y9527D01*
X15133Y9522D01*
X15114D01*
X15100Y9527D01*
X15095Y9532D01*
X15090Y9541D01*
Y9555D01*
X15095Y9565D01*
X15105Y9574D01*
X15119Y9579D01*
X15138Y9584D01*
X15147Y9589D01*
X15152Y9598D01*
Y9608D01*
X15147Y9617D01*
X15133Y9622D01*
X15114D01*
X15179Y9589D02*
Y9522D01*
Y9570D02*
X15194Y9584D01*
X15203Y9589D01*
X15217D01*
X15227Y9584D01*
X15232Y9570D01*
Y9522D01*
Y9570D02*
X15246Y9584D01*
X15256Y9589D01*
X15270D01*
X15279Y9584D01*
X15284Y9570D01*
Y9522D01*
X15316D02*
Y9589D01*
X15330Y9584D02*
X15316Y9570D01*
X15330Y9584D02*
X15339Y9589D01*
X15354D01*
X15363Y9584D01*
X15368Y9570D01*
Y9522D01*
Y9570D02*
X15382Y9584D01*
X15392Y9589D01*
X15406D01*
X15415Y9584D01*
X15420Y9570D01*
Y9522D01*
X12853Y9808D02*
X12844Y9803D01*
X12853Y9808D02*
X12867Y9822D01*
Y9722D01*
X12922Y9798D02*
Y9803D01*
X12926Y9812D01*
X12931Y9817D01*
X12941Y9822D01*
X12960D01*
X12969Y9817D01*
X12974Y9812D01*
X12979Y9803D01*
Y9793D01*
X12974Y9784D01*
X12964Y9770D01*
X12917Y9722D01*
X12983D01*
X13006Y9755D02*
X13053Y9822D01*
X13077Y9755D02*
X13006D01*
X13053Y9722D02*
Y9822D01*
X13634D02*
X13687D01*
X13658Y9784D01*
X13672D01*
X13682Y9779D01*
X13687Y9774D01*
X13691Y9760D01*
Y9751D01*
X13687Y9736D01*
X13677Y9727D01*
X13663Y9722D01*
X13649D01*
X13634Y9727D01*
X13630Y9732D01*
X13625Y9741D01*
X13766Y9817D02*
X13771Y9808D01*
X13766Y9817D02*
X13752Y9822D01*
X13742D01*
X13728Y9817D01*
X13719Y9803D01*
X13714Y9779D01*
Y9755D01*
X13719Y9736D01*
X13728Y9727D01*
X13742Y9722D01*
X13747D01*
X13761Y9727D01*
X13771Y9736D01*
X13776Y9751D01*
Y9755D01*
X13771Y9770D01*
X13761Y9779D01*
X13747Y9784D01*
X13742D01*
X13728Y9779D01*
X13719Y9770D01*
X13714Y9755D01*
X13798Y9789D02*
Y9722D01*
Y9770D02*
X13812Y9784D01*
X13821Y9789D01*
X13836D01*
X13845Y9784D01*
X13850Y9770D01*
Y9722D01*
Y9770D02*
X13864Y9784D01*
X13874Y9789D01*
X13888D01*
X13898Y9784D01*
X13902Y9770D01*
Y9722D01*
X13948Y9817D02*
X13943Y9822D01*
X13948Y9817D02*
X13953Y9822D01*
X13948Y9827D01*
X13943Y9822D01*
X13948Y9789D02*
Y9722D01*
X13970D02*
Y9822D01*
X14733Y9817D02*
X14747Y9822D01*
X14733Y9817D02*
X14723Y9803D01*
X14718Y9779D01*
Y9765D01*
X14723Y9741D01*
X14733Y9727D01*
X14747Y9722D01*
X14757D01*
X14771Y9727D01*
X14780Y9741D01*
X14785Y9765D01*
Y9779D01*
X14780Y9803D01*
X14771Y9817D01*
X14757Y9822D01*
X14747D01*
X14812Y9732D02*
X14808Y9727D01*
X14812Y9722D01*
X14817Y9727D01*
X14812Y9732D01*
X14896Y9774D02*
X14901Y9789D01*
X14896Y9774D02*
X14887Y9765D01*
X14872Y9760D01*
X14868D01*
X14853Y9765D01*
X14844Y9774D01*
X14839Y9789D01*
Y9793D01*
X14844Y9808D01*
X14853Y9817D01*
X14868Y9822D01*
X14872D01*
X14887Y9817D01*
X14896Y9808D01*
X14901Y9789D01*
Y9765D01*
X14896Y9741D01*
X14887Y9727D01*
X14872Y9722D01*
X14863D01*
X14848Y9727D01*
X14844Y9736D01*
X14928Y9803D02*
X14938Y9808D01*
X14952Y9822D01*
Y9722D01*
X15001Y9755D02*
X15049Y9822D01*
X15073Y9755D02*
X15001D01*
X15049Y9722D02*
Y9822D01*
X15090Y9755D02*
X15138Y9822D01*
X15162Y9755D02*
X15090D01*
X15138Y9722D02*
Y9822D01*
X15179Y9789D02*
Y9722D01*
Y9770D02*
X15194Y9784D01*
X15203Y9789D01*
X15217D01*
X15227Y9784D01*
X15232Y9770D01*
Y9722D01*
Y9770D02*
X15246Y9784D01*
X15256Y9789D01*
X15270D01*
X15279Y9784D01*
X15284Y9770D01*
Y9722D01*
X15316D02*
Y9789D01*
X15330Y9784D02*
X15316Y9770D01*
X15330Y9784D02*
X15339Y9789D01*
X15354D01*
X15363Y9784D01*
X15368Y9770D01*
Y9722D01*
Y9770D02*
X15382Y9784D01*
X15392Y9789D01*
X15406D01*
X15415Y9784D01*
X15420Y9770D01*
Y9722D01*
X12853Y10008D02*
X12844Y10003D01*
X12853Y10008D02*
X12867Y10022D01*
Y9922D01*
X12974Y10008D02*
X12969Y10017D01*
X12955Y10022D01*
X12945D01*
X12931Y10017D01*
X12922Y10003D01*
X12917Y9979D01*
Y9955D01*
X12922Y9936D01*
X12931Y9927D01*
X12945Y9922D01*
X12950D01*
X12964Y9927D01*
X12974Y9936D01*
X12979Y9951D01*
Y9955D01*
X12974Y9970D01*
X12964Y9979D01*
X12950Y9984D01*
X12945D01*
X12931Y9979D01*
X12922Y9970D01*
X12917Y9955D01*
X13625D02*
X13672Y10022D01*
X13696Y9955D02*
X13625D01*
X13672Y9922D02*
Y10022D01*
X13719Y10003D02*
Y9998D01*
Y10003D02*
X13723Y10012D01*
X13728Y10017D01*
X13738Y10022D01*
X13757D01*
X13766Y10017D01*
X13771Y10012D01*
X13776Y10003D01*
Y9993D01*
X13771Y9984D01*
X13761Y9970D01*
X13714Y9922D01*
X13780D01*
X13803D02*
Y9989D01*
X13817Y9984D02*
X13803Y9970D01*
X13817Y9984D02*
X13827Y9989D01*
X13841D01*
X13850Y9984D01*
X13855Y9970D01*
Y9922D01*
Y9970D02*
X13869Y9984D01*
X13879Y9989D01*
X13893D01*
X13903Y9984D01*
X13908Y9970D01*
Y9922D01*
X13953Y10017D02*
X13948Y10022D01*
X13953Y10017D02*
X13958Y10022D01*
X13953Y10027D01*
X13948Y10022D01*
X13953Y9989D02*
Y9922D01*
X13976D02*
Y10022D01*
X14718Y10003D02*
X14728Y10008D01*
X14742Y10022D01*
Y9922D01*
X14792Y9927D02*
X14797Y9932D01*
X14792Y9927D02*
X14797Y9922D01*
X14801Y9927D01*
X14797Y9932D01*
X14838Y10017D02*
X14852Y10022D01*
X14838Y10017D02*
X14828Y10003D01*
X14823Y9979D01*
Y9965D01*
X14828Y9941D01*
X14838Y9927D01*
X14852Y9922D01*
X14861D01*
X14876Y9927D01*
X14885Y9941D01*
X14890Y9965D01*
Y9979D01*
X14885Y10003D01*
X14876Y10017D01*
X14861Y10022D01*
X14852D01*
X14965Y10017D02*
X14969Y10008D01*
X14965Y10017D02*
X14950Y10022D01*
X14941D01*
X14927Y10017D01*
X14917Y10003D01*
X14912Y9979D01*
Y9955D01*
X14917Y9936D01*
X14927Y9927D01*
X14941Y9922D01*
X14946D01*
X14960Y9927D01*
X14969Y9936D01*
X14974Y9951D01*
Y9955D01*
X14969Y9970D01*
X14960Y9979D01*
X14946Y9984D01*
X14941D01*
X14927Y9979D01*
X14917Y9970D01*
X14912Y9955D01*
X15048Y10017D02*
X15053Y10008D01*
X15048Y10017D02*
X15034Y10022D01*
X15025D01*
X15010Y10017D01*
X15001Y10003D01*
X14996Y9979D01*
Y9955D01*
X15001Y9936D01*
X15010Y9927D01*
X15025Y9922D01*
X15029D01*
X15044Y9927D01*
X15053Y9936D01*
X15058Y9951D01*
Y9955D01*
X15053Y9970D01*
X15044Y9979D01*
X15029Y9984D01*
X15025D01*
X15010Y9979D01*
X15001Y9970D01*
X14996Y9955D01*
X15089Y10017D02*
X15104Y10022D01*
X15089Y10017D02*
X15085Y10008D01*
Y9998D01*
X15089Y9989D01*
X15099Y9984D01*
X15118Y9979D01*
X15132Y9974D01*
X15142Y9965D01*
X15147Y9955D01*
Y9941D01*
X15142Y9932D01*
X15137Y9927D01*
X15123Y9922D01*
X15104D01*
X15089Y9927D01*
X15085Y9932D01*
X15080Y9941D01*
Y9955D01*
X15085Y9965D01*
X15094Y9974D01*
X15108Y9979D01*
X15127Y9984D01*
X15137Y9989D01*
X15142Y9998D01*
Y10008D01*
X15137Y10017D01*
X15123Y10022D01*
X15104D01*
X15169Y9989D02*
Y9922D01*
Y9970D02*
X15183Y9984D01*
X15193Y9989D01*
X15207D01*
X15216Y9984D01*
X15221Y9970D01*
Y9922D01*
Y9970D02*
X15236Y9984D01*
X15245Y9989D01*
X15259D01*
X15269Y9984D01*
X15274Y9970D01*
Y9922D01*
X15305D02*
Y9989D01*
X15319Y9984D02*
X15305Y9970D01*
X15319Y9984D02*
X15329Y9989D01*
X15343D01*
X15353Y9984D01*
X15357Y9970D01*
Y9922D01*
Y9970D02*
X15372Y9984D01*
X15381Y9989D01*
X15395D01*
X15405Y9984D01*
X15410Y9970D01*
Y9922D01*
X12848Y10198D02*
Y10203D01*
X12853Y10212D01*
X12858Y10217D01*
X12867Y10222D01*
X12886D01*
X12896Y10217D01*
X12901Y10212D01*
X12905Y10203D01*
Y10193D01*
X12901Y10184D01*
X12891Y10170D01*
X12844Y10122D01*
X12910D01*
X12990Y10174D02*
X12994Y10189D01*
X12990Y10174D02*
X12980Y10165D01*
X12966Y10160D01*
X12961D01*
X12947Y10165D01*
X12937Y10174D01*
X12933Y10189D01*
Y10193D01*
X12937Y10208D01*
X12947Y10217D01*
X12961Y10222D01*
X12966D01*
X12980Y10217D01*
X12990Y10208D01*
X12994Y10189D01*
Y10165D01*
X12990Y10141D01*
X12980Y10127D01*
X12966Y10122D01*
X12956D01*
X12942Y10127D01*
X12937Y10136D01*
X13677Y10217D02*
X13682Y10208D01*
X13677Y10217D02*
X13663Y10222D01*
X13653D01*
X13639Y10217D01*
X13630Y10203D01*
X13625Y10179D01*
Y10155D01*
X13630Y10136D01*
X13639Y10127D01*
X13653Y10122D01*
X13658D01*
X13672Y10127D01*
X13682Y10136D01*
X13687Y10151D01*
Y10155D01*
X13682Y10170D01*
X13672Y10179D01*
X13658Y10184D01*
X13653D01*
X13639Y10179D01*
X13630Y10170D01*
X13625Y10155D01*
X13723Y10217D02*
X13737Y10222D01*
X13723Y10217D02*
X13713Y10203D01*
X13709Y10179D01*
Y10165D01*
X13713Y10141D01*
X13723Y10127D01*
X13737Y10122D01*
X13747D01*
X13761Y10127D01*
X13770Y10141D01*
X13775Y10165D01*
Y10179D01*
X13770Y10203D01*
X13761Y10217D01*
X13747Y10222D01*
X13737D01*
X13798Y10189D02*
Y10122D01*
Y10170D02*
X13812Y10184D01*
X13821Y10189D01*
X13836D01*
X13845Y10184D01*
X13850Y10170D01*
Y10122D01*
Y10170D02*
X13864Y10184D01*
X13874Y10189D01*
X13888D01*
X13898Y10184D01*
X13902Y10170D01*
Y10122D01*
X13948Y10217D02*
X13943Y10222D01*
X13948Y10217D02*
X13953Y10222D01*
X13948Y10227D01*
X13943Y10222D01*
X13948Y10189D02*
Y10122D01*
X13970D02*
Y10222D01*
X14718Y10203D02*
X14728Y10208D01*
X14742Y10222D01*
Y10122D01*
X14792Y10127D02*
X14797Y10132D01*
X14792Y10127D02*
X14797Y10122D01*
X14801Y10127D01*
X14797Y10132D01*
X14833Y10222D02*
X14880D01*
X14833D02*
X14828Y10179D01*
X14833Y10184D01*
X14847Y10189D01*
X14861D01*
X14876Y10184D01*
X14885Y10174D01*
X14890Y10160D01*
Y10151D01*
X14885Y10136D01*
X14876Y10127D01*
X14861Y10122D01*
X14847D01*
X14833Y10127D01*
X14828Y10132D01*
X14823Y10141D01*
X14917Y10198D02*
Y10203D01*
X14922Y10212D01*
X14927Y10217D01*
X14936Y10222D01*
X14955D01*
X14965Y10217D01*
X14969Y10212D01*
X14974Y10203D01*
Y10193D01*
X14969Y10184D01*
X14960Y10170D01*
X14912Y10122D01*
X14979D01*
X15001Y10155D02*
X15049Y10222D01*
X15073Y10155D02*
X15001D01*
X15049Y10122D02*
Y10222D01*
X15090Y10189D02*
Y10122D01*
Y10170D02*
X15105Y10184D01*
X15114Y10189D01*
X15128D01*
X15138Y10184D01*
X15143Y10170D01*
Y10122D01*
Y10170D02*
X15157Y10184D01*
X15166Y10189D01*
X15181D01*
X15190Y10184D01*
X15195Y10170D01*
Y10122D01*
X15226D02*
Y10189D01*
X15241Y10184D02*
X15226Y10170D01*
X15241Y10184D02*
X15250Y10189D01*
X15265D01*
X15274Y10184D01*
X15279Y10170D01*
Y10122D01*
Y10170D02*
X15293Y10184D01*
X15303Y10189D01*
X15317D01*
X15326Y10184D01*
X15331Y10170D01*
Y10122D01*
X12853Y10408D02*
X12844Y10403D01*
X12853Y10408D02*
X12867Y10422D01*
Y10322D01*
X12974Y10408D02*
X12969Y10417D01*
X12955Y10422D01*
X12945D01*
X12931Y10417D01*
X12922Y10403D01*
X12917Y10379D01*
Y10355D01*
X12922Y10336D01*
X12931Y10327D01*
X12945Y10322D01*
X12950D01*
X12964Y10327D01*
X12974Y10336D01*
X12979Y10351D01*
Y10355D01*
X12974Y10370D01*
X12964Y10379D01*
X12950Y10384D01*
X12945D01*
X12931Y10379D01*
X12922Y10370D01*
X12917Y10355D01*
X13644Y10322D02*
X13691Y10422D01*
X13625D01*
X13728Y10417D02*
X13742Y10422D01*
X13728Y10417D02*
X13719Y10403D01*
X13714Y10379D01*
Y10365D01*
X13719Y10341D01*
X13728Y10327D01*
X13742Y10322D01*
X13752D01*
X13766Y10327D01*
X13776Y10341D01*
X13780Y10365D01*
Y10379D01*
X13776Y10403D01*
X13766Y10417D01*
X13752Y10422D01*
X13742D01*
X13803Y10389D02*
Y10322D01*
Y10370D02*
X13817Y10384D01*
X13827Y10389D01*
X13841D01*
X13850Y10384D01*
X13855Y10370D01*
Y10322D01*
Y10370D02*
X13869Y10384D01*
X13879Y10389D01*
X13893D01*
X13903Y10384D01*
X13908Y10370D01*
Y10322D01*
X13953Y10417D02*
X13948Y10422D01*
X13953Y10417D02*
X13958Y10422D01*
X13953Y10427D01*
X13948Y10422D01*
X13953Y10389D02*
Y10322D01*
X13976D02*
Y10422D01*
X14718Y10403D02*
X14728Y10408D01*
X14742Y10422D01*
Y10322D01*
X14792Y10327D02*
X14797Y10332D01*
X14792Y10327D02*
X14797Y10322D01*
X14801Y10327D01*
X14797Y10332D01*
X14842Y10322D02*
X14890Y10422D01*
X14823D01*
X14931Y10322D02*
X14979Y10422D01*
X14912D01*
X15011Y10417D02*
X15025Y10422D01*
X15011Y10417D02*
X15006Y10408D01*
Y10398D01*
X15011Y10389D01*
X15020Y10384D01*
X15039Y10379D01*
X15054Y10374D01*
X15063Y10365D01*
X15068Y10355D01*
Y10341D01*
X15063Y10332D01*
X15058Y10327D01*
X15044Y10322D01*
X15025D01*
X15011Y10327D01*
X15006Y10332D01*
X15001Y10341D01*
Y10355D01*
X15006Y10365D01*
X15016Y10374D01*
X15030Y10379D01*
X15049Y10384D01*
X15058Y10389D01*
X15063Y10398D01*
Y10408D01*
X15058Y10417D01*
X15044Y10422D01*
X15025D01*
X15090Y10389D02*
Y10322D01*
Y10370D02*
X15105Y10384D01*
X15114Y10389D01*
X15128D01*
X15138Y10384D01*
X15143Y10370D01*
Y10322D01*
Y10370D02*
X15157Y10384D01*
X15166Y10389D01*
X15181D01*
X15190Y10384D01*
X15195Y10370D01*
Y10322D01*
X15226D02*
Y10389D01*
X15241Y10384D02*
X15226Y10370D01*
X15241Y10384D02*
X15250Y10389D01*
X15265D01*
X15274Y10384D01*
X15279Y10370D01*
Y10322D01*
Y10370D02*
X15293Y10384D01*
X15303Y10389D01*
X15317D01*
X15326Y10384D01*
X15331Y10370D01*
Y10322D01*
X12848Y10598D02*
Y10603D01*
X12853Y10612D01*
X12858Y10617D01*
X12867Y10622D01*
X12886D01*
X12896Y10617D01*
X12901Y10612D01*
X12905Y10603D01*
Y10593D01*
X12901Y10584D01*
X12891Y10570D01*
X12844Y10522D01*
X12910D01*
X12933Y10603D02*
X12942Y10608D01*
X12956Y10622D01*
Y10522D01*
X13682Y10574D02*
X13687Y10589D01*
X13682Y10574D02*
X13672Y10565D01*
X13658Y10560D01*
X13653D01*
X13639Y10565D01*
X13630Y10574D01*
X13625Y10589D01*
Y10593D01*
X13630Y10608D01*
X13639Y10617D01*
X13653Y10622D01*
X13658D01*
X13672Y10617D01*
X13682Y10608D01*
X13687Y10589D01*
Y10565D01*
X13682Y10541D01*
X13672Y10527D01*
X13658Y10522D01*
X13649D01*
X13634Y10527D01*
X13630Y10536D01*
X13723Y10622D02*
X13771D01*
X13723D02*
X13719Y10579D01*
X13723Y10584D01*
X13738Y10589D01*
X13752D01*
X13766Y10584D01*
X13776Y10574D01*
X13780Y10560D01*
Y10551D01*
X13776Y10536D01*
X13766Y10527D01*
X13752Y10522D01*
X13738D01*
X13723Y10527D01*
X13719Y10532D01*
X13714Y10541D01*
X13803Y10522D02*
Y10589D01*
X13817Y10584D02*
X13803Y10570D01*
X13817Y10584D02*
X13827Y10589D01*
X13841D01*
X13850Y10584D01*
X13855Y10570D01*
Y10522D01*
Y10570D02*
X13869Y10584D01*
X13879Y10589D01*
X13893D01*
X13903Y10584D01*
X13908Y10570D01*
Y10522D01*
X13953Y10617D02*
X13948Y10622D01*
X13953Y10617D02*
X13958Y10622D01*
X13953Y10627D01*
X13948Y10622D01*
X13953Y10589D02*
Y10522D01*
X13976D02*
Y10622D01*
X14723Y10603D02*
Y10598D01*
Y10603D02*
X14728Y10612D01*
X14733Y10617D01*
X14742Y10622D01*
X14761D01*
X14771Y10617D01*
X14776Y10612D01*
X14780Y10603D01*
Y10593D01*
X14776Y10584D01*
X14766Y10570D01*
X14718Y10522D01*
X14785D01*
X14808Y10527D02*
X14812Y10532D01*
X14808Y10527D02*
X14812Y10522D01*
X14817Y10527D01*
X14812Y10532D01*
X14839Y10555D02*
X14887Y10622D01*
X14910Y10555D02*
X14839D01*
X14887Y10522D02*
Y10622D01*
X14928Y10603D02*
X14938Y10608D01*
X14952Y10622D01*
Y10522D01*
X15011Y10622D02*
X15063D01*
X15035Y10584D01*
X15049D01*
X15058Y10579D01*
X15063Y10574D01*
X15068Y10560D01*
Y10551D01*
X15063Y10536D01*
X15054Y10527D01*
X15039Y10522D01*
X15025D01*
X15011Y10527D01*
X15006Y10532D01*
X15001Y10541D01*
X15090Y10522D02*
Y10589D01*
X15105Y10584D02*
X15090Y10570D01*
X15105Y10584D02*
X15114Y10589D01*
X15128D01*
X15138Y10584D01*
X15143Y10570D01*
Y10522D01*
Y10570D02*
X15157Y10584D01*
X15166Y10589D01*
X15181D01*
X15190Y10584D01*
X15195Y10570D01*
Y10522D01*
X15226D02*
Y10589D01*
X15241Y10584D02*
X15226Y10570D01*
X15241Y10584D02*
X15250Y10589D01*
X15265D01*
X15274Y10584D01*
X15279Y10570D01*
Y10522D01*
Y10570D02*
X15293Y10584D01*
X15303Y10589D01*
X15317D01*
X15326Y10584D01*
X15331Y10570D01*
Y10522D01*
X12891Y10822D02*
X12844Y10755D01*
X12915D01*
X12891Y10722D02*
Y10822D01*
X13625Y10803D02*
X13634Y10808D01*
X13649Y10822D01*
Y10722D01*
X13698Y10755D02*
X13746Y10822D01*
X13769Y10755D02*
X13698D01*
X13746Y10722D02*
Y10822D01*
X13801Y10817D02*
X13816Y10822D01*
X13801Y10817D02*
X13792Y10803D01*
X13787Y10779D01*
Y10765D01*
X13792Y10741D01*
X13801Y10727D01*
X13816Y10722D01*
X13825D01*
X13839Y10727D01*
X13849Y10741D01*
X13854Y10765D01*
Y10779D01*
X13849Y10803D01*
X13839Y10817D01*
X13825Y10822D01*
X13816D01*
X13876Y10789D02*
Y10722D01*
Y10770D02*
X13890Y10784D01*
X13900Y10789D01*
X13914D01*
X13924Y10784D01*
X13928Y10770D01*
Y10722D01*
Y10770D02*
X13943Y10784D01*
X13952Y10789D01*
X13967D01*
X13976Y10784D01*
X13981Y10770D01*
Y10722D01*
X14027Y10817D02*
X14022Y10822D01*
X14027Y10817D02*
X14031Y10822D01*
X14027Y10827D01*
X14022Y10822D01*
X14027Y10789D02*
Y10722D01*
X14049D02*
Y10822D01*
X14728D02*
X14780D01*
X14752Y10784D01*
X14766D01*
X14776Y10779D01*
X14780Y10774D01*
X14785Y10760D01*
Y10751D01*
X14780Y10736D01*
X14771Y10727D01*
X14757Y10722D01*
X14742D01*
X14728Y10727D01*
X14723Y10732D01*
X14718Y10741D01*
X14808Y10727D02*
X14812Y10732D01*
X14808Y10727D02*
X14812Y10722D01*
X14817Y10727D01*
X14812Y10732D01*
X14848Y10822D02*
X14896D01*
X14848D02*
X14844Y10779D01*
X14848Y10784D01*
X14863Y10789D01*
X14877D01*
X14891Y10784D01*
X14901Y10774D01*
X14906Y10760D01*
Y10751D01*
X14901Y10736D01*
X14891Y10727D01*
X14877Y10722D01*
X14863D01*
X14848Y10727D01*
X14844Y10732D01*
X14839Y10741D01*
X14938Y10822D02*
X14985D01*
X14938D02*
X14933Y10779D01*
X14938Y10784D01*
X14952Y10789D01*
X14966D01*
X14980Y10784D01*
X14990Y10774D01*
X14995Y10760D01*
Y10751D01*
X14990Y10736D01*
X14980Y10727D01*
X14966Y10722D01*
X14952D01*
X14938Y10727D01*
X14933Y10732D01*
X14928Y10741D01*
X15069Y10817D02*
X15074Y10808D01*
X15069Y10817D02*
X15055Y10822D01*
X15046D01*
X15031Y10817D01*
X15022Y10803D01*
X15017Y10779D01*
Y10755D01*
X15022Y10736D01*
X15031Y10727D01*
X15046Y10722D01*
X15050D01*
X15065Y10727D01*
X15074Y10736D01*
X15079Y10751D01*
Y10755D01*
X15074Y10770D01*
X15065Y10779D01*
X15050Y10784D01*
X15046D01*
X15031Y10779D01*
X15022Y10770D01*
X15017Y10755D01*
X15101Y10789D02*
Y10722D01*
Y10770D02*
X15115Y10784D01*
X15125Y10789D01*
X15139D01*
X15148Y10784D01*
X15153Y10770D01*
Y10722D01*
Y10770D02*
X15167Y10784D01*
X15177Y10789D01*
X15191D01*
X15201Y10784D01*
X15206Y10770D01*
Y10722D01*
X15237D02*
Y10789D01*
X15251Y10784D02*
X15237Y10770D01*
X15251Y10784D02*
X15261Y10789D01*
X15275D01*
X15285Y10784D01*
X15289Y10770D01*
Y10722D01*
Y10770D02*
X15304Y10784D01*
X15313Y10789D01*
X15327D01*
X15337Y10784D01*
X15342Y10770D01*
Y10722D01*
X12848Y9403D02*
Y9398D01*
Y9403D02*
X12853Y9412D01*
X12858Y9417D01*
X12867Y9422D01*
X12886D01*
X12896Y9417D01*
X12901Y9412D01*
X12905Y9403D01*
Y9393D01*
X12901Y9384D01*
X12891Y9370D01*
X12844Y9322D01*
X12910D01*
X12933Y9403D02*
X12942Y9408D01*
X12956Y9422D01*
Y9322D01*
X13015Y9422D02*
X13068D01*
X13039Y9384D01*
X13053D01*
X13063Y9379D01*
X13068Y9374D01*
X13072Y9360D01*
Y9351D01*
X13068Y9336D01*
X13058Y9327D01*
X13044Y9322D01*
X13030D01*
X13015Y9327D01*
X13011Y9332D01*
X13006Y9341D01*
X13658Y9322D02*
Y9422D01*
X13625D02*
X13691D01*
X13718Y9384D02*
X13727Y9389D01*
X13718Y9384D02*
X13708Y9374D01*
X13703Y9360D01*
Y9351D01*
X13708Y9336D01*
X13718Y9327D01*
X13727Y9322D01*
X13741D01*
X13751Y9327D01*
X13760Y9336D01*
X13765Y9351D01*
Y9360D01*
X13760Y9374D01*
X13751Y9384D01*
X13741Y9389D01*
X13727D01*
X13801Y9422D02*
Y9341D01*
X13806Y9327D01*
X13816Y9322D01*
X13825D01*
X13820Y9389D02*
X13787D01*
X13897D02*
Y9322D01*
Y9374D02*
X13887Y9384D01*
X13878Y9389D01*
X13863D01*
X13854Y9384D01*
X13844Y9374D01*
X13839Y9360D01*
Y9351D01*
X13844Y9336D01*
X13854Y9327D01*
X13863Y9322D01*
X13878D01*
X13887Y9327D01*
X13897Y9336D01*
X13923Y9322D02*
Y9422D01*
D02*
M02*
