*%FSLAX23Y23*%
*%MOIN*%
G01*
%ADD11C,0.006*%
%ADD12C,0.007*%
%ADD13C,0.008*%
%ADD14C,0.010*%
%ADD15C,0.012*%
%ADD16C,0.015*%
%ADD17C,0.020*%
%ADD18C,0.032*%
%ADD19C,0.036*%
%ADD20C,0.042*%
%ADD21C,0.050*%
%ADD22C,0.052*%
%ADD23C,0.055*%
%ADD24C,0.056*%
%ADD25C,0.060*%
%ADD26C,0.061*%
%ADD27C,0.062*%
%ADD28C,0.068*%
%ADD29C,0.070*%
%ADD30C,0.070*%
%ADD31C,0.075*%
%ADD32C,0.075*%
%ADD33C,0.080*%
%ADD34C,0.080*%
%ADD35C,0.081*%
%ADD36C,0.090*%
%ADD37C,0.095*%
%ADD38C,0.100*%
%ADD39C,0.115*%
%ADD40C,0.120*%
%ADD41C,0.125*%
%ADD42C,0.126*%
%ADD43C,0.131*%
%ADD44C,0.140*%
%ADD45C,0.150*%
%ADD46C,0.156*%
%ADD47C,0.160*%
%ADD48C,0.180*%
%ADD49C,0.186*%
%ADD50C,0.250*%
%ADD51R,0.062X0.062*%
%ADD52R,0.068X0.068*%
D14*
X5781Y9432D02*
X5848D01*
X5781D02*
X5848Y9499D01*
Y9515D01*
X5831Y9532D01*
X5798D01*
X5781Y9515D01*
X5881D02*
X5898Y9532D01*
X5931D01*
X5948Y9515D01*
Y9449D01*
X5931Y9432D01*
X5898D01*
X5881Y9449D01*
Y9515D01*
X5981D02*
X5998Y9532D01*
X6031D01*
X6048Y9515D01*
Y9449D01*
X6031Y9432D01*
X5998D01*
X5981Y9449D01*
Y9515D01*
X6081Y9482D02*
X6148D01*
X6181Y9432D02*
X6214D01*
X6198D01*
Y9532D01*
X6199D01*
X6198D02*
X6181Y9515D01*
X6264D02*
X6281Y9532D01*
X6314D01*
X6331Y9515D01*
Y9449D01*
X6314Y9432D01*
X6281D01*
X6264Y9449D01*
Y9515D01*
X6364D02*
X6381Y9532D01*
X6414D01*
X6431Y9515D01*
Y9499D01*
X6432D01*
X6431D02*
X6432D01*
X6431D02*
X6432D01*
X6431D02*
X6414Y9482D01*
X6397D01*
X6414D01*
X6431Y9465D01*
Y9449D01*
X6414Y9432D01*
X6381D01*
X6364Y9449D01*
X6464Y9432D02*
X6497D01*
X6481D01*
Y9532D01*
X6482D01*
X6481D02*
X6464Y9515D01*
X6547Y9482D02*
X6614D01*
X6647Y9515D02*
X6664Y9532D01*
X6697D01*
X6714Y9515D01*
Y9449D01*
X6697Y9432D01*
X6664D01*
X6647Y9449D01*
Y9515D01*
X6747Y9432D02*
X6814D01*
X6747D02*
X6814Y9499D01*
Y9515D01*
X6797Y9532D01*
X6764D01*
X6747Y9515D01*
X6947Y9532D02*
Y9432D01*
Y9532D02*
X6997D01*
X7014Y9515D01*
Y9482D01*
X6997Y9465D01*
X6947D01*
X6981D02*
X7014Y9432D01*
X7047Y9532D02*
X7114D01*
X7047D02*
Y9432D01*
X7114D01*
X7081Y9482D02*
X7047D01*
X7147Y9465D02*
Y9532D01*
Y9465D02*
X7181Y9432D01*
X7214Y9465D01*
Y9532D01*
X7347D02*
Y9432D01*
X7414D02*
X7347Y9532D01*
X7414D02*
Y9432D01*
X7514Y9515D02*
X7497Y9532D01*
X7464D01*
X7447Y9515D01*
Y9449D01*
X7464Y9432D01*
X7497D01*
X7514Y9449D01*
X7697Y9532D02*
X7714Y9515D01*
X7697Y9532D02*
X7664D01*
X7647Y9515D01*
Y9449D01*
X7664Y9432D01*
X7697D01*
X7714Y9449D01*
X7764Y9532D02*
X7797D01*
X7764D02*
X7747Y9515D01*
Y9449D01*
X7764Y9432D01*
X7797D01*
X7814Y9449D01*
Y9515D01*
X7797Y9532D01*
X7847D02*
Y9432D01*
X7880Y9499D02*
X7847Y9532D01*
X7880Y9499D02*
X7914Y9532D01*
Y9432D01*
X7947D02*
Y9532D01*
X7997D01*
X8014Y9515D01*
Y9482D01*
X7997Y9465D01*
X7947D01*
X8064Y9532D02*
X8097D01*
X8064D02*
X8047Y9515D01*
Y9449D01*
X8064Y9432D01*
X8097D01*
X8114Y9449D01*
Y9515D01*
X8097Y9532D01*
X8147D02*
Y9432D01*
X8214D02*
X8147Y9532D01*
X8214D02*
Y9432D01*
X8247Y9532D02*
X8314D01*
X8247D02*
Y9432D01*
X8314D01*
X8280Y9482D02*
X8247D01*
X8347Y9432D02*
Y9532D01*
X8413Y9432D01*
Y9532D01*
X8447D02*
X8513D01*
X8480D01*
Y9432D01*
X8697Y9532D02*
X8713Y9515D01*
X8697Y9532D02*
X8663D01*
X8647Y9515D01*
Y9499D01*
X8663Y9482D01*
X8697D01*
X8713Y9465D01*
Y9449D01*
X8697Y9432D01*
X8663D01*
X8647Y9449D01*
X8747Y9532D02*
X8780D01*
X8763D01*
Y9432D01*
X8747D01*
X8780D01*
X8830D02*
Y9532D01*
Y9432D02*
X8880D01*
X8897Y9449D01*
Y9515D01*
X8880Y9532D01*
X8830D01*
X8930D02*
X8997D01*
X8930D02*
Y9432D01*
X8997D01*
X8963Y9482D02*
X8930D01*
X8801Y7477D02*
Y7417D01*
X8831D01*
X8841Y7427D01*
Y7437D01*
X8831Y7447D01*
X8801D01*
X8802D01*
X8801D02*
X8802D01*
X8801D02*
X8802D01*
X8801D02*
X8831D01*
X8841Y7457D01*
Y7467D01*
X8831Y7477D01*
X8801D01*
X8861D02*
Y7467D01*
X8881Y7447D01*
X8901Y7467D01*
Y7477D01*
X8881Y7447D02*
Y7417D01*
X9001Y7477D02*
X9021D01*
X9011D02*
X9001D01*
X9011D02*
Y7427D01*
X9001Y7417D01*
X8991D01*
X8981Y7427D01*
X9041Y7417D02*
Y7457D01*
X9061Y7477D01*
X9081Y7457D01*
Y7417D01*
Y7447D01*
X9041D01*
X9101Y7417D02*
Y7477D01*
X9121Y7457D01*
X9141Y7477D01*
Y7417D01*
X9161Y7477D02*
X9201D01*
X9161D02*
Y7417D01*
X9201D01*
X9181Y7447D02*
X9161D01*
X9251Y7477D02*
X9261Y7467D01*
X9251Y7477D02*
X9231D01*
X9221Y7467D01*
Y7457D01*
X9231Y7447D01*
X9251D01*
X9261Y7437D01*
Y7427D01*
X9251Y7417D01*
X9231D01*
X9221Y7427D01*
X9341Y7417D02*
Y7477D01*
X9371D01*
X9381Y7467D01*
Y7447D01*
X9371Y7437D01*
X9341D01*
X9401Y7417D02*
Y7457D01*
X9421Y7477D01*
X9441Y7457D01*
Y7417D01*
Y7447D01*
X9401D01*
X9461Y7477D02*
X9501D01*
X9481D01*
Y7417D01*
X9551Y7477D02*
X9561Y7467D01*
X9551Y7477D02*
X9531D01*
X9521Y7467D01*
Y7427D01*
X9531Y7417D01*
X9551D01*
X9561Y7427D01*
X9581Y7417D02*
Y7477D01*
Y7447D02*
Y7417D01*
Y7447D02*
X9621D01*
Y7477D01*
Y7417D01*
X9641Y7477D02*
X9681D01*
X9641D02*
Y7417D01*
X9681D01*
X9661Y7447D02*
X9641D01*
X9701Y7477D02*
Y7417D01*
X9741D01*
X9761D02*
Y7477D01*
Y7417D02*
X9801D01*
X8836Y7557D02*
X8826Y7567D01*
X8806D01*
X8796Y7557D01*
Y7517D01*
X8806Y7507D01*
X8826D01*
X8836Y7517D01*
X8866Y7567D02*
X8886D01*
X8866D02*
X8856Y7557D01*
Y7517D01*
X8866Y7507D01*
X8886D01*
X8896Y7517D01*
Y7557D01*
X8886Y7567D01*
X8916D02*
Y7507D01*
Y7567D02*
X8946D01*
X8956Y7557D01*
Y7537D01*
X8946Y7527D01*
X8916D01*
X8976Y7557D02*
Y7567D01*
Y7557D02*
X8996Y7537D01*
X9016Y7557D01*
Y7567D01*
X8996Y7537D02*
Y7507D01*
X9036D02*
Y7567D01*
X9066D01*
X9076Y7557D01*
Y7537D01*
X9066Y7527D01*
X9036D01*
X9056D02*
X9076Y7507D01*
X9096Y7567D02*
X9116D01*
X9106D01*
Y7507D01*
X9096D01*
X9116D01*
X9176Y7567D02*
X9186Y7557D01*
X9176Y7567D02*
X9156D01*
X9146Y7557D01*
Y7517D01*
X9156Y7507D01*
X9176D01*
X9186Y7517D01*
Y7537D01*
X9166D01*
X9206Y7567D02*
Y7507D01*
Y7537D01*
X9246D01*
Y7567D01*
Y7507D01*
X9266Y7567D02*
X9306D01*
X9286D01*
Y7507D01*
X9386Y7527D02*
X9406Y7507D01*
X9386Y7527D02*
Y7547D01*
X9406Y7567D01*
X9466D02*
X9476Y7557D01*
X9466Y7567D02*
X9446D01*
X9436Y7557D01*
Y7517D01*
X9446Y7507D01*
X9466D01*
X9476Y7517D01*
X9496Y7507D02*
X9516Y7527D01*
Y7547D01*
X9496Y7567D01*
X9606Y7507D02*
X9646D01*
X9606D02*
X9646Y7547D01*
Y7557D01*
X9636Y7567D01*
X9616D01*
X9606Y7557D01*
X9666D02*
X9676Y7567D01*
X9696D01*
X9706Y7557D01*
Y7517D01*
X9696Y7507D01*
X9676D01*
X9666Y7517D01*
Y7557D01*
X9726D02*
X9736Y7567D01*
X9756D01*
X9766Y7557D01*
Y7517D01*
X9756Y7507D01*
X9736D01*
X9726Y7517D01*
Y7557D01*
X9786D02*
X9796Y7567D01*
X9816D01*
X9826Y7557D01*
Y7547D01*
X9827D01*
X9826D02*
X9827D01*
X9826D02*
X9827D01*
X9826D02*
X9816Y7537D01*
X9806D01*
X9816D01*
X9826Y7527D01*
Y7517D01*
X9816Y7507D01*
X9796D01*
X9786Y7517D01*
X4816Y8407D02*
Y8447D01*
X4856Y8407D01*
X4866D01*
X4876Y8417D01*
Y8437D01*
X4866Y8447D01*
Y8387D02*
X4876Y8377D01*
Y8357D01*
X4866Y8347D01*
X4826D01*
X4816Y8357D01*
Y8377D01*
X4826Y8387D01*
X4866D01*
Y8327D02*
X4876Y8317D01*
Y8297D01*
X4866Y8287D01*
X4826D01*
X4816Y8297D01*
Y8317D01*
X4826Y8327D01*
X4866D01*
X4846Y8267D02*
Y8227D01*
X4816Y8207D02*
Y8187D01*
Y8197D01*
X4876D01*
X4877D01*
X4876D02*
X4866Y8207D01*
Y8157D02*
X4876Y8147D01*
Y8127D01*
X4866Y8117D01*
X4826D01*
X4816Y8127D01*
Y8147D01*
X4826Y8157D01*
X4866D01*
Y8097D02*
X4876Y8087D01*
Y8067D01*
X4866Y8057D01*
X4856D01*
X4857D01*
X4856D02*
X4857D01*
X4856D02*
X4857D01*
X4856D02*
X4846Y8067D01*
Y8077D01*
Y8067D01*
X4836Y8057D01*
X4826D01*
X4816Y8067D01*
Y8087D01*
X4826Y8097D01*
X4816Y8037D02*
Y8017D01*
Y8027D01*
X4876D01*
X4877D01*
X4876D02*
X4866Y8037D01*
X4876Y7927D02*
X4816D01*
X4876D02*
Y7897D01*
X4866Y7887D01*
X4846D01*
X4836Y7897D01*
Y7927D01*
Y7907D02*
X4816Y7887D01*
X4876Y7867D02*
Y7827D01*
Y7867D02*
X4816D01*
Y7827D01*
X4846Y7847D02*
Y7867D01*
X4836Y7807D02*
X4876D01*
X4836D02*
X4816Y7787D01*
X4836Y7767D01*
X4876D01*
Y7687D02*
X4816D01*
Y7647D02*
X4876Y7687D01*
Y7647D02*
X4816D01*
X4866Y7587D02*
X4876Y7597D01*
Y7617D01*
X4866Y7627D01*
X4826D01*
X4816Y7617D01*
Y7597D01*
X4826Y7587D01*
X14776Y6437D02*
Y9187D01*
X4776D02*
Y6437D01*
X14776D01*
Y9187D02*
X4776D01*
D15*
X12551Y8887D02*
X13076Y8362D01*
X8476Y8737D02*
X8026Y9187D01*
X7076Y7812D02*
X7583Y7305D01*
X11051Y9187D02*
X11476Y8762D01*
X10076Y7812D02*
X10601Y7287D01*
X12776Y7737D02*
X12926Y7887D01*
X13401Y7512D02*
X13576Y7687D01*
Y8037D02*
X13726Y8187D01*
X11826Y8587D02*
X11626Y8387D01*
X13526Y7462D02*
X13776Y7712D01*
X8476Y7812D02*
X7951Y7287D01*
X7076Y8687D02*
X7576Y9187D01*
X10951Y7287D02*
X11476Y7812D01*
X10576Y9187D02*
X10076Y8687D01*
X13851Y6587D02*
X14226D01*
X12526Y7137D02*
X12326D01*
X12301Y7112D02*
X12076D01*
X7951Y7287D02*
X7612D01*
X7601Y7297D02*
X7961D01*
X7973Y7309D02*
X7579D01*
X7567Y7321D02*
X7985D01*
X7997Y7333D02*
X7555D01*
X7543Y7345D02*
X8009D01*
X8021Y7357D02*
X7531D01*
X7519Y7369D02*
X8033D01*
X8045Y7381D02*
X7507D01*
X7495Y7393D02*
X8057D01*
X10601Y7287D02*
X10951D01*
X10961Y7297D02*
X10591D01*
X10579Y7309D02*
X10973D01*
X10985Y7321D02*
X10567D01*
X10555Y7333D02*
X10997D01*
X11009Y7345D02*
X10543D01*
X10531Y7357D02*
X11021D01*
X11033Y7369D02*
X10519D01*
X10507Y7381D02*
X11045D01*
X11057Y7393D02*
X10495D01*
X8069Y7405D02*
X7483D01*
X7471Y7417D02*
X8081D01*
X8093Y7429D02*
X7459D01*
X7447Y7441D02*
X8105D01*
X8117Y7453D02*
X7435D01*
X7423Y7465D02*
X8129D01*
X7744Y7477D02*
X7411D01*
X7808D02*
X8141D01*
X7707Y7489D02*
X7399D01*
X7845D02*
X8153D01*
X7685Y7501D02*
X7387D01*
X7867D02*
X8165D01*
X7668Y7513D02*
X7375D01*
X7884D02*
X8177D01*
X7655Y7525D02*
X7363D01*
X7897D02*
X8189D01*
X7645Y7537D02*
X7351D01*
X7907D02*
X8201D01*
X7636Y7549D02*
X7339D01*
X7916D02*
X8213D01*
X7629Y7561D02*
X7327D01*
X7923D02*
X8225D01*
X7623Y7573D02*
X7315D01*
X7929D02*
X8237D01*
X7618Y7585D02*
X7303D01*
X7934D02*
X8249D01*
X10483Y7405D02*
X11069D01*
X11081Y7417D02*
X10471D01*
X10459Y7429D02*
X11093D01*
X11105Y7441D02*
X10447D01*
X10435Y7453D02*
X11117D01*
X11129Y7465D02*
X10423D01*
X10411Y7477D02*
X10744D01*
X10808D02*
X11141D01*
X10707Y7489D02*
X10399D01*
X10845D02*
X11153D01*
X10685Y7501D02*
X10387D01*
X10867D02*
X11165D01*
X10668Y7513D02*
X10375D01*
X10884D02*
X11177D01*
X10655Y7525D02*
X10363D01*
X10897D02*
X11189D01*
X10645Y7537D02*
X10351D01*
X10907D02*
X11201D01*
X10636Y7549D02*
X10339D01*
X10916D02*
X11213D01*
X10629Y7561D02*
X10327D01*
X10923D02*
X11225D01*
X10623Y7573D02*
X10315D01*
X10929D02*
X11237D01*
X10618Y7585D02*
X10303D01*
X10934D02*
X11249D01*
X7944Y7642D02*
X7776D01*
X7608D01*
X7614Y7597D02*
X7291D01*
X7938D02*
X8261D01*
X7611Y7609D02*
X7279D01*
X7941D02*
X8273D01*
X7609Y7621D02*
X7267D01*
X7943D02*
X8285D01*
X7608Y7633D02*
X7255D01*
X7944D02*
X8297D01*
X7608Y7645D02*
X7243D01*
X7944D02*
X8309D01*
X7609Y7657D02*
X7231D01*
X7943D02*
X8321D01*
X7610Y7669D02*
X7219D01*
X7942D02*
X8333D01*
X7613Y7681D02*
X7207D01*
X7939D02*
X8345D01*
X7616Y7693D02*
X7195D01*
X7936D02*
X8357D01*
X7620Y7705D02*
X7183D01*
X7932D02*
X8369D01*
X7626Y7717D02*
X7171D01*
X7926D02*
X8381D01*
X7632Y7729D02*
X7159D01*
X7920D02*
X8393D01*
X7640Y7741D02*
X7147D01*
X7912D02*
X8405D01*
X7650Y7753D02*
X7135D01*
X7902D02*
X8417D01*
X7662Y7765D02*
X7123D01*
X7890D02*
X8429D01*
X7676Y7777D02*
X7111D01*
X7876D02*
X8441D01*
X10776Y7642D02*
X10944D01*
X10776D02*
X10608D01*
X10614Y7597D02*
X10291D01*
X10938D02*
X11261D01*
X10611Y7609D02*
X10279D01*
X10941D02*
X11273D01*
X10609Y7621D02*
X10267D01*
X10943D02*
X11285D01*
X10608Y7633D02*
X10255D01*
X10944D02*
X11297D01*
X10608Y7645D02*
X10243D01*
X10944D02*
X11309D01*
X10609Y7657D02*
X10231D01*
X10943D02*
X11321D01*
X10610Y7669D02*
X10219D01*
X10942D02*
X11333D01*
X10613Y7681D02*
X10207D01*
X10939D02*
X11345D01*
X10616Y7693D02*
X10195D01*
X10936D02*
X11357D01*
X10620Y7705D02*
X10183D01*
X10932D02*
X11369D01*
X10626Y7717D02*
X10171D01*
X10926D02*
X11381D01*
X10632Y7729D02*
X10159D01*
X10920D02*
X11393D01*
X10640Y7741D02*
X10147D01*
X10912D02*
X11405D01*
X10650Y7753D02*
X10135D01*
X10902D02*
X11417D01*
X10662Y7765D02*
X10123D01*
X10890D02*
X11429D01*
X10676Y7777D02*
X10111D01*
X10876D02*
X11441D01*
X12426Y7837D02*
X12476D01*
X7695Y7789D02*
X7099D01*
X7857D02*
X8453D01*
X7722Y7801D02*
X7087D01*
X7830D02*
X8465D01*
X8476Y7813D02*
X7076D01*
Y7825D02*
X8476D01*
Y7837D02*
X7076D01*
Y7849D02*
X8476D01*
Y7861D02*
X7076D01*
Y7873D02*
X8476D01*
Y7885D02*
X7076D01*
Y7897D02*
X8476D01*
Y7909D02*
X7076D01*
Y7921D02*
X8476D01*
Y7933D02*
X7076D01*
Y7945D02*
X8476D01*
Y7957D02*
X7076D01*
Y7969D02*
X8476D01*
Y7981D02*
X7076D01*
X10099Y7789D02*
X10695D01*
X10857D02*
X11453D01*
X10722Y7801D02*
X10087D01*
X10830D02*
X11465D01*
X11476Y7813D02*
X10076D01*
Y7825D02*
X11476D01*
Y7837D02*
X10076D01*
Y7849D02*
X11476D01*
Y7861D02*
X10076D01*
Y7873D02*
X11476D01*
Y7885D02*
X10076D01*
Y7897D02*
X11476D01*
Y7909D02*
X10076D01*
Y7921D02*
X11476D01*
Y7933D02*
X10076D01*
Y7945D02*
X11476D01*
Y7957D02*
X10076D01*
Y7969D02*
X11476D01*
Y7981D02*
X10076D01*
X8476Y7993D02*
X7076D01*
Y8005D02*
X8476D01*
Y8017D02*
X7076D01*
Y8029D02*
X8476D01*
Y8041D02*
X7076D01*
Y8053D02*
X8476D01*
X7526Y8065D02*
X7076D01*
X7596D02*
X7956D01*
X8026D02*
X8476D01*
X7501Y8077D02*
X7076D01*
X7621D02*
X7931D01*
X8051D02*
X8476D01*
X7486Y8089D02*
X7076D01*
X7636D02*
X7916D01*
X8066D02*
X8476D01*
X7476Y8101D02*
X7076D01*
X7646D02*
X7906D01*
X8076D02*
X8476D01*
X7467Y8113D02*
X7076D01*
X7655D02*
X7897D01*
X8085D02*
X8476D01*
X7462Y8125D02*
X7076D01*
X7660D02*
X7892D01*
X8090D02*
X8476D01*
X7457Y8137D02*
X7076D01*
X7665D02*
X7887D01*
X8095D02*
X8476D01*
X7455Y8149D02*
X7076D01*
X7667D02*
X7885D01*
X8097D02*
X8476D01*
X7453Y8161D02*
X7076D01*
X7669D02*
X7883D01*
X8099D02*
X8476D01*
X7453Y8173D02*
X7076D01*
X7669D02*
X7883D01*
X8099D02*
X8476D01*
X10076Y7993D02*
X11476D01*
Y8005D02*
X10076D01*
X10078Y8017D02*
X11476D01*
Y8029D02*
X10081D01*
X10081Y8041D02*
X11476D01*
Y8053D02*
X10079D01*
X10076Y8065D02*
X10526D01*
X10596D02*
X10956D01*
X11026D02*
X11476D01*
X10501Y8077D02*
X10076D01*
X10621D02*
X10931D01*
X11051D02*
X11476D01*
X10486Y8089D02*
X10076D01*
X10636D02*
X10916D01*
X11066D02*
X11476D01*
X10476Y8101D02*
X10076D01*
X10646D02*
X10906D01*
X11076D02*
X11476D01*
X10467Y8113D02*
X10076D01*
X10655D02*
X10897D01*
X11085D02*
X11476D01*
X10462Y8125D02*
X10076D01*
X10660D02*
X10892D01*
X11090D02*
X11476D01*
X10457Y8137D02*
X10076D01*
X10665D02*
X10887D01*
X11095D02*
X11476D01*
X10455Y8149D02*
X10076D01*
X10667D02*
X10885D01*
X11097D02*
X11476D01*
X10453Y8161D02*
X10076D01*
X10669D02*
X10883D01*
X11099D02*
X11476D01*
X10453Y8173D02*
X10076D01*
X10669D02*
X10883D01*
X11099D02*
X11476D01*
X7455Y8185D02*
X7076D01*
X7667D02*
X7885D01*
X8097D02*
X8476D01*
X7457Y8197D02*
X7076D01*
X7665D02*
X7887D01*
X8095D02*
X8476D01*
X7462Y8209D02*
X7076D01*
X7660D02*
X7892D01*
X8090D02*
X8476D01*
X7467Y8221D02*
X7076D01*
X7655D02*
X7897D01*
X8085D02*
X8476D01*
X7476Y8233D02*
X7076D01*
X7646D02*
X7906D01*
X8076D02*
X8476D01*
X7486Y8245D02*
X7076D01*
X7636D02*
X7916D01*
X8066D02*
X8476D01*
X7501Y8257D02*
X7076D01*
X7621D02*
X7931D01*
X8051D02*
X8476D01*
X7526Y8269D02*
X7076D01*
X7596D02*
X7956D01*
X8026D02*
X8476D01*
Y8281D02*
X7076D01*
Y8293D02*
X8476D01*
Y8305D02*
X7076D01*
Y8317D02*
X8476D01*
Y8329D02*
X7076D01*
Y8341D02*
X8476D01*
Y8353D02*
X7076D01*
Y8365D02*
X8476D01*
X10076Y8185D02*
X10455D01*
X10667D02*
X10885D01*
X11097D02*
X11476D01*
X10457Y8197D02*
X10076D01*
X10665D02*
X10887D01*
X11095D02*
X11476D01*
X10462Y8209D02*
X10076D01*
X10660D02*
X10892D01*
X11090D02*
X11476D01*
X10467Y8221D02*
X10076D01*
X10655D02*
X10897D01*
X11085D02*
X11476D01*
X10476Y8233D02*
X10076D01*
X10646D02*
X10906D01*
X11076D02*
X11476D01*
X10486Y8245D02*
X10076D01*
X10636D02*
X10916D01*
X11066D02*
X11476D01*
X10501Y8257D02*
X10076D01*
X10621D02*
X10931D01*
X11051D02*
X11476D01*
X10526Y8269D02*
X10076D01*
X10596D02*
X10956D01*
X11026D02*
X11476D01*
Y8281D02*
X10076D01*
Y8293D02*
X11476D01*
Y8305D02*
X10076D01*
Y8317D02*
X11476D01*
Y8329D02*
X10076D01*
Y8341D02*
X11476D01*
Y8353D02*
X10076D01*
Y8365D02*
X11476D01*
X8476Y8377D02*
X7076D01*
Y8389D02*
X8476D01*
Y8401D02*
X7076D01*
Y8413D02*
X8476D01*
Y8425D02*
X7076D01*
Y8437D02*
X8476D01*
Y8449D02*
X7076D01*
Y8461D02*
X8476D01*
Y8473D02*
X7076D01*
Y8485D02*
X8476D01*
Y8497D02*
X7076D01*
Y8509D02*
X8476D01*
Y8521D02*
X7076D01*
Y8533D02*
X8476D01*
Y8545D02*
X7076D01*
Y8557D02*
X8476D01*
X10076Y8377D02*
X11476D01*
Y8389D02*
X10076D01*
Y8401D02*
X11476D01*
Y8413D02*
X10076D01*
Y8425D02*
X11476D01*
Y8437D02*
X10076D01*
Y8449D02*
X11476D01*
Y8461D02*
X10076D01*
Y8473D02*
X11476D01*
Y8485D02*
X10076D01*
Y8497D02*
X11476D01*
Y8509D02*
X10076D01*
Y8521D02*
X11476D01*
Y8533D02*
X10076D01*
Y8545D02*
X11476D01*
Y8557D02*
X10076D01*
X11826Y8587D02*
X11976D01*
X8476Y8569D02*
X7076D01*
Y8581D02*
X8476D01*
Y8593D02*
X7076D01*
Y8605D02*
X8476D01*
Y8617D02*
X7076D01*
Y8629D02*
X8476D01*
Y8641D02*
X7076D01*
Y8653D02*
X8476D01*
X7758Y8665D02*
X7076D01*
X7794D02*
X8476D01*
X7711Y8677D02*
X7076D01*
X7841D02*
X8476D01*
X7688Y8689D02*
X7078D01*
X7864D02*
X8476D01*
X7671Y8701D02*
X7090D01*
X7881D02*
X8476D01*
X7657Y8713D02*
X7102D01*
X7895D02*
X8476D01*
X7646Y8725D02*
X7114D01*
X7906D02*
X8476D01*
X7637Y8737D02*
X7126D01*
X7915D02*
X8476D01*
X7630Y8749D02*
X7138D01*
X7922D02*
X8464D01*
X7624Y8761D02*
X7150D01*
X7928D02*
X8452D01*
X10076Y8569D02*
X11476D01*
Y8581D02*
X10076D01*
Y8593D02*
X11476D01*
Y8605D02*
X10076D01*
Y8617D02*
X11476D01*
Y8629D02*
X10076D01*
Y8641D02*
X11476D01*
Y8653D02*
X10076D01*
Y8665D02*
X10758D01*
X10794D02*
X11476D01*
X10711Y8677D02*
X10076D01*
X10841D02*
X11476D01*
X10688Y8689D02*
X10078D01*
X10864D02*
X11476D01*
X10671Y8701D02*
X10090D01*
X10881D02*
X11476D01*
X10657Y8713D02*
X10102D01*
X10895D02*
X11476D01*
X10646Y8725D02*
X10114D01*
X10906D02*
X11476D01*
X10637Y8737D02*
X10126D01*
X10915D02*
X11476D01*
X10630Y8749D02*
X10138D01*
X10922D02*
X11476D01*
X10624Y8761D02*
X10150D01*
X10928D02*
X11476D01*
X7076Y8687D02*
Y7812D01*
X7100Y7788D02*
Y8711D01*
X7088Y8699D02*
Y7800D01*
X12376Y8887D02*
X12551D01*
X13701D02*
X13776D01*
X7944Y8832D02*
X7776D01*
X7608D01*
X7619Y8773D02*
X7162D01*
X7933D02*
X8440D01*
X7615Y8785D02*
X7174D01*
X7937D02*
X8428D01*
X7612Y8797D02*
X7186D01*
X7940D02*
X8416D01*
X7610Y8809D02*
X7198D01*
X7942D02*
X8404D01*
X7608Y8821D02*
X7210D01*
X7944D02*
X8392D01*
X7608Y8833D02*
X7222D01*
X7944D02*
X8380D01*
X7609Y8845D02*
X7234D01*
X7943D02*
X8368D01*
X7610Y8857D02*
X7246D01*
X7942D02*
X8356D01*
X7612Y8869D02*
X7258D01*
X7940D02*
X8344D01*
X7615Y8881D02*
X7270D01*
X7937D02*
X8332D01*
X7619Y8893D02*
X7282D01*
X7933D02*
X8320D01*
X7625Y8905D02*
X7294D01*
X7927D02*
X8308D01*
X7631Y8917D02*
X7306D01*
X7921D02*
X8296D01*
X7639Y8929D02*
X7318D01*
X7913D02*
X8284D01*
X7648Y8941D02*
X7330D01*
X7904D02*
X8272D01*
X7659Y8953D02*
X7342D01*
X7893D02*
X8260D01*
X10776Y8832D02*
X10944D01*
X10776D02*
X10608D01*
X10619Y8773D02*
X10162D01*
X10933D02*
X11465D01*
X10615Y8785D02*
X10174D01*
X10937D02*
X11453D01*
X10612Y8797D02*
X10186D01*
X10940D02*
X11441D01*
X10610Y8809D02*
X10198D01*
X10942D02*
X11429D01*
X10608Y8821D02*
X10210D01*
X10944D02*
X11417D01*
X10608Y8833D02*
X10222D01*
X10944D02*
X11405D01*
X10609Y8845D02*
X10234D01*
X10943D02*
X11393D01*
X10610Y8857D02*
X10246D01*
X10942D02*
X11381D01*
X10612Y8869D02*
X10258D01*
X10940D02*
X11369D01*
X10615Y8881D02*
X10270D01*
X10937D02*
X11357D01*
X10619Y8893D02*
X10282D01*
X10933D02*
X11345D01*
X10625Y8905D02*
X10294D01*
X10927D02*
X11333D01*
X10631Y8917D02*
X10306D01*
X10921D02*
X11321D01*
X10639Y8929D02*
X10318D01*
X10913D02*
X11309D01*
X10648Y8941D02*
X10330D01*
X10904D02*
X11297D01*
X10659Y8953D02*
X10342D01*
X10893D02*
X11285D01*
X7292Y8903D02*
Y7596D01*
X7280Y7608D02*
Y8891D01*
X7268Y8879D02*
Y7620D01*
X7256Y7632D02*
Y8867D01*
X7244Y8855D02*
Y7644D01*
X7232Y7656D02*
Y8843D01*
X7220Y8831D02*
Y7668D01*
X7208Y7680D02*
Y8819D01*
X7196Y8807D02*
Y7692D01*
X7184Y7704D02*
Y8795D01*
X7172Y8783D02*
Y7716D01*
X7160Y7728D02*
Y8771D01*
X7148Y8759D02*
Y7740D01*
X7136Y7752D02*
Y8747D01*
X7124Y8735D02*
Y7764D01*
X7112Y7776D02*
Y8723D01*
X14001Y9112D02*
X14051D01*
X7673Y8965D02*
X7354D01*
X7879D02*
X8248D01*
X7691Y8977D02*
X7366D01*
X7861D02*
X8236D01*
X7716Y8989D02*
X7378D01*
X7836D02*
X8224D01*
X8212Y9001D02*
X7390D01*
X7402Y9013D02*
X8200D01*
X8188Y9025D02*
X7414D01*
X7426Y9037D02*
X8176D01*
X8164Y9049D02*
X7438D01*
X7450Y9061D02*
X8152D01*
X8140Y9073D02*
X7462D01*
X7474Y9085D02*
X8128D01*
X8116Y9097D02*
X7486D01*
X7498Y9109D02*
X8104D01*
X8092Y9121D02*
X7510D01*
X7522Y9133D02*
X8080D01*
X8068Y9145D02*
X7534D01*
X10354Y8965D02*
X10673D01*
X10879D02*
X11273D01*
X10691Y8977D02*
X10366D01*
X10861D02*
X11261D01*
X10716Y8989D02*
X10378D01*
X10836D02*
X11249D01*
X11237Y9001D02*
X10390D01*
X10402Y9013D02*
X11225D01*
X11213Y9025D02*
X10414D01*
X10426Y9037D02*
X11201D01*
X11189Y9049D02*
X10438D01*
X10450Y9061D02*
X11177D01*
X11165Y9073D02*
X10462D01*
X10474Y9085D02*
X11153D01*
X11141Y9097D02*
X10486D01*
X10498Y9109D02*
X11129D01*
X11117Y9121D02*
X10510D01*
X10522Y9133D02*
X11105D01*
X11093Y9145D02*
X10534D01*
X7484Y8091D02*
Y7404D01*
Y8243D02*
Y9095D01*
X7472Y8106D02*
Y7416D01*
Y8228D02*
Y9083D01*
X7460Y8129D02*
Y7428D01*
Y8205D02*
Y9071D01*
X7448Y9059D02*
Y7440D01*
X7436Y7452D02*
Y9047D01*
X7424Y9035D02*
Y7464D01*
X7412Y7476D02*
Y9023D01*
X7400Y9011D02*
Y7488D01*
X7388Y7500D02*
Y8999D01*
X7376Y8987D02*
Y7512D01*
X7364Y7524D02*
Y8975D01*
X7352Y8963D02*
Y7536D01*
X7340Y7548D02*
Y8951D01*
X7328Y8939D02*
Y7560D01*
X7316Y7572D02*
Y8927D01*
X7304Y8915D02*
Y7584D01*
X7576Y9187D02*
X8026D01*
X8056Y9157D02*
X7546D01*
X7558Y9169D02*
X8044D01*
X8032Y9181D02*
X7570D01*
X10576Y9187D02*
X11051D01*
X11081Y9157D02*
X10546D01*
X10558Y9169D02*
X11069D01*
X11057Y9181D02*
X10570D01*
X7688Y7499D02*
Y7287D01*
Y7785D02*
Y8689D01*
Y8975D02*
Y9187D01*
X7676Y7507D02*
Y7287D01*
Y7777D02*
Y8697D01*
Y8967D02*
Y9187D01*
X7664Y7517D02*
Y7287D01*
Y7767D02*
Y8135D01*
Y8199D02*
Y8707D01*
Y8957D02*
Y9187D01*
X7652Y7529D02*
Y7287D01*
Y7755D02*
Y8109D01*
Y8225D02*
Y8719D01*
Y8945D02*
Y9187D01*
X7640Y7543D02*
Y7287D01*
Y7741D02*
Y8093D01*
Y8241D02*
Y8733D01*
Y8931D02*
Y9187D01*
X7628Y7563D02*
Y7287D01*
Y7721D02*
Y8082D01*
Y8252D02*
Y8753D01*
Y8911D02*
Y9187D01*
X7616Y7591D02*
Y7287D01*
Y7693D02*
Y8074D01*
Y8260D02*
Y8781D01*
Y8883D02*
Y9187D01*
X7604Y8068D02*
Y7295D01*
Y8266D02*
Y9187D01*
X7592Y8064D02*
Y7305D01*
Y8270D02*
Y9187D01*
X7580Y8061D02*
Y7308D01*
Y8273D02*
Y9187D01*
X7568Y8059D02*
Y7320D01*
Y8275D02*
Y9179D01*
X7556Y8059D02*
Y7332D01*
Y8275D02*
Y9167D01*
X7544Y8060D02*
Y7344D01*
Y8274D02*
Y9155D01*
X7532Y8063D02*
Y7356D01*
Y8271D02*
Y9143D01*
X7520Y8067D02*
Y7368D01*
Y8267D02*
Y9131D01*
X7508Y8073D02*
Y7380D01*
Y8261D02*
Y9119D01*
X7496Y8081D02*
Y7392D01*
Y8253D02*
Y9107D01*
X7606Y7292D02*
X7612Y7287D01*
X7584Y7304D02*
X7583Y7305D01*
X7776Y8832D02*
Y9000D01*
Y8832D02*
Y8664D01*
Y7810D02*
Y7642D01*
Y7474D01*
X7880Y7510D02*
Y7287D01*
Y7774D02*
Y8700D01*
Y8964D02*
Y9187D01*
X7868Y7501D02*
Y7287D01*
Y7783D02*
Y8691D01*
Y8973D02*
Y9187D01*
X7856Y7494D02*
Y7287D01*
Y7790D02*
Y8684D01*
Y8980D02*
Y9187D01*
X7844Y7488D02*
Y7287D01*
Y7796D02*
Y8678D01*
Y8986D02*
Y9187D01*
X7832Y7484D02*
Y7287D01*
Y7800D02*
Y8674D01*
Y8990D02*
Y9187D01*
X7820Y7480D02*
Y7287D01*
Y7804D02*
Y8670D01*
Y8994D02*
Y9187D01*
X7808Y7477D02*
Y7287D01*
Y7807D02*
Y8667D01*
Y8997D02*
Y9187D01*
X7796Y7475D02*
Y7287D01*
Y7809D02*
Y8665D01*
Y8999D02*
Y9187D01*
X7784Y7474D02*
Y7287D01*
Y7810D02*
Y8664D01*
Y9000D02*
Y9187D01*
X7772Y7474D02*
Y7287D01*
Y7810D02*
Y8664D01*
Y9000D02*
Y9187D01*
X7760Y7475D02*
Y7287D01*
Y7809D02*
Y8665D01*
Y8999D02*
Y9187D01*
X7748Y7476D02*
Y7287D01*
Y7808D02*
Y8666D01*
Y8998D02*
Y9187D01*
X7736Y7479D02*
Y7287D01*
Y7805D02*
Y8669D01*
Y8995D02*
Y9187D01*
X7724Y7482D02*
Y7287D01*
Y7802D02*
Y8672D01*
Y8992D02*
Y9187D01*
X7712Y7487D02*
Y7287D01*
Y7797D02*
Y8677D01*
Y8987D02*
Y9187D01*
X7700Y7492D02*
Y7287D01*
Y7792D02*
Y8682D01*
Y8982D02*
Y9187D01*
X8072Y8096D02*
Y7408D01*
Y8238D02*
Y9141D01*
X8060Y8084D02*
Y7396D01*
Y8250D02*
Y9153D01*
X8048Y8075D02*
Y7384D01*
Y8259D02*
Y9165D01*
X8036Y8069D02*
Y7372D01*
Y8265D02*
Y9177D01*
X8024Y8064D02*
Y7360D01*
Y8270D02*
Y9187D01*
X8012Y8061D02*
Y7348D01*
Y8273D02*
Y9187D01*
X8000Y8059D02*
Y7336D01*
Y8275D02*
Y9187D01*
X7988Y8059D02*
Y7324D01*
Y8275D02*
Y9187D01*
X7976Y8060D02*
Y7312D01*
Y8274D02*
Y9187D01*
X7964Y8062D02*
Y7300D01*
Y8272D02*
Y9187D01*
X7952Y8066D02*
Y7288D01*
Y8268D02*
Y9187D01*
X7940Y7606D02*
Y7287D01*
Y7678D02*
Y8072D01*
Y8262D02*
Y8796D01*
Y8868D02*
Y9187D01*
X7928Y7570D02*
Y7287D01*
Y7714D02*
Y8079D01*
Y8255D02*
Y8760D01*
Y8904D02*
Y9187D01*
X7916Y7549D02*
Y7287D01*
Y7735D02*
Y8089D01*
Y8245D02*
Y8739D01*
Y8925D02*
Y9187D01*
X7904Y7533D02*
Y7287D01*
Y7751D02*
Y8103D01*
Y8231D02*
Y8723D01*
Y8941D02*
Y9187D01*
X7892Y7520D02*
Y7287D01*
Y7764D02*
Y8124D01*
Y8210D02*
Y8710D01*
Y8954D02*
Y9187D01*
X8276Y8937D02*
Y7612D01*
X8264Y7600D02*
Y8949D01*
X8252Y8961D02*
Y7588D01*
X8240Y7576D02*
Y8973D01*
X8228Y8985D02*
Y7564D01*
X8216Y7552D02*
Y8997D01*
X8204Y9009D02*
Y7540D01*
X8192Y7528D02*
Y9021D01*
X8180Y9033D02*
Y7516D01*
X8168Y7504D02*
Y9045D01*
X8156Y9057D02*
Y7492D01*
X8144Y7480D02*
Y9069D01*
X8132Y9081D02*
Y7468D01*
X8120Y7456D02*
Y9093D01*
X8108Y9105D02*
Y7444D01*
X8096Y7432D02*
Y8142D01*
Y8192D02*
Y9117D01*
X8084Y8112D02*
Y7420D01*
Y8222D02*
Y9129D01*
X8468Y8745D02*
Y7804D01*
X8456Y7792D02*
Y8757D01*
X8444Y8769D02*
Y7780D01*
X8432Y7768D02*
Y8781D01*
X8420Y8793D02*
Y7756D01*
X8408Y7744D02*
Y8805D01*
X8396Y8817D02*
Y7732D01*
X8384Y7720D02*
Y8829D01*
X8372Y8841D02*
Y7708D01*
X8360Y7696D02*
Y8853D01*
X8348Y8865D02*
Y7684D01*
X8336Y7672D02*
Y8877D01*
X8324Y8889D02*
Y7660D01*
X8312Y7648D02*
Y8901D01*
X8300Y8913D02*
Y7636D01*
X8288Y7624D02*
Y8925D01*
X8476Y8737D02*
Y7812D01*
X10076D02*
Y8013D01*
Y8061D02*
Y8687D01*
X10232Y8843D02*
Y7656D01*
X10220Y7668D02*
Y8831D01*
X10208Y8819D02*
Y7680D01*
X10196Y7692D02*
Y8807D01*
X10184Y8795D02*
Y7704D01*
X10172Y7716D02*
Y8783D01*
X10160Y8771D02*
Y7728D01*
X10148Y7740D02*
Y8759D01*
X10136Y8747D02*
Y7752D01*
X10124Y7764D02*
Y8735D01*
X10112Y8723D02*
Y7776D01*
X10100Y7788D02*
Y8711D01*
X10088Y8699D02*
Y7800D01*
X10424Y7464D02*
Y9035D01*
X10412Y9023D02*
Y7476D01*
X10400Y7488D02*
Y9011D01*
X10388Y8999D02*
Y7500D01*
X10376Y7512D02*
Y8987D01*
X10364Y8975D02*
Y7524D01*
X10352Y7536D02*
Y8963D01*
X10340Y8951D02*
Y7548D01*
X10328Y7560D02*
Y8939D01*
X10316Y8927D02*
Y7572D01*
X10304Y7584D02*
Y8915D01*
X10292Y8903D02*
Y7596D01*
X10280Y7608D02*
Y8891D01*
X10268Y8879D02*
Y7620D01*
X10256Y7632D02*
Y8867D01*
X10244Y8855D02*
Y7644D01*
X10616Y7591D02*
Y7287D01*
Y7693D02*
Y8074D01*
Y8260D02*
Y8781D01*
Y8883D02*
Y9187D01*
X10604Y8068D02*
Y7287D01*
Y8266D02*
Y9187D01*
X10592Y8064D02*
Y7296D01*
Y8270D02*
Y9187D01*
X10580Y8061D02*
Y7308D01*
Y8273D02*
Y9187D01*
X10568Y8059D02*
Y7320D01*
Y8275D02*
Y9179D01*
X10556Y8059D02*
Y7332D01*
Y8275D02*
Y9167D01*
X10544Y8060D02*
Y7344D01*
Y8274D02*
Y9155D01*
X10532Y8063D02*
Y7356D01*
Y8271D02*
Y9143D01*
X10520Y8067D02*
Y7368D01*
Y8267D02*
Y9131D01*
X10508Y8073D02*
Y7380D01*
Y8261D02*
Y9119D01*
X10496Y8081D02*
Y7392D01*
Y8253D02*
Y9107D01*
X10484Y8091D02*
Y7404D01*
Y8243D02*
Y9095D01*
X10472Y8106D02*
Y7416D01*
Y8228D02*
Y9083D01*
X10460Y8129D02*
Y7428D01*
Y8205D02*
Y9071D01*
X10448Y9059D02*
Y7440D01*
X10436Y7452D02*
Y9047D01*
X10776Y9000D02*
Y8832D01*
Y8664D01*
Y7810D02*
Y7642D01*
Y7474D01*
X10820Y7480D02*
Y7287D01*
Y7804D02*
Y8670D01*
Y8994D02*
Y9187D01*
X10808Y7477D02*
Y7287D01*
Y7807D02*
Y8667D01*
Y8997D02*
Y9187D01*
X10796Y7475D02*
Y7287D01*
Y7809D02*
Y8665D01*
Y8999D02*
Y9187D01*
X10784Y7474D02*
Y7287D01*
Y7810D02*
Y8664D01*
Y9000D02*
Y9187D01*
X10772Y7474D02*
Y7287D01*
Y7810D02*
Y8664D01*
Y9000D02*
Y9187D01*
X10760Y7475D02*
Y7287D01*
Y7809D02*
Y8665D01*
Y8999D02*
Y9187D01*
X10748Y7476D02*
Y7287D01*
Y7808D02*
Y8666D01*
Y8998D02*
Y9187D01*
X10736Y7479D02*
Y7287D01*
Y7805D02*
Y8669D01*
Y8995D02*
Y9187D01*
X10724Y7482D02*
Y7287D01*
Y7802D02*
Y8672D01*
Y8992D02*
Y9187D01*
X10712Y7487D02*
Y7287D01*
Y7797D02*
Y8677D01*
Y8987D02*
Y9187D01*
X10700Y7492D02*
Y7287D01*
Y7792D02*
Y8682D01*
Y8982D02*
Y9187D01*
X10688Y7499D02*
Y7287D01*
Y7785D02*
Y8689D01*
Y8975D02*
Y9187D01*
X10676Y7507D02*
Y7287D01*
Y7777D02*
Y8697D01*
Y8967D02*
Y9187D01*
X10664Y7517D02*
Y7287D01*
Y7767D02*
Y8135D01*
Y8199D02*
Y8707D01*
Y8957D02*
Y9187D01*
X10652Y7529D02*
Y7287D01*
Y7755D02*
Y8109D01*
Y8225D02*
Y8719D01*
Y8945D02*
Y9187D01*
X10640Y7543D02*
Y7287D01*
Y7741D02*
Y8093D01*
Y8241D02*
Y8733D01*
Y8931D02*
Y9187D01*
X10628Y7563D02*
Y7287D01*
Y7721D02*
Y8082D01*
Y8252D02*
Y8753D01*
Y8911D02*
Y9187D01*
X11012Y8061D02*
Y7348D01*
Y8273D02*
Y9187D01*
X11000Y8059D02*
Y7336D01*
Y8275D02*
Y9187D01*
X10988Y8059D02*
Y7324D01*
Y8275D02*
Y9187D01*
X10976Y8060D02*
Y7312D01*
Y8274D02*
Y9187D01*
X10964Y8062D02*
Y7300D01*
Y8272D02*
Y9187D01*
X10952Y8066D02*
Y7288D01*
Y8268D02*
Y9187D01*
X10940Y7606D02*
Y7287D01*
Y7678D02*
Y8072D01*
Y8262D02*
Y8796D01*
Y8868D02*
Y9187D01*
X10928Y7570D02*
Y7287D01*
Y7714D02*
Y8079D01*
Y8255D02*
Y8760D01*
Y8904D02*
Y9187D01*
X10916Y7549D02*
Y7287D01*
Y7735D02*
Y8089D01*
Y8245D02*
Y8739D01*
Y8925D02*
Y9187D01*
X10904Y7533D02*
Y7287D01*
Y7751D02*
Y8103D01*
Y8231D02*
Y8723D01*
Y8941D02*
Y9187D01*
X10892Y7520D02*
Y7287D01*
Y7764D02*
Y8124D01*
Y8210D02*
Y8710D01*
Y8954D02*
Y9187D01*
X10880Y7510D02*
Y7287D01*
Y7774D02*
Y8700D01*
Y8964D02*
Y9187D01*
X10868Y7501D02*
Y7287D01*
Y7783D02*
Y8691D01*
Y8973D02*
Y9187D01*
X10856Y7494D02*
Y7287D01*
Y7790D02*
Y8684D01*
Y8980D02*
Y9187D01*
X10844Y7488D02*
Y7287D01*
Y7796D02*
Y8678D01*
Y8986D02*
Y9187D01*
X10832Y7484D02*
Y7287D01*
Y7800D02*
Y8674D01*
Y8990D02*
Y9187D01*
X11204Y9034D02*
Y7540D01*
X11192Y7528D02*
Y9046D01*
X11180Y9058D02*
Y7516D01*
X11168Y7504D02*
Y9070D01*
X11156Y9082D02*
Y7492D01*
X11144Y7480D02*
Y9094D01*
X11132Y9106D02*
Y7468D01*
X11120Y7456D02*
Y9118D01*
X11108Y9130D02*
Y7444D01*
X11096Y7432D02*
Y8142D01*
Y8192D02*
Y9142D01*
X11084Y8112D02*
Y7420D01*
Y8222D02*
Y9154D01*
X11072Y8096D02*
Y7408D01*
Y8238D02*
Y9166D01*
X11060Y8084D02*
Y7396D01*
Y8250D02*
Y9178D01*
X11048Y8075D02*
Y7384D01*
Y8259D02*
Y9187D01*
X11036Y8069D02*
Y7372D01*
Y8265D02*
Y9187D01*
X11024Y8064D02*
Y7360D01*
Y8270D02*
Y9187D01*
X11408Y8830D02*
Y7744D01*
X11396Y7732D02*
Y8842D01*
X11384Y8854D02*
Y7720D01*
X11372Y7708D02*
Y8866D01*
X11360Y8878D02*
Y7696D01*
X11348Y7684D02*
Y8890D01*
X11336Y8902D02*
Y7672D01*
X11324Y7660D02*
Y8914D01*
X11312Y8926D02*
Y7648D01*
X11300Y7636D02*
Y8938D01*
X11288Y8950D02*
Y7624D01*
X11276Y7612D02*
Y8962D01*
X11264Y8974D02*
Y7600D01*
X11252Y7588D02*
Y8986D01*
X11240Y8998D02*
Y7576D01*
X11228Y7564D02*
Y9010D01*
X11216Y9022D02*
Y7552D01*
X11526Y7137D02*
Y8062D01*
X11476Y7812D02*
Y8762D01*
X11468Y8770D02*
Y7804D01*
X11456Y7792D02*
Y8782D01*
X11444Y8794D02*
Y7780D01*
X11432Y7768D02*
Y8806D01*
X11420Y8818D02*
Y7756D01*
X11526Y8062D02*
X11626Y8162D01*
Y8387D01*
X11776Y7837D02*
Y7737D01*
Y7837D02*
Y7987D01*
X11676Y7637D02*
Y7437D01*
Y7837D02*
Y7987D01*
X11776Y7737D02*
X11676Y7637D01*
X11976Y8137D02*
Y8287D01*
X11876D02*
Y8137D01*
X11926Y8087D02*
Y7837D01*
X11876Y7787D02*
Y7312D01*
X12026Y8087D02*
X11976Y8137D01*
X11926Y8087D02*
X11876Y8137D01*
X11926Y7837D02*
X11876Y7787D01*
X12026Y8087D02*
Y7162D01*
X12126Y7512D02*
Y8362D01*
X12101Y8387D02*
Y8637D01*
X12176Y8712D02*
Y8987D01*
Y7987D02*
Y7837D01*
Y8137D02*
Y8287D01*
Y8487D01*
X12026Y7162D02*
X12076Y7112D01*
X12126Y8362D02*
X12101Y8387D01*
Y8637D02*
X12176Y8712D01*
X12276Y8287D02*
Y8187D01*
X12326Y8137D02*
Y7937D01*
X12376Y7987D02*
Y8287D01*
Y8487D01*
X12326Y7937D02*
X12426Y7837D01*
X12326Y8137D02*
X12276Y8187D01*
X12326Y7137D02*
X12301Y7112D01*
X12576Y7837D02*
Y7987D01*
Y8212D02*
Y8287D01*
X12476Y8112D02*
Y7987D01*
Y8112D02*
X12576Y8212D01*
X12776Y8137D02*
Y8287D01*
X12676Y7987D02*
Y7837D01*
X12926Y7887D02*
Y8037D01*
X13026Y8137D01*
X13076Y8287D02*
Y8362D01*
Y8287D02*
Y8237D01*
X13026Y8187D02*
Y8137D01*
X12976Y7987D02*
Y7537D01*
X13076Y7987D02*
Y8137D01*
X13026Y8187D02*
X13076Y8237D01*
X13176Y8287D02*
Y8137D01*
X13226Y8087D02*
Y7837D01*
Y8087D02*
X13176Y8137D01*
X13401Y7512D02*
Y7387D01*
X13526Y7462D02*
Y7137D01*
X13726Y8187D02*
Y8287D01*
Y8437D01*
X13576Y8037D02*
Y7687D01*
X13726Y7987D02*
Y8112D01*
X13676Y8662D02*
Y8862D01*
X13726Y8837D02*
Y8737D01*
X13676Y8662D02*
X13776Y8562D01*
X13826Y8637D02*
X13726Y8737D01*
X13676Y8862D02*
X13701Y8887D01*
X13776Y8162D02*
X13726Y8112D01*
X13776Y8162D02*
Y8562D01*
X13926D02*
Y8837D01*
X13776Y8062D02*
Y7712D01*
X13876Y8162D02*
Y8512D01*
X13826Y7987D02*
Y6612D01*
Y8437D02*
Y8637D01*
Y8437D02*
Y8287D01*
Y8837D02*
X13776Y8887D01*
X13826Y6612D02*
X13851Y6587D01*
X13776Y8062D02*
X13876Y8162D01*
Y8512D02*
X13926Y8562D01*
X14026Y8637D02*
Y8437D01*
X13976Y8687D02*
Y9087D01*
X14126Y8937D02*
Y8837D01*
Y8662D01*
Y8937D02*
X14101Y8962D01*
X14151Y9012D02*
X14051Y9112D01*
X13976Y8687D02*
X14026Y8637D01*
X14126Y8662D02*
X14226Y8562D01*
X13976Y9087D02*
X14001Y9112D01*
X14226Y8937D02*
Y8837D01*
X14326Y7437D02*
Y7337D01*
Y7437D02*
Y7612D01*
X14226Y7737D02*
Y7837D01*
Y7987D01*
X14176Y7687D02*
Y6637D01*
X14326Y8137D02*
Y8287D01*
Y8437D01*
Y7837D02*
Y7737D01*
Y7837D02*
Y7987D01*
X14226Y7637D02*
Y7437D01*
X14326Y8662D02*
Y8837D01*
X14226Y8562D02*
Y8437D01*
Y8937D02*
X14151Y9012D01*
X14326Y7337D02*
X14376Y7287D01*
Y8087D02*
X14326Y8137D01*
X14426Y8562D02*
X14326Y8662D01*
X14276Y6637D02*
X14226Y6587D01*
X14176Y7687D02*
X14226Y7737D01*
X14326Y7612D02*
X14376Y7662D01*
X14326Y7737D02*
X14226Y7637D01*
X14376Y7287D02*
Y6637D01*
X14526Y8287D02*
Y8512D01*
X14376Y8087D02*
Y7662D01*
X14426Y8437D02*
Y8562D01*
Y8437D02*
Y8287D01*
X10082Y8037D02*
X10081Y8033D01*
X10081Y8029D01*
X10080Y8025D01*
X10079Y8021D01*
X10078Y8017D01*
X10076Y8013D01*
X10082Y8037D02*
X10081Y8041D01*
X10081Y8045D01*
X10080Y8049D01*
X10079Y8053D01*
X10078Y8057D01*
X10076Y8061D01*
X10669Y8167D02*
X10669Y8164D01*
X10669Y8160D01*
X10669Y8157D01*
X10668Y8154D01*
X10668Y8150D01*
X10667Y8147D01*
X10666Y8144D01*
X10666Y8141D01*
X10665Y8137D01*
X10664Y8134D01*
X10663Y8131D01*
X10662Y8128D01*
X10660Y8125D01*
X10659Y8122D01*
X10658Y8119D01*
X10656Y8116D01*
X10655Y8113D01*
X10653Y8110D01*
X10651Y8107D01*
X10649Y8105D01*
X10647Y8102D01*
X10645Y8099D01*
X10643Y8097D01*
X10641Y8094D01*
X10639Y8092D01*
X10636Y8089D01*
X10634Y8087D01*
X10631Y8085D01*
X10629Y8083D01*
X10626Y8081D01*
X10623Y8079D01*
X10621Y8077D01*
X10618Y8075D01*
X10615Y8073D01*
X10612Y8072D01*
X10609Y8070D01*
X10606Y8069D01*
X10603Y8068D01*
X10600Y8066D01*
X10597Y8065D01*
X10594Y8064D01*
X10591Y8063D01*
X10587Y8062D01*
X10584Y8062D01*
X10581Y8061D01*
X10578Y8060D01*
X10574Y8060D01*
X10571Y8059D01*
X10568Y8059D01*
X10564Y8059D01*
X10561Y8059D01*
X10558Y8059D01*
X10554Y8059D01*
X10551Y8059D01*
X10548Y8060D01*
X10544Y8060D01*
X10541Y8061D01*
X10538Y8062D01*
X10535Y8062D01*
X10531Y8063D01*
X10528Y8064D01*
X10525Y8065D01*
X10522Y8066D01*
X10519Y8068D01*
X10516Y8069D01*
X10513Y8070D01*
X10510Y8072D01*
X10507Y8073D01*
X10504Y8075D01*
X10501Y8077D01*
X10499Y8079D01*
X10496Y8081D01*
X10493Y8083D01*
X10491Y8085D01*
X10488Y8087D01*
X10486Y8089D01*
X10483Y8092D01*
X10481Y8094D01*
X10479Y8097D01*
X10477Y8099D01*
X10475Y8102D01*
X10473Y8105D01*
X10471Y8107D01*
X10469Y8110D01*
X10467Y8113D01*
X10466Y8116D01*
X10464Y8119D01*
X10463Y8122D01*
X10462Y8125D01*
X10460Y8128D01*
X10459Y8131D01*
X10458Y8134D01*
X10457Y8137D01*
X10456Y8141D01*
X10456Y8144D01*
X10455Y8147D01*
X10454Y8150D01*
X10454Y8154D01*
X10453Y8157D01*
X10453Y8160D01*
X10453Y8164D01*
X10453Y8167D01*
X10453Y8170D01*
X10453Y8174D01*
X10453Y8177D01*
X10454Y8180D01*
X10454Y8184D01*
X10455Y8187D01*
X10456Y8190D01*
X10456Y8193D01*
X10457Y8197D01*
X10458Y8200D01*
X10459Y8203D01*
X10460Y8206D01*
X10462Y8209D01*
X10463Y8212D01*
X10464Y8215D01*
X10466Y8218D01*
X10467Y8221D01*
X10469Y8224D01*
X10471Y8227D01*
X10473Y8229D01*
X10475Y8232D01*
X10477Y8235D01*
X10479Y8237D01*
X10481Y8240D01*
X10483Y8242D01*
X10486Y8245D01*
X10488Y8247D01*
X10491Y8249D01*
X10493Y8251D01*
X10496Y8253D01*
X10499Y8255D01*
X10501Y8257D01*
X10504Y8259D01*
X10507Y8261D01*
X10510Y8262D01*
X10513Y8264D01*
X10516Y8265D01*
X10519Y8266D01*
X10522Y8268D01*
X10525Y8269D01*
X10528Y8270D01*
X10531Y8271D01*
X10535Y8272D01*
X10538Y8272D01*
X10541Y8273D01*
X10544Y8274D01*
X10548Y8274D01*
X10551Y8275D01*
X10554Y8275D01*
X10558Y8275D01*
X10561Y8275D01*
X10564Y8275D01*
X10568Y8275D01*
X10571Y8275D01*
X10574Y8274D01*
X10578Y8274D01*
X10581Y8273D01*
X10584Y8272D01*
X10587Y8272D01*
X10591Y8271D01*
X10594Y8270D01*
X10597Y8269D01*
X10600Y8268D01*
X10603Y8266D01*
X10606Y8265D01*
X10609Y8264D01*
X10612Y8262D01*
X10615Y8261D01*
X10618Y8259D01*
X10621Y8257D01*
X10623Y8255D01*
X10626Y8253D01*
X10629Y8251D01*
X10631Y8249D01*
X10634Y8247D01*
X10636Y8245D01*
X10639Y8242D01*
X10641Y8240D01*
X10643Y8237D01*
X10645Y8235D01*
X10647Y8232D01*
X10649Y8229D01*
X10651Y8227D01*
X10653Y8224D01*
X10655Y8221D01*
X10656Y8218D01*
X10658Y8215D01*
X10659Y8212D01*
X10660Y8209D01*
X10662Y8206D01*
X10663Y8203D01*
X10664Y8200D01*
X10665Y8197D01*
X10666Y8193D01*
X10666Y8190D01*
X10667Y8187D01*
X10668Y8184D01*
X10668Y8180D01*
X10669Y8177D01*
X10669Y8174D01*
X10669Y8170D01*
X10669Y8167D01*
X11099D02*
X11099Y8164D01*
X11099Y8160D01*
X11099Y8157D01*
X11098Y8154D01*
X11098Y8150D01*
X11097Y8147D01*
X11096Y8144D01*
X11096Y8141D01*
X11095Y8137D01*
X11094Y8134D01*
X11093Y8131D01*
X11092Y8128D01*
X11090Y8125D01*
X11089Y8122D01*
X11088Y8119D01*
X11086Y8116D01*
X11085Y8113D01*
X11083Y8110D01*
X11081Y8107D01*
X11079Y8105D01*
X11077Y8102D01*
X11075Y8099D01*
X11073Y8097D01*
X11071Y8094D01*
X11069Y8092D01*
X11066Y8089D01*
X11064Y8087D01*
X11061Y8085D01*
X11059Y8083D01*
X11056Y8081D01*
X11053Y8079D01*
X11051Y8077D01*
X11048Y8075D01*
X11045Y8073D01*
X11042Y8072D01*
X11039Y8070D01*
X11036Y8069D01*
X11033Y8068D01*
X11030Y8066D01*
X11027Y8065D01*
X11024Y8064D01*
X11021Y8063D01*
X11017Y8062D01*
X11014Y8062D01*
X11011Y8061D01*
X11008Y8060D01*
X11004Y8060D01*
X11001Y8059D01*
X10998Y8059D01*
X10994Y8059D01*
X10991Y8059D01*
X10988Y8059D01*
X10984Y8059D01*
X10981Y8059D01*
X10978Y8060D01*
X10974Y8060D01*
X10971Y8061D01*
X10968Y8062D01*
X10965Y8062D01*
X10961Y8063D01*
X10958Y8064D01*
X10955Y8065D01*
X10952Y8066D01*
X10949Y8068D01*
X10946Y8069D01*
X10943Y8070D01*
X10940Y8072D01*
X10937Y8073D01*
X10934Y8075D01*
X10931Y8077D01*
X10929Y8079D01*
X10926Y8081D01*
X10923Y8083D01*
X10921Y8085D01*
X10918Y8087D01*
X10916Y8089D01*
X10913Y8092D01*
X10911Y8094D01*
X10909Y8097D01*
X10907Y8099D01*
X10905Y8102D01*
X10903Y8105D01*
X10901Y8107D01*
X10899Y8110D01*
X10897Y8113D01*
X10896Y8116D01*
X10894Y8119D01*
X10893Y8122D01*
X10892Y8125D01*
X10890Y8128D01*
X10889Y8131D01*
X10888Y8134D01*
X10887Y8137D01*
X10886Y8141D01*
X10886Y8144D01*
X10885Y8147D01*
X10884Y8150D01*
X10884Y8154D01*
X10883Y8157D01*
X10883Y8160D01*
X10883Y8164D01*
X10883Y8167D01*
X10883Y8170D01*
X10883Y8174D01*
X10883Y8177D01*
X10884Y8180D01*
X10884Y8184D01*
X10885Y8187D01*
X10886Y8190D01*
X10886Y8193D01*
X10887Y8197D01*
X10888Y8200D01*
X10889Y8203D01*
X10890Y8206D01*
X10892Y8209D01*
X10893Y8212D01*
X10894Y8215D01*
X10896Y8218D01*
X10897Y8221D01*
X10899Y8224D01*
X10901Y8227D01*
X10903Y8229D01*
X10905Y8232D01*
X10907Y8235D01*
X10909Y8237D01*
X10911Y8240D01*
X10913Y8242D01*
X10916Y8245D01*
X10918Y8247D01*
X10921Y8249D01*
X10923Y8251D01*
X10926Y8253D01*
X10929Y8255D01*
X10931Y8257D01*
X10934Y8259D01*
X10937Y8261D01*
X10940Y8262D01*
X10943Y8264D01*
X10946Y8265D01*
X10949Y8266D01*
X10952Y8268D01*
X10955Y8269D01*
X10958Y8270D01*
X10961Y8271D01*
X10965Y8272D01*
X10968Y8272D01*
X10971Y8273D01*
X10974Y8274D01*
X10978Y8274D01*
X10981Y8275D01*
X10984Y8275D01*
X10988Y8275D01*
X10991Y8275D01*
X10994Y8275D01*
X10998Y8275D01*
X11001Y8275D01*
X11004Y8274D01*
X11008Y8274D01*
X11011Y8273D01*
X11014Y8272D01*
X11017Y8272D01*
X11021Y8271D01*
X11024Y8270D01*
X11027Y8269D01*
X11030Y8268D01*
X11033Y8266D01*
X11036Y8265D01*
X11039Y8264D01*
X11042Y8262D01*
X11045Y8261D01*
X11048Y8259D01*
X11051Y8257D01*
X11053Y8255D01*
X11056Y8253D01*
X11059Y8251D01*
X11061Y8249D01*
X11064Y8247D01*
X11066Y8245D01*
X11069Y8242D01*
X11071Y8240D01*
X11073Y8237D01*
X11075Y8235D01*
X11077Y8232D01*
X11079Y8229D01*
X11081Y8227D01*
X11083Y8224D01*
X11085Y8221D01*
X11086Y8218D01*
X11088Y8215D01*
X11089Y8212D01*
X11090Y8209D01*
X11092Y8206D01*
X11093Y8203D01*
X11094Y8200D01*
X11095Y8197D01*
X11096Y8193D01*
X11096Y8190D01*
X11097Y8187D01*
X11098Y8184D01*
X11098Y8180D01*
X11099Y8177D01*
X11099Y8174D01*
X11099Y8170D01*
X11099Y8167D01*
X10944Y8832D02*
X10944Y8829D01*
X10944Y8825D01*
X10944Y8822D01*
X10943Y8819D01*
X10943Y8815D01*
X10943Y8812D01*
X10942Y8809D01*
X10942Y8806D01*
X10941Y8802D01*
X10941Y8799D01*
X10940Y8796D01*
X10939Y8793D01*
X10938Y8789D01*
X10938Y8786D01*
X10937Y8783D01*
X10936Y8780D01*
X10935Y8777D01*
X10933Y8774D01*
X10932Y8770D01*
X10931Y8767D01*
X10930Y8764D01*
X10928Y8761D01*
X10927Y8758D01*
X10925Y8755D01*
X10924Y8752D01*
X10922Y8749D01*
X10921Y8747D01*
X10919Y8744D01*
X10917Y8741D01*
X10915Y8738D01*
X10913Y8735D01*
X10912Y8733D01*
X10910Y8730D01*
X10907Y8727D01*
X10905Y8725D01*
X10903Y8722D01*
X10901Y8720D01*
X10899Y8717D01*
X10897Y8715D01*
X10894Y8713D01*
X10892Y8710D01*
X10889Y8708D01*
X10887Y8706D01*
X10884Y8704D01*
X10882Y8702D01*
X10879Y8699D01*
X10877Y8697D01*
X10874Y8696D01*
X10871Y8694D01*
X10868Y8692D01*
X10866Y8690D01*
X10863Y8688D01*
X10860Y8687D01*
X10857Y8685D01*
X10854Y8683D01*
X10851Y8682D01*
X10848Y8680D01*
X10845Y8679D01*
X10842Y8678D01*
X10839Y8676D01*
X10836Y8675D01*
X10833Y8674D01*
X10830Y8673D01*
X10827Y8672D01*
X10823Y8671D01*
X10820Y8670D01*
X10817Y8669D01*
X10814Y8668D01*
X10811Y8668D01*
X10807Y8667D01*
X10804Y8666D01*
X10801Y8666D01*
X10798Y8665D01*
X10794Y8665D01*
X10791Y8665D01*
X10788Y8664D01*
X10784Y8664D01*
X10781Y8664D01*
X10778Y8664D01*
X10774D01*
X10771Y8664D01*
X10768Y8664D01*
X10764Y8664D01*
X10761Y8665D01*
X10758Y8665D01*
X10754Y8665D01*
X10751Y8666D01*
X10748Y8666D01*
X10745Y8667D01*
X10741Y8668D01*
X10738Y8668D01*
X10735Y8669D01*
X10732Y8670D01*
X10729Y8671D01*
X10725Y8672D01*
X10722Y8673D01*
X10719Y8674D01*
X10716Y8675D01*
X10713Y8676D01*
X10710Y8678D01*
X10707Y8679D01*
X10704Y8680D01*
X10701Y8682D01*
X10698Y8683D01*
X10695Y8685D01*
X10692Y8687D01*
X10689Y8688D01*
X10686Y8690D01*
X10684Y8692D01*
X10681Y8694D01*
X10678Y8696D01*
X10675Y8697D01*
X10673Y8699D01*
X10670Y8702D01*
X10668Y8704D01*
X10665Y8706D01*
X10663Y8708D01*
X10660Y8710D01*
X10658Y8713D01*
X10655Y8715D01*
X10653Y8717D01*
X10651Y8720D01*
X10649Y8722D01*
X10647Y8725D01*
X10645Y8727D01*
X10642Y8730D01*
X10640Y8733D01*
X10639Y8735D01*
X10637Y8738D01*
X10635Y8741D01*
X10633Y8744D01*
X10631Y8747D01*
X10630Y8749D01*
X10628Y8752D01*
X10627Y8755D01*
X10625Y8758D01*
X10624Y8761D01*
X10622Y8764D01*
X10621Y8767D01*
X10620Y8770D01*
X10619Y8774D01*
X10617Y8777D01*
X10616Y8780D01*
X10615Y8783D01*
X10614Y8786D01*
X10614Y8789D01*
X10613Y8793D01*
X10612Y8796D01*
X10611Y8799D01*
X10611Y8802D01*
X10610Y8806D01*
X10610Y8809D01*
X10609Y8812D01*
X10609Y8815D01*
X10609Y8819D01*
X10608Y8822D01*
X10608Y8825D01*
X10608Y8829D01*
X10608Y8832D01*
X10608Y8835D01*
X10608Y8839D01*
X10608Y8842D01*
X10609Y8845D01*
X10609Y8849D01*
X10609Y8852D01*
X10610Y8855D01*
X10610Y8858D01*
X10611Y8862D01*
X10611Y8865D01*
X10612Y8868D01*
X10613Y8871D01*
X10614Y8875D01*
X10614Y8878D01*
X10615Y8881D01*
X10616Y8884D01*
X10617Y8887D01*
X10619Y8890D01*
X10620Y8894D01*
X10621Y8897D01*
X10622Y8900D01*
X10624Y8903D01*
X10625Y8906D01*
X10627Y8909D01*
X10628Y8912D01*
X10630Y8915D01*
X10631Y8917D01*
X10633Y8920D01*
X10635Y8923D01*
X10637Y8926D01*
X10639Y8929D01*
X10640Y8931D01*
X10642Y8934D01*
X10645Y8937D01*
X10647Y8939D01*
X10649Y8942D01*
X10651Y8944D01*
X10653Y8947D01*
X10655Y8949D01*
X10658Y8951D01*
X10660Y8954D01*
X10663Y8956D01*
X10665Y8958D01*
X10668Y8960D01*
X10670Y8962D01*
X10673Y8965D01*
X10675Y8967D01*
X10678Y8968D01*
X10681Y8970D01*
X10684Y8972D01*
X10686Y8974D01*
X10689Y8976D01*
X10692Y8977D01*
X10695Y8979D01*
X10698Y8981D01*
X10701Y8982D01*
X10704Y8984D01*
X10707Y8985D01*
X10710Y8986D01*
X10713Y8988D01*
X10716Y8989D01*
X10719Y8990D01*
X10722Y8991D01*
X10725Y8992D01*
X10729Y8993D01*
X10732Y8994D01*
X10735Y8995D01*
X10738Y8996D01*
X10741Y8996D01*
X10745Y8997D01*
X10748Y8998D01*
X10751Y8998D01*
X10754Y8999D01*
X10758Y8999D01*
X10761Y8999D01*
X10764Y9000D01*
X10768Y9000D01*
X10771Y9000D01*
X10774Y9000D01*
X10778D01*
X10781Y9000D01*
X10784Y9000D01*
X10788Y9000D01*
X10791Y8999D01*
X10794Y8999D01*
X10798Y8999D01*
X10801Y8998D01*
X10804Y8998D01*
X10807Y8997D01*
X10811Y8996D01*
X10814Y8996D01*
X10817Y8995D01*
X10820Y8994D01*
X10823Y8993D01*
X10827Y8992D01*
X10830Y8991D01*
X10833Y8990D01*
X10836Y8989D01*
X10839Y8988D01*
X10842Y8986D01*
X10845Y8985D01*
X10848Y8984D01*
X10851Y8982D01*
X10854Y8981D01*
X10857Y8979D01*
X10860Y8977D01*
X10863Y8976D01*
X10866Y8974D01*
X10868Y8972D01*
X10871Y8970D01*
X10874Y8968D01*
X10877Y8967D01*
X10879Y8965D01*
X10882Y8962D01*
X10884Y8960D01*
X10887Y8958D01*
X10889Y8956D01*
X10892Y8954D01*
X10894Y8951D01*
X10897Y8949D01*
X10899Y8947D01*
X10901Y8944D01*
X10903Y8942D01*
X10905Y8939D01*
X10907Y8937D01*
X10910Y8934D01*
X10912Y8931D01*
X10913Y8929D01*
X10915Y8926D01*
X10917Y8923D01*
X10919Y8920D01*
X10921Y8917D01*
X10922Y8915D01*
X10924Y8912D01*
X10925Y8909D01*
X10927Y8906D01*
X10928Y8903D01*
X10930Y8900D01*
X10931Y8897D01*
X10932Y8894D01*
X10933Y8890D01*
X10935Y8887D01*
X10936Y8884D01*
X10937Y8881D01*
X10938Y8878D01*
X10938Y8875D01*
X10939Y8871D01*
X10940Y8868D01*
X10941Y8865D01*
X10941Y8862D01*
X10942Y8858D01*
X10942Y8855D01*
X10943Y8852D01*
X10943Y8849D01*
X10943Y8845D01*
X10944Y8842D01*
X10944Y8839D01*
X10944Y8835D01*
X10944Y8832D01*
Y7642D02*
X10944Y7639D01*
X10944Y7635D01*
X10944Y7632D01*
X10943Y7629D01*
X10943Y7625D01*
X10943Y7622D01*
X10942Y7619D01*
X10942Y7616D01*
X10941Y7612D01*
X10941Y7609D01*
X10940Y7606D01*
X10939Y7603D01*
X10938Y7599D01*
X10938Y7596D01*
X10937Y7593D01*
X10936Y7590D01*
X10935Y7587D01*
X10933Y7584D01*
X10932Y7580D01*
X10931Y7577D01*
X10930Y7574D01*
X10928Y7571D01*
X10927Y7568D01*
X10925Y7565D01*
X10924Y7562D01*
X10922Y7559D01*
X10921Y7557D01*
X10919Y7554D01*
X10917Y7551D01*
X10915Y7548D01*
X10913Y7545D01*
X10912Y7543D01*
X10910Y7540D01*
X10907Y7537D01*
X10905Y7535D01*
X10903Y7532D01*
X10901Y7530D01*
X10899Y7527D01*
X10897Y7525D01*
X10894Y7523D01*
X10892Y7520D01*
X10889Y7518D01*
X10887Y7516D01*
X10884Y7514D01*
X10882Y7512D01*
X10879Y7509D01*
X10877Y7507D01*
X10874Y7506D01*
X10871Y7504D01*
X10868Y7502D01*
X10866Y7500D01*
X10863Y7498D01*
X10860Y7497D01*
X10857Y7495D01*
X10854Y7493D01*
X10851Y7492D01*
X10848Y7490D01*
X10845Y7489D01*
X10842Y7488D01*
X10839Y7486D01*
X10836Y7485D01*
X10833Y7484D01*
X10830Y7483D01*
X10827Y7482D01*
X10823Y7481D01*
X10820Y7480D01*
X10817Y7479D01*
X10814Y7478D01*
X10811Y7478D01*
X10807Y7477D01*
X10804Y7476D01*
X10801Y7476D01*
X10798Y7475D01*
X10794Y7475D01*
X10791Y7475D01*
X10788Y7474D01*
X10784Y7474D01*
X10781Y7474D01*
X10778Y7474D01*
X10774D01*
X10771Y7474D01*
X10768Y7474D01*
X10764Y7474D01*
X10761Y7475D01*
X10758Y7475D01*
X10754Y7475D01*
X10751Y7476D01*
X10748Y7476D01*
X10745Y7477D01*
X10741Y7478D01*
X10738Y7478D01*
X10735Y7479D01*
X10732Y7480D01*
X10729Y7481D01*
X10725Y7482D01*
X10722Y7483D01*
X10719Y7484D01*
X10716Y7485D01*
X10713Y7486D01*
X10710Y7488D01*
X10707Y7489D01*
X10704Y7490D01*
X10701Y7492D01*
X10698Y7493D01*
X10695Y7495D01*
X10692Y7497D01*
X10689Y7498D01*
X10686Y7500D01*
X10684Y7502D01*
X10681Y7504D01*
X10678Y7506D01*
X10675Y7507D01*
X10673Y7509D01*
X10670Y7512D01*
X10668Y7514D01*
X10665Y7516D01*
X10663Y7518D01*
X10660Y7520D01*
X10658Y7523D01*
X10655Y7525D01*
X10653Y7527D01*
X10651Y7530D01*
X10649Y7532D01*
X10647Y7535D01*
X10645Y7537D01*
X10642Y7540D01*
X10640Y7543D01*
X10639Y7545D01*
X10637Y7548D01*
X10635Y7551D01*
X10633Y7554D01*
X10631Y7557D01*
X10630Y7559D01*
X10628Y7562D01*
X10627Y7565D01*
X10625Y7568D01*
X10624Y7571D01*
X10622Y7574D01*
X10621Y7577D01*
X10620Y7580D01*
X10619Y7584D01*
X10617Y7587D01*
X10616Y7590D01*
X10615Y7593D01*
X10614Y7596D01*
X10614Y7599D01*
X10613Y7603D01*
X10612Y7606D01*
X10611Y7609D01*
X10611Y7612D01*
X10610Y7616D01*
X10610Y7619D01*
X10609Y7622D01*
X10609Y7625D01*
X10609Y7629D01*
X10608Y7632D01*
X10608Y7635D01*
X10608Y7639D01*
X10608Y7642D01*
X10608Y7645D01*
X10608Y7649D01*
X10608Y7652D01*
X10609Y7655D01*
X10609Y7659D01*
X10609Y7662D01*
X10610Y7665D01*
X10610Y7668D01*
X10611Y7672D01*
X10611Y7675D01*
X10612Y7678D01*
X10613Y7681D01*
X10614Y7685D01*
X10614Y7688D01*
X10615Y7691D01*
X10616Y7694D01*
X10617Y7697D01*
X10619Y7700D01*
X10620Y7704D01*
X10621Y7707D01*
X10622Y7710D01*
X10624Y7713D01*
X10625Y7716D01*
X10627Y7719D01*
X10628Y7722D01*
X10630Y7725D01*
X10631Y7727D01*
X10633Y7730D01*
X10635Y7733D01*
X10637Y7736D01*
X10639Y7739D01*
X10640Y7741D01*
X10642Y7744D01*
X10645Y7747D01*
X10647Y7749D01*
X10649Y7752D01*
X10651Y7754D01*
X10653Y7757D01*
X10655Y7759D01*
X10658Y7761D01*
X10660Y7764D01*
X10663Y7766D01*
X10665Y7768D01*
X10668Y7770D01*
X10670Y7772D01*
X10673Y7775D01*
X10675Y7777D01*
X10678Y7778D01*
X10681Y7780D01*
X10684Y7782D01*
X10686Y7784D01*
X10689Y7786D01*
X10692Y7787D01*
X10695Y7789D01*
X10698Y7791D01*
X10701Y7792D01*
X10704Y7794D01*
X10707Y7795D01*
X10710Y7796D01*
X10713Y7798D01*
X10716Y7799D01*
X10719Y7800D01*
X10722Y7801D01*
X10725Y7802D01*
X10729Y7803D01*
X10732Y7804D01*
X10735Y7805D01*
X10738Y7806D01*
X10741Y7806D01*
X10745Y7807D01*
X10748Y7808D01*
X10751Y7808D01*
X10754Y7809D01*
X10758Y7809D01*
X10761Y7809D01*
X10764Y7810D01*
X10768Y7810D01*
X10771Y7810D01*
X10774Y7810D01*
X10778D01*
X10781Y7810D01*
X10784Y7810D01*
X10788Y7810D01*
X10791Y7809D01*
X10794Y7809D01*
X10798Y7809D01*
X10801Y7808D01*
X10804Y7808D01*
X10807Y7807D01*
X10811Y7806D01*
X10814Y7806D01*
X10817Y7805D01*
X10820Y7804D01*
X10823Y7803D01*
X10827Y7802D01*
X10830Y7801D01*
X10833Y7800D01*
X10836Y7799D01*
X10839Y7798D01*
X10842Y7796D01*
X10845Y7795D01*
X10848Y7794D01*
X10851Y7792D01*
X10854Y7791D01*
X10857Y7789D01*
X10860Y7787D01*
X10863Y7786D01*
X10866Y7784D01*
X10868Y7782D01*
X10871Y7780D01*
X10874Y7778D01*
X10877Y7777D01*
X10879Y7775D01*
X10882Y7772D01*
X10884Y7770D01*
X10887Y7768D01*
X10889Y7766D01*
X10892Y7764D01*
X10894Y7761D01*
X10897Y7759D01*
X10899Y7757D01*
X10901Y7754D01*
X10903Y7752D01*
X10905Y7749D01*
X10907Y7747D01*
X10910Y7744D01*
X10912Y7741D01*
X10913Y7739D01*
X10915Y7736D01*
X10917Y7733D01*
X10919Y7730D01*
X10921Y7727D01*
X10922Y7725D01*
X10924Y7722D01*
X10925Y7719D01*
X10927Y7716D01*
X10928Y7713D01*
X10930Y7710D01*
X10931Y7707D01*
X10932Y7704D01*
X10933Y7700D01*
X10935Y7697D01*
X10936Y7694D01*
X10937Y7691D01*
X10938Y7688D01*
X10938Y7685D01*
X10939Y7681D01*
X10940Y7678D01*
X10941Y7675D01*
X10941Y7672D01*
X10942Y7668D01*
X10942Y7665D01*
X10943Y7662D01*
X10943Y7659D01*
X10943Y7655D01*
X10944Y7652D01*
X10944Y7649D01*
X10944Y7645D01*
X10944Y7642D01*
X7606Y7292D02*
X7604Y7294D01*
X7602Y7296D01*
X7600Y7298D01*
X7597Y7299D01*
X7595Y7301D01*
X7592Y7302D01*
X7589Y7303D01*
X7587Y7304D01*
X7584Y7304D01*
X7669Y8167D02*
X7669Y8164D01*
X7669Y8160D01*
X7669Y8157D01*
X7668Y8154D01*
X7668Y8150D01*
X7667Y8147D01*
X7666Y8144D01*
X7666Y8141D01*
X7665Y8137D01*
X7664Y8134D01*
X7663Y8131D01*
X7662Y8128D01*
X7660Y8125D01*
X7659Y8122D01*
X7658Y8119D01*
X7656Y8116D01*
X7655Y8113D01*
X7653Y8110D01*
X7651Y8107D01*
X7649Y8105D01*
X7647Y8102D01*
X7645Y8099D01*
X7643Y8097D01*
X7641Y8094D01*
X7639Y8092D01*
X7636Y8089D01*
X7634Y8087D01*
X7631Y8085D01*
X7629Y8083D01*
X7626Y8081D01*
X7623Y8079D01*
X7621Y8077D01*
X7618Y8075D01*
X7615Y8073D01*
X7612Y8072D01*
X7609Y8070D01*
X7606Y8069D01*
X7603Y8068D01*
X7600Y8066D01*
X7597Y8065D01*
X7594Y8064D01*
X7591Y8063D01*
X7587Y8062D01*
X7584Y8062D01*
X7581Y8061D01*
X7578Y8060D01*
X7574Y8060D01*
X7571Y8059D01*
X7568Y8059D01*
X7564Y8059D01*
X7561Y8059D01*
X7558Y8059D01*
X7554Y8059D01*
X7551Y8059D01*
X7548Y8060D01*
X7544Y8060D01*
X7541Y8061D01*
X7538Y8062D01*
X7535Y8062D01*
X7531Y8063D01*
X7528Y8064D01*
X7525Y8065D01*
X7522Y8066D01*
X7519Y8068D01*
X7516Y8069D01*
X7513Y8070D01*
X7510Y8072D01*
X7507Y8073D01*
X7504Y8075D01*
X7501Y8077D01*
X7499Y8079D01*
X7496Y8081D01*
X7493Y8083D01*
X7491Y8085D01*
X7488Y8087D01*
X7486Y8089D01*
X7483Y8092D01*
X7481Y8094D01*
X7479Y8097D01*
X7477Y8099D01*
X7475Y8102D01*
X7473Y8105D01*
X7471Y8107D01*
X7469Y8110D01*
X7467Y8113D01*
X7466Y8116D01*
X7464Y8119D01*
X7463Y8122D01*
X7462Y8125D01*
X7460Y8128D01*
X7459Y8131D01*
X7458Y8134D01*
X7457Y8137D01*
X7456Y8141D01*
X7456Y8144D01*
X7455Y8147D01*
X7454Y8150D01*
X7454Y8154D01*
X7453Y8157D01*
X7453Y8160D01*
X7453Y8164D01*
X7453Y8167D01*
X7453Y8170D01*
X7453Y8174D01*
X7453Y8177D01*
X7454Y8180D01*
X7454Y8184D01*
X7455Y8187D01*
X7456Y8190D01*
X7456Y8193D01*
X7457Y8197D01*
X7458Y8200D01*
X7459Y8203D01*
X7460Y8206D01*
X7462Y8209D01*
X7463Y8212D01*
X7464Y8215D01*
X7466Y8218D01*
X7467Y8221D01*
X7469Y8224D01*
X7471Y8227D01*
X7473Y8229D01*
X7475Y8232D01*
X7477Y8235D01*
X7479Y8237D01*
X7481Y8240D01*
X7483Y8242D01*
X7486Y8245D01*
X7488Y8247D01*
X7491Y8249D01*
X7493Y8251D01*
X7496Y8253D01*
X7499Y8255D01*
X7501Y8257D01*
X7504Y8259D01*
X7507Y8261D01*
X7510Y8262D01*
X7513Y8264D01*
X7516Y8265D01*
X7519Y8266D01*
X7522Y8268D01*
X7525Y8269D01*
X7528Y8270D01*
X7531Y8271D01*
X7535Y8272D01*
X7538Y8272D01*
X7541Y8273D01*
X7544Y8274D01*
X7548Y8274D01*
X7551Y8275D01*
X7554Y8275D01*
X7558Y8275D01*
X7561Y8275D01*
X7564Y8275D01*
X7568Y8275D01*
X7571Y8275D01*
X7574Y8274D01*
X7578Y8274D01*
X7581Y8273D01*
X7584Y8272D01*
X7587Y8272D01*
X7591Y8271D01*
X7594Y8270D01*
X7597Y8269D01*
X7600Y8268D01*
X7603Y8266D01*
X7606Y8265D01*
X7609Y8264D01*
X7612Y8262D01*
X7615Y8261D01*
X7618Y8259D01*
X7621Y8257D01*
X7623Y8255D01*
X7626Y8253D01*
X7629Y8251D01*
X7631Y8249D01*
X7634Y8247D01*
X7636Y8245D01*
X7639Y8242D01*
X7641Y8240D01*
X7643Y8237D01*
X7645Y8235D01*
X7647Y8232D01*
X7649Y8229D01*
X7651Y8227D01*
X7653Y8224D01*
X7655Y8221D01*
X7656Y8218D01*
X7658Y8215D01*
X7659Y8212D01*
X7660Y8209D01*
X7662Y8206D01*
X7663Y8203D01*
X7664Y8200D01*
X7665Y8197D01*
X7666Y8193D01*
X7666Y8190D01*
X7667Y8187D01*
X7668Y8184D01*
X7668Y8180D01*
X7669Y8177D01*
X7669Y8174D01*
X7669Y8170D01*
X7669Y8167D01*
X8099D02*
X8099Y8164D01*
X8099Y8160D01*
X8099Y8157D01*
X8098Y8154D01*
X8098Y8150D01*
X8097Y8147D01*
X8096Y8144D01*
X8096Y8141D01*
X8095Y8137D01*
X8094Y8134D01*
X8093Y8131D01*
X8092Y8128D01*
X8090Y8125D01*
X8089Y8122D01*
X8088Y8119D01*
X8086Y8116D01*
X8085Y8113D01*
X8083Y8110D01*
X8081Y8107D01*
X8079Y8105D01*
X8077Y8102D01*
X8075Y8099D01*
X8073Y8097D01*
X8071Y8094D01*
X8069Y8092D01*
X8066Y8089D01*
X8064Y8087D01*
X8061Y8085D01*
X8059Y8083D01*
X8056Y8081D01*
X8053Y8079D01*
X8051Y8077D01*
X8048Y8075D01*
X8045Y8073D01*
X8042Y8072D01*
X8039Y8070D01*
X8036Y8069D01*
X8033Y8068D01*
X8030Y8066D01*
X8027Y8065D01*
X8024Y8064D01*
X8021Y8063D01*
X8017Y8062D01*
X8014Y8062D01*
X8011Y8061D01*
X8008Y8060D01*
X8004Y8060D01*
X8001Y8059D01*
X7998Y8059D01*
X7994Y8059D01*
X7991Y8059D01*
X7988Y8059D01*
X7984Y8059D01*
X7981Y8059D01*
X7978Y8060D01*
X7974Y8060D01*
X7971Y8061D01*
X7968Y8062D01*
X7965Y8062D01*
X7961Y8063D01*
X7958Y8064D01*
X7955Y8065D01*
X7952Y8066D01*
X7949Y8068D01*
X7946Y8069D01*
X7943Y8070D01*
X7940Y8072D01*
X7937Y8073D01*
X7934Y8075D01*
X7931Y8077D01*
X7929Y8079D01*
X7926Y8081D01*
X7923Y8083D01*
X7921Y8085D01*
X7918Y8087D01*
X7916Y8089D01*
X7913Y8092D01*
X7911Y8094D01*
X7909Y8097D01*
X7907Y8099D01*
X7905Y8102D01*
X7903Y8105D01*
X7901Y8107D01*
X7899Y8110D01*
X7897Y8113D01*
X7896Y8116D01*
X7894Y8119D01*
X7893Y8122D01*
X7892Y8125D01*
X7890Y8128D01*
X7889Y8131D01*
X7888Y8134D01*
X7887Y8137D01*
X7886Y8141D01*
X7886Y8144D01*
X7885Y8147D01*
X7884Y8150D01*
X7884Y8154D01*
X7883Y8157D01*
X7883Y8160D01*
X7883Y8164D01*
X7883Y8167D01*
X7883Y8170D01*
X7883Y8174D01*
X7883Y8177D01*
X7884Y8180D01*
X7884Y8184D01*
X7885Y8187D01*
X7886Y8190D01*
X7886Y8193D01*
X7887Y8197D01*
X7888Y8200D01*
X7889Y8203D01*
X7890Y8206D01*
X7892Y8209D01*
X7893Y8212D01*
X7894Y8215D01*
X7896Y8218D01*
X7897Y8221D01*
X7899Y8224D01*
X7901Y8227D01*
X7903Y8229D01*
X7905Y8232D01*
X7907Y8235D01*
X7909Y8237D01*
X7911Y8240D01*
X7913Y8242D01*
X7916Y8245D01*
X7918Y8247D01*
X7921Y8249D01*
X7923Y8251D01*
X7926Y8253D01*
X7929Y8255D01*
X7931Y8257D01*
X7934Y8259D01*
X7937Y8261D01*
X7940Y8262D01*
X7943Y8264D01*
X7946Y8265D01*
X7949Y8266D01*
X7952Y8268D01*
X7955Y8269D01*
X7958Y8270D01*
X7961Y8271D01*
X7965Y8272D01*
X7968Y8272D01*
X7971Y8273D01*
X7974Y8274D01*
X7978Y8274D01*
X7981Y8275D01*
X7984Y8275D01*
X7988Y8275D01*
X7991Y8275D01*
X7994Y8275D01*
X7998Y8275D01*
X8001Y8275D01*
X8004Y8274D01*
X8008Y8274D01*
X8011Y8273D01*
X8014Y8272D01*
X8017Y8272D01*
X8021Y8271D01*
X8024Y8270D01*
X8027Y8269D01*
X8030Y8268D01*
X8033Y8266D01*
X8036Y8265D01*
X8039Y8264D01*
X8042Y8262D01*
X8045Y8261D01*
X8048Y8259D01*
X8051Y8257D01*
X8053Y8255D01*
X8056Y8253D01*
X8059Y8251D01*
X8061Y8249D01*
X8064Y8247D01*
X8066Y8245D01*
X8069Y8242D01*
X8071Y8240D01*
X8073Y8237D01*
X8075Y8235D01*
X8077Y8232D01*
X8079Y8229D01*
X8081Y8227D01*
X8083Y8224D01*
X8085Y8221D01*
X8086Y8218D01*
X8088Y8215D01*
X8089Y8212D01*
X8090Y8209D01*
X8092Y8206D01*
X8093Y8203D01*
X8094Y8200D01*
X8095Y8197D01*
X8096Y8193D01*
X8096Y8190D01*
X8097Y8187D01*
X8098Y8184D01*
X8098Y8180D01*
X8099Y8177D01*
X8099Y8174D01*
X8099Y8170D01*
X8099Y8167D01*
X7944Y8832D02*
X7944Y8829D01*
X7944Y8825D01*
X7944Y8822D01*
X7943Y8819D01*
X7943Y8815D01*
X7943Y8812D01*
X7942Y8809D01*
X7942Y8806D01*
X7941Y8802D01*
X7941Y8799D01*
X7940Y8796D01*
X7939Y8793D01*
X7938Y8789D01*
X7938Y8786D01*
X7937Y8783D01*
X7936Y8780D01*
X7935Y8777D01*
X7933Y8774D01*
X7932Y8770D01*
X7931Y8767D01*
X7930Y8764D01*
X7928Y8761D01*
X7927Y8758D01*
X7925Y8755D01*
X7924Y8752D01*
X7922Y8749D01*
X7921Y8747D01*
X7919Y8744D01*
X7917Y8741D01*
X7915Y8738D01*
X7913Y8735D01*
X7912Y8733D01*
X7910Y8730D01*
X7907Y8727D01*
X7905Y8725D01*
X7903Y8722D01*
X7901Y8720D01*
X7899Y8717D01*
X7897Y8715D01*
X7894Y8713D01*
X7892Y8710D01*
X7889Y8708D01*
X7887Y8706D01*
X7884Y8704D01*
X7882Y8702D01*
X7879Y8699D01*
X7877Y8697D01*
X7874Y8696D01*
X7871Y8694D01*
X7868Y8692D01*
X7866Y8690D01*
X7863Y8688D01*
X7860Y8687D01*
X7857Y8685D01*
X7854Y8683D01*
X7851Y8682D01*
X7848Y8680D01*
X7845Y8679D01*
X7842Y8678D01*
X7839Y8676D01*
X7836Y8675D01*
X7833Y8674D01*
X7830Y8673D01*
X7827Y8672D01*
X7823Y8671D01*
X7820Y8670D01*
X7817Y8669D01*
X7814Y8668D01*
X7811Y8668D01*
X7807Y8667D01*
X7804Y8666D01*
X7801Y8666D01*
X7798Y8665D01*
X7794Y8665D01*
X7791Y8665D01*
X7788Y8664D01*
X7784Y8664D01*
X7781Y8664D01*
X7778Y8664D01*
X7774D01*
X7771Y8664D01*
X7768Y8664D01*
X7764Y8664D01*
X7761Y8665D01*
X7758Y8665D01*
X7754Y8665D01*
X7751Y8666D01*
X7748Y8666D01*
X7745Y8667D01*
X7741Y8668D01*
X7738Y8668D01*
X7735Y8669D01*
X7732Y8670D01*
X7729Y8671D01*
X7725Y8672D01*
X7722Y8673D01*
X7719Y8674D01*
X7716Y8675D01*
X7713Y8676D01*
X7710Y8678D01*
X7707Y8679D01*
X7704Y8680D01*
X7701Y8682D01*
X7698Y8683D01*
X7695Y8685D01*
X7692Y8687D01*
X7689Y8688D01*
X7686Y8690D01*
X7684Y8692D01*
X7681Y8694D01*
X7678Y8696D01*
X7675Y8697D01*
X7673Y8699D01*
X7670Y8702D01*
X7668Y8704D01*
X7665Y8706D01*
X7663Y8708D01*
X7660Y8710D01*
X7658Y8713D01*
X7655Y8715D01*
X7653Y8717D01*
X7651Y8720D01*
X7649Y8722D01*
X7647Y8725D01*
X7645Y8727D01*
X7642Y8730D01*
X7640Y8733D01*
X7639Y8735D01*
X7637Y8738D01*
X7635Y8741D01*
X7633Y8744D01*
X7631Y8747D01*
X7630Y8749D01*
X7628Y8752D01*
X7627Y8755D01*
X7625Y8758D01*
X7624Y8761D01*
X7622Y8764D01*
X7621Y8767D01*
X7620Y8770D01*
X7619Y8774D01*
X7617Y8777D01*
X7616Y8780D01*
X7615Y8783D01*
X7614Y8786D01*
X7614Y8789D01*
X7613Y8793D01*
X7612Y8796D01*
X7611Y8799D01*
X7611Y8802D01*
X7610Y8806D01*
X7610Y8809D01*
X7609Y8812D01*
X7609Y8815D01*
X7609Y8819D01*
X7608Y8822D01*
X7608Y8825D01*
X7608Y8829D01*
X7608Y8832D01*
X7608Y8835D01*
X7608Y8839D01*
X7608Y8842D01*
X7609Y8845D01*
X7609Y8849D01*
X7609Y8852D01*
X7610Y8855D01*
X7610Y8858D01*
X7611Y8862D01*
X7611Y8865D01*
X7612Y8868D01*
X7613Y8871D01*
X7614Y8875D01*
X7614Y8878D01*
X7615Y8881D01*
X7616Y8884D01*
X7617Y8887D01*
X7619Y8890D01*
X7620Y8894D01*
X7621Y8897D01*
X7622Y8900D01*
X7624Y8903D01*
X7625Y8906D01*
X7627Y8909D01*
X7628Y8912D01*
X7630Y8915D01*
X7631Y8917D01*
X7633Y8920D01*
X7635Y8923D01*
X7637Y8926D01*
X7639Y8929D01*
X7640Y8931D01*
X7642Y8934D01*
X7645Y8937D01*
X7647Y8939D01*
X7649Y8942D01*
X7651Y8944D01*
X7653Y8947D01*
X7655Y8949D01*
X7658Y8951D01*
X7660Y8954D01*
X7663Y8956D01*
X7665Y8958D01*
X7668Y8960D01*
X7670Y8962D01*
X7673Y8965D01*
X7675Y8967D01*
X7678Y8968D01*
X7681Y8970D01*
X7684Y8972D01*
X7686Y8974D01*
X7689Y8976D01*
X7692Y8977D01*
X7695Y8979D01*
X7698Y8981D01*
X7701Y8982D01*
X7704Y8984D01*
X7707Y8985D01*
X7710Y8986D01*
X7713Y8988D01*
X7716Y8989D01*
X7719Y8990D01*
X7722Y8991D01*
X7725Y8992D01*
X7729Y8993D01*
X7732Y8994D01*
X7735Y8995D01*
X7738Y8996D01*
X7741Y8996D01*
X7745Y8997D01*
X7748Y8998D01*
X7751Y8998D01*
X7754Y8999D01*
X7758Y8999D01*
X7761Y8999D01*
X7764Y9000D01*
X7768Y9000D01*
X7771Y9000D01*
X7774Y9000D01*
X7778D01*
X7781Y9000D01*
X7784Y9000D01*
X7788Y9000D01*
X7791Y8999D01*
X7794Y8999D01*
X7798Y8999D01*
X7801Y8998D01*
X7804Y8998D01*
X7807Y8997D01*
X7811Y8996D01*
X7814Y8996D01*
X7817Y8995D01*
X7820Y8994D01*
X7823Y8993D01*
X7827Y8992D01*
X7830Y8991D01*
X7833Y8990D01*
X7836Y8989D01*
X7839Y8988D01*
X7842Y8986D01*
X7845Y8985D01*
X7848Y8984D01*
X7851Y8982D01*
X7854Y8981D01*
X7857Y8979D01*
X7860Y8977D01*
X7863Y8976D01*
X7866Y8974D01*
X7868Y8972D01*
X7871Y8970D01*
X7874Y8968D01*
X7877Y8967D01*
X7879Y8965D01*
X7882Y8962D01*
X7884Y8960D01*
X7887Y8958D01*
X7889Y8956D01*
X7892Y8954D01*
X7894Y8951D01*
X7897Y8949D01*
X7899Y8947D01*
X7901Y8944D01*
X7903Y8942D01*
X7905Y8939D01*
X7907Y8937D01*
X7910Y8934D01*
X7912Y8931D01*
X7913Y8929D01*
X7915Y8926D01*
X7917Y8923D01*
X7919Y8920D01*
X7921Y8917D01*
X7922Y8915D01*
X7924Y8912D01*
X7925Y8909D01*
X7927Y8906D01*
X7928Y8903D01*
X7930Y8900D01*
X7931Y8897D01*
X7932Y8894D01*
X7933Y8890D01*
X7935Y8887D01*
X7936Y8884D01*
X7937Y8881D01*
X7938Y8878D01*
X7938Y8875D01*
X7939Y8871D01*
X7940Y8868D01*
X7941Y8865D01*
X7941Y8862D01*
X7942Y8858D01*
X7942Y8855D01*
X7943Y8852D01*
X7943Y8849D01*
X7943Y8845D01*
X7944Y8842D01*
X7944Y8839D01*
X7944Y8835D01*
X7944Y8832D01*
Y7642D02*
X7944Y7639D01*
X7944Y7635D01*
X7944Y7632D01*
X7943Y7629D01*
X7943Y7625D01*
X7943Y7622D01*
X7942Y7619D01*
X7942Y7616D01*
X7941Y7612D01*
X7941Y7609D01*
X7940Y7606D01*
X7939Y7603D01*
X7938Y7599D01*
X7938Y7596D01*
X7937Y7593D01*
X7936Y7590D01*
X7935Y7587D01*
X7933Y7584D01*
X7932Y7580D01*
X7931Y7577D01*
X7930Y7574D01*
X7928Y7571D01*
X7927Y7568D01*
X7925Y7565D01*
X7924Y7562D01*
X7922Y7559D01*
X7921Y7557D01*
X7919Y7554D01*
X7917Y7551D01*
X7915Y7548D01*
X7913Y7545D01*
X7912Y7543D01*
X7910Y7540D01*
X7907Y7537D01*
X7905Y7535D01*
X7903Y7532D01*
X7901Y7530D01*
X7899Y7527D01*
X7897Y7525D01*
X7894Y7523D01*
X7892Y7520D01*
X7889Y7518D01*
X7887Y7516D01*
X7884Y7514D01*
X7882Y7512D01*
X7879Y7509D01*
X7877Y7507D01*
X7874Y7506D01*
X7871Y7504D01*
X7868Y7502D01*
X7866Y7500D01*
X7863Y7498D01*
X7860Y7497D01*
X7857Y7495D01*
X7854Y7493D01*
X7851Y7492D01*
X7848Y7490D01*
X7845Y7489D01*
X7842Y7488D01*
X7839Y7486D01*
X7836Y7485D01*
X7833Y7484D01*
X7830Y7483D01*
X7827Y7482D01*
X7823Y7481D01*
X7820Y7480D01*
X7817Y7479D01*
X7814Y7478D01*
X7811Y7478D01*
X7807Y7477D01*
X7804Y7476D01*
X7801Y7476D01*
X7798Y7475D01*
X7794Y7475D01*
X7791Y7475D01*
X7788Y7474D01*
X7784Y7474D01*
X7781Y7474D01*
X7778Y7474D01*
X7774D01*
X7771Y7474D01*
X7768Y7474D01*
X7764Y7474D01*
X7761Y7475D01*
X7758Y7475D01*
X7754Y7475D01*
X7751Y7476D01*
X7748Y7476D01*
X7745Y7477D01*
X7741Y7478D01*
X7738Y7478D01*
X7735Y7479D01*
X7732Y7480D01*
X7729Y7481D01*
X7725Y7482D01*
X7722Y7483D01*
X7719Y7484D01*
X7716Y7485D01*
X7713Y7486D01*
X7710Y7488D01*
X7707Y7489D01*
X7704Y7490D01*
X7701Y7492D01*
X7698Y7493D01*
X7695Y7495D01*
X7692Y7497D01*
X7689Y7498D01*
X7686Y7500D01*
X7684Y7502D01*
X7681Y7504D01*
X7678Y7506D01*
X7675Y7507D01*
X7673Y7509D01*
X7670Y7512D01*
X7668Y7514D01*
X7665Y7516D01*
X7663Y7518D01*
X7660Y7520D01*
X7658Y7523D01*
X7655Y7525D01*
X7653Y7527D01*
X7651Y7530D01*
X7649Y7532D01*
X7647Y7535D01*
X7645Y7537D01*
X7642Y7540D01*
X7640Y7543D01*
X7639Y7545D01*
X7637Y7548D01*
X7635Y7551D01*
X7633Y7554D01*
X7631Y7557D01*
X7630Y7559D01*
X7628Y7562D01*
X7627Y7565D01*
X7625Y7568D01*
X7624Y7571D01*
X7622Y7574D01*
X7621Y7577D01*
X7620Y7580D01*
X7619Y7584D01*
X7617Y7587D01*
X7616Y7590D01*
X7615Y7593D01*
X7614Y7596D01*
X7614Y7599D01*
X7613Y7603D01*
X7612Y7606D01*
X7611Y7609D01*
X7611Y7612D01*
X7610Y7616D01*
X7610Y7619D01*
X7609Y7622D01*
X7609Y7625D01*
X7609Y7629D01*
X7608Y7632D01*
X7608Y7635D01*
X7608Y7639D01*
X7608Y7642D01*
X7608Y7645D01*
X7608Y7649D01*
X7608Y7652D01*
X7609Y7655D01*
X7609Y7659D01*
X7609Y7662D01*
X7610Y7665D01*
X7610Y7668D01*
X7611Y7672D01*
X7611Y7675D01*
X7612Y7678D01*
X7613Y7681D01*
X7614Y7685D01*
X7614Y7688D01*
X7615Y7691D01*
X7616Y7694D01*
X7617Y7697D01*
X7619Y7700D01*
X7620Y7704D01*
X7621Y7707D01*
X7622Y7710D01*
X7624Y7713D01*
X7625Y7716D01*
X7627Y7719D01*
X7628Y7722D01*
X7630Y7725D01*
X7631Y7727D01*
X7633Y7730D01*
X7635Y7733D01*
X7637Y7736D01*
X7639Y7739D01*
X7640Y7741D01*
X7642Y7744D01*
X7645Y7747D01*
X7647Y7749D01*
X7649Y7752D01*
X7651Y7754D01*
X7653Y7757D01*
X7655Y7759D01*
X7658Y7761D01*
X7660Y7764D01*
X7663Y7766D01*
X7665Y7768D01*
X7668Y7770D01*
X7670Y7772D01*
X7673Y7775D01*
X7675Y7777D01*
X7678Y7778D01*
X7681Y7780D01*
X7684Y7782D01*
X7686Y7784D01*
X7689Y7786D01*
X7692Y7787D01*
X7695Y7789D01*
X7698Y7791D01*
X7701Y7792D01*
X7704Y7794D01*
X7707Y7795D01*
X7710Y7796D01*
X7713Y7798D01*
X7716Y7799D01*
X7719Y7800D01*
X7722Y7801D01*
X7725Y7802D01*
X7729Y7803D01*
X7732Y7804D01*
X7735Y7805D01*
X7738Y7806D01*
X7741Y7806D01*
X7745Y7807D01*
X7748Y7808D01*
X7751Y7808D01*
X7754Y7809D01*
X7758Y7809D01*
X7761Y7809D01*
X7764Y7810D01*
X7768Y7810D01*
X7771Y7810D01*
X7774Y7810D01*
X7778D01*
X7781Y7810D01*
X7784Y7810D01*
X7788Y7810D01*
X7791Y7809D01*
X7794Y7809D01*
X7798Y7809D01*
X7801Y7808D01*
X7804Y7808D01*
X7807Y7807D01*
X7811Y7806D01*
X7814Y7806D01*
X7817Y7805D01*
X7820Y7804D01*
X7823Y7803D01*
X7827Y7802D01*
X7830Y7801D01*
X7833Y7800D01*
X7836Y7799D01*
X7839Y7798D01*
X7842Y7796D01*
X7845Y7795D01*
X7848Y7794D01*
X7851Y7792D01*
X7854Y7791D01*
X7857Y7789D01*
X7860Y7787D01*
X7863Y7786D01*
X7866Y7784D01*
X7868Y7782D01*
X7871Y7780D01*
X7874Y7778D01*
X7877Y7777D01*
X7879Y7775D01*
X7882Y7772D01*
X7884Y7770D01*
X7887Y7768D01*
X7889Y7766D01*
X7892Y7764D01*
X7894Y7761D01*
X7897Y7759D01*
X7899Y7757D01*
X7901Y7754D01*
X7903Y7752D01*
X7905Y7749D01*
X7907Y7747D01*
X7910Y7744D01*
X7912Y7741D01*
X7913Y7739D01*
X7915Y7736D01*
X7917Y7733D01*
X7919Y7730D01*
X7921Y7727D01*
X7922Y7725D01*
X7924Y7722D01*
X7925Y7719D01*
X7927Y7716D01*
X7928Y7713D01*
X7930Y7710D01*
X7931Y7707D01*
X7932Y7704D01*
X7933Y7700D01*
X7935Y7697D01*
X7936Y7694D01*
X7937Y7691D01*
X7938Y7688D01*
X7938Y7685D01*
X7939Y7681D01*
X7940Y7678D01*
X7941Y7675D01*
X7941Y7672D01*
X7942Y7668D01*
X7942Y7665D01*
X7943Y7662D01*
X7943Y7659D01*
X7943Y7655D01*
X7944Y7652D01*
X7944Y7649D01*
X7944Y7645D01*
X7944Y7642D01*
D21*
X10476Y7337D02*
X10596Y7462D01*
X10751Y7612D02*
X10776Y7642D01*
X9526Y8562D02*
X9510Y8587D01*
X14651Y8162D02*
X14726Y8087D01*
X7451Y7262D02*
X7251Y7462D01*
X5976Y7012D02*
X5801Y7187D01*
X5451D02*
X5426Y7212D01*
X5376Y7262D01*
X5976Y6612D02*
X6101Y6487D01*
X14426Y8787D02*
X14651Y8562D01*
X12651Y7262D02*
X12576Y7337D01*
X13301Y7387D02*
X13376Y7312D01*
Y7087D02*
X13426Y7037D01*
X14126Y8112D02*
X14026Y8212D01*
X9976Y7537D02*
X9876Y7637D01*
X8626Y8187D02*
X8551Y8262D01*
X7576Y7262D02*
X7601Y7237D01*
X14026Y8987D02*
X14051Y9012D01*
X14726Y6512D02*
X14701Y6487D01*
X8151Y7337D02*
X8076Y7262D01*
X6651Y7462D02*
X6451Y7262D01*
X6426Y7362D02*
X6726Y7662D01*
X5476Y7362D02*
X5376Y7262D01*
X12576Y6937D02*
X12651Y7012D01*
X13301Y7562D02*
X13526Y7787D01*
X13451Y8362D02*
X13501Y8412D01*
X13451Y8162D02*
X13376Y8087D01*
X10776Y7642D02*
X10596Y7462D01*
X11076Y7637D02*
X11301Y7862D01*
Y8462D02*
X11476Y8637D01*
X10626Y7612D02*
X10551Y7537D01*
X5201Y8412D02*
X5026Y8237D01*
X8051Y7237D02*
X8076Y7262D01*
X6101Y6487D02*
X14701D01*
X5026Y8137D02*
Y8237D01*
X12426Y6937D02*
X12576D01*
X5198Y8462D02*
Y8587D01*
X5201Y8462D02*
Y8412D01*
X5451Y7187D02*
X5801D01*
X5376Y7262D02*
Y7265D01*
X8151Y7337D02*
X10476D01*
X6451Y7262D02*
X5426D01*
X5476Y7362D02*
X6426D01*
X5426Y7262D02*
X5376D01*
X7451D02*
X7576D01*
X7601Y7237D02*
X8051D01*
X7251Y7462D02*
X6651D01*
X9976Y7537D02*
X10551D01*
X10776Y7637D02*
X11076D01*
X10751Y7612D02*
X10626D01*
X5976Y7012D02*
Y6612D01*
X8626Y8187D02*
X8726D01*
X5201Y8462D02*
X5198D01*
X6726Y8087D02*
Y7662D01*
X11476Y8637D02*
X11576D01*
X5201Y8587D02*
X5198D01*
X7776Y8837D02*
Y7637D01*
X8551Y8262D02*
Y8487D01*
X10776Y8832D02*
Y7637D01*
Y7642D01*
X11301Y7862D02*
Y8462D01*
X11576Y8537D02*
Y8287D01*
X12576Y7437D02*
Y7337D01*
X12651Y7262D02*
Y7012D01*
X13301Y7387D02*
Y7562D01*
X13526Y7787D02*
Y7987D01*
X13376Y7312D02*
Y7087D01*
X13426Y7037D02*
Y6937D01*
X13501Y8412D02*
Y8587D01*
X13451Y8362D02*
Y8162D01*
X13376Y8087D02*
Y7987D01*
X14026Y8837D02*
Y8987D01*
Y8287D02*
Y8212D01*
X14126Y8112D02*
Y7987D01*
Y8287D02*
Y8437D01*
X14426Y8787D02*
Y8837D01*
X14726Y8087D02*
Y6512D01*
X14651Y8162D02*
Y8287D01*
Y8562D01*
D23*
X14051Y9012D02*
D03*
X14101Y8962D02*
D03*
X14151Y9012D02*
D03*
D27*
X14526Y8512D02*
D03*
X13401Y7387D02*
D03*
X13226Y7837D02*
D03*
X13076Y8137D02*
D03*
X12976Y7537D02*
D03*
X12776Y8137D02*
D03*
X12176D02*
D03*
X12126Y7512D02*
D03*
X11876Y7312D02*
D03*
X14426Y8837D02*
D03*
Y8437D02*
D03*
X14326Y8837D02*
D03*
Y8437D02*
D03*
X13926Y8837D02*
D03*
Y8437D02*
D03*
X13826Y8837D02*
D03*
Y8437D02*
D03*
X13726Y8837D02*
D03*
Y8437D02*
D03*
X14126Y7987D02*
D03*
Y8287D02*
D03*
X14651D02*
D03*
Y7987D02*
D03*
X14326D02*
D03*
X14226Y8287D02*
D03*
X14326D02*
D03*
X14426D02*
D03*
X14526D02*
D03*
Y7987D02*
D03*
X14426D02*
D03*
X14026Y8287D02*
D03*
Y7987D02*
D03*
X13726D02*
D03*
X13626Y8287D02*
D03*
X13726D02*
D03*
X13826D02*
D03*
X13926D02*
D03*
Y7987D02*
D03*
X13826D02*
D03*
X13526D02*
D03*
Y8287D02*
D03*
X13376D02*
D03*
Y7987D02*
D03*
X14326Y7437D02*
D03*
Y7837D02*
D03*
X14226Y7437D02*
D03*
Y7837D02*
D03*
Y8437D02*
D03*
Y8837D02*
D03*
X14126Y8437D02*
D03*
Y8837D02*
D03*
X14026Y8437D02*
D03*
Y8837D02*
D03*
X14276Y6637D02*
D03*
X14376D02*
D03*
X14176D02*
D03*
X11976Y8987D02*
D03*
Y8587D02*
D03*
X12726Y7137D02*
D03*
Y6737D02*
D03*
X11776Y7987D02*
D03*
X11676Y8287D02*
D03*
X11776D02*
D03*
X11876D02*
D03*
X11976D02*
D03*
Y7987D02*
D03*
X11876D02*
D03*
X12076Y8287D02*
D03*
Y7987D02*
D03*
X12376D02*
D03*
X12176Y8287D02*
D03*
X12276D02*
D03*
X12376D02*
D03*
X12476D02*
D03*
X12576D02*
D03*
X12676D02*
D03*
X12776D02*
D03*
Y7987D02*
D03*
X12676D02*
D03*
X12576D02*
D03*
X12476D02*
D03*
X12276D02*
D03*
X12876D02*
D03*
Y8287D02*
D03*
X13076Y7987D02*
D03*
X12976Y8287D02*
D03*
X13076D02*
D03*
X13176D02*
D03*
X13276D02*
D03*
Y7987D02*
D03*
X13176D02*
D03*
X12376Y8487D02*
D03*
Y8887D02*
D03*
X12176Y8987D02*
D03*
Y8487D02*
D03*
X11676Y7437D02*
D03*
Y7837D02*
D03*
X11776Y7437D02*
D03*
Y7837D02*
D03*
X12176D02*
D03*
Y7437D02*
D03*
X12476D02*
D03*
Y7837D02*
D03*
X12576D02*
D03*
Y7437D02*
D03*
X12676D02*
D03*
Y7837D02*
D03*
X12776D02*
D03*
Y7737D02*
D03*
X11576Y7987D02*
D03*
Y8287D02*
D03*
Y8637D02*
D03*
Y8537D02*
D03*
X8551Y8487D02*
D03*
Y8587D02*
D03*
X5201Y8462D02*
D03*
X5501D02*
D03*
X5026Y8137D02*
D03*
Y8437D02*
D03*
D32*
X10026Y8037D02*
D03*
Y7637D02*
D03*
X8726Y8187D02*
D03*
Y8587D02*
D03*
Y7687D02*
D03*
Y8087D02*
D03*
X9876Y7637D02*
D03*
Y8037D02*
D03*
X6576Y8287D02*
D03*
Y8687D02*
D03*
X6426Y8287D02*
D03*
Y8687D02*
D03*
X5876D02*
D03*
Y8287D02*
D03*
X6026Y8687D02*
D03*
Y8287D02*
D03*
D34*
X10666Y8832D02*
X10667D01*
X10666D02*
X10667Y8816D01*
X10671Y8800D01*
X10677Y8784D01*
X10685Y8770D01*
X10695Y8757D01*
X10707Y8746D01*
X10721Y8737D01*
X10736Y8730D01*
X10752Y8725D01*
X10768Y8722D01*
X10784D01*
X10800Y8725D01*
X10816Y8730D01*
X10831Y8737D01*
X10845Y8746D01*
X10857Y8757D01*
X10867Y8770D01*
X10875Y8784D01*
X10881Y8800D01*
X10885Y8816D01*
X10886Y8832D01*
X10887D01*
X10886D02*
X10885Y8848D01*
X10881Y8864D01*
X10875Y8880D01*
X10867Y8894D01*
X10857Y8907D01*
X10845Y8918D01*
X10831Y8927D01*
X10816Y8934D01*
X10800Y8939D01*
X10784Y8942D01*
X10768D01*
X10752Y8939D01*
X10736Y8934D01*
X10721Y8927D01*
X10707Y8918D01*
X10695Y8907D01*
X10685Y8894D01*
X10677Y8880D01*
X10671Y8864D01*
X10667Y8848D01*
X10666Y8832D01*
X10744D02*
X10745D01*
X10744D02*
X10746Y8821D01*
X10751Y8811D01*
X10760Y8804D01*
X10770Y8800D01*
X10782D01*
X10792Y8804D01*
X10801Y8811D01*
X10806Y8821D01*
X10808Y8832D01*
X10809D01*
X10808D02*
X10806Y8843D01*
X10801Y8853D01*
X10792Y8860D01*
X10782Y8864D01*
X10770D01*
X10760Y8860D01*
X10751Y8853D01*
X10746Y8843D01*
X10744Y8832D01*
X10666Y7642D02*
X10667D01*
X10666D02*
X10667Y7626D01*
X10671Y7610D01*
X10677Y7594D01*
X10685Y7580D01*
X10695Y7567D01*
X10707Y7556D01*
X10721Y7547D01*
X10736Y7540D01*
X10752Y7535D01*
X10768Y7532D01*
X10784D01*
X10800Y7535D01*
X10816Y7540D01*
X10831Y7547D01*
X10845Y7556D01*
X10857Y7567D01*
X10867Y7580D01*
X10875Y7594D01*
X10881Y7610D01*
X10885Y7626D01*
X10886Y7642D01*
X10887D01*
X10886D02*
X10885Y7658D01*
X10881Y7674D01*
X10875Y7690D01*
X10867Y7704D01*
X10857Y7717D01*
X10845Y7728D01*
X10831Y7737D01*
X10816Y7744D01*
X10800Y7749D01*
X10784Y7752D01*
X10768D01*
X10752Y7749D01*
X10736Y7744D01*
X10721Y7737D01*
X10707Y7728D01*
X10695Y7717D01*
X10685Y7704D01*
X10677Y7690D01*
X10671Y7674D01*
X10667Y7658D01*
X10666Y7642D01*
X10744D02*
X10745D01*
X10744D02*
X10746Y7631D01*
X10751Y7621D01*
X10760Y7614D01*
X10770Y7610D01*
X10782D01*
X10792Y7614D01*
X10801Y7621D01*
X10806Y7631D01*
X10808Y7642D01*
X10809D01*
X10808D02*
X10806Y7653D01*
X10801Y7663D01*
X10792Y7670D01*
X10782Y7674D01*
X10770D01*
X10760Y7670D01*
X10751Y7663D01*
X10746Y7653D01*
X10744Y7642D01*
X7666Y8832D02*
X7667D01*
X7666D02*
X7667Y8816D01*
X7671Y8800D01*
X7677Y8784D01*
X7685Y8770D01*
X7695Y8757D01*
X7707Y8746D01*
X7721Y8737D01*
X7736Y8730D01*
X7752Y8725D01*
X7768Y8722D01*
X7784D01*
X7800Y8725D01*
X7816Y8730D01*
X7831Y8737D01*
X7845Y8746D01*
X7857Y8757D01*
X7867Y8770D01*
X7875Y8784D01*
X7881Y8800D01*
X7885Y8816D01*
X7886Y8832D01*
X7887D01*
X7886D02*
X7885Y8848D01*
X7881Y8864D01*
X7875Y8880D01*
X7867Y8894D01*
X7857Y8907D01*
X7845Y8918D01*
X7831Y8927D01*
X7816Y8934D01*
X7800Y8939D01*
X7784Y8942D01*
X7768D01*
X7752Y8939D01*
X7736Y8934D01*
X7721Y8927D01*
X7707Y8918D01*
X7695Y8907D01*
X7685Y8894D01*
X7677Y8880D01*
X7671Y8864D01*
X7667Y8848D01*
X7666Y8832D01*
X7744D02*
X7745D01*
X7744D02*
X7746Y8821D01*
X7751Y8811D01*
X7760Y8804D01*
X7770Y8800D01*
X7782D01*
X7792Y8804D01*
X7801Y8811D01*
X7806Y8821D01*
X7808Y8832D01*
X7809D01*
X7808D02*
X7806Y8843D01*
X7801Y8853D01*
X7792Y8860D01*
X7782Y8864D01*
X7770D01*
X7760Y8860D01*
X7751Y8853D01*
X7746Y8843D01*
X7744Y8832D01*
X7666Y7642D02*
X7667D01*
X7666D02*
X7667Y7626D01*
X7671Y7610D01*
X7677Y7594D01*
X7685Y7580D01*
X7695Y7567D01*
X7707Y7556D01*
X7721Y7547D01*
X7736Y7540D01*
X7752Y7535D01*
X7768Y7532D01*
X7784D01*
X7800Y7535D01*
X7816Y7540D01*
X7831Y7547D01*
X7845Y7556D01*
X7857Y7567D01*
X7867Y7580D01*
X7875Y7594D01*
X7881Y7610D01*
X7885Y7626D01*
X7886Y7642D01*
X7887D01*
X7886D02*
X7885Y7658D01*
X7881Y7674D01*
X7875Y7690D01*
X7867Y7704D01*
X7857Y7717D01*
X7845Y7728D01*
X7831Y7737D01*
X7816Y7744D01*
X7800Y7749D01*
X7784Y7752D01*
X7768D01*
X7752Y7749D01*
X7736Y7744D01*
X7721Y7737D01*
X7707Y7728D01*
X7695Y7717D01*
X7685Y7704D01*
X7677Y7690D01*
X7671Y7674D01*
X7667Y7658D01*
X7666Y7642D01*
X7744D02*
X7745D01*
X7744D02*
X7746Y7631D01*
X7751Y7621D01*
X7760Y7614D01*
X7770Y7610D01*
X7782D01*
X7792Y7614D01*
X7801Y7621D01*
X7806Y7631D01*
X7808Y7642D01*
X7809D01*
X7808D02*
X7806Y7653D01*
X7801Y7663D01*
X7792Y7670D01*
X7782Y7674D01*
X7770D01*
X7760Y7670D01*
X7751Y7663D01*
X7746Y7653D01*
X7744Y7642D01*
D38*
X5301Y7634D02*
X5201Y7537D01*
X6851Y8362D02*
X7576Y7637D01*
X6076Y8562D02*
X6026Y8612D01*
X5301Y8487D02*
X5201Y8587D01*
Y7337D02*
X5273Y7265D01*
X9376Y8087D02*
X9526Y8237D01*
X8201Y7687D02*
X8151Y7637D01*
X6651Y8362D02*
X6576Y8287D01*
X6526Y8562D02*
X6576Y8612D01*
X5301Y8487D02*
Y7634D01*
X5201Y7537D02*
Y7337D01*
X5273Y7265D02*
X5376D01*
X8201Y7687D02*
X8726D01*
X8151Y7637D02*
X7776D01*
X7576D01*
X6026Y8612D02*
Y8687D01*
X8726Y8087D02*
X9376D01*
X6851Y8362D02*
X6651D01*
X6576Y8612D02*
Y8687D01*
X6526Y8562D02*
X6076D01*
X5354Y8587D02*
X5201D01*
X7776Y7642D02*
Y7637D01*
X9526Y8237D02*
Y8562D01*
D40*
X13276Y7237D02*
D03*
X13126Y6737D02*
D03*
X13426D02*
D03*
X12276Y7237D02*
D03*
X12126Y6737D02*
D03*
X12426D02*
D03*
X10276Y7237D02*
D03*
X10126Y6737D02*
D03*
X10426D02*
D03*
X11276Y7237D02*
D03*
X11126Y6737D02*
D03*
X11426D02*
D03*
X9276Y7237D02*
D03*
X9126Y6737D02*
D03*
X9426D02*
D03*
X8276Y7237D02*
D03*
X8126Y6737D02*
D03*
X8426D02*
D03*
X7276Y7237D02*
D03*
X7126Y6737D02*
D03*
X7426D02*
D03*
D41*
X13198Y8587D02*
D03*
X13510D02*
D03*
X13042D02*
D03*
X13354D02*
D03*
X9198D02*
D03*
X9510D02*
D03*
X9042D02*
D03*
X9354D02*
D03*
X5376Y7109D02*
D03*
Y7421D02*
D03*
Y6953D02*
D03*
Y7265D02*
D03*
X5198Y8587D02*
D03*
X5510D02*
D03*
X5042D02*
D03*
X5354D02*
D03*
D45*
X13276Y6637D02*
D03*
X13526Y7137D02*
D03*
X13426Y6937D02*
D03*
X12276Y6637D02*
D03*
X12526Y7137D02*
D03*
X12426Y6937D02*
D03*
X10276Y6637D02*
D03*
X10526Y7137D02*
D03*
X10426Y6937D02*
D03*
X11276Y6637D02*
D03*
X11526Y7137D02*
D03*
X11426Y6937D02*
D03*
X9276Y6637D02*
D03*
X9526Y7137D02*
D03*
X9426Y6937D02*
D03*
X8276Y6637D02*
D03*
X8526Y7137D02*
D03*
X8426Y6937D02*
D03*
X7276Y6637D02*
D03*
X7526Y7137D02*
D03*
X7426Y6937D02*
D03*
X5676Y8087D02*
D03*
X5976D02*
D03*
X6426D02*
D03*
X6726D02*
D03*
D48*
X10561Y8167D02*
D03*
X10991D02*
D03*
X7561D02*
D03*
X7991D02*
D03*
D51*
X14226Y7987D02*
D03*
X13626D02*
D03*
X11676D02*
D03*
X12176D02*
D03*
X12976D02*
D03*
M02*
