M48
;DRILL file {KiCad (5.0.0)} date 10/08/18 11:46:29
;FORMAT={-:-/ absolute / metric / decimal}
FMAT,2
METRIC,TZ
T1C0.711
T2C0.914
T3C1.524
T4C2.413
%
G90
G05
M71
T1
X158.79Y-91.44
X160.04Y-91.44
X161.29Y-91.44
X162.54Y-91.44
X163.79Y-91.44
T2
X139.065Y-88.265
X143.51Y-101.6
X144.78Y-115.57
X154.933Y-101.603
X157.313Y-100.497
X155.575Y-83.82
X155.575Y-93.98
X157.48Y-109.22
X157.48Y-119.38
X166.37Y-83.82
X166.37Y-93.98
X140.97Y-83.82
X140.97Y-93.98
X167.64Y-109.22
X167.64Y-119.38
X140.97Y-97.79
X140.97Y-105.41
X143.51Y-97.79
X143.51Y-105.41
X146.05Y-97.79
X146.05Y-105.41
X148.59Y-97.79
X148.59Y-105.41
X160.02Y-109.22
X160.02Y-119.38
X165.1Y-109.22
X165.1Y-119.38
X162.56Y-109.22
X162.56Y-119.38
X173.355Y-114.3
X175.895Y-116.84
X178.435Y-114.3
X143.51Y-83.82
X143.51Y-93.98
X168.91Y-83.82
X168.91Y-93.98
X154.94Y-97.79
X154.94Y-105.41
X157.48Y-97.79
X157.48Y-105.41
X160.02Y-97.79
X160.02Y-105.41
X162.56Y-97.79
X162.56Y-105.41
X165.1Y-97.79
X165.1Y-105.41
X167.64Y-97.79
X167.64Y-105.41
X170.18Y-97.79
X170.18Y-105.41
X146.05Y-83.82
X146.05Y-93.98
X143.51Y-109.22
X143.51Y-119.38
X151.13Y-97.79
X151.13Y-105.41
X154.94Y-109.22
X154.94Y-119.38
X116.84Y-87.63
X116.84Y-90.17
X119.38Y-87.63
X119.38Y-90.17
X121.92Y-87.63
X121.92Y-90.17
X124.46Y-87.63
X124.46Y-90.17
X127.Y-87.63
X127.Y-90.17
X129.54Y-87.63
X129.54Y-90.17
X132.08Y-87.63
X132.08Y-90.17
X134.62Y-87.63
X134.62Y-90.17
X138.43Y-97.79
X138.43Y-105.41
X140.97Y-109.22
X140.97Y-119.38
T3
X146.05Y-140.411
X149.86Y-132.791
X152.4Y-127.711
X120.65Y-140.411
X124.46Y-132.791
X127.Y-127.711
X171.45Y-140.411
X175.26Y-132.791
X177.8Y-127.711
T4
X142.24Y-137.871
X149.86Y-137.871
X116.84Y-137.871
X120.65Y-125.171
X124.46Y-137.871
X167.64Y-137.871
X171.45Y-125.171
X175.26Y-137.871
X146.05Y-125.171
T0
M30
