M48
;DRILL file {KiCad (5.0.1)-3} date 12/7/2018 3:58:31 PM
;FORMAT={-:-/ absolute / metric / decimal}
FMAT,2
METRIC,TZ
T1C0.914
T2C2.032
%
G90
G05
M71
T1
X122.555Y-98.425
X137.397Y-94.485
X139.7Y-93.98
X141.482Y-103.88
X143.51Y-104.775
X147.32Y-95.25
X149.85Y-102.397
X154.271Y-102.397
X132.08Y-90.17
X132.08Y-97.79
X119.38Y-95.25
X129.54Y-95.25
X119.38Y-90.17
X129.54Y-90.17
X119.38Y-92.71
X129.54Y-92.71
X143.51Y-101.6
X143.51Y-111.76
X150.495Y-92.075
X150.495Y-94.615
X153.035Y-92.075
X153.035Y-94.615
X155.575Y-92.075
X155.575Y-94.615
X158.115Y-92.075
X158.115Y-94.615
X160.655Y-92.075
X160.655Y-94.615
X134.62Y-90.17
X134.62Y-97.79
X137.16Y-90.17
X137.16Y-97.79
X139.7Y-90.17
X139.7Y-97.79
X142.24Y-90.17
X142.24Y-97.79
X119.38Y-97.79
X129.54Y-97.79
X152.4Y-104.775
X152.4Y-107.315
X163.4Y-102.045
X163.4Y-106.045
X163.4Y-110.045
X144.78Y-90.17
X144.78Y-97.79
X127.Y-104.775
X127.Y-107.315
X138.Y-102.045
X138.Y-106.045
X138.Y-110.045
T2
X152.4Y-99.345
X152.4Y-112.745
X127.Y-99.345
X127.Y-112.745
T0
M30
