G04 #@! TF.GenerationSoftware,KiCad,Pcbnew,(5.0.1)-3*
G04 #@! TF.CreationDate,2018-12-07T15:58:26-08:00*
G04 #@! TF.ProjectId,500-1092-DualAtnGain,3530302D313039322D4475616C41746E,rev?*
G04 #@! TF.SameCoordinates,Original*
G04 #@! TF.FileFunction,Legend,Top*
G04 #@! TF.FilePolarity,Positive*
%FSLAX46Y46*%
G04 Gerber Fmt 4.6, Leading zero omitted, Abs format (unit mm)*
G04 Created by KiCad (PCBNEW (5.0.1)-3) date 12/7/2018 3:58:26 PM*
%MOMM*%
%LPD*%
G01*
G04 APERTURE LIST*
%ADD10C,0.300000*%
%ADD11C,0.150000*%
G04 APERTURE END LIST*
D10*
X155579285Y-101643571D02*
X155079285Y-100929285D01*
X154722142Y-101643571D02*
X154722142Y-100143571D01*
X155293571Y-100143571D01*
X155436428Y-100215000D01*
X155507857Y-100286428D01*
X155579285Y-100429285D01*
X155579285Y-100643571D01*
X155507857Y-100786428D01*
X155436428Y-100857857D01*
X155293571Y-100929285D01*
X154722142Y-100929285D01*
X156222142Y-100857857D02*
X156722142Y-100857857D01*
X156936428Y-101643571D02*
X156222142Y-101643571D01*
X156222142Y-100143571D01*
X156936428Y-100143571D01*
X157365000Y-100143571D02*
X157865000Y-101643571D01*
X158365000Y-100143571D01*
X158865000Y-101072142D02*
X160007857Y-101072142D01*
X161222142Y-100857857D02*
X161436428Y-100929285D01*
X161507857Y-101000714D01*
X161579285Y-101143571D01*
X161579285Y-101357857D01*
X161507857Y-101500714D01*
X161436428Y-101572142D01*
X161293571Y-101643571D01*
X160722142Y-101643571D01*
X160722142Y-100143571D01*
X161222142Y-100143571D01*
X161365000Y-100215000D01*
X161436428Y-100286428D01*
X161507857Y-100429285D01*
X161507857Y-100572142D01*
X161436428Y-100715000D01*
X161365000Y-100786428D01*
X161222142Y-100857857D01*
X160722142Y-100857857D01*
D11*
G04 #@! TO.C,C101*
X131445000Y-94615000D02*
G75*
G03X132080000Y-95250000I635000J0D01*
G01*
X132080000Y-95250000D02*
G75*
G03X132715000Y-94615000I0J635000D01*
G01*
X132080000Y-92710000D02*
G75*
G03X131445000Y-93345000I0J-635000D01*
G01*
X132715000Y-93345000D02*
G75*
G03X132080000Y-92710000I-635000J0D01*
G01*
X131445000Y-93345000D02*
X131445000Y-94615000D01*
X132715000Y-93345000D02*
X132715000Y-94615000D01*
X132080000Y-96520000D02*
X132080000Y-95250000D01*
X132080000Y-91440000D02*
X132080000Y-92710000D01*
G04 #@! TO.C,C102*
X145415000Y-93345000D02*
G75*
G03X144780000Y-92710000I-635000J0D01*
G01*
X144780000Y-92710000D02*
G75*
G03X144145000Y-93345000I0J-635000D01*
G01*
X144780000Y-95250000D02*
G75*
G03X145415000Y-94615000I0J635000D01*
G01*
X144145000Y-94615000D02*
G75*
G03X144780000Y-95250000I635000J0D01*
G01*
X145415000Y-94615000D02*
X145415000Y-93345000D01*
X144145000Y-94615000D02*
X144145000Y-93345000D01*
X144780000Y-91440000D02*
X144780000Y-92710000D01*
X144780000Y-96520000D02*
X144780000Y-95250000D01*
G04 #@! TO.C,R103*
X120650000Y-96774000D02*
X120650000Y-98806000D01*
X128270000Y-96774000D02*
X128270000Y-98806000D01*
X120650000Y-97790000D02*
X120142000Y-97790000D01*
X128905000Y-97790000D02*
X128270000Y-97790000D01*
X120650000Y-98806000D02*
X128270000Y-98806000D01*
X128270000Y-96774000D02*
X120650000Y-96774000D01*
G04 #@! TO.C,R104*
X120650000Y-91694000D02*
X120650000Y-93726000D01*
X128270000Y-91694000D02*
X128270000Y-93726000D01*
X120650000Y-92710000D02*
X120142000Y-92710000D01*
X128905000Y-92710000D02*
X128270000Y-92710000D01*
X120650000Y-93726000D02*
X128270000Y-93726000D01*
X128270000Y-91694000D02*
X120650000Y-91694000D01*
G04 #@! TO.C,R105*
X128270000Y-96266000D02*
X128270000Y-94234000D01*
X120650000Y-96266000D02*
X120650000Y-94234000D01*
X128270000Y-95250000D02*
X128778000Y-95250000D01*
X120015000Y-95250000D02*
X120650000Y-95250000D01*
X128270000Y-94234000D02*
X120650000Y-94234000D01*
X120650000Y-96266000D02*
X128270000Y-96266000D01*
G04 #@! TO.C,R106*
X128270000Y-91186000D02*
X128270000Y-89154000D01*
X120650000Y-91186000D02*
X120650000Y-89154000D01*
X128270000Y-90170000D02*
X128778000Y-90170000D01*
X120015000Y-90170000D02*
X120650000Y-90170000D01*
X128270000Y-89154000D02*
X120650000Y-89154000D01*
X120650000Y-91186000D02*
X128270000Y-91186000D01*
G04 #@! TO.C,U101*
X133350000Y-95250000D02*
G75*
G03X134620000Y-93980000I0J1270000D01*
G01*
X134620000Y-93980000D02*
G75*
G03X133350000Y-92710000I-1270000J0D01*
G01*
X133350000Y-91440000D02*
X133350000Y-92710000D01*
X133350000Y-91440000D02*
X143510000Y-91440000D01*
X143510000Y-91440000D02*
X143510000Y-96520000D01*
X143510000Y-96520000D02*
X133350000Y-96520000D01*
X133350000Y-96520000D02*
X133350000Y-95250000D01*
G04 #@! TO.C,P101*
X145415000Y-88900000D02*
X145415000Y-90805000D01*
X165735000Y-88900000D02*
X145415000Y-88900000D01*
X165735000Y-90805000D02*
X165735000Y-88900000D01*
X145415000Y-97790000D02*
X145415000Y-95885000D01*
X165735000Y-97790000D02*
X145415000Y-97790000D01*
X165735000Y-95885000D02*
X165735000Y-97790000D01*
X165735000Y-90805000D02*
X165735000Y-95885000D01*
X145415000Y-95885000D02*
X145415000Y-90805000D01*
G04 #@! TO.C,R1*
X144526000Y-102870000D02*
X142494000Y-102870000D01*
X144526000Y-110490000D02*
X142494000Y-110490000D01*
X143510000Y-102870000D02*
X143510000Y-102362000D01*
X143510000Y-111125000D02*
X143510000Y-110490000D01*
X142494000Y-102870000D02*
X142494000Y-110490000D01*
X144526000Y-110490000D02*
X144526000Y-102870000D01*
G04 #@! TO.C,C101*
X132437142Y-102084047D02*
X132484761Y-102131666D01*
X132532380Y-102274523D01*
X132532380Y-102369761D01*
X132484761Y-102512619D01*
X132389523Y-102607857D01*
X132294285Y-102655476D01*
X132103809Y-102703095D01*
X131960952Y-102703095D01*
X131770476Y-102655476D01*
X131675238Y-102607857D01*
X131580000Y-102512619D01*
X131532380Y-102369761D01*
X131532380Y-102274523D01*
X131580000Y-102131666D01*
X131627619Y-102084047D01*
X132532380Y-101131666D02*
X132532380Y-101703095D01*
X132532380Y-101417380D02*
X131532380Y-101417380D01*
X131675238Y-101512619D01*
X131770476Y-101607857D01*
X131818095Y-101703095D01*
X131532380Y-100512619D02*
X131532380Y-100417380D01*
X131580000Y-100322142D01*
X131627619Y-100274523D01*
X131722857Y-100226904D01*
X131913333Y-100179285D01*
X132151428Y-100179285D01*
X132341904Y-100226904D01*
X132437142Y-100274523D01*
X132484761Y-100322142D01*
X132532380Y-100417380D01*
X132532380Y-100512619D01*
X132484761Y-100607857D01*
X132437142Y-100655476D01*
X132341904Y-100703095D01*
X132151428Y-100750714D01*
X131913333Y-100750714D01*
X131722857Y-100703095D01*
X131627619Y-100655476D01*
X131580000Y-100607857D01*
X131532380Y-100512619D01*
X132532380Y-99226904D02*
X132532380Y-99798333D01*
X132532380Y-99512619D02*
X131532380Y-99512619D01*
X131675238Y-99607857D01*
X131770476Y-99703095D01*
X131818095Y-99798333D01*
X129897142Y-88352142D02*
X129944761Y-88304523D01*
X129992380Y-88352142D01*
X129944761Y-88399761D01*
X129897142Y-88352142D01*
X129992380Y-88352142D01*
X129992380Y-87352142D02*
X129992380Y-87923571D01*
X129992380Y-87637857D02*
X128992380Y-87637857D01*
X129135238Y-87733095D01*
X129230476Y-87828333D01*
X129278095Y-87923571D01*
X129325714Y-86495000D02*
X129992380Y-86495000D01*
X129325714Y-86923571D02*
X129849523Y-86923571D01*
X129944761Y-86875952D01*
X129992380Y-86780714D01*
X129992380Y-86637857D01*
X129944761Y-86542619D01*
X129897142Y-86495000D01*
X129468571Y-85685476D02*
X129468571Y-86018809D01*
X129992380Y-86018809D02*
X128992380Y-86018809D01*
X128992380Y-85542619D01*
G04 #@! TO.C,C102*
X145137142Y-88114047D02*
X145184761Y-88161666D01*
X145232380Y-88304523D01*
X145232380Y-88399761D01*
X145184761Y-88542619D01*
X145089523Y-88637857D01*
X144994285Y-88685476D01*
X144803809Y-88733095D01*
X144660952Y-88733095D01*
X144470476Y-88685476D01*
X144375238Y-88637857D01*
X144280000Y-88542619D01*
X144232380Y-88399761D01*
X144232380Y-88304523D01*
X144280000Y-88161666D01*
X144327619Y-88114047D01*
X145232380Y-87161666D02*
X145232380Y-87733095D01*
X145232380Y-87447380D02*
X144232380Y-87447380D01*
X144375238Y-87542619D01*
X144470476Y-87637857D01*
X144518095Y-87733095D01*
X144232380Y-86542619D02*
X144232380Y-86447380D01*
X144280000Y-86352142D01*
X144327619Y-86304523D01*
X144422857Y-86256904D01*
X144613333Y-86209285D01*
X144851428Y-86209285D01*
X145041904Y-86256904D01*
X145137142Y-86304523D01*
X145184761Y-86352142D01*
X145232380Y-86447380D01*
X145232380Y-86542619D01*
X145184761Y-86637857D01*
X145137142Y-86685476D01*
X145041904Y-86733095D01*
X144851428Y-86780714D01*
X144613333Y-86780714D01*
X144422857Y-86733095D01*
X144327619Y-86685476D01*
X144280000Y-86637857D01*
X144232380Y-86542619D01*
X144327619Y-85828333D02*
X144280000Y-85780714D01*
X144232380Y-85685476D01*
X144232380Y-85447380D01*
X144280000Y-85352142D01*
X144327619Y-85304523D01*
X144422857Y-85256904D01*
X144518095Y-85256904D01*
X144660952Y-85304523D01*
X145232380Y-85875952D01*
X145232380Y-85256904D01*
X146470642Y-87844142D02*
X146518261Y-87796523D01*
X146565880Y-87844142D01*
X146518261Y-87891761D01*
X146470642Y-87844142D01*
X146565880Y-87844142D01*
X146565880Y-86844142D02*
X146565880Y-87415571D01*
X146565880Y-87129857D02*
X145565880Y-87129857D01*
X145708738Y-87225095D01*
X145803976Y-87320333D01*
X145851595Y-87415571D01*
X145899214Y-85987000D02*
X146565880Y-85987000D01*
X145899214Y-86415571D02*
X146423023Y-86415571D01*
X146518261Y-86367952D01*
X146565880Y-86272714D01*
X146565880Y-86129857D01*
X146518261Y-86034619D01*
X146470642Y-85987000D01*
X146042071Y-85177476D02*
X146042071Y-85510809D01*
X146565880Y-85510809D02*
X145565880Y-85510809D01*
X145565880Y-85034619D01*
G04 #@! TO.C,R103*
X121435952Y-100401380D02*
X121102619Y-99925190D01*
X120864523Y-100401380D02*
X120864523Y-99401380D01*
X121245476Y-99401380D01*
X121340714Y-99449000D01*
X121388333Y-99496619D01*
X121435952Y-99591857D01*
X121435952Y-99734714D01*
X121388333Y-99829952D01*
X121340714Y-99877571D01*
X121245476Y-99925190D01*
X120864523Y-99925190D01*
X122388333Y-100401380D02*
X121816904Y-100401380D01*
X122102619Y-100401380D02*
X122102619Y-99401380D01*
X122007380Y-99544238D01*
X121912142Y-99639476D01*
X121816904Y-99687095D01*
X123007380Y-99401380D02*
X123102619Y-99401380D01*
X123197857Y-99449000D01*
X123245476Y-99496619D01*
X123293095Y-99591857D01*
X123340714Y-99782333D01*
X123340714Y-100020428D01*
X123293095Y-100210904D01*
X123245476Y-100306142D01*
X123197857Y-100353761D01*
X123102619Y-100401380D01*
X123007380Y-100401380D01*
X122912142Y-100353761D01*
X122864523Y-100306142D01*
X122816904Y-100210904D01*
X122769285Y-100020428D01*
X122769285Y-99782333D01*
X122816904Y-99591857D01*
X122864523Y-99496619D01*
X122912142Y-99449000D01*
X123007380Y-99401380D01*
X123674047Y-99401380D02*
X124293095Y-99401380D01*
X123959761Y-99782333D01*
X124102619Y-99782333D01*
X124197857Y-99829952D01*
X124245476Y-99877571D01*
X124293095Y-99972809D01*
X124293095Y-100210904D01*
X124245476Y-100306142D01*
X124197857Y-100353761D01*
X124102619Y-100401380D01*
X123816904Y-100401380D01*
X123721666Y-100353761D01*
X123674047Y-100306142D01*
X122785333Y-98369380D02*
X122213904Y-98369380D01*
X122499619Y-98369380D02*
X122499619Y-97369380D01*
X122404380Y-97512238D01*
X122309142Y-97607476D01*
X122213904Y-97655095D01*
X123404380Y-97369380D02*
X123499619Y-97369380D01*
X123594857Y-97417000D01*
X123642476Y-97464619D01*
X123690095Y-97559857D01*
X123737714Y-97750333D01*
X123737714Y-97988428D01*
X123690095Y-98178904D01*
X123642476Y-98274142D01*
X123594857Y-98321761D01*
X123499619Y-98369380D01*
X123404380Y-98369380D01*
X123309142Y-98321761D01*
X123261523Y-98274142D01*
X123213904Y-98178904D01*
X123166285Y-97988428D01*
X123166285Y-97750333D01*
X123213904Y-97559857D01*
X123261523Y-97464619D01*
X123309142Y-97417000D01*
X123404380Y-97369380D01*
X124356761Y-97369380D02*
X124452000Y-97369380D01*
X124547238Y-97417000D01*
X124594857Y-97464619D01*
X124642476Y-97559857D01*
X124690095Y-97750333D01*
X124690095Y-97988428D01*
X124642476Y-98178904D01*
X124594857Y-98274142D01*
X124547238Y-98321761D01*
X124452000Y-98369380D01*
X124356761Y-98369380D01*
X124261523Y-98321761D01*
X124213904Y-98274142D01*
X124166285Y-98178904D01*
X124118666Y-97988428D01*
X124118666Y-97750333D01*
X124166285Y-97559857D01*
X124213904Y-97464619D01*
X124261523Y-97417000D01*
X124356761Y-97369380D01*
X125118666Y-98369380D02*
X125118666Y-97369380D01*
X125690095Y-98369380D02*
X125261523Y-97797952D01*
X125690095Y-97369380D02*
X125118666Y-97940809D01*
G04 #@! TO.C,R104*
X115212952Y-93416380D02*
X114879619Y-92940190D01*
X114641523Y-93416380D02*
X114641523Y-92416380D01*
X115022476Y-92416380D01*
X115117714Y-92464000D01*
X115165333Y-92511619D01*
X115212952Y-92606857D01*
X115212952Y-92749714D01*
X115165333Y-92844952D01*
X115117714Y-92892571D01*
X115022476Y-92940190D01*
X114641523Y-92940190D01*
X116165333Y-93416380D02*
X115593904Y-93416380D01*
X115879619Y-93416380D02*
X115879619Y-92416380D01*
X115784380Y-92559238D01*
X115689142Y-92654476D01*
X115593904Y-92702095D01*
X116784380Y-92416380D02*
X116879619Y-92416380D01*
X116974857Y-92464000D01*
X117022476Y-92511619D01*
X117070095Y-92606857D01*
X117117714Y-92797333D01*
X117117714Y-93035428D01*
X117070095Y-93225904D01*
X117022476Y-93321142D01*
X116974857Y-93368761D01*
X116879619Y-93416380D01*
X116784380Y-93416380D01*
X116689142Y-93368761D01*
X116641523Y-93321142D01*
X116593904Y-93225904D01*
X116546285Y-93035428D01*
X116546285Y-92797333D01*
X116593904Y-92606857D01*
X116641523Y-92511619D01*
X116689142Y-92464000D01*
X116784380Y-92416380D01*
X117974857Y-92749714D02*
X117974857Y-93416380D01*
X117736761Y-92368761D02*
X117498666Y-93083047D01*
X118117714Y-93083047D01*
X122785333Y-93289380D02*
X122213904Y-93289380D01*
X122499619Y-93289380D02*
X122499619Y-92289380D01*
X122404380Y-92432238D01*
X122309142Y-92527476D01*
X122213904Y-92575095D01*
X123404380Y-92289380D02*
X123499619Y-92289380D01*
X123594857Y-92337000D01*
X123642476Y-92384619D01*
X123690095Y-92479857D01*
X123737714Y-92670333D01*
X123737714Y-92908428D01*
X123690095Y-93098904D01*
X123642476Y-93194142D01*
X123594857Y-93241761D01*
X123499619Y-93289380D01*
X123404380Y-93289380D01*
X123309142Y-93241761D01*
X123261523Y-93194142D01*
X123213904Y-93098904D01*
X123166285Y-92908428D01*
X123166285Y-92670333D01*
X123213904Y-92479857D01*
X123261523Y-92384619D01*
X123309142Y-92337000D01*
X123404380Y-92289380D01*
X124356761Y-92289380D02*
X124452000Y-92289380D01*
X124547238Y-92337000D01*
X124594857Y-92384619D01*
X124642476Y-92479857D01*
X124690095Y-92670333D01*
X124690095Y-92908428D01*
X124642476Y-93098904D01*
X124594857Y-93194142D01*
X124547238Y-93241761D01*
X124452000Y-93289380D01*
X124356761Y-93289380D01*
X124261523Y-93241761D01*
X124213904Y-93194142D01*
X124166285Y-93098904D01*
X124118666Y-92908428D01*
X124118666Y-92670333D01*
X124166285Y-92479857D01*
X124213904Y-92384619D01*
X124261523Y-92337000D01*
X124356761Y-92289380D01*
X125118666Y-93289380D02*
X125118666Y-92289380D01*
X125690095Y-93289380D02*
X125261523Y-92717952D01*
X125690095Y-92289380D02*
X125118666Y-92860809D01*
G04 #@! TO.C,R105*
X114958952Y-96019880D02*
X114625619Y-95543690D01*
X114387523Y-96019880D02*
X114387523Y-95019880D01*
X114768476Y-95019880D01*
X114863714Y-95067500D01*
X114911333Y-95115119D01*
X114958952Y-95210357D01*
X114958952Y-95353214D01*
X114911333Y-95448452D01*
X114863714Y-95496071D01*
X114768476Y-95543690D01*
X114387523Y-95543690D01*
X115911333Y-96019880D02*
X115339904Y-96019880D01*
X115625619Y-96019880D02*
X115625619Y-95019880D01*
X115530380Y-95162738D01*
X115435142Y-95257976D01*
X115339904Y-95305595D01*
X116530380Y-95019880D02*
X116625619Y-95019880D01*
X116720857Y-95067500D01*
X116768476Y-95115119D01*
X116816095Y-95210357D01*
X116863714Y-95400833D01*
X116863714Y-95638928D01*
X116816095Y-95829404D01*
X116768476Y-95924642D01*
X116720857Y-95972261D01*
X116625619Y-96019880D01*
X116530380Y-96019880D01*
X116435142Y-95972261D01*
X116387523Y-95924642D01*
X116339904Y-95829404D01*
X116292285Y-95638928D01*
X116292285Y-95400833D01*
X116339904Y-95210357D01*
X116387523Y-95115119D01*
X116435142Y-95067500D01*
X116530380Y-95019880D01*
X117768476Y-95019880D02*
X117292285Y-95019880D01*
X117244666Y-95496071D01*
X117292285Y-95448452D01*
X117387523Y-95400833D01*
X117625619Y-95400833D01*
X117720857Y-95448452D01*
X117768476Y-95496071D01*
X117816095Y-95591309D01*
X117816095Y-95829404D01*
X117768476Y-95924642D01*
X117720857Y-95972261D01*
X117625619Y-96019880D01*
X117387523Y-96019880D01*
X117292285Y-95972261D01*
X117244666Y-95924642D01*
X123801333Y-95575380D02*
X123229904Y-95575380D01*
X123515619Y-95575380D02*
X123515619Y-94575380D01*
X123420380Y-94718238D01*
X123325142Y-94813476D01*
X123229904Y-94861095D01*
X124420380Y-94575380D02*
X124515619Y-94575380D01*
X124610857Y-94623000D01*
X124658476Y-94670619D01*
X124706095Y-94765857D01*
X124753714Y-94956333D01*
X124753714Y-95194428D01*
X124706095Y-95384904D01*
X124658476Y-95480142D01*
X124610857Y-95527761D01*
X124515619Y-95575380D01*
X124420380Y-95575380D01*
X124325142Y-95527761D01*
X124277523Y-95480142D01*
X124229904Y-95384904D01*
X124182285Y-95194428D01*
X124182285Y-94956333D01*
X124229904Y-94765857D01*
X124277523Y-94670619D01*
X124325142Y-94623000D01*
X124420380Y-94575380D01*
X125372761Y-94575380D02*
X125468000Y-94575380D01*
X125563238Y-94623000D01*
X125610857Y-94670619D01*
X125658476Y-94765857D01*
X125706095Y-94956333D01*
X125706095Y-95194428D01*
X125658476Y-95384904D01*
X125610857Y-95480142D01*
X125563238Y-95527761D01*
X125468000Y-95575380D01*
X125372761Y-95575380D01*
X125277523Y-95527761D01*
X125229904Y-95480142D01*
X125182285Y-95384904D01*
X125134666Y-95194428D01*
X125134666Y-94956333D01*
X125182285Y-94765857D01*
X125229904Y-94670619D01*
X125277523Y-94623000D01*
X125372761Y-94575380D01*
X126134666Y-95575380D02*
X126134666Y-94575380D01*
X126706095Y-95575380D02*
X126277523Y-95003952D01*
X126706095Y-94575380D02*
X126134666Y-95146809D01*
G04 #@! TO.C,R106*
X114641452Y-90812880D02*
X114308119Y-90336690D01*
X114070023Y-90812880D02*
X114070023Y-89812880D01*
X114450976Y-89812880D01*
X114546214Y-89860500D01*
X114593833Y-89908119D01*
X114641452Y-90003357D01*
X114641452Y-90146214D01*
X114593833Y-90241452D01*
X114546214Y-90289071D01*
X114450976Y-90336690D01*
X114070023Y-90336690D01*
X115593833Y-90812880D02*
X115022404Y-90812880D01*
X115308119Y-90812880D02*
X115308119Y-89812880D01*
X115212880Y-89955738D01*
X115117642Y-90050976D01*
X115022404Y-90098595D01*
X116212880Y-89812880D02*
X116308119Y-89812880D01*
X116403357Y-89860500D01*
X116450976Y-89908119D01*
X116498595Y-90003357D01*
X116546214Y-90193833D01*
X116546214Y-90431928D01*
X116498595Y-90622404D01*
X116450976Y-90717642D01*
X116403357Y-90765261D01*
X116308119Y-90812880D01*
X116212880Y-90812880D01*
X116117642Y-90765261D01*
X116070023Y-90717642D01*
X116022404Y-90622404D01*
X115974785Y-90431928D01*
X115974785Y-90193833D01*
X116022404Y-90003357D01*
X116070023Y-89908119D01*
X116117642Y-89860500D01*
X116212880Y-89812880D01*
X117403357Y-89812880D02*
X117212880Y-89812880D01*
X117117642Y-89860500D01*
X117070023Y-89908119D01*
X116974785Y-90050976D01*
X116927166Y-90241452D01*
X116927166Y-90622404D01*
X116974785Y-90717642D01*
X117022404Y-90765261D01*
X117117642Y-90812880D01*
X117308119Y-90812880D01*
X117403357Y-90765261D01*
X117450976Y-90717642D01*
X117498595Y-90622404D01*
X117498595Y-90384309D01*
X117450976Y-90289071D01*
X117403357Y-90241452D01*
X117308119Y-90193833D01*
X117117642Y-90193833D01*
X117022404Y-90241452D01*
X116974785Y-90289071D01*
X116927166Y-90384309D01*
X123801333Y-90495380D02*
X123229904Y-90495380D01*
X123515619Y-90495380D02*
X123515619Y-89495380D01*
X123420380Y-89638238D01*
X123325142Y-89733476D01*
X123229904Y-89781095D01*
X124420380Y-89495380D02*
X124515619Y-89495380D01*
X124610857Y-89543000D01*
X124658476Y-89590619D01*
X124706095Y-89685857D01*
X124753714Y-89876333D01*
X124753714Y-90114428D01*
X124706095Y-90304904D01*
X124658476Y-90400142D01*
X124610857Y-90447761D01*
X124515619Y-90495380D01*
X124420380Y-90495380D01*
X124325142Y-90447761D01*
X124277523Y-90400142D01*
X124229904Y-90304904D01*
X124182285Y-90114428D01*
X124182285Y-89876333D01*
X124229904Y-89685857D01*
X124277523Y-89590619D01*
X124325142Y-89543000D01*
X124420380Y-89495380D01*
X125372761Y-89495380D02*
X125468000Y-89495380D01*
X125563238Y-89543000D01*
X125610857Y-89590619D01*
X125658476Y-89685857D01*
X125706095Y-89876333D01*
X125706095Y-90114428D01*
X125658476Y-90304904D01*
X125610857Y-90400142D01*
X125563238Y-90447761D01*
X125468000Y-90495380D01*
X125372761Y-90495380D01*
X125277523Y-90447761D01*
X125229904Y-90400142D01*
X125182285Y-90304904D01*
X125134666Y-90114428D01*
X125134666Y-89876333D01*
X125182285Y-89685857D01*
X125229904Y-89590619D01*
X125277523Y-89543000D01*
X125372761Y-89495380D01*
X126134666Y-90495380D02*
X126134666Y-89495380D01*
X126706095Y-90495380D02*
X126277523Y-89923952D01*
X126706095Y-89495380D02*
X126134666Y-90066809D01*
G04 #@! TO.C,U101*
X134175714Y-99147380D02*
X134175714Y-99956904D01*
X134223333Y-100052142D01*
X134270952Y-100099761D01*
X134366190Y-100147380D01*
X134556666Y-100147380D01*
X134651904Y-100099761D01*
X134699523Y-100052142D01*
X134747142Y-99956904D01*
X134747142Y-99147380D01*
X135747142Y-100147380D02*
X135175714Y-100147380D01*
X135461428Y-100147380D02*
X135461428Y-99147380D01*
X135366190Y-99290238D01*
X135270952Y-99385476D01*
X135175714Y-99433095D01*
X136366190Y-99147380D02*
X136461428Y-99147380D01*
X136556666Y-99195000D01*
X136604285Y-99242619D01*
X136651904Y-99337857D01*
X136699523Y-99528333D01*
X136699523Y-99766428D01*
X136651904Y-99956904D01*
X136604285Y-100052142D01*
X136556666Y-100099761D01*
X136461428Y-100147380D01*
X136366190Y-100147380D01*
X136270952Y-100099761D01*
X136223333Y-100052142D01*
X136175714Y-99956904D01*
X136128095Y-99766428D01*
X136128095Y-99528333D01*
X136175714Y-99337857D01*
X136223333Y-99242619D01*
X136270952Y-99195000D01*
X136366190Y-99147380D01*
X137651904Y-100147380D02*
X137080476Y-100147380D01*
X137366190Y-100147380D02*
X137366190Y-99147380D01*
X137270952Y-99290238D01*
X137175714Y-99385476D01*
X137080476Y-99433095D01*
X136310952Y-93432380D02*
X136882380Y-93432380D01*
X136596666Y-94432380D02*
X136596666Y-93432380D01*
X137691904Y-94432380D02*
X137215714Y-94432380D01*
X137215714Y-93432380D01*
X138215714Y-93432380D02*
X138310952Y-93432380D01*
X138406190Y-93480000D01*
X138453809Y-93527619D01*
X138501428Y-93622857D01*
X138549047Y-93813333D01*
X138549047Y-94051428D01*
X138501428Y-94241904D01*
X138453809Y-94337142D01*
X138406190Y-94384761D01*
X138310952Y-94432380D01*
X138215714Y-94432380D01*
X138120476Y-94384761D01*
X138072857Y-94337142D01*
X138025238Y-94241904D01*
X137977619Y-94051428D01*
X137977619Y-93813333D01*
X138025238Y-93622857D01*
X138072857Y-93527619D01*
X138120476Y-93480000D01*
X138215714Y-93432380D01*
X139453809Y-93432380D02*
X138977619Y-93432380D01*
X138930000Y-93908571D01*
X138977619Y-93860952D01*
X139072857Y-93813333D01*
X139310952Y-93813333D01*
X139406190Y-93860952D01*
X139453809Y-93908571D01*
X139501428Y-94003809D01*
X139501428Y-94241904D01*
X139453809Y-94337142D01*
X139406190Y-94384761D01*
X139310952Y-94432380D01*
X139072857Y-94432380D01*
X138977619Y-94384761D01*
X138930000Y-94337142D01*
X139882380Y-93527619D02*
X139930000Y-93480000D01*
X140025238Y-93432380D01*
X140263333Y-93432380D01*
X140358571Y-93480000D01*
X140406190Y-93527619D01*
X140453809Y-93622857D01*
X140453809Y-93718095D01*
X140406190Y-93860952D01*
X139834761Y-94432380D01*
X140453809Y-94432380D01*
G04 #@! TO.C,P101*
X146264523Y-99512380D02*
X146264523Y-98512380D01*
X146645476Y-98512380D01*
X146740714Y-98560000D01*
X146788333Y-98607619D01*
X146835952Y-98702857D01*
X146835952Y-98845714D01*
X146788333Y-98940952D01*
X146740714Y-98988571D01*
X146645476Y-99036190D01*
X146264523Y-99036190D01*
X147788333Y-99512380D02*
X147216904Y-99512380D01*
X147502619Y-99512380D02*
X147502619Y-98512380D01*
X147407380Y-98655238D01*
X147312142Y-98750476D01*
X147216904Y-98798095D01*
X148407380Y-98512380D02*
X148502619Y-98512380D01*
X148597857Y-98560000D01*
X148645476Y-98607619D01*
X148693095Y-98702857D01*
X148740714Y-98893333D01*
X148740714Y-99131428D01*
X148693095Y-99321904D01*
X148645476Y-99417142D01*
X148597857Y-99464761D01*
X148502619Y-99512380D01*
X148407380Y-99512380D01*
X148312142Y-99464761D01*
X148264523Y-99417142D01*
X148216904Y-99321904D01*
X148169285Y-99131428D01*
X148169285Y-98893333D01*
X148216904Y-98702857D01*
X148264523Y-98607619D01*
X148312142Y-98560000D01*
X148407380Y-98512380D01*
X149693095Y-99512380D02*
X149121666Y-99512380D01*
X149407380Y-99512380D02*
X149407380Y-98512380D01*
X149312142Y-98655238D01*
X149216904Y-98750476D01*
X149121666Y-98798095D01*
X155511904Y-98512380D02*
X155035714Y-98512380D01*
X154988095Y-98988571D01*
X155035714Y-98940952D01*
X155130952Y-98893333D01*
X155369047Y-98893333D01*
X155464285Y-98940952D01*
X155511904Y-98988571D01*
X155559523Y-99083809D01*
X155559523Y-99321904D01*
X155511904Y-99417142D01*
X155464285Y-99464761D01*
X155369047Y-99512380D01*
X155130952Y-99512380D01*
X155035714Y-99464761D01*
X154988095Y-99417142D01*
X156178571Y-98512380D02*
X156273809Y-98512380D01*
X156369047Y-98560000D01*
X156416666Y-98607619D01*
X156464285Y-98702857D01*
X156511904Y-98893333D01*
X156511904Y-99131428D01*
X156464285Y-99321904D01*
X156416666Y-99417142D01*
X156369047Y-99464761D01*
X156273809Y-99512380D01*
X156178571Y-99512380D01*
X156083333Y-99464761D01*
X156035714Y-99417142D01*
X155988095Y-99321904D01*
X155940476Y-99131428D01*
X155940476Y-98893333D01*
X155988095Y-98702857D01*
X156035714Y-98607619D01*
X156083333Y-98560000D01*
X156178571Y-98512380D01*
X157130952Y-98512380D02*
X157226190Y-98512380D01*
X157321428Y-98560000D01*
X157369047Y-98607619D01*
X157416666Y-98702857D01*
X157464285Y-98893333D01*
X157464285Y-99131428D01*
X157416666Y-99321904D01*
X157369047Y-99417142D01*
X157321428Y-99464761D01*
X157226190Y-99512380D01*
X157130952Y-99512380D01*
X157035714Y-99464761D01*
X156988095Y-99417142D01*
X156940476Y-99321904D01*
X156892857Y-99131428D01*
X156892857Y-98893333D01*
X156940476Y-98702857D01*
X156988095Y-98607619D01*
X157035714Y-98560000D01*
X157130952Y-98512380D01*
X157892857Y-99131428D02*
X158654761Y-99131428D01*
X159654761Y-99512380D02*
X159083333Y-99512380D01*
X159369047Y-99512380D02*
X159369047Y-98512380D01*
X159273809Y-98655238D01*
X159178571Y-98750476D01*
X159083333Y-98798095D01*
X160273809Y-98512380D02*
X160369047Y-98512380D01*
X160464285Y-98560000D01*
X160511904Y-98607619D01*
X160559523Y-98702857D01*
X160607142Y-98893333D01*
X160607142Y-99131428D01*
X160559523Y-99321904D01*
X160511904Y-99417142D01*
X160464285Y-99464761D01*
X160369047Y-99512380D01*
X160273809Y-99512380D01*
X160178571Y-99464761D01*
X160130952Y-99417142D01*
X160083333Y-99321904D01*
X160035714Y-99131428D01*
X160035714Y-98893333D01*
X160083333Y-98702857D01*
X160130952Y-98607619D01*
X160178571Y-98560000D01*
X160273809Y-98512380D01*
X161083333Y-99512380D02*
X161273809Y-99512380D01*
X161369047Y-99464761D01*
X161416666Y-99417142D01*
X161511904Y-99274285D01*
X161559523Y-99083809D01*
X161559523Y-98702857D01*
X161511904Y-98607619D01*
X161464285Y-98560000D01*
X161369047Y-98512380D01*
X161178571Y-98512380D01*
X161083333Y-98560000D01*
X161035714Y-98607619D01*
X160988095Y-98702857D01*
X160988095Y-98940952D01*
X161035714Y-99036190D01*
X161083333Y-99083809D01*
X161178571Y-99131428D01*
X161369047Y-99131428D01*
X161464285Y-99083809D01*
X161511904Y-99036190D01*
X161559523Y-98940952D01*
X161940476Y-98607619D02*
X161988095Y-98560000D01*
X162083333Y-98512380D01*
X162321428Y-98512380D01*
X162416666Y-98560000D01*
X162464285Y-98607619D01*
X162511904Y-98702857D01*
X162511904Y-98798095D01*
X162464285Y-98940952D01*
X161892857Y-99512380D01*
X162511904Y-99512380D01*
G04 #@! TO.C,R1*
X143708380Y-98718666D02*
X143232190Y-99052000D01*
X143708380Y-99290095D02*
X142708380Y-99290095D01*
X142708380Y-98909142D01*
X142756000Y-98813904D01*
X142803619Y-98766285D01*
X142898857Y-98718666D01*
X143041714Y-98718666D01*
X143136952Y-98766285D01*
X143184571Y-98813904D01*
X143232190Y-98909142D01*
X143232190Y-99290095D01*
X143708380Y-97766285D02*
X143708380Y-98337714D01*
X143708380Y-98052000D02*
X142708380Y-98052000D01*
X142851238Y-98147238D01*
X142946476Y-98242476D01*
X142994095Y-98337714D01*
X142835380Y-107481523D02*
X142835380Y-106862476D01*
X143216333Y-107195809D01*
X143216333Y-107052952D01*
X143263952Y-106957714D01*
X143311571Y-106910095D01*
X143406809Y-106862476D01*
X143644904Y-106862476D01*
X143740142Y-106910095D01*
X143787761Y-106957714D01*
X143835380Y-107052952D01*
X143835380Y-107338666D01*
X143787761Y-107433904D01*
X143740142Y-107481523D01*
X142835380Y-106243428D02*
X142835380Y-106148190D01*
X142883000Y-106052952D01*
X142930619Y-106005333D01*
X143025857Y-105957714D01*
X143216333Y-105910095D01*
X143454428Y-105910095D01*
X143644904Y-105957714D01*
X143740142Y-106005333D01*
X143787761Y-106052952D01*
X143835380Y-106148190D01*
X143835380Y-106243428D01*
X143787761Y-106338666D01*
X143740142Y-106386285D01*
X143644904Y-106433904D01*
X143454428Y-106481523D01*
X143216333Y-106481523D01*
X143025857Y-106433904D01*
X142930619Y-106386285D01*
X142883000Y-106338666D01*
X142835380Y-106243428D01*
X143835380Y-105481523D02*
X142835380Y-105481523D01*
X143835380Y-104910095D02*
X143263952Y-105338666D01*
X142835380Y-104910095D02*
X143406809Y-105481523D01*
G04 #@! TD*
M02*
