G04 #@! TF.GenerationSoftware,KiCad,Pcbnew,(5.0.1)-3*
G04 #@! TF.CreationDate,2018-12-06T21:01:50-08:00*
G04 #@! TF.ProjectId,500-1071,3530302D313037312E6B696361645F70,A*
G04 #@! TF.SameCoordinates,Original*
G04 #@! TF.FileFunction,Legend,Bot*
G04 #@! TF.FilePolarity,Positive*
%FSLAX46Y46*%
G04 Gerber Fmt 4.6, Leading zero omitted, Abs format (unit mm)*
G04 Created by KiCad (PCBNEW (5.0.1)-3) date 12/6/2018 9:01:50 PM*
%MOMM*%
%LPD*%
G01*
G04 APERTURE LIST*
%ADD10C,0.200000*%
%ADD11C,0.150000*%
G04 APERTURE END LIST*
D10*
X238125000Y-106045000D02*
X238125000Y-112395000D01*
X219075000Y-106045000D02*
X219075000Y-112395000D01*
X200025000Y-106680000D02*
X200025000Y-112395000D01*
X180975000Y-106680000D02*
X180975000Y-111760000D01*
D11*
G04 #@! TO.C,R3*
X217170000Y-110490000D02*
G75*
G02X214630000Y-110490000I-1270000J1270000D01*
G01*
X214630000Y-110490000D02*
G75*
G02X214630000Y-107950000I1270000J1270000D01*
G01*
X214630000Y-107950000D02*
G75*
G02X217170000Y-107950000I1270000J-1270000D01*
G01*
X217170000Y-107950000D02*
X217170000Y-110490000D01*
X219075000Y-109220000D02*
G75*
G03X219075000Y-109220000I-3175000J0D01*
G01*
X223400000Y-119220000D02*
X208400000Y-119220000D01*
X208400000Y-119220000D02*
X208400000Y-101220000D01*
X208400000Y-101220000D02*
X223400000Y-101220000D01*
X223400000Y-101220000D02*
X223400000Y-119220000D01*
G04 #@! TO.C,R4*
X236220000Y-110490000D02*
G75*
G02X233680000Y-110490000I-1270000J1270000D01*
G01*
X233680000Y-110490000D02*
G75*
G02X233680000Y-107950000I1270000J1270000D01*
G01*
X233680000Y-107950000D02*
G75*
G02X236220000Y-107950000I1270000J-1270000D01*
G01*
X236220000Y-107950000D02*
X236220000Y-110490000D01*
X238125000Y-109220000D02*
G75*
G03X238125000Y-109220000I-3175000J0D01*
G01*
X242450000Y-119220000D02*
X227450000Y-119220000D01*
X227450000Y-119220000D02*
X227450000Y-101220000D01*
X227450000Y-101220000D02*
X242450000Y-101220000D01*
X242450000Y-101220000D02*
X242450000Y-119220000D01*
G04 #@! TO.C,R1*
X179070000Y-110490000D02*
G75*
G02X176530000Y-110490000I-1270000J1270000D01*
G01*
X176530000Y-110490000D02*
G75*
G02X176530000Y-107950000I1270000J1270000D01*
G01*
X176530000Y-107950000D02*
G75*
G02X179070000Y-107950000I1270000J-1270000D01*
G01*
X179070000Y-107950000D02*
X179070000Y-110490000D01*
X180975000Y-109220000D02*
G75*
G03X180975000Y-109220000I-3175000J0D01*
G01*
X185300000Y-119220000D02*
X170300000Y-119220000D01*
X170300000Y-119220000D02*
X170300000Y-101220000D01*
X170300000Y-101220000D02*
X185300000Y-101220000D01*
X185300000Y-101220000D02*
X185300000Y-119220000D01*
G04 #@! TO.C,R2*
X198120000Y-110490000D02*
G75*
G02X195580000Y-110490000I-1270000J1270000D01*
G01*
X195580000Y-110490000D02*
G75*
G02X195580000Y-107950000I1270000J1270000D01*
G01*
X195580000Y-107950000D02*
G75*
G02X198120000Y-107950000I1270000J-1270000D01*
G01*
X198120000Y-107950000D02*
X198120000Y-110490000D01*
X200025000Y-109220000D02*
G75*
G03X200025000Y-109220000I-3175000J0D01*
G01*
X204350000Y-119220000D02*
X189350000Y-119220000D01*
X189350000Y-119220000D02*
X189350000Y-101220000D01*
X189350000Y-101220000D02*
X204350000Y-101220000D01*
X204350000Y-101220000D02*
X204350000Y-119220000D01*
G04 #@! TO.C,R3*
X209589666Y-120721380D02*
X209923000Y-120245190D01*
X210161095Y-120721380D02*
X210161095Y-119721380D01*
X209780142Y-119721380D01*
X209684904Y-119769000D01*
X209637285Y-119816619D01*
X209589666Y-119911857D01*
X209589666Y-120054714D01*
X209637285Y-120149952D01*
X209684904Y-120197571D01*
X209780142Y-120245190D01*
X210161095Y-120245190D01*
X209256333Y-119721380D02*
X208637285Y-119721380D01*
X208970619Y-120102333D01*
X208827761Y-120102333D01*
X208732523Y-120149952D01*
X208684904Y-120197571D01*
X208637285Y-120292809D01*
X208637285Y-120530904D01*
X208684904Y-120626142D01*
X208732523Y-120673761D01*
X208827761Y-120721380D01*
X209113476Y-120721380D01*
X209208714Y-120673761D01*
X209256333Y-120626142D01*
G04 #@! TO.C,R4*
X228639666Y-120721380D02*
X228973000Y-120245190D01*
X229211095Y-120721380D02*
X229211095Y-119721380D01*
X228830142Y-119721380D01*
X228734904Y-119769000D01*
X228687285Y-119816619D01*
X228639666Y-119911857D01*
X228639666Y-120054714D01*
X228687285Y-120149952D01*
X228734904Y-120197571D01*
X228830142Y-120245190D01*
X229211095Y-120245190D01*
X227782523Y-120054714D02*
X227782523Y-120721380D01*
X228020619Y-119673761D02*
X228258714Y-120388047D01*
X227639666Y-120388047D01*
G04 #@! TO.C,R1*
X184570666Y-120975380D02*
X184904000Y-120499190D01*
X185142095Y-120975380D02*
X185142095Y-119975380D01*
X184761142Y-119975380D01*
X184665904Y-120023000D01*
X184618285Y-120070619D01*
X184570666Y-120165857D01*
X184570666Y-120308714D01*
X184618285Y-120403952D01*
X184665904Y-120451571D01*
X184761142Y-120499190D01*
X185142095Y-120499190D01*
X183618285Y-120975380D02*
X184189714Y-120975380D01*
X183904000Y-120975380D02*
X183904000Y-119975380D01*
X183999238Y-120118238D01*
X184094476Y-120213476D01*
X184189714Y-120261095D01*
G04 #@! TO.C,R2*
X189015666Y-120975380D02*
X189349000Y-120499190D01*
X189587095Y-120975380D02*
X189587095Y-119975380D01*
X189206142Y-119975380D01*
X189110904Y-120023000D01*
X189063285Y-120070619D01*
X189015666Y-120165857D01*
X189015666Y-120308714D01*
X189063285Y-120403952D01*
X189110904Y-120451571D01*
X189206142Y-120499190D01*
X189587095Y-120499190D01*
X188634714Y-120070619D02*
X188587095Y-120023000D01*
X188491857Y-119975380D01*
X188253761Y-119975380D01*
X188158523Y-120023000D01*
X188110904Y-120070619D01*
X188063285Y-120165857D01*
X188063285Y-120261095D01*
X188110904Y-120403952D01*
X188682333Y-120975380D01*
X188063285Y-120975380D01*
G04 #@! TD*
M02*
