*%FSLAX23Y23*%
*%MOIN*%
G01*
%ADD11C,0.007*%
%ADD12C,0.008*%
%ADD13C,0.010*%
%ADD14C,0.012*%
%ADD15C,0.020*%
%ADD16C,0.032*%
%ADD17C,0.036*%
%ADD18C,0.050*%
%ADD19C,0.052*%
%ADD20C,0.055*%
%ADD21C,0.056*%
%ADD22C,0.060*%
%ADD23C,0.061*%
%ADD24C,0.062*%
%ADD25C,0.068*%
%ADD26C,0.070*%
%ADD27C,0.080*%
%ADD28C,0.090*%
%ADD29C,0.095*%
%ADD30C,0.115*%
%ADD31C,0.120*%
%ADD32C,0.125*%
%ADD33C,0.126*%
%ADD34C,0.131*%
%ADD35C,0.150*%
%ADD36C,0.156*%
%ADD37R,0.062X0.062*%
%ADD38R,0.068X0.068*%
D11*
X11472Y8131D02*
Y8171D01*
X11512D01*
Y8131D01*
X11472D01*
X9072D02*
Y8171D01*
X9112D01*
Y8131D01*
X9072D01*
Y8431D02*
Y8471D01*
X9112D01*
Y8431D01*
X9072D01*
X8572Y8531D02*
Y8571D01*
X8612D01*
Y8531D01*
X8572D01*
X8312Y6751D02*
X8311Y6744D01*
X8307Y6738D01*
X8302Y6734D01*
X8295Y6731D01*
X8289D01*
X8282Y6734D01*
X8277Y6738D01*
X8273Y6744D01*
X8272Y6751D01*
X8273Y6758D01*
X8277Y6764D01*
X8282Y6768D01*
X8289Y6771D01*
X8295D01*
X8302Y6768D01*
X8307Y6764D01*
X8311Y6758D01*
X8312Y6751D01*
X8612D02*
X8611Y6744D01*
X8607Y6738D01*
X8602Y6734D01*
X8595Y6731D01*
X8589D01*
X8582Y6734D01*
X8577Y6738D01*
X8573Y6744D01*
X8572Y6751D01*
X8573Y6758D01*
X8577Y6764D01*
X8582Y6768D01*
X8589Y6771D01*
X8595D01*
X8602Y6768D01*
X8607Y6764D01*
X8611Y6758D01*
X8612Y6751D01*
X8692Y7131D02*
X8672Y7171D01*
X8712D01*
X8692Y7131D01*
X8572Y6971D02*
X8592Y6931D01*
X8572Y6971D02*
X8612D01*
X8592Y6931D01*
X8462Y7251D02*
X8461Y7244D01*
X8457Y7238D01*
X8452Y7234D01*
X8445Y7231D01*
X8439D01*
X8432Y7234D01*
X8427Y7238D01*
X8423Y7244D01*
X8422Y7251D01*
X8423Y7258D01*
X8427Y7264D01*
X8432Y7268D01*
X8439Y7271D01*
X8445D01*
X8452Y7268D01*
X8457Y7264D01*
X8461Y7258D01*
X8462Y7251D01*
X8422Y6671D02*
X8442Y6631D01*
X8422Y6671D02*
X8462D01*
X8442Y6631D01*
X8222Y8381D02*
Y8421D01*
X8262D01*
Y8381D01*
X8222D01*
Y8021D02*
Y7981D01*
Y8021D02*
X8262D01*
Y7981D01*
X8222D01*
X8372Y8531D02*
Y8571D01*
X8412D01*
Y8531D01*
X8372D01*
Y8471D02*
Y8431D01*
Y8471D02*
X8412D01*
Y8431D01*
X8372D01*
Y8171D02*
Y8131D01*
Y8171D02*
X8412D01*
Y8131D01*
X8372D01*
Y8071D02*
Y8031D01*
Y8071D02*
X8412D01*
Y8031D01*
X8372D01*
Y7971D02*
Y7931D01*
Y7971D02*
X8412D01*
Y7931D01*
X8372D01*
Y7871D02*
Y7831D01*
Y7871D02*
X8412D01*
Y7831D01*
X8372D01*
X8672D02*
Y7871D01*
X8712D01*
Y7831D01*
X8672D01*
Y7931D02*
Y7971D01*
X8712D01*
Y7931D01*
X8672D01*
Y8031D02*
Y8071D01*
X8712D01*
Y8031D01*
X8672D01*
Y8131D02*
Y8171D01*
X8712D01*
Y8131D01*
X8672D01*
Y8231D02*
Y8271D01*
X8712D01*
Y8231D01*
X8672D01*
Y8331D02*
Y8371D01*
X8712D01*
Y8331D01*
X8672D01*
Y8431D02*
Y8471D01*
X8712D01*
Y8431D01*
X8672D01*
Y8531D02*
Y8571D01*
X8712D01*
Y8531D01*
X8672D01*
X8372Y8371D02*
Y8331D01*
Y8371D02*
X8412D01*
Y8331D01*
X8372D01*
Y8271D02*
Y8231D01*
Y8271D02*
X8412D01*
Y8231D01*
X8372D01*
X9312Y6751D02*
X9311Y6744D01*
X9307Y6738D01*
X9302Y6734D01*
X9295Y6731D01*
X9289D01*
X9282Y6734D01*
X9277Y6738D01*
X9273Y6744D01*
X9272Y6751D01*
X9273Y6758D01*
X9277Y6764D01*
X9282Y6768D01*
X9289Y6771D01*
X9295D01*
X9302Y6768D01*
X9307Y6764D01*
X9311Y6758D01*
X9312Y6751D01*
X9612D02*
X9611Y6744D01*
X9607Y6738D01*
X9602Y6734D01*
X9595Y6731D01*
X9589D01*
X9582Y6734D01*
X9577Y6738D01*
X9573Y6744D01*
X9572Y6751D01*
X9573Y6758D01*
X9577Y6764D01*
X9582Y6768D01*
X9589Y6771D01*
X9595D01*
X9602Y6768D01*
X9607Y6764D01*
X9611Y6758D01*
X9612Y6751D01*
X9692Y7131D02*
X9672Y7171D01*
X9712D01*
X9692Y7131D01*
X9572Y6971D02*
X9592Y6931D01*
X9572Y6971D02*
X9612D01*
X9592Y6931D01*
X9462Y7251D02*
X9461Y7244D01*
X9457Y7238D01*
X9452Y7234D01*
X9445Y7231D01*
X9439D01*
X9432Y7234D01*
X9427Y7238D01*
X9423Y7244D01*
X9422Y7251D01*
X9423Y7258D01*
X9427Y7264D01*
X9432Y7268D01*
X9439Y7271D01*
X9445D01*
X9452Y7268D01*
X9457Y7264D01*
X9461Y7258D01*
X9462Y7251D01*
X9422Y6671D02*
X9442Y6631D01*
X9422Y6671D02*
X9462D01*
X9442Y6631D01*
X9822Y8831D02*
Y8871D01*
X9862D01*
Y8831D01*
X9822D01*
Y8471D02*
Y8431D01*
Y8471D02*
X9862D01*
Y8431D01*
X9822D01*
X9622Y8021D02*
Y7981D01*
Y8021D02*
X9662D01*
Y7981D01*
X9622D01*
X9822D02*
Y8021D01*
X9862D01*
Y7981D01*
X9822D01*
X9922D02*
Y8021D01*
X9962D01*
Y7981D01*
X9922D01*
Y8281D02*
Y8321D01*
X9962D01*
Y8281D01*
X9922D01*
X9822D02*
Y8321D01*
X9862D01*
Y8281D01*
X9822D01*
X9722D02*
Y8321D01*
X9762D01*
Y8281D01*
X9722D01*
X9622D02*
Y8321D01*
X9662D01*
Y8281D01*
X9622D01*
X9722Y8021D02*
Y7981D01*
Y8021D02*
X9762D01*
Y7981D01*
X9722D01*
X9522Y8281D02*
Y8321D01*
X9562D01*
Y8281D01*
X9522D01*
Y8021D02*
Y7981D01*
Y8021D02*
X9562D01*
Y7981D01*
X9522D01*
X9622Y7471D02*
Y7431D01*
Y7471D02*
X9662D01*
Y7431D01*
X9622D01*
Y7831D02*
Y7871D01*
X9662D01*
Y7831D01*
X9622D01*
X9522Y7771D02*
Y7731D01*
Y7771D02*
X9562D01*
Y7731D01*
X9522D01*
Y7831D02*
Y7871D01*
X9562D01*
Y7831D01*
X9522D01*
X9722Y7471D02*
Y7431D01*
Y7471D02*
X9762D01*
Y7431D01*
X9722D01*
Y7831D02*
Y7871D01*
X9762D01*
Y7831D01*
X9722D01*
X9822Y7471D02*
Y7431D01*
Y7471D02*
X9862D01*
Y7431D01*
X9822D01*
Y7831D02*
Y7871D01*
X9862D01*
Y7831D01*
X9822D01*
X9722Y8831D02*
Y8871D01*
X9762D01*
Y8831D01*
X9722D01*
Y8471D02*
Y8431D01*
Y8471D02*
X9762D01*
Y8431D01*
X9722D01*
X10022Y8021D02*
Y7981D01*
Y8021D02*
X10062D01*
Y7981D01*
X10022D01*
Y8281D02*
Y8321D01*
X10062D01*
Y8281D01*
X10022D01*
X8922Y8531D02*
Y8571D01*
X8962D01*
Y8531D01*
X8922D01*
Y8471D02*
Y8431D01*
Y8471D02*
X8962D01*
Y8431D01*
X8922D01*
Y8171D02*
Y8131D01*
Y8171D02*
X8962D01*
Y8131D01*
X8922D01*
Y8071D02*
Y8031D01*
Y8071D02*
X8962D01*
Y8031D01*
X8922D01*
Y7971D02*
Y7931D01*
Y7971D02*
X8962D01*
Y7931D01*
X8922D01*
Y7871D02*
Y7831D01*
Y7871D02*
X8962D01*
Y7831D01*
X8922D01*
X9222D02*
Y7871D01*
X9262D01*
Y7831D01*
X9222D01*
Y7931D02*
Y7971D01*
X9262D01*
Y7931D01*
X9222D01*
Y8031D02*
Y8071D01*
X9262D01*
Y8031D01*
X9222D01*
Y8131D02*
Y8171D01*
X9262D01*
Y8131D01*
X9222D01*
Y8231D02*
Y8271D01*
X9262D01*
Y8231D01*
X9222D01*
Y8331D02*
Y8371D01*
X9262D01*
Y8331D01*
X9222D01*
Y8431D02*
Y8471D01*
X9262D01*
Y8431D01*
X9222D01*
Y8531D02*
Y8571D01*
X9262D01*
Y8531D01*
X9222D01*
X8922Y8371D02*
Y8331D01*
Y8371D02*
X8962D01*
Y8331D01*
X8922D01*
Y8271D02*
Y8231D01*
Y8271D02*
X8962D01*
Y8231D01*
X8922D01*
X9272Y7721D02*
Y7681D01*
Y7721D02*
X9312D01*
Y7681D01*
X9272D01*
X8972D02*
Y7721D01*
X9012D01*
Y7681D01*
X8972D01*
X8822Y7171D02*
Y7131D01*
Y7171D02*
X8862D01*
Y7131D01*
X8822D01*
Y7531D02*
Y7571D01*
X8862D01*
Y7531D01*
X8822D01*
X9022Y7171D02*
Y7131D01*
Y7171D02*
X9062D01*
Y7131D01*
X9022D01*
Y7531D02*
Y7571D01*
X9062D01*
Y7531D01*
X9022D01*
X9472Y7521D02*
Y7481D01*
Y7521D02*
X9512D01*
Y7481D01*
X9472D01*
Y7581D02*
Y7621D01*
X9512D01*
Y7581D01*
X9472D01*
X8922Y7171D02*
Y7131D01*
Y7171D02*
X8962D01*
Y7131D01*
X8922D01*
Y7531D02*
Y7571D01*
X8962D01*
Y7531D01*
X8922D01*
X9622Y8531D02*
Y8571D01*
X9662D01*
Y8531D01*
X9622D01*
Y8631D02*
Y8671D01*
X9662D01*
Y8631D01*
X9622D01*
X9922Y8471D02*
Y8431D01*
Y8471D02*
X9962D01*
Y8431D01*
X9922D01*
Y8831D02*
Y8871D01*
X9962D01*
Y8831D01*
X9922D01*
X9722Y9081D02*
Y9121D01*
X9762D01*
Y9081D01*
X9722D01*
Y9021D02*
Y8981D01*
Y9021D02*
X9762D01*
Y8981D01*
X9722D01*
X8672Y8721D02*
Y8681D01*
Y8721D02*
X8712D01*
Y8681D01*
X8672D01*
X8372D02*
Y8721D01*
X8412D01*
Y8681D01*
X8372D01*
X9222D02*
Y8721D01*
X9262D01*
Y8681D01*
X9222D01*
X8922D02*
Y8721D01*
X8962D01*
Y8681D01*
X8922D01*
X11312Y6751D02*
X11311Y6744D01*
X11307Y6738D01*
X11302Y6734D01*
X11295Y6731D01*
X11289D01*
X11282Y6734D01*
X11277Y6738D01*
X11273Y6744D01*
X11272Y6751D01*
X11273Y6758D01*
X11277Y6764D01*
X11282Y6768D01*
X11289Y6771D01*
X11295D01*
X11302Y6768D01*
X11307Y6764D01*
X11311Y6758D01*
X11312Y6751D01*
X11612D02*
X11611Y6744D01*
X11607Y6738D01*
X11602Y6734D01*
X11595Y6731D01*
X11589D01*
X11582Y6734D01*
X11577Y6738D01*
X11573Y6744D01*
X11572Y6751D01*
X11573Y6758D01*
X11577Y6764D01*
X11582Y6768D01*
X11589Y6771D01*
X11595D01*
X11602Y6768D01*
X11607Y6764D01*
X11611Y6758D01*
X11612Y6751D01*
X11692Y7131D02*
X11672Y7171D01*
X11712D01*
X11692Y7131D01*
X11572Y6971D02*
X11592Y6931D01*
X11572Y6971D02*
X11612D01*
X11592Y6931D01*
X11462Y7251D02*
X11461Y7244D01*
X11457Y7238D01*
X11452Y7234D01*
X11445Y7231D01*
X11439D01*
X11432Y7234D01*
X11427Y7238D01*
X11423Y7244D01*
X11422Y7251D01*
X11423Y7258D01*
X11427Y7264D01*
X11432Y7268D01*
X11439Y7271D01*
X11445D01*
X11452Y7268D01*
X11457Y7264D01*
X11461Y7258D01*
X11462Y7251D01*
X11422Y6671D02*
X11442Y6631D01*
X11422Y6671D02*
X11462D01*
X11442Y6631D01*
X10312Y6751D02*
X10311Y6744D01*
X10307Y6738D01*
X10302Y6734D01*
X10295Y6731D01*
X10289D01*
X10282Y6734D01*
X10277Y6738D01*
X10273Y6744D01*
X10272Y6751D01*
X10273Y6758D01*
X10277Y6764D01*
X10282Y6768D01*
X10289Y6771D01*
X10295D01*
X10302Y6768D01*
X10307Y6764D01*
X10311Y6758D01*
X10312Y6751D01*
X10612D02*
X10611Y6744D01*
X10607Y6738D01*
X10602Y6734D01*
X10595Y6731D01*
X10589D01*
X10582Y6734D01*
X10577Y6738D01*
X10573Y6744D01*
X10572Y6751D01*
X10573Y6758D01*
X10577Y6764D01*
X10582Y6768D01*
X10589Y6771D01*
X10595D01*
X10602Y6768D01*
X10607Y6764D01*
X10611Y6758D01*
X10612Y6751D01*
X10692Y7131D02*
X10672Y7171D01*
X10712D01*
X10692Y7131D01*
X10572Y6971D02*
X10592Y6931D01*
X10572Y6971D02*
X10612D01*
X10592Y6931D01*
X10462Y7251D02*
X10461Y7244D01*
X10457Y7238D01*
X10452Y7234D01*
X10445Y7231D01*
X10439D01*
X10432Y7234D01*
X10427Y7238D01*
X10423Y7244D01*
X10422Y7251D01*
X10423Y7258D01*
X10427Y7264D01*
X10432Y7268D01*
X10439Y7271D01*
X10445D01*
X10452Y7268D01*
X10457Y7264D01*
X10461Y7258D01*
X10462Y7251D01*
X10422Y6671D02*
X10442Y6631D01*
X10422Y6671D02*
X10462D01*
X10442Y6631D01*
X11372Y7981D02*
Y8021D01*
X11412D01*
Y7981D01*
X11372D01*
X11572D02*
Y8021D01*
X11612D01*
Y7981D01*
X11572D01*
X11672D02*
Y8021D01*
X11712D01*
Y7981D01*
X11672D01*
Y8281D02*
Y8321D01*
X11712D01*
Y8281D01*
X11672D01*
X11572D02*
Y8321D01*
X11612D01*
Y8281D01*
X11572D01*
X11472D02*
Y8321D01*
X11512D01*
Y8281D01*
X11472D01*
X11372D02*
Y8321D01*
X11412D01*
Y8281D01*
X11372D01*
X11472Y8021D02*
Y7981D01*
Y8021D02*
X11512D01*
Y7981D01*
X11472D01*
X11222Y8281D02*
Y8321D01*
X11262D01*
Y8281D01*
X11222D01*
Y8021D02*
Y7981D01*
Y8021D02*
X11262D01*
Y7981D01*
X11222D01*
X11572Y7871D02*
Y7831D01*
Y7871D02*
X11612D01*
Y7831D01*
X11572D01*
Y7471D02*
Y7431D01*
Y7471D02*
X11612D01*
Y7431D01*
X11572D01*
X11472D02*
Y7471D01*
X11512D01*
Y7431D01*
X11472D01*
Y7831D02*
Y7871D01*
X11512D01*
Y7831D01*
X11472D01*
X11372D02*
Y7871D01*
X11412D01*
Y7831D01*
X11372D01*
Y7471D02*
Y7431D01*
Y7471D02*
X11412D01*
Y7431D01*
X11372D01*
X10364Y8431D02*
X10374Y8441D01*
X10384D01*
X10374Y8451D01*
X10384Y8461D01*
X10374D01*
X10364Y8471D01*
X10354Y8461D01*
X10344D01*
X10354Y8451D01*
X10344Y8441D01*
X10354D01*
X10364Y8431D01*
X10676D02*
X10686Y8441D01*
X10696D01*
X10686Y8451D01*
X10696Y8461D01*
X10686D01*
X10676Y8471D01*
X10666Y8461D01*
X10656D01*
X10666Y8451D01*
X10656Y8441D01*
X10666D01*
X10676Y8431D01*
X10218Y8441D02*
X10208Y8431D01*
X10218Y8441D02*
X10228D01*
X10218Y8451D01*
X10228Y8461D01*
X10218D01*
X10208Y8471D01*
X10198Y8461D01*
X10188D01*
X10198Y8451D01*
X10188Y8441D01*
X10198D01*
X10208Y8431D01*
X10520D02*
X10530Y8441D01*
X10540D01*
X10530Y8451D01*
X10540Y8461D01*
X10530D01*
X10520Y8471D01*
X10510Y8461D01*
X10500D01*
X10510Y8451D01*
X10500Y8441D01*
X10510D01*
X10520Y8431D01*
X10172Y7921D02*
Y7881D01*
Y7921D02*
X10212D01*
Y7881D01*
X10172D01*
Y8281D02*
Y8321D01*
X10212D01*
Y8281D01*
X10172D01*
X10582Y7651D02*
X10572Y7631D01*
X10582Y7651D02*
X10572Y7671D01*
X10592Y7661D01*
X10612Y7671D01*
X10602Y7651D01*
X10612Y7631D01*
X10592Y7641D01*
X10572Y7631D01*
X10522Y7681D02*
X10532Y7701D01*
X10522Y7721D01*
X10542Y7711D01*
X10562Y7721D01*
X10552Y7701D01*
X10562Y7681D01*
X10542Y7691D01*
X10522Y7681D01*
X10572Y7731D02*
X10582Y7751D01*
X10572Y7771D01*
X10592Y7761D01*
X10612Y7771D01*
X10602Y7751D01*
X10612Y7731D01*
X10592Y7741D01*
X10572Y7731D01*
X10722Y7881D02*
Y7921D01*
X10762D01*
Y7881D01*
X10722D01*
Y7521D02*
Y7481D01*
Y7521D02*
X10762D01*
Y7481D01*
X10722D01*
X10822D02*
Y7521D01*
X10862D01*
Y7481D01*
X10822D01*
Y7881D02*
Y7921D01*
X10862D01*
Y7881D01*
X10822D01*
X10297Y8281D02*
Y8321D01*
X10337D01*
Y8281D01*
X10297D01*
Y8021D02*
Y7981D01*
Y8021D02*
X10337D01*
Y7981D01*
X10297D01*
X10772Y8056D02*
Y8096D01*
X10812D01*
Y8056D01*
X10772D01*
Y8356D02*
Y8396D01*
X10812D01*
Y8356D01*
X10772D01*
X11472Y8431D02*
Y8471D01*
X11512D01*
Y8431D01*
X11472D01*
Y8831D02*
Y8871D01*
X11512D01*
Y8831D01*
X11472D01*
X11822Y8021D02*
Y7981D01*
Y8021D02*
X11862D01*
Y7981D01*
X11822D01*
Y8281D02*
Y8321D01*
X11862D01*
Y8281D01*
X11822D01*
Y8831D02*
Y8871D01*
X11862D01*
Y8831D01*
X11822D01*
Y8471D02*
Y8431D01*
Y8471D02*
X11862D01*
Y8431D01*
X11822D01*
X11672D02*
Y8471D01*
X11712D01*
Y8431D01*
X11672D01*
Y8831D02*
Y8871D01*
X11712D01*
Y8831D01*
X11672D01*
X11772Y9481D02*
X11782Y9501D01*
X11772Y9521D01*
X11792Y9511D01*
X11812Y9521D01*
X11802Y9501D01*
X11812Y9481D01*
X11792Y9491D01*
X11772Y9481D01*
Y9681D02*
Y9721D01*
X11812D01*
Y9681D01*
X11772D01*
X11792Y9881D02*
X11772Y9921D01*
X11812D01*
X11792Y9881D01*
Y10081D02*
X11802Y10091D01*
X11812D01*
X11802Y10101D01*
X11812Y10111D01*
X11802D01*
X11792Y10121D01*
X11782Y10111D01*
X11772D01*
X11782Y10101D01*
X11772Y10091D01*
X11782D01*
X11792Y10081D01*
X11812Y10301D02*
X11811Y10294D01*
X11807Y10288D01*
X11802Y10284D01*
X11795Y10281D01*
X11789D01*
X11782Y10284D01*
X11777Y10288D01*
X11773Y10294D01*
X11772Y10301D01*
X11773Y10308D01*
X11777Y10314D01*
X11782Y10318D01*
X11789Y10321D01*
X11795D01*
X11802Y10318D01*
X11807Y10314D01*
X11811Y10308D01*
X11812Y10301D01*
D13*
X8109Y9851D02*
X8042D01*
X8109Y9918D01*
Y9934D01*
X8092Y9951D01*
X8059D01*
X8042Y9934D01*
X8142D02*
X8159Y9951D01*
X8192D01*
X8209Y9934D01*
Y9868D01*
X8192Y9851D01*
X8159D01*
X8142Y9868D01*
Y9934D01*
X8242D02*
X8259Y9951D01*
X8292D01*
X8309Y9934D01*
Y9868D01*
X8292Y9851D01*
X8259D01*
X8242Y9868D01*
Y9934D01*
X8342Y9901D02*
X8409D01*
X8442Y9851D02*
X8475D01*
X8459D01*
Y9951D01*
X8460D01*
X8459D02*
X8442Y9934D01*
X8525D02*
X8542Y9951D01*
X8575D01*
X8592Y9934D01*
Y9868D01*
X8575Y9851D01*
X8542D01*
X8525Y9868D01*
Y9934D01*
X8625Y9851D02*
X8692D01*
X8625D02*
X8692Y9918D01*
Y9934D01*
X8675Y9951D01*
X8642D01*
X8625Y9934D01*
X8725Y9951D02*
X8792D01*
X8725D02*
Y9901D01*
X8758Y9918D01*
X8775D01*
X8792Y9901D01*
Y9868D01*
X8775Y9851D01*
X8742D01*
X8725Y9868D01*
X8825Y9901D02*
X8892D01*
X8925Y9934D02*
X8942Y9951D01*
X8975D01*
X8992Y9934D01*
Y9868D01*
X8975Y9851D01*
X8942D01*
X8925Y9868D01*
Y9934D01*
X9058D02*
X9092Y9951D01*
X9058Y9934D02*
X9025Y9901D01*
Y9868D01*
X9042Y9851D01*
X9075D01*
X9092Y9868D01*
Y9884D01*
X9075Y9901D01*
X9025D01*
X9225Y9851D02*
Y9951D01*
X9275D01*
X9292Y9934D01*
Y9901D01*
X9275Y9884D01*
X9225D01*
X9258D02*
X9292Y9851D01*
X9325Y9951D02*
X9392D01*
X9325D02*
Y9851D01*
X9392D01*
X9358Y9901D02*
X9325D01*
X9425Y9884D02*
Y9951D01*
Y9884D02*
X9458Y9851D01*
X9492Y9884D01*
Y9951D01*
X9625D02*
Y9851D01*
X9691D02*
X9625Y9951D01*
X9691D02*
Y9851D01*
X9791Y9934D02*
X9775Y9951D01*
X9741D01*
X9725Y9934D01*
Y9868D01*
X9741Y9851D01*
X9775D01*
X9791Y9868D01*
X9925Y9951D02*
X9991D01*
X9925D02*
Y9901D01*
X9958D01*
X9925D01*
Y9851D01*
X10025D02*
Y9918D01*
X10058Y9951D01*
X10091Y9918D01*
Y9851D01*
Y9901D01*
X10025D01*
X10125Y9851D02*
Y9951D01*
Y9851D02*
X10175D01*
X10191Y9868D01*
Y9884D01*
X10175Y9901D01*
X10125D01*
X10126D01*
X10125D02*
X10126D01*
X10125D02*
X10126D01*
X10125D02*
X10175D01*
X10191Y9918D01*
Y9934D01*
X10175Y9951D01*
X10125D01*
X10325D02*
Y9851D01*
X10375D01*
X10391Y9868D01*
Y9934D01*
X10375Y9951D01*
X10325D01*
X10425D02*
Y9851D01*
Y9951D02*
X10475D01*
X10491Y9934D01*
Y9901D01*
X10475Y9884D01*
X10425D01*
X10458D02*
X10491Y9851D01*
X10525D02*
Y9918D01*
X10558Y9951D01*
X10591Y9918D01*
Y9851D01*
Y9901D01*
X10525D01*
X10624Y9851D02*
Y9951D01*
X10658Y9884D02*
X10624Y9851D01*
X10658Y9884D02*
X10691Y9851D01*
Y9951D01*
X10724D02*
X10758D01*
X10741D01*
Y9851D01*
X10724D01*
X10758D01*
X10808D02*
Y9951D01*
X10874Y9851D01*
Y9951D01*
X10958D02*
X10974Y9934D01*
X10958Y9951D02*
X10924D01*
X10908Y9934D01*
Y9868D01*
X10924Y9851D01*
X10958D01*
X10974Y9868D01*
Y9901D01*
X10941D01*
X7609Y8014D02*
Y7974D01*
Y8014D02*
X7649Y7974D01*
X7659D01*
X7669Y7984D01*
Y8004D01*
X7659Y8014D01*
X7669Y7954D02*
Y7914D01*
X7659D01*
X7619Y7954D01*
X7609D01*
X7669Y7894D02*
Y7854D01*
Y7894D02*
X7639D01*
X7649Y7874D01*
Y7864D01*
X7639Y7854D01*
X7619D01*
X7609Y7864D01*
Y7884D01*
X7619Y7894D01*
X7659Y7834D02*
X7669Y7824D01*
Y7804D01*
X7659Y7794D01*
X7619D01*
X7609Y7804D01*
Y7824D01*
X7619Y7834D01*
X7659D01*
X7649Y7774D02*
X7609D01*
X7649D02*
Y7764D01*
X7639Y7754D01*
X7609D01*
X7639D01*
X7649Y7744D01*
X7639Y7734D01*
X7609D01*
Y7714D02*
Y7694D01*
Y7704D01*
X7649D01*
Y7714D01*
X7669Y7704D02*
X7670D01*
X7609Y7664D02*
Y7645D01*
Y7655D01*
X7669D01*
Y7664D01*
X9784Y6128D02*
Y6068D01*
X9754Y6098D02*
X9784Y6128D01*
X9794Y6098D02*
X9754D01*
X9814Y6118D02*
X9824Y6128D01*
X9844D01*
X9854Y6118D01*
Y6078D01*
X9844Y6068D01*
X9824D01*
X9814Y6078D01*
Y6118D01*
X9874D02*
X9884Y6128D01*
X9904D01*
X9914Y6118D01*
Y6078D01*
X9904Y6068D01*
X9884D01*
X9874Y6078D01*
Y6118D01*
X9934D02*
X9944Y6128D01*
X9964D01*
X9974Y6118D01*
Y6078D01*
X9964Y6068D01*
X9944D01*
X9934Y6078D01*
Y6118D01*
X9994Y6108D02*
Y6068D01*
Y6108D02*
X10004D01*
X10014Y6098D01*
Y6068D01*
Y6098D01*
X10024Y6108D01*
X10034Y6098D01*
Y6068D01*
X10054D02*
X10074D01*
X10064D01*
Y6108D01*
X10054D01*
X10064Y6128D02*
X10065D01*
X10104Y6068D02*
X10123D01*
X10113D01*
Y6128D01*
X10104D01*
X11942Y9201D02*
X7942D01*
Y6451D02*
X11942D01*
X7942D02*
Y9201D01*
X11942D02*
Y6451D01*
X12114Y9551D02*
X12166D01*
X12138Y9513D01*
X12152D01*
X12162Y9508D01*
X12166Y9503D01*
X12171Y9489D01*
Y9480D01*
X12166Y9465D01*
X12157Y9456D01*
X12143Y9451D01*
X12128D01*
X12114Y9456D01*
X12109Y9461D01*
X12104Y9470D01*
X12895Y9551D02*
X12948D01*
X12919Y9513D01*
X12933D01*
X12943Y9508D01*
X12948Y9503D01*
X12952Y9489D01*
Y9480D01*
X12948Y9465D01*
X12938Y9456D01*
X12924Y9451D01*
X12910D01*
X12895Y9456D01*
X12891Y9461D01*
X12886Y9470D01*
X12980Y9527D02*
Y9532D01*
X12984Y9541D01*
X12989Y9546D01*
X12999Y9551D01*
X13018D01*
X13027Y9546D01*
X13032Y9541D01*
X13037Y9532D01*
Y9522D01*
X13032Y9513D01*
X13022Y9499D01*
X12975Y9451D01*
X13041D01*
X13064D02*
Y9518D01*
X13078Y9513D02*
X13064Y9499D01*
X13078Y9513D02*
X13088Y9518D01*
X13102D01*
X13111Y9513D01*
X13116Y9499D01*
Y9451D01*
Y9499D02*
X13130Y9513D01*
X13140Y9518D01*
X13154D01*
X13164Y9513D01*
X13169Y9499D01*
Y9451D01*
X13214Y9546D02*
X13209Y9551D01*
X13214Y9546D02*
X13219Y9551D01*
X13214Y9556D01*
X13209Y9551D01*
X13214Y9518D02*
Y9451D01*
X13237D02*
Y9551D01*
X13994Y9546D02*
X14008Y9551D01*
X13994Y9546D02*
X13984Y9532D01*
X13980Y9508D01*
Y9494D01*
X13984Y9470D01*
X13994Y9456D01*
X14008Y9451D01*
X14018D01*
X14032Y9456D01*
X14041Y9470D01*
X14046Y9494D01*
Y9508D01*
X14041Y9532D01*
X14032Y9546D01*
X14018Y9551D01*
X14008D01*
X14073Y9461D02*
X14069Y9456D01*
X14073Y9451D01*
X14078Y9456D01*
X14073Y9461D01*
X14109Y9546D02*
X14124Y9551D01*
X14109Y9546D02*
X14105Y9537D01*
Y9527D01*
X14109Y9518D01*
X14119Y9513D01*
X14138Y9508D01*
X14152Y9503D01*
X14162Y9494D01*
X14167Y9484D01*
Y9470D01*
X14162Y9461D01*
X14157Y9456D01*
X14143Y9451D01*
X14124D01*
X14109Y9456D01*
X14105Y9461D01*
X14100Y9470D01*
Y9484D01*
X14105Y9494D01*
X14114Y9503D01*
X14129Y9508D01*
X14148Y9513D01*
X14157Y9518D01*
X14162Y9527D01*
Y9537D01*
X14157Y9546D01*
X14143Y9551D01*
X14124D01*
X14189Y9532D02*
X14199Y9537D01*
X14213Y9551D01*
Y9451D01*
X14267Y9527D02*
Y9532D01*
X14272Y9541D01*
X14277Y9546D01*
X14286Y9551D01*
X14305D01*
X14315Y9546D01*
X14319Y9541D01*
X14324Y9532D01*
Y9522D01*
X14319Y9513D01*
X14310Y9499D01*
X14262Y9451D01*
X14329D01*
X14361Y9546D02*
X14375Y9551D01*
X14361Y9546D02*
X14356Y9537D01*
Y9527D01*
X14361Y9518D01*
X14370Y9513D01*
X14389Y9508D01*
X14404Y9503D01*
X14413Y9494D01*
X14418Y9484D01*
Y9470D01*
X14413Y9461D01*
X14408Y9456D01*
X14394Y9451D01*
X14375D01*
X14361Y9456D01*
X14356Y9461D01*
X14351Y9470D01*
Y9484D01*
X14356Y9494D01*
X14366Y9503D01*
X14380Y9508D01*
X14399Y9513D01*
X14408Y9518D01*
X14413Y9527D01*
Y9537D01*
X14408Y9546D01*
X14394Y9551D01*
X14375D01*
X14440Y9518D02*
Y9451D01*
Y9499D02*
X14455Y9513D01*
X14464Y9518D01*
X14478D01*
X14488Y9513D01*
X14493Y9499D01*
Y9451D01*
Y9499D02*
X14507Y9513D01*
X14517Y9518D01*
X14531D01*
X14540Y9513D01*
X14545Y9499D01*
Y9451D01*
X14577D02*
Y9518D01*
X14591Y9513D02*
X14577Y9499D01*
X14591Y9513D02*
X14600Y9518D01*
X14615D01*
X14624Y9513D01*
X14629Y9499D01*
Y9451D01*
Y9499D02*
X14643Y9513D01*
X14653Y9518D01*
X14667D01*
X14676Y9513D01*
X14681Y9499D01*
Y9451D01*
X12114Y9737D02*
X12104Y9732D01*
X12114Y9737D02*
X12128Y9751D01*
Y9651D01*
X12178Y9732D02*
X12187Y9737D01*
X12202Y9751D01*
Y9651D01*
X12308Y9737D02*
X12304Y9746D01*
X12289Y9751D01*
X12280D01*
X12265Y9746D01*
X12256Y9732D01*
X12251Y9708D01*
Y9684D01*
X12256Y9665D01*
X12265Y9656D01*
X12280Y9651D01*
X12284D01*
X12299Y9656D01*
X12308Y9665D01*
X12313Y9680D01*
Y9684D01*
X12308Y9699D01*
X12299Y9708D01*
X12284Y9713D01*
X12280D01*
X12265Y9708D01*
X12256Y9699D01*
X12251Y9684D01*
X12895Y9751D02*
X12948D01*
X12919Y9713D01*
X12933D01*
X12943Y9708D01*
X12948Y9703D01*
X12952Y9689D01*
Y9680D01*
X12948Y9665D01*
X12938Y9656D01*
X12924Y9651D01*
X12910D01*
X12895Y9656D01*
X12891Y9661D01*
X12886Y9670D01*
X13027Y9746D02*
X13032Y9737D01*
X13027Y9746D02*
X13013Y9751D01*
X13003D01*
X12989Y9746D01*
X12980Y9732D01*
X12975Y9708D01*
Y9684D01*
X12980Y9665D01*
X12989Y9656D01*
X13003Y9651D01*
X13008D01*
X13022Y9656D01*
X13032Y9665D01*
X13037Y9680D01*
Y9684D01*
X13032Y9699D01*
X13022Y9708D01*
X13008Y9713D01*
X13003D01*
X12989Y9708D01*
X12980Y9699D01*
X12975Y9684D01*
X13059Y9718D02*
Y9651D01*
Y9699D02*
X13073Y9713D01*
X13082Y9718D01*
X13097D01*
X13106Y9713D01*
X13111Y9699D01*
Y9651D01*
Y9699D02*
X13125Y9713D01*
X13135Y9718D01*
X13149D01*
X13159Y9713D01*
X13163Y9699D01*
Y9651D01*
X13209Y9746D02*
X13204Y9751D01*
X13209Y9746D02*
X13214Y9751D01*
X13209Y9756D01*
X13204Y9751D01*
X13209Y9718D02*
Y9651D01*
X13231D02*
Y9751D01*
X13994Y9746D02*
X14008Y9751D01*
X13994Y9746D02*
X13984Y9732D01*
X13980Y9708D01*
Y9694D01*
X13984Y9670D01*
X13994Y9656D01*
X14008Y9651D01*
X14018D01*
X14032Y9656D01*
X14041Y9670D01*
X14046Y9694D01*
Y9708D01*
X14041Y9732D01*
X14032Y9746D01*
X14018Y9751D01*
X14008D01*
X14073Y9661D02*
X14069Y9656D01*
X14073Y9651D01*
X14078Y9656D01*
X14073Y9661D01*
X14157Y9703D02*
X14162Y9718D01*
X14157Y9703D02*
X14148Y9694D01*
X14133Y9689D01*
X14129D01*
X14114Y9694D01*
X14105Y9703D01*
X14100Y9718D01*
Y9722D01*
X14105Y9737D01*
X14114Y9746D01*
X14129Y9751D01*
X14133D01*
X14148Y9746D01*
X14157Y9737D01*
X14162Y9718D01*
Y9694D01*
X14157Y9670D01*
X14148Y9656D01*
X14133Y9651D01*
X14124D01*
X14109Y9656D01*
X14105Y9665D01*
X14189Y9732D02*
X14199Y9737D01*
X14213Y9751D01*
Y9651D01*
X14262Y9684D02*
X14310Y9751D01*
X14334Y9684D02*
X14262D01*
X14310Y9651D02*
Y9751D01*
X14351Y9684D02*
X14399Y9751D01*
X14423Y9684D02*
X14351D01*
X14399Y9651D02*
Y9751D01*
X14440Y9718D02*
Y9651D01*
Y9699D02*
X14455Y9713D01*
X14464Y9718D01*
X14478D01*
X14488Y9713D01*
X14493Y9699D01*
Y9651D01*
Y9699D02*
X14507Y9713D01*
X14517Y9718D01*
X14531D01*
X14540Y9713D01*
X14545Y9699D01*
Y9651D01*
X14577D02*
Y9718D01*
X14591Y9713D02*
X14577Y9699D01*
X14591Y9713D02*
X14600Y9718D01*
X14615D01*
X14624Y9713D01*
X14629Y9699D01*
Y9651D01*
Y9699D02*
X14643Y9713D01*
X14653Y9718D01*
X14667D01*
X14676Y9713D01*
X14681Y9699D01*
Y9651D01*
X12114Y9937D02*
X12104Y9932D01*
X12114Y9937D02*
X12128Y9951D01*
Y9851D01*
X12183Y9927D02*
Y9932D01*
X12187Y9941D01*
X12192Y9946D01*
X12202Y9951D01*
X12221D01*
X12230Y9946D01*
X12235Y9941D01*
X12240Y9932D01*
Y9922D01*
X12235Y9913D01*
X12225Y9899D01*
X12178Y9851D01*
X12244D01*
X12938Y9946D02*
X12943Y9937D01*
X12938Y9946D02*
X12924Y9951D01*
X12914D01*
X12900Y9946D01*
X12891Y9932D01*
X12886Y9908D01*
Y9884D01*
X12891Y9865D01*
X12900Y9856D01*
X12914Y9851D01*
X12919D01*
X12933Y9856D01*
X12943Y9865D01*
X12948Y9880D01*
Y9884D01*
X12943Y9899D01*
X12933Y9908D01*
X12919Y9913D01*
X12914D01*
X12900Y9908D01*
X12891Y9899D01*
X12886Y9884D01*
X12984Y9946D02*
X12998Y9951D01*
X12984Y9946D02*
X12974Y9932D01*
X12970Y9908D01*
Y9894D01*
X12974Y9870D01*
X12984Y9856D01*
X12998Y9851D01*
X13008D01*
X13022Y9856D01*
X13031Y9870D01*
X13036Y9894D01*
Y9908D01*
X13031Y9932D01*
X13022Y9946D01*
X13008Y9951D01*
X12998D01*
X13059Y9918D02*
Y9851D01*
Y9899D02*
X13073Y9913D01*
X13082Y9918D01*
X13097D01*
X13106Y9913D01*
X13111Y9899D01*
Y9851D01*
Y9899D02*
X13125Y9913D01*
X13135Y9918D01*
X13149D01*
X13159Y9913D01*
X13163Y9899D01*
Y9851D01*
X13209Y9946D02*
X13204Y9951D01*
X13209Y9946D02*
X13214Y9951D01*
X13209Y9956D01*
X13204Y9951D01*
X13209Y9918D02*
Y9851D01*
X13231D02*
Y9951D01*
X13980Y9932D02*
X13989Y9937D01*
X14003Y9951D01*
Y9851D01*
X14053Y9856D02*
X14058Y9861D01*
X14053Y9856D02*
X14058Y9851D01*
X14062Y9856D01*
X14058Y9861D01*
X14094Y9951D02*
X14141D01*
X14094D02*
X14089Y9908D01*
X14094Y9913D01*
X14108Y9918D01*
X14122D01*
X14137Y9913D01*
X14146Y9903D01*
X14151Y9889D01*
Y9880D01*
X14146Y9865D01*
X14137Y9856D01*
X14122Y9851D01*
X14108D01*
X14094Y9856D01*
X14089Y9861D01*
X14084Y9870D01*
X14178Y9927D02*
Y9932D01*
X14183Y9941D01*
X14188Y9946D01*
X14197Y9951D01*
X14216D01*
X14226Y9946D01*
X14230Y9941D01*
X14235Y9932D01*
Y9922D01*
X14230Y9913D01*
X14221Y9899D01*
X14173Y9851D01*
X14240D01*
X14262Y9884D02*
X14310Y9951D01*
X14334Y9884D02*
X14262D01*
X14310Y9851D02*
Y9951D01*
X14351Y9918D02*
Y9851D01*
Y9899D02*
X14366Y9913D01*
X14375Y9918D01*
X14389D01*
X14399Y9913D01*
X14404Y9899D01*
Y9851D01*
Y9899D02*
X14418Y9913D01*
X14427Y9918D01*
X14442D01*
X14451Y9913D01*
X14456Y9899D01*
Y9851D01*
X14487D02*
Y9918D01*
X14502Y9913D02*
X14487Y9899D01*
X14502Y9913D02*
X14511Y9918D01*
X14526D01*
X14535Y9913D01*
X14540Y9899D01*
Y9851D01*
Y9899D02*
X14554Y9913D01*
X14564Y9918D01*
X14578D01*
X14587Y9913D01*
X14592Y9899D01*
Y9851D01*
X12152Y10151D02*
X12104Y10084D01*
X12176D01*
X12152Y10051D02*
Y10151D01*
X12905Y10051D02*
X12952Y10151D01*
X12886D01*
X12989Y10146D02*
X13003Y10151D01*
X12989Y10146D02*
X12980Y10132D01*
X12975Y10108D01*
Y10094D01*
X12980Y10070D01*
X12989Y10056D01*
X13003Y10051D01*
X13013D01*
X13027Y10056D01*
X13037Y10070D01*
X13041Y10094D01*
Y10108D01*
X13037Y10132D01*
X13027Y10146D01*
X13013Y10151D01*
X13003D01*
X13064Y10118D02*
Y10051D01*
Y10099D02*
X13078Y10113D01*
X13088Y10118D01*
X13102D01*
X13111Y10113D01*
X13116Y10099D01*
Y10051D01*
Y10099D02*
X13130Y10113D01*
X13140Y10118D01*
X13154D01*
X13164Y10113D01*
X13169Y10099D01*
Y10051D01*
X13214Y10146D02*
X13209Y10151D01*
X13214Y10146D02*
X13219Y10151D01*
X13214Y10156D01*
X13209Y10151D01*
X13214Y10118D02*
Y10051D01*
X13237D02*
Y10151D01*
X13980Y10132D02*
X13989Y10137D01*
X14003Y10151D01*
Y10051D01*
X14053Y10056D02*
X14058Y10061D01*
X14053Y10056D02*
X14058Y10051D01*
X14062Y10056D01*
X14058Y10061D01*
X14103Y10051D02*
X14151Y10151D01*
X14084D01*
X14192Y10051D02*
X14240Y10151D01*
X14173D01*
X14272Y10146D02*
X14286Y10151D01*
X14272Y10146D02*
X14267Y10137D01*
Y10127D01*
X14272Y10118D01*
X14281Y10113D01*
X14300Y10108D01*
X14315Y10103D01*
X14324Y10094D01*
X14329Y10084D01*
Y10070D01*
X14324Y10061D01*
X14319Y10056D01*
X14305Y10051D01*
X14286D01*
X14272Y10056D01*
X14267Y10061D01*
X14262Y10070D01*
Y10084D01*
X14267Y10094D01*
X14277Y10103D01*
X14291Y10108D01*
X14310Y10113D01*
X14319Y10118D01*
X14324Y10127D01*
Y10137D01*
X14319Y10146D01*
X14305Y10151D01*
X14286D01*
X14351Y10118D02*
Y10051D01*
Y10099D02*
X14366Y10113D01*
X14375Y10118D01*
X14389D01*
X14399Y10113D01*
X14404Y10099D01*
Y10051D01*
Y10099D02*
X14418Y10113D01*
X14427Y10118D01*
X14442D01*
X14451Y10113D01*
X14456Y10099D01*
Y10051D01*
X14487D02*
Y10118D01*
X14502Y10113D02*
X14487Y10099D01*
X14502Y10113D02*
X14511Y10118D01*
X14526D01*
X14535Y10113D01*
X14540Y10099D01*
Y10051D01*
Y10099D02*
X14554Y10113D01*
X14564Y10118D01*
X14578D01*
X14587Y10113D01*
X14592Y10099D01*
Y10051D01*
X12114Y10337D02*
X12104Y10332D01*
X12114Y10337D02*
X12128Y10351D01*
Y10251D01*
X12183Y10327D02*
Y10332D01*
X12187Y10341D01*
X12192Y10346D01*
X12202Y10351D01*
X12221D01*
X12230Y10346D01*
X12235Y10341D01*
X12240Y10332D01*
Y10322D01*
X12235Y10313D01*
X12225Y10299D01*
X12178Y10251D01*
X12244D01*
X12943Y10303D02*
X12948Y10318D01*
X12943Y10303D02*
X12933Y10294D01*
X12919Y10289D01*
X12914D01*
X12900Y10294D01*
X12891Y10303D01*
X12886Y10318D01*
Y10322D01*
X12891Y10337D01*
X12900Y10346D01*
X12914Y10351D01*
X12919D01*
X12933Y10346D01*
X12943Y10337D01*
X12948Y10318D01*
Y10294D01*
X12943Y10270D01*
X12933Y10256D01*
X12919Y10251D01*
X12910D01*
X12895Y10256D01*
X12891Y10265D01*
X12984Y10351D02*
X13032D01*
X12984D02*
X12980Y10308D01*
X12984Y10313D01*
X12999Y10318D01*
X13013D01*
X13027Y10313D01*
X13037Y10303D01*
X13041Y10289D01*
Y10280D01*
X13037Y10265D01*
X13027Y10256D01*
X13013Y10251D01*
X12999D01*
X12984Y10256D01*
X12980Y10261D01*
X12975Y10270D01*
X13064Y10251D02*
Y10318D01*
X13078Y10313D02*
X13064Y10299D01*
X13078Y10313D02*
X13088Y10318D01*
X13102D01*
X13111Y10313D01*
X13116Y10299D01*
Y10251D01*
Y10299D02*
X13130Y10313D01*
X13140Y10318D01*
X13154D01*
X13164Y10313D01*
X13169Y10299D01*
Y10251D01*
X13214Y10346D02*
X13209Y10351D01*
X13214Y10346D02*
X13219Y10351D01*
X13214Y10356D01*
X13209Y10351D01*
X13214Y10318D02*
Y10251D01*
X13237D02*
Y10351D01*
X13984Y10332D02*
Y10327D01*
Y10332D02*
X13989Y10341D01*
X13994Y10346D01*
X14003Y10351D01*
X14022D01*
X14032Y10346D01*
X14037Y10341D01*
X14041Y10332D01*
Y10322D01*
X14037Y10313D01*
X14027Y10299D01*
X13980Y10251D01*
X14046D01*
X14069Y10256D02*
X14073Y10261D01*
X14069Y10256D02*
X14073Y10251D01*
X14078Y10256D01*
X14073Y10261D01*
X14100Y10284D02*
X14148Y10351D01*
X14171Y10284D02*
X14100D01*
X14148Y10251D02*
Y10351D01*
X14189Y10332D02*
X14199Y10337D01*
X14213Y10351D01*
Y10251D01*
X14272Y10351D02*
X14324D01*
X14296Y10313D01*
X14310D01*
X14319Y10308D01*
X14324Y10303D01*
X14329Y10289D01*
Y10280D01*
X14324Y10265D01*
X14315Y10256D01*
X14300Y10251D01*
X14286D01*
X14272Y10256D01*
X14267Y10261D01*
X14262Y10270D01*
X14351Y10251D02*
Y10318D01*
X14366Y10313D02*
X14351Y10299D01*
X14366Y10313D02*
X14375Y10318D01*
X14389D01*
X14399Y10313D01*
X14404Y10299D01*
Y10251D01*
Y10299D02*
X14418Y10313D01*
X14427Y10318D01*
X14442D01*
X14451Y10313D01*
X14456Y10299D01*
Y10251D01*
X14487D02*
Y10318D01*
X14502Y10313D02*
X14487Y10299D01*
X14502Y10313D02*
X14511Y10318D01*
X14526D01*
X14535Y10313D01*
X14540Y10299D01*
Y10251D01*
Y10299D02*
X14554Y10313D01*
X14564Y10318D01*
X14578D01*
X14587Y10313D01*
X14592Y10299D01*
Y10251D01*
X12114Y9337D02*
X12104Y9332D01*
X12114Y9337D02*
X12128Y9351D01*
Y9251D01*
X12178Y9284D02*
X12225Y9351D01*
X12249Y9284D02*
X12178D01*
X12225Y9251D02*
Y9351D01*
X12333D02*
X12286Y9251D01*
X12267Y9351D02*
X12333D01*
X12919D02*
Y9251D01*
X12886Y9351D02*
X12952D01*
X12979Y9313D02*
X12988Y9318D01*
X12979Y9313D02*
X12969Y9303D01*
X12964Y9289D01*
Y9280D01*
X12969Y9265D01*
X12979Y9256D01*
X12988Y9251D01*
X13002D01*
X13012Y9256D01*
X13021Y9265D01*
X13026Y9280D01*
Y9289D01*
X13021Y9303D01*
X13012Y9313D01*
X13002Y9318D01*
X12988D01*
X13062Y9351D02*
Y9270D01*
X13067Y9256D01*
X13077Y9251D01*
X13086D01*
X13081Y9318D02*
X13048D01*
X13158D02*
Y9251D01*
Y9303D02*
X13148Y9313D01*
X13139Y9318D01*
X13124D01*
X13115Y9313D01*
X13105Y9303D01*
X13100Y9289D01*
Y9280D01*
X13105Y9265D01*
X13115Y9256D01*
X13124Y9251D01*
X13139D01*
X13148Y9256D01*
X13158Y9265D01*
X13184Y9251D02*
Y9351D01*
D14*
X7692Y6451D02*
X7592D01*
Y9201D02*
X7692D01*
X10140Y6101D02*
X11942D01*
X9744D02*
X7942D01*
X7642Y6451D02*
Y7628D01*
Y8024D02*
Y9201D01*
X11942Y6151D02*
Y6051D01*
X7942D02*
Y6151D01*
X7642Y6451D02*
X7620Y6518D01*
X7664D02*
X7642Y6451D01*
X7620Y9134D02*
X7642Y9201D01*
X7664Y9134D01*
X11875Y6079D02*
X11942Y6101D01*
X11875Y6123D01*
X8009Y6079D02*
X7942Y6101D01*
X8009Y6123D01*
D02*
M02*
