M71
M48
T1F00S00C0.032
T2F00S00C0.036
T3F00S00C0.060
T4F00S00C0.070
T5F00S00C0.095
%
T01
X0265Y012
X026Y0125
X0265Y013
T02
X039Y0155
Y0185
Y02
Y024
X0375Y0185
X0365
X0355
X0345
X033
Y0155
X0345
X0355
X0365
X0375
X0365Y014
X0355
X0345
X0355Y017
Y01
X0365
X0345
X029Y0105
X028
Y0145
X029
X0285Y01625
Y01925
X02375Y0185
X0225
Y0145
X02375Y0155
X021
X02
X019
X018
X017
X016
Y014
X017
X018
X019
X016Y013
X0155Y0115
Y0105
X017Y01
X018
X019
X0135Y0125
X013Y014
Y015
Y016
Y017
Y018
Y019
Y02
Y021
X0115Y02
X01
Y021
Y019
Y018
Y017
Y016
Y015
Y014
X0105Y0125
X011Y011
X01
X009
Y007
X01
X011
X0115Y017
X016Y0185
X017
X018
X019
X02
X021
X019Y02
X018
Y024
X019
X0065Y021
X0075
Y02
Y019
Y018
Y017
Y016
Y015
Y014
X0045
Y015
Y016
Y017
Y018
Y019
Y02
Y021
X003Y0195
Y0155
X0045Y0225
X0075
X01
X013
X017Y022
Y021
X02Y02
Y024
X018Y0255
Y0265
X0355Y024
Y02
X0375
Y024
T03
X005Y002
X0065Y005
X0075Y007
X0175
X0165Y005
X015Y002
X025
X0265Y005
X0275Y007
X0375
X0365Y005
X035Y002
T04
X02266Y02
X02422
X02578
X02734
T05
X0035Y003
X0065
X005Y008
X015
X0135Y003
X0165
X0235
X0265
X025Y008
X035
X0335Y003
X0365
M30
