*%FSLAX23Y23*%
*%MOIN*%
G01*
%ADD11C,0.007*%
%ADD12C,0.008*%
%ADD13C,0.010*%
%ADD14C,0.012*%
%ADD15C,0.020*%
%ADD16C,0.032*%
%ADD17C,0.032*%
%ADD18C,0.036*%
%ADD19C,0.036*%
%ADD20C,0.042*%
%ADD21C,0.050*%
%ADD22C,0.050*%
%ADD23C,0.052*%
%ADD24C,0.052*%
%ADD25C,0.055*%
%ADD26C,0.055*%
%ADD27C,0.056*%
%ADD28C,0.056*%
%ADD29C,0.060*%
%ADD30C,0.061*%
%ADD31C,0.061*%
%ADD32C,0.062*%
%ADD33C,0.062*%
%ADD34C,0.066*%
%ADD35C,0.068*%
%ADD36C,0.068*%
%ADD37C,0.070*%
%ADD38C,0.080*%
%ADD39C,0.090*%
%ADD40C,0.095*%
%ADD41C,0.100*%
%ADD42C,0.106*%
%ADD43C,0.115*%
%ADD44C,0.120*%
%ADD45C,0.125*%
%ADD46C,0.126*%
%ADD47C,0.131*%
%ADD48C,0.140*%
%ADD49C,0.150*%
%ADD50C,0.156*%
%ADD51C,0.160*%
%ADD52C,0.250*%
%ADD53R,0.062X0.062*%
%ADD54R,0.068X0.068*%
D13*
X6624Y11163D02*
X6657D01*
X6641D01*
Y11263D01*
X6642D01*
X6641D02*
X6624Y11246D01*
X6707D02*
X6724Y11263D01*
X6757D01*
X6774Y11246D01*
Y11180D01*
X6757Y11163D01*
X6724D01*
X6707Y11180D01*
Y11246D01*
X6807D02*
X6824Y11263D01*
X6857D01*
X6874Y11246D01*
Y11180D01*
X6857Y11163D01*
X6824D01*
X6807Y11180D01*
Y11246D01*
X6907Y11213D02*
X6974D01*
X7007Y11163D02*
X7041D01*
X7024D01*
Y11263D01*
X7025D01*
X7024D02*
X7007Y11246D01*
X7091D02*
X7107Y11263D01*
X7140D01*
X7157Y11246D01*
Y11180D01*
X7140Y11163D01*
X7107D01*
X7091Y11180D01*
Y11246D01*
X7240Y11263D02*
Y11163D01*
X7190Y11213D02*
X7240Y11263D01*
X7257Y11213D02*
X7190D01*
X7340Y11163D02*
Y11263D01*
X7290Y11213D01*
X7357D01*
X7390D02*
X7457D01*
X7490Y11246D02*
X7507Y11263D01*
X7540D01*
X7557Y11246D01*
Y11180D01*
X7540Y11163D01*
X7507D01*
X7490Y11180D01*
Y11246D01*
X7590D02*
X7607Y11263D01*
X7640D01*
X7657Y11246D01*
Y11230D01*
X7658D01*
X7657D02*
X7658D01*
X7657D02*
X7658D01*
X7657D02*
X7640Y11213D01*
X7624D01*
X7640D01*
X7657Y11196D01*
Y11180D01*
X7640Y11163D01*
X7607D01*
X7590Y11180D01*
X7690Y11163D02*
X7757Y11230D01*
X7790Y11246D02*
X7807Y11263D01*
X7840D01*
X7857Y11246D01*
Y11180D01*
X7840Y11163D01*
X7807D01*
X7790Y11180D01*
Y11246D01*
X7940Y11263D02*
Y11163D01*
X7890Y11213D02*
X7940Y11263D01*
X7957Y11213D02*
X7890D01*
X8090Y11163D02*
Y11263D01*
X8140D01*
X8157Y11246D01*
Y11213D01*
X8140Y11196D01*
X8090D01*
X8124D02*
X8157Y11163D01*
X8190Y11263D02*
X8257D01*
X8190D02*
Y11163D01*
X8257D01*
X8223Y11213D02*
X8190D01*
X8290Y11196D02*
Y11263D01*
Y11196D02*
X8323Y11163D01*
X8357Y11196D01*
Y11263D01*
X8490Y11230D02*
Y11163D01*
Y11230D02*
X8523Y11263D01*
X8557Y11230D01*
Y11163D01*
Y11213D01*
X8490D01*
X8740Y11263D02*
X8757Y11246D01*
X8740Y11263D02*
X8707D01*
X8690Y11246D01*
Y11180D01*
X8707Y11163D01*
X8740D01*
X8757Y11180D01*
X8790Y11263D02*
X8823D01*
X8807D01*
Y11163D01*
X8790D01*
X8823D01*
X8873D02*
Y11263D01*
X8923D01*
X8940Y11246D01*
Y11213D01*
X8923Y11196D01*
X8873D01*
X8907D02*
X8940Y11163D01*
X9040Y11246D02*
X9023Y11263D01*
X8990D01*
X8973Y11246D01*
Y11180D01*
X8990Y11163D01*
X9023D01*
X9040Y11180D01*
X9073D02*
Y11263D01*
Y11180D02*
X9090Y11163D01*
X9123D01*
X9140Y11180D01*
Y11263D01*
X9173D02*
X9206D01*
X9190D01*
Y11163D01*
X9173D01*
X9206D01*
X9256Y11263D02*
X9323D01*
X9290D01*
Y11163D01*
X9356D02*
X9423Y11230D01*
X9506Y11263D02*
X9523Y11246D01*
X9506Y11263D02*
X9473D01*
X9456Y11246D01*
Y11180D01*
X9473Y11163D01*
X9506D01*
X9523Y11180D01*
X9573Y11263D02*
X9606D01*
X9573D02*
X9556Y11246D01*
Y11180D01*
X9573Y11163D01*
X9606D01*
X9623Y11180D01*
Y11246D01*
X9606Y11263D01*
X9656D02*
Y11163D01*
X9690Y11230D02*
X9656Y11263D01*
X9690Y11230D02*
X9723Y11263D01*
Y11163D01*
X9756D02*
Y11263D01*
X9806D01*
X9823Y11246D01*
Y11213D01*
X9806Y11196D01*
X9756D01*
X9873Y11263D02*
X9906D01*
X9873D02*
X9856Y11246D01*
Y11180D01*
X9873Y11163D01*
X9906D01*
X9923Y11180D01*
Y11246D01*
X9906Y11263D01*
X9956D02*
Y11163D01*
X10023D02*
X9956Y11263D01*
X10023D02*
Y11163D01*
X10056Y11263D02*
X10123D01*
X10056D02*
Y11163D01*
X10123D01*
X10090Y11213D02*
X10056D01*
X10156Y11163D02*
Y11263D01*
X10223Y11163D01*
Y11263D01*
X10256D02*
X10323D01*
X10289D01*
Y11163D01*
X10506Y11263D02*
X10523Y11246D01*
X10506Y11263D02*
X10473D01*
X10456Y11246D01*
Y11230D01*
X10473Y11213D01*
X10506D01*
X10523Y11196D01*
Y11180D01*
X10506Y11163D01*
X10473D01*
X10456Y11180D01*
X10556Y11263D02*
X10589D01*
X10573D01*
Y11163D01*
X10556D01*
X10589D01*
X10639D02*
Y11263D01*
Y11163D02*
X10689D01*
X10706Y11180D01*
Y11246D01*
X10689Y11263D01*
X10639D01*
X10739D02*
X10806D01*
X10739D02*
Y11163D01*
X10806D01*
X10773Y11213D02*
X10739D01*
X10989Y11263D02*
X11006Y11246D01*
X10989Y11263D02*
X10956D01*
X10939Y11246D01*
Y11230D01*
X10956Y11213D01*
X10989D01*
X11006Y11196D01*
Y11180D01*
X10989Y11163D01*
X10956D01*
X10939Y11180D01*
X11056Y11263D02*
X11089D01*
X11056D02*
X11039Y11246D01*
Y11180D01*
X11056Y11163D01*
X11089D01*
X11106Y11180D01*
Y11246D01*
X11089Y11263D01*
X11139D02*
Y11163D01*
X11206D01*
X11239D02*
Y11263D01*
Y11163D02*
X11289D01*
X11306Y11180D01*
Y11246D01*
X11289Y11263D01*
X11239D01*
X11339D02*
X11406D01*
X11339D02*
Y11163D01*
X11406D01*
X11372Y11213D02*
X11339D01*
X11439Y11163D02*
Y11263D01*
X11489D01*
X11506Y11246D01*
Y11213D01*
X11489Y11196D01*
X11439D01*
X11472D02*
X11506Y11163D01*
X11639D02*
Y11263D01*
X11672Y11230D01*
X11706Y11263D01*
Y11163D01*
X11739D02*
Y11230D01*
X11772Y11263D01*
X11806Y11230D01*
Y11163D01*
Y11213D01*
X11739D01*
X11889Y11263D02*
X11906Y11246D01*
X11889Y11263D02*
X11856D01*
X11839Y11246D01*
Y11230D01*
X11856Y11213D01*
X11889D01*
X11906Y11196D01*
Y11180D01*
X11889Y11163D01*
X11856D01*
X11839Y11180D01*
X11939Y11163D02*
Y11263D01*
Y11196D02*
Y11163D01*
Y11196D02*
X12006Y11263D01*
X11956Y11213D01*
X12006Y11163D01*
X4799Y10788D02*
Y4788D01*
X14799D02*
Y10788D01*
X4799D01*
Y4788D02*
X14799D01*
D30*
X5849Y6038D02*
D03*
X5899Y5988D02*
D03*
X5949Y6038D02*
D03*
Y6138D02*
D03*
X5899Y6188D02*
D03*
X5849Y6138D02*
D03*
X6849Y7738D02*
D03*
X6899Y7688D02*
D03*
X6849Y7638D02*
D03*
X6606Y7672D02*
D03*
X6665Y7711D02*
D03*
X6626Y7770D02*
D03*
X6413Y7845D02*
D03*
X6440Y7779D02*
D03*
X6374Y7752D02*
D03*
X6163Y7876D02*
D03*
X6232Y7890D02*
D03*
X6219Y7960D02*
D03*
X6050Y8110D02*
D03*
Y8039D02*
D03*
X5980D02*
D03*
X5832Y8235D02*
D03*
X5901Y8221D02*
D03*
X5915Y8291D02*
D03*
X5817Y8494D02*
D03*
X5790Y8429D02*
D03*
X5725Y8456D02*
D03*
X5663Y8693D02*
D03*
X5722Y8654D02*
D03*
X5761Y8713D02*
D03*
X5749Y8938D02*
D03*
X5699Y8888D02*
D03*
X5649Y8938D02*
D03*
X6121Y9737D02*
D03*
X6050D02*
D03*
Y9807D02*
D03*
X5683Y9181D02*
D03*
X5722Y9122D02*
D03*
X5781Y9161D02*
D03*
X5856Y9374D02*
D03*
X5790Y9347D02*
D03*
X5763Y9413D02*
D03*
X5887Y9624D02*
D03*
X5901Y9555D02*
D03*
X5971Y9568D02*
D03*
X6246Y9955D02*
D03*
X6232Y9886D02*
D03*
X6302Y9872D02*
D03*
X6505Y9970D02*
D03*
X6440Y9997D02*
D03*
X6467Y10062D02*
D03*
X6704Y10124D02*
D03*
X6665Y10065D02*
D03*
X6724Y10026D02*
D03*
X6949Y10038D02*
D03*
X6899Y10088D02*
D03*
X6949Y10138D02*
D03*
X6999Y5288D02*
D03*
X6949Y5238D02*
D03*
X6999Y5188D02*
D03*
X7677Y8039D02*
D03*
X7748D02*
D03*
Y7969D02*
D03*
X8049Y8838D02*
D03*
X8099Y8888D02*
D03*
X8149Y8838D02*
D03*
X8115Y8595D02*
D03*
X8076Y8654D02*
D03*
X8017Y8615D02*
D03*
X7942Y8402D02*
D03*
X8008Y8429D02*
D03*
X8035Y8363D02*
D03*
X7911Y8152D02*
D03*
X7897Y8221D02*
D03*
X7827Y8208D02*
D03*
X7552Y7821D02*
D03*
X7566Y7890D02*
D03*
X7496Y7904D02*
D03*
X7293Y7806D02*
D03*
X7358Y7779D02*
D03*
X7331Y7714D02*
D03*
X7094Y7652D02*
D03*
X7133Y7711D02*
D03*
X7074Y7750D02*
D03*
X7192Y10104D02*
D03*
X7133Y10065D02*
D03*
X7172Y10006D02*
D03*
X7385Y9931D02*
D03*
X7358Y9997D02*
D03*
X7424Y10024D02*
D03*
X7635Y9900D02*
D03*
X7566Y9886D02*
D03*
X7579Y9816D02*
D03*
X7748Y9666D02*
D03*
Y9737D02*
D03*
X7818D02*
D03*
X7966Y9541D02*
D03*
X7897Y9555D02*
D03*
X7883Y9485D02*
D03*
X7981Y9282D02*
D03*
X8008Y9347D02*
D03*
X8073Y9320D02*
D03*
X8135Y9083D02*
D03*
X8076Y9122D02*
D03*
X8037Y9063D02*
D03*
X9149Y7188D02*
D03*
X9099Y7238D02*
D03*
X9049Y7188D02*
D03*
X9149Y7338D02*
D03*
X9099Y7388D02*
D03*
X9049Y7338D02*
D03*
X9149Y8138D02*
D03*
X9099Y8188D02*
D03*
X9049Y8138D02*
D03*
X9149Y8338D02*
D03*
X9099Y8388D02*
D03*
X9049Y8338D02*
D03*
X9149Y9138D02*
D03*
X9099Y9188D02*
D03*
X9049Y9138D02*
D03*
X9149Y9288D02*
D03*
X9099Y9338D02*
D03*
X9049Y9288D02*
D03*
X9149Y10138D02*
D03*
X9099Y10188D02*
D03*
X9049Y10138D02*
D03*
X9149Y10338D02*
D03*
X9099Y10388D02*
D03*
X9049Y10338D02*
D03*
D34*
X14649Y5663D02*
D03*
X14599Y5588D02*
D03*
X14724Y6088D02*
D03*
X14549Y5513D02*
D03*
X14499Y5438D02*
D03*
X14249Y4863D02*
D03*
X14299Y5388D02*
D03*
X14149Y5863D02*
D03*
X13999Y5813D02*
D03*
X14024Y5588D02*
D03*
X14099Y5638D02*
D03*
X14149Y7888D02*
D03*
X13974Y5663D02*
D03*
Y5988D02*
D03*
X13649Y7938D02*
D03*
Y7588D02*
D03*
X13699Y7838D02*
D03*
X13649Y10588D02*
D03*
Y9988D02*
D03*
X13674Y9888D02*
D03*
X13699Y9788D02*
D03*
X13724Y9688D02*
D03*
X13574Y8363D02*
D03*
X13349Y7038D02*
D03*
Y6538D02*
D03*
X13374Y6638D02*
D03*
X13349Y8888D02*
D03*
Y8788D02*
D03*
X13374Y8288D02*
D03*
X13274Y9513D02*
D03*
X13374Y9188D02*
D03*
X13074Y7288D02*
D03*
X12999Y6688D02*
D03*
X13099Y8788D02*
D03*
X12999Y7913D02*
D03*
Y7788D02*
D03*
X13099Y9038D02*
D03*
X12849Y7238D02*
D03*
X12924Y6888D02*
D03*
Y6788D02*
D03*
X12849Y8688D02*
D03*
Y8588D02*
D03*
Y8088D02*
D03*
X12874Y7738D02*
D03*
X12974Y8038D02*
D03*
X12824Y9688D02*
D03*
X12849Y9088D02*
D03*
X12949Y9188D02*
D03*
X12774Y7313D02*
D03*
X12699Y7438D02*
D03*
X12674Y8363D02*
D03*
X12749Y7938D02*
D03*
X12774Y7813D02*
D03*
X12799Y7688D02*
D03*
X12749Y9988D02*
D03*
X12774Y9888D02*
D03*
X12799Y9788D02*
D03*
X12474Y5788D02*
D03*
X12449Y7038D02*
D03*
Y6538D02*
D03*
X12499Y6638D02*
D03*
X12449Y8888D02*
D03*
X12499Y8288D02*
D03*
X12449Y8788D02*
D03*
X12474Y9188D02*
D03*
X12374Y9463D02*
D03*
X12024Y6888D02*
D03*
Y6788D02*
D03*
X12149Y7363D02*
D03*
X12199Y8788D02*
D03*
X12024Y7788D02*
D03*
X12124Y7988D02*
D03*
X12024Y8038D02*
D03*
Y9138D02*
D03*
X12199Y9038D02*
D03*
X11974Y6688D02*
D03*
X11849Y7813D02*
D03*
X11899Y8688D02*
D03*
X11949Y8763D02*
D03*
X11899Y8088D02*
D03*
X11849Y7688D02*
D03*
X11949Y7738D02*
D03*
X11824Y9888D02*
D03*
X11849Y9788D02*
D03*
X11874Y9688D02*
D03*
X11899Y9088D02*
D03*
X11724Y8263D02*
D03*
X11799Y7938D02*
D03*
Y7588D02*
D03*
Y9988D02*
D03*
X11499Y7038D02*
D03*
X11524Y6638D02*
D03*
X11499Y6538D02*
D03*
Y6838D02*
D03*
Y8888D02*
D03*
Y8788D02*
D03*
X11549Y7988D02*
D03*
Y8288D02*
D03*
X11449Y9463D02*
D03*
X11524Y9188D02*
D03*
X11624Y5588D02*
D03*
X11424Y5613D02*
D03*
X11249Y8788D02*
D03*
Y9038D02*
D03*
X11049Y8738D02*
D03*
Y8088D02*
D03*
X11124Y7738D02*
D03*
X11174Y8138D02*
D03*
Y7813D02*
D03*
X11049Y9138D02*
D03*
X10949Y5138D02*
D03*
X10899Y4838D02*
D03*
X10849Y6413D02*
D03*
X11024Y7688D02*
D03*
X10849Y9088D02*
D03*
X10749Y6363D02*
D03*
X10699Y6238D02*
D03*
X10799Y7688D02*
D03*
X10824Y8688D02*
D03*
X10499Y6188D02*
D03*
X10624D02*
D03*
X10349Y5913D02*
D03*
X10299Y6113D02*
D03*
X10424Y6138D02*
D03*
X10324Y8838D02*
D03*
X10349Y8538D02*
D03*
X10374Y7888D02*
D03*
X10274Y9938D02*
D03*
X10299Y9238D02*
D03*
X10099Y6438D02*
D03*
X10149Y6313D02*
D03*
X10224Y6063D02*
D03*
Y10538D02*
D03*
X10024Y6838D02*
D03*
X9899Y6488D02*
D03*
X9949Y6063D02*
D03*
X10049Y6513D02*
D03*
X9699Y6888D02*
D03*
Y7313D02*
D03*
Y8938D02*
D03*
Y8338D02*
D03*
Y7838D02*
D03*
X9724Y10338D02*
D03*
X9699Y9838D02*
D03*
Y9338D02*
D03*
X9649Y7388D02*
D03*
Y6788D02*
D03*
X9599Y7188D02*
D03*
Y6988D02*
D03*
X9549Y6213D02*
D03*
X9649Y6438D02*
D03*
X9499Y7013D02*
D03*
X9549Y7088D02*
D03*
Y7263D02*
D03*
X9599Y8788D02*
D03*
Y8188D02*
D03*
Y7788D02*
D03*
X9549Y8888D02*
D03*
Y8288D02*
D03*
Y7888D02*
D03*
X9499Y8988D02*
D03*
Y8488D02*
D03*
Y7988D02*
D03*
Y7488D02*
D03*
X9649Y7713D02*
D03*
Y8713D02*
D03*
Y8413D02*
D03*
Y10388D02*
D03*
X9599Y10188D02*
D03*
Y9788D02*
D03*
Y9188D02*
D03*
X9549Y10288D02*
D03*
Y9888D02*
D03*
Y9288D02*
D03*
X9499Y9988D02*
D03*
Y9488D02*
D03*
X9649Y9713D02*
D03*
Y9413D02*
D03*
X9324Y5488D02*
D03*
X9449Y6163D02*
D03*
Y8588D02*
D03*
Y7588D02*
D03*
Y8088D02*
D03*
Y9588D02*
D03*
Y10088D02*
D03*
Y9088D02*
D03*
X9199Y5888D02*
D03*
X9224Y5638D02*
D03*
X9199Y6938D02*
D03*
X9049Y5588D02*
D03*
X8899Y5363D02*
D03*
X9049Y6213D02*
D03*
X8699Y6663D02*
D03*
X8424Y5763D02*
D03*
X8399Y6613D02*
D03*
X8199Y7413D02*
D03*
X8149Y7338D02*
D03*
X8299Y6563D02*
D03*
X8199Y6513D02*
D03*
X8074Y7363D02*
D03*
X7649Y7163D02*
D03*
X7624Y9188D02*
D03*
X7549Y9230D02*
D03*
X7449Y7163D02*
D03*
Y6938D02*
D03*
X7499Y6663D02*
D03*
X7399Y6613D02*
D03*
X7299Y6563D02*
D03*
X7199Y6513D02*
D03*
X7149Y9813D02*
D03*
X7274Y9838D02*
D03*
X7099Y5688D02*
D03*
X6549Y5363D02*
D03*
X6699Y6663D02*
D03*
X6499Y6938D02*
D03*
X6399Y6613D02*
D03*
X6299Y5688D02*
D03*
Y6563D02*
D03*
X6199Y6513D02*
D03*
X6274Y8188D02*
D03*
X6199Y8113D02*
D03*
D35*
X5049Y7088D02*
D03*
Y6788D02*
D03*
X5199Y7088D02*
D03*
X5299D02*
D03*
X5399D02*
D03*
X5499D02*
D03*
X5599D02*
D03*
X5699D02*
D03*
X5799D02*
D03*
X5899D02*
D03*
Y6788D02*
D03*
X5799D02*
D03*
X5699D02*
D03*
X5599D02*
D03*
X5499D02*
D03*
X5399D02*
D03*
X5299D02*
D03*
X6299Y5538D02*
D03*
X6199Y5838D02*
D03*
X6299D02*
D03*
X6399D02*
D03*
X6499D02*
D03*
Y5538D02*
D03*
X6399D02*
D03*
X6099Y5838D02*
D03*
Y5538D02*
D03*
X6599D02*
D03*
Y5838D02*
D03*
X6699D02*
D03*
Y5538D02*
D03*
X6799Y5838D02*
D03*
X6899D02*
D03*
X6999D02*
D03*
X7099D02*
D03*
X7199D02*
D03*
X7299D02*
D03*
X7399D02*
D03*
X7499D02*
D03*
Y5538D02*
D03*
X7399D02*
D03*
X7299D02*
D03*
X7199D02*
D03*
X7099D02*
D03*
X6999D02*
D03*
X6899D02*
D03*
X6199Y4988D02*
D03*
Y5388D02*
D03*
X6499Y5088D02*
D03*
Y5288D02*
D03*
X6099Y5238D02*
D03*
Y5138D02*
D03*
X6299Y5388D02*
D03*
Y4988D02*
D03*
X6799D02*
D03*
Y5388D02*
D03*
X6399D02*
D03*
Y4988D02*
D03*
X6049Y7088D02*
D03*
Y6788D02*
D03*
X6597Y7368D02*
D03*
X6616Y7466D02*
D03*
X6899Y7438D02*
D03*
Y7338D02*
D03*
X6799Y6388D02*
D03*
Y5988D02*
D03*
X6899Y6388D02*
D03*
Y5988D02*
D03*
X6299Y6388D02*
D03*
Y5988D02*
D03*
X6199Y6388D02*
D03*
Y5988D02*
D03*
X6399Y6388D02*
D03*
Y5988D02*
D03*
X6099Y6238D02*
D03*
Y6138D02*
D03*
X6199Y7088D02*
D03*
X6299D02*
D03*
X6399D02*
D03*
X6499D02*
D03*
X6599D02*
D03*
X6699D02*
D03*
X6799D02*
D03*
X6899D02*
D03*
Y6788D02*
D03*
X6799D02*
D03*
X6699D02*
D03*
X6599D02*
D03*
X6499D02*
D03*
X6399D02*
D03*
X6299D02*
D03*
X6599Y8388D02*
D03*
X6699D02*
D03*
X6799D02*
D03*
X6899D02*
D03*
X6999D02*
D03*
X7099D02*
D03*
X7199D02*
D03*
X7299D02*
D03*
Y8088D02*
D03*
X7199D02*
D03*
X7099D02*
D03*
X6999D02*
D03*
X6899D02*
D03*
X6799D02*
D03*
X6699D02*
D03*
X5449Y8888D02*
D03*
X5349D02*
D03*
X5379Y8586D02*
D03*
X5477Y8605D02*
D03*
X5559Y8333D02*
D03*
X5467Y8295D02*
D03*
X5610Y8027D02*
D03*
X5693Y8082D02*
D03*
X5874Y7863D02*
D03*
X5803Y7792D02*
D03*
X6038Y7599D02*
D03*
X6093Y7682D02*
D03*
X6344Y7548D02*
D03*
X6306Y7456D02*
D03*
X6399Y9188D02*
D03*
Y9088D02*
D03*
Y8988D02*
D03*
Y8888D02*
D03*
Y8788D02*
D03*
Y8688D02*
D03*
Y8588D02*
D03*
Y8488D02*
D03*
X6099D02*
D03*
Y8588D02*
D03*
Y8688D02*
D03*
Y8788D02*
D03*
Y8888D02*
D03*
Y8988D02*
D03*
Y9088D02*
D03*
X5379Y9190D02*
D03*
X5477Y9171D02*
D03*
X6899Y10338D02*
D03*
Y10438D02*
D03*
X6597Y10408D02*
D03*
X6616Y10310D02*
D03*
X6344Y10228D02*
D03*
X6306Y10320D02*
D03*
X6038Y10177D02*
D03*
X6093Y10094D02*
D03*
X5874Y9913D02*
D03*
X5803Y9984D02*
D03*
X5610Y9749D02*
D03*
X5693Y9694D02*
D03*
X5559Y9443D02*
D03*
X5467Y9481D02*
D03*
X8299Y4988D02*
D03*
Y5388D02*
D03*
X7899Y5538D02*
D03*
X7799Y5838D02*
D03*
X7899D02*
D03*
X7999D02*
D03*
X8099D02*
D03*
Y5538D02*
D03*
X7999D02*
D03*
X8499D02*
D03*
X8399Y5838D02*
D03*
X8499D02*
D03*
X8599D02*
D03*
X8699D02*
D03*
Y5538D02*
D03*
X8599D02*
D03*
X7599D02*
D03*
Y5838D02*
D03*
X7699D02*
D03*
Y5538D02*
D03*
X8199D02*
D03*
Y5838D02*
D03*
X8299D02*
D03*
Y5538D02*
D03*
X8399Y5388D02*
D03*
Y4988D02*
D03*
X7799D02*
D03*
Y5388D02*
D03*
X7699D02*
D03*
Y4988D02*
D03*
X7899Y5388D02*
D03*
Y4988D02*
D03*
X7999Y5388D02*
D03*
Y4988D02*
D03*
X8099D02*
D03*
Y5388D02*
D03*
X7199Y4988D02*
D03*
Y5388D02*
D03*
X7099D02*
D03*
Y4988D02*
D03*
X7599Y5388D02*
D03*
Y4988D02*
D03*
X8399Y6388D02*
D03*
Y5988D02*
D03*
X8299Y6388D02*
D03*
Y5988D02*
D03*
X7049Y7088D02*
D03*
Y6788D02*
D03*
X8049Y7088D02*
D03*
Y6788D02*
D03*
X8199Y7088D02*
D03*
X8299D02*
D03*
X8399D02*
D03*
X8499D02*
D03*
X8599D02*
D03*
X8699D02*
D03*
X8799D02*
D03*
X8899D02*
D03*
Y6788D02*
D03*
X8799D02*
D03*
X8699D02*
D03*
X8599D02*
D03*
X8499D02*
D03*
X8399D02*
D03*
X8299D02*
D03*
X7201Y7368D02*
D03*
X7182Y7466D02*
D03*
X7199Y7088D02*
D03*
X7299D02*
D03*
X7399D02*
D03*
X7499D02*
D03*
X7599D02*
D03*
X7699D02*
D03*
X7799D02*
D03*
X7899D02*
D03*
Y6788D02*
D03*
X7799D02*
D03*
X7699D02*
D03*
X7599D02*
D03*
X7499D02*
D03*
X7399D02*
D03*
X7299D02*
D03*
X7699Y6388D02*
D03*
Y5988D02*
D03*
X7799Y6388D02*
D03*
Y5988D02*
D03*
X7899Y6388D02*
D03*
Y5988D02*
D03*
X7999Y6388D02*
D03*
Y5988D02*
D03*
X8099D02*
D03*
Y6388D02*
D03*
X8199D02*
D03*
Y5988D02*
D03*
X7399Y8588D02*
D03*
Y8688D02*
D03*
Y8788D02*
D03*
Y8888D02*
D03*
Y8988D02*
D03*
Y9088D02*
D03*
Y9188D02*
D03*
Y9288D02*
D03*
X7699D02*
D03*
Y9188D02*
D03*
Y9088D02*
D03*
Y8988D02*
D03*
Y8888D02*
D03*
Y8788D02*
D03*
Y8688D02*
D03*
X7454Y7548D02*
D03*
X7492Y7456D02*
D03*
X7760Y7599D02*
D03*
X7705Y7682D02*
D03*
X7924Y7863D02*
D03*
X7995Y7792D02*
D03*
X8188Y8027D02*
D03*
X8105Y8082D02*
D03*
X8239Y8333D02*
D03*
X8331Y8295D02*
D03*
X8419Y8586D02*
D03*
X8321Y8605D02*
D03*
X8349Y8888D02*
D03*
X8449D02*
D03*
X7199Y9388D02*
D03*
X7099D02*
D03*
X6999D02*
D03*
X6899D02*
D03*
X6799D02*
D03*
X6699D02*
D03*
X6599D02*
D03*
X6499D02*
D03*
Y9688D02*
D03*
X6599D02*
D03*
X6699D02*
D03*
X6799D02*
D03*
X6899D02*
D03*
X6999D02*
D03*
X7099D02*
D03*
X8419Y9190D02*
D03*
X8321Y9171D02*
D03*
X8239Y9443D02*
D03*
X8331Y9481D02*
D03*
X8188Y9749D02*
D03*
X8105Y9694D02*
D03*
X7924Y9913D02*
D03*
X7995Y9984D02*
D03*
X7760Y10177D02*
D03*
X7705Y10094D02*
D03*
X7454Y10228D02*
D03*
X7492Y10320D02*
D03*
X7201Y10408D02*
D03*
X7182Y10310D02*
D03*
X9799Y5288D02*
D03*
Y4888D02*
D03*
X8974Y5488D02*
D03*
Y5888D02*
D03*
X9299Y5988D02*
D03*
X9399D02*
D03*
X9499D02*
D03*
X9599D02*
D03*
X9699D02*
D03*
X9799D02*
D03*
X9899D02*
D03*
X9999D02*
D03*
X10099D02*
D03*
X10199D02*
D03*
Y5688D02*
D03*
X10099D02*
D03*
X9999D02*
D03*
X9899D02*
D03*
X9799D02*
D03*
X9699D02*
D03*
X9599D02*
D03*
X9499D02*
D03*
X9399D02*
D03*
X8799Y5538D02*
D03*
Y5838D02*
D03*
X8599Y5388D02*
D03*
Y4988D02*
D03*
X8499Y5388D02*
D03*
Y4988D02*
D03*
X9149Y5988D02*
D03*
Y5688D02*
D03*
X8999Y5988D02*
D03*
Y6388D02*
D03*
X8899D02*
D03*
Y5988D02*
D03*
X8499Y6388D02*
D03*
Y5988D02*
D03*
X8799D02*
D03*
Y6388D02*
D03*
X8649Y6038D02*
D03*
Y6338D02*
D03*
X9049Y7088D02*
D03*
Y6788D02*
D03*
X9299D02*
D03*
Y6888D02*
D03*
Y6988D02*
D03*
Y7088D02*
D03*
Y7188D02*
D03*
Y7288D02*
D03*
Y7388D02*
D03*
Y7488D02*
D03*
Y7588D02*
D03*
X9899D02*
D03*
Y7488D02*
D03*
Y7388D02*
D03*
Y7288D02*
D03*
Y7188D02*
D03*
Y7088D02*
D03*
Y6988D02*
D03*
Y6888D02*
D03*
X9249Y6588D02*
D03*
X9349D02*
D03*
X9449D02*
D03*
X9549D02*
D03*
X9649D02*
D03*
X9749D02*
D03*
X9849D02*
D03*
X9949D02*
D03*
Y6288D02*
D03*
X9849D02*
D03*
X9749D02*
D03*
X9649D02*
D03*
X9549D02*
D03*
X9449D02*
D03*
X9349D02*
D03*
X8549Y7238D02*
D03*
X8949D02*
D03*
X8549Y7388D02*
D03*
X8949D02*
D03*
X9299Y7788D02*
D03*
Y7888D02*
D03*
Y7988D02*
D03*
Y8088D02*
D03*
Y8188D02*
D03*
Y8288D02*
D03*
Y8388D02*
D03*
Y8488D02*
D03*
Y8588D02*
D03*
X9899D02*
D03*
Y8488D02*
D03*
Y8388D02*
D03*
Y8288D02*
D03*
Y8188D02*
D03*
Y8088D02*
D03*
Y7988D02*
D03*
Y7888D02*
D03*
X9299Y8788D02*
D03*
Y8888D02*
D03*
Y8988D02*
D03*
Y9088D02*
D03*
Y9188D02*
D03*
Y9288D02*
D03*
Y9388D02*
D03*
Y9488D02*
D03*
Y9588D02*
D03*
X9899D02*
D03*
Y9488D02*
D03*
Y9388D02*
D03*
Y9288D02*
D03*
Y9188D02*
D03*
Y9088D02*
D03*
Y8988D02*
D03*
Y8888D02*
D03*
X8699Y8038D02*
D03*
X9099D02*
D03*
X8699Y8488D02*
D03*
X9099D02*
D03*
X9299Y9788D02*
D03*
Y9888D02*
D03*
Y9988D02*
D03*
Y10088D02*
D03*
Y10188D02*
D03*
Y10288D02*
D03*
Y10388D02*
D03*
Y10488D02*
D03*
Y10588D02*
D03*
X9899D02*
D03*
Y10488D02*
D03*
Y10388D02*
D03*
Y10288D02*
D03*
Y10188D02*
D03*
Y10088D02*
D03*
Y9988D02*
D03*
Y9888D02*
D03*
X8699Y9038D02*
D03*
X9099D02*
D03*
X8699Y9438D02*
D03*
X9099D02*
D03*
X8699Y10038D02*
D03*
X9099D02*
D03*
X8699Y10488D02*
D03*
X9099D02*
D03*
X10849Y5388D02*
D03*
Y4988D02*
D03*
X10949D02*
D03*
Y5388D02*
D03*
Y5688D02*
D03*
X10749Y5988D02*
D03*
X10849D02*
D03*
X10949D02*
D03*
X11049D02*
D03*
X11149D02*
D03*
X11249D02*
D03*
X11349D02*
D03*
Y5688D02*
D03*
X11249D02*
D03*
X11149D02*
D03*
X11049D02*
D03*
X10849D02*
D03*
X11549Y5338D02*
D03*
Y5038D02*
D03*
X11049Y5338D02*
D03*
Y5038D02*
D03*
X11299D02*
D03*
X11199Y5338D02*
D03*
X11299D02*
D03*
X11399D02*
D03*
Y5038D02*
D03*
X11099Y6638D02*
D03*
X10699D02*
D03*
X11549Y5988D02*
D03*
Y5688D02*
D03*
X10599Y5988D02*
D03*
Y5688D02*
D03*
X11349Y6238D02*
D03*
X11649D02*
D03*
X11349Y7438D02*
D03*
X11649D02*
D03*
X10699Y6938D02*
D03*
X10899D02*
D03*
X10499D02*
D03*
Y7238D02*
D03*
X10899D02*
D03*
X10699D02*
D03*
X10399D02*
D03*
X10999Y6938D02*
D03*
X11099Y7638D02*
D03*
X10699D02*
D03*
X11099Y8638D02*
D03*
X10699D02*
D03*
X11349Y8438D02*
D03*
X11649D02*
D03*
X10699Y7938D02*
D03*
X10899D02*
D03*
X10499D02*
D03*
Y8238D02*
D03*
X10899D02*
D03*
X10699D02*
D03*
X10399D02*
D03*
X10999Y7938D02*
D03*
X11349Y9438D02*
D03*
X11649D02*
D03*
X10699Y8938D02*
D03*
X10899D02*
D03*
X10499D02*
D03*
Y9238D02*
D03*
X10899D02*
D03*
X10699D02*
D03*
X10399D02*
D03*
X10999Y8938D02*
D03*
X11349Y10638D02*
D03*
X11649D02*
D03*
X12699Y5988D02*
D03*
X12799D02*
D03*
X12899D02*
D03*
X12999D02*
D03*
X13099D02*
D03*
X13199D02*
D03*
X13299D02*
D03*
X13399D02*
D03*
Y5688D02*
D03*
X13299D02*
D03*
X13199D02*
D03*
X13099D02*
D03*
X12999D02*
D03*
X12899D02*
D03*
X12799D02*
D03*
X11699Y5988D02*
D03*
X11799D02*
D03*
X11899D02*
D03*
X11999D02*
D03*
X12099D02*
D03*
X12199D02*
D03*
X12299D02*
D03*
X12399D02*
D03*
Y5688D02*
D03*
X12299D02*
D03*
X12199D02*
D03*
X12099D02*
D03*
X11999D02*
D03*
X11899D02*
D03*
X11799D02*
D03*
X12449Y5338D02*
D03*
Y5038D02*
D03*
X11899D02*
D03*
X11699Y5338D02*
D03*
X11799D02*
D03*
X11899D02*
D03*
X11999D02*
D03*
X12099D02*
D03*
X12199D02*
D03*
X12299D02*
D03*
Y5038D02*
D03*
X12199D02*
D03*
X12099D02*
D03*
X11999D02*
D03*
X11799D02*
D03*
X12924Y4913D02*
D03*
Y5313D02*
D03*
X13124Y5238D02*
D03*
Y5138D02*
D03*
X12799Y4913D02*
D03*
Y5313D02*
D03*
X12674Y4913D02*
D03*
Y5313D02*
D03*
X12549Y5988D02*
D03*
Y5688D02*
D03*
X12299Y6238D02*
D03*
X12599D02*
D03*
X11349Y6388D02*
D03*
Y6488D02*
D03*
Y6588D02*
D03*
Y6688D02*
D03*
Y6788D02*
D03*
Y6888D02*
D03*
Y6988D02*
D03*
Y7088D02*
D03*
Y7188D02*
D03*
Y7288D02*
D03*
X11649D02*
D03*
Y7188D02*
D03*
Y7088D02*
D03*
Y6988D02*
D03*
Y6888D02*
D03*
Y6788D02*
D03*
Y6688D02*
D03*
Y6588D02*
D03*
Y6488D02*
D03*
X12299Y6388D02*
D03*
Y6488D02*
D03*
Y6588D02*
D03*
Y6688D02*
D03*
Y6788D02*
D03*
Y6888D02*
D03*
Y6988D02*
D03*
Y7088D02*
D03*
Y7188D02*
D03*
Y7288D02*
D03*
X12599D02*
D03*
Y7188D02*
D03*
Y7088D02*
D03*
Y6988D02*
D03*
Y6888D02*
D03*
Y6788D02*
D03*
Y6688D02*
D03*
Y6588D02*
D03*
Y6488D02*
D03*
X12299Y7438D02*
D03*
X12599D02*
D03*
X11349Y7588D02*
D03*
Y7688D02*
D03*
Y7788D02*
D03*
Y7888D02*
D03*
Y7988D02*
D03*
Y8088D02*
D03*
Y8188D02*
D03*
Y8288D02*
D03*
X11649D02*
D03*
Y8188D02*
D03*
Y8088D02*
D03*
Y7988D02*
D03*
Y7888D02*
D03*
Y7788D02*
D03*
Y7688D02*
D03*
X12299Y8438D02*
D03*
X12599D02*
D03*
X12299Y8588D02*
D03*
Y8688D02*
D03*
Y8788D02*
D03*
Y8888D02*
D03*
Y8988D02*
D03*
Y9088D02*
D03*
Y9188D02*
D03*
Y9288D02*
D03*
X12599D02*
D03*
Y9188D02*
D03*
Y9088D02*
D03*
Y8988D02*
D03*
Y8888D02*
D03*
Y8788D02*
D03*
Y8688D02*
D03*
X12299Y7588D02*
D03*
Y7688D02*
D03*
Y7788D02*
D03*
Y7888D02*
D03*
Y7988D02*
D03*
Y8088D02*
D03*
Y8188D02*
D03*
Y8288D02*
D03*
X12599D02*
D03*
Y8188D02*
D03*
Y8088D02*
D03*
Y7988D02*
D03*
Y7888D02*
D03*
Y7788D02*
D03*
Y7688D02*
D03*
X11349Y8588D02*
D03*
Y8688D02*
D03*
Y8788D02*
D03*
Y8888D02*
D03*
Y8988D02*
D03*
Y9088D02*
D03*
Y9188D02*
D03*
Y9288D02*
D03*
X11649D02*
D03*
Y9188D02*
D03*
Y9088D02*
D03*
Y8988D02*
D03*
Y8888D02*
D03*
Y8788D02*
D03*
Y8688D02*
D03*
X12299Y9438D02*
D03*
X12599D02*
D03*
X11349Y9588D02*
D03*
Y9688D02*
D03*
Y9788D02*
D03*
Y9888D02*
D03*
Y9988D02*
D03*
Y10088D02*
D03*
Y10188D02*
D03*
Y10288D02*
D03*
Y10388D02*
D03*
Y10488D02*
D03*
X11649D02*
D03*
Y10388D02*
D03*
Y10288D02*
D03*
Y10188D02*
D03*
Y10088D02*
D03*
Y9988D02*
D03*
Y9888D02*
D03*
Y9788D02*
D03*
Y9688D02*
D03*
X12299Y9588D02*
D03*
Y9688D02*
D03*
Y9788D02*
D03*
Y9888D02*
D03*
Y9988D02*
D03*
Y10088D02*
D03*
Y10188D02*
D03*
Y10288D02*
D03*
Y10388D02*
D03*
Y10488D02*
D03*
X12599D02*
D03*
Y10388D02*
D03*
Y10288D02*
D03*
Y10188D02*
D03*
Y10088D02*
D03*
Y9988D02*
D03*
Y9888D02*
D03*
Y9788D02*
D03*
Y9688D02*
D03*
X12299Y10638D02*
D03*
X12599D02*
D03*
X13999Y5288D02*
D03*
X13899D02*
D03*
X13799D02*
D03*
X13899Y6388D02*
D03*
Y6488D02*
D03*
Y6588D02*
D03*
Y6688D02*
D03*
Y6788D02*
D03*
Y6888D02*
D03*
Y6988D02*
D03*
Y7088D02*
D03*
Y7188D02*
D03*
Y7288D02*
D03*
Y7388D02*
D03*
Y7488D02*
D03*
Y7588D02*
D03*
Y7688D02*
D03*
Y7788D02*
D03*
Y7888D02*
D03*
Y7988D02*
D03*
Y8088D02*
D03*
Y8188D02*
D03*
Y8288D02*
D03*
X14499D02*
D03*
Y8188D02*
D03*
Y8088D02*
D03*
Y7988D02*
D03*
Y7888D02*
D03*
Y7788D02*
D03*
Y7688D02*
D03*
Y7588D02*
D03*
Y7488D02*
D03*
Y7388D02*
D03*
Y7288D02*
D03*
Y7188D02*
D03*
Y7088D02*
D03*
Y6988D02*
D03*
Y6888D02*
D03*
Y6788D02*
D03*
Y6688D02*
D03*
Y6588D02*
D03*
Y6488D02*
D03*
X13899Y6038D02*
D03*
X14299D02*
D03*
X13899Y6238D02*
D03*
X14199D02*
D03*
X13199D02*
D03*
X13499D02*
D03*
X13199Y6388D02*
D03*
Y6488D02*
D03*
Y6588D02*
D03*
Y6688D02*
D03*
Y6788D02*
D03*
Y6888D02*
D03*
Y6988D02*
D03*
Y7088D02*
D03*
Y7188D02*
D03*
Y7288D02*
D03*
X13499D02*
D03*
Y7188D02*
D03*
Y7088D02*
D03*
Y6988D02*
D03*
Y6888D02*
D03*
Y6788D02*
D03*
Y6688D02*
D03*
Y6588D02*
D03*
Y6488D02*
D03*
X13199Y7438D02*
D03*
X13499D02*
D03*
X14499Y8488D02*
D03*
X14199D02*
D03*
Y8688D02*
D03*
Y9288D02*
D03*
X14499D02*
D03*
X13199Y8438D02*
D03*
X13499D02*
D03*
X13199Y8588D02*
D03*
Y8688D02*
D03*
Y8788D02*
D03*
Y8888D02*
D03*
Y8988D02*
D03*
Y9088D02*
D03*
Y9188D02*
D03*
Y9288D02*
D03*
X13499D02*
D03*
Y9188D02*
D03*
Y9088D02*
D03*
Y8988D02*
D03*
Y8888D02*
D03*
Y8788D02*
D03*
Y8688D02*
D03*
X13199Y7588D02*
D03*
Y7688D02*
D03*
Y7788D02*
D03*
Y7888D02*
D03*
Y7988D02*
D03*
Y8088D02*
D03*
Y8188D02*
D03*
Y8288D02*
D03*
X13499D02*
D03*
Y8188D02*
D03*
Y8088D02*
D03*
Y7988D02*
D03*
Y7888D02*
D03*
Y7788D02*
D03*
Y7688D02*
D03*
X13749Y10438D02*
D03*
X13849Y10338D02*
D03*
Y10438D02*
D03*
X13949Y10338D02*
D03*
Y10438D02*
D03*
X14049Y10338D02*
D03*
Y10438D02*
D03*
X14149Y10338D02*
D03*
Y10438D02*
D03*
X14249Y9988D02*
D03*
X13849D02*
D03*
Y10238D02*
D03*
Y10138D02*
D03*
X13199Y9438D02*
D03*
X13499D02*
D03*
X13199Y9588D02*
D03*
Y9688D02*
D03*
Y9788D02*
D03*
Y9888D02*
D03*
Y9988D02*
D03*
Y10088D02*
D03*
Y10188D02*
D03*
Y10288D02*
D03*
Y10388D02*
D03*
Y10488D02*
D03*
X13499D02*
D03*
Y10388D02*
D03*
Y10288D02*
D03*
Y10188D02*
D03*
Y10088D02*
D03*
Y9988D02*
D03*
Y9888D02*
D03*
Y9788D02*
D03*
Y9688D02*
D03*
X13199Y10638D02*
D03*
X13499D02*
D03*
D36*
X4930Y5038D02*
X4931D01*
X4930D02*
X4931Y5024D01*
X4933Y5011D01*
X4937Y4997D01*
X4943Y4985D01*
X4950Y4973D01*
X4958Y4962D01*
X4967Y4951D01*
X4978Y4943D01*
X4990Y4935D01*
X5002Y4929D01*
X5015Y4924D01*
X5028Y4921D01*
X5042Y4919D01*
X5056D01*
X5070Y4921D01*
X5083Y4924D01*
X5096Y4929D01*
X5108Y4935D01*
X5120Y4943D01*
X5131Y4951D01*
X5140Y4962D01*
X5148Y4973D01*
X5155Y4985D01*
X5161Y4997D01*
X5165Y5011D01*
X5167Y5024D01*
X5168Y5038D01*
X5169D01*
X5168D02*
X5167Y5052D01*
X5165Y5065D01*
X5161Y5079D01*
X5155Y5091D01*
X5148Y5103D01*
X5140Y5114D01*
X5131Y5125D01*
X5120Y5133D01*
X5108Y5141D01*
X5096Y5147D01*
X5083Y5152D01*
X5070Y5155D01*
X5056Y5157D01*
X5042D01*
X5028Y5155D01*
X5015Y5152D01*
X5002Y5147D01*
X4990Y5141D01*
X4978Y5133D01*
X4967Y5125D01*
X4958Y5114D01*
X4950Y5103D01*
X4943Y5091D01*
X4937Y5079D01*
X4933Y5065D01*
X4931Y5052D01*
X4930Y5038D01*
X4996D02*
X4997D01*
X4996D02*
X4997Y5027D01*
X5001Y5016D01*
X5006Y5007D01*
X5014Y4999D01*
X5022Y4992D01*
X5033Y4988D01*
X5043Y4985D01*
X5055D01*
X5065Y4988D01*
X5076Y4992D01*
X5084Y4999D01*
X5092Y5007D01*
X5097Y5016D01*
X5101Y5027D01*
X5102Y5038D01*
X5103D01*
X5102D02*
X5101Y5049D01*
X5097Y5060D01*
X5092Y5069D01*
X5084Y5077D01*
X5076Y5084D01*
X5065Y5088D01*
X5055Y5091D01*
X5043D01*
X5033Y5088D01*
X5022Y5084D01*
X5014Y5077D01*
X5006Y5069D01*
X5001Y5060D01*
X4997Y5049D01*
X4996Y5038D01*
X5049D02*
D03*
X4930Y10538D02*
X4931D01*
X4930D02*
X4931Y10524D01*
X4933Y10511D01*
X4937Y10497D01*
X4943Y10485D01*
X4950Y10473D01*
X4958Y10462D01*
X4967Y10451D01*
X4978Y10443D01*
X4990Y10435D01*
X5002Y10429D01*
X5015Y10424D01*
X5028Y10421D01*
X5042Y10419D01*
X5056D01*
X5070Y10421D01*
X5083Y10424D01*
X5096Y10429D01*
X5108Y10435D01*
X5120Y10443D01*
X5131Y10451D01*
X5140Y10462D01*
X5148Y10473D01*
X5155Y10485D01*
X5161Y10497D01*
X5165Y10511D01*
X5167Y10524D01*
X5168Y10538D01*
X5169D01*
X5168D02*
X5167Y10552D01*
X5165Y10565D01*
X5161Y10579D01*
X5155Y10591D01*
X5148Y10603D01*
X5140Y10614D01*
X5131Y10625D01*
X5120Y10633D01*
X5108Y10641D01*
X5096Y10647D01*
X5083Y10652D01*
X5070Y10655D01*
X5056Y10657D01*
X5042D01*
X5028Y10655D01*
X5015Y10652D01*
X5002Y10647D01*
X4990Y10641D01*
X4978Y10633D01*
X4967Y10625D01*
X4958Y10614D01*
X4950Y10603D01*
X4943Y10591D01*
X4937Y10579D01*
X4933Y10565D01*
X4931Y10552D01*
X4930Y10538D01*
X4996D02*
X4997D01*
X4996D02*
X4997Y10527D01*
X5001Y10516D01*
X5006Y10507D01*
X5014Y10499D01*
X5022Y10492D01*
X5033Y10488D01*
X5043Y10485D01*
X5055D01*
X5065Y10488D01*
X5076Y10492D01*
X5084Y10499D01*
X5092Y10507D01*
X5097Y10516D01*
X5101Y10527D01*
X5102Y10538D01*
X5103D01*
X5102D02*
X5101Y10549D01*
X5097Y10560D01*
X5092Y10569D01*
X5084Y10577D01*
X5076Y10584D01*
X5065Y10588D01*
X5055Y10591D01*
X5043D01*
X5033Y10588D01*
X5022Y10584D01*
X5014Y10577D01*
X5006Y10569D01*
X5001Y10560D01*
X4997Y10549D01*
X4996Y10538D01*
X5049D02*
D03*
X14430Y5038D02*
X14431D01*
X14430D02*
X14431Y5024D01*
X14433Y5011D01*
X14437Y4997D01*
X14443Y4985D01*
X14450Y4973D01*
X14458Y4962D01*
X14467Y4951D01*
X14478Y4943D01*
X14490Y4935D01*
X14502Y4929D01*
X14515Y4924D01*
X14528Y4921D01*
X14542Y4919D01*
X14556D01*
X14570Y4921D01*
X14583Y4924D01*
X14596Y4929D01*
X14608Y4935D01*
X14620Y4943D01*
X14631Y4951D01*
X14640Y4962D01*
X14648Y4973D01*
X14655Y4985D01*
X14661Y4997D01*
X14665Y5011D01*
X14667Y5024D01*
X14668Y5038D01*
X14669D01*
X14668D02*
X14667Y5052D01*
X14665Y5065D01*
X14661Y5079D01*
X14655Y5091D01*
X14648Y5103D01*
X14640Y5114D01*
X14631Y5125D01*
X14620Y5133D01*
X14608Y5141D01*
X14596Y5147D01*
X14583Y5152D01*
X14570Y5155D01*
X14556Y5157D01*
X14542D01*
X14528Y5155D01*
X14515Y5152D01*
X14502Y5147D01*
X14490Y5141D01*
X14478Y5133D01*
X14467Y5125D01*
X14458Y5114D01*
X14450Y5103D01*
X14443Y5091D01*
X14437Y5079D01*
X14433Y5065D01*
X14431Y5052D01*
X14430Y5038D01*
X14496D02*
X14497D01*
X14496D02*
X14497Y5027D01*
X14501Y5016D01*
X14506Y5007D01*
X14514Y4999D01*
X14522Y4992D01*
X14533Y4988D01*
X14543Y4985D01*
X14555D01*
X14565Y4988D01*
X14576Y4992D01*
X14584Y4999D01*
X14592Y5007D01*
X14597Y5016D01*
X14601Y5027D01*
X14602Y5038D01*
X14603D01*
X14602D02*
X14601Y5049D01*
X14597Y5060D01*
X14592Y5069D01*
X14584Y5077D01*
X14576Y5084D01*
X14565Y5088D01*
X14555Y5091D01*
X14543D01*
X14533Y5088D01*
X14522Y5084D01*
X14514Y5077D01*
X14506Y5069D01*
X14501Y5060D01*
X14497Y5049D01*
X14496Y5038D01*
X14549D02*
D03*
X14430Y10538D02*
X14431D01*
X14430D02*
X14431Y10524D01*
X14433Y10511D01*
X14437Y10497D01*
X14443Y10485D01*
X14450Y10473D01*
X14458Y10462D01*
X14467Y10451D01*
X14478Y10443D01*
X14490Y10435D01*
X14502Y10429D01*
X14515Y10424D01*
X14528Y10421D01*
X14542Y10419D01*
X14556D01*
X14570Y10421D01*
X14583Y10424D01*
X14596Y10429D01*
X14608Y10435D01*
X14620Y10443D01*
X14631Y10451D01*
X14640Y10462D01*
X14648Y10473D01*
X14655Y10485D01*
X14661Y10497D01*
X14665Y10511D01*
X14667Y10524D01*
X14668Y10538D01*
X14669D01*
X14668D02*
X14667Y10552D01*
X14665Y10565D01*
X14661Y10579D01*
X14655Y10591D01*
X14648Y10603D01*
X14640Y10614D01*
X14631Y10625D01*
X14620Y10633D01*
X14608Y10641D01*
X14596Y10647D01*
X14583Y10652D01*
X14570Y10655D01*
X14556Y10657D01*
X14542D01*
X14528Y10655D01*
X14515Y10652D01*
X14502Y10647D01*
X14490Y10641D01*
X14478Y10633D01*
X14467Y10625D01*
X14458Y10614D01*
X14450Y10603D01*
X14443Y10591D01*
X14437Y10579D01*
X14433Y10565D01*
X14431Y10552D01*
X14430Y10538D01*
X14496D02*
X14497D01*
X14496D02*
X14497Y10527D01*
X14501Y10516D01*
X14506Y10507D01*
X14514Y10499D01*
X14522Y10492D01*
X14533Y10488D01*
X14543Y10485D01*
X14555D01*
X14565Y10488D01*
X14576Y10492D01*
X14584Y10499D01*
X14592Y10507D01*
X14597Y10516D01*
X14601Y10527D01*
X14602Y10538D01*
X14603D01*
X14602D02*
X14601Y10549D01*
X14597Y10560D01*
X14592Y10569D01*
X14584Y10577D01*
X14576Y10584D01*
X14565Y10588D01*
X14555Y10591D01*
X14543D01*
X14533Y10588D01*
X14522Y10584D01*
X14514Y10577D01*
X14506Y10569D01*
X14501Y10560D01*
X14497Y10549D01*
X14496Y10538D01*
X14549D02*
D03*
D42*
X9199Y4863D02*
D03*
X9399D02*
D03*
X8999Y5263D02*
D03*
X9599D02*
D03*
X9499Y5363D02*
D03*
X9099D02*
D03*
X9299Y5263D02*
D03*
X10249Y4863D02*
D03*
X10449D02*
D03*
X10049Y5263D02*
D03*
X10649D02*
D03*
X10549Y5363D02*
D03*
X10149D02*
D03*
X10349Y5263D02*
D03*
D46*
X5549Y5588D02*
D03*
X5399Y5088D02*
D03*
X5699D02*
D03*
D47*
X5399Y6110D02*
D03*
Y6422D02*
D03*
Y5954D02*
D03*
Y6266D02*
D03*
D50*
X5549Y4988D02*
D03*
X5799Y5488D02*
D03*
X5699Y5288D02*
D03*
D54*
X5199Y6788D02*
D03*
X6199Y5538D02*
D03*
X6799D02*
D03*
X6199Y6788D02*
D03*
X6599Y8088D02*
D03*
X6099Y9188D02*
D03*
X7799Y5538D02*
D03*
X8399D02*
D03*
X8199Y6788D02*
D03*
X7199D02*
D03*
X7699Y8588D02*
D03*
X7199Y9688D02*
D03*
X9299Y5688D02*
D03*
X9899Y6788D02*
D03*
X9249Y6288D02*
D03*
X9899Y7788D02*
D03*
Y8788D02*
D03*
Y9788D02*
D03*
X10749Y5688D02*
D03*
X11199Y5038D02*
D03*
X12699Y5688D02*
D03*
X11699D02*
D03*
Y5038D02*
D03*
X11649Y6388D02*
D03*
X12599D02*
D03*
X11649Y7588D02*
D03*
X12599Y8588D02*
D03*
Y7588D02*
D03*
X11649Y8588D02*
D03*
Y9588D02*
D03*
X12599D02*
D03*
X14099Y5288D02*
D03*
X14499Y6388D02*
D03*
X13499D02*
D03*
X14499Y8688D02*
D03*
X13499Y8588D02*
D03*
Y7588D02*
D03*
X13749Y10338D02*
D03*
X13499Y9588D02*
D03*
M02*
