M71
M48
T1F00S00C0.032
T2F00S00C0.036
T3F00S00C0.070
T4F00S00C0.140
%
T01
X028Y003
X029
X0285Y0025
Y004
X028Y0045
X029
X0245Y0125
X0235
X024Y012
Y0135
X0235Y014
X0245
X036Y0185
Y0195
X0365Y019
X0075Y016
X007Y0155
X008
X011Y0355
X0115Y036
Y035
X036Y0295
Y0285
X0365Y029
T02
X0055Y004
Y008
X008Y005
X0125
X01475Y0055
X016
X017
X0185
Y0045
X018Y003
X019
Y0015
X02
X018
X017
X016
X014
X011
X0095
X0065
X01525Y0045
X02Y0055
X022Y0035
X023Y0015
X024
X025
X026
X027
X031
X03Y0035
X0325Y004
Y003
X034Y0015
X035
Y0055
X034
X031Y0065
X027Y0055
X026
X025
X024
X023Y0065
X039Y0055
X04
X041
Y0015
X04
X039
X0485Y0135
X0515Y0125
X0535Y0135
X049Y01475
X048Y017
X047
X046
X045
X044
X043Y0155
X042
X041
X04
Y0135
Y0115
X041
X042
X043
Y01
X042
X041
X04
X039
X038
X037
Y007
X038
X039
X04
X041
X042
X043
X04025Y01875
X0395Y02025
X0385Y021
X0375
Y017
X0385
X044Y021
X045
X046
X047
X048
X03575Y02075
X034Y021
X033
X032
X031
X03
X028
X027
X026
X025
X0225
Y017
X025
X026
X027
X028
X0285Y018
X03Y017
X031
X032
X033
X034
X035Y0155
X036
X0345Y014
X034Y0115
X035
X036
Y01
X035
X034
X033
X032
X033Y0085
Y007
X034
X035
X036
X032
X029
X028
X027
X026
X025
X024
Y01
X025
X026
X027
X028
X029
Y0115
X028
X027
X026
Y0155
X027
X028
X029
X0305Y0145
Y0135
X03Y0125
X0245Y0185
X021Y017
X0205Y0155
Y0145
X019Y0155
X018
X017
X01575Y01525
X015Y016
Y017
X016
X017
Y021
X016
X015
X012
X011
X01
X009
Y0195
X01Y019
Y017
X011
X012
X01275Y01725
X013Y0185
Y0195
X009Y017
Y01375
X01Y014
Y013
X0095Y0115
Y01
Y009
Y008
Y007
Y006
X00875
X0095Y005
Y004
Y003
X011
Y004
Y005
Y006
Y007
Y008
Y009
Y01
Y0115
X014
Y01
Y009
Y008
Y007
Y006
Y005
Y004
Y003
X015
Y007
X016
X017
X018
X019
X02
X021
Y01
X02
X019
X018
X017
X016
X0155Y0115
Y0125
X017Y0115
X018
X019
X02
Y0125
X015Y0145
X011
X006Y014
Y013
X0065Y0115
Y01
X00575
X0065Y009
Y008
Y007
Y006
Y005
Y004
Y003
X008Y01
X0125Y009
X021Y021
X0065Y02
Y0175
X0055Y0165
X0035Y0185
Y021
X0015Y02
Y0175
Y0165
X0035Y0135
Y0125
Y0115
Y0105
Y0095
Y0085
Y0075
Y0065
X0045
Y0075
Y0085
Y0095
Y0105
Y0115
Y0125
Y0135
X00425Y024
X0035Y028
X003Y029
X0015Y0295
Y027
X0065
Y0295
X0035Y0305
X007Y0325
X008
X01
X009Y034
Y035
X008Y0365
X007
X01
X013
X015
X0185
X0205
X021Y03525
X0195Y03425
X0205Y0325
X021Y031
X02
X018Y0305
X016Y031
X015
X014
X013Y0315
X015Y0325
X0185
X018Y0275
Y0255
X019
X02
X021
X022
X021Y027
X02
X0205Y028
X016Y027
X015
X014
Y0255
X013
X012
X011
X01
X009
X0075
Y0225
X009
X01
X011
X012
X013
X014
X015
X016
X017
X018
X019
X02
X021
X022
X017Y0255
X016
X015
X023
X024
X025
X026
X027
X028
X029
X03
X031
X032
X033
X034
X035
Y027
X03575
X034
X033
X032
X031
X03
Y031
X031
X032
X033
X034
X035
X0345Y0325
X0355
X0365Y034
Y0355
X0355Y0365
X0345
X0265
X0255Y0355
Y0335
X0265Y0325
X0275Y034
Y035
X0235Y0345
Y0365
X0225Y036
X0215Y0365
Y0325
X022Y031
X0235Y0325
X02475Y0315
X02275Y02775
X022Y027
X023Y0225
X024
X025
X026
X027
X028
X029
X03
X031
X032
X033
X034
X035
X0365
Y0255
X0305Y03175
X0375Y031
X0385
X0395
X0405
X0415
X0425
X0435
X0445
X0455
X0465
X0475
X0465Y0325
X0455
X0445
X0435
X0425
X0415
X0405
X0395
Y035
X0405Y0355
Y0365
X0395
X0415
X0425
X0435
X0445
X0455
X0465
X0485Y0335
X0525
X0515Y031
X0505
Y03
X0515
Y029
X0505
Y028
X0515
Y027
X0505
Y026
X0515
Y025
X0505
Y024
X0515
Y023
X0505
Y022
X0515
Y021
X0505
Y02
X0515
Y019
X0505
X0485Y0225
X0475
X0465
X0455
X0445
X043
X0415
X0405
X0395
X0385
X0375
Y0255
X0385
X0395
X0405
X0415
X043
X0445
X0455
X0465
X0475
X0485
X0475Y027
X0465
X0455
X0445
X0435
X0425
X0415
X0405
X0395
X0385
X0375
X0425Y0285
Y024
X04125Y03375
X03825Y0355
X0485Y036
X0515Y035
X0535Y036
Y038
Y04
X0515Y039
Y037
X0485Y038
Y04
X0455Y041
X0445
X0435
X0425
X0415
X0405
X0395
Y038
X0405
X0415
X0425
X0435
X0445
X04425Y03725
X0455Y038
Y0425
X0415
X0385Y041
X0375
X0365
X0355
X0345
X0335
X0325
X0315
X0305
X0295
X0285
X0275
X0265
X0255
X0245
X0255Y0425
X0265Y0435
X0275
X0235Y043
X0215Y0425
X0225Y0395
X0245Y038
X0255
X0265
X0275
X0285
X0295
X0305
X0315
X0325
X0335
X0345
X0355
X0365
X0375
X0385
X0355Y0395
X0235Y038
X0225
X0215
X0205
X0195
X0185
X0175
Y0395
Y041
X0185
X0195
X0205
X0215
X0225
X0235
X0205Y0435
X0185Y0425
X016Y041
X015
X014
X013
X012
X011
X01
X009
X008
X007
X006
Y038
X007
X008
X009
X01
X011
X012
X013
X014
X015
X016
X013Y0395
X011Y0435
X009
X005Y041
Y038
T03
X04482Y01
X04638
X04794
X0495
T04
X0025Y0025
X0525
Y0425
X0025
M30
