*%FSLAX23Y23*%
*%MOIN*%
G01*
%ADD11C,0.006*%
%ADD12C,0.007*%
%ADD13C,0.008*%
%ADD14C,0.010*%
%ADD15C,0.012*%
%ADD16C,0.020*%
%ADD17C,0.032*%
%ADD18C,0.036*%
%ADD19C,0.050*%
%ADD20C,0.050*%
%ADD21C,0.052*%
%ADD22C,0.054*%
%ADD23C,0.055*%
%ADD24C,0.056*%
%ADD25C,0.059*%
%ADD26C,0.060*%
%ADD27C,0.062*%
%ADD28C,0.066*%
%ADD29C,0.070*%
%ADD30C,0.080*%
%ADD31C,0.090*%
%ADD32C,0.095*%
%ADD33C,0.115*%
%ADD34C,0.120*%
%ADD35C,0.124*%
%ADD36C,0.125*%
%ADD37C,0.129*%
%ADD38C,0.150*%
%ADD39C,0.154*%
%ADD40R,0.062X0.062*%
%ADD41R,0.066X0.066*%
D14*
X10318Y9439D02*
X10385D01*
X10318D02*
X10385Y9506D01*
Y9522D01*
X10368Y9539D01*
X10335D01*
X10318Y9522D01*
X10418D02*
X10435Y9539D01*
X10468D01*
X10485Y9522D01*
Y9456D01*
X10468Y9439D01*
X10435D01*
X10418Y9456D01*
Y9522D01*
X10518D02*
X10535Y9539D01*
X10568D01*
X10585Y9522D01*
Y9456D01*
X10568Y9439D01*
X10535D01*
X10518Y9456D01*
Y9522D01*
X10618Y9489D02*
X10685D01*
X10718Y9439D02*
X10751D01*
X10735D01*
Y9539D01*
X10736D01*
X10735D02*
X10718Y9522D01*
X10801D02*
X10818Y9539D01*
X10851D01*
X10868Y9522D01*
Y9456D01*
X10851Y9439D01*
X10818D01*
X10801Y9456D01*
Y9522D01*
X10901D02*
X10918Y9539D01*
X10951D01*
X10968Y9522D01*
Y9456D01*
X10951Y9439D01*
X10918D01*
X10901Y9456D01*
Y9522D01*
X11001Y9539D02*
X11068D01*
Y9522D01*
X11001Y9456D01*
Y9439D01*
X11101Y9489D02*
X11168D01*
X11201Y9522D02*
X11218Y9539D01*
X11251D01*
X11268Y9522D01*
Y9456D01*
X11251Y9439D01*
X11218D01*
X11201Y9456D01*
Y9522D01*
X11301Y9439D02*
X11368D01*
X11301D02*
X11368Y9506D01*
Y9522D01*
X11351Y9539D01*
X11318D01*
X11301Y9522D01*
X11501Y9539D02*
Y9439D01*
Y9539D02*
X11551D01*
X11568Y9522D01*
Y9489D01*
X11551Y9472D01*
X11501D01*
X11534D02*
X11568Y9439D01*
X11601Y9539D02*
X11668D01*
X11601D02*
Y9439D01*
X11668D01*
X11634Y9489D02*
X11601D01*
X11701Y9472D02*
Y9539D01*
Y9472D02*
X11734Y9439D01*
X11768Y9472D01*
Y9539D01*
X11901D02*
Y9439D01*
X11967D02*
X11901Y9539D01*
X11967D02*
Y9439D01*
X12067Y9522D02*
X12051Y9539D01*
X12017D01*
X12001Y9522D01*
Y9456D01*
X12017Y9439D01*
X12051D01*
X12067Y9456D01*
X12251Y9539D02*
X12267Y9522D01*
X12251Y9539D02*
X12217D01*
X12201Y9522D01*
Y9456D01*
X12217Y9439D01*
X12251D01*
X12267Y9456D01*
X12317Y9539D02*
X12351D01*
X12317D02*
X12301Y9522D01*
Y9456D01*
X12317Y9439D01*
X12351D01*
X12367Y9456D01*
Y9522D01*
X12351Y9539D01*
X12401D02*
Y9439D01*
X12434Y9506D02*
X12401Y9539D01*
X12434Y9506D02*
X12467Y9539D01*
Y9439D01*
X12501D02*
Y9539D01*
X12551D01*
X12567Y9522D01*
Y9489D01*
X12551Y9472D01*
X12501D01*
X12617Y9539D02*
X12651D01*
X12617D02*
X12601Y9522D01*
Y9456D01*
X12617Y9439D01*
X12651D01*
X12667Y9456D01*
Y9522D01*
X12651Y9539D01*
X12701D02*
Y9439D01*
X12767D02*
X12701Y9539D01*
X12767D02*
Y9439D01*
X12801Y9539D02*
X12867D01*
X12801D02*
Y9439D01*
X12867D01*
X12834Y9489D02*
X12801D01*
X12900Y9439D02*
Y9539D01*
X12967Y9439D01*
Y9539D01*
X13000D02*
X13067D01*
X13034D01*
Y9439D01*
X13250Y9539D02*
X13267Y9522D01*
X13250Y9539D02*
X13217D01*
X13200Y9522D01*
Y9506D01*
X13217Y9489D01*
X13250D01*
X13267Y9472D01*
Y9456D01*
X13250Y9439D01*
X13217D01*
X13200Y9456D01*
X13300Y9539D02*
X13334D01*
X13317D01*
Y9439D01*
X13300D01*
X13334D01*
X13384D02*
Y9539D01*
Y9439D02*
X13434D01*
X13450Y9456D01*
Y9522D01*
X13434Y9539D01*
X13384D01*
X13484D02*
X13550D01*
X13484D02*
Y9439D01*
X13550D01*
X13517Y9489D02*
X13484D01*
X4686Y7449D02*
X4653D01*
X4686Y7482D01*
Y7491D01*
X4678Y7499D01*
X4661D01*
X4653Y7491D01*
X4703D02*
X4711Y7499D01*
X4728D01*
X4736Y7491D01*
Y7457D01*
X4728Y7449D01*
X4711D01*
X4703Y7457D01*
Y7491D01*
X4753D02*
X4761Y7499D01*
X4778D01*
X4786Y7491D01*
Y7457D01*
X4778Y7449D01*
X4761D01*
X4753Y7457D01*
Y7491D01*
X4803Y7474D02*
X4836D01*
X4853Y7449D02*
X4870D01*
X4861D01*
Y7499D01*
X4862D01*
X4861D02*
X4853Y7491D01*
X4895D02*
X4903Y7499D01*
X4920D01*
X4928Y7491D01*
Y7457D01*
X4920Y7449D01*
X4903D01*
X4895Y7457D01*
Y7491D01*
X4945D02*
X4953Y7499D01*
X4970D01*
X4978Y7491D01*
Y7457D01*
X4970Y7449D01*
X4953D01*
X4945Y7457D01*
Y7491D01*
X4995Y7499D02*
X5028D01*
Y7491D01*
X4995Y7457D01*
Y7449D01*
X9658Y6684D02*
X9666Y6676D01*
X9658Y6684D02*
X9641D01*
X9633Y6676D01*
Y6642D01*
X9641Y6634D01*
X9658D01*
X9666Y6642D01*
X9691Y6634D02*
X9708D01*
X9716Y6642D01*
Y6659D01*
X9708Y6667D01*
X9691D01*
X9683Y6659D01*
Y6642D01*
X9691Y6634D01*
X9733Y6617D02*
Y6667D01*
X9758D01*
X9766Y6659D01*
Y6642D01*
X9758Y6634D01*
X9733D01*
X9783Y6642D02*
Y6667D01*
Y6642D02*
X9791Y6634D01*
X9816D01*
Y6626D01*
X9808Y6617D01*
X9800D01*
X9816Y6634D02*
Y6667D01*
X9833D02*
Y6634D01*
Y6651D01*
X9841Y6659D01*
X9850Y6667D01*
X9858D01*
X9883Y6634D02*
X9900D01*
X9891D01*
Y6667D01*
X9883D01*
X9891Y6684D02*
X9892D01*
X9941Y6617D02*
X9950D01*
X9958Y6626D01*
Y6667D01*
X9933D01*
X9925Y6659D01*
Y6642D01*
X9933Y6634D01*
X9958D01*
X9975D02*
Y6684D01*
Y6659D02*
Y6634D01*
Y6659D02*
X9983Y6667D01*
X10000D01*
X10008Y6659D01*
Y6634D01*
X10033Y6667D02*
Y6676D01*
Y6667D02*
X10025D01*
X10041D01*
X10033D01*
Y6642D01*
X10041Y6634D01*
X10116Y6651D02*
X10133Y6634D01*
X10116Y6651D02*
Y6667D01*
X10133Y6684D01*
X10166Y6667D02*
X10191D01*
X10166D02*
X10158Y6659D01*
Y6642D01*
X10166Y6634D01*
X10191D01*
X10208D02*
X10224Y6651D01*
Y6667D01*
X10208Y6684D01*
X10299Y6634D02*
X10333D01*
X10299D02*
X10333Y6667D01*
Y6676D01*
X10324Y6684D01*
X10308D01*
X10299Y6676D01*
X10349D02*
X10358Y6684D01*
X10374D01*
X10383Y6676D01*
Y6642D01*
X10374Y6634D01*
X10358D01*
X10349Y6642D01*
Y6676D01*
X10399D02*
X10408Y6684D01*
X10424D01*
X10433Y6676D01*
Y6642D01*
X10424Y6634D01*
X10408D01*
X10399Y6642D01*
Y6676D01*
X10449Y6634D02*
X10483D01*
X10449D02*
X10483Y6667D01*
Y6676D01*
X10474Y6684D01*
X10458D01*
X10449Y6676D01*
X10549Y6684D02*
Y6634D01*
X10574D01*
X10583Y6642D01*
Y6651D01*
Y6659D01*
X10574Y6667D01*
X10549D01*
X10599D02*
Y6642D01*
X10608Y6634D01*
X10633D01*
Y6626D01*
X10624Y6617D01*
X10616D01*
X10633Y6634D02*
Y6667D01*
X10716Y6684D02*
X10733D01*
X10724D02*
X10716D01*
X10724D02*
Y6642D01*
X10716Y6634D01*
X10708D01*
X10699Y6642D01*
X10749Y6634D02*
X10766D01*
X10758D01*
Y6667D01*
X10749D01*
X10758Y6684D02*
X10759D01*
X10791Y6667D02*
Y6634D01*
Y6667D02*
X10799D01*
X10808Y6659D01*
Y6634D01*
Y6659D01*
X10816Y6667D01*
X10824Y6659D01*
Y6634D01*
X10891D02*
Y6684D01*
X10916D01*
X10924Y6676D01*
Y6659D01*
X10916Y6651D01*
X10891D01*
X10949Y6667D02*
X10966D01*
X10974Y6659D01*
Y6634D01*
X10949D01*
X10941Y6642D01*
X10949Y6651D01*
X10974D01*
X10999Y6667D02*
Y6676D01*
Y6667D02*
X10991D01*
X11008D01*
X10999D01*
Y6642D01*
X11008Y6634D01*
X11041Y6667D02*
X11066D01*
X11041D02*
X11033Y6659D01*
Y6642D01*
X11041Y6634D01*
X11066D01*
X11083D02*
Y6684D01*
Y6659D02*
Y6634D01*
Y6659D02*
X11091Y6667D01*
X11108D01*
X11116Y6659D01*
Y6634D01*
X11141D02*
X11158D01*
X11141D02*
X11133Y6642D01*
Y6659D01*
X11141Y6667D01*
X11158D01*
X11166Y6659D01*
Y6651D01*
X11133D01*
X11182Y6634D02*
X11199D01*
X11191D01*
Y6684D01*
X11182D01*
X11224Y6634D02*
X11241D01*
X11232D01*
Y6684D01*
X11224D01*
X15818Y6589D02*
X3818D01*
Y9339D02*
X15818D01*
Y6589D01*
X3818D02*
Y9339D01*
D15*
X5068Y9039D02*
X5218Y9189D01*
X7368Y7289D02*
X7543Y7464D01*
X7568Y7439D02*
X7393Y7264D01*
X8343Y7214D02*
X8543Y7414D01*
X11368Y7239D02*
X11518Y7389D01*
X13593Y8814D02*
X13968Y9189D01*
X8518Y7439D02*
X8368Y7289D01*
X6518Y7414D02*
X6368Y7264D01*
X6343Y7289D02*
X6493Y7439D01*
X5493Y7414D02*
X5368Y7289D01*
X13968Y8739D02*
X14218Y8989D01*
X12968Y8939D02*
X12843Y8814D01*
X13918Y8764D02*
X14218Y9064D01*
X7268Y7289D02*
X7118Y7439D01*
X7093Y7414D02*
X7243Y7264D01*
X9018Y7439D02*
X9168Y7289D01*
X13493Y7214D02*
X13918Y6789D01*
X13218Y7289D02*
X13093Y7414D01*
X8043Y7289D02*
X7893Y7439D01*
X5893Y7289D02*
X5768Y7414D01*
X5893Y7514D02*
X5718Y7689D01*
X5693Y7664D02*
X5868Y7489D01*
X13918Y6789D02*
X14218D01*
X4218Y8739D02*
X4168Y8789D01*
X7268Y7289D02*
X7368D01*
X5368D02*
X4568D01*
X7243Y7264D02*
X7393D01*
X9168Y7289D02*
X9418D01*
X7443Y7239D02*
X7218D01*
X7168Y7289D02*
X6568D01*
X12018Y7214D02*
X12493D01*
X13343D02*
X13493D01*
X11943Y7289D02*
X11568D01*
X11368Y7239D02*
X11093D01*
X12068Y7289D02*
X12568D01*
X13218D02*
X13568D01*
X8368D02*
X8043D01*
X5668D02*
X5568D01*
X5693Y7264D02*
X6368D01*
X6343Y7289D02*
X5893D01*
X7493Y7189D02*
X8318D01*
X12543Y7164D02*
X13293D01*
X4518Y8289D02*
X4493Y8264D01*
Y7664D02*
X4468Y7639D01*
X12818Y7539D02*
X14418D01*
X14793Y7464D02*
X15268D01*
X15343Y7539D02*
X15468D01*
X12343D02*
X11318D01*
X10968Y7414D02*
X10618D01*
X9568Y7514D02*
X8443D01*
X7118Y7439D02*
X6493D01*
X7543Y7464D02*
X7968D01*
X7093Y7414D02*
X6518D01*
X7568Y7439D02*
X7893D01*
X8518D02*
X9018D01*
X8668Y7414D02*
X8543D01*
X12193Y7489D02*
X12443D01*
X12518Y7414D02*
X13093D01*
X11418Y7489D02*
X11043D01*
X11768Y7464D02*
X12168D01*
X10818Y7539D02*
X10118D01*
X9493Y7489D02*
X8168D01*
X9518Y7464D02*
X9668D01*
X9693Y7489D02*
X10543D01*
X5768Y7414D02*
X5493D01*
X6118Y7539D02*
X6218D01*
X5893Y7514D02*
X6593D01*
X6618Y7489D02*
X5868D01*
X13393Y7464D02*
X14593D01*
X13343Y7514D02*
X11443D01*
X14693Y7364D02*
X15318D01*
X8818Y7389D02*
X8693D01*
X11518D02*
X11968D01*
X14518Y7639D02*
X15118D01*
X14218D02*
X12568D01*
X8943Y7664D02*
X8693D01*
X8768Y7589D02*
X8868D01*
X9568Y7739D02*
X10543D01*
X12793D02*
X15468D01*
X12768Y7589D02*
X12393D01*
X6418Y7689D02*
X6018D01*
X6468Y7639D02*
X6618D01*
X6418Y7589D02*
X6268D01*
X9118Y7664D02*
X10093D01*
X9068Y7714D02*
X7243D01*
X7143Y7689D02*
X8468D01*
X7118Y7664D02*
X7068D01*
X7043Y7689D02*
X6718D01*
X5718D02*
X4418D01*
X7193Y7664D02*
X8393D01*
X7168Y7639D02*
X7043D01*
X7018Y7664D02*
X6743D01*
X5693D02*
X4493D01*
X4468Y7639D02*
X4168D01*
X11168Y7689D02*
X11343D01*
X11418Y7614D02*
X11693D01*
X11718Y7639D02*
X11868D01*
X11268Y7589D02*
X10168D01*
X9293Y7639D02*
X9118D01*
X9343Y7589D02*
X10068D01*
X4943Y8914D02*
X4893Y8964D01*
X11843Y7889D02*
X12118D01*
X14618Y7839D02*
X15468D01*
X14118Y7889D02*
X14068D01*
X10093D02*
X9968D01*
X10193Y7789D02*
X10468D01*
X10593D02*
X12743D01*
X7168D02*
X5368D01*
X11818Y7814D02*
X12918D01*
X13793Y7789D02*
X13968D01*
X11743Y7889D02*
X11468D01*
X7068Y7914D02*
X6943D01*
X7143Y7839D02*
X7568D01*
X12968Y7764D02*
X13768D01*
X13693Y7864D02*
X13118D01*
X13743Y7914D02*
X13993D01*
X13743Y7814D02*
X13168D01*
X13818Y7889D02*
X14068D01*
X12693Y7989D02*
X12218D01*
X12993D02*
X13193D01*
X11743D02*
X11368D01*
X11268D01*
X14868D02*
X14968D01*
X15068D02*
X15168D01*
X8968D02*
X8868D01*
X8968D02*
X9068D01*
X8768D02*
X8668D01*
X8568D02*
X8468D01*
X8368D01*
X8268D01*
X9968D02*
X10068D01*
X7368D02*
X7268D01*
X6168D02*
X6068D01*
X5568D02*
X5468D01*
X6268D02*
X6343D01*
X6768D02*
X6868D01*
X10668D02*
X10918D01*
X12743Y7939D02*
X12943D01*
X13243D02*
X13343D01*
X13368Y7964D02*
X13568D01*
X12168Y7939D02*
X11868D01*
X14168D02*
X14318D01*
X8218D02*
X8118D01*
X7718D02*
X7118D01*
X10968D02*
X11718D01*
X14018D02*
X14118D01*
X9168Y7989D02*
X9068D01*
X4493Y8264D02*
X4418D01*
X4518Y8289D02*
X4968D01*
X14643D02*
X14868D01*
X14893D01*
X12768D02*
X12018D01*
X11768D02*
X11318D01*
X4268Y8139D02*
X4168D01*
X4768D02*
X4868D01*
X9368D02*
X9468D01*
X5468D02*
X5368D01*
X6668Y8289D02*
X7468D01*
X13468Y8439D02*
X13568D01*
X4368D02*
X4268D01*
X4868D02*
X4968D01*
X5468D02*
X5568D01*
X7468D02*
X7568D01*
X5743Y8939D02*
X5693Y8889D01*
X5668Y8914D02*
X5718Y8964D01*
X5668Y7289D02*
X5693Y7264D01*
X6843Y8689D02*
X6968D01*
X8068Y8664D02*
X8568D01*
X5668Y8589D02*
X5568D01*
X6168D02*
X6268D01*
X8768D02*
X8868D01*
X8968D02*
X9068D01*
X9168D01*
X9668D02*
X9768D01*
X9568D02*
X9468D01*
X11368D02*
X11468D01*
X11568D01*
X11668D01*
X11768D01*
X11268D02*
X11168D01*
X11268D02*
X11368D01*
X11868Y8689D02*
X10018D01*
X7868Y8589D02*
X7768D01*
X8068D02*
X8168D01*
X6143Y8639D02*
X5168D01*
X6193Y8689D02*
X6218D01*
X13368Y8589D02*
X13468D01*
X12768D02*
X12468D01*
X11968Y8689D02*
X11868D01*
X12093D02*
X12368D01*
X13218D02*
X13468D01*
X7468Y8589D02*
X7368D01*
X7168Y8564D02*
X6693D01*
X7193Y8589D02*
X7268D01*
X7568Y8689D02*
X7818D01*
X6018Y8864D02*
X5918Y8964D01*
X5893Y8939D02*
X5993Y8839D01*
X7018Y8739D02*
X7993D01*
X9343D02*
X9968D01*
X9293Y8789D02*
X6968D01*
X6918Y8739D02*
X6018D01*
X5968Y8789D02*
X5468D01*
X9143Y8914D02*
X9693D01*
X10068Y8814D02*
X10918D01*
X10043Y8789D02*
X9418D01*
X5693Y8889D02*
X4868D01*
X11068Y8814D02*
X12843D01*
X11468Y8889D02*
X10993D01*
X10968Y8914D02*
X11393D01*
X5668D02*
X4943D01*
X6018Y8864D02*
X10868D01*
X8868Y8914D02*
X8718D01*
X13068Y8814D02*
X13593D01*
X5018Y8739D02*
X4218D01*
X12043Y8764D02*
X13018D01*
X13518Y8739D02*
X13968D01*
X13468D02*
X13168D01*
X13493Y8764D02*
X13918D01*
X10893Y8839D02*
X5993D01*
X6818Y8889D02*
X8693D01*
X5968Y7639D02*
Y7589D01*
X6143Y8639D02*
X6193Y8689D01*
X5968Y8989D02*
X6018Y9039D01*
Y7689D02*
X5968Y7639D01*
X6018Y8739D02*
X5968Y8789D01*
X6168Y8989D02*
X6118Y9039D01*
X6068Y7589D02*
X6118Y7539D01*
Y9039D02*
X6018D01*
X10393Y8989D02*
X10668D01*
X9818D02*
X9768D01*
X11718Y9039D02*
X11918D01*
X4893Y8964D02*
X4718D01*
X5718D02*
X5918D01*
X9418Y9039D02*
X9918D01*
X9018D02*
X8418D01*
X8118D02*
X8018D01*
X8168Y8989D02*
X8268D01*
X10943Y8939D02*
X11318D01*
X5893D02*
X5743D01*
X9868D02*
X10343D01*
X11818D02*
X12618D01*
X14218Y8989D02*
X14268D01*
X13368D02*
X13268D01*
X13218Y8939D02*
X12968D01*
X14218Y9064D02*
X14368D01*
X7718Y9039D02*
X6943D01*
X6843Y9064D02*
X9293D01*
X6693Y8939D02*
X6218D01*
X6268Y7589D02*
X6218Y7539D01*
Y8939D02*
X6168Y8989D01*
X5268Y9189D02*
X5218D01*
X13968D02*
X14068D01*
X14618D01*
X14693Y9114D02*
X14818D01*
X6843Y9189D02*
X6768D01*
X6843Y9139D02*
X6893D01*
Y9239D02*
X6718D01*
X6418Y7914D02*
Y7839D01*
X6468Y7639D02*
X6418Y7589D01*
Y7914D02*
X6343Y7989D01*
X6668Y7639D02*
Y7589D01*
X6693Y7564D02*
Y7614D01*
X6718Y8964D02*
Y9139D01*
X6643Y9089D02*
Y8989D01*
Y9089D02*
Y9164D01*
X6718Y7689D02*
X6668Y7639D01*
X6693Y7614D02*
X6743Y7664D01*
X6668Y7589D02*
X6593Y7514D01*
X6618Y7489D02*
X6693Y7564D01*
Y8939D02*
X6718Y8964D01*
Y9139D02*
X6768Y9189D01*
X6718Y9239D02*
X6643Y9164D01*
X6618Y8639D02*
X6693Y8564D01*
X6768Y8939D02*
Y9064D01*
X6918Y9164D02*
Y9214D01*
X6968Y8789D02*
X6918Y8739D01*
X6768Y9064D02*
X6843Y9139D01*
X6893D02*
X6918Y9164D01*
X6868Y7989D02*
X6943Y7914D01*
X6818Y8889D02*
X6793Y8914D01*
X6768Y8939D01*
X6918Y9214D02*
X6893Y9239D01*
X6943Y9039D02*
Y8989D01*
X7018Y8739D02*
X6968Y8689D01*
X7143Y7689D02*
X7118Y7664D01*
X7068D02*
X7043Y7689D01*
X7018Y7664D02*
X7043Y7639D01*
X7143Y7839D02*
X7068Y7914D01*
X7193Y7664D02*
X7168Y7639D01*
Y8564D02*
X7193Y8589D01*
X7168Y7789D02*
X7243Y7714D01*
X7168Y7289D02*
X7218Y7239D01*
X7468Y8589D02*
X7568Y8689D01*
X7443Y7239D02*
X7468Y7214D01*
X7493Y7189D01*
X7718Y7939D02*
X7768Y7989D01*
Y8989D02*
X7718Y9039D01*
X7968Y8989D02*
X8018Y9039D01*
X7993Y8739D02*
X8068Y8664D01*
Y7989D02*
X8118Y7939D01*
X8068Y7589D02*
X8168Y7489D01*
X8218Y7939D02*
X8268Y7989D01*
X8168Y8989D02*
X8118Y9039D01*
X8343Y7214D02*
X8318Y7189D01*
X8368Y8989D02*
X8418Y9039D01*
X8468Y7689D02*
X8568Y7589D01*
X8468D02*
X8393Y7664D01*
X8368Y7589D02*
X8443Y7514D01*
X8668Y7589D02*
Y7639D01*
X8693Y7664D01*
X8668Y7414D02*
X8693Y7389D01*
Y8889D02*
X8718Y8914D01*
X8968Y7639D02*
Y7589D01*
X9068D02*
X9118Y7639D01*
X8968D02*
X8943Y7664D01*
X9068Y7714D02*
X9118Y7664D01*
X9143Y8914D02*
X9068Y8989D01*
X9018Y9039D01*
X9368Y8989D02*
X9418Y9039D01*
X9293Y8789D02*
X9343Y8739D01*
X9368Y8989D02*
X9293Y9064D01*
Y7639D02*
X9343Y7589D01*
X9493Y7489D02*
X9518Y7464D01*
X9693Y8914D02*
X9768Y8989D01*
X9693Y7489D02*
X9668Y7464D01*
X9868Y8939D02*
X9818Y8989D01*
X10043Y8789D02*
X10068Y8814D01*
X9968Y8739D02*
X10018Y8689D01*
X9968Y8989D02*
X9918Y9039D01*
X10093Y7889D02*
X10193Y7789D01*
X10093Y7664D02*
X10168Y7589D01*
X10118Y7539D02*
X10068Y7589D01*
X10343Y8939D02*
X10393Y8989D01*
X10593Y7789D02*
X10543Y7739D01*
Y7489D02*
X10618Y7414D01*
X10918Y8814D02*
X10993Y8889D01*
X10968Y8914D02*
X10893Y8839D01*
X10868Y8864D02*
X10943Y8939D01*
X11018Y7464D02*
X10968Y7414D01*
X11018Y7464D02*
X11043Y7489D01*
X10968Y7939D02*
X10918Y7989D01*
X11393Y8914D02*
X11468Y8989D01*
X11368D02*
X11318Y8939D01*
X11443Y7514D02*
X11418Y7489D01*
Y7614D02*
X11343Y7689D01*
X11268Y7589D02*
X11318Y7539D01*
X11468Y8889D02*
X11568Y8989D01*
X11668D02*
X11718Y9039D01*
Y7639D02*
X11693Y7614D01*
X11868Y7939D02*
X11818Y7989D01*
X11743D02*
X11843Y7889D01*
X11818Y8939D02*
X11768Y8989D01*
X11743Y7889D02*
X11818Y7814D01*
X11968Y8689D02*
X12043Y8764D01*
X11968Y8989D02*
X11918Y9039D01*
X11943Y7289D02*
X12018Y7214D01*
X12068Y7289D02*
X11968Y7389D01*
X11918Y7589D02*
X11868Y7639D01*
X12168Y7939D02*
X12218Y7989D01*
X12193Y7489D02*
X12168Y7464D01*
X12393Y8589D02*
Y8664D01*
Y7589D02*
X12343Y7539D01*
X12393Y8664D02*
X12368Y8689D01*
X12493Y7214D02*
X12543Y7164D01*
X12518Y7414D02*
X12443Y7489D01*
X12618Y8939D02*
X12668Y8989D01*
X12693Y7989D02*
X12743Y7939D01*
Y7789D02*
X12793Y7739D01*
X12768Y7589D02*
X12818Y7539D01*
X12943Y7939D02*
X12993Y7989D01*
X12918Y7814D02*
X12968Y7764D01*
X13018Y8764D02*
X13068Y8814D01*
X13368Y7964D02*
X13343Y7939D01*
Y7214D02*
X13293Y7164D01*
X13218Y8939D02*
X13268Y8989D01*
X13193Y7989D02*
X13243Y7939D01*
X13343Y7514D02*
X13393Y7464D01*
X13468Y8689D02*
X13518Y8739D01*
X13493Y8764D02*
X13468Y8739D01*
X13793Y7789D02*
X13768Y7764D01*
X13693Y7864D02*
X13743Y7914D01*
X13818Y7889D02*
X13743Y7814D01*
X14118Y7889D02*
X14168Y7939D01*
X14018D02*
X13993Y7914D01*
X14118Y7939D02*
X14168Y7989D01*
X14318Y7939D02*
X14368Y7989D01*
X14218Y7639D02*
X14268Y7589D01*
X14418Y7539D02*
X14518Y7639D01*
X14593Y7464D02*
X14693Y7364D01*
Y9114D02*
X14618Y9189D01*
X14768Y7589D02*
Y7489D01*
X14793Y7464D01*
X15118Y7639D02*
X15168Y7589D01*
X15268Y7464D02*
X15343Y7539D01*
D20*
X8318Y6789D02*
X8243Y6714D01*
X7318Y6789D02*
X7243Y6714D01*
X6318Y6789D02*
X6243Y6714D01*
X5318Y6789D02*
X5243Y6714D01*
X14918Y9164D02*
X14943Y9189D01*
X14918Y9164D02*
X14893Y9139D01*
X15243Y8389D02*
X15218Y8364D01*
X15318Y8214D02*
X15243Y8139D01*
X5993Y9089D02*
X5968Y9064D01*
X5043Y9289D02*
X5018Y9264D01*
X15218Y7514D02*
X15343Y7639D01*
X7568Y7589D02*
X7493Y7514D01*
X7318Y6789D02*
X7393Y6714D01*
X6393D02*
X6318Y6789D01*
X4393Y6714D02*
X4318Y6789D01*
X5318D02*
X5393Y6714D01*
X15018Y8721D02*
X15075Y8664D01*
X14943Y8614D02*
X14893Y8664D01*
X15018Y8614D02*
X15043Y8589D01*
X15193D02*
X15243Y8539D01*
X15318Y8589D02*
X15243Y8664D01*
X6268Y9064D02*
X6243Y9089D01*
X5768Y9139D02*
X5618Y9289D01*
X7268Y7539D02*
X7293Y7514D01*
X7393Y6714D02*
X8243D01*
X7243D02*
X6393D01*
X6243D02*
X5393D01*
X5243D02*
X4393D01*
X4168Y8364D02*
Y8439D01*
X4068Y8139D02*
Y8064D01*
X12468Y7089D02*
X13468D01*
X12468D02*
X11468D01*
X10468D01*
X9468D02*
X8468D01*
X9468D02*
X10468D01*
X4568Y8139D02*
Y8214D01*
Y8439D02*
Y8514D01*
X14868Y7514D02*
X15068D01*
X15218D01*
X7493D02*
X7293D01*
X4768Y8364D02*
Y8439D01*
X4668D02*
Y8364D01*
Y8139D02*
Y8064D01*
X15343Y7639D02*
X15468D01*
X7768Y7589D02*
X7668D01*
X7568D01*
X5068Y8139D02*
Y8214D01*
X5018Y9214D02*
Y9264D01*
X4668Y8064D02*
X4068D01*
X4668D02*
X5268D01*
X5868D01*
X6168D01*
X6468D01*
X6768D01*
X7068D01*
X8068D01*
X8368D01*
X8668D01*
X8968D01*
X9268D01*
X14368D02*
X14668D01*
X14368D02*
X14068D01*
X13368D01*
X13268D01*
X12668D02*
X12468D01*
X12668D02*
X12868D01*
X13068D01*
X13268D01*
X12468D02*
X12018D01*
X11368D01*
X11068D01*
X10768D01*
X10468D01*
X9868D01*
X9268D01*
X5268Y8364D02*
Y8439D01*
X5168Y8214D02*
Y8139D01*
Y8439D02*
Y8514D01*
X5268Y8139D02*
Y8064D01*
X14568Y8214D02*
X15068D01*
X13968D02*
X13668D01*
X12968D01*
X12868D02*
X11643D01*
X11468D02*
X10968D01*
X10868D02*
X10368D01*
X10268D02*
X9968D01*
X9768D01*
X9668D02*
X9168D01*
X9068D02*
X8568D01*
X8468D02*
X7968D01*
X6868D02*
X6368D01*
X6268D02*
X5768D01*
X5668D02*
X5168D01*
X5068D02*
X4568D01*
X13968D02*
X14468D01*
Y8139D02*
X14568D01*
X12968D02*
X12868D01*
X11643D02*
X11568D01*
X11468D01*
X10968D02*
X10868D01*
X10368D02*
X10268D01*
X9768D02*
X9668D01*
X9168D02*
X9068D01*
X8568D02*
X8468D01*
X6968D02*
X6868D01*
X6368D02*
X6268D01*
X5768D02*
X5668D01*
X5168D02*
X5068D01*
X4568D02*
X4468D01*
X15068D02*
X15168D01*
X15243D01*
X7968D02*
X7868D01*
Y8214D02*
X7468D01*
X7168D01*
X6968D01*
X5368Y8364D02*
Y8439D01*
X14068D02*
X14168D01*
X12568D02*
X12468D01*
X12393D01*
X11168D02*
X11068D01*
X10268D02*
X10168D01*
X9968D02*
X9868D01*
X9368D02*
X9268D01*
X8768D02*
X8668D01*
X8168D02*
X8068D01*
X5968D02*
X5868D01*
X5368D02*
X5268D01*
X4768D02*
X4668D01*
X4168D02*
X4068D01*
X14568Y8514D02*
X15168D01*
X14568D02*
X13968D01*
X13368D01*
X12968D01*
X12868D02*
X11643D01*
X12868Y8439D02*
X12968D01*
X11643D02*
X11568D01*
X11468Y8514D02*
X10968D01*
X11468Y8439D02*
X11568D01*
X10968Y8514D02*
X10368D01*
X9768D01*
X9668D02*
X9168D01*
X9668Y8439D02*
X9768D01*
X9068Y8514D02*
X8568D01*
X9068Y8439D02*
X9168D01*
X8568Y8514D02*
X7968D01*
X6968D02*
X6368D01*
X5768D01*
X5168D01*
X4568D01*
X14668Y8439D02*
X14768D01*
X13568Y8514D02*
X13368D01*
X14168Y8364D02*
X14668D01*
X14068D02*
X13668D01*
X13068D01*
X12568D01*
X12393D02*
X11168D01*
X11068D02*
X10668D01*
X10468D01*
X10268D01*
X10168D02*
X9968D01*
X9868D02*
X9368D01*
X9268D02*
X8768D01*
X8668D02*
X8168D01*
X7068D02*
X6668D01*
X6468D01*
X5968D01*
X5868D02*
X5368D01*
X5268D02*
X4768D01*
X4668D02*
X4168D01*
X14768D02*
X15218D01*
X8068D02*
X7668D01*
X7368D01*
X7068D01*
X6968Y8514D02*
X7968D01*
X5668Y8214D02*
Y8139D01*
X15075Y8664D02*
X15243D01*
X15018Y8614D02*
X14943D01*
X15043Y8589D02*
X15193D01*
X5868Y8439D02*
Y8364D01*
X5768Y8214D02*
Y8139D01*
Y8439D02*
Y8514D01*
X5868Y8139D02*
Y8064D01*
X5768Y9064D02*
Y9139D01*
X5968Y8439D02*
Y8364D01*
X5993Y9089D02*
X6243D01*
X5968Y9064D02*
X5768D01*
X6268Y8214D02*
Y8139D01*
X6168D02*
Y8064D01*
X6268Y8989D02*
Y9064D01*
X14943Y9189D02*
X15018D01*
X5618Y9289D02*
X5043D01*
X6468Y8439D02*
Y8364D01*
X6368Y8214D02*
Y8139D01*
Y8439D02*
Y8514D01*
X6468Y8139D02*
Y8064D01*
X6668Y8364D02*
Y8439D01*
X6868Y8214D02*
Y8139D01*
X6768D02*
Y8064D01*
X7068Y8364D02*
Y8439D01*
X6968Y8214D02*
Y8139D01*
Y8439D02*
Y8514D01*
X7068Y8139D02*
Y8064D01*
X7268Y7589D02*
Y7539D01*
X7168Y8139D02*
Y8214D01*
X7368Y8364D02*
Y8439D01*
X7468Y8214D02*
Y8139D01*
X7668Y8364D02*
Y8439D01*
X7618Y8514D02*
Y8639D01*
X7868Y8214D02*
Y8139D01*
X8068Y8364D02*
Y8439D01*
X7968D02*
Y8514D01*
X8068Y8139D02*
Y8064D01*
X7968Y8139D02*
Y8214D01*
X8168Y8364D02*
Y8439D01*
X8468Y8214D02*
Y8139D01*
X8368D02*
Y8064D01*
X8668Y8364D02*
Y8439D01*
X8568Y8214D02*
Y8139D01*
Y8439D02*
Y8514D01*
X8668Y8139D02*
Y8064D01*
X8768Y8364D02*
Y8439D01*
X9068Y8214D02*
Y8139D01*
Y8439D02*
Y8514D01*
X8968Y8139D02*
Y8064D01*
X9268Y8364D02*
Y8439D01*
Y8139D02*
Y8064D01*
X9168Y8139D02*
Y8214D01*
Y8439D02*
Y8514D01*
X9368Y8439D02*
Y8364D01*
X9768Y8214D02*
Y8139D01*
X9668D02*
Y8214D01*
X9768Y8439D02*
Y8514D01*
X9668D02*
Y8439D01*
X9968D02*
Y8364D01*
X9868D02*
Y8439D01*
X9968Y8214D02*
Y8139D01*
X9868D02*
Y8064D01*
X10168Y8364D02*
Y8439D01*
X10268D02*
Y8364D01*
X10368Y8214D02*
Y8139D01*
X10268D02*
Y8214D01*
X10368Y8439D02*
Y8514D01*
X10468Y8439D02*
Y8364D01*
Y8139D02*
Y8064D01*
X10668Y8364D02*
Y8439D01*
X10768Y8139D02*
Y8064D01*
X10968Y8139D02*
Y8214D01*
X10868D02*
Y8139D01*
X10968Y8439D02*
Y8514D01*
X11168Y8439D02*
Y8364D01*
X11068D02*
Y8439D01*
Y8139D02*
Y8064D01*
X11368D02*
Y8139D01*
X11468D02*
Y8214D01*
Y8439D02*
Y8514D01*
X11643Y8214D02*
Y8139D01*
Y8439D02*
Y8514D01*
X12018Y8139D02*
Y8064D01*
X12393Y8364D02*
Y8439D01*
X12568D02*
Y8364D01*
X12468Y8139D02*
Y8064D01*
X12668D02*
Y8139D01*
X12968D02*
Y8214D01*
X12868D02*
Y8139D01*
X12968Y8439D02*
Y8514D01*
X12868D02*
Y8439D01*
Y8064D02*
Y7989D01*
X13068Y8364D02*
Y8439D01*
Y8139D02*
Y8064D01*
Y8514D02*
Y8589D01*
X13368Y8139D02*
Y8064D01*
X13268D02*
Y7989D01*
X13368Y8439D02*
Y8514D01*
X13568D02*
Y8689D01*
X13668Y8439D02*
Y8364D01*
Y8214D02*
Y8139D01*
X13968D02*
Y8214D01*
Y8439D02*
Y8514D01*
X14168Y8439D02*
Y8364D01*
X14068D02*
Y8439D01*
Y8139D02*
Y8064D01*
Y7989D01*
X14468Y8139D02*
Y8214D01*
X14368Y8139D02*
Y8064D01*
X14668Y8364D02*
Y8439D01*
X14568Y8214D02*
Y8139D01*
Y8439D02*
Y8514D01*
X14668Y8139D02*
Y8064D01*
X14893Y8664D02*
Y9139D01*
X14768Y8439D02*
Y8364D01*
X14868Y7589D02*
Y7514D01*
X15068Y8139D02*
Y8214D01*
Y7589D02*
Y7514D01*
X15168Y8439D02*
Y8514D01*
X15243Y8539D02*
Y8389D01*
X15318Y8214D02*
Y8589D01*
X13118Y7864D02*
D03*
X13168Y7814D02*
D03*
Y7914D02*
D03*
X13218Y8689D02*
D03*
X13168Y8739D02*
D03*
Y8639D02*
D03*
X10468Y7889D02*
D03*
X10518Y7839D02*
D03*
X10468Y7789D02*
D03*
X6418Y7839D02*
D03*
X6468Y7889D02*
D03*
X6368D02*
D03*
X6418Y7689D02*
D03*
X6468Y7739D02*
D03*
X6368D02*
D03*
X5818Y8839D02*
D03*
X5868Y8889D02*
D03*
X5768D02*
D03*
X5818Y8689D02*
D03*
X5868Y8739D02*
D03*
X5768D02*
D03*
D23*
X5018Y9214D02*
D03*
X5068Y9164D02*
D03*
X5118Y9214D02*
D03*
D27*
X15318Y7364D02*
D03*
X14818Y9114D02*
D03*
X14893Y8289D02*
D03*
X14618Y7839D02*
D03*
X14643Y8289D02*
D03*
X14468Y9189D02*
D03*
X14368Y9064D02*
D03*
X14068Y7889D02*
D03*
X13968Y7789D02*
D03*
X13568Y7964D02*
D03*
X12768Y8289D02*
D03*
X12468Y8589D02*
D03*
X12568Y7639D02*
D03*
X12218Y7989D02*
D03*
X12118Y7889D02*
D03*
X12018Y8289D02*
D03*
X11768Y7464D02*
D03*
Y8289D02*
D03*
X11718Y7939D02*
D03*
X11318Y8289D02*
D03*
X11068Y8814D02*
D03*
X11093Y7239D02*
D03*
X11168Y7689D02*
D03*
X10818Y7539D02*
D03*
X9568Y7739D02*
D03*
Y7514D02*
D03*
X9418Y8789D02*
D03*
Y7289D02*
D03*
X8868Y8914D02*
D03*
X8818Y7389D02*
D03*
X7968Y7464D02*
D03*
X7818Y8689D02*
D03*
X7568Y7839D02*
D03*
X7468Y8289D02*
D03*
X7118Y7939D02*
D03*
X6843Y9064D02*
D03*
X6618Y8639D02*
D03*
X6668Y8289D02*
D03*
X6218Y8689D02*
D03*
X5468Y8789D02*
D03*
X5368Y7789D02*
D03*
X5018Y8739D02*
D03*
X4868Y8889D02*
D03*
X4968Y8289D02*
D03*
X4718Y8964D02*
D03*
X4418Y8264D02*
D03*
Y7689D02*
D03*
X4168Y7639D02*
D03*
X15468Y7539D02*
D03*
Y7639D02*
D03*
Y7739D02*
D03*
X15318Y6789D02*
D03*
X15218D02*
D03*
X15418D02*
D03*
X14818Y8989D02*
D03*
X14718Y8689D02*
D03*
Y9189D02*
D03*
X13968Y8439D02*
D03*
Y8139D02*
D03*
X14168Y8439D02*
D03*
X14268D02*
D03*
X14368D02*
D03*
X14468D02*
D03*
Y8139D02*
D03*
X14368D02*
D03*
X14268D02*
D03*
X14568Y8439D02*
D03*
Y8139D02*
D03*
X14068D02*
D03*
Y8439D02*
D03*
X14268Y7989D02*
D03*
Y7589D02*
D03*
X14168Y7989D02*
D03*
Y7589D02*
D03*
X14368Y7989D02*
D03*
Y7589D02*
D03*
X14068Y7989D02*
D03*
Y7589D02*
D03*
X14268Y8989D02*
D03*
Y8589D02*
D03*
X14768Y8439D02*
D03*
X14868D02*
D03*
X14968D02*
D03*
X15068D02*
D03*
Y8139D02*
D03*
X14968D02*
D03*
X14868D02*
D03*
X14668D02*
D03*
Y8439D02*
D03*
X15168D02*
D03*
Y8139D02*
D03*
X15068Y7989D02*
D03*
Y7589D02*
D03*
X15168D02*
D03*
Y7989D02*
D03*
X14968D02*
D03*
Y7589D02*
D03*
X14868Y7989D02*
D03*
Y7589D02*
D03*
X14768D02*
D03*
Y7989D02*
D03*
X14668Y7589D02*
D03*
Y7989D02*
D03*
X14568D02*
D03*
Y7589D02*
D03*
X14318Y6789D02*
D03*
X14218D02*
D03*
X14418D02*
D03*
X13068Y8589D02*
D03*
Y8989D02*
D03*
X12293Y8589D02*
D03*
Y8989D02*
D03*
X12668D02*
D03*
X12568Y8689D02*
D03*
Y9189D02*
D03*
X13568Y8889D02*
D03*
Y8689D02*
D03*
X13368Y8589D02*
D03*
Y8989D02*
D03*
X12393D02*
D03*
Y8589D02*
D03*
X12468Y8139D02*
D03*
Y8439D02*
D03*
X12568D02*
D03*
X12668D02*
D03*
X12768D02*
D03*
X12868D02*
D03*
Y8139D02*
D03*
X12768D02*
D03*
X12668D02*
D03*
X12968Y8439D02*
D03*
Y8139D02*
D03*
X12768Y8989D02*
D03*
Y8589D02*
D03*
Y7989D02*
D03*
Y7589D02*
D03*
X12868Y7989D02*
D03*
Y7589D02*
D03*
X12668Y7689D02*
D03*
Y7889D02*
D03*
X13168Y8439D02*
D03*
X13268D02*
D03*
X13368D02*
D03*
X13468D02*
D03*
X13568D02*
D03*
X13668D02*
D03*
X13768D02*
D03*
X13868D02*
D03*
Y8139D02*
D03*
X13768D02*
D03*
X13668D02*
D03*
X13568D02*
D03*
X13468D02*
D03*
X13368D02*
D03*
X13268D02*
D03*
X13068D02*
D03*
Y8439D02*
D03*
X13468Y8989D02*
D03*
Y8589D02*
D03*
X12193Y8989D02*
D03*
X12093Y8689D02*
D03*
Y9189D02*
D03*
X11268Y8589D02*
D03*
Y8989D02*
D03*
X11168Y8589D02*
D03*
Y8989D02*
D03*
X11068Y8589D02*
D03*
Y8989D02*
D03*
X11368Y8589D02*
D03*
Y8989D02*
D03*
X11468Y8589D02*
D03*
Y8989D02*
D03*
X11568Y8589D02*
D03*
Y8989D02*
D03*
X11968D02*
D03*
X11868Y8689D02*
D03*
Y9189D02*
D03*
X11168Y8439D02*
D03*
X11268D02*
D03*
X11368D02*
D03*
X11468D02*
D03*
Y8139D02*
D03*
X11368D02*
D03*
X11268D02*
D03*
X11668Y8989D02*
D03*
Y8589D02*
D03*
X11768Y8989D02*
D03*
Y8589D02*
D03*
X11568Y8439D02*
D03*
Y8139D02*
D03*
X11068D02*
D03*
Y8439D02*
D03*
X11718D02*
D03*
X11818D02*
D03*
X11918D02*
D03*
X12018D02*
D03*
X12118D02*
D03*
X12218D02*
D03*
X12318D02*
D03*
Y8139D02*
D03*
X12218D02*
D03*
X12118D02*
D03*
X12018D02*
D03*
X11918D02*
D03*
X11818D02*
D03*
X11268Y7989D02*
D03*
Y7589D02*
D03*
X11368Y7989D02*
D03*
Y7589D02*
D03*
X11468Y7689D02*
D03*
Y7889D02*
D03*
X11168D02*
D03*
Y7989D02*
D03*
X11918Y7589D02*
D03*
Y7989D02*
D03*
X11818Y7589D02*
D03*
Y7989D02*
D03*
X10968Y8439D02*
D03*
Y8139D02*
D03*
X10668Y8989D02*
D03*
Y8589D02*
D03*
Y7489D02*
D03*
Y7989D02*
D03*
X9068Y8589D02*
D03*
Y8989D02*
D03*
X9168Y8589D02*
D03*
Y8989D02*
D03*
X9368D02*
D03*
X9268Y8689D02*
D03*
Y9189D02*
D03*
X9968Y8989D02*
D03*
X9868Y8689D02*
D03*
Y9189D02*
D03*
X9768Y8589D02*
D03*
Y8989D02*
D03*
X9668Y8589D02*
D03*
Y8989D02*
D03*
X9568Y8589D02*
D03*
Y8989D02*
D03*
X10568Y8439D02*
D03*
X10668D02*
D03*
X10768D02*
D03*
X10868D02*
D03*
Y8139D02*
D03*
X10768D02*
D03*
X10668D02*
D03*
X10468D02*
D03*
Y8439D02*
D03*
X10368D02*
D03*
Y8139D02*
D03*
X9968Y8439D02*
D03*
X10068D02*
D03*
X10168D02*
D03*
X10268D02*
D03*
Y8139D02*
D03*
X10168D02*
D03*
X10068D02*
D03*
X9868D02*
D03*
Y8439D02*
D03*
X10068Y7989D02*
D03*
Y7589D02*
D03*
X10168Y7989D02*
D03*
Y7589D02*
D03*
X10268Y7689D02*
D03*
Y7889D02*
D03*
X10068Y8989D02*
D03*
Y8589D02*
D03*
X9968Y7989D02*
D03*
Y7889D02*
D03*
X9368Y8439D02*
D03*
X9468D02*
D03*
X9568D02*
D03*
X9668D02*
D03*
Y8139D02*
D03*
X9568D02*
D03*
X9468D02*
D03*
X9268D02*
D03*
Y8439D02*
D03*
X9768D02*
D03*
Y8139D02*
D03*
X9168Y8439D02*
D03*
Y8139D02*
D03*
X9068Y7989D02*
D03*
Y7589D02*
D03*
X9468Y8989D02*
D03*
Y8589D02*
D03*
X9168Y7989D02*
D03*
Y7589D02*
D03*
X8868Y8589D02*
D03*
Y8989D02*
D03*
X8968Y8589D02*
D03*
Y8989D02*
D03*
X8368Y8589D02*
D03*
Y8989D02*
D03*
X8468Y8589D02*
D03*
Y8989D02*
D03*
X8168D02*
D03*
Y8589D02*
D03*
X8068Y8989D02*
D03*
Y8589D02*
D03*
X7968D02*
D03*
Y8989D02*
D03*
X7768Y8589D02*
D03*
Y8989D02*
D03*
X8668Y8964D02*
D03*
X8568Y8664D02*
D03*
Y9164D02*
D03*
X7618Y8639D02*
D03*
Y8939D02*
D03*
X8768Y8439D02*
D03*
X8868D02*
D03*
X8968D02*
D03*
X9068D02*
D03*
Y8139D02*
D03*
X8968D02*
D03*
X8868D02*
D03*
X8668D02*
D03*
Y8439D02*
D03*
X8768Y7589D02*
D03*
Y7989D02*
D03*
X8668D02*
D03*
Y7589D02*
D03*
X8868D02*
D03*
Y7989D02*
D03*
X8968Y7589D02*
D03*
Y7989D02*
D03*
X8768Y8989D02*
D03*
Y8589D02*
D03*
X8568Y8439D02*
D03*
Y8139D02*
D03*
X8168Y8439D02*
D03*
X8268D02*
D03*
X8368D02*
D03*
X8468D02*
D03*
Y8139D02*
D03*
X8368D02*
D03*
X8268D02*
D03*
X8068D02*
D03*
Y8439D02*
D03*
X8268Y7989D02*
D03*
Y7589D02*
D03*
X8368Y7989D02*
D03*
Y7589D02*
D03*
X8468Y7989D02*
D03*
Y7589D02*
D03*
X8568Y7989D02*
D03*
Y7589D02*
D03*
X8168Y7989D02*
D03*
Y7589D02*
D03*
X8068Y7989D02*
D03*
Y7589D02*
D03*
X8268Y8989D02*
D03*
Y8589D02*
D03*
X7968Y8439D02*
D03*
Y8139D02*
D03*
X7768Y7589D02*
D03*
Y7989D02*
D03*
X7868Y8989D02*
D03*
Y8589D02*
D03*
X7668Y7989D02*
D03*
Y7589D02*
D03*
X6543Y9189D02*
D03*
Y8689D02*
D03*
X6643Y8989D02*
D03*
X6943D02*
D03*
X6843Y8689D02*
D03*
Y9189D02*
D03*
X7168Y8989D02*
D03*
X7068Y8689D02*
D03*
Y9189D02*
D03*
X7268Y8589D02*
D03*
Y8989D02*
D03*
X6418Y8589D02*
D03*
Y8989D02*
D03*
X7168Y8439D02*
D03*
X7268D02*
D03*
X7368D02*
D03*
X7468D02*
D03*
X7568D02*
D03*
X7668D02*
D03*
X7768D02*
D03*
X7868D02*
D03*
Y8139D02*
D03*
X7768D02*
D03*
X7668D02*
D03*
X7568D02*
D03*
X7468D02*
D03*
X7368D02*
D03*
X7268D02*
D03*
X7368Y8989D02*
D03*
Y8589D02*
D03*
X7468Y8989D02*
D03*
Y8589D02*
D03*
X7068Y8139D02*
D03*
Y8439D02*
D03*
X7268Y7989D02*
D03*
Y7589D02*
D03*
X7368D02*
D03*
Y7989D02*
D03*
X6568Y8439D02*
D03*
X6668D02*
D03*
X6768D02*
D03*
X6868D02*
D03*
Y8139D02*
D03*
X6768D02*
D03*
X6668D02*
D03*
X6468D02*
D03*
Y8439D02*
D03*
X6968D02*
D03*
Y8139D02*
D03*
X6368Y8439D02*
D03*
Y8139D02*
D03*
X5968Y8439D02*
D03*
X6068D02*
D03*
X6168D02*
D03*
X6268D02*
D03*
Y8139D02*
D03*
X6168D02*
D03*
X6068D02*
D03*
Y8989D02*
D03*
Y8589D02*
D03*
X5968Y8989D02*
D03*
Y8589D02*
D03*
X6168Y8989D02*
D03*
Y8589D02*
D03*
X6268Y8989D02*
D03*
Y8589D02*
D03*
X5968Y7589D02*
D03*
Y7989D02*
D03*
X6168D02*
D03*
Y7589D02*
D03*
X6068D02*
D03*
Y7989D02*
D03*
X6268D02*
D03*
Y7589D02*
D03*
X6968Y7739D02*
D03*
Y7839D02*
D03*
X6868Y7989D02*
D03*
Y7589D02*
D03*
X6768Y7989D02*
D03*
Y7589D02*
D03*
X6618Y7639D02*
D03*
Y7739D02*
D03*
X5568Y8589D02*
D03*
Y8989D02*
D03*
X5768Y9139D02*
D03*
X5868D02*
D03*
X5368Y8989D02*
D03*
X5268Y8689D02*
D03*
Y9189D02*
D03*
X5068Y8639D02*
D03*
Y9039D02*
D03*
X4468Y7989D02*
D03*
Y7589D02*
D03*
X4968Y7989D02*
D03*
Y7589D02*
D03*
X5068Y7989D02*
D03*
Y7589D02*
D03*
X5868Y8139D02*
D03*
Y8439D02*
D03*
X5768D02*
D03*
Y8139D02*
D03*
X5368Y8439D02*
D03*
X5468D02*
D03*
X5568D02*
D03*
X5668D02*
D03*
Y8139D02*
D03*
X5568D02*
D03*
X5468D02*
D03*
X5268D02*
D03*
Y8439D02*
D03*
X5568Y7589D02*
D03*
Y7989D02*
D03*
X5468D02*
D03*
Y7589D02*
D03*
X5668Y8989D02*
D03*
Y8589D02*
D03*
X5168Y9039D02*
D03*
Y8639D02*
D03*
X4968Y9039D02*
D03*
Y8639D02*
D03*
X5168Y8439D02*
D03*
Y8139D02*
D03*
X4568Y8439D02*
D03*
Y8139D02*
D03*
X4668D02*
D03*
Y8439D02*
D03*
X4768D02*
D03*
X4868D02*
D03*
X4968D02*
D03*
X5068D02*
D03*
Y8139D02*
D03*
X4968D02*
D03*
X4868D02*
D03*
X4368Y7989D02*
D03*
Y7589D02*
D03*
X4168Y8439D02*
D03*
X4268D02*
D03*
X4368D02*
D03*
X4468D02*
D03*
Y8139D02*
D03*
X4368D02*
D03*
X4268D02*
D03*
X4168Y8689D02*
D03*
X4268Y8789D02*
D03*
X4168D02*
D03*
X4268Y8889D02*
D03*
X4168D02*
D03*
X4268Y8989D02*
D03*
X4168D02*
D03*
X4268Y9089D02*
D03*
X4168D02*
D03*
X4068Y8139D02*
D03*
Y8439D02*
D03*
D34*
X12318Y7389D02*
D03*
X12468Y6889D02*
D03*
X12168D02*
D03*
X13318Y7389D02*
D03*
X13468Y6889D02*
D03*
X13168D02*
D03*
X11318Y7389D02*
D03*
X11468Y6889D02*
D03*
X11168D02*
D03*
X10318Y7389D02*
D03*
X10468Y6889D02*
D03*
X10168D02*
D03*
X9318Y7389D02*
D03*
X9468Y6889D02*
D03*
X9168D02*
D03*
X8318Y7389D02*
D03*
X8468Y6889D02*
D03*
X8168D02*
D03*
X6318Y7389D02*
D03*
X6468Y6889D02*
D03*
X6168D02*
D03*
X7318Y7389D02*
D03*
X7468Y6889D02*
D03*
X7168D02*
D03*
X5318Y7389D02*
D03*
X5468Y6889D02*
D03*
X5168D02*
D03*
X4318Y7389D02*
D03*
X4468Y6889D02*
D03*
X4168D02*
D03*
D36*
X15018Y9189D02*
D03*
Y8721D02*
D03*
Y8877D02*
D03*
Y9033D02*
D03*
D38*
X12318Y6789D02*
D03*
X12468Y7089D02*
D03*
X12568Y7289D02*
D03*
X13318Y6789D02*
D03*
X13468Y7089D02*
D03*
X13568Y7289D02*
D03*
X11318Y6789D02*
D03*
X11468Y7089D02*
D03*
X11568Y7289D02*
D03*
X10318Y6789D02*
D03*
X10468Y7089D02*
D03*
X10568Y7289D02*
D03*
X9318Y6789D02*
D03*
X9468Y7089D02*
D03*
X9568Y7289D02*
D03*
X8318Y6789D02*
D03*
X8468Y7089D02*
D03*
X8568Y7289D02*
D03*
X6318Y6789D02*
D03*
X6468Y7089D02*
D03*
X6568Y7289D02*
D03*
X7318Y6789D02*
D03*
X7468Y7089D02*
D03*
X7568Y7289D02*
D03*
X5318Y6789D02*
D03*
X5468Y7089D02*
D03*
X5568Y7289D02*
D03*
X4318Y6789D02*
D03*
X4468Y7089D02*
D03*
X4568Y7289D02*
D03*
D40*
X15468Y7839D02*
D03*
X14168Y8139D02*
D03*
X14768D02*
D03*
X12568D02*
D03*
X13168D02*
D03*
X11168D02*
D03*
X11718D02*
D03*
X10568D02*
D03*
X9968D02*
D03*
X9368D02*
D03*
X8768D02*
D03*
X8168D02*
D03*
X7168D02*
D03*
X6568D02*
D03*
X5968D02*
D03*
X5368D02*
D03*
X4768D02*
D03*
X4168D02*
D03*
X4268Y8689D02*
D03*
M02*
