G04 #@! TF.GenerationSoftware,KiCad,Pcbnew,(5.0.2)-1*
G04 #@! TF.CreationDate,2019-01-01T20:43:38-08:00*
G04 #@! TF.ProjectId,500-1065,3530302d-3130-4363-952e-6b696361645f,rev?*
G04 #@! TF.SameCoordinates,Original*
G04 #@! TF.FileFunction,Copper,L1,Top*
G04 #@! TF.FilePolarity,Positive*
%FSLAX46Y46*%
G04 Gerber Fmt 4.6, Leading zero omitted, Abs format (unit mm)*
G04 Created by KiCad (PCBNEW (5.0.2)-1) date 1/1/2019 8:43:38 PM*
%MOMM*%
%LPD*%
G01*
G04 APERTURE LIST*
G04 #@! TA.AperFunction,ComponentPad*
%ADD10C,1.574800*%
G04 #@! TD*
G04 #@! TA.AperFunction,ComponentPad*
%ADD11R,1.574800X1.574800*%
G04 #@! TD*
G04 #@! TA.AperFunction,ComponentPad*
%ADD12C,3.048000*%
G04 #@! TD*
G04 #@! TA.AperFunction,ComponentPad*
%ADD13C,3.810000*%
G04 #@! TD*
G04 #@! TA.AperFunction,ComponentPad*
%ADD14C,1.397000*%
G04 #@! TD*
G04 #@! TA.AperFunction,ComponentPad*
%ADD15C,2.500000*%
G04 #@! TD*
G04 #@! TA.AperFunction,ComponentPad*
%ADD16C,1.524000*%
G04 #@! TD*
G04 #@! TA.AperFunction,ComponentPad*
%ADD17R,1.800000X1.800000*%
G04 #@! TD*
G04 #@! TA.AperFunction,ComponentPad*
%ADD18C,1.800000*%
G04 #@! TD*
G04 #@! TA.AperFunction,ViaPad*
%ADD19C,1.016000*%
G04 #@! TD*
G04 #@! TA.AperFunction,Conductor*
%ADD20C,1.270000*%
G04 #@! TD*
G04 #@! TA.AperFunction,Conductor*
%ADD21C,0.304800*%
G04 #@! TD*
G04 #@! TA.AperFunction,Conductor*
%ADD22C,0.381000*%
G04 #@! TD*
G04 #@! TA.AperFunction,Conductor*
%ADD23C,0.508000*%
G04 #@! TD*
G04 APERTURE END LIST*
D10*
G04 #@! TO.P,P1,5*
G04 #@! TO.N,Net-(P1-Pad5)*
X69850000Y-54610000D03*
G04 #@! TO.P,P1,6*
G04 #@! TO.N,GND*
X67310000Y-54610000D03*
G04 #@! TO.P,P1,3*
G04 #@! TO.N,Net-(P1-Pad3)*
X69850000Y-57150000D03*
G04 #@! TO.P,P1,4*
G04 #@! TO.N,Net-(P1-Pad4)*
X67310000Y-57150000D03*
D11*
G04 #@! TO.P,P1,1*
G04 #@! TO.N,Net-(P1-Pad1)*
X69850000Y-59690000D03*
D10*
G04 #@! TO.P,P1,2*
G04 #@! TO.N,VCC*
X67310000Y-59690000D03*
G04 #@! TD*
G04 #@! TO.P,C1,2*
G04 #@! TO.N,GND*
X102870000Y-67310000D03*
G04 #@! TO.P,C1,1*
G04 #@! TO.N,Net-(C1-Pad1)*
X100330000Y-67310000D03*
G04 #@! TD*
G04 #@! TO.P,C2,1*
G04 #@! TO.N,Net-(C2-Pad1)*
X95250000Y-67310000D03*
G04 #@! TO.P,C2,2*
G04 #@! TO.N,GND*
X92710000Y-67310000D03*
G04 #@! TD*
G04 #@! TO.P,C4,2*
G04 #@! TO.N,GND*
X111760000Y-64770000D03*
D11*
G04 #@! TO.P,C4,1*
G04 #@! TO.N,VCC*
X111760000Y-62230000D03*
G04 #@! TD*
D10*
G04 #@! TO.P,C5,1*
G04 #@! TO.N,Net-(C5-Pad1)*
X125730000Y-49530000D03*
G04 #@! TO.P,C5,2*
G04 #@! TO.N,Net-(C5-Pad2)*
X125730000Y-36830000D03*
G04 #@! TD*
G04 #@! TO.P,C6,1*
G04 #@! TO.N,+15V0*
X118110000Y-53340000D03*
G04 #@! TO.P,C6,2*
G04 #@! TO.N,GND*
X118110000Y-60960000D03*
G04 #@! TD*
G04 #@! TO.P,C7,2*
G04 #@! TO.N,GND*
X130810000Y-53340000D03*
G04 #@! TO.P,C7,1*
G04 #@! TO.N,-15V0*
X130810000Y-60960000D03*
G04 #@! TD*
G04 #@! TO.P,C8,1*
G04 #@! TO.N,Net-(C8-Pad1)*
X140970000Y-46990000D03*
G04 #@! TO.P,C8,2*
G04 #@! TO.N,Net-(C8-Pad2)*
X140970000Y-49530000D03*
G04 #@! TD*
G04 #@! TO.P,C9,1*
G04 #@! TO.N,+15V0*
X135890000Y-53340000D03*
G04 #@! TO.P,C9,2*
G04 #@! TO.N,GND*
X135890000Y-60960000D03*
G04 #@! TD*
G04 #@! TO.P,C10,2*
G04 #@! TO.N,GND*
X148590000Y-53340000D03*
G04 #@! TO.P,C10,1*
G04 #@! TO.N,-15V0*
X148590000Y-60960000D03*
G04 #@! TD*
G04 #@! TO.P,D1,2*
G04 #@! TO.N,Net-(D1-Pad2)*
X82550000Y-64770000D03*
G04 #@! TO.P,D1,1*
G04 #@! TO.N,VCC*
X82550000Y-74930000D03*
G04 #@! TD*
G04 #@! TO.P,D2,1*
G04 #@! TO.N,Net-(D1-Pad2)*
X85090000Y-64770000D03*
G04 #@! TO.P,D2,2*
G04 #@! TO.N,GND*
X85090000Y-74930000D03*
G04 #@! TD*
G04 #@! TO.P,D3,1*
G04 #@! TO.N,Net-(D3-Pad1)*
X120650000Y-64770000D03*
G04 #@! TO.P,D3,2*
G04 #@! TO.N,Net-(D3-Pad2)*
X120650000Y-74930000D03*
G04 #@! TD*
G04 #@! TO.P,D4,2*
G04 #@! TO.N,Net-(D4-Pad2)*
X80010000Y-64770000D03*
G04 #@! TO.P,D4,1*
G04 #@! TO.N,VCC*
X80010000Y-74930000D03*
G04 #@! TD*
G04 #@! TO.P,D5,1*
G04 #@! TO.N,Net-(D4-Pad2)*
X77470000Y-64770000D03*
G04 #@! TO.P,D5,2*
G04 #@! TO.N,GND*
X77470000Y-74930000D03*
G04 #@! TD*
D12*
G04 #@! TO.P,J1,*
G04 #@! TO.N,*
X97790000Y-93421200D03*
X101600000Y-80721200D03*
D13*
G04 #@! TO.P,J1,3*
G04 #@! TO.N,Net-(J1-Pad3)*
X107950000Y-83261200D03*
G04 #@! TO.P,J1,2*
G04 #@! TO.N,GND*
X105410000Y-88341200D03*
D12*
G04 #@! TO.P,J1,*
G04 #@! TO.N,*
X105410000Y-93421200D03*
D13*
G04 #@! TO.P,J1,1*
G04 #@! TO.N,GND*
X101600000Y-95961200D03*
G04 #@! TD*
G04 #@! TO.P,J2,1*
G04 #@! TO.N,GND*
X127000000Y-95961200D03*
D12*
G04 #@! TO.P,J2,*
G04 #@! TO.N,*
X130810000Y-93421200D03*
D13*
G04 #@! TO.P,J2,2*
G04 #@! TO.N,GND*
X130810000Y-88341200D03*
G04 #@! TO.P,J2,3*
G04 #@! TO.N,Net-(J2-Pad3)*
X133350000Y-83261200D03*
D12*
G04 #@! TO.P,J2,*
G04 #@! TO.N,*
X127000000Y-80721200D03*
X123190000Y-93421200D03*
G04 #@! TD*
G04 #@! TO.P,J3,*
G04 #@! TO.N,*
X148590000Y-93421200D03*
X152400000Y-80721200D03*
D13*
G04 #@! TO.P,J3,3*
G04 #@! TO.N,Net-(J3-Pad3)*
X158750000Y-83261200D03*
G04 #@! TO.P,J3,2*
G04 #@! TO.N,GND*
X156210000Y-88341200D03*
D12*
G04 #@! TO.P,J3,*
G04 #@! TO.N,*
X156210000Y-93421200D03*
D13*
G04 #@! TO.P,J3,1*
G04 #@! TO.N,GND*
X152400000Y-95961200D03*
G04 #@! TD*
G04 #@! TO.P,J4,1*
G04 #@! TO.N,GND*
X177800000Y-95961200D03*
D12*
G04 #@! TO.P,J4,*
G04 #@! TO.N,*
X181610000Y-93421200D03*
D13*
G04 #@! TO.P,J4,2*
G04 #@! TO.N,N/C*
X181610000Y-88341200D03*
G04 #@! TO.P,J4,3*
G04 #@! TO.N,Net-(J4-Pad3)*
X184150000Y-83261200D03*
D12*
G04 #@! TO.P,J4,*
G04 #@! TO.N,*
X177800000Y-80721200D03*
X173990000Y-93421200D03*
G04 #@! TD*
D11*
G04 #@! TO.P,P2,1*
G04 #@! TO.N,-15V0*
X162560000Y-44450000D03*
D10*
G04 #@! TO.P,P2,2*
X162560000Y-41910000D03*
G04 #@! TO.P,P2,3*
G04 #@! TO.N,GND*
X165100000Y-44450000D03*
G04 #@! TO.P,P2,4*
X165100000Y-41910000D03*
G04 #@! TO.P,P2,5*
X167640000Y-44450000D03*
G04 #@! TO.P,P2,6*
X167640000Y-41910000D03*
G04 #@! TO.P,P2,7*
X170180000Y-44450000D03*
G04 #@! TO.P,P2,8*
X170180000Y-41910000D03*
G04 #@! TO.P,P2,9*
G04 #@! TO.N,+15V0*
X172720000Y-44450000D03*
G04 #@! TO.P,P2,10*
X172720000Y-41910000D03*
G04 #@! TO.P,P2,11*
G04 #@! TO.N,N/C*
X175260000Y-44450000D03*
G04 #@! TO.P,P2,12*
X175260000Y-41910000D03*
G04 #@! TO.P,P2,13*
X177800000Y-44450000D03*
G04 #@! TO.P,P2,14*
X177800000Y-41910000D03*
G04 #@! TO.P,P2,15*
X180340000Y-44450000D03*
G04 #@! TO.P,P2,16*
X180340000Y-41910000D03*
G04 #@! TD*
D14*
G04 #@! TO.P,Q1,1*
G04 #@! TO.N,Net-(Q1-Pad1)*
X116840000Y-40640000D03*
G04 #@! TO.P,Q1,2*
G04 #@! TO.N,GND*
X118110000Y-41910000D03*
G04 #@! TO.P,Q1,3*
G04 #@! TO.N,Net-(Q1-Pad3)*
X116840000Y-43180000D03*
G04 #@! TD*
G04 #@! TO.P,Q2,3*
G04 #@! TO.N,Net-(Q2-Pad3)*
X118110000Y-45720000D03*
G04 #@! TO.P,Q2,2*
G04 #@! TO.N,Net-(Q2-Pad2)*
X116840000Y-46990000D03*
G04 #@! TO.P,Q2,1*
G04 #@! TO.N,-15V0*
X118110000Y-48260000D03*
G04 #@! TD*
G04 #@! TO.P,Q3,1*
G04 #@! TO.N,Net-(C5-Pad2)*
X121920000Y-43180000D03*
G04 #@! TO.P,Q3,2*
G04 #@! TO.N,Net-(C5-Pad1)*
X120650000Y-41910000D03*
G04 #@! TO.P,Q3,3*
G04 #@! TO.N,Net-(Q2-Pad3)*
X121920000Y-40640000D03*
G04 #@! TD*
G04 #@! TO.P,Q4,2*
G04 #@! TO.N,Net-(Q4-Pad2)*
X133350000Y-49530000D03*
G04 #@! TO.P,Q4,3*
G04 #@! TO.N,Net-(C5-Pad1)*
X132080000Y-48260000D03*
G04 #@! TO.P,Q4,1*
G04 #@! TO.N,Net-(Q4-Pad1)*
X134620000Y-48260000D03*
G04 #@! TO.P,Q4,6*
G04 #@! TO.N,Net-(C8-Pad1)*
X134620000Y-45720000D03*
G04 #@! TO.P,Q4,4*
G04 #@! TO.N,Net-(Q4-Pad1)*
X132080000Y-45720000D03*
G04 #@! TO.P,Q4,5*
G04 #@! TO.N,GND*
X133350000Y-44450000D03*
G04 #@! TD*
D15*
G04 #@! TO.P,R1,2*
G04 #@! TO.N,Net-(R1-Pad2)*
X76200000Y-97800000D03*
G04 #@! TO.P,R1,3*
G04 #@! TO.N,GND*
X71200000Y-97800000D03*
G04 #@! TO.P,R1,1*
G04 #@! TO.N,Net-(R1-Pad1)*
X81200000Y-97800000D03*
G04 #@! TD*
D10*
G04 #@! TO.P,R2,2*
G04 #@! TO.N,Net-(D1-Pad2)*
X87630000Y-64770000D03*
G04 #@! TO.P,R2,1*
G04 #@! TO.N,Net-(J1-Pad3)*
X87630000Y-74930000D03*
G04 #@! TD*
G04 #@! TO.P,R3,2*
G04 #@! TO.N,Net-(R3-Pad2)*
X140970000Y-64770000D03*
G04 #@! TO.P,R3,1*
G04 #@! TO.N,Net-(J2-Pad3)*
X140970000Y-74930000D03*
G04 #@! TD*
G04 #@! TO.P,R4,1*
G04 #@! TO.N,Net-(J3-Pad3)*
X143510000Y-74930000D03*
G04 #@! TO.P,R4,2*
G04 #@! TO.N,Net-(R3-Pad2)*
X143510000Y-64770000D03*
G04 #@! TD*
G04 #@! TO.P,R5,2*
G04 #@! TO.N,Net-(R3-Pad2)*
X146050000Y-64770000D03*
G04 #@! TO.P,R5,1*
G04 #@! TO.N,Net-(R1-Pad2)*
X146050000Y-74930000D03*
G04 #@! TD*
G04 #@! TO.P,R6,1*
G04 #@! TO.N,Net-(R6-Pad1)*
X85090000Y-49530000D03*
G04 #@! TO.P,R6,2*
G04 #@! TO.N,Net-(Q1-Pad1)*
X85090000Y-39370000D03*
G04 #@! TD*
G04 #@! TO.P,R7,1*
G04 #@! TO.N,Net-(R3-Pad2)*
X138430000Y-74930000D03*
G04 #@! TO.P,R7,2*
G04 #@! TO.N,Net-(R10-Pad1)*
X138430000Y-64770000D03*
G04 #@! TD*
G04 #@! TO.P,R8,1*
G04 #@! TO.N,Net-(Q1-Pad3)*
X114300000Y-39370000D03*
G04 #@! TO.P,R8,2*
G04 #@! TO.N,Net-(Q2-Pad2)*
X114300000Y-49530000D03*
G04 #@! TD*
G04 #@! TO.P,R9,2*
G04 #@! TO.N,-15V0*
X111760000Y-49530000D03*
G04 #@! TO.P,R9,1*
G04 #@! TO.N,Net-(Q2-Pad2)*
X111760000Y-39370000D03*
G04 #@! TD*
D16*
G04 #@! TO.P,R10,1*
G04 #@! TO.N,Net-(R10-Pad1)*
X149860000Y-44450000D03*
G04 #@! TO.P,R10,2*
X152400000Y-46990000D03*
G04 #@! TO.P,R10,3*
G04 #@! TO.N,Net-(R10-Pad3)*
X154940000Y-44450000D03*
G04 #@! TD*
D10*
G04 #@! TO.P,R11,2*
G04 #@! TO.N,Net-(Q4-Pad2)*
X146050000Y-39370000D03*
G04 #@! TO.P,R11,1*
G04 #@! TO.N,Net-(R10-Pad3)*
X146050000Y-49530000D03*
G04 #@! TD*
G04 #@! TO.P,R12,1*
G04 #@! TO.N,/OUT*
X167640000Y-80010000D03*
G04 #@! TO.P,R12,2*
G04 #@! TO.N,Net-(J4-Pad3)*
X167640000Y-90170000D03*
G04 #@! TD*
G04 #@! TO.P,R13,1*
G04 #@! TO.N,Net-(Q4-Pad2)*
X129540000Y-39370000D03*
G04 #@! TO.P,R13,2*
G04 #@! TO.N,GND*
X129540000Y-49530000D03*
G04 #@! TD*
G04 #@! TO.P,R14,2*
G04 #@! TO.N,Net-(Q2-Pad3)*
X109220000Y-39370000D03*
G04 #@! TO.P,R14,1*
G04 #@! TO.N,GND*
X109220000Y-49530000D03*
G04 #@! TD*
G04 #@! TO.P,R15,2*
G04 #@! TO.N,Net-(R15-Pad2)*
X125730000Y-64770000D03*
G04 #@! TO.P,R15,1*
G04 #@! TO.N,Net-(R1-Pad1)*
X125730000Y-74930000D03*
G04 #@! TD*
G04 #@! TO.P,R16,1*
G04 #@! TO.N,Net-(C5-Pad2)*
X123190000Y-74930000D03*
G04 #@! TO.P,R16,2*
G04 #@! TO.N,Net-(R16-Pad2)*
X123190000Y-64770000D03*
G04 #@! TD*
G04 #@! TO.P,R17,2*
G04 #@! TO.N,+15V0*
X158750000Y-74930000D03*
G04 #@! TO.P,R17,1*
G04 #@! TO.N,Net-(R17-Pad1)*
X158750000Y-64770000D03*
G04 #@! TD*
G04 #@! TO.P,R18,2*
G04 #@! TO.N,Net-(R18-Pad2)*
X161290000Y-64770000D03*
G04 #@! TO.P,R18,1*
G04 #@! TO.N,Net-(R17-Pad1)*
X161290000Y-74930000D03*
G04 #@! TD*
G04 #@! TO.P,R19,1*
G04 #@! TO.N,Net-(R18-Pad2)*
X163830000Y-74930000D03*
G04 #@! TO.P,R19,2*
G04 #@! TO.N,GND*
X163830000Y-64770000D03*
G04 #@! TD*
G04 #@! TO.P,R20,1*
G04 #@! TO.N,Net-(Q4-Pad1)*
X138430000Y-39370000D03*
G04 #@! TO.P,R20,2*
G04 #@! TO.N,Net-(C8-Pad2)*
X138430000Y-49530000D03*
G04 #@! TD*
G04 #@! TO.P,R21,2*
G04 #@! TO.N,Net-(C8-Pad1)*
X143510000Y-49530000D03*
G04 #@! TO.P,R21,1*
G04 #@! TO.N,Net-(R1-Pad1)*
X143510000Y-39370000D03*
G04 #@! TD*
G04 #@! TO.P,R22,1*
G04 #@! TO.N,Net-(D3-Pad2)*
X118110000Y-64770000D03*
G04 #@! TO.P,R22,2*
G04 #@! TO.N,Net-(D4-Pad2)*
X118110000Y-74930000D03*
G04 #@! TD*
G04 #@! TO.P,R23,1*
G04 #@! TO.N,Net-(R23-Pad1)*
X156210000Y-74930000D03*
G04 #@! TO.P,R23,2*
G04 #@! TO.N,GND*
X156210000Y-64770000D03*
G04 #@! TD*
G04 #@! TO.P,R24,2*
G04 #@! TO.N,Net-(R23-Pad1)*
X153670000Y-74930000D03*
G04 #@! TO.P,R24,1*
G04 #@! TO.N,Net-(R1-Pad1)*
X153670000Y-64770000D03*
G04 #@! TD*
G04 #@! TO.P,U1,28*
G04 #@! TO.N,N/C*
X74930000Y-53340000D03*
G04 #@! TO.P,U1,1*
G04 #@! TO.N,Net-(P1-Pad5)*
X74930000Y-60960000D03*
G04 #@! TO.P,U1,27*
G04 #@! TO.N,N/C*
X77470000Y-53340000D03*
G04 #@! TO.P,U1,2*
X77470000Y-60960000D03*
G04 #@! TO.P,U1,26*
X80010000Y-53340000D03*
G04 #@! TO.P,U1,3*
X80010000Y-60960000D03*
G04 #@! TO.P,U1,25*
X82550000Y-53340000D03*
G04 #@! TO.P,U1,4*
G04 #@! TO.N,Net-(D1-Pad2)*
X82550000Y-60960000D03*
G04 #@! TO.P,U1,24*
G04 #@! TO.N,Net-(R6-Pad1)*
X85090000Y-53340000D03*
G04 #@! TO.P,U1,5*
G04 #@! TO.N,Net-(D4-Pad2)*
X85090000Y-60960000D03*
G04 #@! TO.P,U1,23*
G04 #@! TO.N,/OUT*
X87630000Y-53340000D03*
G04 #@! TO.P,U1,6*
G04 #@! TO.N,N/C*
X87630000Y-60960000D03*
G04 #@! TO.P,U1,22*
G04 #@! TO.N,GND*
X90170000Y-53340000D03*
G04 #@! TO.P,U1,7*
G04 #@! TO.N,VCC*
X90170000Y-60960000D03*
G04 #@! TO.P,U1,21*
X92710000Y-53340000D03*
G04 #@! TO.P,U1,8*
G04 #@! TO.N,GND*
X92710000Y-60960000D03*
G04 #@! TO.P,U1,20*
G04 #@! TO.N,N/C*
X95250000Y-53340000D03*
G04 #@! TO.P,U1,9*
G04 #@! TO.N,Net-(C2-Pad1)*
X95250000Y-60960000D03*
G04 #@! TO.P,U1,19*
G04 #@! TO.N,Net-(P1-Pad3)*
X97790000Y-53340000D03*
G04 #@! TO.P,U1,10*
G04 #@! TO.N,Net-(C1-Pad1)*
X97790000Y-60960000D03*
G04 #@! TO.P,U1,18*
G04 #@! TO.N,Net-(P1-Pad1)*
X100330000Y-53340000D03*
G04 #@! TO.P,U1,11*
G04 #@! TO.N,N/C*
X100330000Y-60960000D03*
G04 #@! TO.P,U1,17*
G04 #@! TO.N,Net-(P1-Pad4)*
X102870000Y-53340000D03*
G04 #@! TO.P,U1,12*
G04 #@! TO.N,N/C*
X102870000Y-60960000D03*
G04 #@! TO.P,U1,16*
X105410000Y-53340000D03*
G04 #@! TO.P,U1,13*
X105410000Y-60960000D03*
G04 #@! TO.P,U1,15*
X107950000Y-53340000D03*
G04 #@! TO.P,U1,14*
X107950000Y-60960000D03*
G04 #@! TD*
D14*
G04 #@! TO.P,U2,1*
G04 #@! TO.N,VCC*
X111760000Y-53340000D03*
G04 #@! TO.P,U2,2*
G04 #@! TO.N,GND*
X113030000Y-52070000D03*
G04 #@! TO.P,U2,3*
G04 #@! TO.N,+15V0*
X114300000Y-53340000D03*
G04 #@! TD*
D11*
G04 #@! TO.P,U3,1*
G04 #@! TO.N,Net-(D3-Pad1)*
X120650000Y-60960000D03*
D10*
G04 #@! TO.P,U3,2*
G04 #@! TO.N,Net-(R16-Pad2)*
X123190000Y-60960000D03*
G04 #@! TO.P,U3,3*
G04 #@! TO.N,Net-(R15-Pad2)*
X125730000Y-60960000D03*
G04 #@! TO.P,U3,4*
G04 #@! TO.N,-15V0*
X128270000Y-60960000D03*
G04 #@! TO.P,U3,5*
G04 #@! TO.N,GND*
X128270000Y-53340000D03*
G04 #@! TO.P,U3,6*
G04 #@! TO.N,Net-(C5-Pad1)*
X125730000Y-53340000D03*
G04 #@! TO.P,U3,7*
G04 #@! TO.N,Net-(C5-Pad2)*
X123190000Y-53340000D03*
G04 #@! TO.P,U3,8*
G04 #@! TO.N,+15V0*
X120650000Y-53340000D03*
G04 #@! TD*
G04 #@! TO.P,U4,8*
G04 #@! TO.N,+15V0*
X138430000Y-53340000D03*
G04 #@! TO.P,U4,7*
G04 #@! TO.N,Net-(C8-Pad2)*
X140970000Y-53340000D03*
G04 #@! TO.P,U4,6*
G04 #@! TO.N,Net-(C8-Pad1)*
X143510000Y-53340000D03*
G04 #@! TO.P,U4,5*
G04 #@! TO.N,GND*
X146050000Y-53340000D03*
G04 #@! TO.P,U4,4*
G04 #@! TO.N,-15V0*
X146050000Y-60960000D03*
G04 #@! TO.P,U4,3*
G04 #@! TO.N,GND*
X143510000Y-60960000D03*
G04 #@! TO.P,U4,2*
G04 #@! TO.N,Net-(R3-Pad2)*
X140970000Y-60960000D03*
D11*
G04 #@! TO.P,U4,1*
G04 #@! TO.N,Net-(R10-Pad1)*
X138430000Y-60960000D03*
G04 #@! TD*
D14*
G04 #@! TO.P,U5,3*
G04 #@! TO.N,GND*
X167640000Y-68580000D03*
G04 #@! TO.P,U5,2*
G04 #@! TO.N,Net-(R17-Pad1)*
X166370000Y-69850000D03*
G04 #@! TO.P,U5,1*
G04 #@! TO.N,Net-(R18-Pad2)*
X167640000Y-71120000D03*
G04 #@! TD*
D11*
G04 #@! TO.P,U7,1*
G04 #@! TO.N,N/C*
X153670000Y-60960000D03*
D10*
G04 #@! TO.P,U7,2*
G04 #@! TO.N,Net-(R23-Pad1)*
X156210000Y-60960000D03*
G04 #@! TO.P,U7,3*
G04 #@! TO.N,Net-(R17-Pad1)*
X158750000Y-60960000D03*
G04 #@! TO.P,U7,4*
G04 #@! TO.N,-15V0*
X161290000Y-60960000D03*
G04 #@! TO.P,U7,5*
G04 #@! TO.N,N/C*
X161290000Y-53340000D03*
G04 #@! TO.P,U7,6*
G04 #@! TO.N,Net-(R1-Pad1)*
X158750000Y-53340000D03*
G04 #@! TO.P,U7,7*
G04 #@! TO.N,+15V0*
X156210000Y-53340000D03*
G04 #@! TO.P,U7,8*
G04 #@! TO.N,N/C*
X153670000Y-53340000D03*
G04 #@! TD*
G04 #@! TO.P,Y1,1*
G04 #@! TO.N,Net-(C1-Pad1)*
X100330000Y-64770000D03*
G04 #@! TO.P,Y1,2*
G04 #@! TO.N,Net-(C2-Pad1)*
X95250000Y-64770000D03*
G04 #@! TD*
G04 #@! TO.P,C11,1*
G04 #@! TO.N,+15V0*
X151130000Y-53340000D03*
G04 #@! TO.P,C11,2*
G04 #@! TO.N,GND*
X151130000Y-60960000D03*
G04 #@! TD*
G04 #@! TO.P,C12,2*
G04 #@! TO.N,GND*
X165100000Y-53340000D03*
G04 #@! TO.P,C12,1*
G04 #@! TO.N,-15V0*
X165100000Y-60960000D03*
G04 #@! TD*
G04 #@! TO.P,C13,1*
G04 #@! TO.N,VCC*
X90170000Y-64770000D03*
G04 #@! TO.P,C13,2*
G04 #@! TO.N,GND*
X90170000Y-72390000D03*
G04 #@! TD*
G04 #@! TO.P,C14,2*
G04 #@! TO.N,GND*
X92710000Y-41910000D03*
G04 #@! TO.P,C14,1*
G04 #@! TO.N,VCC*
X92710000Y-49530000D03*
G04 #@! TD*
D14*
G04 #@! TO.P,Q5,1*
G04 #@! TO.N,GND*
X177800000Y-69850000D03*
G04 #@! TO.P,Q5,2*
G04 #@! TO.N,Net-(Q5-Pad2)*
X179070000Y-71120000D03*
G04 #@! TO.P,Q5,3*
G04 #@! TO.N,Net-(Q5-Pad3)*
X177800000Y-72390000D03*
G04 #@! TD*
D10*
G04 #@! TO.P,R25,1*
G04 #@! TO.N,/OUT*
X171450000Y-74930000D03*
G04 #@! TO.P,R25,2*
G04 #@! TO.N,Net-(Q5-Pad2)*
X171450000Y-64770000D03*
G04 #@! TD*
G04 #@! TO.P,R26,2*
G04 #@! TO.N,Net-(Q5-Pad3)*
X164465000Y-80010000D03*
G04 #@! TO.P,R26,1*
G04 #@! TO.N,Net-(D6-Pad1)*
X164465000Y-90170000D03*
G04 #@! TD*
D17*
G04 #@! TO.P,D6,1*
G04 #@! TO.N,Net-(D6-Pad1)*
X164465000Y-96520000D03*
D18*
G04 #@! TO.P,D6,2*
G04 #@! TO.N,+15V0*
X167005000Y-96520000D03*
G04 #@! TD*
D19*
G04 #@! TO.N,GND*
X136525000Y-51435000D03*
G04 #@! TO.N,VCC*
X82550000Y-67310000D03*
G04 #@! TO.N,Net-(C5-Pad1)*
X125730000Y-41910000D03*
G04 #@! TO.N,-15V0*
X120015000Y-59055000D03*
G04 #@! TO.N,Net-(D4-Pad2)*
X80010000Y-70485000D03*
G04 #@! TO.N,Net-(J1-Pad3)*
X87630000Y-83185000D03*
G04 #@! TO.N,Net-(J3-Pad3)*
X143510000Y-83185000D03*
G04 #@! TO.N,Net-(P1-Pad1)*
X100330000Y-58420000D03*
G04 #@! TO.N,Net-(P1-Pad4)*
X102870000Y-57150000D03*
G04 #@! TO.N,Net-(P1-Pad3)*
X97790000Y-57150000D03*
G04 #@! TO.N,Net-(R1-Pad2)*
X76200000Y-77470000D03*
X146050000Y-79375000D03*
G04 #@! TO.N,Net-(R1-Pad1)*
X158750000Y-41275000D03*
X160020000Y-66675000D03*
X80658952Y-78282810D03*
G04 #@! TO.N,Net-(R10-Pad1)*
X152400000Y-57150000D03*
X138430000Y-57150000D03*
G04 #@! TO.N,/OUT*
X86360000Y-78435210D03*
G04 #@! TD*
D20*
G04 #@! TO.N,GND*
X165100000Y-44450000D02*
X165100000Y-53340000D01*
X151130000Y-59846449D02*
X150495000Y-59211449D01*
X151130000Y-60960000D02*
X151130000Y-59846449D01*
X150495000Y-59211449D02*
X150495000Y-58420000D01*
X148590000Y-56515000D02*
X148590000Y-53340000D01*
X150495000Y-58420000D02*
X148590000Y-56515000D01*
X136525000Y-44450000D02*
X136525000Y-51435000D01*
X133350000Y-44450000D02*
X133985000Y-43815000D01*
X133985000Y-43815000D02*
X135890000Y-43815000D01*
X135890000Y-43815000D02*
X136525000Y-44450000D01*
X168338499Y-67881501D02*
X168338499Y-67373499D01*
X167640000Y-68580000D02*
X168338499Y-67881501D01*
X165735000Y-64770000D02*
X163830000Y-64770000D01*
X168338499Y-67373499D02*
X165735000Y-64770000D01*
X92710000Y-67310000D02*
X92710000Y-60960000D01*
X92710000Y-69850000D02*
X90170000Y-72390000D01*
X92710000Y-67310000D02*
X92710000Y-69850000D01*
X177800000Y-93267124D02*
X174625000Y-90092124D01*
X177800000Y-95961200D02*
X177800000Y-93267124D01*
X174625000Y-90092124D02*
X174625000Y-52705000D01*
X174625000Y-52705000D02*
X170180000Y-48260000D01*
X170180000Y-48260000D02*
X170180000Y-44450000D01*
X177800000Y-69850000D02*
X177800000Y-53340000D01*
X177800000Y-53340000D02*
X172085000Y-47625000D01*
X170967399Y-45237399D02*
X170180000Y-44450000D01*
X172085000Y-46355000D02*
X170967399Y-45237399D01*
X172085000Y-47625000D02*
X172085000Y-46355000D01*
D21*
G04 #@! TO.N,Net-(C1-Pad1)*
X97790000Y-62230000D02*
X100330000Y-64770000D01*
X97790000Y-60960000D02*
X97790000Y-62230000D01*
X100330000Y-64770000D02*
X100330000Y-67310000D01*
G04 #@! TO.N,Net-(C2-Pad1)*
X95250000Y-60960000D02*
X95250000Y-64770000D01*
X95250000Y-64770000D02*
X95250000Y-67310000D01*
D22*
G04 #@! TO.N,+15V0*
X158750000Y-74930000D02*
X158750000Y-72390000D01*
X158750000Y-72390000D02*
X158750000Y-71755000D01*
D21*
X158750000Y-71755000D02*
X157480000Y-70485000D01*
X157480000Y-70485000D02*
X157480000Y-56515000D01*
X157480000Y-56515000D02*
X156210000Y-55245000D01*
X156210000Y-55245000D02*
X156210000Y-53340000D01*
X167005000Y-96520000D02*
X167005000Y-92710000D01*
X167005000Y-92710000D02*
X165735000Y-91440000D01*
X165735000Y-91440000D02*
X166370000Y-90805000D01*
X166370000Y-90805000D02*
X166370000Y-85725000D01*
X158750000Y-78105000D02*
X158750000Y-74930000D01*
X166370000Y-85725000D02*
X158750000Y-78105000D01*
D20*
G04 #@! TO.N,VCC*
X92710000Y-49530000D02*
X92710000Y-53340000D01*
X90170000Y-64770000D02*
X90170000Y-60960000D01*
X111760000Y-62230000D02*
X111760000Y-53975000D01*
X111760000Y-53975000D02*
X111760000Y-53340000D01*
X92710000Y-53340000D02*
X92710000Y-55245000D01*
X92710000Y-55245000D02*
X90170000Y-57785000D01*
X90170000Y-57785000D02*
X90170000Y-60960000D01*
D23*
X82550000Y-74930000D02*
X82550000Y-67310000D01*
D21*
G04 #@! TO.N,Net-(C5-Pad1)*
X125730000Y-53340000D02*
X125730000Y-49530000D01*
X125730000Y-49530000D02*
X125730000Y-41910000D01*
G04 #@! TO.N,Net-(C5-Pad2)*
X123190000Y-58420000D02*
X123190000Y-53340000D01*
X121920000Y-59690000D02*
X123190000Y-58420000D01*
X121920000Y-66040000D02*
X121920000Y-59690000D01*
X123190000Y-74930000D02*
X123190000Y-67310000D01*
X123190000Y-67310000D02*
X121920000Y-66040000D01*
X125730000Y-39370000D02*
X121920000Y-43180000D01*
X125730000Y-36830000D02*
X125730000Y-39370000D01*
X123190000Y-48895000D02*
X123190000Y-53340000D01*
X121920000Y-43180000D02*
X121920000Y-47625000D01*
X121920000Y-47625000D02*
X123190000Y-48895000D01*
D20*
G04 #@! TO.N,-15V0*
X164312601Y-60172601D02*
X165100000Y-60960000D01*
X163017201Y-58877201D02*
X164312601Y-60172601D01*
X163017201Y-46964601D02*
X163017201Y-58877201D01*
X162560000Y-46507400D02*
X163017201Y-46964601D01*
X162560000Y-44450000D02*
X162560000Y-46507400D01*
D21*
X118110000Y-48260000D02*
X118110000Y-51435000D01*
X119405399Y-58445399D02*
X120015000Y-59055000D01*
X118110000Y-51435000D02*
X119405399Y-52730399D01*
X119405399Y-52730399D02*
X119405399Y-58445399D01*
G04 #@! TO.N,Net-(C8-Pad1)*
X143510000Y-53340000D02*
X143510000Y-49530000D01*
G04 #@! TO.N,Net-(C8-Pad2)*
X140970000Y-53340000D02*
X140970000Y-49530000D01*
G04 #@! TO.N,Net-(D1-Pad2)*
X82550000Y-60960000D02*
X82550000Y-64770000D01*
G04 #@! TO.N,Net-(D3-Pad1)*
X120650000Y-62052200D02*
X120650000Y-64770000D01*
X120650000Y-60960000D02*
X120650000Y-62052200D01*
G04 #@! TO.N,Net-(D3-Pad2)*
X120650000Y-71755000D02*
X120650000Y-74930000D01*
X118110000Y-64770000D02*
X118110000Y-69215000D01*
X118110000Y-69215000D02*
X120650000Y-71755000D01*
G04 #@! TO.N,Net-(D4-Pad2)*
X80797399Y-65557399D02*
X80010000Y-64770000D01*
X81254601Y-66014601D02*
X80797399Y-65557399D01*
X83147409Y-66014601D02*
X81254601Y-66014601D01*
X83845399Y-65316611D02*
X83147409Y-66014601D01*
X83845399Y-62204601D02*
X83845399Y-65316611D01*
X85090000Y-60960000D02*
X83845399Y-62204601D01*
X80010000Y-70485000D02*
X80010000Y-64770000D01*
G04 #@! TO.N,Net-(J1-Pad3)*
X87630000Y-83185000D02*
X87630000Y-74930000D01*
G04 #@! TO.N,Net-(J2-Pad3)*
X140970000Y-75641200D02*
X140970000Y-74930000D01*
X133350000Y-83261200D02*
X140970000Y-75641200D01*
G04 #@! TO.N,Net-(J3-Pad3)*
X143510000Y-83185000D02*
X143510000Y-74930000D01*
G04 #@! TO.N,Net-(P1-Pad1)*
X100330000Y-58420000D02*
X100330000Y-53340000D01*
G04 #@! TO.N,Net-(P1-Pad4)*
X102870000Y-57150000D02*
X102870000Y-53340000D01*
G04 #@! TO.N,Net-(P1-Pad3)*
X97790000Y-57150000D02*
X97790000Y-53340000D01*
G04 #@! TO.N,Net-(P1-Pad5)*
X74930000Y-59690000D02*
X74930000Y-60960000D01*
X69850000Y-54610000D02*
X74930000Y-59690000D01*
G04 #@! TO.N,Net-(Q1-Pad3)*
X114300000Y-40640000D02*
X116840000Y-43180000D01*
X114300000Y-39370000D02*
X114300000Y-40640000D01*
G04 #@! TO.N,Net-(Q2-Pad3)*
X119380000Y-44450000D02*
X118110000Y-45720000D01*
X119380000Y-41469562D02*
X119380000Y-44450000D01*
X121920000Y-40640000D02*
X120209562Y-40640000D01*
X120209562Y-40640000D02*
X119380000Y-41469562D01*
G04 #@! TO.N,Net-(Q2-Pad2)*
X116141501Y-47688499D02*
X114300000Y-49530000D01*
X116840000Y-46990000D02*
X116141501Y-47688499D01*
X111760000Y-39370000D02*
X111760000Y-42545000D01*
X114300000Y-45085000D02*
X114300000Y-49530000D01*
X111760000Y-42545000D02*
X114300000Y-45085000D01*
G04 #@! TO.N,Net-(Q4-Pad2)*
X133350000Y-47852120D02*
X133350000Y-48542172D01*
X133350000Y-48542172D02*
X133350000Y-49530000D01*
X130810000Y-46990000D02*
X132487880Y-46990000D01*
X129540000Y-45720000D02*
X130810000Y-46990000D01*
X129540000Y-39370000D02*
X129540000Y-45720000D01*
X132487880Y-46990000D02*
X133350000Y-47852120D01*
G04 #@! TO.N,Net-(Q4-Pad1)*
X132080000Y-45720000D02*
X134620000Y-48260000D01*
X132080000Y-45720000D02*
X132080000Y-40005000D01*
X132080000Y-40005000D02*
X132715000Y-39370000D01*
X132715000Y-39370000D02*
X138430000Y-39370000D01*
G04 #@! TO.N,Net-(R1-Pad2)*
X76200000Y-97800000D02*
X76200000Y-77470000D01*
X146050000Y-79375000D02*
X146050000Y-74930000D01*
G04 #@! TO.N,Net-(R1-Pad1)*
X158750000Y-41275000D02*
X158750000Y-53340000D01*
X158750000Y-53340000D02*
X160020000Y-54610000D01*
X160020000Y-54610000D02*
X160020000Y-66675000D01*
X81200000Y-78823858D02*
X81166951Y-78790809D01*
X81166951Y-78790809D02*
X80658952Y-78282810D01*
X81200000Y-97800000D02*
X81200000Y-78823858D01*
G04 #@! TO.N,Net-(R3-Pad2)*
X140970000Y-60960000D02*
X140970000Y-64770000D01*
X140970000Y-64770000D02*
X140970000Y-67945000D01*
X140970000Y-67945000D02*
X138430000Y-70485000D01*
X138430000Y-70485000D02*
X138430000Y-74930000D01*
D23*
G04 #@! TO.N,Net-(R6-Pad1)*
X85090000Y-49530000D02*
X85090000Y-53340000D01*
D21*
G04 #@! TO.N,Net-(R10-Pad1)*
X138430000Y-60960000D02*
X138430000Y-64770000D01*
X152400000Y-46990000D02*
X152400000Y-57150000D01*
X138430000Y-57150000D02*
X138430000Y-60960000D01*
G04 #@! TO.N,Net-(R10-Pad3)*
X154940000Y-44450000D02*
X152400000Y-44450000D01*
X152400000Y-44450000D02*
X147320000Y-49530000D01*
X147320000Y-49530000D02*
X146050000Y-49530000D01*
G04 #@! TO.N,Net-(R15-Pad2)*
X125730000Y-64770000D02*
X125730000Y-60960000D01*
G04 #@! TO.N,Net-(R16-Pad2)*
X123190000Y-64770000D02*
X123190000Y-60960000D01*
G04 #@! TO.N,Net-(R17-Pad1)*
X158750000Y-60960000D02*
X158750000Y-64770000D01*
X161290000Y-74930000D02*
X166370000Y-69850000D01*
X161290000Y-72390000D02*
X161290000Y-74930000D01*
X158750000Y-64770000D02*
X158750000Y-69850000D01*
X158750000Y-69850000D02*
X161290000Y-72390000D01*
G04 #@! TO.N,Net-(R18-Pad2)*
X164617399Y-74142601D02*
X167640000Y-71120000D01*
X163830000Y-74930000D02*
X164617399Y-74142601D01*
G04 #@! TO.N,Net-(R23-Pad1)*
X156210000Y-60960000D02*
X154940000Y-62230000D01*
X154940000Y-62230000D02*
X154940000Y-66675000D01*
X154940000Y-66675000D02*
X156210000Y-67945000D01*
X156210000Y-67945000D02*
X156210000Y-74930000D01*
G04 #@! TO.N,/OUT*
X86360000Y-54610000D02*
X86360000Y-77716790D01*
X86360000Y-77716790D02*
X86360000Y-78435210D01*
X87630000Y-53340000D02*
X86360000Y-54610000D01*
G04 #@! TO.N,Net-(D6-Pad1)*
X164465000Y-96520000D02*
X164465000Y-90170000D01*
G04 #@! TD*
M02*
