M71
M48
T1F00S00C0.036
T2F00S00C0.050
T3F00S00C0.060
T4F00S00C0.095
%
T01
X035Y0255
X036
X037
X038
X039
X04
X041
X042
X043
X044
Y0265
X043
X042
X041
X04
X039
X038
X037
X036
X035
T02
X04197Y01158
X045Y0106
X04803Y01158
X05197
X055Y0106
X05803Y01158
X06197
X065Y0106
X06803Y01158
T03
X015Y012
X0165Y015
X0175Y017
X0275
X0265Y015
X025Y012
X035
X0365Y015
X0375Y017
T04
X0135Y013
X0165
X015Y018
X025
X0265Y013
X0235
X0335
X0365
X035Y018
M30
