M48
;DRILL file {KiCad 4.0.5} date 02/09/17 20:29:48
;FORMAT={-:-/ absolute / inch / decimal}
FMAT,2
INCH,TZ
T1C0.035
T2C0.036
T3C0.147
%
G90
G05
M72
T1
X4.85Y-5.05
X4.95Y-5.05
X5.6Y-5.05
X5.7Y-5.05
X6.35Y-5.05
X6.45Y-5.05
X7.1Y-5.05
X7.2Y-5.05
T2
X4.65Y-4.35
X4.65Y-4.45
X4.75Y-4.35
X4.75Y-4.45
X4.85Y-4.35
X4.85Y-4.45
X4.95Y-4.35
X4.95Y-4.45
X5.05Y-4.35
X5.05Y-4.45
X5.15Y-4.35
X5.15Y-4.45
X5.25Y-4.35
X5.25Y-4.45
X5.35Y-4.35
X5.35Y-4.45
X5.8Y-4.35
X5.8Y-4.45
X5.9Y-4.35
X5.9Y-4.45
X6.Y-4.35
X6.Y-4.45
X6.1Y-4.35
X6.1Y-4.45
X6.2Y-4.35
X6.2Y-4.45
X6.65Y-4.35
X6.65Y-4.45
X6.75Y-4.35
X6.75Y-4.45
X6.85Y-4.35
X6.85Y-4.45
X6.95Y-4.35
X6.95Y-4.45
X7.05Y-4.35
X7.05Y-4.45
T3
X4.6Y-5.015
X5.35Y-5.015
X6.1Y-5.015
X6.85Y-5.015
T0
M30
