G04 #@! TF.GenerationSoftware,KiCad,Pcbnew,(5.1.2)-2*
G04 #@! TF.CreationDate,2019-07-21T19:43:21-07:00*
G04 #@! TF.ProjectId,300-1004,3330302d-3130-4303-942e-6b696361645f,rev?*
G04 #@! TF.SameCoordinates,Original*
G04 #@! TF.FileFunction,Legend,Top*
G04 #@! TF.FilePolarity,Positive*
%FSLAX46Y46*%
G04 Gerber Fmt 4.6, Leading zero omitted, Abs format (unit mm)*
G04 Created by KiCad (PCBNEW (5.1.2)-2) date 2019-07-21 19:43:21*
%MOMM*%
%LPD*%
G04 APERTURE LIST*
%ADD10C,0.635000*%
%ADD11C,0.508000*%
%ADD12C,0.150000*%
%ADD13C,0.120000*%
G04 APERTURE END LIST*
D10*
X146431000Y-69850000D02*
G75*
G03X146431000Y-69850000I-381000J0D01*
G01*
D11*
X228854000Y-69850000D02*
G75*
G03X228854000Y-69850000I-254000J0D01*
G01*
D12*
X157480000Y-106934000D02*
X149860000Y-106934000D01*
X149860000Y-108966000D02*
X157480000Y-108966000D01*
X158115000Y-107950000D02*
X157480000Y-107950000D01*
X149860000Y-107950000D02*
X149352000Y-107950000D01*
X157480000Y-106934000D02*
X157480000Y-108966000D01*
X149860000Y-106934000D02*
X149860000Y-108966000D01*
X157480000Y-109474000D02*
X149860000Y-109474000D01*
X149860000Y-111506000D02*
X157480000Y-111506000D01*
X158115000Y-110490000D02*
X157480000Y-110490000D01*
X149860000Y-110490000D02*
X149352000Y-110490000D01*
X157480000Y-109474000D02*
X157480000Y-111506000D01*
X149860000Y-109474000D02*
X149860000Y-111506000D01*
D13*
X148240000Y-65440000D02*
X148940000Y-65440000D01*
X148940000Y-66640000D02*
X148240000Y-66640000D01*
X150780000Y-87665000D02*
X151480000Y-87665000D01*
X151480000Y-88865000D02*
X150780000Y-88865000D01*
D12*
X177800000Y-141224000D02*
X176530000Y-141224000D01*
X177800000Y-140970000D02*
X177800000Y-141224000D01*
X177800000Y-133096000D02*
X177800000Y-140970000D01*
X176530000Y-133096000D02*
X177800000Y-133096000D01*
X173990000Y-132969000D02*
X173990000Y-133096000D01*
X173228000Y-133096000D02*
X173990000Y-133096000D01*
X173228000Y-141224000D02*
X173228000Y-133096000D01*
X173990000Y-141224000D02*
X173228000Y-141224000D01*
X170180000Y-141224000D02*
X168910000Y-141224000D01*
X170180000Y-140970000D02*
X170180000Y-141224000D01*
X170180000Y-133096000D02*
X170180000Y-140970000D01*
X168910000Y-133096000D02*
X170180000Y-133096000D01*
X166370000Y-132969000D02*
X166370000Y-133096000D01*
X165608000Y-133096000D02*
X166370000Y-133096000D01*
X165608000Y-141224000D02*
X165608000Y-133096000D01*
X166370000Y-141224000D02*
X165608000Y-141224000D01*
X162560000Y-141224000D02*
X161290000Y-141224000D01*
X162560000Y-140970000D02*
X162560000Y-141224000D01*
X162560000Y-133096000D02*
X162560000Y-140970000D01*
X161290000Y-133096000D02*
X162560000Y-133096000D01*
X158750000Y-132969000D02*
X158750000Y-133096000D01*
X157988000Y-133096000D02*
X158750000Y-133096000D01*
X157988000Y-141224000D02*
X157988000Y-133096000D01*
X158750000Y-141224000D02*
X157988000Y-141224000D01*
X154940000Y-141224000D02*
X153670000Y-141224000D01*
X154940000Y-140970000D02*
X154940000Y-141224000D01*
X154940000Y-133096000D02*
X154940000Y-140970000D01*
X153670000Y-133096000D02*
X154940000Y-133096000D01*
X151130000Y-132969000D02*
X151130000Y-133096000D01*
X150368000Y-133096000D02*
X151130000Y-133096000D01*
X150368000Y-141224000D02*
X150368000Y-133096000D01*
X151130000Y-141224000D02*
X150368000Y-141224000D01*
X147320000Y-141224000D02*
X146050000Y-141224000D01*
X147320000Y-140970000D02*
X147320000Y-141224000D01*
X147320000Y-133096000D02*
X147320000Y-140970000D01*
X146050000Y-133096000D02*
X147320000Y-133096000D01*
X143510000Y-132969000D02*
X143510000Y-133096000D01*
X142748000Y-133096000D02*
X143510000Y-133096000D01*
X142748000Y-141224000D02*
X142748000Y-133096000D01*
X143510000Y-141224000D02*
X142748000Y-141224000D01*
X139700000Y-141224000D02*
X138430000Y-141224000D01*
X139700000Y-140970000D02*
X139700000Y-141224000D01*
X139700000Y-133096000D02*
X139700000Y-140970000D01*
X138430000Y-133096000D02*
X139700000Y-133096000D01*
X135890000Y-132969000D02*
X135890000Y-133096000D01*
X135128000Y-133096000D02*
X135890000Y-133096000D01*
X135128000Y-141224000D02*
X135128000Y-133096000D01*
X135890000Y-141224000D02*
X135128000Y-141224000D01*
X132080000Y-141224000D02*
X130810000Y-141224000D01*
X132080000Y-140970000D02*
X132080000Y-141224000D01*
X132080000Y-133096000D02*
X132080000Y-140970000D01*
X130810000Y-133096000D02*
X132080000Y-133096000D01*
X128270000Y-132969000D02*
X128270000Y-133096000D01*
X127508000Y-133096000D02*
X128270000Y-133096000D01*
X127508000Y-141224000D02*
X127508000Y-133096000D01*
X128270000Y-141224000D02*
X127508000Y-141224000D01*
X124460000Y-141224000D02*
X123190000Y-141224000D01*
X124460000Y-140970000D02*
X124460000Y-141224000D01*
X124460000Y-133096000D02*
X124460000Y-140970000D01*
X123190000Y-133096000D02*
X124460000Y-133096000D01*
X120650000Y-132969000D02*
X120650000Y-133096000D01*
X119888000Y-133096000D02*
X120650000Y-133096000D01*
X119888000Y-141224000D02*
X119888000Y-133096000D01*
X120650000Y-141224000D02*
X119888000Y-141224000D01*
X180086000Y-125730000D02*
X180086000Y-118110000D01*
X178054000Y-118110000D02*
X178054000Y-125730000D01*
X179070000Y-126365000D02*
X179070000Y-125730000D01*
X179070000Y-118110000D02*
X179070000Y-117602000D01*
X180086000Y-125730000D02*
X178054000Y-125730000D01*
X180086000Y-118110000D02*
X178054000Y-118110000D01*
X172466000Y-125730000D02*
X172466000Y-118110000D01*
X170434000Y-118110000D02*
X170434000Y-125730000D01*
X171450000Y-126365000D02*
X171450000Y-125730000D01*
X171450000Y-118110000D02*
X171450000Y-117602000D01*
X172466000Y-125730000D02*
X170434000Y-125730000D01*
X172466000Y-118110000D02*
X170434000Y-118110000D01*
X164846000Y-125730000D02*
X164846000Y-118110000D01*
X162814000Y-118110000D02*
X162814000Y-125730000D01*
X163830000Y-126365000D02*
X163830000Y-125730000D01*
X163830000Y-118110000D02*
X163830000Y-117602000D01*
X164846000Y-125730000D02*
X162814000Y-125730000D01*
X164846000Y-118110000D02*
X162814000Y-118110000D01*
X157226000Y-125730000D02*
X157226000Y-118110000D01*
X155194000Y-118110000D02*
X155194000Y-125730000D01*
X156210000Y-126365000D02*
X156210000Y-125730000D01*
X156210000Y-118110000D02*
X156210000Y-117602000D01*
X157226000Y-125730000D02*
X155194000Y-125730000D01*
X157226000Y-118110000D02*
X155194000Y-118110000D01*
X149606000Y-125730000D02*
X149606000Y-118110000D01*
X147574000Y-118110000D02*
X147574000Y-125730000D01*
X148590000Y-126365000D02*
X148590000Y-125730000D01*
X148590000Y-118110000D02*
X148590000Y-117602000D01*
X149606000Y-125730000D02*
X147574000Y-125730000D01*
X149606000Y-118110000D02*
X147574000Y-118110000D01*
X141986000Y-125730000D02*
X141986000Y-118110000D01*
X139954000Y-118110000D02*
X139954000Y-125730000D01*
X140970000Y-126365000D02*
X140970000Y-125730000D01*
X140970000Y-118110000D02*
X140970000Y-117602000D01*
X141986000Y-125730000D02*
X139954000Y-125730000D01*
X141986000Y-118110000D02*
X139954000Y-118110000D01*
X134366000Y-125730000D02*
X134366000Y-118110000D01*
X132334000Y-118110000D02*
X132334000Y-125730000D01*
X133350000Y-126365000D02*
X133350000Y-125730000D01*
X133350000Y-118110000D02*
X133350000Y-117602000D01*
X134366000Y-125730000D02*
X132334000Y-125730000D01*
X134366000Y-118110000D02*
X132334000Y-118110000D01*
X126746000Y-125730000D02*
X126746000Y-118110000D01*
X124714000Y-118110000D02*
X124714000Y-125730000D01*
X125730000Y-126365000D02*
X125730000Y-125730000D01*
X125730000Y-118110000D02*
X125730000Y-117602000D01*
X126746000Y-125730000D02*
X124714000Y-125730000D01*
X126746000Y-118110000D02*
X124714000Y-118110000D01*
X180086000Y-140970000D02*
X180086000Y-133350000D01*
X178054000Y-133350000D02*
X178054000Y-140970000D01*
X179070000Y-141605000D02*
X179070000Y-140970000D01*
X179070000Y-133350000D02*
X179070000Y-132842000D01*
X180086000Y-140970000D02*
X178054000Y-140970000D01*
X180086000Y-133350000D02*
X178054000Y-133350000D01*
X172466000Y-140970000D02*
X172466000Y-133350000D01*
X170434000Y-133350000D02*
X170434000Y-140970000D01*
X171450000Y-141605000D02*
X171450000Y-140970000D01*
X171450000Y-133350000D02*
X171450000Y-132842000D01*
X172466000Y-140970000D02*
X170434000Y-140970000D01*
X172466000Y-133350000D02*
X170434000Y-133350000D01*
X164846000Y-140970000D02*
X164846000Y-133350000D01*
X162814000Y-133350000D02*
X162814000Y-140970000D01*
X163830000Y-141605000D02*
X163830000Y-140970000D01*
X163830000Y-133350000D02*
X163830000Y-132842000D01*
X164846000Y-140970000D02*
X162814000Y-140970000D01*
X164846000Y-133350000D02*
X162814000Y-133350000D01*
X157226000Y-140970000D02*
X157226000Y-133350000D01*
X155194000Y-133350000D02*
X155194000Y-140970000D01*
X156210000Y-141605000D02*
X156210000Y-140970000D01*
X156210000Y-133350000D02*
X156210000Y-132842000D01*
X157226000Y-140970000D02*
X155194000Y-140970000D01*
X157226000Y-133350000D02*
X155194000Y-133350000D01*
X149606000Y-140970000D02*
X149606000Y-133350000D01*
X147574000Y-133350000D02*
X147574000Y-140970000D01*
X148590000Y-141605000D02*
X148590000Y-140970000D01*
X148590000Y-133350000D02*
X148590000Y-132842000D01*
X149606000Y-140970000D02*
X147574000Y-140970000D01*
X149606000Y-133350000D02*
X147574000Y-133350000D01*
X141986000Y-140970000D02*
X141986000Y-133350000D01*
X139954000Y-133350000D02*
X139954000Y-140970000D01*
X140970000Y-141605000D02*
X140970000Y-140970000D01*
X140970000Y-133350000D02*
X140970000Y-132842000D01*
X141986000Y-140970000D02*
X139954000Y-140970000D01*
X141986000Y-133350000D02*
X139954000Y-133350000D01*
X134366000Y-140970000D02*
X134366000Y-133350000D01*
X132334000Y-133350000D02*
X132334000Y-140970000D01*
X133350000Y-141605000D02*
X133350000Y-140970000D01*
X133350000Y-133350000D02*
X133350000Y-132842000D01*
X134366000Y-140970000D02*
X132334000Y-140970000D01*
X134366000Y-133350000D02*
X132334000Y-133350000D01*
X126746000Y-140970000D02*
X126746000Y-133350000D01*
X124714000Y-133350000D02*
X124714000Y-140970000D01*
X125730000Y-141605000D02*
X125730000Y-140970000D01*
X125730000Y-133350000D02*
X125730000Y-132842000D01*
X126746000Y-140970000D02*
X124714000Y-140970000D01*
X126746000Y-133350000D02*
X124714000Y-133350000D01*
X140970000Y-106680000D02*
X140970000Y-111760000D01*
X120650000Y-111760000D02*
X120650000Y-106680000D01*
X120650000Y-106680000D02*
X120650000Y-104775000D01*
X120650000Y-104775000D02*
X140970000Y-104775000D01*
X140970000Y-104775000D02*
X140970000Y-106680000D01*
X120650000Y-111760000D02*
X120650000Y-113665000D01*
X120650000Y-113665000D02*
X140970000Y-113665000D01*
X140970000Y-113665000D02*
X140970000Y-111760000D01*
X181610000Y-106680000D02*
X181610000Y-111760000D01*
X161290000Y-111760000D02*
X161290000Y-106680000D01*
X161290000Y-106680000D02*
X161290000Y-104775000D01*
X161290000Y-104775000D02*
X181610000Y-104775000D01*
X181610000Y-104775000D02*
X181610000Y-106680000D01*
X161290000Y-111760000D02*
X161290000Y-113665000D01*
X161290000Y-113665000D02*
X181610000Y-113665000D01*
X181610000Y-113665000D02*
X181610000Y-111760000D01*
D13*
X173715000Y-124480000D02*
X176805000Y-124480000D01*
X177760000Y-121920000D02*
G75*
G03X177760000Y-121920000I-2500000J0D01*
G01*
X175259538Y-118930000D02*
G75*
G02X176804830Y-124480000I462J-2990000D01*
G01*
X175260462Y-118930000D02*
G75*
G03X173715170Y-124480000I-462J-2990000D01*
G01*
X166095000Y-124480000D02*
X169185000Y-124480000D01*
X170140000Y-121920000D02*
G75*
G03X170140000Y-121920000I-2500000J0D01*
G01*
X167639538Y-118930000D02*
G75*
G02X169184830Y-124480000I462J-2990000D01*
G01*
X167640462Y-118930000D02*
G75*
G03X166095170Y-124480000I-462J-2990000D01*
G01*
X158475000Y-124480000D02*
X161565000Y-124480000D01*
X162520000Y-121920000D02*
G75*
G03X162520000Y-121920000I-2500000J0D01*
G01*
X160019538Y-118930000D02*
G75*
G02X161564830Y-124480000I462J-2990000D01*
G01*
X160020462Y-118930000D02*
G75*
G03X158475170Y-124480000I-462J-2990000D01*
G01*
X150855000Y-124480000D02*
X153945000Y-124480000D01*
X154900000Y-121920000D02*
G75*
G03X154900000Y-121920000I-2500000J0D01*
G01*
X152399538Y-118930000D02*
G75*
G02X153944830Y-124480000I462J-2990000D01*
G01*
X152400462Y-118930000D02*
G75*
G03X150855170Y-124480000I-462J-2990000D01*
G01*
X143235000Y-124480000D02*
X146325000Y-124480000D01*
X147280000Y-121920000D02*
G75*
G03X147280000Y-121920000I-2500000J0D01*
G01*
X144779538Y-118930000D02*
G75*
G02X146324830Y-124480000I462J-2990000D01*
G01*
X144780462Y-118930000D02*
G75*
G03X143235170Y-124480000I-462J-2990000D01*
G01*
X135615000Y-124480000D02*
X138705000Y-124480000D01*
X139660000Y-121920000D02*
G75*
G03X139660000Y-121920000I-2500000J0D01*
G01*
X137159538Y-118930000D02*
G75*
G02X138704830Y-124480000I462J-2990000D01*
G01*
X137160462Y-118930000D02*
G75*
G03X135615170Y-124480000I-462J-2990000D01*
G01*
X127995000Y-124480000D02*
X131085000Y-124480000D01*
X132040000Y-121920000D02*
G75*
G03X132040000Y-121920000I-2500000J0D01*
G01*
X129539538Y-118930000D02*
G75*
G02X131084830Y-124480000I462J-2990000D01*
G01*
X129540462Y-118930000D02*
G75*
G03X127995170Y-124480000I-462J-2990000D01*
G01*
X120375000Y-124480000D02*
X123465000Y-124480000D01*
X124420000Y-121920000D02*
G75*
G03X124420000Y-121920000I-2500000J0D01*
G01*
X121919538Y-118930000D02*
G75*
G02X123464830Y-124480000I462J-2990000D01*
G01*
X121920462Y-118930000D02*
G75*
G03X120375170Y-124480000I-462J-2990000D01*
G01*
D12*
X146495000Y-70295000D02*
X146495000Y-70870000D01*
X160845000Y-70295000D02*
X160845000Y-70970000D01*
X160845000Y-84645000D02*
X160845000Y-83970000D01*
X146495000Y-84645000D02*
X146495000Y-83970000D01*
X146495000Y-70295000D02*
X147170000Y-70295000D01*
X146495000Y-84645000D02*
X147170000Y-84645000D01*
X160845000Y-84645000D02*
X160170000Y-84645000D01*
X160845000Y-70295000D02*
X160170000Y-70295000D01*
X146495000Y-70870000D02*
X145220000Y-70870000D01*
X126492000Y-60071000D02*
X114300000Y-60071000D01*
X126619000Y-60198000D02*
X126492000Y-60071000D01*
X126619000Y-60452000D02*
X126619000Y-60198000D01*
X126619000Y-72136000D02*
X126619000Y-60452000D01*
X126111000Y-72136000D02*
X126619000Y-72136000D01*
X114300000Y-72136000D02*
X126111000Y-72136000D01*
X114300000Y-59944000D02*
X114300000Y-72136000D01*
X157480000Y-90170000D02*
X149860000Y-90170000D01*
X157480000Y-92710000D02*
X149860000Y-92710000D01*
X148590000Y-91440000D02*
G75*
G03X149860000Y-92710000I1270000J0D01*
G01*
X149860000Y-90170000D02*
G75*
G03X148590000Y-91440000I0J-1270000D01*
G01*
X157480000Y-92710000D02*
G75*
G03X158750000Y-91440000I0J1270000D01*
G01*
X158750000Y-91440000D02*
G75*
G03X157480000Y-90170000I-1270000J0D01*
G01*
X148590000Y-60960000D02*
X146050000Y-60960000D01*
X146050000Y-60960000D02*
G75*
G03X146050000Y-63500000I1270000J-1270000D01*
G01*
X146050000Y-63500000D02*
G75*
G03X148590000Y-63500000I1270000J1270000D01*
G01*
X148590000Y-63500000D02*
G75*
G03X148590000Y-60960000I-1270000J1270000D01*
G01*
X120650000Y-93980000D02*
X115570000Y-93980000D01*
X115570000Y-73660000D02*
X120650000Y-73660000D01*
X120650000Y-73660000D02*
X122555000Y-73660000D01*
X122555000Y-73660000D02*
X122555000Y-93980000D01*
X122555000Y-93980000D02*
X120650000Y-93980000D01*
X115570000Y-73660000D02*
X113665000Y-73660000D01*
X113665000Y-73660000D02*
X113665000Y-93980000D01*
X113665000Y-93980000D02*
X115570000Y-93980000D01*
X130810000Y-54610000D02*
X130810000Y-49530000D01*
X151130000Y-49530000D02*
X151130000Y-54610000D01*
X151130000Y-54610000D02*
X151130000Y-56515000D01*
X151130000Y-56515000D02*
X130810000Y-56515000D01*
X130810000Y-56515000D02*
X130810000Y-54610000D01*
X151130000Y-49530000D02*
X151130000Y-47625000D01*
X151130000Y-47625000D02*
X130810000Y-47625000D01*
X130810000Y-47625000D02*
X130810000Y-49530000D01*
X181610000Y-97790000D02*
X181610000Y-102870000D01*
X161290000Y-102870000D02*
X161290000Y-97790000D01*
X161290000Y-97790000D02*
X161290000Y-95885000D01*
X161290000Y-95885000D02*
X181610000Y-95885000D01*
X181610000Y-95885000D02*
X181610000Y-97790000D01*
X161290000Y-102870000D02*
X161290000Y-104775000D01*
X161290000Y-104775000D02*
X181610000Y-104775000D01*
X181610000Y-104775000D02*
X181610000Y-102870000D01*
X161290000Y-97790000D02*
X161290000Y-102870000D01*
X140970000Y-102870000D02*
X140970000Y-97790000D01*
X140970000Y-97790000D02*
X140970000Y-95885000D01*
X140970000Y-95885000D02*
X161290000Y-95885000D01*
X161290000Y-95885000D02*
X161290000Y-97790000D01*
X140970000Y-102870000D02*
X140970000Y-104775000D01*
X140970000Y-104775000D02*
X161290000Y-104775000D01*
X161290000Y-104775000D02*
X161290000Y-102870000D01*
X140970000Y-97790000D02*
X140970000Y-102870000D01*
X120650000Y-102870000D02*
X120650000Y-97790000D01*
X120650000Y-97790000D02*
X120650000Y-95885000D01*
X120650000Y-95885000D02*
X140970000Y-95885000D01*
X140970000Y-95885000D02*
X140970000Y-97790000D01*
X120650000Y-102870000D02*
X120650000Y-104775000D01*
X120650000Y-104775000D02*
X140970000Y-104775000D01*
X140970000Y-104775000D02*
X140970000Y-102870000D01*
X173990000Y-54610000D02*
X179070000Y-54610000D01*
X179070000Y-74930000D02*
X173990000Y-74930000D01*
X173990000Y-74930000D02*
X172085000Y-74930000D01*
X172085000Y-74930000D02*
X172085000Y-54610000D01*
X172085000Y-54610000D02*
X173990000Y-54610000D01*
X179070000Y-74930000D02*
X180975000Y-74930000D01*
X180975000Y-74930000D02*
X180975000Y-54610000D01*
X180975000Y-54610000D02*
X179070000Y-54610000D01*
X173990000Y-74930000D02*
X179070000Y-74930000D01*
X179070000Y-95250000D02*
X173990000Y-95250000D01*
X173990000Y-95250000D02*
X172085000Y-95250000D01*
X172085000Y-95250000D02*
X172085000Y-74930000D01*
X172085000Y-74930000D02*
X173990000Y-74930000D01*
X179070000Y-95250000D02*
X180975000Y-95250000D01*
X180975000Y-95250000D02*
X180975000Y-74930000D01*
X180975000Y-74930000D02*
X179070000Y-74930000D01*
X151130000Y-54610000D02*
X151130000Y-49530000D01*
X171450000Y-49530000D02*
X171450000Y-54610000D01*
X171450000Y-54610000D02*
X171450000Y-56515000D01*
X171450000Y-56515000D02*
X151130000Y-56515000D01*
X151130000Y-56515000D02*
X151130000Y-54610000D01*
X171450000Y-49530000D02*
X171450000Y-47625000D01*
X171450000Y-47625000D02*
X151130000Y-47625000D01*
X151130000Y-47625000D02*
X151130000Y-49530000D01*
X132461000Y-69850000D02*
X132461000Y-62230000D01*
X130429000Y-62230000D02*
X130429000Y-69850000D01*
X131445000Y-70485000D02*
X131445000Y-69850000D01*
X131445000Y-62230000D02*
X131445000Y-61722000D01*
X132461000Y-69850000D02*
X130429000Y-69850000D01*
X132461000Y-62230000D02*
X130429000Y-62230000D01*
X130429000Y-62992000D02*
X132461000Y-62992000D01*
X137541000Y-69850000D02*
X137541000Y-62230000D01*
X135509000Y-62230000D02*
X135509000Y-69850000D01*
X136525000Y-70485000D02*
X136525000Y-69850000D01*
X136525000Y-62230000D02*
X136525000Y-61722000D01*
X137541000Y-69850000D02*
X135509000Y-69850000D01*
X137541000Y-62230000D02*
X135509000Y-62230000D01*
X135509000Y-62992000D02*
X137541000Y-62992000D01*
X129921000Y-69850000D02*
X129921000Y-62230000D01*
X127889000Y-62230000D02*
X127889000Y-69850000D01*
X128905000Y-70485000D02*
X128905000Y-69850000D01*
X128905000Y-62230000D02*
X128905000Y-61722000D01*
X129921000Y-69850000D02*
X127889000Y-69850000D01*
X129921000Y-62230000D02*
X127889000Y-62230000D01*
X127889000Y-62992000D02*
X129921000Y-62992000D01*
X135001000Y-69850000D02*
X135001000Y-62230000D01*
X132969000Y-62230000D02*
X132969000Y-69850000D01*
X133985000Y-70485000D02*
X133985000Y-69850000D01*
X133985000Y-62230000D02*
X133985000Y-61722000D01*
X135001000Y-69850000D02*
X132969000Y-69850000D01*
X135001000Y-62230000D02*
X132969000Y-62230000D01*
X132969000Y-62992000D02*
X135001000Y-62992000D01*
X144780000Y-63500000D02*
G75*
G03X144780000Y-63500000I-2540000J0D01*
G01*
X154940000Y-62230000D02*
G75*
G03X154940000Y-62230000I-2540000J0D01*
G01*
X150241000Y-64516000D02*
X150241000Y-64008000D01*
X149987000Y-64262000D02*
X150495000Y-64262000D01*
X144899142Y-108656380D02*
X144565809Y-108180190D01*
X144327714Y-108656380D02*
X144327714Y-107656380D01*
X144708666Y-107656380D01*
X144803904Y-107704000D01*
X144851523Y-107751619D01*
X144899142Y-107846857D01*
X144899142Y-107989714D01*
X144851523Y-108084952D01*
X144803904Y-108132571D01*
X144708666Y-108180190D01*
X144327714Y-108180190D01*
X145851523Y-108656380D02*
X145280095Y-108656380D01*
X145565809Y-108656380D02*
X145565809Y-107656380D01*
X145470571Y-107799238D01*
X145375333Y-107894476D01*
X145280095Y-107942095D01*
X146422952Y-108084952D02*
X146327714Y-108037333D01*
X146280095Y-107989714D01*
X146232476Y-107894476D01*
X146232476Y-107846857D01*
X146280095Y-107751619D01*
X146327714Y-107704000D01*
X146422952Y-107656380D01*
X146613428Y-107656380D01*
X146708666Y-107704000D01*
X146756285Y-107751619D01*
X146803904Y-107846857D01*
X146803904Y-107894476D01*
X146756285Y-107989714D01*
X146708666Y-108037333D01*
X146613428Y-108084952D01*
X146422952Y-108084952D01*
X146327714Y-108132571D01*
X146280095Y-108180190D01*
X146232476Y-108275428D01*
X146232476Y-108465904D01*
X146280095Y-108561142D01*
X146327714Y-108608761D01*
X146422952Y-108656380D01*
X146613428Y-108656380D01*
X146708666Y-108608761D01*
X146756285Y-108561142D01*
X146803904Y-108465904D01*
X146803904Y-108275428D01*
X146756285Y-108180190D01*
X146708666Y-108132571D01*
X146613428Y-108084952D01*
X151614380Y-107529380D02*
X152233428Y-107529380D01*
X151900095Y-107910333D01*
X152042952Y-107910333D01*
X152138190Y-107957952D01*
X152185809Y-108005571D01*
X152233428Y-108100809D01*
X152233428Y-108338904D01*
X152185809Y-108434142D01*
X152138190Y-108481761D01*
X152042952Y-108529380D01*
X151757238Y-108529380D01*
X151662000Y-108481761D01*
X151614380Y-108434142D01*
X152662000Y-108434142D02*
X152709619Y-108481761D01*
X152662000Y-108529380D01*
X152614380Y-108481761D01*
X152662000Y-108434142D01*
X152662000Y-108529380D01*
X153042952Y-107529380D02*
X153662000Y-107529380D01*
X153328666Y-107910333D01*
X153471523Y-107910333D01*
X153566761Y-107957952D01*
X153614380Y-108005571D01*
X153662000Y-108100809D01*
X153662000Y-108338904D01*
X153614380Y-108434142D01*
X153566761Y-108481761D01*
X153471523Y-108529380D01*
X153185809Y-108529380D01*
X153090571Y-108481761D01*
X153042952Y-108434142D01*
X154090571Y-108529380D02*
X154090571Y-107529380D01*
X154662000Y-108529380D02*
X154233428Y-107957952D01*
X154662000Y-107529380D02*
X154090571Y-108100809D01*
X144899142Y-111196380D02*
X144565809Y-110720190D01*
X144327714Y-111196380D02*
X144327714Y-110196380D01*
X144708666Y-110196380D01*
X144803904Y-110244000D01*
X144851523Y-110291619D01*
X144899142Y-110386857D01*
X144899142Y-110529714D01*
X144851523Y-110624952D01*
X144803904Y-110672571D01*
X144708666Y-110720190D01*
X144327714Y-110720190D01*
X145851523Y-111196380D02*
X145280095Y-111196380D01*
X145565809Y-111196380D02*
X145565809Y-110196380D01*
X145470571Y-110339238D01*
X145375333Y-110434476D01*
X145280095Y-110482095D01*
X146184857Y-110196380D02*
X146851523Y-110196380D01*
X146422952Y-111196380D01*
X151614380Y-110069380D02*
X152233428Y-110069380D01*
X151900095Y-110450333D01*
X152042952Y-110450333D01*
X152138190Y-110497952D01*
X152185809Y-110545571D01*
X152233428Y-110640809D01*
X152233428Y-110878904D01*
X152185809Y-110974142D01*
X152138190Y-111021761D01*
X152042952Y-111069380D01*
X151757238Y-111069380D01*
X151662000Y-111021761D01*
X151614380Y-110974142D01*
X152662000Y-110974142D02*
X152709619Y-111021761D01*
X152662000Y-111069380D01*
X152614380Y-111021761D01*
X152662000Y-110974142D01*
X152662000Y-111069380D01*
X153042952Y-110069380D02*
X153662000Y-110069380D01*
X153328666Y-110450333D01*
X153471523Y-110450333D01*
X153566761Y-110497952D01*
X153614380Y-110545571D01*
X153662000Y-110640809D01*
X153662000Y-110878904D01*
X153614380Y-110974142D01*
X153566761Y-111021761D01*
X153471523Y-111069380D01*
X153185809Y-111069380D01*
X153090571Y-111021761D01*
X153042952Y-110974142D01*
X154090571Y-111069380D02*
X154090571Y-110069380D01*
X154662000Y-111069380D02*
X154233428Y-110497952D01*
X154662000Y-110069380D02*
X154090571Y-110640809D01*
X145502333Y-68175142D02*
X145454714Y-68222761D01*
X145311857Y-68270380D01*
X145216619Y-68270380D01*
X145073761Y-68222761D01*
X144978523Y-68127523D01*
X144930904Y-68032285D01*
X144883285Y-67841809D01*
X144883285Y-67698952D01*
X144930904Y-67508476D01*
X144978523Y-67413238D01*
X145073761Y-67318000D01*
X145216619Y-67270380D01*
X145311857Y-67270380D01*
X145454714Y-67318000D01*
X145502333Y-67365619D01*
X146359476Y-67603714D02*
X146359476Y-68270380D01*
X146121380Y-67222761D02*
X145883285Y-67937047D01*
X146502333Y-67937047D01*
X150963333Y-87372142D02*
X150915714Y-87419761D01*
X150772857Y-87467380D01*
X150677619Y-87467380D01*
X150534761Y-87419761D01*
X150439523Y-87324523D01*
X150391904Y-87229285D01*
X150344285Y-87038809D01*
X150344285Y-86895952D01*
X150391904Y-86705476D01*
X150439523Y-86610238D01*
X150534761Y-86515000D01*
X150677619Y-86467380D01*
X150772857Y-86467380D01*
X150915714Y-86515000D01*
X150963333Y-86562619D01*
X151296666Y-86467380D02*
X151915714Y-86467380D01*
X151582380Y-86848333D01*
X151725238Y-86848333D01*
X151820476Y-86895952D01*
X151868095Y-86943571D01*
X151915714Y-87038809D01*
X151915714Y-87276904D01*
X151868095Y-87372142D01*
X151820476Y-87419761D01*
X151725238Y-87467380D01*
X151439523Y-87467380D01*
X151344285Y-87419761D01*
X151296666Y-87372142D01*
X145073857Y-88749142D02*
X145121476Y-88796761D01*
X145073857Y-88844380D01*
X145026238Y-88796761D01*
X145073857Y-88749142D01*
X145073857Y-88844380D01*
X146073857Y-88844380D02*
X145502428Y-88844380D01*
X145788142Y-88844380D02*
X145788142Y-87844380D01*
X145692904Y-87987238D01*
X145597666Y-88082476D01*
X145502428Y-88130095D01*
X146931000Y-88177714D02*
X146931000Y-88844380D01*
X146502428Y-88177714D02*
X146502428Y-88701523D01*
X146550047Y-88796761D01*
X146645285Y-88844380D01*
X146788142Y-88844380D01*
X146883380Y-88796761D01*
X146931000Y-88749142D01*
X147740523Y-88320571D02*
X147407190Y-88320571D01*
X147407190Y-88844380D02*
X147407190Y-87844380D01*
X147883380Y-87844380D01*
X115625714Y-55562380D02*
X115625714Y-54562380D01*
X116006666Y-54562380D01*
X116101904Y-54610000D01*
X116149523Y-54657619D01*
X116197142Y-54752857D01*
X116197142Y-54895714D01*
X116149523Y-54990952D01*
X116101904Y-55038571D01*
X116006666Y-55086190D01*
X115625714Y-55086190D01*
X117149523Y-55562380D02*
X116578095Y-55562380D01*
X116863809Y-55562380D02*
X116863809Y-54562380D01*
X116768571Y-54705238D01*
X116673333Y-54800476D01*
X116578095Y-54848095D01*
X117768571Y-54562380D02*
X117863809Y-54562380D01*
X117959047Y-54610000D01*
X118006666Y-54657619D01*
X118054285Y-54752857D01*
X118101904Y-54943333D01*
X118101904Y-55181428D01*
X118054285Y-55371904D01*
X118006666Y-55467142D01*
X117959047Y-55514761D01*
X117863809Y-55562380D01*
X117768571Y-55562380D01*
X117673333Y-55514761D01*
X117625714Y-55467142D01*
X117578095Y-55371904D01*
X117530476Y-55181428D01*
X117530476Y-54943333D01*
X117578095Y-54752857D01*
X117625714Y-54657619D01*
X117673333Y-54610000D01*
X117768571Y-54562380D01*
X175791761Y-131635333D02*
X175839380Y-131492476D01*
X175839380Y-131254380D01*
X175791761Y-131159142D01*
X175744142Y-131111523D01*
X175648904Y-131063904D01*
X175553666Y-131063904D01*
X175458428Y-131111523D01*
X175410809Y-131159142D01*
X175363190Y-131254380D01*
X175315571Y-131444857D01*
X175267952Y-131540095D01*
X175220333Y-131587714D01*
X175125095Y-131635333D01*
X175029857Y-131635333D01*
X174934619Y-131587714D01*
X174887000Y-131540095D01*
X174839380Y-131444857D01*
X174839380Y-131206761D01*
X174887000Y-131063904D01*
X174839380Y-130730571D02*
X175839380Y-130492476D01*
X175125095Y-130302000D01*
X175839380Y-130111523D01*
X174839380Y-129873428D01*
X175267952Y-129349619D02*
X175220333Y-129444857D01*
X175172714Y-129492476D01*
X175077476Y-129540095D01*
X175029857Y-129540095D01*
X174934619Y-129492476D01*
X174887000Y-129444857D01*
X174839380Y-129349619D01*
X174839380Y-129159142D01*
X174887000Y-129063904D01*
X174934619Y-129016285D01*
X175029857Y-128968666D01*
X175077476Y-128968666D01*
X175172714Y-129016285D01*
X175220333Y-129063904D01*
X175267952Y-129159142D01*
X175267952Y-129349619D01*
X175315571Y-129444857D01*
X175363190Y-129492476D01*
X175458428Y-129540095D01*
X175648904Y-129540095D01*
X175744142Y-129492476D01*
X175791761Y-129444857D01*
X175839380Y-129349619D01*
X175839380Y-129159142D01*
X175791761Y-129063904D01*
X175744142Y-129016285D01*
X175648904Y-128968666D01*
X175458428Y-128968666D01*
X175363190Y-129016285D01*
X175315571Y-129063904D01*
X175267952Y-129159142D01*
X168044761Y-131254333D02*
X168092380Y-131111476D01*
X168092380Y-130873380D01*
X168044761Y-130778142D01*
X167997142Y-130730523D01*
X167901904Y-130682904D01*
X167806666Y-130682904D01*
X167711428Y-130730523D01*
X167663809Y-130778142D01*
X167616190Y-130873380D01*
X167568571Y-131063857D01*
X167520952Y-131159095D01*
X167473333Y-131206714D01*
X167378095Y-131254333D01*
X167282857Y-131254333D01*
X167187619Y-131206714D01*
X167140000Y-131159095D01*
X167092380Y-131063857D01*
X167092380Y-130825761D01*
X167140000Y-130682904D01*
X167092380Y-130349571D02*
X168092380Y-130111476D01*
X167378095Y-129921000D01*
X168092380Y-129730523D01*
X167092380Y-129492428D01*
X167092380Y-129206714D02*
X167092380Y-128540047D01*
X168092380Y-128968619D01*
X160551761Y-131127333D02*
X160599380Y-130984476D01*
X160599380Y-130746380D01*
X160551761Y-130651142D01*
X160504142Y-130603523D01*
X160408904Y-130555904D01*
X160313666Y-130555904D01*
X160218428Y-130603523D01*
X160170809Y-130651142D01*
X160123190Y-130746380D01*
X160075571Y-130936857D01*
X160027952Y-131032095D01*
X159980333Y-131079714D01*
X159885095Y-131127333D01*
X159789857Y-131127333D01*
X159694619Y-131079714D01*
X159647000Y-131032095D01*
X159599380Y-130936857D01*
X159599380Y-130698761D01*
X159647000Y-130555904D01*
X159599380Y-130222571D02*
X160599380Y-129984476D01*
X159885095Y-129794000D01*
X160599380Y-129603523D01*
X159599380Y-129365428D01*
X159599380Y-128555904D02*
X159599380Y-128746380D01*
X159647000Y-128841619D01*
X159694619Y-128889238D01*
X159837476Y-128984476D01*
X160027952Y-129032095D01*
X160408904Y-129032095D01*
X160504142Y-128984476D01*
X160551761Y-128936857D01*
X160599380Y-128841619D01*
X160599380Y-128651142D01*
X160551761Y-128555904D01*
X160504142Y-128508285D01*
X160408904Y-128460666D01*
X160170809Y-128460666D01*
X160075571Y-128508285D01*
X160027952Y-128555904D01*
X159980333Y-128651142D01*
X159980333Y-128841619D01*
X160027952Y-128936857D01*
X160075571Y-128984476D01*
X160170809Y-129032095D01*
X152550761Y-131635333D02*
X152598380Y-131492476D01*
X152598380Y-131254380D01*
X152550761Y-131159142D01*
X152503142Y-131111523D01*
X152407904Y-131063904D01*
X152312666Y-131063904D01*
X152217428Y-131111523D01*
X152169809Y-131159142D01*
X152122190Y-131254380D01*
X152074571Y-131444857D01*
X152026952Y-131540095D01*
X151979333Y-131587714D01*
X151884095Y-131635333D01*
X151788857Y-131635333D01*
X151693619Y-131587714D01*
X151646000Y-131540095D01*
X151598380Y-131444857D01*
X151598380Y-131206761D01*
X151646000Y-131063904D01*
X151598380Y-130730571D02*
X152598380Y-130492476D01*
X151884095Y-130302000D01*
X152598380Y-130111523D01*
X151598380Y-129873428D01*
X151598380Y-129016285D02*
X151598380Y-129492476D01*
X152074571Y-129540095D01*
X152026952Y-129492476D01*
X151979333Y-129397238D01*
X151979333Y-129159142D01*
X152026952Y-129063904D01*
X152074571Y-129016285D01*
X152169809Y-128968666D01*
X152407904Y-128968666D01*
X152503142Y-129016285D01*
X152550761Y-129063904D01*
X152598380Y-129159142D01*
X152598380Y-129397238D01*
X152550761Y-129492476D01*
X152503142Y-129540095D01*
X145057761Y-131254333D02*
X145105380Y-131111476D01*
X145105380Y-130873380D01*
X145057761Y-130778142D01*
X145010142Y-130730523D01*
X144914904Y-130682904D01*
X144819666Y-130682904D01*
X144724428Y-130730523D01*
X144676809Y-130778142D01*
X144629190Y-130873380D01*
X144581571Y-131063857D01*
X144533952Y-131159095D01*
X144486333Y-131206714D01*
X144391095Y-131254333D01*
X144295857Y-131254333D01*
X144200619Y-131206714D01*
X144153000Y-131159095D01*
X144105380Y-131063857D01*
X144105380Y-130825761D01*
X144153000Y-130682904D01*
X144105380Y-130349571D02*
X145105380Y-130111476D01*
X144391095Y-129921000D01*
X145105380Y-129730523D01*
X144105380Y-129492428D01*
X144438714Y-128682904D02*
X145105380Y-128682904D01*
X144057761Y-128921000D02*
X144772047Y-129159095D01*
X144772047Y-128540047D01*
X137310761Y-131635333D02*
X137358380Y-131492476D01*
X137358380Y-131254380D01*
X137310761Y-131159142D01*
X137263142Y-131111523D01*
X137167904Y-131063904D01*
X137072666Y-131063904D01*
X136977428Y-131111523D01*
X136929809Y-131159142D01*
X136882190Y-131254380D01*
X136834571Y-131444857D01*
X136786952Y-131540095D01*
X136739333Y-131587714D01*
X136644095Y-131635333D01*
X136548857Y-131635333D01*
X136453619Y-131587714D01*
X136406000Y-131540095D01*
X136358380Y-131444857D01*
X136358380Y-131206761D01*
X136406000Y-131063904D01*
X136358380Y-130730571D02*
X137358380Y-130492476D01*
X136644095Y-130302000D01*
X137358380Y-130111523D01*
X136358380Y-129873428D01*
X136358380Y-129587714D02*
X136358380Y-128968666D01*
X136739333Y-129302000D01*
X136739333Y-129159142D01*
X136786952Y-129063904D01*
X136834571Y-129016285D01*
X136929809Y-128968666D01*
X137167904Y-128968666D01*
X137263142Y-129016285D01*
X137310761Y-129063904D01*
X137358380Y-129159142D01*
X137358380Y-129444857D01*
X137310761Y-129540095D01*
X137263142Y-129587714D01*
X129944761Y-131381333D02*
X129992380Y-131238476D01*
X129992380Y-131000380D01*
X129944761Y-130905142D01*
X129897142Y-130857523D01*
X129801904Y-130809904D01*
X129706666Y-130809904D01*
X129611428Y-130857523D01*
X129563809Y-130905142D01*
X129516190Y-131000380D01*
X129468571Y-131190857D01*
X129420952Y-131286095D01*
X129373333Y-131333714D01*
X129278095Y-131381333D01*
X129182857Y-131381333D01*
X129087619Y-131333714D01*
X129040000Y-131286095D01*
X128992380Y-131190857D01*
X128992380Y-130952761D01*
X129040000Y-130809904D01*
X128992380Y-130476571D02*
X129992380Y-130238476D01*
X129278095Y-130048000D01*
X129992380Y-129857523D01*
X128992380Y-129619428D01*
X129087619Y-129286095D02*
X129040000Y-129238476D01*
X128992380Y-129143238D01*
X128992380Y-128905142D01*
X129040000Y-128809904D01*
X129087619Y-128762285D01*
X129182857Y-128714666D01*
X129278095Y-128714666D01*
X129420952Y-128762285D01*
X129992380Y-129333714D01*
X129992380Y-128714666D01*
X122324761Y-131254333D02*
X122372380Y-131111476D01*
X122372380Y-130873380D01*
X122324761Y-130778142D01*
X122277142Y-130730523D01*
X122181904Y-130682904D01*
X122086666Y-130682904D01*
X121991428Y-130730523D01*
X121943809Y-130778142D01*
X121896190Y-130873380D01*
X121848571Y-131063857D01*
X121800952Y-131159095D01*
X121753333Y-131206714D01*
X121658095Y-131254333D01*
X121562857Y-131254333D01*
X121467619Y-131206714D01*
X121420000Y-131159095D01*
X121372380Y-131063857D01*
X121372380Y-130825761D01*
X121420000Y-130682904D01*
X121372380Y-130349571D02*
X122372380Y-130111476D01*
X121658095Y-129921000D01*
X122372380Y-129730523D01*
X121372380Y-129492428D01*
X122372380Y-128587666D02*
X122372380Y-129159095D01*
X122372380Y-128873380D02*
X121372380Y-128873380D01*
X121515238Y-128968619D01*
X121610476Y-129063857D01*
X121658095Y-129159095D01*
X177617380Y-117482857D02*
X177141190Y-117816190D01*
X177617380Y-118054285D02*
X176617380Y-118054285D01*
X176617380Y-117673333D01*
X176665000Y-117578095D01*
X176712619Y-117530476D01*
X176807857Y-117482857D01*
X176950714Y-117482857D01*
X177045952Y-117530476D01*
X177093571Y-117578095D01*
X177141190Y-117673333D01*
X177141190Y-118054285D01*
X177617380Y-116530476D02*
X177617380Y-117101904D01*
X177617380Y-116816190D02*
X176617380Y-116816190D01*
X176760238Y-116911428D01*
X176855476Y-117006666D01*
X176903095Y-117101904D01*
X176617380Y-115673333D02*
X176617380Y-115863809D01*
X176665000Y-115959047D01*
X176712619Y-116006666D01*
X176855476Y-116101904D01*
X177045952Y-116149523D01*
X177426904Y-116149523D01*
X177522142Y-116101904D01*
X177569761Y-116054285D01*
X177617380Y-115959047D01*
X177617380Y-115768571D01*
X177569761Y-115673333D01*
X177522142Y-115625714D01*
X177426904Y-115578095D01*
X177188809Y-115578095D01*
X177093571Y-115625714D01*
X177045952Y-115673333D01*
X176998333Y-115768571D01*
X176998333Y-115959047D01*
X177045952Y-116054285D01*
X177093571Y-116101904D01*
X177188809Y-116149523D01*
X178490619Y-122650095D02*
X178443000Y-122602476D01*
X178395380Y-122507238D01*
X178395380Y-122269142D01*
X178443000Y-122173904D01*
X178490619Y-122126285D01*
X178585857Y-122078666D01*
X178681095Y-122078666D01*
X178823952Y-122126285D01*
X179395380Y-122697714D01*
X179395380Y-122078666D01*
X178490619Y-121697714D02*
X178443000Y-121650095D01*
X178395380Y-121554857D01*
X178395380Y-121316761D01*
X178443000Y-121221523D01*
X178490619Y-121173904D01*
X178585857Y-121126285D01*
X178681095Y-121126285D01*
X178823952Y-121173904D01*
X179395380Y-121745333D01*
X179395380Y-121126285D01*
X178395380Y-120507238D02*
X178395380Y-120412000D01*
X178443000Y-120316761D01*
X178490619Y-120269142D01*
X178585857Y-120221523D01*
X178776333Y-120173904D01*
X179014428Y-120173904D01*
X179204904Y-120221523D01*
X179300142Y-120269142D01*
X179347761Y-120316761D01*
X179395380Y-120412000D01*
X179395380Y-120507238D01*
X179347761Y-120602476D01*
X179300142Y-120650095D01*
X179204904Y-120697714D01*
X179014428Y-120745333D01*
X178776333Y-120745333D01*
X178585857Y-120697714D01*
X178490619Y-120650095D01*
X178443000Y-120602476D01*
X178395380Y-120507238D01*
X169997380Y-117482857D02*
X169521190Y-117816190D01*
X169997380Y-118054285D02*
X168997380Y-118054285D01*
X168997380Y-117673333D01*
X169045000Y-117578095D01*
X169092619Y-117530476D01*
X169187857Y-117482857D01*
X169330714Y-117482857D01*
X169425952Y-117530476D01*
X169473571Y-117578095D01*
X169521190Y-117673333D01*
X169521190Y-118054285D01*
X169997380Y-116530476D02*
X169997380Y-117101904D01*
X169997380Y-116816190D02*
X168997380Y-116816190D01*
X169140238Y-116911428D01*
X169235476Y-117006666D01*
X169283095Y-117101904D01*
X168997380Y-115625714D02*
X168997380Y-116101904D01*
X169473571Y-116149523D01*
X169425952Y-116101904D01*
X169378333Y-116006666D01*
X169378333Y-115768571D01*
X169425952Y-115673333D01*
X169473571Y-115625714D01*
X169568809Y-115578095D01*
X169806904Y-115578095D01*
X169902142Y-115625714D01*
X169949761Y-115673333D01*
X169997380Y-115768571D01*
X169997380Y-116006666D01*
X169949761Y-116101904D01*
X169902142Y-116149523D01*
X170870619Y-122650095D02*
X170823000Y-122602476D01*
X170775380Y-122507238D01*
X170775380Y-122269142D01*
X170823000Y-122173904D01*
X170870619Y-122126285D01*
X170965857Y-122078666D01*
X171061095Y-122078666D01*
X171203952Y-122126285D01*
X171775380Y-122697714D01*
X171775380Y-122078666D01*
X170870619Y-121697714D02*
X170823000Y-121650095D01*
X170775380Y-121554857D01*
X170775380Y-121316761D01*
X170823000Y-121221523D01*
X170870619Y-121173904D01*
X170965857Y-121126285D01*
X171061095Y-121126285D01*
X171203952Y-121173904D01*
X171775380Y-121745333D01*
X171775380Y-121126285D01*
X170775380Y-120507238D02*
X170775380Y-120412000D01*
X170823000Y-120316761D01*
X170870619Y-120269142D01*
X170965857Y-120221523D01*
X171156333Y-120173904D01*
X171394428Y-120173904D01*
X171584904Y-120221523D01*
X171680142Y-120269142D01*
X171727761Y-120316761D01*
X171775380Y-120412000D01*
X171775380Y-120507238D01*
X171727761Y-120602476D01*
X171680142Y-120650095D01*
X171584904Y-120697714D01*
X171394428Y-120745333D01*
X171156333Y-120745333D01*
X170965857Y-120697714D01*
X170870619Y-120650095D01*
X170823000Y-120602476D01*
X170775380Y-120507238D01*
X162631380Y-117228857D02*
X162155190Y-117562190D01*
X162631380Y-117800285D02*
X161631380Y-117800285D01*
X161631380Y-117419333D01*
X161679000Y-117324095D01*
X161726619Y-117276476D01*
X161821857Y-117228857D01*
X161964714Y-117228857D01*
X162059952Y-117276476D01*
X162107571Y-117324095D01*
X162155190Y-117419333D01*
X162155190Y-117800285D01*
X162631380Y-116276476D02*
X162631380Y-116847904D01*
X162631380Y-116562190D02*
X161631380Y-116562190D01*
X161774238Y-116657428D01*
X161869476Y-116752666D01*
X161917095Y-116847904D01*
X161964714Y-115419333D02*
X162631380Y-115419333D01*
X161583761Y-115657428D02*
X162298047Y-115895523D01*
X162298047Y-115276476D01*
X163250619Y-122650095D02*
X163203000Y-122602476D01*
X163155380Y-122507238D01*
X163155380Y-122269142D01*
X163203000Y-122173904D01*
X163250619Y-122126285D01*
X163345857Y-122078666D01*
X163441095Y-122078666D01*
X163583952Y-122126285D01*
X164155380Y-122697714D01*
X164155380Y-122078666D01*
X163250619Y-121697714D02*
X163203000Y-121650095D01*
X163155380Y-121554857D01*
X163155380Y-121316761D01*
X163203000Y-121221523D01*
X163250619Y-121173904D01*
X163345857Y-121126285D01*
X163441095Y-121126285D01*
X163583952Y-121173904D01*
X164155380Y-121745333D01*
X164155380Y-121126285D01*
X163155380Y-120507238D02*
X163155380Y-120412000D01*
X163203000Y-120316761D01*
X163250619Y-120269142D01*
X163345857Y-120221523D01*
X163536333Y-120173904D01*
X163774428Y-120173904D01*
X163964904Y-120221523D01*
X164060142Y-120269142D01*
X164107761Y-120316761D01*
X164155380Y-120412000D01*
X164155380Y-120507238D01*
X164107761Y-120602476D01*
X164060142Y-120650095D01*
X163964904Y-120697714D01*
X163774428Y-120745333D01*
X163536333Y-120745333D01*
X163345857Y-120697714D01*
X163250619Y-120650095D01*
X163203000Y-120602476D01*
X163155380Y-120507238D01*
X156408380Y-114434857D02*
X155932190Y-114768190D01*
X156408380Y-115006285D02*
X155408380Y-115006285D01*
X155408380Y-114625333D01*
X155456000Y-114530095D01*
X155503619Y-114482476D01*
X155598857Y-114434857D01*
X155741714Y-114434857D01*
X155836952Y-114482476D01*
X155884571Y-114530095D01*
X155932190Y-114625333D01*
X155932190Y-115006285D01*
X156408380Y-113482476D02*
X156408380Y-114053904D01*
X156408380Y-113768190D02*
X155408380Y-113768190D01*
X155551238Y-113863428D01*
X155646476Y-113958666D01*
X155694095Y-114053904D01*
X155408380Y-113149142D02*
X155408380Y-112530095D01*
X155789333Y-112863428D01*
X155789333Y-112720571D01*
X155836952Y-112625333D01*
X155884571Y-112577714D01*
X155979809Y-112530095D01*
X156217904Y-112530095D01*
X156313142Y-112577714D01*
X156360761Y-112625333D01*
X156408380Y-112720571D01*
X156408380Y-113006285D01*
X156360761Y-113101523D01*
X156313142Y-113149142D01*
X155630619Y-122650095D02*
X155583000Y-122602476D01*
X155535380Y-122507238D01*
X155535380Y-122269142D01*
X155583000Y-122173904D01*
X155630619Y-122126285D01*
X155725857Y-122078666D01*
X155821095Y-122078666D01*
X155963952Y-122126285D01*
X156535380Y-122697714D01*
X156535380Y-122078666D01*
X155630619Y-121697714D02*
X155583000Y-121650095D01*
X155535380Y-121554857D01*
X155535380Y-121316761D01*
X155583000Y-121221523D01*
X155630619Y-121173904D01*
X155725857Y-121126285D01*
X155821095Y-121126285D01*
X155963952Y-121173904D01*
X156535380Y-121745333D01*
X156535380Y-121126285D01*
X155535380Y-120507238D02*
X155535380Y-120412000D01*
X155583000Y-120316761D01*
X155630619Y-120269142D01*
X155725857Y-120221523D01*
X155916333Y-120173904D01*
X156154428Y-120173904D01*
X156344904Y-120221523D01*
X156440142Y-120269142D01*
X156487761Y-120316761D01*
X156535380Y-120412000D01*
X156535380Y-120507238D01*
X156487761Y-120602476D01*
X156440142Y-120650095D01*
X156344904Y-120697714D01*
X156154428Y-120745333D01*
X155916333Y-120745333D01*
X155725857Y-120697714D01*
X155630619Y-120650095D01*
X155583000Y-120602476D01*
X155535380Y-120507238D01*
X148788380Y-114815857D02*
X148312190Y-115149190D01*
X148788380Y-115387285D02*
X147788380Y-115387285D01*
X147788380Y-115006333D01*
X147836000Y-114911095D01*
X147883619Y-114863476D01*
X147978857Y-114815857D01*
X148121714Y-114815857D01*
X148216952Y-114863476D01*
X148264571Y-114911095D01*
X148312190Y-115006333D01*
X148312190Y-115387285D01*
X148788380Y-113863476D02*
X148788380Y-114434904D01*
X148788380Y-114149190D02*
X147788380Y-114149190D01*
X147931238Y-114244428D01*
X148026476Y-114339666D01*
X148074095Y-114434904D01*
X147883619Y-113482523D02*
X147836000Y-113434904D01*
X147788380Y-113339666D01*
X147788380Y-113101571D01*
X147836000Y-113006333D01*
X147883619Y-112958714D01*
X147978857Y-112911095D01*
X148074095Y-112911095D01*
X148216952Y-112958714D01*
X148788380Y-113530142D01*
X148788380Y-112911095D01*
X148010619Y-122650095D02*
X147963000Y-122602476D01*
X147915380Y-122507238D01*
X147915380Y-122269142D01*
X147963000Y-122173904D01*
X148010619Y-122126285D01*
X148105857Y-122078666D01*
X148201095Y-122078666D01*
X148343952Y-122126285D01*
X148915380Y-122697714D01*
X148915380Y-122078666D01*
X148010619Y-121697714D02*
X147963000Y-121650095D01*
X147915380Y-121554857D01*
X147915380Y-121316761D01*
X147963000Y-121221523D01*
X148010619Y-121173904D01*
X148105857Y-121126285D01*
X148201095Y-121126285D01*
X148343952Y-121173904D01*
X148915380Y-121745333D01*
X148915380Y-121126285D01*
X147915380Y-120507238D02*
X147915380Y-120412000D01*
X147963000Y-120316761D01*
X148010619Y-120269142D01*
X148105857Y-120221523D01*
X148296333Y-120173904D01*
X148534428Y-120173904D01*
X148724904Y-120221523D01*
X148820142Y-120269142D01*
X148867761Y-120316761D01*
X148915380Y-120412000D01*
X148915380Y-120507238D01*
X148867761Y-120602476D01*
X148820142Y-120650095D01*
X148724904Y-120697714D01*
X148534428Y-120745333D01*
X148296333Y-120745333D01*
X148105857Y-120697714D01*
X148010619Y-120650095D01*
X147963000Y-120602476D01*
X147915380Y-120507238D01*
X139898380Y-117355857D02*
X139422190Y-117689190D01*
X139898380Y-117927285D02*
X138898380Y-117927285D01*
X138898380Y-117546333D01*
X138946000Y-117451095D01*
X138993619Y-117403476D01*
X139088857Y-117355857D01*
X139231714Y-117355857D01*
X139326952Y-117403476D01*
X139374571Y-117451095D01*
X139422190Y-117546333D01*
X139422190Y-117927285D01*
X139898380Y-116403476D02*
X139898380Y-116974904D01*
X139898380Y-116689190D02*
X138898380Y-116689190D01*
X139041238Y-116784428D01*
X139136476Y-116879666D01*
X139184095Y-116974904D01*
X139898380Y-115451095D02*
X139898380Y-116022523D01*
X139898380Y-115736809D02*
X138898380Y-115736809D01*
X139041238Y-115832047D01*
X139136476Y-115927285D01*
X139184095Y-116022523D01*
X140390619Y-122650095D02*
X140343000Y-122602476D01*
X140295380Y-122507238D01*
X140295380Y-122269142D01*
X140343000Y-122173904D01*
X140390619Y-122126285D01*
X140485857Y-122078666D01*
X140581095Y-122078666D01*
X140723952Y-122126285D01*
X141295380Y-122697714D01*
X141295380Y-122078666D01*
X140390619Y-121697714D02*
X140343000Y-121650095D01*
X140295380Y-121554857D01*
X140295380Y-121316761D01*
X140343000Y-121221523D01*
X140390619Y-121173904D01*
X140485857Y-121126285D01*
X140581095Y-121126285D01*
X140723952Y-121173904D01*
X141295380Y-121745333D01*
X141295380Y-121126285D01*
X140295380Y-120507238D02*
X140295380Y-120412000D01*
X140343000Y-120316761D01*
X140390619Y-120269142D01*
X140485857Y-120221523D01*
X140676333Y-120173904D01*
X140914428Y-120173904D01*
X141104904Y-120221523D01*
X141200142Y-120269142D01*
X141247761Y-120316761D01*
X141295380Y-120412000D01*
X141295380Y-120507238D01*
X141247761Y-120602476D01*
X141200142Y-120650095D01*
X141104904Y-120697714D01*
X140914428Y-120745333D01*
X140676333Y-120745333D01*
X140485857Y-120697714D01*
X140390619Y-120650095D01*
X140343000Y-120602476D01*
X140295380Y-120507238D01*
X132151380Y-117609857D02*
X131675190Y-117943190D01*
X132151380Y-118181285D02*
X131151380Y-118181285D01*
X131151380Y-117800333D01*
X131199000Y-117705095D01*
X131246619Y-117657476D01*
X131341857Y-117609857D01*
X131484714Y-117609857D01*
X131579952Y-117657476D01*
X131627571Y-117705095D01*
X131675190Y-117800333D01*
X131675190Y-118181285D01*
X132151380Y-116657476D02*
X132151380Y-117228904D01*
X132151380Y-116943190D02*
X131151380Y-116943190D01*
X131294238Y-117038428D01*
X131389476Y-117133666D01*
X131437095Y-117228904D01*
X131151380Y-116038428D02*
X131151380Y-115943190D01*
X131199000Y-115847952D01*
X131246619Y-115800333D01*
X131341857Y-115752714D01*
X131532333Y-115705095D01*
X131770428Y-115705095D01*
X131960904Y-115752714D01*
X132056142Y-115800333D01*
X132103761Y-115847952D01*
X132151380Y-115943190D01*
X132151380Y-116038428D01*
X132103761Y-116133666D01*
X132056142Y-116181285D01*
X131960904Y-116228904D01*
X131770428Y-116276523D01*
X131532333Y-116276523D01*
X131341857Y-116228904D01*
X131246619Y-116181285D01*
X131199000Y-116133666D01*
X131151380Y-116038428D01*
X132770619Y-122650095D02*
X132723000Y-122602476D01*
X132675380Y-122507238D01*
X132675380Y-122269142D01*
X132723000Y-122173904D01*
X132770619Y-122126285D01*
X132865857Y-122078666D01*
X132961095Y-122078666D01*
X133103952Y-122126285D01*
X133675380Y-122697714D01*
X133675380Y-122078666D01*
X132770619Y-121697714D02*
X132723000Y-121650095D01*
X132675380Y-121554857D01*
X132675380Y-121316761D01*
X132723000Y-121221523D01*
X132770619Y-121173904D01*
X132865857Y-121126285D01*
X132961095Y-121126285D01*
X133103952Y-121173904D01*
X133675380Y-121745333D01*
X133675380Y-121126285D01*
X132675380Y-120507238D02*
X132675380Y-120412000D01*
X132723000Y-120316761D01*
X132770619Y-120269142D01*
X132865857Y-120221523D01*
X133056333Y-120173904D01*
X133294428Y-120173904D01*
X133484904Y-120221523D01*
X133580142Y-120269142D01*
X133627761Y-120316761D01*
X133675380Y-120412000D01*
X133675380Y-120507238D01*
X133627761Y-120602476D01*
X133580142Y-120650095D01*
X133484904Y-120697714D01*
X133294428Y-120745333D01*
X133056333Y-120745333D01*
X132865857Y-120697714D01*
X132770619Y-120650095D01*
X132723000Y-120602476D01*
X132675380Y-120507238D01*
X124277380Y-117006666D02*
X123801190Y-117340000D01*
X124277380Y-117578095D02*
X123277380Y-117578095D01*
X123277380Y-117197142D01*
X123325000Y-117101904D01*
X123372619Y-117054285D01*
X123467857Y-117006666D01*
X123610714Y-117006666D01*
X123705952Y-117054285D01*
X123753571Y-117101904D01*
X123801190Y-117197142D01*
X123801190Y-117578095D01*
X124277380Y-116530476D02*
X124277380Y-116340000D01*
X124229761Y-116244761D01*
X124182142Y-116197142D01*
X124039285Y-116101904D01*
X123848809Y-116054285D01*
X123467857Y-116054285D01*
X123372619Y-116101904D01*
X123325000Y-116149523D01*
X123277380Y-116244761D01*
X123277380Y-116435238D01*
X123325000Y-116530476D01*
X123372619Y-116578095D01*
X123467857Y-116625714D01*
X123705952Y-116625714D01*
X123801190Y-116578095D01*
X123848809Y-116530476D01*
X123896428Y-116435238D01*
X123896428Y-116244761D01*
X123848809Y-116149523D01*
X123801190Y-116101904D01*
X123705952Y-116054285D01*
X125150619Y-122650095D02*
X125103000Y-122602476D01*
X125055380Y-122507238D01*
X125055380Y-122269142D01*
X125103000Y-122173904D01*
X125150619Y-122126285D01*
X125245857Y-122078666D01*
X125341095Y-122078666D01*
X125483952Y-122126285D01*
X126055380Y-122697714D01*
X126055380Y-122078666D01*
X125150619Y-121697714D02*
X125103000Y-121650095D01*
X125055380Y-121554857D01*
X125055380Y-121316761D01*
X125103000Y-121221523D01*
X125150619Y-121173904D01*
X125245857Y-121126285D01*
X125341095Y-121126285D01*
X125483952Y-121173904D01*
X126055380Y-121745333D01*
X126055380Y-121126285D01*
X125055380Y-120507238D02*
X125055380Y-120412000D01*
X125103000Y-120316761D01*
X125150619Y-120269142D01*
X125245857Y-120221523D01*
X125436333Y-120173904D01*
X125674428Y-120173904D01*
X125864904Y-120221523D01*
X125960142Y-120269142D01*
X126007761Y-120316761D01*
X126055380Y-120412000D01*
X126055380Y-120507238D01*
X126007761Y-120602476D01*
X125960142Y-120650095D01*
X125864904Y-120697714D01*
X125674428Y-120745333D01*
X125436333Y-120745333D01*
X125245857Y-120697714D01*
X125150619Y-120650095D01*
X125103000Y-120602476D01*
X125055380Y-120507238D01*
X179522380Y-130214666D02*
X179046190Y-130548000D01*
X179522380Y-130786095D02*
X178522380Y-130786095D01*
X178522380Y-130405142D01*
X178570000Y-130309904D01*
X178617619Y-130262285D01*
X178712857Y-130214666D01*
X178855714Y-130214666D01*
X178950952Y-130262285D01*
X178998571Y-130309904D01*
X179046190Y-130405142D01*
X179046190Y-130786095D01*
X178950952Y-129643238D02*
X178903333Y-129738476D01*
X178855714Y-129786095D01*
X178760476Y-129833714D01*
X178712857Y-129833714D01*
X178617619Y-129786095D01*
X178570000Y-129738476D01*
X178522380Y-129643238D01*
X178522380Y-129452761D01*
X178570000Y-129357523D01*
X178617619Y-129309904D01*
X178712857Y-129262285D01*
X178760476Y-129262285D01*
X178855714Y-129309904D01*
X178903333Y-129357523D01*
X178950952Y-129452761D01*
X178950952Y-129643238D01*
X178998571Y-129738476D01*
X179046190Y-129786095D01*
X179141428Y-129833714D01*
X179331904Y-129833714D01*
X179427142Y-129786095D01*
X179474761Y-129738476D01*
X179522380Y-129643238D01*
X179522380Y-129452761D01*
X179474761Y-129357523D01*
X179427142Y-129309904D01*
X179331904Y-129262285D01*
X179141428Y-129262285D01*
X179046190Y-129309904D01*
X178998571Y-129357523D01*
X178950952Y-129452761D01*
X178728714Y-138152000D02*
X179395380Y-138152000D01*
X178347761Y-138390095D02*
X179062047Y-138628190D01*
X179062047Y-138009142D01*
X179300142Y-137628190D02*
X179347761Y-137580571D01*
X179395380Y-137628190D01*
X179347761Y-137675809D01*
X179300142Y-137628190D01*
X179395380Y-137628190D01*
X179395380Y-137104380D02*
X179395380Y-136913904D01*
X179347761Y-136818666D01*
X179300142Y-136771047D01*
X179157285Y-136675809D01*
X178966809Y-136628190D01*
X178585857Y-136628190D01*
X178490619Y-136675809D01*
X178443000Y-136723428D01*
X178395380Y-136818666D01*
X178395380Y-137009142D01*
X178443000Y-137104380D01*
X178490619Y-137152000D01*
X178585857Y-137199619D01*
X178823952Y-137199619D01*
X178919190Y-137152000D01*
X178966809Y-137104380D01*
X179014428Y-137009142D01*
X179014428Y-136818666D01*
X178966809Y-136723428D01*
X178919190Y-136675809D01*
X178823952Y-136628190D01*
X179395380Y-136152000D02*
X179395380Y-135961523D01*
X179347761Y-135866285D01*
X179300142Y-135818666D01*
X179157285Y-135723428D01*
X178966809Y-135675809D01*
X178585857Y-135675809D01*
X178490619Y-135723428D01*
X178443000Y-135771047D01*
X178395380Y-135866285D01*
X178395380Y-136056761D01*
X178443000Y-136152000D01*
X178490619Y-136199619D01*
X178585857Y-136247238D01*
X178823952Y-136247238D01*
X178919190Y-136199619D01*
X178966809Y-136152000D01*
X179014428Y-136056761D01*
X179014428Y-135866285D01*
X178966809Y-135771047D01*
X178919190Y-135723428D01*
X178823952Y-135675809D01*
X179395380Y-135247238D02*
X178395380Y-135247238D01*
X179395380Y-134675809D02*
X178823952Y-135104380D01*
X178395380Y-134675809D02*
X178966809Y-135247238D01*
X171902380Y-130214666D02*
X171426190Y-130548000D01*
X171902380Y-130786095D02*
X170902380Y-130786095D01*
X170902380Y-130405142D01*
X170950000Y-130309904D01*
X170997619Y-130262285D01*
X171092857Y-130214666D01*
X171235714Y-130214666D01*
X171330952Y-130262285D01*
X171378571Y-130309904D01*
X171426190Y-130405142D01*
X171426190Y-130786095D01*
X170902380Y-129881333D02*
X170902380Y-129214666D01*
X171902380Y-129643238D01*
X171108714Y-138152000D02*
X171775380Y-138152000D01*
X170727761Y-138390095D02*
X171442047Y-138628190D01*
X171442047Y-138009142D01*
X171680142Y-137628190D02*
X171727761Y-137580571D01*
X171775380Y-137628190D01*
X171727761Y-137675809D01*
X171680142Y-137628190D01*
X171775380Y-137628190D01*
X171775380Y-137104380D02*
X171775380Y-136913904D01*
X171727761Y-136818666D01*
X171680142Y-136771047D01*
X171537285Y-136675809D01*
X171346809Y-136628190D01*
X170965857Y-136628190D01*
X170870619Y-136675809D01*
X170823000Y-136723428D01*
X170775380Y-136818666D01*
X170775380Y-137009142D01*
X170823000Y-137104380D01*
X170870619Y-137152000D01*
X170965857Y-137199619D01*
X171203952Y-137199619D01*
X171299190Y-137152000D01*
X171346809Y-137104380D01*
X171394428Y-137009142D01*
X171394428Y-136818666D01*
X171346809Y-136723428D01*
X171299190Y-136675809D01*
X171203952Y-136628190D01*
X171775380Y-136152000D02*
X171775380Y-135961523D01*
X171727761Y-135866285D01*
X171680142Y-135818666D01*
X171537285Y-135723428D01*
X171346809Y-135675809D01*
X170965857Y-135675809D01*
X170870619Y-135723428D01*
X170823000Y-135771047D01*
X170775380Y-135866285D01*
X170775380Y-136056761D01*
X170823000Y-136152000D01*
X170870619Y-136199619D01*
X170965857Y-136247238D01*
X171203952Y-136247238D01*
X171299190Y-136199619D01*
X171346809Y-136152000D01*
X171394428Y-136056761D01*
X171394428Y-135866285D01*
X171346809Y-135771047D01*
X171299190Y-135723428D01*
X171203952Y-135675809D01*
X171775380Y-135247238D02*
X170775380Y-135247238D01*
X171775380Y-134675809D02*
X171203952Y-135104380D01*
X170775380Y-134675809D02*
X171346809Y-135247238D01*
X164155380Y-130087666D02*
X163679190Y-130421000D01*
X164155380Y-130659095D02*
X163155380Y-130659095D01*
X163155380Y-130278142D01*
X163203000Y-130182904D01*
X163250619Y-130135285D01*
X163345857Y-130087666D01*
X163488714Y-130087666D01*
X163583952Y-130135285D01*
X163631571Y-130182904D01*
X163679190Y-130278142D01*
X163679190Y-130659095D01*
X163155380Y-129230523D02*
X163155380Y-129421000D01*
X163203000Y-129516238D01*
X163250619Y-129563857D01*
X163393476Y-129659095D01*
X163583952Y-129706714D01*
X163964904Y-129706714D01*
X164060142Y-129659095D01*
X164107761Y-129611476D01*
X164155380Y-129516238D01*
X164155380Y-129325761D01*
X164107761Y-129230523D01*
X164060142Y-129182904D01*
X163964904Y-129135285D01*
X163726809Y-129135285D01*
X163631571Y-129182904D01*
X163583952Y-129230523D01*
X163536333Y-129325761D01*
X163536333Y-129516238D01*
X163583952Y-129611476D01*
X163631571Y-129659095D01*
X163726809Y-129706714D01*
X163488714Y-138152000D02*
X164155380Y-138152000D01*
X163107761Y-138390095D02*
X163822047Y-138628190D01*
X163822047Y-138009142D01*
X164060142Y-137628190D02*
X164107761Y-137580571D01*
X164155380Y-137628190D01*
X164107761Y-137675809D01*
X164060142Y-137628190D01*
X164155380Y-137628190D01*
X164155380Y-137104380D02*
X164155380Y-136913904D01*
X164107761Y-136818666D01*
X164060142Y-136771047D01*
X163917285Y-136675809D01*
X163726809Y-136628190D01*
X163345857Y-136628190D01*
X163250619Y-136675809D01*
X163203000Y-136723428D01*
X163155380Y-136818666D01*
X163155380Y-137009142D01*
X163203000Y-137104380D01*
X163250619Y-137152000D01*
X163345857Y-137199619D01*
X163583952Y-137199619D01*
X163679190Y-137152000D01*
X163726809Y-137104380D01*
X163774428Y-137009142D01*
X163774428Y-136818666D01*
X163726809Y-136723428D01*
X163679190Y-136675809D01*
X163583952Y-136628190D01*
X164155380Y-136152000D02*
X164155380Y-135961523D01*
X164107761Y-135866285D01*
X164060142Y-135818666D01*
X163917285Y-135723428D01*
X163726809Y-135675809D01*
X163345857Y-135675809D01*
X163250619Y-135723428D01*
X163203000Y-135771047D01*
X163155380Y-135866285D01*
X163155380Y-136056761D01*
X163203000Y-136152000D01*
X163250619Y-136199619D01*
X163345857Y-136247238D01*
X163583952Y-136247238D01*
X163679190Y-136199619D01*
X163726809Y-136152000D01*
X163774428Y-136056761D01*
X163774428Y-135866285D01*
X163726809Y-135771047D01*
X163679190Y-135723428D01*
X163583952Y-135675809D01*
X164155380Y-135247238D02*
X163155380Y-135247238D01*
X164155380Y-134675809D02*
X163583952Y-135104380D01*
X163155380Y-134675809D02*
X163726809Y-135247238D01*
X156408380Y-130341666D02*
X155932190Y-130675000D01*
X156408380Y-130913095D02*
X155408380Y-130913095D01*
X155408380Y-130532142D01*
X155456000Y-130436904D01*
X155503619Y-130389285D01*
X155598857Y-130341666D01*
X155741714Y-130341666D01*
X155836952Y-130389285D01*
X155884571Y-130436904D01*
X155932190Y-130532142D01*
X155932190Y-130913095D01*
X155408380Y-129436904D02*
X155408380Y-129913095D01*
X155884571Y-129960714D01*
X155836952Y-129913095D01*
X155789333Y-129817857D01*
X155789333Y-129579761D01*
X155836952Y-129484523D01*
X155884571Y-129436904D01*
X155979809Y-129389285D01*
X156217904Y-129389285D01*
X156313142Y-129436904D01*
X156360761Y-129484523D01*
X156408380Y-129579761D01*
X156408380Y-129817857D01*
X156360761Y-129913095D01*
X156313142Y-129960714D01*
X155868714Y-138152000D02*
X156535380Y-138152000D01*
X155487761Y-138390095D02*
X156202047Y-138628190D01*
X156202047Y-138009142D01*
X156440142Y-137628190D02*
X156487761Y-137580571D01*
X156535380Y-137628190D01*
X156487761Y-137675809D01*
X156440142Y-137628190D01*
X156535380Y-137628190D01*
X156535380Y-137104380D02*
X156535380Y-136913904D01*
X156487761Y-136818666D01*
X156440142Y-136771047D01*
X156297285Y-136675809D01*
X156106809Y-136628190D01*
X155725857Y-136628190D01*
X155630619Y-136675809D01*
X155583000Y-136723428D01*
X155535380Y-136818666D01*
X155535380Y-137009142D01*
X155583000Y-137104380D01*
X155630619Y-137152000D01*
X155725857Y-137199619D01*
X155963952Y-137199619D01*
X156059190Y-137152000D01*
X156106809Y-137104380D01*
X156154428Y-137009142D01*
X156154428Y-136818666D01*
X156106809Y-136723428D01*
X156059190Y-136675809D01*
X155963952Y-136628190D01*
X156535380Y-136152000D02*
X156535380Y-135961523D01*
X156487761Y-135866285D01*
X156440142Y-135818666D01*
X156297285Y-135723428D01*
X156106809Y-135675809D01*
X155725857Y-135675809D01*
X155630619Y-135723428D01*
X155583000Y-135771047D01*
X155535380Y-135866285D01*
X155535380Y-136056761D01*
X155583000Y-136152000D01*
X155630619Y-136199619D01*
X155725857Y-136247238D01*
X155963952Y-136247238D01*
X156059190Y-136199619D01*
X156106809Y-136152000D01*
X156154428Y-136056761D01*
X156154428Y-135866285D01*
X156106809Y-135771047D01*
X156059190Y-135723428D01*
X155963952Y-135675809D01*
X156535380Y-135247238D02*
X155535380Y-135247238D01*
X156535380Y-134675809D02*
X155963952Y-135104380D01*
X155535380Y-134675809D02*
X156106809Y-135247238D01*
X148915380Y-130214666D02*
X148439190Y-130548000D01*
X148915380Y-130786095D02*
X147915380Y-130786095D01*
X147915380Y-130405142D01*
X147963000Y-130309904D01*
X148010619Y-130262285D01*
X148105857Y-130214666D01*
X148248714Y-130214666D01*
X148343952Y-130262285D01*
X148391571Y-130309904D01*
X148439190Y-130405142D01*
X148439190Y-130786095D01*
X148248714Y-129357523D02*
X148915380Y-129357523D01*
X147867761Y-129595619D02*
X148582047Y-129833714D01*
X148582047Y-129214666D01*
X148248714Y-138152000D02*
X148915380Y-138152000D01*
X147867761Y-138390095D02*
X148582047Y-138628190D01*
X148582047Y-138009142D01*
X148820142Y-137628190D02*
X148867761Y-137580571D01*
X148915380Y-137628190D01*
X148867761Y-137675809D01*
X148820142Y-137628190D01*
X148915380Y-137628190D01*
X148915380Y-137104380D02*
X148915380Y-136913904D01*
X148867761Y-136818666D01*
X148820142Y-136771047D01*
X148677285Y-136675809D01*
X148486809Y-136628190D01*
X148105857Y-136628190D01*
X148010619Y-136675809D01*
X147963000Y-136723428D01*
X147915380Y-136818666D01*
X147915380Y-137009142D01*
X147963000Y-137104380D01*
X148010619Y-137152000D01*
X148105857Y-137199619D01*
X148343952Y-137199619D01*
X148439190Y-137152000D01*
X148486809Y-137104380D01*
X148534428Y-137009142D01*
X148534428Y-136818666D01*
X148486809Y-136723428D01*
X148439190Y-136675809D01*
X148343952Y-136628190D01*
X148915380Y-136152000D02*
X148915380Y-135961523D01*
X148867761Y-135866285D01*
X148820142Y-135818666D01*
X148677285Y-135723428D01*
X148486809Y-135675809D01*
X148105857Y-135675809D01*
X148010619Y-135723428D01*
X147963000Y-135771047D01*
X147915380Y-135866285D01*
X147915380Y-136056761D01*
X147963000Y-136152000D01*
X148010619Y-136199619D01*
X148105857Y-136247238D01*
X148343952Y-136247238D01*
X148439190Y-136199619D01*
X148486809Y-136152000D01*
X148534428Y-136056761D01*
X148534428Y-135866285D01*
X148486809Y-135771047D01*
X148439190Y-135723428D01*
X148343952Y-135675809D01*
X148915380Y-135247238D02*
X147915380Y-135247238D01*
X148915380Y-134675809D02*
X148343952Y-135104380D01*
X147915380Y-134675809D02*
X148486809Y-135247238D01*
X141295380Y-130214666D02*
X140819190Y-130548000D01*
X141295380Y-130786095D02*
X140295380Y-130786095D01*
X140295380Y-130405142D01*
X140343000Y-130309904D01*
X140390619Y-130262285D01*
X140485857Y-130214666D01*
X140628714Y-130214666D01*
X140723952Y-130262285D01*
X140771571Y-130309904D01*
X140819190Y-130405142D01*
X140819190Y-130786095D01*
X140295380Y-129881333D02*
X140295380Y-129262285D01*
X140676333Y-129595619D01*
X140676333Y-129452761D01*
X140723952Y-129357523D01*
X140771571Y-129309904D01*
X140866809Y-129262285D01*
X141104904Y-129262285D01*
X141200142Y-129309904D01*
X141247761Y-129357523D01*
X141295380Y-129452761D01*
X141295380Y-129738476D01*
X141247761Y-129833714D01*
X141200142Y-129881333D01*
X140628714Y-138152000D02*
X141295380Y-138152000D01*
X140247761Y-138390095D02*
X140962047Y-138628190D01*
X140962047Y-138009142D01*
X141200142Y-137628190D02*
X141247761Y-137580571D01*
X141295380Y-137628190D01*
X141247761Y-137675809D01*
X141200142Y-137628190D01*
X141295380Y-137628190D01*
X141295380Y-137104380D02*
X141295380Y-136913904D01*
X141247761Y-136818666D01*
X141200142Y-136771047D01*
X141057285Y-136675809D01*
X140866809Y-136628190D01*
X140485857Y-136628190D01*
X140390619Y-136675809D01*
X140343000Y-136723428D01*
X140295380Y-136818666D01*
X140295380Y-137009142D01*
X140343000Y-137104380D01*
X140390619Y-137152000D01*
X140485857Y-137199619D01*
X140723952Y-137199619D01*
X140819190Y-137152000D01*
X140866809Y-137104380D01*
X140914428Y-137009142D01*
X140914428Y-136818666D01*
X140866809Y-136723428D01*
X140819190Y-136675809D01*
X140723952Y-136628190D01*
X141295380Y-136152000D02*
X141295380Y-135961523D01*
X141247761Y-135866285D01*
X141200142Y-135818666D01*
X141057285Y-135723428D01*
X140866809Y-135675809D01*
X140485857Y-135675809D01*
X140390619Y-135723428D01*
X140343000Y-135771047D01*
X140295380Y-135866285D01*
X140295380Y-136056761D01*
X140343000Y-136152000D01*
X140390619Y-136199619D01*
X140485857Y-136247238D01*
X140723952Y-136247238D01*
X140819190Y-136199619D01*
X140866809Y-136152000D01*
X140914428Y-136056761D01*
X140914428Y-135866285D01*
X140866809Y-135771047D01*
X140819190Y-135723428D01*
X140723952Y-135675809D01*
X141295380Y-135247238D02*
X140295380Y-135247238D01*
X141295380Y-134675809D02*
X140723952Y-135104380D01*
X140295380Y-134675809D02*
X140866809Y-135247238D01*
X133802380Y-130214666D02*
X133326190Y-130548000D01*
X133802380Y-130786095D02*
X132802380Y-130786095D01*
X132802380Y-130405142D01*
X132850000Y-130309904D01*
X132897619Y-130262285D01*
X132992857Y-130214666D01*
X133135714Y-130214666D01*
X133230952Y-130262285D01*
X133278571Y-130309904D01*
X133326190Y-130405142D01*
X133326190Y-130786095D01*
X132897619Y-129833714D02*
X132850000Y-129786095D01*
X132802380Y-129690857D01*
X132802380Y-129452761D01*
X132850000Y-129357523D01*
X132897619Y-129309904D01*
X132992857Y-129262285D01*
X133088095Y-129262285D01*
X133230952Y-129309904D01*
X133802380Y-129881333D01*
X133802380Y-129262285D01*
X133008714Y-138152000D02*
X133675380Y-138152000D01*
X132627761Y-138390095D02*
X133342047Y-138628190D01*
X133342047Y-138009142D01*
X133580142Y-137628190D02*
X133627761Y-137580571D01*
X133675380Y-137628190D01*
X133627761Y-137675809D01*
X133580142Y-137628190D01*
X133675380Y-137628190D01*
X133675380Y-137104380D02*
X133675380Y-136913904D01*
X133627761Y-136818666D01*
X133580142Y-136771047D01*
X133437285Y-136675809D01*
X133246809Y-136628190D01*
X132865857Y-136628190D01*
X132770619Y-136675809D01*
X132723000Y-136723428D01*
X132675380Y-136818666D01*
X132675380Y-137009142D01*
X132723000Y-137104380D01*
X132770619Y-137152000D01*
X132865857Y-137199619D01*
X133103952Y-137199619D01*
X133199190Y-137152000D01*
X133246809Y-137104380D01*
X133294428Y-137009142D01*
X133294428Y-136818666D01*
X133246809Y-136723428D01*
X133199190Y-136675809D01*
X133103952Y-136628190D01*
X133675380Y-136152000D02*
X133675380Y-135961523D01*
X133627761Y-135866285D01*
X133580142Y-135818666D01*
X133437285Y-135723428D01*
X133246809Y-135675809D01*
X132865857Y-135675809D01*
X132770619Y-135723428D01*
X132723000Y-135771047D01*
X132675380Y-135866285D01*
X132675380Y-136056761D01*
X132723000Y-136152000D01*
X132770619Y-136199619D01*
X132865857Y-136247238D01*
X133103952Y-136247238D01*
X133199190Y-136199619D01*
X133246809Y-136152000D01*
X133294428Y-136056761D01*
X133294428Y-135866285D01*
X133246809Y-135771047D01*
X133199190Y-135723428D01*
X133103952Y-135675809D01*
X133675380Y-135247238D02*
X132675380Y-135247238D01*
X133675380Y-134675809D02*
X133103952Y-135104380D01*
X132675380Y-134675809D02*
X133246809Y-135247238D01*
X126309380Y-130341666D02*
X125833190Y-130675000D01*
X126309380Y-130913095D02*
X125309380Y-130913095D01*
X125309380Y-130532142D01*
X125357000Y-130436904D01*
X125404619Y-130389285D01*
X125499857Y-130341666D01*
X125642714Y-130341666D01*
X125737952Y-130389285D01*
X125785571Y-130436904D01*
X125833190Y-130532142D01*
X125833190Y-130913095D01*
X126309380Y-129389285D02*
X126309380Y-129960714D01*
X126309380Y-129675000D02*
X125309380Y-129675000D01*
X125452238Y-129770238D01*
X125547476Y-129865476D01*
X125595095Y-129960714D01*
X125388714Y-138152000D02*
X126055380Y-138152000D01*
X125007761Y-138390095D02*
X125722047Y-138628190D01*
X125722047Y-138009142D01*
X125960142Y-137628190D02*
X126007761Y-137580571D01*
X126055380Y-137628190D01*
X126007761Y-137675809D01*
X125960142Y-137628190D01*
X126055380Y-137628190D01*
X126055380Y-137104380D02*
X126055380Y-136913904D01*
X126007761Y-136818666D01*
X125960142Y-136771047D01*
X125817285Y-136675809D01*
X125626809Y-136628190D01*
X125245857Y-136628190D01*
X125150619Y-136675809D01*
X125103000Y-136723428D01*
X125055380Y-136818666D01*
X125055380Y-137009142D01*
X125103000Y-137104380D01*
X125150619Y-137152000D01*
X125245857Y-137199619D01*
X125483952Y-137199619D01*
X125579190Y-137152000D01*
X125626809Y-137104380D01*
X125674428Y-137009142D01*
X125674428Y-136818666D01*
X125626809Y-136723428D01*
X125579190Y-136675809D01*
X125483952Y-136628190D01*
X126055380Y-136152000D02*
X126055380Y-135961523D01*
X126007761Y-135866285D01*
X125960142Y-135818666D01*
X125817285Y-135723428D01*
X125626809Y-135675809D01*
X125245857Y-135675809D01*
X125150619Y-135723428D01*
X125103000Y-135771047D01*
X125055380Y-135866285D01*
X125055380Y-136056761D01*
X125103000Y-136152000D01*
X125150619Y-136199619D01*
X125245857Y-136247238D01*
X125483952Y-136247238D01*
X125579190Y-136199619D01*
X125626809Y-136152000D01*
X125674428Y-136056761D01*
X125674428Y-135866285D01*
X125626809Y-135771047D01*
X125579190Y-135723428D01*
X125483952Y-135675809D01*
X126055380Y-135247238D02*
X125055380Y-135247238D01*
X126055380Y-134675809D02*
X125483952Y-135104380D01*
X125055380Y-134675809D02*
X125626809Y-135247238D01*
X128039904Y-114879380D02*
X128039904Y-113879380D01*
X128420857Y-113879380D01*
X128516095Y-113927000D01*
X128563714Y-113974619D01*
X128611333Y-114069857D01*
X128611333Y-114212714D01*
X128563714Y-114307952D01*
X128516095Y-114355571D01*
X128420857Y-114403190D01*
X128039904Y-114403190D01*
X129087523Y-114879380D02*
X129278000Y-114879380D01*
X129373238Y-114831761D01*
X129420857Y-114784142D01*
X129516095Y-114641285D01*
X129563714Y-114450809D01*
X129563714Y-114069857D01*
X129516095Y-113974619D01*
X129468476Y-113927000D01*
X129373238Y-113879380D01*
X129182761Y-113879380D01*
X129087523Y-113927000D01*
X129039904Y-113974619D01*
X128992285Y-114069857D01*
X128992285Y-114307952D01*
X129039904Y-114403190D01*
X129087523Y-114450809D01*
X129182761Y-114498428D01*
X129373238Y-114498428D01*
X129468476Y-114450809D01*
X129516095Y-114403190D01*
X129563714Y-114307952D01*
X130960952Y-114752380D02*
X130484761Y-114752380D01*
X130484761Y-113752380D01*
X131294285Y-114228571D02*
X131627619Y-114228571D01*
X131770476Y-114752380D02*
X131294285Y-114752380D01*
X131294285Y-113752380D01*
X131770476Y-113752380D01*
X132199047Y-114752380D02*
X132199047Y-113752380D01*
X132437142Y-113752380D01*
X132580000Y-113800000D01*
X132675238Y-113895238D01*
X132722857Y-113990476D01*
X132770476Y-114180952D01*
X132770476Y-114323809D01*
X132722857Y-114514285D01*
X132675238Y-114609523D01*
X132580000Y-114704761D01*
X132437142Y-114752380D01*
X132199047Y-114752380D01*
X133151428Y-114704761D02*
X133294285Y-114752380D01*
X133532380Y-114752380D01*
X133627619Y-114704761D01*
X133675238Y-114657142D01*
X133722857Y-114561904D01*
X133722857Y-114466666D01*
X133675238Y-114371428D01*
X133627619Y-114323809D01*
X133532380Y-114276190D01*
X133341904Y-114228571D01*
X133246666Y-114180952D01*
X133199047Y-114133333D01*
X133151428Y-114038095D01*
X133151428Y-113942857D01*
X133199047Y-113847619D01*
X133246666Y-113800000D01*
X133341904Y-113752380D01*
X133580000Y-113752380D01*
X133722857Y-113800000D01*
X182776904Y-109037380D02*
X182776904Y-108037380D01*
X183157857Y-108037380D01*
X183253095Y-108085000D01*
X183300714Y-108132619D01*
X183348333Y-108227857D01*
X183348333Y-108370714D01*
X183300714Y-108465952D01*
X183253095Y-108513571D01*
X183157857Y-108561190D01*
X182776904Y-108561190D01*
X183919761Y-108465952D02*
X183824523Y-108418333D01*
X183776904Y-108370714D01*
X183729285Y-108275476D01*
X183729285Y-108227857D01*
X183776904Y-108132619D01*
X183824523Y-108085000D01*
X183919761Y-108037380D01*
X184110238Y-108037380D01*
X184205476Y-108085000D01*
X184253095Y-108132619D01*
X184300714Y-108227857D01*
X184300714Y-108275476D01*
X184253095Y-108370714D01*
X184205476Y-108418333D01*
X184110238Y-108465952D01*
X183919761Y-108465952D01*
X183824523Y-108513571D01*
X183776904Y-108561190D01*
X183729285Y-108656428D01*
X183729285Y-108846904D01*
X183776904Y-108942142D01*
X183824523Y-108989761D01*
X183919761Y-109037380D01*
X184110238Y-109037380D01*
X184205476Y-108989761D01*
X184253095Y-108942142D01*
X184300714Y-108846904D01*
X184300714Y-108656428D01*
X184253095Y-108561190D01*
X184205476Y-108513571D01*
X184110238Y-108465952D01*
X169291428Y-114704761D02*
X169434285Y-114752380D01*
X169672380Y-114752380D01*
X169767619Y-114704761D01*
X169815238Y-114657142D01*
X169862857Y-114561904D01*
X169862857Y-114466666D01*
X169815238Y-114371428D01*
X169767619Y-114323809D01*
X169672380Y-114276190D01*
X169481904Y-114228571D01*
X169386666Y-114180952D01*
X169339047Y-114133333D01*
X169291428Y-114038095D01*
X169291428Y-113942857D01*
X169339047Y-113847619D01*
X169386666Y-113800000D01*
X169481904Y-113752380D01*
X169720000Y-113752380D01*
X169862857Y-113800000D01*
X170196190Y-113752380D02*
X170434285Y-114752380D01*
X170624761Y-114038095D01*
X170815238Y-114752380D01*
X171053333Y-113752380D01*
X171434285Y-114752380D02*
X171434285Y-113752380D01*
X171767619Y-113752380D02*
X172339047Y-113752380D01*
X172053333Y-114752380D02*
X172053333Y-113752380D01*
X173243809Y-114657142D02*
X173196190Y-114704761D01*
X173053333Y-114752380D01*
X172958095Y-114752380D01*
X172815238Y-114704761D01*
X172720000Y-114609523D01*
X172672380Y-114514285D01*
X172624761Y-114323809D01*
X172624761Y-114180952D01*
X172672380Y-113990476D01*
X172720000Y-113895238D01*
X172815238Y-113800000D01*
X172958095Y-113752380D01*
X173053333Y-113752380D01*
X173196190Y-113800000D01*
X173243809Y-113847619D01*
X173672380Y-114752380D02*
X173672380Y-113752380D01*
X173672380Y-114228571D02*
X174243809Y-114228571D01*
X174243809Y-114752380D02*
X174243809Y-113752380D01*
X174720000Y-114228571D02*
X175053333Y-114228571D01*
X175196190Y-114752380D02*
X174720000Y-114752380D01*
X174720000Y-113752380D01*
X175196190Y-113752380D01*
X175577142Y-114704761D02*
X175720000Y-114752380D01*
X175958095Y-114752380D01*
X176053333Y-114704761D01*
X176100952Y-114657142D01*
X176148571Y-114561904D01*
X176148571Y-114466666D01*
X176100952Y-114371428D01*
X176053333Y-114323809D01*
X175958095Y-114276190D01*
X175767619Y-114228571D01*
X175672380Y-114180952D01*
X175624761Y-114133333D01*
X175577142Y-114038095D01*
X175577142Y-113942857D01*
X175624761Y-113847619D01*
X175672380Y-113800000D01*
X175767619Y-113752380D01*
X176005714Y-113752380D01*
X176148571Y-113800000D01*
X174045714Y-127452380D02*
X174045714Y-126452380D01*
X174283809Y-126452380D01*
X174426666Y-126500000D01*
X174521904Y-126595238D01*
X174569523Y-126690476D01*
X174617142Y-126880952D01*
X174617142Y-127023809D01*
X174569523Y-127214285D01*
X174521904Y-127309523D01*
X174426666Y-127404761D01*
X174283809Y-127452380D01*
X174045714Y-127452380D01*
X175569523Y-127452380D02*
X174998095Y-127452380D01*
X175283809Y-127452380D02*
X175283809Y-126452380D01*
X175188571Y-126595238D01*
X175093333Y-126690476D01*
X174998095Y-126738095D01*
X175950476Y-126547619D02*
X175998095Y-126500000D01*
X176093333Y-126452380D01*
X176331428Y-126452380D01*
X176426666Y-126500000D01*
X176474285Y-126547619D01*
X176521904Y-126642857D01*
X176521904Y-126738095D01*
X176474285Y-126880952D01*
X175902857Y-127452380D01*
X176521904Y-127452380D01*
X174617142Y-126182380D02*
X174140952Y-126182380D01*
X174140952Y-125182380D01*
X174950476Y-125658571D02*
X175283809Y-125658571D01*
X175426666Y-126182380D02*
X174950476Y-126182380D01*
X174950476Y-125182380D01*
X175426666Y-125182380D01*
X175855238Y-126182380D02*
X175855238Y-125182380D01*
X176093333Y-125182380D01*
X176236190Y-125230000D01*
X176331428Y-125325238D01*
X176379047Y-125420476D01*
X176426666Y-125610952D01*
X176426666Y-125753809D01*
X176379047Y-125944285D01*
X176331428Y-126039523D01*
X176236190Y-126134761D01*
X176093333Y-126182380D01*
X175855238Y-126182380D01*
X166425714Y-127452380D02*
X166425714Y-126452380D01*
X166663809Y-126452380D01*
X166806666Y-126500000D01*
X166901904Y-126595238D01*
X166949523Y-126690476D01*
X166997142Y-126880952D01*
X166997142Y-127023809D01*
X166949523Y-127214285D01*
X166901904Y-127309523D01*
X166806666Y-127404761D01*
X166663809Y-127452380D01*
X166425714Y-127452380D01*
X167949523Y-127452380D02*
X167378095Y-127452380D01*
X167663809Y-127452380D02*
X167663809Y-126452380D01*
X167568571Y-126595238D01*
X167473333Y-126690476D01*
X167378095Y-126738095D01*
X168901904Y-127452380D02*
X168330476Y-127452380D01*
X168616190Y-127452380D02*
X168616190Y-126452380D01*
X168520952Y-126595238D01*
X168425714Y-126690476D01*
X168330476Y-126738095D01*
X166997142Y-126182380D02*
X166520952Y-126182380D01*
X166520952Y-125182380D01*
X167330476Y-125658571D02*
X167663809Y-125658571D01*
X167806666Y-126182380D02*
X167330476Y-126182380D01*
X167330476Y-125182380D01*
X167806666Y-125182380D01*
X168235238Y-126182380D02*
X168235238Y-125182380D01*
X168473333Y-125182380D01*
X168616190Y-125230000D01*
X168711428Y-125325238D01*
X168759047Y-125420476D01*
X168806666Y-125610952D01*
X168806666Y-125753809D01*
X168759047Y-125944285D01*
X168711428Y-126039523D01*
X168616190Y-126134761D01*
X168473333Y-126182380D01*
X168235238Y-126182380D01*
X158805714Y-127452380D02*
X158805714Y-126452380D01*
X159043809Y-126452380D01*
X159186666Y-126500000D01*
X159281904Y-126595238D01*
X159329523Y-126690476D01*
X159377142Y-126880952D01*
X159377142Y-127023809D01*
X159329523Y-127214285D01*
X159281904Y-127309523D01*
X159186666Y-127404761D01*
X159043809Y-127452380D01*
X158805714Y-127452380D01*
X160329523Y-127452380D02*
X159758095Y-127452380D01*
X160043809Y-127452380D02*
X160043809Y-126452380D01*
X159948571Y-126595238D01*
X159853333Y-126690476D01*
X159758095Y-126738095D01*
X160948571Y-126452380D02*
X161043809Y-126452380D01*
X161139047Y-126500000D01*
X161186666Y-126547619D01*
X161234285Y-126642857D01*
X161281904Y-126833333D01*
X161281904Y-127071428D01*
X161234285Y-127261904D01*
X161186666Y-127357142D01*
X161139047Y-127404761D01*
X161043809Y-127452380D01*
X160948571Y-127452380D01*
X160853333Y-127404761D01*
X160805714Y-127357142D01*
X160758095Y-127261904D01*
X160710476Y-127071428D01*
X160710476Y-126833333D01*
X160758095Y-126642857D01*
X160805714Y-126547619D01*
X160853333Y-126500000D01*
X160948571Y-126452380D01*
X159377142Y-126182380D02*
X158900952Y-126182380D01*
X158900952Y-125182380D01*
X159710476Y-125658571D02*
X160043809Y-125658571D01*
X160186666Y-126182380D02*
X159710476Y-126182380D01*
X159710476Y-125182380D01*
X160186666Y-125182380D01*
X160615238Y-126182380D02*
X160615238Y-125182380D01*
X160853333Y-125182380D01*
X160996190Y-125230000D01*
X161091428Y-125325238D01*
X161139047Y-125420476D01*
X161186666Y-125610952D01*
X161186666Y-125753809D01*
X161139047Y-125944285D01*
X161091428Y-126039523D01*
X160996190Y-126134761D01*
X160853333Y-126182380D01*
X160615238Y-126182380D01*
X151661904Y-127452380D02*
X151661904Y-126452380D01*
X151900000Y-126452380D01*
X152042857Y-126500000D01*
X152138095Y-126595238D01*
X152185714Y-126690476D01*
X152233333Y-126880952D01*
X152233333Y-127023809D01*
X152185714Y-127214285D01*
X152138095Y-127309523D01*
X152042857Y-127404761D01*
X151900000Y-127452380D01*
X151661904Y-127452380D01*
X152709523Y-127452380D02*
X152900000Y-127452380D01*
X152995238Y-127404761D01*
X153042857Y-127357142D01*
X153138095Y-127214285D01*
X153185714Y-127023809D01*
X153185714Y-126642857D01*
X153138095Y-126547619D01*
X153090476Y-126500000D01*
X152995238Y-126452380D01*
X152804761Y-126452380D01*
X152709523Y-126500000D01*
X152661904Y-126547619D01*
X152614285Y-126642857D01*
X152614285Y-126880952D01*
X152661904Y-126976190D01*
X152709523Y-127023809D01*
X152804761Y-127071428D01*
X152995238Y-127071428D01*
X153090476Y-127023809D01*
X153138095Y-126976190D01*
X153185714Y-126880952D01*
X151757142Y-126182380D02*
X151280952Y-126182380D01*
X151280952Y-125182380D01*
X152090476Y-125658571D02*
X152423809Y-125658571D01*
X152566666Y-126182380D02*
X152090476Y-126182380D01*
X152090476Y-125182380D01*
X152566666Y-125182380D01*
X152995238Y-126182380D02*
X152995238Y-125182380D01*
X153233333Y-125182380D01*
X153376190Y-125230000D01*
X153471428Y-125325238D01*
X153519047Y-125420476D01*
X153566666Y-125610952D01*
X153566666Y-125753809D01*
X153519047Y-125944285D01*
X153471428Y-126039523D01*
X153376190Y-126134761D01*
X153233333Y-126182380D01*
X152995238Y-126182380D01*
X144041904Y-126817380D02*
X144041904Y-125817380D01*
X144280000Y-125817380D01*
X144422857Y-125865000D01*
X144518095Y-125960238D01*
X144565714Y-126055476D01*
X144613333Y-126245952D01*
X144613333Y-126388809D01*
X144565714Y-126579285D01*
X144518095Y-126674523D01*
X144422857Y-126769761D01*
X144280000Y-126817380D01*
X144041904Y-126817380D01*
X145184761Y-126245952D02*
X145089523Y-126198333D01*
X145041904Y-126150714D01*
X144994285Y-126055476D01*
X144994285Y-126007857D01*
X145041904Y-125912619D01*
X145089523Y-125865000D01*
X145184761Y-125817380D01*
X145375238Y-125817380D01*
X145470476Y-125865000D01*
X145518095Y-125912619D01*
X145565714Y-126007857D01*
X145565714Y-126055476D01*
X145518095Y-126150714D01*
X145470476Y-126198333D01*
X145375238Y-126245952D01*
X145184761Y-126245952D01*
X145089523Y-126293571D01*
X145041904Y-126341190D01*
X144994285Y-126436428D01*
X144994285Y-126626904D01*
X145041904Y-126722142D01*
X145089523Y-126769761D01*
X145184761Y-126817380D01*
X145375238Y-126817380D01*
X145470476Y-126769761D01*
X145518095Y-126722142D01*
X145565714Y-126626904D01*
X145565714Y-126436428D01*
X145518095Y-126341190D01*
X145470476Y-126293571D01*
X145375238Y-126245952D01*
X144137142Y-125547380D02*
X143660952Y-125547380D01*
X143660952Y-124547380D01*
X144470476Y-125023571D02*
X144803809Y-125023571D01*
X144946666Y-125547380D02*
X144470476Y-125547380D01*
X144470476Y-124547380D01*
X144946666Y-124547380D01*
X145375238Y-125547380D02*
X145375238Y-124547380D01*
X145613333Y-124547380D01*
X145756190Y-124595000D01*
X145851428Y-124690238D01*
X145899047Y-124785476D01*
X145946666Y-124975952D01*
X145946666Y-125118809D01*
X145899047Y-125309285D01*
X145851428Y-125404523D01*
X145756190Y-125499761D01*
X145613333Y-125547380D01*
X145375238Y-125547380D01*
X136421904Y-126817380D02*
X136421904Y-125817380D01*
X136660000Y-125817380D01*
X136802857Y-125865000D01*
X136898095Y-125960238D01*
X136945714Y-126055476D01*
X136993333Y-126245952D01*
X136993333Y-126388809D01*
X136945714Y-126579285D01*
X136898095Y-126674523D01*
X136802857Y-126769761D01*
X136660000Y-126817380D01*
X136421904Y-126817380D01*
X137326666Y-125817380D02*
X137993333Y-125817380D01*
X137564761Y-126817380D01*
X136517142Y-125547380D02*
X136040952Y-125547380D01*
X136040952Y-124547380D01*
X136850476Y-125023571D02*
X137183809Y-125023571D01*
X137326666Y-125547380D02*
X136850476Y-125547380D01*
X136850476Y-124547380D01*
X137326666Y-124547380D01*
X137755238Y-125547380D02*
X137755238Y-124547380D01*
X137993333Y-124547380D01*
X138136190Y-124595000D01*
X138231428Y-124690238D01*
X138279047Y-124785476D01*
X138326666Y-124975952D01*
X138326666Y-125118809D01*
X138279047Y-125309285D01*
X138231428Y-125404523D01*
X138136190Y-125499761D01*
X137993333Y-125547380D01*
X137755238Y-125547380D01*
X128801904Y-126817380D02*
X128801904Y-125817380D01*
X129040000Y-125817380D01*
X129182857Y-125865000D01*
X129278095Y-125960238D01*
X129325714Y-126055476D01*
X129373333Y-126245952D01*
X129373333Y-126388809D01*
X129325714Y-126579285D01*
X129278095Y-126674523D01*
X129182857Y-126769761D01*
X129040000Y-126817380D01*
X128801904Y-126817380D01*
X130230476Y-125817380D02*
X130040000Y-125817380D01*
X129944761Y-125865000D01*
X129897142Y-125912619D01*
X129801904Y-126055476D01*
X129754285Y-126245952D01*
X129754285Y-126626904D01*
X129801904Y-126722142D01*
X129849523Y-126769761D01*
X129944761Y-126817380D01*
X130135238Y-126817380D01*
X130230476Y-126769761D01*
X130278095Y-126722142D01*
X130325714Y-126626904D01*
X130325714Y-126388809D01*
X130278095Y-126293571D01*
X130230476Y-126245952D01*
X130135238Y-126198333D01*
X129944761Y-126198333D01*
X129849523Y-126245952D01*
X129801904Y-126293571D01*
X129754285Y-126388809D01*
X128897142Y-125547380D02*
X128420952Y-125547380D01*
X128420952Y-124547380D01*
X129230476Y-125023571D02*
X129563809Y-125023571D01*
X129706666Y-125547380D02*
X129230476Y-125547380D01*
X129230476Y-124547380D01*
X129706666Y-124547380D01*
X130135238Y-125547380D02*
X130135238Y-124547380D01*
X130373333Y-124547380D01*
X130516190Y-124595000D01*
X130611428Y-124690238D01*
X130659047Y-124785476D01*
X130706666Y-124975952D01*
X130706666Y-125118809D01*
X130659047Y-125309285D01*
X130611428Y-125404523D01*
X130516190Y-125499761D01*
X130373333Y-125547380D01*
X130135238Y-125547380D01*
X120546904Y-127452380D02*
X120546904Y-126452380D01*
X120785000Y-126452380D01*
X120927857Y-126500000D01*
X121023095Y-126595238D01*
X121070714Y-126690476D01*
X121118333Y-126880952D01*
X121118333Y-127023809D01*
X121070714Y-127214285D01*
X121023095Y-127309523D01*
X120927857Y-127404761D01*
X120785000Y-127452380D01*
X120546904Y-127452380D01*
X122023095Y-126452380D02*
X121546904Y-126452380D01*
X121499285Y-126928571D01*
X121546904Y-126880952D01*
X121642142Y-126833333D01*
X121880238Y-126833333D01*
X121975476Y-126880952D01*
X122023095Y-126928571D01*
X122070714Y-127023809D01*
X122070714Y-127261904D01*
X122023095Y-127357142D01*
X121975476Y-127404761D01*
X121880238Y-127452380D01*
X121642142Y-127452380D01*
X121546904Y-127404761D01*
X121499285Y-127357142D01*
X121277142Y-126182380D02*
X120800952Y-126182380D01*
X120800952Y-125182380D01*
X121610476Y-125658571D02*
X121943809Y-125658571D01*
X122086666Y-126182380D02*
X121610476Y-126182380D01*
X121610476Y-125182380D01*
X122086666Y-125182380D01*
X122515238Y-126182380D02*
X122515238Y-125182380D01*
X122753333Y-125182380D01*
X122896190Y-125230000D01*
X122991428Y-125325238D01*
X123039047Y-125420476D01*
X123086666Y-125610952D01*
X123086666Y-125753809D01*
X123039047Y-125944285D01*
X122991428Y-126039523D01*
X122896190Y-126134761D01*
X122753333Y-126182380D01*
X122515238Y-126182380D01*
X152908095Y-67472380D02*
X152908095Y-68281904D01*
X152955714Y-68377142D01*
X153003333Y-68424761D01*
X153098571Y-68472380D01*
X153289047Y-68472380D01*
X153384285Y-68424761D01*
X153431904Y-68377142D01*
X153479523Y-68281904D01*
X153479523Y-67472380D01*
X154479523Y-68472380D02*
X153908095Y-68472380D01*
X154193809Y-68472380D02*
X154193809Y-67472380D01*
X154098571Y-67615238D01*
X154003333Y-67710476D01*
X153908095Y-67758095D01*
X149701809Y-79541666D02*
X150178000Y-79541666D01*
X149606571Y-79827380D02*
X149939904Y-78827380D01*
X150273238Y-79827380D01*
X150463714Y-78827380D02*
X151035142Y-78827380D01*
X150749428Y-79827380D02*
X150749428Y-78827380D01*
X151368476Y-79827380D02*
X151368476Y-78827380D01*
X151701809Y-79541666D01*
X152035142Y-78827380D01*
X152035142Y-79827380D01*
X152511333Y-79303571D02*
X152844666Y-79303571D01*
X152987523Y-79827380D02*
X152511333Y-79827380D01*
X152511333Y-78827380D01*
X152987523Y-78827380D01*
X153939904Y-78875000D02*
X153844666Y-78827380D01*
X153701809Y-78827380D01*
X153558952Y-78875000D01*
X153463714Y-78970238D01*
X153416095Y-79065476D01*
X153368476Y-79255952D01*
X153368476Y-79398809D01*
X153416095Y-79589285D01*
X153463714Y-79684523D01*
X153558952Y-79779761D01*
X153701809Y-79827380D01*
X153797047Y-79827380D01*
X153939904Y-79779761D01*
X153987523Y-79732142D01*
X153987523Y-79398809D01*
X153797047Y-79398809D01*
X154368476Y-79541666D02*
X154844666Y-79541666D01*
X154273238Y-79827380D02*
X154606571Y-78827380D01*
X154939904Y-79827380D01*
X155225619Y-78922619D02*
X155273238Y-78875000D01*
X155368476Y-78827380D01*
X155606571Y-78827380D01*
X155701809Y-78875000D01*
X155749428Y-78922619D01*
X155797047Y-79017857D01*
X155797047Y-79113095D01*
X155749428Y-79255952D01*
X155178000Y-79827380D01*
X155797047Y-79827380D01*
X156701809Y-78827380D02*
X156225619Y-78827380D01*
X156178000Y-79303571D01*
X156225619Y-79255952D01*
X156320857Y-79208333D01*
X156558952Y-79208333D01*
X156654190Y-79255952D01*
X156701809Y-79303571D01*
X156749428Y-79398809D01*
X156749428Y-79636904D01*
X156701809Y-79732142D01*
X156654190Y-79779761D01*
X156558952Y-79827380D01*
X156320857Y-79827380D01*
X156225619Y-79779761D01*
X156178000Y-79732142D01*
X157606571Y-78827380D02*
X157416095Y-78827380D01*
X157320857Y-78875000D01*
X157273238Y-78922619D01*
X157178000Y-79065476D01*
X157130380Y-79255952D01*
X157130380Y-79636904D01*
X157178000Y-79732142D01*
X157225619Y-79779761D01*
X157320857Y-79827380D01*
X157511333Y-79827380D01*
X157606571Y-79779761D01*
X157654190Y-79732142D01*
X157701809Y-79636904D01*
X157701809Y-79398809D01*
X157654190Y-79303571D01*
X157606571Y-79255952D01*
X157511333Y-79208333D01*
X157320857Y-79208333D01*
X157225619Y-79255952D01*
X157178000Y-79303571D01*
X157130380Y-79398809D01*
X158654190Y-79827380D02*
X158082761Y-79827380D01*
X158368476Y-79827380D02*
X158368476Y-78827380D01*
X158273238Y-78970238D01*
X158178000Y-79065476D01*
X158082761Y-79113095D01*
X152908095Y-76922380D02*
X152908095Y-77731904D01*
X152955714Y-77827142D01*
X153003333Y-77874761D01*
X153098571Y-77922380D01*
X153289047Y-77922380D01*
X153384285Y-77874761D01*
X153431904Y-77827142D01*
X153479523Y-77731904D01*
X153479523Y-76922380D01*
X154479523Y-77922380D02*
X153908095Y-77922380D01*
X154193809Y-77922380D02*
X154193809Y-76922380D01*
X154098571Y-77065238D01*
X154003333Y-77160476D01*
X153908095Y-77208095D01*
X120951666Y-75017380D02*
X120951666Y-75731666D01*
X120904047Y-75874523D01*
X120808809Y-75969761D01*
X120665952Y-76017380D01*
X120570714Y-76017380D01*
X121951666Y-76017380D02*
X121380238Y-76017380D01*
X121665952Y-76017380D02*
X121665952Y-75017380D01*
X121570714Y-75160238D01*
X121475476Y-75255476D01*
X121380238Y-75303095D01*
X152431809Y-94972190D02*
X152431809Y-95448380D01*
X152098476Y-94448380D02*
X152431809Y-94972190D01*
X152765142Y-94448380D01*
X153622285Y-95448380D02*
X153050857Y-95448380D01*
X153336571Y-95448380D02*
X153336571Y-94448380D01*
X153241333Y-94591238D01*
X153146095Y-94686476D01*
X153050857Y-94734095D01*
X149931857Y-94178380D02*
X149360428Y-94178380D01*
X149646142Y-94178380D02*
X149646142Y-93178380D01*
X149550904Y-93321238D01*
X149455666Y-93416476D01*
X149360428Y-93464095D01*
X150789000Y-93178380D02*
X150598523Y-93178380D01*
X150503285Y-93226000D01*
X150455666Y-93273619D01*
X150360428Y-93416476D01*
X150312809Y-93606952D01*
X150312809Y-93987904D01*
X150360428Y-94083142D01*
X150408047Y-94130761D01*
X150503285Y-94178380D01*
X150693761Y-94178380D01*
X150789000Y-94130761D01*
X150836619Y-94083142D01*
X150884238Y-93987904D01*
X150884238Y-93749809D01*
X150836619Y-93654571D01*
X150789000Y-93606952D01*
X150693761Y-93559333D01*
X150503285Y-93559333D01*
X150408047Y-93606952D01*
X150360428Y-93654571D01*
X150312809Y-93749809D01*
X151312809Y-94083142D02*
X151360428Y-94130761D01*
X151312809Y-94178380D01*
X151265190Y-94130761D01*
X151312809Y-94083142D01*
X151312809Y-94178380D01*
X151979476Y-93178380D02*
X152074714Y-93178380D01*
X152169952Y-93226000D01*
X152217571Y-93273619D01*
X152265190Y-93368857D01*
X152312809Y-93559333D01*
X152312809Y-93797428D01*
X152265190Y-93987904D01*
X152217571Y-94083142D01*
X152169952Y-94130761D01*
X152074714Y-94178380D01*
X151979476Y-94178380D01*
X151884238Y-94130761D01*
X151836619Y-94083142D01*
X151789000Y-93987904D01*
X151741380Y-93797428D01*
X151741380Y-93559333D01*
X151789000Y-93368857D01*
X151836619Y-93273619D01*
X151884238Y-93226000D01*
X151979476Y-93178380D01*
X152931857Y-93178380D02*
X153027095Y-93178380D01*
X153122333Y-93226000D01*
X153169952Y-93273619D01*
X153217571Y-93368857D01*
X153265190Y-93559333D01*
X153265190Y-93797428D01*
X153217571Y-93987904D01*
X153169952Y-94083142D01*
X153122333Y-94130761D01*
X153027095Y-94178380D01*
X152931857Y-94178380D01*
X152836619Y-94130761D01*
X152789000Y-94083142D01*
X152741380Y-93987904D01*
X152693761Y-93797428D01*
X152693761Y-93559333D01*
X152741380Y-93368857D01*
X152789000Y-93273619D01*
X152836619Y-93226000D01*
X152931857Y-93178380D01*
X153884238Y-93178380D02*
X153979476Y-93178380D01*
X154074714Y-93226000D01*
X154122333Y-93273619D01*
X154169952Y-93368857D01*
X154217571Y-93559333D01*
X154217571Y-93797428D01*
X154169952Y-93987904D01*
X154122333Y-94083142D01*
X154074714Y-94130761D01*
X153979476Y-94178380D01*
X153884238Y-94178380D01*
X153789000Y-94130761D01*
X153741380Y-94083142D01*
X153693761Y-93987904D01*
X153646142Y-93797428D01*
X153646142Y-93559333D01*
X153693761Y-93368857D01*
X153741380Y-93273619D01*
X153789000Y-93226000D01*
X153884238Y-93178380D01*
X154646142Y-94178380D02*
X154646142Y-93178380D01*
X154979476Y-93892666D01*
X155312809Y-93178380D01*
X155312809Y-94178380D01*
X155789000Y-94178380D02*
X155789000Y-93178380D01*
X155789000Y-93654571D02*
X156360428Y-93654571D01*
X156360428Y-94178380D02*
X156360428Y-93178380D01*
X156741380Y-93511714D02*
X157265190Y-93511714D01*
X156741380Y-94178380D01*
X157265190Y-94178380D01*
X145796095Y-57872380D02*
X145796095Y-58681904D01*
X145843714Y-58777142D01*
X145891333Y-58824761D01*
X145986571Y-58872380D01*
X146177047Y-58872380D01*
X146272285Y-58824761D01*
X146319904Y-58777142D01*
X146367523Y-58681904D01*
X146367523Y-57872380D01*
X146796095Y-57967619D02*
X146843714Y-57920000D01*
X146938952Y-57872380D01*
X147177047Y-57872380D01*
X147272285Y-57920000D01*
X147319904Y-57967619D01*
X147367523Y-58062857D01*
X147367523Y-58158095D01*
X147319904Y-58300952D01*
X146748476Y-58872380D01*
X147367523Y-58872380D01*
X144748571Y-60642380D02*
X144272380Y-60642380D01*
X144272380Y-59642380D01*
X145081904Y-60642380D02*
X145081904Y-59642380D01*
X145415238Y-60356666D01*
X145748571Y-59642380D01*
X145748571Y-60642380D01*
X146129523Y-59642380D02*
X146796190Y-59642380D01*
X146367619Y-60642380D01*
X147320000Y-60070952D02*
X147224761Y-60023333D01*
X147177142Y-59975714D01*
X147129523Y-59880476D01*
X147129523Y-59832857D01*
X147177142Y-59737619D01*
X147224761Y-59690000D01*
X147320000Y-59642380D01*
X147510476Y-59642380D01*
X147605714Y-59690000D01*
X147653333Y-59737619D01*
X147700952Y-59832857D01*
X147700952Y-59880476D01*
X147653333Y-59975714D01*
X147605714Y-60023333D01*
X147510476Y-60070952D01*
X147320000Y-60070952D01*
X147224761Y-60118571D01*
X147177142Y-60166190D01*
X147129523Y-60261428D01*
X147129523Y-60451904D01*
X147177142Y-60547142D01*
X147224761Y-60594761D01*
X147320000Y-60642380D01*
X147510476Y-60642380D01*
X147605714Y-60594761D01*
X147653333Y-60547142D01*
X147700952Y-60451904D01*
X147700952Y-60261428D01*
X147653333Y-60166190D01*
X147605714Y-60118571D01*
X147510476Y-60070952D01*
X148605714Y-60642380D02*
X148129523Y-60642380D01*
X148129523Y-59642380D01*
X149129523Y-59642380D02*
X149224761Y-59642380D01*
X149320000Y-59690000D01*
X149367619Y-59737619D01*
X149415238Y-59832857D01*
X149462857Y-60023333D01*
X149462857Y-60261428D01*
X149415238Y-60451904D01*
X149367619Y-60547142D01*
X149320000Y-60594761D01*
X149224761Y-60642380D01*
X149129523Y-60642380D01*
X149034285Y-60594761D01*
X148986666Y-60547142D01*
X148939047Y-60451904D01*
X148891428Y-60261428D01*
X148891428Y-60023333D01*
X148939047Y-59832857D01*
X148986666Y-59737619D01*
X149034285Y-59690000D01*
X149129523Y-59642380D01*
X150367619Y-59642380D02*
X149891428Y-59642380D01*
X149843809Y-60118571D01*
X149891428Y-60070952D01*
X149986666Y-60023333D01*
X150224761Y-60023333D01*
X150320000Y-60070952D01*
X150367619Y-60118571D01*
X150415238Y-60213809D01*
X150415238Y-60451904D01*
X150367619Y-60547142D01*
X150320000Y-60594761D01*
X150224761Y-60642380D01*
X149986666Y-60642380D01*
X149891428Y-60594761D01*
X149843809Y-60547142D01*
X112212380Y-84558095D02*
X111212380Y-84558095D01*
X111212380Y-84177142D01*
X111260000Y-84081904D01*
X111307619Y-84034285D01*
X111402857Y-83986666D01*
X111545714Y-83986666D01*
X111640952Y-84034285D01*
X111688571Y-84081904D01*
X111736190Y-84177142D01*
X111736190Y-84558095D01*
X111212380Y-83653333D02*
X111212380Y-82986666D01*
X112212380Y-83415238D01*
X113482380Y-87590000D02*
X112482380Y-87590000D01*
X112482380Y-87209047D01*
X112530000Y-87113809D01*
X112577619Y-87066190D01*
X112672857Y-87018571D01*
X112815714Y-87018571D01*
X112910952Y-87066190D01*
X112958571Y-87113809D01*
X113006190Y-87209047D01*
X113006190Y-87590000D01*
X112482380Y-86399523D02*
X112482380Y-86209047D01*
X112530000Y-86113809D01*
X112625238Y-86018571D01*
X112815714Y-85970952D01*
X113149047Y-85970952D01*
X113339523Y-86018571D01*
X113434761Y-86113809D01*
X113482380Y-86209047D01*
X113482380Y-86399523D01*
X113434761Y-86494761D01*
X113339523Y-86590000D01*
X113149047Y-86637619D01*
X112815714Y-86637619D01*
X112625238Y-86590000D01*
X112530000Y-86494761D01*
X112482380Y-86399523D01*
X113482380Y-84970952D02*
X113006190Y-85304285D01*
X113482380Y-85542380D02*
X112482380Y-85542380D01*
X112482380Y-85161428D01*
X112530000Y-85066190D01*
X112577619Y-85018571D01*
X112672857Y-84970952D01*
X112815714Y-84970952D01*
X112910952Y-85018571D01*
X112958571Y-85066190D01*
X113006190Y-85161428D01*
X113006190Y-85542380D01*
X112482380Y-84685238D02*
X112482380Y-84113809D01*
X113482380Y-84399523D02*
X112482380Y-84399523D01*
X112958571Y-83018571D02*
X112958571Y-82685238D01*
X113482380Y-82542380D02*
X113482380Y-83018571D01*
X112482380Y-83018571D01*
X112482380Y-82542380D01*
X128801904Y-49347380D02*
X128801904Y-48347380D01*
X129182857Y-48347380D01*
X129278095Y-48395000D01*
X129325714Y-48442619D01*
X129373333Y-48537857D01*
X129373333Y-48680714D01*
X129325714Y-48775952D01*
X129278095Y-48823571D01*
X129182857Y-48871190D01*
X128801904Y-48871190D01*
X130230476Y-48347380D02*
X130040000Y-48347380D01*
X129944761Y-48395000D01*
X129897142Y-48442619D01*
X129801904Y-48585476D01*
X129754285Y-48775952D01*
X129754285Y-49156904D01*
X129801904Y-49252142D01*
X129849523Y-49299761D01*
X129944761Y-49347380D01*
X130135238Y-49347380D01*
X130230476Y-49299761D01*
X130278095Y-49252142D01*
X130325714Y-49156904D01*
X130325714Y-48918809D01*
X130278095Y-48823571D01*
X130230476Y-48775952D01*
X130135238Y-48728333D01*
X129944761Y-48728333D01*
X129849523Y-48775952D01*
X129801904Y-48823571D01*
X129754285Y-48918809D01*
X137223809Y-47442380D02*
X137223809Y-46442380D01*
X137604761Y-46442380D01*
X137700000Y-46490000D01*
X137747619Y-46537619D01*
X137795238Y-46632857D01*
X137795238Y-46775714D01*
X137747619Y-46870952D01*
X137700000Y-46918571D01*
X137604761Y-46966190D01*
X137223809Y-46966190D01*
X138414285Y-46442380D02*
X138604761Y-46442380D01*
X138700000Y-46490000D01*
X138795238Y-46585238D01*
X138842857Y-46775714D01*
X138842857Y-47109047D01*
X138795238Y-47299523D01*
X138700000Y-47394761D01*
X138604761Y-47442380D01*
X138414285Y-47442380D01*
X138319047Y-47394761D01*
X138223809Y-47299523D01*
X138176190Y-47109047D01*
X138176190Y-46775714D01*
X138223809Y-46585238D01*
X138319047Y-46490000D01*
X138414285Y-46442380D01*
X139842857Y-47442380D02*
X139509523Y-46966190D01*
X139271428Y-47442380D02*
X139271428Y-46442380D01*
X139652380Y-46442380D01*
X139747619Y-46490000D01*
X139795238Y-46537619D01*
X139842857Y-46632857D01*
X139842857Y-46775714D01*
X139795238Y-46870952D01*
X139747619Y-46918571D01*
X139652380Y-46966190D01*
X139271428Y-46966190D01*
X140128571Y-46442380D02*
X140700000Y-46442380D01*
X140414285Y-47442380D02*
X140414285Y-46442380D01*
X142128571Y-46918571D02*
X141795238Y-46918571D01*
X141795238Y-47442380D02*
X141795238Y-46442380D01*
X142271428Y-46442380D01*
X169695904Y-95448380D02*
X169695904Y-94448380D01*
X170076857Y-94448380D01*
X170172095Y-94496000D01*
X170219714Y-94543619D01*
X170267333Y-94638857D01*
X170267333Y-94781714D01*
X170219714Y-94876952D01*
X170172095Y-94924571D01*
X170076857Y-94972190D01*
X169695904Y-94972190D01*
X171172095Y-94448380D02*
X170695904Y-94448380D01*
X170648285Y-94924571D01*
X170695904Y-94876952D01*
X170791142Y-94829333D01*
X171029238Y-94829333D01*
X171124476Y-94876952D01*
X171172095Y-94924571D01*
X171219714Y-95019809D01*
X171219714Y-95257904D01*
X171172095Y-95353142D01*
X171124476Y-95400761D01*
X171029238Y-95448380D01*
X170791142Y-95448380D01*
X170695904Y-95400761D01*
X170648285Y-95353142D01*
X162806380Y-95575380D02*
X162806380Y-94575380D01*
X163187333Y-94575380D01*
X163282571Y-94623000D01*
X163330190Y-94670619D01*
X163377809Y-94765857D01*
X163377809Y-94908714D01*
X163330190Y-95003952D01*
X163282571Y-95051571D01*
X163187333Y-95099190D01*
X162806380Y-95099190D01*
X163996857Y-94575380D02*
X164187333Y-94575380D01*
X164282571Y-94623000D01*
X164377809Y-94718238D01*
X164425428Y-94908714D01*
X164425428Y-95242047D01*
X164377809Y-95432523D01*
X164282571Y-95527761D01*
X164187333Y-95575380D01*
X163996857Y-95575380D01*
X163901619Y-95527761D01*
X163806380Y-95432523D01*
X163758761Y-95242047D01*
X163758761Y-94908714D01*
X163806380Y-94718238D01*
X163901619Y-94623000D01*
X163996857Y-94575380D01*
X165425428Y-95575380D02*
X165092095Y-95099190D01*
X164854000Y-95575380D02*
X164854000Y-94575380D01*
X165234952Y-94575380D01*
X165330190Y-94623000D01*
X165377809Y-94670619D01*
X165425428Y-94765857D01*
X165425428Y-94908714D01*
X165377809Y-95003952D01*
X165330190Y-95051571D01*
X165234952Y-95099190D01*
X164854000Y-95099190D01*
X165711142Y-94575380D02*
X166282571Y-94575380D01*
X165996857Y-95575380D02*
X165996857Y-94575380D01*
X167901619Y-94623000D02*
X167806380Y-94575380D01*
X167663523Y-94575380D01*
X167520666Y-94623000D01*
X167425428Y-94718238D01*
X167377809Y-94813476D01*
X167330190Y-95003952D01*
X167330190Y-95146809D01*
X167377809Y-95337285D01*
X167425428Y-95432523D01*
X167520666Y-95527761D01*
X167663523Y-95575380D01*
X167758761Y-95575380D01*
X167901619Y-95527761D01*
X167949238Y-95480142D01*
X167949238Y-95146809D01*
X167758761Y-95146809D01*
X150391904Y-107132380D02*
X150391904Y-106132380D01*
X150772857Y-106132380D01*
X150868095Y-106180000D01*
X150915714Y-106227619D01*
X150963333Y-106322857D01*
X150963333Y-106465714D01*
X150915714Y-106560952D01*
X150868095Y-106608571D01*
X150772857Y-106656190D01*
X150391904Y-106656190D01*
X151820476Y-106465714D02*
X151820476Y-107132380D01*
X151582380Y-106084761D02*
X151344285Y-106799047D01*
X151963333Y-106799047D01*
X149852380Y-105862380D02*
X149852380Y-104862380D01*
X150233333Y-104862380D01*
X150328571Y-104910000D01*
X150376190Y-104957619D01*
X150423809Y-105052857D01*
X150423809Y-105195714D01*
X150376190Y-105290952D01*
X150328571Y-105338571D01*
X150233333Y-105386190D01*
X149852380Y-105386190D01*
X151042857Y-104862380D02*
X151233333Y-104862380D01*
X151328571Y-104910000D01*
X151423809Y-105005238D01*
X151471428Y-105195714D01*
X151471428Y-105529047D01*
X151423809Y-105719523D01*
X151328571Y-105814761D01*
X151233333Y-105862380D01*
X151042857Y-105862380D01*
X150947619Y-105814761D01*
X150852380Y-105719523D01*
X150804761Y-105529047D01*
X150804761Y-105195714D01*
X150852380Y-105005238D01*
X150947619Y-104910000D01*
X151042857Y-104862380D01*
X152471428Y-105862380D02*
X152138095Y-105386190D01*
X151900000Y-105862380D02*
X151900000Y-104862380D01*
X152280952Y-104862380D01*
X152376190Y-104910000D01*
X152423809Y-104957619D01*
X152471428Y-105052857D01*
X152471428Y-105195714D01*
X152423809Y-105290952D01*
X152376190Y-105338571D01*
X152280952Y-105386190D01*
X151900000Y-105386190D01*
X152757142Y-104862380D02*
X153328571Y-104862380D01*
X153042857Y-105862380D02*
X153042857Y-104862380D01*
X154423809Y-105862380D02*
X154423809Y-104862380D01*
X154661904Y-104862380D01*
X154804761Y-104910000D01*
X154900000Y-105005238D01*
X154947619Y-105100476D01*
X154995238Y-105290952D01*
X154995238Y-105433809D01*
X154947619Y-105624285D01*
X154900000Y-105719523D01*
X154804761Y-105814761D01*
X154661904Y-105862380D01*
X154423809Y-105862380D01*
X131849904Y-95575380D02*
X131849904Y-94575380D01*
X132230857Y-94575380D01*
X132326095Y-94623000D01*
X132373714Y-94670619D01*
X132421333Y-94765857D01*
X132421333Y-94908714D01*
X132373714Y-95003952D01*
X132326095Y-95051571D01*
X132230857Y-95099190D01*
X131849904Y-95099190D01*
X132754666Y-94575380D02*
X133373714Y-94575380D01*
X133040380Y-94956333D01*
X133183238Y-94956333D01*
X133278476Y-95003952D01*
X133326095Y-95051571D01*
X133373714Y-95146809D01*
X133373714Y-95384904D01*
X133326095Y-95480142D01*
X133278476Y-95527761D01*
X133183238Y-95575380D01*
X132897523Y-95575380D01*
X132802285Y-95527761D01*
X132754666Y-95480142D01*
X130294380Y-94051380D02*
X130294380Y-93051380D01*
X130675333Y-93051380D01*
X130770571Y-93099000D01*
X130818190Y-93146619D01*
X130865809Y-93241857D01*
X130865809Y-93384714D01*
X130818190Y-93479952D01*
X130770571Y-93527571D01*
X130675333Y-93575190D01*
X130294380Y-93575190D01*
X131484857Y-93051380D02*
X131675333Y-93051380D01*
X131770571Y-93099000D01*
X131865809Y-93194238D01*
X131913428Y-93384714D01*
X131913428Y-93718047D01*
X131865809Y-93908523D01*
X131770571Y-94003761D01*
X131675333Y-94051380D01*
X131484857Y-94051380D01*
X131389619Y-94003761D01*
X131294380Y-93908523D01*
X131246761Y-93718047D01*
X131246761Y-93384714D01*
X131294380Y-93194238D01*
X131389619Y-93099000D01*
X131484857Y-93051380D01*
X132913428Y-94051380D02*
X132580095Y-93575190D01*
X132342000Y-94051380D02*
X132342000Y-93051380D01*
X132722952Y-93051380D01*
X132818190Y-93099000D01*
X132865809Y-93146619D01*
X132913428Y-93241857D01*
X132913428Y-93384714D01*
X132865809Y-93479952D01*
X132818190Y-93527571D01*
X132722952Y-93575190D01*
X132342000Y-93575190D01*
X133199142Y-93051380D02*
X133770571Y-93051380D01*
X133484857Y-94051380D02*
X133484857Y-93051380D01*
X135199142Y-93527571D02*
X135342000Y-93575190D01*
X135389619Y-93622809D01*
X135437238Y-93718047D01*
X135437238Y-93860904D01*
X135389619Y-93956142D01*
X135342000Y-94003761D01*
X135246761Y-94051380D01*
X134865809Y-94051380D01*
X134865809Y-93051380D01*
X135199142Y-93051380D01*
X135294380Y-93099000D01*
X135342000Y-93146619D01*
X135389619Y-93241857D01*
X135389619Y-93337095D01*
X135342000Y-93432333D01*
X135294380Y-93479952D01*
X135199142Y-93527571D01*
X134865809Y-93527571D01*
X183332380Y-65508095D02*
X182332380Y-65508095D01*
X182332380Y-65127142D01*
X182380000Y-65031904D01*
X182427619Y-64984285D01*
X182522857Y-64936666D01*
X182665714Y-64936666D01*
X182760952Y-64984285D01*
X182808571Y-65031904D01*
X182856190Y-65127142D01*
X182856190Y-65508095D01*
X182427619Y-64555714D02*
X182380000Y-64508095D01*
X182332380Y-64412857D01*
X182332380Y-64174761D01*
X182380000Y-64079523D01*
X182427619Y-64031904D01*
X182522857Y-63984285D01*
X182618095Y-63984285D01*
X182760952Y-64031904D01*
X183332380Y-64603333D01*
X183332380Y-63984285D01*
X182062380Y-65976190D02*
X181062380Y-65976190D01*
X181062380Y-65595238D01*
X181110000Y-65500000D01*
X181157619Y-65452380D01*
X181252857Y-65404761D01*
X181395714Y-65404761D01*
X181490952Y-65452380D01*
X181538571Y-65500000D01*
X181586190Y-65595238D01*
X181586190Y-65976190D01*
X181062380Y-64785714D02*
X181062380Y-64595238D01*
X181110000Y-64500000D01*
X181205238Y-64404761D01*
X181395714Y-64357142D01*
X181729047Y-64357142D01*
X181919523Y-64404761D01*
X182014761Y-64500000D01*
X182062380Y-64595238D01*
X182062380Y-64785714D01*
X182014761Y-64880952D01*
X181919523Y-64976190D01*
X181729047Y-65023809D01*
X181395714Y-65023809D01*
X181205238Y-64976190D01*
X181110000Y-64880952D01*
X181062380Y-64785714D01*
X182062380Y-63357142D02*
X181586190Y-63690476D01*
X182062380Y-63928571D02*
X181062380Y-63928571D01*
X181062380Y-63547619D01*
X181110000Y-63452380D01*
X181157619Y-63404761D01*
X181252857Y-63357142D01*
X181395714Y-63357142D01*
X181490952Y-63404761D01*
X181538571Y-63452380D01*
X181586190Y-63547619D01*
X181586190Y-63928571D01*
X181062380Y-63071428D02*
X181062380Y-62500000D01*
X182062380Y-62785714D02*
X181062380Y-62785714D01*
X181776666Y-61452380D02*
X181776666Y-60976190D01*
X182062380Y-61547619D02*
X181062380Y-61214285D01*
X182062380Y-60880952D01*
X183332380Y-85828095D02*
X182332380Y-85828095D01*
X182332380Y-85447142D01*
X182380000Y-85351904D01*
X182427619Y-85304285D01*
X182522857Y-85256666D01*
X182665714Y-85256666D01*
X182760952Y-85304285D01*
X182808571Y-85351904D01*
X182856190Y-85447142D01*
X182856190Y-85828095D01*
X183332380Y-84304285D02*
X183332380Y-84875714D01*
X183332380Y-84590000D02*
X182332380Y-84590000D01*
X182475238Y-84685238D01*
X182570476Y-84780476D01*
X182618095Y-84875714D01*
X182062380Y-86367619D02*
X181062380Y-86367619D01*
X181062380Y-85986666D01*
X181110000Y-85891428D01*
X181157619Y-85843809D01*
X181252857Y-85796190D01*
X181395714Y-85796190D01*
X181490952Y-85843809D01*
X181538571Y-85891428D01*
X181586190Y-85986666D01*
X181586190Y-86367619D01*
X181062380Y-85177142D02*
X181062380Y-84986666D01*
X181110000Y-84891428D01*
X181205238Y-84796190D01*
X181395714Y-84748571D01*
X181729047Y-84748571D01*
X181919523Y-84796190D01*
X182014761Y-84891428D01*
X182062380Y-84986666D01*
X182062380Y-85177142D01*
X182014761Y-85272380D01*
X181919523Y-85367619D01*
X181729047Y-85415238D01*
X181395714Y-85415238D01*
X181205238Y-85367619D01*
X181110000Y-85272380D01*
X181062380Y-85177142D01*
X182062380Y-83748571D02*
X181586190Y-84081904D01*
X182062380Y-84320000D02*
X181062380Y-84320000D01*
X181062380Y-83939047D01*
X181110000Y-83843809D01*
X181157619Y-83796190D01*
X181252857Y-83748571D01*
X181395714Y-83748571D01*
X181490952Y-83796190D01*
X181538571Y-83843809D01*
X181586190Y-83939047D01*
X181586190Y-84320000D01*
X181062380Y-83462857D02*
X181062380Y-82891428D01*
X182062380Y-83177142D02*
X181062380Y-83177142D01*
X181967142Y-81224761D02*
X182014761Y-81272380D01*
X182062380Y-81415238D01*
X182062380Y-81510476D01*
X182014761Y-81653333D01*
X181919523Y-81748571D01*
X181824285Y-81796190D01*
X181633809Y-81843809D01*
X181490952Y-81843809D01*
X181300476Y-81796190D01*
X181205238Y-81748571D01*
X181110000Y-81653333D01*
X181062380Y-81510476D01*
X181062380Y-81415238D01*
X181110000Y-81272380D01*
X181157619Y-81224761D01*
X172386666Y-48347380D02*
X172386666Y-49061666D01*
X172339047Y-49204523D01*
X172243809Y-49299761D01*
X172100952Y-49347380D01*
X172005714Y-49347380D01*
X172815238Y-48442619D02*
X172862857Y-48395000D01*
X172958095Y-48347380D01*
X173196190Y-48347380D01*
X173291428Y-48395000D01*
X173339047Y-48442619D01*
X173386666Y-48537857D01*
X173386666Y-48633095D01*
X173339047Y-48775952D01*
X172767619Y-49347380D01*
X173386666Y-49347380D01*
X156543809Y-47156666D02*
X157020000Y-47156666D01*
X156448571Y-47442380D02*
X156781904Y-46442380D01*
X157115238Y-47442380D01*
X157305714Y-46442380D02*
X157639047Y-47442380D01*
X157972380Y-46442380D01*
X158877142Y-47442380D02*
X158543809Y-46966190D01*
X158305714Y-47442380D02*
X158305714Y-46442380D01*
X158686666Y-46442380D01*
X158781904Y-46490000D01*
X158829523Y-46537619D01*
X158877142Y-46632857D01*
X158877142Y-46775714D01*
X158829523Y-46870952D01*
X158781904Y-46918571D01*
X158686666Y-46966190D01*
X158305714Y-46966190D01*
X159305714Y-47061428D02*
X160067619Y-47061428D01*
X160829523Y-46442380D02*
X160829523Y-47156666D01*
X160781904Y-47299523D01*
X160686666Y-47394761D01*
X160543809Y-47442380D01*
X160448571Y-47442380D01*
X161162857Y-46442380D02*
X161734285Y-46442380D01*
X161448571Y-47442380D02*
X161448571Y-46442380D01*
X162020000Y-47156666D02*
X162496190Y-47156666D01*
X161924761Y-47442380D02*
X162258095Y-46442380D01*
X162591428Y-47442380D01*
X163448571Y-46490000D02*
X163353333Y-46442380D01*
X163210476Y-46442380D01*
X163067619Y-46490000D01*
X162972380Y-46585238D01*
X162924761Y-46680476D01*
X162877142Y-46870952D01*
X162877142Y-47013809D01*
X162924761Y-47204285D01*
X162972380Y-47299523D01*
X163067619Y-47394761D01*
X163210476Y-47442380D01*
X163305714Y-47442380D01*
X163448571Y-47394761D01*
X163496190Y-47347142D01*
X163496190Y-47013809D01*
X163305714Y-47013809D01*
X131643380Y-58650095D02*
X130643380Y-58650095D01*
X130643380Y-58412000D01*
X130691000Y-58269142D01*
X130786238Y-58173904D01*
X130881476Y-58126285D01*
X131071952Y-58078666D01*
X131214809Y-58078666D01*
X131405285Y-58126285D01*
X131500523Y-58173904D01*
X131595761Y-58269142D01*
X131643380Y-58412000D01*
X131643380Y-58650095D01*
X130976714Y-57221523D02*
X131643380Y-57221523D01*
X130595761Y-57459619D02*
X131310047Y-57697714D01*
X131310047Y-57078666D01*
X131897380Y-68436857D02*
X131897380Y-69008285D01*
X131897380Y-68722571D02*
X130897380Y-68722571D01*
X131040238Y-68817809D01*
X131135476Y-68913047D01*
X131183095Y-69008285D01*
X131897380Y-68008285D02*
X130897380Y-68008285D01*
X131897380Y-67436857D01*
X130897380Y-67436857D01*
X131230714Y-66532095D02*
X131897380Y-66532095D01*
X130849761Y-66770190D02*
X131564047Y-67008285D01*
X131564047Y-66389238D01*
X130897380Y-65817809D02*
X130897380Y-65722571D01*
X130945000Y-65627333D01*
X130992619Y-65579714D01*
X131087857Y-65532095D01*
X131278333Y-65484476D01*
X131516428Y-65484476D01*
X131706904Y-65532095D01*
X131802142Y-65579714D01*
X131849761Y-65627333D01*
X131897380Y-65722571D01*
X131897380Y-65817809D01*
X131849761Y-65913047D01*
X131802142Y-65960666D01*
X131706904Y-66008285D01*
X131516428Y-66055904D01*
X131278333Y-66055904D01*
X131087857Y-66008285D01*
X130992619Y-65960666D01*
X130945000Y-65913047D01*
X130897380Y-65817809D01*
X130897380Y-64865428D02*
X130897380Y-64770190D01*
X130945000Y-64674952D01*
X130992619Y-64627333D01*
X131087857Y-64579714D01*
X131278333Y-64532095D01*
X131516428Y-64532095D01*
X131706904Y-64579714D01*
X131802142Y-64627333D01*
X131849761Y-64674952D01*
X131897380Y-64770190D01*
X131897380Y-64865428D01*
X131849761Y-64960666D01*
X131802142Y-65008285D01*
X131706904Y-65055904D01*
X131516428Y-65103523D01*
X131278333Y-65103523D01*
X131087857Y-65055904D01*
X130992619Y-65008285D01*
X130945000Y-64960666D01*
X130897380Y-64865428D01*
X130897380Y-64198761D02*
X130897380Y-63579714D01*
X131278333Y-63913047D01*
X131278333Y-63770190D01*
X131325952Y-63674952D01*
X131373571Y-63627333D01*
X131468809Y-63579714D01*
X131706904Y-63579714D01*
X131802142Y-63627333D01*
X131849761Y-63674952D01*
X131897380Y-63770190D01*
X131897380Y-64055904D01*
X131849761Y-64151142D01*
X131802142Y-64198761D01*
X136723380Y-58650095D02*
X135723380Y-58650095D01*
X135723380Y-58412000D01*
X135771000Y-58269142D01*
X135866238Y-58173904D01*
X135961476Y-58126285D01*
X136151952Y-58078666D01*
X136294809Y-58078666D01*
X136485285Y-58126285D01*
X136580523Y-58173904D01*
X136675761Y-58269142D01*
X136723380Y-58412000D01*
X136723380Y-58650095D01*
X135723380Y-57745333D02*
X135723380Y-57126285D01*
X136104333Y-57459619D01*
X136104333Y-57316761D01*
X136151952Y-57221523D01*
X136199571Y-57173904D01*
X136294809Y-57126285D01*
X136532904Y-57126285D01*
X136628142Y-57173904D01*
X136675761Y-57221523D01*
X136723380Y-57316761D01*
X136723380Y-57602476D01*
X136675761Y-57697714D01*
X136628142Y-57745333D01*
X136977380Y-68436857D02*
X136977380Y-69008285D01*
X136977380Y-68722571D02*
X135977380Y-68722571D01*
X136120238Y-68817809D01*
X136215476Y-68913047D01*
X136263095Y-69008285D01*
X136977380Y-68008285D02*
X135977380Y-68008285D01*
X136977380Y-67436857D01*
X135977380Y-67436857D01*
X136310714Y-66532095D02*
X136977380Y-66532095D01*
X135929761Y-66770190D02*
X136644047Y-67008285D01*
X136644047Y-66389238D01*
X135977380Y-65817809D02*
X135977380Y-65722571D01*
X136025000Y-65627333D01*
X136072619Y-65579714D01*
X136167857Y-65532095D01*
X136358333Y-65484476D01*
X136596428Y-65484476D01*
X136786904Y-65532095D01*
X136882142Y-65579714D01*
X136929761Y-65627333D01*
X136977380Y-65722571D01*
X136977380Y-65817809D01*
X136929761Y-65913047D01*
X136882142Y-65960666D01*
X136786904Y-66008285D01*
X136596428Y-66055904D01*
X136358333Y-66055904D01*
X136167857Y-66008285D01*
X136072619Y-65960666D01*
X136025000Y-65913047D01*
X135977380Y-65817809D01*
X135977380Y-64865428D02*
X135977380Y-64770190D01*
X136025000Y-64674952D01*
X136072619Y-64627333D01*
X136167857Y-64579714D01*
X136358333Y-64532095D01*
X136596428Y-64532095D01*
X136786904Y-64579714D01*
X136882142Y-64627333D01*
X136929761Y-64674952D01*
X136977380Y-64770190D01*
X136977380Y-64865428D01*
X136929761Y-64960666D01*
X136882142Y-65008285D01*
X136786904Y-65055904D01*
X136596428Y-65103523D01*
X136358333Y-65103523D01*
X136167857Y-65055904D01*
X136072619Y-65008285D01*
X136025000Y-64960666D01*
X135977380Y-64865428D01*
X135977380Y-64198761D02*
X135977380Y-63579714D01*
X136358333Y-63913047D01*
X136358333Y-63770190D01*
X136405952Y-63674952D01*
X136453571Y-63627333D01*
X136548809Y-63579714D01*
X136786904Y-63579714D01*
X136882142Y-63627333D01*
X136929761Y-63674952D01*
X136977380Y-63770190D01*
X136977380Y-64055904D01*
X136929761Y-64151142D01*
X136882142Y-64198761D01*
X129103380Y-58650095D02*
X128103380Y-58650095D01*
X128103380Y-58412000D01*
X128151000Y-58269142D01*
X128246238Y-58173904D01*
X128341476Y-58126285D01*
X128531952Y-58078666D01*
X128674809Y-58078666D01*
X128865285Y-58126285D01*
X128960523Y-58173904D01*
X129055761Y-58269142D01*
X129103380Y-58412000D01*
X129103380Y-58650095D01*
X128198619Y-57697714D02*
X128151000Y-57650095D01*
X128103380Y-57554857D01*
X128103380Y-57316761D01*
X128151000Y-57221523D01*
X128198619Y-57173904D01*
X128293857Y-57126285D01*
X128389095Y-57126285D01*
X128531952Y-57173904D01*
X129103380Y-57745333D01*
X129103380Y-57126285D01*
X129357380Y-68436857D02*
X129357380Y-69008285D01*
X129357380Y-68722571D02*
X128357380Y-68722571D01*
X128500238Y-68817809D01*
X128595476Y-68913047D01*
X128643095Y-69008285D01*
X129357380Y-68008285D02*
X128357380Y-68008285D01*
X129357380Y-67436857D01*
X128357380Y-67436857D01*
X128690714Y-66532095D02*
X129357380Y-66532095D01*
X128309761Y-66770190D02*
X129024047Y-67008285D01*
X129024047Y-66389238D01*
X128357380Y-65817809D02*
X128357380Y-65722571D01*
X128405000Y-65627333D01*
X128452619Y-65579714D01*
X128547857Y-65532095D01*
X128738333Y-65484476D01*
X128976428Y-65484476D01*
X129166904Y-65532095D01*
X129262142Y-65579714D01*
X129309761Y-65627333D01*
X129357380Y-65722571D01*
X129357380Y-65817809D01*
X129309761Y-65913047D01*
X129262142Y-65960666D01*
X129166904Y-66008285D01*
X128976428Y-66055904D01*
X128738333Y-66055904D01*
X128547857Y-66008285D01*
X128452619Y-65960666D01*
X128405000Y-65913047D01*
X128357380Y-65817809D01*
X128357380Y-64865428D02*
X128357380Y-64770190D01*
X128405000Y-64674952D01*
X128452619Y-64627333D01*
X128547857Y-64579714D01*
X128738333Y-64532095D01*
X128976428Y-64532095D01*
X129166904Y-64579714D01*
X129262142Y-64627333D01*
X129309761Y-64674952D01*
X129357380Y-64770190D01*
X129357380Y-64865428D01*
X129309761Y-64960666D01*
X129262142Y-65008285D01*
X129166904Y-65055904D01*
X128976428Y-65103523D01*
X128738333Y-65103523D01*
X128547857Y-65055904D01*
X128452619Y-65008285D01*
X128405000Y-64960666D01*
X128357380Y-64865428D01*
X128357380Y-64198761D02*
X128357380Y-63579714D01*
X128738333Y-63913047D01*
X128738333Y-63770190D01*
X128785952Y-63674952D01*
X128833571Y-63627333D01*
X128928809Y-63579714D01*
X129166904Y-63579714D01*
X129262142Y-63627333D01*
X129309761Y-63674952D01*
X129357380Y-63770190D01*
X129357380Y-64055904D01*
X129309761Y-64151142D01*
X129262142Y-64198761D01*
X134183380Y-58650095D02*
X133183380Y-58650095D01*
X133183380Y-58412000D01*
X133231000Y-58269142D01*
X133326238Y-58173904D01*
X133421476Y-58126285D01*
X133611952Y-58078666D01*
X133754809Y-58078666D01*
X133945285Y-58126285D01*
X134040523Y-58173904D01*
X134135761Y-58269142D01*
X134183380Y-58412000D01*
X134183380Y-58650095D01*
X134183380Y-57126285D02*
X134183380Y-57697714D01*
X134183380Y-57412000D02*
X133183380Y-57412000D01*
X133326238Y-57507238D01*
X133421476Y-57602476D01*
X133469095Y-57697714D01*
X134437380Y-68436857D02*
X134437380Y-69008285D01*
X134437380Y-68722571D02*
X133437380Y-68722571D01*
X133580238Y-68817809D01*
X133675476Y-68913047D01*
X133723095Y-69008285D01*
X134437380Y-68008285D02*
X133437380Y-68008285D01*
X134437380Y-67436857D01*
X133437380Y-67436857D01*
X133770714Y-66532095D02*
X134437380Y-66532095D01*
X133389761Y-66770190D02*
X134104047Y-67008285D01*
X134104047Y-66389238D01*
X133437380Y-65817809D02*
X133437380Y-65722571D01*
X133485000Y-65627333D01*
X133532619Y-65579714D01*
X133627857Y-65532095D01*
X133818333Y-65484476D01*
X134056428Y-65484476D01*
X134246904Y-65532095D01*
X134342142Y-65579714D01*
X134389761Y-65627333D01*
X134437380Y-65722571D01*
X134437380Y-65817809D01*
X134389761Y-65913047D01*
X134342142Y-65960666D01*
X134246904Y-66008285D01*
X134056428Y-66055904D01*
X133818333Y-66055904D01*
X133627857Y-66008285D01*
X133532619Y-65960666D01*
X133485000Y-65913047D01*
X133437380Y-65817809D01*
X133437380Y-64865428D02*
X133437380Y-64770190D01*
X133485000Y-64674952D01*
X133532619Y-64627333D01*
X133627857Y-64579714D01*
X133818333Y-64532095D01*
X134056428Y-64532095D01*
X134246904Y-64579714D01*
X134342142Y-64627333D01*
X134389761Y-64674952D01*
X134437380Y-64770190D01*
X134437380Y-64865428D01*
X134389761Y-64960666D01*
X134342142Y-65008285D01*
X134246904Y-65055904D01*
X134056428Y-65103523D01*
X133818333Y-65103523D01*
X133627857Y-65055904D01*
X133532619Y-65008285D01*
X133485000Y-64960666D01*
X133437380Y-64865428D01*
X133437380Y-64198761D02*
X133437380Y-63579714D01*
X133818333Y-63913047D01*
X133818333Y-63770190D01*
X133865952Y-63674952D01*
X133913571Y-63627333D01*
X134008809Y-63579714D01*
X134246904Y-63579714D01*
X134342142Y-63627333D01*
X134389761Y-63674952D01*
X134437380Y-63770190D01*
X134437380Y-64055904D01*
X134389761Y-64151142D01*
X134342142Y-64198761D01*
X141692333Y-67667142D02*
X141644714Y-67714761D01*
X141501857Y-67762380D01*
X141406619Y-67762380D01*
X141263761Y-67714761D01*
X141168523Y-67619523D01*
X141120904Y-67524285D01*
X141073285Y-67333809D01*
X141073285Y-67190952D01*
X141120904Y-67000476D01*
X141168523Y-66905238D01*
X141263761Y-66810000D01*
X141406619Y-66762380D01*
X141501857Y-66762380D01*
X141644714Y-66810000D01*
X141692333Y-66857619D01*
X142597095Y-66762380D02*
X142120904Y-66762380D01*
X142073285Y-67238571D01*
X142120904Y-67190952D01*
X142216142Y-67143333D01*
X142454238Y-67143333D01*
X142549476Y-67190952D01*
X142597095Y-67238571D01*
X142644714Y-67333809D01*
X142644714Y-67571904D01*
X142597095Y-67667142D01*
X142549476Y-67714761D01*
X142454238Y-67762380D01*
X142216142Y-67762380D01*
X142120904Y-67714761D01*
X142073285Y-67667142D01*
X139517380Y-65841428D02*
X139517380Y-66412857D01*
X139517380Y-66127142D02*
X138517380Y-66127142D01*
X138660238Y-66222380D01*
X138755476Y-66317619D01*
X138803095Y-66412857D01*
X138517380Y-65222380D02*
X138517380Y-65127142D01*
X138565000Y-65031904D01*
X138612619Y-64984285D01*
X138707857Y-64936666D01*
X138898333Y-64889047D01*
X139136428Y-64889047D01*
X139326904Y-64936666D01*
X139422142Y-64984285D01*
X139469761Y-65031904D01*
X139517380Y-65127142D01*
X139517380Y-65222380D01*
X139469761Y-65317619D01*
X139422142Y-65365238D01*
X139326904Y-65412857D01*
X139136428Y-65460476D01*
X138898333Y-65460476D01*
X138707857Y-65412857D01*
X138612619Y-65365238D01*
X138565000Y-65317619D01*
X138517380Y-65222380D01*
X138850714Y-64031904D02*
X139517380Y-64031904D01*
X138850714Y-64460476D02*
X139374523Y-64460476D01*
X139469761Y-64412857D01*
X139517380Y-64317619D01*
X139517380Y-64174761D01*
X139469761Y-64079523D01*
X139422142Y-64031904D01*
X138993571Y-63222380D02*
X138993571Y-63555714D01*
X139517380Y-63555714D02*
X138517380Y-63555714D01*
X138517380Y-63079523D01*
X142311428Y-60705952D02*
X142311428Y-59944047D01*
X142692380Y-60325000D02*
X141930476Y-60325000D01*
X152233333Y-59547142D02*
X152185714Y-59594761D01*
X152042857Y-59642380D01*
X151947619Y-59642380D01*
X151804761Y-59594761D01*
X151709523Y-59499523D01*
X151661904Y-59404285D01*
X151614285Y-59213809D01*
X151614285Y-59070952D01*
X151661904Y-58880476D01*
X151709523Y-58785238D01*
X151804761Y-58690000D01*
X151947619Y-58642380D01*
X152042857Y-58642380D01*
X152185714Y-58690000D01*
X152233333Y-58737619D01*
X153185714Y-59642380D02*
X152614285Y-59642380D01*
X152900000Y-59642380D02*
X152900000Y-58642380D01*
X152804761Y-58785238D01*
X152709523Y-58880476D01*
X152614285Y-58928095D01*
X151836571Y-58491380D02*
X151265142Y-58491380D01*
X151550857Y-58491380D02*
X151550857Y-57491380D01*
X151455619Y-57634238D01*
X151360380Y-57729476D01*
X151265142Y-57777095D01*
X152455619Y-57491380D02*
X152550857Y-57491380D01*
X152646095Y-57539000D01*
X152693714Y-57586619D01*
X152741333Y-57681857D01*
X152788952Y-57872333D01*
X152788952Y-58110428D01*
X152741333Y-58300904D01*
X152693714Y-58396142D01*
X152646095Y-58443761D01*
X152550857Y-58491380D01*
X152455619Y-58491380D01*
X152360380Y-58443761D01*
X152312761Y-58396142D01*
X152265142Y-58300904D01*
X152217523Y-58110428D01*
X152217523Y-57872333D01*
X152265142Y-57681857D01*
X152312761Y-57586619D01*
X152360380Y-57539000D01*
X152455619Y-57491380D01*
X153646095Y-57824714D02*
X153646095Y-58491380D01*
X153217523Y-57824714D02*
X153217523Y-58348523D01*
X153265142Y-58443761D01*
X153360380Y-58491380D01*
X153503238Y-58491380D01*
X153598476Y-58443761D01*
X153646095Y-58396142D01*
X154455619Y-57967571D02*
X154122285Y-57967571D01*
X154122285Y-58491380D02*
X154122285Y-57491380D01*
X154598476Y-57491380D01*
M02*
